<?xml version="1.0" encoding="utf-8"?>
<!-- Generator: Adobe Illustrator 26.5.0, SVG Export Plug-In . SVG Version: 6.00 Build 0)  -->
<svg version="1.1" id="Layer_1" xmlns="http://www.w3.org/2000/svg" xmlns:xlink="http://www.w3.org/1999/xlink" x="0px" y="0px"
	 viewBox="0 0 1080 1080" style="enable-background:new 0 0 1080 1080;" xml:space="preserve">
<style type="text/css">
	.st0{fill-rule:evenodd;clip-rule:evenodd;}
	.st1{fill:#ED1C24;}
	.st2{fill:#E1251B;}
	.st3{fill-rule:evenodd;clip-rule:evenodd;fill:#16397B;}
	.st4{fill:#EE2745;}
	
		.st5{clip-path:url(#SVGID_00000030469591001514434080000002114573915338542756_);fill:url(#SVGID_00000091738125168213859240000008553547424058656662_);}
	
		.st6{clip-path:url(#SVGID_00000127010394208571440560000006265672076530620343_);fill:url(#SVGID_00000036220595159480518680000015683643542730307984_);}
	
		.st7{clip-path:url(#SVGID_00000148626109241616009790000004493938895381491074_);fill:url(#SVGID_00000161609501655366498360000006746512578316333247_);}
	
		.st8{clip-path:url(#SVGID_00000020389780966093235800000005371092527837534910_);fill:url(#SVGID_00000160869749890740655490000017125828532353649821_);}
	.st9{fill:#424243;}
	
		.st10{clip-path:url(#SVGID_00000049210892262647110360000005241585796883058819_);fill:url(#SVGID_00000121240202454402642310000013581164102229379481_);}
	.st11{fill:#FFFFFF;}
	
		.st12{clip-path:url(#SVGID_00000177464513403698468760000008504773359502667926_);fill:url(#SVGID_00000008120470037469230240000001134125656340840368_);}
	
		.st13{clip-path:url(#SVGID_00000061461629668112502840000001785157774139237536_);fill:url(#SVGID_00000074435555957336438140000006838051270428319145_);}
	
		.st14{clip-path:url(#SVGID_00000095326804066992240100000012872362241636908986_);fill:url(#SVGID_00000058561224676667091910000008933975043881374629_);}
	
		.st15{clip-path:url(#SVGID_00000176744123495078819980000017707457573767764667_);fill:url(#SVGID_00000088847384514628695680000006125664129807937936_);}
	
		.st16{clip-path:url(#SVGID_00000157297945782394315280000007682548684227239612_);fill:url(#SVGID_00000121992665857238406820000008550508144691112627_);}
	
		.st17{clip-path:url(#SVGID_00000047045036255233325970000014364699378371943831_);fill:url(#SVGID_00000137854294648377572820000009417333606897329051_);}
	
		.st18{clip-path:url(#SVGID_00000163063057107013427340000003972570425055976862_);fill:url(#SVGID_00000176734967185928571330000017629073916850747532_);}
	.st19{fill-rule:evenodd;clip-rule:evenodd;fill:#C8202F;}
	.st20{fill-rule:evenodd;clip-rule:evenodd;fill:#FFFFFF;}
	.st21{fill-rule:evenodd;clip-rule:evenodd;fill:#F98238;}
	.st22{filter:url(#Adobe_OpacityMaskFilter);}
	.st23{fill:url(#SVGID_00000183947154936829702050000006405699504748161179_);}
	.st24{mask:url(#SVGID_00000101799834344171028340000002772135179709381255_);fill-rule:evenodd;clip-rule:evenodd;fill:#ED1C24;}
	.st25{fill-rule:evenodd;clip-rule:evenodd;fill:#F5333F;}
	.st26{fill-rule:evenodd;clip-rule:evenodd;fill:#ED1C24;}
	.st27{fill-rule:evenodd;clip-rule:evenodd;fill:#F9A46E;}
	.st28{fill-rule:evenodd;clip-rule:evenodd;fill:#F47B26;}
	.st29{fill-rule:evenodd;clip-rule:evenodd;fill:#EB5433;}
	.st30{fill:#1A3282;}
	.st31{fill-rule:evenodd;clip-rule:evenodd;fill:#1A3282;}
	.st32{fill-rule:evenodd;clip-rule:evenodd;fill:#9D9FA2;}
	.st33{fill-rule:evenodd;clip-rule:evenodd;fill:#000303;}
	.st34{fill:#64003D;}
	.st35{fill:#536270;}
	.st36{fill-rule:evenodd;clip-rule:evenodd;fill:#64003D;}
	.st37{fill-rule:evenodd;clip-rule:evenodd;fill:#536270;}
	.st38{fill-rule:evenodd;clip-rule:evenodd;fill:#1A3382;}
	.st39{fill-rule:evenodd;clip-rule:evenodd;fill:#29387E;}
	.st40{fill-rule:evenodd;clip-rule:evenodd;fill:#F37021;}
	.st41{fill-rule:evenodd;clip-rule:evenodd;fill:#005C32;}
	.st42{fill-rule:evenodd;clip-rule:evenodd;fill:#D2AB67;}
	
		.st43{clip-path:url(#SVGID_00000060004558727885533390000010388931170926970496_);fill:url(#SVGID_00000123406854986906980670000013732273821113661353_);}
	
		.st44{clip-path:url(#SVGID_00000036249590600801134480000006382281044875893175_);fill:url(#SVGID_00000022545876549996932530000009877457798430605738_);}
	
		.st45{clip-path:url(#SVGID_00000085214756941224063780000006105386933324580753_);fill:url(#SVGID_00000056425985950297179450000009335793534837445022_);}
	.st46{fill-rule:evenodd;clip-rule:evenodd;fill:#00AEEF;}
	.st47{fill-rule:evenodd;clip-rule:evenodd;fill:#EC008C;}
	.st48{fill-rule:evenodd;clip-rule:evenodd;fill:#FFF200;}
	.st49{fill:#A7AAAC;}
	.st50{fill-rule:evenodd;clip-rule:evenodd;fill:#5C5B5B;}
	.st51{fill:#9D9D9F;}
	.st52{fill:#F04D23;}
	.st53{fill-rule:evenodd;clip-rule:evenodd;fill:#2E3192;}
	.st54{fill-rule:evenodd;clip-rule:evenodd;fill:#C4312D;}
	.st55{fill:#552715;}
	.st56{fill:#010101;}
	.st57{fill:#E31E2E;}
	.st58{fill:url(#SVGID_00000164509514979855009840000000421886220752857728_);}
	.st59{fill:url(#SVGID_00000101073994942177216150000004804261647881891513_);}
	.st60{clip-path:url(#SVGID_00000130617593854908222120000007785824933495976589_);}
	.st61{clip-path:url(#SVGID_00000127727317287151223910000005884016222549538726_);}
	.st62{clip-path:url(#SVGID_00000146474266857570992990000008280764586943402899_);}
	.st63{clip-path:url(#SVGID_00000096049180448270327130000015651139397262219416_);}
	.st64{clip-path:url(#SVGID_00000112628842367600614150000001636106571954986634_);}
	.st65{clip-path:url(#SVGID_00000124124311058397334920000017875123469505562812_);}
	.st66{clip-path:url(#SVGID_00000010296591442316392490000012857845214515732886_);}
	.st67{clip-path:url(#SVGID_00000066506226466458911170000007075064628549670019_);}
	.st68{clip-path:url(#SVGID_00000106831486032342943940000011908375945004978875_);}
	.st69{clip-path:url(#SVGID_00000107578700519541203270000015527956799562094264_);}
	.st70{clip-path:url(#SVGID_00000021112256949579510310000007791460110728859048_);}
	.st71{fill:#2650A1;}
	.st72{fill:url(#SVGID_00000096046816345299388420000009753337007289045131_);}
	.st73{fill:#FEFEFE;}
	.st74{fill:#FDFDFD;}
	.st75{fill:#FCFCFC;}
	.st76{fill:#FBFBFB;}
	.st77{fill:#FAFAFA;}
	.st78{fill:#F9F9F9;}
	.st79{fill:#F8F8F8;}
	.st80{fill:#F7F7F7;}
	.st81{fill:#F6F6F6;}
	.st82{fill:#F5F5F5;}
	.st83{fill:#F4F4F4;}
	.st84{fill:#F3F3F3;}
	.st85{fill:#F2F2F2;}
	.st86{fill:#F1F1F1;}
	.st87{fill:#F0F0F0;}
	.st88{fill:#EFEFEF;}
	.st89{fill:#EEEEEE;}
	.st90{fill:#EDEDED;}
	.st91{fill:#ECECEC;}
	.st92{fill:#EBEBEB;}
	.st93{fill:#EAEAEA;}
	.st94{fill:#E9E9E9;}
	.st95{fill:#E8E8E8;}
	.st96{fill:#E7E7E7;}
	.st97{fill:#E6E6E6;}
	.st98{fill:#E5E5E5;}
	.st99{fill:#E4E4E4;}
	.st100{fill:#E3E3E3;}
	.st101{fill:#E2E2E2;}
	.st102{fill:#E1E1E1;}
	.st103{fill:#E0E0E0;}
	.st104{fill:#DFDFDF;}
	.st105{fill:#DEDEDE;}
	.st106{fill:#DDDDDD;}
	.st107{fill:#DCDCDC;}
	.st108{fill:#DBDBDB;}
	.st109{fill:#DADADA;}
	.st110{fill:#D9D9D9;}
	.st111{fill:#D92231;}
	.st112{fill:url(#SVGID_00000102533135277273224730000012618329203843370885_);}
	.st113{fill:url(#SVGID_00000119079535360519303430000014044538908423420847_);}
	.st114{opacity:0.8;}
	.st115{fill:url(#SVGID_00000174579718850999596790000017208254882670235578_);}
	.st116{fill:url(#SVGID_00000149359673948700613060000003114001186706710968_);}
	.st117{fill-rule:evenodd;clip-rule:evenodd;fill:#010101;}
	.st118{fill:#80A845;}
	.st119{fill-rule:evenodd;clip-rule:evenodd;fill:#80A845;}
	.st120{fill:url(#SVGID_00000127750305586607143780000008605150198974456724_);}
	.st121{fill-rule:evenodd;clip-rule:evenodd;fill:#04984A;}
	.st122{fill-rule:evenodd;clip-rule:evenodd;fill:url(#SVGID_00000176018098302914546210000016177606784156492422_);}
	.st123{fill:url(#SVGID_00000147209503673823859090000000969172695897442189_);}
	.st124{fill:url(#SVGID_00000114780054134572853040000000645154059055137410_);}
	.st125{fill:url(#SVGID_00000090289867745769971980000014756881667240077200_);}
	.st126{fill:url(#SVGID_00000036241600061187473080000010578890320701737104_);}
	.st127{fill:url(#SVGID_00000094619598402214337110000006204812135881701766_);}
	.st128{fill:url(#SVGID_00000183236051612206748740000003161575165478462357_);}
	.st129{fill:url(#SVGID_00000034079748648009191270000014898931813318107277_);}
	.st130{fill:url(#SVGID_00000183240245787524907440000005190795963183574193_);}
	.st131{fill:url(#SVGID_00000106125184551746560710000006287476948062327198_);}
	.st132{fill:url(#SVGID_00000023967251372532191370000012604732720932637867_);}
	.st133{fill:url(#SVGID_00000181052800671126270730000004913748414197940133_);}
	.st134{fill:url(#SVGID_00000026865476611704000580000000102187263875982508_);}
	.st135{fill:url(#SVGID_00000004535835177220833610000000451567496692073146_);}
	.st136{fill:url(#SVGID_00000016063271004594897410000004399334342542060190_);}
	.st137{fill-rule:evenodd;clip-rule:evenodd;fill:url(#SVGID_00000106146934110677485710000015737346104984930477_);}
	.st138{fill:#0A529D;}
	.st139{fill:url(#SVGID_00000155851984982264714480000016227191548715127739_);}
	.st140{fill:url(#SVGID_00000152263714771622608340000006075740847087393920_);}
	.st141{fill:url(#SVGID_00000090980529739565375040000001586950782319986816_);}
	.st142{fill:url(#SVGID_00000094583965607185650320000006126515220082701705_);}
	.st143{fill:url(#SVGID_00000168809224008496685490000007044758639813434032_);}
	.st144{fill:url(#SVGID_00000077299183545900705100000014467277363888005796_);}
	.st145{fill:url(#SVGID_00000101092351137366726080000006712002167560317583_);}
	.st146{fill:url(#SVGID_00000138547488112032437720000002421018297445553812_);}
	.st147{fill:url(#SVGID_00000019636299078626328610000016361569466954506629_);}
	.st148{fill:url(#SVGID_00000064339169826853072380000009281046077561124488_);}
	.st149{fill:url(#SVGID_00000080889007606801802180000012455917639447621511_);}
	.st150{fill:url(#SVGID_00000057862069654837477330000017470141852443135922_);}
	.st151{fill-rule:evenodd;clip-rule:evenodd;fill:url(#SVGID_00000134928204604437473700000007916920866598097558_);}
	.st152{fill:url(#SVGID_00000008143531808040362360000001250348709534984327_);}
	.st153{fill:url(#SVGID_00000099644745470361194550000011868599608503123599_);}
	.st154{fill:url(#SVGID_00000156566389458566306140000010349512027403584650_);}
	.st155{fill:url(#SVGID_00000005980964077628714430000000521562702124100756_);}
	.st156{fill:url(#SVGID_00000116207453437281897650000004057988113213643961_);}
	.st157{fill:url(#SVGID_00000029758228463102174330000015414085851531735430_);}
	.st158{fill:url(#SVGID_00000028298105845228376840000004364665813814460813_);}
	.st159{fill:url(#SVGID_00000085232831945441360770000007501292766853684159_);}
	.st160{fill:url(#SVGID_00000112630071146171670250000014352531256016573830_);}
	.st161{fill:url(#SVGID_00000079473754298308871910000004547435418648894114_);}
	.st162{fill:url(#SVGID_00000017510577616652941900000015486920859713056425_);}
	.st163{fill:url(#SVGID_00000052813604026690813670000012150868727092764595_);}
	.st164{fill:url(#SVGID_00000011003852716100432970000004645855546260477358_);}
	.st165{fill:url(#SVGID_00000066475922347517743070000000707599555702245536_);}
	.st166{fill:url(#SVGID_00000098202291091285446820000003005101549230156200_);}
	.st167{fill:url(#SVGID_00000098221429004271552850000013912277862025842837_);}
	.st168{fill:url(#SVGID_00000093144407071528463100000000013871719785087365_);}
	.st169{fill-rule:evenodd;clip-rule:evenodd;fill:url(#SVGID_00000135672201742470815920000008657437178038168253_);}
	.st170{fill:url(#SVGID_00000078723899407676396820000002467897919725925821_);}
	.st171{fill:url(#SVGID_00000072280922295918073390000012726929993766713774_);}
	.st172{fill:url(#SVGID_00000168820554077262857560000010203029067014721695_);}
	.st173{fill:url(#SVGID_00000155828618101269169660000015190307035654240184_);}
	.st174{fill:url(#SVGID_00000103955593403017241050000001130629887954965940_);}
	.st175{fill:url(#SVGID_00000178901447791693227000000017944854834134615472_);}
	.st176{fill:url(#SVGID_00000137843607444855407960000010732465073779447699_);}
	.st177{fill:url(#SVGID_00000042738755224545188240000015520174836865107118_);}
	.st178{fill:url(#SVGID_00000052081268559955933040000013771138354303090862_);}
	.st179{fill:url(#SVGID_00000075867585563456725300000013620145380908752002_);}
	.st180{fill:url(#SVGID_00000003796373341953399760000015529190642737275571_);}
	.st181{fill:url(#SVGID_00000010280850683805432240000013740673828919501464_);}
	.st182{fill:url(#SVGID_00000175284007378290303350000012367529684243523466_);}
	.st183{fill:url(#SVGID_00000149364730337413524640000014372561530660393602_);}
	.st184{fill-rule:evenodd;clip-rule:evenodd;fill:url(#SVGID_00000070092370894640087620000012285305521192321450_);}
	.st185{fill:url(#SVGID_00000178165967675773665590000002366236559887379637_);}
	.st186{fill:url(#SVGID_00000142876331363062083580000005708734887065132212_);}
	.st187{fill:url(#SVGID_00000021801854407753009240000005654317693577844892_);}
	.st188{fill:url(#SVGID_00000119091153116988637940000001278699481190951607_);}
	.st189{fill:url(#SVGID_00000050621992847144550140000014740461488965548419_);}
	.st190{fill:url(#SVGID_00000063630914417282504180000004771680174842216632_);}
	.st191{fill:url(#SVGID_00000129889300788185898070000015799386675315170204_);}
	.st192{fill:url(#SVGID_00000107547748692341996120000013931150789941651095_);}
	.st193{fill:url(#SVGID_00000117669425273271484290000007057707270354096793_);}
	.st194{fill:url(#SVGID_00000051381926002834826740000011883210442753900733_);}
	.st195{fill:url(#SVGID_00000125571436345132599880000006783147946194179458_);}
	.st196{fill:url(#SVGID_00000119098390109819661520000014150643944874110894_);}
	.st197{fill:url(#SVGID_00000013187481526943791950000005209013851557498021_);}
	.st198{fill:url(#SVGID_00000135681874736879672230000002323707873307810970_);}
	.st199{fill:url(#SVGID_00000012467417649654853180000004441453269593292931_);}
	.st200{fill:url(#SVGID_00000171681968418490768680000008382768996476821422_);}
	.st201{fill:url(#SVGID_00000131334757290077292190000000722597378493482410_);}
	.st202{fill:url(#SVGID_00000028306679043776924250000012820115977909212094_);}
	.st203{fill:url(#SVGID_00000006672488328448563150000009107458266407950000_);}
	.st204{fill-rule:evenodd;clip-rule:evenodd;fill:url(#SVGID_00000031198069080713786590000015261411561133614487_);}
	.st205{fill:url(#SVGID_00000045607959601869821100000010329918232634778007_);}
	.st206{fill:url(#SVGID_00000062183527045939092040000016424902724162520975_);}
	.st207{fill:url(#SVGID_00000172429010933644793930000017507665908503804290_);}
	.st208{fill:url(#SVGID_00000176022013530859437930000004940673175832555187_);}
	.st209{fill:url(#SVGID_00000171001595991887684830000010385101775973461413_);}
	.st210{fill:url(#SVGID_00000047749830799178490090000007964699149553883289_);}
	.st211{fill:url(#SVGID_00000005954809299210575890000006354604441764285343_);}
	.st212{fill:url(#SVGID_00000041996725989650341280000018073571460993648829_);}
	.st213{fill:url(#SVGID_00000083800524164867535270000008188521409043429799_);}
	.st214{fill:url(#SVGID_00000145032714768679592470000005120052233570658488_);}
	.st215{fill:url(#SVGID_00000078017626823313507240000014654374793449568936_);}
	.st216{fill:url(#SVGID_00000147203565984261742480000008750966754537918107_);}
	.st217{fill:url(#SVGID_00000029743538761743841720000013529611952977122979_);}
	.st218{fill:url(#SVGID_00000009558933029772162010000005530615205200028042_);}
	.st219{fill:url(#SVGID_00000028285068481722492150000016192022110353066647_);}
	.st220{fill:url(#SVGID_00000117672975910808457280000004533852929351064213_);}
	.st221{fill-rule:evenodd;clip-rule:evenodd;fill:url(#SVGID_00000143615879810386734720000017535655901101688193_);}
	.st222{fill:url(#SVGID_00000088099183208298723530000003020399278733449349_);}
	.st223{fill:url(#SVGID_00000070801089418579743510000015373275189913143199_);}
	.st224{fill:url(#SVGID_00000089546672776509288540000014364041362247183279_);}
	.st225{fill:url(#SVGID_00000067943869456664302150000014622442781234835353_);}
	.st226{fill:url(#SVGID_00000107549149305763638160000009339407721839637435_);}
	.st227{fill:url(#SVGID_00000119096798674352353940000007065546640086375341_);}
	.st228{fill:url(#SVGID_00000033359771953273222830000017815694030075500982_);}
	.st229{fill:url(#SVGID_00000080199101869063254030000016670560182077376944_);}
	.st230{fill:url(#SVGID_00000054976071564582111270000013726331956469464208_);}
	.st231{fill:url(#SVGID_00000074399885931034644080000000557281062612356527_);}
	.st232{fill:url(#SVGID_00000032615447614071123880000014600765148670339210_);}
	.st233{fill:url(#SVGID_00000147899524887979892930000007151537015720727974_);}
	.st234{fill:url(#SVGID_00000026849827356543175970000005859402887070162309_);}
	.st235{fill:url(#SVGID_00000022538091217176334100000004727651827287849911_);}
	.st236{fill:url(#SVGID_00000069391078133624470410000010864201976095182523_);}
	.st237{fill-rule:evenodd;clip-rule:evenodd;fill:url(#SVGID_00000000935431977286234020000003487009947415164585_);}
	.st238{fill:url(#SVGID_00000142854606605940933480000017797151761089593001_);}
	.st239{fill:url(#SVGID_00000101783213929003554280000018055165360660919966_);}
	.st240{fill:url(#SVGID_00000011028067185624672840000007212552830940962739_);}
	.st241{fill:url(#SVGID_00000171709050069670228860000004374813135031215787_);}
	.st242{fill:url(#SVGID_00000160883762871365376210000014732907884247718810_);}
	.st243{fill:url(#SVGID_00000076581155680278561360000004376588223609199548_);}
	.st244{fill:url(#SVGID_00000084522827741039025750000011049927134506550188_);}
	.st245{fill:url(#SVGID_00000023274011712086557040000000971871519279576729_);}
	.st246{fill:url(#SVGID_00000051379138102178891740000012135634671993765532_);}
	.st247{fill:url(#SVGID_00000099644418447236907910000006897628865940064644_);}
	.st248{fill:url(#SVGID_00000089569968041321049580000003821671450836492943_);}
	.st249{fill:url(#SVGID_00000139255194352925041730000014859687297474292886_);}
	.st250{fill:url(#SVGID_00000098196755541353068730000017816776558348570531_);}
	.st251{fill:url(#SVGID_00000130620847906860315060000000362383616821548422_);}
	.st252{fill:url(#SVGID_00000062887169823058688600000016248740905119434115_);}
	.st253{fill-rule:evenodd;clip-rule:evenodd;fill:url(#SVGID_00000000193077199496041730000013380799300787345596_);}
	.st254{fill:url(#SVGID_00000066504921412099646650000003790359595726769570_);}
	.st255{fill:url(#SVGID_00000101821129127548381680000012048670424083475095_);}
	.st256{fill:url(#SVGID_00000103261906084419309740000008873687440370253721_);}
	.st257{fill:url(#SVGID_00000036221341790736735480000005328211739557232547_);}
	.st258{fill:url(#SVGID_00000080183411276034981860000014636037031116030864_);}
	.st259{fill:url(#SVGID_00000110440338553522056650000000707271551221445555_);}
	.st260{fill:url(#SVGID_00000124840040231226431990000014568789447060345246_);}
	.st261{fill:url(#SVGID_00000150797464960588848920000000237250190424660894_);}
	.st262{fill:url(#SVGID_00000087405609204261115020000010277014241613531836_);}
	.st263{fill:url(#SVGID_00000140736283867404320610000015160179559571959229_);}
	.st264{fill:url(#SVGID_00000085238671364275116090000018066998729257472143_);}
	.st265{fill:url(#SVGID_00000145059578828400593200000015708636060947919539_);}
	.st266{fill:url(#SVGID_00000127767076238423482380000016511017995564979344_);}
	.st267{fill:url(#SVGID_00000111185531035840340130000005892304271109046183_);}
	.st268{fill:url(#SVGID_00000029724227865911408720000001079011177823211419_);}
	.st269{fill-rule:evenodd;clip-rule:evenodd;fill:url(#SVGID_00000094611438603018796330000017018637320818728109_);}
	.st270{fill:url(#SVGID_00000137850537877081703290000012821327421964692146_);}
	.st271{fill:url(#SVGID_00000150797508690419837050000015227043455511507850_);}
	.st272{fill:url(#SVGID_00000176758190675684008650000015297212131697256095_);}
	.st273{fill:url(#SVGID_00000119839722616453761300000011855405228496039557_);}
	.st274{fill:url(#SVGID_00000059292846815049820100000012540462215849667484_);}
	.st275{fill:url(#SVGID_00000114761305006933276200000010502220651390652061_);}
	.st276{fill:url(#SVGID_00000101091815042367931180000009615076572017000126_);}
	.st277{fill:url(#SVGID_00000084500325907259379820000012882400926092715921_);}
	.st278{fill:url(#SVGID_00000029736919944901829920000000881625296453643421_);}
	.st279{fill:url(#SVGID_00000157266526902346699900000018358727594405648286_);}
	.st280{fill:url(#SVGID_00000087400820254464805790000002762553387231414181_);}
	.st281{fill:url(#SVGID_00000076598570661939256660000017761242502145463467_);}
	.st282{fill:url(#SVGID_00000129914686812381463220000009710397811681194909_);}
	.st283{fill:url(#SVGID_00000072256144431253930130000003039826480518352575_);}
	.st284{fill:url(#SVGID_00000083768309610760313310000014515871597866172802_);}
	.st285{fill-rule:evenodd;clip-rule:evenodd;fill:url(#SVGID_00000103243753299857749420000005778448966998560914_);}
	.st286{fill:url(#SVGID_00000054266390909613019650000015649916066745280384_);}
	.st287{fill:url(#SVGID_00000125590847858738592030000007565204941976254142_);}
	.st288{fill:url(#SVGID_00000080922836920810492150000004304028300374494874_);}
	.st289{fill:url(#SVGID_00000063593987488751178840000012014677928057899666_);}
	.st290{fill:url(#SVGID_00000000213702379926573590000005857405977010057861_);}
	.st291{fill:url(#SVGID_00000108295070361688642230000014176302857571484583_);}
	.st292{fill:url(#SVGID_00000182512627717972002600000006175011969480797099_);}
	.st293{fill:url(#SVGID_00000044146246712668244630000016010663335234140334_);}
	.st294{fill:url(#SVGID_00000081635361290870583970000004649014905876647826_);}
	.st295{fill:url(#SVGID_00000145756958584489045990000014485759715020888248_);}
	.st296{fill:url(#SVGID_00000075159566749177054130000015069092294703292333_);}
	.st297{fill:url(#SVGID_00000031182833933028033540000003117048053050472371_);}
	.st298{fill:url(#SVGID_00000080193706280512489830000012934129691902039431_);}
	.st299{fill:url(#SVGID_00000124156147899564085460000005122760703911276443_);}
	.st300{fill:url(#SVGID_00000170997685693492138880000000466197612836241561_);}
	.st301{fill:url(#SVGID_00000121964131835448424590000015861359759313018013_);}
	.st302{fill:url(#SVGID_00000025422182742040383860000015243677603723783857_);}
	.st303{fill:url(#SVGID_00000026865550208271122390000005125222754355069333_);}
	.st304{fill-rule:evenodd;clip-rule:evenodd;fill:url(#SVGID_00000046333241441815723830000015656292003331050626_);}
	.st305{fill:url(#SVGID_00000028299112641450174170000002660732364298847897_);}
	.st306{fill:url(#SVGID_00000075842438610048783560000013238704412067768236_);}
	.st307{fill:url(#SVGID_00000088849330241280285150000012370338534928052867_);}
	.st308{fill:url(#SVGID_00000153700377259879148200000014963054489253151156_);}
	.st309{fill:url(#SVGID_00000015348633121655633510000016192314321886290583_);}
	.st310{fill:url(#SVGID_00000002384113940114810350000018085243851217239724_);}
	.st311{fill:url(#SVGID_00000006702443419342586620000012959143015626181285_);}
	.st312{fill:url(#SVGID_00000106844855999792563010000015700832293599922566_);}
	.st313{fill:url(#SVGID_00000020367589056138103200000013163540043152046228_);}
	.st314{fill:url(#SVGID_00000044158770546408279470000013398519916545432766_);}
	.st315{fill:url(#SVGID_00000134248648094620087010000014732584752244205722_);}
	.st316{fill:url(#SVGID_00000028306579583286032340000006779733297190689680_);}
	.st317{fill:url(#SVGID_00000183251418220716022440000004950137280414530441_);}
	.st318{fill:url(#SVGID_00000078731947142451569210000001882731998808812468_);}
	.st319{fill:url(#SVGID_00000011023880895959333710000005885451855313608891_);}
	.st320{fill:url(#SVGID_00000073698377096756278690000005550306530868307634_);}
	.st321{fill:url(#SVGID_00000120519754104018095690000000729258305746837376_);}
	.st322{fill:url(#SVGID_00000026884694764348468960000004248850350856131751_);}
	.st323{fill:url(#SVGID_00000158012261615178404550000001628730099445368969_);}
	.st324{fill:url(#SVGID_00000108297079108785048490000002183617481449484718_);}
	.st325{fill-rule:evenodd;clip-rule:evenodd;fill:url(#SVGID_00000149342940699013578070000016114854230175863203_);}
	.st326{fill:url(#SVGID_00000165219671220984247940000003599087465386884284_);}
	.st327{fill:url(#SVGID_00000142142093327494209450000013994398978287561632_);}
	.st328{fill:url(#SVGID_00000178883215658640533060000010994885140564538280_);}
	.st329{fill:url(#SVGID_00000034075584006168604180000017256677777583568527_);}
	.st330{fill:url(#SVGID_00000181088747217189718780000008177237928694298010_);}
	.st331{fill:url(#SVGID_00000170255880951345063790000017493554572352789653_);}
	.st332{fill:url(#SVGID_00000083803844192708211410000003063794185345521810_);}
	.st333{fill:url(#SVGID_00000177459108177431863330000017535621908902190766_);}
	.st334{fill:url(#SVGID_00000043455402318021874820000014840615052175831733_);}
	.st335{fill:url(#SVGID_00000174561230650706994550000011425140891457809035_);}
	.st336{fill:url(#SVGID_00000136390656883589807860000014968998242629155239_);}
	.st337{fill:url(#SVGID_00000173141865282391195930000001499220198127215004_);}
	.st338{fill:url(#SVGID_00000129168571417178038910000004843668387553500587_);}
	.st339{fill:url(#SVGID_00000018238319111607309030000000671760805807362461_);}
	.st340{fill:url(#SVGID_00000012474251390101149540000010696889572866981049_);}
	.st341{fill:url(#SVGID_00000156556434761007599870000010309682062322756286_);}
	.st342{fill-rule:evenodd;clip-rule:evenodd;fill:url(#SVGID_00000139977595912959770280000017747589399295584387_);}
	.st343{fill:url(#SVGID_00000005987241929190357600000006980549606776728764_);}
	.st344{fill:url(#SVGID_00000027580115908130081300000009653032149612814999_);}
	.st345{fill:url(#SVGID_00000083788092991019848230000003141706784084507277_);}
	.st346{fill:url(#SVGID_00000088849140503249998570000016756384093404151461_);}
	.st347{fill:url(#SVGID_00000121998606759602305380000010079878873356797624_);}
	.st348{fill:url(#SVGID_00000036931945370906700510000015974912210874071435_);}
	.st349{fill:url(#SVGID_00000057126244596161295770000017030787824838806186_);}
	.st350{fill:url(#SVGID_00000121993800924104707330000010311729770283086722_);}
	.st351{fill:url(#SVGID_00000116925164884084427850000004687811244076250555_);}
	.st352{fill:url(#SVGID_00000031191864586063462210000006678516205293595809_);}
	.st353{fill:url(#SVGID_00000039856002848928411610000012009950386896378265_);}
	.st354{fill:url(#SVGID_00000039817898837843061860000005792991457029030304_);}
	.st355{fill:url(#SVGID_00000115506999044027076460000013835884535618646677_);}
	.st356{fill:url(#SVGID_00000165945243315244821560000010227636933903679932_);}
	.st357{fill:url(#SVGID_00000008116279215216981340000011278737311449836730_);}
	.st358{fill:url(#SVGID_00000147928506177628964670000015296639210703219851_);}
	.st359{fill:url(#SVGID_00000105396063037210947600000007254572237472168077_);}
	.st360{fill:url(#SVGID_00000150082528152502590350000004470662772253216685_);}
	.st361{fill:url(#SVGID_00000131327586405679562330000006122186835190856372_);}
	.st362{fill:url(#SVGID_00000035497508621991296200000013726990514712943511_);}
	.st363{fill:#C1282D;}
	.st364{fill-rule:evenodd;clip-rule:evenodd;fill:url(#SVGID_00000114762289409814310810000006061901671092753320_);}
	.st365{fill:url(#SVGID_00000051368117382419965650000013812375856641554308_);}
	.st366{fill:url(#SVGID_00000140705344463562726980000018347332982222103430_);}
	.st367{fill:url(#SVGID_00000177467218173102614070000012546662514851637388_);}
	.st368{fill:url(#SVGID_00000034080078589017556900000012800676423323148984_);}
	.st369{fill:url(#SVGID_00000098199801654129789350000009408348870563047865_);}
	.st370{fill:url(#SVGID_00000128487192965132885830000017903390918184844202_);}
	.st371{fill:url(#SVGID_00000078009923592057924600000001010820762045345193_);}
	.st372{fill:url(#SVGID_00000038402776317019128480000017584480780520309926_);}
	.st373{fill:url(#SVGID_00000117637814533024215850000011532300295536979084_);}
	.st374{fill:url(#SVGID_00000063607744626263814340000011635363302632970120_);}
	.st375{fill:url(#SVGID_00000155862015793017156410000017576010817111595170_);}
	.st376{fill:url(#SVGID_00000135657971734736910940000004963904086320785813_);}
	.st377{fill:url(#SVGID_00000093160600822310269910000010434469095840705968_);}
	.st378{fill:url(#SVGID_00000175286488133395991740000000572782644033452961_);}
	.st379{fill:url(#SVGID_00000065048803379686293410000004887309840717865396_);}
	.st380{fill:url(#SVGID_00000167386198764231437990000016249625510088032702_);}
	.st381{fill-rule:evenodd;clip-rule:evenodd;fill:url(#SVGID_00000059286417388815507640000009641533778547703439_);}
	.st382{fill:url(#SVGID_00000152968159597873821140000011801348290630935440_);}
	.st383{fill:url(#SVGID_00000044147396327535620990000002806841392241435309_);}
	.st384{fill:url(#SVGID_00000165217506310264098610000007112496604270447020_);}
	.st385{fill:url(#SVGID_00000099659399514816208740000004904172048026125238_);}
	.st386{fill:url(#SVGID_00000170988847830045788380000010312032660903904947_);}
	.st387{fill:url(#SVGID_00000109725985468745615040000016174242487634055818_);}
	.st388{fill:url(#SVGID_00000034787994667485330510000005759936886828083637_);}
	.st389{fill:url(#SVGID_00000105393674779454228860000002400219387857942180_);}
	.st390{fill:url(#SVGID_00000013890313000853377460000005644961566292694660_);}
	.st391{fill:url(#SVGID_00000088129501389857039780000004554795650069810077_);}
	.st392{fill:url(#SVGID_00000152965921682824259230000014933257632617232301_);}
	.st393{fill:url(#SVGID_00000115512613696137260410000005386381078355871385_);}
	.st394{fill:url(#SVGID_00000020378247159114855500000017075374483925837458_);}
	.st395{fill:url(#SVGID_00000138558464563424561720000010153130990408046000_);}
	.st396{fill:url(#SVGID_00000159449209878831330270000010395368725259529605_);}
	.st397{fill:url(#SVGID_00000181064326913064395780000010343170205492914564_);}
	.st398{fill:url(#SVGID_00000086661028440028001960000004642259228340800655_);}
	.st399{fill:url(#SVGID_00000047742755940011847240000010985627687487605693_);}
	.st400{fill:url(#SVGID_00000040564689569512646050000015426466275454621369_);}
	.st401{fill:url(#SVGID_00000132050491446097983440000010210643452655262891_);}
</style>
<g>
	<path class="st34" d="M1043.73,453.8l-54.91,48.42l40.82,79.99h-43.01l-25.27-55.6l-27.64,24.04l-6.1,31.57H887.5l25.25-128.41
		h40.12l-9.59,48.06l0.37,0.36l47.72-48.42H1043.73z M885.94,453.8l-25.43,128.41h-37.25L790.1,507.6h-0.36l-14.68,74.61h-37.43
		l25.43-128.41h37.25l32.99,74.79h0.36l14.86-74.79H885.94z M735.16,453.8l-25.25,128.41h-40.31l25.26-128.41H735.16z
		 M657.72,550.82l-6.1,31.39H547.8l25.08-128.41H613l-19.15,97.02H657.72z M462.61,505.99h7.56c6.3,0,11.51-0.15,15.62-0.42
		c4.13-0.29,7.12-0.75,9-1.37c1.79-0.54,3.4-1.32,4.79-2.3c1.36-0.99,2.51-2.18,3.39-3.62c0.87-1.34,1.54-2.69,1.96-4.01
		c0.43-1.34,0.62-2.63,0.59-3.89c-0.02-1.7-0.33-3.2-0.89-4.45c-0.57-1.29-1.39-2.37-2.48-3.26c-1.1-0.99-2.82-1.7-5.2-2.18
		c-2.35-0.45-5.38-0.69-9.07-0.69h-20.15L462.61,505.99z M432.89,453.8h73.23c6.3,0,11.8,0.81,16.48,2.45
		c4.65,1.61,8.47,4.1,11.41,7.42c3.03,3.32,5.31,6.96,6.82,10.91c1.55,3.97,2.34,8.28,2.42,12.94c0.17,10.05-2.72,18.83-8.71,26.37
		c-3.09,3.77-7.08,6.82-12.02,9.18c-4.9,2.39-10.78,4.09-17.6,5.17c4.11,3.32,8.66,9.47,13.67,18.44c4.99,9,10.42,20.84,16.26,35.55
		h-42.1c-1.79-4.67-3.77-9.51-5.92-14.59c-2.16-5.05-4.51-10.34-7.03-15.9c-2.43-5.47-4.58-9.81-6.44-13.01
		c-1.86-3.2-3.42-5.19-4.69-6c-2.37-1.8-5.26-2.69-8.68-2.69h-2.16l-10.05,52.19h-39.95L432.89,453.8z M405.19,453.8l-25.25,128.41
		h-40.31l25.25-128.41H405.19z M279.05,533.97l-4.79-46.81h-0.36l-21.3,46.81H279.05z M323.26,582.21h-39.03l-2.17-20.99h-41.92
		l-9.7,20.99H187.6l70.41-128.41h42.45L323.26,582.21z"/>
	<path class="st35" d="M724.96,616.56l6.27-0.62c0.17,1.06,0.45,1.98,0.83,2.73c0.38,0.77,0.85,1.39,1.43,1.88
		c0.58,0.48,1.26,0.86,2.04,1.11c0.77,0.26,1.65,0.39,2.63,0.39c2.09,0,3.64-0.45,4.67-1.33c1.07-0.89,1.61-1.91,1.61-3.06
		c0-0.38-0.05-0.73-0.16-1.03c-0.11-0.32-0.29-0.61-0.51-0.88c-0.22-0.27-0.52-0.51-0.9-0.75c-0.39-0.24-0.85-0.45-1.41-0.63
		c-0.38-0.13-1-0.32-1.86-0.56c-0.86-0.23-1.96-0.52-3.29-0.86c-1.72-0.42-3.18-0.88-4.39-1.4c-1.21-0.51-2.17-1.08-2.86-1.7
		c-1.96-1.77-2.94-3.9-2.94-6.39c0-0.82,0.11-1.61,0.34-2.37c0.22-0.76,0.58-1.49,1.04-2.2c0.46-0.68,1.03-1.31,1.69-1.85
		c0.66-0.54,1.42-0.99,2.26-1.34c0.87-0.38,1.83-0.66,2.87-0.83c1.05-0.19,2.18-0.28,3.4-0.28c2,0,3.77,0.22,5.27,0.65
		c1.51,0.45,2.76,1.09,3.76,1.96c1.02,0.87,1.8,1.88,2.32,3.05c0.52,1.18,0.82,2.49,0.88,3.96l-6.45,0.27
		c-0.14-0.82-0.35-1.52-0.64-2.1c-0.3-0.58-0.68-1.05-1.14-1.4c-0.45-0.36-1-0.63-1.68-0.8c-0.67-0.18-1.46-0.27-2.37-0.27
		c-0.94,0-1.76,0.09-2.5,0.27c-0.73,0.17-1.37,0.46-1.9,0.83c-0.34,0.24-0.59,0.53-0.77,0.86c-0.17,0.33-0.26,0.71-0.26,1.13
		c0,0.38,0.08,0.72,0.23,1.03c0.16,0.32,0.41,0.61,0.75,0.88c0.4,0.35,1.09,0.71,2.07,1.06c0.98,0.36,2.26,0.71,3.84,1.06
		c1.56,0.38,2.91,0.76,4.06,1.14c1.16,0.38,2.12,0.77,2.87,1.17c0.74,0.37,1.4,0.84,2,1.37c0.59,0.54,1.1,1.15,1.52,1.82
		c0.42,0.69,0.73,1.44,0.94,2.29c0.2,0.85,0.3,1.77,0.3,2.77c0,0.91-0.13,1.8-0.37,2.66c-0.25,0.86-0.63,1.7-1.14,2.48
		c-0.51,0.78-1.13,1.47-1.84,2.06c-0.72,0.58-1.54,1.07-2.47,1.45c-0.91,0.39-1.94,0.7-3.11,0.89c-1.14,0.2-2.41,0.3-3.79,0.3
		c-2.03,0-3.81-0.23-5.35-0.7c-1.55-0.47-2.86-1.16-3.95-2.1C726.7,622.81,725.41,620.11,724.96,616.56 M547.37,626.89v-31.74h23.62
		v5.36h-17.22v7.05h16.01v5.32h-16.01v8.65h17.79v5.36H547.37z M573.79,626.89l10.9-16.58l-9.88-15.16h7.52l6.4,10.19l6.22-10.19
		h7.48l-9.92,15.43l10.9,16.32h-7.79l-7.03-10.99l-7.12,10.99H573.79z M606.71,626.89v-31.74h10.32c1.96,0,3.58,0.04,4.85,0.12
		c1.27,0.1,2.21,0.21,2.81,0.36c0.91,0.25,1.74,0.62,2.5,1.14c0.77,0.51,1.45,1.17,2.08,1.96c0.6,0.8,1.05,1.71,1.36,2.74
		c0.31,1.02,0.46,2.17,0.46,3.42c0,1.95-0.36,3.59-1.06,4.93c-0.36,0.66-0.76,1.26-1.21,1.79c-0.45,0.53-0.95,0.98-1.5,1.36
		c-0.53,0.38-1.07,0.69-1.63,0.95c-0.55,0.24-1.1,0.43-1.66,0.57c-0.78,0.13-1.72,0.24-2.83,0.32c-1.12,0.08-2.4,0.12-3.84,0.12
		h-4.23v11.98H606.71z M613.12,600.51v9h3.51c1.26,0,2.34-0.03,3.2-0.11c0.85-0.07,1.5-0.2,1.92-0.38c0.42-0.16,0.8-0.36,1.13-0.63
		c0.34-0.26,0.62-0.57,0.87-0.92c0.24-0.36,0.42-0.74,0.54-1.16c0.11-0.41,0.17-0.86,0.17-1.33c0-0.57-0.08-1.1-0.25-1.56
		c-0.16-0.47-0.42-0.89-0.77-1.27c-0.34-0.38-0.72-0.69-1.14-0.93c-0.42-0.24-0.9-0.4-1.44-0.49c-0.38-0.07-0.96-0.12-1.73-0.16
		c-0.78-0.04-1.74-0.06-2.9-0.06H613.12z M636.39,626.89v-31.74h23.62v5.36h-17.22v7.05h16.01v5.32h-16.01v8.65h17.79v5.36H636.39z
		 M666.06,626.89v-31.74h13.56c1.69,0,3.16,0.07,4.4,0.21c1.23,0.16,2.23,0.36,2.99,0.63c1.56,0.57,2.8,1.59,3.73,3.06
		c0.45,0.73,0.79,1.5,1.02,2.33c0.24,0.83,0.36,1.73,0.36,2.68c0,1.17-0.18,2.26-0.53,3.24c-0.36,0.99-0.89,1.87-1.61,2.66
		c-1.37,1.55-3.46,2.53-6.27,2.92c0.7,0.39,1.33,0.82,1.9,1.26c0.57,0.45,1.08,0.91,1.53,1.4c0.46,0.48,1,1.16,1.61,2.02
		c0.6,0.86,1.28,1.9,2.04,3.12l3.92,6.21h-7.69l-4.63-6.92c-0.84-1.24-1.55-2.25-2.12-3.03c-0.56-0.77-0.99-1.31-1.3-1.62
		c-0.29-0.34-0.6-0.6-0.92-0.82c-0.33-0.21-0.66-0.38-1-0.51c-0.33-0.11-0.77-0.2-1.31-0.26c-0.55-0.07-1.19-0.09-1.93-0.09h-1.29
		v13.26H666.06z M672.51,608.58h4.76c1.54,0,2.79-0.04,3.75-0.1c0.96-0.07,1.63-0.16,2.04-0.3c0.38-0.13,0.71-0.31,1-0.53
		c0.29-0.21,0.55-0.48,0.78-0.8c0.22-0.33,0.39-0.68,0.51-1.08c0.1-0.39,0.15-0.82,0.15-1.31c0-0.53-0.07-1.02-0.22-1.44
		c-0.16-0.43-0.36-0.81-0.63-1.13c-0.29-0.34-0.64-0.6-1.04-0.81c-0.4-0.2-0.87-0.35-1.4-0.44c-0.54-0.09-2.1-0.13-4.68-0.13h-5.03
		V608.58z M705.35,626.89v-26.38h-9.43v-5.36h25.26v5.36h-9.39v26.38H705.35z M769.8,626.89v-31.74h6.45v31.74H769.8z
		 M782.43,626.89v-31.74h6.27l13.04,21.19v-21.19h5.96v31.74h-6.45l-12.82-20.71v20.71H782.43z M855.57,626.89h-6.99l-2.75-7.23
		h-12.78l-2.62,7.23h-6.81l12.41-31.74h6.81L855.57,626.89z M843.73,614.34l-4.36-11.8l-4.31,11.8H843.73z M858.78,626.89v-31.74
		h6.45v31.74H858.78z M871.36,626.89v-31.74h13.57c1.69,0,3.16,0.07,4.39,0.21c1.23,0.16,2.23,0.36,2.99,0.63
		c1.56,0.57,2.81,1.59,3.74,3.06c0.44,0.73,0.78,1.5,1.02,2.33c0.23,0.83,0.35,1.73,0.35,2.68c0,1.17-0.18,2.26-0.53,3.24
		c-0.35,0.99-0.89,1.87-1.6,2.66c-1.38,1.55-3.47,2.53-6.27,2.92c0.69,0.39,1.31,0.82,1.9,1.26c0.57,0.45,1.08,0.91,1.52,1.4
		c0.47,0.48,1.01,1.16,1.62,2.02c0.6,0.86,1.28,1.9,2.04,3.12l3.91,6.21h-7.69l-4.62-6.92c-0.85-1.24-1.56-2.25-2.11-3.03
		c-0.57-0.77-1.01-1.31-1.32-1.62c-0.28-0.34-0.6-0.6-0.92-0.82c-0.33-0.21-0.66-0.38-0.99-0.51c-0.33-0.11-0.78-0.2-1.32-0.26
		c-0.55-0.07-1.19-0.09-1.93-0.09h-1.29v13.26H871.36z M877.82,608.58h4.75c1.54,0,2.78-0.04,3.75-0.1c0.95-0.07,1.64-0.16,2.04-0.3
		c0.38-0.13,0.71-0.31,1.01-0.53c0.29-0.21,0.54-0.48,0.76-0.8c0.22-0.33,0.4-0.68,0.51-1.08c0.11-0.39,0.16-0.82,0.16-1.31
		c0-0.53-0.08-1.02-0.22-1.44c-0.15-0.43-0.35-0.81-0.62-1.13c-0.29-0.34-0.65-0.6-1.04-0.81c-0.41-0.2-0.88-0.35-1.41-0.44
		c-0.53-0.09-2.09-0.13-4.67-0.13h-5.03V608.58z M907.98,626.89l-7.56-31.74h6.54l4.8,21.82l5.83-21.82h7.65l5.6,22.17l4.85-22.17
		h6.5l-7.75,31.74h-6.81l-6.36-23.73l-6.32,23.73H907.98z M974.18,626.89h-6.99l-2.76-7.23h-12.76l-2.62,7.23h-6.81l12.41-31.74
		h6.81L974.18,626.89z M962.34,614.34l-4.36-11.8l-4.32,11.8H962.34z M985.96,626.89v-13.35l-11.7-18.4h7.57l7.52,12.54l7.34-12.54
		h7.38l-11.7,18.45v13.3H985.96z M1005.63,616.56l6.27-0.62c0.17,1.06,0.45,1.98,0.83,2.73c0.38,0.77,0.85,1.39,1.43,1.88
		c0.58,0.48,1.26,0.86,2.04,1.11c0.77,0.26,1.65,0.39,2.63,0.39c2.09,0,3.64-0.45,4.67-1.33c1.07-0.89,1.61-1.91,1.61-3.06
		c0-0.38-0.05-0.73-0.16-1.03c-0.11-0.32-0.29-0.61-0.51-0.88c-0.22-0.27-0.52-0.51-0.9-0.75c-0.39-0.24-0.85-0.45-1.41-0.63
		c-0.38-0.13-1-0.32-1.86-0.56c-0.86-0.23-1.96-0.52-3.29-0.86c-1.72-0.42-3.18-0.88-4.39-1.4c-1.21-0.51-2.17-1.08-2.86-1.7
		c-1.96-1.77-2.94-3.9-2.94-6.39c0-0.82,0.11-1.61,0.34-2.37c0.22-0.76,0.58-1.49,1.04-2.2c0.46-0.68,1.03-1.31,1.69-1.85
		c0.66-0.54,1.42-0.99,2.26-1.34c0.87-0.38,1.83-0.66,2.87-0.83c1.05-0.19,2.18-0.28,3.4-0.28c2,0,3.77,0.22,5.27,0.65
		c1.51,0.45,2.76,1.09,3.76,1.96c1.03,0.87,1.8,1.88,2.32,3.05c0.52,1.18,0.82,2.49,0.89,3.96l-6.46,0.27
		c-0.13-0.82-0.35-1.52-0.64-2.1c-0.3-0.58-0.68-1.05-1.14-1.4c-0.45-0.36-1-0.63-1.68-0.8c-0.67-0.18-1.46-0.27-2.37-0.27
		c-0.94,0-1.76,0.09-2.5,0.27c-0.73,0.17-1.37,0.46-1.9,0.83c-0.34,0.24-0.59,0.53-0.77,0.86c-0.17,0.33-0.26,0.71-0.26,1.13
		c0,0.38,0.08,0.72,0.23,1.03c0.16,0.32,0.41,0.61,0.75,0.88c0.4,0.35,1.09,0.71,2.07,1.06c0.98,0.36,2.26,0.71,3.84,1.06
		c1.56,0.38,2.91,0.76,4.06,1.14c1.16,0.38,2.12,0.77,2.87,1.17c0.74,0.37,1.4,0.84,2,1.37c0.59,0.54,1.1,1.15,1.52,1.82
		c0.42,0.69,0.74,1.44,0.94,2.29c0.2,0.85,0.3,1.77,0.3,2.77c0,0.91-0.13,1.8-0.37,2.66c-0.25,0.86-0.63,1.7-1.14,2.48
		c-0.51,0.78-1.13,1.47-1.84,2.06c-0.72,0.58-1.54,1.07-2.47,1.45c-0.91,0.39-1.94,0.7-3.11,0.89c-1.14,0.2-2.41,0.3-3.79,0.3
		c-2.03,0-3.81-0.23-5.35-0.7c-1.55-0.47-2.86-1.16-3.95-2.1C1007.37,622.81,1006.08,620.11,1005.63,616.56z"/>
	<path class="st36" d="M196.63,518.16c-0.03,42.5-35.92,79.77-80.21,79.75c-44.3-0.02-80.18-36.79-80.15-79.83
		c0.02-44.31,37.08-80.03,80.9-80C159.29,438.09,196.66,472.57,196.63,518.16z M83.43,573.47L83.43,573.47h0.02h0.01h0.01h0.01h0.01
		h0.01h0.01h0.01h0.01h0.01h0.01h0.01h0.01h0.01h0.01h0.01h0.01h0.01h0.01h0.01h0.01h0.01h0.01h0.01h0.01h0.01h0.01h0.01h0.01h0.01
		h0.01h0.01h0.01h0.01h0.01h0.01h0.01h0.01h0.01h0.01h0.01h0.01h0.02h0.01h0.01h0.01h0.02h0.01h0.01h0.01h0.01h0.01h0.01h0.01h0.01
		h0.01h0.01h0.01h0.01h0.01h0.01h0.01h0.01H84h0.02h0.01h0.01h0.01h0.01h0.08c0.04,0,0.09,0,0.13,0c0.02,0,0.03,0,0.03,0
		c0.02,0,0.03,0,0.04,0c0.02,0,0.02,0,0.04,0c0.01,0,0.02,0,0.02,0c0.05,0,0.09,0,0.13,0c0.04,0,0.09-0.01,0.13-0.01
		c0.05,0,0.1,0,0.14,0c0.05,0,0.1,0,0.16,0c0.31,0,0.62-0.01,0.93-0.02c0.32-0.01,0.64-0.01,0.95-0.01
		c0.33-0.01,0.66-0.03,0.97-0.04c0.32-0.01,0.65-0.02,0.99-0.04c-1.56-1.65-3.04-3.35-4.43-5.1c-1.38-1.74-2.68-3.51-3.88-5.34
		c-1.21-1.81-2.33-3.67-3.37-5.55c-1.03-1.89-1.98-3.8-2.86-5.75c-0.05,0.01-0.11,0.02-0.17,0.04c-0.05,0-0.11,0.01-0.16,0.01
		c-0.06,0.01-0.12,0.02-0.17,0.03c-0.06,0.01-0.11,0.01-0.17,0.01c-0.03,0.01-0.05,0.01-0.08,0.01c-0.02,0.01-0.05,0.02-0.08,0.02
		c-0.03,0-0.05,0.01-0.08,0.01c-0.02,0-0.05,0.01-0.08,0.01c-0.04,0-0.06,0.01-0.1,0.02c-0.02,0-0.06,0.01-0.09,0.01
		c-0.03,0-0.06,0.01-0.09,0.01c-0.03,0.01-0.07,0.01-0.1,0.02c-0.03,0-0.05,0.01-0.08,0.01c-0.03,0-0.05,0.01-0.09,0.01
		c-0.02,0.01-0.05,0.01-0.09,0.01c-0.03,0.01-0.06,0.01-0.08,0.01c-0.03,0.01-0.06,0.01-0.09,0.02c-0.02,0-0.05,0.01-0.08,0.01
		c-0.03,0-0.05,0.01-0.09,0.01c-0.03,0-0.05,0.01-0.09,0.01c-0.02,0-0.05,0.01-0.08,0.02c-0.03,0-0.06,0-0.09,0.01
		c-0.04,0-0.07,0-0.1,0.01c-0.02,0-0.06,0-0.09,0.01c-0.03,0-0.06,0.01-0.08,0.01c-0.03,0-0.06,0.01-0.09,0.01
		c-0.02,0-0.05,0-0.08,0.01c-0.04,0-0.06,0-0.09,0.01c-0.03,0-0.06,0.01-0.09,0.01c-0.03,0.01-0.07,0.01-0.09,0.01
		c-0.03,0.01-0.06,0.01-0.09,0.01c-0.03,0.01-0.06,0.01-0.09,0.01c-0.02,0.01-0.05,0.01-0.09,0.01c-0.02,0-0.05,0.01-0.08,0.01
		c-0.03,0-0.05,0.01-0.08,0.01c-0.02,0-0.05,0.01-0.08,0.01c-0.03,0-0.06,0.01-0.09,0.01c-0.03,0-0.07,0-0.1,0.01
		c-0.02,0-0.06,0.01-0.09,0.01c-0.03,0-0.07,0.01-0.09,0.01c-0.03,0-0.05,0-0.08,0.01c-0.02,0-0.05,0-0.07,0
		c-0.03,0-0.05,0.01-0.08,0.01c-0.02,0-0.05,0-0.07,0.01c-0.03,0-0.07,0-0.1,0.01c-0.03,0-0.07,0-0.09,0.01c-0.03,0-0.07,0-0.1,0.01
		c-0.03,0-0.07,0-0.1,0.01c-0.02,0-0.03,0-0.06,0c-0.02,0-0.03,0-0.06,0.01c-0.02,0-0.03,0-0.06,0c-0.02,0.01-0.05,0.01-0.06,0.01
		c-0.07,0-0.13,0.01-0.19,0.01c-0.07,0.01-0.14,0.01-0.2,0.02c-0.07,0.01-0.13,0.01-0.2,0.01c-0.06,0.01-0.13,0.01-0.19,0.01
		c-0.03,0-0.05,0-0.08,0.01c-0.02,0-0.05,0-0.08,0c-0.03,0.01-0.05,0.01-0.08,0.01c-0.02,0-0.05,0-0.08,0
		c-0.03,0.01-0.06,0.01-0.09,0.01c-0.03,0-0.06,0-0.09,0.01c-0.02,0-0.06,0-0.08,0c-0.03,0-0.06,0-0.09,0.01c-0.02,0-0.05,0-0.08,0
		c-0.02,0.01-0.06,0.01-0.08,0.01c-0.03,0-0.05,0-0.09,0c-0.02,0-0.05,0-0.08,0.01c-0.03,0-0.06,0-0.09,0
		c-0.04,0.01-0.06,0.01-0.09,0.01c-0.03,0-0.06,0-0.09,0c-0.03,0.01-0.05,0.01-0.08,0.01c-0.03,0-0.05,0-0.09,0
		c-0.02,0-0.05,0.01-0.08,0.01c-0.03,0-0.05,0-0.08,0c-0.03,0-0.06,0-0.09,0c-0.03,0.01-0.06,0.01-0.08,0.01c-0.04,0-0.06,0-0.09,0
		c-0.03,0-0.07,0.01-0.09,0.01c-0.02,0-0.06,0-0.08,0c-0.03,0-0.05,0-0.09,0.01c-0.03,0-0.05,0-0.09,0c-0.02,0-0.05,0-0.08,0
		c-0.03,0-0.05,0-0.08,0c-0.03,0.01-0.06,0.01-0.08,0.01c-0.03,0-0.06,0-0.09,0c-0.03,0-0.06,0-0.09,0c-0.02,0-0.06,0.01-0.08,0.01
		c-0.03,0-0.06,0-0.09,0c-0.03,0-0.06,0-0.09,0c-0.03,0-0.06,0-0.09,0c-0.02,0.01-0.06,0.01-0.08,0.01c-0.03,0-0.05,0-0.08,0
		c-0.02,0-0.06,0-0.08,0c-0.03,0-0.06,0.01-0.09,0.01c-0.03,0-0.05,0-0.08,0c-0.03,0-0.07,0-0.1,0s-0.06,0-0.09,0
		c-0.04,0-0.07,0-0.1,0c-0.04,0-0.07,0-0.1,0c-0.03,0-0.04,0-0.07,0c-0.02,0-0.04,0-0.07,0c-0.02,0-0.05,0-0.08,0
		c-0.02,0.01-0.04,0.01-0.06,0.01c-0.05,0-0.1,0-0.15,0c-0.04,0-0.09,0-0.15,0s-0.09,0-0.15,0c-0.05,0-0.1,0-0.15,0
		c-0.08,0-0.15,0-0.21,0c-0.08,0-0.15,0-0.22,0c-0.07,0-0.15,0-0.22,0c-0.07,0-0.15-0.01-0.22-0.01c-0.01,0-0.02,0-0.03,0
		c-0.02,0-0.03,0-0.04,0c-0.01,0-0.02,0-0.03,0s-0.02,0-0.03,0c-0.05,0-0.1,0-0.16,0c-0.05,0-0.1,0-0.15,0c-0.06,0-0.11,0-0.16,0
		s-0.1-0.01-0.15-0.01c-0.02,0-0.03,0-0.06,0c-0.02,0-0.03,0-0.05,0c-0.01,0-0.04,0-0.06-0.01c-0.02,0-0.03,0-0.05,0
		c-0.04,0-0.09,0-0.14,0c-0.05,0-0.09,0-0.14-0.01c-0.05,0-0.1,0-0.15,0c-0.04,0-0.09,0-0.14,0c-0.02-0.01-0.04-0.01-0.06-0.01
		c-0.02,0-0.04,0-0.06,0c-0.02,0-0.04,0-0.06,0c-0.03,0-0.05,0-0.06,0c-0.05,0-0.09-0.01-0.14-0.01c-0.04,0-0.09,0-0.14-0.01
		c-0.04,0-0.09,0-0.13,0c-0.05,0-0.09-0.01-0.14-0.01c-0.02,0-0.04,0-0.06,0c-0.02,0-0.04,0-0.06,0c-0.02,0-0.04,0-0.07-0.01
		c-0.02,0-0.04,0-0.06,0c-0.03,0-0.09,0-0.13-0.01c-0.05,0-0.09,0-0.14,0c-0.04-0.01-0.09-0.01-0.14-0.02c-0.04,0-0.09,0-0.14,0
		c-0.02,0-0.03,0-0.06,0c-0.02,0-0.04-0.01-0.05-0.01c-0.02,0-0.05,0-0.06,0c-0.02,0-0.05,0-0.06-0.01c-0.04,0-0.09,0-0.14,0
		c-0.05-0.01-0.09-0.01-0.15-0.01c-0.04-0.01-0.09-0.01-0.14-0.01c-0.05-0.01-0.09-0.01-0.15-0.02c-0.02,0-0.04,0-0.05,0
		c-0.02,0-0.04,0-0.05,0c-0.02,0-0.04-0.01-0.05-0.01c-0.01,0-0.03,0-0.05,0c-0.05,0-0.1-0.01-0.15-0.01
		c-0.06,0-0.11-0.01-0.16-0.02c-0.06,0-0.11-0.01-0.16-0.01c-0.06,0-0.11-0.01-0.16-0.01c-0.01,0-0.02,0-0.02,0
		c-0.02,0-0.03,0-0.04-0.01c-0.01,0-0.01,0-0.02,0s-0.02,0-0.03,0c-0.14-0.01-0.27-0.03-0.39-0.04c-0.13-0.01-0.27-0.02-0.4-0.03
		c-0.14-0.01-0.28-0.03-0.41-0.04c-0.14-0.01-0.29-0.02-0.43-0.04c-0.06,0-0.12-0.01-0.17-0.01c-0.06-0.01-0.11-0.01-0.17-0.02
		c-0.06-0.01-0.11-0.01-0.17-0.02c-0.05,0-0.11-0.01-0.17-0.02c-0.01,0-0.03,0-0.04-0.01c-0.02,0-0.03,0-0.05,0
		c-0.02,0-0.03,0-0.04-0.01c-0.02,0-0.04,0-0.05,0c-0.04-0.01-0.09-0.02-0.14-0.02c-0.05-0.01-0.1-0.01-0.15-0.02
		c-0.05,0-0.09-0.01-0.15-0.01c-0.04-0.01-0.09-0.01-0.14-0.02c-0.02,0-0.05,0-0.06,0c-0.02-0.01-0.04-0.01-0.05-0.01
		c-0.02,0-0.04-0.01-0.06-0.01c-0.02,0-0.03,0-0.05-0.01c-0.04-0.01-0.09-0.01-0.14-0.02c-0.05,0-0.09-0.01-0.13-0.01
		c-0.04-0.01-0.09-0.02-0.14-0.02c-0.04,0-0.09-0.01-0.14-0.01c-0.02,0-0.03-0.01-0.05-0.01c-0.02,0-0.04-0.01-0.06-0.01
		c-0.02-0.01-0.04-0.01-0.06-0.01c-0.03-0.01-0.05-0.01-0.07-0.01c-0.04,0-0.08-0.01-0.13-0.01c-0.04-0.01-0.08-0.01-0.13-0.02
		c-0.04,0-0.08-0.01-0.13-0.02c-0.03-0.01-0.08-0.01-0.12-0.01c-0.03,0-0.04-0.01-0.07-0.01c-0.02,0-0.04-0.01-0.06-0.01
		c-0.02,0-0.03-0.01-0.06-0.01c-0.02,0-0.04,0-0.06-0.01c-0.05-0.01-0.09-0.01-0.13-0.01c-0.04-0.01-0.09-0.01-0.13-0.02
		c-0.05-0.01-0.09-0.02-0.14-0.02c-0.04-0.01-0.09-0.01-0.13-0.01c-0.02-0.01-0.04-0.01-0.06-0.01c-0.02-0.01-0.04-0.01-0.05-0.02
		c-0.03,0-0.04,0-0.06,0c-0.03-0.01-0.04-0.01-0.06-0.01c-0.04-0.01-0.09-0.01-0.14-0.02c-0.05-0.01-0.09-0.01-0.14-0.02
		c-0.05-0.01-0.09-0.01-0.14-0.02c-0.05-0.01-0.09-0.02-0.15-0.02c-0.01,0-0.03-0.01-0.04-0.01c-0.02,0-0.04-0.01-0.05-0.01
		c-0.02,0-0.04-0.01-0.05-0.01c-0.02,0-0.03-0.01-0.05-0.01c-0.06-0.01-0.13-0.02-0.19-0.03c-0.06-0.01-0.12-0.02-0.19-0.03
		c-0.06-0.01-0.12-0.02-0.19-0.03c-0.06-0.01-0.12-0.02-0.18-0.03l-0.21-0.02c-0.84-1.62-1.63-3.27-2.36-4.96l0.09,0.02
		c0.06,0.02,0.12,0.03,0.18,0.04c0.06,0.01,0.12,0.02,0.2,0.03c0.07,0.02,0.15,0.03,0.22,0.05c1.3,0.27,2.61,0.51,3.95,0.71
		c1.33,0.21,2.69,0.39,4.05,0.52c1.37,0.15,2.74,0.25,4.13,0.32c1.39,0.08,2.78,0.11,4.18,0.1c0.02,0,0.03,0,0.03,0
		c0.02,0,0.03,0,0.05,0c0.01,0,0.02,0,0.03,0c0.02,0,0.02,0,0.04,0c0.23,0,0.46-0.01,0.7-0.01c0.24,0,0.47-0.01,0.71-0.01
		c0.23-0.01,0.46-0.01,0.7-0.02c0.24-0.01,0.47-0.02,0.7-0.03c0.02,0,0.03,0,0.05,0c0.02,0,0.03-0.01,0.05-0.01
		c0.02,0,0.03,0,0.05,0c0.02,0,0.03,0,0.05,0c0.05,0,0.09-0.01,0.14-0.01c0.05,0,0.09,0,0.14-0.01c0.04,0,0.08,0,0.14-0.01
		c0.04,0,0.08,0,0.14,0c0.02-0.01,0.05-0.01,0.07-0.01c0.03,0,0.05,0,0.08-0.01c0.02,0,0.05,0,0.08,0c0.03,0,0.04,0,0.08,0
		c0.04-0.01,0.08-0.01,0.12-0.01c0.05,0,0.09-0.01,0.13-0.01c0.03,0,0.08-0.01,0.12-0.01c0.04,0,0.09,0,0.12-0.01
		c0.04,0,0.07,0,0.09,0c0.04-0.01,0.06-0.01,0.1-0.01c0.02-0.01,0.06-0.01,0.08-0.01c0.03-0.01,0.06-0.01,0.09-0.01
		c0.03,0,0.07,0,0.11-0.01c0.03,0,0.08,0,0.11-0.01c0.04,0,0.08,0,0.11-0.01c0.03,0,0.08-0.01,0.11-0.01c0.04,0,0.08,0,0.11-0.01
		c0.05,0,0.08,0,0.11-0.01c0.04,0,0.08,0,0.11-0.01c0.03,0,0.08-0.01,0.11-0.01c0.03,0,0.06-0.01,0.09-0.01c0.03,0,0.06,0,0.09-0.01
		c0.04,0,0.07,0,0.09-0.01c0.04,0,0.06,0,0.1-0.01c0.07,0,0.14-0.01,0.21-0.02c0.07-0.01,0.14-0.01,0.21-0.02
		c0.07-0.01,0.14-0.01,0.21-0.01c0.07-0.01,0.14-0.02,0.21-0.03c-1.81-4.67-3.17-9.46-4.14-14.34c-0.96-4.87-1.52-9.82-1.71-14.78
		c-0.19-4.97-0.01-9.94,0.49-14.87c0.5-4.93,1.32-9.82,2.44-14.59c-3.41,2.74-6.56,5.74-9.4,8.94c-2.85,3.19-5.41,6.57-7.63,10.08
		c-2.21,3.51-4.08,7.14-5.58,10.84c-1.47,3.65-2.57,7.36-3.25,11.06c-0.15-0.89-0.29-1.8-0.41-2.71c0.63-4,1.75-7.99,3.29-11.9
		c1.56-3.95,3.56-7.84,5.94-11.59c2.39-3.75,5.16-7.35,8.25-10.75c3.09-3.4,6.51-6.6,10.21-9.53c0.83-2.95,1.77-5.84,2.82-8.67
		c1.04-2.83,2.17-5.6,3.41-8.29c1.23-2.68,2.54-5.3,3.94-7.81c1.37-2.48,2.83-4.87,4.35-7.16l1.46-0.67
		c-1.14,2.08-2.21,4.24-3.21,6.48c-1.01,2.25-1.96,4.58-2.83,6.97c-0.88,2.39-1.67,4.84-2.4,7.35c-0.72,2.5-1.37,5.05-1.93,7.66
		c3.89-2.68,8.06-5.17,12.46-7.47c4.4-2.3,9.03-4.39,13.87-6.23c4.83-1.87,9.86-3.49,15.05-4.87c5.19-1.39,10.54-2.52,16.01-3.39
		c0.11-0.02,0.23-0.04,0.35-0.05c0.12-0.02,0.23-0.04,0.35-0.05c0.12-0.02,0.23-0.04,0.35-0.05c0.12-0.02,0.23-0.04,0.35-0.05
		c-0.6-1.08-1.21-2.13-1.83-3.16c-0.63-1.03-1.26-2.04-1.91-3.04c-0.63-0.99-1.29-1.96-1.95-2.9c-0.65-0.93-1.3-1.83-1.96-2.72
		l1.31,0.21c0.7,0.89,1.39,1.8,2.07,2.71c0.7,0.93,1.39,1.87,2.07,2.83c0.68,0.96,1.35,1.92,2.01,2.89
		c0.65,0.97,1.31,1.96,1.94,2.96c0.02-0.01,0.04-0.01,0.06-0.01c0.02,0,0.04-0.01,0.06-0.01c0.03,0,0.05,0,0.08-0.01
		c0.02,0,0.05-0.01,0.08-0.01c0.02,0,0.04-0.01,0.04-0.01c0.02,0,0.04,0,0.06,0c0.02,0,0.04-0.01,0.06-0.01
		c0.03,0,0.05-0.01,0.08-0.01c0.02,0,0.03,0,0.05-0.01c0.02,0,0.03,0,0.05,0c0.02,0,0.04,0,0.06-0.01c0.03,0,0.05-0.01,0.08-0.01
		c0.02,0,0.03,0,0.06-0.01c0.02,0,0.03,0,0.06,0c0.01,0,0.03-0.01,0.06-0.01c0.02,0,0.04,0,0.06,0c0.04-0.01,0.09-0.01,0.13-0.02
		c0.04,0,0.08-0.01,0.14-0.01c0.04,0,0.09,0,0.14-0.01c0.04,0,0.09,0,0.14-0.01c0.02,0,0.05-0.01,0.07-0.01c0.02,0,0.04,0,0.07,0
		c0.02-0.01,0.04-0.01,0.07-0.01c0.02,0,0.05,0,0.08-0.01c0.03,0,0.05,0,0.07,0c0.02,0,0.04,0,0.07-0.01c0.02,0,0.04,0,0.06,0
		c0.02,0,0.05-0.01,0.08-0.01c0.43-0.04,0.89-0.06,1.36-0.09c0.46-0.01,0.95-0.04,1.43-0.05c0.5-0.01,1.01-0.03,1.52-0.04
		c0.52-0.01,1.05-0.01,1.58-0.01c0.02,0,0.02,0,0.04,0c0.02,0,0.03,0,0.05,0c0.02,0,0.03,0,0.06,0c0.02,0,0.04,0,0.08,0
		c0.03,0,0.05,0,0.08,0c0.02,0,0.05,0,0.09,0c0.03,0,0.05,0,0.08,0c0.03,0,0.06,0,0.09,0c0.12,0,0.24,0,0.35,0
		c0.12,0.01,0.23,0.01,0.35,0.01c0.11,0,0.23,0,0.35,0c0.12,0.01,0.24,0.01,0.35,0.01c0.03,0,0.05,0,0.09,0c0.03,0,0.06,0,0.09,0
		c0.03,0,0.07,0,0.09,0.01c0.03,0,0.07,0,0.1,0c0.02,0,0.05,0,0.08,0c0.03,0,0.05,0,0.09,0c0.03,0.01,0.06,0.01,0.1,0.01
		c0.02,0,0.07,0,0.1,0c0.02,0,0.05,0,0.09,0c0.02,0,0.05,0,0.08,0.01c0.04,0,0.06,0,0.1,0c0.02,0,0.06,0,0.09,0
		c0.15,0.01,0.29,0.01,0.44,0.01c0.15,0,0.3,0.01,0.45,0.02c0.15,0,0.29,0.01,0.45,0.01c0.15,0.01,0.3,0.01,0.45,0.02
		c0.03,0,0.06,0,0.08,0c0.03,0,0.07,0.01,0.09,0.01c0.03,0,0.06,0,0.09,0c0.04,0,0.07,0.01,0.1,0.01c0.39,0.02,0.78,0.04,1.15,0.06
		c0.38,0.03,0.77,0.05,1.14,0.08c0.38,0.04,0.77,0.06,1.14,0.1c0.38,0.03,0.75,0.07,1.13,0.11c0.02,0,0.04,0,0.08,0.01
		c0.03,0,0.05,0,0.08,0.01c0.02,0,0.05,0,0.09,0.01c0.03,0,0.06,0,0.09,0.01c0.03,0,0.05,0.01,0.08,0.01c0.02,0,0.05,0.01,0.08,0.01
		c0.03,0,0.05,0.01,0.08,0.01c0.02,0,0.05,0.01,0.08,0.01c0.08,0.01,0.16,0.02,0.23,0.03c0.08,0.01,0.15,0.01,0.23,0.02
		c0.07,0.01,0.15,0.02,0.22,0.03c0.08,0.01,0.15,0.02,0.22,0.03c0.01,0,0.02,0,0.02,0h0.02c0.01,0,0.02,0,0.02,0.01
		c0,0,0.01,0,0.02,0c0.02,0,0.04,0,0.06,0.01c0.02,0,0.03,0.01,0.06,0.01c0.01,0,0.03,0,0.05,0.01c0.02,0,0.04,0,0.06,0
		c0.01,0.01,0.02,0.01,0.02,0.01c0.01,0,0.03,0,0.03,0c0.01,0,0.02,0.01,0.04,0.01c0,0,0.02,0,0.02,0c0.02,0,0.04,0.01,0.05,0.01
		c0.02,0,0.04,0.01,0.05,0.01c0.02,0,0.04,0.01,0.05,0.01c0.02,0,0.04,0.01,0.05,0.01c0.02,0,0.03,0,0.05,0c0.01,0,0.01,0,0.02,0.01
		c0.02,0,0.03,0,0.04,0c0.01,0.01,0.03,0.01,0.04,0.01c0.01,0,0.03,0.01,0.04,0.01c0.02,0,0.03,0,0.04,0.01c0.02,0,0.03,0,0.05,0
		c0.02,0.01,0.03,0.01,0.04,0.01c0.02,0,0.03,0.01,0.05,0.01c0.02,0,0.03,0.01,0.04,0.01c0.03,0,0.04,0,0.05,0.01
		c0.02,0,0.04,0,0.05,0c0.01,0.01,0.02,0.01,0.04,0.01c0.01,0,0.02,0,0.02,0.01c0.02,0,0.03,0,0.03,0c0.02,0,0.03,0.01,0.04,0.01
		c0.03,0.01,0.06,0.01,0.08,0.01c0.03,0.01,0.05,0.01,0.09,0.02l0.06,0.01c2.3,1.58,4.52,3.3,6.62,5.13l-0.15-0.02
		c-0.08-0.01-0.15-0.02-0.23-0.04c-0.08-0.01-0.15-0.02-0.23-0.03c-0.08-0.01-0.15-0.02-0.22-0.03c-0.02,0-0.06,0-0.08-0.01
		c-0.04,0-0.06-0.01-0.09-0.01c-0.02-0.01-0.05-0.01-0.08-0.02c-0.03,0-0.05,0-0.08-0.01c-0.05-0.01-0.1-0.01-0.15-0.01
		c-0.05-0.01-0.11-0.02-0.16-0.03c-0.06-0.01-0.11-0.01-0.16-0.01c-0.06-0.02-0.11-0.03-0.16-0.03c-0.03-0.01-0.05-0.01-0.08-0.01
		c-0.02-0.01-0.05-0.01-0.08-0.02c-0.04,0-0.05-0.01-0.08-0.01c-0.02,0-0.06-0.01-0.08-0.01c-0.07-0.01-0.15-0.03-0.22-0.04
		c-0.08-0.01-0.15-0.01-0.22-0.02c-0.08-0.01-0.15-0.02-0.22-0.03c-0.07-0.01-0.15-0.01-0.22-0.03c-0.02,0-0.04,0-0.07-0.01
		c-0.02,0-0.04,0-0.07,0c-0.02-0.01-0.04-0.01-0.07-0.01c-0.03-0.01-0.04-0.01-0.07-0.01c-0.06-0.01-0.11-0.02-0.17-0.03
		c-0.05,0-0.11-0.02-0.16-0.02c-0.06-0.01-0.11-0.01-0.16-0.01c-0.06-0.01-0.12-0.02-0.17-0.03c-0.03,0-0.06,0-0.08-0.01
		c-0.04,0-0.06-0.01-0.1-0.01c-0.02-0.01-0.05-0.01-0.08-0.01c-0.02-0.01-0.06-0.01-0.09-0.01c-0.05-0.01-0.11-0.02-0.16-0.03
		c-0.06,0-0.11-0.01-0.17-0.01c-0.05-0.01-0.1-0.01-0.16-0.02c-0.05,0-0.11-0.01-0.16-0.02c-0.02,0-0.05-0.01-0.07-0.01
		c-0.03,0-0.05,0-0.08-0.01c-0.02,0-0.04,0-0.07-0.01c-0.03,0-0.05,0-0.07,0c-0.08-0.02-0.15-0.03-0.23-0.03
		c-0.08-0.01-0.15-0.01-0.23-0.02c-0.08-0.01-0.16-0.02-0.23-0.03c-0.08,0-0.15-0.01-0.22-0.01c-0.03-0.01-0.05-0.01-0.06-0.01
		c-0.03,0-0.04-0.01-0.06-0.01c-0.03,0-0.04,0-0.07,0c-0.02-0.01-0.03-0.01-0.06-0.01c-0.06-0.01-0.13-0.01-0.18-0.01
		c-0.07-0.01-0.13-0.01-0.19-0.02c-0.06,0-0.12-0.01-0.19-0.02c-0.06-0.01-0.12-0.01-0.18-0.01c-0.03,0-0.05,0-0.07,0
		c-0.03-0.01-0.05-0.01-0.07-0.01c-0.02,0-0.04,0-0.07-0.01c-0.02,0-0.05,0-0.07-0.01c-0.08,0-0.15-0.01-0.22-0.02
		c-0.08-0.01-0.15-0.01-0.23-0.01c-0.08-0.01-0.16-0.02-0.24-0.02c-0.08-0.01-0.17-0.02-0.26-0.02c-0.08,0-0.16-0.01-0.25-0.02
		c-0.08-0.01-0.17-0.01-0.25-0.02c-0.09-0.01-0.17-0.02-0.25-0.02c-0.09-0.01-0.17-0.01-0.25-0.02c-0.01,0-0.03,0-0.05,0
		c-0.01,0-0.02,0-0.03-0.01c-0.02,0-0.03,0-0.04,0c-0.02,0-0.03,0-0.04,0c-0.08-0.01-0.15-0.02-0.22-0.02
		c-0.07-0.01-0.14-0.01-0.22-0.01c-0.07,0-0.15-0.01-0.22-0.01c-0.08-0.01-0.16-0.01-0.22-0.02c-0.01,0-0.02,0-0.04,0
		c-0.01,0-0.02,0-0.03,0c-0.02,0-0.03,0-0.03-0.01c-0.02,0-0.03,0-0.04,0c-0.17-0.01-0.34-0.01-0.52-0.02
		c-0.17-0.01-0.34-0.02-0.52-0.03c-0.17-0.01-0.35-0.01-0.53-0.02c-0.19-0.01-0.38-0.02-0.57-0.03c-0.26-0.01-0.52-0.01-0.79-0.02
		c-0.26-0.01-0.52-0.02-0.78-0.03c-0.27,0-0.53-0.01-0.8-0.01c-0.27,0-0.53-0.01-0.81-0.01c-0.09,0-0.17,0-0.26,0
		c-0.09,0-0.17,0-0.26,0c-0.09,0-0.17,0-0.26,0c-0.08,0-0.17,0-0.26,0c-0.16,0-0.32,0-0.48,0c-0.16,0-0.33,0-0.5,0
		c-0.16,0-0.32,0-0.5,0.01c-0.17,0-0.35,0-0.53,0.01c-0.07,0-0.15,0-0.22,0c-0.08,0-0.15,0.01-0.23,0.01c-0.08,0-0.16,0-0.24,0.01
		c-0.08,0-0.17,0-0.27,0c-0.16,0.01-0.32,0.02-0.47,0.02c-0.15,0.01-0.32,0.02-0.47,0.02c-0.16,0.01-0.33,0.01-0.5,0.02
		c-0.16,0.01-0.33,0.01-0.51,0.02c-0.07,0.01-0.14,0.01-0.21,0.01c-0.06,0-0.13,0.01-0.2,0.01c-0.07,0-0.13,0.01-0.2,0.01
		c-0.07,0.01-0.14,0.01-0.2,0.02c-0.02,0-0.03,0-0.06,0c-0.01,0-0.04,0-0.05,0c-0.02,0-0.04,0.01-0.05,0.01c-0.02,0-0.04,0-0.05,0
		c-0.06,0-0.11,0.01-0.17,0.01c-0.06,0.01-0.11,0.01-0.17,0.02c-0.06,0-0.12,0-0.17,0.01c-0.06,0-0.12,0.01-0.17,0.01
		c-0.02,0.01-0.04,0.01-0.05,0.01c-0.02,0-0.04,0-0.06,0c-0.02,0-0.03,0-0.05,0.01c-0.02,0-0.03,0-0.05,0
		c-0.08,0-0.15,0.01-0.22,0.02c-0.07,0.01-0.14,0.01-0.22,0.02c-0.07,0-0.15,0.01-0.22,0.02l-0.21,0.02
		c0.95,1.63,1.89,3.27,2.78,4.95c0.89,1.67,1.75,3.35,2.59,5.05c0.82,1.71,1.61,3.42,2.35,5.15c0.75,1.72,1.45,3.45,2.11,5.21
		c0.14-0.02,0.27-0.05,0.41-0.08c0.14-0.03,0.27-0.04,0.41-0.07c0.14-0.02,0.27-0.05,0.41-0.08c0.14-0.03,0.27-0.04,0.41-0.07
		c0.96-0.17,1.93-0.32,2.91-0.45c0.97-0.13,1.96-0.25,2.95-0.34c0.98-0.09,1.98-0.17,2.98-0.24c0.99-0.06,1.99-0.11,3-0.15
		c0.07,0,0.14,0,0.22,0c0.07-0.01,0.15-0.01,0.22-0.01c0.07,0,0.15,0,0.23,0c0.08-0.01,0.16-0.01,0.25-0.01
		c0.07,0,0.14-0.01,0.2-0.01c0.07,0,0.14,0,0.2,0c0.07,0,0.14,0,0.2,0c0.07-0.01,0.14-0.01,0.2-0.01c0.02,0,0.03,0,0.03,0
		c0.02,0,0.03,0,0.05,0c0.01,0,0.02,0,0.02,0c0.02,0,0.03,0,0.04,0c0.06,0,0.12,0,0.19,0c0.06,0,0.12,0,0.18,0c0.07,0,0.13,0,0.19,0
		c0.07-0.01,0.13-0.01,0.19-0.01c0.02,0,0.02,0,0.04,0c0.02,0,0.03,0,0.04,0c0.02,0,0.04,0,0.04,0c0.02,0,0.04,0,0.05,0
		c0.01,0,0.02,0,0.03,0c0.01,0,0.02,0,0.03,0c0.01,0,0.02,0,0.03,0c0.02,0,0.02,0,0.03,0c0.05,0,0.1,0,0.15,0c0.05,0,0.1,0,0.15,0
		c0.05,0,0.1,0,0.16,0c0.05,0.01,0.1,0.01,0.15,0.01c0.02,0,0.03,0,0.04,0c0.02,0,0.03,0,0.05,0c0.02,0,0.02,0,0.04,0
		c0.01,0,0.02,0,0.04,0c0.06,0,0.12,0,0.18,0c0.07,0,0.13,0,0.19,0c0.06,0,0.13,0,0.19,0c0.06,0.01,0.12,0.01,0.19,0.01
		c0.01,0,0.03,0,0.04,0c0.02,0,0.03,0,0.04,0c0.02,0,0.03,0,0.04,0c0.01,0,0.03,0,0.04,0c0.06,0,0.12,0,0.18,0
		c0.06,0.01,0.12,0.01,0.18,0.01c0.06,0,0.12,0,0.19,0.01c0.05,0,0.11,0,0.17,0c0.02,0,0.04,0,0.05,0c0.02,0,0.03,0,0.05,0
		c0.02,0,0.03,0,0.05,0c0.01,0,0.02,0,0.04,0c0.06,0,0.12,0.01,0.17,0.01c0.06,0,0.12,0,0.18,0.01c0.06,0,0.12,0,0.18,0.01
		c0.05,0,0.11,0,0.17,0c0.02,0,0.04,0,0.05,0c0.02,0,0.04,0,0.05,0c0.02,0.01,0.04,0.01,0.05,0.01c0.02,0,0.04,0,0.05,0
		c0.06,0,0.11,0,0.16,0c0.06,0.01,0.11,0.01,0.17,0.01c0.06,0.01,0.11,0.01,0.17,0.01c0.05,0.01,0.11,0.01,0.16,0.01
		c0.02,0,0.05,0,0.06,0.01c0.02,0,0.04,0,0.06,0c0.02,0,0.03,0,0.06,0c0.02,0,0.03,0,0.05,0c0.05,0,0.11,0.01,0.16,0.01
		c0.05,0,0.1,0.01,0.15,0.01c0.05,0,0.1,0.01,0.16,0.01c0.06,0.01,0.11,0.01,0.16,0.01c0.02,0,0.04,0,0.07,0
		c0.03,0.01,0.05,0.01,0.07,0.01c0.02,0,0.04,0,0.07,0c0.02,0,0.04,0,0.07,0.01c0.05,0,0.09,0,0.14,0.01c0.05,0,0.09,0,0.15,0.01
		c0.04,0,0.09,0,0.15,0.01c0.04,0,0.09,0,0.14,0.01c0.03,0,0.06,0,0.09,0c0.02,0,0.05,0.01,0.08,0.01c0.03,0,0.06,0,0.09,0
		c0.02,0.01,0.05,0.01,0.08,0.01c0.05,0,0.09,0.01,0.14,0.01c0.04,0,0.09,0.01,0.13,0.01c0.05,0,0.09,0.01,0.14,0.01
		c0.05,0.01,0.1,0.01,0.14,0.01c0.02,0,0.06,0.01,0.08,0.01c0.03,0,0.06,0.01,0.09,0.01c0.04,0,0.06,0,0.09,0.01
		c0.03,0,0.06,0,0.08,0c0.04,0,0.09,0.01,0.13,0.01c0.03,0.01,0.08,0.01,0.12,0.01c0.05,0.01,0.08,0.01,0.12,0.02
		c0.04,0,0.08,0,0.13,0.01c0.02,0,0.06,0,0.09,0.01c0.03,0,0.07,0,0.1,0c0.03,0.01,0.07,0.01,0.1,0.01
		c0.03,0.01,0.06,0.01,0.09,0.01c0.03,0.01,0.07,0.01,0.1,0.01c0.03,0.01,0.07,0.01,0.1,0.01c0.03,0.01,0.07,0.01,0.09,0.01
		c0.04,0.01,0.07,0.01,0.1,0.02c0.04,0,0.08,0.01,0.12,0.01c0.04,0,0.08,0.01,0.12,0.01c0.04,0.01,0.08,0.01,0.12,0.01
		c0.04,0.01,0.08,0.01,0.12,0.02c0.02,0,0.06,0,0.09,0.01c0.03,0,0.06,0,0.09,0.01c0.02,0,0.06,0,0.08,0
		c0.02,0.01,0.06,0.01,0.09,0.01c0.05,0.01,0.09,0.02,0.13,0.02c0.05,0.01,0.09,0.01,0.13,0.01c0.05,0,0.1,0.01,0.14,0.01
		c0.04,0.01,0.09,0.01,0.13,0.02c0.03,0,0.05,0,0.07,0c0.02,0.01,0.05,0.01,0.07,0.01c0.02,0.01,0.05,0.01,0.08,0.01
		c0.02,0.01,0.04,0.01,0.07,0.01c0.04,0.01,0.09,0.01,0.15,0.02c0.05,0.01,0.09,0.01,0.15,0.02c0.05,0,0.1,0.01,0.15,0.01
		c0.04,0,0.09,0.01,0.15,0.02c0.01,0,0.02,0,0.03,0c0.01,0,0.02,0,0.02,0c0.01,0,0.02,0,0.04,0.01c0,0,0.01,0,0.02,0
		c0.06,0.01,0.12,0.02,0.18,0.02c0.07,0.01,0.13,0.01,0.2,0.03c0.07,0,0.14,0.01,0.21,0.02c0.08,0.01,0.15,0.02,0.22,0.03
		c0.07,0,0.14,0.01,0.2,0.02c0.07,0.01,0.13,0.02,0.2,0.02c0.07,0.01,0.13,0.02,0.2,0.03c0.07,0.01,0.13,0.01,0.2,0.02
		c0.14,0.02,0.29,0.04,0.42,0.06c0.14,0.02,0.28,0.03,0.41,0.06c0.14,0.01,0.28,0.03,0.41,0.06l0.36,0.05
		c1.1,1.91,2.11,3.87,3.04,5.89l-0.16-0.03c-0.07-0.01-0.14-0.03-0.22-0.04c-0.08-0.02-0.15-0.04-0.25-0.05
		c-0.09-0.02-0.19-0.04-0.29-0.06c-0.07-0.02-0.14-0.03-0.21-0.04c-0.06-0.02-0.13-0.03-0.21-0.04c-0.07-0.02-0.14-0.03-0.21-0.04
		c-0.08-0.02-0.15-0.03-0.23-0.04c-0.06-0.01-0.13-0.02-0.2-0.04c-0.06-0.01-0.13-0.02-0.21-0.03c-0.08-0.02-0.15-0.04-0.24-0.04
		c-0.09-0.03-0.18-0.04-0.27-0.06c-0.07-0.01-0.14-0.02-0.21-0.04c-0.07-0.01-0.14-0.02-0.22-0.03c-0.07-0.02-0.15-0.02-0.23-0.04
		c-0.08-0.02-0.16-0.03-0.25-0.05c-0.07-0.01-0.13-0.02-0.2-0.03c-0.06-0.01-0.13-0.02-0.21-0.03c-0.07-0.02-0.15-0.02-0.23-0.04
		c-0.08-0.02-0.16-0.03-0.26-0.04c-0.07-0.02-0.14-0.03-0.21-0.04c-0.07-0.01-0.15-0.02-0.22-0.03c-0.08-0.02-0.16-0.02-0.24-0.03
		c-0.08-0.02-0.17-0.04-0.27-0.05c-0.07,0-0.13-0.02-0.2-0.03c-0.07-0.01-0.14-0.02-0.21-0.03c-0.07-0.02-0.15-0.03-0.22-0.04
		c-0.08-0.01-0.16-0.02-0.25-0.03c-0.07-0.02-0.14-0.03-0.21-0.03c-0.07-0.01-0.15-0.02-0.23-0.04c-0.08-0.01-0.15-0.01-0.25-0.03
		c-0.09-0.01-0.19-0.03-0.29-0.04c-0.07-0.01-0.14-0.02-0.21-0.03c-0.07,0-0.14-0.01-0.21-0.02c-0.07-0.01-0.14-0.01-0.22-0.03
		c-0.08-0.01-0.15-0.02-0.22-0.03c-0.07-0.01-0.14-0.02-0.21-0.03c-0.06-0.01-0.14-0.02-0.21-0.02c-0.07-0.01-0.14-0.02-0.21-0.03
		c-0.07-0.01-0.14-0.01-0.22-0.02c-0.01,0-0.03,0-0.05,0c-0.01-0.01-0.02-0.01-0.04-0.01c-0.02,0-0.02,0-0.04,0
		c-0.02-0.01-0.03-0.01-0.05-0.01c-0.07-0.01-0.14-0.02-0.21-0.02c-0.07-0.01-0.14-0.01-0.21-0.02c-0.07-0.02-0.15-0.02-0.22-0.03
		c-0.07-0.01-0.14-0.01-0.21-0.02c-0.07-0.01-0.15-0.01-0.22-0.02c-0.06-0.01-0.14-0.01-0.21-0.02c-0.07,0-0.14-0.01-0.21-0.02
		c-0.07-0.01-0.14-0.01-0.21-0.02c-0.02,0-0.03-0.01-0.05-0.01c-0.02,0-0.03,0-0.04,0c-0.02-0.01-0.03-0.01-0.05-0.01
		c-0.02,0-0.03,0-0.05-0.01c-0.07,0-0.14-0.01-0.21-0.01c-0.07-0.01-0.14-0.02-0.22-0.02c-0.08,0-0.15-0.01-0.24-0.02
		c-0.09-0.01-0.18-0.02-0.28-0.03c-0.06,0-0.12-0.01-0.19-0.01c-0.05,0-0.12-0.01-0.18-0.01c-0.07-0.01-0.12-0.02-0.19-0.02
		c-0.06-0.01-0.12-0.01-0.18-0.01c-0.02,0-0.03,0-0.05,0c-0.02,0-0.03,0-0.04-0.01c-0.02,0-0.03,0-0.05,0c-0.02,0-0.03,0-0.05,0
		c-0.07-0.01-0.14-0.01-0.21-0.02c-0.07-0.01-0.15-0.01-0.22-0.02c-0.08,0-0.16-0.01-0.26-0.01c-0.09,0-0.2-0.01-0.31-0.02
		c-0.05,0-0.11-0.01-0.17-0.01c-0.06-0.01-0.11-0.01-0.17-0.01c-0.06-0.01-0.11-0.01-0.17-0.01c-0.06-0.01-0.12-0.01-0.17-0.01
		c-0.02,0-0.04-0.01-0.05-0.01c-0.02,0-0.03,0-0.05,0c-0.01,0-0.03,0-0.05,0c-0.02-0.01-0.03-0.01-0.05-0.01
		c-0.07,0-0.13,0-0.2-0.01c-0.07,0-0.14-0.01-0.21-0.01c-0.06,0-0.13-0.01-0.2-0.01s-0.14-0.01-0.21-0.01c-0.01,0-0.03,0-0.05,0
		s-0.03,0-0.06,0c-0.01-0.01-0.03-0.01-0.05-0.01c-0.01,0-0.03,0-0.05,0c-0.06,0-0.11,0-0.17-0.01c-0.05,0-0.11,0-0.17-0.01
		c-0.05,0-0.11,0-0.16,0c-0.06,0-0.12,0-0.17-0.01c-0.02,0-0.03,0-0.05,0c-0.02,0-0.02,0-0.04,0c-0.02,0-0.03,0-0.05,0
		c-0.02,0-0.03,0-0.04,0c-0.07-0.01-0.14-0.01-0.21-0.01c-0.07,0-0.13-0.01-0.2-0.01c-0.07,0-0.14,0-0.21,0
		c-0.07-0.01-0.14-0.01-0.21-0.01c-0.02,0-0.04,0-0.05,0c-0.02,0-0.04,0-0.05,0c-0.02,0-0.04,0-0.06,0c-0.02,0-0.04,0-0.05,0
		c-0.07,0-0.13,0-0.19-0.01c-0.06,0-0.13,0-0.2,0c-0.07,0-0.14,0-0.22,0c-0.08,0-0.16,0-0.25,0c-0.07,0-0.14,0-0.21,0l-0.19-0.01
		h-0.01h-0.01h-0.01h-0.01h-0.01h-0.01h-0.01h-0.01h-0.01h-0.01h-0.01h-0.01h-0.01h-0.01h-0.01h-0.01h-0.01h-0.01h-0.01h-0.01h-0.01
		h-0.01h-0.01h-0.02h-0.01h-0.01h-0.01h-0.01h-0.01h-0.01h-0.01h-0.01h-0.01h-0.01h-0.01h-0.01h-0.01h-0.01h-0.01h-0.01h-0.01h-0.01
		h-0.01h-0.01h-0.01h-0.01h-0.01h-0.01c-0.02,0.01-0.04,0.01-0.06,0.01c-0.02,0-0.05,0-0.07,0c-0.02,0-0.04,0-0.07,0
		c-0.03,0-0.04,0-0.07,0c-0.05,0-0.11,0-0.16,0c-0.06,0-0.11,0-0.16,0c-0.06,0-0.11,0-0.17,0c-0.05,0-0.1,0-0.16,0
		c-0.02,0-0.04,0-0.05,0c-0.02,0-0.04,0-0.05,0c-0.02,0-0.04,0-0.05,0c-0.02,0-0.04,0-0.05,0c-0.07,0.01-0.14,0.01-0.21,0.01
		c-0.07,0-0.14,0-0.21,0c-0.07,0-0.14,0-0.21,0.01c-0.07,0-0.14,0-0.21,0c-0.03,0-0.05,0-0.06,0c-0.03,0-0.04,0.01-0.07,0.01
		c-0.02,0-0.04,0-0.06,0c-0.02,0-0.03,0-0.06,0c-0.05,0-0.1,0.01-0.16,0.01c-0.05,0-0.1,0-0.16,0c-0.05,0.01-0.1,0.01-0.16,0.01
		c-0.05,0-0.11,0-0.16,0c-0.02,0.01-0.04,0.01-0.06,0.01c-0.03,0-0.04,0-0.07,0c-0.02,0-0.04,0-0.06,0c-0.02,0-0.04,0.01-0.06,0.01
		c-0.08,0-0.15,0-0.22,0.01c-0.08,0-0.15,0-0.22,0.01c-0.09,0-0.17,0.01-0.26,0.01c-0.09,0.01-0.19,0.01-0.3,0.02
		c-0.06,0-0.11,0-0.18,0.01c-0.05,0-0.11,0.01-0.17,0.01c-0.06,0-0.11,0.01-0.17,0.01c-0.06,0.01-0.12,0.01-0.18,0.01
		c-0.02,0-0.04,0.01-0.07,0.01c-0.03,0-0.05,0-0.07,0c-0.03,0-0.04,0.01-0.07,0.01c-0.01,0-0.04,0-0.06,0
		c-0.07,0.01-0.12,0.01-0.19,0.02c-0.06,0-0.12,0-0.19,0.01c-0.07,0.01-0.15,0.01-0.22,0.01c-0.08,0-0.17,0.01-0.27,0.02
		c-0.07,0.01-0.14,0.01-0.21,0.02c-0.07,0-0.14,0.01-0.22,0.01c-0.07,0-0.14,0.01-0.22,0.02c-0.06,0-0.13,0.01-0.21,0.02
		c-0.02,0-0.03,0-0.06,0c-0.03,0.01-0.05,0.01-0.06,0.01c-0.03,0-0.05,0-0.07,0.01c-0.02,0-0.03,0-0.06,0
		c-0.05,0.01-0.11,0.02-0.16,0.02c-0.05,0.01-0.11,0.01-0.16,0.02c-0.05,0-0.1,0.01-0.16,0.01c-0.05,0.01-0.1,0.02-0.15,0.02
		c-0.02,0.01-0.05,0.01-0.06,0.01c-0.03,0-0.04,0-0.06,0c-0.03,0.01-0.04,0.01-0.06,0.01c-0.02,0-0.04,0.01-0.07,0.01
		c-0.07,0.01-0.14,0.01-0.21,0.01c-0.07,0.01-0.14,0.02-0.21,0.03c-0.07,0-0.15,0.01-0.21,0.01c-0.08,0.01-0.15,0.02-0.22,0.03
		c-0.02,0-0.02,0-0.04,0.01c-0.01,0-0.03,0-0.05,0c-0.02,0-0.03,0.01-0.05,0.01c-0.01,0-0.03,0-0.04,0.01
		c-0.06,0-0.12,0.01-0.17,0.02c-0.06,0.01-0.11,0.01-0.17,0.02c-0.06,0.01-0.11,0.01-0.17,0.01c-0.05,0.01-0.11,0.02-0.16,0.03
		c-0.02,0-0.04,0-0.07,0.01c-0.02,0-0.04,0-0.06,0.01c-0.03,0-0.05,0-0.07,0.01c-0.02,0-0.04,0-0.06,0
		c-0.07,0.01-0.15,0.02-0.22,0.03c-0.07,0.02-0.14,0.02-0.22,0.03c-0.07,0.01-0.14,0.02-0.22,0.03c-0.07,0.01-0.14,0.02-0.21,0.03
		c-0.15,0.02-0.29,0.04-0.44,0.06c-0.15,0.02-0.29,0.04-0.44,0.06c-0.15,0.02-0.29,0.04-0.44,0.06c-0.15,0.01-0.29,0.03-0.43,0.06
		c0.59,1.76,1.12,3.54,1.61,5.32c0.48,1.78,0.92,3.56,1.3,5.35c0.38,1.78,0.7,3.56,0.96,5.35c0.27,1.78,0.48,3.56,0.62,5.33
		c0.02,0.24,0.04,0.49,0.06,0.73c0.02,0.24,0.03,0.49,0.05,0.73c0.01,0.24,0.02,0.49,0.04,0.73c0.01,0.25,0.02,0.5,0.03,0.74
		c0.19,3.71,0.16,7.5-0.07,11.28c-0.22,3.79-0.64,7.59-1.23,11.35c-0.58,3.77-1.33,7.51-2.22,11.17c-0.89,3.65-1.93,7.24-3.08,10.69
		c0.57-0.34,1.12-0.67,1.68-1.01c0.56-0.34,1.11-0.69,1.66-1.03c0.55-0.34,1.1-0.7,1.64-1.05c0.55-0.36,1.08-0.71,1.63-1.07
		c3.95-2.68,7.75-5.68,11.29-8.97c3.54-3.29,6.81-6.87,9.69-10.71c2.88-3.85,5.36-7.95,7.35-12.31c1.98-4.35,3.45-8.94,4.3-13.74
		l0.04-0.2c0.15,0.85,0.29,1.72,0.41,2.59l-0.05,0.32c-0.58,4.1-1.66,8.13-3.18,12.05c-1.52,3.92-3.49,7.73-5.86,11.39
		c-2.36,3.66-5.12,7.18-8.23,10.54c-3.11,3.35-6.57,6.52-10.3,9.49c-0.97,0.81-1.99,1.6-3.04,2.39c-1.05,0.79-2.13,1.56-3.26,2.32
		c-1.12,0.77-2.27,1.52-3.46,2.26c-1.18,0.74-2.4,1.47-3.64,2.18c-1.15,2.85-2.53,5.8-4.03,8.66c-1.51,2.88-3.14,5.7-4.82,8.35
		c-1.67,2.64-3.4,5.1-5.07,7.25c-1.66,2.11-3.27,3.93-4.75,5.31l-0.89,0.16c1.21-1.24,2.43-2.85,3.62-4.74
		c1.2-1.91,2.38-4.09,3.5-6.43c1.12-2.34,2.18-4.83,3.15-7.38c0.97-2.53,1.86-5.12,2.61-7.62c-0.04,0.01-0.08,0.04-0.11,0.04
		c-0.04,0.02-0.08,0.04-0.13,0.06c-0.04,0.03-0.09,0.05-0.14,0.07c-0.04,0.03-0.09,0.04-0.15,0.07c-3.28,1.62-6.7,3.12-10.2,4.5
		c-3.5,1.38-7.08,2.65-10.71,3.76c-3.62,1.12-7.29,2.1-10.95,2.9c-3.66,0.81-7.32,1.45-10.93,1.93c0.98,1.06,2.16,2.24,3.44,3.47
		c1.28,1.22,2.67,2.49,4.1,3.74c1.42,1.25,2.88,2.48,4.3,3.62c1.39,1.12,2.73,2.14,3.95,3.02l-1.21-0.05
		c-1.54-0.83-3.27-1.83-5.06-2.91c-1.84-1.1-3.75-2.3-5.61-3.5c-1.86-1.2-3.66-2.43-5.29-3.59c-1.63-1.15-3.09-2.25-4.23-3.22
		c-0.06,0-0.11,0.01-0.17,0.01c-0.05,0.01-0.11,0.01-0.16,0.01c-0.06,0-0.11,0.01-0.17,0.01c-0.05,0.01-0.11,0.01-0.17,0.01
		c-0.02,0.01-0.06,0.01-0.09,0.01c-0.04,0-0.06,0-0.09,0c-0.04,0.01-0.06,0.01-0.1,0.01c-0.02,0.01-0.06,0.01-0.08,0.01
		c-0.02,0-0.05,0.01-0.08,0.01c-0.02,0-0.05,0-0.08,0c-0.03,0-0.05,0.01-0.08,0.01c-0.02,0-0.05,0-0.08,0
		c-0.03,0-0.07,0.01-0.1,0.01c-0.03,0-0.08,0-0.11,0.01c-0.03,0-0.07,0-0.1,0c-0.03,0.01-0.07,0.01-0.1,0.01c-0.02,0-0.04,0-0.06,0
		c-0.02,0.01-0.04,0.01-0.06,0.01c-0.02,0-0.04,0-0.06,0c-0.03,0-0.05,0-0.06,0c-0.13,0.01-0.26,0.02-0.39,0.03
		c-0.13,0-0.25,0.01-0.38,0.01c-0.13,0.01-0.26,0.02-0.38,0.02c-0.13,0.01-0.26,0.01-0.39,0.01c-0.02,0-0.04,0-0.06,0
		c-0.02,0-0.04,0-0.06,0c-0.02,0-0.04,0-0.06,0c-0.02,0-0.05,0-0.06,0c-0.04,0.01-0.07,0.01-0.11,0.01c-0.03,0-0.07,0-0.1,0
		c-0.03,0-0.07,0-0.1,0c-0.03,0.01-0.08,0.01-0.11,0.01c-0.02,0-0.05,0-0.08,0c-0.03,0-0.05,0-0.07,0c-0.04,0-0.05,0-0.08,0
		c-0.02,0-0.05,0.01-0.08,0.01c-0.04,0-0.07,0-0.1,0c-0.04,0-0.06,0-0.09,0c-0.04,0-0.07,0.01-0.1,0.01c-0.03,0-0.06,0-0.1,0
		c-0.03,0-0.07,0-0.09,0c-0.03,0-0.07,0-0.09,0c-0.03,0-0.07,0-0.1,0c-0.02,0-0.06,0-0.09,0c-0.04,0-0.08,0-0.12,0
		c-0.04,0-0.09,0-0.13,0c-0.04,0-0.08,0-0.12,0.01c-0.03,0-0.08,0-0.12,0c-0.04,0-0.08,0-0.13,0s-0.09,0-0.14,0
		c-0.04,0-0.09,0-0.16,0c-0.05,0-0.11,0-0.17,0c-0.09,0-0.18,0-0.27,0c-0.09,0-0.17,0-0.26,0c-0.09,0-0.17,0-0.26,0
		c-0.09-0.01-0.17-0.01-0.26-0.01c-0.01,0-0.02,0-0.03,0c-0.01,0-0.02,0-0.02,0s-0.02,0-0.03,0s-0.02,0-0.02,0
		c-0.05,0-0.09,0-0.15,0c-0.04,0-0.09,0-0.15,0c-0.05,0-0.09,0-0.15,0c-0.05,0-0.09-0.01-0.15-0.01c-0.04,0-0.09,0-0.14,0
		c-0.05,0-0.1-0.01-0.14-0.01c-0.04,0-0.09,0-0.14,0c-0.04,0-0.09,0-0.14,0c-0.01,0-0.03-0.01-0.04-0.01c-0.02,0-0.02,0-0.03,0
		c-0.02,0-0.03,0-0.04,0c-0.01,0-0.02,0-0.04,0c-0.04,0-0.09,0-0.12,0c-0.05,0-0.1-0.01-0.14-0.01c-0.05,0-0.09,0-0.15,0
		c-0.05,0-0.09,0-0.15,0c-0.05-0.01-0.09-0.01-0.14-0.01c-0.05,0-0.09,0-0.13-0.01c-0.04,0-0.09,0-0.14,0
		c-0.04-0.01-0.09-0.01-0.13-0.01c-0.02,0-0.03,0-0.04,0c-0.02,0-0.03,0-0.05,0c-0.02-0.01-0.03-0.01-0.04-0.01
		c-0.02,0-0.03,0-0.04,0c-0.04,0-0.07,0-0.1,0c-0.05,0-0.08,0-0.11-0.01c-0.04,0-0.07,0-0.1,0c-0.04,0-0.07,0-0.1-0.01
		c-0.01,0-0.03,0-0.04,0c-0.01,0-0.02,0-0.03,0c-0.01,0-0.02,0-0.02,0c-0.02-0.01-0.03-0.01-0.04-0.01c-0.04,0-0.08,0-0.13,0
		c-0.04-0.01-0.08-0.01-0.12-0.01c-0.04,0-0.08,0-0.13-0.01c-0.04,0-0.08,0-0.12,0c-0.02-0.01-0.04-0.01-0.05-0.01
		c-0.02,0-0.04,0-0.06,0c-0.02,0-0.03,0-0.05,0c-0.02-0.01-0.03-0.01-0.05-0.01c-0.03,0-0.05,0-0.08,0
		c-0.03-0.01-0.05-0.01-0.08-0.01c-0.03,0-0.06,0-0.08,0c-0.03-0.01-0.06-0.01-0.09-0.01c-0.02,0-0.03,0-0.05,0
		c-0.02,0-0.03-0.01-0.05-0.01c-0.02,0-0.03,0-0.05,0c-0.02,0-0.03,0-0.05,0c-0.04-0.01-0.08-0.01-0.12-0.01c-0.04,0-0.08,0-0.11,0
		c-0.04,0-0.08-0.01-0.12-0.01c-0.03,0-0.08-0.01-0.11-0.01c-0.02,0-0.04,0-0.06,0c-0.02-0.01-0.03-0.01-0.06-0.01
		c-0.02,0-0.04,0-0.05,0c-0.03,0-0.04,0-0.05-0.01c-0.04,0-0.06,0-0.09-0.01c-0.02,0-0.05,0-0.08,0c-0.03,0-0.05-0.01-0.08-0.01
		c-0.02,0-0.05,0-0.08-0.01c-0.02,0-0.04,0-0.06,0c-0.02,0-0.03,0-0.05,0c-0.02,0-0.03-0.01-0.05-0.01s-0.03,0-0.06,0
		c-0.03,0-0.08-0.01-0.11-0.02c-0.03,0-0.08,0-0.11-0.01c-0.03,0-0.08,0-0.11,0c-0.04-0.01-0.08-0.01-0.11-0.01
		c-0.02-0.01-0.05-0.01-0.06-0.01c-0.03,0-0.04-0.01-0.06-0.01c-0.02,0-0.04,0-0.06,0c-0.02,0-0.04-0.01-0.06-0.01
		c-0.02,0-0.05,0-0.07,0c-0.03-0.01-0.05-0.01-0.07-0.01c-0.03,0-0.05-0.01-0.08-0.01c-0.02,0-0.04,0-0.07-0.01
		c-0.02,0-0.04,0-0.05,0c-0.03-0.01-0.04-0.01-0.07-0.01c-0.02,0-0.03,0-0.06-0.01c-0.02,0-0.03,0-0.06,0
		c-0.03-0.01-0.07-0.01-0.1-0.01c-0.04-0.01-0.08-0.01-0.11-0.01c-0.04-0.01-0.08-0.01-0.11-0.02c-0.04,0-0.08-0.01-0.11-0.01
		c-0.02,0-0.04,0-0.06-0.01c-0.02,0-0.03,0-0.06,0c-0.02-0.01-0.04-0.01-0.06-0.01c-0.02,0-0.03,0-0.05-0.01
		c-0.02,0-0.05-0.01-0.07-0.01c-0.03,0-0.05,0-0.07,0c-0.02-0.01-0.04-0.01-0.06-0.01c-0.02,0-0.04-0.01-0.07-0.01
		c-0.02,0-0.04,0-0.06-0.01c-0.02,0-0.04,0-0.07,0c-0.02-0.01-0.04-0.01-0.06-0.01c-0.02-0.01-0.04-0.01-0.06-0.01
		c-0.04,0-0.08-0.01-0.11-0.01c-0.03-0.01-0.07-0.01-0.1-0.02c-0.03,0-0.08-0.01-0.1-0.01c-0.04-0.01-0.08-0.01-0.11-0.01
		c-0.02-0.01-0.03-0.01-0.05-0.01c-0.02,0-0.03-0.01-0.05-0.01c-0.02,0-0.04,0-0.06-0.01c-0.02,0-0.04,0-0.06-0.01
		c-0.02,0-0.04,0-0.07,0c-0.02-0.01-0.04-0.01-0.07-0.01c-0.02-0.01-0.05-0.01-0.08-0.01c-0.02-0.01-0.04-0.01-0.07-0.01
		c-0.02-0.01-0.03-0.01-0.05-0.01c-0.02,0-0.04-0.01-0.06-0.01c-0.02,0-0.03-0.01-0.05-0.01c-0.02,0-0.03,0-0.05-0.01
		c-0.04,0-0.08-0.01-0.11-0.01c-0.04-0.01-0.08-0.01-0.11-0.01c-0.04,0-0.08-0.01-0.11-0.01c-0.04-0.01-0.08-0.01-0.11-0.02
		c-0.01-0.01-0.03-0.01-0.03-0.01c-0.02,0-0.03,0-0.05,0c-0.02,0-0.02-0.01-0.04-0.01c-0.01,0-0.02,0-0.03,0
		c-0.03-0.01-0.06-0.01-0.08-0.01c-0.03-0.01-0.05-0.01-0.09-0.01c-0.02-0.01-0.05-0.01-0.09-0.01c-0.03-0.01-0.05-0.01-0.08-0.02
		c-0.02,0-0.03,0-0.05-0.01c-0.01,0-0.02,0-0.04,0c-0.02-0.01-0.03-0.01-0.05-0.01c-0.02,0-0.02-0.01-0.04-0.01
		c-0.03-0.01-0.08-0.01-0.11-0.02c-0.04,0-0.08-0.01-0.11-0.02c-0.04,0-0.08-0.01-0.12-0.02c-0.04,0-0.07-0.01-0.11-0.01
		c-0.01,0-0.02-0.01-0.02-0.01c-0.02,0-0.02,0-0.03,0c0-0.01-0.01-0.01-0.03-0.01c-0.01,0-0.01,0-0.02,0
		c-0.04-0.01-0.07-0.01-0.1-0.01c-0.03-0.01-0.06-0.01-0.1-0.02c-0.03,0-0.07-0.01-0.09-0.01c-0.03-0.01-0.07-0.01-0.1-0.01
		c-0.01,0-0.02-0.01-0.03-0.01c-0.01,0-0.03,0-0.04-0.01c-0.02,0-0.02,0-0.04,0c-0.01,0-0.02-0.01-0.03-0.01
		c-0.04-0.01-0.08-0.01-0.11-0.02c-0.04-0.01-0.09-0.01-0.12-0.02c-0.04,0-0.08-0.01-0.12-0.01l-0.01-0.01
		c-2.17-1.58-4.27-3.28-6.26-5.08c0.7,0.1,1.54,0.23,2.51,0.35c1.02,0.14,2.18,0.28,3.48,0.4c1.3,0.13,2.73,0.24,4.27,0.32
		c1.55,0.09,3.21,0.15,4.99,0.17c0.04,0,0.08,0,0.11,0c0.03,0,0.07,0,0.1,0c0.03,0,0.07,0,0.1,0c0.03,0,0.07,0.01,0.11,0.01
		c0.07,0,0.14,0,0.22,0c0.07,0,0.14,0,0.21,0H83.43z M149.02,517.28c0.04-1.04,0.07-2.07,0.1-3.09c0.02-1.02,0.03-2.02,0.03-3.02
		c0-1,0-1.98-0.02-2.94c-0.02-1.86-0.1-3.71-0.22-5.52c-0.12-1.81-0.28-3.6-0.48-5.36c-0.21-1.77-0.44-3.51-0.72-5.21
		c-0.29-1.72-0.6-3.4-0.96-5.05c-7.3,1.17-14.49,2.64-21.45,4.36c-6.95,1.72-13.63,3.69-19.91,5.86
		c-6.28,2.17-12.14,4.54-17.42,7.06c-5.29,2.52-10,5.2-13.97,7.98c0.13,2.91,0.36,5.81,0.69,8.72c0.34,2.89,0.77,5.79,1.31,8.65
		c0.54,2.87,1.19,5.72,1.95,8.54c0.75,2.83,1.62,5.61,2.6,8.35c7.14-1.16,14.18-2.68,20.92-4.49c6.74-1.81,13.19-3.89,19.14-6.19
		c5.95-2.29,11.42-4.78,16.19-7.39c4.78-2.61,8.87-5.35,12.08-8.11C148.93,519.37,148.98,518.32,149.02,517.28z M81.94,550.24
		L81.94,550.24c0.8,2.02,1.68,4.01,2.6,5.97c0.94,1.97,1.94,3.89,3.01,5.79c1.06,1.9,2.2,3.76,3.4,5.58
		c1.2,1.82,2.48,3.61,3.82,5.35c4.18-0.4,8.36-1.02,12.52-1.84c4.15-0.81,8.29-1.83,12.35-3.04c4.07-1.2,8.07-2.59,11.98-4.16
		c3.91-1.55,7.73-3.29,11.41-5.17c0.75-2.93,1.43-5.96,2.05-9.03c0.62-3.07,1.17-6.19,1.65-9.33c0.48-3.13,0.89-6.28,1.24-9.4
		c0.35-3.13,0.61-6.22,0.81-9.26c-3.13,2.87-7.12,5.73-11.78,8.5c-4.66,2.77-9.99,5.45-15.81,7.94c-5.81,2.49-12.12,4.81-18.73,6.85
		C95.87,547.04,88.96,548.82,81.94,550.24z M124.54,488.12c6.86-2.04,13.99-3.81,21.22-5.27c-0.48-1.9-1.01-3.77-1.59-5.59
		c-0.58-1.83-1.19-3.61-1.84-5.35c-0.65-1.75-1.34-3.45-2.07-5.13c-0.72-1.67-1.48-3.29-2.27-4.89c-0.33,0.04-0.66,0.08-0.99,0.12
		c-0.33,0.04-0.66,0.09-0.99,0.13c-0.33,0.04-0.66,0.09-0.99,0.14c-0.33,0.05-0.66,0.09-0.98,0.14c-5.59,0.89-11.05,2.04-16.33,3.43
		c-5.29,1.4-10.4,3.05-15.31,4.93c-4.91,1.88-9.61,3.99-14.06,6.3c-4.46,2.32-8.66,4.84-12.59,7.56c-0.37,2.17-0.7,4.37-0.96,6.58
		c-0.26,2.22-0.47,4.44-0.62,6.69c-0.15,2.25-0.24,4.5-0.28,6.77c-0.04,2.27-0.01,4.54,0.08,6.82c3.9-2.94,8.54-5.83,13.74-8.61
		c5.2-2.79,10.98-5.45,17.17-7.93C111.07,492.46,117.67,490.16,124.54,488.12z"/>
	<path class="st37" d="M38.65,635.26l3.81-0.38c0.4,2.49,1.8,3.73,4.23,3.73c1.17,0,2.1-0.25,2.78-0.75
		c0.68-0.51,1.02-1.14,1.02-1.91c0-0.72-0.29-1.25-0.84-1.57c-0.56-0.34-1.93-0.76-4.1-1.31c-2.57-0.64-4.25-1.49-5.03-2.55
		c-0.78-1.06-1.18-2.16-1.18-3.26c0-1.64,0.62-2.95,1.87-3.95c1.25-1,2.99-1.49,5.23-1.49c2.26,0,4.04,0.5,5.36,1.5
		c0.67,0.52,1.19,1.13,1.54,1.87c0.34,0.73,0.52,1.56,0.52,2.5l-3.92,0.17c-0.23-1.87-1.41-2.8-3.53-2.8c-0.99,0-1.8,0.18-2.41,0.52
		c-0.62,0.34-0.93,0.81-0.93,1.39c0,0.47,0.22,0.89,0.68,1.26c0.45,0.36,1.68,0.77,3.68,1.25c1.83,0.44,3.21,0.9,4.11,1.37
		c0.91,0.47,1.63,1.14,2.12,2.01c0.5,0.87,0.76,1.88,0.76,3.06c0,1.63-0.63,3.04-1.88,4.22c-1.25,1.18-3.21,1.77-5.9,1.77
		C41.85,641.93,39.17,639.71,38.65,635.26 M57.59,641.58v-19.44h3.94v19.44H57.59z M65.34,641.58v-19.44h3.83l7.95,12.97v-12.97
		h3.64v19.44h-3.94l-7.84-12.67v12.67H65.34z M97.33,634.44l3.8,1.2c-1.08,4.17-3.78,6.26-8.06,6.26c-2.8,0-4.99-0.94-6.53-2.84
		c-1.55-1.89-2.33-4.24-2.33-7.03c0-3.03,0.79-5.49,2.38-7.38c0.79-0.93,1.75-1.64,2.89-2.11c1.13-0.47,2.44-0.71,3.92-0.71
		c1.82,0,3.43,0.46,4.83,1.39c1.4,0.94,2.35,2.36,2.85,4.29l-3.88,0.93c-0.22-0.98-0.69-1.76-1.42-2.35
		c-0.73-0.59-1.63-0.89-2.68-0.89c-1.62,0-2.83,0.57-3.64,1.7c-0.81,1.13-1.21,2.82-1.21,5.06c0,2.3,0.44,3.97,1.33,5.02
		c0.89,1.05,2.04,1.56,3.45,1.56C95.25,638.54,96.68,637.17,97.33,634.44z M104.45,641.58v-19.44h14.4v3.28h-10.46v4.32h9.74V633
		h-9.74v5.32h10.83v3.26H104.45z M141.95,638.13v3.45h-13.06c0.13-1.35,0.58-2.6,1.31-3.79c0.74-1.18,2.13-2.71,4.16-4.6
		c1.64-1.52,2.7-2.61,3.17-3.29c0.46-0.69,0.69-1.41,0.69-2.17c0-0.85-0.23-1.48-0.7-1.92c-0.48-0.44-1.08-0.66-1.79-0.66
		c-0.83,0-1.5,0.26-1.97,0.78c-0.48,0.52-0.72,1.27-0.72,2.26l-3.71-0.37c0.2-2.05,0.9-3.51,2.09-4.41c1.19-0.9,2.64-1.35,4.33-1.35
		c1.97,0,3.49,0.51,4.56,1.56c1.08,1.05,1.63,2.32,1.63,3.85c0,1.26-0.34,2.47-1.01,3.59c-0.67,1.12-1.78,2.4-3.36,3.84
		c-1.8,1.66-2.81,2.73-3.04,3.22H141.95z M150.76,622.07c2.09,0,3.67,0.82,4.73,2.47c0.52,0.82,0.91,1.85,1.18,3.1
		c0.27,1.23,0.4,2.68,0.4,4.35c0,3.32-0.52,5.8-1.57,7.44c-1.05,1.65-2.63,2.47-4.73,2.47c-1.97,0-3.51-0.75-4.63-2.25
		c-0.55-0.75-0.97-1.76-1.26-3.04c-0.28-1.28-0.42-2.83-0.42-4.66c0-3.29,0.52-5.77,1.57-7.42
		C147.07,622.89,148.66,622.07,150.76,622.07z M150.76,625.15c-0.85,0-1.46,0.47-1.84,1.41c-0.18,0.47-0.32,1.15-0.42,2.05
		c-0.1,0.89-0.15,2.02-0.15,3.38c0,2.72,0.19,4.53,0.58,5.45c0.39,0.91,0.99,1.38,1.83,1.38c0.83,0,1.44-0.46,1.83-1.39
		c0.18-0.47,0.32-1.15,0.42-2.05c0.09-0.89,0.15-2.02,0.15-3.39c0-2.67-0.19-4.48-0.57-5.42
		C152.22,625.63,151.61,625.15,150.76,625.15z M165.85,622.07c2.1,0,3.67,0.82,4.74,2.47c0.52,0.82,0.91,1.85,1.18,3.1
		c0.27,1.23,0.39,2.68,0.39,4.35c0,3.32-0.52,5.8-1.57,7.44c-1.06,1.65-2.63,2.47-4.74,2.47c-1.96,0-3.5-0.75-4.62-2.25
		c-0.56-0.75-0.98-1.76-1.26-3.04c-0.29-1.28-0.43-2.83-0.43-4.66c0-3.29,0.52-5.77,1.58-7.42
		C162.17,622.89,163.74,622.07,165.85,622.07z M165.85,625.15c-0.84,0-1.45,0.47-1.83,1.41c-0.19,0.47-0.33,1.15-0.42,2.05
		s-0.15,2.02-0.15,3.38c0,2.72,0.19,4.53,0.58,5.45c0.38,0.91,0.99,1.38,1.82,1.38c0.83,0,1.45-0.46,1.84-1.39
		c0.18-0.47,0.32-1.15,0.42-2.05c0.1-0.89,0.16-2.02,0.16-3.39c0-2.67-0.19-4.48-0.57-5.42
		C167.32,625.63,166.71,625.15,165.85,625.15z M184.18,641.58h-3.71v-14.04c-1.36,1.27-2.97,2.22-4.83,2.82v-3.38
		c0.95-0.31,2-0.9,3.17-1.8c1.16-0.89,1.95-1.93,2.35-3.12h3.03V641.58z"/>
</g>
</svg>
