<?xml version="1.0" encoding="utf-8"?>
<!-- Generator: Adobe Illustrator 26.5.0, SVG Export Plug-In . SVG Version: 6.00 Build 0)  -->
<svg version="1.1" id="Layer_1" xmlns="http://www.w3.org/2000/svg" xmlns:xlink="http://www.w3.org/1999/xlink" x="0px" y="0px"
	 viewBox="0 0 1080 1080" style="enable-background:new 0 0 1080 1080;" xml:space="preserve">
<style type="text/css">
	.st0{fill-rule:evenodd;clip-rule:evenodd;}
	.st1{fill:#ED1C24;}
	.st2{fill:#E1251B;}
	.st3{fill-rule:evenodd;clip-rule:evenodd;fill:#16397B;}
	.st4{fill:#EE2745;}
	
		.st5{clip-path:url(#SVGID_00000039126482380311672290000001009333337714638773_);fill:url(#SVGID_00000100348755418563623390000006519415092070010033_);}
	
		.st6{clip-path:url(#SVGID_00000011734082664569118620000018177601802394160061_);fill:url(#SVGID_00000114066177154363987310000002276598047781175714_);}
	
		.st7{clip-path:url(#SVGID_00000013893465570218381170000005397138055595516819_);fill:url(#SVGID_00000012447282752548684850000017030206369196884407_);}
	
		.st8{clip-path:url(#SVGID_00000062874280405578186170000016273307299051248815_);fill:url(#SVGID_00000125567969240552948010000007377144042028468632_);}
	.st9{fill:#424243;}
	
		.st10{clip-path:url(#SVGID_00000182508140207383901290000015786920573671969448_);fill:url(#SVGID_00000013888823510935786640000009581666571899443609_);}
	.st11{fill:#FFFFFF;}
	
		.st12{clip-path:url(#SVGID_00000101811200091511942300000001127580056529169591_);fill:url(#SVGID_00000146490580547040343710000010073922435810213526_);}
	
		.st13{clip-path:url(#SVGID_00000001627676999294535040000011719432171921537925_);fill:url(#SVGID_00000130612050534754408000000016445504078311130240_);}
	
		.st14{clip-path:url(#SVGID_00000155831722047593038130000007285387763780449455_);fill:url(#SVGID_00000067201369231002291900000008122946618917545902_);}
	
		.st15{clip-path:url(#SVGID_00000088832603914189726440000008038691635193689232_);fill:url(#SVGID_00000086670510104948426640000002110573036656794764_);}
	
		.st16{clip-path:url(#SVGID_00000159469014275783235440000002967811489082353310_);fill:url(#SVGID_00000026143465685442752640000008601353584823258553_);}
	
		.st17{clip-path:url(#SVGID_00000088098807022616416560000017608464413785164422_);fill:url(#SVGID_00000136412126385172633540000009627947992548450184_);}
	
		.st18{clip-path:url(#SVGID_00000018232725284030155220000005152519630841267110_);fill:url(#SVGID_00000050656438579778917390000000748572156076996750_);}
	.st19{fill-rule:evenodd;clip-rule:evenodd;fill:#C8202F;}
	.st20{fill-rule:evenodd;clip-rule:evenodd;fill:#FFFFFF;}
	.st21{fill-rule:evenodd;clip-rule:evenodd;fill:#F98238;}
	.st22{filter:url(#Adobe_OpacityMaskFilter);}
	.st23{fill:url(#SVGID_00000079485255635115838540000008905884200896374172_);}
	.st24{mask:url(#SVGID_00000159454793137091124260000015715435318421346959_);fill-rule:evenodd;clip-rule:evenodd;fill:#ED1C24;}
	.st25{fill-rule:evenodd;clip-rule:evenodd;fill:#F5333F;}
	.st26{fill-rule:evenodd;clip-rule:evenodd;fill:#ED1C24;}
	.st27{fill-rule:evenodd;clip-rule:evenodd;fill:#F9A46E;}
	.st28{fill-rule:evenodd;clip-rule:evenodd;fill:#F47B26;}
	.st29{fill-rule:evenodd;clip-rule:evenodd;fill:#EB5433;}
	.st30{fill:#1A3282;}
	.st31{fill-rule:evenodd;clip-rule:evenodd;fill:#1A3282;}
	.st32{fill-rule:evenodd;clip-rule:evenodd;fill:#9D9FA2;}
	.st33{fill-rule:evenodd;clip-rule:evenodd;fill:#000303;}
	.st34{fill:#64003D;}
	.st35{fill:#536270;}
	.st36{fill-rule:evenodd;clip-rule:evenodd;fill:#64003D;}
	.st37{fill-rule:evenodd;clip-rule:evenodd;fill:#536270;}
	.st38{fill-rule:evenodd;clip-rule:evenodd;fill:#1A3382;}
	.st39{fill-rule:evenodd;clip-rule:evenodd;fill:#29387E;}
	.st40{fill-rule:evenodd;clip-rule:evenodd;fill:#F37021;}
	.st41{fill-rule:evenodd;clip-rule:evenodd;fill:#005C32;}
	.st42{fill-rule:evenodd;clip-rule:evenodd;fill:#D2AB67;}
	
		.st43{clip-path:url(#SVGID_00000152964727199483883590000017001445712605725069_);fill:url(#SVGID_00000090256179267410418520000008664026216818064773_);}
	
		.st44{clip-path:url(#SVGID_00000102510683364283680320000009468620519150466212_);fill:url(#SVGID_00000029737747396099851350000008722434214860092827_);}
	
		.st45{clip-path:url(#SVGID_00000072970185620148221660000004351601001074094244_);fill:url(#SVGID_00000039109963875361516730000010420229249388335526_);}
	.st46{fill-rule:evenodd;clip-rule:evenodd;fill:#00AEEF;}
	.st47{fill-rule:evenodd;clip-rule:evenodd;fill:#EC008C;}
	.st48{fill-rule:evenodd;clip-rule:evenodd;fill:#FFF200;}
	.st49{fill:#A7AAAC;}
	.st50{fill-rule:evenodd;clip-rule:evenodd;fill:#5C5B5B;}
	.st51{fill:#9D9D9F;}
	.st52{fill:#F04D23;}
	.st53{fill-rule:evenodd;clip-rule:evenodd;fill:#2E3192;}
	.st54{fill-rule:evenodd;clip-rule:evenodd;fill:#C4312D;}
	.st55{fill:#552715;}
	.st56{fill:#010101;}
	.st57{fill:#E31E2E;}
	.st58{fill:url(#SVGID_00000040546827139691587130000016688690104534770351_);}
	.st59{fill:url(#SVGID_00000024684689460140531240000003774016770056252051_);}
	.st60{clip-path:url(#SVGID_00000135659437071867307910000017082588501308800394_);}
	.st61{clip-path:url(#SVGID_00000032647589873240730080000002622749688482677891_);}
	.st62{clip-path:url(#SVGID_00000008868216963656078950000017676908081325581452_);}
	.st63{clip-path:url(#SVGID_00000145046272089530654040000009132078506887981455_);}
	.st64{clip-path:url(#SVGID_00000104675501531311283060000002413481327776892816_);}
	.st65{clip-path:url(#SVGID_00000036241853407546991120000008398971434471474326_);}
	.st66{clip-path:url(#SVGID_00000181791011720306381970000000127867136553951160_);}
	.st67{clip-path:url(#SVGID_00000035490703296393206560000014103739323424601763_);}
	.st68{clip-path:url(#SVGID_00000063615351505911432760000010942524266183183503_);}
	.st69{clip-path:url(#SVGID_00000053507241649520120350000004431963111546840245_);}
	.st70{clip-path:url(#SVGID_00000061451001459512852300000013699554356764650411_);}
	.st71{fill:#2650A1;}
	.st72{fill:url(#SVGID_00000093899766783430296010000007560027440314180533_);}
	.st73{fill:#FEFEFE;}
	.st74{fill:#FDFDFD;}
	.st75{fill:#FCFCFC;}
	.st76{fill:#FBFBFB;}
	.st77{fill:#FAFAFA;}
	.st78{fill:#F9F9F9;}
	.st79{fill:#F8F8F8;}
	.st80{fill:#F7F7F7;}
	.st81{fill:#F6F6F6;}
	.st82{fill:#F5F5F5;}
	.st83{fill:#F4F4F4;}
	.st84{fill:#F3F3F3;}
	.st85{fill:#F2F2F2;}
	.st86{fill:#F1F1F1;}
	.st87{fill:#F0F0F0;}
	.st88{fill:#EFEFEF;}
	.st89{fill:#EEEEEE;}
	.st90{fill:#EDEDED;}
	.st91{fill:#ECECEC;}
	.st92{fill:#EBEBEB;}
	.st93{fill:#EAEAEA;}
	.st94{fill:#E9E9E9;}
	.st95{fill:#E8E8E8;}
	.st96{fill:#E7E7E7;}
	.st97{fill:#E6E6E6;}
	.st98{fill:#E5E5E5;}
	.st99{fill:#E4E4E4;}
	.st100{fill:#E3E3E3;}
	.st101{fill:#E2E2E2;}
	.st102{fill:#E1E1E1;}
	.st103{fill:#E0E0E0;}
	.st104{fill:#DFDFDF;}
	.st105{fill:#DEDEDE;}
	.st106{fill:#DDDDDD;}
	.st107{fill:#DCDCDC;}
	.st108{fill:#DBDBDB;}
	.st109{fill:#DADADA;}
	.st110{fill:#D9D9D9;}
	.st111{fill:#D92231;}
	.st112{fill:url(#SVGID_00000005961359550619573510000007760078862431491209_);}
	.st113{fill:url(#SVGID_00000041263888585086602250000013180362515848716677_);}
	.st114{opacity:0.8;}
	.st115{fill:url(#SVGID_00000123402446229273241080000006100846908156543152_);}
	.st116{fill:url(#SVGID_00000127739646675249630820000010342999235481754502_);}
	.st117{fill-rule:evenodd;clip-rule:evenodd;fill:#010101;}
	.st118{fill:#80A845;}
	.st119{fill-rule:evenodd;clip-rule:evenodd;fill:#80A845;}
	.st120{fill:url(#SVGID_00000146458142680100954220000000699488472412711299_);}
	.st121{fill-rule:evenodd;clip-rule:evenodd;fill:#04984A;}
	.st122{fill-rule:evenodd;clip-rule:evenodd;fill:url(#SVGID_00000091733464084646002510000013240090325158970300_);}
	.st123{fill:url(#SVGID_00000059995482904310994370000016875511883284417696_);}
	.st124{fill:url(#SVGID_00000071556687246630533830000017792630795837914789_);}
	.st125{fill:url(#SVGID_00000176746009023768988000000012609382933510640785_);}
	.st126{fill:url(#SVGID_00000074441481112326506750000005037611589545151363_);}
	.st127{fill:url(#SVGID_00000057857965135303494780000011735573693255686019_);}
	.st128{fill:url(#SVGID_00000049904861086819117790000015894476616217475488_);}
	.st129{fill:url(#SVGID_00000173145735558030371430000008341529978965063845_);}
	.st130{fill:url(#SVGID_00000118373779092964845110000008060100111084982708_);}
	.st131{fill:url(#SVGID_00000010300028596553339230000014463689483766814896_);}
	.st132{fill:url(#SVGID_00000075844240985193138510000015952362596472000672_);}
	.st133{fill:url(#SVGID_00000089568834884761334730000002128401083863135632_);}
	.st134{fill:url(#SVGID_00000060023417398567181060000016017885344596126371_);}
	.st135{fill:url(#SVGID_00000145052986299123501750000013049511001976356766_);}
	.st136{fill:url(#SVGID_00000043420964695188931170000013379241820878983324_);}
	.st137{fill-rule:evenodd;clip-rule:evenodd;fill:url(#SVGID_00000028295230239929819800000003505753419713457342_);}
	.st138{fill:#0A529D;}
	.st139{fill:url(#SVGID_00000016756066340133403810000015574274469810805925_);}
	.st140{fill:url(#SVGID_00000023261329263570299390000013859666582790536596_);}
	.st141{fill:url(#SVGID_00000161615205569170456600000003241809971705907330_);}
	.st142{fill:url(#SVGID_00000157291416209360065510000016379816651365240449_);}
	.st143{fill:url(#SVGID_00000183218733369589453770000003871394740748646835_);}
	.st144{fill:url(#SVGID_00000132074990948660476670000012113847958050236074_);}
	.st145{fill:url(#SVGID_00000107547238413011283430000017897264990199651208_);}
	.st146{fill:url(#SVGID_00000175284326194296104480000017553397623984321207_);}
	.st147{fill:url(#SVGID_00000181782968056520386250000004915898210575314565_);}
	.st148{fill:url(#SVGID_00000062152036237551731300000004289804882937756057_);}
	.st149{fill:url(#SVGID_00000010994805148214763250000010257798876255463609_);}
	.st150{fill:url(#SVGID_00000070119827916238705770000002400960651201204917_);}
	.st151{fill-rule:evenodd;clip-rule:evenodd;fill:url(#SVGID_00000103980088872684748700000003138728825719734195_);}
	.st152{fill:url(#SVGID_00000141421549329132944630000003817677101133714324_);}
	.st153{fill:url(#SVGID_00000118391504872646222430000012848235461004992912_);}
	.st154{fill:url(#SVGID_00000063608553670327189690000008501164440395506863_);}
	.st155{fill:url(#SVGID_00000051366999890207008250000008083494031719653563_);}
	.st156{fill:url(#SVGID_00000015336325476230533200000006762180341857331340_);}
	.st157{fill:url(#SVGID_00000018232790205419826210000005461326195018058888_);}
	.st158{fill:url(#SVGID_00000169558567931309102400000008610923475242638244_);}
	.st159{fill:url(#SVGID_00000096057095218144253400000012902806238190206881_);}
	.st160{fill:url(#SVGID_00000050651086640889493260000006424086846692067459_);}
	.st161{fill:url(#SVGID_00000016777204396914117180000010095023220473602733_);}
	.st162{fill:url(#SVGID_00000145046022843213654550000002387951119833401528_);}
	.st163{fill:url(#SVGID_00000031208428026894087510000016663503806331640707_);}
	.st164{fill:url(#SVGID_00000163037521609136711760000007218925587523894667_);}
	.st165{fill:url(#SVGID_00000023981409498106087310000010190742846537938057_);}
	.st166{fill:url(#SVGID_00000015336376147819418720000014181549715729593784_);}
	.st167{fill:url(#SVGID_00000008144095849717042720000004321576565325902468_);}
	.st168{fill:url(#SVGID_00000000185665489966340540000011733777703519141007_);}
	.st169{fill-rule:evenodd;clip-rule:evenodd;fill:url(#SVGID_00000170243872560499855200000004135076894693592485_);}
	.st170{fill:url(#SVGID_00000000209589496007013160000014105189763159138459_);}
	.st171{fill:url(#SVGID_00000097491313415210087480000011092824684568146339_);}
	.st172{fill:url(#SVGID_00000141432788541691012010000005441897250558977430_);}
	.st173{fill:url(#SVGID_00000016036273515266300530000014816857526266355877_);}
	.st174{fill:url(#SVGID_00000001640663124325048050000003140837838199286676_);}
	.st175{fill:url(#SVGID_00000044871333657615145520000002017501940978132383_);}
	.st176{fill:url(#SVGID_00000031898359900843390820000010386683066078426267_);}
	.st177{fill:url(#SVGID_00000005947677582429793280000011236079478781626271_);}
	.st178{fill:url(#SVGID_00000093153541098559079400000004642260859739065235_);}
	.st179{fill:url(#SVGID_00000004531843601842141100000006702005193546732213_);}
	.st180{fill:url(#SVGID_00000010994738688519101310000009429755104850102202_);}
	.st181{fill:url(#SVGID_00000091721178357086074850000017754823127110363828_);}
	.st182{fill:url(#SVGID_00000110431264526918562420000017931436483797488819_);}
	.st183{fill:url(#SVGID_00000119113384551718348240000004501640182395635872_);}
	.st184{fill-rule:evenodd;clip-rule:evenodd;fill:url(#SVGID_00000073708034552382989830000006517544893365820599_);}
	.st185{fill:url(#SVGID_00000063621356176296140070000003816401196001477508_);}
	.st186{fill:url(#SVGID_00000120529835832033916990000010649777624930683319_);}
	.st187{fill:url(#SVGID_00000148653817507561809600000010135063755962968509_);}
	.st188{fill:url(#SVGID_00000101079145434978021070000012201956664435340452_);}
	.st189{fill:url(#SVGID_00000083798341565231240500000017147810785725223811_);}
	.st190{fill:url(#SVGID_00000137829366223716781990000010764454858673121414_);}
	.st191{fill:url(#SVGID_00000039846056336893955060000006667336373478524303_);}
	.st192{fill:url(#SVGID_00000147942988613780752810000000225705423105380000_);}
	.st193{fill:url(#SVGID_00000090998163704093489970000003910143302502751881_);}
	.st194{fill:url(#SVGID_00000166639167412405480340000005952436588484141496_);}
	.st195{fill:url(#SVGID_00000062151532704348070580000008627605669304840368_);}
	.st196{fill:url(#SVGID_00000077292290742938232650000017584666716713599631_);}
	.st197{fill:url(#SVGID_00000039815290354607896160000007574490487764574631_);}
	.st198{fill:url(#SVGID_00000151525503661814908170000007626762006638921661_);}
	.st199{fill:url(#SVGID_00000075868144978042302060000016154785921440508553_);}
	.st200{fill:url(#SVGID_00000068661434158522221870000000458457831739414456_);}
	.st201{fill:url(#SVGID_00000040546853118760110960000012964072895275293626_);}
	.st202{fill:url(#SVGID_00000167378349649159160420000001394125432379574145_);}
	.st203{fill:url(#SVGID_00000134246027624642130440000006704421859827372170_);}
	.st204{fill-rule:evenodd;clip-rule:evenodd;fill:url(#SVGID_00000183237278900440342150000004752623449680068521_);}
	.st205{fill:url(#SVGID_00000022549982655869913350000007037453529133714860_);}
	.st206{fill:url(#SVGID_00000067935940411639807650000003167742656419847299_);}
	.st207{fill:url(#SVGID_00000166662282300218014530000003187783308750356915_);}
	.st208{fill:url(#SVGID_00000117643762953549679020000010614153136310071427_);}
	.st209{fill:url(#SVGID_00000023241952771302323670000015590954370307026853_);}
	.st210{fill:url(#SVGID_00000147933418742411401740000016487818082458645172_);}
	.st211{fill:url(#SVGID_00000027607024538897110340000011901989292144904365_);}
	.st212{fill:url(#SVGID_00000107551450911016671350000015182979975352581791_);}
	.st213{fill:url(#SVGID_00000002369355698513511840000010201970744619579816_);}
	.st214{fill:url(#SVGID_00000036962369481142284170000000129249632989415359_);}
	.st215{fill:url(#SVGID_00000021809147818872570680000017589058109336491690_);}
	.st216{fill:url(#SVGID_00000065772068396820286020000006902781973599981723_);}
	.st217{fill:url(#SVGID_00000111166585452220510440000017134352788667664291_);}
	.st218{fill:url(#SVGID_00000025422257150612505170000005821654549540349590_);}
	.st219{fill:url(#SVGID_00000153680473485011540200000011632073295670876315_);}
	.st220{fill:url(#SVGID_00000175283971323898839870000018072573292475521178_);}
	.st221{fill-rule:evenodd;clip-rule:evenodd;fill:url(#SVGID_00000141414310216409805990000006780399224002342825_);}
	.st222{fill:url(#SVGID_00000085232531576265673470000011304128942896952470_);}
	.st223{fill:url(#SVGID_00000110454628020833572990000016447485965221492379_);}
	.st224{fill:url(#SVGID_00000121236926427047956850000015441660628045281947_);}
	.st225{fill:url(#SVGID_00000149350531226648781780000013080000256202280870_);}
	.st226{fill:url(#SVGID_00000163778182723919825260000009485967972746157440_);}
	.st227{fill:url(#SVGID_00000080914558496959161680000018240979832480907905_);}
	.st228{fill:url(#SVGID_00000158017927086930881710000001845867208418707076_);}
	.st229{fill:url(#SVGID_00000112616042623657271340000003614512652636065172_);}
	.st230{fill:url(#SVGID_00000023241457269432880580000004361392561316885397_);}
	.st231{fill:url(#SVGID_00000138565133397006509400000000487680429819703698_);}
	.st232{fill:url(#SVGID_00000155830989636249476460000015124965272303785398_);}
	.st233{fill:url(#SVGID_00000050632368046189661720000002507091713891310766_);}
	.st234{fill:url(#SVGID_00000036239864714280112670000007694998994589147542_);}
	.st235{fill:url(#SVGID_00000018196505416180665540000006135509849274211748_);}
	.st236{fill:url(#SVGID_00000052802512534678590690000008814477661724630714_);}
	.st237{fill-rule:evenodd;clip-rule:evenodd;fill:url(#SVGID_00000023962147638602288900000007964639856996150954_);}
	.st238{fill:url(#SVGID_00000012430650935076850230000003035709712122413214_);}
	.st239{fill:url(#SVGID_00000027569042155633570810000017427658237856487607_);}
	.st240{fill:url(#SVGID_00000058575086514483175970000009380800789999674554_);}
	.st241{fill:url(#SVGID_00000038398338485332403610000014712174464815282860_);}
	.st242{fill:url(#SVGID_00000095297297407748206430000016201775249453077642_);}
	.st243{fill:url(#SVGID_00000065797184944261759520000002360627868978588828_);}
	.st244{fill:url(#SVGID_00000167391130925450580500000014799119706267512744_);}
	.st245{fill:url(#SVGID_00000010302650183339024570000008628715173775156370_);}
	.st246{fill:url(#SVGID_00000047027041418152912270000015377176123852024749_);}
	.st247{fill:url(#SVGID_00000110463084303302094100000010822739236468815262_);}
	.st248{fill:url(#SVGID_00000007397994301722370910000000954130519402817180_);}
	.st249{fill:url(#SVGID_00000067949249956096950270000016661121475365733517_);}
	.st250{fill:url(#SVGID_00000029028372421339299820000010448738211434380959_);}
	.st251{fill:url(#SVGID_00000167388738006555029750000010264488821718249899_);}
	.st252{fill:url(#SVGID_00000142871281669032046310000003826461048984260266_);}
	.st253{fill-rule:evenodd;clip-rule:evenodd;fill:url(#SVGID_00000176022537140073136420000001101220199642124166_);}
	.st254{fill:url(#SVGID_00000053526894996219241730000012713584944915483805_);}
	.st255{fill:url(#SVGID_00000170995858611565542040000012526685381179711167_);}
	.st256{fill:url(#SVGID_00000021110875146193305500000018378416430324138381_);}
	.st257{fill:url(#SVGID_00000076595006830685220960000000360334018750675643_);}
	.st258{fill:url(#SVGID_00000042724731021214400380000001082388876966272447_);}
	.st259{fill:url(#SVGID_00000009570068668459658240000002871551918873803948_);}
	.st260{fill:url(#SVGID_00000155847885590059541340000009888507620695798195_);}
	.st261{fill:url(#SVGID_00000162346995659649575130000015175695272411809961_);}
	.st262{fill:url(#SVGID_00000063631922628057630480000015036736752614861995_);}
	.st263{fill:url(#SVGID_00000031891965964452690790000005699940041207675300_);}
	.st264{fill:url(#SVGID_00000142145319166606608720000013562699965240093603_);}
	.st265{fill:url(#SVGID_00000178893753618804205380000014560264926595297937_);}
	.st266{fill:url(#SVGID_00000120536524964003199950000013495719702533277569_);}
	.st267{fill:url(#SVGID_00000121980415253396373330000009761854886506976647_);}
	.st268{fill:url(#SVGID_00000091007700030326234030000006730828275775060873_);}
	.st269{fill-rule:evenodd;clip-rule:evenodd;fill:url(#SVGID_00000065051101861881583950000007280550114762538634_);}
	.st270{fill:url(#SVGID_00000023979612694861362460000010156879986691149229_);}
	.st271{fill:url(#SVGID_00000104669273014296747890000008906364587788303032_);}
	.st272{fill:url(#SVGID_00000165203916199979515600000006488205738989173175_);}
	.st273{fill:url(#SVGID_00000096775550698299815040000005016099247190914448_);}
	.st274{fill:url(#SVGID_00000088126353125182557460000012687636334621293217_);}
	.st275{fill:url(#SVGID_00000129193677437324820460000014605924744737859998_);}
	.st276{fill:url(#SVGID_00000158734256957663638350000011130683009482156470_);}
	.st277{fill:url(#SVGID_00000068670257324162251570000008148636037304989110_);}
	.st278{fill:url(#SVGID_00000121980054223238221770000005558260813544933819_);}
	.st279{fill:url(#SVGID_00000127745338771605155820000005506199628574915220_);}
	.st280{fill:url(#SVGID_00000120521626655352700100000016010611085456792193_);}
	.st281{fill:url(#SVGID_00000077302235106193673800000002295042217906096513_);}
	.st282{fill:url(#SVGID_00000072247239305822795740000002361126272148090032_);}
	.st283{fill:url(#SVGID_00000076590476235125458850000012309688552138629044_);}
	.st284{fill:url(#SVGID_00000078033419147724981470000008631071449199421327_);}
	.st285{fill-rule:evenodd;clip-rule:evenodd;fill:url(#SVGID_00000174572470648104040750000012772392545777498532_);}
	.st286{fill:url(#SVGID_00000044878916614562438890000012161923845831673233_);}
	.st287{fill:url(#SVGID_00000132782028580085940090000006350753758397913494_);}
	.st288{fill:url(#SVGID_00000077300433248818749000000011082970536235253892_);}
	.st289{fill:url(#SVGID_00000138552014783393865880000016329637319448819373_);}
	.st290{fill:url(#SVGID_00000103948098508550846190000010996060284395156114_);}
	.st291{fill:url(#SVGID_00000056396520897510545010000010386256856448416411_);}
	.st292{fill:url(#SVGID_00000143595701219030408810000011232257300145163393_);}
	.st293{fill:url(#SVGID_00000083774570599545887690000010747673489881502610_);}
	.st294{fill:url(#SVGID_00000053518117487299724920000008054688527312508568_);}
	.st295{fill:url(#SVGID_00000126290629665388144090000004748262796413514687_);}
	.st296{fill:url(#SVGID_00000044896998879330693300000011899652173676302490_);}
	.st297{fill:url(#SVGID_00000130647393698366088850000001946355085057956498_);}
	.st298{fill:url(#SVGID_00000181063297475272208590000013586345665525428122_);}
	.st299{fill:url(#SVGID_00000050632325520466924710000014599208572669995692_);}
	.st300{fill:url(#SVGID_00000158017279077220981590000007911283550063746734_);}
	.st301{fill:url(#SVGID_00000090975456121825422280000014529629444336779668_);}
	.st302{fill:url(#SVGID_00000110463645658815139430000017696081527458661519_);}
	.st303{fill:url(#SVGID_00000050663294964567788460000012306304899712972197_);}
	.st304{fill-rule:evenodd;clip-rule:evenodd;fill:url(#SVGID_00000166639531331877049200000011328375172898358682_);}
	.st305{fill:url(#SVGID_00000127026767522168582610000003401743381653998756_);}
	.st306{fill:url(#SVGID_00000029020763069236611460000013530177384250640551_);}
	.st307{fill:url(#SVGID_00000109727512548922725120000007555541798948306063_);}
	.st308{fill:url(#SVGID_00000044160354371471915710000011157742836094557612_);}
	.st309{fill:url(#SVGID_00000085943080620563559970000002727221984126300347_);}
	.st310{fill:url(#SVGID_00000057854152014714824970000003726300788878849959_);}
	.st311{fill:url(#SVGID_00000110456249372916488510000003742065954566673337_);}
	.st312{fill:url(#SVGID_00000026161671673937275060000017262476982553371551_);}
	.st313{fill:url(#SVGID_00000082328861000102200600000010778551105222027430_);}
	.st314{fill:url(#SVGID_00000028322316762089933890000009948896312241589403_);}
	.st315{fill:url(#SVGID_00000012464962866630300210000001769937154940566436_);}
	.st316{fill:url(#SVGID_00000168818999411266423990000017495627187700848296_);}
	.st317{fill:url(#SVGID_00000074412410072139145850000009590056615803317904_);}
	.st318{fill:url(#SVGID_00000075848010533128850570000008245986072432363657_);}
	.st319{fill:url(#SVGID_00000145016495023872995050000009907515919632224684_);}
	.st320{fill:url(#SVGID_00000159467743821271064030000014735303041692436357_);}
	.st321{fill:url(#SVGID_00000120530906108370213290000009442319764589660047_);}
	.st322{fill:url(#SVGID_00000048459963265039867390000009808570452429421480_);}
	.st323{fill:url(#SVGID_00000169545596111928328190000008631898915639284868_);}
	.st324{fill:url(#SVGID_00000162323924914476945200000016081883657034829221_);}
	.st325{fill-rule:evenodd;clip-rule:evenodd;fill:url(#SVGID_00000092441473537798690610000016772452280197890732_);}
	.st326{fill:url(#SVGID_00000116235665360494114480000015887276232266335623_);}
	.st327{fill:url(#SVGID_00000028309142647132520250000001747472553146790546_);}
	.st328{fill:url(#SVGID_00000010279780421500633910000006253703498378877108_);}
	.st329{fill:url(#SVGID_00000010995054234178100900000008527638393078580365_);}
	.st330{fill:url(#SVGID_00000075867770680368005460000004881330571647137717_);}
	.st331{fill:url(#SVGID_00000176722577153910525670000016578966138678823329_);}
	.st332{fill:url(#SVGID_00000048498386095873401840000004457181499503352487_);}
	.st333{fill:url(#SVGID_00000097465454574303641810000016917777925556647069_);}
	.st334{fill:url(#SVGID_00000051379764786730506700000012748454844151281816_);}
	.st335{fill:url(#SVGID_00000180346878893345636000000007846440241253980037_);}
	.st336{fill:url(#SVGID_00000075881984602160937330000007182621572913197716_);}
	.st337{fill:url(#SVGID_00000163053990808238971500000011442635837692920214_);}
	.st338{fill:url(#SVGID_00000131342741851456227890000016451711675055103872_);}
	.st339{fill:url(#SVGID_00000096027229356162534550000014742336409979040137_);}
	.st340{fill:url(#SVGID_00000160904061517255429030000016546251134690550944_);}
	.st341{fill:url(#SVGID_00000044856659140078015680000013681984671447988905_);}
	.st342{fill-rule:evenodd;clip-rule:evenodd;fill:url(#SVGID_00000049933667457944035300000013693266464616827046_);}
	.st343{fill:url(#SVGID_00000098930132980529791530000003007600922261032111_);}
	.st344{fill:url(#SVGID_00000079485545658140394570000004970096177310203807_);}
	.st345{fill:url(#SVGID_00000160900184504010405790000000735901150979569293_);}
	.st346{fill:url(#SVGID_00000039103032785191433640000015144487105509177484_);}
	.st347{fill:url(#SVGID_00000016040400023612245700000005724320978317790086_);}
	.st348{fill:url(#SVGID_00000075874002915901325260000004347922165940570252_);}
	.st349{fill:url(#SVGID_00000152955262081302260360000012426612517226944941_);}
	.st350{fill:url(#SVGID_00000156578607943761188360000015402004004566778241_);}
	.st351{fill:url(#SVGID_00000177469598167211590580000015493034938031387524_);}
	.st352{fill:url(#SVGID_00000115483198232263831130000009566175104818849938_);}
	.st353{fill:url(#SVGID_00000039837586021398106190000012922841769091088823_);}
	.st354{fill:url(#SVGID_00000101789467087848758140000006973474513931220123_);}
	.st355{fill:url(#SVGID_00000101064822960509369000000000639944817519703436_);}
	.st356{fill:url(#SVGID_00000174580714330590704350000002969412227143068587_);}
	.st357{fill:url(#SVGID_00000098215292353431782780000000066934685099809201_);}
	.st358{fill:url(#SVGID_00000110452098392965818030000004269009071555859627_);}
	.st359{fill:url(#SVGID_00000028291208764028308830000003831388031496342675_);}
	.st360{fill:url(#SVGID_00000018934886537576203660000000175234732473911730_);}
	.st361{fill:url(#SVGID_00000031182519036921219930000000286704020376191674_);}
	.st362{fill:url(#SVGID_00000003816619549591925280000018272507191636041355_);}
	.st363{fill:#C1282D;}
	.st364{fill-rule:evenodd;clip-rule:evenodd;fill:url(#SVGID_00000147178309960207677830000014937644283897402266_);}
	.st365{fill:url(#SVGID_00000155139338981344745800000014062335275660007056_);}
	.st366{fill:url(#SVGID_00000075877597886062986520000015816904332776033454_);}
	.st367{fill:url(#SVGID_00000063603711047723790700000014896063309378271409_);}
	.st368{fill:url(#SVGID_00000174587153024162611210000018185452673074897849_);}
	.st369{fill:url(#SVGID_00000078006981511117894690000002466862333146296997_);}
	.st370{fill:url(#SVGID_00000077320034251790978080000003287162182639059130_);}
	.st371{fill:url(#SVGID_00000181804838406152963030000006286828126019880115_);}
	.st372{fill:url(#SVGID_00000086687694051338550330000014164900752151035578_);}
	.st373{fill:url(#SVGID_00000083796104580067803770000009662595671320074130_);}
	.st374{fill:url(#SVGID_00000132794595297195511920000011701358603672528025_);}
	.st375{fill:url(#SVGID_00000034087880028867771390000016006635951497286042_);}
	.st376{fill:url(#SVGID_00000169529890574398697560000004754303192761590155_);}
	.st377{fill:url(#SVGID_00000127749582210172755900000005243441563869641866_);}
	.st378{fill:url(#SVGID_00000015353792709162367620000016013838099485562241_);}
	.st379{fill:url(#SVGID_00000013914760295182044360000001868615151452722088_);}
	.st380{fill:url(#SVGID_00000177467746813748780270000009960231167550364813_);}
	.st381{fill-rule:evenodd;clip-rule:evenodd;fill:url(#SVGID_00000040563626422794318500000005231030106851926941_);}
	.st382{fill:url(#SVGID_00000174601638068174834300000003502200444802705024_);}
	.st383{fill:url(#SVGID_00000091710481911617520780000002672631433685485696_);}
	.st384{fill:url(#SVGID_00000124875484011031917580000005150723770717949828_);}
	.st385{fill:url(#SVGID_00000074426176757479155020000007185760420621288370_);}
	.st386{fill:url(#SVGID_00000170982266163462344920000012632506883434422166_);}
	.st387{fill:url(#SVGID_00000046323132529368065830000009680154241041793449_);}
	.st388{fill:url(#SVGID_00000173851713436005640430000003798784653213832835_);}
	.st389{fill:url(#SVGID_00000000923779574507357600000006005835174163495337_);}
	.st390{fill:url(#SVGID_00000054955038313931421390000006430312994518070459_);}
	.st391{fill:url(#SVGID_00000124884260771017447620000004026463814920584353_);}
	.st392{fill:url(#SVGID_00000057869912133053954700000001005403536580801190_);}
	.st393{fill:url(#SVGID_00000151535281148582872350000015519538211471947184_);}
	.st394{fill:url(#SVGID_00000086661809878976343960000015444862845402680986_);}
	.st395{fill:url(#SVGID_00000145019815558639653010000013460480014678657978_);}
	.st396{fill:url(#SVGID_00000012446179393418928620000016147641228077783450_);}
	.st397{fill:url(#SVGID_00000133497508327515497810000002420062883992964246_);}
	.st398{fill:url(#SVGID_00000006674293927217215850000007786709137126319267_);}
	.st399{fill:url(#SVGID_00000014624840921461451660000013918088636182595732_);}
	.st400{fill:url(#SVGID_00000003802520837892803250000001535565615089123500_);}
	.st401{fill:url(#SVGID_00000159453686850981989880000003439960144712511140_);}
</style>
<g>
	<g>
		<ellipse class="st11" cx="540" cy="405.14" rx="287.69" ry="142.75"/>
		<path class="st121" d="M813.35,449.6c-37.69,57.09-145.8,98.3-273.35,98.3c-128.25,0-236.84-41.65-273.96-99.27l2.81-0.88
			l13.24-4.13l93.46-29.34l-8.8,24.45c-0.75,2.07,1.36,4.05,3.39,3.17l82.51-35.63l-27.97,41.39c-1.54,2.24,1.1,5.01,3.43,3.56
			l82.82-51.15v31.05c0,2.2,2.64,3.34,4.27,1.8l8.49-8.05l13.37,31.05c0.84,1.94,3.56,2.07,4.57,0.18l21.68-41.39l100.63,50.89
			c2.29,1.19,4.66-1.5,3.21-3.65l-26.52-39.76c-0.62-0.88-0.57-2.07,0.09-2.9l11.44-15.53l13.33,16.58
			c1.19,1.45,3.43,1.19,4.27-0.48l7.04-14.29l60.92,44.99c1.41,1.01,3.43,0.35,3.91-1.32l6.33-20.85l65.18,21.07
			c0.04,0,0.09,0.04,0.09,0.04C813.26,449.55,813.3,449.55,813.35,449.6z"/>
		
			<linearGradient id="SVGID_00000013160161004259769020000004409371381979849377_" gradientUnits="userSpaceOnUse" x1="421.8745" y1="267.5966" x2="705.4293" y2="591.4991">
			<stop  offset="0" style="stop-color:#3E76BB"/>
			<stop  offset="1" style="stop-color:#06509E"/>
		</linearGradient>
		<path style="fill-rule:evenodd;clip-rule:evenodd;fill:url(#SVGID_00000013160161004259769020000004409371381979849377_);" d="
			M827.69,405.38c0,1.36-0.04,2.68-0.13,4c-0.04,1.14-0.13,2.24-0.26,3.34c-0.09,1.01-0.22,2.02-0.35,3.03
			c-0.09,0.7-0.22,1.41-0.35,2.11c-0.4,2.46-0.97,4.93-1.67,7.34c-0.22,0.88-0.48,1.76-0.75,2.6c-0.09,0.31-0.18,0.62-0.31,0.92
			c-0.35,1.1-0.75,2.2-1.14,3.25c-0.31,0.84-0.66,1.72-1.06,2.55c-0.09,0.26-0.22,0.57-0.35,0.84l-0.13-0.04l-0.09-0.04l-185.3-89.9
			c-1.14-0.53-2.51-0.18-3.21,0.88l-24.89,37.16l-66.33-81.5c-0.92-1.06-2.51-1.23-3.56-0.31l-92.14,77.23l-43.67-4.18
			c-0.7-0.09-1.41,0-2.07,0.31c-12.01,5.41-133,60.21-139.91,63.33c-0.31-0.57-0.57-1.1-0.79-1.67c-0.35-0.79-0.7-1.63-1.06-2.46
			c-0.7-1.67-1.36-3.39-1.89-5.06c-0.35-1.01-0.66-1.98-0.92-2.99c-1.01-3.25-1.72-6.55-2.2-9.9c-0.35-2.2-0.57-4.44-0.7-6.69
			c-0.09-1.36-0.13-2.77-0.13-4.18c0-78.95,128.78-142.99,287.69-142.99C698.91,262.39,827.69,326.43,827.69,405.38z"/>
		<g>
			<path class="st11" d="M380.39,481.24c0.39,0,0.77-0.08,1.14-0.24c0.37-0.16,0.6-0.38,0.7-0.68h0.84l-1.47,5.62
				c-0.24,0.78-0.97,1.17-2.16,1.17h-2.17l-4.11,17.47c-0.05,0.24,0.06,0.5,0.33,0.75c0.27,0.26,0.54,0.39,0.81,0.39l-0.26,0.84
				h-10.21c-0.78,0-1.17-0.39-1.17-1.17c0-0.1,0.02-0.29,0.07-0.59l4.15-17.7h-2.53c-0.39,0-0.72,0.09-0.97,0.27
				c-0.26,0.18-0.43,0.42-0.53,0.72h-0.92l1.47-5.87c0.1-0.34,0.29-0.59,0.59-0.75c0.29-0.16,0.76-0.24,1.4-0.24H380.39z"/>
			<path class="st11" d="M392.18,506.57c-0.64,0-1.11-0.1-1.41-0.31c-0.31-0.21-0.48-0.57-0.53-1.08l-0.33-3.74h-4.26l-1.51,3.01
				c-0.02,0.07-0.04,0.13-0.04,0.18c0,0.05-0.01,0.15-0.04,0.29c0,0.22,0.1,0.41,0.31,0.57c0.21,0.16,0.45,0.24,0.72,0.24
				l-0.18,0.84h-7.97c-1.03,0-1.54-0.4-1.54-1.21c0-0.22,0.06-0.45,0.18-0.7l10.79-20.92c0.07-0.15,0.11-0.33,0.11-0.55
				c0-0.27-0.12-0.52-0.35-0.75c-0.23-0.23-0.48-0.35-0.75-0.35l0.22-0.84h10.94c0.56,0,1.04,0.15,1.43,0.46
				c0.39,0.3,0.59,0.74,0.59,1.3l1.69,21.44c0,0.32,0.17,0.61,0.52,0.88c0.34,0.27,0.7,0.4,1.06,0.4l-0.18,0.84H392.18z
				 M387.81,496.51h2.09l-0.29-4.11L387.81,496.51z"/>
			<path class="st11" d="M400.07,483.51c-0.05-0.44-0.21-0.79-0.5-1.05c-0.28-0.26-0.59-0.39-0.94-0.39l0.18-0.84h10.24
				c0.32,0,0.62,0.16,0.92,0.48c0.29,0.32,0.44,0.66,0.44,1.03l0.29,9.62l3.6-8.41l0.15-0.59c0-0.29-0.1-0.58-0.31-0.86
				c-0.21-0.28-0.45-0.42-0.72-0.42l0.18-0.84h7.45c0.44,0,0.8,0.17,1.08,0.5s0.42,0.68,0.42,1.05l-0.15,0.73l-10.79,23.05h-6.86
				c-0.56,0-1.03-0.12-1.4-0.37c-0.37-0.24-0.59-0.58-0.66-0.99L400.07,483.51z"/>
			<path class="st11" d="M431.39,506.57c-0.64,0-1.11-0.1-1.41-0.31c-0.31-0.21-0.48-0.57-0.53-1.08l-0.33-3.74h-4.26l-1.51,3.01
				c-0.02,0.07-0.04,0.13-0.04,0.18c0,0.05-0.01,0.15-0.04,0.29c0,0.22,0.1,0.41,0.31,0.57c0.21,0.16,0.45,0.24,0.72,0.24
				l-0.18,0.84h-7.97c-1.03,0-1.54-0.4-1.54-1.21c0-0.22,0.06-0.45,0.18-0.7l10.79-20.92c0.07-0.15,0.11-0.33,0.11-0.55
				c0-0.27-0.12-0.52-0.35-0.75c-0.23-0.23-0.48-0.35-0.75-0.35l0.22-0.84h10.94c0.56,0,1.04,0.15,1.43,0.46
				c0.39,0.3,0.59,0.74,0.59,1.3l1.69,21.44c0,0.32,0.17,0.61,0.52,0.88c0.34,0.27,0.7,0.4,1.06,0.4l-0.18,0.84H431.39z
				 M427.02,496.51h2.09l-0.29-4.11L427.02,496.51z"/>
			<path class="st11" d="M465.72,506.57h-6.68c-0.73,0-1.35-0.1-1.85-0.29c-0.5-0.2-0.83-0.55-0.97-1.06l-3.75-9.07l-2.13,8.19
				l-0.07,0.62c0,0.24,0.1,0.43,0.31,0.57c0.21,0.14,0.48,0.2,0.83,0.2l-0.18,0.84h-8.26c-0.42,0-0.73-0.12-0.94-0.35
				c-0.21-0.23-0.31-0.55-0.31-0.94c0-0.15,0.02-0.34,0.07-0.59l4.99-21.48c0.05-0.27-0.05-0.53-0.29-0.77
				c-0.24-0.24-0.51-0.37-0.81-0.37l0.22-0.84h9.32c0.29,0,0.63,0.14,1.01,0.42c0.38,0.28,0.63,0.58,0.75,0.9l3.96,9.25l1.76-7.93
				c0.05-0.15,0.08-0.38,0.08-0.7c0-0.29-0.12-0.55-0.37-0.77c-0.24-0.22-0.52-0.33-0.81-0.33l0.22-0.84h8.22
				c0.39,0,0.69,0.14,0.9,0.4c0.21,0.27,0.31,0.58,0.31,0.92l-0.11,0.99L465.72,506.57z"/>
			<path class="st11" d="M504.53,481.2c1.64,0,2.91,0.43,3.8,1.28c0.89,0.86,1.34,1.93,1.34,3.23c0,0.2-0.02,0.41-0.06,0.66
				c-0.04,0.24-0.07,0.43-0.09,0.55c-0.56,2.69-1.71,4.32-3.45,4.88c0.71,0.44,1.23,0.92,1.56,1.45c0.33,0.53,0.5,1.3,0.5,2.33
				c0,0.93-0.18,2.23-0.55,3.89c-0.64,2.77-1.61,4.66-2.94,5.69c-1.2,0.93-3.05,1.4-5.54,1.4h-14.57c-0.42,0-0.73-0.12-0.94-0.35
				c-0.21-0.23-0.31-0.55-0.31-0.94c0-0.15,0.02-0.34,0.07-0.59l4.99-21.48c0.05-0.27-0.05-0.53-0.29-0.77
				c-0.24-0.24-0.52-0.37-0.81-0.37l0.22-0.84L504.53,481.2z M495.9,500.88c0.66,0,1.12-0.15,1.38-0.46c0.26-0.31,0.51-1,0.75-2.07
				c0.17-0.69,0.26-1.25,0.26-1.69c0-0.83-0.45-1.25-1.36-1.25h-1.03l-1.25,5.47H495.9z M498.51,490.52c0.41,0,0.71-0.12,0.88-0.35
				c0.17-0.23,0.33-0.65,0.48-1.27c0.15-0.61,0.22-1.05,0.22-1.32c0-0.64-0.36-0.96-1.07-0.96h-1.1l-0.88,3.89H498.51z"/>
			<path class="st11" d="M526.78,481.24c2.15,0,3.93,0.56,5.32,1.67c1.4,1.11,2.09,2.69,2.09,4.72c0,0.73-0.09,1.44-0.26,2.13
				l-2.2,9.32c-0.64,2.77-1.74,4.74-3.3,5.91c-1.37,1.05-3.26,1.58-5.65,1.58h-7.53c-2.3,0-4.01-0.52-5.12-1.56
				c-1.11-1.04-1.67-2.58-1.67-4.61c0-1.2,0.16-2.45,0.48-3.74l1.61-6.94c0.64-2.67,1.55-4.66,2.75-5.98c1.54-1.66,3.71-2.5,6.5-2.5
				H526.78z M518.85,498.71c-0.07,0.34-0.11,0.64-0.11,0.88c0,0.61,0.34,0.92,1.03,0.92c0.46,0,0.81-0.11,1.05-0.31
				s0.41-0.58,0.53-1.12l2.42-10.31c0.05-0.29,0.07-0.49,0.07-0.59c0-0.71-0.35-1.07-1.07-1.07c-0.78,0-1.31,0.49-1.58,1.47
				L518.85,498.71z"/>
			<path class="st11" d="M546.68,495.59l0.08-0.48c0-0.22-0.15-0.33-0.44-0.33c-0.29,0-0.44-0.12-0.44-0.37l0.07-0.48l1.07-4.37
				h8.11c0.59,0,1.05,0.18,1.38,0.53c0.33,0.36,0.5,0.75,0.5,1.19c0,0.56-0.05,1.03-0.15,1.4l-1.95,8.63
				c-0.44,1.96-1.11,3.32-2.02,4.09c-0.9,0.77-2.42,1.16-4.55,1.16h-8.88c-2.47,0-4.25-0.48-5.32-1.43
				c-0.95-0.86-1.43-2.16-1.43-3.93c0-1.13,0.2-2.5,0.59-4.11l2.02-8.85c0.52-2.3,1.51-4.07,2.97-5.32
				c1.35-1.15,2.89-1.73,4.63-1.73h15.01c-0.07,0.73-0.21,1.48-0.4,2.24s-0.41,1.38-0.64,1.87s-0.59,0.84-1.07,1.06
				c-0.48,0.22-1.02,0.33-1.63,0.33h-6.2c-0.69,0-1.22,0.17-1.6,0.5c-0.38,0.33-0.65,0.87-0.83,1.63l-2.39,10.28
				c-0.05,0.34-0.07,0.56-0.07,0.66c0,0.61,0.38,0.92,1.14,0.92c0.86,0,1.38-0.45,1.58-1.36L546.68,495.59z"/>
			<path class="st11" d="M574.84,481.24c2.47,0,4.27,0.64,5.4,1.91c1,1.15,1.51,2.84,1.51,5.07c0,0.86-0.08,1.82-0.24,2.88
				c-0.16,1.07-0.39,2.18-0.68,3.36c-1.15,4.87-2.28,8.11-3.4,9.71c-1.11,1.6-2.73,2.41-4.86,2.41H556.2
				c-0.42,0-0.73-0.12-0.94-0.35c-0.21-0.23-0.31-0.55-0.31-0.94c0-0.15,0.03-0.34,0.08-0.59l4.99-21.48
				c0.05-0.27-0.05-0.53-0.29-0.77c-0.24-0.24-0.52-0.37-0.81-0.37l0.22-0.84H574.84z M567.65,500.51c0.51,0,0.91-0.15,1.17-0.44
				c0.27-0.29,0.49-0.79,0.66-1.5l2.13-9.14c0.1-0.41,0.15-0.81,0.15-1.17c0-0.76-0.44-1.14-1.32-1.14h-0.92l-3.12,13.4H567.65z"/>
			<path class="st11" d="M608.18,495.59l0.08-0.48c0-0.22-0.15-0.33-0.44-0.33c-0.29,0-0.44-0.12-0.44-0.37l0.07-0.48l1.07-4.37
				h8.11c0.59,0,1.05,0.18,1.38,0.53c0.33,0.36,0.5,0.75,0.5,1.19c0,0.56-0.05,1.03-0.15,1.4l-1.95,8.63
				c-0.44,1.96-1.11,3.32-2.02,4.09c-0.9,0.77-2.42,1.16-4.55,1.16h-8.88c-2.47,0-4.25-0.48-5.32-1.43
				c-0.95-0.86-1.43-2.16-1.43-3.93c0-1.13,0.2-2.5,0.59-4.11l2.02-8.85c0.52-2.3,1.51-4.07,2.97-5.32
				c1.35-1.15,2.89-1.73,4.63-1.73h15.01c-0.07,0.73-0.21,1.48-0.4,2.24s-0.41,1.38-0.64,1.87s-0.59,0.84-1.07,1.06
				c-0.48,0.22-1.02,0.33-1.63,0.33h-6.2c-0.69,0-1.22,0.17-1.6,0.5c-0.38,0.33-0.66,0.87-0.83,1.63l-2.39,10.28
				c-0.05,0.34-0.07,0.56-0.07,0.66c0,0.61,0.38,0.92,1.14,0.92c0.86,0,1.38-0.45,1.58-1.36L608.18,495.59z"/>
			<path class="st11" d="M639.32,499.59c0.17,0.29,0.4,0.55,0.7,0.75c0.29,0.21,0.62,0.31,0.99,0.31h1.07l-0.88,4.19
				c-0.24,1.15-1.13,1.72-2.64,1.72h-4.92c-0.64,0-1.19-0.17-1.65-0.5c-0.46-0.33-0.76-0.74-0.88-1.23l-2.13-7.49l-1.58,7.16
				l-0.04,0.37c0,0.24,0.11,0.45,0.31,0.61c0.21,0.16,0.47,0.24,0.79,0.24l-0.18,0.84H618.1c-0.42,0-0.73-0.12-0.94-0.35
				c-0.21-0.23-0.31-0.55-0.31-0.94c0-0.15,0.03-0.34,0.08-0.59l4.99-21.48c0.05-0.27-0.05-0.53-0.29-0.77
				c-0.24-0.24-0.52-0.37-0.81-0.37l0.22-0.84h17c3.82,0,5.73,1.78,5.73,5.32c0,0.49-0.02,0.92-0.07,1.28
				c-0.12,0.64-0.21,1.13-0.26,1.47c-0.49,2.2-1.14,3.82-1.95,4.84c-0.81,1.03-1.96,1.71-3.45,2.06L639.32,499.59z M630.4,491.48
				h1.43c0.83,0,1.41-0.7,1.72-2.09c0.05-0.27,0.1-0.53,0.15-0.79c0.05-0.26,0.08-0.47,0.08-0.64c0-0.69-0.29-1.03-0.88-1.03h-1.43
				L630.4,491.48z"/>
			<path class="st11" d="M660.72,481.24c2.15,0,3.93,0.56,5.32,1.67c1.4,1.11,2.09,2.69,2.09,4.72c0,0.73-0.09,1.44-0.26,2.13
				l-2.2,9.32c-0.64,2.77-1.74,4.74-3.3,5.91c-1.37,1.05-3.26,1.58-5.65,1.58h-7.53c-2.3,0-4.01-0.52-5.12-1.56
				c-1.11-1.04-1.67-2.58-1.67-4.61c0-1.2,0.16-2.45,0.48-3.74l1.61-6.94c0.64-2.67,1.55-4.66,2.75-5.98c1.54-1.66,3.71-2.5,6.5-2.5
				H660.72z M652.79,498.71c-0.07,0.34-0.11,0.64-0.11,0.88c0,0.61,0.34,0.92,1.03,0.92c0.46,0,0.81-0.11,1.05-0.31
				c0.23-0.21,0.41-0.58,0.53-1.12l2.42-10.31c0.05-0.29,0.07-0.49,0.07-0.59c0-0.71-0.35-1.07-1.07-1.07
				c-0.78,0-1.31,0.49-1.58,1.47L652.79,498.71z"/>
			<path class="st11" d="M677.58,498.93c-0.05,0.24-0.08,0.39-0.08,0.44c0,0.54,0.42,0.81,1.25,0.81c0.46,0,0.8-0.08,1.01-0.24
				c0.21-0.16,0.37-0.5,0.49-1.01l3.64-15.71c0.05-0.24-0.05-0.49-0.29-0.75c-0.24-0.26-0.5-0.39-0.77-0.39l0.18-0.84h10.21
				c0.41,0,0.72,0.11,0.9,0.31c0.18,0.21,0.27,0.51,0.27,0.9l-0.07,0.55l-3.71,16.08c-0.64,2.79-1.68,4.76-3.12,5.91
				c-1.3,1.03-3.12,1.54-5.47,1.54h-8.41c-2.23,0-3.86-0.5-4.9-1.49c-1.04-0.99-1.56-2.45-1.56-4.39c0-1.17,0.18-2.52,0.55-4.04
				l3.12-13.4c0.05-0.24-0.05-0.49-0.29-0.75c-0.24-0.26-0.5-0.39-0.77-0.39l0.18-0.84h10.21c0.42,0,0.72,0.11,0.9,0.31
				c0.18,0.21,0.27,0.51,0.27,0.9l-0.07,0.55L677.58,498.93z"/>
			<path class="st11" d="M711.25,481.24c2.25,0,3.95,0.45,5.1,1.36c1.15,0.9,1.73,2.34,1.73,4.3c0,0.54-0.03,1.03-0.08,1.47
				c-0.05,0.44-0.16,0.99-0.33,1.65c-0.78,3.38-1.66,5.61-2.64,6.7c-0.98,1.09-2.58,1.63-4.81,1.63h-7.56l-1.36,5.76l-0.11,0.7
				c0,0.27,0.11,0.49,0.33,0.66c0.22,0.17,0.48,0.26,0.77,0.26l-0.22,0.84h-10.13c-0.42,0-0.73-0.12-0.94-0.35
				c-0.21-0.23-0.31-0.55-0.31-0.94c0-0.15,0.02-0.34,0.07-0.59l4.99-21.48c0.05-0.27-0.05-0.53-0.29-0.77
				c-0.24-0.24-0.51-0.37-0.81-0.37l0.22-0.84H711.25z M704.05,492.47h1.14c0.61,0,1.06-0.19,1.36-0.57
				c0.29-0.38,0.56-1.11,0.81-2.18c0.15-0.64,0.22-1.14,0.22-1.51c0-0.49-0.11-0.83-0.31-1.01c-0.21-0.18-0.52-0.27-0.93-0.27h-0.99
				L704.05,492.47z"/>
		</g>
	</g>
	<g>
		<path class="st138" d="M132.86,806.75l17.15-18.97l-10.17-18.56h5.29l4.63,8.5c1.66,3.03,2.83,5.34,3.5,6.91
			c1.17-1.65,3.04-3.9,5.6-6.74l7.89-8.68h6.27l-17.37,19.39l9.83,18.14l-5.21-0.01l-5.82-10.99c-0.55-1.07-1.21-2.45-1.98-4.13
			c-0.82,1.14-1.91,2.46-3.24,3.97l-10.02,11.16H132.86L132.86,806.75z M187.04,803.37c-2.84,2.66-5.83,3.99-8.96,3.99
			c-2.33,0-4.26-0.72-5.77-2.15c-1.51-1.43-2.27-3.33-2.27-5.68c0-2.8,0.98-4.96,2.94-6.48c2.02-1.56,4.98-2.35,8.87-2.35l2.35-0.1
			c1.11,0,2.11-0.08,2.98-0.25c0.88-0.16,1.6-0.38,2.17-0.65c0.34-1.27,0.52-2.36,0.52-3.27c0-1.08-0.48-1.96-1.43-2.65
			c-0.96-0.69-2.35-1.04-4.18-1.04c-3.66,0-6.05,1.65-7.18,4.96l-4.48-0.41c1.86-5.57,5.81-8.34,11.85-8.34
			c2.91,0,5.27,0.65,7.08,1.95c1.81,1.29,2.72,3,2.72,5.12c0,1.45-0.2,3.13-0.61,5.04l-1.45,6.75c-0.23,1.16-0.4,2.15-0.52,2.94
			c-0.12,0.8-0.18,1.55-0.18,2.23c0,1.21,0.18,2.47,0.54,3.76h-4.48c-0.15-0.48-0.27-1.01-0.37-1.59
			C187.09,804.58,187.04,803.98,187.04,803.37L187.04,803.37z M188.68,792.98c-1.05,0.4-2.48,0.7-4.28,0.89l-2.55,0.25
			c-1.44,0-2.69,0.18-3.77,0.54c-0.95,0.31-1.69,0.73-2.21,1.27c-0.95,0.94-1.42,2.07-1.42,3.38c0,1.29,0.43,2.34,1.31,3.19
			c0.87,0.85,2.06,1.27,3.56,1.27c2.12,0,4.05-0.78,5.79-2.33C186.86,799.9,188.05,797.08,188.68,792.98L188.68,792.98z
			 M202.87,779.57h6.59l2.45,21.68l12.08-21.68h6.46l-5.56,27.18h-4.39l4.53-21.91l-12.2,21.91h-3.94L206.32,784l-4.65,22.75h-4.39
			L202.87,779.57L202.87,779.57z M231.67,806.75l5.43-27.18h4.44l-0.91,4.47c2.76-3.4,5.62-5.09,8.58-5.09
			c1.71,0,3.1,0.43,4.16,1.28c1.01,0.8,1.71,2.07,2.11,3.81c1.29-1.67,2.68-2.94,4.16-3.8c1.49-0.86,3.03-1.29,4.63-1.29
			c2.14,0,3.75,0.52,4.86,1.55c1.1,1.03,1.66,2.58,1.66,4.62c0,0.89-0.19,2.26-0.57,4.12l-3.51,17.51h-4.42l3.58-17.97
			c0.15-0.75,0.26-1.38,0.34-1.89c0.08-0.52,0.12-0.93,0.12-1.26c0-0.95-0.26-1.67-0.77-2.15c-0.52-0.48-1.29-0.72-2.32-0.72
			c-1.5,0-2.98,0.51-4.41,1.52c-1.44,1.02-2.49,2.23-3.16,3.63c-0.58,1.33-1.14,3.21-1.66,5.65l-2.66,13.18h-4.42l3.68-18.35
			c0.26-1.31,0.39-2.2,0.39-2.66c0-0.93-0.29-1.65-0.84-2.18c-0.55-0.53-1.24-0.8-2.03-0.8c-0.75,0-1.5,0.13-2.22,0.38
			c-0.73,0.25-1.47,0.65-2.22,1.21c-1.45,1.04-2.54,2.33-3.28,3.89c-0.67,1.45-1.26,3.34-1.74,5.65l-2.57,12.85H231.67
			L231.67,806.75z M304.71,779.57h4.48l-5.63,27.18h-4.46L304.71,779.57L304.71,779.57z M279.07,779.57h4.43l-2.22,10.51h4.73
			c3,0,5.14,0.23,6.43,0.69c1.28,0.46,2.29,1.3,3.04,2.52c0.75,1.22,1.13,2.58,1.13,4.08c0,0.91-0.12,1.78-0.37,2.64
			c-0.24,0.86-0.63,1.71-1.15,2.56c-0.98,1.64-2.21,2.74-3.69,3.32c-1.47,0.57-3.76,0.86-6.87,0.86h-11.07L279.07,779.57
			L279.07,779.57z M278.6,803.06h5.65c2.18,0,3.74-0.16,4.66-0.46c0.92-0.31,1.7-0.86,2.32-1.69c0.62-0.82,0.93-1.8,0.93-2.94
			c0-1.04-0.28-1.92-0.82-2.63c-0.55-0.71-1.18-1.14-1.9-1.29c-0.33-0.07-0.84-0.12-1.51-0.17c-0.68-0.05-1.47-0.08-2.39-0.08h-5.04
			L278.6,803.06L278.6,803.06z M315.93,779.57h4.39l-2.35,11.33h12.08l2.29-11.33h4.33l-5.48,27.18h-4.42l2.52-12.16h-12.03
			l-2.52,12.16h-4.38L315.93,779.57L315.93,779.57z M350.2,806.75l11.32-13.79l-6.5-13.38h4.9l2.21,4.83
			c0.95,2.15,1.68,3.89,2.2,5.2l7.5-10.03h5.41l-10.92,13.74l6.56,13.44l-4.91,0.01l-2.59-5.54c-0.33-0.72-0.63-1.39-0.9-2.02
			c-0.2-0.46-0.53-1.25-0.98-2.36l-7.74,9.91H350.2L350.2,806.75z M383.61,806.75l-4.29-27.18h4.29l2.26,14.96
			c0.23,1.5,0.54,4.18,0.9,8.02c0.84-1.96,1.93-4.18,3.24-6.64l8.7-16.34h4.68l-14.89,27.18l-3.09,10.75l-4.49,0.11L383.61,806.75
			L383.61,806.75z M406.13,779.57h4.35l-0.93,4.55c-0.59,2.87-0.89,4.88-0.89,6.06c0,1.18,0.43,2.07,1.3,2.69
			c0.87,0.61,2.17,0.92,3.9,0.92c2.09,0,4.03-0.39,5.83-1.15l2.68-13.08h4.41l-5.53,27.18h-4.43l2.13-10.41
			c-2.21,0.76-4.26,1.14-6.18,1.14c-2.62,0-4.71-0.59-6.23-1.76c-1.53-1.18-2.29-2.85-2.29-5.01c0-0.91,0.39-3.43,1.18-7.55
			L406.13,779.57L406.13,779.57z M442.42,795.49l0.93-4.63h13.52l-0.9,4.63H442.42L442.42,795.49z M470.01,806.75l20.35-37.52h5.66
			l5.93,37.52h-4.67l-1.73-10.8h-14.52l-5.76,10.81L470.01,806.75L470.01,806.75z M483.07,792.09h11.88l-1.39-9.43
			c-0.32-2.27-0.56-4.01-0.7-5.21c-0.2-1.66-0.29-3.03-0.29-4.12c-0.84,2.2-2.03,4.75-3.58,7.65L483.07,792.09L483.07,792.09z
			 M511.67,779.57h6.59l2.45,21.68l12.08-21.68h6.46l-5.56,27.18h-4.39l4.53-21.91l-12.2,21.91h-3.94L515.12,784l-4.65,22.75h-4.39
			L511.67,779.57L511.67,779.57z M557.76,779.57h4.31l-2.42,11.61l0.34,0.04c0.94,0,1.82-0.41,2.67-1.24
			c0.84-0.83,1.91-2.37,3.23-4.62c1.42-2.44,2.71-4.01,3.87-4.72c1.16-0.71,2.36-1.07,3.6-1.07c0.86,0,1.77,0.16,2.74,0.46l-1,2.76
			c-0.59-0.24-1.08-0.36-1.47-0.36c-0.74,0-1.38,0.26-1.94,0.8c-0.55,0.53-1.26,1.63-2.12,3.27c-1.8,3.38-3.82,5.46-6.06,6.25
			c0.79,0.29,1.52,0.76,2.22,1.41c0.7,0.65,1.42,1.95,2.17,3.91l3.26,8.67h-4.57l-2.57-6.91c-0.78-2.15-1.5-3.6-2.15-4.36
			c-0.65-0.76-1.57-1.24-2.77-1.45l-2.65,12.72h-4.36l2.62-12.72c-0.45,0-0.88,0.07-1.27,0.2c-0.39,0.14-0.81,0.35-1.25,0.65
			c-0.79,0.52-2.12,2.05-3.96,4.58l-5.38,7.29l-5.38,0.01l6.88-9.06c2.01-2.65,4.16-4.29,6.46-4.94c-0.99-0.66-1.73-1.43-2.2-2.33
			c-0.48-0.91-0.94-2.57-1.37-4.99c-0.2-1.18-0.44-1.97-0.73-2.38c-0.28-0.41-0.7-0.61-1.26-0.61c-0.41,0-1.04,0.12-1.88,0.36
			l0.29-2.95c0.36-0.09,0.74-0.15,1.14-0.2c0.39-0.05,0.79-0.08,1.16-0.08c1.55,0,2.65,0.45,3.32,1.36c0.67,0.83,1.25,2.4,1.72,4.7
			c0.49,2.3,1,3.8,1.56,4.52c0.57,0.71,1.46,1.06,2.7,1.06L557.76,779.57L557.76,779.57z M592.79,801.83
			c-3.12,3.69-6.28,5.53-9.48,5.53c-1.96,0-3.58-0.58-4.87-1.73c-1.29-1.15-1.93-2.62-1.93-4.41c0-1.23,0.28-3.21,0.83-5.97
			l3.14-15.68h4.44l-3.48,17.38c-0.29,1.43-0.44,2.58-0.44,3.42c0,1.04,0.29,1.84,0.88,2.4c0.61,0.53,1.48,0.8,2.63,0.8
			c1.7,0,3.31-0.57,4.84-1.71c1.52-1.14,2.64-2.51,3.36-4.1c0.67-1.51,1.3-3.66,1.86-6.45l2.35-11.74h4.43l-5.43,27.18h-4.09
			L592.79,801.83L592.79,801.83z M610.34,779.57h19.59l-5.54,27.18h-4.41l4.85-23.32h-10.93l-3.35,16.21
			c-0.57,2.78-1.34,4.72-2.3,5.82c-0.96,1.1-2.3,1.65-4,1.65c-0.52,0-1.09-0.03-1.7-0.08c-0.62-0.05-1.35-0.14-2.2-0.28l0.81-3.84
			l1.86,0.07c1.12,0,1.86-0.28,2.19-0.85c0.33-0.56,0.84-2.37,1.53-5.42L610.34,779.57L610.34,779.57z M631.18,806.75l5.43-27.18
			h4.44l-0.91,4.47c2.76-3.4,5.62-5.09,8.58-5.09c1.71,0,3.1,0.43,4.16,1.28c1.01,0.8,1.71,2.07,2.11,3.81
			c1.29-1.67,2.68-2.94,4.16-3.8c1.49-0.86,3.03-1.29,4.63-1.29c2.14,0,3.75,0.52,4.86,1.55c1.1,1.03,1.65,2.58,1.65,4.62
			c0,0.89-0.19,2.26-0.57,4.12l-3.51,17.51h-4.42l3.58-17.97c0.15-0.75,0.26-1.38,0.34-1.89c0.08-0.52,0.13-0.93,0.13-1.26
			c0-0.95-0.26-1.67-0.77-2.15c-0.52-0.48-1.29-0.72-2.31-0.72c-1.51,0-2.98,0.51-4.42,1.52c-1.44,1.02-2.49,2.23-3.16,3.63
			c-0.58,1.33-1.14,3.21-1.66,5.65l-2.66,13.18h-4.42l3.68-18.35c0.26-1.31,0.39-2.2,0.39-2.66c0-0.93-0.28-1.65-0.84-2.18
			c-0.55-0.53-1.24-0.8-2.03-0.8c-0.75,0-1.5,0.13-2.22,0.38c-0.73,0.25-1.47,0.65-2.22,1.21c-1.45,1.04-2.54,2.33-3.28,3.89
			c-0.67,1.45-1.25,3.34-1.74,5.65l-2.58,12.85H631.18L631.18,806.75z M704.22,779.57h4.48l-5.63,27.18h-4.46L704.22,779.57
			L704.22,779.57z M678.58,779.57h4.43l-2.22,10.51h4.73c3,0,5.14,0.23,6.43,0.69c1.28,0.46,2.29,1.3,3.04,2.52
			c0.75,1.22,1.13,2.58,1.13,4.08c0,0.91-0.13,1.78-0.37,2.64c-0.24,0.86-0.63,1.71-1.15,2.56c-0.98,1.64-2.21,2.74-3.69,3.32
			c-1.47,0.57-3.76,0.86-6.87,0.86h-11.07L678.58,779.57L678.58,779.57z M678.11,803.06h5.65c2.18,0,3.74-0.16,4.66-0.46
			c0.92-0.31,1.7-0.86,2.32-1.69c0.62-0.82,0.93-1.8,0.93-2.94c0-1.04-0.28-1.92-0.82-2.63c-0.55-0.71-1.18-1.14-1.9-1.29
			c-0.33-0.07-0.84-0.12-1.51-0.17c-0.68-0.05-1.47-0.08-2.39-0.08H680L678.11,803.06L678.11,803.06z M715.44,779.57h4.39
			l-2.35,11.33h12.08l2.29-11.33h4.33l-5.48,27.18h-4.41l2.52-12.16h-12.03l-2.52,12.16h-4.38L715.44,779.57L715.44,779.57z
			 M751.42,806.75l5.43-27.18h4.44l-0.91,4.47c2.76-3.4,5.62-5.09,8.58-5.09c1.71,0,3.1,0.43,4.16,1.28
			c1.01,0.8,1.71,2.07,2.11,3.81c1.29-1.67,2.68-2.94,4.16-3.8c1.49-0.86,3.03-1.29,4.63-1.29c2.14,0,3.75,0.52,4.86,1.55
			c1.1,1.03,1.65,2.58,1.65,4.62c0,0.89-0.19,2.26-0.57,4.12l-3.51,17.51h-4.42l3.58-17.97c0.15-0.75,0.26-1.38,0.34-1.89
			c0.08-0.52,0.13-0.93,0.13-1.26c0-0.95-0.26-1.67-0.77-2.15c-0.52-0.48-1.29-0.72-2.32-0.72c-1.51,0-2.98,0.51-4.42,1.52
			c-1.44,1.02-2.49,2.23-3.16,3.63c-0.58,1.33-1.14,3.21-1.66,5.65l-2.66,13.18h-4.42l3.68-18.35c0.26-1.31,0.39-2.2,0.39-2.66
			c0-0.93-0.29-1.65-0.84-2.18c-0.55-0.53-1.24-0.8-2.03-0.8c-0.75,0-1.5,0.13-2.22,0.38c-0.73,0.25-1.47,0.65-2.22,1.21
			c-1.45,1.04-2.54,2.33-3.28,3.89c-0.67,1.45-1.25,3.34-1.74,5.65l-2.58,12.85H751.42L751.42,806.75z M799.83,806.75l-4.29-27.18
			h4.29l2.26,14.96c0.23,1.5,0.54,4.18,0.9,8.02c0.84-1.96,1.93-4.18,3.24-6.64l8.7-16.34h4.68l-14.89,27.18l-3.08,10.75l-4.49,0.11
			L799.83,806.75L799.83,806.75z M825.75,779.57h19.59l-5.53,27.18h-4.41l4.85-23.32h-10.93l-3.35,16.21
			c-0.57,2.78-1.34,4.72-2.3,5.82c-0.96,1.1-2.3,1.65-4,1.65c-0.52,0-1.09-0.03-1.7-0.08c-0.62-0.05-1.35-0.14-2.2-0.28l0.81-3.84
			l1.86,0.07c1.12,0,1.86-0.28,2.19-0.85c0.33-0.56,0.84-2.37,1.53-5.42L825.75,779.57L825.75,779.57z M844.87,806.75l11.32-13.79
			l-6.5-13.38h4.9l2.21,4.83c0.95,2.15,1.68,3.89,2.2,5.2l7.5-10.03h5.41l-10.92,13.74l6.56,13.44l-4.91,0.01l-2.59-5.54
			c-0.33-0.72-0.63-1.39-0.9-2.02c-0.2-0.46-0.53-1.25-0.98-2.36l-7.74,9.91H844.87L844.87,806.75z M878.28,806.75l-4.29-27.18h4.29
			l2.26,14.96c0.23,1.5,0.54,4.18,0.9,8.02c0.84-1.96,1.93-4.18,3.25-6.64l8.7-16.34h4.68l-14.89,27.18l-3.08,10.75l-4.49,0.11
			L878.28,806.75L878.28,806.75z M903.37,806.75l-4.29-27.18h4.29l2.26,14.96c0.24,1.5,0.54,4.18,0.9,8.02
			c0.85-1.96,1.93-4.18,3.24-6.64l8.7-16.34h4.68l-14.89,27.18l-3.09,10.75l-4.49,0.11L903.37,806.75L903.37,806.75z M919.78,817.16
			l7.52-37.59h4.1l-0.76,3.78c2.61-2.93,5.25-4.4,7.91-4.4c2.45,0,4.49,0.95,6.14,2.86c1.64,1.9,2.46,4.6,2.46,8.1
			c0,4.78-1.28,8.88-3.85,12.31c-2.57,3.43-5.53,5.15-8.91,5.15c-3.09,0-5.5-1.65-7.23-4.96l-2.93,14.76H919.78L919.78,817.16z
			 M928.5,796.55c0,2.34,0.55,4.1,1.66,5.26c1.11,1.17,2.47,1.76,4.06,1.76c2.57,0,4.62-1.53,6.18-4.58
			c1.55-3.06,2.32-6.13,2.32-9.24c0-1.84-0.47-3.48-1.4-4.91c-0.93-1.43-2.29-2.15-4.09-2.15c-2.5,0-4.58,1.47-6.25,4.41
			C929.34,790.05,928.5,793.2,928.5,796.55L928.5,796.55z"/>
	</g>
	<g>
		
			<linearGradient id="SVGID_00000120555426182916733580000014935971309087869840_" gradientUnits="userSpaceOnUse" x1="242.1502" y1="562.8904" x2="242.1502" y2="755.5272">
			<stop  offset="0" style="stop-color:#3E76BB"/>
			<stop  offset="0.9672" style="stop-color:#06509E"/>
		</linearGradient>
		<path style="fill:url(#SVGID_00000120555426182916733580000014935971309087869840_);" d="M267.01,570.5
			c1.23,0,2.43-0.25,3.59-0.75c1.15-0.5,1.89-1.22,2.19-2.14h2.66l-4.63,17.69c-0.77,2.47-3.05,3.7-6.82,3.7h-6.82l-12.95,55.04
			c-0.15,0.77,0.2,1.56,1.04,2.37c0.85,0.81,1.69,1.21,2.54,1.21l-0.81,2.66h-32.14c-2.47,0-3.7-1.23-3.7-3.7
			c0-0.31,0.08-0.93,0.23-1.85L224.46,589h-7.98c-1.23,0-2.25,0.29-3.06,0.87c-0.81,0.58-1.37,1.33-1.68,2.26h-2.89l4.63-18.5
			c0.31-1.08,0.93-1.87,1.85-2.37c0.93-0.5,2.39-0.75,4.4-0.75H267.01z"/>
		
			<linearGradient id="SVGID_00000057122548584162711720000001867591810139145133_" gradientUnits="userSpaceOnUse" x1="285.6115" y1="562.8904" x2="285.6115" y2="755.5272">
			<stop  offset="0" style="stop-color:#3E76BB"/>
			<stop  offset="0.9672" style="stop-color:#06509E"/>
		</linearGradient>
		<path style="fill:url(#SVGID_00000057122548584162711720000001867591810139145133_);" d="M296.83,650.29
			c-2.01,0-3.49-0.33-4.45-0.98c-0.96-0.65-1.52-1.79-1.67-3.41l-1.04-11.8h-13.42l-4.74,9.48c-0.08,0.23-0.11,0.43-0.11,0.58
			c0,0.15-0.04,0.46-0.11,0.93c0,0.69,0.33,1.29,0.98,1.79c0.65,0.5,1.41,0.75,2.26,0.75l-0.58,2.66h-25.1
			c-3.24,0-4.85-1.27-4.85-3.82c0-0.7,0.19-1.43,0.58-2.2l34-65.91c0.23-0.47,0.34-1.04,0.34-1.74c0-0.85-0.36-1.64-1.1-2.37
			c-0.73-0.73-1.52-1.1-2.37-1.1l0.69-2.66h34.46c1.77,0,3.27,0.48,4.51,1.45c1.24,0.96,1.85,2.33,1.85,4.1l5.32,67.53
			c0,1,0.54,1.93,1.62,2.78c1.08,0.85,2.19,1.27,3.35,1.27l-0.58,2.66H296.83z M283.07,618.6h6.59l-0.93-12.95L283.07,618.6z"/>
		
			<linearGradient id="SVGID_00000040546861159845556390000012890072947466900891_" gradientUnits="userSpaceOnUse" x1="365.9978" y1="562.8904" x2="365.9978" y2="755.5272">
			<stop  offset="0" style="stop-color:#3E76BB"/>
			<stop  offset="0.9672" style="stop-color:#06509E"/>
		</linearGradient>
		<path style="fill:url(#SVGID_00000040546861159845556390000012890072947466900891_);" d="M391.38,570.38
			c5.17,0,9.15,1.35,11.97,4.05c2.81,2.7,4.22,6.09,4.22,10.18c0,0.62-0.06,1.31-0.18,2.08c-0.11,0.77-0.21,1.35-0.29,1.73
			c-1.77,8.48-5.4,13.61-10.87,15.38c2.24,1.39,3.88,2.91,4.92,4.57c1.04,1.66,1.56,4.11,1.56,7.34c0,2.93-0.58,7.02-1.73,12.26
			c-2.01,8.71-5.09,14.68-9.25,17.92c-3.78,2.93-9.6,4.39-17.46,4.39h-45.91c-1.31,0-2.29-0.36-2.95-1.1
			c-0.65-0.73-0.98-1.72-0.98-2.95c0-0.46,0.08-1.08,0.23-1.85l15.73-67.64c0.16-0.85-0.15-1.66-0.93-2.43
			c-0.77-0.77-1.62-1.16-2.54-1.16l0.69-2.66L391.38,570.38z M364.21,632.36c2.08,0,3.53-0.48,4.33-1.45
			c0.81-0.96,1.6-3.14,2.37-6.53c0.54-2.16,0.81-3.93,0.81-5.32c0-2.62-1.42-3.93-4.28-3.93h-3.24l-3.93,17.23H364.21z
			 M372.42,599.76c1.31,0,2.24-0.37,2.78-1.1c0.54-0.73,1.04-2.06,1.5-3.99c0.46-1.93,0.69-3.32,0.69-4.16
			c0-2.01-1.12-3.01-3.35-3.01h-3.47l-2.78,12.26H372.42z"/>
		
			<linearGradient id="SVGID_00000038398372944496153290000014205067894390594485_" gradientUnits="userSpaceOnUse" x1="437.9471" y1="562.8904" x2="437.9471" y2="755.5272">
			<stop  offset="0" style="stop-color:#3E76BB"/>
			<stop  offset="0.9672" style="stop-color:#06509E"/>
		</linearGradient>
		<path style="fill:url(#SVGID_00000038398372944496153290000014205067894390594485_);" d="M449.16,650.29
			c-2.01,0-3.49-0.33-4.45-0.98c-0.96-0.65-1.52-1.79-1.67-3.41l-1.04-11.8h-13.41l-4.74,9.48c-0.08,0.23-0.11,0.43-0.11,0.58
			c0,0.15-0.04,0.46-0.11,0.93c0,0.69,0.33,1.29,0.98,1.79c0.65,0.5,1.41,0.75,2.26,0.75l-0.58,2.66h-25.09
			c-3.24,0-4.85-1.27-4.85-3.82c0-0.7,0.19-1.43,0.58-2.2l33.99-65.91c0.23-0.47,0.35-1.04,0.35-1.74c0-0.85-0.36-1.64-1.1-2.37
			c-0.73-0.73-1.52-1.1-2.37-1.1l0.69-2.66h34.46c1.77,0,3.27,0.48,4.51,1.45c1.23,0.96,1.85,2.33,1.85,4.1l5.32,67.53
			c0,1,0.54,1.93,1.62,2.78c1.08,0.85,2.2,1.27,3.36,1.27l-0.58,2.66H449.16z M435.4,618.6h6.59l-0.93-12.95L435.4,618.6z"/>
		
			<linearGradient id="SVGID_00000157993180964087990750000008553752738580694177_" gradientUnits="userSpaceOnUse" x1="522.4372" y1="562.8904" x2="522.4372" y2="755.5272">
			<stop  offset="0" style="stop-color:#3E76BB"/>
			<stop  offset="0.9672" style="stop-color:#06509E"/>
		</linearGradient>
		<path style="fill:url(#SVGID_00000157993180964087990750000008553752738580694177_);" d="M517.23,615.13l-6.59,28.44l-0.11,0.93
			c0,0.85,0.38,1.58,1.15,2.2c0.77,0.62,1.58,0.93,2.43,0.93l-0.58,2.66h-32.26c-2.55,0-3.82-1.23-3.82-3.7
			c0-0.38,0.08-1.04,0.23-1.96l15.84-67.88c0.16-0.77-0.19-1.56-1.04-2.37c-0.85-0.81-1.69-1.22-2.54-1.22l0.81-2.66h32.15
			c2.46,0,3.7,1.24,3.7,3.7c0,0.31-0.08,0.93-0.23,1.85l-5.55,23.71h8.21l5.32-23.01c0.15-0.77-0.16-1.56-0.93-2.37
			c-0.77-0.81-1.58-1.22-2.43-1.22l0.58-2.66h32.14c1.31,0,2.26,0.33,2.83,0.99s0.87,1.6,0.87,2.83l-0.23,1.73l-15.73,68
			c-0.15,0.77,0.2,1.56,1.04,2.37c0.85,0.81,1.69,1.21,2.54,1.21l-0.81,2.66h-32.14c-2.47,0-3.7-1.23-3.7-3.7
			c0-0.31,0.08-0.93,0.23-1.85l6.82-29.6H517.23z"/>
		
			<linearGradient id="SVGID_00000102503330729688766210000017020116287990207635_" gradientUnits="userSpaceOnUse" x1="638.8877" y1="562.8904" x2="638.8877" y2="755.5272">
			<stop  offset="0" style="stop-color:#3E76BB"/>
			<stop  offset="0.9672" style="stop-color:#06509E"/>
		</linearGradient>
		<path style="fill:url(#SVGID_00000102503330729688766210000017020116287990207635_);" d="M657.79,597.33
			c5.78,0,10.33,1.58,13.65,4.74c3.32,3.16,4.97,7.71,4.97,13.64c0,3.16-0.46,6.63-1.38,10.41c-0.93,3.78-2.05,7.28-3.36,10.52
			c-2.16,5.4-5.03,9.02-8.62,10.87c-3.59,1.85-8.8,2.78-15.67,2.78h-46.83c-1.31,0-2.29-0.36-2.95-1.1
			c-0.65-0.73-0.98-1.72-0.98-2.95c0-0.46,0.07-1.08,0.23-1.85l15.73-67.64c0.16-0.85-0.16-1.66-0.93-2.43
			c-0.77-0.77-1.62-1.16-2.55-1.16l0.7-2.66h71.34l-3.23,12.72c-0.38,1.54-1.47,2.8-3.24,3.76c-1.77,0.97-3.54,1.45-5.31,1.45
			h-26.83l-2.09,8.9H657.79z M632.59,631.79h3.82c1.85,0,3.18-0.58,3.99-1.74c0.81-1.15,1.67-3.54,2.6-7.17
			c0.47-2.01,0.7-3.66,0.7-4.97c0-2.54-1.2-3.82-3.59-3.82h-3.47L632.59,631.79z"/>
		
			<linearGradient id="SVGID_00000119822668279167939170000015494562406243940228_" gradientUnits="userSpaceOnUse" x1="715.0555" y1="562.8904" x2="715.0555" y2="755.5272">
			<stop  offset="0" style="stop-color:#3E76BB"/>
			<stop  offset="0.9672" style="stop-color:#06509E"/>
		</linearGradient>
		<path style="fill:url(#SVGID_00000119822668279167939170000015494562406243940228_);" d="M732.22,570.5
			c6.79,0,12.38,1.76,16.77,5.26c4.39,3.51,6.59,8.46,6.59,14.86c0,2.31-0.27,4.55-0.81,6.71l-6.94,29.37
			c-2,8.71-5.47,14.92-10.41,18.62c-4.31,3.32-10.25,4.97-17.81,4.97h-23.71c-7.25,0-12.62-1.64-16.13-4.92
			c-3.5-3.27-5.26-8.11-5.26-14.51c0-3.78,0.5-7.71,1.51-11.79l5.08-21.86c2.01-8.4,4.9-14.69,8.68-18.85
			c4.85-5.24,11.67-7.87,20.47-7.87H732.22z M707.25,625.54c-0.23,1.08-0.34,2-0.34,2.78c0,1.92,1.08,2.89,3.24,2.89
			c1.47,0,2.56-0.33,3.3-0.98c0.73-0.65,1.29-1.83,1.67-3.53l7.63-32.49c0.16-0.93,0.23-1.54,0.23-1.85c0-2.24-1.11-3.36-3.35-3.36
			c-2.46,0-4.13,1.54-4.98,4.63L707.25,625.54z"/>
		
			<linearGradient id="SVGID_00000036967489143864924860000012830432337552398466_" gradientUnits="userSpaceOnUse" x1="787.0049" y1="562.8904" x2="787.0049" y2="755.5272">
			<stop  offset="0" style="stop-color:#3E76BB"/>
			<stop  offset="0.9672" style="stop-color:#06509E"/>
		</linearGradient>
		<path style="fill:url(#SVGID_00000036967489143864924860000012830432337552398466_);" d="M784.69,641.5
			c-0.23,0.85-0.34,1.69-0.34,2.55c0,0.93,0.45,1.75,1.33,2.48c0.88,0.73,1.79,1.1,2.71,1.1l-0.57,2.66h-32.84
			c-1.31,0-2.29-0.36-2.94-1.1c-0.65-0.73-0.99-1.72-0.99-2.95c0-0.46,0.07-1.08,0.23-1.85L767,576.74
			c0.16-0.85-0.16-1.66-0.93-2.43c-0.77-0.77-1.62-1.16-2.55-1.16l0.7-2.66h58.75l-3.01,12.95c-0.38,1.7-1.25,3.05-2.6,4.05
			c-1.35,1-2.91,1.5-4.68,1.5h-15.96L784.69,641.5z"/>
		
			<linearGradient id="SVGID_00000106114497649268222420000002075998436617747851_" gradientUnits="userSpaceOnUse" x1="833.9267" y1="562.8904" x2="833.9267" y2="755.5272">
			<stop  offset="0" style="stop-color:#3E76BB"/>
			<stop  offset="0.9672" style="stop-color:#06509E"/>
		</linearGradient>
		<path style="fill:url(#SVGID_00000106114497649268222420000002075998436617747851_);" d="M867,628.2
			c0.38,2.39,1.47,3.59,3.23,3.59h2.89l-3,13.18c-0.54,2.24-1.62,3.74-3.23,4.51c-1.24,0.54-3.28,0.81-6.13,0.81h-61.28
			c-3.16,0-4.74-1.27-4.74-3.82l0.23-1.85l2.89-12.84h3.12c1.08,0,2.03-0.33,2.84-0.98s1.4-1.45,1.79-2.37l23.36-49.95l0.23-2.08
			c0-0.93-0.31-1.69-0.93-2.31c-0.61-0.61-1.39-0.93-2.32-0.93l0.58-2.66h27.98c1.62,0,2.99,0.45,4.11,1.33
			c1.12,0.89,1.76,1.99,1.91,3.3L867,628.2z M835.66,617.22L830,631.79h6.59L835.66,617.22z"/>
	</g>
	<g>
		
			<linearGradient id="SVGID_00000170973912074779030590000001707767747515457450_" gradientUnits="userSpaceOnUse" x1="113.3861" y1="562.8904" x2="113.3861" y2="755.5272">
			<stop  offset="0" style="stop-color:#3E76BB"/>
			<stop  offset="0.9672" style="stop-color:#06509E"/>
		</linearGradient>
		<path style="fill:url(#SVGID_00000170973912074779030590000001707767747515457450_);" d="M145.53,732.09
			c0.37,2.32,1.42,3.48,3.14,3.48h2.81l-2.92,12.81c-0.53,2.17-1.57,3.64-3.15,4.38c-1.2,0.52-3.18,0.79-5.95,0.79H79.9
			c-3.07,0-4.61-1.23-4.61-3.71l0.23-1.8l2.81-12.47h3.03c1.05,0,1.97-0.32,2.75-0.96c0.79-0.64,1.37-1.4,1.74-2.3l22.7-48.54
			l0.23-2.02c0-0.9-0.3-1.65-0.9-2.25c-0.6-0.6-1.35-0.9-2.25-0.9l0.56-2.58h27.19c1.57,0,2.9,0.43,3.99,1.29
			c1.09,0.86,1.7,1.93,1.85,3.2L145.53,732.09z M115.07,721.41l-5.51,14.16h6.4L115.07,721.41z"/>
		
			<linearGradient id="SVGID_00000060747515660996125660000012701473591984166808_" gradientUnits="userSpaceOnUse" x1="198.3504" y1="562.8904" x2="198.3504" y2="755.5272">
			<stop  offset="0" style="stop-color:#3E76BB"/>
			<stop  offset="0.9672" style="stop-color:#06509E"/>
		</linearGradient>
		<path style="fill:url(#SVGID_00000060747515660996125660000012701473591984166808_);" d="M187.39,743.33
			c-0.9,1.19-1.46,1.98-1.68,2.36c-0.45,0.75-0.68,1.5-0.68,2.25c0,0.82,0.37,1.54,1.12,2.13c0.75,0.6,1.54,0.9,2.36,0.9l-0.56,2.59
			h-31.35c-2.47,0-3.71-1.2-3.71-3.6c0-0.37,0.08-1.01,0.23-1.91l15.39-65.96c0.15-0.75-0.19-1.52-1.01-2.31
			c-0.82-0.78-1.65-1.17-2.47-1.17l0.78-2.59h31.24c2.4,0,3.6,1.19,3.6,3.6c0,0.3-0.08,0.9-0.23,1.8l-6.74,28.99l14.72-22.25
			c0.68-0.97,1.31-1.91,1.91-2.81c0.6-0.9,1.05-1.98,1.35-3.25c0.15-0.75-0.15-1.52-0.9-2.31c-0.75-0.78-1.54-1.17-2.36-1.17
			l0.56-2.59h31.24c1.27,0,2.19,0.32,2.75,0.95s0.84,1.56,0.84,2.76l-0.23,1.69l-15.28,66.07c-0.15,0.75,0.19,1.52,1.01,2.3
			c0.83,0.79,1.65,1.18,2.47,1.18l-0.79,2.59h-31.24c-2.4,0-3.6-1.2-3.6-3.6c0-0.3,0.08-0.9,0.22-1.8l6.63-28.66L187.39,743.33z"/>
		
			<linearGradient id="SVGID_00000163775654121749825170000008114692879454788515_" gradientUnits="userSpaceOnUse" x1="489.9175" y1="562.8904" x2="489.9175" y2="755.5272">
			<stop  offset="0" style="stop-color:#3E76BB"/>
			<stop  offset="0.9672" style="stop-color:#06509E"/>
		</linearGradient>
		<path style="fill:url(#SVGID_00000163775654121749825170000008114692879454788515_);" d="M478.96,743.33
			c-0.9,1.19-1.46,1.98-1.68,2.36c-0.45,0.75-0.68,1.5-0.68,2.25c0,0.82,0.37,1.54,1.12,2.13c0.75,0.6,1.54,0.9,2.36,0.9l-0.56,2.59
			h-31.35c-2.47,0-3.71-1.2-3.71-3.6c0-0.37,0.08-1.01,0.23-1.91l15.39-65.96c0.15-0.75-0.19-1.52-1.01-2.31
			c-0.82-0.78-1.65-1.17-2.47-1.17l0.78-2.59h31.24c2.4,0,3.6,1.19,3.6,3.6c0,0.3-0.08,0.9-0.23,1.8l-6.74,28.99l14.72-22.25
			c0.68-0.97,1.31-1.91,1.91-2.81c0.6-0.9,1.05-1.98,1.35-3.25c0.15-0.75-0.15-1.52-0.9-2.31c-0.75-0.78-1.54-1.17-2.36-1.17
			l0.56-2.59h31.24c1.27,0,2.19,0.32,2.75,0.95s0.84,1.56,0.84,2.76l-0.23,1.69l-15.28,66.07c-0.15,0.75,0.19,1.52,1.01,2.3
			c0.83,0.79,1.65,1.18,2.47,1.18l-0.79,2.59h-31.24c-2.4,0-3.6-1.2-3.6-3.6c0-0.3,0.08-0.9,0.22-1.8l6.63-28.66L478.96,743.33z"/>
		
			<linearGradient id="SVGID_00000114039184695977837620000001560802889325076115_" gradientUnits="userSpaceOnUse" x1="340.6253" y1="562.8904" x2="340.6253" y2="755.5272">
			<stop  offset="0" style="stop-color:#3E76BB"/>
			<stop  offset="0.9672" style="stop-color:#06509E"/>
		</linearGradient>
		<path style="fill:url(#SVGID_00000114039184695977837620000001560802889325076115_);" d="M364.84,675.85
			c1.2,0,2.36-0.24,3.49-0.73c1.12-0.49,1.84-1.18,2.14-2.08h2.59l-4.5,17.23c-0.75,2.4-2.97,3.6-6.64,3.6h-6.64l-12.61,53.6
			c-0.15,0.75,0.19,1.52,1.02,2.31c0.83,0.79,1.65,1.18,2.48,1.18l-0.79,2.59h-31.3c-2.4,0-3.6-1.2-3.6-3.6c0-0.3,0.08-0.9,0.23-1.8
			l12.72-54.28h-7.77c-1.2,0-2.19,0.28-2.98,0.84c-0.79,0.57-1.33,1.3-1.63,2.2h-2.81l4.5-18.02c0.3-1.05,0.9-1.82,1.8-2.31
			c0.9-0.49,2.33-0.73,4.28-0.73H364.84z"/>
		
			<linearGradient id="SVGID_00000182516007199871042180000001253110212142690952_" gradientUnits="userSpaceOnUse" x1="273.0857" y1="562.8904" x2="273.0857" y2="755.5272">
			<stop  offset="0" style="stop-color:#3E76BB"/>
			<stop  offset="0.9672" style="stop-color:#06509E"/>
		</linearGradient>
		<path style="fill:url(#SVGID_00000182516007199871042180000001253110212142690952_);" d="M291.15,735.67
			c1.14,0,2.33-0.28,3.58-0.85c1.25-0.57,1.99-1.27,2.22-2.1h2.61l-3.3,14.31c-0.53,2.5-1.55,4.28-3.07,5.34
			c-1.89,1.37-4.81,2.04-8.75,2.04h-25.57c-7.65,0-13.14-1.47-16.48-4.43c-2.95-2.65-4.43-6.67-4.43-12.05
			c0-3.48,0.61-7.72,1.82-12.73l6.25-27.38c1.59-7.12,4.66-12.62,9.2-16.48c4.17-3.56,8.94-5.34,14.32-5.34h38.63
			c-0.23,1.37-0.6,3.27-1.14,5.74c-0.53,2.46-0.98,4.38-1.36,5.74c-0.61,2.35-1.37,3.97-2.27,4.88c-1.21,1.21-3.18,1.82-5.91,1.82
			h-11.7c-2.73,0-4.7,0.64-5.91,1.93c-1.21,1.29-2.08,3.22-2.61,5.8l-6.25,26.93c-0.23,0.84-0.34,1.59-0.34,2.28
			c0,3.03,1.93,4.54,5.8,4.54H291.15z"/>
		
			<linearGradient id="SVGID_00000170959787473688443150000013330425312575998123_" gradientUnits="userSpaceOnUse" x1="406.7813" y1="562.8904" x2="406.7813" y2="755.5272">
			<stop  offset="0" style="stop-color:#3E76BB"/>
			<stop  offset="0.9672" style="stop-color:#06509E"/>
		</linearGradient>
		<path style="fill:url(#SVGID_00000170959787473688443150000013330425312575998123_);" d="M427.79,676.02
			c6.89,0,12.1,1.38,15.62,4.15c3.52,2.78,5.28,7.16,5.28,13.15c0,1.65-0.08,3.15-0.23,4.49c-0.15,1.35-0.49,3.03-1.01,5.06
			c-2.4,10.33-5.1,17.17-8.09,20.51c-3,3.33-7.9,5-14.72,5H401.5l-4.16,17.64l-0.34,2.13c0,0.83,0.34,1.5,1.01,2.02
			c0.67,0.52,1.46,0.79,2.36,0.79l-0.68,2.59h-31.01c-1.28,0-2.23-0.35-2.87-1.07c-0.64-0.71-0.95-1.67-0.95-2.86
			c0-0.45,0.08-1.05,0.23-1.8l15.28-65.74c0.15-0.83-0.15-1.61-0.9-2.36c-0.75-0.75-1.57-1.12-2.47-1.12l0.68-2.59H427.79z
			 M405.77,710.4h3.48c1.87,0,3.26-0.58,4.16-1.74c0.9-1.16,1.72-3.39,2.47-6.69c0.45-1.95,0.68-3.48,0.68-4.61
			c0-1.5-0.32-2.53-0.95-3.08c-0.64-0.56-1.59-0.85-2.86-0.85h-3.03L405.77,710.4z"/>
		
			<linearGradient id="SVGID_00000067942650879384630530000014549060125286607766_" gradientUnits="userSpaceOnUse" x1="570.4586" y1="562.8904" x2="570.4586" y2="755.5272">
			<stop  offset="0" style="stop-color:#3E76BB"/>
			<stop  offset="0.9672" style="stop-color:#06509E"/>
		</linearGradient>
		<path style="fill:url(#SVGID_00000067942650879384630530000014549060125286607766_);" d="M588.83,702.09
			c5.62,0,10.04,1.54,13.26,4.61c3.22,3.07,4.83,7.49,4.83,13.26c0,3.07-0.45,6.44-1.35,10.11c-0.9,3.67-1.99,7.08-3.26,10.23
			c-2.1,5.24-4.89,8.76-8.37,10.56c-3.48,1.8-8.56,2.7-15.22,2.7h-45.51c-1.27,0-2.23-0.35-2.86-1.07s-0.95-1.67-0.95-2.87
			c0-0.45,0.07-1.05,0.22-1.8l15.28-65.73c0.15-0.82-0.15-1.61-0.9-2.36c-0.75-0.75-1.57-1.13-2.47-1.13l0.68-2.59h69.33
			l-3.14,12.36c-0.37,1.5-1.42,2.72-3.15,3.65c-1.72,0.94-3.44,1.4-5.16,1.4H574l-2.03,8.65H588.83z M564.34,735.57h3.71
			c1.79,0,3.09-0.56,3.87-1.69c0.79-1.12,1.63-3.44,2.53-6.97c0.45-1.95,0.68-3.56,0.68-4.83c0-2.47-1.16-3.71-3.48-3.71h-3.37
			L564.34,735.57z"/>
		
			<linearGradient id="SVGID_00000102527201784219155320000005670684112770484150_" gradientUnits="userSpaceOnUse" x1="643.832" y1="562.8904" x2="643.832" y2="755.5272">
			<stop  offset="0" style="stop-color:#3E76BB"/>
			<stop  offset="0.9672" style="stop-color:#06509E"/>
		</linearGradient>
		<path style="fill:url(#SVGID_00000102527201784219155320000005670684112770484150_);" d="M677.76,706.7
			c-3.21-3.07-7.63-4.63-13.25-4.63h-16.85l2.01-8.65l2.99-13.65c0.42-1.94-1.05-3.77-3.03-3.77h-31.75l-0.67,2.58
			c0.88,0,1.73,0.39,2.47,1.13c0.74,0.78,1.02,1.55,0.88,2.37l-15.26,65.74c-0.18,0.74-0.25,1.34-0.25,1.8
			c0,1.2,0.32,2.15,0.95,2.86c0.64,0.71,1.59,1.06,2.86,1.06h45.53c6.64,0,11.73-0.88,15.23-2.68c3.46-1.8,6.25-5.33,8.37-10.56
			c1.27-3.14,2.33-6.57,3.25-10.24c0.88-3.67,1.34-7.03,1.34-10.1C682.6,714.19,680.98,709.78,677.76,706.7z M650.14,726.91
			c-0.92,3.53-1.77,5.86-2.54,6.99c-0.78,1.1-2.08,1.66-3.89,1.66H640l3.96-17.17h3.36c2.33,0,3.5,1.24,3.5,3.71
			C650.81,723.38,650.56,724.97,650.14,726.91z"/>
		
			<linearGradient id="SVGID_00000109006373376167044620000002333609391782194865_" gradientUnits="userSpaceOnUse" x1="744.4379" y1="562.8904" x2="744.4379" y2="755.5272">
			<stop  offset="0" style="stop-color:#3E76BB"/>
			<stop  offset="0.9672" style="stop-color:#06509E"/>
		</linearGradient>
		<path style="fill:url(#SVGID_00000109006373376167044620000002333609391782194865_);" d="M797.54,681.12
			c-4.3-3.43-9.67-5.11-16.33-5.11h-21.3c-8.53,0-15.18,2.55-19.89,7.66c-3.7,4.03-6.52,10.14-8.46,18.27l-0.6,2.49h-3.9l5.44-23.04
			c0.13-0.87,0.2-1.48,0.2-1.81c0-2.35-1.21-3.56-3.63-3.56h-31.24l-0.74,2.55c0.81,0,1.61,0.4,2.49,1.21
			c0.81,0.81,1.14,1.54,1.01,2.28l-15.38,65.97c-0.2,0.87-0.27,1.55-0.27,1.88c0,2.42,1.28,3.63,3.69,3.63h31.37l0.54-2.62
			c-0.81,0-1.61-0.27-2.35-0.87c-0.74-0.6-1.14-1.34-1.14-2.15l0.13-0.87l6.38-27.68h3.96l-0.87,3.83
			c-1.01,3.96-1.48,7.79-1.48,11.49c0,6.18,1.68,10.88,5.11,14.11c3.43,3.16,8.6,4.77,15.65,4.77h23.04c7.32,0,13.1-1.61,17.33-4.84
			c4.77-3.63,8.13-9.61,10.08-18.07l6.79-28.55c0.47-2.08,0.74-4.3,0.74-6.52C803.93,689.32,801.78,684.55,797.54,681.12z
			 M772.02,699.06l-7.39,31.58c-0.4,1.61-0.94,2.75-1.61,3.43c-0.74,0.6-1.81,0.94-3.22,0.94c-2.08,0-3.16-0.94-3.16-2.82
			c0-0.74,0.13-1.68,0.34-2.69l7.19-31.04c0.81-2.96,2.42-4.5,4.84-4.5c2.15,0,3.29,1.14,3.29,3.29
			C772.28,697.52,772.15,698.12,772.02,699.06z"/>
		
			<linearGradient id="SVGID_00000039819118475202803190000000800171445409889927_" gradientUnits="userSpaceOnUse" x1="861.668" y1="562.8904" x2="861.668" y2="755.5272">
			<stop  offset="0" style="stop-color:#3E76BB"/>
			<stop  offset="0.9672" style="stop-color:#06509E"/>
		</linearGradient>
		<path style="fill:url(#SVGID_00000039819118475202803190000000800171445409889927_);" d="M798.02,749.95c0-0.3,0.07-0.9,0.22-1.8
			l15.28-66.06c0.15-0.75-0.15-1.52-0.9-2.31c-0.75-0.78-1.54-1.17-2.36-1.17l0.56-2.59h31.24c1.27,0,2.19,0.31,2.75,0.95
			c0.56,0.64,0.85,1.55,0.85,2.76l-0.23,1.69l-12.47,54.16h7.86l12.47-53.48c0.15-0.75-0.15-1.52-0.9-2.31
			c-0.75-0.78-1.54-1.17-2.36-1.17l0.56-2.59h31.24c1.27,0,2.19,0.31,2.76,0.95c0.56,0.64,0.84,1.55,0.84,2.76l-0.22,1.69
			l-12.47,54.16h7.87l12.58-53.48c0.14-0.75-0.15-1.52-0.9-2.31c-0.75-0.78-1.54-1.17-2.36-1.17l0.56-2.59h31.23
			c1.27,0,2.19,0.31,2.76,0.95c0.56,0.64,0.84,1.55,0.84,2.76l-0.22,1.69l-15.06,64.61l-0.33,2.13c0,0.83,0.33,1.5,1.01,2.02
			c0.68,0.52,1.46,0.79,2.36,0.79l-0.68,2.59H801.61C799.21,753.54,798.02,752.34,798.02,749.95z"/>
		
			<linearGradient id="SVGID_00000016047002746116319210000001594758718521594013_" gradientUnits="userSpaceOnUse" x1="960.9973" y1="562.8904" x2="960.9973" y2="755.5272">
			<stop  offset="0" style="stop-color:#3E76BB"/>
			<stop  offset="0.9672" style="stop-color:#06509E"/>
		</linearGradient>
		<path style="fill:url(#SVGID_00000016047002746116319210000001594758718521594013_);" d="M955.94,719.39l-6.4,27.64l-0.11,0.9
			c0,0.82,0.37,1.54,1.12,2.13c0.75,0.6,1.54,0.9,2.36,0.9l-0.56,2.59H921c-2.47,0-3.71-1.2-3.71-3.6c0-0.37,0.08-1.01,0.23-1.91
			l15.39-65.95c0.15-0.75-0.19-1.52-1.01-2.31c-0.83-0.78-1.65-1.17-2.47-1.17l0.79-2.59h31.24c2.39,0,3.6,1.19,3.6,3.6
			c0,0.3-0.08,0.9-0.23,1.8l-5.39,23.03h7.98l5.17-22.35c0.15-0.75-0.15-1.52-0.9-2.31c-0.75-0.78-1.54-1.17-2.36-1.17l0.56-2.59
			h31.24c1.27,0,2.19,0.31,2.75,0.95c0.56,0.64,0.85,1.55,0.85,2.76l-0.23,1.69l-15.28,66.06c-0.14,0.75,0.19,1.52,1.02,2.3
			c0.82,0.79,1.65,1.18,2.47,1.18l-0.79,2.59h-31.23c-2.4,0-3.6-1.2-3.6-3.6c0-0.3,0.07-0.9,0.22-1.8l6.63-28.76H955.94z"/>
	</g>
</g>
</svg>
