<?xml version="1.0" encoding="utf-8"?>
<!-- Generator: Adobe Illustrator 26.5.0, SVG Export Plug-In . SVG Version: 6.00 Build 0)  -->
<svg version="1.1" id="Layer_1" xmlns="http://www.w3.org/2000/svg" xmlns:xlink="http://www.w3.org/1999/xlink" x="0px" y="0px"
	 viewBox="0 0 1080 1080" style="enable-background:new 0 0 1080 1080;" xml:space="preserve">
<style type="text/css">
	.st0{fill-rule:evenodd;clip-rule:evenodd;}
	.st1{fill:#ED1C24;}
	.st2{fill:#E1251B;}
	.st3{fill-rule:evenodd;clip-rule:evenodd;fill:#16397B;}
	.st4{fill:#EE2745;}
	
		.st5{clip-path:url(#SVGID_00000141447369805753385430000014837851391368041146_);fill:url(#SVGID_00000050656691379918237900000002055890812889964185_);}
	
		.st6{clip-path:url(#SVGID_00000052782511643472622010000004132227123439252366_);fill:url(#SVGID_00000033341676316484294390000011886187779804936102_);}
	
		.st7{clip-path:url(#SVGID_00000085225189602430613140000009118859575311604112_);fill:url(#SVGID_00000087408459708898381420000013522220269457862300_);}
	
		.st8{clip-path:url(#SVGID_00000073699231938944802200000003852080058024114351_);fill:url(#SVGID_00000174597736968063667160000016230309707961021827_);}
	.st9{fill:#424243;}
	
		.st10{clip-path:url(#SVGID_00000181789637790347642150000007817252605545073559_);fill:url(#SVGID_00000098927546744669967990000001257381828697146548_);}
	.st11{fill:#FFFFFF;}
	
		.st12{clip-path:url(#SVGID_00000054248165726365537870000016763410980855320462_);fill:url(#SVGID_00000114034469192971709760000013515682546858058641_);}
	
		.st13{clip-path:url(#SVGID_00000164476770495210391070000009642711968628995747_);fill:url(#SVGID_00000134245153544855064670000011965204386868139414_);}
	
		.st14{clip-path:url(#SVGID_00000035531710770146586290000011715675111080584849_);fill:url(#SVGID_00000129187002899723737380000003076527725930846126_);}
	
		.st15{clip-path:url(#SVGID_00000017477308718564947750000014909811657688262567_);fill:url(#SVGID_00000075146087216692014170000014942866064569789826_);}
	
		.st16{clip-path:url(#SVGID_00000002365224953322247400000015870827311246453176_);fill:url(#SVGID_00000182498612905950465940000012159416216951053955_);}
	
		.st17{clip-path:url(#SVGID_00000067233275604910275260000000294146370839054980_);fill:url(#SVGID_00000088111011229762660530000007776165880529091214_);}
	
		.st18{clip-path:url(#SVGID_00000067194674068318617630000010155376251023673728_);fill:url(#SVGID_00000003071850061016565710000017275669844494082177_);}
	.st19{fill-rule:evenodd;clip-rule:evenodd;fill:#C8202F;}
	.st20{fill-rule:evenodd;clip-rule:evenodd;fill:#FFFFFF;}
	.st21{fill-rule:evenodd;clip-rule:evenodd;fill:#F98238;}
	.st22{filter:url(#Adobe_OpacityMaskFilter);}
	.st23{fill:url(#SVGID_00000127742908577463004060000017484483332849764510_);}
	.st24{mask:url(#SVGID_00000021087043060062930300000012988641830815718061_);fill-rule:evenodd;clip-rule:evenodd;fill:#ED1C24;}
	.st25{fill-rule:evenodd;clip-rule:evenodd;fill:#F5333F;}
	.st26{fill-rule:evenodd;clip-rule:evenodd;fill:#ED1C24;}
	.st27{fill-rule:evenodd;clip-rule:evenodd;fill:#F9A46E;}
	.st28{fill-rule:evenodd;clip-rule:evenodd;fill:#F47B26;}
	.st29{fill-rule:evenodd;clip-rule:evenodd;fill:#EB5433;}
	.st30{fill:#1A3282;}
	.st31{fill-rule:evenodd;clip-rule:evenodd;fill:#1A3282;}
	.st32{fill-rule:evenodd;clip-rule:evenodd;fill:#9D9FA2;}
	.st33{fill-rule:evenodd;clip-rule:evenodd;fill:#000303;}
	.st34{fill:#64003D;}
	.st35{fill:#536270;}
	.st36{fill-rule:evenodd;clip-rule:evenodd;fill:#64003D;}
	.st37{fill-rule:evenodd;clip-rule:evenodd;fill:#536270;}
	.st38{fill-rule:evenodd;clip-rule:evenodd;fill:#1A3382;}
	.st39{fill-rule:evenodd;clip-rule:evenodd;fill:#29387E;}
	.st40{fill-rule:evenodd;clip-rule:evenodd;fill:#F37021;}
	.st41{fill-rule:evenodd;clip-rule:evenodd;fill:#005C32;}
	.st42{fill-rule:evenodd;clip-rule:evenodd;fill:#D2AB67;}
	
		.st43{clip-path:url(#SVGID_00000022538799300119465560000001936606788457616517_);fill:url(#SVGID_00000108271391883222338890000018274398627094502537_);}
	
		.st44{clip-path:url(#SVGID_00000165934869376179209540000004531150124546546565_);fill:url(#SVGID_00000096054367659887460760000004574902105530947212_);}
	
		.st45{clip-path:url(#SVGID_00000147935513429626745250000001849162508142896561_);fill:url(#SVGID_00000072254219135064520950000016461845370325907892_);}
	.st46{fill-rule:evenodd;clip-rule:evenodd;fill:#00AEEF;}
	.st47{fill-rule:evenodd;clip-rule:evenodd;fill:#EC008C;}
	.st48{fill-rule:evenodd;clip-rule:evenodd;fill:#FFF200;}
	.st49{fill:#A7AAAC;}
	.st50{fill-rule:evenodd;clip-rule:evenodd;fill:#5C5B5B;}
	.st51{fill:#9D9D9F;}
	.st52{fill:#F04D23;}
	.st53{fill-rule:evenodd;clip-rule:evenodd;fill:#2E3192;}
	.st54{fill-rule:evenodd;clip-rule:evenodd;fill:#C4312D;}
	.st55{fill:#552715;}
	.st56{fill:#010101;}
	.st57{fill:#E31E2E;}
	.st58{fill:url(#SVGID_00000155146484297269295380000015802055518327494321_);}
	.st59{fill:url(#SVGID_00000026877811864639863100000001407605260596946619_);}
	.st60{clip-path:url(#SVGID_00000133501296902096083880000009544728285262555059_);}
	.st61{clip-path:url(#SVGID_00000077321538455815806330000008557338292987653812_);}
	.st62{clip-path:url(#SVGID_00000150074834850429517100000012697812487538646431_);}
	.st63{clip-path:url(#SVGID_00000053539693652889871330000014639390891418001838_);}
	.st64{clip-path:url(#SVGID_00000100369469568823641710000011527470143685661572_);}
	.st65{clip-path:url(#SVGID_00000097483886066492695490000004539180014776894609_);}
	.st66{clip-path:url(#SVGID_00000138534548110665939940000010111196115173652398_);}
	.st67{clip-path:url(#SVGID_00000035516043780252236580000014641969993176468367_);}
	.st68{clip-path:url(#SVGID_00000134963864564332455460000013543591904070090146_);}
	.st69{clip-path:url(#SVGID_00000016775155033259256410000018119495704280611775_);}
	.st70{clip-path:url(#SVGID_00000007423246959008533480000006254348593065878697_);}
	.st71{fill:#2650A1;}
	.st72{fill:url(#SVGID_00000015314474215962784750000008560133718770107549_);}
	.st73{fill:#FEFEFE;}
	.st74{fill:#FDFDFD;}
	.st75{fill:#FCFCFC;}
	.st76{fill:#FBFBFB;}
	.st77{fill:#FAFAFA;}
	.st78{fill:#F9F9F9;}
	.st79{fill:#F8F8F8;}
	.st80{fill:#F7F7F7;}
	.st81{fill:#F6F6F6;}
	.st82{fill:#F5F5F5;}
	.st83{fill:#F4F4F4;}
	.st84{fill:#F3F3F3;}
	.st85{fill:#F2F2F2;}
	.st86{fill:#F1F1F1;}
	.st87{fill:#F0F0F0;}
	.st88{fill:#EFEFEF;}
	.st89{fill:#EEEEEE;}
	.st90{fill:#EDEDED;}
	.st91{fill:#ECECEC;}
	.st92{fill:#EBEBEB;}
	.st93{fill:#EAEAEA;}
	.st94{fill:#E9E9E9;}
	.st95{fill:#E8E8E8;}
	.st96{fill:#E7E7E7;}
	.st97{fill:#E6E6E6;}
	.st98{fill:#E5E5E5;}
	.st99{fill:#E4E4E4;}
	.st100{fill:#E3E3E3;}
	.st101{fill:#E2E2E2;}
	.st102{fill:#E1E1E1;}
	.st103{fill:#E0E0E0;}
	.st104{fill:#DFDFDF;}
	.st105{fill:#DEDEDE;}
	.st106{fill:#DDDDDD;}
	.st107{fill:#DCDCDC;}
	.st108{fill:#DBDBDB;}
	.st109{fill:#DADADA;}
	.st110{fill:#D9D9D9;}
	.st111{fill:#D92231;}
	.st112{fill:url(#SVGID_00000075154085182363705460000018140961103258209683_);}
	.st113{fill:url(#SVGID_00000033340209982092982190000004075617357613088908_);}
	.st114{opacity:0.8;}
	.st115{fill:url(#SVGID_00000170996629815647856280000015760572169112186038_);}
	.st116{fill:url(#SVGID_00000034781452029340549010000014464329222588932019_);}
	.st117{fill-rule:evenodd;clip-rule:evenodd;fill:#010101;}
	.st118{fill:#80A845;}
	.st119{fill-rule:evenodd;clip-rule:evenodd;fill:#80A845;}
	.st120{fill:url(#SVGID_00000089572900265042887820000010200844543579110531_);}
	.st121{fill-rule:evenodd;clip-rule:evenodd;fill:#04984A;}
	.st122{fill-rule:evenodd;clip-rule:evenodd;fill:url(#SVGID_00000157991160060870050180000012795174853578347678_);}
	.st123{fill:url(#SVGID_00000121267536896545199860000012424685258192420515_);}
	.st124{fill:url(#SVGID_00000005956942041025870040000016675747076298555827_);}
	.st125{fill:url(#SVGID_00000034068219902627251900000011085393635190755769_);}
	.st126{fill:url(#SVGID_00000180358584576775410410000000850538829113729433_);}
	.st127{fill:url(#SVGID_00000060017069098769158050000015434806199219051935_);}
	.st128{fill:url(#SVGID_00000031186494250023692990000010286872773849425550_);}
	.st129{fill:url(#SVGID_00000101807190447029759330000008742309577388990891_);}
	.st130{fill:url(#SVGID_00000170962765148238841960000006728674071674578308_);}
	.st131{fill:url(#SVGID_00000160155640040306551110000002121921834491085195_);}
	.st132{fill:url(#SVGID_00000171693303423926778520000003497555487963876028_);}
	.st133{fill:url(#SVGID_00000148630835707868951130000007693142265130182786_);}
	.st134{fill:url(#SVGID_00000124877757227851182140000006733206109762846352_);}
	.st135{fill:url(#SVGID_00000103949410780769398300000011291887217960556199_);}
	.st136{fill:url(#SVGID_00000023255530263015592890000013976536123596504463_);}
	.st137{fill-rule:evenodd;clip-rule:evenodd;fill:url(#SVGID_00000078742847258875477260000014280156528749447041_);}
	.st138{fill:#0A529D;}
	.st139{fill:url(#SVGID_00000058572058467952238910000000221509819327546249_);}
	.st140{fill:url(#SVGID_00000116226161027498122890000007248201593793017501_);}
	.st141{fill:url(#SVGID_00000100351231790343797160000004245456795212324782_);}
	.st142{fill:url(#SVGID_00000098905821321311141220000003369406375387666856_);}
	.st143{fill:url(#SVGID_00000090976203690123903890000017984937247243453600_);}
	.st144{fill:url(#SVGID_00000026129900804082936330000001574793368681736321_);}
	.st145{fill:url(#SVGID_00000048461417912652500800000006466150582774016938_);}
	.st146{fill:url(#SVGID_00000043434275337392804400000009606518597823240844_);}
	.st147{fill:url(#SVGID_00000086684649884820526580000013551978586452438189_);}
	.st148{fill:url(#SVGID_00000116225555878398429540000010895363900121859233_);}
	.st149{fill:url(#SVGID_00000017509296901678700100000007629274770708174474_);}
	.st150{fill:url(#SVGID_00000141422642279626273820000004958878534641763221_);}
	.st151{fill-rule:evenodd;clip-rule:evenodd;fill:url(#SVGID_00000079485888072393573850000013728886096843213486_);}
	.st152{fill:url(#SVGID_00000119802292965952437470000000399041634881261211_);}
	.st153{fill:url(#SVGID_00000090996621028918709130000003642483154859970465_);}
	.st154{fill:url(#SVGID_00000064346918577622002920000012242822791117535105_);}
	.st155{fill:url(#SVGID_00000142144073957678427430000004283921830325863556_);}
	.st156{fill:url(#SVGID_00000052070351449915536320000012298260988310934204_);}
	.st157{fill:url(#SVGID_00000142134887126307371840000006770517272719689401_);}
	.st158{fill:url(#SVGID_00000068635585993285801710000013074850975232343968_);}
	.st159{fill:url(#SVGID_00000045588994523476326370000016196096009038908573_);}
	.st160{fill:url(#SVGID_00000120516394730715435550000007380585647651958953_);}
	.st161{fill:url(#SVGID_00000181769334867074678260000010395748059279693461_);}
	.st162{fill:url(#SVGID_00000129201999210659728870000012419546072798293170_);}
	.st163{fill:url(#SVGID_00000170267934246532536140000004321548947799642550_);}
	.st164{fill:url(#SVGID_00000060741161601658286570000004261122382742961035_);}
	.st165{fill:url(#SVGID_00000039853601954919939410000011113064828428085661_);}
	.st166{fill:url(#SVGID_00000041984393476366628840000006855707136052985245_);}
	.st167{fill:url(#SVGID_00000135656652561324765070000000760493015078046855_);}
	.st168{fill:url(#SVGID_00000140698009064526482030000006569353173758303392_);}
	.st169{fill-rule:evenodd;clip-rule:evenodd;fill:url(#SVGID_00000012456659010713700500000006145338898400186782_);}
	.st170{fill:url(#SVGID_00000128453092846323945110000007847998544620719757_);}
	.st171{fill:url(#SVGID_00000008862256812509363380000013548322667354625197_);}
	.st172{fill:url(#SVGID_00000075872737167120650980000002948730763504519318_);}
	.st173{fill:url(#SVGID_00000057133361897299146950000010929954133005740937_);}
	.st174{fill:url(#SVGID_00000173141472631795024660000010524310683274822586_);}
	.st175{fill:url(#SVGID_00000075851519950364216340000004333403472189453707_);}
	.st176{fill:url(#SVGID_00000070076812023390967270000004599399593312578975_);}
	.st177{fill:url(#SVGID_00000080206726467725936480000017372809411527254454_);}
	.st178{fill:url(#SVGID_00000102530646124588608040000008706437275967251602_);}
	.st179{fill:url(#SVGID_00000047779760875118374440000004286144919398755460_);}
	.st180{fill:url(#SVGID_00000168805580900276676640000013373726153056621467_);}
	.st181{fill:url(#SVGID_00000008838020462242787620000012649382057670004899_);}
	.st182{fill:url(#SVGID_00000059306726176593282930000006386224909162491554_);}
	.st183{fill:url(#SVGID_00000042736000685944759070000015708461444148153275_);}
	.st184{fill-rule:evenodd;clip-rule:evenodd;fill:url(#SVGID_00000090281984919241900760000006317401634424273836_);}
	.st185{fill:url(#SVGID_00000019677926876979880130000016199734559634349715_);}
	.st186{fill:url(#SVGID_00000096051177568098735970000002926770145306119576_);}
	.st187{fill:url(#SVGID_00000147195791422144713150000000637955091643293069_);}
	.st188{fill:url(#SVGID_00000070090323693468693170000018225287256344876967_);}
	.st189{fill:url(#SVGID_00000018916820652640576640000016966454820951584690_);}
	.st190{fill:url(#SVGID_00000049193759032062437590000016711086517929015212_);}
	.st191{fill:url(#SVGID_00000010284803103459420650000017065590352909328573_);}
	.st192{fill:url(#SVGID_00000055665085202063339590000013608062724269839530_);}
	.st193{fill:url(#SVGID_00000075133952965244805760000014178445293997292454_);}
	.st194{fill:url(#SVGID_00000044141739138788040590000002585674190681168024_);}
	.st195{fill:url(#SVGID_00000175283955476957242370000001987371642505275059_);}
	.st196{fill:url(#SVGID_00000001644414405495484790000003443481935773174179_);}
	.st197{fill:url(#SVGID_00000160884675283312139050000004004723239268564619_);}
	.st198{fill:url(#SVGID_00000175302515698248713090000008784121810239228070_);}
	.st199{fill:url(#SVGID_00000142156054804836418430000005256759853489383828_);}
	.st200{fill:url(#SVGID_00000155146735467131535920000012066340154734588574_);}
	.st201{fill:url(#SVGID_00000077297343279591807180000012464381133171496881_);}
	.st202{fill:url(#SVGID_00000053544122529923786680000011104233848397934752_);}
	.st203{fill:url(#SVGID_00000111188865969495349400000004146749087721606532_);}
	.st204{fill-rule:evenodd;clip-rule:evenodd;fill:url(#SVGID_00000100369109414721633490000012452377477505957255_);}
	.st205{fill:url(#SVGID_00000027575622572943320830000015286756512297783690_);}
	.st206{fill:url(#SVGID_00000108281068230040575890000012953907161765912970_);}
	.st207{fill:url(#SVGID_00000090285390681748022580000010531686926847800455_);}
	.st208{fill:url(#SVGID_00000028326259499093683320000007789567723604766640_);}
	.st209{fill:url(#SVGID_00000027604849202729843470000016557132514883277754_);}
	.st210{fill:url(#SVGID_00000045618824255395224000000000976765916510229145_);}
	.st211{fill:url(#SVGID_00000174560989139201825950000001727092685762888099_);}
	.st212{fill:url(#SVGID_00000149373400046694668530000016929199890201449892_);}
	.st213{fill:url(#SVGID_00000056403397976410830220000007120614045181111726_);}
	.st214{fill:url(#SVGID_00000008847040435783250010000015417643446102225037_);}
	.st215{fill:url(#SVGID_00000018230618246057736120000013070590313970458277_);}
	.st216{fill:url(#SVGID_00000003076529251558966880000012442935499401545128_);}
	.st217{fill:url(#SVGID_00000051366136160827712440000004977507488398025886_);}
	.st218{fill:url(#SVGID_00000181076618899459295940000013356593510543012011_);}
	.st219{fill:url(#SVGID_00000042016457013581502750000007249257034998138008_);}
	.st220{fill:url(#SVGID_00000026871539226865767780000007266475374204650898_);}
	.st221{fill-rule:evenodd;clip-rule:evenodd;fill:url(#SVGID_00000139284475717181594740000010975972757380102314_);}
	.st222{fill:url(#SVGID_00000089570390587715222120000003479384989136971436_);}
	.st223{fill:url(#SVGID_00000098913202301263239160000003609526836116373653_);}
	.st224{fill:url(#SVGID_00000073692310778245125330000003325890384278014853_);}
	.st225{fill:url(#SVGID_00000085229380209764605800000005912856902202626203_);}
	.st226{fill:url(#SVGID_00000024705506008291944750000017837634973430722457_);}
	.st227{fill:url(#SVGID_00000183222968511614122290000018188100596030565007_);}
	.st228{fill:url(#SVGID_00000106852268024188517310000000496415343876229301_);}
	.st229{fill:url(#SVGID_00000067933520513494664320000010964086907917158548_);}
	.st230{fill:url(#SVGID_00000012473298048583167750000009416965283752251288_);}
	.st231{fill:url(#SVGID_00000147195666043195448990000010807834475147958964_);}
	.st232{fill:url(#SVGID_00000120561234305244632800000018164005483256211597_);}
	.st233{fill:url(#SVGID_00000068663397773312368280000016413866535331996805_);}
	.st234{fill:url(#SVGID_00000037654103101935463010000007047899958706403506_);}
	.st235{fill:url(#SVGID_00000032615992389710666350000006509337731558235311_);}
	.st236{fill:url(#SVGID_00000092416487079252737190000010420100911145178240_);}
	.st237{fill-rule:evenodd;clip-rule:evenodd;fill:url(#SVGID_00000127028759232580299510000005669288002058479763_);}
	.st238{fill:url(#SVGID_00000159458003162144539180000013565530835950554039_);}
	.st239{fill:url(#SVGID_00000144320208410877972680000012473125280930680973_);}
	.st240{fill:url(#SVGID_00000025408847773909255220000000931215278176118429_);}
	.st241{fill:url(#SVGID_00000112629125917164599480000015357609428528917396_);}
	.st242{fill:url(#SVGID_00000054261397067542435660000000221428762370768521_);}
	.st243{fill:url(#SVGID_00000129207117263706075740000005405942105752779687_);}
	.st244{fill:url(#SVGID_00000131328112795764769520000016185957671018640776_);}
	.st245{fill:url(#SVGID_00000156582146802355861290000005356449730315201964_);}
	.st246{fill:url(#SVGID_00000034772148487673916250000006301890865752431019_);}
	.st247{fill:url(#SVGID_00000012459328651274737460000012356715963418790021_);}
	.st248{fill:url(#SVGID_00000087404927947924511550000012867890609798655649_);}
	.st249{fill:url(#SVGID_00000038407354881355623570000011735299561275367860_);}
	.st250{fill:url(#SVGID_00000006702036117725109460000012650131190055993532_);}
	.st251{fill:url(#SVGID_00000040533837015353760270000012966410701313617307_);}
	.st252{fill:url(#SVGID_00000088825275139588922250000014073807265976415884_);}
	.st253{fill-rule:evenodd;clip-rule:evenodd;fill:url(#SVGID_00000044869947593799856810000009164216405433354421_);}
	.st254{fill:url(#SVGID_00000031179222704588326630000001355336666903777462_);}
	.st255{fill:url(#SVGID_00000072250106157550854140000001836902768355150498_);}
	.st256{fill:url(#SVGID_00000160898432942784439420000010457028960314455177_);}
	.st257{fill:url(#SVGID_00000064318046882506486920000011230554566911360182_);}
	.st258{fill:url(#SVGID_00000072968989562620290280000008447379644465654461_);}
	.st259{fill:url(#SVGID_00000053547303198211709250000000850698060262299527_);}
	.st260{fill:url(#SVGID_00000108276317449605502100000006111497870825491633_);}
	.st261{fill:url(#SVGID_00000062158665462222660600000016165600495576150176_);}
	.st262{fill:url(#SVGID_00000164474052713914130780000018437829966398539160_);}
	.st263{fill:url(#SVGID_00000052064328419391793470000017558306071424519869_);}
	.st264{fill:url(#SVGID_00000066487271945549154570000002583355633380373932_);}
	.st265{fill:url(#SVGID_00000072261881728974223430000010469062999581417864_);}
	.st266{fill:url(#SVGID_00000159432805448631542250000003941451755577285511_);}
	.st267{fill:url(#SVGID_00000049199695877756522350000007029445682040892041_);}
	.st268{fill:url(#SVGID_00000145042854331637168070000000833591087755186352_);}
	.st269{fill-rule:evenodd;clip-rule:evenodd;fill:url(#SVGID_00000018957597987013600610000015102308026627324849_);}
	.st270{fill:url(#SVGID_00000142160591562530452560000003096194289231156108_);}
	.st271{fill:url(#SVGID_00000068670426024053528430000014507874247273511346_);}
	.st272{fill:url(#SVGID_00000066495962187746316590000005991228003858475450_);}
	.st273{fill:url(#SVGID_00000176748335699953537010000012506572818207423106_);}
	.st274{fill:url(#SVGID_00000177465008867909845550000004354372215771830167_);}
	.st275{fill:url(#SVGID_00000011013689563842410490000013256841139724831646_);}
	.st276{fill:url(#SVGID_00000043423587961291818030000014537620941989435286_);}
	.st277{fill:url(#SVGID_00000165922591726309249120000007343764253301752739_);}
	.st278{fill:url(#SVGID_00000076570797430031878460000000061745364848323491_);}
	.st279{fill:url(#SVGID_00000153694021717252317420000016921391136539359407_);}
	.st280{fill:url(#SVGID_00000036967180255658150590000005712233899252887220_);}
	.st281{fill:url(#SVGID_00000149383088960457510180000001814231247142780047_);}
	.st282{fill:url(#SVGID_00000087381256877693135160000005722294414394637465_);}
	.st283{fill:url(#SVGID_00000036247419504089156460000014420517820508588186_);}
	.st284{fill:url(#SVGID_00000160176492288516004270000010546084618540616635_);}
	.st285{fill-rule:evenodd;clip-rule:evenodd;fill:url(#SVGID_00000148646482913519424220000001633464374595090577_);}
	.st286{fill:url(#SVGID_00000052807760731647304240000002757180224231138434_);}
	.st287{fill:url(#SVGID_00000013895914034965581520000015774580219917538987_);}
	.st288{fill:url(#SVGID_00000153702912902657538580000009740145897603485841_);}
	.st289{fill:url(#SVGID_00000158027245612399940050000011128074554932907925_);}
	.st290{fill:url(#SVGID_00000046298909372783993120000001087965298401704070_);}
	.st291{fill:url(#SVGID_00000103242273246364446960000016146630598286985645_);}
	.st292{fill:url(#SVGID_00000046299655115599013200000012798931049409132955_);}
	.st293{fill:url(#SVGID_00000032642815473724187120000015310535755887937409_);}
	.st294{fill:url(#SVGID_00000156547029500994226210000012059644653714588292_);}
	.st295{fill:url(#SVGID_00000116923782254757293560000015474398219607496634_);}
	.st296{fill:url(#SVGID_00000158013912526918280640000013860701757136923290_);}
	.st297{fill:url(#SVGID_00000098218265216472177300000002016447182998875057_);}
	.st298{fill:url(#SVGID_00000076592283879923561100000018071677891538913702_);}
	.st299{fill:url(#SVGID_00000140719559797823605950000015196637001468201634_);}
	.st300{fill:url(#SVGID_00000117645255354493307310000011127823762465827249_);}
	.st301{fill:url(#SVGID_00000111164116839121908440000016976100807345210039_);}
	.st302{fill:url(#SVGID_00000169551551723473685570000012874403608841053107_);}
	.st303{fill:url(#SVGID_00000000185633198241232080000014035658207867196300_);}
	.st304{fill-rule:evenodd;clip-rule:evenodd;fill:url(#SVGID_00000063610171859328768300000000928117996046259621_);}
	.st305{fill:url(#SVGID_00000033359905298999909230000007986634858867230886_);}
	.st306{fill:url(#SVGID_00000105406051997305044330000015125942201722679445_);}
	.st307{fill:url(#SVGID_00000001654021534708567250000001241263890244302526_);}
	.st308{fill:url(#SVGID_00000078727392980864693350000013214213171798558369_);}
	.st309{fill:url(#SVGID_00000070091655339042730300000005645325699576965031_);}
	.st310{fill:url(#SVGID_00000169544556414176975360000012587905342589000876_);}
	.st311{fill:url(#SVGID_00000160182806666976279050000006720047175481745589_);}
	.st312{fill:url(#SVGID_00000087384448652695527360000018118247562149815695_);}
	.st313{fill:url(#SVGID_00000046316701653705238040000006049835271849367952_);}
	.st314{fill:url(#SVGID_00000183246995462654126190000018439895876897433523_);}
	.st315{fill:url(#SVGID_00000017485532479078460750000010847107818441238152_);}
	.st316{fill:url(#SVGID_00000037660292762944019800000018431434828061741243_);}
	.st317{fill:url(#SVGID_00000155146646352177057220000008593746898971647668_);}
	.st318{fill:url(#SVGID_00000006673255341236183830000007240319193652804790_);}
	.st319{fill:url(#SVGID_00000033361184670971971010000011716598835428518033_);}
	.st320{fill:url(#SVGID_00000077300822456366740620000015284027865930838437_);}
	.st321{fill:url(#SVGID_00000176031583117128324320000008942612563126622133_);}
	.st322{fill:url(#SVGID_00000018938839505690132200000017902514933338327440_);}
	.st323{fill:url(#SVGID_00000074420085202612463330000006218616757059921299_);}
	.st324{fill:url(#SVGID_00000140728183836393477980000004857159997691530149_);}
	.st325{fill-rule:evenodd;clip-rule:evenodd;fill:url(#SVGID_00000040542278957862661310000015762908119658063524_);}
	.st326{fill:url(#SVGID_00000066503247595899574800000011884128349998193070_);}
	.st327{fill:url(#SVGID_00000020364530164384989490000005462175450684726150_);}
	.st328{fill:url(#SVGID_00000137812201052012419870000002756665942234686345_);}
	.st329{fill:url(#SVGID_00000106138384577580187200000011425160917984030085_);}
	.st330{fill:url(#SVGID_00000084507501680497941860000015828374023004858521_);}
	.st331{fill:url(#SVGID_00000155147381764437717170000015000579200309146026_);}
	.st332{fill:url(#SVGID_00000025420233213298011170000017512689973158797459_);}
	.st333{fill:url(#SVGID_00000084530950469316662060000005690305325946473145_);}
	.st334{fill:url(#SVGID_00000098925738318027610800000016073243377458161327_);}
	.st335{fill:url(#SVGID_00000011019897462035905700000014690615314719068558_);}
	.st336{fill:url(#SVGID_00000067230276458694765100000015838988642897946523_);}
	.st337{fill:url(#SVGID_00000066480805893530492180000000948217727142867861_);}
	.st338{fill:url(#SVGID_00000155136976826846987730000011467233581624991408_);}
	.st339{fill:url(#SVGID_00000034788688364510937250000004802070105876114080_);}
	.st340{fill:url(#SVGID_00000134970059134284045320000011752886510372739724_);}
	.st341{fill:url(#SVGID_00000039822180391073173710000012782605539870191750_);}
	.st342{fill-rule:evenodd;clip-rule:evenodd;fill:url(#SVGID_00000067941385302251830870000015402093636385848450_);}
	.st343{fill:url(#SVGID_00000029008668507278410570000006749159006942987918_);}
	.st344{fill:url(#SVGID_00000005248963549223045850000013720878608343087254_);}
	.st345{fill:url(#SVGID_00000182518721783002210050000017830728654888463804_);}
	.st346{fill:url(#SVGID_00000031917517957327335650000012711438348079554993_);}
	.st347{fill:url(#SVGID_00000125591900753606207210000002912939663710951598_);}
	.st348{fill:url(#SVGID_00000008137727966300048390000005655151469096379304_);}
	.st349{fill:url(#SVGID_00000015323477023040342230000012133675761964190081_);}
	.st350{fill:url(#SVGID_00000157990369401447834530000008760948134497541517_);}
	.st351{fill:url(#SVGID_00000129888716849644844190000009901662845289271698_);}
	.st352{fill:url(#SVGID_00000065761698193242506090000006534020464912292011_);}
	.st353{fill:url(#SVGID_00000077302387583124525350000002875090106792366721_);}
	.st354{fill:url(#SVGID_00000142159857689603806210000009089317817979715991_);}
	.st355{fill:url(#SVGID_00000101789995186779862330000006403459824490075778_);}
	.st356{fill:url(#SVGID_00000117641283552323590630000014144020542778807443_);}
	.st357{fill:url(#SVGID_00000152254575653482811060000012363968187103499919_);}
	.st358{fill:url(#SVGID_00000100350176454114253400000014329334956543569302_);}
	.st359{fill:url(#SVGID_00000168099373227023790950000012006219451708782505_);}
	.st360{fill:url(#SVGID_00000096041364388849981070000014676713227189418668_);}
	.st361{fill:url(#SVGID_00000125572878629477288690000009656347117833020311_);}
	.st362{fill:url(#SVGID_00000114033549153595642460000013854580329783476893_);}
	.st363{fill:#C1282D;}
	.st364{fill-rule:evenodd;clip-rule:evenodd;fill:url(#SVGID_00000125589848015867773180000009171274547103900344_);}
	.st365{fill:url(#SVGID_00000014624924581637744390000006233733020314492816_);}
	.st366{fill:url(#SVGID_00000058584089519729776380000005188943074537736577_);}
	.st367{fill:url(#SVGID_00000078749545740603158380000010414229184941791929_);}
	.st368{fill:url(#SVGID_00000115475024763992356660000000992744910143344050_);}
	.st369{fill:url(#SVGID_00000131350825993371313990000006972138653832888223_);}
	.st370{fill:url(#SVGID_00000043428894801272237600000011546455435079955878_);}
	.st371{fill:url(#SVGID_00000011747594975885751440000013258890407685582744_);}
	.st372{fill:url(#SVGID_00000072264177685706423110000010063300973145980572_);}
	.st373{fill:url(#SVGID_00000053507060022181713540000003989850634674873505_);}
	.st374{fill:url(#SVGID_00000062888863347931473160000015990018654968985257_);}
	.st375{fill:url(#SVGID_00000141432719522837504840000008153871587010606226_);}
	.st376{fill:url(#SVGID_00000124856103696164217810000003393532480884768397_);}
	.st377{fill:url(#SVGID_00000020373310611772169990000018377694122117954192_);}
	.st378{fill:url(#SVGID_00000119801361683773042140000016625509604164323204_);}
	.st379{fill:url(#SVGID_00000043436234613930839830000002522254741862409106_);}
	.st380{fill:url(#SVGID_00000111907256882730921060000004141287070294357656_);}
	.st381{fill-rule:evenodd;clip-rule:evenodd;fill:url(#SVGID_00000171713581906619121840000014792750370614103168_);}
	.st382{fill:url(#SVGID_00000016069006828137725380000009557225044566545318_);}
	.st383{fill:url(#SVGID_00000178917579713550601030000018295936605267037318_);}
	.st384{fill:url(#SVGID_00000101800346705633711730000009609825280291848628_);}
	.st385{fill:url(#SVGID_00000150065095830375993020000017135720679510788486_);}
	.st386{fill:url(#SVGID_00000060030145405560003500000006204534381856273797_);}
	.st387{fill:url(#SVGID_00000105411560261465445470000001792429283624545469_);}
	.st388{fill:url(#SVGID_00000067952006383722439370000004153949320718471567_);}
	.st389{fill:url(#SVGID_00000085220815394993955660000014204291636224116635_);}
	.st390{fill:url(#SVGID_00000182507073067439613550000000992405487748020658_);}
	.st391{fill:url(#SVGID_00000000216698562889074870000001027774458048062132_);}
	.st392{fill:url(#SVGID_00000041294502451855178190000005527106782907915449_);}
	.st393{fill:url(#SVGID_00000026159047704259629660000004262380969520447378_);}
	.st394{fill:url(#SVGID_00000003806318014731646050000008895453217989128894_);}
	.st395{fill:url(#SVGID_00000061458575933613087990000005630868739684190124_);}
	.st396{fill:url(#SVGID_00000074433043241571632640000014130037792626306438_);}
	.st397{fill:url(#SVGID_00000098936993826330196780000000813101986234172061_);}
	.st398{fill:url(#SVGID_00000072272135578834132270000007667486613736467861_);}
	.st399{fill:url(#SVGID_00000072980881021912756220000000623837360015073467_);}
	.st400{fill:url(#SVGID_00000154403610359493449070000003680121577549086102_);}
	.st401{fill:url(#SVGID_00000121979612287415245910000001342478168503332533_);}
</style>
<g>
	<path d="M984.08,557.28c-3.7,0-5.01-1.12-4.3-4.12l6.45-25.28h38.07l4.29-16.59h-38.07l4.32-16.85c1.15-4.41,4.28-8.16,10.4-8.16
		h30.47l4.3-16.6h-44.28c-18.38,0-23.9,3.28-31.05,30.93l-13.14,50.54c-4.03,16.96,1,24.35,14.85,24.35h38.23
		c7.52,0,12.36-4.01,14.7-10.13l3.13-8.09H984.08z"/>
	<g>
		<path class="st1" d="M1015.37,612.52h-9.29l0.99-6.41h9.04c-0.2-1.36-0.9-2.38-2.09-3.08c-0.6-0.35-1.27-0.61-2.01-0.77
			c-0.74-0.16-1.58-0.25-2.5-0.25c-0.49,0-1.01,0.03-1.55,0.09c-0.53,0.07-1.1,0.16-1.7,0.28c-0.57,0.12-1.11,0.26-1.62,0.41
			c-0.5,0.15-0.96,0.33-1.37,0.54l1.19-7.52c0.78-0.17,1.51-0.31,2.19-0.43c0.68-0.12,1.31-0.21,1.88-0.28
			c0.56-0.06,1.16-0.11,1.81-0.15c0.65-0.04,1.33-0.05,2.05-0.05c1.42,0,2.77,0.11,4.06,0.33c1.29,0.22,2.51,0.57,3.66,1.02
			c2.3,0.91,4.11,2.26,5.43,4.07c1.31,1.77,1.97,3.94,1.97,6.53c0,0.3-0.01,0.67-0.04,1.08c-0.03,0.41-0.08,0.87-0.17,1.39
			c-0.2,1.25-0.5,2.43-0.89,3.54c-0.39,1.1-0.87,2.13-1.45,3.08c-0.6,0.96-1.26,1.84-2,2.64c-0.74,0.79-1.55,1.51-2.44,2.17
			c-0.88,0.63-1.81,1.19-2.8,1.67c-0.98,0.47-2.03,0.87-3.11,1.2c-1.09,0.31-2.21,0.54-3.36,0.71c-1.16,0.15-2.34,0.24-3.55,0.24
			c-1.27,0-2.55-0.09-3.84-0.28c-1.28-0.2-2.56-0.48-3.84-0.87l1.19-7.59c0.8,0.49,1.72,0.86,2.77,1.11
			c1.05,0.25,2.21,0.37,3.48,0.37c0.94,0,1.83-0.1,2.65-0.3c0.82-0.21,1.58-0.51,2.28-0.9c0.7-0.39,1.3-0.88,1.8-1.48
			C1014.65,614.02,1015.06,613.32,1015.37,612.52 M988.99,605.29l1.6-9.9h11.01l-4.56,28.68h-11.01l1.65-10.32h-7.35l-1.65,10.32
			h-11.01l4.56-28.68h11.01l-1.6,9.9H988.99z M954.11,616.02l2.05-12.99h-6.08l-1.56,9.95c-0.11,0.63-0.31,1.21-0.61,1.72
			c-0.31,0.51-0.71,0.96-1.2,1.32H954.11z M935.7,615.61c0.88-0.31,1.58-0.79,2.1-1.45c0.51-0.67,0.86-1.51,1.02-2.53l2.59-16.23
			h26.7l-3.21,20.21h1.65l-2.14,13.4h-10.6l0.78-4.93h-10.35l-0.79,4.93h-10.6l2.14-13.4H935.7z M923.29,612.52h-9.28l0.98-6.41
			h9.04c-0.2-1.36-0.9-2.38-2.09-3.08c-0.59-0.35-1.26-0.61-2.01-0.77c-0.74-0.16-1.58-0.25-2.5-0.25c-0.49,0-1,0.03-1.55,0.09
			c-0.53,0.07-1.1,0.16-1.7,0.28c-0.57,0.12-1.11,0.26-1.62,0.41c-0.51,0.15-0.97,0.33-1.38,0.54l1.19-7.52
			c0.78-0.17,1.52-0.31,2.19-0.43c0.67-0.12,1.3-0.21,1.87-0.28c0.56-0.06,1.16-0.11,1.81-0.15c0.65-0.04,1.33-0.05,2.05-0.05
			c1.42,0,2.78,0.11,4.06,0.33c1.29,0.22,2.51,0.57,3.66,1.02c2.3,0.91,4.12,2.26,5.43,4.07c1.31,1.77,1.97,3.94,1.97,6.53
			c0,0.3-0.02,0.67-0.04,1.08c-0.03,0.41-0.08,0.87-0.17,1.39c-0.2,1.25-0.5,2.43-0.89,3.54c-0.39,1.1-0.87,2.13-1.45,3.08
			c-0.59,0.96-1.26,1.84-2,2.64c-0.74,0.79-1.55,1.51-2.44,2.17c-0.88,0.63-1.81,1.19-2.8,1.67c-0.98,0.47-2.02,0.87-3.11,1.2
			c-1.09,0.31-2.21,0.54-3.36,0.71c-1.15,0.15-2.33,0.24-3.54,0.24c-1.28,0-2.55-0.09-3.85-0.28c-1.28-0.2-2.56-0.48-3.84-0.87
			l1.19-7.59c0.8,0.49,1.72,0.86,2.77,1.11c1.05,0.25,2.2,0.37,3.47,0.37c0.94,0,1.83-0.1,2.66-0.3c0.81-0.21,1.58-0.51,2.27-0.9
			c0.7-0.39,1.3-0.88,1.8-1.48C922.57,614.02,922.98,613.32,923.29,612.52z M864.95,624.07l4.56-28.68h16.27l1.23,15.69h0.09
			l6.2-15.69h16.23l-4.56,28.68h-10.02l3.57-22.52h-0.08l-9.21,22.52h-9.17l-1.88-22.52h-0.17l-3.57,22.52H864.95z M822.34,624.07
			l4.56-28.68h24.93l-1.36,8.46h-13.93l-3.21,20.22H822.34z M787,617.41h1.65c0.82,0,1.57-0.06,2.25-0.17
			c0.67-0.12,1.26-0.3,1.78-0.52c1.03-0.45,1.65-1.36,1.86-2.71c0-1.52-0.41-2.5-1.24-2.96c-0.43-0.24-0.94-0.43-1.52-0.55
			c-0.58-0.12-1.24-0.18-1.98-0.18h-1.68L787,617.41z M779.77,595.39h11.01l-1.31,8.26h7.15c1.72,0,3.28,0.29,4.68,0.86
			c1.35,0.58,2.42,1.48,3.21,2.72c0.39,0.61,0.68,1.31,0.89,2.06c0.19,0.77,0.3,1.61,0.3,2.53c0,0.31-0.02,0.67-0.06,1.07
			c-0.04,0.41-0.09,0.84-0.15,1.32c-0.14,0.9-0.35,1.74-0.64,2.53c-0.28,0.78-0.63,1.49-1.04,2.15c-0.43,0.64-0.89,1.21-1.39,1.73
			c-0.5,0.52-1.03,0.97-1.61,1.36c-0.59,0.37-1.19,0.69-1.79,0.95c-0.61,0.27-1.23,0.48-1.86,0.65c-0.62,0.17-1.24,0.29-1.87,0.37
			c-0.63,0.09-1.26,0.13-1.87,0.13h-18.2L779.77,595.39z M811.73,595.39h11.02l-4.56,28.68h-11.01L811.73,595.39z M731.04,624.07
			l4.56-28.68h16.27l1.22,15.69h0.09l6.2-15.69h16.23l-4.56,28.68h-10.03l3.57-22.52h-0.08l-9.2,22.52h-9.16l-1.89-22.52h-0.17
			l-3.57,22.52H731.04z M715.14,601.56l-4.64,9.41h6.37l-1.65-9.41H715.14z M694.14,624.07l14.63-28.68h15.16l5.67,28.68h-11.54
			l-0.91-6.21h-9.28l-2.75,6.21H694.14z M676.07,606.08h3.86c3.24,0,4.97-0.7,5.18-2.1c0-0.72-0.35-1.25-1.07-1.62
			c-0.72-0.37-1.8-0.55-3.24-0.55c-1.36,0-2.71,0.12-4.07,0.36c-1.37,0.25-2.74,0.6-4.14,1.08l1.19-7.36
			c1.58-0.32,3.14-0.58,4.68-0.74c1.54-0.17,3.05-0.24,4.53-0.24c1.89,0,3.62,0.12,5.18,0.36c1.56,0.25,2.97,0.6,4.22,1.08
			c1.26,0.49,2.2,1.2,2.81,2.12c0.63,0.92,0.93,2.07,0.93,3.42c0,0.37-0.04,0.82-0.12,1.36c-0.1,0.76-0.35,1.46-0.73,2.12
			c-0.39,0.65-0.91,1.25-1.57,1.78c-1.31,1.11-2.83,1.85-4.55,2.22c1.83,0.45,3.2,1.15,4.12,2.1c0.92,0.95,1.38,2.15,1.38,3.61
			c0,0.22-0.01,0.43-0.02,0.61c-0.02,0.18-0.04,0.35-0.06,0.5c-0.14,0.97-0.44,1.84-0.89,2.63c-0.45,0.79-1.05,1.5-1.78,2.14
			c-0.74,0.61-1.55,1.15-2.44,1.62c-0.89,0.46-1.86,0.84-2.9,1.13c-1.07,0.29-2.14,0.51-3.21,0.65c-1.08,0.14-2.17,0.22-3.28,0.22
			c-1.87,0-3.72-0.12-5.55-0.35c-1.83-0.22-3.65-0.55-5.46-1.01l1.19-7.43c1.33,0.63,2.72,1.11,4.16,1.42
			c1.44,0.31,2.95,0.47,4.51,0.47c0.59,0,1.17-0.06,1.72-0.18c0.54-0.12,1.05-0.3,1.52-0.52c0.48-0.22,0.84-0.49,1.11-0.79
			c0.27-0.31,0.43-0.65,0.49-1.02c0-0.47-0.09-0.88-0.27-1.22c-0.18-0.35-0.46-0.63-0.84-0.83c-0.37-0.23-0.84-0.39-1.44-0.5
			c-0.59-0.11-1.31-0.16-2.13-0.16h-3.98L676.07,606.08z M642.82,605.29l1.6-9.9h11.01l-4.56,28.68h-11.01l1.64-10.32h-7.35
			l-1.64,10.32H621.5l4.56-28.68h11.01l-1.59,9.9H642.82z M586.17,617.41h1.64c0.82,0,1.57-0.06,2.24-0.17
			c0.67-0.12,1.27-0.3,1.78-0.52c1.03-0.45,1.65-1.36,1.85-2.71c0-1.52-0.41-2.5-1.24-2.96c-0.43-0.24-0.94-0.43-1.51-0.55
			c-0.59-0.12-1.24-0.18-1.98-0.18h-1.69L586.17,617.41z M578.93,595.39h11.01l-1.31,8.26h7.15c1.73,0,3.29,0.29,4.69,0.86
			c1.36,0.58,2.42,1.48,3.2,2.72c0.39,0.61,0.69,1.31,0.9,2.06c0.19,0.77,0.3,1.61,0.3,2.53c0,0.31-0.02,0.67-0.05,1.07
			c-0.04,0.41-0.09,0.84-0.15,1.32c-0.15,0.9-0.35,1.74-0.64,2.53c-0.28,0.78-0.63,1.49-1.05,2.15c-0.43,0.64-0.89,1.21-1.39,1.73
			c-0.5,0.52-1.03,0.97-1.61,1.36c-0.6,0.37-1.19,0.69-1.8,0.95c-0.61,0.27-1.22,0.48-1.86,0.65c-0.61,0.17-1.24,0.29-1.87,0.37
			c-0.63,0.09-1.25,0.13-1.86,0.13h-18.21L578.93,595.39z M610.9,595.39h11.01l-4.55,28.68h-11.02L610.9,595.39z M556.91,603.85
			l-1.72,10.76c-0.45,3.05-1.73,5.47-3.82,7.28c-1.05,0.88-2.34,1.54-3.85,2c-1.53,0.45-3.29,0.67-5.31,0.67l-1.36-9.37
			c1.36,0,2.43-0.33,3.21-1c0.78-0.67,1.28-1.67,1.51-2.98l2.51-15.81h26.7l-4.56,28.68h-11.01l3.2-20.22H556.91z M521.37,609.73
			c-0.1,0.56-0.18,1.09-0.22,1.6c-0.05,0.51-0.07,1.01-0.07,1.48c0,1.62,0.29,2.84,0.87,3.65c0.57,0.8,1.44,1.2,2.58,1.2
			c0.68,0,1.28-0.11,1.81-0.31c0.52-0.2,0.99-0.51,1.4-0.92c0.39-0.41,0.72-0.86,1-1.33c0.27-0.48,0.48-0.97,0.65-1.51
			c0.17-0.53,0.32-1.12,0.48-1.76c0.15-0.64,0.3-1.34,0.42-2.1c0.1-0.7,0.18-1.31,0.22-1.82c0.05-0.51,0.07-0.93,0.07-1.26
			c0-1.62-0.3-2.83-0.89-3.64c-0.59-0.8-1.47-1.2-2.65-1.2c-0.88,0-1.65,0.19-2.3,0.58c-0.65,0.4-1.18,1-1.59,1.8
			c-0.41,0.8-0.77,1.66-1.05,2.58C521.8,607.69,521.56,608.68,521.37,609.73z M541.79,609.73c-0.37,2.43-1.07,4.56-2.1,6.41
			c-0.49,0.92-1.06,1.78-1.71,2.56c-0.65,0.77-1.36,1.47-2.15,2.09c-0.8,0.63-1.66,1.18-2.58,1.65c-0.92,0.46-1.9,0.85-2.92,1.18
			c-1.05,0.31-2.14,0.54-3.29,0.71c-1.16,0.15-2.36,0.24-3.61,0.24c-1.48,0-2.84-0.11-4.1-0.34c-1.25-0.22-2.4-0.55-3.42-0.97
			c-1.02-0.43-1.93-0.97-2.71-1.63c-0.78-0.65-1.44-1.41-1.97-2.27c-0.53-0.87-0.93-1.83-1.2-2.89c-0.27-1.07-0.4-2.23-0.4-3.48
			c0-0.51,0.02-1.04,0.06-1.57c0.04-0.54,0.1-1.1,0.18-1.68c0.19-1.19,0.45-2.32,0.8-3.38c0.35-1.07,0.79-2.07,1.3-2.99
			c0.49-0.92,1.06-1.78,1.7-2.55c0.63-0.77,1.34-1.48,2.12-2.09c0.8-0.63,1.66-1.19,2.56-1.67c0.91-0.47,1.88-0.87,2.9-1.21
			c1.03-0.3,2.12-0.54,3.26-0.7c1.15-0.16,2.35-0.24,3.6-0.24c1.48,0,2.85,0.11,4.11,0.33c1.26,0.22,2.41,0.55,3.46,0.98
			c1.02,0.45,1.93,1,2.73,1.66c0.79,0.66,1.46,1.42,1.99,2.28c0.56,0.88,0.97,1.86,1.24,2.92c0.27,1.07,0.4,2.23,0.4,3.49
			c0,0.49-0.02,1-0.07,1.53C541.94,608.63,541.87,609.17,541.79,609.73z M481.48,624.07l4.56-28.68h24.94l-1.35,8.46h-13.93
			l-3.2,20.22H481.48z M469.31,605.29l1.6-9.9h11.01l-4.56,28.68h-11.01l1.65-10.32h-7.36L459,624.07h-11.01l4.56-28.68h11.01
			l-1.6,9.9H469.31z M427,609.73c-0.11,0.56-0.18,1.09-0.22,1.6c-0.04,0.51-0.06,1.01-0.06,1.48c0,1.62,0.29,2.84,0.86,3.65
			c0.58,0.8,1.44,1.2,2.59,1.2c0.68,0,1.27-0.11,1.8-0.31c0.53-0.2,1-0.51,1.41-0.92c0.39-0.41,0.72-0.86,0.99-1.33
			c0.26-0.48,0.49-0.97,0.65-1.51c0.17-0.53,0.33-1.12,0.49-1.76c0.15-0.64,0.3-1.34,0.42-2.1c0.1-0.7,0.17-1.31,0.22-1.82
			c0.05-0.51,0.06-0.93,0.06-1.26c0-1.62-0.29-2.83-0.89-3.64c-0.59-0.8-1.47-1.2-2.64-1.2c-0.88,0-1.65,0.19-2.31,0.58
			c-0.65,0.4-1.18,1-1.59,1.8c-0.41,0.8-0.76,1.66-1.05,2.58C427.41,607.69,427.18,608.68,427,609.73z M447.41,609.73
			c-0.37,2.43-1.07,4.56-2.09,6.41c-0.49,0.92-1.07,1.78-1.71,2.56c-0.65,0.77-1.37,1.47-2.15,2.09c-0.8,0.63-1.67,1.18-2.58,1.65
			c-0.92,0.46-1.89,0.85-2.92,1.18c-1.05,0.31-2.14,0.54-3.29,0.71c-1.15,0.15-2.35,0.24-3.61,0.24c-1.48,0-2.84-0.11-4.09-0.34
			c-1.26-0.22-2.4-0.55-3.42-0.97c-1.03-0.43-1.94-0.97-2.71-1.63c-0.78-0.65-1.44-1.41-1.97-2.27c-0.53-0.87-0.93-1.83-1.2-2.89
			c-0.27-1.07-0.4-2.23-0.4-3.48c0-0.51,0.02-1.04,0.06-1.57c0.04-0.54,0.11-1.1,0.19-1.68c0.19-1.19,0.45-2.32,0.8-3.38
			c0.35-1.07,0.78-2.07,1.29-2.99c0.49-0.92,1.06-1.78,1.7-2.55c0.64-0.77,1.34-1.48,2.12-2.09c0.8-0.63,1.66-1.19,2.56-1.67
			c0.91-0.47,1.88-0.87,2.9-1.21c1.03-0.3,2.12-0.54,3.26-0.7c1.15-0.16,2.35-0.24,3.6-0.24c1.48,0,2.85,0.11,4.1,0.33
			c1.26,0.22,2.41,0.55,3.46,0.98c1.02,0.45,1.94,1,2.74,1.66c0.79,0.66,1.46,1.42,1.99,2.28c0.56,0.88,0.96,1.86,1.24,2.92
			c0.27,1.07,0.4,2.23,0.4,3.49c0,0.49-0.02,1-0.06,1.53C447.56,608.63,447.5,609.17,447.41,609.73z M370.38,624.07l4.56-28.68
			h16.27l1.24,15.69h0.08l6.21-15.69h16.23l-4.56,28.68h-10.03l3.58-22.52h-0.09l-9.2,22.52h-9.16l-1.89-22.52h-0.17l-3.57,22.52
			H370.38z"/>
		<path d="M480.84,520.07l-9.51,34.95c-2,0.19-4.51,0.48-8.41,0.48c-18.66,0-16.59-5.62-8.72-36.07
			c8.19-31.66,12.95-37.44,24.61-37.44c11.2,0,11.3,7.56,8.45,17.12h28.45c4.6-17.84,1.53-33.65-31.73-33.65
			c-37.04,0-47.11,7.8-59.05,53.97c-11.12,42.98-7.46,54.39,32.58,54.39c18.98,0,26.93-1.39,38.51-3.5l13.39-50.24H480.84z"/>
		<path d="M548.71,554.53c-3.71,0-5.01-1.12-4.31-4.12l6.46-25.28h38.06l4.3-16.59h-38.08l4.33-16.85
			c1.13-4.41,4.27-8.16,10.39-8.16h30.49l4.29-16.6h-44.29c-18.36,0-23.89,3.28-31.03,30.93l-13.15,50.54
			c-4.04,16.96,1,24.35,14.86,24.35h38.22c7.53,0,12.37-4.01,14.7-10.13l3.14-8.09H548.71z"/>
		<path d="M381.62,466.94h-38.09l-26.54,102.64c-0.46,1.75,0.58,3.18,2.29,3.18h33.93c42.62,0,49.8-8.15,61.5-53.36
			C424.86,480.1,418.6,466.94,381.62,466.94 M357.2,554.68h-7.82l18.4-71.12c2.36-0.01,3.25-0.1,9.11-0.1
			c16.52,0,16.49,5.46,8.6,35.93C377.55,550.23,372.91,554.68,357.2,554.68z"/>
		<path d="M914.61,466.74c-21.95,0-32.15,0.47-38.14,0.2l-26.56,102.64c-0.46,1.75,0.56,3.18,2.28,3.18h25.47l23.07-89.2
			c2.35-0.01,5.92-0.2,9.55-0.2c12.36,0,14,4.4,10.73,17.01l-17.91,69.22c-0.46,1.75,0.57,3.18,2.29,3.18h25.46l18.72-72.39
			C956.03,475.28,945.02,466.74,914.61,466.74"/>
		<path d="M694.11,466.94l-4.4,17.19H718c0.28,0,0.28,0.35,0.03,0.55c-4.51,3.39-7.27,8.25-8.58,13.31l-18.55,71.58
			c-0.45,1.75,0.58,3.18,2.3,3.18h27.32l22.96-88.62h14.01c7.86,0,12.64-3.29,15.3-10.16l2.68-7.04H694.11z"/>
		<path d="M297.75,572.75l26.55-102.63c0.46-1.76-0.58-3.18-2.29-3.18H295.1l-26.55,102.64c-0.46,1.75,0.57,3.18,2.29,3.18H297.75z"
			/>
		<path d="M819.19,465.48c-32.04,0-45.94,5.7-58.53,54.38c-10.89,42.17-2.16,54.37,30.42,54.37c33.14,0,46.24-6.81,58.52-54.37
			C858.5,485.43,856.7,465.48,819.19,465.48 M795.67,556.45c-12.21,0-14.02-4.45-5.51-37.44c7.1-27.45,13.87-37.01,24.77-37.01
			c12.21,0,13.56,6.56,5.68,37.01C812.82,549.17,805.11,556.45,795.67,556.45z"/>
		<path class="st2" d="M56.65,520.64l16.57-58.14c1.61-5.96,8.22-11.42,14.89-11.42h50.69c0.85,0,1.12,1.11,0.47,1.56
			c-26.37,18.03-58.14,44.8-81.19,68.76C57.48,522.02,56.41,521.51,56.65,520.64"/>
		<path d="M96.68,555.54l16.41-57.37c0.24-0.87-0.69-1.5-1.39-0.9c-24.13,20.76-53.25,51.07-71.47,74.01
			c-0.46,0.58-0.23,1.47,0.57,1.47h70.99c29.94,0,46.33-9.28,52.27-31.44c4.84-18.05-4.62-30.36-19.72-33.53
			c-0.27-0.06-0.51-0.57,0-0.66c12.77-2.19,25.66-7.33,30.25-25.97c4.98-20.16-10.44-31.22-28.18-30.08l-27.12,95.01
			c-1.47,5.14-6.97,9.46-12.19,9.46H96.68z"/>
		<path d="M250.97,530.32c-0.95-3.16-1.97-5.45-3.47-7.33c-0.2-0.25-0.24-0.57,0.11-0.69c12.16-3.75,20.12-11.43,23.49-24.45
			c4.45-17.21-6.4-30.92-33.82-30.92h-40.74L170,569.58c-0.46,1.75,0.56,3.18,2.28,3.18h25.46l23.07-89.2
			c2.46-0.01,4.81-0.1,10.68-0.1c9.82,0,13.44,6.06,11.33,14.23c-2.79,10.76-11.13,16.81-21.05,16.81h-3.75l10.6,51.2
			c1.26,4.99,3.77,7.05,9.5,7.05h22.74L250.97,530.32z"/>
		<path d="M597.43,536.9c-10.79,25.78,3.27,37.45,31.89,37.45c26.13,0,40.63-6.21,46.84-30.24c2.13-8.22,0.76-17.07-4.28-22.55
			c-9.78-10.63-28.57-12.61-35.16-18.77c-3.36-3.14-3.33-7.52-2.36-11.28c1.79-6.92,6.44-10.7,13.98-10.7
			c11.8,0,12.11,7.27,9.2,15.89h25.34c5.95-18-1.85-32.12-31.7-32.12c-25.11,0-38.67,9.87-43.53,28.74
			c-1.34,5.18-0.85,13.63,2.25,18.92c6.89,11.82,25.16,13.29,35.27,20.32c4.39,3.05,4.53,7.18,3.36,11.71
			c-2.27,8.81-6.7,13.02-15.5,13.02c-8.48,0-13.56-4.93-8.71-20.37H597.43z"/>
	</g>
</g>
</svg>
