<?xml version="1.0" encoding="utf-8"?>
<!-- Generator: Adobe Illustrator 26.5.0, SVG Export Plug-In . SVG Version: 6.00 Build 0)  -->
<svg version="1.1" id="Layer_1" xmlns="http://www.w3.org/2000/svg" xmlns:xlink="http://www.w3.org/1999/xlink" x="0px" y="0px"
	 viewBox="0 0 1080 1080" style="enable-background:new 0 0 1080 1080;" xml:space="preserve">
<style type="text/css">
	.st0{fill-rule:evenodd;clip-rule:evenodd;}
	.st1{fill:#ED1C24;}
	.st2{fill:#E1251B;}
	.st3{fill-rule:evenodd;clip-rule:evenodd;fill:#16397B;}
	.st4{fill:#EE2745;}
	
		.st5{clip-path:url(#SVGID_00000088854743262749954180000014498318899029402769_);fill:url(#SVGID_00000151506449469124879090000017085476291590334623_);}
	
		.st6{clip-path:url(#SVGID_00000002350465655216964960000003796742790588112568_);fill:url(#SVGID_00000152974327842032246380000012235130887996224186_);}
	
		.st7{clip-path:url(#SVGID_00000034084310464308976990000003985166249286896292_);fill:url(#SVGID_00000153681928003571473450000003833934111131522743_);}
	
		.st8{clip-path:url(#SVGID_00000026134659786003807660000010549204322085406877_);fill:url(#SVGID_00000168828360681523699630000009015043125479756440_);}
	.st9{fill:#424243;}
	
		.st10{clip-path:url(#SVGID_00000136397113814572268660000006822724676168906893_);fill:url(#SVGID_00000081629181964409014970000007592613038932452774_);}
	.st11{fill:#FFFFFF;}
	
		.st12{clip-path:url(#SVGID_00000043423624149658530770000009211435553771641987_);fill:url(#SVGID_00000173850078520460083350000010822038635187613317_);}
	
		.st13{clip-path:url(#SVGID_00000021093803261200757510000017705923168267238329_);fill:url(#SVGID_00000029732669130336614120000008681026085918554791_);}
	
		.st14{clip-path:url(#SVGID_00000147912512787933635710000000633745779829090955_);fill:url(#SVGID_00000013194491499614914810000011529746451441416100_);}
	
		.st15{clip-path:url(#SVGID_00000093860495264902872620000011861661039686116999_);fill:url(#SVGID_00000111189718801187672910000000377991930473478286_);}
	
		.st16{clip-path:url(#SVGID_00000144323799494443720740000016524760250626213011_);fill:url(#SVGID_00000004532880369556051860000003185815877983574675_);}
	
		.st17{clip-path:url(#SVGID_00000082365134254899337150000017980189002771014580_);fill:url(#SVGID_00000083771661188487853530000003643607428229525410_);}
	
		.st18{clip-path:url(#SVGID_00000073680852966547964640000000699175826624083379_);fill:url(#SVGID_00000139273497269456948730000002257294459952195733_);}
	.st19{fill-rule:evenodd;clip-rule:evenodd;fill:#C8202F;}
	.st20{fill-rule:evenodd;clip-rule:evenodd;fill:#FFFFFF;}
	.st21{fill-rule:evenodd;clip-rule:evenodd;fill:#F98238;}
	.st22{filter:url(#Adobe_OpacityMaskFilter);}
	.st23{fill:url(#SVGID_00000179608290655703429070000013816137340034405788_);}
	.st24{mask:url(#SVGID_00000002381459107310943070000000516609555756967071_);fill-rule:evenodd;clip-rule:evenodd;fill:#ED1C24;}
	.st25{fill-rule:evenodd;clip-rule:evenodd;fill:#F5333F;}
	.st26{fill-rule:evenodd;clip-rule:evenodd;fill:#ED1C24;}
	.st27{fill-rule:evenodd;clip-rule:evenodd;fill:#F9A46E;}
	.st28{fill-rule:evenodd;clip-rule:evenodd;fill:#F47B26;}
	.st29{fill-rule:evenodd;clip-rule:evenodd;fill:#EB5433;}
	.st30{fill:#1A3282;}
	.st31{fill-rule:evenodd;clip-rule:evenodd;fill:#1A3282;}
	.st32{fill-rule:evenodd;clip-rule:evenodd;fill:#9D9FA2;}
	.st33{fill-rule:evenodd;clip-rule:evenodd;fill:#000303;}
	.st34{fill:#64003D;}
	.st35{fill:#536270;}
	.st36{fill-rule:evenodd;clip-rule:evenodd;fill:#64003D;}
	.st37{fill-rule:evenodd;clip-rule:evenodd;fill:#536270;}
	.st38{fill-rule:evenodd;clip-rule:evenodd;fill:#1A3382;}
	.st39{fill-rule:evenodd;clip-rule:evenodd;fill:#29387E;}
	.st40{fill-rule:evenodd;clip-rule:evenodd;fill:#F37021;}
	.st41{fill-rule:evenodd;clip-rule:evenodd;fill:#005C32;}
	.st42{fill-rule:evenodd;clip-rule:evenodd;fill:#D2AB67;}
	
		.st43{clip-path:url(#SVGID_00000025434008364341045390000014757246097860388253_);fill:url(#SVGID_00000072270952378838882010000011562498492500904117_);}
	
		.st44{clip-path:url(#SVGID_00000181086687260789768100000015129310115053350305_);fill:url(#SVGID_00000137844723014393491150000009183116829229027231_);}
	
		.st45{clip-path:url(#SVGID_00000003092221035261704870000006645570341642344886_);fill:url(#SVGID_00000145032476491573045740000004075711203068371079_);}
	.st46{fill-rule:evenodd;clip-rule:evenodd;fill:#00AEEF;}
	.st47{fill-rule:evenodd;clip-rule:evenodd;fill:#EC008C;}
	.st48{fill-rule:evenodd;clip-rule:evenodd;fill:#FFF200;}
	.st49{fill:#A7AAAC;}
	.st50{fill-rule:evenodd;clip-rule:evenodd;fill:#5C5B5B;}
	.st51{fill:#9D9D9F;}
	.st52{fill:#F04D23;}
	.st53{fill-rule:evenodd;clip-rule:evenodd;fill:#2E3192;}
	.st54{fill-rule:evenodd;clip-rule:evenodd;fill:#C4312D;}
	.st55{fill:#552715;}
	.st56{fill:#010101;}
	.st57{fill:#E31E2E;}
	.st58{fill:url(#SVGID_00000110454156278955564380000006963916715729564809_);}
	.st59{fill:url(#SVGID_00000072282057589464556690000007213142612727366307_);}
	.st60{clip-path:url(#SVGID_00000178169468591132433650000002607261369514785193_);}
	.st61{clip-path:url(#SVGID_00000072239021919776317490000011981482115952602022_);}
	.st62{clip-path:url(#SVGID_00000183944483123793932630000010332786305504626597_);}
	.st63{clip-path:url(#SVGID_00000125571810605953935550000002147887090294643135_);}
	.st64{clip-path:url(#SVGID_00000066500619252707543320000002510041883885976220_);}
	.st65{clip-path:url(#SVGID_00000131329090167841358050000000548064564523395720_);}
	.st66{clip-path:url(#SVGID_00000093860899692439203470000017956435426356897963_);}
	.st67{clip-path:url(#SVGID_00000047767401418711043460000018316986400860919222_);}
	.st68{clip-path:url(#SVGID_00000158014226811802436770000002642916235500674219_);}
	.st69{clip-path:url(#SVGID_00000147189019247916072960000001765778548108752033_);}
	.st70{clip-path:url(#SVGID_00000124858324073838036400000016904192111582632596_);}
	.st71{fill:#2650A1;}
	.st72{fill:url(#SVGID_00000065053366222731442780000006134265331617922711_);}
	.st73{fill:#FEFEFE;}
	.st74{fill:#FDFDFD;}
	.st75{fill:#FCFCFC;}
	.st76{fill:#FBFBFB;}
	.st77{fill:#FAFAFA;}
	.st78{fill:#F9F9F9;}
	.st79{fill:#F8F8F8;}
	.st80{fill:#F7F7F7;}
	.st81{fill:#F6F6F6;}
	.st82{fill:#F5F5F5;}
	.st83{fill:#F4F4F4;}
	.st84{fill:#F3F3F3;}
	.st85{fill:#F2F2F2;}
	.st86{fill:#F1F1F1;}
	.st87{fill:#F0F0F0;}
	.st88{fill:#EFEFEF;}
	.st89{fill:#EEEEEE;}
	.st90{fill:#EDEDED;}
	.st91{fill:#ECECEC;}
	.st92{fill:#EBEBEB;}
	.st93{fill:#EAEAEA;}
	.st94{fill:#E9E9E9;}
	.st95{fill:#E8E8E8;}
	.st96{fill:#E7E7E7;}
	.st97{fill:#E6E6E6;}
	.st98{fill:#E5E5E5;}
	.st99{fill:#E4E4E4;}
	.st100{fill:#E3E3E3;}
	.st101{fill:#E2E2E2;}
	.st102{fill:#E1E1E1;}
	.st103{fill:#E0E0E0;}
	.st104{fill:#DFDFDF;}
	.st105{fill:#DEDEDE;}
	.st106{fill:#DDDDDD;}
	.st107{fill:#DCDCDC;}
	.st108{fill:#DBDBDB;}
	.st109{fill:#DADADA;}
	.st110{fill:#D9D9D9;}
	.st111{fill:#D92231;}
	.st112{fill:url(#SVGID_00000026137081963049069630000013667782960188424599_);}
	.st113{fill:url(#SVGID_00000000902669789618056840000003884926385273667484_);}
	.st114{opacity:0.8;}
	.st115{fill:url(#SVGID_00000139295108451857905070000002544631638405223072_);}
	.st116{fill:url(#SVGID_00000133524387028870805140000011904564537945585028_);}
	.st117{fill-rule:evenodd;clip-rule:evenodd;fill:#010101;}
	.st118{fill:#80A845;}
	.st119{fill-rule:evenodd;clip-rule:evenodd;fill:#80A845;}
	.st120{fill:url(#SVGID_00000094600359430266638540000005176090974679489723_);}
	.st121{fill-rule:evenodd;clip-rule:evenodd;fill:#04984A;}
	.st122{fill-rule:evenodd;clip-rule:evenodd;fill:url(#SVGID_00000055703531392540449930000002633621129983511943_);}
	.st123{fill:url(#SVGID_00000183250184078448036950000015102598813684609422_);}
	.st124{fill:url(#SVGID_00000010270432961963356150000010813349249253348267_);}
	.st125{fill:url(#SVGID_00000039107532104274359350000000316497104444822443_);}
	.st126{fill:url(#SVGID_00000084495264136229703440000009660845735391991700_);}
	.st127{fill:url(#SVGID_00000177458032269090411670000000625735393868574376_);}
	.st128{fill:url(#SVGID_00000182505192883947787990000006863945979372126360_);}
	.st129{fill:url(#SVGID_00000108268400403080178610000001815765494937063352_);}
	.st130{fill:url(#SVGID_00000101823771192384287060000008089923480520890794_);}
	.st131{fill:url(#SVGID_00000044891859683736431000000010815327170116468373_);}
	.st132{fill:url(#SVGID_00000008844395953308019740000001407833824202422699_);}
	.st133{fill:url(#SVGID_00000165952306201393133090000004323536566540222363_);}
	.st134{fill:url(#SVGID_00000047057619956452702720000015730797782623198624_);}
	.st135{fill:url(#SVGID_00000040547186826868192550000011289965685126538918_);}
	.st136{fill:url(#SVGID_00000168099089810383050060000009138793264098326144_);}
	.st137{fill-rule:evenodd;clip-rule:evenodd;fill:url(#SVGID_00000018957549724826643460000009744664521385920690_);}
	.st138{fill:#0A529D;}
	.st139{fill:url(#SVGID_00000108281575788517995910000013546582977029434772_);}
	.st140{fill:url(#SVGID_00000055696364083011620870000016245494987281692342_);}
	.st141{fill:url(#SVGID_00000094600115325729260230000011635569695764020893_);}
	.st142{fill:url(#SVGID_00000101080933869434972670000004199792617550482871_);}
	.st143{fill:url(#SVGID_00000152256676128762334960000009418381551206808711_);}
	.st144{fill:url(#SVGID_00000029734904885567268440000010467345019249306528_);}
	.st145{fill:url(#SVGID_00000094581419971480516770000013367780955476156091_);}
	.st146{fill:url(#SVGID_00000154397729067945396090000017048613862776901816_);}
	.st147{fill:url(#SVGID_00000037662266051204326450000000285687549673148546_);}
	.st148{fill:url(#SVGID_00000168114270688767861920000010389878220357326736_);}
	.st149{fill:url(#SVGID_00000046297601470979013890000003175174357369503654_);}
	.st150{fill:url(#SVGID_00000107586811795000130230000003540633900929519492_);}
	.st151{fill-rule:evenodd;clip-rule:evenodd;fill:url(#SVGID_00000086691275136307510810000008554658709620012173_);}
	.st152{fill:url(#SVGID_00000137102396578234768760000007078565612330525100_);}
	.st153{fill:url(#SVGID_00000161609279738240106110000001122504101469983147_);}
	.st154{fill:url(#SVGID_00000083080197301692340210000014674527698028044953_);}
	.st155{fill:url(#SVGID_00000021836364124539570050000016055500674034371203_);}
	.st156{fill:url(#SVGID_00000049182918543606499610000006035583518782693267_);}
	.st157{fill:url(#SVGID_00000168111684154711679460000003400045409762846640_);}
	.st158{fill:url(#SVGID_00000105394784788322775580000009404780051257666745_);}
	.st159{fill:url(#SVGID_00000094599295559647087690000008679404047606804623_);}
	.st160{fill:url(#SVGID_00000039839975718585120130000007991493641776906422_);}
	.st161{fill:url(#SVGID_00000029743627339222087580000002317446923148009895_);}
	.st162{fill:url(#SVGID_00000070819783424045124120000003885367813979159481_);}
	.st163{fill:url(#SVGID_00000062888348927037195500000007249099781694486162_);}
	.st164{fill:url(#SVGID_00000005239268702859199320000015454550350964905914_);}
	.st165{fill:url(#SVGID_00000008831569827919278160000003207804270037898635_);}
	.st166{fill:url(#SVGID_00000098932597634403217430000003470020835861956753_);}
	.st167{fill:url(#SVGID_00000181046294546758061130000017379369460591104137_);}
	.st168{fill:url(#SVGID_00000047050893366097322400000000774887131427938477_);}
	.st169{fill-rule:evenodd;clip-rule:evenodd;fill:url(#SVGID_00000027569479054564856190000007554856271460272024_);}
	.st170{fill:url(#SVGID_00000075143477473534865030000005502510873907251361_);}
	.st171{fill:url(#SVGID_00000111172120127827489220000013742200665965952915_);}
	.st172{fill:url(#SVGID_00000118391516006263683130000008028590422145100449_);}
	.st173{fill:url(#SVGID_00000001633956152919780680000013997381726719941284_);}
	.st174{fill:url(#SVGID_00000039844702456563404170000011333860955089031558_);}
	.st175{fill:url(#SVGID_00000049930191081647304950000002305706337271699351_);}
	.st176{fill:url(#SVGID_00000170967162503476375920000008643060147425452180_);}
	.st177{fill:url(#SVGID_00000047050087835920172040000007639372291102042241_);}
	.st178{fill:url(#SVGID_00000093860662794029064780000013424367806749825705_);}
	.st179{fill:url(#SVGID_00000108303121437986530280000015302431453470929079_);}
	.st180{fill:url(#SVGID_00000127755502022304244140000016343221898246369718_);}
	.st181{fill:url(#SVGID_00000114042663371456987360000011234810938132034719_);}
	.st182{fill:url(#SVGID_00000057145823149673611270000011338148274292522909_);}
	.st183{fill:url(#SVGID_00000009581052222604789530000014797594470910538403_);}
	.st184{fill-rule:evenodd;clip-rule:evenodd;fill:url(#SVGID_00000103261949939602202230000006535916707306537407_);}
	.st185{fill:url(#SVGID_00000114036809206367462100000016017188403075060134_);}
	.st186{fill:url(#SVGID_00000106864767175462456850000000160199667357293740_);}
	.st187{fill:url(#SVGID_00000052064584274424021510000009086452898622792360_);}
	.st188{fill:url(#SVGID_00000073720695657057220730000016299840893716194949_);}
	.st189{fill:url(#SVGID_00000129900900243088752580000002336535782102209966_);}
	.st190{fill:url(#SVGID_00000057843734087020073330000017838390882283012750_);}
	.st191{fill:url(#SVGID_00000158710961124953450680000009518688887261690793_);}
	.st192{fill:url(#SVGID_00000125567411206930021800000003094838266271627915_);}
	.st193{fill:url(#SVGID_00000048466285932330715910000013796703228738059140_);}
	.st194{fill:url(#SVGID_00000176040446008335423270000017001299677790835860_);}
	.st195{fill:url(#SVGID_00000162328599600606774700000007817688643442665861_);}
	.st196{fill:url(#SVGID_00000079478455616296611240000005877012979386567315_);}
	.st197{fill:url(#SVGID_00000107571013426307321950000005796105892208041138_);}
	.st198{fill:url(#SVGID_00000000183070045808588780000008211419142942073012_);}
	.st199{fill:url(#SVGID_00000144304681265647969350000006660277082525907358_);}
	.st200{fill:url(#SVGID_00000072267733438312049650000000939682648104584601_);}
	.st201{fill:url(#SVGID_00000009549886662702575390000016523285045016315008_);}
	.st202{fill:url(#SVGID_00000143594740142511160730000014304012036917240484_);}
	.st203{fill:url(#SVGID_00000121994219018231364740000017981959183617900459_);}
	.st204{fill-rule:evenodd;clip-rule:evenodd;fill:url(#SVGID_00000169548861686435536990000000336471468734322838_);}
	.st205{fill:url(#SVGID_00000103255133484078363940000016921445585265104000_);}
	.st206{fill:url(#SVGID_00000068653065502869373660000001437222914140308136_);}
	.st207{fill:url(#SVGID_00000001646087571956819390000015621814520284028340_);}
	.st208{fill:url(#SVGID_00000127028300552908235020000009279510430435336067_);}
	.st209{fill:url(#SVGID_00000012459861919040013450000004045755969445933218_);}
	.st210{fill:url(#SVGID_00000099660186636045491600000013423132825012717968_);}
	.st211{fill:url(#SVGID_00000094595595749107648540000007899747838287237785_);}
	.st212{fill:url(#SVGID_00000038413269266226098390000016943665802864073407_);}
	.st213{fill:url(#SVGID_00000175292719577589966540000017238498860124039849_);}
	.st214{fill:url(#SVGID_00000170275461008927468170000014008983898074617249_);}
	.st215{fill:url(#SVGID_00000179629001262761056930000006617979171469139081_);}
	.st216{fill:url(#SVGID_00000139989645833054725130000002549757740355877819_);}
	.st217{fill:url(#SVGID_00000045620336679900150630000012211589505527495331_);}
	.st218{fill:url(#SVGID_00000110459815243880365430000007797756309030279554_);}
	.st219{fill:url(#SVGID_00000070813323202697762650000004588971298688468109_);}
	.st220{fill:url(#SVGID_00000155858022339054899270000001314220701636498341_);}
	.st221{fill-rule:evenodd;clip-rule:evenodd;fill:url(#SVGID_00000151528475480831545620000002731123858014821523_);}
	.st222{fill:url(#SVGID_00000033337698035316051700000005280205108846708150_);}
	.st223{fill:url(#SVGID_00000118395719225590639850000016475030250941309627_);}
	.st224{fill:url(#SVGID_00000089535358398534344150000008831396507996177071_);}
	.st225{fill:url(#SVGID_00000160189663136032478090000013128883620022860944_);}
	.st226{fill:url(#SVGID_00000082363171809547616790000000242987774430142085_);}
	.st227{fill:url(#SVGID_00000147214451988668999630000005445475795677764003_);}
	.st228{fill:url(#SVGID_00000113334468837974160950000011146836538134289542_);}
	.st229{fill:url(#SVGID_00000085961856221940875980000016648344147108117897_);}
	.st230{fill:url(#SVGID_00000042723871881022641500000002556423491224952705_);}
	.st231{fill:url(#SVGID_00000121243749169815122130000014369505416209893549_);}
	.st232{fill:url(#SVGID_00000036238940853953090820000017454480665139984001_);}
	.st233{fill:url(#SVGID_00000003066083080247877850000003114421936160570754_);}
	.st234{fill:url(#SVGID_00000088125734204698292730000009996497586363282605_);}
	.st235{fill:url(#SVGID_00000114776284103386792040000000232534170674809791_);}
	.st236{fill:url(#SVGID_00000083801469417860609740000010238922202975262085_);}
	.st237{fill-rule:evenodd;clip-rule:evenodd;fill:url(#SVGID_00000073681551892236354840000003092547721211266227_);}
	.st238{fill:url(#SVGID_00000163032364019228533920000017805547019087582850_);}
	.st239{fill:url(#SVGID_00000178899501713919484080000012747221965949524362_);}
	.st240{fill:url(#SVGID_00000049211842672501707890000010689087685207768739_);}
	.st241{fill:url(#SVGID_00000158724409739092766950000012833963238374529211_);}
	.st242{fill:url(#SVGID_00000132772223307841685520000004930437619274293157_);}
	.st243{fill:url(#SVGID_00000003106985105010103950000003888246773095352465_);}
	.st244{fill:url(#SVGID_00000062893808360394441060000018386876682131250079_);}
	.st245{fill:url(#SVGID_00000141443164785297189220000018046194671092080013_);}
	.st246{fill:url(#SVGID_00000117659235283894010070000008854312362776199592_);}
	.st247{fill:url(#SVGID_00000132789778269618547180000014130162988536180864_);}
	.st248{fill:url(#SVGID_00000036953510012584425280000004449412911454505656_);}
	.st249{fill:url(#SVGID_00000037680483887869385480000003191913011738178188_);}
	.st250{fill:url(#SVGID_00000063626293168328187330000001195274613281771148_);}
	.st251{fill:url(#SVGID_00000018954713841027135870000001159016058140308139_);}
	.st252{fill:url(#SVGID_00000066500747058594628090000018363891539335396015_);}
	.st253{fill-rule:evenodd;clip-rule:evenodd;fill:url(#SVGID_00000160890449153689599400000008358777345508721072_);}
	.st254{fill:url(#SVGID_00000158026796329070403710000010643461699175579265_);}
	.st255{fill:url(#SVGID_00000013187968023186104330000014713184168097912737_);}
	.st256{fill:url(#SVGID_00000111159449049192664440000005135595511730323903_);}
	.st257{fill:url(#SVGID_00000078038945098453479120000017475650563960573599_);}
	.st258{fill:url(#SVGID_00000180361376297618802790000007377937953818939824_);}
	.st259{fill:url(#SVGID_00000000933926422566882680000017754384853016392837_);}
	.st260{fill:url(#SVGID_00000052080121821227783590000017220736327241068468_);}
	.st261{fill:url(#SVGID_00000162335713998224758530000016804648463296922259_);}
	.st262{fill:url(#SVGID_00000069392204953973587580000014950252204138466192_);}
	.st263{fill:url(#SVGID_00000083059013294482490860000012021619510221757859_);}
	.st264{fill:url(#SVGID_00000121270216979008540890000014131332094714432928_);}
	.st265{fill:url(#SVGID_00000165934405764856350400000002666199511677011615_);}
	.st266{fill:url(#SVGID_00000036248306624087780000000000880976102462371207_);}
	.st267{fill:url(#SVGID_00000017512940104814984610000010603518953659366016_);}
	.st268{fill:url(#SVGID_00000163757111764588484670000005093847088129901730_);}
	.st269{fill-rule:evenodd;clip-rule:evenodd;fill:url(#SVGID_00000083781574903394575370000001299954132132504510_);}
	.st270{fill:url(#SVGID_00000145049791513500686680000008068872325858037650_);}
	.st271{fill:url(#SVGID_00000099653076049703808210000001662470912469843131_);}
	.st272{fill:url(#SVGID_00000088098330909601504680000016426678275383917749_);}
	.st273{fill:url(#SVGID_00000008132988796773588480000010401764199324923290_);}
	.st274{fill:url(#SVGID_00000135663123113242323620000005327497648327648919_);}
	.st275{fill:url(#SVGID_00000029727998461412218510000016100046937505676211_);}
	.st276{fill:url(#SVGID_00000173142599402134876130000009349190331767123106_);}
	.st277{fill:url(#SVGID_00000058551953872437096560000007900993093812446598_);}
	.st278{fill:url(#SVGID_00000014607398889727687240000003543278074156630186_);}
	.st279{fill:url(#SVGID_00000125591380002790947220000013277200524749323194_);}
	.st280{fill:url(#SVGID_00000027578425812227133380000000982784448759760302_);}
	.st281{fill:url(#SVGID_00000056413690583645794350000010339379037711626155_);}
	.st282{fill:url(#SVGID_00000173857571936206751400000017432816788085669774_);}
	.st283{fill:url(#SVGID_00000181084346118485085270000003878318721115145367_);}
	.st284{fill:url(#SVGID_00000008124537021217200060000012437681254508318898_);}
	.st285{fill-rule:evenodd;clip-rule:evenodd;fill:url(#SVGID_00000178916905416797140380000009906846560257811382_);}
	.st286{fill:url(#SVGID_00000138545527976427953880000006530944250855717775_);}
	.st287{fill:url(#SVGID_00000021100617149405664940000004811587497050134430_);}
	.st288{fill:url(#SVGID_00000003085194612664360480000016723583172283319724_);}
	.st289{fill:url(#SVGID_00000165218888830819527220000017007938093278736299_);}
	.st290{fill:url(#SVGID_00000103971473391365459110000002981521865654777020_);}
	.st291{fill:url(#SVGID_00000049221569659332809250000009271550972747161244_);}
	.st292{fill:url(#SVGID_00000111165593343796270550000011977887925438032060_);}
	.st293{fill:url(#SVGID_00000156560401490204880660000005892735471729687172_);}
	.st294{fill:url(#SVGID_00000173843889056671333290000013079785129352312965_);}
	.st295{fill:url(#SVGID_00000020394913933247253510000015891860527607380866_);}
	.st296{fill:url(#SVGID_00000002348936202752846670000010431834665166510228_);}
	.st297{fill:url(#SVGID_00000090254087290988534830000013915475770951558287_);}
	.st298{fill:url(#SVGID_00000054944397326207322180000011628865045406731170_);}
	.st299{fill:url(#SVGID_00000030478534509161456130000006779285438479871106_);}
	.st300{fill:url(#SVGID_00000010285976706910853020000015962242641094927547_);}
	.st301{fill:url(#SVGID_00000115480077879382321650000012619024279090382727_);}
	.st302{fill:url(#SVGID_00000181799704027322046730000002788077995452990910_);}
	.st303{fill:url(#SVGID_00000017498489407111506900000012762060612832669605_);}
	.st304{fill-rule:evenodd;clip-rule:evenodd;fill:url(#SVGID_00000101798840467987426430000013648108162869422772_);}
	.st305{fill:url(#SVGID_00000154418979513472291210000012796626719977508489_);}
	.st306{fill:url(#SVGID_00000179606228419600747620000007913028426486422927_);}
	.st307{fill:url(#SVGID_00000149354763799685649100000011050603890145969849_);}
	.st308{fill:url(#SVGID_00000116957457388382580640000001058038470857330586_);}
	.st309{fill:url(#SVGID_00000049910119881570569860000004156166507997639070_);}
	.st310{fill:url(#SVGID_00000130614203856293367530000011736502163543716284_);}
	.st311{fill:url(#SVGID_00000132806610154409847250000014220868881802799036_);}
	.st312{fill:url(#SVGID_00000125595751359734653930000005167673140298302356_);}
	.st313{fill:url(#SVGID_00000120547929457983178820000010652999677236941726_);}
	.st314{fill:url(#SVGID_00000146464594024102657660000014112501191380487573_);}
	.st315{fill:url(#SVGID_00000069374609392758699910000007033952581713914522_);}
	.st316{fill:url(#SVGID_00000032612256584181970350000011453978249893997184_);}
	.st317{fill:url(#SVGID_00000060743072996392596790000009130193912201669770_);}
	.st318{fill:url(#SVGID_00000116201740511234251760000013692175717283702463_);}
	.st319{fill:url(#SVGID_00000049931525442421758230000005103675111800796580_);}
	.st320{fill:url(#SVGID_00000078011935572833106950000009364764569072226217_);}
	.st321{fill:url(#SVGID_00000108276478700284378040000011192775568325002651_);}
	.st322{fill:url(#SVGID_00000174599634269380288210000015232196400129814930_);}
	.st323{fill:url(#SVGID_00000125575473686573437860000013171396818846786472_);}
	.st324{fill:url(#SVGID_00000124846261278429118820000007768853446862669216_);}
	.st325{fill-rule:evenodd;clip-rule:evenodd;fill:url(#SVGID_00000023281707011431590230000010957955450113725352_);}
	.st326{fill:url(#SVGID_00000060711918547912466350000007471314757734724019_);}
	.st327{fill:url(#SVGID_00000172414021458436037880000003259611215373258941_);}
	.st328{fill:url(#SVGID_00000085945787790663231310000012964025486654897307_);}
	.st329{fill:url(#SVGID_00000111872486634138503360000005799995546082120882_);}
	.st330{fill:url(#SVGID_00000127030611869316463150000017051317152692606885_);}
	.st331{fill:url(#SVGID_00000123408338749859787180000005884542546455222152_);}
	.st332{fill:url(#SVGID_00000040574853307679235790000014009233319173769619_);}
	.st333{fill:url(#SVGID_00000027589332189514763600000009683583989891336122_);}
	.st334{fill:url(#SVGID_00000148629570618870596610000008897953063544555669_);}
	.st335{fill:url(#SVGID_00000031892764674454233020000012209612418245422477_);}
	.st336{fill:url(#SVGID_00000024719692491619417540000005697872170482729143_);}
	.st337{fill:url(#SVGID_00000160174728259324533360000003120727320948390023_);}
	.st338{fill:url(#SVGID_00000148640548261713269800000009649272001766133934_);}
	.st339{fill:url(#SVGID_00000165219494914040257270000008576979705207657918_);}
	.st340{fill:url(#SVGID_00000004537810388106060880000013373831316035464371_);}
	.st341{fill:url(#SVGID_00000104694182745846642660000006819719595261314197_);}
	.st342{fill-rule:evenodd;clip-rule:evenodd;fill:url(#SVGID_00000003789375932089787580000015949235116722328475_);}
	.st343{fill:url(#SVGID_00000165927272621590507500000002363039071047141792_);}
	.st344{fill:url(#SVGID_00000159461633028644518090000001911201595731480253_);}
	.st345{fill:url(#SVGID_00000034089375325207782700000017166537964609867940_);}
	.st346{fill:url(#SVGID_00000093885173308969346160000004142347932642219137_);}
	.st347{fill:url(#SVGID_00000160878970053307598280000005101250016339836816_);}
	.st348{fill:url(#SVGID_00000031202170308022688280000010022506115221216939_);}
	.st349{fill:url(#SVGID_00000101795336463569079820000014138077322524246705_);}
	.st350{fill:url(#SVGID_00000067209231880395691110000016621729934427452348_);}
	.st351{fill:url(#SVGID_00000050628999491164782620000016121152925361802421_);}
	.st352{fill:url(#SVGID_00000150789321151889238070000005131675343634018176_);}
	.st353{fill:url(#SVGID_00000026879878450908586060000001031323611959337876_);}
	.st354{fill:url(#SVGID_00000065754891990930563980000003814055123956485789_);}
	.st355{fill:url(#SVGID_00000163059849949658859910000005659017072688088969_);}
	.st356{fill:url(#SVGID_00000009575736224986515370000012383242635671496576_);}
	.st357{fill:url(#SVGID_00000045604389126125940140000012130800030294893962_);}
	.st358{fill:url(#SVGID_00000078017028085837242680000010558326914942180994_);}
	.st359{fill:url(#SVGID_00000111152125082274731140000016850461028061583756_);}
	.st360{fill:url(#SVGID_00000017517178185781080150000003246767082813762967_);}
	.st361{fill:url(#SVGID_00000095319649492570193450000017354266517207035563_);}
	.st362{fill:url(#SVGID_00000013905312590366243960000006107642466665726094_);}
	.st363{fill:#C1282D;}
	.st364{fill-rule:evenodd;clip-rule:evenodd;fill:url(#SVGID_00000139284724695486639280000006519618734980174495_);}
	.st365{fill:url(#SVGID_00000129201319612947229370000002428237525420623024_);}
	.st366{fill:url(#SVGID_00000064332799524582543360000016637423551632092084_);}
	.st367{fill:url(#SVGID_00000100380439621723920210000002596363522032714932_);}
	.st368{fill:url(#SVGID_00000140009573435063230590000008824080898998644411_);}
	.st369{fill:url(#SVGID_00000178902755017524890640000015541108338293726895_);}
	.st370{fill:url(#SVGID_00000179642494222235309100000001411134461167479207_);}
	.st371{fill:url(#SVGID_00000112601397189051034060000000178651874256226699_);}
	.st372{fill:url(#SVGID_00000008843221095136498080000008386791733988014757_);}
	.st373{fill:url(#SVGID_00000121276966577191881360000012088465516026226579_);}
	.st374{fill:url(#SVGID_00000023979820040792220290000006566213751154242184_);}
	.st375{fill:url(#SVGID_00000107567311313119868950000016323952848894609301_);}
	.st376{fill:url(#SVGID_00000132085394628200267380000013562422038338818239_);}
	.st377{fill:url(#SVGID_00000147211937070190639790000004088288729262535068_);}
	.st378{fill:url(#SVGID_00000007386541898161704380000016491852335828369034_);}
	.st379{fill:url(#SVGID_00000165198384020568836810000002874813953078366370_);}
	.st380{fill:url(#SVGID_00000061447385211440869720000010897281945253551512_);}
	.st381{fill-rule:evenodd;clip-rule:evenodd;fill:url(#SVGID_00000128462188316556576750000003241858596315878791_);}
	.st382{fill:url(#SVGID_00000126295250905516256570000017216398133198599552_);}
	.st383{fill:url(#SVGID_00000029746106579027564090000014960186087413802163_);}
	.st384{fill:url(#SVGID_00000164511824361571243840000006972236604140472473_);}
	.st385{fill:url(#SVGID_00000136372748642007398180000003117515130082713986_);}
	.st386{fill:url(#SVGID_00000149365156220153831880000013042937436316280740_);}
	.st387{fill:url(#SVGID_00000084495645302334112690000012024749645228630964_);}
	.st388{fill:url(#SVGID_00000079461498564872243180000000808440599050848152_);}
	.st389{fill:url(#SVGID_00000063598197750466245060000000229640772007508140_);}
	.st390{fill:url(#SVGID_00000074435019045599107640000006600042150115106204_);}
	.st391{fill:url(#SVGID_00000084525398315076936740000002686197760507039884_);}
	.st392{fill:url(#SVGID_00000010990920243922980050000000019676563947640200_);}
	.st393{fill:url(#SVGID_00000080897693141434061670000001598496168283802017_);}
	.st394{fill:url(#SVGID_00000150796568151116418180000012115149649499795861_);}
	.st395{fill:url(#SVGID_00000183928816261532873010000000043367830355498943_);}
	.st396{fill:url(#SVGID_00000153694598025401043030000017909197486948727683_);}
	.st397{fill:url(#SVGID_00000007430597509156126050000016953001131074094511_);}
	.st398{fill:url(#SVGID_00000036233837249071936890000001981854249024742785_);}
	.st399{fill:url(#SVGID_00000049191314394578122080000001587369449797566646_);}
	.st400{fill:url(#SVGID_00000038408544278750228020000013483979562881336481_);}
	.st401{fill:url(#SVGID_00000175284361841039777500000012481196993574100117_);}
</style>
<g>
	<g>
		<ellipse class="st11" cx="540" cy="467.65" rx="228.23" ry="113.25"/>
		<g>
			<path class="st121" d="M756.85,502.92C726.95,548.21,641.19,580.9,540,580.9c-101.74,0-187.89-33.04-217.34-78.75l2.23-0.7
				l10.5-3.28l74.15-23.27l-6.98,19.4c-0.59,1.64,1.08,3.21,2.69,2.51l65.46-28.26l-22.19,32.83c-1.22,1.78,0.87,3.98,2.72,2.83
				l65.7-40.58v24.63c0,1.74,2.09,2.65,3.38,1.43l6.73-6.39l10.61,24.63c0.66,1.54,2.83,1.64,3.63,0.14l17.2-32.83l79.83,40.37
				c1.81,0.94,3.7-1.19,2.55-2.9l-21.04-31.54c-0.49-0.7-0.45-1.64,0.07-2.3l9.07-12.32l10.57,13.15c0.94,1.15,2.72,0.94,3.38-0.38
				l5.58-11.34l48.33,35.69c1.12,0.8,2.72,0.28,3.11-1.05l5.02-16.54l51.71,16.71c0.03,0,0.07,0.03,0.07,0.03
				C756.78,502.88,756.82,502.88,756.85,502.92z"/>
			
				<linearGradient id="SVGID_00000166673616643497749300000011533363367651081143_" gradientUnits="userSpaceOnUse" x1="446.2885" y1="358.5335" x2="671.2387" y2="615.4925">
				<stop  offset="0" style="stop-color:#3E76BB"/>
				<stop  offset="1" style="stop-color:#06509E"/>
			</linearGradient>
			<path style="fill-rule:evenodd;clip-rule:evenodd;fill:url(#SVGID_00000166673616643497749300000011533363367651081143_);" d="
				M768.23,467.84c0,1.08-0.03,2.13-0.1,3.18c-0.03,0.91-0.1,1.78-0.21,2.65c-0.07,0.8-0.17,1.6-0.28,2.41
				c-0.07,0.56-0.17,1.12-0.28,1.67c-0.31,1.95-0.77,3.91-1.33,5.83c-0.17,0.7-0.38,1.4-0.59,2.06c-0.07,0.24-0.14,0.49-0.24,0.73
				c-0.28,0.87-0.59,1.74-0.91,2.58c-0.24,0.66-0.52,1.36-0.84,2.02c-0.07,0.21-0.17,0.45-0.28,0.66l-0.1-0.03l-0.07-0.03
				l-147-71.32c-0.91-0.42-1.99-0.14-2.55,0.7l-19.75,29.48l-52.62-64.65c-0.73-0.84-1.99-0.98-2.83-0.24l-73.1,61.27l-34.65-3.31
				c-0.56-0.07-1.12,0-1.64,0.24c-9.53,4.29-105.51,47.77-110.99,50.24c-0.24-0.45-0.45-0.87-0.63-1.33
				c-0.28-0.63-0.56-1.29-0.84-1.95c-0.56-1.33-1.08-2.69-1.5-4.01c-0.28-0.8-0.52-1.57-0.73-2.37c-0.8-2.58-1.36-5.2-1.74-7.85
				c-0.28-1.74-0.45-3.52-0.56-5.3c-0.07-1.08-0.1-2.2-0.1-3.31c0-62.63,102.16-113.43,228.23-113.43
				C666.06,354.4,768.23,405.21,768.23,467.84z"/>
			<g>
				<path class="st11" d="M411.82,526.49c0.32,0,0.63-0.06,0.92-0.18c0.3-0.12,0.49-0.3,0.57-0.52H414l-1.19,4.32
					c-0.2,0.6-0.78,0.9-1.76,0.9h-1.76l-3.34,13.45c-0.04,0.19,0.05,0.38,0.27,0.58c0.22,0.2,0.44,0.3,0.66,0.3l-0.21,0.65h-8.29
					c-0.64,0-0.95-0.3-0.95-0.9c0-0.07,0.02-0.23,0.06-0.45l3.37-13.62h-2.06c-0.32,0-0.58,0.07-0.79,0.21
					c-0.21,0.14-0.35,0.33-0.43,0.55h-0.75l1.19-4.52c0.08-0.26,0.24-0.46,0.48-0.58c0.24-0.12,0.62-0.18,1.13-0.18H411.82z"/>
				<path class="st11" d="M421.3,545.99c-0.52,0-0.9-0.08-1.15-0.24c-0.25-0.16-0.39-0.44-0.43-0.83l-0.27-2.88H416l-1.22,2.32
					c-0.02,0.06-0.03,0.1-0.03,0.14c0,0.04-0.01,0.11-0.03,0.23c0,0.17,0.08,0.32,0.25,0.44c0.17,0.12,0.36,0.18,0.58,0.18
					l-0.15,0.65h-6.47c-0.83,0-1.25-0.31-1.25-0.93c0-0.17,0.05-0.35,0.15-0.54l8.77-16.11c0.06-0.11,0.09-0.25,0.09-0.42
					c0-0.21-0.09-0.4-0.28-0.58c-0.19-0.18-0.39-0.27-0.61-0.27l0.18-0.65h8.89c0.46,0,0.84,0.12,1.16,0.35s0.48,0.57,0.48,1
					l1.37,16.51c0,0.24,0.14,0.47,0.42,0.68c0.28,0.21,0.57,0.31,0.86,0.31l-0.15,0.65H421.3z M417.76,538.24h1.7l-0.24-3.16
					L417.76,538.24z"/>
				<path class="st11" d="M446.29,526.46c1.33,0,2.36,0.33,3.09,0.99c0.73,0.66,1.09,1.49,1.09,2.49c0,0.15-0.01,0.32-0.04,0.51
					s-0.05,0.33-0.07,0.42c-0.46,2.07-1.39,3.33-2.8,3.76c0.58,0.34,1,0.71,1.27,1.12c0.27,0.41,0.4,1,0.4,1.79
					c0,0.72-0.15,1.71-0.45,3c-0.52,2.13-1.31,3.59-2.39,4.38c-0.97,0.72-2.47,1.07-4.5,1.07h-11.84c-0.34,0-0.59-0.09-0.76-0.27
					c-0.17-0.18-0.25-0.42-0.25-0.72c0-0.11,0.02-0.26,0.06-0.45l4.06-16.53c0.04-0.21-0.04-0.41-0.24-0.59
					c-0.2-0.19-0.42-0.28-0.66-0.28l0.18-0.65L446.29,526.46z M439.29,541.61c0.54,0,0.91-0.12,1.12-0.35
					c0.21-0.24,0.41-0.77,0.61-1.6c0.14-0.53,0.21-0.96,0.21-1.3c0-0.64-0.37-0.96-1.1-0.96h-0.83l-1.01,4.21H439.29z M441.4,533.64
					c0.34,0,0.58-0.09,0.72-0.27s0.27-0.5,0.39-0.98s0.18-0.81,0.18-1.02c0-0.49-0.29-0.73-0.86-0.73h-0.89l-0.72,3H441.4z"/>
				<path class="st11" d="M461.8,545.99c-0.52,0-0.9-0.08-1.15-0.24c-0.25-0.16-0.39-0.44-0.43-0.83l-0.27-2.88h-3.46l-1.22,2.32
					c-0.02,0.06-0.03,0.1-0.03,0.14c0,0.04-0.01,0.11-0.03,0.23c0,0.17,0.08,0.32,0.25,0.44c0.17,0.12,0.36,0.18,0.58,0.18
					l-0.15,0.65h-6.47c-0.83,0-1.25-0.31-1.25-0.93c0-0.17,0.05-0.35,0.15-0.54l8.77-16.11c0.06-0.11,0.09-0.25,0.09-0.42
					c0-0.21-0.09-0.4-0.28-0.58c-0.19-0.18-0.39-0.27-0.61-0.27l0.18-0.65h8.89c0.46,0,0.84,0.12,1.16,0.35s0.48,0.57,0.48,1
					l1.37,16.51c0,0.24,0.14,0.47,0.42,0.68c0.28,0.21,0.57,0.31,0.86,0.31l-0.15,0.65H461.8z M458.25,538.24h1.7l-0.24-3.16
					L458.25,538.24z"/>
				<path class="st11" d="M480.56,537.4l-1.7,6.95l-0.03,0.23c0,0.21,0.1,0.39,0.3,0.54c0.2,0.15,0.41,0.23,0.63,0.23l-0.15,0.65
					h-8.32c-0.66,0-0.98-0.3-0.98-0.9c0-0.09,0.02-0.25,0.06-0.48l4.08-16.59c0.04-0.19-0.05-0.38-0.27-0.58s-0.44-0.3-0.66-0.3
					l0.21-0.65h8.29c0.64,0,0.95,0.3,0.95,0.9c0,0.07-0.02,0.23-0.06,0.45l-1.43,5.79h2.12l1.37-5.62c0.04-0.19-0.04-0.38-0.24-0.58
					s-0.41-0.3-0.63-0.3l0.15-0.65h8.29c0.34,0,0.58,0.08,0.73,0.24c0.15,0.16,0.22,0.39,0.22,0.69l-0.06,0.42l-4.06,16.62
					c-0.04,0.19,0.05,0.38,0.27,0.58s0.44,0.3,0.66,0.3l-0.21,0.65h-8.29c-0.64,0-0.95-0.3-0.95-0.9c0-0.07,0.02-0.23,0.06-0.45
					l1.76-7.24H480.56z"/>
				<path class="st11" d="M519.2,533.05c1.49,0,2.66,0.39,3.52,1.16c0.86,0.77,1.28,1.88,1.28,3.33c0,0.77-0.12,1.62-0.36,2.54
					c-0.24,0.92-0.53,1.78-0.86,2.57c-0.56,1.32-1.3,2.2-2.22,2.66c-0.92,0.45-2.27,0.68-4.04,0.68h-12.08
					c-0.34,0-0.59-0.09-0.76-0.27c-0.17-0.18-0.25-0.42-0.25-0.72c0-0.11,0.02-0.26,0.06-0.45l4.06-16.53
					c0.04-0.21-0.04-0.41-0.24-0.59c-0.2-0.19-0.42-0.28-0.66-0.28l0.18-0.65h18.4l-0.83,3.11c-0.1,0.38-0.38,0.68-0.83,0.92
					s-0.91,0.35-1.37,0.35h-6.92l-0.54,2.18H519.2z M512.7,541.47h0.98c0.48,0,0.82-0.14,1.03-0.42c0.21-0.28,0.43-0.87,0.67-1.75
					c0.12-0.49,0.18-0.89,0.18-1.22c0-0.62-0.31-0.93-0.92-0.93h-0.89L512.7,541.47z"/>
				<path class="st11" d="M539,526.49c1.75,0,3.19,0.43,4.32,1.29s1.7,2.07,1.7,3.63c0,0.57-0.07,1.11-0.21,1.64l-1.79,7.18
					c-0.52,2.13-1.41,3.65-2.68,4.55c-1.11,0.81-2.64,1.22-4.59,1.22h-6.11c-1.87,0-3.26-0.4-4.16-1.2c-0.9-0.8-1.36-1.98-1.36-3.55
					c0-0.92,0.13-1.88,0.39-2.88l1.31-5.34c0.52-2.05,1.26-3.59,2.24-4.61c1.25-1.28,3.01-1.92,5.28-1.92H539z M532.56,539.94
					c-0.06,0.26-0.09,0.49-0.09,0.68c0,0.47,0.28,0.71,0.83,0.71c0.38,0,0.66-0.08,0.85-0.24c0.19-0.16,0.33-0.45,0.43-0.86
					l1.97-7.94c0.04-0.23,0.06-0.38,0.06-0.45c0-0.55-0.29-0.82-0.86-0.82c-0.64,0-1.06,0.38-1.28,1.13L532.56,539.94z"/>
				<path class="st11" d="M551.94,543.84c-0.06,0.21-0.09,0.41-0.09,0.62c0,0.23,0.11,0.43,0.34,0.61c0.23,0.18,0.46,0.27,0.7,0.27
					l-0.15,0.65h-8.47c-0.34,0-0.59-0.09-0.76-0.27c-0.17-0.18-0.25-0.42-0.25-0.72c0-0.11,0.02-0.26,0.06-0.45l4.06-16.53
					c0.04-0.21-0.04-0.41-0.24-0.59c-0.2-0.19-0.42-0.28-0.66-0.28l0.18-0.65h15.15l-0.78,3.17c-0.1,0.41-0.32,0.74-0.67,0.99
					c-0.35,0.24-0.75,0.37-1.21,0.37h-4.11L551.94,543.84z"/>
				<path class="st11" d="M573.77,540.59c0.1,0.58,0.38,0.88,0.83,0.88h0.75l-0.78,3.22c-0.14,0.55-0.42,0.91-0.83,1.1
					c-0.32,0.13-0.84,0.2-1.58,0.2h-15.8c-0.81,0-1.22-0.31-1.22-0.93l0.06-0.45l0.75-3.14h0.81c0.28,0,0.52-0.08,0.73-0.24
					c0.21-0.16,0.36-0.35,0.46-0.58l6.02-12.21l0.06-0.51c0-0.23-0.08-0.41-0.24-0.57c-0.16-0.15-0.36-0.23-0.6-0.23l0.15-0.65h7.22
					c0.42,0,0.77,0.11,1.06,0.33c0.29,0.22,0.45,0.48,0.49,0.81L573.77,540.59z M565.69,537.91l-1.46,3.56h1.7L565.69,537.91z"/>
				<path class="st11" d="M594.2,543.84c-0.06,0.21-0.09,0.41-0.09,0.62c0,0.23,0.11,0.43,0.34,0.61c0.23,0.18,0.46,0.27,0.7,0.27
					l-0.15,0.65h-8.47c-0.34,0-0.59-0.09-0.76-0.27c-0.17-0.18-0.25-0.42-0.25-0.72c0-0.11,0.02-0.26,0.06-0.45l4.06-16.53
					c0.04-0.21-0.04-0.41-0.24-0.59c-0.2-0.19-0.42-0.28-0.66-0.28l0.18-0.65h15.15l-0.78,3.17c-0.1,0.41-0.32,0.74-0.67,0.99
					c-0.35,0.24-0.75,0.37-1.21,0.37h-4.11L594.2,543.84z"/>
				<path class="st11" d="M617.66,526.49c1.83,0,3.21,0.35,4.14,1.05c0.93,0.7,1.4,1.8,1.4,3.31c0,0.41-0.02,0.79-0.06,1.13
					c-0.04,0.34-0.13,0.76-0.27,1.27c-0.64,2.6-1.35,4.32-2.15,5.16c-0.8,0.84-2.1,1.26-3.91,1.26h-6.14l-1.1,4.44l-0.09,0.54
					c0,0.21,0.09,0.38,0.27,0.51c0.18,0.13,0.39,0.2,0.63,0.2l-0.18,0.65h-8.23c-0.34,0-0.59-0.09-0.76-0.27
					c-0.17-0.18-0.25-0.42-0.25-0.72c0-0.11,0.02-0.26,0.06-0.45l4.06-16.53c0.04-0.21-0.04-0.41-0.24-0.59
					c-0.2-0.19-0.42-0.28-0.66-0.28l0.18-0.65H617.66z M611.82,535.14h0.92c0.5,0,0.86-0.15,1.1-0.44s0.46-0.85,0.66-1.68
					c0.12-0.49,0.18-0.88,0.18-1.16c0-0.38-0.08-0.64-0.25-0.78c-0.17-0.14-0.42-0.21-0.76-0.21h-0.81L611.82,535.14z"/>
				<path class="st11" d="M623.84,528.1c-0.08-0.24-0.22-0.47-0.43-0.66c-0.21-0.2-0.43-0.3-0.67-0.3l0.18-0.65h7.45
					c0.28,0,0.57,0.13,0.86,0.4c0.3,0.26,0.5,0.58,0.6,0.96l1.25,4.89l2.18-3.82c0.16-0.21,0.24-0.47,0.24-0.79
					c0-0.26-0.09-0.49-0.28-0.69s-0.4-0.3-0.64-0.3l0.15-0.65h6.23c0.32,0,0.59,0.1,0.82,0.3c0.23,0.2,0.34,0.42,0.34,0.66
					c0,0.3-0.06,0.54-0.18,0.71l-9.93,16.51c-0.54,0.89-1.42,1.33-2.65,1.33h-3.7c-0.4,0-0.74-0.15-1.03-0.44
					c-0.29-0.29-0.43-0.57-0.43-0.83c0-0.34,0.04-0.67,0.12-0.99l0.54-2.26h1.1c0.8,0,1.35-0.32,1.67-0.96l0.21-0.42L623.84,528.1z"
					/>
				<path class="st11" d="M650.85,530.87l-3.25,13.23l-0.09,0.54c0,0.21,0.09,0.38,0.27,0.51c0.18,0.13,0.39,0.2,0.63,0.2
					l-0.18,0.65H640c-0.34,0-0.59-0.09-0.76-0.27c-0.17-0.18-0.25-0.42-0.25-0.72c0-0.11,0.02-0.26,0.06-0.45l4.06-16.53
					c0.04-0.21-0.04-0.41-0.24-0.59c-0.2-0.19-0.42-0.28-0.66-0.28l0.18-0.65h18.64c0.76,0,1.13,0.37,1.13,1.1
					c0,0.15-0.01,0.26-0.03,0.34l-4.06,16.53c-0.04,0.19,0.05,0.38,0.27,0.58c0.22,0.2,0.44,0.3,0.66,0.3l-0.21,0.65h-8.08
					c-0.76,0-1.13-0.34-1.13-1.02c0-0.15,0.01-0.26,0.03-0.34l3.37-13.76H650.85z"/>
				<path class="st11" d="M671.88,530.87l-3.25,13.23l-0.09,0.54c0,0.21,0.09,0.38,0.27,0.51c0.18,0.13,0.39,0.2,0.63,0.2
					l-0.18,0.65h-8.23c-0.34,0-0.59-0.09-0.76-0.27c-0.17-0.18-0.25-0.42-0.25-0.72c0-0.11,0.02-0.26,0.06-0.45l4.06-16.53
					c0.04-0.21-0.04-0.41-0.24-0.59c-0.2-0.19-0.42-0.28-0.66-0.28l0.18-0.65h18.64c0.76,0,1.13,0.37,1.13,1.1
					c0,0.15-0.01,0.26-0.03,0.34l-4.06,16.53c-0.04,0.19,0.05,0.38,0.27,0.58c0.22,0.2,0.44,0.3,0.66,0.3l-0.21,0.65h-8.08
					c-0.76,0-1.13-0.34-1.13-1.02c0-0.15,0.01-0.26,0.03-0.34l3.37-13.76H671.88z"/>
			</g>
		</g>
	</g>
	<g>
		<g>
			
				<linearGradient id="SVGID_00000009556893328544696280000007586669589565497776_" gradientUnits="userSpaceOnUse" x1="913.202" y1="597.5716" x2="913.202" y2="665.5793">
				<stop  offset="0" style="stop-color:#3E76BB"/>
				<stop  offset="0.9672" style="stop-color:#06509E"/>
			</linearGradient>
			<path style="fill:url(#SVGID_00000009556893328544696280000007586669589565497776_);" d="M932.16,602.35
				c0.94,0,1.85-0.19,2.73-0.57c0.88-0.38,1.44-0.93,1.68-1.63h2.03l-3.52,13.49c-0.59,1.88-2.32,2.82-5.2,2.82h-5.2l-9.87,41.97
				c-0.12,0.59,0.15,1.19,0.79,1.8c0.65,0.62,1.29,0.93,1.94,0.93l-0.62,2.03H892.4c-1.88,0-2.82-0.94-2.82-2.82
				c0-0.23,0.06-0.7,0.18-1.41l9.96-42.5h-6.08c-0.94,0-1.72,0.22-2.34,0.66s-1.04,1.02-1.28,1.72h-2.21l3.53-14.11
				c0.23-0.83,0.7-1.43,1.41-1.8c0.7-0.38,1.82-0.57,3.35-0.57H932.16z"/>
			
				<linearGradient id="SVGID_00000004519750652372274630000005842128820335069324_" gradientUnits="userSpaceOnUse" x1="712.3622" y1="597.5716" x2="712.3622" y2="665.5793">
				<stop  offset="0" style="stop-color:#3E76BB"/>
				<stop  offset="0.9672" style="stop-color:#06509E"/>
			</linearGradient>
			<path style="fill:url(#SVGID_00000004519750652372274630000005842128820335069324_);" d="M720.93,663.18
				c-1.53,0-2.66-0.25-3.4-0.75c-0.74-0.5-1.16-1.37-1.28-2.6l-0.79-9.01h-10.24l-3.62,7.24c-0.06,0.18-0.09,0.33-0.09,0.44
				c0,0.12-0.03,0.35-0.09,0.71c0,0.53,0.25,0.99,0.75,1.37c0.5,0.38,1.07,0.58,1.72,0.58l-0.44,2.03h-19.17
				c-2.47,0-3.71-0.97-3.71-2.92c0-0.53,0.15-1.09,0.44-1.67l25.97-50.35c0.18-0.35,0.27-0.79,0.27-1.32c0-0.65-0.28-1.25-0.84-1.81
				c-0.56-0.56-1.16-0.84-1.81-0.84l0.53-2.03h26.32c1.35,0,2.5,0.37,3.45,1.1c0.94,0.74,1.41,1.78,1.41,3.14l4.06,51.58
				c0,0.77,0.41,1.47,1.24,2.12c0.82,0.65,1.68,0.97,2.56,0.97l-0.44,2.03H720.93z M710.42,638.98h5.03l-0.71-9.89L710.42,638.98z"
				/>
			
				<linearGradient id="SVGID_00000024687130506531051860000010467655504639948933_" gradientUnits="userSpaceOnUse" x1="957.1439" y1="597.5716" x2="957.1439" y2="665.5793">
				<stop  offset="0" style="stop-color:#3E76BB"/>
				<stop  offset="0.9672" style="stop-color:#06509E"/>
			</linearGradient>
			<path style="fill:url(#SVGID_00000024687130506531051860000010467655504639948933_);" d="M965.71,663.18
				c-1.53,0-2.66-0.25-3.4-0.75c-0.74-0.5-1.16-1.37-1.28-2.6l-0.79-9.01h-10.24l-3.62,7.24c-0.06,0.18-0.09,0.33-0.09,0.44
				c0,0.12-0.03,0.35-0.09,0.71c0,0.53,0.25,0.99,0.75,1.37c0.5,0.38,1.07,0.58,1.72,0.58l-0.44,2.03h-19.17
				c-2.47,0-3.71-0.97-3.71-2.92c0-0.53,0.15-1.09,0.44-1.67l25.97-50.35c0.18-0.35,0.27-0.79,0.27-1.32c0-0.65-0.28-1.25-0.84-1.81
				c-0.56-0.56-1.16-0.84-1.81-0.84l0.53-2.03h26.32c1.35,0,2.5,0.37,3.45,1.1c0.94,0.74,1.41,1.78,1.41,3.14l4.06,51.58
				c0,0.77,0.41,1.47,1.24,2.12c0.82,0.65,1.68,0.97,2.56,0.97l-0.44,2.03H965.71z M955.2,638.98h5.03l-0.71-9.89L955.2,638.98z"/>
			
				<linearGradient id="SVGID_00000170990602961736182960000011188870661046300322_" gradientUnits="userSpaceOnUse" x1="650.4521" y1="597.5716" x2="650.4521" y2="665.5793">
				<stop  offset="0" style="stop-color:#3E76BB"/>
				<stop  offset="0.9672" style="stop-color:#06509E"/>
			</linearGradient>
			<path style="fill:url(#SVGID_00000170990602961736182960000011188870661046300322_);" d="M650.45,616.8l8.35-9.06
				c0.47-0.59,0.71-1.16,0.71-1.69c0-0.6-0.21-1.1-0.62-1.52c-0.41-0.41-0.8-0.62-1.15-0.62l0.53-2.04h23.81
				c1.13,0,1.98,0.32,2.58,0.98c0.59,0.65,0.89,1.39,0.89,2.22c0,0.83-0.36,1.66-1.07,2.49l-18.04,17.06l8.97,22.04
				c0.65,1.54,1.81,2.31,3.47,2.31h1.95l-2.4,10.31c-0.3,1.3-1.02,2.28-2.18,2.93c-1.15,0.65-3.3,0.98-6.44,0.98h-7.46
				c-1.36,0-2.64-0.47-3.82-1.42c-1.19-0.95-2.02-2.01-2.49-3.2l-7.2-17.77l-5.06,4.79l-3.02,13.15c0,0.65,0.3,1.21,0.89,1.69
				s1.21,0.71,1.87,0.71l-0.44,2.04h-24.79c-1.95,0-2.93-0.95-2.93-2.84c0-0.3,0.06-0.8,0.18-1.51l12.17-52.16
				c0.12-0.6-0.15-1.2-0.8-1.83c-0.65-0.62-1.3-0.93-1.95-0.93l0.62-2.04h24.7c1.9,0,2.84,0.94,2.84,2.84"/>
			
				<linearGradient id="SVGID_00000125579689592178095360000015913873350112352945_" gradientUnits="userSpaceOnUse" x1="781.6594" y1="597.5716" x2="781.6594" y2="665.5793">
				<stop  offset="0" style="stop-color:#3E76BB"/>
				<stop  offset="0.9672" style="stop-color:#06509E"/>
			</linearGradient>
			<path style="fill:url(#SVGID_00000125579689592178095360000015913873350112352945_);" d="M782.5,615.8l-9.65,41.45l-0.27,1.68
				c0,0.65,0.27,1.18,0.8,1.59c0.53,0.41,1.15,0.62,1.86,0.62l-0.53,2.04h-24.44c-1.01,0-1.76-0.28-2.26-0.84
				c-0.5-0.56-0.75-1.32-0.75-2.26c0-0.35,0.06-0.82,0.18-1.42l12.04-51.81c0.12-0.65-0.12-1.27-0.71-1.86
				c-0.59-0.59-1.24-0.88-1.95-0.88l0.53-2.04h55.35c2.24,0,3.37,1.15,3.37,3.45c0,0.47-0.03,0.82-0.09,1.06l-12.04,51.81
				c-0.12,0.59,0.15,1.19,0.8,1.81c0.65,0.62,1.3,0.93,1.95,0.93l-0.62,2.04h-24c-2.25,0-3.37-1.06-3.37-3.19
				c0-0.48,0.03-0.83,0.09-1.06l10.01-43.13H782.5z"/>
			
				<linearGradient id="SVGID_00000049940700839704900880000007941051096147544466_" gradientUnits="userSpaceOnUse" x1="847.9443" y1="597.5716" x2="847.9443" y2="665.5793">
				<stop  offset="0" style="stop-color:#3E76BB"/>
				<stop  offset="0.9672" style="stop-color:#06509E"/>
			</linearGradient>
			<path style="fill:url(#SVGID_00000049940700839704900880000007941051096147544466_);" d="M851.61,636.3l-12.27,18.71
				c-0.71,0.94-1.15,1.56-1.32,1.85c-0.35,0.59-0.53,1.18-0.53,1.76c0,0.65,0.29,1.21,0.88,1.68c0.59,0.47,1.21,0.71,1.85,0.71
				l-0.44,2.03h-24.62c-1.94,0-2.91-0.94-2.91-2.82c0-0.29,0.06-0.79,0.18-1.5L824.51,607c0.12-0.59-0.15-1.19-0.79-1.81
				c-0.65-0.62-1.3-0.92-1.94-0.92l0.62-2.03h24.53c1.88,0,2.82,0.94,2.82,2.81c0,0.24,0,0.71,0,1.41l-5.47,22.69l11.56-17.41
				c0.53-0.76,1.03-1.49,1.5-2.2c0.47-0.7,0.82-1.55,1.06-2.55c0.12-0.59-0.12-1.19-0.71-1.8c-0.59-0.62-1.21-0.92-1.85-0.92
				l0.44-2.03h24.53c1,0,1.72,0.25,2.16,0.75c0.44,0.5,0.66,1.22,0.66,2.16l-0.18,1.32l-12,51.81c-0.12,0.59,0.15,1.19,0.79,1.81
				c0.65,0.62,1.29,0.92,1.94,0.92l-0.62,2.03h-24.53c-1.88,0-2.82-0.94-2.82-2.82c0-0.24,0-0.71,0-1.41L851.61,636.3z"/>
			
				<linearGradient id="SVGID_00000181793337201350286390000008034992313348414130_" gradientUnits="userSpaceOnUse" x1="1020.0829" y1="597.5716" x2="1020.0829" y2="665.5793">
				<stop  offset="0" style="stop-color:#3E76BB"/>
				<stop  offset="0.9672" style="stop-color:#06509E"/>
			</linearGradient>
			<path style="fill:url(#SVGID_00000181793337201350286390000008034992313348414130_);" d="M1038.94,605.56l6.28,51.5
				c0.12,0.93,0.49,1.69,1.13,2.27c0.64,0.58,1.37,0.87,2.18,0.87l-0.44,2.01h-24.26c-0.76,0-1.48-0.35-2.18-1.05
				c-0.7-0.7-1.05-1.45-1.05-2.27l-1.22-20.25l-8.12,17.8c-0.17,0.41-0.26,0.87-0.26,1.4c0,0.64,0.26,1.19,0.79,1.66
				c0.52,0.47,1.1,0.7,1.74,0.7l-0.44,2.01h-18.15c-1.1,0-1.93-0.29-2.49-0.87c-0.55-0.58-0.83-1.34-0.83-2.27
				c0-0.7,0.06-1.18,0.17-1.44c0.12-0.26,0.2-0.45,0.26-0.57l22.87-48.89c0.29-0.7,0.44-1.25,0.44-1.65c0-0.64-0.28-1.21-0.83-1.7
				c-0.55-0.49-1.15-0.74-1.79-0.74l0.44-2.01h20.77c1.34,0,2.47,0.32,3.4,0.96C1038.29,603.67,1038.82,604.52,1038.94,605.56z"/>
		</g>
		<g>
			
				<linearGradient id="SVGID_00000010275549388812654870000004736810003863987107_" gradientUnits="userSpaceOnUse" x1="58.2529" y1="577.5589" x2="58.2529" y2="676.426">
				<stop  offset="0" style="stop-color:#3E76BB"/>
				<stop  offset="0.9672" style="stop-color:#06509E"/>
			</linearGradient>
			<path style="fill:url(#SVGID_00000010275549388812654870000004736810003863987107_);" d="M78.25,602.35
				c0.99,0,1.95-0.19,2.88-0.57c0.93-0.38,1.52-0.93,1.77-1.63h2.14l-3.72,13.49c-0.62,1.88-2.45,2.82-5.49,2.82h-5.49l-10.42,41.97
				c-0.12,0.59,0.16,1.19,0.84,1.81c0.68,0.62,1.36,0.93,2.05,0.93l-0.65,2.03H36.3c-1.98,0-2.98-0.94-2.98-2.82
				c0-0.23,0.06-0.71,0.19-1.41l10.51-42.49H37.6c-0.99,0-1.81,0.22-2.46,0.66c-0.65,0.44-1.1,1.01-1.35,1.72h-2.33l3.72-14.11
				c0.25-0.82,0.74-1.42,1.49-1.81s1.92-0.57,3.53-0.57H78.25z"/>
			
				<linearGradient id="SVGID_00000017509503331384150390000011141350299881686172_" gradientUnits="userSpaceOnUse" x1="98.8094" y1="577.5589" x2="98.8094" y2="676.426">
				<stop  offset="0" style="stop-color:#3E76BB"/>
				<stop  offset="0.9672" style="stop-color:#06509E"/>
			</linearGradient>
			<path style="fill:url(#SVGID_00000017509503331384150390000011141350299881686172_);" d="M107.83,663.18
				c-1.61,0-2.81-0.25-3.58-0.75c-0.77-0.5-1.23-1.37-1.35-2.6l-0.84-8.99H91.28l-3.81,7.23c-0.06,0.18-0.09,0.32-0.09,0.44
				c0,0.12-0.03,0.35-0.09,0.71c0,0.53,0.26,0.98,0.79,1.37s1.13,0.57,1.81,0.57l-0.47,2.03H69.23c-2.6,0-3.91-0.97-3.91-2.91
				c0-0.53,0.16-1.09,0.47-1.68l27.35-50.25c0.19-0.35,0.28-0.79,0.28-1.32c0-0.65-0.3-1.25-0.88-1.81
				c-0.59-0.56-1.23-0.84-1.91-0.84l0.56-2.03h27.72c1.43,0,2.63,0.37,3.63,1.1c0.99,0.74,1.49,1.78,1.49,3.13l4.28,51.49
				c0,0.76,0.43,1.47,1.3,2.12s1.77,0.97,2.7,0.97l-0.47,2.03H107.83z M96.76,639.02h5.3l-0.74-9.87L96.76,639.02z"/>
			
				<linearGradient id="SVGID_00000082338056653749960190000012483655369614741423_" gradientUnits="userSpaceOnUse" x1="165.3646" y1="577.5589" x2="165.3646" y2="676.426">
				<stop  offset="0" style="stop-color:#3E76BB"/>
				<stop  offset="0.9672" style="stop-color:#06509E"/>
			</linearGradient>
			<path style="fill:url(#SVGID_00000082338056653749960190000012483655369614741423_);" d="M185.78,602.26
				c4.16,0,7.36,1.03,9.63,3.09s3.4,4.64,3.4,7.76c0,0.47-0.05,1-0.14,1.59c-0.09,0.59-0.17,1.03-0.23,1.32
				c-1.43,6.47-4.34,10.37-8.74,11.73c1.8,1.06,3.12,2.22,3.95,3.48c0.84,1.27,1.26,3.13,1.26,5.59c0,2.24-0.47,5.35-1.4,9.35
				c-1.61,6.64-4.09,11.2-7.44,13.67c-3.04,2.24-7.72,3.35-14.04,3.35h-36.93c-1.05,0-1.84-0.28-2.37-0.84
				c-0.53-0.56-0.79-1.31-0.79-2.25c0-0.35,0.06-0.82,0.19-1.41l12.65-51.58c0.12-0.65-0.12-1.27-0.74-1.85
				c-0.62-0.59-1.3-0.88-2.05-0.88l0.56-2.03L185.78,602.26z M163.92,649.52c1.67,0,2.84-0.37,3.49-1.1
				c0.65-0.74,1.29-2.39,1.91-4.98c0.43-1.64,0.65-3,0.65-4.06c0-2-1.15-3-3.44-3h-2.6l-3.16,13.14H163.92z M170.53,624.66
				c1.05,0,1.8-0.28,2.23-0.84s0.84-1.57,1.21-3.04s0.56-2.53,0.56-3.17c0-1.53-0.9-2.29-2.7-2.29h-2.79l-2.23,9.35H170.53z"/>
			
				<linearGradient id="SVGID_00000071528716885572127550000010920408400673753773_" gradientUnits="userSpaceOnUse" x1="225.1297" y1="577.5589" x2="225.1297" y2="676.426">
				<stop  offset="0" style="stop-color:#3E76BB"/>
				<stop  offset="0.9672" style="stop-color:#06509E"/>
			</linearGradient>
			<path style="fill:url(#SVGID_00000071528716885572127550000010920408400673753773_);" d="M234.15,663.18
				c-1.61,0-2.81-0.25-3.58-0.75s-1.23-1.37-1.35-2.6l-0.84-8.99H217.6l-3.81,7.23c-0.06,0.18-0.09,0.32-0.09,0.44
				c0,0.12-0.03,0.35-0.09,0.71c0,0.53,0.26,0.98,0.79,1.37c0.53,0.38,1.13,0.57,1.81,0.57l-0.47,2.03h-20.18
				c-2.6,0-3.91-0.97-3.91-2.91c0-0.53,0.16-1.09,0.47-1.68l27.35-50.25c0.19-0.35,0.28-0.79,0.28-1.32c0-0.65-0.3-1.25-0.88-1.81
				s-1.23-0.84-1.91-0.84l0.56-2.03h27.72c1.43,0,2.63,0.37,3.63,1.1c0.99,0.74,1.49,1.78,1.49,3.13l4.28,51.49
				c0,0.76,0.43,1.47,1.3,2.12s1.77,0.97,2.7,0.97l-0.47,2.03H234.15z M223.08,639.02h5.3l-0.74-9.87L223.08,639.02z"/>
			
				<linearGradient id="SVGID_00000116947428245636892520000013570407324640367237_" gradientUnits="userSpaceOnUse" x1="296.8484" y1="577.5589" x2="296.8484" y2="676.426">
				<stop  offset="0" style="stop-color:#3E76BB"/>
				<stop  offset="0.9672" style="stop-color:#06509E"/>
			</linearGradient>
			<path style="fill:url(#SVGID_00000116947428245636892520000013570407324640367237_);" d="M292.66,636.38l-5.3,21.69l-0.09,0.71
				c0,0.65,0.31,1.2,0.93,1.68s1.27,0.71,1.95,0.71l-0.47,2.03h-25.95c-2.05,0-3.07-0.94-3.07-2.82c0-0.3,0.06-0.79,0.19-1.5
				l12.74-51.75c0.12-0.59-0.16-1.19-0.84-1.81c-0.68-0.62-1.36-0.93-2.05-0.93l0.65-2.03h25.86c1.98,0,2.98,0.94,2.98,2.82
				c0,0.23-0.06,0.71-0.19,1.41l-4.46,18.08h6.6l4.28-17.55c0.12-0.59-0.12-1.19-0.74-1.81c-0.62-0.62-1.27-0.93-1.95-0.93
				l0.47-2.03h25.86c1.05,0,1.81,0.25,2.28,0.75s0.7,1.22,0.7,2.16l-0.19,1.32l-12.65,51.84c-0.12,0.59,0.16,1.19,0.84,1.81
				c0.68,0.62,1.36,0.93,2.05,0.93l-0.65,2.03h-25.86c-1.98,0-2.98-0.94-2.98-2.82c0-0.23,0.06-0.71,0.19-1.41l5.49-22.57H292.66z"
				/>
			
				<linearGradient id="SVGID_00000062181562233876494190000015873348891345033121_" gradientUnits="userSpaceOnUse" x1="398.0071" y1="577.5589" x2="398.0071" y2="676.426">
				<stop  offset="0" style="stop-color:#3E76BB"/>
				<stop  offset="0.9672" style="stop-color:#06509E"/>
			</linearGradient>
			<path style="fill:url(#SVGID_00000062181562233876494190000015873348891345033121_);" d="M413.21,622.8
				c4.65,0,8.31,1.2,10.98,3.62c2.67,2.41,4,5.88,4,10.4c0,2.41-0.37,5.06-1.12,7.94c-0.74,2.88-1.64,5.55-2.7,8.02
				c-1.74,4.11-4.05,6.88-6.93,8.29c-2.88,1.41-7.08,2.12-12.6,2.12h-37.67c-1.05,0-1.84-0.28-2.37-0.84
				c-0.53-0.56-0.79-1.31-0.79-2.25c0-0.35,0.06-0.82,0.19-1.41l12.65-51.58c0.12-0.65-0.12-1.27-0.74-1.85s-1.3-0.88-2.05-0.88
				l0.56-2.03H432l-2.6,9.7c-0.31,1.18-1.18,2.13-2.6,2.87c-1.43,0.74-2.85,1.1-4.28,1.1h-21.58l-1.67,6.79H413.21z M392.94,649.07
				h3.07c1.49,0,2.56-0.44,3.21-1.32c0.65-0.88,1.35-2.7,2.09-5.47c0.37-1.53,0.56-2.79,0.56-3.79c0-1.94-0.96-2.91-2.88-2.91h-2.79
				L392.94,649.07z"/>
			
				<linearGradient id="SVGID_00000004521300237830776710000003089822577883116196_" gradientUnits="userSpaceOnUse" x1="461.1673" y1="577.5589" x2="461.1673" y2="676.426">
				<stop  offset="0" style="stop-color:#3E76BB"/>
				<stop  offset="0.9672" style="stop-color:#06509E"/>
			</linearGradient>
			<path style="fill:url(#SVGID_00000004521300237830776710000003089822577883116196_);" d="M474.98,602.35
				c5.46,0,9.95,1.34,13.49,4.01s5.3,6.45,5.3,11.33c0,1.76-0.22,3.47-0.65,5.11l-5.58,22.39c-1.61,6.64-4.4,11.37-8.37,14.2
				c-3.47,2.53-8.25,3.79-14.32,3.79h-19.07c-5.83,0-10.15-1.25-12.98-3.75c-2.82-2.5-4.23-6.19-4.23-11.07
				c0-2.88,0.4-5.88,1.21-8.99l4.09-16.66c1.61-6.41,3.94-11.2,6.98-14.37c3.91-4,9.39-6,16.46-6H474.98z M454.89,644.31
				c-0.19,0.82-0.28,1.53-0.28,2.12c0,1.47,0.87,2.2,2.6,2.2c1.18,0,2.06-0.25,2.65-0.75c0.59-0.5,1.04-1.4,1.35-2.69l6.14-24.77
				c0.12-0.71,0.19-1.18,0.19-1.41c0-1.71-0.9-2.56-2.7-2.56c-1.98,0-3.32,1.18-4,3.53L454.89,644.31z"/>
			
				<linearGradient id="SVGID_00000054230150638675612560000008065560491192686011_" gradientUnits="userSpaceOnUse" x1="517.213" y1="577.5589" x2="517.213" y2="676.426">
				<stop  offset="0" style="stop-color:#3E76BB"/>
				<stop  offset="0.9672" style="stop-color:#06509E"/>
			</linearGradient>
			<path style="fill:url(#SVGID_00000054230150638675612560000008065560491192686011_);" d="M515.35,656.48
				c-0.19,0.65-0.28,1.29-0.28,1.94c0,0.71,0.36,1.34,1.07,1.9c0.71,0.56,1.44,0.84,2.19,0.84l-0.47,2.03h-26.42
				c-1.05,0-1.84-0.28-2.37-0.84c-0.53-0.56-0.79-1.31-0.79-2.25c0-0.35,0.06-0.82,0.19-1.41l12.65-51.58
				c0.12-0.65-0.12-1.27-0.74-1.85s-1.3-0.88-2.05-0.88l0.56-2.03h47.25l-2.42,9.88c-0.31,1.29-1.01,2.32-2.09,3.09
				s-2.34,1.15-3.77,1.15h-12.84L515.35,656.48z"/>
			
				<linearGradient id="SVGID_00000057842322977877791400000014302136476583831434_" gradientUnits="userSpaceOnUse" x1="556.8394" y1="577.5589" x2="556.8394" y2="676.426">
				<stop  offset="0" style="stop-color:#3E76BB"/>
				<stop  offset="0.9672" style="stop-color:#06509E"/>
			</linearGradient>
			<path style="fill:url(#SVGID_00000057842322977877791400000014302136476583831434_);" d="M583.44,646.34
				c0.31,1.82,1.18,2.73,2.6,2.73h2.33l-2.42,10.05c-0.43,1.71-1.3,2.85-2.6,3.44c-0.99,0.41-2.63,0.62-4.93,0.62h-49.3
				c-2.54,0-3.81-0.97-3.81-2.91l0.19-1.41l2.33-9.79h2.51c0.87,0,1.63-0.25,2.28-0.75c0.65-0.5,1.13-1.1,1.44-1.81l18.79-38.09
				l0.19-1.59c0-0.71-0.25-1.29-0.74-1.76s-1.12-0.71-1.86-0.71l0.47-2.03h22.51c1.3,0,2.4,0.34,3.3,1.01
				c0.9,0.67,1.41,1.51,1.53,2.51L583.44,646.34z M558.23,637.96l-4.56,11.11h5.3L558.23,637.96z"/>
		</g>
	</g>
	<g>
		<path class="st138" d="M185.69,716.15l14.92-16.51l-8.85-16.15h4.6l4.03,7.4c1.45,2.64,2.46,4.65,3.05,6.01
			c1.02-1.44,2.65-3.39,4.88-5.86l6.87-7.55h5.46l-15.11,16.87l8.56,15.79l-4.53-0.01l-5.06-9.56c-0.48-0.93-1.06-2.13-1.72-3.6
			c-0.71,1-1.66,2.14-2.82,3.45l-8.72,9.71H185.69L185.69,716.15z M232.84,713.2c-2.47,2.32-5.07,3.48-7.8,3.48
			c-2.03,0-3.7-0.62-5.02-1.87c-1.32-1.25-1.97-2.9-1.97-4.94c0-2.44,0.85-4.32,2.56-5.64c1.76-1.36,4.34-2.05,7.72-2.05l2.04-0.09
			c0.97,0,1.83-0.07,2.59-0.21c0.76-0.14,1.39-0.33,1.89-0.56c0.3-1.1,0.45-2.05,0.45-2.85c0-0.94-0.42-1.7-1.24-2.3
			c-0.84-0.6-2.04-0.9-3.64-0.9c-3.19,0-5.27,1.44-6.25,4.32l-3.9-0.36c1.62-4.84,5.06-7.26,10.32-7.26c2.53,0,4.58,0.56,6.16,1.7
			c1.58,1.13,2.36,2.61,2.36,4.45c0,1.26-0.17,2.72-0.53,4.39l-1.26,5.88c-0.2,1.01-0.35,1.87-0.45,2.56
			c-0.1,0.7-0.15,1.35-0.15,1.94c0,1.06,0.16,2.15,0.47,3.28h-3.9c-0.13-0.42-0.23-0.87-0.32-1.38
			C232.88,714.26,232.84,713.74,232.84,713.2L232.84,713.2z M234.26,704.16c-0.92,0.35-2.16,0.61-3.72,0.78l-2.22,0.22
			c-1.25,0-2.34,0.16-3.28,0.47c-0.83,0.27-1.47,0.64-1.92,1.11c-0.82,0.82-1.24,1.8-1.24,2.94c0,1.12,0.38,2.04,1.14,2.78
			c0.76,0.74,1.79,1.1,3.1,1.1c1.85,0,3.53-0.68,5.04-2.03C232.68,710.19,233.71,707.73,234.26,704.16L234.26,704.16z
			 M246.61,692.49h5.73l2.13,18.87l10.51-18.87h5.62l-4.84,23.65h-3.82l3.94-19.07l-10.62,19.07h-3.43l-2.24-19.8l-4.05,19.8h-3.82
			L246.61,692.49L246.61,692.49z M271.68,716.15l4.73-23.65h3.86l-0.79,3.89c2.4-2.96,4.89-4.43,7.47-4.43
			c1.49,0,2.7,0.37,3.62,1.12c0.88,0.69,1.49,1.8,1.83,3.32c1.12-1.45,2.33-2.55,3.62-3.31c1.3-0.75,2.63-1.13,4.03-1.13
			c1.86,0,3.27,0.45,4.23,1.35c0.96,0.9,1.44,2.24,1.44,4.02c0,0.78-0.17,1.97-0.5,3.59l-3.05,15.24h-3.85l3.11-15.64
			c0.13-0.65,0.23-1.2,0.3-1.64c0.07-0.45,0.11-0.81,0.11-1.1c0-0.83-0.23-1.45-0.67-1.87c-0.45-0.42-1.12-0.62-2.02-0.62
			c-1.31,0-2.59,0.44-3.84,1.32c-1.25,0.89-2.17,1.94-2.75,3.16c-0.51,1.16-0.99,2.8-1.45,4.92l-2.31,11.47h-3.85l3.2-15.97
			c0.23-1.14,0.34-1.92,0.34-2.31c0-0.81-0.25-1.44-0.73-1.89c-0.48-0.46-1.08-0.69-1.77-0.69c-0.66,0-1.3,0.11-1.93,0.34
			c-0.63,0.22-1.28,0.57-1.94,1.05c-1.26,0.9-2.21,2.03-2.85,3.38c-0.58,1.26-1.09,2.9-1.51,4.92l-2.24,11.18H271.68L271.68,716.15z
			 M335.24,692.49h3.9l-4.9,23.65h-3.88L335.24,692.49L335.24,692.49z M312.92,692.49h3.86l-1.94,9.15h4.12
			c2.61,0,4.47,0.2,5.59,0.6c1.11,0.4,1.99,1.13,2.65,2.2c0.66,1.06,0.98,2.24,0.98,3.55c0,0.79-0.11,1.55-0.32,2.3
			c-0.21,0.75-0.55,1.49-1,2.23c-0.85,1.43-1.92,2.39-3.21,2.89c-1.28,0.49-3.27,0.75-5.98,0.75h-9.63L312.92,692.49L312.92,692.49z
			 M312.52,712.94h4.92c1.9,0,3.25-0.14,4.05-0.4c0.8-0.27,1.48-0.75,2.02-1.47c0.54-0.71,0.81-1.57,0.81-2.56
			c0-0.91-0.24-1.67-0.71-2.29c-0.48-0.62-1.03-0.99-1.65-1.13c-0.28-0.06-0.73-0.11-1.32-0.15c-0.59-0.05-1.28-0.07-2.08-0.07
			h-4.39L312.52,712.94L312.52,712.94z M345,692.49h3.82l-2.04,9.86h10.51l1.99-9.86h3.77l-4.77,23.65h-3.84l2.19-10.58h-10.47
			l-2.19,10.58h-3.81L345,692.49L345,692.49z M374.83,716.15l9.85-12l-5.65-11.65h4.26l1.92,4.2c0.82,1.87,1.46,3.38,1.91,4.52
			l6.53-8.73h4.71l-9.5,11.96l5.71,11.69l-4.27,0.01l-2.26-4.82c-0.28-0.62-0.55-1.21-0.79-1.76c-0.17-0.4-0.46-1.09-0.85-2.05
			l-6.74,8.62H374.83L374.83,716.15z M403.9,716.15l-3.73-23.65h3.73l1.96,13.02c0.2,1.31,0.47,3.63,0.79,6.98
			c0.73-1.71,1.68-3.63,2.82-5.78l7.57-14.22h4.07l-12.96,23.65l-2.68,9.35l-3.91,0.1L403.9,716.15L403.9,716.15z M423.5,692.49
			h3.79l-0.81,3.96c-0.52,2.49-0.77,4.25-0.77,5.28c0,1.03,0.38,1.8,1.13,2.34c0.76,0.53,1.89,0.8,3.39,0.8c1.82,0,3.51-0.34,5.07-1
			l2.33-11.38h3.83l-4.82,23.65h-3.86l1.86-9.06c-1.92,0.66-3.71,1-5.38,1c-2.28,0-4.1-0.51-5.42-1.54
			c-1.33-1.03-1.99-2.48-1.99-4.36c0-0.79,0.34-2.98,1.03-6.57L423.5,692.49L423.5,692.49z M455.08,706.35l0.81-4.03h11.77
			l-0.79,4.03H455.08L455.08,706.35z M479.09,716.15l17.71-32.65h4.93l5.16,32.65h-4.06l-1.51-9.4h-12.63l-5.01,9.4L479.09,716.15
			L479.09,716.15z M490.45,703.39h10.34l-1.21-8.2c-0.28-1.98-0.49-3.49-0.61-4.54c-0.17-1.44-0.25-2.64-0.25-3.59
			c-0.73,1.92-1.77,4.14-3.11,6.66L490.45,703.39L490.45,703.39z M515.35,692.49h5.73l2.13,18.87l10.51-18.87h5.62l-4.84,23.65
			h-3.82l3.94-19.07l-10.62,19.07h-3.43l-2.24-19.8l-4.05,19.8h-3.82L515.35,692.49L515.35,692.49z M555.46,692.49h3.75l-2.1,10.1
			l0.3,0.03c0.81,0,1.59-0.36,2.32-1.08c0.73-0.72,1.67-2.06,2.81-4.02c1.24-2.12,2.36-3.49,3.37-4.11
			c1.01-0.61,2.05-0.93,3.14-0.93c0.75,0,1.54,0.14,2.39,0.4l-0.87,2.4c-0.52-0.21-0.94-0.31-1.28-0.31c-0.64,0-1.2,0.23-1.69,0.69
			c-0.48,0.46-1.1,1.41-1.85,2.84c-1.56,2.94-3.33,4.75-5.28,5.44c0.68,0.25,1.32,0.66,1.93,1.22c0.61,0.56,1.24,1.7,1.89,3.41
			l2.84,7.55h-3.97l-2.23-6.01c-0.68-1.87-1.3-3.13-1.87-3.79c-0.57-0.66-1.37-1.08-2.41-1.26l-2.31,11.07h-3.79l2.28-11.07
			c-0.39,0-0.76,0.06-1.11,0.18c-0.34,0.12-0.71,0.3-1.09,0.56c-0.69,0.46-1.85,1.79-3.45,3.98l-4.68,6.34l-4.68,0.01l5.99-7.88
			c1.75-2.3,3.62-3.73,5.62-4.3c-0.87-0.57-1.51-1.25-1.91-2.03c-0.42-0.79-0.82-2.23-1.19-4.34c-0.18-1.03-0.39-1.72-0.63-2.08
			c-0.25-0.36-0.61-0.53-1.1-0.53c-0.36,0-0.9,0.11-1.64,0.31l0.25-2.56c0.31-0.08,0.64-0.13,0.99-0.17
			c0.34-0.04,0.68-0.07,1.01-0.07c1.35,0,2.31,0.4,2.89,1.19c0.58,0.72,1.08,2.09,1.5,4.09c0.42,2,0.87,3.31,1.36,3.93
			c0.49,0.62,1.27,0.92,2.35,0.92L555.46,692.49L555.46,692.49z M585.94,711.87c-2.71,3.21-5.46,4.81-8.25,4.81
			c-1.7,0-3.11-0.5-4.24-1.51c-1.12-1-1.68-2.28-1.68-3.84c0-1.07,0.24-2.8,0.72-5.19l2.73-13.65h3.86l-3.03,15.12
			c-0.25,1.25-0.39,2.24-0.39,2.98c0,0.9,0.26,1.6,0.76,2.09c0.53,0.46,1.29,0.69,2.28,0.69c1.48,0,2.88-0.49,4.21-1.49
			c1.32-1,2.3-2.18,2.93-3.57c0.58-1.31,1.13-3.19,1.62-5.61l2.04-10.22h3.86l-4.73,23.65h-3.56L585.94,711.87L585.94,711.87z
			 M601.22,692.49h17.05l-4.82,23.65h-3.83l4.22-20.29h-9.51l-2.92,14.1c-0.49,2.42-1.16,4.11-2,5.06c-0.84,0.96-2,1.44-3.48,1.44
			c-0.45,0-0.95-0.02-1.48-0.07c-0.54-0.05-1.17-0.12-1.91-0.24l0.71-3.34l1.62,0.06c0.97,0,1.62-0.24,1.91-0.74
			c0.29-0.49,0.73-2.06,1.33-4.71L601.22,692.49L601.22,692.49z M619.35,716.15l4.73-23.65h3.86l-0.79,3.89
			c2.4-2.96,4.89-4.43,7.47-4.43c1.49,0,2.7,0.37,3.62,1.12c0.88,0.69,1.49,1.8,1.83,3.32c1.12-1.45,2.33-2.55,3.62-3.31
			c1.3-0.75,2.63-1.13,4.03-1.13c1.86,0,3.27,0.45,4.23,1.35c0.96,0.9,1.44,2.24,1.44,4.02c0,0.78-0.17,1.97-0.49,3.59l-3.06,15.24
			h-3.85l3.11-15.64c0.13-0.65,0.23-1.2,0.3-1.64c0.07-0.45,0.11-0.81,0.11-1.1c0-0.83-0.23-1.45-0.67-1.87
			c-0.45-0.42-1.12-0.62-2.01-0.62c-1.31,0-2.59,0.44-3.84,1.32c-1.25,0.89-2.17,1.94-2.75,3.16c-0.51,1.16-0.99,2.8-1.45,4.92
			l-2.31,11.47h-3.85l3.2-15.97c0.23-1.14,0.34-1.92,0.34-2.31c0-0.81-0.25-1.44-0.73-1.89c-0.48-0.46-1.08-0.69-1.77-0.69
			c-0.65,0-1.3,0.11-1.93,0.34c-0.63,0.22-1.28,0.57-1.93,1.05c-1.26,0.9-2.21,2.03-2.85,3.38c-0.58,1.26-1.09,2.9-1.51,4.92
			l-2.24,11.18H619.35L619.35,716.15z M682.91,692.49h3.9l-4.9,23.65h-3.88L682.91,692.49L682.91,692.49z M660.6,692.49h3.86
			l-1.94,9.15h4.12c2.61,0,4.47,0.2,5.6,0.6c1.11,0.4,1.99,1.13,2.65,2.2c0.65,1.06,0.98,2.24,0.98,3.55c0,0.79-0.11,1.55-0.32,2.3
			c-0.21,0.75-0.55,1.49-1,2.23c-0.85,1.43-1.92,2.39-3.21,2.89c-1.28,0.49-3.27,0.75-5.98,0.75h-9.63L660.6,692.49L660.6,692.49z
			 M660.19,712.94h4.92c1.9,0,3.25-0.14,4.05-0.4c0.8-0.27,1.48-0.75,2.02-1.47c0.54-0.71,0.81-1.57,0.81-2.56
			c0-0.91-0.24-1.67-0.71-2.29c-0.48-0.62-1.03-0.99-1.65-1.13c-0.28-0.06-0.73-0.11-1.32-0.15c-0.59-0.05-1.28-0.07-2.08-0.07
			h-4.39L660.19,712.94L660.19,712.94z M692.68,692.49h3.82l-2.04,9.86h10.51l1.99-9.86h3.77l-4.77,23.65h-3.84l2.19-10.58h-10.47
			l-2.19,10.58h-3.81L692.68,692.49L692.68,692.49z M723.99,716.15l4.73-23.65h3.86l-0.79,3.89c2.4-2.96,4.89-4.43,7.46-4.43
			c1.49,0,2.7,0.37,3.62,1.12c0.88,0.69,1.49,1.8,1.83,3.32c1.12-1.45,2.33-2.55,3.62-3.31c1.3-0.75,2.63-1.13,4.03-1.13
			c1.86,0,3.27,0.45,4.23,1.35c0.96,0.9,1.44,2.24,1.44,4.02c0,0.78-0.17,1.97-0.49,3.59l-3.06,15.24h-3.85l3.11-15.64
			c0.13-0.65,0.23-1.2,0.3-1.64c0.07-0.45,0.11-0.81,0.11-1.1c0-0.83-0.23-1.45-0.67-1.87c-0.45-0.42-1.12-0.62-2.01-0.62
			c-1.31,0-2.59,0.44-3.84,1.32c-1.25,0.89-2.17,1.94-2.75,3.16c-0.51,1.16-0.99,2.8-1.45,4.92l-2.31,11.47h-3.85l3.2-15.97
			c0.23-1.14,0.34-1.92,0.34-2.31c0-0.81-0.25-1.44-0.73-1.89c-0.48-0.46-1.08-0.69-1.77-0.69c-0.65,0-1.3,0.11-1.93,0.34
			c-0.63,0.22-1.28,0.57-1.93,1.05c-1.26,0.9-2.21,2.03-2.85,3.38c-0.58,1.26-1.09,2.9-1.51,4.92l-2.24,11.18H723.99L723.99,716.15z
			 M766.11,716.15l-3.73-23.65h3.73l1.96,13.02c0.2,1.31,0.47,3.63,0.79,6.98c0.73-1.71,1.68-3.63,2.82-5.78l7.57-14.22h4.07
			l-12.96,23.65l-2.68,9.35l-3.91,0.1L766.11,716.15L766.11,716.15z M788.68,692.49h17.05l-4.82,23.65h-3.83l4.22-20.29h-9.51
			l-2.92,14.1c-0.5,2.42-1.16,4.11-2,5.06c-0.84,0.96-2,1.44-3.48,1.44c-0.45,0-0.95-0.02-1.48-0.07c-0.54-0.05-1.17-0.12-1.91-0.24
			l0.71-3.34l1.62,0.06c0.98,0,1.62-0.24,1.91-0.74c0.29-0.49,0.73-2.06,1.33-4.71L788.68,692.49L788.68,692.49z M805.32,716.15
			l9.85-12l-5.65-11.65h4.26l1.92,4.2c0.82,1.87,1.46,3.38,1.91,4.52l6.53-8.73h4.71l-9.5,11.96l5.71,11.69l-4.27,0.01l-2.26-4.82
			c-0.28-0.62-0.55-1.21-0.79-1.76c-0.18-0.4-0.46-1.09-0.85-2.05l-6.74,8.62H805.32L805.32,716.15z M834.39,716.15l-3.73-23.65
			h3.73l1.96,13.02c0.2,1.31,0.47,3.63,0.79,6.98c0.73-1.71,1.68-3.63,2.82-5.78l7.57-14.22h4.07l-12.96,23.65l-2.68,9.35l-3.91,0.1
			L834.39,716.15L834.39,716.15z M856.22,716.15l-3.73-23.65h3.73l1.96,13.02c0.2,1.31,0.47,3.63,0.79,6.98
			c0.74-1.71,1.68-3.63,2.82-5.78l7.57-14.22h4.07l-12.96,23.65l-2.68,9.35l-3.91,0.1L856.22,716.15L856.22,716.15z M870.51,725.21
			l6.54-32.71h3.57l-0.66,3.29c2.27-2.55,4.57-3.83,6.88-3.83c2.13,0,3.91,0.83,5.34,2.49c1.43,1.65,2.14,4.01,2.14,7.05
			c0,4.16-1.11,7.73-3.35,10.71c-2.23,2.99-4.82,4.48-7.76,4.48c-2.69,0-4.79-1.44-6.29-4.32l-2.55,12.85H870.51L870.51,725.21z
			 M878.1,707.27c0,2.04,0.48,3.57,1.45,4.58c0.97,1.02,2.15,1.53,3.54,1.53c2.23,0,4.02-1.33,5.38-3.98
			c1.35-2.66,2.02-5.34,2.02-8.04c0-1.6-0.41-3.03-1.22-4.27c-0.81-1.25-1.99-1.87-3.56-1.87c-2.18,0-3.99,1.28-5.43,3.84
			C878.82,701.61,878.1,704.35,878.1,707.27L878.1,707.27z"/>
	</g>
</g>
</svg>
