<?xml version="1.0" encoding="utf-8"?>
<!-- Generator: Adobe Illustrator 26.5.0, SVG Export Plug-In . SVG Version: 6.00 Build 0)  -->
<svg version="1.1" id="Layer_1" xmlns="http://www.w3.org/2000/svg" xmlns:xlink="http://www.w3.org/1999/xlink" x="0px" y="0px"
	 viewBox="0 0 1080 1080" style="enable-background:new 0 0 1080 1080;" xml:space="preserve">
<style type="text/css">
	.st0{fill-rule:evenodd;clip-rule:evenodd;}
	.st1{fill:#ED1C24;}
	.st2{fill:#E1251B;}
	.st3{fill-rule:evenodd;clip-rule:evenodd;fill:#16397B;}
	.st4{fill:#EE2745;}
	
		.st5{clip-path:url(#SVGID_00000066500836434582160050000009684545574875789241_);fill:url(#SVGID_00000112606933801037410310000016347929185795455159_);}
	
		.st6{clip-path:url(#SVGID_00000134216357178737063340000016981996371150794168_);fill:url(#SVGID_00000007401936656071342290000000833842546620629950_);}
	
		.st7{clip-path:url(#SVGID_00000112615127063913921480000014279581419110565812_);fill:url(#SVGID_00000063602093696049530450000013447291385001376171_);}
	
		.st8{clip-path:url(#SVGID_00000034805122574196551040000015818975364087068347_);fill:url(#SVGID_00000161594318824479341480000016982861368316440472_);}
	.st9{fill:#424243;}
	
		.st10{clip-path:url(#SVGID_00000093171983631896309340000011980706733917118890_);fill:url(#SVGID_00000037681826921352402360000018231903846491971235_);}
	.st11{fill:#FFFFFF;}
	
		.st12{clip-path:url(#SVGID_00000080894601474280593550000009396139932175344809_);fill:url(#SVGID_00000128479175714410889880000015943054389180318399_);}
	
		.st13{clip-path:url(#SVGID_00000183956327556316573900000001998486465899258506_);fill:url(#SVGID_00000018209025145372842610000007584723856243683508_);}
	
		.st14{clip-path:url(#SVGID_00000011725572190742698980000002090254018079910272_);fill:url(#SVGID_00000047023227685481059360000001094792262134624664_);}
	
		.st15{clip-path:url(#SVGID_00000078024122861804610850000008011539089263614127_);fill:url(#SVGID_00000012473719215579676420000014030264566311982234_);}
	
		.st16{clip-path:url(#SVGID_00000096766391422338461250000005114879349112329879_);fill:url(#SVGID_00000075849850528938870890000003977187348633088402_);}
	
		.st17{clip-path:url(#SVGID_00000121998833230132381590000017689857302523646621_);fill:url(#SVGID_00000071545992962318264320000014222382054743414942_);}
	
		.st18{clip-path:url(#SVGID_00000146465711201253242350000001677379408153156771_);fill:url(#SVGID_00000035516306262291928390000013170997583158527636_);}
	.st19{fill-rule:evenodd;clip-rule:evenodd;fill:#C8202F;}
	.st20{fill-rule:evenodd;clip-rule:evenodd;fill:#FFFFFF;}
	.st21{fill-rule:evenodd;clip-rule:evenodd;fill:#F98238;}
	.st22{filter:url(#Adobe_OpacityMaskFilter);}
	.st23{fill:url(#SVGID_00000165936457441663605510000003546282667305344924_);}
	.st24{mask:url(#SVGID_00000007400688359041731400000005672880516573089945_);fill-rule:evenodd;clip-rule:evenodd;fill:#ED1C24;}
	.st25{fill-rule:evenodd;clip-rule:evenodd;fill:#F5333F;}
	.st26{fill-rule:evenodd;clip-rule:evenodd;fill:#ED1C24;}
	.st27{fill-rule:evenodd;clip-rule:evenodd;fill:#F9A46E;}
	.st28{fill-rule:evenodd;clip-rule:evenodd;fill:#F47B26;}
	.st29{fill-rule:evenodd;clip-rule:evenodd;fill:#EB5433;}
	.st30{fill:#1A3282;}
	.st31{fill-rule:evenodd;clip-rule:evenodd;fill:#1A3282;}
	.st32{fill-rule:evenodd;clip-rule:evenodd;fill:#9D9FA2;}
	.st33{fill-rule:evenodd;clip-rule:evenodd;fill:#000303;}
	.st34{fill:#64003D;}
	.st35{fill:#536270;}
	.st36{fill-rule:evenodd;clip-rule:evenodd;fill:#64003D;}
	.st37{fill-rule:evenodd;clip-rule:evenodd;fill:#536270;}
	.st38{fill-rule:evenodd;clip-rule:evenodd;fill:#1A3382;}
	.st39{fill-rule:evenodd;clip-rule:evenodd;fill:#29387E;}
	.st40{fill-rule:evenodd;clip-rule:evenodd;fill:#F37021;}
	.st41{fill-rule:evenodd;clip-rule:evenodd;fill:#005C32;}
	.st42{fill-rule:evenodd;clip-rule:evenodd;fill:#D2AB67;}
	
		.st43{clip-path:url(#SVGID_00000053512766165812864600000000330007724195996545_);fill:url(#SVGID_00000160876966985835028150000004292886812222635150_);}
	
		.st44{clip-path:url(#SVGID_00000060003291969551998130000011731413610747404944_);fill:url(#SVGID_00000016036642916544584160000003294310734108569746_);}
	
		.st45{clip-path:url(#SVGID_00000163055145755707210880000014607613750703109257_);fill:url(#SVGID_00000098914145083246421960000010654655036080051082_);}
	.st46{fill-rule:evenodd;clip-rule:evenodd;fill:#00AEEF;}
	.st47{fill-rule:evenodd;clip-rule:evenodd;fill:#EC008C;}
	.st48{fill-rule:evenodd;clip-rule:evenodd;fill:#FFF200;}
	.st49{fill:#A7AAAC;}
	.st50{fill-rule:evenodd;clip-rule:evenodd;fill:#5C5B5B;}
	.st51{fill:#9D9D9F;}
	.st52{fill:#F04D23;}
	.st53{fill-rule:evenodd;clip-rule:evenodd;fill:#2E3192;}
	.st54{fill-rule:evenodd;clip-rule:evenodd;fill:#C4312D;}
	.st55{fill:#552715;}
	.st56{fill:#010101;}
	.st57{fill:#E31E2E;}
	.st58{fill:url(#SVGID_00000121993153994425090540000007338393068892265883_);}
	.st59{fill:url(#SVGID_00000178172590110842144540000017656799560710934414_);}
	.st60{clip-path:url(#SVGID_00000074415397636827263820000009444934294032388745_);}
	.st61{clip-path:url(#SVGID_00000132056784038210391430000009556955948838406055_);}
	.st62{clip-path:url(#SVGID_00000121250542629957626730000004645639270793467021_);}
	.st63{clip-path:url(#SVGID_00000165204570719344505490000008572105503746528424_);}
	.st64{clip-path:url(#SVGID_00000018226263799425817120000004323566524726901916_);}
	.st65{clip-path:url(#SVGID_00000127739990358328439940000002008091224581416323_);}
	.st66{clip-path:url(#SVGID_00000018937444302749673290000000588214462069179817_);}
	.st67{clip-path:url(#SVGID_00000007419789980198682810000016319280615044208003_);}
	.st68{clip-path:url(#SVGID_00000175306821213243505740000016142345065843047571_);}
	.st69{clip-path:url(#SVGID_00000103225781297356023380000005315863314550111420_);}
	.st70{clip-path:url(#SVGID_00000160902814990564594630000000944405393713959075_);}
	.st71{fill:#2650A1;}
	.st72{fill:url(#SVGID_00000022526341454890279680000004535209983252153763_);}
	.st73{fill:#FEFEFE;}
	.st74{fill:#FDFDFD;}
	.st75{fill:#FCFCFC;}
	.st76{fill:#FBFBFB;}
	.st77{fill:#FAFAFA;}
	.st78{fill:#F9F9F9;}
	.st79{fill:#F8F8F8;}
	.st80{fill:#F7F7F7;}
	.st81{fill:#F6F6F6;}
	.st82{fill:#F5F5F5;}
	.st83{fill:#F4F4F4;}
	.st84{fill:#F3F3F3;}
	.st85{fill:#F2F2F2;}
	.st86{fill:#F1F1F1;}
	.st87{fill:#F0F0F0;}
	.st88{fill:#EFEFEF;}
	.st89{fill:#EEEEEE;}
	.st90{fill:#EDEDED;}
	.st91{fill:#ECECEC;}
	.st92{fill:#EBEBEB;}
	.st93{fill:#EAEAEA;}
	.st94{fill:#E9E9E9;}
	.st95{fill:#E8E8E8;}
	.st96{fill:#E7E7E7;}
	.st97{fill:#E6E6E6;}
	.st98{fill:#E5E5E5;}
	.st99{fill:#E4E4E4;}
	.st100{fill:#E3E3E3;}
	.st101{fill:#E2E2E2;}
	.st102{fill:#E1E1E1;}
	.st103{fill:#E0E0E0;}
	.st104{fill:#DFDFDF;}
	.st105{fill:#DEDEDE;}
	.st106{fill:#DDDDDD;}
	.st107{fill:#DCDCDC;}
	.st108{fill:#DBDBDB;}
	.st109{fill:#DADADA;}
	.st110{fill:#D9D9D9;}
	.st111{fill:#D92231;}
	.st112{fill:url(#SVGID_00000022532335194252146420000004074346039720554170_);}
	.st113{fill:url(#SVGID_00000023239476557825555920000005684276680376916144_);}
	.st114{opacity:0.8;}
	.st115{fill:url(#SVGID_00000036224288591222719740000000420768800669132970_);}
	.st116{fill:url(#SVGID_00000176038285992370336010000004614448218586110855_);}
	.st117{fill-rule:evenodd;clip-rule:evenodd;fill:#010101;}
	.st118{fill:#80A845;}
	.st119{fill-rule:evenodd;clip-rule:evenodd;fill:#80A845;}
	.st120{fill:url(#SVGID_00000080182221036710084640000011500150947688076727_);}
	.st121{fill-rule:evenodd;clip-rule:evenodd;fill:#04984A;}
	.st122{fill-rule:evenodd;clip-rule:evenodd;fill:url(#SVGID_00000150090968131382471550000017984601134836744333_);}
	.st123{fill:url(#SVGID_00000052796645505386356820000010008575967637734817_);}
	.st124{fill:url(#SVGID_00000008124770163515361390000010241816666649455545_);}
	.st125{fill:url(#SVGID_00000066500489059128281360000003569536677076850081_);}
	.st126{fill:url(#SVGID_00000144307303014935175640000000220313223294128310_);}
	.st127{fill:url(#SVGID_00000023243506435968620970000001245275528795572886_);}
	.st128{fill:url(#SVGID_00000170974791220410035110000002766429531460180399_);}
	.st129{fill:url(#SVGID_00000093137203384733792990000017792422967567001992_);}
	.st130{fill:url(#SVGID_00000160902886732285296820000001822567128728150678_);}
	.st131{fill:url(#SVGID_00000026873876075602023590000001333382345678224313_);}
	.st132{fill:url(#SVGID_00000157296601949955638180000006204933698566398644_);}
	.st133{fill:url(#SVGID_00000080197232215318122330000011615902561454068367_);}
	.st134{fill:url(#SVGID_00000109708642028403981320000017168442106041854140_);}
	.st135{fill:url(#SVGID_00000025402210546476615820000013647543883541382303_);}
	.st136{fill:url(#SVGID_00000085972640367760703080000006446755933846025390_);}
	.st137{fill-rule:evenodd;clip-rule:evenodd;fill:url(#SVGID_00000092443179364289633920000003157067767571890332_);}
	.st138{fill:#0A529D;}
	.st139{fill:url(#SVGID_00000133525776481894056140000015101709308699433860_);}
	.st140{fill:url(#SVGID_00000053546790048443081780000016585713891593209734_);}
	.st141{fill:url(#SVGID_00000182523426022011552380000008279566789113360520_);}
	.st142{fill:url(#SVGID_00000044177165180691776080000017238542168500432280_);}
	.st143{fill:url(#SVGID_00000041260333559037483420000001782947584127241610_);}
	.st144{fill:url(#SVGID_00000088816676608620384190000002513926077113706407_);}
	.st145{fill:url(#SVGID_00000096763403073131196300000008047825753278843565_);}
	.st146{fill:url(#SVGID_00000079453773922099983040000003248144997607698817_);}
	.st147{fill:url(#SVGID_00000016046438186327835880000013286279923467088273_);}
	.st148{fill:url(#SVGID_00000101791463916274680360000007454779760746056603_);}
	.st149{fill:url(#SVGID_00000001632884001698866150000004218200781254452388_);}
	.st150{fill:url(#SVGID_00000097459638664571360930000016616480804773494402_);}
	.st151{fill-rule:evenodd;clip-rule:evenodd;fill:url(#SVGID_00000152265845961172557350000010996892678071136134_);}
	.st152{fill:url(#SVGID_00000037688499920105736100000015880410118423232696_);}
	.st153{fill:url(#SVGID_00000106120404408482262980000005943065149418387369_);}
	.st154{fill:url(#SVGID_00000051353405043697318850000009979729814349345666_);}
	.st155{fill:url(#SVGID_00000033359706082453211010000011565839015333528471_);}
	.st156{fill:url(#SVGID_00000093159568235545229540000003418815365013981076_);}
	.st157{fill:url(#SVGID_00000138558950134118588200000007521302514179845299_);}
	.st158{fill:url(#SVGID_00000108289414523943617300000004192987386430512003_);}
	.st159{fill:url(#SVGID_00000116213961767731250780000010505194495847570095_);}
	.st160{fill:url(#SVGID_00000011017863311618672700000008393810424720740269_);}
	.st161{fill:url(#SVGID_00000112605156736249012110000009466036530305445802_);}
	.st162{fill:url(#SVGID_00000012434997883171292230000012384311339368170933_);}
	.st163{fill:url(#SVGID_00000088125136772430822690000001239272515517355190_);}
	.st164{fill:url(#SVGID_00000183952785476209615470000001397613109555389841_);}
	.st165{fill:url(#SVGID_00000114037944916667040960000009329746587484592574_);}
	.st166{fill:url(#SVGID_00000035515980213977782320000014082568588607488384_);}
	.st167{fill:url(#SVGID_00000016056276535699739240000010930987562250007981_);}
	.st168{fill:url(#SVGID_00000024721956928532593450000007671684364670977953_);}
	.st169{fill-rule:evenodd;clip-rule:evenodd;fill:url(#SVGID_00000071539008397653974430000016078362992869010306_);}
	.st170{fill:url(#SVGID_00000121269876591791837850000010201626393429322401_);}
	.st171{fill:url(#SVGID_00000181088330367454211940000013579782169357582743_);}
	.st172{fill:url(#SVGID_00000173147993736014348810000002538651270731003324_);}
	.st173{fill:url(#SVGID_00000114795459613121239480000001091447907281252799_);}
	.st174{fill:url(#SVGID_00000150081015495709120970000017559441624109608876_);}
	.st175{fill:url(#SVGID_00000008866120829319503660000002967250934166060219_);}
	.st176{fill:url(#SVGID_00000161598284827965521850000003751292619443934882_);}
	.st177{fill:url(#SVGID_00000029026407719769980720000010513344115097868463_);}
	.st178{fill:url(#SVGID_00000070807602589923853710000017780388305725305023_);}
	.st179{fill:url(#SVGID_00000026141556830201097120000014065877324585441973_);}
	.st180{fill:url(#SVGID_00000065772060456172590200000005300937692491140764_);}
	.st181{fill:url(#SVGID_00000152252332921544462550000015244562932190214287_);}
	.st182{fill:url(#SVGID_00000183937159564956192480000008802878889925182373_);}
	.st183{fill:url(#SVGID_00000180366372608427877600000003507330403564249739_);}
	.st184{fill-rule:evenodd;clip-rule:evenodd;fill:url(#SVGID_00000134223849493642991190000009262715653651421075_);}
	.st185{fill:url(#SVGID_00000176727143193508210780000012731910435263302297_);}
	.st186{fill:url(#SVGID_00000160158577954707899630000016171391511012193714_);}
	.st187{fill:url(#SVGID_00000098908564062258191340000016677566198567348399_);}
	.st188{fill:url(#SVGID_00000181046514727835628720000014360182571646828467_);}
	.st189{fill:url(#SVGID_00000078757761170393146310000005904629406420893590_);}
	.st190{fill:url(#SVGID_00000093158088293013106660000010105964374466344338_);}
	.st191{fill:url(#SVGID_00000013886881938285884290000015928361950682685312_);}
	.st192{fill:url(#SVGID_00000082359708662316092880000002134958812509931956_);}
	.st193{fill:url(#SVGID_00000142876212046145660370000010081067796379862666_);}
	.st194{fill:url(#SVGID_00000000202296417901294800000012565645078049541263_);}
	.st195{fill:url(#SVGID_00000022529460464285435170000005281417006899261881_);}
	.st196{fill:url(#SVGID_00000152229990015327614820000005318668212601205122_);}
	.st197{fill:url(#SVGID_00000182505790825017387010000001633120437853784983_);}
	.st198{fill:url(#SVGID_00000183248213670733228640000004212997419822370712_);}
	.st199{fill:url(#SVGID_00000098194387829882430420000016630367127887026307_);}
	.st200{fill:url(#SVGID_00000111152332572207756480000008677175012432062618_);}
	.st201{fill:url(#SVGID_00000051385733288653145160000007374864790232178818_);}
	.st202{fill:url(#SVGID_00000113350004195359434820000002505199062048722304_);}
	.st203{fill:url(#SVGID_00000113352428547466971020000013148708601831777443_);}
	.st204{fill-rule:evenodd;clip-rule:evenodd;fill:url(#SVGID_00000146473158602107746110000016756721133696873396_);}
	.st205{fill:url(#SVGID_00000049929650534360903510000015808926965391199108_);}
	.st206{fill:url(#SVGID_00000113329116066543462600000012474501230328753848_);}
	.st207{fill:url(#SVGID_00000150787332433711591920000011741634455769680005_);}
	.st208{fill:url(#SVGID_00000135659566182251411210000008273529855509548453_);}
	.st209{fill:url(#SVGID_00000095309447240314506150000010596275661030846615_);}
	.st210{fill:url(#SVGID_00000147204227598285481850000000465983380952070044_);}
	.st211{fill:url(#SVGID_00000010989843058971459160000007080443309596599951_);}
	.st212{fill:url(#SVGID_00000034065806986363241120000018429731765742241451_);}
	.st213{fill:url(#SVGID_00000165938990108885724150000016727525584540429196_);}
	.st214{fill:url(#SVGID_00000080194000946420685560000002363602678746444421_);}
	.st215{fill:url(#SVGID_00000000222864620992290490000013788330639400043677_);}
	.st216{fill:url(#SVGID_00000049905246339106524440000017160887037798716036_);}
	.st217{fill:url(#SVGID_00000041278277614393890210000006267603415770400679_);}
	.st218{fill:url(#SVGID_00000168824168905566992850000010975101574569871254_);}
	.st219{fill:url(#SVGID_00000142143595949239999190000004789671240204106926_);}
	.st220{fill:url(#SVGID_00000039844233100940630700000003357265474753026948_);}
	.st221{fill-rule:evenodd;clip-rule:evenodd;fill:url(#SVGID_00000136382042447477535310000010796076240838156196_);}
	.st222{fill:url(#SVGID_00000148658086475377359900000008750034037487398580_);}
	.st223{fill:url(#SVGID_00000141457896292542186280000002574141014512950951_);}
	.st224{fill:url(#SVGID_00000132069336683439397000000010464795319638120612_);}
	.st225{fill:url(#SVGID_00000175308078554394602950000014334358908891698848_);}
	.st226{fill:url(#SVGID_00000025441516731592218940000010542786174323188119_);}
	.st227{fill:url(#SVGID_00000021096789987672234800000016524266151136778890_);}
	.st228{fill:url(#SVGID_00000008151268198482149200000003273100650189451153_);}
	.st229{fill:url(#SVGID_00000131343674265529692150000008388661833579324570_);}
	.st230{fill:url(#SVGID_00000006701121525586906270000007726319697686306447_);}
	.st231{fill:url(#SVGID_00000041261252360527553500000008510675175087255428_);}
	.st232{fill:url(#SVGID_00000087384715738267960040000017199878733242464898_);}
	.st233{fill:url(#SVGID_00000080919821436218496120000014084027115829540744_);}
	.st234{fill:url(#SVGID_00000006682935147285903600000008367347021320381581_);}
	.st235{fill:url(#SVGID_00000092426855864511543770000007893304387390565278_);}
	.st236{fill:url(#SVGID_00000047038215519373346440000011583729543088329919_);}
	.st237{fill-rule:evenodd;clip-rule:evenodd;fill:url(#SVGID_00000082351947141618564990000014561652607042241677_);}
	.st238{fill:url(#SVGID_00000024681464620844839410000014244218721589480586_);}
	.st239{fill:url(#SVGID_00000104681267267130503920000012002619094704943491_);}
	.st240{fill:url(#SVGID_00000069372345946964568430000015776445844878627754_);}
	.st241{fill:url(#SVGID_00000103250718869896406000000012377274749832539283_);}
	.st242{fill:url(#SVGID_00000026157167124014467670000007402026994365601444_);}
	.st243{fill:url(#SVGID_00000070816118884442362260000014302718201086358417_);}
	.st244{fill:url(#SVGID_00000056400272996622109370000018407473101746535823_);}
	.st245{fill:url(#SVGID_00000045580332212287426450000010030956969711222706_);}
	.st246{fill:url(#SVGID_00000011003779837836406290000005782209066850304141_);}
	.st247{fill:url(#SVGID_00000032633938147051054100000003706811084461422720_);}
	.st248{fill:url(#SVGID_00000098927565163741018580000002634119641325456812_);}
	.st249{fill:url(#SVGID_00000088846590473826948260000017646781528826952359_);}
	.st250{fill:url(#SVGID_00000007429141327112168830000002173694653146358409_);}
	.st251{fill:url(#SVGID_00000176763183363239425610000013549008690824407711_);}
	.st252{fill:url(#SVGID_00000109718832867653131620000015174465966282461118_);}
	.st253{fill-rule:evenodd;clip-rule:evenodd;fill:url(#SVGID_00000153672441919381668790000004087546407902450091_);}
	.st254{fill:url(#SVGID_00000025401654824406181100000002324084957762342292_);}
	.st255{fill:url(#SVGID_00000046302665960777032370000007432960747932166571_);}
	.st256{fill:url(#SVGID_00000034063634917320595290000016171933145070800513_);}
	.st257{fill:url(#SVGID_00000124128969911479108850000017881987196734829988_);}
	.st258{fill:url(#SVGID_00000176022552241331531060000004740814870774704572_);}
	.st259{fill:url(#SVGID_00000096775531123440896270000014071217281323199649_);}
	.st260{fill:url(#SVGID_00000177468853172631490950000014622410085300316298_);}
	.st261{fill:url(#SVGID_00000063612618567877269940000009142792758879327629_);}
	.st262{fill:url(#SVGID_00000108283931420277647930000008461205608392469439_);}
	.st263{fill:url(#SVGID_00000078762239881857503840000009510055253972919966_);}
	.st264{fill:url(#SVGID_00000129179723837064930960000007746260412026805671_);}
	.st265{fill:url(#SVGID_00000129895462161291195280000006478039327860430763_);}
	.st266{fill:url(#SVGID_00000149371725246049760830000006219497688607503012_);}
	.st267{fill:url(#SVGID_00000070081376419681322090000018087388395346799010_);}
	.st268{fill:url(#SVGID_00000091718927184278206480000016123038861196728239_);}
	.st269{fill-rule:evenodd;clip-rule:evenodd;fill:url(#SVGID_00000109749202058301882050000006259764525007923897_);}
	.st270{fill:url(#SVGID_00000167392072607769250690000003192795847765011335_);}
	.st271{fill:url(#SVGID_00000080884729675614953740000015382000458608264597_);}
	.st272{fill:url(#SVGID_00000078028719086933024480000009298835841107361413_);}
	.st273{fill:url(#SVGID_00000139262999860383783550000015977649792580141998_);}
	.st274{fill:url(#SVGID_00000146485121653052571440000011687183029657918115_);}
	.st275{fill:url(#SVGID_00000172441386054364468220000014292365613334044814_);}
	.st276{fill:url(#SVGID_00000035501625535646175420000016152460618514751152_);}
	.st277{fill:url(#SVGID_00000132800488033356770250000007912561349111161247_);}
	.st278{fill:url(#SVGID_00000164488607132973367910000013619713771969503420_);}
	.st279{fill:url(#SVGID_00000163062674248448251580000013372018797455825807_);}
	.st280{fill:url(#SVGID_00000086657098512873149200000015190124102057382794_);}
	.st281{fill:url(#SVGID_00000093878003497320919070000006205408413120872108_);}
	.st282{fill:url(#SVGID_00000114792599560777479790000001578077882381485954_);}
	.st283{fill:url(#SVGID_00000124158453293360055370000018163005998585158059_);}
	.st284{fill:url(#SVGID_00000051352779970555477440000015347821329647516579_);}
	.st285{fill-rule:evenodd;clip-rule:evenodd;fill:url(#SVGID_00000058553167035517310570000000310260285549646233_);}
	.st286{fill:url(#SVGID_00000181765282560098019400000004718390773111627439_);}
	.st287{fill:url(#SVGID_00000060753453179716971180000015484115088933125544_);}
	.st288{fill:url(#SVGID_00000088850522837261189410000006740709575238477480_);}
	.st289{fill:url(#SVGID_00000128472294639026444230000010964148060494225313_);}
	.st290{fill:url(#SVGID_00000069375550182198322820000017424586278969204415_);}
	.st291{fill:url(#SVGID_00000011748460758933942160000017009756256635928219_);}
	.st292{fill:url(#SVGID_00000174574371935981660170000004377562548631177387_);}
	.st293{fill:url(#SVGID_00000168106034183216297270000008897101558810498486_);}
	.st294{fill:url(#SVGID_00000041997986844176932280000016393967993361442189_);}
	.st295{fill:url(#SVGID_00000117665976898400735640000012534881199718284956_);}
	.st296{fill:url(#SVGID_00000114752969766399533880000010680493808573652407_);}
	.st297{fill:url(#SVGID_00000176040080322637420930000016719441327205067967_);}
	.st298{fill:url(#SVGID_00000019678741789510744660000013617434816310111421_);}
	.st299{fill:url(#SVGID_00000163770354379144277210000005918073316127669888_);}
	.st300{fill:url(#SVGID_00000111185855247451990310000004208134524646863035_);}
	.st301{fill:url(#SVGID_00000157298590570315052760000009302439817424116359_);}
	.st302{fill:url(#SVGID_00000024685211913587950820000004757869826200784015_);}
	.st303{fill:url(#SVGID_00000050647448656357725080000011446137459757766576_);}
	.st304{fill-rule:evenodd;clip-rule:evenodd;fill:url(#SVGID_00000085232150209174930440000006150730288166360475_);}
	.st305{fill:url(#SVGID_00000059286884913468328080000011521187873865490820_);}
	.st306{fill:url(#SVGID_00000170266267096432148480000013016320416735464101_);}
	.st307{fill:url(#SVGID_00000090292113065779070730000012986097389875787160_);}
	.st308{fill:url(#SVGID_00000039837121975721931990000006802828804957998515_);}
	.st309{fill:url(#SVGID_00000131354181257915454310000002904529332904695728_);}
	.st310{fill:url(#SVGID_00000143614017170330063470000000135774447738767289_);}
	.st311{fill:url(#SVGID_00000028285518589050246350000007556284119331958199_);}
	.st312{fill:url(#SVGID_00000027602685608471996980000001339604031290744224_);}
	.st313{fill:url(#SVGID_00000155139678737106001920000002012784759020989625_);}
	.st314{fill:url(#SVGID_00000138564980817520206140000012958910406398341764_);}
	.st315{fill:url(#SVGID_00000132783504789438961990000003207416169619908745_);}
	.st316{fill:url(#SVGID_00000173159041565520410520000005099166210470335643_);}
	.st317{fill:url(#SVGID_00000091695612890248392710000004333081096189516467_);}
	.st318{fill:url(#SVGID_00000149362653572593223730000017379799812040779707_);}
	.st319{fill:url(#SVGID_00000025430840649262088180000018011375689854015395_);}
	.st320{fill:url(#SVGID_00000052805177743992066400000011066688679043214994_);}
	.st321{fill:url(#SVGID_00000039105158133849059700000005355423800580381067_);}
	.st322{fill:url(#SVGID_00000106135679663403655140000010374439707028403336_);}
	.st323{fill:url(#SVGID_00000021826324774706883640000013721232313904246158_);}
	.st324{fill:url(#SVGID_00000088851192774995298990000009554905582075142568_);}
	.st325{fill-rule:evenodd;clip-rule:evenodd;fill:url(#SVGID_00000027568217914782378290000005806344866036706960_);}
	.st326{fill:url(#SVGID_00000076595192371556757770000012955260613289912205_);}
	.st327{fill:url(#SVGID_00000084489833574285859990000001279455987440834471_);}
	.st328{fill:url(#SVGID_00000058558415470792642980000009791274011241533870_);}
	.st329{fill:url(#SVGID_00000057845812589781491910000012448266832186936965_);}
	.st330{fill:url(#SVGID_00000093176545157878547290000002110186024851989894_);}
	.st331{fill:url(#SVGID_00000132772612203066483700000018293426959937376395_);}
	.st332{fill:url(#SVGID_00000102508064109960850840000008580552077020568738_);}
	.st333{fill:url(#SVGID_00000004528094101009346180000001606848875854815381_);}
	.st334{fill:url(#SVGID_00000116203911479186021620000000371270855370084278_);}
	.st335{fill:url(#SVGID_00000000902927999024582910000016440100061071116444_);}
	.st336{fill:url(#SVGID_00000183968433862688877910000009614836500959162280_);}
	.st337{fill:url(#SVGID_00000041253676039508092090000008870194457161070999_);}
	.st338{fill:url(#SVGID_00000074439686930618774390000012934313608493252788_);}
	.st339{fill:url(#SVGID_00000176033055921928624550000013346794241657418404_);}
	.st340{fill:url(#SVGID_00000145739752596297755180000004442405950271421359_);}
	.st341{fill:url(#SVGID_00000098907913295759894280000001415637091130633856_);}
	.st342{fill-rule:evenodd;clip-rule:evenodd;fill:url(#SVGID_00000111909413611854766730000009250155300411967149_);}
	.st343{fill:url(#SVGID_00000036942462351898497080000004923966024543390348_);}
	.st344{fill:url(#SVGID_00000100365402824891164230000001934120340834289549_);}
	.st345{fill:url(#SVGID_00000073718054828271695020000015054696265600144258_);}
	.st346{fill:url(#SVGID_00000175303805550602350740000015003119154325700527_);}
	.st347{fill:url(#SVGID_00000179626729857130743120000003308094085669542804_);}
	.st348{fill:url(#SVGID_00000080900696098732074470000004888870593388105635_);}
	.st349{fill:url(#SVGID_00000122679964338019298830000008139738592537448576_);}
	.st350{fill:url(#SVGID_00000098909996828389738590000012749099036065478818_);}
	.st351{fill:url(#SVGID_00000158008951669118390580000006059261035287727519_);}
	.st352{fill:url(#SVGID_00000179610632731623467430000017144669735665776011_);}
	.st353{fill:url(#SVGID_00000055703818914152851590000001785542449936893577_);}
	.st354{fill:url(#SVGID_00000031889338334084259140000016929800084826909610_);}
	.st355{fill:url(#SVGID_00000128463982312193613820000009124960608461724322_);}
	.st356{fill:url(#SVGID_00000134962751869181389210000013879200784055430553_);}
	.st357{fill:url(#SVGID_00000049927941637503367490000008737268282975838848_);}
	.st358{fill:url(#SVGID_00000073702780048067804980000014445171752691562935_);}
	.st359{fill:url(#SVGID_00000083770329473512797880000004597759169883693222_);}
	.st360{fill:url(#SVGID_00000165234186817693028960000009246872879948294019_);}
	.st361{fill:url(#SVGID_00000170981438491765119510000004087535995544371640_);}
	.st362{fill:url(#SVGID_00000044136605734076580810000009874662466337227405_);}
	.st363{fill:#C1282D;}
	.st364{fill-rule:evenodd;clip-rule:evenodd;fill:url(#SVGID_00000168098526752423064310000005923349728651140259_);}
	.st365{fill:url(#SVGID_00000013880620866006447370000013935929018059884703_);}
	.st366{fill:url(#SVGID_00000088104994606160849960000013847514931968440251_);}
	.st367{fill:url(#SVGID_00000044861863994537821210000004239584153652353683_);}
	.st368{fill:url(#SVGID_00000025441425601883633220000015869627088900338073_);}
	.st369{fill:url(#SVGID_00000128475649366484762030000010280096749806695359_);}
	.st370{fill:url(#SVGID_00000135651098627037189860000002717273173561471671_);}
	.st371{fill:url(#SVGID_00000072278720739825097250000011666201967503557559_);}
	.st372{fill:url(#SVGID_00000069360638669124103990000010141429579901697464_);}
	.st373{fill:url(#SVGID_00000140732700835091108400000018134321401528940967_);}
	.st374{fill:url(#SVGID_00000040550820728321401110000002016032845941672882_);}
	.st375{fill:url(#SVGID_00000066476067997392698890000015289754222664902017_);}
	.st376{fill:url(#SVGID_00000075162014262070628890000008656399791157579692_);}
	.st377{fill:url(#SVGID_00000147222141186495492790000006178784520017027263_);}
	.st378{fill:url(#SVGID_00000171701774549594581850000016337885835984795021_);}
	.st379{fill:url(#SVGID_00000047041868337313684310000014112848132271613353_);}
	.st380{fill:url(#SVGID_00000072990498222289747680000018415969526926143910_);}
	.st381{fill-rule:evenodd;clip-rule:evenodd;fill:url(#SVGID_00000059307279073818732020000012800383232579439535_);}
	.st382{fill:url(#SVGID_00000016033023859495088250000007347986063370447503_);}
	.st383{fill:url(#SVGID_00000160880189147866625620000002330645796727784596_);}
	.st384{fill:url(#SVGID_00000181059697752039293620000011694689249262160519_);}
	.st385{fill:url(#SVGID_00000139977667887981109670000016545339596486801057_);}
	.st386{fill:url(#SVGID_00000052066357793133122230000010633004101984234674_);}
	.st387{fill:url(#SVGID_00000031922708054588199700000012504837491964863913_);}
	.st388{fill:url(#SVGID_00000000186176295971248960000001707853797281579452_);}
	.st389{fill:url(#SVGID_00000172406824461343997830000001356884280154810027_);}
	.st390{fill:url(#SVGID_00000047781737407743738360000006549640086178357390_);}
	.st391{fill:url(#SVGID_00000018930505315735455400000012945474451871519890_);}
	.st392{fill:url(#SVGID_00000007419260763870225700000003030065660790470327_);}
	.st393{fill:url(#SVGID_00000113318565708892730840000002857029255612171678_);}
	.st394{fill:url(#SVGID_00000058557593595819554400000003696389612117711744_);}
	.st395{fill:url(#SVGID_00000057833979554426959140000000434823698716061063_);}
	.st396{fill:url(#SVGID_00000103981503553155731170000003420345902272594612_);}
	.st397{fill:url(#SVGID_00000029748200321161070330000001004212862835361194_);}
	.st398{fill:url(#SVGID_00000025439754114626891810000005197585920291658881_);}
	.st399{fill:url(#SVGID_00000067232705222491877920000002149743236538831241_);}
	.st400{fill:url(#SVGID_00000152250273981727779380000011594284465322652288_);}
	.st401{fill:url(#SVGID_00000150070907455808630660000014642305994983965631_);}
</style>
<g>
	<path d="M540.65,570.37c-16.1,0.09-32.03-1.14-47.93-2.85c-13.03-1.4-26.07-2.66-39.07-4.21c-10.62-1.26-21.22-2.81-31.81-4.33
		c-11.54-1.66-23.07-3.4-34.59-5.17c-10.89-1.68-21.77-3.45-32.65-5.18c-5.2-0.83-10.41-1.64-15.61-2.5
		c-2.2-0.36-4.43-0.68-6.58-1.28c-3.52-0.99-5.8-3.26-6.39-7c-0.22-1.42-0.48-2.84-0.6-4.27c-1.09-13.23-2.1-26.46-3.26-39.68
		c-0.63-7.17-1.52-14.31-2.26-21.47c-0.15-1.43-0.25-2.87-0.25-4.31c-0.02-12.34-1.46-24.58-2.69-36.83
		c-0.62-6.2-1.08-12.43-1.49-18.65c-0.32-4.95,0.72-7.2,7.06-6.77c6.7,0.46,13.39,0.97,20.08,1.44c8.13,0.57,16.26,1.17,24.39,1.65
		c15,0.88,30,1.69,45,2.5c7.18,0.39,14.36,0.78,21.55,1.08c20.76,0.85,41.51,1.98,62.29,2.44c23.5,0.51,46.99,0.74,70.48,0.24
		c20.29-0.43,40.59-0.92,60.88-1.66c16.61-0.6,33.2-1.61,49.8-2.45c7.82-0.4,15.64-0.77,23.46-1.27c12.28-0.78,24.55-1.67,36.83-2.5
		c7.49-0.51,14.99-1.07,22.49-1.44c5.61-0.28,6.46,0.66,6.02,6.31c-0.92,11.8-1.96,23.59-2.91,35.38
		c-0.79,9.88-1.45,19.78-2.3,29.66c-1.09,12.58-2.36,25.15-3.46,37.73c-0.54,6.21-0.9,12.44-1.32,18.66
		c-0.09,1.28-0.01,2.57-0.16,3.83c-0.45,3.93-2.6,6.46-6.46,7.41c-1.7,0.42-3.44,0.72-5.17,1c-22.07,3.56-44.13,7.25-66.23,10.59
		c-15.32,2.31-30.7,4.2-46.07,6.12c-12.36,1.55-24.74,3.03-37.14,4.25C576.61,568.62,558.66,570.8,540.65,570.37z"/>
	<path d="M770.43,259.4c2.1,2.05,2.05,4.33,2,6.56c-0.06,2.4-0.22,4.8-0.48,7.18c-0.95,8.77-0.7,17.57-0.89,26.36
		c-0.24,10.87-0.56,21.75-1.2,32.6c-1,16.93-1.96,33.85-1.84,50.82c0.01,1.43,0.02,2.89-0.2,4.29c-0.37,2.26-1.76,3.8-3.99,4.29
		c-2.02,0.44-4.09,0.75-6.16,0.87c-13.72,0.8-27.44,1.5-41.16,2.29c-19.46,1.12-38.92,2.32-58.39,3.4
		c-9.41,0.52-18.84,0.87-28.26,1.23c-15.17,0.59-30.34,1.37-45.52,1.64c-21.25,0.38-42.52,0.74-63.76,0.42
		c-25.88-0.39-51.76-1.34-77.63-2.32c-18.52-0.7-37.04-1.72-55.54-2.83c-15.47-0.92-30.92-2.24-46.38-3.25
		c-5.26-0.34-10.54-0.28-15.81-0.43c-1.6-0.04-3.22,0.01-4.78-0.26c-5.16-0.89-7.44-3.75-7.4-8.96c0.02-3.03,0.04-6.07-0.05-9.09
		c-0.37-12.31-0.71-24.62-1.2-36.93c-0.81-20.14-1.74-40.27-2.61-60.4c-0.12-2.88-0.19-5.75-0.23-8.63
		c-0.01-1.11,0.04-2.25,0.26-3.34c0.52-2.59,2.02-4.39,4.72-4.75c2.84-0.38,5.72-0.74,8.58-0.77c18.7-0.14,37.4-0.24,56.1-0.26
		c24.61-0.02,49.23,0.02,73.84,0.07c10.06,0.02,20.12-0.6,30.2-0.05c4.29,0.23,8.61-0.38,12.92-0.37
		c11.51,0.02,23.01,0.24,34.52,0.25c47.31,0.05,94.62,0.04,141.93,0.08c31.81,0.03,63.61,0.1,95.42,0.16
		C768.39,259.28,769.34,259.35,770.43,259.4z"/>
	<path d="M24.48,368.07c-0.09-0.5-0.28-1.12-0.31-1.75c-0.85-16.94-1.68-33.88-0.99-50.84c0.23-5.58,0.59-11.21,1.66-16.67
		c2.79-14.24,11.91-23.04,25.42-27.26c5.76-1.8,11.82-2.76,17.81-3.65c13.45-2.01,27.04-2.41,40.62-2.93
		c9.42-0.36,18.84-0.88,28.26-1.18c21.72-0.67,43.45-1.31,65.18-1.86c21.89-0.55,43.78-1.05,65.67-1.4
		c7.98-0.13,15.97,0.22,23.96,0.39c0.94,0.02,1.89,0.21,3.08,0.36c0.15,1.11,0.4,2.18,0.43,3.25c0.41,13.75,0.69,27.5,1.22,41.25
		c0.29,7.51,1.07,14.99,1.48,22.5c0.31,5.75,0.7,11.52,0.52,17.26c-0.4,12.5,0.73,24.93,1.29,37.39c0.1,2.22,0.01,4.44,0.01,6.86
		c-0.97,0.24-1.86,0.6-2.76,0.66c-1.75,0.11-3.52,0.15-5.27,0.02c-10.2-0.76-20.39-1.61-30.59-2.37
		c-10.52-0.79-21.04-1.5-31.56-2.27c-11-0.81-21.99-1.66-32.98-2.49c-5.26-0.4-10.52-0.79-15.77-1.19
		c-16.57-1.25-33.14-2.5-49.71-3.74c-10.2-0.76-20.4-1.46-30.59-2.27c-9.4-0.75-18.78-1.65-28.17-2.44
		c-9.23-0.79-18.47-1.53-27.71-2.29c-4.62-0.38-9.24-0.71-13.85-1.18C28.62,369.98,26.29,369.99,24.48,368.07z"/>
	<path d="M781.59,389.8c-0.12-6.12,0.26-11.68,0.52-17.26c0.27-5.91,0.53-11.82,0.66-17.73c0.11-5.12-0.08-10.24,0.08-15.35
		c0.14-4.31,0.45-8.62,0.92-12.9c1.69-15.29,1.85-30.63,1.91-45.99c0.02-4.8,0.17-9.59,0.3-14.39c0.04-1.58,0.2-3.15,0.29-4.45
		c1.95-1.57,3.89-1.54,5.81-1.52c6.39,0.09,12.78,0.19,19.17,0.33c26.2,0.57,52.38,1.86,78.6,1.69c6.55-0.04,13.1,0.01,19.66-0.02
		c8-0.04,15.95,0.86,23.92,1.33c11.16,0.66,22.34,1.22,33.52,1.37c9.76,0.13,19.48,0.7,29.18,1.58c7.79,0.71,15.58,1.45,23.36,2.31
		c5.26,0.59,10.34,1.97,15.14,4.28c8.83,4.25,15.36,10.89,19.62,19.63c2.4,4.92,3.18,10.36,3.78,15.77c0.21,1.9,0.31,3.83,0.3,5.75
		c-0.06,13.27-0.11,26.55-0.3,39.82c-0.05,3.51-0.5,7.02-0.93,10.5c-0.48,3.83-1.52,4.96-5.48,5.41
		c-5.55,0.63-11.14,0.96-16.71,1.42c-10.19,0.85-20.37,1.72-30.56,2.57c-8.91,0.75-17.83,1.49-26.75,2.22
		c-10.67,0.88-21.33,1.75-32,2.6c-9.4,0.75-18.79,1.46-28.19,2.19c-11.31,0.87-22.62,1.75-33.93,2.62
		c-5.1,0.39-10.19,0.78-15.29,1.15c-12.91,0.92-25.81,1.85-38.72,2.74c-5.26,0.36-10.52,0.66-15.79,0.95
		c-9.73,0.53-19.47,1.03-29.2,1.52C783.7,389.99,782.93,389.88,781.59,389.8z"/>
	<path d="M311.86,531.34c0,2.05,0.1,3.97-0.03,5.88c-0.13,1.9-1.22,2.93-3.07,3c-1.1,0.04-2.23-0.11-3.32-0.32
		c-17.1-3.24-34.22-6.36-51.29-9.78c-23.8-4.77-47.57-9.67-71.31-14.7c-24.39-5.16-48.53-11.28-71.87-20.18
		c-8.35-3.19-16.61-6.66-24.67-10.51c-16.02-7.64-29.49-18.51-39.51-33.3c-3.4-5.01-6.22-10.42-9.21-15.7
		c-0.61-1.09-0.84-2.4-1.17-3.64c-1.55-5.71-3.23-11.37-5.65-16.79c-1.58-3.55-2.37-7.31-2.74-11.13
		c-0.56-5.73-0.91-11.48-1.29-17.22c-0.16-2.44,0.56-3.19,3.03-3.12c2.23,0.06,4.47,0.25,6.7,0.45c10.03,0.89,20.05,1.81,30.08,2.69
		c13.21,1.16,26.42,2.35,39.64,3.43c10.19,0.84,20.4,1.51,30.6,2.29c10.52,0.8,21.03,1.64,31.54,2.45
		c4.94,0.38,9.88,0.78,14.82,1.13c15.3,1.09,30.61,2.13,45.91,3.24c15.3,1.11,30.59,2.31,45.89,3.43
		c6.06,0.45,12.12,0.81,18.18,1.21c0.8,0.05,1.6,0.04,2.39,0.16c3.78,0.56,5.24,1.99,5.87,5.83c0.26,1.58,0.43,3.17,0.55,4.77
		c1.09,14.03,2.04,28.07,3.31,42.09c0.56,6.19,0.52,12.48,2.31,18.54c0.22,0.75,0.15,1.59,0.19,2.38
		c0.34,6.39,0.54,12.78,1.03,19.16c0.68,8.93,1.57,17.84,2.38,26.76C311.37,526.37,311.63,528.92,311.86,531.34z"/>
	<path d="M769.3,533.28c0.72-8.01,1.34-15.98,2.18-23.93c0.97-9.23,1.79-18.47,2.02-27.75c0.11-4.33,0.91-8.57,1.48-12.85
		c0.82-6.17,1.42-12.4,1.67-18.63c0.36-9.29,1.55-18.48,2.53-27.7c0.32-3.01,0.35-6.06,0.5-9.09c0.06-1.12,0.02-2.24,0.14-3.35
		c0.28-2.46,1.63-4.16,3.96-4.92c1.35-0.44,2.78-0.78,4.2-0.88c9.72-0.73,19.45-1.36,29.17-2.07c11-0.8,21.99-1.68,32.98-2.48
		c10.52-0.77,21.04-1.46,31.56-2.23c11.16-0.82,22.31-1.7,33.46-2.54c5.26-0.4,10.52-0.77,15.78-1.18
		c15.93-1.23,31.86-2.46,47.79-3.71c9.24-0.73,18.48-1.44,27.71-2.26c12.25-1.09,24.5-2.3,36.75-3.42c2.38-0.22,4.79-0.37,7.18-0.33
		c2.65,0.05,3.78,1.2,3.92,3.81c0.08,1.43,0.06,2.9-0.16,4.31c-2.2,14.24-5.22,28.25-10.36,41.79
		c-4.95,13.02-12.71,23.85-23.27,32.89c-12.28,10.51-26.06,18.42-40.88,24.65c-14.01,5.89-28.52,10.32-43.13,14.41
		c-9.38,2.63-18.77,5.19-28.19,7.67c-2.92,0.77-5.95,1.15-8.91,1.76c-5.16,1.06-10.42,1.79-15.43,3.33
		c-6.29,1.93-12.69,3.21-19.11,4.46c-15.99,3.1-31.99,6.16-47.99,9.18c-11.3,2.13-22.61,4.16-33.92,6.24
		c-2.51,0.46-5.01,1-7.52,1.48c-0.78,0.15-1.57,0.32-2.36,0.36c-2.51,0.14-3.58-0.77-3.72-3.23
		C769.24,535.8,769.3,534.52,769.3,533.28z"/>
	<path d="M90.3,758.32c-0.13-1.55-0.26-2.49-0.29-3.43c-0.16-5.28-0.31-10.55-0.44-15.83c-0.02-0.96-0.06-1.93,0.09-2.87
		c0.36-2.25,1.46-3.45,3.71-3.77c1.89-0.27,3.82-0.34,5.73-0.33c25.58,0.03,51.16,0.09,76.74,0.15c10.87,0.02,21.74,0.06,32.61,0.05
		c2.87,0,5.75-0.22,8.62-0.23c2.39-0.01,3.46,1.06,3.65,3.48c0.09,1.11,0.05,2.24,0.05,3.36c-0.03,24.48-0.06,48.96-0.09,73.44
		c0,1.12,0.02,2.24-0.08,3.36c-0.34,3.93-2.12,5.67-6.11,5.98c-1.27,0.1-2.56,0.05-3.84,0.05c-13.91-0.02-27.82-0.05-41.73-0.06
		c-38.85-0.02-77.7-0.04-116.55-0.03c-3.69,0-7.35-0.12-10.97-0.89c-9.36-1.99-15.36-7.55-17.4-16.97c-0.67-3.1-0.93-6.33-0.96-9.51
		c-0.11-13.28-0.07-26.56-0.08-39.84c-0.02-18.72-0.03-37.44-0.04-56.16c0-4.16,0.12-8.31,1.04-12.41c0.43-1.91,1.05-3.65,2.42-5.12
		c1.63-1.75,3.15-3.62,4.74-5.42c3.6-4.07,8.09-6.08,13.56-5.97c4.79,0.09,9.59,0.01,14.39,0.02c22.38,0.03,44.76,0,67.14,0.1
		c29.73,0.13,59.47,0.36,89.2,0.56c1.56,0.01,3.11,0.16,4.92,0.26c0.09,1.2,0.21,2.12,0.21,3.04c0.05,5.28,0.07,10.56,0.09,15.84
		c0,0.48,0.01,0.96-0.02,1.44c-0.21,2.98-1.36,4.22-4.43,4.64c-1.26,0.17-2.55,0.17-3.82,0.17c-29.9-0.03-59.79-0.05-89.69-0.1
		c-20.62-0.03-41.24-0.1-61.87-0.12c-1.75,0-3.51,0.13-5.24,0.4c-2.29,0.36-3.76,1.76-4.08,4.1c-0.24,1.73-0.39,3.49-0.38,5.24
		c0.07,11.84,0.27,23.68,0.27,35.52c0.01,15.52-0.13,31.04-0.18,46.56c-0.01,1.6,0.01,3.21,0.22,4.78c0.32,2.31,1.41,3.48,3.65,3.81
		c1.57,0.23,3.19,0.19,4.78,0.19c34.05-0.02,68.1-0.05,102.16-0.08c7.83-0.01,15.67,0.02,23.5-0.01c5-0.02,5.81-0.69,6.24-5.73
		c0.27-3.18,0.2-6.39,0.22-9.59c0.03-4.8,0.02-9.6,0.02-14.39c0-0.96,0.01-1.92-0.08-2.87c-0.18-1.95-1.22-3.36-3.09-3.84
		c-1.68-0.43-3.45-0.71-5.18-0.74c-4.31-0.07-8.63,0.07-12.95,0.06c-24.62-0.03-49.24-0.07-73.86-0.11
		C94.82,758.47,92.77,758.38,90.3,758.32z"/>
	<path d="M493.9,670.37c3.21-0.87,5.92-0.81,8.62-0.81c25.9,0,51.79,0,77.69,0c32.13,0,64.26-0.01,96.39,0.02
		c3.18,0,6.35,0.3,9.72,0.47c0.2,1.35,0.49,2.42,0.49,3.49c0.03,5.6,0,11.19-0.02,16.79c0,1.63-0.27,3.18-1.36,4.56
		c-1.58,0.97-3.38,0.59-5.1,0.59c-12.47-0.03-24.94-0.15-37.4-0.18c-36.29-0.08-72.57-0.14-108.86-0.2c-2.24,0-4.48-0.04-6.71-0.01
		c-0.95,0.01-1.92,0.05-2.84,0.28c-0.97,0.24-1.66,0.92-1.81,2c-0.04,0.32-0.1,0.63-0.11,0.95c-0.24,6.71-0.63,13.43-0.65,20.14
		c-0.01,3.5,0.59,7,0.99,10.49c0.09,0.76,0.52,1.49,0.77,2.17c1.61,0.84,3.23,0.51,4.8,0.52c12.95,0.09,25.89,0.15,38.84,0.21
		c30.37,0.13,60.74,0.27,91.11,0.37c5.43,0.02,10.87-0.15,16.3-0.16c6.29-0.01,7.19,0.97,7.26,7.15c0.03,2.71,0.28,5.43,0.53,8.13
		c0.24,2.56,0.39,5.1-0.4,7.61c-1.07,3.39-3.07,5.01-6.63,5.18c-1.11,0.05-2.27,0.05-3.34-0.2c-6.77-1.58-13.64-1.33-20.51-1.33
		c-38.36,0.02-76.72,0.01-115.08,0.01c-2.24,0-4.48-0.08-6.71,0.04c-1.42,0.07-2.86,0.31-4.24,0.69c-1.67,0.46-2.75,1.66-2.96,3.41
		c-0.17,1.42-0.14,2.87-0.14,4.3c-0.03,6.72,0.09,13.43-0.08,20.15c-0.17,6.75,1.35,8.52,8.28,8.55
		c10.07,0.03,20.14-0.06,30.21-0.07c38.2-0.03,76.41-0.05,114.61-0.06c2.08,0,4.16,0.01,6.23,0.18c3.05,0.25,4.19,1.37,4.71,4.43
		c0.13,0.78,0.17,1.59,0.17,2.39c0.01,3.36,0.03,6.72-0.04,10.08c-0.03,1.27-0.28,2.54-0.46,3.8c-0.39,2.73-2.03,4.34-4.69,4.71
		c-2.2,0.31-4.45,0.45-6.68,0.45c-24.78,0-49.55-0.08-74.33-0.05c-25.26,0.03-50.51,0.16-75.77,0.21c-2.87,0.01-5.79,0.07-8.61-0.38
		c-12.96-2.07-20.99-10.89-22.06-24.04c-0.16-1.91-0.19-3.84-0.19-5.75c0-38.4,0.02-76.79,0.03-115.19
		C493.9,674.53,493.9,672.63,493.9,670.37z"/>
	<path d="M454.94,670.52c0,2.04-0.03,3.78,0.01,5.53c0.07,3.67,0.16,7.35,0.25,11.02c0.01,0.32,0.08,0.64,0.09,0.96
		c0.17,4.84-1.53,6.83-6.3,7.1c-2.71,0.15-5.43,0.04-8.15,0.04c-40.6-0.01-81.2-0.03-121.8-0.04c-7.03,0-14.07,0-21.1,0
		c-0.8,0-1.6-0.03-2.4,0.01c-2.47,0.12-3.16,0.71-3.27,3.13c-0.13,2.87-0.1,5.76-0.16,8.63c-0.12,5.76-0.26,11.51-0.4,17.27
		c-0.02,0.96-0.1,1.92-0.04,2.88c0.2,3.21,1.42,4.55,4.65,5.07c1.1,0.18,2.23,0.19,3.34,0.19c27.97-0.03,55.94-0.06,83.91-0.12
		c16.78-0.04,33.56-0.13,50.35-0.21c3.04-0.01,6.08-0.19,9.11-0.06c6.24,0.26,7.79,1.94,7.81,8.27c0.01,2.56-0.07,5.12-0.13,7.68
		c-0.03,0.96-0.08,1.92-0.22,2.87c-0.85,5.76-2.55,7.36-8.4,7.78c-2.71,0.19-5.43,0.26-8.14,0.26c-32.61,0.02-65.21,0.03-97.82,0
		c-11.83-0.01-23.65-0.11-35.48-0.14c-1.59,0-3.21,0.01-4.77,0.27c-2.95,0.5-4.03,1.83-4.21,4.91c-0.06,0.96-0.02,1.92,0.03,2.88
		c0.4,7.03,0.46,14.07-0.01,21.1c-0.01,0.16-0.01,0.32-0.02,0.48c-0.35,4.82,0.89,7.48,7.3,7.48c9.59,0.01,19.18-0.01,28.77-0.03
		c31.81-0.04,63.62-0.07,95.42-0.12c7.19-0.01,14.38-0.13,21.58-0.14c1.91,0,3.84,0.13,5.73,0.38c2.48,0.33,3.98,1.88,4.63,4.26
		c0.13,0.46,0.28,0.93,0.31,1.4c0.3,5.13,0.09,10.25-0.93,15.28c-0.44,2.18-1.9,3.68-4.19,4.12c-1.41,0.27-2.82,0.54-4.25,0.65
		c-1.59,0.12-3.19,0.09-4.79,0.09c-49.87,0-99.74,0.02-149.61-0.03c-3.18,0-6.38-0.34-9.53-0.76c-6.43-0.85-11.27-4.24-14.66-9.72
		c-0.75-1.22-1.4-2.51-2.1-3.77c-1.2-2.14-1.62-4.41-1.62-6.89c0.02-18.08-0.03-36.15-0.1-54.23c-0.09-21.75-0.23-43.51-0.32-65.26
		c-0.01-2.39-0.01-4.81,0.26-7.18c0.3-2.62,1.41-3.68,3.98-4.03c1.73-0.23,3.5-0.23,5.26-0.22c22.86,0.05,45.71,0.14,68.57,0.18
		c35.96,0.06,71.93,0.1,107.89,0.16C450.98,669.91,452.75,669.65,454.94,670.52z"/>
	<path d="M1058.25,669.03c-1.6,1.84-2.38,2.81-3.24,3.7c-27.95,28.78-55.72,57.73-84.32,85.88c-0.34,0.34-0.68,0.68-1.03,1
		c-2.68,2.39-3.77,5.41-3.75,8.97c0.03,6.88-0.03,13.75-0.09,20.63c-0.08,8.31-0.18,16.63-0.31,24.94c-0.02,1.27-0.12,2.55-0.3,3.81
		c-0.26,1.8-1.38,2.81-3.17,3.08c-0.47,0.07-0.95,0.14-1.43,0.15c-4.63,0.1-9.26,0.29-13.89,0.23c-3.01-0.04-6.01-0.43-8.79-0.65
		c-1.26-1.74-0.85-3.39-0.85-4.95c-0.05-14.23-0.07-28.46-0.09-42.69c0-1.28-0.02-2.56,0-3.84c0.05-4.04-1.37-7.25-4.33-10.2
		c-23.11-23-46.13-46.1-69.08-69.25c-5.85-5.9-11.36-12.13-17.02-18.22c-0.43-0.46-0.75-1.01-1.06-1.44
		c0.32-1.2,1.21-1.03,1.96-1.03c10.07-0.01,20.13,0.04,30.2-0.05c2.6-0.02,4.53,0.85,6.33,2.7c20.43,20.93,40.91,41.81,61.38,62.7
		c0.89,0.91,1.79,1.84,2.8,2.61c2.15,1.65,3.99,1.73,6.13,0.16c1.28-0.94,2.44-2.06,3.54-3.22c7.28-7.63,14.46-15.37,21.81-22.93
		c10.81-11.11,21.72-22.12,32.61-33.15c1.46-1.48,3.06-2.81,4.55-4.26c3.51-3.39,7.58-4.95,12.56-4.8
		c7.98,0.25,15.98,0.09,23.96,0.1C1054.58,669.03,1055.84,669.03,1058.25,669.03z"/>
	<path d="M726.22,670.54c1.53-1.2,3.13-1.39,4.71-1.4c6.87-0.05,13.74-0.08,20.61-0.01c2.21,0.02,3.11,1.04,3.37,3.25
		c0.09,0.79,0.06,1.6,0.09,2.4c0.67,18.71,0.23,37.43,0.21,56.15c-0.02,19.36-0.18,38.72-0.28,58.08c0,0.48-0.01,0.96,0.01,1.44
		c0.18,3.66,1.31,4.88,4.88,5.16c1.27,0.1,2.56,0.05,3.84,0.05c37.73-0.02,75.46-0.04,113.19-0.07c4,0,8-0.14,11.99-0.03
		c5.88,0.17,7.85,2.06,7.87,7.84c0.02,3.99-0.38,7.98-0.68,11.96c-0.25,3.31-2.09,5.31-5.37,5.79c-2.05,0.3-4.13,0.48-6.19,0.48
		c-21.26,0.03-42.53,0.02-63.79,0.01c-21.58-0.01-43.16-0.04-64.75-0.02c-4.18,0-8.3-0.4-12.34-1.42
		c-9.18-2.32-14.52-8.34-16.34-17.48c-0.65-3.27-0.94-6.66-0.99-10c-0.14-11.2-0.11-22.4-0.13-33.6
		c-0.04-28.48-0.06-56.96-0.08-85.44C726.05,672.6,726.17,671.5,726.22,670.54z"/>
</g>
</svg>
