<?xml version="1.0" encoding="utf-8"?>
<!-- Generator: Adobe Illustrator 26.5.0, SVG Export Plug-In . SVG Version: 6.00 Build 0)  -->
<svg version="1.1" id="Layer_1" xmlns="http://www.w3.org/2000/svg" xmlns:xlink="http://www.w3.org/1999/xlink" x="0px" y="0px"
	 viewBox="0 0 1080 1080" style="enable-background:new 0 0 1080 1080;" xml:space="preserve">
<style type="text/css">
	.st0{fill-rule:evenodd;clip-rule:evenodd;}
	.st1{fill:#ED1C24;}
	.st2{fill:#E1251B;}
	.st3{fill-rule:evenodd;clip-rule:evenodd;fill:#16397B;}
	.st4{fill:#EE2745;}
	
		.st5{clip-path:url(#SVGID_00000019648410208708229430000008197203307778035596_);fill:url(#SVGID_00000045588506393701875330000015050590286674736545_);}
	
		.st6{clip-path:url(#SVGID_00000160902833491883846380000014775780268212196537_);fill:url(#SVGID_00000144326303772440636730000000883075844842772363_);}
	
		.st7{clip-path:url(#SVGID_00000093161675270793836800000010345653816142278272_);fill:url(#SVGID_00000052070982040446951340000006579441755785452684_);}
	
		.st8{clip-path:url(#SVGID_00000150060210926345439500000011110243835223030206_);fill:url(#SVGID_00000170268511931882027190000002524825828089933203_);}
	.st9{fill:#424243;}
	
		.st10{clip-path:url(#SVGID_00000114751773656391434460000009002763569402151298_);fill:url(#SVGID_00000066488256087246800020000014316892219775415454_);}
	.st11{fill:#FFFFFF;}
	
		.st12{clip-path:url(#SVGID_00000140705649518589850760000000337432298934114442_);fill:url(#SVGID_00000163055362964986537690000005972041441316497297_);}
	
		.st13{clip-path:url(#SVGID_00000142163337325926477380000000771269041828796829_);fill:url(#SVGID_00000055685981888003157390000005439183700660059018_);}
	
		.st14{clip-path:url(#SVGID_00000018951596830140464080000005995711725112607110_);fill:url(#SVGID_00000029006097956719263700000017023571808845832335_);}
	
		.st15{clip-path:url(#SVGID_00000000180261640125657870000003326772624883265685_);fill:url(#SVGID_00000026136804247723990990000000819749436613170875_);}
	
		.st16{clip-path:url(#SVGID_00000078035990626604592570000007965568159699277957_);fill:url(#SVGID_00000121279696035808650040000006030555840943179196_);}
	
		.st17{clip-path:url(#SVGID_00000104686301250021638580000017926190827741712556_);fill:url(#SVGID_00000147206960667990125560000011640890389754507403_);}
	
		.st18{clip-path:url(#SVGID_00000055707715631764855780000014694038169774252710_);fill:url(#SVGID_00000165930502609651264160000014240194117546813370_);}
	.st19{fill-rule:evenodd;clip-rule:evenodd;fill:#C8202F;}
	.st20{fill-rule:evenodd;clip-rule:evenodd;fill:#FFFFFF;}
	.st21{fill-rule:evenodd;clip-rule:evenodd;fill:#F98238;}
	.st22{filter:url(#Adobe_OpacityMaskFilter);}
	.st23{fill:url(#SVGID_00000173861872865943719330000006957401552255806093_);}
	.st24{mask:url(#SVGID_00000087383273027785025630000014497632328806272445_);fill-rule:evenodd;clip-rule:evenodd;fill:#ED1C24;}
	.st25{fill-rule:evenodd;clip-rule:evenodd;fill:#F5333F;}
	.st26{fill-rule:evenodd;clip-rule:evenodd;fill:#ED1C24;}
	.st27{fill-rule:evenodd;clip-rule:evenodd;fill:#F9A46E;}
	.st28{fill-rule:evenodd;clip-rule:evenodd;fill:#F47B26;}
	.st29{fill-rule:evenodd;clip-rule:evenodd;fill:#EB5433;}
	.st30{fill:#1A3282;}
	.st31{fill-rule:evenodd;clip-rule:evenodd;fill:#1A3282;}
	.st32{fill-rule:evenodd;clip-rule:evenodd;fill:#9D9FA2;}
	.st33{fill-rule:evenodd;clip-rule:evenodd;fill:#000303;}
	.st34{fill:#64003D;}
	.st35{fill:#536270;}
	.st36{fill-rule:evenodd;clip-rule:evenodd;fill:#64003D;}
	.st37{fill-rule:evenodd;clip-rule:evenodd;fill:#536270;}
	.st38{fill-rule:evenodd;clip-rule:evenodd;fill:#1A3382;}
	.st39{fill-rule:evenodd;clip-rule:evenodd;fill:#29387E;}
	.st40{fill-rule:evenodd;clip-rule:evenodd;fill:#F37021;}
	.st41{fill-rule:evenodd;clip-rule:evenodd;fill:#005C32;}
	.st42{fill-rule:evenodd;clip-rule:evenodd;fill:#D2AB67;}
	
		.st43{clip-path:url(#SVGID_00000034802287708835770800000006415547142278171788_);fill:url(#SVGID_00000080889692768408004050000001215123266531260349_);}
	
		.st44{clip-path:url(#SVGID_00000164487182324260180630000015379138910822099883_);fill:url(#SVGID_00000127728729441699700090000012294399721793146506_);}
	
		.st45{clip-path:url(#SVGID_00000134965822057355927920000004913206099147716743_);fill:url(#SVGID_00000130621405076535928760000008052456347700577154_);}
	.st46{fill-rule:evenodd;clip-rule:evenodd;fill:#00AEEF;}
	.st47{fill-rule:evenodd;clip-rule:evenodd;fill:#EC008C;}
	.st48{fill-rule:evenodd;clip-rule:evenodd;fill:#FFF200;}
	.st49{fill:#A7AAAC;}
	.st50{fill-rule:evenodd;clip-rule:evenodd;fill:#5C5B5B;}
	.st51{fill:#9D9D9F;}
	.st52{fill:#F04D23;}
	.st53{fill-rule:evenodd;clip-rule:evenodd;fill:#2E3192;}
	.st54{fill-rule:evenodd;clip-rule:evenodd;fill:#C4312D;}
	.st55{fill:#552715;}
	.st56{fill:#010101;}
	.st57{fill:#E31E2E;}
	.st58{fill:url(#SVGID_00000085227082355637078310000010284090216060511639_);}
	.st59{fill:url(#SVGID_00000086687732873044641340000002580149890520918146_);}
	.st60{clip-path:url(#SVGID_00000161612424605064838290000009746202540497800846_);}
	.st61{clip-path:url(#SVGID_00000100377224395502603250000009436105464285989544_);}
	.st62{clip-path:url(#SVGID_00000006676329761591628030000018431707510337228942_);}
	.st63{clip-path:url(#SVGID_00000046297630384503334520000017978517150284999309_);}
	.st64{clip-path:url(#SVGID_00000023256554717382578570000013228209240476741773_);}
	.st65{clip-path:url(#SVGID_00000004505170895820837520000016776588794643328406_);}
	.st66{clip-path:url(#SVGID_00000036955582838974201020000003597822278424750993_);}
	.st67{clip-path:url(#SVGID_00000091008198602548893520000003329760824627404972_);}
	.st68{clip-path:url(#SVGID_00000005259273646656402440000013860428470319431606_);}
	.st69{clip-path:url(#SVGID_00000107562453749487565170000012117026681099269815_);}
	.st70{clip-path:url(#SVGID_00000073679907411705602030000010936582081856885146_);}
	.st71{fill:#2650A1;}
	.st72{fill:url(#SVGID_00000127035915992718380410000002043651698287044754_);}
	.st73{fill:#FEFEFE;}
	.st74{fill:#FDFDFD;}
	.st75{fill:#FCFCFC;}
	.st76{fill:#FBFBFB;}
	.st77{fill:#FAFAFA;}
	.st78{fill:#F9F9F9;}
	.st79{fill:#F8F8F8;}
	.st80{fill:#F7F7F7;}
	.st81{fill:#F6F6F6;}
	.st82{fill:#F5F5F5;}
	.st83{fill:#F4F4F4;}
	.st84{fill:#F3F3F3;}
	.st85{fill:#F2F2F2;}
	.st86{fill:#F1F1F1;}
	.st87{fill:#F0F0F0;}
	.st88{fill:#EFEFEF;}
	.st89{fill:#EEEEEE;}
	.st90{fill:#EDEDED;}
	.st91{fill:#ECECEC;}
	.st92{fill:#EBEBEB;}
	.st93{fill:#EAEAEA;}
	.st94{fill:#E9E9E9;}
	.st95{fill:#E8E8E8;}
	.st96{fill:#E7E7E7;}
	.st97{fill:#E6E6E6;}
	.st98{fill:#E5E5E5;}
	.st99{fill:#E4E4E4;}
	.st100{fill:#E3E3E3;}
	.st101{fill:#E2E2E2;}
	.st102{fill:#E1E1E1;}
	.st103{fill:#E0E0E0;}
	.st104{fill:#DFDFDF;}
	.st105{fill:#DEDEDE;}
	.st106{fill:#DDDDDD;}
	.st107{fill:#DCDCDC;}
	.st108{fill:#DBDBDB;}
	.st109{fill:#DADADA;}
	.st110{fill:#D9D9D9;}
	.st111{fill:#D92231;}
	.st112{fill:url(#SVGID_00000108990226390137427420000009924546035744266397_);}
	.st113{fill:url(#SVGID_00000013154689410117361330000007277571940539851163_);}
	.st114{opacity:0.8;}
	.st115{fill:url(#SVGID_00000058579655643018536130000004589350144686639794_);}
	.st116{fill:url(#SVGID_00000026154917381572277900000006338453060020102554_);}
	.st117{fill-rule:evenodd;clip-rule:evenodd;fill:#010101;}
	.st118{fill:#80A845;}
	.st119{fill-rule:evenodd;clip-rule:evenodd;fill:#80A845;}
	.st120{fill:url(#SVGID_00000162327100628685588660000015398534521461358244_);}
	.st121{fill-rule:evenodd;clip-rule:evenodd;fill:#04984A;}
	.st122{fill-rule:evenodd;clip-rule:evenodd;fill:url(#SVGID_00000036949634242453653980000012424558869580254363_);}
	.st123{fill:url(#SVGID_00000143607689685140125010000016171805606066151083_);}
	.st124{fill:url(#SVGID_00000028307704826784059940000018123553517375656324_);}
	.st125{fill:url(#SVGID_00000021120823961461742280000009107154243448774024_);}
	.st126{fill:url(#SVGID_00000031187792133959300900000005071199789933250748_);}
	.st127{fill:url(#SVGID_00000123415966811643308110000012572810359393532586_);}
	.st128{fill:url(#SVGID_00000117646097559085382890000014308563738273993405_);}
	.st129{fill:url(#SVGID_00000040558597652115209320000002252757847407239296_);}
	.st130{fill:url(#SVGID_00000062185887311070522320000015692370408981458876_);}
	.st131{fill:url(#SVGID_00000160877481655885844670000003201020144714685330_);}
	.st132{fill:url(#SVGID_00000180357311368914155120000014294911254911969694_);}
	.st133{fill:url(#SVGID_00000125589740381769076370000014942218067113764516_);}
	.st134{fill:url(#SVGID_00000152952547557262303980000016291482608062348957_);}
	.st135{fill:url(#SVGID_00000150087672771569087530000004072225105036343171_);}
	.st136{fill:url(#SVGID_00000060022513918561109320000014526673589801162429_);}
	.st137{fill-rule:evenodd;clip-rule:evenodd;fill:url(#SVGID_00000034791030194691488280000005110882693732553375_);}
	.st138{fill:#0A529D;}
	.st139{fill:url(#SVGID_00000116233423965124611950000003679483262971041193_);}
	.st140{fill:url(#SVGID_00000085241464414041374840000012658023494021705102_);}
	.st141{fill:url(#SVGID_00000020397181842014281610000005864199094342689209_);}
	.st142{fill:url(#SVGID_00000168804612801352093610000006762705518659530145_);}
	.st143{fill:url(#SVGID_00000060739389201253466190000012913794295314301576_);}
	.st144{fill:url(#SVGID_00000059300220333606042840000016764283501005082528_);}
	.st145{fill:url(#SVGID_00000067921330742199738900000000960375990737491639_);}
	.st146{fill:url(#SVGID_00000180359006068912788430000015499639520755277726_);}
	.st147{fill:url(#SVGID_00000060030250073467770940000005728947528463476653_);}
	.st148{fill:url(#SVGID_00000029742616494151770730000008155144709700405180_);}
	.st149{fill:url(#SVGID_00000013156782554054253920000008906598169542814139_);}
	.st150{fill:url(#SVGID_00000023270133961747765610000012932127018426584480_);}
	.st151{fill-rule:evenodd;clip-rule:evenodd;fill:url(#SVGID_00000169551032620162725980000007690925926112121475_);}
	.st152{fill:url(#SVGID_00000053546867032531407210000017451822466697953179_);}
	.st153{fill:url(#SVGID_00000058578550643946463190000011112777980758198960_);}
	.st154{fill:url(#SVGID_00000034791149039290526300000007274239410641058964_);}
	.st155{fill:url(#SVGID_00000157290743108992622520000018290591404337499277_);}
	.st156{fill:url(#SVGID_00000040551919835950505540000007318681638440265918_);}
	.st157{fill:url(#SVGID_00000055695288251243604780000011737461721732404098_);}
	.st158{fill:url(#SVGID_00000119816357711233137690000017402017653769517753_);}
	.st159{fill:url(#SVGID_00000028324961082733807160000016130961465262938810_);}
	.st160{fill:url(#SVGID_00000138542539795016584180000015513612653625768598_);}
	.st161{fill:url(#SVGID_00000170957360644822134760000009721468360498625669_);}
	.st162{fill:url(#SVGID_00000007402542064012544060000011918128425265736340_);}
	.st163{fill:url(#SVGID_00000054246229213497285960000016299741170000454567_);}
	.st164{fill:url(#SVGID_00000057867252406234553510000003519046406179777413_);}
	.st165{fill:url(#SVGID_00000083058943059194872950000010921192754760732567_);}
	.st166{fill:url(#SVGID_00000081637558513388813740000018217497505891294085_);}
	.st167{fill:url(#SVGID_00000029757334358628839930000004702048642049058989_);}
	.st168{fill:url(#SVGID_00000166675141126148882670000006067882820089350556_);}
	.st169{fill-rule:evenodd;clip-rule:evenodd;fill:url(#SVGID_00000101061422424064750180000017827185716737979318_);}
	.st170{fill:url(#SVGID_00000029020511943441840680000008609425359143098801_);}
	.st171{fill:url(#SVGID_00000112606949003566057990000002549106132445780120_);}
	.st172{fill:url(#SVGID_00000005949913199928536420000008984582473246334359_);}
	.st173{fill:url(#SVGID_00000000209890356707333640000002097710103062425253_);}
	.st174{fill:url(#SVGID_00000075144224512640190780000011953345766786165379_);}
	.st175{fill:url(#SVGID_00000126318209314653998980000004005647317749730733_);}
	.st176{fill:url(#SVGID_00000067202446916905769250000003291105500489417880_);}
	.st177{fill:url(#SVGID_00000120548012676045848660000016761187540700791726_);}
	.st178{fill:url(#SVGID_00000131362833565849126190000008239879252722197149_);}
	.st179{fill:url(#SVGID_00000073711204052248054450000000550248155754580361_);}
	.st180{fill:url(#SVGID_00000066499753373677209800000009845089123682288805_);}
	.st181{fill:url(#SVGID_00000044142063811333751840000009900906603880821687_);}
	.st182{fill:url(#SVGID_00000078764423259906791930000016550717041143285140_);}
	.st183{fill:url(#SVGID_00000139284109478627944000000013109773376429570459_);}
	.st184{fill-rule:evenodd;clip-rule:evenodd;fill:url(#SVGID_00000023976831693066666020000008474213462947400082_);}
	.st185{fill:url(#SVGID_00000137128973772812427980000004715874235209545133_);}
	.st186{fill:url(#SVGID_00000114074769065055155270000007444441074767098780_);}
	.st187{fill:url(#SVGID_00000114059961370129401610000013288028503235636386_);}
	.st188{fill:url(#SVGID_00000004532398550856804720000012613099353805876874_);}
	.st189{fill:url(#SVGID_00000147920540500052730070000004412725344302686090_);}
	.st190{fill:url(#SVGID_00000099663762433791433630000012701732419354315160_);}
	.st191{fill:url(#SVGID_00000103241207782988463400000007517198013200336049_);}
	.st192{fill:url(#SVGID_00000150780551587762505960000008712318957821740433_);}
	.st193{fill:url(#SVGID_00000170261819489760685830000011105199164391237294_);}
	.st194{fill:url(#SVGID_00000092418808247511553350000013669759892265283735_);}
	.st195{fill:url(#SVGID_00000146495599390465042850000015224442353762347142_);}
	.st196{fill:url(#SVGID_00000103960339812914960760000006905852290593770132_);}
	.st197{fill:url(#SVGID_00000086661083979873421540000005141594951838772878_);}
	.st198{fill:url(#SVGID_00000126286659744451609460000016679201346432253079_);}
	.st199{fill:url(#SVGID_00000070092126012832050160000014239975727912440738_);}
	.st200{fill:url(#SVGID_00000038397462947276998830000001090917245048484251_);}
	.st201{fill:url(#SVGID_00000153671412803201925620000004747752906620830135_);}
	.st202{fill:url(#SVGID_00000171707617449521214420000002415794125271139759_);}
	.st203{fill:url(#SVGID_00000013903440212847612410000011396651123982603692_);}
	.st204{fill-rule:evenodd;clip-rule:evenodd;fill:url(#SVGID_00000150817973800533491040000014977944537429795718_);}
	.st205{fill:url(#SVGID_00000157300173080430699460000002448739083964297384_);}
	.st206{fill:url(#SVGID_00000099656316885249812190000013569520617926026399_);}
	.st207{fill:url(#SVGID_00000116931911570080001970000009356987896173005701_);}
	.st208{fill:url(#SVGID_00000008140866807221757740000009610782862467287694_);}
	.st209{fill:url(#SVGID_00000145767205033734007850000002813984538431302785_);}
	.st210{fill:url(#SVGID_00000132769470876008530550000000414476579836839055_);}
	.st211{fill:url(#SVGID_00000121241239762975563520000007832408999825820036_);}
	.st212{fill:url(#SVGID_00000031172402888480045610000002588571038531329418_);}
	.st213{fill:url(#SVGID_00000049184920567958752960000003317248051028224157_);}
	.st214{fill:url(#SVGID_00000031929263412053796680000000534886808446530722_);}
	.st215{fill:url(#SVGID_00000071539047225708804000000014768050022661402035_);}
	.st216{fill:url(#SVGID_00000099648785507019213610000003616596051610659482_);}
	.st217{fill:url(#SVGID_00000106844237140581135580000005721088861729702804_);}
	.st218{fill:url(#SVGID_00000081615856372066281820000018409801760000279709_);}
	.st219{fill:url(#SVGID_00000168829848235666371740000009978781766997902780_);}
	.st220{fill:url(#SVGID_00000085940478351444749480000017596534517750897569_);}
	.st221{fill-rule:evenodd;clip-rule:evenodd;fill:url(#SVGID_00000148636801525895447280000011555662516811382414_);}
	.st222{fill:url(#SVGID_00000085958217363557280910000002825049192904390300_);}
	.st223{fill:url(#SVGID_00000057121811776793623930000015746830180367706555_);}
	.st224{fill:url(#SVGID_00000009565085447947566750000008187396063951210927_);}
	.st225{fill:url(#SVGID_00000150785948666660780220000009494300339038546853_);}
	.st226{fill:url(#SVGID_00000078021739596629048290000001663861402034092431_);}
	.st227{fill:url(#SVGID_00000143595131773402006700000010388939079111695746_);}
	.st228{fill:url(#SVGID_00000007413019384815186860000007665898132070228119_);}
	.st229{fill:url(#SVGID_00000042006776587952863590000016764926375430163594_);}
	.st230{fill:url(#SVGID_00000007424363325314789540000007834730357453218220_);}
	.st231{fill:url(#SVGID_00000151539291308211040380000005867092731281238408_);}
	.st232{fill:url(#SVGID_00000155123891820283408250000016837905521302431382_);}
	.st233{fill:url(#SVGID_00000003795240634722658890000000226121076826391684_);}
	.st234{fill:url(#SVGID_00000126303445430041111120000011402119203475596168_);}
	.st235{fill:url(#SVGID_00000176723664065113395430000017704095484674197400_);}
	.st236{fill:url(#SVGID_00000009568111410845294630000004032710517627602622_);}
	.st237{fill-rule:evenodd;clip-rule:evenodd;fill:url(#SVGID_00000107586622770541385280000008975125412739931832_);}
	.st238{fill:url(#SVGID_00000048500467287997797810000009290147413934959492_);}
	.st239{fill:url(#SVGID_00000036952421528092336970000009366113584776128411_);}
	.st240{fill:url(#SVGID_00000048494332908911639730000011097713552022787759_);}
	.st241{fill:url(#SVGID_00000102528613004405707450000005126360324625370303_);}
	.st242{fill:url(#SVGID_00000019661081989617807160000008466325606279576504_);}
	.st243{fill:url(#SVGID_00000025408762159992064250000003716655109349968810_);}
	.st244{fill:url(#SVGID_00000115476305015447847630000013672466767748601733_);}
	.st245{fill:url(#SVGID_00000016777295250688025730000005437903538150708919_);}
	.st246{fill:url(#SVGID_00000181806638196905239150000008957281784921014453_);}
	.st247{fill:url(#SVGID_00000057839030554153323590000000008153442300845458_);}
	.st248{fill:url(#SVGID_00000067206662192634814150000010753024843285246602_);}
	.st249{fill:url(#SVGID_00000008116805866133823730000013655340302029906874_);}
	.st250{fill:url(#SVGID_00000153700564636563607900000002765604476727990201_);}
	.st251{fill:url(#SVGID_00000183956882492452610520000004052006565671632034_);}
	.st252{fill:url(#SVGID_00000137839976198382586230000004841828792927889830_);}
	.st253{fill-rule:evenodd;clip-rule:evenodd;fill:url(#SVGID_00000130613185126094061790000007743768170025930426_);}
	.st254{fill:url(#SVGID_00000179626705293651926910000003654693477170510781_);}
	.st255{fill:url(#SVGID_00000178923075019481414060000002561650725297200302_);}
	.st256{fill:url(#SVGID_00000096027933370045062100000012946238822932940977_);}
	.st257{fill:url(#SVGID_00000128474691335118248670000012725954067752349588_);}
	.st258{fill:url(#SVGID_00000093869053000587070550000018309743515847550849_);}
	.st259{fill:url(#SVGID_00000064350904371183671710000003714447714508107186_);}
	.st260{fill:url(#SVGID_00000157999120513754755010000010666675271239245952_);}
	.st261{fill:url(#SVGID_00000161609202113586741040000011423856202803170705_);}
	.st262{fill:url(#SVGID_00000041296580081342211990000007003929136101906304_);}
	.st263{fill:url(#SVGID_00000038375929659460484130000007730002090535158428_);}
	.st264{fill:url(#SVGID_00000094587232170787432700000014059817785808612745_);}
	.st265{fill:url(#SVGID_00000149365356266367864670000002468919421404884151_);}
	.st266{fill:url(#SVGID_00000051385060931301192600000017492209405002047394_);}
	.st267{fill:url(#SVGID_00000029033261297946400280000003872045913019131285_);}
	.st268{fill:url(#SVGID_00000082348923157931197990000005870406007197257900_);}
	.st269{fill-rule:evenodd;clip-rule:evenodd;fill:url(#SVGID_00000148642496685093022470000004454042794445838759_);}
	.st270{fill:url(#SVGID_00000114775651663574324760000007934371753658509441_);}
	.st271{fill:url(#SVGID_00000035521504080392959790000006740499351198941109_);}
	.st272{fill:url(#SVGID_00000127018059261707242840000003717677830924882331_);}
	.st273{fill:url(#SVGID_00000150805313880794946820000006174965723611984519_);}
	.st274{fill:url(#SVGID_00000049182126508714872900000015490559151256943516_);}
	.st275{fill:url(#SVGID_00000109711511513485670900000012059078586349106334_);}
	.st276{fill:url(#SVGID_00000163764525862613215710000008291696384309228980_);}
	.st277{fill:url(#SVGID_00000128459014434909931550000005003014531910159264_);}
	.st278{fill:url(#SVGID_00000156587872970102427180000012017839279191433639_);}
	.st279{fill:url(#SVGID_00000111882201940616909310000011386526834410500266_);}
	.st280{fill:url(#SVGID_00000055672023909164636270000014497803606103356335_);}
	.st281{fill:url(#SVGID_00000090253749854198142810000007957975999737309828_);}
	.st282{fill:url(#SVGID_00000006673658045106155820000001612611267126692502_);}
	.st283{fill:url(#SVGID_00000146468815382783109220000017559519348328255677_);}
	.st284{fill:url(#SVGID_00000174597058935244642660000004114446043513864073_);}
	.st285{fill-rule:evenodd;clip-rule:evenodd;fill:url(#SVGID_00000064345146183993291380000015374639488266699148_);}
	.st286{fill:url(#SVGID_00000131327582785440746800000008914788367002757767_);}
	.st287{fill:url(#SVGID_00000163765286832928106870000011725439675749162126_);}
	.st288{fill:url(#SVGID_00000015340050300956495060000010423699284650274981_);}
	.st289{fill:url(#SVGID_00000048481753127783833500000012188018815348586371_);}
	.st290{fill:url(#SVGID_00000053525581533141373590000011188794806399137180_);}
	.st291{fill:url(#SVGID_00000082355306264166794190000016468799636106222259_);}
	.st292{fill:url(#SVGID_00000014593475648359200810000015708438765817252772_);}
	.st293{fill:url(#SVGID_00000068676711071509298830000017781474963728861835_);}
	.st294{fill:url(#SVGID_00000046334238601772755580000000860028534066522771_);}
	.st295{fill:url(#SVGID_00000176752281679673526860000011555973625450263946_);}
	.st296{fill:url(#SVGID_00000076568528142038149520000008452641992789315721_);}
	.st297{fill:url(#SVGID_00000009578694467664907850000006116456110771030659_);}
	.st298{fill:url(#SVGID_00000179627146704073878100000003217907960357276586_);}
	.st299{fill:url(#SVGID_00000031901494074670159970000018144250512752009638_);}
	.st300{fill:url(#SVGID_00000157290390043218914370000006409969975661870503_);}
	.st301{fill:url(#SVGID_00000012470129939552056000000007495010341354207166_);}
	.st302{fill:url(#SVGID_00000174592970277791082580000003134362266000400016_);}
	.st303{fill:url(#SVGID_00000092445631747729111500000017445788486403167678_);}
	.st304{fill-rule:evenodd;clip-rule:evenodd;fill:url(#SVGID_00000150822662131700139310000013845274380167798453_);}
	.st305{fill:url(#SVGID_00000119118264585068396730000014303854655346497666_);}
	.st306{fill:url(#SVGID_00000005957718281364134590000012807761151553515188_);}
	.st307{fill:url(#SVGID_00000173860776043167499440000015886963803941495200_);}
	.st308{fill:url(#SVGID_00000014608892893217998550000013532744943476445371_);}
	.st309{fill:url(#SVGID_00000039813131769075360620000015725444220599958711_);}
	.st310{fill:url(#SVGID_00000002354737946002257530000017228508943952256138_);}
	.st311{fill:url(#SVGID_00000058582601285137674990000001813204331867722402_);}
	.st312{fill:url(#SVGID_00000108289091458793859650000005336128701624280477_);}
	.st313{fill:url(#SVGID_00000087373738116771339960000018210575737997848227_);}
	.st314{fill:url(#SVGID_00000013172768960446549650000000479080850368556455_);}
	.st315{fill:url(#SVGID_00000058572783325493843940000009446701727871479176_);}
	.st316{fill:url(#SVGID_00000060729723003724929080000001304790994612909697_);}
	.st317{fill:url(#SVGID_00000100374659369562865720000013404963379888949438_);}
	.st318{fill:url(#SVGID_00000148653828643762658080000014750479519014072198_);}
	.st319{fill:url(#SVGID_00000160868975304202288600000004744454839975377082_);}
	.st320{fill:url(#SVGID_00000111159408578413745610000007053563135653586609_);}
	.st321{fill:url(#SVGID_00000081625154821604755020000015488934119328130449_);}
	.st322{fill:url(#SVGID_00000109724437306392473600000007226969696603167645_);}
	.st323{fill:url(#SVGID_00000079467622661797733180000001442819237537320634_);}
	.st324{fill:url(#SVGID_00000032607447199261578500000012670576284791195305_);}
	.st325{fill-rule:evenodd;clip-rule:evenodd;fill:url(#SVGID_00000103232066219842403570000006894064426332192654_);}
	.st326{fill:url(#SVGID_00000029733172757769583570000007602824851061587131_);}
	.st327{fill:url(#SVGID_00000020375609782973253320000002064153216482406292_);}
	.st328{fill:url(#SVGID_00000104684836151871487560000011729172040255315126_);}
	.st329{fill:url(#SVGID_00000026129043067893922250000011583473284421202083_);}
	.st330{fill:url(#SVGID_00000110466769973151828290000015237546117867240344_);}
	.st331{fill:url(#SVGID_00000082343462899324025250000006729506458572111756_);}
	.st332{fill:url(#SVGID_00000015332730648132632940000013864908273916203960_);}
	.st333{fill:url(#SVGID_00000095321946071843803360000002381113670281079974_);}
	.st334{fill:url(#SVGID_00000122702154930296465790000008127799653058211756_);}
	.st335{fill:url(#SVGID_00000135651140639567321610000004489354361603817916_);}
	.st336{fill:url(#SVGID_00000053520883593691078380000002531347439998315681_);}
	.st337{fill:url(#SVGID_00000027585200687752024170000006110037954729115567_);}
	.st338{fill:url(#SVGID_00000116931678752520823480000009005279100695637923_);}
	.st339{fill:url(#SVGID_00000062175473016172947600000011396657952518183302_);}
	.st340{fill:url(#SVGID_00000115511200848533436720000016255952028293003924_);}
	.st341{fill:url(#SVGID_00000021818303516294204140000016646669065737317526_);}
	.st342{fill-rule:evenodd;clip-rule:evenodd;fill:url(#SVGID_00000048459906424970409720000008887090466796584607_);}
	.st343{fill:url(#SVGID_00000083774731090195269850000009106464350830327740_);}
	.st344{fill:url(#SVGID_00000095323122015054611030000007615343119380229044_);}
	.st345{fill:url(#SVGID_00000121256719949489255420000016601635043851669415_);}
	.st346{fill:url(#SVGID_00000179618770200599265720000011501594371522609810_);}
	.st347{fill:url(#SVGID_00000001647529097603512780000011264327219119601796_);}
	.st348{fill:url(#SVGID_00000053508942550076495060000013802690225370369414_);}
	.st349{fill:url(#SVGID_00000031887247462869572530000009161044799394014895_);}
	.st350{fill:url(#SVGID_00000099658996301265351630000017546284233090421679_);}
	.st351{fill:url(#SVGID_00000150079355196727509000000011439345768614175890_);}
	.st352{fill:url(#SVGID_00000181065319364816252440000005809251602374772632_);}
	.st353{fill:url(#SVGID_00000042695592669515428010000005632691605033622167_);}
	.st354{fill:url(#SVGID_00000114793872659646106670000005152592368037486732_);}
	.st355{fill:url(#SVGID_00000089555501538723408700000005722692528816081545_);}
	.st356{fill:url(#SVGID_00000116923377697920853320000002335247595036345476_);}
	.st357{fill:url(#SVGID_00000150070101024170631590000014857135792269742002_);}
	.st358{fill:url(#SVGID_00000085211714664934626180000003610481041897147284_);}
	.st359{fill:url(#SVGID_00000130629723606195701280000002148628379152198034_);}
	.st360{fill:url(#SVGID_00000076589367710387303540000017725035476187225219_);}
	.st361{fill:url(#SVGID_00000072249537954281571700000001874264304101829055_);}
	.st362{fill:url(#SVGID_00000099654272183894966300000004031939682539877285_);}
	.st363{fill:#C1282D;}
	.st364{fill-rule:evenodd;clip-rule:evenodd;fill:url(#SVGID_00000029746885295301742040000013850895037365575833_);}
	.st365{fill:url(#SVGID_00000007414131486135159290000002349177397992226482_);}
	.st366{fill:url(#SVGID_00000043424114722090856500000009138590154254639765_);}
	.st367{fill:url(#SVGID_00000157309100982357463310000018178389713690517647_);}
	.st368{fill:url(#SVGID_00000004540580843887256800000013883248774148839563_);}
	.st369{fill:url(#SVGID_00000159463919844186496940000018013228341699635636_);}
	.st370{fill:url(#SVGID_00000083805702985978909700000005451194586014185895_);}
	.st371{fill:url(#SVGID_00000078748748434838655630000009488547624322512527_);}
	.st372{fill:url(#SVGID_00000103250662259411820970000002599192484875304866_);}
	.st373{fill:url(#SVGID_00000176039991808243796180000005115592191357769621_);}
	.st374{fill:url(#SVGID_00000151502933054464646410000008294839259879885968_);}
	.st375{fill:url(#SVGID_00000143602548798867462260000015664942575748242819_);}
	.st376{fill:url(#SVGID_00000075883732724394816680000015027825178939546251_);}
	.st377{fill:url(#SVGID_00000021103337294411708940000005289462130028104606_);}
	.st378{fill:url(#SVGID_00000043459254805399532600000000905478693574437255_);}
	.st379{fill:url(#SVGID_00000093879832115544127150000015285569215734911667_);}
	.st380{fill:url(#SVGID_00000018954709215893075730000007211706965909056184_);}
	.st381{fill-rule:evenodd;clip-rule:evenodd;fill:url(#SVGID_00000030463911527357909480000010968508638192254110_);}
	.st382{fill:url(#SVGID_00000075122360748270763840000010654632513254269824_);}
	.st383{fill:url(#SVGID_00000023999617882629819060000013526160378036585867_);}
	.st384{fill:url(#SVGID_00000011008498576550358210000018352184082145010349_);}
	.st385{fill:url(#SVGID_00000164503506529194996540000006684621288766590631_);}
	.st386{fill:url(#SVGID_00000041265574368301608210000007877323034705580988_);}
	.st387{fill:url(#SVGID_00000120546081491453624400000005833191188302452377_);}
	.st388{fill:url(#SVGID_00000126302494607431125510000004630922477830694051_);}
	.st389{fill:url(#SVGID_00000054257688514633972960000001070838132991770776_);}
	.st390{fill:url(#SVGID_00000015349338227352663850000003973056047994050480_);}
	.st391{fill:url(#SVGID_00000131332407587238402560000009443177830383625398_);}
	.st392{fill:url(#SVGID_00000011741485394363217030000000101549866255803317_);}
	.st393{fill:url(#SVGID_00000043423919530000239250000010237569807191492231_);}
	.st394{fill:url(#SVGID_00000057136648777261909260000005513131272447643273_);}
	.st395{fill:url(#SVGID_00000104668024322023409570000002835514190362536605_);}
	.st396{fill:url(#SVGID_00000032636520559697835350000013762416555390596273_);}
	.st397{fill:url(#SVGID_00000116228281279758769320000016490045508327231627_);}
	.st398{fill:url(#SVGID_00000077325354942914965560000013253943415017194404_);}
	.st399{fill:url(#SVGID_00000074399512164701270450000011124829159842468020_);}
	.st400{fill:url(#SVGID_00000035502294605957529290000003683493108308481706_);}
	.st401{fill:url(#SVGID_00000106133068982955729000000002148352984694566810_);}
</style>
<g>
	<path class="st0" d="M912.01,349.46c3.7,3.06,5.55,7.31,5.55,12.71c0.01,5.98-1.52,14.81-4.55,26.51l-49.57,190.16
		c-5.03,18.98-10.65,31.29-16.86,36.9c-6.21,5.63-15.99,8.43-29.34,8.43l-2.18,8.12h133.43l1.98-8.12
		c-13.22-0.28-22.21-2.33-26.97-6.13c-3.7-2.92-5.55-7.01-5.55-12.27c0-4.52,1.79-13.5,5.36-26.94l49.17-190.16
		c4.77-18.56,10.28-30.75,16.56-36.59c6.28-5.85,15.36-8.76,27.26-8.76l2.58-8.11H887.63l-2.18,8.1
		C899.46,344.35,908.31,346.4,912.01,349.46 M733.26,487.36c7,3,12.72,8.33,17.14,16c4.43,7.66,6.65,16.46,6.65,26.39
		c0,20.74-5.75,40.2-17.25,58.39c-11.49,18.18-31.98,27.27-61.46,27.27c-3.31,0-8.26-0.14-14.87-0.44l34.29-132.1
		C714.43,482.87,726.26,484.37,733.26,487.36z M732.86,351.22l10.91-0.45c10.84-0.29,19.49,3.15,25.97,10.3
		c6.48,7.16,9.72,16.42,9.72,27.82c0,12.13-3.14,25.01-9.42,38.67c-6.28,13.66-14.61,23.48-24.98,29.47
		c-10.38,5.99-24.56,9.13-42.53,9.42L732.86,351.22z M639.68,343.32c13.09,0.59,21.58,2.56,25.48,5.92c3.9,3.35,5.85,7.59,5.85,12.7
		c0,6.29-2.45,18.7-7.34,37.25L615.7,581.9c-3.84,14.6-7.17,24.2-10.01,28.81c-2.85,4.6-6.62,8-11.31,10.19
		c-4.69,2.2-12.46,3.28-23.3,3.28l-2.58,8.12h111.82c41.9,0,70.72-3.4,86.44-10.2c15.74-6.78,28.36-17.52,37.87-32.2
		c9.52-14.68,14.28-29.53,14.28-44.58c0-16.07-4.83-30.15-14.47-42.29c-9.65-12.11-26.9-22.05-51.75-29.79
		c23.93-5.99,41.66-12.53,53.24-19.61c11.56-7.09,20.24-16.1,26.07-27.06c5.81-10.96,8.73-21.68,8.73-32.21
		c0-12.85-3.67-24.35-11-34.5c-7.34-10.15-17.68-16.98-31.03-20.48c-10.19-2.79-27.1-4.17-50.75-4.17H641.67L639.68,343.32z
		 M523.68,359.64c6.81,8.99,10.21,23.48,10.21,43.49c0,31.98-6.38,68.46-19.13,109.43c-12.75,40.97-29.24,72.04-49.46,93.22
		c-10.18,10.67-22.54,15.99-37.08,15.99c-10.97,0-19.96-4.56-26.96-13.69c-7.01-9.13-10.51-22.59-10.51-40.42
		c0-20.89,3.6-46.95,10.81-78.22c7.19-31.25,14.9-55.96,23.09-74.15c8.19-18.18,16.25-32.16,24.19-41.95
		c7.92-9.78,15.56-16.76,22.9-20.92c7.33-4.16,16.22-6.24,26.67-6.24C508.45,346.18,516.88,350.67,523.68,359.64z M493.84,620.67
		c26.57-16.65,50.49-43.56,71.77-80.72c21.29-37.17,31.93-74.23,31.93-111.18c0-16.51-4.07-32.87-12.2-49.08
		c-8.12-16.2-19.49-28.84-34.1-37.9c-14.61-9.05-30.03-13.58-46.29-13.58c-27.75,0-55.88,9.9-84.36,29.68
		c-28.49,19.8-51.12,46.15-67.91,79.08c-16.78,32.94-25.18,65.62-25.18,98.04c0,16.07,3.34,32.57,10.01,49.51
		c6.68,16.95,16.69,30.31,30.04,40.09c13.36,9.79,30.87,14.68,52.54,14.68C449.17,639.29,473.76,633.09,493.84,620.67z
		 M334.85,328.42c-9.55,13.28-25.18,11.15-38.59,7.45c-11.61-3.39-28.81-7.26-47.39-7.45c-44.81,0-84.86,14.1-120.14,42.29
		c-45.07,36.36-67.61,82.59-67.61,138.68c0,26.29,5.45,49.73,16.35,70.32c10.91,20.59,24.65,35.63,41.25,45.12
		c16.58,9.49,36.71,14.24,60.37,14.24c30.66-0.01,59.88-5.84,87.63-17.53l35.04-136.05h-93.33l-1.98,8.33
		c10.17,0,17.34,1.87,21.5,5.59c4.16,3.72,6.25,8.29,6.25,13.69c0,4.09-1.72,12.7-5.15,25.85l-20.62,78.42
		c-9.65,4.24-17.84,6.36-24.58,6.36c-15.99,0-29.94-7.71-41.84-23.12c-11.89-15.4-17.85-37.71-17.85-66.92
		c0-34.03,6.71-66.49,20.13-97.38c13.4-30.88,29.64-53.74,48.67-68.57c19.04-14.82,38.06-22.23,57.09-22.23
		c18.51,0,32.88,6.1,43.13,18.29c10.24,12.19,15.89,32.17,16.94,59.92h7.54l24.51-95.31H334.85z"/>
	<path d="M999.26,716.13v15.04h0.74c2.35,0,4.05-0.73,5.11-2.2c1.05-1.46,1.72-3.63,2.02-6.49h1.05v19.34h-1.05
		c-0.21-2.11-0.68-3.84-1.38-5.17c-0.7-1.35-1.51-2.24-2.44-2.71c-0.93-0.46-2.28-0.69-4.04-0.69v10.38c0,2.03,0.08,3.27,0.26,3.72
		c0.17,0.46,0.49,0.83,0.96,1.12c0.47,0.28,1.24,0.43,2.28,0.43h2.21c3.44,0,6.21-0.8,8.29-2.38c2.08-1.59,3.57-4.01,4.47-7.29h1.01
		l-1.66,11.74h-31.88v-0.95h1.22c1.07,0,1.93-0.2,2.58-0.58c0.47-0.26,0.84-0.69,1.09-1.32c0.2-0.43,0.3-1.58,0.3-3.45V720.3
		c0-1.68-0.05-2.71-0.14-3.1c-0.18-0.65-0.52-1.13-1-1.48c-0.69-0.52-1.63-0.77-2.83-0.77h-1.22V714h30.87v10.92h-1.06
		c-0.52-2.67-1.26-4.59-2.21-5.75c-0.95-1.16-2.29-2.02-4.02-2.56c-1.01-0.33-2.91-0.49-5.7-0.49H999.26z M942.79,716.07v16.11h1.55
		c2.52,0,4.41-0.24,5.67-0.69c1.26-0.47,2.24-1.31,2.95-2.5c0.71-1.2,1.08-2.78,1.08-4.7c0-2.81-0.66-4.87-1.98-6.21
		c-1.31-1.34-3.44-2.01-6.36-2.01H942.79z M942.79,734.13v10.42c0,1.98,0.12,3.25,0.37,3.75c0.24,0.52,0.68,0.93,1.29,1.24
		c0.62,0.3,1.78,0.46,3.47,0.46v0.95h-18.9v-0.95c1.71,0,2.87-0.16,3.48-0.47c0.61-0.32,1.05-0.73,1.28-1.24
		c0.25-0.51,0.37-1.76,0.37-3.75v-24.13c0-2-0.12-3.26-0.37-3.76c-0.24-0.52-0.68-0.93-1.29-1.24c-0.63-0.3-1.77-0.46-3.47-0.46V714
		h17.17c4.47,0,7.73,0.31,9.8,0.93c2.07,0.61,3.76,1.75,5.08,3.43c1.31,1.67,1.96,3.62,1.96,5.85c0,2.72-0.99,4.98-2.95,6.76
		c-1.25,1.14-3.01,1.98-5.26,2.54l8.85,12.5c1.17,1.61,2.01,2.61,2.5,3.01c0.74,0.56,1.62,0.87,2.6,0.92v1h-11.63l-11.91-16.83
		H942.79z M890.07,716.13v15.04h0.73c2.35,0,4.05-0.73,5.1-2.2c1.05-1.46,1.73-3.63,2.02-6.49h1.06v19.34h-1.06
		c-0.21-2.11-0.68-3.84-1.37-5.17c-0.71-1.35-1.52-2.24-2.45-2.71c-0.92-0.46-2.27-0.69-4.03-0.69v10.38c0,2.03,0.08,3.27,0.26,3.72
		c0.16,0.46,0.49,0.83,0.96,1.12c0.47,0.28,1.23,0.43,2.29,0.43h2.21c3.45,0,6.21-0.8,8.29-2.38c2.08-1.59,3.58-4.01,4.48-7.29h1.01
		l-1.66,11.74h-31.89v-0.95h1.22c1.07,0,1.94-0.2,2.59-0.58c0.47-0.26,0.83-0.69,1.09-1.32c0.2-0.43,0.29-1.58,0.29-3.45V720.3
		c0-1.68-0.04-2.71-0.14-3.1c-0.17-0.65-0.52-1.13-1-1.48c-0.69-0.52-1.62-0.77-2.83-0.77h-1.22V714h30.88v10.92h-1.06
		c-0.52-2.67-1.27-4.59-2.21-5.75c-0.95-1.16-2.29-2.02-4.03-2.56c-1.01-0.33-2.91-0.49-5.69-0.49H890.07z M832.99,738.37
		L843.08,714h14.95v0.95h-1.2c-1.08,0-1.95,0.19-2.61,0.58c-0.45,0.26-0.82,0.69-1.09,1.31c-0.2,0.44-0.29,1.59-0.29,3.46v24.35
		c0,1.9,0.1,3.09,0.29,3.57c0.2,0.47,0.6,0.89,1.22,1.25c0.61,0.36,1.44,0.54,2.47,0.54h1.2v0.95H838.8v-0.95h1.2
		c1.08,0,1.95-0.2,2.6-0.58c0.45-0.26,0.82-0.69,1.09-1.32c0.2-0.43,0.29-1.58,0.29-3.45v-27.34l-14.19,33.64h-0.65l-14.38-33.4
		v25.99c0,1.83,0.04,2.95,0.14,3.37c0.24,0.91,0.75,1.65,1.54,2.23c0.78,0.57,2.03,0.86,3.72,0.86v0.95h-12.65v-0.95h0.39
		c0.82,0.02,1.58-0.11,2.28-0.41c0.72-0.28,1.24-0.66,1.61-1.14c0.37-0.47,0.65-1.14,0.84-2.01c0.04-0.21,0.06-1.14,0.06-2.81V720.3
		c0-1.9-0.09-3.09-0.29-3.56c-0.2-0.47-0.6-0.89-1.23-1.25c-0.63-0.37-1.45-0.54-2.48-0.54h-1.18V714h15.07L832.99,738.37z
		 M762.4,733.18v11.48c0,1.9,0.11,3.09,0.31,3.57c0.21,0.47,0.61,0.89,1.22,1.25c0.61,0.36,1.42,0.54,2.44,0.54h1.22v0.95h-19.22
		v-0.95h1.22c1.07,0,1.93-0.2,2.58-0.58c0.47-0.26,0.84-0.69,1.09-1.32c0.2-0.43,0.3-1.58,0.3-3.45V720.3c0-1.9-0.11-3.09-0.3-3.57
		c-0.2-0.47-0.61-0.89-1.21-1.24c-0.6-0.37-1.42-0.54-2.46-0.54h-1.22V714h19.22v0.95h-1.22c-1.06,0-1.92,0.19-2.56,0.57
		c-0.47,0.26-0.83,0.69-1.1,1.31c-0.2,0.44-0.3,1.59-0.3,3.46v10.47h13.1V720.3c0-1.9-0.11-3.09-0.3-3.57
		c-0.2-0.47-0.6-0.89-1.22-1.24c-0.61-0.37-1.43-0.54-2.47-0.54h-1.19V714h19.23v0.95h-1.2c-1.08,0-1.94,0.19-2.57,0.57
		c-0.47,0.26-0.85,0.69-1.12,1.31c-0.2,0.44-0.29,1.59-0.29,3.46v24.35c0,1.9,0.1,3.09,0.29,3.57c0.21,0.47,0.6,0.89,1.23,1.25
		c0.61,0.36,1.43,0.54,2.46,0.54h1.2v0.95h-19.23v-0.95h1.19c1.08,0,1.94-0.2,2.58-0.58c0.46-0.26,0.84-0.69,1.11-1.32
		c0.2-0.43,0.3-1.58,0.3-3.45v-11.48H762.4z M726.5,713.17l0.28,12.32h-1.11c-0.53-3.08-1.82-5.57-3.88-7.43
		c-2.07-1.89-4.3-2.82-6.69-2.82c-1.86,0-3.33,0.49-4.41,1.49c-1.09,0.98-1.62,2.12-1.62,3.4c0,0.82,0.2,1.54,0.58,2.18
		c0.52,0.85,1.37,1.7,2.53,2.53c0.86,0.6,2.83,1.67,5.91,3.18c4.33,2.12,7.24,4.13,8.74,6.01c1.5,1.89,2.25,4.05,2.25,6.48
		c0,3.08-1.21,5.73-3.62,7.95c-2.4,2.21-5.46,3.33-9.17,3.33c-1.16,0-2.26-0.12-3.3-0.35c-1.04-0.24-2.33-0.68-3.89-1.34
		c-0.88-0.36-1.59-0.54-2.16-0.54c-0.47,0-0.96,0.19-1.49,0.55c-0.52,0.38-0.95,0.93-1.28,1.68h-0.94v-13.93h0.94
		c0.8,3.91,2.34,6.91,4.62,8.95c2.28,2.06,4.73,3.09,7.37,3.09c2.03,0,3.66-0.56,4.87-1.67c1.21-1.1,1.81-2.38,1.81-3.86
		c0-0.87-0.23-1.71-0.69-2.53c-0.46-0.82-1.16-1.58-2.1-2.33c-0.96-0.73-2.62-1.69-5.02-2.87c-3.36-1.64-5.78-3.05-7.24-4.22
		c-1.46-1.16-2.58-2.46-3.37-3.89c-0.79-1.44-1.18-3.02-1.18-4.74c0-2.95,1.08-5.45,3.24-7.52c2.15-2.07,4.88-3.1,8.16-3.1
		c1.2,0,2.36,0.14,3.48,0.42c0.86,0.22,1.9,0.63,3.12,1.21c1.23,0.59,2.08,0.87,2.58,0.87c0.48,0,0.84-0.14,1.11-0.43
		c0.27-0.28,0.53-0.99,0.77-2.08H726.5z M666.42,738.42l-5.51-12.59l-5.64,12.59H666.42z M667.3,740.42h-12.92l-1.61,3.61
		c-0.51,1.21-0.76,2.21-0.76,3c0,1.05,0.42,1.82,1.24,2.33c0.5,0.28,1.71,0.51,3.63,0.66v0.95H644.6v-0.95
		c1.32-0.2,2.42-0.77,3.27-1.66c0.85-0.91,1.91-2.78,3.16-5.62l13.18-29.44h0.52l13.3,30.25c1.27,2.9,2.32,4.73,3.14,5.48
		c0.62,0.57,1.49,0.89,2.61,0.99v0.95h-17.85v-0.95h0.73c1.43,0,2.44-0.2,3.02-0.62c0.39-0.28,0.59-0.71,0.59-1.26
		c0-0.33-0.04-0.68-0.16-1.04c-0.04-0.15-0.31-0.85-0.82-2.07L667.3,740.42z M625.21,713.17v12.81h-1.06
		c-0.8-3.36-2.28-5.94-4.45-7.74c-2.17-1.79-4.64-2.68-7.39-2.68c-2.3,0-4.4,0.65-6.32,1.98c-1.92,1.33-3.32,3.06-4.21,5.21
		c-1.14,2.75-1.71,5.81-1.71,9.17c0,3.31,0.42,6.32,1.24,9.05c0.84,2.71,2.14,4.77,3.92,6.16c1.77,1.39,4.07,2.09,6.9,2.09
		c2.32,0,4.44-0.51,6.37-1.53c1.93-1.02,3.96-2.77,6.1-5.26v3.18c-2.06,2.16-4.22,3.73-6.46,4.7c-2.24,0.98-4.85,1.46-7.84,1.46
		c-3.94,0-7.43-0.79-10.48-2.37c-3.06-1.58-5.41-3.85-7.07-6.81c-1.66-2.96-2.49-6.11-2.49-9.45c0-3.53,0.92-6.87,2.76-10.02
		c1.84-3.16,4.32-5.61,7.45-7.35c3.12-1.74,6.43-2.61,9.95-2.61c2.59,0,5.32,0.57,8.2,1.69c1.67,0.66,2.73,0.99,3.18,0.99
		c0.58,0,1.08-0.22,1.51-0.65c0.42-0.42,0.69-1.1,0.82-2.03H625.21z M524.02,714l18.19,22.89v-15.87c0-2.24-0.32-3.74-0.96-4.53
		c-0.86-1.06-2.34-1.58-4.39-1.54V714h12.21v0.95c-1.57,0.2-2.61,0.46-3.15,0.78c-0.53,0.33-0.94,0.85-1.26,1.57
		c-0.29,0.73-0.44,1.97-0.44,3.72v30.76h-0.92l-24.94-30.8v23.56c0,2.13,0.48,3.58,1.46,4.33c0.97,0.75,2.1,1.13,3.35,1.13h0.88
		v0.95h-13.15v-0.95c2.04-0.02,3.45-0.44,4.26-1.26c0.8-0.82,1.2-2.22,1.2-4.2v-26.13l-0.77-0.95c-0.78-1-1.47-1.67-2.07-1.98
		c-0.6-0.31-1.45-0.49-2.58-0.53V714H524.02z M476.29,738.42l-5.51-12.59l-5.63,12.59H476.29z M477.16,740.42h-12.92l-1.6,3.61
		c-0.51,1.21-0.77,2.21-0.77,3c0,1.05,0.42,1.82,1.25,2.33c0.49,0.28,1.7,0.51,3.61,0.66v0.95h-12.27v-0.95
		c1.32-0.2,2.42-0.77,3.27-1.66c0.85-0.91,1.91-2.78,3.16-5.62l13.18-29.44h0.52l13.31,30.25c1.27,2.9,2.32,4.73,3.13,5.48
		c0.62,0.57,1.49,0.89,2.62,0.99v0.95h-17.85v-0.95h0.73c1.43,0,2.44-0.2,3.02-0.62c0.4-0.28,0.59-0.71,0.59-1.26
		c0-0.33-0.04-0.68-0.16-1.04c-0.03-0.15-0.3-0.85-0.82-2.07L477.16,740.42z M436.8,750.01v0.95h-19.23v-0.95h1.22
		c1.06,0,1.93-0.2,2.58-0.58c0.48-0.26,0.83-0.69,1.09-1.32c0.2-0.43,0.29-1.58,0.29-3.45V720.3c0-1.9-0.1-3.09-0.29-3.57
		c-0.2-0.47-0.6-0.89-1.21-1.24c-0.6-0.37-1.42-0.54-2.46-0.54h-1.22V714h19.23v0.95h-1.22c-1.06,0-1.92,0.19-2.56,0.57
		c-0.46,0.26-0.84,0.69-1.11,1.31c-0.2,0.44-0.29,1.59-0.29,3.46v24.35c0,1.9,0.1,3.09,0.3,3.57c0.21,0.47,0.61,0.89,1.21,1.25
		c0.6,0.36,1.42,0.54,2.45,0.54H436.8z M398.62,738.03l-1.4,12.93h-32.72v-0.95h1.22c1.06,0,1.93-0.2,2.58-0.58
		c0.47-0.26,0.83-0.69,1.09-1.32c0.2-0.43,0.29-1.58,0.29-3.45V720.3c0-1.9-0.1-3.09-0.29-3.57c-0.2-0.47-0.6-0.89-1.21-1.24
		c-0.6-0.37-1.42-0.54-2.46-0.54h-1.22V714h19.67v0.95h-1.61c-1.07,0-1.94,0.19-2.59,0.57c-0.48,0.26-0.85,0.69-1.13,1.31
		c-0.2,0.44-0.3,1.59-0.3,3.46v23.58c0,1.88,0.12,3.08,0.33,3.61c0.21,0.52,0.64,0.91,1.27,1.16c0.45,0.16,1.55,0.24,3.27,0.24h3.07
		c1.95,0,3.57-0.34,4.87-1.03s2.43-1.78,3.38-3.27c0.95-1.49,1.85-3.67,2.7-6.57H398.62z M325.98,715.29
		c-3.39,0-5.96,1.71-7.74,5.16c-1.44,2.83-2.15,6.88-2.15,12.18c0,6.29,1.12,10.94,3.34,13.95c1.55,2.1,3.71,3.14,6.5,3.14
		c1.88,0,3.44-0.45,4.7-1.35c1.6-1.16,2.85-3.01,3.75-5.56c0.89-2.55,1.33-5.87,1.33-9.96c0-4.87-0.46-8.52-1.37-10.94
		c-0.9-2.43-2.06-4.14-3.48-5.13C329.45,715.79,327.82,715.29,325.98,715.29z M325.65,713.56c5.89-0.21,10.66,1.49,14.34,5.14
		c3.68,3.65,5.52,8.2,5.52,13.68c0,4.67-1.37,8.78-4.12,12.34c-3.63,4.71-8.76,7.07-15.39,7.07c-6.65,0-11.8-2.24-15.42-6.74
		c-2.87-3.56-4.31-7.76-4.31-12.64c0-5.49,1.87-10.05,5.6-13.7C315.61,715.05,320.2,713.35,325.65,713.56z M283.38,713.17v12.99
		h-0.95c-1.22-3.54-3.05-6.22-5.48-8.06c-2.43-1.84-5.1-2.76-7.99-2.76c-2.76,0-5.06,0.78-6.9,2.32c-1.84,1.55-3.13,3.72-3.9,6.48
		c-0.76,2.78-1.14,5.62-1.14,8.54c0,3.54,0.41,6.63,1.25,9.3c0.83,2.66,2.18,4.61,4.03,5.86c1.86,1.26,4.07,1.88,6.62,1.88
		c0.89,0,1.81-0.09,2.73-0.28c0.94-0.18,1.9-0.47,2.87-0.82v-7.63c0-1.48-0.11-2.43-0.29-2.88c-0.2-0.42-0.62-0.82-1.24-1.17
		c-0.62-0.35-1.37-0.53-2.25-0.53h-0.95v-0.95h17.94v0.95c-1.36,0.09-2.32,0.28-2.86,0.56c-0.53,0.29-0.95,0.76-1.24,1.44
		c-0.16,0.34-0.25,1.2-0.25,2.57v7.63c-2.36,1.04-4.81,1.84-7.36,2.38c-2.54,0.53-5.19,0.8-7.94,0.8c-3.48,0-6.39-0.47-8.71-1.43
		c-2.31-0.95-4.35-2.2-6.12-3.76c-1.77-1.55-3.14-3.3-4.14-5.24c-1.28-2.5-1.9-5.3-1.9-8.39c0-5.56,1.95-10.23,5.85-14.06
		c3.92-3.83,8.82-5.74,14.74-5.74c1.84,0,3.48,0.14,4.96,0.42c0.8,0.16,2.09,0.57,3.88,1.24c1.79,0.68,2.84,1.01,3.17,1.01
		c0.51,0,0.99-0.19,1.43-0.55c0.43-0.38,0.83-1.09,1.19-2.12H283.38z M202.64,714l18.19,22.89v-15.87c0-2.24-0.32-3.74-0.96-4.53
		c-0.87-1.06-2.34-1.58-4.39-1.54V714h12.2v0.95c-1.56,0.2-2.61,0.46-3.14,0.78c-0.53,0.33-0.95,0.85-1.26,1.57
		c-0.29,0.73-0.44,1.97-0.44,3.72v30.76h-0.92l-24.94-30.8v23.56c0,2.13,0.48,3.58,1.46,4.33c0.97,0.75,2.1,1.13,3.35,1.13h0.87
		v0.95h-13.15v-0.95c2.04-0.02,3.45-0.44,4.26-1.26c0.8-0.82,1.2-2.22,1.2-4.2v-26.13l-0.77-0.95c-0.78-1-1.47-1.67-2.07-1.98
		c-0.6-0.31-1.46-0.49-2.58-0.53V714H202.64z M151.37,715.29c-3.39,0-5.96,1.71-7.73,5.16c-1.45,2.83-2.15,6.88-2.15,12.18
		c0,6.29,1.11,10.94,3.33,13.95c1.55,2.1,3.71,3.14,6.51,3.14c1.87,0,3.45-0.45,4.69-1.35c1.6-1.16,2.86-3.01,3.75-5.56
		c0.89-2.55,1.34-5.87,1.34-9.96c0-4.87-0.46-8.52-1.37-10.94c-0.91-2.43-2.06-4.14-3.48-5.13
		C154.84,715.79,153.21,715.29,151.37,715.29z M151.05,713.56c5.88-0.21,10.66,1.49,14.34,5.14c3.68,3.65,5.52,8.2,5.52,13.68
		c0,4.67-1.37,8.78-4.12,12.34c-3.63,4.71-8.76,7.07-15.39,7.07c-6.65,0-11.79-2.24-15.42-6.74c-2.87-3.56-4.31-7.76-4.31-12.64
		c0-5.49,1.87-10.05,5.6-13.7C141.01,715.05,145.6,713.35,151.05,713.56z M87.64,738.37L97.73,714h14.95v0.95h-1.2
		c-1.08,0-1.95,0.19-2.61,0.58c-0.46,0.26-0.82,0.69-1.09,1.31c-0.2,0.44-0.29,1.59-0.29,3.46v24.35c0,1.9,0.1,3.09,0.29,3.57
		c0.2,0.47,0.6,0.89,1.22,1.25c0.62,0.36,1.43,0.54,2.47,0.54h1.2v0.95H93.44v-0.95h1.2c1.08,0,1.95-0.2,2.6-0.58
		c0.46-0.26,0.81-0.69,1.09-1.32c0.2-0.43,0.29-1.58,0.29-3.45v-27.34l-14.19,33.64h-0.65l-14.38-33.4v25.99
		c0,1.83,0.04,2.95,0.14,3.37c0.24,0.91,0.75,1.65,1.54,2.23c0.78,0.57,2.03,0.86,3.72,0.86v0.95H62.16v-0.95h0.39
		c0.81,0.02,1.58-0.11,2.28-0.41c0.71-0.28,1.24-0.66,1.61-1.14c0.37-0.47,0.65-1.14,0.84-2.01c0.04-0.21,0.06-1.14,0.06-2.81V720.3
		c0-1.9-0.09-3.09-0.29-3.56c-0.2-0.47-0.6-0.89-1.23-1.25c-0.62-0.37-1.45-0.54-2.47-0.54h-1.18V714h15.07L87.64,738.37z"/>
</g>
</svg>
