<?xml version="1.0" encoding="utf-8"?>
<!-- Generator: Adobe Illustrator 26.5.0, SVG Export Plug-In . SVG Version: 6.00 Build 0)  -->
<svg version="1.1" id="Layer_1" xmlns="http://www.w3.org/2000/svg" xmlns:xlink="http://www.w3.org/1999/xlink" x="0px" y="0px"
	 viewBox="0 0 1080 1080" style="enable-background:new 0 0 1080 1080;" xml:space="preserve">
<style type="text/css">
	.st0{fill-rule:evenodd;clip-rule:evenodd;}
	.st1{fill:#ED1C24;}
	.st2{fill:#E1251B;}
	.st3{fill-rule:evenodd;clip-rule:evenodd;fill:#16397B;}
	.st4{fill:#EE2745;}
	
		.st5{clip-path:url(#SVGID_00000084510255595719256600000001957687384881335963_);fill:url(#SVGID_00000110472225021528086430000010202711416996649913_);}
	
		.st6{clip-path:url(#SVGID_00000114781319855323943480000000668639599012555956_);fill:url(#SVGID_00000173854700751071428600000012547499199440182679_);}
	
		.st7{clip-path:url(#SVGID_00000085249307904100517490000010204415267867079096_);fill:url(#SVGID_00000181074052176339647100000004193511212077310373_);}
	
		.st8{clip-path:url(#SVGID_00000014623682645575706630000006189236137544281728_);fill:url(#SVGID_00000016068006000183609660000011749376971600977850_);}
	.st9{fill:#424243;}
	
		.st10{clip-path:url(#SVGID_00000162315546902184382390000008941463686829158325_);fill:url(#SVGID_00000092421304826665762150000014094662506429351605_);}
	.st11{fill:#FFFFFF;}
	
		.st12{clip-path:url(#SVGID_00000102522859684842662750000011766576386451275940_);fill:url(#SVGID_00000086649550901811172930000016228292787133350288_);}
	
		.st13{clip-path:url(#SVGID_00000088853073249131744030000001712424122546995869_);fill:url(#SVGID_00000167365566295608826720000010679523367904023482_);}
	
		.st14{clip-path:url(#SVGID_00000116211063674474534070000017777020048701740698_);fill:url(#SVGID_00000067230947977419023650000006817064064709887679_);}
	
		.st15{clip-path:url(#SVGID_00000004520899025400079030000013686975438864385215_);fill:url(#SVGID_00000032606617277636082340000001441883799892090022_);}
	
		.st16{clip-path:url(#SVGID_00000178897928830959291070000007341505056597402005_);fill:url(#SVGID_00000046331004168369834400000013566755631680677289_);}
	
		.st17{clip-path:url(#SVGID_00000165212980718660051620000009637521658057472408_);fill:url(#SVGID_00000077314179991651557180000012408120955609257399_);}
	
		.st18{clip-path:url(#SVGID_00000006699051403953275310000013724846836197356419_);fill:url(#SVGID_00000080899211643878315750000013274205773519603372_);}
	.st19{fill-rule:evenodd;clip-rule:evenodd;fill:#C8202F;}
	.st20{fill-rule:evenodd;clip-rule:evenodd;fill:#FFFFFF;}
	.st21{fill-rule:evenodd;clip-rule:evenodd;fill:#F98238;}
	.st22{filter:url(#Adobe_OpacityMaskFilter);}
	.st23{fill:url(#SVGID_00000168105656623643758850000002323469171354245560_);}
	.st24{mask:url(#SVGID_00000155124208655595166210000017935273030654983073_);fill-rule:evenodd;clip-rule:evenodd;fill:#ED1C24;}
	.st25{fill-rule:evenodd;clip-rule:evenodd;fill:#F5333F;}
	.st26{fill-rule:evenodd;clip-rule:evenodd;fill:#ED1C24;}
	.st27{fill-rule:evenodd;clip-rule:evenodd;fill:#F9A46E;}
	.st28{fill-rule:evenodd;clip-rule:evenodd;fill:#F47B26;}
	.st29{fill-rule:evenodd;clip-rule:evenodd;fill:#EB5433;}
	.st30{fill:#1A3282;}
	.st31{fill-rule:evenodd;clip-rule:evenodd;fill:#1A3282;}
	.st32{fill-rule:evenodd;clip-rule:evenodd;fill:#9D9FA2;}
	.st33{fill-rule:evenodd;clip-rule:evenodd;fill:#000303;}
	.st34{fill:#64003D;}
	.st35{fill:#536270;}
	.st36{fill-rule:evenodd;clip-rule:evenodd;fill:#64003D;}
	.st37{fill-rule:evenodd;clip-rule:evenodd;fill:#536270;}
	.st38{fill-rule:evenodd;clip-rule:evenodd;fill:#1A3382;}
	.st39{fill-rule:evenodd;clip-rule:evenodd;fill:#29387E;}
	.st40{fill-rule:evenodd;clip-rule:evenodd;fill:#F37021;}
	.st41{fill-rule:evenodd;clip-rule:evenodd;fill:#005C32;}
	.st42{fill-rule:evenodd;clip-rule:evenodd;fill:#D2AB67;}
	
		.st43{clip-path:url(#SVGID_00000134964456814951803000000004475394794768530367_);fill:url(#SVGID_00000173146590798364091320000009237928054967055746_);}
	
		.st44{clip-path:url(#SVGID_00000043415392418344159960000009974502611924821406_);fill:url(#SVGID_00000137126340739615106240000015125087145435236244_);}
	
		.st45{clip-path:url(#SVGID_00000025429602303643993810000014470344102669764502_);fill:url(#SVGID_00000090258161420682633850000002040899496648791968_);}
	.st46{fill-rule:evenodd;clip-rule:evenodd;fill:#00AEEF;}
	.st47{fill-rule:evenodd;clip-rule:evenodd;fill:#EC008C;}
	.st48{fill-rule:evenodd;clip-rule:evenodd;fill:#FFF200;}
	.st49{fill:#A7AAAC;}
	.st50{fill-rule:evenodd;clip-rule:evenodd;fill:#5C5B5B;}
	.st51{fill:#9D9D9F;}
	.st52{fill:#F04D23;}
	.st53{fill-rule:evenodd;clip-rule:evenodd;fill:#2E3192;}
	.st54{fill-rule:evenodd;clip-rule:evenodd;fill:#C4312D;}
	.st55{fill:#552715;}
	.st56{fill:#010101;}
	.st57{fill:#E31E2E;}
	.st58{fill:url(#SVGID_00000065038233096153882100000015839419473624294576_);}
	.st59{fill:url(#SVGID_00000005244042080654086340000009651474744982707101_);}
	.st60{clip-path:url(#SVGID_00000008144665076740628370000002183155082312930719_);}
	.st61{clip-path:url(#SVGID_00000175281543566120167150000013092808837021105043_);}
	.st62{clip-path:url(#SVGID_00000119089821879492771890000014884714428596550076_);}
	.st63{clip-path:url(#SVGID_00000142145089344732836350000018182412685962259340_);}
	.st64{clip-path:url(#SVGID_00000036960570241093963340000005776692123796424084_);}
	.st65{clip-path:url(#SVGID_00000179625655624906817680000000189954915878967180_);}
	.st66{clip-path:url(#SVGID_00000083059253025060591200000007161903148575319466_);}
	.st67{clip-path:url(#SVGID_00000083796834382167248450000008899680224996460464_);}
	.st68{clip-path:url(#SVGID_00000109720145079066700110000005035310956262380442_);}
	.st69{clip-path:url(#SVGID_00000131326204871809355110000012325687099868627850_);}
	.st70{clip-path:url(#SVGID_00000101089672405877064160000014137106085608164765_);}
	.st71{fill:#2650A1;}
	.st72{fill:url(#SVGID_00000006700094376424174290000007090464668015690138_);}
	.st73{fill:#FEFEFE;}
	.st74{fill:#FDFDFD;}
	.st75{fill:#FCFCFC;}
	.st76{fill:#FBFBFB;}
	.st77{fill:#FAFAFA;}
	.st78{fill:#F9F9F9;}
	.st79{fill:#F8F8F8;}
	.st80{fill:#F7F7F7;}
	.st81{fill:#F6F6F6;}
	.st82{fill:#F5F5F5;}
	.st83{fill:#F4F4F4;}
	.st84{fill:#F3F3F3;}
	.st85{fill:#F2F2F2;}
	.st86{fill:#F1F1F1;}
	.st87{fill:#F0F0F0;}
	.st88{fill:#EFEFEF;}
	.st89{fill:#EEEEEE;}
	.st90{fill:#EDEDED;}
	.st91{fill:#ECECEC;}
	.st92{fill:#EBEBEB;}
	.st93{fill:#EAEAEA;}
	.st94{fill:#E9E9E9;}
	.st95{fill:#E8E8E8;}
	.st96{fill:#E7E7E7;}
	.st97{fill:#E6E6E6;}
	.st98{fill:#E5E5E5;}
	.st99{fill:#E4E4E4;}
	.st100{fill:#E3E3E3;}
	.st101{fill:#E2E2E2;}
	.st102{fill:#E1E1E1;}
	.st103{fill:#E0E0E0;}
	.st104{fill:#DFDFDF;}
	.st105{fill:#DEDEDE;}
	.st106{fill:#DDDDDD;}
	.st107{fill:#DCDCDC;}
	.st108{fill:#DBDBDB;}
	.st109{fill:#DADADA;}
	.st110{fill:#D9D9D9;}
	.st111{fill:#D92231;}
	.st112{fill:url(#SVGID_00000093883514129284364380000009309548337000607139_);}
	.st113{fill:url(#SVGID_00000183216948411309334960000013229920565125714609_);}
	.st114{opacity:0.8;}
	.st115{fill:url(#SVGID_00000052087951992374722820000000474290109026397853_);}
	.st116{fill:url(#SVGID_00000146483702910639975010000001133682116534198926_);}
	.st117{fill-rule:evenodd;clip-rule:evenodd;fill:#010101;}
	.st118{fill:#80A845;}
	.st119{fill-rule:evenodd;clip-rule:evenodd;fill:#80A845;}
	.st120{fill:url(#SVGID_00000175290056195602874230000012197081953310349456_);}
	.st121{fill-rule:evenodd;clip-rule:evenodd;fill:#04984A;}
	.st122{fill-rule:evenodd;clip-rule:evenodd;fill:url(#SVGID_00000006692844228736002700000017357389404468066702_);}
	.st123{fill:url(#SVGID_00000115484021423932155610000018435975255388081583_);}
	.st124{fill:url(#SVGID_00000166641661312503019590000008555527180811736198_);}
	.st125{fill:url(#SVGID_00000098905615532269728170000005162191281099711375_);}
	.st126{fill:url(#SVGID_00000017483598931532768280000002608200005521058742_);}
	.st127{fill:url(#SVGID_00000097475012491605829390000014841798211267602851_);}
	.st128{fill:url(#SVGID_00000063635223444382221410000017654323550525641407_);}
	.st129{fill:url(#SVGID_00000131361847837430536300000005261542512004811677_);}
	.st130{fill:url(#SVGID_00000037691319582440090120000001109090662150636716_);}
	.st131{fill:url(#SVGID_00000090983714396760497920000009215881810778238385_);}
	.st132{fill:url(#SVGID_00000102519314397928341420000001074723049256210573_);}
	.st133{fill:url(#SVGID_00000046336827907253233860000015073298966090850951_);}
	.st134{fill:url(#SVGID_00000100371715289984229990000008333065522631910026_);}
	.st135{fill:url(#SVGID_00000113320200666162441230000006407415637375838641_);}
	.st136{fill:url(#SVGID_00000053530203618558032710000017332116818749218961_);}
	.st137{fill-rule:evenodd;clip-rule:evenodd;fill:url(#SVGID_00000040574706565934395790000001554118636319040898_);}
	.st138{fill:#0A529D;}
	.st139{fill:url(#SVGID_00000106851604535626198680000017528023796674629306_);}
	.st140{fill:url(#SVGID_00000174599420165115545100000011045065858560189829_);}
	.st141{fill:url(#SVGID_00000130645412414747759440000014398779333451360669_);}
	.st142{fill:url(#SVGID_00000054948063410747461790000000490110568438641843_);}
	.st143{fill:url(#SVGID_00000049217300129026185220000002433639526242910084_);}
	.st144{fill:url(#SVGID_00000024704693596580804670000010971804766755137438_);}
	.st145{fill:url(#SVGID_00000155840042357493011120000011177766142752958890_);}
	.st146{fill:url(#SVGID_00000130611308274277833920000016998484117089380276_);}
	.st147{fill:url(#SVGID_00000041259935791983622080000014316854316695740289_);}
	.st148{fill:url(#SVGID_00000168082694800671163360000006208886014396113313_);}
	.st149{fill:url(#SVGID_00000042010613486525129600000007406798939523549075_);}
	.st150{fill:url(#SVGID_00000051346826486778993800000000124841905182005396_);}
	.st151{fill-rule:evenodd;clip-rule:evenodd;fill:url(#SVGID_00000075142209751623058740000009779293011538351232_);}
	.st152{fill:url(#SVGID_00000132065785535026586070000007064067215171324815_);}
	.st153{fill:url(#SVGID_00000127725831178285776690000011253849198221573535_);}
	.st154{fill:url(#SVGID_00000024720867775244909390000018112839576023509173_);}
	.st155{fill:url(#SVGID_00000178179541338561507970000013059776034052636844_);}
	.st156{fill:url(#SVGID_00000013164550263399200960000004718330345734679990_);}
	.st157{fill:url(#SVGID_00000137092469210723455330000009811530886658163333_);}
	.st158{fill:url(#SVGID_00000070081030029562288400000007582926152727926178_);}
	.st159{fill:url(#SVGID_00000088846775747303904170000010696242486863207052_);}
	.st160{fill:url(#SVGID_00000181062274500216922680000014004559191438512517_);}
	.st161{fill:url(#SVGID_00000113315418266171278530000010903842655199060903_);}
	.st162{fill:url(#SVGID_00000070833541700944456610000006958953514698381236_);}
	.st163{fill:url(#SVGID_00000015348293346078813770000010862326730017998992_);}
	.st164{fill:url(#SVGID_00000011747914567590944750000001169217111756515729_);}
	.st165{fill:url(#SVGID_00000166642949600280755190000001498768089833344678_);}
	.st166{fill:url(#SVGID_00000060753329760875864630000005642426062279214015_);}
	.st167{fill:url(#SVGID_00000103259833987460993200000014507301936581517224_);}
	.st168{fill:url(#SVGID_00000001632552233415616030000002989188135945564597_);}
	.st169{fill-rule:evenodd;clip-rule:evenodd;fill:url(#SVGID_00000145764040904602797020000001312059093409046660_);}
	.st170{fill:url(#SVGID_00000136396025755522192190000007927891994886239909_);}
	.st171{fill:url(#SVGID_00000051341636800230780190000011969394064656157359_);}
	.st172{fill:url(#SVGID_00000061436381204311920880000007617755839017576347_);}
	.st173{fill:url(#SVGID_00000170273457336358059800000006370956774630701441_);}
	.st174{fill:url(#SVGID_00000162335016617759547450000014952019678700139920_);}
	.st175{fill:url(#SVGID_00000146469311616912635430000016228744929757535635_);}
	.st176{fill:url(#SVGID_00000041283008526462927160000014031866647086895521_);}
	.st177{fill:url(#SVGID_00000175302848481277291420000011359906270930974387_);}
	.st178{fill:url(#SVGID_00000052814345734955521480000014698220752751716021_);}
	.st179{fill:url(#SVGID_00000101095883893074707140000013068895229140814466_);}
	.st180{fill:url(#SVGID_00000059996341750040583500000000390410681204406462_);}
	.st181{fill:url(#SVGID_00000065757581119133716110000008366353229147765409_);}
	.st182{fill:url(#SVGID_00000132799511996087379540000018282272125231513244_);}
	.st183{fill:url(#SVGID_00000047755852445491215070000012541646938787034034_);}
	.st184{fill-rule:evenodd;clip-rule:evenodd;fill:url(#SVGID_00000020370880115251752200000008746416481293084846_);}
	.st185{fill:url(#SVGID_00000148626573254968032010000016583139796592667299_);}
	.st186{fill:url(#SVGID_00000111158429511188935080000012915153348616311680_);}
	.st187{fill:url(#SVGID_00000039833513524123932770000011101277952526824085_);}
	.st188{fill:url(#SVGID_00000091014783592230355490000018104820477717226160_);}
	.st189{fill:url(#SVGID_00000057857584788417474770000014839789021462524815_);}
	.st190{fill:url(#SVGID_00000002348138498923324060000016053194588912110260_);}
	.st191{fill:url(#SVGID_00000142864956733471286100000011934952147194943167_);}
	.st192{fill:url(#SVGID_00000051382734953189831860000004913551036434819510_);}
	.st193{fill:url(#SVGID_00000008829621733148274300000000952396616122679231_);}
	.st194{fill:url(#SVGID_00000075127343808488704450000007565015192677868978_);}
	.st195{fill:url(#SVGID_00000046315914258995597940000011995714881808778916_);}
	.st196{fill:url(#SVGID_00000036230321895882956650000003200921471951501705_);}
	.st197{fill:url(#SVGID_00000098198583651775406790000013797935784523072169_);}
	.st198{fill:url(#SVGID_00000068677230796611145040000017862834532622482850_);}
	.st199{fill:url(#SVGID_00000148633684978677536790000005463201737893204155_);}
	.st200{fill:url(#SVGID_00000170959218200630570500000015030710696239006877_);}
	.st201{fill:url(#SVGID_00000016778647907229015370000014149967852372749715_);}
	.st202{fill:url(#SVGID_00000054975263953497591670000013484927387497880457_);}
	.st203{fill:url(#SVGID_00000062172533039764394250000010794803309808815538_);}
	.st204{fill-rule:evenodd;clip-rule:evenodd;fill:url(#SVGID_00000163056345218534967020000007324364939937990030_);}
	.st205{fill:url(#SVGID_00000170966672999978598590000000612597536524261561_);}
	.st206{fill:url(#SVGID_00000003811172691353159550000013233105603236462735_);}
	.st207{fill:url(#SVGID_00000026141424893108035470000016291272249820842141_);}
	.st208{fill:url(#SVGID_00000008138726680266728690000008551447888458468014_);}
	.st209{fill:url(#SVGID_00000111161771033700414910000013614637043583032998_);}
	.st210{fill:url(#SVGID_00000091008683099767574500000007474081676925394108_);}
	.st211{fill:url(#SVGID_00000095315662998182506360000010304098945278258821_);}
	.st212{fill:url(#SVGID_00000150813097575377040500000009618415829218634369_);}
	.st213{fill:url(#SVGID_00000165926422700234684760000002849122341120753307_);}
	.st214{fill:url(#SVGID_00000027581299691293430510000010628319037427636888_);}
	.st215{fill:url(#SVGID_00000054255499558476870440000017669933397931840958_);}
	.st216{fill:url(#SVGID_00000127750696675710197930000008353788112375214515_);}
	.st217{fill:url(#SVGID_00000165213705526988530680000001403344201413222799_);}
	.st218{fill:url(#SVGID_00000175286915523432991860000000859084423141192381_);}
	.st219{fill:url(#SVGID_00000101080008977644941090000007060008899058238865_);}
	.st220{fill:url(#SVGID_00000155868960683839011360000012185937213473758652_);}
	.st221{fill-rule:evenodd;clip-rule:evenodd;fill:url(#SVGID_00000170251592386505004230000002457278051932609712_);}
	.st222{fill:url(#SVGID_00000109024730380799928080000011413335094477366179_);}
	.st223{fill:url(#SVGID_00000093148065056144285960000014477064513089447321_);}
	.st224{fill:url(#SVGID_00000174581548221691800980000016930266526444663960_);}
	.st225{fill:url(#SVGID_00000120525579186051427310000002054904245750249400_);}
	.st226{fill:url(#SVGID_00000099639671986237510860000001611230550879448719_);}
	.st227{fill:url(#SVGID_00000173851288631643998410000011842451763518271373_);}
	.st228{fill:url(#SVGID_00000173849111256323970510000014019689396214253442_);}
	.st229{fill:url(#SVGID_00000087372816559355234470000007711884475259196307_);}
	.st230{fill:url(#SVGID_00000164508862155448583550000001804745029004679614_);}
	.st231{fill:url(#SVGID_00000174589585015211501420000000840725183530208405_);}
	.st232{fill:url(#SVGID_00000057841487979164404550000015002288976294042043_);}
	.st233{fill:url(#SVGID_00000002351900026608197490000007730861378152850362_);}
	.st234{fill:url(#SVGID_00000145033575991727960990000017761843056389411200_);}
	.st235{fill:url(#SVGID_00000036941358303134450130000002453979611866145672_);}
	.st236{fill:url(#SVGID_00000118355447542886657910000004062813703350437265_);}
	.st237{fill-rule:evenodd;clip-rule:evenodd;fill:url(#SVGID_00000109747633319242661980000013769724747918392249_);}
	.st238{fill:url(#SVGID_00000013158756640241853130000005241614358093526425_);}
	.st239{fill:url(#SVGID_00000000216465638557713880000015746813856637512627_);}
	.st240{fill:url(#SVGID_00000159465349644203650170000005134380920666125499_);}
	.st241{fill:url(#SVGID_00000082368837005691965280000008237394390054631305_);}
	.st242{fill:url(#SVGID_00000125560666391426041200000001802258768742665369_);}
	.st243{fill:url(#SVGID_00000150077511067553511950000011741594538481469828_);}
	.st244{fill:url(#SVGID_00000053529085394040885210000012906328882852522934_);}
	.st245{fill:url(#SVGID_00000163058021938441684640000013985699734851069106_);}
	.st246{fill:url(#SVGID_00000129199993093988117030000004655942075792881826_);}
	.st247{fill:url(#SVGID_00000044142692933880267630000002279264274833148037_);}
	.st248{fill:url(#SVGID_00000074410202530525096860000004740055774585746844_);}
	.st249{fill:url(#SVGID_00000121266786400178533290000013431274390689632174_);}
	.st250{fill:url(#SVGID_00000181054751966785508010000002891437418212429712_);}
	.st251{fill:url(#SVGID_00000115483262788535867570000002512326199232909707_);}
	.st252{fill:url(#SVGID_00000111185053536388947060000010645638245375303321_);}
	.st253{fill-rule:evenodd;clip-rule:evenodd;fill:url(#SVGID_00000125566098408902456500000015772619833438394248_);}
	.st254{fill:url(#SVGID_00000027598691055914327620000017654623672805949856_);}
	.st255{fill:url(#SVGID_00000047041627630204718720000015471039529023319226_);}
	.st256{fill:url(#SVGID_00000098205723229287782440000009320801537093293969_);}
	.st257{fill:url(#SVGID_00000077307085406547945740000003004818024484120246_);}
	.st258{fill:url(#SVGID_00000134228736422602205590000002310530441345380502_);}
	.st259{fill:url(#SVGID_00000177475274389417982350000010484698732137469335_);}
	.st260{fill:url(#SVGID_00000142142793503470104780000017985851998001474713_);}
	.st261{fill:url(#SVGID_00000046336714957648443130000012784619492012517507_);}
	.st262{fill:url(#SVGID_00000155854774535368865850000011927619033388344762_);}
	.st263{fill:url(#SVGID_00000120547279194227862480000007283868295916846518_);}
	.st264{fill:url(#SVGID_00000003801013277853112360000008837886136700210048_);}
	.st265{fill:url(#SVGID_00000068669344221902002950000009490074255398111403_);}
	.st266{fill:url(#SVGID_00000178917193964669577910000005660930776069793168_);}
	.st267{fill:url(#SVGID_00000088853829923259756090000002784958121479335298_);}
	.st268{fill:url(#SVGID_00000168798191632671896840000018311522760807435656_);}
	.st269{fill-rule:evenodd;clip-rule:evenodd;fill:url(#SVGID_00000077287913942556007270000018407730866589482881_);}
	.st270{fill:url(#SVGID_00000119090219588660172020000017418737862574624133_);}
	.st271{fill:url(#SVGID_00000079446934057397086070000009480034265621608851_);}
	.st272{fill:url(#SVGID_00000158717638521163315220000006995870557453838231_);}
	.st273{fill:url(#SVGID_00000131347895178025026450000016699887949040702616_);}
	.st274{fill:url(#SVGID_00000149352930792654652620000017341099086286499519_);}
	.st275{fill:url(#SVGID_00000019649715062014897910000000316030058740366231_);}
	.st276{fill:url(#SVGID_00000123436997083170785230000004975451336621239441_);}
	.st277{fill:url(#SVGID_00000123427142243951281450000000958387750933077408_);}
	.st278{fill:url(#SVGID_00000176007939314860321680000013009106193470106261_);}
	.st279{fill:url(#SVGID_00000044153777291614493440000017155059377036603798_);}
	.st280{fill:url(#SVGID_00000099655161809334548690000017886017679570115501_);}
	.st281{fill:url(#SVGID_00000065042604479053052460000015821887984587845528_);}
	.st282{fill:url(#SVGID_00000132050526575135070350000004409526367141122178_);}
	.st283{fill:url(#SVGID_00000064347600333297817360000014502003525545486248_);}
	.st284{fill:url(#SVGID_00000047758993643144902990000001057080568150669717_);}
	.st285{fill-rule:evenodd;clip-rule:evenodd;fill:url(#SVGID_00000142895114118542442080000010106306471508415104_);}
	.st286{fill:url(#SVGID_00000135681692643880064780000015062185888457263494_);}
	.st287{fill:url(#SVGID_00000112623249250623356660000001543534390414582667_);}
	.st288{fill:url(#SVGID_00000057843141274911076370000015508736692635109566_);}
	.st289{fill:url(#SVGID_00000098928653127457772050000015821558341740548498_);}
	.st290{fill:url(#SVGID_00000183240543795648382420000010664254580142757044_);}
	.st291{fill:url(#SVGID_00000017494716118200556220000005720350484872503717_);}
	.st292{fill:url(#SVGID_00000062164606873089170860000008973707536586021013_);}
	.st293{fill:url(#SVGID_00000011006690412545682290000013212470754549531572_);}
	.st294{fill:url(#SVGID_00000109734486492736309330000006302980258650783625_);}
	.st295{fill:url(#SVGID_00000052799200925428838060000003264292972841928870_);}
	.st296{fill:url(#SVGID_00000092442398950854048620000003852469226531812231_);}
	.st297{fill:url(#SVGID_00000181799061185165812790000009875637477017948306_);}
	.st298{fill:url(#SVGID_00000000908068404852545340000002664713979985015455_);}
	.st299{fill:url(#SVGID_00000095314786662013337880000006319691747680060588_);}
	.st300{fill:url(#SVGID_00000130624156655186373760000010921996458591284111_);}
	.st301{fill:url(#SVGID_00000054224639314009020160000009570812503708817314_);}
	.st302{fill:url(#SVGID_00000087392034347362762610000008524242566322611102_);}
	.st303{fill:url(#SVGID_00000068676450158688360370000014531143016680946560_);}
	.st304{fill-rule:evenodd;clip-rule:evenodd;fill:url(#SVGID_00000115489839525505236520000000403631787299931053_);}
	.st305{fill:url(#SVGID_00000106128269247319406100000015505041767133733259_);}
	.st306{fill:url(#SVGID_00000011724518469201911870000015345090816973596544_);}
	.st307{fill:url(#SVGID_00000045592136395149736700000015036018707241896110_);}
	.st308{fill:url(#SVGID_00000114040606023528315120000012402974645159321220_);}
	.st309{fill:url(#SVGID_00000003812725600654122920000002671455867832358022_);}
	.st310{fill:url(#SVGID_00000181799701440716432460000002692384531498929059_);}
	.st311{fill:url(#SVGID_00000124150040441493506290000007529515693889616515_);}
	.st312{fill:url(#SVGID_00000020372591115806583650000006961682787148458157_);}
	.st313{fill:url(#SVGID_00000093177671143874219230000004849161984020044705_);}
	.st314{fill:url(#SVGID_00000055683585633429595110000007513320802234424738_);}
	.st315{fill:url(#SVGID_00000012431863006396246170000004914744184994598272_);}
	.st316{fill:url(#SVGID_00000058554175231424878250000007625902846886560137_);}
	.st317{fill:url(#SVGID_00000127738653064561686170000013964106509747072658_);}
	.st318{fill:url(#SVGID_00000058586101300631921800000007289828723311364260_);}
	.st319{fill:url(#SVGID_00000023266962024858170760000004405412246899784636_);}
	.st320{fill:url(#SVGID_00000160893557628649791070000013846616486554848945_);}
	.st321{fill:url(#SVGID_00000023974467991421142000000015393498114370147244_);}
	.st322{fill:url(#SVGID_00000034780678370851356900000014245899784633334944_);}
	.st323{fill:url(#SVGID_00000003106410008951468950000004920295366229709501_);}
	.st324{fill:url(#SVGID_00000170236610482301283570000005955196030052296869_);}
	.st325{fill-rule:evenodd;clip-rule:evenodd;fill:url(#SVGID_00000060023950321632314260000006643871228459263929_);}
	.st326{fill:url(#SVGID_00000044889642110980318620000015133999828553522327_);}
	.st327{fill:url(#SVGID_00000145045162865956811120000015468904557891869108_);}
	.st328{fill:url(#SVGID_00000144314827879977353600000017426399742638301576_);}
	.st329{fill:url(#SVGID_00000027580926968654030100000017302546479811462814_);}
	.st330{fill:url(#SVGID_00000129175258861296757540000008167149710362304442_);}
	.st331{fill:url(#SVGID_00000172427960605681149750000008130635727913661608_);}
	.st332{fill:url(#SVGID_00000023999167183149725170000017062377192391163568_);}
	.st333{fill:url(#SVGID_00000123409434916964409920000006073639129160036773_);}
	.st334{fill:url(#SVGID_00000037686150390250078360000011763362205459385770_);}
	.st335{fill:url(#SVGID_00000005243595928486580270000011287975123762989698_);}
	.st336{fill:url(#SVGID_00000003097042111032844780000012481530518158488977_);}
	.st337{fill:url(#SVGID_00000134957250936839830130000011818859648577802917_);}
	.st338{fill:url(#SVGID_00000034078194920785907360000002538402576021763716_);}
	.st339{fill:url(#SVGID_00000052804670005963728220000004038921140056402849_);}
	.st340{fill:url(#SVGID_00000002374080451229500290000018359844553831189651_);}
	.st341{fill:url(#SVGID_00000181801612866211576330000000969199213346181054_);}
	.st342{fill-rule:evenodd;clip-rule:evenodd;fill:url(#SVGID_00000119116594510303557550000009560987701522165890_);}
	.st343{fill:url(#SVGID_00000048489336129445801420000015444441485642236834_);}
	.st344{fill:url(#SVGID_00000040557231006714522010000002776892514953063099_);}
	.st345{fill:url(#SVGID_00000014636436000858469550000002606950073235031443_);}
	.st346{fill:url(#SVGID_00000031172374023645326390000014098575884829771962_);}
	.st347{fill:url(#SVGID_00000039823217059701217260000008103296531749927591_);}
	.st348{fill:url(#SVGID_00000068638427820041164240000010823026801140215461_);}
	.st349{fill:url(#SVGID_00000154420850576421419130000008662843237217073321_);}
	.st350{fill:url(#SVGID_00000178891905130204327910000010772158060850857647_);}
	.st351{fill:url(#SVGID_00000132794947826618974170000004980516803733262209_);}
	.st352{fill:url(#SVGID_00000064313742327923128140000011482367281351102126_);}
	.st353{fill:url(#SVGID_00000065057613152489888350000013914386073036503703_);}
	.st354{fill:url(#SVGID_00000135659864523790601410000006085034158883676806_);}
	.st355{fill:url(#SVGID_00000065754020953464742480000009142379267542559639_);}
	.st356{fill:url(#SVGID_00000164493986372975179710000001584904065951402381_);}
	.st357{fill:url(#SVGID_00000165206244050912298750000005824206210421629068_);}
	.st358{fill:url(#SVGID_00000101092393046855714970000013187609360026597042_);}
	.st359{fill:url(#SVGID_00000183941697833670734810000001120222483597804182_);}
	.st360{fill:url(#SVGID_00000042699481971790490140000009938172127245186238_);}
	.st361{fill:url(#SVGID_00000060721822261628113490000002832889599035561605_);}
	.st362{fill:url(#SVGID_00000142134863890252271920000016642730610794966674_);}
	.st363{fill:#C1282D;}
	.st364{fill-rule:evenodd;clip-rule:evenodd;fill:url(#SVGID_00000080164400889601604690000005026327010305972111_);}
	.st365{fill:url(#SVGID_00000176734448302088504140000012274706717491127168_);}
	.st366{fill:url(#SVGID_00000183946305932251830670000004562049579202252161_);}
	.st367{fill:url(#SVGID_00000160164655384964377120000008407020245874549916_);}
	.st368{fill:url(#SVGID_00000169532623673240903910000017451885908963864972_);}
	.st369{fill:url(#SVGID_00000026884479427365541230000006524082123135481985_);}
	.st370{fill:url(#SVGID_00000091012462171494502110000007465864695019426949_);}
	.st371{fill:url(#SVGID_00000183239222853018768590000012056793203809813951_);}
	.st372{fill:url(#SVGID_00000111876149796960092800000006761848255038256002_);}
	.st373{fill:url(#SVGID_00000001655045681940043150000003783125399151408811_);}
	.st374{fill:url(#SVGID_00000111183549153679047840000014380984802805197726_);}
	.st375{fill:url(#SVGID_00000014622357738940546000000012375340593092384138_);}
	.st376{fill:url(#SVGID_00000177469933275821070310000011814436984546977709_);}
	.st377{fill:url(#SVGID_00000067939323394908211630000007948663313852220821_);}
	.st378{fill:url(#SVGID_00000095309905046172643350000007744716466695624639_);}
	.st379{fill:url(#SVGID_00000079445426872884587550000013097754985170045067_);}
	.st380{fill:url(#SVGID_00000120555393422688272020000011890493133561166724_);}
	.st381{fill-rule:evenodd;clip-rule:evenodd;fill:url(#SVGID_00000100368595740981475270000001237077044286285461_);}
	.st382{fill:url(#SVGID_00000080921796665656855580000002584669139797732278_);}
	.st383{fill:url(#SVGID_00000023256825755022971540000011110220670903801751_);}
	.st384{fill:url(#SVGID_00000177470341001726686400000009513261915844857223_);}
	.st385{fill:url(#SVGID_00000134229817886451186140000006661053237368718218_);}
	.st386{fill:url(#SVGID_00000168096990771511687950000015700028317195575949_);}
	.st387{fill:url(#SVGID_00000109022222115135791050000010718357353138650814_);}
	.st388{fill:url(#SVGID_00000036953309091393278420000014415305391116452005_);}
	.st389{fill:url(#SVGID_00000078759412663401513660000015821706635088023999_);}
	.st390{fill:url(#SVGID_00000152968071775104587830000008919879079144633476_);}
	.st391{fill:url(#SVGID_00000172426300652248320370000014056426280177330341_);}
	.st392{fill:url(#SVGID_00000062912692408704373990000016020312508297889672_);}
	.st393{fill:url(#SVGID_00000149351640467648318970000000128859917679134110_);}
	.st394{fill:url(#SVGID_00000167394669091949791510000008471014220465763716_);}
	.st395{fill:url(#SVGID_00000026865888840160854710000009689681032871510423_);}
	.st396{fill:url(#SVGID_00000026871500638303013920000003006643012959416749_);}
	.st397{fill:url(#SVGID_00000089565867171151933610000016663093403802977430_);}
	.st398{fill:url(#SVGID_00000090983404150162708780000014563300004113173913_);}
	.st399{fill:url(#SVGID_00000057842260381640912190000002379168151014911670_);}
	.st400{fill:url(#SVGID_00000159434750469458574420000000329564725145772980_);}
	.st401{fill:url(#SVGID_00000047057798049154017720000009467181842977851321_);}
</style>
<path class="st55" d="M749.81,818.91L749.81,818.91c-12.1,0-17.39,21.7-17.39,29.81c0,6.48,2.27,8.46,6.07,8.15
	c9.5-0.78,17.51-20.54,17.51-29.72C756,822.43,755.14,818.91,749.81,818.91 M743.75,818.73l-0.14,0.48
	c2.43-2.29,5.09-2.92,9.09-2.92c6.48,0,11.52,3.75,11.52,13.32c0,7.72-9.32,29.67-25.6,29.67c-8.57,0-12.48-8.24-12.48-15.85
	c0-21.64,17.03-42.23,43.42-50.16l1.73,1.6C760.23,799.88,749.96,807.14,743.75,818.73z M717.91,820.16
	c-7.7,7.16-17.21,10.79-25.01,19.57c-4.11,4.54-5.86,7.34-7.1,10.92l19.26-0.02c5.64,0,6.85,0.41,9.41-5.47l2.28,0.46l-6.25,12.93
	l-31.39-0.06c2.09-6.87,5.31-12.46,11.49-19.51c6.39-7.23,14.25-13,20.91-19.95c5.42-5.59,7.17-9.63,7.17-15.04
	c0-5.5-2.54-7.67-7.88-7.67c-6.29,0-13.1,4.24-17.68,11.68l-1.46-1.25c4.76-7.44,12.48-14.23,22.86-14.23
	c6.87,0,12.2,3.48,12.2,10.9C726.72,809.33,723.07,815.43,717.91,820.16z M674.42,794.89L674.42,794.89
	c-7.62,0-19.04,15.6-19.04,28.64c0,6.94,2.68,9.73,6.58,9.73c10.33,0,17.54-21.65,17.4-30.24
	C679.25,796.97,678.43,794.89,674.42,794.89z M642.34,859.06l-1.02-1.79c11.1-6.84,18.58-11.27,26.55-23.24l0.15-0.18
	c-1.31,1.57-5.04,2.73-10.14,1.79c-7.02-1.29-9.93-6.08-9.93-14.39c0-9.66,11.33-28.72,26.3-28.72c8,0,10.95,6.95,10.95,16.12
	C685.19,829.31,667.69,852.39,642.34,859.06z M622.63,850.8c-0.39,0.96-0.7,2.34-0.7,3.4c0,1.64,0.66,2.11,6,2.29l0.23,1.93
	l-21.92-0.01v-1.86c5.34-0.09,6.79,0.07,8.6-5.24l16.83-50.17l-8.14,2.33l-1.57-1.58c6.48-2.8,14.08-6.57,20-10.42l0.61,1.67
	L622.63,850.8z M572.27,837.89c-5.14,10.54-5.79,11.73-5.79,13.77c0,0.87,0.4,1.09,0.88,1.09c1.52,0,4.34-1.88,7.76-6.61l1.78,1.32
	c-4.59,6.47-11.81,12.49-15.43,12.49c-1.14,0-3.41-1.97-3.41-4c0-2.51,1.83-6.28,7.07-17.2c5.24-10.81,7.08-13.7,7.08-16.51
	c0-1.34-0.17-2.11-1.5-2.11c-4.59,0-11.75,8.52-19.28,21.84c-2.76,4.93-6.05,11.3-8.36,16.53l-6.37-0.03l8.19-19.48
	c3.7-8.7,5.97-14.25,5.97-17.35c0-0.96-0.14-1.87-1.56-1.87c-4.2,0-11.93,9.49-18.71,21.56c-3.04,5.49-6.67,12.83-8.19,16.98
	l-6.41,0.06c1.63-3.57,5.07-12.27,8.4-20.19c3.9-9.25,6.1-14.27,6.65-16.32c0.19-0.76,0.34-2.47-0.62-2.47
	c-1.91,0-5.24,4.07-9.63,10.55l-1.09-1.27c5.43-8.49,10.61-13.74,14.9-13.74c3.26,0,6.02,1.77,0.13,15.26l0.16,0.1
	c5.86-8.63,12.1-15.36,19.06-15.36c2.66,0,4.06,1.67,4.19,3.77c0.25,4.37-0.41,7.07-2.5,11.81l0.36-0.08
	c6.67-9.57,11.29-15.5,19.3-15.5c2.38,0,4.16,1.74,4.16,4.63C579.47,824.49,575.8,830.55,572.27,837.89z M505.29,844.9
	c-2.2,5.32-2.5,6.03-2.5,7.19c0,0.57,0.1,1.05,0.68,1.05c1.91,0,4.46-2.16,9.44-9.5l1.21,1.3c-6.19,9.66-12.33,14.59-14.9,14.59
	c-2.66,0-3.69-1.54-3.69-3.46c0-2.13,0.09-3.89,3.79-13.39l0.26-1.21c-8.86,14.78-13.13,16.91-20.48,18.3
	c-2.52,0.47-4.47-2.94-4.47-5.82c0-2.93,3.2-9.06,7.29-17.94c4.3-9.37,6.83-14.06,6.83-15.22c0-0.68-0.14-1.02-0.89-1.02
	c-1.54,0-5.24,2.86-9.14,7.67l-1.11-0.8c4.67-5.81,10.99-12.18,15.09-12.18c1.82,0,3.62,1.72,3.62,3.35c0,2.31-2.77,7.98-8.02,19.39
	c-4.57,9.94-5.97,12.84-5.97,15.54c0,0.96,0.42,1.42,1.27,1.42c4.39,0,12.32-10.45,19.27-22.51c2.94-5.21,5.91-10.87,7.64-15.51
	l6.94-0.2L505.29,844.9z M472.55,799.72L472.55,799.72c-3.11,0-4.86-1.39-4.86-5.37c-0.02-2.12,2.1-4.05,4.28-4.15
	c3.14-0.14,5.05,2.27,5.05,4.49C477.01,796.91,474.73,799.72,472.55,799.72z M464.2,839.53c-2.77,5.8-5.8,11.02-5.8,12.76
	c0,0.77,0.4,1.66,1.14,1.44c1.99-0.59,3.87-1.73,8.63-7.92l1.27,1.07c-3.42,4.53-10,12.7-16,12.7c-1.44,0-2.52-1.02-2.52-3.26
	c0-5.63,2.68-8.78,8.12-20.72c3.34-7.35,5.76-12.2,5.76-14.12c0-0.87-0.29-1.26-0.76-1.26c-2.19,0-7.41,6.35-9.3,8.87l-1.18-1.31
	c4.68-6.57,11.17-12.76,16.12-12.76c1.51,0,3.39,1.51,3.39,2.96C473.07,820.88,469.25,828.61,464.2,839.53z M438.16,816.73
	L438.16,816.73c-8.3,0-13.53,13.13-13.53,19.7c0,4.06,0.42,6.8,3.93,6.8c7.9,0,13.44-15.74,13.73-21.48
	C442.48,818.56,441.4,816.73,438.16,816.73z M435.46,862.92L435.46,862.92c-3.43-1.35-9.92-2.77-12.57-3.54
	c-7.05,2.22-10.01,4.19-10.01,9.4c0,6.47,7.44,7.63,13.63,7.63c9.34,0,15.11-3.19,15.62-7.52
	C442.52,865.53,439.85,864.65,435.46,862.92z M454.21,820.57c-1.14,0-2.2-0.65-2.85-1.14c-0.97-0.59-1.02-1.14-2.15-1.01
	c-1.09,0.14-1.03,0.67-1.87,1.42c0.4,1.09,0.25,2.98,0.25,4.52c0,8.32-7.54,21.56-18.5,21.56c-1.44,0-3.18-0.24-3.93-0.54
	c-2.3,1.06-3.74,1.61-3.74,3.64c0,1.75,0.24,1.75,3.75,3.2c4.59,1.83,10.24,2.68,15.01,5.01c3.53,1.73,6.8,5,6.8,9.06
	c0,7.34-10.54,12.63-20.74,12.63c-11.15,0-19.24-4.83-19.24-10.15c0-4.9,4.95-8.08,12.95-10.4v-0.2c-2.85-0.96-3.82-2.81-3.82-5.71
	c0-3.58,2.54-5.44,7.02-8.04c-2.66-1.76-3.96-6.1-3.96-11.89c0-7.72,6.47-17.63,18.56-17.63c3.83,0,6.26,1.18,7.68,3.39
	c2.2-2.02,5.27-3.19,7.85-3.19c2.48,0,3.66,1.7,3.66,2.96C456.95,819.24,455.27,820.57,454.21,820.57z M402.05,844.19
	c-2.29,5.69-2.4,6.82-2.4,7.79c0,1.15,0.29,0.74,1.06,0.74c1.52,0,4.82-3.2,8.43-8.12l1.34,1.28c-5.91,8.3-13.55,13.52-16.78,13.52
	c-1.54,0-2.34-2.03-2.34-3.2c0-1.16,0.61-4.16,2.02-7.74l20.98-50.25c0.76-1.93,1.25-3.97,0.82-4.38c-0.79-0.79-1.59-1.23-4.46-1.23
	l0.29-2.13l13.38-0.56L402.05,844.19z M386.34,817.16L386.34,817.16c-4.33,0.64-8.15,5.22-14.32,19.63
	c9.06-4.02,15.9-10.31,16.8-16.68C389.07,818.34,388.28,816.87,386.34,817.16z M384.24,833.03c-5.33,3.29-9.35,5.17-13.63,7.29
	c-1.34,3.58-2.49,8.39-2.49,10.92c0,2.51-0.87,4.53,2.48,4.53c5.52,0,8.36-2.93,13.61-10.37l1.49,0.82
	c-4.76,7.35-10.62,13.13-16.82,13.13c-5.23,0-8.63-4.01-8.63-9.42c0-10.9,14.34-35.55,26.53-35.55c4.29,0,7.37,2.91,7.37,5.99
	C394.14,824.71,390.62,829.09,384.24,833.03z M342.31,793.21L342.31,793.21c-3.34,0-4.88,1.09-6.02,4.76l-7.87,25.97
	c1.82,0.09,4.51-0.01,5.55-0.01c15.44,0,18.83-8.06,18.83-19.17C352.8,797.32,350.04,793.21,342.31,793.21z M334.06,826.46
	L334.06,826.46l-6.59-0.29l-9.27,29.1l9.18,0.62c13.44,0,19.15-6.39,19.15-18.07C346.54,827.97,338.13,826.72,334.06,826.46z
	 M344.96,824.9l0.16,0.24c3.63,1.18,10.39,6.8,10.39,15.49c0,9.56-8.8,18.02-21.66,18.02h-31.58l0.06-2.57c4.4,0,6.42,0.13,7.95-4.7
	l15.89-49.87c0.39-1.36,1.07-3.77,1.15-5.32c0.1-2.58-2.82-3.01-5.66-3.11l0.21-2h19.92c12.02,0,20.49,6.54,20.03,15.81
	C361.32,816.64,353.73,823.87,344.96,824.9z M974.63,669.76L974.63,669.76c1.01,0,1.01-0.62,0.81-1.45l-19.26-55.95
	c-0.83-1.63-1.46-1.63-2.37,0l-18.6,55.95c-0.41,1.04,0,1.45,0.62,1.45H974.63z M997.69,727.67l-18.08-47.33
	c-0.44-0.82-0.87-1.24-1.9-1.24h-44.65c-1.04,0-1.66,0.62-2.07,1.66l-12.15,32.97c-1.87,5.23-8.08,22.86-8.08,22.86
	s-4.2-0.17-6.5-0.17c-2.26,0-6.1,0.4-8.51,0.17l9.01-22.86l48.92-128.79c2.52-6.84,4.3-8.12,5.52-8.12c1.25,0,3.16,1.49,5.63,7.96
	c3.14,7.9,36.05,92.95,48.58,124.62l10.24,27.19c-3.07,0-8.57,0-22.93-0.41L997.69,727.67z M866.46,579.44
	c1.37,0.19,6.5,0.61,9.01,0.61c1.24,0,1.51-0.19,7.55-0.19l-9.86,24.51c-2.31,5.84-13.04,30.59-24.28,56.29
	c-13.2,30.13-22.37,52.83-27.16,63.02c-5.81,12.44-7.09,15.74-9.2,15.76c-2.52,0.04-3.92-2.9-7.9-12.88l-51.55-127.38l-7.97-19.76
	c3.87-0.17,10.72,0.62,13.19,0.62c2.12,0,10.54-0.61,13.08-0.62c0,0,5.36,17.26,8.46,25.35l38.13,100.25
	c12.06-27.85,38.49-94.24,43.05-109.21C862.06,592.73,866.46,579.44,866.46,579.44z M179.5,683.57c0-16.84-0.04-24.94-0.04-24.94
	c3.53-0.01,6.82,0.57,10.77,0.64c3.27,0.02,7.57-0.65,11.07-0.64l0.07,15.4c-0.42,6.65-0.42,12.91-0.42,21.61v23.27
	c0,9.36-0.19,9.78-2.69,11.22c-13.31,7.07-33.98,9.31-46.05,9.35c-19.74,0.1-50.3-3.44-71.11-23.28
	c-12.14-11.6-24.71-32.72-24.73-58.17c-0.06-33.28,16.39-56.77,34.89-68.35c18.7-11.67,41.85-13.13,57.85-13.13
	c13.09,0,28.84,2.69,32.78,3.56c4.38,1.02,11.62,1.82,16.84,2.02c2.06,0.23,2.49,1.05,2.49,1.87c0,2.95-1.25,1.49-1.48,22.37
	c-0.02,2.27-2.14,1.36-4.8-1.21c0,0-2.76-2.1-4.73-3.89c-7-6.3-21.13-16.03-47.95-16.03c-13.09,0-27.15,1.2-41.95,12.71
	c-12.12,9.43-20.92,28.46-20.92,52.78c0,29.29,14.72,50.48,21.98,57.57c16.42,16,32.88,20.89,52.33,21.43
	c7.46,0.2,16.77-0.89,21.66-3.54c2.71-1.51,4.16-3.76,4.16-7.3V683.57z M667.91,721.39c1.03-8.77,1.03-25.16,1.03-45.12v-36.57
	c0-32.46-0.07-38.24-0.42-44.9l-1.26-15.37c2.91,0,8.16,0.61,12.46,0.63c3.11,0.02,8.97-0.81,11.46-0.63l-0.35,15.37
	c-0.4,6.66-0.4,12.45-0.4,44.9v36.57c0,19.95-0.07,36.34,1.04,45.12l1.29,15.14c-4.49-0.11-7-0.68-13.03-0.61
	c-5.49,0.06-8.8,0.89-12.51,0.61L667.91,721.39z M493.16,662.22L493.16,662.22c0,22.03,0.24,41.15,0.41,45.07
	c0.21,5.2,1.43,12.13,3.09,14.42c2.69,3.97,7.98,8.29,32.49,8.29c19.35,0,34.73-5.64,46.96-17.91
	c10.81-10.58,16.63-30.53,16.63-49.65c0-26.4-11.43-43.45-19.92-52.39c-19.57-20.59-40.75-22.08-65.46-22.08
	c-4.14,0-9.82,0.64-11.5,1.46c-1.86,0.82-2.47,1.92-2.47,4.14c-0.24,7.07-0.24,26.9-0.24,42.9V662.22z M470.64,721.45
	c1.04-8.75,1.04-25.15,1.04-45.1v-36.56c0-32.46,0.18-38.25-0.42-44.9l-0.07-14.77c2.48,0,26.82-0.62,39.28-0.62
	c20.57,0,60.34-1.88,85.03,23.69c10.37,10.81,20.15,28.06,20.15,52.79c0,26.19-10.79,46.32-22.43,58.6
	c-8.91,9.37-29.39,23.9-64.71,23.9c-17.85,0-56.23-2.49-58.33-2.49L470.64,721.45z M339.38,730.32L339.38,730.32
	c18.7,0,55.27-11.85,55.29-69.86c0.04-44.83-28.31-75.28-61.13-75.28c-34.67,0-58.58,23.07-58.64,66.94
	C274.88,697.21,301.99,730.32,339.38,730.32z M334.99,576.69c46.72,0,83.43,29.51,83.43,77.93c0,46.55-34.6,85.02-84.66,85.02
	c-56.87,0-81.96-44.3-81.96-81.68C251.79,624.29,277.68,576.69,334.99,576.69z M561.61,214.31c-3.96,2.79-7.84,5.04-12.29,6.85
	c-3.87,1.58-7.64,2.97-11.67,4.39c-5.15,1.8-10.39,3.86-15,6.56c-5.71,3.35-10.9,8.13-13.84,14.09c-1.15,2.33-1.86,4.91-2.18,7.57
	c-0.19,1.73,0.37,3.99,0.94,6.03c0.66,2.34,1.34,4.44,0.68,5.95c-1.54,3.57-8.62,3.47-10.88,4.11c-3.59,1.01-6.79,2.77-8.77,4.92
	c-1.76,1.91-2.56,4.11-2.07,6.45c1,4.97,1.22,6.36,0.53,9.49c-0.96,4.29-5.7,4.01-8.74,6.07c-4.55,3.09-4.57,5.9-5.08,11.02
	c-0.29,2.81-1.4,3.72-2.97,4.83c-1.1,0.77-2.51,1.79-3.67,3.1c-2.84,3.16-1.92,5.48-2.81,9.25c-0.25,1.08-0.72,2.07-1.11,2.85
	c-0.48,0.98-1.27,1.3-2.11,1.73c-0.15,0.06,0.04,0.17,0.21,0.17c0.57-0.01,1.07-0.01,1.52-0.16c0.48-0.15,0.8-0.54,1.19-0.77
	c0.75-0.46,1.04-0.96,1.34-1.74c0.61-1.46,0.8-3.47,1.11-4.55c1.17-3.97,1.8-5.51,6.03-7.51c1.86-0.88,4.78-1.05,5.71-3.17
	c1.88-4.49-1.34-8.1,2.41-11.82c2.87-2.86,7.83-2.27,10.62-5.33c1.54-1.67,1.91-3.55,1.76-5.36c-0.2-2.28-1.18-4.42-1.29-5.41
	c-0.33-3.54,0.34-8.1,4.27-10.6c1.63-1.04,5.35-1.37,8.59-1.43c1.61-0.02,3.39-0.1,4.85-0.86c0.8-0.41,1.54-1.11,1.97-1.64
	c2.43-2.86,0.86-6,0.52-10c-0.41-4.82,0.59-9.45,2.6-13.58c2.94-6.06,8.06-11.02,14.58-13.71c7.32-3.02,14.95-6.02,22.13-9.41
	c4.74-2.24,8.77-5.45,13.42-7.83c2.48-1.27,6.15-3.03,9.39-3.22c1.57-0.11,2.89-0.08,4.17,0.84c0.02-1.79-0.3-2.78-1.31-3.26
	c-1.63-0.78-4.36-0.18-7,0.89C565.9,211.48,562.55,213.64,561.61,214.31z M599.8,245.22c-1.9-1.69-2.88-3.09-2.95-5.49
	c0.3,2.75,7.85,5.95,10.85,7.89c2.73,1.77,5.04,3.77,6.88,5.94c2.58,3.06,4.13,6.39,4.06,10.01c-0.04,2.34-0.3,3.97-0.67,5.1
	c-0.59,1.87-1.51,2.53-2.36,4.09c-0.93,1.71-1.49,2.77-1.05,4.66c0.25,1.17,0.19,1.46,0.04,2.2c-0.08,0.41-0.25,0.91-0.57,1.7
	c0.17-0.55-0.04-0.8-0.46-1.15c-0.18-0.15-0.4-0.17-0.61-0.34c-0.3-0.23-0.61-0.6-0.82-0.85c-0.95-1.17-0.39-2.24,0.19-3.51
	c1.4-3.12,3.62-7.16,3.2-12.71c-0.44-5.55-1.59-7.75-6.92-12.32C607.34,249.36,601.42,246.69,599.8,245.22z M672.81,355.5
	c-0.39-1.56-0.71-2.99-0.86-4.3c-0.49-4.09-0.05-6.8-0.24-6.66c-0.58,0.48-0.8-2.34-1.13-1.55c-1,2.35-1.77,5.98-1.1,11.15
	c1.02,7.72,3.5,13.9,6.81,20.73c11.23,23.12,2.95,43.01-7.04,47.08c5.21,15.83,14.37,30.97,15.92,48.31
	c0.74,8.37,1.88,15.26,3.31,21.76c1.35,6.33,2.98,12.27,4.89,18.88c-0.78-1.57-1.71-3.15-2.65-4.83c-2.66-4.8-5.77-10.17-7.83-15.06
	c-7.57-17.82-12.46-35.22-16.54-42.39c-2.12-3.76-4.67-8.69-7.35-12.75c-0.92-1.37-1.8-2.69-2.77-3.77c0.76,3.9-0.25,7.12-1.23,8.35
	c8.79,9.45,12.44,22.68,18.21,34.21c-0.21,10.24,20.55,44.64,25.05,52.22c3.69,6.24,6.01,18.55,6.01,18.55s16.33,0.04,16.57,0.03
	c-0.34-1.08-3.59-5.95-4.98-7.52c-2.12-2.42-9.57-9.21-10.97-11.27c-1.11-1.66-2.19-3.22-3.2-4.96c-1.59-2.74-3.03-5.71-4.29-8.61
	c-3.59-8.36-6.11-17.71-6.79-26.96c-0.14-1.94-0.21-3.81-0.14-5.72c0-0.52,0.01-1.19,0.02-1.7c0.14-3.59-0.13-6.97-0.64-10.34
	c-1.43-9.47-4.91-18.22-7.69-27.35c-0.86-2.88-1.75-5.88-2.42-8.87c-0.43-1.92-1.28-5.23-1.57-6.36c-0.07-0.23-0.09-0.5-0.09-0.5
	c3.32-4.29,9.01-12.36,9.67-23.15c0.42-6.94-1.25-14.98-7.21-23.96c-2.04-3.07-3.55-7.07-4.79-11.25c-0.68-2.22-1.33-4.49-1.87-6.73
	C673.48,358.61,673.18,357.01,672.81,355.5z M621.78,281.15L621.78,281.15c0,0,0.15,0.13-0.27,0.44
	c-6.61,5.07-12.37,10.79-17.13,17.74c0,0-0.1,0.17-0.24,0.34c-0.15,0.17-0.31,0.32-0.31,0.32c-3.75,3.34-11.94,3.41-14.41,8.38
	c-2.91,5.85,1.22,13.68,0.07,19.67c-1.25,6.59-8.95,7.25-14.27,7.7c-1.76,0.15-3.52,0.4-4.93,0.89c-1.61,0.56-2.8,1.43-3.61,2.54
	c-1.18,1.56-1.51,3.89-0.63,6.85c1.44,4.86,2.71,4.94,2.02,8.08c-0.89,3.99-5.77,4.09-8.85,5.32c-3.99,1.59-5.85,5.81-13.16,5.93
	c-2.98,0.06-5.29-0.62-8.31,0.48c-2.29,0.83-4.42,2.19-6.66,1.96c-0.87-0.08-1.63-0.34-2.62-1.07c-1.1-0.81-1.37-2.93-2.85-3.37
	c-1.7-0.52-4.12,1.31-5.06-0.51c-0.1,0.92,0.06,1.47,0.4,1.81c0.3,0.31,0.64,0.54,1.13,0.58c1.09,0.08,2.54-0.31,3.42,0.06
	c0.94,0.39,1.49,1.12,2.1,1.86c0.74,0.91,1.54,1.79,2.65,2.31c2.91,1.32,6.61-0.22,9.44-0.92c3.14-0.77,4.56-0.08,7.5,0.21
	c1.82,0.17,3.27-0.18,4.53-0.8c1.11-0.54,2.45-1.67,3.47-2.5c0.93-0.73,1.54-1.16,2.62-1.87c3.79-2.5,9.64-2,12.67-5.35
	c3.46-3.8-0.11-9.36-0.62-11.07c-1.78-6.01,0.56-9.59,12.05-10.52c5.3-0.41,8.04-3.23,8.5-3.75c4.63-5.48-0.39-13.68-0.05-19.48
	c0.17-3.2,2.18-4.69,4.54-6.02c1.59-0.92,3.36-1.82,4.87-2.82l-0.16,0.25c-0.81,0.7-1.74,1.43-2.66,2.06
	c-1.16,0.81-2.58,1.7-3.31,2.83c-1.34,2.11-1.25,3.64-1.42,6.03c-0.34,5.23,2.14,9.78-0.12,17.62c-1.18,4.12-3.51,6.5-5.66,8.35
	c-2.12,1.81-10.27,4.33-8.55,10.8c0.67,2.51,1.5,7.31-1.76,8.42c-2.16,0.71-4.49-1.18-6.66-0.34c-1.89,0.76-2.72,3.17-4.51,4.07
	c-2.4,1.21-5.18,0.51-7.35,1.99c-1.1,0.76-1.88,1.93-2.72,2.81c-0.64,0.69-1.27,1.24-2.54,1.06c1.2,1.36,4.22-0.48,5.39-1.09
	c2.35-1.22,3.37-1.88,5.82-1.57c1.8,0.21,3.04-0.76,4.34-1.8l0.06,0.06c3.12,2.68,5.92,5.15,9.11,7.75c2.4,1.94,4.82,3.84,7.26,5.73
	c1.99,1.55,5.69,3.01,3.3,5.57c-2.01,2.17-4.21,4.24-5.97,6.61c-6.27,8.47-9.72,18.92-12.24,29.04c-1.25,5-1.51,6.89-2.33,11.99
	l-0.22-0.04c-14.18-1.04-34.01-5.08-43.33-8.03c-0.14-0.03-0.3-0.14-0.4-0.18c-0.24-0.06-0.43-3.47-1.95-7.58
	c-1.29-3.57-3.54-7.65-7.81-10.58c-1.22-0.84,0.87,3.31,1.47,7.9c0.81,6.19,0.41,13.55,0.41,14.25
	c-0.02,16.14-7.54,46.03-7.38,46.97c0.89,5.11,1.16,9.27,9.65,14.97c12.78,8.54,36.51,32.6,36.92,34.53
	c-0.31-0.23-0.63-0.38-0.94-0.6c-1.07-0.81-2.14-1.59-3.19-2.38c-6.27-4.68-12.1-8.85-17.48-12.52
	c-15.2-10.32-26.99-16.63-35.72-18.95c-3.79-1-7.69-46.78-28.88-62.98c-10.42-7.97-21.98-14.77-26.6-23.79
	c-13.14-25.76-5.02-57.51,28.82-70.82c25.77-10.14,62.56,0.48,77.37,5.52l0.1,0.13c0.31,3.79,1.59,7.81,4.12,11.78l-0.08,0.07
	c-3.99,1.17-7.22-0.99-11.05,3.46c-0.99,1.17-1.93,2.84-2.97,3.97c-0.79,0.87-1.59,1.4-3.06,1.14c-1.99-0.36-3.51-2.05-5.45-2.75
	c-0.65-0.24-1.47-0.31-2.22-0.24c-1.74,0.17-2.86,2.1-4.55,2.05c-1.21-0.03-2.02-1.5-3.53-1.59c-0.86-0.07-1.92,0.1-2.92,0.38
	c-1,0.24-1.95,0.57-2.76,0.4c-0.48-0.09-0.92-0.45-1.23-0.89c0.57,1.46,0.99,2.09,1.88,2.24c1.82,0.31,2.63-0.42,4.24,0
	c0.86,0.23,1.66,0.98,2.52,1.22c2.03,0.56,4.13-1.24,6.17-1.14c2.73,0.14,3.92,1.36,6.18,2.73c1.56,0.96,3.06,1.22,4.41,0.82
	c1.44-0.44,2.72-1.62,3.64-3.02c1.45-2.23,2.34-4.39,4.79-5.67c3.74-1.95,8.32,0.2,11.22-3.46c2.59-3.26,0.91-8.59,3.04-12.14
	c3.7-6.13,8.86-4.48,14.89-5.14c4.08-0.45,8.95-1.32,11.17-5.04c2.09-3.54,1.27-6.91,0.92-8.39c-0.08,1.11-0.32,1.83-0.48,2.8
	c-0.27,1.49-0.59,3.12-1.38,4.21c-0.5,0.69-1.12,1.29-1.95,1.8c-1.63,1.04-3.95,1.33-5.88,1.49c-3.86,0.31-8.05-0.21-11.87,0.61
	c-4.14,0.89-6.62,3.99-7.64,8.02c-0.74,2.91-0.63,7.04-2.5,9.7h-0.15c-0.27-0.43-0.54-0.98-0.78-1.43c-1.21-2.24-1.91-4.5-2.29-6.76
	c-1.31-7.6,1.61-14.88,6.37-19l0.22-0.14c0.19,0.21,0.38,0.4,0.57,0.59c0.34,0.35,1.07,0.4,1.97-0.02
	c6.56-3.03,25.37-23.34,27.16-27.55c0.83-1.96,1.52-4.94,3.34-8.35c1.45-2.68,2.29-6.04,3.62-8.84c0,0,0.19-1.01,0.25-1.19
	c0.11-0.38,0.49,0.11,0.49,0.11c0.15,0.52,0.15,1.04,0.32,1.58c0.25,0.84,0.69,1.69,0.88,2.62c0.22,1.02-0.17,2.33-0.21,3.26
	c-0.13,2.38,1.71,4.29,1.57,6.75c-0.08,1.29-0.5,2.26-0.91,3.32c-1.29,3.42-3.66,6.08-4.39,8.87c1.12-1.49,2.6-2.79,4-3.98
	c2.34-1.98,2.94-4.18,3.13-7.37c0.07-1.37-0.49-2.7-1.06-3.97c-0.48-1.16-0.94-2.31-0.81-3.51c0.24-2.39,0.74-3.99,0.25-6.33
	c-0.36-1.61-0.56-3.04-0.58-4.53c-0.01-2.21,0.42-4.43,1.37-6.69c1.12-2.66,3.13-6.99,2.76-10.43c-0.11-1.11-0.59-3.31-2.44-4.26
	c0.19,0.04,0.53,0.02,0.7,0.07c0.49,0.11,0.83,0.38,1.32,0.63c1.21,0.62,3.21,2.24,3.98,2.94c1.01,0.89,1.44,1.92,1.59,2.97
	c0.19,1.43-0.17,3-0.84,5.17c-0.76,2.54-2.41,3.89-3.64,5.54c-0.62,0.79-1.08,1.69-1.35,2.79c-0.41,1.64-0.25,3.11,0.26,4.69
	c0.46,1.37,1.25,2.67,1.28,4c0.04,1.53-0.65,3.13,0.17,4.59c0.56,1.01,1.41,1.86,1.89,2.9c0.29,0.6,0.53,1.29,0.7,2.04
	c0.15,0.7,0.23,1.47,0.31,2.09c0.18,1.37,0.25,2.32,0.25,2.32s0.16-0.68,0.36-1.36c0.19-0.72,0.46-1.41,0.57-2.05
	c0.13-0.82,0.17-1.76,0-2.55c-0.32-1.64-1.19-2.64-2.05-4.01c-1.04-1.71,0.02-3.01,0.19-4.74c0.23-2.19-1.19-4.11-1.14-6.39
	c0.07-2.58,2.35-3.77,3.6-5.99c2.11-3.76,2.33-8.9,0.46-11.95c-1.84-2.98-5.29-4.4-8.68-5.76c-2.16-0.86-4.36-1.66-5.89-2.96
	c-1.57-1.34-2.29-2.91-2.57-4.55c-0.25-1.51-0.15-3.09,0.46-4.77l0.09-0.54l0.25,0.6c0.46,0.83,1.31,1.32,2.45,1.16
	c1.19-0.17,1.87-1.01,1.66-1.95c-0.17-0.69-0.63-1.41-1.7-1.39c0.79,0.01,0.8,1.26,0.51,1.47c-0.72,0.51-1.34,0.15-1.63-0.36
	c-0.19-0.36-0.2-0.71,0.13-1.13c0.54-0.74,1.8-1.32,2.44-1.84c2.58-2.07,1.07-4.69-0.56-6.89c-0.42-0.57-0.89-1.09-1.26-1.65
	l-0.17-0.31l0.3,0.2c2.87,1.71,6.37,0.61,8.25-0.76c1.62-1.16,2.75-1.64,3.51-1.82c1.01-0.24,1.31,0.15,1.44,0.72
	c0.05,0.14-0.17,0.47-0.21,0.61c-0.17,0.53-0.31,0.74-0.72,1.21c-0.24,0.29-0.56,0.41-0.89,0.64c-3.15,2.09-1.18,4.31,2.36,5.39
	c0.57,0.19,0.89,0.27,1.28,0.71c0.96,1.06,0.64,2.33,0,3.44c-0.42,0.72-1.1,1.33-1.73,1.87c-0.63,0.54-1.57,1.32-2.07,1.99
	c-0.32,0.41-0.7,1.13-0.8,1.63c-0.13,0.51,0,1.18,0.15,1.69c0.19,0.58,0.65,1.02,1.16,1.39c0.84,0.62,1.97,1.2,3.17,1.7
	c1.57,0.64,4.27,1.55,5.73,1.78c1.74,0.27,3.47,0.67,4.89,1.44c2.76,1.48,4.48,3,3.67,7.97c-0.17,0.98-0.59,1.66-0.99,2.41
	c-0.71,1.29-1.33,2.5-0.28,4.12c0.56,0.84,1.73,1.41,2.87,1.96c1.17,0.57,2.32,1.12,2.84,2.24c0.67,1.45,0.87,2.49,0.59,3.36
	c-0.49,1.56-2.43,2.29-4.04,3.39c-1.79,1.21-3.14,2.07-3.6,4.17C621.05,278.41,621.41,280.01,621.78,281.15z M594.65,318.94
	L594.65,318.94l-0.19-0.17c-0.13-0.69-0.12-1.01-0.21-1.67c-0.54-3.79,0.64-6.47,3.12-9.01c0.76-0.79,1.89-1.94,3.06-2.85l0.54-0.4
	C598.47,309.18,596.26,314.09,594.65,318.94z M589.93,352.33L589.93,352.33c4.76,6.7,9.17,13.72,13.22,20.9
	c1.24,2.18,2.42,4.42,3.54,6.67c0.39,0.81,1.09,1.71,1.34,2.59c1.39,4.77-4.42,9.34-6.99,12.68c-3.3,4.28-6.39,8.72-9.35,13.23
	c-5.82,8.94-11.21,18.27-16.1,27.76c-0.48,0.89-1.33,2.1-1.9,3.12c-0.29,0.53-0.34,0.77-0.58,1.23c-1.39,2.82-3.11,11.88-4.67,20.1
	c-0.23,1.27-0.57,2.57-0.85,3.82c-0.69,3.09-1.4,6.06-2.18,9.1c-0.31,1.21-0.61,2.44-0.89,3.65c-0.13,0.46-0.19,0.89-0.29,1.35
	c-0.06,0.28-0.16,0.85-0.21,0.83c-0.15-0.07-0.11-0.36-0.14-0.51c-0.06-0.29-0.11-0.62-0.15-0.92c-0.12-0.62-0.19-1.16-0.3-1.79
	c-0.21-1.35-0.39-2.68-0.57-4.06c-0.36-2.73-0.62-5.46-0.87-8.22c-0.21-1.98-0.42-4.17-0.46-6.16c-0.09-3.49-3.62-5.11-1.89-8.12
	c0.02-0.08,0.07-0.14,0.1-0.2c1.16-1.86,2.58-3.49,3.96-5.17c0.7-0.87,2.73-3.03,3.02-3.29c0.4-0.36,0.54-1.21,0.65-1.7
	c0.55-2.67,1.16-5.35,1.84-8c0.36-1.5,0.65-3.09,1.06-4.57c0.56-1.99,2.43-7.43,2.69-8.21c2.79-7.9,6.16-15.67,10.65-22.75
	c1.12-1.75,2.36-3.42,3.64-5.04c1.19-1.52,2.76-2.94,3.09-4.94c0.66-3.9-3.91-6.42-6.34-8.62c-4.2-3.81-8.34-7.61-12.43-11.52
	c-1.02-0.95-1.38-1.29-1.38-1.29c1.46-1.17,2.6-2.05,4.78-1.61c2.35,0.48,4.39,0.49,5.73-0.42c1.26-0.87,1.93-2.58,1.48-5.08
	c-0.86-4.81-1.25-7.72,2.66-10.95l0.14,0.04C586.75,348.36,588.46,350.23,589.93,352.33z M473.66,443.88L473.66,443.88
	c-10.23,9.03-19.64,7.52-38.87,6.03c-5.35-0.42-6.83,6.05-7.4,6.94c-0.24,0.4-0.8,13.69-1.61,23.4c-0.34,4-1.46,8.6-2.79,12.99
	c-0.13,0.39-0.31,0.76-0.42,1.15c0.15-1.11,0.23-2.24,0.31-3.37c1.27-14.73-2.39-31.08-4.24-37.48c-1.26-4.4,1.46-9.02,3.16-9.35
	c3.38,0.27,17.78-11.57,26.81-22.57l0.13-0.02c8.37,6.9,18.08,12.47,25.13,22.11L473.66,443.88z M487.86,324.7L487.86,324.7
	c1.17-0.2,2.49,0.11,3.32,0.77c0,0-0.4,0.06-1.02,0.08c-1.54,0.06-4.12,0.16-4.12,0.16l-0.44-0.04
	C486.17,325.25,487.01,324.83,487.86,324.7z M498.49,325.36L498.49,325.36l0.92-0.37c2.98-1.57,3.89-5.24,5.2-8.77
	c1.9-5.19,12.48-2.37,17.48-2.17c7.04,0.3,9.22,0.89,14.97-3.66c5.5-4.35,3.68-13.44,5.49-19.82c0,0,0.11-0.38,0.25-0.78
	c0.12-0.27,0.27-0.59,0.27-0.59c1.44-2.23,2.71-4.47,3.89-6.73l0.15-0.18l0.02,0.34c0.04,2.57,0.96,4.8,1.5,5.54
	c2.9,3.87,4.07,8.37,3.66,12.9c-0.83,8.97-7.72,17.32-19.87,17.07c-2.92-0.06-6.22-0.73-9.73-1.88c-3.76-1.23-8.91-2.87-12.81-1.3
	c-4.53,1.83-3.76,7.93-7.39,10.55l-0.17,0.06c-1.25-0.08-2.51-0.04-3.77-0.08C498.08,325.47,498.49,325.36,498.49,325.36z
	 M550.24,276.31L550.24,276.31c0.45-1.64,0.63-1.82,1.17-3.22c0.51-1.26,1.18-2.48,1.78-3.67l0.17-0.16l0.08,0.38
	c-1.02,5.57-1.39,12.91-1.34,19.73c0.01,0.24-0.04,0.49-0.04,0.75l-0.08,0.33c-0.31-0.64-0.77-1.63-1.12-2.26
	C549.99,286.7,548.54,282.62,550.24,276.31z M526.88,329.21L526.88,329.21h-0.14c-6.13-1.39-13.06-2.54-20.28-3.23v-0.12
	c1.49-2.29,0.96-5.62,3.38-7.92c3.59-3.43,9.14-1.53,12.95,0.42c6.45,3.3,13.22,3.15,18.78,0.8c2.16-0.91,4.12-2.29,5.84-3.8
	l-0.02,0.32c-0.22,1.03-0.39,1.75-0.86,2.49c-0.52,0.81-1.39,1.59-3.2,2.01c-1.63,0.38-3.77,0.71-5.11,1.81
	c-0.95,0.78-1.35,1.84-1.78,2.83c-0.24,0.56-0.46,1.14-1,1.55c-1.35,1.03-3.12,0.83-4.67,1.06
	C528.89,327.73,528.13,328.24,526.88,329.21z M555.87,315.99L555.87,315.99c0.04,0.07-0.16,0.26-0.16,0.26
	c-8.16,8.23-8,19.24-8,19.24c-3.19-1.25-8.04-2.9-14.05-4.53c-2.09-0.56-4.39-1.14-6.72-1.69l0.07-0.09c1.11-0.47,2.56-0.44,3.7-0.2
	c1.34,0.27,3.12,0.74,4.56,0.94c1.24,0.15,2.14,0.22,3.1-0.84c0.29-0.32,0.86-1.1,1.05-1.46c2.28-3.97,3.44-4.23,7.34-6.4
	c2.03-1.14,3.16-3.06,3.61-5.23c0.15-0.81,0.35-2.88,0.61-4.22l0.1-0.74c0.82-1.31,1.59-2.88,2.11-4.36l0.17-0.15
	C553.93,309.97,554.74,313.25,555.87,315.99z M588.24,250.66L588.24,250.66c-0.39,0.82-0.65,1.72-0.84,2.55
	c-0.04,0.17-0.15,0.26-0.17,0.42c0.02-0.45,0.02-1.06,0.09-1.56c0.23-2.23,0.76-4.81,1.11-6.9c0.04-0.24,0.08-0.48,0.12-0.72
	c0.54-0.66,1.06-1.46,1.47-2.26l0.1-0.16c0.14,1.49,0.53,3.13,1.36,4.47l0.09,0.24C590.21,247.71,589.03,249.11,588.24,250.66z
	 M587.95,217.89L587.95,217.89c-0.63-0.59-1.32-1.26-2.18-1.77c-0.19-0.12-0.13-0.22-0.13-0.22c0.23-0.29,0.65-0.6,0.97-0.76
	c0.59-0.32,1.33-0.32,1.86-0.18c0.62,0.18,1.03,0.58,1.2,1.44c0.64,3.23,1.45,5.01,2.19,6.65c0.71,1.52,1.46,2.93,2.24,4.15
	c0.88,1.4,2.07,3.32,0.83,4.59c-0.78,0.78-2.07,0.91-2.49,2.02c-0.08,0.2-0.17,0.4-0.17,0.4l-0.02-0.24
	c0.11-3.41,0.67-8.2-1.54-12.51C590.05,220.21,589.15,219.04,587.95,217.89z M584.67,215.64L584.67,215.64l-0.19,0.01
	c0,0-1.57,0.15-2.81,0.27l0.02-0.1c0.17-0.2,0.43-0.47,0.62-0.66c1.16-1.27,2.57-2.57,4.21-3.13c0.53-0.19,1.04-0.23,1.63-0.25
	l0.1,0.01c0,0,0.14,0.03-0.08,0.09c-0.33,0.11-0.79,0.3-1.12,0.48c-1.27,0.75-1.78,1.91-2.32,3.19L584.67,215.64z M594.75,219.82
	L594.75,219.82c3.14,0.77,7.15-1.25,9.73-1.72c1.97-0.36,3.39,0.69,3.81,2.06c0,0,0.15,0.44,0,0.24c-0.92-0.46-2.9-0.18-5.37,1.06
	c-2.39,1.19-5.53,0.86-8.35-1.45L594.75,219.82z M570.51,243.02L570.51,243.02l0.18,0.11c0.89,4.56,1.89,10.49,1.92,12.22
	c-2.48-1.07-5.38-1.55-7.82-1.08l-0.15-0.1C567.62,250.45,569.99,246.42,570.51,243.02z M566.09,295.63L566.09,295.63l-0.59,2.16
	c-0.01,0.08-0.31,0.46-0.32,0.53c-0.05-2.61-0.02-5.59,0.07-8.21C566.13,291.63,566.46,293.86,566.09,295.63z M732,284.87
	c-0.51-1.29-5.49,1.01-10.6,3.52c-1.55-2-3.24-4.07-4.08-4.99c-0.11-0.11-0.25-0.26-0.34-0.37c4.35-2.61,8.21-5.12,8.1-5.83
	c-0.12-0.71-0.87-1.15-2.12-1.49c-3.06-0.85-8.92-0.78-14.87-0.01c-9.06-5.77-18.83-9.07-28.63-10.37
	c-19.35-2.57-39.02,2.9-54.97,14.17c-0.31,0.21-0.28-0.15-0.28-0.15c0.04-1.44,0.28-2.59,1.81-3.74c2.17-1.62,5.44-2.99,6.23-6.04
	c0.83-3.06-0.39-4.63-2.81-6.53c-2.36-1.86-5.33-2.5-3.87-6.43c0.73-2.01,2.01-3.86,1.43-6.48c-0.39-1.76-1.48-3.58-3.01-4.56
	c-1.64-1.06-3.72-1.35-5.62-1.53c-2.11-0.18-4.19-0.16-6.29-0.42c-0.99-0.11-2.17-0.32-3.13-0.63c-0.47-0.16-1.44-0.4-2.07-1.65
	c-0.25-0.48-0.37-0.8-0.29-1.16c0.27-1.03,1.68-1.24,2.57-1.92c0.91-0.69,2.05-1.77,2.57-2.79c0.39-0.77,0.56-1.55,0.64-2.37
	c0.07-0.8,0.04-1.65-0.25-2.42c-0.46-1.14-1.39-2.22-2.65-2.75c-1.2-0.54-1.2-1.29-0.47-2.1c0.8-0.89,1.33-2.49,1.26-4.01
	c-0.13-2.67-1.88-5.34-5.9-5.2c-1.81,0.07-2.91,0.71-4.02,1.2c-0.91,0.42-1.78,0.75-3.45,0.56c-1.08-0.11-1.74-0.25-2.4-0.79
	c-0.58-0.47-1.19-1.23-1.53-2.54c-0.19-0.71-0.41-1.43-0.83-1.9l-0.21-0.37c0.91,0.28,1.93,0.58,2.91,0.51
	c1.35-0.04,3.03-0.58,3.93-1.68c0.48-0.61,0.56-1.77,0.97-2.35c0.18-0.25,0.33-0.39,0.81-0.38c0.57,0.02,0.83,0.42,1,0.92
	c0.17,0.53,0.24,1.19,0.08,1.73c-0.13,0.47-0.66,0.8-0.99,1.18c-0.37,0.44-0.51,0.92,0.09,1.65c0.77,0.96,2.63,0.51,2.33-0.71
	c-0.97-0.12-0.21-2.34-0.02-4.14c0.06-0.54-0.04-1.12-0.22-1.52c-0.21-0.48-0.5-0.73-0.48-0.7c-0.36-0.36-0.91-0.6-1.43-0.71
	c-0.93-0.17-2.11,0.23-2.67,0.96c-0.32,0.4-0.4,0.84-0.51,1.33c-0.15,0.62-0.33,1.29-0.48,1.79c-0.16,0.42-0.29,0.72-0.78,0.94
	c-0.41,0.17-0.8,0.18-1.57,0.1c-1.37-0.14-2.65-0.52-4.15-0.8c-2.56-0.47-5.36-0.72-7.41,0.67c-0.27,0.17-0.31,0.14-0.31,0.14
	l0.19-0.34c0.85-1.08,1.87-2.15,3.06-2.83c1.78-0.99,4.8-1.81,6.54-0.58c0.71,0.51,1.06,1.71,1.73,2.53c0.47,0.6,1,0.8,1.33,0.84
	c0.6,0.09,0.87-0.36,0.91-0.39c0.74-1.43-2.98-4.53-3.94-5.04c-2.37-1.29-5.81-1.71-8.21-0.36c-0.79,0.44-1.74,1.18-2.43,2.04
	c-0.21,0.3-0.22,0.38-0.22,0.38c0-0.24,0.06-0.71-0.08-1.34c-0.12-0.72-0.52-1.67-1.57-3.11c-1.03-1.38-2.34-2.2-3.79-2.37
	c-1.23-0.14-2.57,0.24-3.81,0.94c-2.77,1.56-6.04-0.64-8.69,0.86c-1.83,1.02-3.47,3.6-4.77,5.17c-1.79,2.16-3.3,2.77-6.1,2.05
	c-1.71-0.44-3.53,0.34-4.67,1.66c-0.8,0.92-1.18,2.1-1.39,3.21c-0.39,2.15-0.57,5.45-2.64,6.83c1.36,0.41,2.33,0.16,3.01-0.51
	c0.78-0.78,1.18-2.08,1.52-3.09c1.07-2.98,2.67-4.15,5.86-4.94c3.12-0.76,4.55-2.53,6.25-5.06c0.94-1.39,2.38-2.5,3.78-3.36
	c0.86-0.54,1.84-0.96,2.86-0.46c0.79,0.39,1.36,1.6,2.24,1.75c2.72,0.41,4.22-3.25,6.92-2.1c1.08,0.46,1.66,1.65,1.97,2.63
	c0.44,1.33,0.48,2.59,0.97,3.87l0.02,0.15l-0.09,0.03c-0.78,0.25-1.21,0.96-1.73,1.7c-0.21,0.31-0.66,0.73-1.04,1.11
	c-0.34,0.37-0.59,0.7-0.8,0.92c-0.93,0.96-2.1,1.51-3.21,2.02c-1.06,0.49-2.09,0.94-3.26,1.46c-2.56,1.09-4.56,2.11-7.22,3.14
	c-1.42,0.54-2.74,1.13-4.24,1.63c-1.56,0.54-3.3,1-4.78,1.61c-5.08,2.06-10.57,3.78-15.7,5.8c-3.74,1.46-7.25,2.94-10.71,4.98
	c-3.54,2.07-8,4.95-10.04,8.62c-0.99,1.77-1.43,3.51-1.54,5.23c-0.16,2.2,0.21,4.42,0.4,6.87c0.24,2.98,0.4,4.91-1.35,7.3
	c-1.71,2.33-1.99,2.93-1.99,5.92c0.11-1.02,1.18-1.54,2.16-1.82c0.88-0.25,1.64-0.3,2.25-0.61c0.95-0.49,1.31-1.23,1.49-2.06
	c0.19-0.96,0.11-2.06,0.11-3.23c-0.04-2.65-0.56-5.56-0.62-8.3c-0.04-2.72,0.35-5.27,2.08-7.55c1.67-2.22,3.62-4.21,5.73-6.02
	c2.12-1.8,4.82-3.41,7.54-4.52c7.32-3.03,14.32-5.67,21.52-9.08c1.44-0.69,2.81-1.66,4.34-2.12c1.77-0.53,3.44-1.33,5.19-1.86
	c2.12-0.64,4.27-1.28,6.34-2.05l0.03,0.2c-2.44,1.9-7.02,2.72-9.72,3.97c-1.18,0.55-2.18,0.97-3.29,1.55
	c-1.31,0.69-2.71,1.51-3.96,2.21c-2.36,1.32-4.85,2.59-7.28,4.21c-4.05,2.71-7.85,5.67-11.14,9.29c-0.8,0.88-1.73,2.49-2.57,4.17
	c-1.04,2.03-2,4.09-2,4.09l0.7-0.64c0.46-0.67,1.1-1.1,1.63-1.66c0.72-0.8,1.34-1.65,2.07-2.48c2.99-3.3,6.43-6.16,9.96-8.69
	c5.12-3.68,10.72-6.5,16.06-9.06c3.31-1.58,6.26-2.83,9.33-4.16c0.04,0.59-0.14,1.35-0.29,2.04c-0.39,1.84-1.89,4.38-3.58,6.63
	c-3.3,4.47-8.58,8.81-16.53,11.46c-7.72,2.58-15.82,8.53-20.76,15.22c-2.44,3.27-4.13,6.7-4.72,10.02
	c-0.53,2.98-1.84,5.99-4.02,8.13c-1.07,1.04-2.4,1.92-3.93,2.11c-2.8,0.34-5.71-2.13-8.93-1.8c-3.27,0.33-5.62,2.09-6.56,5.32
	c-0.22,0.76-0.22,1.72-0.26,2.42c-0.06,1.77,0.02,3.24-1.51,4.81c-1.57,1.57-3.65,1.62-3.98,4.4c0.66-1.25,1.63-1.7,2.69-2.12
	c1.36-0.56,2.9-0.99,3.99-2.13c0.59-0.62,1.24-1.62,1.43-2.93c0.44-2.79,0.84-5.63,3.67-6.82c3.68-1.55,6.57,2.05,10.15,1.06
	c4.85-1.34,7.26-6.84,8.55-11.28c3.72-12.86,13.08-17.32,26.63-23.1c7.22-3.08,13.29-7.85,17.21-12.94
	c2.35-3.02,3.91-6.13,4.44-9.09c0.33-1.83,0.3-3.66-0.26-5.28c0,0-0.09-0.13,0.08-0.2c0.26-0.12,0.62-0.23,0.88-0.34
	c1.49-0.69,2.75-1.34,4.02-2.39c0.53-0.44,1.36-1.02,2.09-1.25l0.14-0.02c-0.05,0.37,0,0.82,0.19,1.14l0.06,0.1
	c-0.69,0.04-1.06,0.09-1.06,0.09c0.74,0.2,1.33,0.65,1.94,0.89c1.48,0.58,2.64,1.37,3.56,2.1c1.44,1.15,2.31,2.34,2.94,3.94
	c0.03,0.13-0.04,0.15-0.04,0.15c-0.86,0.33-2.42,1.52-3.24,2.45c-0.42,0.51-0.47,0.86-0.52,1.13c-0.16,1.14,0.14,2.5,0.57,3.35
	c0.72,1.41,1.04,1.24,2.01,2.83c-0.03-1.05-0.55-2.07-0.64-2.51c-0.24-1.08-0.27-1.11-0.3-1.76c-0.06-1.44,0.73-1.51,1.38-2
	c0.46-0.34,0.86-0.91,0.74-2.16c0,0,0.25-0.47,0.27-0.85l0.21,0.77c0.86,2.93,0.72,6.14,0.91,9.38c0.11,1.79-0.57,4.33-1.5,6.6
	c-0.59,1.39-1.47,2.87-2.36,3.81c-0.21,0.23-2.52,2.11-2.73,2.09c0.52,0.05,1.01,0.39,2.31,0.32c-0.32,2.34-0.39,4.31-0.15,6.01
	c0.23,1.7,0.72,3.12,2.28,4.39c-0.44-0.37-0.46-0.96-0.48-1.49c-0.06-0.91,0.15-1.87,0.7-2.81c0.55-0.92,1.26-1.66,1.73-2.1
	c0.86-0.78,1.76-1.41,2.95-1.93l0.22,0.07c1.18,1.04,2.92,1.76,4.42,2.64c1.49,0.86,2.77,1.83,3.22,3.48
	c0.33,1.24,0.09,2.57-0.13,3.72c-0.58,3.15-2.59,5.93-3.75,9.01c-0.63,1.72-0.77,3.72-0.91,5.54c-0.04,0.5,0.04,1.02,0.08,1.44
	l-0.32,0.01c-1.47,0.11-4.98,1.59-6.04,2.06c-1.52,0.65-5.65,4.04-5.88,4.47c-0.74,1.4-1.39,3.36-1.67,4.99
	c-0.66,3.85-0.41,4.95-2.5,7.02c-0.92,0.91-8.91,6.14-12.76,8.15c0.44-1.04,0.55-1.72,0.84-2.62l0.77-2.51
	c0.62-3.03,0.14-6.28-1.44-8.41c-0.66-0.9-0.78-2.36-0.98-3.4c0.15-1.18,0.34-2.27,0.39-3.41c0.11-2.07-1.21-3.56-1.21-5.44
	c0,1.26-1.28,2.73-1.33,4.11c-0.01,0.53-0.25,1.36-0.38,2.62c-0.25,2.35-0.46,5.52-0.68,9.35c-0.24,4.52-0.19,9.4,0.53,12.85
	c0.17,0.76,0.41,1.26,0.66,1.86c0.55,1.44,13.22-8.88,16.43-11.52c1.47-1.21,2.38-2.57,2.94-3.97c0.54-1.41,0.71-2.85,1-4.37
	c0.21-1.09,0.34-1.93,0.78-3.1c0.47-1.32,4.32-4.84,5.63-5.75c1.49-1.07,3.42-1.59,4.6-2.09l-0.47,0.79
	c-1.7,2.36-4.39,7.71-5.79,10.76c-1.27,2.81-0.44,4.82-2.49,7.48c-2.09,2.68-6.46,6.87-10.92,10.98c-3.89,3.58-7.98,6.99-10.82,9.23
	c-2.22,1.76-3.62,2.84-3.89,2.58c-4.71-4.89-6.43-19.68-6.43-30.52c-0.01-7.96,0.55-16.15,2.11-20.78c0.92-2.77,2.19-4.93,3.66-6.5
	c1.33-1.38,2.71-2.2,4.48-2.67c0.87-0.24,2.19-0.33,3.27-0.32c4.52,0.03,10.47,3.54,11.02,4.77c-1.1-2.46-2.29-3.79-4.7-5.21
	c0.32-2.46-0.3-11.11-1.69-16.74c0,0-0.29,0.41-1.51,0.19c-1.25-0.23-1.37-1.11-1.37-1.11l-0.08-0.03c0.02,0.86-0.54,1.29-0.78,1.57
	c-2.73,3.11-6.87,3.64-10.25,5.24c-5.22,2.44-10.32,5.2-15.1,8.4c-4.06,2.71-7.99,5.73-11.29,9.36c-1.74,1.95-3.8,7.6-5.62,8.8
	l1.57-1.03c9.9-13.94,26-20.59,38.92-26.14c-0.86,1.97-2.2,3.94-3.72,5.86c-2.1,2.65-4.59,5.24-7.54,7.99
	c-3.39,3.17-6.32,5.16-8.97,6.27c-5.58,2.35-11.64,5.96-16.39,10.27c-4.76,4.32-8.32,9.29-9.23,14.37
	c-0.67,3.72-2.13,7.36-5.74,9.46c-1.12,0.65-1.94,1.02-3.24,0.99c-1.85-0.02-4.74-1.02-4.83-1.03c-1.64-0.29-3.01-0.26-3.84,0.76
	c0.28-0.33,2.01-0.13,3.39,0.46c1.16,0.51,2.12,1.17,3.13,1.6c0.67,0.28,1.69,0.4,2.62,0.35c1.28-0.06,2.44-0.39,2.71-0.53
	c3.87-2.04,6.11-6.45,7.28-10.48c1.56-5.38,4.19-9.29,7.61-12.47c4.78-4.44,11.14-7.22,19-10.63c1.08-0.47,2.19-1.14,3.72-2.28
	l-0.32,0.84c-0.69,1.42-1.46,3.19-2.26,4.82c-1.32,2.71-2.76,5.42-4.41,8.53c-2.02,3.77-4.48,7.75-7.17,11.46
	c-3.51,4.9-7.82,9.46-13.05,13.1c-1.04,0.71-2.17,1.2-3.24,1.6c-1.67,0.62-3.39,0.92-5.32,0.82c-1.34-0.09-2.59-0.24-3.84-0.74
	c-0.76-0.29-1.41-0.74-2.05-1.19c-0.4-0.28-1.97-1.44-3.27-1.84c-1.48-0.46-3.31-0.58-3.31-0.58c-2.98-0.04-4.78,0.49-6.16,1.32
	c-3.94,2.33-3.3,6.89-7.32,7.59c-2.97,0.51-4.55,2.6-6.01,4.17c-1.08,1.13-1.78,1.84-3.01,2.02l-0.63,0.03
	c1.13,0.68,2.15,0.74,2.98,0.64c0.89-0.1,1.69-0.44,2.56-0.94c0.98-0.59,2.04-1.39,3.21-1.95c1.8-0.84,3.41,0.12,4.66-1.34
	c0.46-0.53,1.01-1.36,1.37-2.64c0.73-2.64,2.37-4.8,4.82-5.97c2.1-1,4.47-0.8,6.67-0.1c0.15,0.03,0.82,0.25,1.46,0.62
	c0.66,0.4,1.04,1.07,1.64,1.49c1.25,0.87,3.09,1.7,4.54,2.1c3.17,0.89,6.48,0.49,9.35-1.16c0.55-0.31,1.14-0.7,1.64-1.06
	c4.29-3.33,7.41-6.44,10.26-9.7l0.46-0.36c-0.61,3.46-1.26,8.68-3.11,10.94c-4.47,5.5-6.51,4.41-13.14,4.21
	c-4.27-0.12-14.68-3.15-17.38,0.4c-3.17,4.14-2.09,9.56-8.09,10.5c-2.57,0.4-5.77-1.25-8.44-0.52c-1.26,0.33-2.35,1.3-3.29,3.04
	l-0.19,0.26c-6.59,0.63-12.92,1.9-19.12,4.12c-6.34,2.26-11.73,5.13-16.44,8.61c0,0-0.19,0.09-0.26,0.09
	c-0.06,0.01-0.23,0.04-0.23,0.04c-0.92-0.19-1.91-0.42-2.29-0.34c-1.23-0.02-2.5,0-3.7-0.01c-20.05-1.17-26.27-7.7-41.4-0.51
	c-0.42,0.2-0.91,0.48-1.3,0.7c-7.26,3.89-9.63,9-11.37,14.23c-1.81,5.42-2.94,10.95-7.87,15.14c-5.46,4.63-13.68,8.02-20.98,11.28
	c-4.38,1.96-8.48,3.96-11.26,6.17c-4.69,3.72-6.41,9.26-6.95,11.74c-1.34,6.12-0.46,14.2,4.15,21.71c3.59,5.87-2.05,8.86-1.1,15
	c1.27-4.43,4.2-6.59,5.02-10.6c0.7-3.34-0.56-6.62-2.47-9.53c-2.3-3.54-3.54-11.1-2.84-15.32c0.92-5.52,7.21-9.07,12.73-11.22
	c14.7-5.78,29.27-15.08,32.86-29.61c3.04-12.42,11.12-17.8,20.27-19.64c7.3-1.47,15.28-0.65,21.92,0.51
	c-10.01,0.41-18.96,2.12-27.17,7.44c-8.71,5.64-11.8,18.65-15.11,22.3c-17.42,19.17-39.52,20.61-38.32,56.37
	c0.07,1.84-2.6,7.17-3.54,9.8c-0.87,2.49-1.87,5.06-1.71,7.71c0.06,0.89,0.29,2.9,2.07,4.75c0.36,0.36,0.77,0.7,1.26,1.03
	c-0.87-1.55-1.52-3.55-1.52-5.3c0-2.34,0.66-3.26,1.45-5.41c1.03-2.85,2.34-5.8,3.19-8.71c1.35-4.7,2.02-9.58,2.44-14.45
	c1.84-21.28,15.94-26.86,34.69-38.52c4.71-2.94,6.6-7.02,7.92-10.98c0.72-2.17,1.34-4.44,1.54-6.68c0.27-2.67,0.84-5.46,2.87-7.6
	c0.47-0.49,3.75-2.99,4.31-3.4c5.46-3.81,12.4-4.92,19.09-6.18c5.46-1.02,10.06-0.68,15.07-0.48c0.23,0.04,0.71,0.11,0.99,0.17
	c0.23,0.06,0.25,0.15,0.45,0.18c-7.72,0.49-16.21,1.77-24.38,5.13c-1.25,0.52-2.86,1.13-3.98,1.81c-1.09,0.64-2.03,1.26-3.13,1.91
	c-5.32,3.1-7.45,8.04-8.25,13.26c-0.98,6.4-2.53,12.64-8.93,15.63c-42.29,19.79-31.31,35.46-37.2,48.64
	c-3.42,7.67-6.22,13.95-4,22.11c0.71,2.63,3.58,7.29,9.27,11.54c4.07,3.02,9.54,5.86,16.8,7.5c1.79,0.42,3.81,0.55,5.83,0.81
	c-3.37-1.63-8.23-3.58-12.97-5.69c-6.45-2.83-12.72-6.83-15.46-13.02c-1.35-3.09-1.91-6.46-1.05-11.03
	c1.29-6.98,7.27-18.78,8.07-27.49c0.26-2.87,2.14-5.38,4.15-8.19c2.94-3.8,7.04-6.88,11.21-9.31c6.86-3.97,14.25-6.76,19.45-12.28
	c5.29-4.85,8.19-10.98,9.35-17.46c0.52-2.9,1.35-10.88,8.24-15.02c3.6-2.18,8.13-3.67,12.37-4.62c3.7-0.84,7.98-1.27,12.21-1.79
	c-0.31,0.06-0.46,0.16-0.82,0.29c-0.65,0.19-1.48,0.46-1.84,0.55c-1.54,0.4-3.11,0.84-4.6,1.35c-3.04,1.04-5.98,2.26-8.88,3.57
	c-6.02,2.72-11.23,6.81-11.99,11.4c-2.77,16.79-12.53,25.06-23.16,33.3c-5.78,4.5-11.89,8.94-17.1,14.86
	c-1.76,2.12-3.12,4.25-3.86,6.48c-0.79,2.26-1.11,4.46-3.01,7.53c-6.86,11.12-8.05,28.26,1.95,35.88c2.31,1.76,5.69,3.2,9.26,3.75
	c1.48,0.24,3.2,0.38,4.78,0.31c1.21-0.06,2.22-0.26,3.7-0.44c-1.9-0.26-4.13-1.14-5.92-1.76c-3.39-1.23-6.16-2.66-8.85-4.69
	c-3.6-2.71-6.16-5.77-7.46-9.59c-0.64-1.92-1.12-4.15-0.94-6.35c1.62-7.83,6.94-14.97,9.71-21.1c2.79-6.11,3.68-9.48,8.2-12.61
	c1.92-1.31,3.84-2.91,5.66-4.23c3.02-2.2,5.85-4.11,8.57-6.19c11.05-8.41,19.15-16.71,19.34-29.25c0.1-6.89,5.62-12.47,10.2-14.81
	c5.08-2.61,9.8-4.34,15.27-5.8c-0.27,0.13-0.97,0.55-2.01,1.09c-3.32,1.77-9.87,5.42-15.25,9.4c-3.46,2.57-7.19,11.31-7.53,17.59
	c-0.91,15.65-8.79,22.93-21.37,31.09c-3.03,1.97-6.32,4.02-9.86,6.23c-8.88,5.56-14.36,17.64-15.28,26.66
	c-0.53,5.08,0.33,10.47,4.76,14.19c2.36,2,5.3,3.01,8.42,3.82c5.44,1.4,6.79,1.81,10.04,6.01c2.91,3.75,4.75,4.55,9.75,6.31
	c-4.42-4.26-3.96-9.63-8.09-13.54c-3.35-3.19-9.01-2.55-12.94-4.87c-3.96-2.35-5.4-6.29-5.9-10.19c-0.48-3.68-0.16-7.38,1.01-10.9
	c2.03-6.11,6.34-11.73,11.76-16.02c0.94-0.81,2.67-1.22,3.84-1.71c7.35-3.03,14.22-6.94,19.25-12.5c3.46-3.83,5.9-8.27,7.2-12.97
	c0.79-2.85,1.19-5.77,1.24-8.69c0.08-3.59,0.33-6.55,1.25-10.23c1.93-7.71,8.15-11.69,11.83-14.33c2.5-1.8,5.42-2.96,8.45-3.92
	c0.19-0.05,0.47-0.14,0.76-0.22l0.16,0.16c-13.35,16.68-13.98,39.93-0.77,61.5c1.81,2.96,3.96,5.5,6.34,7.87l-0.06,0.17
	c-0.79,1.72-1.7,3.98-2.87,5.54c-8.1,10.81-19.51,17.33-20.65,17.15c-2.26,0.42-4.72,1.82-6.16,3.85c-1.87,2.67-1.99,6.12-0.82,8.92
	c3.37,8.14,5.26,25.69,4.98,33.06c-0.29,7.58,0.55,14.18-2.31,21.21c-3.41,8.34-18.58,7.98-19.76,8.25l7.93,16.91
	c1.27-0.91,8.91-6.37,10.17-9.25c3.05-6.9,3.23-6.82,5.19-12.05c1.28-3.36,7.47-18.35,8.44-23.45c1.55-7.93,2.11-15.75,2.06-17.1
	c-0.01-0.14,0.47-7.06,0.97-7.86c0.75-1.17,1.96-2.63,3.22-3.2c1.64-0.75,8.86-1.34,10.98-1.18c1.31,0.11,19.11,1.55,28.59-6.82
	c0,0,1.58-1.47,2.64-3.2c0,0,0.06-0.06,0.11-0.08c0.06-0.01,0.08,0.01,0.08,0.01c3.21,5.6,5.33,12.15,6.17,20.92
	c0.75,7.75,1.47,13.04,1.59,16.64c0.24,6.66,4.79,8.69,8.48,9.28c10.7,1.74,65.2,30.22,69.12,45.93c0.34,1.27-0.15,3.3-0.78,4.47
	l18.74,0.07c0.05-1.65-4.16-7.58-6.01-10.48c-4.49-6.97-36.59-30.84-39.57-33.65c-19.15-18.05-20.53-31.55-20.45-33.81
	c0.01-0.48,0.89-6.71,2.02-13.99c1.52-10.03,3.44-22.05,3.71-23.91c0.04-0.21,0.04-0.28,0.02-0.21c0.3,0.11,0-2.93-0.14-5.44
	c-0.09-1.77-0.1-3.41,0.14-3.31c0.13,0.04,0.47,1.08,0.84,2.5c0.74,2.82,1.69,7.09,1.96,7.16c10.46,3.58,34.64,7.12,43.66,7.57
	c0,0-0.32,1.55-0.74,2.65c-0.77,1.94-6.88,5.23-9.35,7.81c-0.56,0.59-0.71,1.23-0.83,1.71c-0.72,3.51,3.41,7.88,4.22,11.3
	c0.54,2.22,2.25,12.93,2.54,15.21c0.08,0.7,0.47,1.37,0.74,2.01c0.21,0.42,0.47,0.84,0.66,1.25c0.08,0.19,0.16,0.44,0.27,0.59
	c0.09,0.15,0.28,0.13,0.34,0.11c0.43-0.09,0.42-0.72,0.47-0.89c0.13-0.46,0.33-0.99,0.47-1.43c0.34-1.1,0.59-1.89,0.96-2.97
	c0.8-2.42,1.76-5.04,2.6-7.44c0.54-1.55,1.08-3.02,1.57-4.57c0.97-2.98,2.79-17.44,3.17-18.34c0.87-2,1.94-4.02,2.99-5.94l0.18-0.24
	c4.77,0.16,19.46,0.58,27.74-0.05c0.48,1.14,2.62,3.61,5.19,6.33c4.06,4.3,9.35,9.35,11.93,11.38c4.12,3.23,17.82,16.18,24.91,20.63
	c1.78,1.14,4.24,2.75,5.58,4.78c0.71,1.07,1.1,2.17,0.96,3.46c-0.1,1.22-0.53,2.57-1.06,3.74c-0.97,2.05-2.47,3.89-3.51,5.71
	c-3.06,5.3-6.05,13.01-10.62,17.19c-1.14,1.01-15.58,2.64-15.63,2.84c-0.44,2.14,0.78,16.83,0.36,18.33c0,0,5.39-3.15,10.2-6.06
	c3.17-1.91,6.03-3.69,6.91-4.55c4.44-4.21,7.41-10.29,12.28-15.39c3.42-3.6,16.78-18.93,16.48-24.26c-0.04-0.8-0.3-1.6-0.56-2.33
	c-1.02-2.9-3.34-5.23-4.59-7.63c-1.74-3.32-6.31-13.33-11.1-22.16c-1.17-2.15-2.36-4.32-3.52-6.22c-0.24-0.38,3.26-4.29,4.02-6.21
	c0.86-2.25,0.79-5.37,0.43-7.82c-0.33-2.37-0.83-4.21-0.89-4.29c-0.34-0.47-2.24,5.35-5.39,9.73c-3.04,4.27-7.26,6.98-6.45,8.07
	c3.34,4.5,6.4,9.19,9.35,13.96c4.49,7.2,8.71,14.57,12.86,21.99c2.21,3.94-6.85,17.07-12.45,23.69c-1.98,2.36-3.61,3.84-4.07,3.84
	c0.58-1.33,1.71-4.01,3.05-6.87c1.95-4.15,4.17-8.61,4.94-10.03c1.13-2.12,3.04-4.22,2.76-6.76c-0.31-3.03-2.71-5.32-5.01-7.01
	c-2.17-1.59-15.37-14.02-20.18-18.29c-4.78-4.2-14.57-15.03-20.54-21.74c-2.99-3.32-4.96-5.7-4.96-5.7
	c-7.75,2.54-22.88,2.56-26.77,2.51l0.03-0.11c3.62-5.77,7.79-11.38,11.66-16.81c1.85-2.59,3.79-5.29,5.69-7.86
	c2.87-3.94,5.81-7.8,8.76-11.69c1.79-2.37,3.69-4.67,5.44-7.07c0.96-1.36,1.41-2.83,1.52-4.19c0.27-3.22-1.44-6.32-3.21-9.35
	c-2.4-4.11-4.89-8.05-7.51-12.05c-4.45-6.83-9.2-13.69-14.03-20.28l0.14-0.12c0.43-0.25,0.81-0.53,1.18-0.73
	c0.41-0.25,0.79-0.44,1.12-0.63l0.23-0.06c0.42,0.08,0.81,0.06,0.81,0.1c0.02,2.6,0.06,1.51,0.34,4.19
	c0.25,0.44,3.01,4.11,3.01,3.98c0-1.64,0.07-3.18,0.17-4.79c0.41-7.22,1.68-14.2,3.93-20.81c3.53-10.45,9.26-19.93,16.29-27.82
	c14.95-16.8,36.37-26.56,58.09-24.21c6.69,0.71,13.23,2.66,19.82,5.86c7.44,3.61,13.06,8.61,17.33,14.18
	c-0.32-0.38,0.92,10.21,0.6,9.85c1.13,4.11,0.38,3.51-0.06,8.07c-0.19,1.77-2.64,2.82-4.48,9.33c-0.91,3.17-1.48,15.66-1.78,26.98
	c-0.27,9.89-0.34,18.91-0.12,19.92c0.76,3.29-1.09,3.51-2.81,5.73c-1.39,1.8-2.9,3.47-5.24,3.93c-3.36,0.64-1.91-3.12-11.46-4.24
	c-1.4-0.15-4.2-15.56-4.39-18.32c-0.44-6.03-2.53-12.11-5.09-17.66c-2.91-6.29-6.49-11.82-9.08-15.78
	c-1.97-3.01-3.38-5.17-3.59-5.96c-0.01-0.01-0.72,6.85-0.55,7.12c1.15,2.04,12.06,20.4,13.45,23.57c1.78,4.03,2.99,8.37,3.93,12.67
	c0.53,2.37,1.69,15.48,3.09,16.74c2.17,1.98,4.59,2.83,7.32,3.02c1.89,0.15,3.7,4.44,6.9,4.19c4.79-0.37,5.09-4.05,6.54-5.16
	c6.24-4.75,3.83-15.02,3.94-18.28c0.41-10.68,2.45-30.55,2.93-33.33c1.38-8.34,2.34-3.81,4.22-7.19c1.07-1.91-1.14-14.23-0.04-15.22
	c1.11-3.61,8.68-7.19,11.29-10.09C726.61,291.9,732.54,286.14,732,284.87z"/>
</svg>
