<?xml version="1.0" encoding="utf-8"?>
<!-- Generator: Adobe Illustrator 26.5.0, SVG Export Plug-In . SVG Version: 6.00 Build 0)  -->
<svg version="1.1" id="Layer_1" xmlns="http://www.w3.org/2000/svg" xmlns:xlink="http://www.w3.org/1999/xlink" x="0px" y="0px"
	 viewBox="0 0 1080 1080" style="enable-background:new 0 0 1080 1080;" xml:space="preserve">
<style type="text/css">
	.st0{fill-rule:evenodd;clip-rule:evenodd;}
	.st1{fill:#ED1C24;}
	.st2{fill:#E1251B;}
	.st3{fill-rule:evenodd;clip-rule:evenodd;fill:#16397B;}
	.st4{fill:#EE2745;}
	
		.st5{clip-path:url(#SVGID_00000092421133730731082870000006257500402143718289_);fill:url(#SVGID_00000062191026688165253540000002743073919957457596_);}
	
		.st6{clip-path:url(#SVGID_00000022534489632205304520000006059770236289129393_);fill:url(#SVGID_00000099642095939910606800000010631209628163135620_);}
	
		.st7{clip-path:url(#SVGID_00000132766165729197036020000017373354332281930425_);fill:url(#SVGID_00000005949978196284595500000008132862039400558776_);}
	
		.st8{clip-path:url(#SVGID_00000157293009354286112410000017283666048773267344_);fill:url(#SVGID_00000072984632381005989300000003600276780354148243_);}
	.st9{fill:#424243;}
	
		.st10{clip-path:url(#SVGID_00000147212107260799602720000005625777209849793685_);fill:url(#SVGID_00000075126666567823284500000018065957904164076686_);}
	.st11{fill:#FFFFFF;}
	
		.st12{clip-path:url(#SVGID_00000173848541902957749390000007256303343926291889_);fill:url(#SVGID_00000150790256523167144950000012908774703960849309_);}
	
		.st13{clip-path:url(#SVGID_00000082330127725606462930000017255524015458050688_);fill:url(#SVGID_00000129897790058171820400000004659992610085509034_);}
	
		.st14{clip-path:url(#SVGID_00000086653967174410519120000014354819688098443441_);fill:url(#SVGID_00000117672176317041909710000018107285719792972186_);}
	
		.st15{clip-path:url(#SVGID_00000064326499398040244660000009239126105908506243_);fill:url(#SVGID_00000082370611908604684330000005675224130030358450_);}
	
		.st16{clip-path:url(#SVGID_00000083773068622496212350000009989456919179542934_);fill:url(#SVGID_00000138560837369529164040000010377443401234817444_);}
	
		.st17{clip-path:url(#SVGID_00000134948348211256336980000017927730720214328250_);fill:url(#SVGID_00000101799959912591659620000001870623577974873216_);}
	
		.st18{clip-path:url(#SVGID_00000071561302548856464510000010194459985665492365_);fill:url(#SVGID_00000160154274796028796740000012408951374164684163_);}
	.st19{fill-rule:evenodd;clip-rule:evenodd;fill:#C8202F;}
	.st20{fill-rule:evenodd;clip-rule:evenodd;fill:#FFFFFF;}
	.st21{fill-rule:evenodd;clip-rule:evenodd;fill:#F98238;}
	.st22{filter:url(#Adobe_OpacityMaskFilter);}
	.st23{fill:url(#SVGID_00000152974978098649228550000005104740363931755416_);}
	.st24{mask:url(#SVGID_00000098902937773459292250000016536453731368635325_);fill-rule:evenodd;clip-rule:evenodd;fill:#ED1C24;}
	.st25{fill-rule:evenodd;clip-rule:evenodd;fill:#F5333F;}
	.st26{fill-rule:evenodd;clip-rule:evenodd;fill:#ED1C24;}
	.st27{fill-rule:evenodd;clip-rule:evenodd;fill:#F9A46E;}
	.st28{fill-rule:evenodd;clip-rule:evenodd;fill:#F47B26;}
	.st29{fill-rule:evenodd;clip-rule:evenodd;fill:#EB5433;}
	.st30{fill:#1A3282;}
	.st31{fill-rule:evenodd;clip-rule:evenodd;fill:#1A3282;}
	.st32{fill-rule:evenodd;clip-rule:evenodd;fill:#9D9FA2;}
	.st33{fill-rule:evenodd;clip-rule:evenodd;fill:#000303;}
	.st34{fill:#64003D;}
	.st35{fill:#536270;}
	.st36{fill-rule:evenodd;clip-rule:evenodd;fill:#64003D;}
	.st37{fill-rule:evenodd;clip-rule:evenodd;fill:#536270;}
	.st38{fill-rule:evenodd;clip-rule:evenodd;fill:#1A3382;}
	.st39{fill-rule:evenodd;clip-rule:evenodd;fill:#29387E;}
	.st40{fill-rule:evenodd;clip-rule:evenodd;fill:#F37021;}
	.st41{fill-rule:evenodd;clip-rule:evenodd;fill:#005C32;}
	.st42{fill-rule:evenodd;clip-rule:evenodd;fill:#D2AB67;}
	
		.st43{clip-path:url(#SVGID_00000036251553682591077970000016976854795597408443_);fill:url(#SVGID_00000085961624078215857880000009669788944175771278_);}
	
		.st44{clip-path:url(#SVGID_00000132068367104675289150000005488634135372945588_);fill:url(#SVGID_00000151539814956542535000000013918096565380297346_);}
	
		.st45{clip-path:url(#SVGID_00000122720233070137854280000011847899899836297908_);fill:url(#SVGID_00000135653299575508582810000010152393118744768398_);}
	.st46{fill-rule:evenodd;clip-rule:evenodd;fill:#00AEEF;}
	.st47{fill-rule:evenodd;clip-rule:evenodd;fill:#EC008C;}
	.st48{fill-rule:evenodd;clip-rule:evenodd;fill:#FFF200;}
	.st49{fill:#A7AAAC;}
	.st50{fill-rule:evenodd;clip-rule:evenodd;fill:#5C5B5B;}
	.st51{fill:#9D9D9F;}
	.st52{fill:#F04D23;}
	.st53{fill-rule:evenodd;clip-rule:evenodd;fill:#2E3192;}
	.st54{fill-rule:evenodd;clip-rule:evenodd;fill:#C4312D;}
	.st55{fill:#552715;}
	.st56{fill:#010101;}
	.st57{fill:#E31E2E;}
	.st58{fill:url(#SVGID_00000001623131357238478700000002598383093447646604_);}
	.st59{fill:url(#SVGID_00000157296936358672465950000004342126895946923184_);}
	.st60{clip-path:url(#SVGID_00000056424245971279553580000018354189961145633436_);}
	.st61{clip-path:url(#SVGID_00000005971028507966923730000007386874441149228929_);}
	.st62{clip-path:url(#SVGID_00000136373529585898925210000015571791864167445924_);}
	.st63{clip-path:url(#SVGID_00000048473311815144488360000010854790034370283163_);}
	.st64{clip-path:url(#SVGID_00000122001545452318899680000002722563015549839798_);}
	.st65{clip-path:url(#SVGID_00000077322971273902776680000016603884134879150264_);}
	.st66{clip-path:url(#SVGID_00000088845566750652240630000010965874287948497837_);}
	.st67{clip-path:url(#SVGID_00000114037302686598908620000010305358700812583325_);}
	.st68{clip-path:url(#SVGID_00000174593544202557515750000014457150514256717755_);}
	.st69{clip-path:url(#SVGID_00000116227686451109622860000010517652171363379128_);}
	.st70{clip-path:url(#SVGID_00000004506421795369840270000013714698750089553290_);}
	.st71{fill:#2650A1;}
	.st72{fill:url(#SVGID_00000179629867469525743690000000244421875167817634_);}
	.st73{fill:#FEFEFE;}
	.st74{fill:#FDFDFD;}
	.st75{fill:#FCFCFC;}
	.st76{fill:#FBFBFB;}
	.st77{fill:#FAFAFA;}
	.st78{fill:#F9F9F9;}
	.st79{fill:#F8F8F8;}
	.st80{fill:#F7F7F7;}
	.st81{fill:#F6F6F6;}
	.st82{fill:#F5F5F5;}
	.st83{fill:#F4F4F4;}
	.st84{fill:#F3F3F3;}
	.st85{fill:#F2F2F2;}
	.st86{fill:#F1F1F1;}
	.st87{fill:#F0F0F0;}
	.st88{fill:#EFEFEF;}
	.st89{fill:#EEEEEE;}
	.st90{fill:#EDEDED;}
	.st91{fill:#ECECEC;}
	.st92{fill:#EBEBEB;}
	.st93{fill:#EAEAEA;}
	.st94{fill:#E9E9E9;}
	.st95{fill:#E8E8E8;}
	.st96{fill:#E7E7E7;}
	.st97{fill:#E6E6E6;}
	.st98{fill:#E5E5E5;}
	.st99{fill:#E4E4E4;}
	.st100{fill:#E3E3E3;}
	.st101{fill:#E2E2E2;}
	.st102{fill:#E1E1E1;}
	.st103{fill:#E0E0E0;}
	.st104{fill:#DFDFDF;}
	.st105{fill:#DEDEDE;}
	.st106{fill:#DDDDDD;}
	.st107{fill:#DCDCDC;}
	.st108{fill:#DBDBDB;}
	.st109{fill:#DADADA;}
	.st110{fill:#D9D9D9;}
	.st111{fill:#D92231;}
	.st112{fill:url(#SVGID_00000127025718100754613980000015038084513458886307_);}
	.st113{fill:url(#SVGID_00000131328654391463443380000004000991838141336719_);}
	.st114{opacity:0.8;}
	.st115{fill:url(#SVGID_00000080186848438615734200000007086228856285270442_);}
	.st116{fill:url(#SVGID_00000105384580480676677110000015698869325494474386_);}
	.st117{fill-rule:evenodd;clip-rule:evenodd;fill:#010101;}
	.st118{fill:#80A845;}
	.st119{fill-rule:evenodd;clip-rule:evenodd;fill:#80A845;}
	.st120{fill:url(#SVGID_00000175317626529630987050000016675574186201921973_);}
	.st121{fill-rule:evenodd;clip-rule:evenodd;fill:#04984A;}
	.st122{fill-rule:evenodd;clip-rule:evenodd;fill:url(#SVGID_00000150799302393066282950000010562598395689355920_);}
	.st123{fill:url(#SVGID_00000039105517330058303660000016062833097805323448_);}
	.st124{fill:url(#SVGID_00000060738600951694753570000017931014113411315355_);}
	.st125{fill:url(#SVGID_00000124161416668758825530000014730916527471882655_);}
	.st126{fill:url(#SVGID_00000049220038603194118830000011566858905615147194_);}
	.st127{fill:url(#SVGID_00000000190964997668682790000007214788183073599629_);}
	.st128{fill:url(#SVGID_00000112602011527285168640000014569279648016475316_);}
	.st129{fill:url(#SVGID_00000135667751881604645720000010051979787773690531_);}
	.st130{fill:url(#SVGID_00000070802903307533961520000018165454883185400492_);}
	.st131{fill:url(#SVGID_00000070093246594220960660000012823338822949447574_);}
	.st132{fill:url(#SVGID_00000096020903880905993180000001563139880713490063_);}
	.st133{fill:url(#SVGID_00000174567129914129776310000015010038729697888647_);}
	.st134{fill:url(#SVGID_00000165936578677064108140000003376593744421065143_);}
	.st135{fill:url(#SVGID_00000164484185564318759530000005394630333080559750_);}
	.st136{fill:url(#SVGID_00000071519673704545693390000008527605356143597746_);}
	.st137{fill-rule:evenodd;clip-rule:evenodd;fill:url(#SVGID_00000058548918748409481440000012540037056678231697_);}
	.st138{fill:#0A529D;}
	.st139{fill:url(#SVGID_00000064330032702981004710000008710809115752054691_);}
	.st140{fill:url(#SVGID_00000144329063638167551260000006865361896382436751_);}
	.st141{fill:url(#SVGID_00000011735974219023887610000012189073526707606421_);}
	.st142{fill:url(#SVGID_00000071539894410386373310000001732100955362485943_);}
	.st143{fill:url(#SVGID_00000088115797255493778350000000681497833875111591_);}
	.st144{fill:url(#SVGID_00000132071241600208902050000007639969713485324209_);}
	.st145{fill:url(#SVGID_00000122695306355803335680000013178575369172474261_);}
	.st146{fill:url(#SVGID_00000145748196283050078470000015843010517999347624_);}
	.st147{fill:url(#SVGID_00000105424711253813103270000007396028443285548220_);}
	.st148{fill:url(#SVGID_00000085225523750495497710000009441735233236912019_);}
	.st149{fill:url(#SVGID_00000092414505481124122990000007471039668576735134_);}
	.st150{fill:url(#SVGID_00000095310088780733348080000010051686886595388089_);}
	.st151{fill-rule:evenodd;clip-rule:evenodd;fill:url(#SVGID_00000047766492502615566360000005178783484031522944_);}
	.st152{fill:url(#SVGID_00000064333671614889995440000004411528017681314444_);}
	.st153{fill:url(#SVGID_00000056390255305567375960000001512733341606264753_);}
	.st154{fill:url(#SVGID_00000067943988187748292680000008480464984025949609_);}
	.st155{fill:url(#SVGID_00000036239047580720951980000018137260602532002706_);}
	.st156{fill:url(#SVGID_00000124156387142468583890000005758626612812508570_);}
	.st157{fill:url(#SVGID_00000181046383677337567840000016146795118358859705_);}
	.st158{fill:url(#SVGID_00000050641852063482920000000005714842385953801100_);}
	.st159{fill:url(#SVGID_00000106862893318911405710000014951555043004176772_);}
	.st160{fill:url(#SVGID_00000095330242154976432180000013493029076703947407_);}
	.st161{fill:url(#SVGID_00000036245190790751588480000002619497366410360458_);}
	.st162{fill:url(#SVGID_00000101810896513105780300000014702345923711710595_);}
	.st163{fill:url(#SVGID_00000070802280237137300810000008004005254955047831_);}
	.st164{fill:url(#SVGID_00000110457346360675356740000009911771720573937087_);}
	.st165{fill:url(#SVGID_00000052818278156364027460000002864419176901587596_);}
	.st166{fill:url(#SVGID_00000110464261063868885800000018035112014167594665_);}
	.st167{fill:url(#SVGID_00000019654306348230026010000016292677822720813982_);}
	.st168{fill:url(#SVGID_00000120524913489550655480000013006609985723359903_);}
	.st169{fill-rule:evenodd;clip-rule:evenodd;fill:url(#SVGID_00000008138621770652524600000009491879746530141630_);}
	.st170{fill:url(#SVGID_00000013179329316566983630000002507868475846173107_);}
	.st171{fill:url(#SVGID_00000084507202505588972850000011086485782749236865_);}
	.st172{fill:url(#SVGID_00000069355944237563335480000011058173534824497564_);}
	.st173{fill:url(#SVGID_00000119798439765023729450000001232524764495559333_);}
	.st174{fill:url(#SVGID_00000084500391083801179060000009126991596442944191_);}
	.st175{fill:url(#SVGID_00000118377586584453779800000010354366953948510363_);}
	.st176{fill:url(#SVGID_00000160879389952792388670000003440974142344882598_);}
	.st177{fill:url(#SVGID_00000170966712112567519650000010953914212820374149_);}
	.st178{fill:url(#SVGID_00000059990261028053229720000011293424847159750800_);}
	.st179{fill:url(#SVGID_00000156568638406150012380000015900245269652348297_);}
	.st180{fill:url(#SVGID_00000137126873576419648090000014819913133685733553_);}
	.st181{fill:url(#SVGID_00000171691956179960677200000016361703873983316658_);}
	.st182{fill:url(#SVGID_00000074409912230889589850000004578962113615967890_);}
	.st183{fill:url(#SVGID_00000098184285566496718680000010922741821492753810_);}
	.st184{fill-rule:evenodd;clip-rule:evenodd;fill:url(#SVGID_00000040573191542243477230000013064174630837499540_);}
	.st185{fill:url(#SVGID_00000095303003048061278880000002216518732867730105_);}
	.st186{fill:url(#SVGID_00000055671527369857103030000002647996015340479885_);}
	.st187{fill:url(#SVGID_00000086664217040725892710000006001508665811655553_);}
	.st188{fill:url(#SVGID_00000002386441296482815550000010329569660058828452_);}
	.st189{fill:url(#SVGID_00000074441759284251599590000008173286824673199239_);}
	.st190{fill:url(#SVGID_00000004529673190693697380000003165758464628759692_);}
	.st191{fill:url(#SVGID_00000005229533026501644480000006785357852545687450_);}
	.st192{fill:url(#SVGID_00000011732257820350940580000017502334872336784279_);}
	.st193{fill:url(#SVGID_00000051362875338461101460000000671927408262940076_);}
	.st194{fill:url(#SVGID_00000070826351657551628770000002713995294888907403_);}
	.st195{fill:url(#SVGID_00000181083511800916671780000007493497113076905381_);}
	.st196{fill:url(#SVGID_00000103224516657061776040000004141300453703004082_);}
	.st197{fill:url(#SVGID_00000065041087690499806960000017153718947829344672_);}
	.st198{fill:url(#SVGID_00000045588678705697938400000014771610150333037232_);}
	.st199{fill:url(#SVGID_00000152983484958758965960000011661712093912409278_);}
	.st200{fill:url(#SVGID_00000093894411235251133950000010988804223789586585_);}
	.st201{fill:url(#SVGID_00000157274626220344545590000013600892335308371623_);}
	.st202{fill:url(#SVGID_00000016786364779854028760000006937109295804437124_);}
	.st203{fill:url(#SVGID_00000106865801504184823230000016647174602864269491_);}
	.st204{fill-rule:evenodd;clip-rule:evenodd;fill:url(#SVGID_00000112612990209672391760000015710650980225269122_);}
	.st205{fill:url(#SVGID_00000041996769440334700380000018009678825835121043_);}
	.st206{fill:url(#SVGID_00000179622485928340580550000008171980022404569485_);}
	.st207{fill:url(#SVGID_00000162341306983187398040000012153328249457863345_);}
	.st208{fill:url(#SVGID_00000107589134092526615300000006886906419442185872_);}
	.st209{fill:url(#SVGID_00000016071247806706196420000007662833640688237475_);}
	.st210{fill:url(#SVGID_00000134229172595772379910000008002724491654353578_);}
	.st211{fill:url(#SVGID_00000180351058467767279110000017635677501547383453_);}
	.st212{fill:url(#SVGID_00000110432097934134222460000006053906684237696953_);}
	.st213{fill:url(#SVGID_00000137089943701057974970000002429344207321152133_);}
	.st214{fill:url(#SVGID_00000092446155238086263260000008120700507702855595_);}
	.st215{fill:url(#SVGID_00000149348039594882175260000001289181571548850090_);}
	.st216{fill:url(#SVGID_00000040558504060480287010000017421251459464701357_);}
	.st217{fill:url(#SVGID_00000172404418133526657500000007976382315108568976_);}
	.st218{fill:url(#SVGID_00000050622054366822424660000017347854828086348460_);}
	.st219{fill:url(#SVGID_00000047054412355664530130000001659440771840963745_);}
	.st220{fill:url(#SVGID_00000015354531036289044160000005088632627029907891_);}
	.st221{fill-rule:evenodd;clip-rule:evenodd;fill:url(#SVGID_00000088100130841725134650000008039309261246688164_);}
	.st222{fill:url(#SVGID_00000052079436241920387010000004037505255721754538_);}
	.st223{fill:url(#SVGID_00000080165056250605931570000013484954400881382847_);}
	.st224{fill:url(#SVGID_00000082335034424932084010000007326648474431300737_);}
	.st225{fill:url(#SVGID_00000132800724003582143640000005730495655226334377_);}
	.st226{fill:url(#SVGID_00000139978531303771850870000003713597963457797791_);}
	.st227{fill:url(#SVGID_00000053533931020968648210000005592760052156436661_);}
	.st228{fill:url(#SVGID_00000062176289871553560630000015353150920592889781_);}
	.st229{fill:url(#SVGID_00000145747654488165208830000007660776053038421938_);}
	.st230{fill:url(#SVGID_00000059295881663876639120000006406365219894301094_);}
	.st231{fill:url(#SVGID_00000121992143410324589820000001616860875148162743_);}
	.st232{fill:url(#SVGID_00000017498916954273372790000013235444981580766899_);}
	.st233{fill:url(#SVGID_00000036229151778786031660000016016166246437117568_);}
	.st234{fill:url(#SVGID_00000104680724761056475750000010623925315932079009_);}
	.st235{fill:url(#SVGID_00000078040183158720348530000005108559768367271327_);}
	.st236{fill:url(#SVGID_00000142155588369413145890000016057651766401640369_);}
	.st237{fill-rule:evenodd;clip-rule:evenodd;fill:url(#SVGID_00000122696772475801941280000010299140420824271246_);}
	.st238{fill:url(#SVGID_00000156587622830867172130000015029983820244471997_);}
	.st239{fill:url(#SVGID_00000125584573644974933730000012886492052261863867_);}
	.st240{fill:url(#SVGID_00000155141345972779373410000016937898614093625768_);}
	.st241{fill:url(#SVGID_00000155865748435924162030000015243909503254548612_);}
	.st242{fill:url(#SVGID_00000000917081043854087770000002736860382086968472_);}
	.st243{fill:url(#SVGID_00000021116072898024901480000015056859574559860118_);}
	.st244{fill:url(#SVGID_00000121250357266600682540000017578937507021396642_);}
	.st245{fill:url(#SVGID_00000019671347057346182820000005256213879941914286_);}
	.st246{fill:url(#SVGID_00000031909620377650179360000018216783242420003240_);}
	.st247{fill:url(#SVGID_00000119091726108387449920000003506665678810083717_);}
	.st248{fill:url(#SVGID_00000062906845990536303790000006997280079918343557_);}
	.st249{fill:url(#SVGID_00000003816002356519784340000004305490787114496144_);}
	.st250{fill:url(#SVGID_00000106863642028997796940000016876443795163690424_);}
	.st251{fill:url(#SVGID_00000145038122335380359340000005971402818029503931_);}
	.st252{fill:url(#SVGID_00000178186300825692500510000015533682044405096850_);}
	.st253{fill-rule:evenodd;clip-rule:evenodd;fill:url(#SVGID_00000171696816147783521430000015088025010909894573_);}
	.st254{fill:url(#SVGID_00000063620088417655653350000001819437124259266977_);}
	.st255{fill:url(#SVGID_00000010306718987217685850000001179116759430925705_);}
	.st256{fill:url(#SVGID_00000011725489381409522340000003817391365390507157_);}
	.st257{fill:url(#SVGID_00000163767369238623286380000006420254213399589777_);}
	.st258{fill:url(#SVGID_00000030447254474124619060000004351523710170295432_);}
	.st259{fill:url(#SVGID_00000083779692042581329970000018330794159953946013_);}
	.st260{fill:url(#SVGID_00000128472397169198356580000009620358292868104096_);}
	.st261{fill:url(#SVGID_00000062911050173887849080000010176834420578968745_);}
	.st262{fill:url(#SVGID_00000176730507333227601920000009864897256134237825_);}
	.st263{fill:url(#SVGID_00000022524047090749546650000003601215648378471823_);}
	.st264{fill:url(#SVGID_00000085966491113721204770000005217608507618988726_);}
	.st265{fill:url(#SVGID_00000060030729258847173770000002802396236697605004_);}
	.st266{fill:url(#SVGID_00000047028739561443376690000013343930057247576996_);}
	.st267{fill:url(#SVGID_00000090258802516466549790000006065732890677505211_);}
	.st268{fill:url(#SVGID_00000067954921358019943340000016756864442867651200_);}
	.st269{fill-rule:evenodd;clip-rule:evenodd;fill:url(#SVGID_00000157281628134377303080000013683157704434857659_);}
	.st270{fill:url(#SVGID_00000060006080593058386610000016236014180467960718_);}
	.st271{fill:url(#SVGID_00000102506888116725019210000011631608338010423938_);}
	.st272{fill:url(#SVGID_00000072279881834146023700000003087588294964813237_);}
	.st273{fill:url(#SVGID_00000122707030093056081050000014755439145588540301_);}
	.st274{fill:url(#SVGID_00000095315077899018652080000009187562797744688270_);}
	.st275{fill:url(#SVGID_00000032606485770630447340000010822788165003858065_);}
	.st276{fill:url(#SVGID_00000129171520302924672790000004525427442558693259_);}
	.st277{fill:url(#SVGID_00000113312934890763975160000009072056022590269865_);}
	.st278{fill:url(#SVGID_00000067195860873735039490000013341462173830738606_);}
	.st279{fill:url(#SVGID_00000132770758949490470200000006080259430592297088_);}
	.st280{fill:url(#SVGID_00000168829855598956647120000015015401729956930693_);}
	.st281{fill:url(#SVGID_00000064312958165976379650000013283753457867696264_);}
	.st282{fill:url(#SVGID_00000034788284432130031180000013848832982112875686_);}
	.st283{fill:url(#SVGID_00000050662564162240556920000017850159323964643485_);}
	.st284{fill:url(#SVGID_00000021816587586069580800000016890037616894395820_);}
	.st285{fill-rule:evenodd;clip-rule:evenodd;fill:url(#SVGID_00000051354647866510250240000016884853761621877152_);}
	.st286{fill:url(#SVGID_00000158015811662593518220000008096746926525510019_);}
	.st287{fill:url(#SVGID_00000011007009220564377050000010928951714979205291_);}
	.st288{fill:url(#SVGID_00000093174677136711647970000012625772386347563436_);}
	.st289{fill:url(#SVGID_00000048498203416794485680000000093641483741225097_);}
	.st290{fill:url(#SVGID_00000181074736551839851330000007074330891748746941_);}
	.st291{fill:url(#SVGID_00000109010910638562529390000010008507425082211470_);}
	.st292{fill:url(#SVGID_00000093153842272661388550000010961131889447208077_);}
	.st293{fill:url(#SVGID_00000131368265810635083000000017961800732429545404_);}
	.st294{fill:url(#SVGID_00000077321671212612341400000006448429808967397807_);}
	.st295{fill:url(#SVGID_00000046341117243068472140000004275265297046528675_);}
	.st296{fill:url(#SVGID_00000067957584484489717790000015357978892314502565_);}
	.st297{fill:url(#SVGID_00000009590458097068143610000005444322337737601159_);}
	.st298{fill:url(#SVGID_00000068652991635093503270000004628782189702195592_);}
	.st299{fill:url(#SVGID_00000138565049195205980590000008659756962767577752_);}
	.st300{fill:url(#SVGID_00000012454259974976420900000006280270326387394747_);}
	.st301{fill:url(#SVGID_00000106849738043382553080000003475077660948101004_);}
	.st302{fill:url(#SVGID_00000147905591468581184850000014741842544902508459_);}
	.st303{fill:url(#SVGID_00000081623312732468972550000015706376335208168367_);}
	.st304{fill-rule:evenodd;clip-rule:evenodd;fill:url(#SVGID_00000156563171525398747370000010947854925027120812_);}
	.st305{fill:url(#SVGID_00000140721741378982406510000005527826531330751889_);}
	.st306{fill:url(#SVGID_00000024682087371873149400000010794616542124573077_);}
	.st307{fill:url(#SVGID_00000052066036820135354650000000221536028807922566_);}
	.st308{fill:url(#SVGID_00000182497310057394543020000011540505211196134290_);}
	.st309{fill:url(#SVGID_00000168809046155462783380000007665282233732447913_);}
	.st310{fill:url(#SVGID_00000007397483865720501560000014981062353616514749_);}
	.st311{fill:url(#SVGID_00000034793839827442016280000007414514898670079410_);}
	.st312{fill:url(#SVGID_00000134250834409812444470000013383451489755526564_);}
	.st313{fill:url(#SVGID_00000083046380545554042600000017467274310829930660_);}
	.st314{fill:url(#SVGID_00000049207330377636234760000008562753349562323089_);}
	.st315{fill:url(#SVGID_00000116232341069809242530000009656245798844149640_);}
	.st316{fill:url(#SVGID_00000091697598854056344170000009786066474645650082_);}
	.st317{fill:url(#SVGID_00000056392545852974191560000008594586640182210971_);}
	.st318{fill:url(#SVGID_00000090292707830686424700000002191220413492963478_);}
	.st319{fill:url(#SVGID_00000132060055552196393940000002890280647241878929_);}
	.st320{fill:url(#SVGID_00000162337347252625078030000001451992578519753368_);}
	.st321{fill:url(#SVGID_00000151528637411612427000000011517564127597905028_);}
	.st322{fill:url(#SVGID_00000060709132864554315080000005826758963996325519_);}
	.st323{fill:url(#SVGID_00000157286571647086529350000001163858958397052844_);}
	.st324{fill:url(#SVGID_00000022536522442680980500000012196545103294541709_);}
	.st325{fill-rule:evenodd;clip-rule:evenodd;fill:url(#SVGID_00000043417309426923165870000017191314736507575216_);}
	.st326{fill:url(#SVGID_00000010294571290811562800000006628900841741151893_);}
	.st327{fill:url(#SVGID_00000113319982168272713650000017111276760464225695_);}
	.st328{fill:url(#SVGID_00000057112654844330333370000002971176418411588513_);}
	.st329{fill:url(#SVGID_00000153686215976631296280000005261133913696119183_);}
	.st330{fill:url(#SVGID_00000108270235989213144410000015246220057710908065_);}
	.st331{fill:url(#SVGID_00000153695152457204915220000004644997484042284475_);}
	.st332{fill:url(#SVGID_00000080171470117848919320000008486596270854067333_);}
	.st333{fill:url(#SVGID_00000178206099367075372620000005417753409654432419_);}
	.st334{fill:url(#SVGID_00000046304792453052323770000014131120540956299437_);}
	.st335{fill:url(#SVGID_00000063603242232916519860000001519552431035454637_);}
	.st336{fill:url(#SVGID_00000132777745521213235790000006554195602431575939_);}
	.st337{fill:url(#SVGID_00000160875409863837782040000000158687873576509887_);}
	.st338{fill:url(#SVGID_00000061442701814853697230000002909818025646965424_);}
	.st339{fill:url(#SVGID_00000140736536132773511060000002476385549089249159_);}
	.st340{fill:url(#SVGID_00000097486062294020383500000001800900108034441861_);}
	.st341{fill:url(#SVGID_00000061467649944035989910000002331029278236990083_);}
	.st342{fill-rule:evenodd;clip-rule:evenodd;fill:url(#SVGID_00000065046487761771501330000002557631476711639184_);}
	.st343{fill:url(#SVGID_00000039820569225529855960000000173759721990347693_);}
	.st344{fill:url(#SVGID_00000077314974629925026890000002711700279348129695_);}
	.st345{fill:url(#SVGID_00000124867342226563706960000013176640710542525094_);}
	.st346{fill:url(#SVGID_00000135655396369937792560000013680069202497846193_);}
	.st347{fill:url(#SVGID_00000178195113639294394980000012862986962598193801_);}
	.st348{fill:url(#SVGID_00000003796365568161499520000005661363013966277764_);}
	.st349{fill:url(#SVGID_00000154412839436875554940000001970523718293516969_);}
	.st350{fill:url(#SVGID_00000078012186168346521290000010226083989649854344_);}
	.st351{fill:url(#SVGID_00000152948249760552596700000011406270736973912741_);}
	.st352{fill:url(#SVGID_00000106838008016688087180000017529552887336017593_);}
	.st353{fill:url(#SVGID_00000135690718882118970740000013685206697755971510_);}
	.st354{fill:url(#SVGID_00000155115515059302752880000013303979427618844329_);}
	.st355{fill:url(#SVGID_00000068650398022652144040000010685106726166182548_);}
	.st356{fill:url(#SVGID_00000042722906561073439040000016730214087701160883_);}
	.st357{fill:url(#SVGID_00000122700098543141540270000004170516125753036451_);}
	.st358{fill:url(#SVGID_00000160872764102578758880000001381758234739898248_);}
	.st359{fill:url(#SVGID_00000142866685104280166940000015892201630515731374_);}
	.st360{fill:url(#SVGID_00000068672934966831053150000012793487636934327960_);}
	.st361{fill:url(#SVGID_00000086652610883424553490000014340103144201172143_);}
	.st362{fill:url(#SVGID_00000075141892731073295240000010535396151886945981_);}
	.st363{fill:#C1282D;}
	.st364{fill-rule:evenodd;clip-rule:evenodd;fill:url(#SVGID_00000178895519626108904240000007812079408682860461_);}
	.st365{fill:url(#SVGID_00000147196090321761111690000006875661201306165152_);}
	.st366{fill:url(#SVGID_00000036244356507946350880000009721612479531564209_);}
	.st367{fill:url(#SVGID_00000147201241446276825270000013892413608967678895_);}
	.st368{fill:url(#SVGID_00000088135121165178906950000006634388444924003509_);}
	.st369{fill:url(#SVGID_00000003787334476589007320000009306673117868946089_);}
	.st370{fill:url(#SVGID_00000029025148909759356040000016972460113013172918_);}
	.st371{fill:url(#SVGID_00000044882108649753476810000012285912241684883886_);}
	.st372{fill:url(#SVGID_00000011727840491547097550000008038032774967033272_);}
	.st373{fill:url(#SVGID_00000140014576108287519210000000409999317695887251_);}
	.st374{fill:url(#SVGID_00000016064435794785108180000018020472993131692978_);}
	.st375{fill:url(#SVGID_00000157292675979811120310000015558601333210930364_);}
	.st376{fill:url(#SVGID_00000118356506333327880080000011638628094666792381_);}
	.st377{fill:url(#SVGID_00000046310973521096111810000011234930573160424341_);}
	.st378{fill:url(#SVGID_00000036237739197095205540000012843365570319409794_);}
	.st379{fill:url(#SVGID_00000098932315945748449060000001429814564255127996_);}
	.st380{fill:url(#SVGID_00000028318658378289872940000007264749830478222252_);}
	.st381{fill-rule:evenodd;clip-rule:evenodd;fill:url(#SVGID_00000085956204507885057610000012522545596777065117_);}
	.st382{fill:url(#SVGID_00000017504613772595706870000002429821368102536106_);}
	.st383{fill:url(#SVGID_00000152257022431102752000000004510676423050795188_);}
	.st384{fill:url(#SVGID_00000144312853881365735090000002327319956342038192_);}
	.st385{fill:url(#SVGID_00000068637091967011300010000004426292562533909649_);}
	.st386{fill:url(#SVGID_00000168817767768812187060000004553865236648020612_);}
	.st387{fill:url(#SVGID_00000101074184864029418500000007873060969497226671_);}
	.st388{fill:url(#SVGID_00000040547127018054429300000008414513717314309288_);}
	.st389{fill:url(#SVGID_00000153671860611351963730000017967938338083347114_);}
	.st390{fill:url(#SVGID_00000137123889212215859120000000134569030084924806_);}
	.st391{fill:url(#SVGID_00000053543070956460161310000016955280332513008814_);}
	.st392{fill:url(#SVGID_00000150815791720889924010000016304395196292641192_);}
	.st393{fill:url(#SVGID_00000129176911358977196510000005353645758673706670_);}
	.st394{fill:url(#SVGID_00000013875901760189780710000002749108424618927267_);}
	.st395{fill:url(#SVGID_00000159439869515690460990000002961925374333508285_);}
	.st396{fill:url(#SVGID_00000114759890542716083560000010514932220966249102_);}
	.st397{fill:url(#SVGID_00000121980587149883787430000007038823452968148638_);}
	.st398{fill:url(#SVGID_00000016042892354613933450000015909704843969454270_);}
	.st399{fill:url(#SVGID_00000079473728307089582250000007100321384370783909_);}
	.st400{fill:url(#SVGID_00000056386520442780579600000005191495707965853364_);}
	.st401{fill:url(#SVGID_00000181769979299897507900000015251373709844442291_);}
</style>
<g>
	<path class="st51" d="M1004.96,615.59h13.31c1.92,0,3.65-0.27,5.2-0.8c1.54-0.53,2.87-1.46,3.99-2.78c0.53-0.69,1.06-1.55,1.57-2.6
		c0.51-1.05,0.89-2.02,1.16-2.91h-21.51l1.8-5.76h21.44c0.29-0.81,0.47-1.69,0.53-2.66c0.05-0.96-0.1-1.78-0.46-2.46
		c-0.29-0.56-0.72-1-1.28-1.32c-0.56-0.32-1.15-0.56-1.78-0.73c-0.62-0.17-1.24-0.28-1.85-0.32c-0.62-0.05-1.16-0.07-1.62-0.07h-13
		l1.79-5.77h16.77c1.32,0,2.46,0.12,3.39,0.36c0.94,0.23,1.74,0.52,2.45,0.86c0.69,0.34,1.23,0.73,1.63,1.16
		c0.41,0.42,0.75,0.85,0.99,1.27c0.69,1.24,0.98,2.88,0.89,4.9c-0.1,2.03-0.65,4.62-1.65,7.77c-1.01,3.33-2.1,6.06-3.28,8.2
		c-1.17,2.14-2.47,3.86-3.89,5.18c-1.04,0.94-2.06,1.68-3.1,2.24c-1.04,0.56-2.11,0.98-3.2,1.28c-1.1,0.29-2.22,0.49-3.36,0.57
		c-1.14,0.09-2.28,0.13-3.43,0.13h-15.29L1004.96,615.59z M972.3,615.59h13.31c1.92,0,3.65-0.27,5.2-0.8
		c1.54-0.53,2.87-1.46,3.99-2.78c0.53-0.69,1.06-1.55,1.57-2.6c0.51-1.05,0.89-2.02,1.16-2.91h-21.51l1.8-5.76h21.44
		c0.29-0.81,0.47-1.69,0.53-2.66c0.05-0.96-0.1-1.78-0.46-2.46c-0.29-0.56-0.72-1-1.28-1.32c-0.56-0.32-1.15-0.56-1.78-0.73
		c-0.62-0.17-1.24-0.28-1.85-0.32c-0.62-0.05-1.16-0.07-1.62-0.07h-13l1.79-5.77h16.77c1.32,0,2.46,0.12,3.39,0.36
		c0.94,0.23,1.75,0.52,2.45,0.86c0.69,0.34,1.23,0.73,1.63,1.16c0.41,0.42,0.75,0.85,0.99,1.27c0.69,1.24,0.98,2.88,0.89,4.9
		c-0.1,2.03-0.65,4.62-1.65,7.77c-1.01,3.33-2.1,6.06-3.28,8.2c-1.17,2.14-2.47,3.86-3.89,5.18c-1.04,0.94-2.06,1.68-3.1,2.24
		c-1.04,0.56-2.11,0.98-3.2,1.28c-1.1,0.29-2.22,0.49-3.36,0.57c-1.14,0.09-2.28,0.13-3.43,0.13H970.5L972.3,615.59z M956.37,589.86
		c0.73-0.98,1.64-1.69,2.71-2.14c1.07-0.45,2.11-0.68,3.14-0.68c1.02,0,1.92,0.22,2.68,0.68c0.76,0.45,1.25,1.16,1.45,2.14
		l3.87,31.49h-7.68l-2.24-26.17c-0.02-0.17-0.04-0.37-0.06-0.61c-0.02-0.23-0.11-0.35-0.28-0.35c-0.17,0-0.33,0.12-0.49,0.35
		c-0.15,0.24-0.29,0.44-0.45,0.61l-18.63,26.17h-7.68L956.37,589.86z M907.04,621.35l8.87-28.36c0.24-0.68,0.49-1.34,0.74-1.98
		c0.26-0.64,0.65-1.24,1.18-1.79c0.76-0.81,1.53-1.31,2.33-1.5c0.78-0.19,1.54-0.29,2.26-0.29h23.62l-1.79,5.77h-18.81
		c-0.34,0-0.67,0.07-0.99,0.19c-0.3,0.13-0.57,0.28-0.81,0.45c-0.37,0.29-0.61,0.6-0.73,0.92c-0.12,0.33-0.25,0.7-0.37,1.12
		l-8.01,25.47H907.04z M875.29,615.59h13.31c1.92,0,3.65-0.27,5.2-0.8c1.54-0.53,2.87-1.46,3.99-2.78c0.53-0.69,1.06-1.55,1.57-2.6
		c0.51-1.05,0.89-2.02,1.15-2.91h-21.51l1.8-5.76h21.44c0.29-0.81,0.47-1.69,0.53-2.66c0.05-0.96-0.1-1.78-0.46-2.46
		c-0.29-0.56-0.72-1-1.28-1.32c-0.56-0.32-1.15-0.56-1.78-0.73c-0.62-0.17-1.24-0.28-1.85-0.32c-0.62-0.05-1.16-0.07-1.62-0.07h-13
		l1.79-5.77h16.77c1.32,0,2.46,0.12,3.39,0.36c0.94,0.23,1.74,0.52,2.45,0.86c0.69,0.34,1.23,0.73,1.63,1.16
		c0.41,0.42,0.75,0.85,0.99,1.27c0.69,1.24,0.98,2.88,0.88,4.9c-0.1,2.03-0.65,4.62-1.65,7.77c-1.01,3.33-2.1,6.06-3.28,8.2
		c-1.17,2.14-2.47,3.86-3.89,5.18c-1.04,0.94-2.07,1.68-3.1,2.24c-1.04,0.56-2.11,0.98-3.2,1.28c-1.1,0.29-2.22,0.49-3.36,0.57
		c-1.14,0.09-2.28,0.13-3.43,0.13h-15.29L875.29,615.59z M843.44,632.23h-7.49l12.37-39.55c0.37-1.11,0.86-1.99,1.48-2.65
		s1.2-1.16,1.75-1.51c0.82-0.47,1.62-0.76,2.43-0.89c0.8-0.13,1.51-0.2,2.16-0.2h11.84c0.56,0,1.22,0.03,1.98,0.1
		c0.77,0.06,1.57,0.22,2.42,0.48c0.85,0.26,1.67,0.63,2.44,1.12c0.78,0.49,1.43,1.16,1.94,2.01c0.59,0.9,0.96,1.88,1.11,2.95
		c0.15,1.07,0.17,2.16,0.06,3.27c-0.11,1.11-0.32,2.21-0.62,3.3c-0.29,1.08-0.58,2.1-0.85,3.03c-0.37,1.12-0.75,2.25-1.15,3.39
		c-0.39,1.16-0.86,2.29-1.39,3.4c-0.54,1.11-1.15,2.17-1.82,3.2c-0.68,1.02-1.47,1.96-2.37,2.81c-1.14,1.15-2.32,2.06-3.54,2.72
		c-1.22,0.66-2.42,1.15-3.61,1.48c-1.19,0.32-2.31,0.51-3.38,0.57c-1.08,0.06-2.03,0.09-2.89,0.09h-9.48L843.44,632.23z
		 M857.15,615.59c1.88,0,3.41-0.35,4.61-1.06c1.2-0.7,2.14-1.39,2.8-2.08c0.48-0.51,1.05-1.36,1.73-2.56
		c0.68-1.2,1.42-3.05,2.22-5.57c0.7-2.31,1.12-3.98,1.28-5.03c0.15-1.04,0.18-1.8,0.1-2.27c-0.14-1.12-0.65-2.03-1.51-2.76
		c-0.87-0.72-2.13-1.08-3.79-1.08h-7.36c-0.17,0-0.37,0.05-0.6,0.16c-0.22,0.1-0.43,0.2-0.61,0.29c-0.46,0.34-0.76,0.72-0.88,1.15
		l-6.51,20.8H857.15z M807.6,615.59h13.31c1.92,0,3.65-0.27,5.2-0.8c1.54-0.53,2.87-1.46,3.99-2.78c0.53-0.69,1.06-1.55,1.57-2.6
		c0.51-1.05,0.89-2.02,1.16-2.91h-21.5l1.8-5.76h21.44c0.29-0.81,0.47-1.69,0.53-2.66c0.05-0.96-0.1-1.78-0.46-2.46
		c-0.29-0.56-0.72-1-1.28-1.32c-0.57-0.32-1.15-0.56-1.78-0.73c-0.62-0.17-1.24-0.28-1.85-0.32c-0.61-0.05-1.15-0.07-1.62-0.07h-13
		l1.79-5.77h16.77c1.32,0,2.46,0.12,3.39,0.36c0.94,0.23,1.74,0.52,2.45,0.86c0.69,0.34,1.23,0.73,1.63,1.16
		c0.41,0.42,0.75,0.85,0.99,1.27c0.69,1.24,0.98,2.88,0.88,4.9c-0.1,2.03-0.65,4.62-1.65,7.77c-1.01,3.33-2.1,6.06-3.28,8.2
		c-1.17,2.14-2.47,3.86-3.89,5.18c-1.04,0.94-2.06,1.68-3.1,2.24c-1.04,0.56-2.11,0.98-3.2,1.28c-1.1,0.29-2.22,0.49-3.36,0.57
		c-1.14,0.09-2.28,0.13-3.43,0.13H805.8L807.6,615.59z M796.7,621.35l-4.56-12.55l-12.46,12.55h-8.83l18.52-17.41l-7.05-16.51h8.58
		l4.27,11.65l11.6-11.65h8.58L798,603.94l7.53,17.41H796.7z M734.28,621.35l4.54-14.59h-16.19l-4.54,14.59h-7.49l10.64-33.92h7.49
		L724.49,601h16.19l4.24-13.57h7.49l-10.64,33.92H734.28z M707.35,587.43c1.45,0,2.72,0.24,3.8,0.71c1.09,0.47,1.88,1.11,2.4,1.92
		c0.49,0.73,0.76,1.76,0.81,3.11c0.05,1.34-0.21,2.97-0.78,4.89l-5.54,17.6c-0.19,0.6-0.49,1.32-0.9,2.18
		c-0.41,0.85-1,1.58-1.78,2.17c-0.79,0.6-1.63,0.97-2.54,1.12c-0.91,0.15-1.77,0.22-2.58,0.22h-16.19c-0.94,0-1.94-0.06-3-0.19
		c-1.05-0.13-1.92-0.62-2.6-1.47c-0.5-0.6-0.83-1.29-1.01-2.08c-0.17-0.79-0.22-1.61-0.13-2.46c0.09-0.86,0.23-1.69,0.45-2.5
		c0.21-0.81,0.4-1.54,0.6-2.17c0.49-1.49,1.12-2.97,1.89-4.41c0.76-1.45,1.98-2.73,3.62-3.84c1.33-0.94,2.58-1.51,3.73-1.7
		c1.15-0.19,2.17-0.29,3.07-0.29h14.72l0.76-2.37c0.17-0.51,0.29-1.04,0.35-1.6c0.06-0.55-0.05-1.08-0.29-1.6
		c-0.33-0.64-0.79-1.04-1.39-1.21c-0.6-0.17-1.19-0.26-1.79-0.26h-16.7l1.78-5.77H707.35z M691.08,605.99
		c-0.26,0-0.69,0.05-1.3,0.16c-0.62,0.1-1.22,0.44-1.83,0.99c-0.18,0.17-0.46,0.52-0.84,1.03c-0.37,0.51-0.74,1.39-1.13,2.62
		c-0.13,0.52-0.27,1.15-0.42,1.92c-0.14,0.77-0.05,1.38,0.3,1.86c0.14,0.25,0.41,0.49,0.8,0.71c0.38,0.21,0.81,0.32,1.28,0.32h10.42
		c0.22,0,0.49-0.01,0.81-0.03c0.32-0.03,0.67-0.14,1.02-0.35c0.33-0.21,0.54-0.44,0.65-0.68c0.1-0.23,0.19-0.48,0.26-0.73l2.45-7.8
		H691.08z M672.58,587.43c1.45,0,2.71,0.24,3.8,0.71c1.09,0.47,1.88,1.11,2.4,1.92c0.49,0.73,0.76,1.76,0.81,3.11
		c0.06,1.34-0.21,2.97-0.78,4.89l-5.54,17.6c-0.19,0.6-0.49,1.32-0.9,2.18c-0.4,0.85-0.99,1.58-1.78,2.17
		c-0.79,0.6-1.63,0.97-2.54,1.12c-0.91,0.15-1.77,0.22-2.58,0.22h-16.19c-0.94,0-1.94-0.06-3-0.19c-1.05-0.13-1.92-0.62-2.6-1.47
		c-0.5-0.6-0.84-1.29-1.01-2.08c-0.17-0.79-0.22-1.61-0.13-2.46c0.09-0.86,0.23-1.69,0.45-2.5c0.21-0.81,0.4-1.54,0.6-2.17
		c0.49-1.49,1.12-2.97,1.89-4.41c0.76-1.45,1.98-2.73,3.62-3.84c1.33-0.94,2.58-1.51,3.73-1.7c1.15-0.19,2.17-0.29,3.07-0.29h14.72
		l0.76-2.37c0.17-0.51,0.29-1.04,0.35-1.6c0.06-0.55-0.05-1.08-0.29-1.6c-0.33-0.64-0.79-1.04-1.39-1.21
		c-0.6-0.17-1.19-0.26-1.79-0.26h-16.7l1.78-5.77H672.58z M656.32,605.99c-0.26,0-0.69,0.05-1.3,0.16c-0.61,0.1-1.22,0.44-1.83,0.99
		c-0.19,0.17-0.46,0.52-0.84,1.03c-0.37,0.51-0.74,1.39-1.13,2.62c-0.13,0.52-0.27,1.15-0.41,1.92c-0.14,0.77-0.05,1.38,0.29,1.86
		c0.14,0.25,0.4,0.49,0.8,0.71c0.38,0.21,0.81,0.32,1.28,0.32h10.42c0.22,0,0.49-0.01,0.81-0.03c0.32-0.03,0.67-0.14,1.02-0.35
		c0.33-0.21,0.54-0.44,0.65-0.68c0.1-0.23,0.19-0.48,0.26-0.73l2.45-7.8H656.32z M625.04,590.38c0.69-0.94,1.51-1.73,2.48-2.37
		c0.96-0.65,2.31-0.96,4.06-0.96c1.79,0,2.96,0.34,3.48,1.03c0.53,0.68,0.84,1.45,0.92,2.3l2.71,25.22h3l-1.79,5.76H601.7l1.79-5.76
		h3.07L625.04,590.38z M613.86,615.59h17.54l-1.53-21.06c-0.03-0.17-0.05-0.36-0.04-0.57c0-0.21-0.11-0.32-0.33-0.32
		c-0.13,0-0.28,0.09-0.48,0.29c-0.18,0.19-0.36,0.4-0.5,0.6L613.86,615.59z M580.03,632.23h-7.61l8.66-11.01l-4.53-33.79h7.93
		l2.79,25.74l19.48-25.74h7.61L580.03,632.23z M525.4,621.73l-3.5,10.56h-7.11l3.55-11.07l-4.53-33.79h7.74l2.69,26.05l19.71-25.92
		h7.61L525.4,621.73z M491.47,621.73l-3.5,10.56h-7.1l3.54-11.07l-4.53-33.79h7.74l2.69,26.05l19.71-25.92h7.61L491.47,621.73z
		 M458.31,589.86c0.73-0.98,1.64-1.69,2.71-2.14c1.07-0.45,2.11-0.68,3.14-0.68c1.02,0,1.92,0.22,2.68,0.68
		c0.76,0.45,1.25,1.16,1.45,2.14l3.87,31.49h-7.68l-2.24-26.17c-0.02-0.17-0.04-0.37-0.06-0.61c-0.02-0.23-0.11-0.35-0.28-0.35
		c-0.17,0-0.33,0.12-0.49,0.35c-0.15,0.24-0.3,0.44-0.45,0.61l-18.63,26.17h-7.68L458.31,589.86z M423.76,621.35l10.91-34.05
		c0.12-0.33,0.19-0.67,0.23-0.99c0.03-0.32-0.1-0.48-0.4-0.48c-0.25,0-0.58,0.21-0.97,0.64c-0.38,0.42-0.84,0.89-1.35,1.41
		l-27.77,29.76c-0.44,0.51-0.92,1.01-1.43,1.5c-0.53,0.49-1.1,0.94-1.74,1.35c-0.64,0.4-1.39,0.73-2.25,0.99
		c-0.85,0.26-1.86,0.38-3.01,0.38c-1.62,0-2.79-0.28-3.5-0.83c-0.72-0.56-1.15-1.24-1.3-2.05c-0.16-0.81-0.14-1.66,0.06-2.53
		c0.19-0.87,0.38-1.63,0.57-2.27l11.79-37.63h8.45l-10.66,33.4c-0.18,0.51-0.32,0.98-0.4,1.41c-0.09,0.42,0.09,0.64,0.51,0.64
		c0.26,0,0.52-0.15,0.78-0.45c0.26-0.3,0.56-0.62,0.9-0.96l27.29-29.56c1.82-1.96,3.41-3.29,4.75-3.97
		c1.35-0.69,2.79-1.03,4.32-1.03c1.67,0,2.86,0.32,3.59,0.96c0.73,0.64,1.18,1.39,1.35,2.24c0.17,0.85,0.15,1.74-0.05,2.65
		c-0.19,0.92-0.39,1.66-0.57,2.21l-11.69,37.24H423.76z"/>
	<path d="M1012.18,466.91c-0.38,0.3-36.04,30.43-36.04,30.43l9.27-30.43h-37.04c0,0-28.92,94.43-29.44,96.19h37.04
		c0.29-0.95,11.94-39.07,11.94-39.07s28.65,38.55,29.06,39.07h40.65c-1.58-2.12-36.42-48.92-36.42-48.92s50.26-44.94,53.12-47.27
		H1012.18z M810.36,515.04L810.36,515.04c-4.03,13.17-2.51,25.5,4.32,34.71c7.69,10.41,21.51,16.14,38.94,16.14
		c40.95,0,64.04-15.81,74.9-51.25c4.03-13.17,2.5-25.49-4.32-34.7c-7.68-10.41-21.52-16.14-38.94-16.14
		C847.62,463.8,820.31,482.49,810.36,515.04z M877.33,488.38c7.29,0,12.17,1.8,14.93,5.53c3.23,4.37,3.33,11.29,0.29,21.15
		c-3.66,12-12.01,26.29-31.02,26.29c-7.29,0-12.17-1.81-14.93-5.53c-3.23-4.37-3.33-11.29-0.32-21.15
		C849.96,502.67,858.32,488.38,877.33,488.38z M686.77,515.04L686.77,515.04c-4.02,13.18-2.5,25.49,4.32,34.71
		c7.69,10.42,21.52,16.14,38.92,16.14c40.96,0,64.07-15.8,74.92-51.25c4.04-13.17,2.5-25.49-4.32-34.7
		c-7.69-10.4-21.52-16.14-38.93-16.14C724.04,463.8,696.74,482.48,686.77,515.04z M723.03,535.82c-3.23-4.36-3.34-11.28-0.31-21.16
		c3.66-11.98,12.03-26.28,31.02-26.28c7.29,0,12.16,1.81,14.92,5.52c3.23,4.37,3.34,11.29,0.31,21.16
		c-3.66,11.99-12.01,26.29-31.02,26.29C730.67,541.35,725.78,539.54,723.03,535.82z M671.38,467.72c-0.37,0.29-35.53,28-35.53,28
		l8.61-28h-37.02c0,0-28.46,92.94-28.99,94.7h37.05c0.29-0.96,11.76-38.48,11.76-38.48s26.6,37.9,27.01,38.48h39.55
		c-1.45-2.08-33.98-48.49-33.98-48.49s53.21-43.88,56.06-46.21H671.38z M380.06,474.91c0.34,1.14,5.34,18.45,5.73,19.8
		c3.27-1.36,17.19-6.79,29.18-6.79c11.48,0,17.96,1.55,20.42,4.87c1.23,1.68,1.45,3.81,0.63,6.51l-2.33,7.59l-0.68-0.22
		c-15.6-5.14-27.49-4.97-27.6-4.97c-12.39,0-23.54,3.09-32.23,8.93c-8.33,5.61-14.27,13.58-17.17,23.08
		c-2.57,8.39-1.94,15.52,1.85,20.63c4.37,5.93,13.05,9.06,25.06,9.06c11.34,0,23.7-2.91,34.78-8.24l1.42-0.68
		c0,0-1.74,5.7-2.16,7.03h37.08c0.3-0.97,19.74-64.49,19.74-64.49c0.81-2.67,1.23-5.22,1.23-7.63c0-4.05-1.15-7.7-3.42-10.76
		c-5.97-8.05-19.71-12.3-39.76-12.3C407.3,466.31,384.09,473.57,380.06,474.91z M409.43,520.79c2.83,0,12.5,0.22,18.46,3.02
		l0.54,0.25l-4.16,13.57l-0.29,0.14c-5.9,2.76-14.23,4.62-20.73,4.62c-6.24,0-10.6-1.46-12.64-4.21c-0.84-1.13-1.26-2.49-1.26-3.98
		c0-0.88,0.15-1.84,0.46-2.82C391.83,524.76,399.18,520.79,409.43,520.79z M526.86,478.35l-1.7,1.26l3.49-11.41h-37.08
		c0,0-28.01,91.54-28.54,93.29h37.08c0.29-0.96,17.23-56.33,17.23-56.33c2.41-7.82,8.54-13.1,15.24-13.1h9.5
		c3.01,0,5.34,1.02,6.78,2.96c1.05,1.42,1.58,3.28,1.58,5.44c0,1.55-0.27,3.27-0.83,5.07c0,0-14.93,48.83-17.11,55.96h37.07
		c0.29-0.96,20.12-65.76,20.12-65.76c0.57-1.88,1.39-5.22,1.39-9c0-3.87-0.84-8.23-3.66-12.02c-4.12-5.58-11.42-8.41-21.69-8.41
		C545.94,466.31,532.88,473.86,526.86,478.35z M331.91,468.2c-0.28,0.95-10.42,34.09-10.42,34.09h-32.39l10.44-34.09h-37.09
		c0,0-28.01,91.54-28.54,93.29h37.06c0.3-0.96,11.98-39.12,11.98-39.12h32.4c0,0-11.45,37.42-11.97,39.12h37.07
		c0.3-0.96,28.01-91.53,28.55-93.29H331.91z"/>
	<path class="st52" d="M244.96,452.25l-0.49-4.54h-31.41c3.59,37.09-21.98,78.46-58.43,88.32h-0.01c-0.03,0.01-0.05,0.02-0.06,0.02
		c-0.19,0.03-0.66,0.06-0.71-0.48c-0.03-0.18,0.06-0.38,0.2-0.48l-0.02,0.01c30.39-20.3,46.41-52.99,43.67-87.39h-30.76
		c1.34,30.23-18.95,57.75-50,68.92c-0.19,0.06-0.65,0.07-0.7-0.46c-0.02-0.19,0.1-0.36,0.24-0.45h-0.03
		c22.42-15.37,35.92-38.22,35.13-68h-30.76c-0.3,35.66-32.36,60.57-95.13,60.57c0.91,0.49,1.78,0.99,2.64,1.48
		c40.84,22.32,62.13,36.05,92.28,60.61c4.64,3.98,11.1,6.16,17.58,5.93C219.53,570.64,248.81,499.25,244.96,452.25"/>
</g>
</svg>
