<?xml version="1.0" encoding="utf-8"?>
<!-- Generator: Adobe Illustrator 26.5.0, SVG Export Plug-In . SVG Version: 6.00 Build 0)  -->
<svg version="1.1" id="Layer_1" xmlns="http://www.w3.org/2000/svg" xmlns:xlink="http://www.w3.org/1999/xlink" x="0px" y="0px"
	 viewBox="0 0 1080 1080" style="enable-background:new 0 0 1080 1080;" xml:space="preserve">
<style type="text/css">
	.st0{fill-rule:evenodd;clip-rule:evenodd;}
	.st1{fill:#ED1C24;}
	.st2{fill:#E1251B;}
	.st3{fill-rule:evenodd;clip-rule:evenodd;fill:#16397B;}
	.st4{fill:#EE2745;}
	
		.st5{clip-path:url(#SVGID_00000174572084411077536570000008006483474541751197_);fill:url(#SVGID_00000178180366060350968670000000997758090846346939_);}
	
		.st6{clip-path:url(#SVGID_00000133504538035818224040000001768215096451335822_);fill:url(#SVGID_00000024713289827082829130000000487969339883830413_);}
	
		.st7{clip-path:url(#SVGID_00000029036288448109896290000002851656399869601931_);fill:url(#SVGID_00000030449871465252992800000000015831187637208242_);}
	
		.st8{clip-path:url(#SVGID_00000079475592553700779670000006255633792948597179_);fill:url(#SVGID_00000023969782019092033260000008677327112198992572_);}
	.st9{fill:#424243;}
	
		.st10{clip-path:url(#SVGID_00000183939324097439127150000013820482147824869008_);fill:url(#SVGID_00000010292981615148522120000009367797841804766350_);}
	.st11{fill:#FFFFFF;}
	
		.st12{clip-path:url(#SVGID_00000129901562744376236760000007771062602597650340_);fill:url(#SVGID_00000145755737586697049330000015051757320846476700_);}
	
		.st13{clip-path:url(#SVGID_00000155145523335161528610000001700812005286050481_);fill:url(#SVGID_00000005980508578316533260000000190577770004136609_);}
	
		.st14{clip-path:url(#SVGID_00000118357905727881615590000012653505011547730579_);fill:url(#SVGID_00000054968965246062067500000002802512888776061861_);}
	
		.st15{clip-path:url(#SVGID_00000049935674748034355440000001446869639705137073_);fill:url(#SVGID_00000075139489307744054590000002734240847279301514_);}
	
		.st16{clip-path:url(#SVGID_00000010271158277191085790000013794561166912161947_);fill:url(#SVGID_00000111907964767730820520000011859447417591915941_);}
	
		.st17{clip-path:url(#SVGID_00000047777922533494515480000000795127028121567105_);fill:url(#SVGID_00000068673108442436496510000017477170254537356693_);}
	
		.st18{clip-path:url(#SVGID_00000168104532068641242580000004501205882243190436_);fill:url(#SVGID_00000081618795273625737110000004758668405530188446_);}
	.st19{fill-rule:evenodd;clip-rule:evenodd;fill:#C8202F;}
	.st20{fill-rule:evenodd;clip-rule:evenodd;fill:#FFFFFF;}
	.st21{fill-rule:evenodd;clip-rule:evenodd;fill:#F98238;}
	.st22{filter:url(#Adobe_OpacityMaskFilter);}
	.st23{fill:url(#SVGID_00000017499287454711110690000011205015035150081982_);}
	.st24{mask:url(#SVGID_00000007388600043083775850000006038257920691790776_);fill-rule:evenodd;clip-rule:evenodd;fill:#ED1C24;}
	.st25{fill-rule:evenodd;clip-rule:evenodd;fill:#F5333F;}
	.st26{fill-rule:evenodd;clip-rule:evenodd;fill:#ED1C24;}
	.st27{fill-rule:evenodd;clip-rule:evenodd;fill:#F9A46E;}
	.st28{fill-rule:evenodd;clip-rule:evenodd;fill:#F47B26;}
	.st29{fill-rule:evenodd;clip-rule:evenodd;fill:#EB5433;}
	.st30{fill:#1A3282;}
	.st31{fill-rule:evenodd;clip-rule:evenodd;fill:#1A3282;}
	.st32{fill-rule:evenodd;clip-rule:evenodd;fill:#9D9FA2;}
	.st33{fill-rule:evenodd;clip-rule:evenodd;fill:#000303;}
	.st34{fill:#64003D;}
	.st35{fill:#536270;}
	.st36{fill-rule:evenodd;clip-rule:evenodd;fill:#64003D;}
	.st37{fill-rule:evenodd;clip-rule:evenodd;fill:#536270;}
	.st38{fill-rule:evenodd;clip-rule:evenodd;fill:#1A3382;}
	.st39{fill-rule:evenodd;clip-rule:evenodd;fill:#29387E;}
	.st40{fill-rule:evenodd;clip-rule:evenodd;fill:#F37021;}
	.st41{fill-rule:evenodd;clip-rule:evenodd;fill:#005C32;}
	.st42{fill-rule:evenodd;clip-rule:evenodd;fill:#D2AB67;}
	
		.st43{clip-path:url(#SVGID_00000096057297484521982950000018071616113782593977_);fill:url(#SVGID_00000144311317591740645390000006291440344152154761_);}
	
		.st44{clip-path:url(#SVGID_00000013871846991574802530000001626721772849520257_);fill:url(#SVGID_00000041976920189980546710000004999419779459348909_);}
	
		.st45{clip-path:url(#SVGID_00000124144609019773259390000010774507733059044510_);fill:url(#SVGID_00000015333225237588232570000008144800776450471067_);}
	.st46{fill-rule:evenodd;clip-rule:evenodd;fill:#00AEEF;}
	.st47{fill-rule:evenodd;clip-rule:evenodd;fill:#EC008C;}
	.st48{fill-rule:evenodd;clip-rule:evenodd;fill:#FFF200;}
	.st49{fill:#A7AAAC;}
	.st50{fill-rule:evenodd;clip-rule:evenodd;fill:#5C5B5B;}
	.st51{fill:#9D9D9F;}
	.st52{fill:#F04D23;}
	.st53{fill-rule:evenodd;clip-rule:evenodd;fill:#2E3192;}
	.st54{fill-rule:evenodd;clip-rule:evenodd;fill:#C4312D;}
	.st55{fill:#552715;}
	.st56{fill:#010101;}
	.st57{fill:#E31E2E;}
	.st58{fill:url(#SVGID_00000103977299721878055840000010373938048192653203_);}
	.st59{fill:url(#SVGID_00000167369055067877371810000005733846810689767074_);}
	.st60{clip-path:url(#SVGID_00000132780088624628448420000012361924222970796174_);}
	.st61{clip-path:url(#SVGID_00000086691975169145256570000008493976780504701109_);}
	.st62{clip-path:url(#SVGID_00000178899671372274217840000010617047083563400324_);}
	.st63{clip-path:url(#SVGID_00000147211183236896507940000003449118267147858861_);}
	.st64{clip-path:url(#SVGID_00000010990755116004934160000003809333372579683213_);}
	.st65{clip-path:url(#SVGID_00000046297596176480284860000012006092694605343662_);}
	.st66{clip-path:url(#SVGID_00000111163554624380560980000015969504221391009688_);}
	.st67{clip-path:url(#SVGID_00000096052296558854723550000016172702466949082782_);}
	.st68{clip-path:url(#SVGID_00000049207510242397132010000012017234078265104557_);}
	.st69{clip-path:url(#SVGID_00000085238217188780346390000013763112111485583001_);}
	.st70{clip-path:url(#SVGID_00000001635545008859434970000017254730931079389070_);}
	.st71{fill:#2650A1;}
	.st72{fill:url(#SVGID_00000183241553940589304700000016383549376112848289_);}
	.st73{fill:#FEFEFE;}
	.st74{fill:#FDFDFD;}
	.st75{fill:#FCFCFC;}
	.st76{fill:#FBFBFB;}
	.st77{fill:#FAFAFA;}
	.st78{fill:#F9F9F9;}
	.st79{fill:#F8F8F8;}
	.st80{fill:#F7F7F7;}
	.st81{fill:#F6F6F6;}
	.st82{fill:#F5F5F5;}
	.st83{fill:#F4F4F4;}
	.st84{fill:#F3F3F3;}
	.st85{fill:#F2F2F2;}
	.st86{fill:#F1F1F1;}
	.st87{fill:#F0F0F0;}
	.st88{fill:#EFEFEF;}
	.st89{fill:#EEEEEE;}
	.st90{fill:#EDEDED;}
	.st91{fill:#ECECEC;}
	.st92{fill:#EBEBEB;}
	.st93{fill:#EAEAEA;}
	.st94{fill:#E9E9E9;}
	.st95{fill:#E8E8E8;}
	.st96{fill:#E7E7E7;}
	.st97{fill:#E6E6E6;}
	.st98{fill:#E5E5E5;}
	.st99{fill:#E4E4E4;}
	.st100{fill:#E3E3E3;}
	.st101{fill:#E2E2E2;}
	.st102{fill:#E1E1E1;}
	.st103{fill:#E0E0E0;}
	.st104{fill:#DFDFDF;}
	.st105{fill:#DEDEDE;}
	.st106{fill:#DDDDDD;}
	.st107{fill:#DCDCDC;}
	.st108{fill:#DBDBDB;}
	.st109{fill:#DADADA;}
	.st110{fill:#D9D9D9;}
	.st111{fill:#D92231;}
	.st112{fill:url(#SVGID_00000032623993490249440720000009371069531508290490_);}
	.st113{fill:url(#SVGID_00000074428888712200335730000003515881789993892020_);}
	.st114{opacity:0.8;}
	.st115{fill:url(#SVGID_00000113342592281706547340000005430020565984251559_);}
	.st116{fill:url(#SVGID_00000132801562968953455240000000283170296790873223_);}
	.st117{fill-rule:evenodd;clip-rule:evenodd;fill:#010101;}
	.st118{fill:#80A845;}
	.st119{fill-rule:evenodd;clip-rule:evenodd;fill:#80A845;}
	.st120{fill:url(#SVGID_00000013889819839198965180000014516549053031369098_);}
	.st121{fill-rule:evenodd;clip-rule:evenodd;fill:#04984A;}
	.st122{fill-rule:evenodd;clip-rule:evenodd;fill:url(#SVGID_00000105419906406624134830000004635612769521719471_);}
	.st123{fill:url(#SVGID_00000142134566243517978220000009374296092077466502_);}
	.st124{fill:url(#SVGID_00000129894289682515185460000003623502402292187293_);}
	.st125{fill:url(#SVGID_00000119799117608136419100000003269786703081993095_);}
	.st126{fill:url(#SVGID_00000016040395228129152190000010326578614299050115_);}
	.st127{fill:url(#SVGID_00000099658899627054613860000016717592787125136546_);}
	.st128{fill:url(#SVGID_00000140735302029212214380000009120731478750557363_);}
	.st129{fill:url(#SVGID_00000116229201401507491860000010105621297214039970_);}
	.st130{fill:url(#SVGID_00000092419215177092779880000010376622931844874674_);}
	.st131{fill:url(#SVGID_00000136384068562698769590000007499036973061236155_);}
	.st132{fill:url(#SVGID_00000086661191368268535570000018388893467167276432_);}
	.st133{fill:url(#SVGID_00000114761167407243585810000015078931362087229324_);}
	.st134{fill:url(#SVGID_00000085949548007500550910000010756121994658632104_);}
	.st135{fill:url(#SVGID_00000098921778282195570170000013616582690003074441_);}
	.st136{fill:url(#SVGID_00000089571910907613368570000005113791067379364258_);}
	.st137{fill-rule:evenodd;clip-rule:evenodd;fill:url(#SVGID_00000044864886855495019120000001557305009010244286_);}
	.st138{fill:#0A529D;}
	.st139{fill:url(#SVGID_00000018919696211265519680000009903997368359900056_);}
	.st140{fill:url(#SVGID_00000127042649735236908370000008419627667696227759_);}
	.st141{fill:url(#SVGID_00000161610321074901605260000002650716685847728017_);}
	.st142{fill:url(#SVGID_00000054228465493770384010000006971869754345564308_);}
	.st143{fill:url(#SVGID_00000179637820238033801880000008985659384708245151_);}
	.st144{fill:url(#SVGID_00000049187124685461476350000008460088752823511432_);}
	.st145{fill:url(#SVGID_00000157295034254123178070000016610620989383703682_);}
	.st146{fill:url(#SVGID_00000098200257906158191650000009606093851455979396_);}
	.st147{fill:url(#SVGID_00000142172080520325393840000000517549879892934071_);}
	.st148{fill:url(#SVGID_00000125581801999166365170000011041325923210622083_);}
	.st149{fill:url(#SVGID_00000175324125555430399080000017641958728943169669_);}
	.st150{fill:url(#SVGID_00000087414427588062537180000006350966946767249281_);}
	.st151{fill-rule:evenodd;clip-rule:evenodd;fill:url(#SVGID_00000077294981694870844620000005638093061520059834_);}
	.st152{fill:url(#SVGID_00000165929911088137624020000015657192357034093745_);}
	.st153{fill:url(#SVGID_00000049198944404312126460000005133024413241377671_);}
	.st154{fill:url(#SVGID_00000009585309929153992880000009699265999053948595_);}
	.st155{fill:url(#SVGID_00000084492433172252122780000001061989314776691898_);}
	.st156{fill:url(#SVGID_00000124154644030701225540000017858456121343907262_);}
	.st157{fill:url(#SVGID_00000001647859003397862010000009288828023493023156_);}
	.st158{fill:url(#SVGID_00000150813909875034034480000005448238069351935893_);}
	.st159{fill:url(#SVGID_00000077282093971473595110000004686764852169209501_);}
	.st160{fill:url(#SVGID_00000054258585048295892560000016201122083838571907_);}
	.st161{fill:url(#SVGID_00000115476016860061106310000010141077185368679338_);}
	.st162{fill:url(#SVGID_00000036946479178041300960000002632015972762177213_);}
	.st163{fill:url(#SVGID_00000047020282515564184810000012956246799980250250_);}
	.st164{fill:url(#SVGID_00000111168348429484117950000007300252730344754089_);}
	.st165{fill:url(#SVGID_00000086664438795374003920000013409883180994434491_);}
	.st166{fill:url(#SVGID_00000013174677313683682760000004130695582722715537_);}
	.st167{fill:url(#SVGID_00000046330251760248844290000012369080716468043180_);}
	.st168{fill:url(#SVGID_00000168797904952677390680000009866492993430400152_);}
	.st169{fill-rule:evenodd;clip-rule:evenodd;fill:url(#SVGID_00000098216292802123730260000009721293107309766334_);}
	.st170{fill:url(#SVGID_00000170968384118897738490000011956265652871083939_);}
	.st171{fill:url(#SVGID_00000149374201138922914230000009061870698734058119_);}
	.st172{fill:url(#SVGID_00000175323346667574786690000016474226262797277837_);}
	.st173{fill:url(#SVGID_00000001637591703734156620000016858661590751430787_);}
	.st174{fill:url(#SVGID_00000076592581124565090150000002615813717759083164_);}
	.st175{fill:url(#SVGID_00000023986298724705851170000009088341429579656376_);}
	.st176{fill:url(#SVGID_00000078749638920910808570000013309422609448941477_);}
	.st177{fill:url(#SVGID_00000150815783888528317640000006421817242166342292_);}
	.st178{fill:url(#SVGID_00000121270789129663964750000005587730666244826798_);}
	.st179{fill:url(#SVGID_00000092451340693989874590000002644537530390944660_);}
	.st180{fill:url(#SVGID_00000049208378836347488530000008828469333454758032_);}
	.st181{fill:url(#SVGID_00000054252684911292177860000018302182514506841504_);}
	.st182{fill:url(#SVGID_00000124123622230833245110000008320936777797252514_);}
	.st183{fill:url(#SVGID_00000062151776269556658910000005612427232842001311_);}
	.st184{fill-rule:evenodd;clip-rule:evenodd;fill:url(#SVGID_00000098184095344065635210000016411648378159319229_);}
	.st185{fill:url(#SVGID_00000169539686790205430360000003079418135248616112_);}
	.st186{fill:url(#SVGID_00000150824856752306494350000008097485945461888443_);}
	.st187{fill:url(#SVGID_00000140007467251553509160000016271280442958472858_);}
	.st188{fill:url(#SVGID_00000026153129106740997610000017185387958009769651_);}
	.st189{fill:url(#SVGID_00000158016702009506392420000009996064408510799287_);}
	.st190{fill:url(#SVGID_00000062163046945476171690000014134700049939421577_);}
	.st191{fill:url(#SVGID_00000072257769940979132630000014640316654188179608_);}
	.st192{fill:url(#SVGID_00000088848695330464124720000001310034706706401435_);}
	.st193{fill:url(#SVGID_00000004530959820316510840000008050110854199696783_);}
	.st194{fill:url(#SVGID_00000054979724331824533880000016803293673562938301_);}
	.st195{fill:url(#SVGID_00000093875407949915901510000017077408484797955973_);}
	.st196{fill:url(#SVGID_00000044861582067742972270000003406551298270872724_);}
	.st197{fill:url(#SVGID_00000074441556852894770370000013126006743647568826_);}
	.st198{fill:url(#SVGID_00000016790061602456238080000011946548672823949216_);}
	.st199{fill:url(#SVGID_00000116921978969453330910000009707651664070007440_);}
	.st200{fill:url(#SVGID_00000181771371110963707390000017111988739682366113_);}
	.st201{fill:url(#SVGID_00000008120092538403670000000014011107551816207772_);}
	.st202{fill:url(#SVGID_00000099634560529573809990000012481897826604554413_);}
	.st203{fill:url(#SVGID_00000138544938468248623800000016735363911527259826_);}
	.st204{fill-rule:evenodd;clip-rule:evenodd;fill:url(#SVGID_00000104691964434757658580000015500847726207934134_);}
	.st205{fill:url(#SVGID_00000180345935690119855610000008745718983820495805_);}
	.st206{fill:url(#SVGID_00000085958448129558805960000005373195738199748271_);}
	.st207{fill:url(#SVGID_00000043442363757321908120000012756472736416705972_);}
	.st208{fill:url(#SVGID_00000004523062810987255310000009816141317534912924_);}
	.st209{fill:url(#SVGID_00000039854604565624231310000001127203984411468705_);}
	.st210{fill:url(#SVGID_00000143619633031482340000000014677399751157709697_);}
	.st211{fill:url(#SVGID_00000078742615097000958970000011378309912178455218_);}
	.st212{fill:url(#SVGID_00000131342345341066048510000008208498327955059080_);}
	.st213{fill:url(#SVGID_00000129922771328466104790000002573743828246718861_);}
	.st214{fill:url(#SVGID_00000020374779131939565130000011428951997992906156_);}
	.st215{fill:url(#SVGID_00000067221790849967278540000007947745920569303719_);}
	.st216{fill:url(#SVGID_00000127735906974879494620000001430582272256137092_);}
	.st217{fill:url(#SVGID_00000058553723042110089070000004582053905538845074_);}
	.st218{fill:url(#SVGID_00000073693401386340035740000015967406738321676699_);}
	.st219{fill:url(#SVGID_00000132785166029925123800000017745393106630138043_);}
	.st220{fill:url(#SVGID_00000026152280698964148350000013096781466543414937_);}
	.st221{fill-rule:evenodd;clip-rule:evenodd;fill:url(#SVGID_00000045612515891749453470000008211883026001455767_);}
	.st222{fill:url(#SVGID_00000127756218552317782130000016531302151250785694_);}
	.st223{fill:url(#SVGID_00000096034578075419605650000000281716012163598248_);}
	.st224{fill:url(#SVGID_00000049182700983386943740000016074679297807105159_);}
	.st225{fill:url(#SVGID_00000142871874886504164330000008435884998130512547_);}
	.st226{fill:url(#SVGID_00000170258194111397794360000004116214345485802928_);}
	.st227{fill:url(#SVGID_00000063608324769936299670000001211282925582513559_);}
	.st228{fill:url(#SVGID_00000114055935185707657570000013324099681368565669_);}
	.st229{fill:url(#SVGID_00000139994272765797562860000010947391400022172070_);}
	.st230{fill:url(#SVGID_00000030446940997580987040000011432256204411229844_);}
	.st231{fill:url(#SVGID_00000043445262397128132070000011997762795725543590_);}
	.st232{fill:url(#SVGID_00000150814085476189008800000011062609781031348353_);}
	.st233{fill:url(#SVGID_00000072962311931557480570000004906519918594373277_);}
	.st234{fill:url(#SVGID_00000081646372610669071090000011581410930758799495_);}
	.st235{fill:url(#SVGID_00000121970413603700903620000013198058184519958194_);}
	.st236{fill:url(#SVGID_00000153697512963315040250000010537542602163327874_);}
	.st237{fill-rule:evenodd;clip-rule:evenodd;fill:url(#SVGID_00000179617642351986485550000000681284978252247989_);}
	.st238{fill:url(#SVGID_00000002373921677140599210000005812992814570813579_);}
	.st239{fill:url(#SVGID_00000052079999514307399520000003767869022812736942_);}
	.st240{fill:url(#SVGID_00000039848152439170269300000005658908995149103769_);}
	.st241{fill:url(#SVGID_00000020375284264009787980000009196184536171498932_);}
	.st242{fill:url(#SVGID_00000018941952538322578510000007784231403930341532_);}
	.st243{fill:url(#SVGID_00000136392043384995713970000003244957973993830530_);}
	.st244{fill:url(#SVGID_00000053540274557688484620000008364977542386094009_);}
	.st245{fill:url(#SVGID_00000067214127620558551280000004529404668982655388_);}
	.st246{fill:url(#SVGID_00000046335230949771504140000008034456843352795572_);}
	.st247{fill:url(#SVGID_00000054251254700108588150000010785160744801341361_);}
	.st248{fill:url(#SVGID_00000060000621369651045830000017485436448930213526_);}
	.st249{fill:url(#SVGID_00000073691827200701394810000001847447754989918627_);}
	.st250{fill:url(#SVGID_00000127045150206583373910000012144797287628565378_);}
	.st251{fill:url(#SVGID_00000139998200776502188560000002131401808647227831_);}
	.st252{fill:url(#SVGID_00000135681224725173720110000005949624328197808518_);}
	.st253{fill-rule:evenodd;clip-rule:evenodd;fill:url(#SVGID_00000048487742621196286060000007216763360981214337_);}
	.st254{fill:url(#SVGID_00000065784046544603187350000007257269253596055202_);}
	.st255{fill:url(#SVGID_00000008828497638802852140000006107366768521392538_);}
	.st256{fill:url(#SVGID_00000162311366672654755210000007114732935754744192_);}
	.st257{fill:url(#SVGID_00000141434834731086336420000003548370627605930912_);}
	.st258{fill:url(#SVGID_00000070822494164387509670000018049161113084657326_);}
	.st259{fill:url(#SVGID_00000130646779889778095990000013388105756178156719_);}
	.st260{fill:url(#SVGID_00000047749750635261741800000012416424757270783388_);}
	.st261{fill:url(#SVGID_00000078024501399052240960000014917492740778910855_);}
	.st262{fill:url(#SVGID_00000038399260734684388490000014573203195258835606_);}
	.st263{fill:url(#SVGID_00000034048371907506884300000014500297531088093627_);}
	.st264{fill:url(#SVGID_00000098210599554220599830000012015571428069536648_);}
	.st265{fill:url(#SVGID_00000047029303109213974660000016371102066092053397_);}
	.st266{fill:url(#SVGID_00000140692560761733813520000001799764296389025921_);}
	.st267{fill:url(#SVGID_00000002348753237894517410000003835601977365728186_);}
	.st268{fill:url(#SVGID_00000050660978469752795480000008559776573539514245_);}
	.st269{fill-rule:evenodd;clip-rule:evenodd;fill:url(#SVGID_00000141418741702346838160000015485964436651732669_);}
	.st270{fill:url(#SVGID_00000022524236963168270790000016678391787823944378_);}
	.st271{fill:url(#SVGID_00000150801208080505255240000000811910752927022507_);}
	.st272{fill:url(#SVGID_00000048486251806492200830000012712275256414575765_);}
	.st273{fill:url(#SVGID_00000041268281415371300980000000108414676084809345_);}
	.st274{fill:url(#SVGID_00000134237328997835065640000011357712259882441625_);}
	.st275{fill:url(#SVGID_00000047780474264701225190000009910295888822275765_);}
	.st276{fill:url(#SVGID_00000141455705958441888710000017211922472061888654_);}
	.st277{fill:url(#SVGID_00000000930131763210991430000008647180806619455394_);}
	.st278{fill:url(#SVGID_00000099641967094932363530000016926189101646642104_);}
	.st279{fill:url(#SVGID_00000182486492002953261880000011200850018311514545_);}
	.st280{fill:url(#SVGID_00000045618701384475120610000007253509328154276777_);}
	.st281{fill:url(#SVGID_00000026856948193014552260000006606944581381885368_);}
	.st282{fill:url(#SVGID_00000133498788818029941850000008390708452002389664_);}
	.st283{fill:url(#SVGID_00000102510191046761861280000005263266913311433651_);}
	.st284{fill:url(#SVGID_00000175287730859094017940000000687370279627753391_);}
	.st285{fill-rule:evenodd;clip-rule:evenodd;fill:url(#SVGID_00000030476531167121135470000016519598241691246776_);}
	.st286{fill:url(#SVGID_00000124860919529848292460000008099861823937143971_);}
	.st287{fill:url(#SVGID_00000028325149914849176480000016775996675170159801_);}
	.st288{fill:url(#SVGID_00000171699299145220766440000015854799996647855497_);}
	.st289{fill:url(#SVGID_00000083062276037618228070000014489436017020960940_);}
	.st290{fill:url(#SVGID_00000122722825509994483210000007401058616345024897_);}
	.st291{fill:url(#SVGID_00000013906764086927825970000011208790390921794206_);}
	.st292{fill:url(#SVGID_00000072978907739205750550000002629002591230318489_);}
	.st293{fill:url(#SVGID_00000038378221731380407790000011231294627207139757_);}
	.st294{fill:url(#SVGID_00000009584556193272156560000017486305496257135542_);}
	.st295{fill:url(#SVGID_00000097468349161616192910000016403570622575820699_);}
	.st296{fill:url(#SVGID_00000031180178712291911060000009416883632949103765_);}
	.st297{fill:url(#SVGID_00000060710593128895328180000009643327509740250281_);}
	.st298{fill:url(#SVGID_00000149365356112230940170000016055713925125977731_);}
	.st299{fill:url(#SVGID_00000106840187232282230320000009513168552028419714_);}
	.st300{fill:url(#SVGID_00000032647273098911928680000007403121447740937112_);}
	.st301{fill:url(#SVGID_00000038405858229496219770000010395314195706901424_);}
	.st302{fill:url(#SVGID_00000169560093457310578120000004410154036664948125_);}
	.st303{fill:url(#SVGID_00000044864197017020947160000009562473624149036194_);}
	.st304{fill-rule:evenodd;clip-rule:evenodd;fill:url(#SVGID_00000171692057307322069080000004081131867910537372_);}
	.st305{fill:url(#SVGID_00000044859314345552891370000009601502411809302962_);}
	.st306{fill:url(#SVGID_00000098183591393409096330000000772674973896283818_);}
	.st307{fill:url(#SVGID_00000142895490811761800450000000279147900422751108_);}
	.st308{fill:url(#SVGID_00000172425411300976672930000005395316689834535615_);}
	.st309{fill:url(#SVGID_00000146484272675212867740000000523741288176795789_);}
	.st310{fill:url(#SVGID_00000113346451670458416520000013281024407830134707_);}
	.st311{fill:url(#SVGID_00000133514242731083328330000005434078352185058209_);}
	.st312{fill:url(#SVGID_00000171680345683084890540000008708043652569904259_);}
	.st313{fill:url(#SVGID_00000081617689041620874770000004120781798748944038_);}
	.st314{fill:url(#SVGID_00000011724706455256533000000009763739207164376969_);}
	.st315{fill:url(#SVGID_00000172429250289685599110000011302945292451922313_);}
	.st316{fill:url(#SVGID_00000142138776458378014560000017253102356879909537_);}
	.st317{fill:url(#SVGID_00000000911089252457874430000015815236184420901511_);}
	.st318{fill:url(#SVGID_00000163755442163266784120000002210931391055388582_);}
	.st319{fill:url(#SVGID_00000142159040252632993810000008497893335708995757_);}
	.st320{fill:url(#SVGID_00000098179309525676682970000009436323105119157909_);}
	.st321{fill:url(#SVGID_00000038379062305174853010000016022154242700091041_);}
	.st322{fill:url(#SVGID_00000039829384798735379350000018263861013450193285_);}
	.st323{fill:url(#SVGID_00000063608012898781851910000014438854624467009703_);}
	.st324{fill:url(#SVGID_00000120542091231921890610000004255923538355022221_);}
	.st325{fill-rule:evenodd;clip-rule:evenodd;fill:url(#SVGID_00000011740056485897273220000002582896961372162213_);}
	.st326{fill:url(#SVGID_00000147941647079543457280000017505224141925107641_);}
	.st327{fill:url(#SVGID_00000099648553507336504650000000256878226796379283_);}
	.st328{fill:url(#SVGID_00000177448493618589166290000008198208085083491758_);}
	.st329{fill:url(#SVGID_00000174601709410714899500000000034395581498346122_);}
	.st330{fill:url(#SVGID_00000100376975701525974790000010463999957692938407_);}
	.st331{fill:url(#SVGID_00000000905510523825097910000014370653419437388188_);}
	.st332{fill:url(#SVGID_00000031918760165492678800000004692641949645050762_);}
	.st333{fill:url(#SVGID_00000047751495370624918270000014818062540699032222_);}
	.st334{fill:url(#SVGID_00000140014486917145918530000014522413010288204192_);}
	.st335{fill:url(#SVGID_00000096054218983237544770000001419290286463780525_);}
	.st336{fill:url(#SVGID_00000127744739288855027190000003905569834024359811_);}
	.st337{fill:url(#SVGID_00000182508585171993048840000015784718265483438773_);}
	.st338{fill:url(#SVGID_00000151523994721343150660000013303627377209245114_);}
	.st339{fill:url(#SVGID_00000086690517225954303140000001503108874681834377_);}
	.st340{fill:url(#SVGID_00000155107035159760946950000008469546397424215218_);}
	.st341{fill:url(#SVGID_00000001635488820948490650000011810972056900143526_);}
	.st342{fill-rule:evenodd;clip-rule:evenodd;fill:url(#SVGID_00000054226806913754507940000012091598567828585859_);}
	.st343{fill:url(#SVGID_00000183249925579106015610000001748957666321999522_);}
	.st344{fill:url(#SVGID_00000050641474140004166970000010008625226375289222_);}
	.st345{fill:url(#SVGID_00000163066201516019093300000001998923282257616768_);}
	.st346{fill:url(#SVGID_00000164484272133047125210000006563057090546743466_);}
	.st347{fill:url(#SVGID_00000146480247424274760250000012697339049257687481_);}
	.st348{fill:url(#SVGID_00000014619041392842843400000010487993803396175764_);}
	.st349{fill:url(#SVGID_00000152251617870663963740000016500317909341400744_);}
	.st350{fill:url(#SVGID_00000070096430563882375920000004522200261472516538_);}
	.st351{fill:url(#SVGID_00000122705552241514856090000013550572354024110764_);}
	.st352{fill:url(#SVGID_00000151528739722661741510000013951817874299612572_);}
	.st353{fill:url(#SVGID_00000159444922136321372960000015461574681012175267_);}
	.st354{fill:url(#SVGID_00000064326933472566925510000014629210344923693501_);}
	.st355{fill:url(#SVGID_00000031196293808639184590000004292053741305889195_);}
	.st356{fill:url(#SVGID_00000137829420719115162920000016646964688685787777_);}
	.st357{fill:url(#SVGID_00000131346456776023734390000001892178955299783581_);}
	.st358{fill:url(#SVGID_00000051347999533695760040000002286075118905332630_);}
	.st359{fill:url(#SVGID_00000039831322192315065220000008950826113296502190_);}
	.st360{fill:url(#SVGID_00000006683140917968614760000009304154358026951323_);}
	.st361{fill:url(#SVGID_00000072999099610474442120000012942423732399325828_);}
	.st362{fill:url(#SVGID_00000145747481168568141430000007566381977038053509_);}
	.st363{fill:#C1282D;}
	.st364{fill-rule:evenodd;clip-rule:evenodd;fill:url(#SVGID_00000138555244093118404580000011512577000330650039_);}
	.st365{fill:url(#SVGID_00000078019888514371035440000001602971400658491273_);}
	.st366{fill:url(#SVGID_00000173139755828145544350000000038951079126223276_);}
	.st367{fill:url(#SVGID_00000036251916180984729410000002421905550397025704_);}
	.st368{fill:url(#SVGID_00000103228572785626427150000001567408378787458959_);}
	.st369{fill:url(#SVGID_00000158026082468040800750000013633974014011862153_);}
	.st370{fill:url(#SVGID_00000063619503280745318680000002110661564438677676_);}
	.st371{fill:url(#SVGID_00000124878847228450120250000006552719941202280596_);}
	.st372{fill:url(#SVGID_00000010308859569819526660000008264184357435616158_);}
	.st373{fill:url(#SVGID_00000152946061487423227930000000987563670526749606_);}
	.st374{fill:url(#SVGID_00000111878619915146922510000003552390528563073920_);}
	.st375{fill:url(#SVGID_00000044175650981008544860000017899511568145521598_);}
	.st376{fill:url(#SVGID_00000108284152320693666030000006035165812933083533_);}
	.st377{fill:url(#SVGID_00000069355813993450395990000010443354095053619592_);}
	.st378{fill:url(#SVGID_00000052817358469056012820000017161995883412248206_);}
	.st379{fill:url(#SVGID_00000088124711236909784430000014834677832722856595_);}
	.st380{fill:url(#SVGID_00000042710004612289605660000006536918943859817115_);}
	.st381{fill-rule:evenodd;clip-rule:evenodd;fill:url(#SVGID_00000098937666917593031360000011868267441058008710_);}
	.st382{fill:url(#SVGID_00000088850040767301844930000011952832706600380337_);}
	.st383{fill:url(#SVGID_00000097494723376971348190000009473522562916785284_);}
	.st384{fill:url(#SVGID_00000142878739010002636880000012820406695982938785_);}
	.st385{fill:url(#SVGID_00000022536860373122083480000017441588006816313739_);}
	.st386{fill:url(#SVGID_00000157280084757398621330000015029595039317933205_);}
	.st387{fill:url(#SVGID_00000109002573260569932220000016179062304413589674_);}
	.st388{fill:url(#SVGID_00000173880003870990070780000003802331077743935891_);}
	.st389{fill:url(#SVGID_00000061452645633820063540000003116084437599481505_);}
	.st390{fill:url(#SVGID_00000008151404588537952220000008046594618934956937_);}
	.st391{fill:url(#SVGID_00000165918950110024695480000006676761162618813850_);}
	.st392{fill:url(#SVGID_00000122701522312494047490000004243436271718224292_);}
	.st393{fill:url(#SVGID_00000028302001526848510230000013900580500396075417_);}
	.st394{fill:url(#SVGID_00000126304366061310286540000008465336372090602934_);}
	.st395{fill:url(#SVGID_00000083076506986671216020000017511270967180202133_);}
	.st396{fill:url(#SVGID_00000011730069105380903700000004364232736432359084_);}
	.st397{fill:url(#SVGID_00000038399858115768595870000012756196270027724174_);}
	.st398{fill:url(#SVGID_00000129928372101475259860000014920859558779497623_);}
	.st399{fill:url(#SVGID_00000106114442098484968180000007221251534201082028_);}
	.st400{fill:url(#SVGID_00000027591100102486008790000013588817036640765091_);}
	.st401{fill:url(#SVGID_00000031199772431147207400000002409440778758201756_);}
</style>
<g>
	<path class="st38" d="M436.43,224.82c0,0,2.28,8.63-1.44,11.63c0,0,7.88,2.55,9.06,7.35c-1.03-3.87-1.15-7.69,0.71-11.35
		C441.06,231.77,438.44,228.91,436.43,224.82 M598.03,205.02L598.03,205.02l1.77-6.29l7.29,0.26l-2.01,6.1L598.03,205.02z
		 M556.03,198.17L556.03,198.17h-15.19l-0.95,3.01l6.4,0.03c0.37,0,0.69,0.18,0.69,0.77c0,0.34-3.21,9-3.61,9.99
		c-0.45,1.18-3.42,9.2-3.52,9.91h-4.21c-0.67,0-1.58-0.61-1.58-1.73c0-1.68,4.27-10.72,4.98-13h-6.78c-0.14,0.93-3.31,7.9-3.92,9.45
		c-0.9,2.31-1.34,2.17-2.77,3.37c-0.52,0.45-2.7,2.3-3.29,2.3h-0.57c-0.51,0-1.02-0.77-1.02-1.53c0-3.8,3.86-10.83,3.86-12.82
		c0-0.2-0.34-0.77-0.57-0.77h-8.73l-0.93,3.43l1.95,0.02c0.26,0,0.34,0.14,0.34,0.56c0,0.32-1.64,4.98-1.86,5.63
		c-0.31,0.81-1.59,5.28-1.99,5.28l-6.78,0.02c-0.22,0-0.67-0.49-0.67-0.98v-1.14c0-0.89,3.68-11.54,4.18-12.81h-7.5
		c-0.93,3-2.01,6.7-3.19,9.32c-0.89,1.99-3.45,5.6-5.28,5.6h-0.24l-1.24-0.22c-0.16-0.38-0.45-0.63-0.45-1.12
		c0-3.07,4.06-11.17,4.06-13.02c0-0.43-0.08-0.41-0.22-0.75l-12.23,0.26c0.29-0.95,2.16-7.29,2.16-7.9v-1.15
		c-0.27-0.1-0.27-0.21-0.57-0.21l-13.14,0.02l-1.05,3.03c0.83,0.03,6.26,0.01,6.26,0.79c0,0.17-2.36,8.59-2.64,9.51
		c-1,3.41-1.46,6.33-3.11,8.71c-1.68,2.5-4,2.07-7.05,2.07c-2.78,0-5.21,0.2-8.04,0.2l-1.02,2.28c5.93,0.02,11.86,0,17.79,0
		c3.65,0,5.28,0.32,6.35-4.37c0.24-1.09,2.79-9.61,3.15-9.61h2.15c1.04,0,1.65,0.14,2.62,0.19c0.97,0.04,0.24,1.29-0.07,2.62
		c-0.28,1.19-1.42,5.52-1.42,6.58v0.56c0,2.94,1.58,4.59,3.39,4.59h1.02c1.79,0,3.43-0.61,4.79-1.32c0.83-0.43,1.26-0.59,2.05-1.12
		c0.59-0.41,1.4-1.19,1.89-1.4c0.44,1.55,0.75,3.45,2.16,3.45l21.52-0.02c0.85,0,3.96-2.62,5.1-3.07v0.57
		c0,1.09,0.93,2.49,1.58,2.49l33.53-0.03l11.66-0.24l3-9.28c1.43-0.27,3.92-2.54,5.39-2.54h0.12c0.37,0,0.54,0.69,0.54,1.34
		c0,0.81-2.6,5.08-2.6,6.88v1.16c0,1.37,1.43,2.47,2.28,2.47l29.1-0.01c0.59,0,2.6-8.17,3.21-8.96c0.28-0.4,5.87-3.49,6.42-3.49
		h0.12c0.26,0,0.32,0.14,0.32,0.59c0,1.55-2.7,8.29-2.7,9.75v0.95c0,0.63,0.49,1.16,0.9,1.16l17.67-0.02c0.42,0,0.81-1.99,0.91-2.68
		h-11.9c-0.26,0-0.44-0.31-0.44-0.75c0-1.46,2.6-6.83,2.6-9.77v-0.75c0-2.58-2.07-4.4-3.84-4.4h-0.12c-2.9,0-6.08,3.41-8.61,4.4
		c0.12-0.85,0.45-1.29,0.45-2.11c0-0.91-0.35-1.52-0.89-1.52h-7.82c-0.4,0-0.98,3-1.01,3.84h1.01c0.26,0,0.57,0.51,0.57,0.95
		c0,0.34-2.96,8.89-3.17,10.34h-5.44l4.21-14.91l-7.27,0.22l-4.67,14.85l-3.82,0.04c-0.67,0-1.24-0.37-1.24-1.54
		c0-1.87,3.07-7.71,3.05-9.75v-1.53c0-2.21-1.95-3.07-3.39-3.07h-0.57c-2.39,0-4.81,1.99-7.02,2.3l3.43-10.68l-13.75-0.02l-1.4,3.19
		l5.38,0.06c0.31,0,0.31,0.1,0.58,0.21v0.57c0,0.81-5.65,17.88-6.34,20.09l-4.65-0.02L561.6,222c-0.32,0-0.69-0.53-0.69-1.08
		c0-2.05,1.24-5.22,1.73-6.83c0.67-2.11,1.66-3.9,3.49-3.9h0.45l2.37,0.53c0.21,0.1,1.33-3.31,1.46-3.77
		c-3.37,0-7.9-0.49-10.42,0.93c-1.91,1.07-1.93,2.01-2.82,4.6c-0.51,1.47-1.71,4.31-1.71,6.34c0,1.3,0.41,2.19,0.69,3.04l-8.69,0.02
		L556.03,198.17z M654.47,224.82L654.47,224.82c0,0-2.26,8.63,1.46,11.63c0,0-7.88,2.55-9.06,7.35c1.02-3.87,1.14-7.69-0.73-11.35
		C649.84,231.77,652.46,228.91,654.47,224.82z M434.16,182.62L434.16,182.62v1.85c0.12,0.67,0.2,1.28,0.24,1.83l-15.01,1.05
		c0.08,1.3,0.3,2.82,0.67,4.53c-0.57-0.03-0.91-0.06-1.05-0.03c-0.14,0-0.49,0.06-1.03,0.18l-0.87-12.61
		c0.56,0.03,0.89,0.06,1.03,0.03c0.14,0,0.49-0.06,1.04-0.18c-0.09,1.97-0.1,3.45-0.04,4.4L434.16,182.62z M435.26,163.14
		L435.26,163.14c-0.39,2.76-1.44,4.81-3.19,6.22c-1.79,1.42-4.04,1.95-6.73,1.56c-1.64-0.22-3.07-0.81-4.29-1.79
		c-1.22-0.95-2.09-2.21-2.66-3.75c-0.57-1.56-0.71-3.31-0.42-5.26c0.42-3.14,1.68-5.34,3.8-6.62c0.93-0.57,1.93-0.95,2.98-1.12
		c1.08-0.17,2.11-0.19,3.09-0.04c2.46,0.35,4.38,1.5,5.81,3.45C435.13,157.8,435.66,160.26,435.26,163.14z M426.62,167L426.62,167
		c2.5,0.34,4.47-0.14,5.87-1.44c0.73-0.67,1.18-1.59,1.33-2.72c0.35-2.36-0.75-4.15-3.23-5.4c-1.14-0.56-2.38-0.94-3.76-1.12
		c-1.1-0.17-2.19-0.12-3.29,0.08c-2.46,0.49-3.84,1.85-4.14,4.06c-0.37,2.65,0.87,4.53,3.74,5.67
		C424.11,166.51,425.26,166.79,426.62,167z M422.5,140.63L422.5,140.63c0.08-0.25,0.32-0.81,0.71-1.7c0.14-0.67,0.3-1.26,0.49-1.78
		l6.58,2.27c3.07,1.08,5.1,1.57,6.1,1.46c0.44-0.03,0.89-0.18,1.4-0.42c0.9-0.45,1.55-1.22,1.91-2.3c0.49-1.43,0.44-2.6-0.09-3.57
		c-0.5-0.92-1.38-1.69-2.62-2.32c-0.53-0.26-1.65-0.69-3.33-1.28l-7.01-2.41c0.14-0.31,0.29-0.61,0.39-0.92
		c0.1-0.3,0.18-0.63,0.24-0.95l8.25,2.85c1.03,0.36,1.99,0.77,2.88,1.2c0.59,0.28,1.18,0.73,1.75,1.29c0.53,0.57,0.95,1.33,1.24,2.3
		c0.41,1.44,0.32,3.04-0.29,4.81c-0.77,2.23-1.91,3.81-3.41,4.71c-1.42,0.85-3.33,0.87-5.75,0.02L422.5,140.63z M432.92,115.86
		L432.92,115.86l2.6-4.53c1-1.74,1.81-2.8,2.42-3.21c1.32-0.87,2.68-0.89,4.08-0.08c2.07,1.18,2.7,3.03,1.93,5.51l2.4-0.02
		l7.49-0.35l-1.2,1.87c-0.35,0.75-0.69,1.39-1.01,1.97l-9.04-0.02l-0.1,0.14l6.81,3.94l-1.02,1.54c-0.26,0.61-0.53,1.16-0.82,1.64
		L432.92,115.86z M441.59,116.63L441.59,116.63l0.33-0.53c1.13-1.83,0.67-3.35-1.45-4.59c-0.28-0.14-0.65-0.33-1.13-0.49
		c-0.72-0.27-1.33-0.23-1.85,0.16c-0.39,0.24-0.79,0.75-1.22,1.5l-0.37,0.65L441.59,116.63z M445.57,96.85L445.57,96.85l13.04,10.6
		c0.35-0.43,0.69-0.94,1.05-1.5l1.24-1.36l-13.04-10.6c-0.34,0.43-0.69,0.94-1.05,1.5C446.14,96.2,445.73,96.65,445.57,96.85z
		 M463.12,82.88L463.12,82.88c-1.36-0.67-2.52-0.55-3.51,0.37c-1.31,1.22-1.43,2.41-0.33,3.59c0.49,0.53,1.02,0.75,1.6,0.67
		c0.41-0.06,1.53-0.32,3.33-0.8c1.36-0.37,2.48-0.49,3.39-0.4c0.99,0.1,1.93,0.61,2.79,1.52c1.46,1.59,1.76,3.43,0.89,5.59
		c-0.4,1.02-1.05,1.95-1.97,2.8c-1.11,1.04-2.32,1.68-3.59,1.93c-0.61-1.18-1.14-2.09-1.6-2.78l0.32-0.32
		c0.71,0.49,1.44,0.71,2.21,0.65c0.77-0.06,1.48-0.38,2.11-0.98c0.59-0.55,0.93-1.15,1.04-1.85c0.08-0.73-0.14-1.39-0.7-1.97
		c-0.59-0.65-1.36-0.91-2.29-0.81c-0.31,0.04-1.14,0.28-2.54,0.71c-1.38,0.45-2.49,0.61-3.32,0.53c-1.04-0.12-2.01-0.65-2.89-1.6
		c-1.03-1.1-1.5-2.31-1.42-3.66c0.06-1.45,0.75-2.76,2.05-3.98c1.28-1.19,2.5-1.78,3.62-1.76c0.04,0.08,0.14,0.32,0.32,0.71
		c0.34,0.73,0.59,1.26,0.77,1.58L463.12,82.88z M483.29,64.7L483.29,64.7c0.12,0.85,0.2,1.37,0.22,1.56l0.18,1.6
		c0.07,0.59,0.11,1.02,0.14,1.28c0.04,0.45,0.1,1.08,0.16,1.87l0.54,6.5c-5.14-3.14-8.77-5.4-10.84-6.8
		c-0.43,0.37-0.7,0.59-0.82,0.67c-0.12,0.06-0.42,0.21-0.91,0.43l2.84,6.42c0.91,2.05,1.66,3.77,2.27,5.2
		c0.63,1.48,1.18,2.82,1.65,4.01l0.89-0.72l1.04-0.5c-1.12-1.79-2.78-5.12-5.01-10.01l5.38,3.35c0.49,0.3,0.85,0.53,1.1,0.67
		l3.9,2.5l0.8-0.51l-1.38-12.46l3.64,4.63l1.64,2.17c0.79,1.04,1.34,1.81,1.67,2.34l1.6-1.15l1.78-0.98
		c-0.57-0.65-0.95-1.1-1.17-1.36c-0.53-0.59-0.94-1.08-1.22-1.45l-8.33-10.33c-0.42,0.37-0.71,0.59-0.81,0.65
		C484.12,64.34,483.8,64.48,483.29,64.7z M526,64.24L526,64.24l-0.08,2.2c-1.18,0.97-2.69,1.64-4.53,2.02
		c-2.6,0.57-4.92,0.29-6.89-0.83c-2.06-1.16-3.33-2.92-3.84-5.34c-0.63-2.98-0.19-5.48,1.32-7.47c1.43-1.87,3.51-3.09,6.3-3.67
		c1.87-0.41,3.6-0.35,5.11,0.14l-0.02,2.58l-0.32,0.08c-0.81-0.77-1.77-1.24-2.87-1.39c-0.57-0.09-1.1-0.09-1.58,0.03
		c-1.85,0.38-3.11,1.47-3.75,3.23c-0.33,0.83-0.49,1.68-0.51,2.56c-0.04,0.96,0.04,1.87,0.24,2.74c0.61,2.9,1.9,4.75,3.9,5.57
		c0.98,0.39,2.07,0.47,3.28,0.2c1.6-0.32,2.9-1.24,3.9-2.7L526,64.24z M542.2,65.7L542.2,65.7c-2.78,0.04-4.97-0.69-6.62-2.2
		c-1.68-1.56-2.56-3.69-2.6-6.41c-0.02-1.67,0.32-3.17,1.1-4.53c0.75-1.34,1.85-2.42,3.29-3.23c1.45-0.8,3.15-1.22,5.1-1.24
		c3.17-0.06,5.54,0.85,7.13,2.72c0.71,0.83,1.22,1.76,1.54,2.8c0.34,1.02,0.53,2.05,0.55,3.05c0.04,2.48-0.79,4.57-2.5,6.28
		C547.44,64.73,545.11,65.64,542.2,65.7z M537.07,57.73L537.07,57.73c0.04,2.54,0.81,4.41,2.32,5.59c0.77,0.63,1.75,0.91,2.9,0.89
		c2.36-0.04,3.96-1.38,4.79-4.04c0.39-1.22,0.55-2.52,0.53-3.93c-0.02-1.09-0.22-2.17-0.61-3.22c-0.85-2.36-2.39-3.52-4.65-3.47
		c-2.64,0.06-4.31,1.58-4.98,4.61C537.12,55.18,537.02,56.38,537.07,57.73z M562.13,49.29L562.13,49.29l5.14,0.9
		c1.95,0.34,3.23,0.75,3.82,1.17c1.26,0.96,1.77,2.24,1.48,3.82c-0.41,2.36-1.93,3.59-4.51,3.7l0.85,2.26l2.88,6.97l-2.17-0.51
		c-0.82-0.06-1.55-0.16-2.19-0.26l-3.09-8.55l-0.16-0.02l-1.36,7.74l-1.78-0.42c-0.65-0.04-1.26-0.11-1.81-0.21L562.13,49.29z
		 M564.36,57.72L564.36,57.72l0.61,0.12c2.09,0.47,3.37-0.51,3.8-2.93c0.06-0.3,0.08-0.73,0.08-1.24c0-0.75-0.26-1.32-0.79-1.68
		c-0.37-0.27-0.98-0.49-1.83-0.63l-0.73-0.14L564.36,57.72z M582.03,71.14L582.03,71.14l-1.71-0.66c-0.67-0.14-1.26-0.29-1.79-0.47
		l5.2-16.01l5.73,1.87c3.31,1.07,4.55,2.92,3.7,5.56c-0.63,1.93-1.73,3.07-3.31,3.42c-1.02,0.22-2.34,0.14-3.94-0.27
		c-0.51-0.1-1.03-0.27-1.6-0.45L582.03,71.14z M584.73,62.83L584.73,62.83c0.61,0.2,1.15,0.32,1.58,0.35
		c1.48,0.08,2.51-0.75,3.09-2.5c0.27-0.79,0.32-1.52,0.18-2.21c-0.16-0.83-0.61-1.36-1.34-1.6l-1.44-0.47L584.73,62.83z
		 M602.52,80.95L602.52,80.95c-2.41-1.34-3.96-3.08-4.63-5.22c-0.69-2.19-0.37-4.49,0.93-6.86c0.81-1.44,1.87-2.58,3.21-3.38
		c1.32-0.79,2.8-1.15,4.45-1.13c1.66,0.03,3.33,0.52,5.06,1.48c2.76,1.53,4.36,3.52,4.81,5.93c0.19,1.08,0.17,2.16-0.06,3.19
		c-0.22,1.08-0.57,2.06-1.06,2.93c-1.2,2.16-2.96,3.55-5.28,4.2C607.54,82.74,605.06,82.35,602.52,80.95z M602.04,71.46
		L602.04,71.46c-1.24,2.23-1.48,4.24-0.77,6.01c0.37,0.93,1.06,1.66,2.07,2.23c2.06,1.15,4.13,0.79,6.18-1.1
		c0.92-0.85,1.73-1.88,2.4-3.12c0.54-0.95,0.89-1.99,1.1-3.11c0.42-2.46-0.35-4.24-2.3-5.31c-2.34-1.3-4.53-0.82-6.62,1.46
		C603.38,69.31,602.69,70.28,602.04,71.46z M627.42,77.62L627.42,77.62l3.98,3.35c1.52,1.3,2.44,2.28,2.72,2.92
		c0.63,1.49,0.42,2.82-0.61,4.08c-1.55,1.81-3.45,2.14-5.75,0.92l-0.38,2.39l-0.98,7.47l-1.62-1.54c-0.67-0.47-1.28-0.92-1.77-1.32
		l1.58-8.96l-0.12-0.1l-5.06,6.03l-1.32-1.27c-0.54-0.35-1.03-0.71-1.48-1.08L627.42,77.62z M625.15,86.03L625.15,86.03l0.44,0.43
		c1.6,1.46,3.19,1.24,4.75-0.63c0.21-0.24,0.45-0.59,0.7-1.04c0.39-0.65,0.44-1.26,0.18-1.85c-0.2-0.42-0.63-0.91-1.3-1.48
		l-0.55-0.46L625.15,86.03z M636.25,102.99L636.25,102.99l3.6,4.45c-0.57,1.02-1.53,2.54-2.89,4.57c0.41,0.5,0.89,1.03,1.43,1.59
		l1.22,1.7l8.91-16.06c-0.24-0.23-0.44-0.45-0.64-0.67c-0.19-0.24-0.34-0.51-0.51-0.77l-17.59,5.25l0.8,0.87l0.67,0.93l1.43-0.56
		l1.88-0.67L636.25,102.99z M640.65,106.05L640.65,106.05l-2.81-3.5l5.87-1.8L640.65,106.05z M646.15,127.7L646.15,127.7l-0.75-1.68
		c-0.39-0.57-0.71-1.08-0.98-1.57l13.28-7.08c-0.61-1.16-1.43-2.46-2.44-3.87c0.52-0.19,0.85-0.33,0.99-0.39
		c0.11-0.07,0.39-0.26,0.85-0.59l5.91,11.18c-0.52,0.18-0.85,0.3-0.95,0.37c-0.14,0.08-0.42,0.26-0.87,0.61
		c-0.73-1.85-1.3-3.19-1.76-4.05L646.15,127.7z M666.74,133.04L666.74,133.04c0.08,0.24,0.24,0.85,0.49,1.77
		c0.29,0.63,0.53,1.2,0.71,1.71L652.06,142l-0.47-1.78c-0.3-0.61-0.54-1.18-0.71-1.68L666.74,133.04z M655.81,158.49L655.81,158.49
		c-0.51-2.72-0.18-5.01,1.02-6.9c1.24-1.93,3.19-3.17,5.85-3.7c1.63-0.3,3.17-0.22,4.63,0.31c1.45,0.51,2.7,1.4,3.74,2.68
		c1.04,1.3,1.75,2.9,2.11,4.84c0.61,3.1,0.12,5.6-1.44,7.51c-0.7,0.83-1.53,1.52-2.46,2.01c-0.98,0.51-1.96,0.87-2.93,1.06
		c-2.41,0.46-4.61,0.01-6.6-1.36C657.68,163.5,656.38,161.36,655.81,158.49z M662.74,152.03L662.74,152.03
		c-2.48,0.49-4.18,1.58-5.08,3.27c-0.47,0.87-0.59,1.89-0.37,3.03c0.44,2.32,2.05,3.66,4.79,4.04c1.26,0.14,2.56,0.1,3.94-0.16
		c1.07-0.22,2.11-0.61,3.07-1.16c2.15-1.25,3.02-3,2.6-5.2c-0.51-2.62-2.3-3.98-5.38-4.12
		C665.26,151.67,664.08,151.77,662.74,152.03z M674.6,176.04L674.6,176.04l-0.04,2.44l-8.73,7.86c-0.19,0.17-0.49,0.45-0.94,0.84
		c-0.44,0.38-0.77,0.66-0.98,0.85l-0.99,0.85l11.46,0.2c-0.04,0.31-0.08,0.63-0.08,0.98c0,0.32,0.02,0.65,0.06,0.99l-16.79-0.3
		l0.06-2.08l6.44-5.62c0.49-0.44,0.95-0.85,1.4-1.26c0.45-0.38,0.89-0.79,1.38-1.26l2.84-2.62l-11.84-0.2l0.08-0.98l-0.07-1
		L674.6,176.04z M480.24,267.55L480.24,267.55c0.37,0.39,0.61,0.61,0.71,0.7c0.1,0.1,0.39,0.28,0.85,0.55l-6.58,10.95
		c-0.22,0.39-0.52,0.91-0.89,1.58c-0.17,0.29-0.45,0.8-0.84,1.5l-1.46-1.28l-1.58-1.1c0.37-0.44,0.89-1.22,1.56-2.27l1.43-2.19
		l2.97-4.84l-10.78,5.36l-0.72-0.54l0.98-4.37c0.04-0.26,0.12-0.66,0.24-1.19l1.24-6.01c-3.68,3.66-6.13,6.28-7.37,7.86l-0.79-0.77
		l-0.92-0.56c0.89-0.82,1.91-1.75,3.04-2.82c1.1-1.01,2.4-2.28,3.94-3.76l4.83-4.68c0.37,0.36,0.59,0.59,0.69,0.66
		c0.12,0.09,0.41,0.27,0.85,0.53c-0.54,2.34-1.4,6.38-2.54,12.08l5.67-2.64c0.69-0.32,1.24-0.59,1.65-0.77
		c0.22-0.12,0.59-0.3,1.1-0.55l1.38-0.71C479.06,268.18,479.51,267.94,480.24,267.55z M490.47,292.92L490.47,292.92
		c-2.39-1.12-4-2.69-4.77-4.69c-0.81-2.05-0.67-4.26,0.44-6.64c0.67-1.44,1.63-2.6,2.84-3.45c1.22-0.85,2.62-1.32,4.18-1.4
		c1.6-0.08,3.25,0.28,4.96,1.08c2.76,1.3,4.43,3.09,5.02,5.38c0.24,1.01,0.31,2.05,0.16,3.07c-0.14,1.03-0.43,1.99-0.84,2.86
		c-0.99,2.15-2.59,3.61-4.79,4.39C495.43,294.29,493.02,294.12,490.47,292.92z M489.4,283.86L489.4,283.86
		c-1.04,2.23-1.16,4.16-0.35,5.83c0.4,0.85,1.12,1.53,2.13,1.99c2.06,0.98,4,0.49,5.85-1.46c0.83-0.9,1.52-1.95,2.09-3.17
		c0.44-0.95,0.73-1.97,0.85-3.04c0.22-2.39-0.63-4.06-2.58-4.97c-2.31-1.08-4.38-0.45-6.23,1.87
		C490.54,281.69,489.94,282.68,489.4,283.86z M514.81,284.7L514.81,284.7l2.26,0.56l5.46,9.93c0.12,0.2,0.33,0.55,0.59,1.06
		c0.26,0.49,0.45,0.85,0.57,1.09l0.59,1.11l2.66-10.72c0.29,0.1,0.59,0.22,0.92,0.28c0.29,0.09,0.59,0.14,0.91,0.17l-3.9,15.72
		l-1.93-0.51l-3.86-7.25c-0.3-0.56-0.59-1.1-0.85-1.6c-0.28-0.49-0.57-1.01-0.89-1.56l-1.83-3.23l-2.76,11.09l-0.89-0.3l-0.93-0.16
		L514.81,284.7z M553.03,304.72L553.03,304.72c-2.56,0.63-4.67,0.91-6.32,0.85c-2.66-0.09-4.83-0.84-6.52-2.23
		c-1.81-1.48-2.68-3.53-2.58-6.15c0.12-3.78,1.81-6.34,5.02-7.68c1.5-0.62,3.17-0.91,5.02-0.85c2.07,0.09,3.96,0.63,5.62,1.65
		c-0.37,0.75-0.63,1.54-0.75,2.36h-0.32c-1.04-1.65-2.56-2.5-4.57-2.58c-1.85-0.07-3.33,0.63-4.43,2.09
		c-1.05,1.37-1.6,3.1-1.68,5.23c-0.06,2.07,0.37,3.7,1.32,4.87c0.98,1.21,2.34,1.84,4.11,1.89c0.97,0.02,1.84-0.17,2.59-0.59
		l0.21-5.51c0.24,0,0.83,0.06,1.76,0.16c0.65-0.03,1.24-0.06,1.77-0.03L553.03,304.72z M573.56,302.56L573.56,302.56
		c-2.58,0.61-4.79,0.37-6.64-0.73c-1.91-1.12-3.15-2.96-3.74-5.52c-0.37-1.54-0.32-3.05,0.12-4.47c0.45-1.42,1.26-2.64,2.46-3.7
		c1.2-1.03,2.72-1.76,4.55-2.19c2.96-0.69,5.38-0.3,7.25,1.14c0.83,0.65,1.5,1.43,2.01,2.31c0.52,0.9,0.89,1.83,1.12,2.77
		c0.52,2.31,0.16,4.46-1.1,6.41C578.29,300.61,576.29,301.93,573.56,302.56z M567.14,296.11L567.14,296.11
		c0.55,2.39,1.65,4,3.31,4.79c0.85,0.42,1.83,0.52,2.9,0.26c2.21-0.5,3.45-2.09,3.7-4.77c0.12-1.2,0.02-2.46-0.26-3.78
		c-0.24-1.03-0.65-2.01-1.22-2.92c-1.27-2.04-2.98-2.82-5.07-2.34c-2.48,0.59-3.74,2.36-3.78,5.32
		C566.71,293.69,566.86,294.85,567.14,296.11z M596.29,292.92L596.29,292.92c0.27-0.12,0.65-0.33,1.18-0.61
		c0.53-0.26,0.92-0.47,1.18-0.59c0.32-0.14,0.69-0.34,1.11-0.61l1.28-0.77l0.32,0.95c0.07,0.14,0.24,0.42,0.53,0.87l-8.08,3.8
		l-6.79-14.58c0.22-0.11,0.77-0.33,1.67-0.65c0.54-0.35,1.05-0.63,1.54-0.85L596.29,292.92z M604.33,272.41L604.33,272.41
		c0.21-0.12,0.71-0.43,1.53-0.85c0.51-0.43,0.99-0.77,1.44-1.08l8.78,13.59l-1.55,0.87c-0.51,0.42-0.98,0.77-1.4,1.05L604.33,272.41
		z M625.43,271L625.43,271l0.67,1.6l0.75,1.78l0.61,1.35l-0.87,0.69l-0.8,0.81l-5.89-16.67c0.24-0.18,0.47-0.35,0.7-0.55
		c0.22-0.18,0.42-0.4,0.63-0.65l15.82,7.78l-1.58,1.26c-0.49,0.55-0.96,1.04-1.43,1.46c-2.03-1.22-3.53-2.05-4.53-2.56L625.43,271z
		 M628.15,266.62L628.15,266.62l-5.24-2.7l2.03,5.58L628.15,266.62z M545.94,39.43L545.94,39.43v0.02
		c37.97,0,72.36,15.44,97.26,40.42c24.9,24.96,40.29,59.47,40.29,97.57v0.02c0,38.09-15.4,72.6-40.29,97.56
		c-24.9,24.98-59.29,40.42-97.26,40.42v0.02v-0.02c-38,0-72.38-15.43-97.28-40.42c-24.88-24.96-40.29-59.47-40.29-97.56v-0.02
		c0-38.1,15.41-72.61,40.29-97.57c24.9-24.97,59.28-40.42,97.26-40.42v-0.02H545.94z M545.94,41.77L545.94,41.77
		c37.33,0,71.14,15.2,95.61,39.75c24.48,24.55,39.63,58.47,39.63,95.92h-0.02v0.02h0.02c0,37.45-15.15,71.37-39.63,95.92
		c-24.47,24.53-58.29,39.72-95.61,39.72c-37.35,0-71.14-15.19-95.64-39.72c-24.47-24.55-39.6-58.47-39.6-95.92v-0.02
		c0-37.45,15.13-71.37,39.62-95.92c24.48-24.55,58.27-39.75,95.6-39.75H545.94z M545.94,70.89L545.94,70.89
		c29.37,0,55.95,11.93,75.18,31.22c19.26,19.27,31.16,45.92,31.16,75.33v0.02c0,29.4-11.9,56.05-31.16,75.32
		c-19.23,19.3-45.81,31.22-75.18,31.22c-29.37,0-55.96-11.92-75.21-31.22c-19.23-19.27-31.15-45.92-31.15-75.32v-0.02
		c0-29.41,11.92-56.06,31.15-75.33c19.25-19.29,45.84-31.22,75.18-31.22H545.94z M545.94,73.23L545.94,73.23
		c28.72,0,54.71,11.66,73.54,30.53c18.83,18.87,30.49,44.9,30.49,73.68v0.02c0,28.76-11.66,54.81-30.49,73.68
		c-18.83,18.87-44.82,30.52-73.54,30.52c-28.74,0-54.74-11.68-73.56-30.52c-18.83-18.87-30.46-44.92-30.46-73.68v-0.02
		c0-28.76,11.64-54.82,30.46-73.68c18.82-18.87,44.82-30.53,73.54-30.53H545.94z M545.94,76.66L545.94,76.66
		c-11.05,0-21.67,1.81-31.63,5.1c1.18,0.79,2.38,1.52,3.6,2.19c3.39,1.91,6.94,3.48,10.56,4.67c1.42,0.47,2.84,0.87,4.29,1.24
		l1.17,0.28c3.98,0.89,8,1.36,12.02,1.42c3.68-0.04,7.37-0.45,11.01-1.2l1.64-0.36c1.62-0.39,3.23-0.85,4.84-1.39
		c3.63-1.19,7.17-2.76,10.56-4.67c1.22-0.67,2.41-1.4,3.57-2.17C567.63,78.47,556.99,76.66,545.94,76.66z M580.34,82.74
		L580.34,82.74c-1.68,1.17-3.41,2.27-5.19,3.27c-0.82,0.46-1.65,0.91-2.5,1.33l0.45,0.5c5.24,6.01,11.06,12.72,16.67,20.54
		c7.96-3.56,14.26-7.37,18.32-10.09C599.78,91.72,590.44,86.43,580.34,82.74z M609.97,99.82L609.97,99.82
		c8.93,7.41,16.55,16.35,22.48,26.42c-5.85,3.56-14.31,8.69-25.83,13.18c-2.44-6.45-5.27-12.32-8.33-17.72
		c6.54-2.62,11.31-9.85,11.31-9.85c-4.33,1.46-10.01,1.75-16.35,1.63c-0.69-1.08-1.4-2.14-2.11-3.17
		C599.44,106.56,605.93,102.54,609.97,99.82z M633.64,128.27L633.64,128.27c-5.95,3.62-14.54,8.8-26.2,13.35
		c0.51,1.44,1,2.9,1.46,4.41c2.94,0.75,5.75,2.19,7.94,4.75c0,0,8.88,15.15,13.91,15.8c0,0-0.57,5.85-1.81,9.71h17.42
		C646.18,158.85,641.58,142.5,633.64,128.27z M621.75,176.28L621.75,176.28c-2.76-2.37-6.17-6.28-8.87-12.37
		c0.5,4.16,0.73,8.28,0.71,12.37H621.75z M646.37,178.86L646.37,178.86c-0.1,8.41-1.26,16.57-3.31,24.37l-32.03-0.08l1.56-7.86
		h-0.83c0.52-2.92,0.93-5.87,1.26-8.83c2.84,2.01,4.76,3.7,4.76,3.7c3.61,3.21,10.5,1.57,10.5,1.57c-1.97-2.64-3.92-5.28-5.89-7.92
		c-0.83,0.49-1.66,1-2.48,1.48c-1.68,0.35-3.19-0.32-4.63-1.56c-0.14-1.36-0.29-2.72-0.42-4.06l-1.36,0.08l0.03-0.87h11.82
		c0.9,0.51,1.44,0.71,1.44,0.71c0.35-0.06,0.67-0.3,0.97-0.71H646.37z M631.4,230.39L631.4,230.39l-29.68,0.12h-1.76
		c-2.23,4.2-4.71,8.32-7.41,12.36c-0.44,0.67-0.9,1.32-1.34,1.99c8.15,3.7,14.56,7.62,18.61,10.36
		C618.3,248.2,625.59,239.81,631.4,230.39z M607.93,256.74L607.93,256.74c-4.06-2.68-10.26-6.43-18.08-9.95
		c-5.09,7.23-10.81,14.26-16.82,21.2c0.71,0.37,1.42,0.75,2.11,1.13c1.7,0.95,3.35,1.99,4.95,3.11
		C590.23,268.57,599.6,263.31,607.93,256.74z M577.34,273.19L577.34,273.19c-1.07-0.71-2.19-1.38-3.33-2.02
		c-0.83-0.47-1.69-0.92-2.54-1.34l-2.19-1.06c-1.91-0.85-3.86-1.6-5.83-2.25c-1.77-0.59-3.56-1.09-5.36-1.5l-1.65-0.35
		c-3.47-0.69-6.99-1.06-10.48-1.09c-3.83,0.03-7.69,0.49-11.49,1.29l-1.18,0.29c-1.62,0.38-3.21,0.83-4.81,1.36
		c-2.17,0.71-4.33,1.56-6.44,2.54l-2.01,1c-0.72,0.36-1.4,0.73-2.11,1.12c-1.14,0.64-2.26,1.32-3.35,2.02
		c9.87,3.28,20.41,5.04,31.38,5.04C556.91,278.23,567.47,276.45,577.34,273.19z M511.8,272.24L511.8,272.24
		c1.62-1.12,3.29-2.16,4.97-3.11c0.55-0.32,1.12-0.61,1.66-0.91c-6.01-6.95-11.74-13.98-16.85-21.21
		c-7.6,3.45-13.63,7.11-17.61,9.77C492.3,263.33,501.67,268.59,511.8,272.24z M482.08,255.24L482.08,255.24
		c3.96-2.68,10.2-6.52,18.16-10.15c-0.51-0.73-1.02-1.48-1.5-2.22c-2.7-4.06-5.22-8.22-7.45-12.43l-30.82-0.02
		C466.29,239.83,473.6,248.23,482.08,255.24z M448.88,203.56L448.88,203.56c-2.09-7.9-3.27-16.16-3.4-24.7h32.28
		c0.04,1.53,0.12,3.05,0.24,4.55c0.3,4.02,0.81,7.98,1.52,11.88h-13.12l-3.05,8.6L448.88,203.56z M445.49,176.28L445.49,176.28
		h32.21c0-1.05,0-2.12,0.04-3.17l-2.31,1.78c-0.55-1.95-1.57-6.6,0.12-9.72c0,0,4.45-3.11,3.41-9.9c-0.2-1.26-0.22-2.49,0.18-3.75
		c0.82-1.18,1.67-2.16,2.52-3.03c0.71-2.44,1.46-4.81,2.27-7.11c-11.41-4.51-19.84-9.6-25.67-13.16
		C450.3,142.47,445.69,158.85,445.49,176.28z M459.42,126.22L459.42,126.22c5.93-10.08,13.57-19.03,22.5-26.44
		c3.96,2.7,10.3,6.6,18.38,10.29c-5.79,8.31-11.27,17.85-15.55,29.12C473.49,134.75,465.17,129.71,459.42,126.22z M483.81,98.25
		L483.81,98.25c8.31-6.56,17.65-11.84,27.76-15.54c1.69,1.19,3.42,2.29,5.2,3.29c0.69,0.38,1.36,0.75,2.05,1.09l-0.63,0.73
		c-5.17,5.96-10.94,12.6-16.53,20.33C493.93,104.63,487.8,100.91,483.81,98.25z M570.48,88.38L570.48,88.38
		c-2.05,0.93-4.16,1.77-6.3,2.46c-1.44,0.49-2.9,0.91-4.36,1.27c0.81,1.47,1.58,2.93,2.34,4.42c1.2,2.35,2.35,4.81,3.47,7.37
		c1.24,2.8,2.38,5.71,3.48,8.69c3.09,0,6.2,0.1,9.28,0.22c3.25-1.08,6.33-2.26,9.21-3.5c-5.48-7.57-11.15-14.09-16.26-19.96
		L570.48,88.38z M557.44,92.64L557.44,92.64c-3.33,0.71-6.7,1.12-10.07,1.22l-0.06,24.31c1.86-0.02,3.69-0.08,5.5-0.2
		c3.47-3.29,6.33-5.08,11.69-5.3c0.72-0.04,1.43-0.04,2.11-0.06c-1-2.67-2.01-5.27-3.12-7.78c-1.07-2.46-2.21-4.87-3.41-7.25
		C559.21,95.87,558.33,94.23,557.44,92.64z M588.95,111.27L588.95,111.27c-1.44,0.61-2.96,1.23-4.51,1.85
		c2.01,0.1,4.01,0.18,5.95,0.26C589.91,112.67,589.44,111.96,588.95,111.27z M572.62,123.18L572.62,123.18l0.41,1.32l18.46,0.12
		c0,0-3.96,6.43-12.21,6.3h-4.51l0.39,1.52l2.88,0.02c0,0-0.73,0.9-2.42,1.92c0.45,1.84,0.87,3.73,1.26,5.65
		c2.72,0.1,5.46,0.59,8.02,1.71c0,0,2.42,1.36,4.43,3.14c5.49-1.34,10.54-2.92,15.11-4.6c-2.46-6.5-5.34-12.43-8.45-17.85
		c-0.69,0.14-1.42,0.2-2.15,0.22c-6.89,0.06-13.77,0.14-20.66,0.2L572.62,123.18z M550.33,120.43L550.33,120.43
		c-1,0.04-2.01,0.06-3.02,0.08v3.03C548.4,122.42,549.41,121.38,550.33,120.43z M547.26,141.92L547.26,141.92v0.2
		c0.54,0.96,3.27,4.9,10.09,2.38c0,0,8.18-4.12,17.16-4.49c-0.32-1.55-0.67-3.05-1.02-4.55c-2.39,0.99-5.82,1.86-10.6,1.86
		c-3.74-0.04-7.48-0.1-11.19-0.16c-0.94,0.46-1.87,0.95-2.81,1.42c4.74,0.04,9.45,0.08,14.18,0.1c0,0-3.94,3.19-10.29,3.19
		L547.26,141.92z M572.75,132.41L572.75,132.41l-0.39-1.5h-10.37c-0.83,0.47-1.66,0.95-2.5,1.42L572.75,132.41z M605.27,142.45
		L605.27,142.45c-4.31,1.58-9.02,3.09-14.11,4.39l0.28,0.44c0,0,7.41-2.7,14.84-1.74C605.96,144.5,605.61,143.46,605.27,142.45z
		 M604.96,176.28L604.96,176.28h6.3c0.06-6.62-0.58-13.3-2.04-20.05c-2.78-4.1-8.04-8.75-16.79-6.17c0,0,4.84,9.42-1.2,15.14
		c0,0-1.43,3.43,1.4,5.51c0,0,2.93,2.56,6.12,0.99C598.75,171.71,606.06,170.46,604.96,176.28z M547.18,168.48L547.18,168.48
		l-0.02,7.8h31.76l-0.04-1.2c-3.15-0.8-10.35-3.6-12.08-12.82C566.8,162.27,556.83,164.42,547.18,168.48z M611.21,178.86
		L611.21,178.86h-2.87l1.55,1.08l1.26-0.08L611.21,178.86z M583.9,178.86L583.9,178.86h-2.67c-0.04,5.35-0.39,10.71-1.03,16.21
		l8.25,0.07l-2.18,8.28l7.74-0.08l2.48-8.12l12.9,0.08c0.2-1.03,0.39-2.09,0.53-3.12c-2.32,0.24-8.07,0.26-11.52-4.74
		c-4.41-6.35-5.63-7.43-5.63-7.43c-2.19,0.22-4.38,0.43-6.6,0.65C586.17,180.65,585.64,180.77,583.9,178.86z M610.07,191.02
		L610.07,191.02c0.31-2,0.55-4.02,0.73-6.05c-3.88-2.46-8.85-4.89-13.4-4.97c0.77,1.89,1.95,3.72,5.17,5.36
		c0.8-0.12,1.6-0.24,2.42-0.36L610.07,191.02z M578.92,178.86L578.92,178.86c-0.06,5.33-0.41,10.68-1.05,16.19l-12.37-0.1l-3.1,8.31
		h-4.08l2.68-7.7l-13.79-0.03l-0.04-16.66H578.92z M572.48,230.49L572.48,230.49c-0.67,2.11-1.36,4.22-2.09,6.33l-0.26,0.72
		c6.92,1.68,13.3,3.93,18.91,6.38c0.52-0.8,1.05-1.55,1.58-2.34c2.42-3.64,4.67-7.32,6.7-11.07L572.48,230.49z M547.31,230.47
		L547.31,230.47v4.16c7.23,0.06,14.11,0.95,20.55,2.38l0.33-0.95c0.65-1.85,1.26-3.7,1.84-5.57L547.31,230.47z M587.68,245.84
		L587.68,245.84c-5.47-2.34-11.64-4.5-18.34-6.11c-2.88,7.86-6.26,15.58-10.13,23.15c1.66,0.38,3.33,0.87,4.97,1.4
		c2.28,0.75,4.51,1.64,6.71,2.66C576.87,260.01,582.58,253.03,587.68,245.84z M567.04,239.22L567.04,239.22
		c-6.2-1.36-12.82-2.19-19.74-2.26l0.06,24.29c3.17,0.12,6.36,0.49,9.49,1.1C560.75,254.8,564.16,247.08,567.04,239.22z
		 M520.59,267.14L520.59,267.14c2.34-1.1,4.73-2.05,7.17-2.86c1.44-0.46,2.92-0.9,4.41-1.26c-3.91-7.57-7.27-15.29-10.17-23.15
		c-6.68,1.66-12.8,3.84-18.22,6.19C508.87,253.24,514.61,260.24,520.59,267.14z M534.51,262.47L534.51,262.47
		c3.33-0.69,6.7-1.09,10.05-1.22l0.06-24.29c-7.14,0.07-13.97,0.95-20.33,2.38C527.19,247.2,530.59,254.92,534.51,262.47z
		 M502.4,244.11L502.4,244.11c5.59-2.44,11.9-4.71,18.83-6.44l-0.33-0.85c-0.73-2.11-1.42-4.24-2.09-6.38h-24.88
		c2.05,3.76,4.33,7.47,6.74,11.13C501.24,242.43,501.81,243.28,502.4,244.11z M523.5,237.13L523.5,237.13
		c6.61-1.48,13.69-2.44,21.12-2.5l0.02-4.16h-23.39C521.96,232.7,522.71,234.91,523.5,237.13z M512.37,203.88L512.37,203.88
		l-24.17-0.21l1.4-8.39h-7.7c-0.73-3.95-1.28-7.98-1.58-12.03c-0.1-1.47-0.19-2.93-0.24-4.39h29.98
		C510.11,187.03,510.89,195.19,512.37,203.88z M530.04,204.01L530.04,204.01l-15.29-0.1c-1.53-8.72-2.3-16.9-2.38-25.04h32.39
		l-0.04,16.64l-8.05-0.02l-0.19,2.01l-3.31,6.4C532.13,203.92,531.08,203.96,530.04,204.01z M480.04,176.28L480.04,176.28h11.39
		c-1.11-1.54-1.78-4.34-1.78-4.34c-2.77-2.93-0.77-9.31-0.77-9.31l-0.28-8.62l1.13,0.38l2.24,0.89c-0.57,3.15,0.82,5.43,0.82,5.43
		c2.27,2.64-0.53,4.79-0.53,4.79c-0.65,3.14,4.08,5.72,4.08,5.72c-1.95,0.43-3.37,3.59-3.92,5.06h17.65
		c0.04-4.33,0.28-8.63,0.69-13.04c-2.36,0.16-5.44-0.18-7.82-2.4c-4.74-2.76-9.46-5.52-14.2-8.29c0,0-5.42,3.23-7.45,7.82
		c-0.26,1.54-0.47,3.1-0.65,4.65c0.21,1.14,0.7,2.3,1.57,3.49c0,0-1.24,0.21-1.95,0.92C480.08,171.73,480.01,174.01,480.04,176.28z
		 M488.57,143.13L488.57,143.13l-2.46-0.91c-0.41,1.13-0.77,2.27-1.14,3.43c0.63-0.47,1.26-0.9,1.9-1.33
		c2.93,1.18,5.88,2.34,8.8,3.52c-2.46-1.45-4.92-2.86-7.37-4.28L488.57,143.13z M512.39,176.28L512.39,176.28h32.37l-0.02-6.89
		c-4.87,1.45-21.4,5.14-30.4-6.82c0,0-0.44,0.18-1.22,0.35C512.67,167.44,512.43,171.85,512.39,176.28z M486.92,140.02
		L486.92,140.02c1.12,0.43,2.28,0.85,3.45,1.26c0.87-0.59,1.87-0.98,2.97-1.15c3.09,0.87,5.46,2.31,7.21,4.22l2.16,0.53l11.07-8.75
		c1.56-4.67,3.12-9.35,4.69-14.02c-4.73,0.24-7.96-1.15-10.5-3.29c-2.58,1.22-5.16,2.44-7.74,3.66c-0.59-0.63-1.18-1.24-1.79-1.87
		c1.02-0.89,2.06-1.81,3.07-2.72c-1.4,0.52-2.17,1.38-3.57,1.91c-0.14-0.42-0.21-0.93-0.25-1.46
		C493.71,124.79,489.99,131.97,486.92,140.02z M504.05,111.72L504.05,111.72l-1.57-0.67c-0.62,0.9-1.23,1.81-1.86,2.74
		L504.05,111.72z M544.64,126.18L544.64,126.18l-0.02-5.67c-3.14-0.03-6.23-0.2-9.26-0.52c1.63,4,2.54,8.73,1.91,14.13
		C539.67,131.4,542.1,128.73,544.64,126.18z M503.86,109.12L503.86,109.12l2.64,1.12l12.81-7.78l1.51-7.13
		c1.14,2.7,3.55,5.88,3.04,9.93c0,0,0.35,0.25,0.94,0.72l0.87-2.07c1.12-2.56,2.27-5.02,3.47-7.37c0.77-1.55,1.58-3.05,2.42-4.55
		c-1.28-0.35-2.55-0.72-3.8-1.14c-2.3-0.75-4.55-1.65-6.76-2.68l-1.04,1.19C514.91,95.17,509.28,101.62,503.86,109.12z
		 M534.22,117.51L534.22,117.51c3.39,0.4,6.84,0.63,10.4,0.66l-0.06-24.31c-3.55-0.12-7.13-0.56-10.65-1.34
		c-0.91,1.64-1.81,3.31-2.7,5.06c-1.2,2.38-2.33,4.79-3.41,7.25c-0.4,0.9-0.77,1.83-1.15,2.75
		C528.84,109.63,531.91,112.98,534.22,117.51z"/>
	<path class="st39" d="M186.22,959.81h707.88v-708.2H703.27c-24.09,63.84-85.7,109.25-157.97,109.25
		c-72.26,0-133.88-45.41-157.96-109.25H185.92L186.22,959.81z M974.65,170.84L974.65,170.84h-261.2c0.85,6.9,1.35,13.91,1.35,21.04
		c0,5.58-0.29,11.1-0.82,16.55h223.65v794.54H142.38V208.43h235.63c-0.53-5.45-0.82-10.97-0.82-16.55c0-7.13,0.49-14.14,1.34-21.04
		H105.35v869.73h869.31V170.84z"/>
	<polygon class="st38" points="496.29,963.35 295.08,762.02 297.36,629.02 359.97,629.02 293.98,563.29 294.51,448.55 
		384.91,447.98 437.1,500.05 447.36,427.69 526.97,507.25 537.82,427.67 562.61,452.43 650.07,452.43 654.65,427.73 696.52,471.31 
		698.1,428.44 757.6,488.68 798.59,427.57 899.31,529.42 894.11,959.81 	"/>
	<path class="st20" d="M320.63,533.7c6.93,0,13.65,0.22,20.37-0.06c12.21-0.51,21.83-5.81,28.15-16.43
		c5.28-8.87,6.54-18.56,5.32-28.74c-1.81-15.04-12.53-27.74-27.36-30.28c-8.55-1.44-17.46-0.91-26.48-1.28V533.7z M555.53,427.73
		h99.12v29.47h-36.17v106.09H591.7V457.38h-36.17V427.73z M455.32,562.87c-17.32-6.93-26.99-20.37-31.76-37.88
		c-2.29-8.49-2.92-17.12-2.9-25.87c0.06-22.94,0.02-45.86,0.02-68.81c0-0.8,0.06-1.57,0.12-2.65h26.56v3.07
		c0,23.47-0.08,46.93,0.09,70.41c0.01,4.59,0.49,9.26,1.44,13.73c3.11,14.61,11.41,21.65,26.32,22.42c4.39,0.24,8.94,0.1,13.26-0.69
		c12.3-2.24,19.13-9.41,21.38-22.33c0.87-4.95,1.26-10.05,1.28-15.09c0.14-22.66,0.07-45.35,0.07-68.01v-3.5h26.62
		c0.06,0.82,0.16,1.58,0.16,2.34c0,24.35,0.07,48.73-0.06,73.07c-0.04,11.4-2.05,22.46-6.84,32.86
		c-8.65,18.69-23.58,28.49-43.81,30.71c-2.92,0.32-5.82,0.49-8.73,0.49C470.61,567.16,462.85,565.87,455.32,562.87z M337.4,427.53
		c31.77-0.49,54.88,20.18,61.78,48.64c5.63,23.07,2.28,44.9-12.47,64.13c-11.33,14.83-26.77,22.35-45.25,22.97
		c-10.68,0.37-21.38,0.29-32.08,0.21c-4.67-0.04-9.36-0.09-14.06-0.09c-0.34,0-0.69-0.06-1.36-0.12V427.57h2.89
		c8.47,0,16.94,0.07,25.4,0.07C327.31,427.63,332.35,427.61,337.4,427.53z M694.97,427.53c2.03-0.11,3.17,0.56,4.25,2.31
		c10.22,16.35,20.53,32.61,30.81,48.92c0.51,0.82,1.03,1.63,1.81,2.82c0.82-1.22,1.44-2.11,2.03-3.05
		c10.27-16.31,20.57-32.59,30.79-48.94c0.99-1.56,2.03-2.09,3.84-2.07c9.85,0.08,19.72,0.04,30.1,0.04
		c-0.77,1.28-1.24,2.09-1.75,2.91c-16.66,26.38-33.31,52.72-49.86,79.14c-1.1,1.75-1.73,4.11-1.75,6.17
		c-0.17,14.67-0.08,29.33-0.08,44.01v3.39h-26.65v-3.19c0-15.03,0.06-30.03-0.06-45.07c0-1.66-0.54-3.51-1.44-4.93
		c-16.45-26.26-32.99-52.5-49.49-78.72c-0.7-1.12-1.36-2.23-2.26-3.72h18.79c2.16,0,4.31,0.04,6.46,0.04
		C691.99,427.61,693.48,427.59,694.97,427.53z M458.13,656.56v40.21c6.62,0,12.91,0,19.21-0.02c14.09-0.04,22.87-9.41,22.02-23.5
		c-0.57-9.08-4.67-14.79-13.73-16.03c-8.9-1.22-18.02-0.77-27.05-1.03C458.45,656.19,458.3,656.39,458.13,656.56z M295.08,626.54
		h80.06v29.39H321.8v26.42h51.49v29.71h-51.62v49.96h-26.59V626.54z M719.75,626.54h77.7v29.41h-50.9v20.57h49.11v29.61h-49.08
		v26.27h50.92v29.62h-77.74V626.54z M580.51,626.52h77.72v29.45h-50.91v20.47h49.13v29.71h-49.11v26.34h50.93v29.53h-77.76V626.52z
		 M431.52,626.33h2.76c14.22,0,28.45-0.04,42.67,0.02c7.51,0.04,14.87,1.2,21.82,4.21c16.11,6.94,24.51,19.62,26.89,36.58
		c1.46,10.52,0.02,20.73-4.13,30.52c-4.16,9.79-10.9,17.37-20.39,22.93c8.7,13.78,17.3,27.5,26.18,41.59h-14.04
		c-3.81,0-7.72-0.45-11.45,0.1c-5.59,0.8-8.53-1.54-11.23-6.25c-5.36-9.4-11.43-18.38-17.16-27.6c-0.87-1.43-1.83-2.09-3.6-2.03
		c-3.8,0.14-7.62,0.04-11.8,0.04v35.6h-26.52V626.33z"/>
</g>
</svg>
