<?xml version="1.0" encoding="utf-8"?>
<!-- Generator: Adobe Illustrator 26.5.0, SVG Export Plug-In . SVG Version: 6.00 Build 0)  -->
<svg version="1.1" id="Layer_1" xmlns="http://www.w3.org/2000/svg" xmlns:xlink="http://www.w3.org/1999/xlink" x="0px" y="0px"
	 viewBox="0 0 1080 1080" style="enable-background:new 0 0 1080 1080;" xml:space="preserve">
<style type="text/css">
	.st0{fill-rule:evenodd;clip-rule:evenodd;}
	.st1{fill:#ED1C24;}
	.st2{fill:#E1251B;}
	.st3{fill-rule:evenodd;clip-rule:evenodd;fill:#16397B;}
	.st4{fill:#EE2745;}
	
		.st5{clip-path:url(#SVGID_00000086666666558453370030000011626594539849900944_);fill:url(#SVGID_00000011728079691588777840000002499808653104493496_);}
	
		.st6{clip-path:url(#SVGID_00000123406280512087388540000004171334349788589477_);fill:url(#SVGID_00000175298074362558839300000004413816015483223956_);}
	
		.st7{clip-path:url(#SVGID_00000141453375364585009170000012927738926104303760_);fill:url(#SVGID_00000111872369368040981480000011997369212804552864_);}
	
		.st8{clip-path:url(#SVGID_00000078727621634346763440000017338699806583507109_);fill:url(#SVGID_00000084504811457299371470000008731658447650445997_);}
	.st9{fill:#424243;}
	
		.st10{clip-path:url(#SVGID_00000088113495556960247200000007956906613729674646_);fill:url(#SVGID_00000050647352090406186110000003586981355788963768_);}
	.st11{fill:#FFFFFF;}
	
		.st12{clip-path:url(#SVGID_00000027602850432524135360000003505891296611664024_);fill:url(#SVGID_00000163059363653848305460000002158672674467781032_);}
	
		.st13{clip-path:url(#SVGID_00000058565246527756590000000003637792072548361390_);fill:url(#SVGID_00000174562844885587916430000011315864646410774171_);}
	
		.st14{clip-path:url(#SVGID_00000040555351781133743240000012681525481594330516_);fill:url(#SVGID_00000036970459836137562280000013387530059093158580_);}
	
		.st15{clip-path:url(#SVGID_00000026161487165378365840000001201520836040580538_);fill:url(#SVGID_00000127746079916169940420000003707746940076129939_);}
	
		.st16{clip-path:url(#SVGID_00000054978212195548981750000013922825364750660228_);fill:url(#SVGID_00000059293067130602057270000014544772682475195787_);}
	
		.st17{clip-path:url(#SVGID_00000013156874186622894630000017428237035582254223_);fill:url(#SVGID_00000182489028977785946580000017988738966640130977_);}
	
		.st18{clip-path:url(#SVGID_00000060742198613151414690000008088492938557567131_);fill:url(#SVGID_00000067202411868753073970000011301419669451482244_);}
	.st19{fill-rule:evenodd;clip-rule:evenodd;fill:#C8202F;}
	.st20{fill-rule:evenodd;clip-rule:evenodd;fill:#FFFFFF;}
	.st21{fill-rule:evenodd;clip-rule:evenodd;fill:#F98238;}
	.st22{filter:url(#Adobe_OpacityMaskFilter);}
	.st23{fill:url(#SVGID_00000052794638480912919450000002665869456601334711_);}
	.st24{mask:url(#SVGID_00000144306450412500879880000017351298869569432998_);fill-rule:evenodd;clip-rule:evenodd;fill:#ED1C24;}
	.st25{fill-rule:evenodd;clip-rule:evenodd;fill:#F5333F;}
	.st26{fill-rule:evenodd;clip-rule:evenodd;fill:#ED1C24;}
	.st27{fill-rule:evenodd;clip-rule:evenodd;fill:#F9A46E;}
	.st28{fill-rule:evenodd;clip-rule:evenodd;fill:#F47B26;}
	.st29{fill-rule:evenodd;clip-rule:evenodd;fill:#EB5433;}
	.st30{fill:#1A3282;}
	.st31{fill-rule:evenodd;clip-rule:evenodd;fill:#1A3282;}
	.st32{fill-rule:evenodd;clip-rule:evenodd;fill:#9D9FA2;}
	.st33{fill-rule:evenodd;clip-rule:evenodd;fill:#000303;}
	.st34{fill:#64003D;}
	.st35{fill:#536270;}
	.st36{fill-rule:evenodd;clip-rule:evenodd;fill:#64003D;}
	.st37{fill-rule:evenodd;clip-rule:evenodd;fill:#536270;}
	.st38{fill-rule:evenodd;clip-rule:evenodd;fill:#1A3382;}
	.st39{fill-rule:evenodd;clip-rule:evenodd;fill:#29387E;}
	.st40{fill-rule:evenodd;clip-rule:evenodd;fill:#F37021;}
	.st41{fill-rule:evenodd;clip-rule:evenodd;fill:#005C32;}
	.st42{fill-rule:evenodd;clip-rule:evenodd;fill:#D2AB67;}
	
		.st43{clip-path:url(#SVGID_00000136409349864911643840000000491865425101513615_);fill:url(#SVGID_00000057826284913284365260000002195557294550342064_);}
	
		.st44{clip-path:url(#SVGID_00000046333157540989077130000001091652802797701291_);fill:url(#SVGID_00000109024196984202734580000004154866865970285708_);}
	
		.st45{clip-path:url(#SVGID_00000062165432080997434280000004158527278483016121_);fill:url(#SVGID_00000163766319640296562220000002852717134357554306_);}
	.st46{fill-rule:evenodd;clip-rule:evenodd;fill:#00AEEF;}
	.st47{fill-rule:evenodd;clip-rule:evenodd;fill:#EC008C;}
	.st48{fill-rule:evenodd;clip-rule:evenodd;fill:#FFF200;}
	.st49{fill:#A7AAAC;}
	.st50{fill-rule:evenodd;clip-rule:evenodd;fill:#5C5B5B;}
	.st51{fill:#9D9D9F;}
	.st52{fill:#F04D23;}
	.st53{fill-rule:evenodd;clip-rule:evenodd;fill:#2E3192;}
	.st54{fill-rule:evenodd;clip-rule:evenodd;fill:#C4312D;}
	.st55{fill:#552715;}
	.st56{fill:#010101;}
	.st57{fill:#E31E2E;}
	.st58{fill:url(#SVGID_00000160185012111713131810000007000576193154441093_);}
	.st59{fill:url(#SVGID_00000083065796765459811840000008622875929153807533_);}
	.st60{clip-path:url(#SVGID_00000115494729239014626070000016747796708122481322_);}
	.st61{clip-path:url(#SVGID_00000000906658381568946130000003431651096552278422_);}
	.st62{clip-path:url(#SVGID_00000171692927752102446020000009618621736104580228_);}
	.st63{clip-path:url(#SVGID_00000060741785864302791730000017918934051994948237_);}
	.st64{clip-path:url(#SVGID_00000147222405650871834120000001204402577224806335_);}
	.st65{clip-path:url(#SVGID_00000165940060159377555680000003144363029837062332_);}
	.st66{clip-path:url(#SVGID_00000170259821184313315730000000679825590137828023_);}
	.st67{clip-path:url(#SVGID_00000147203873017083836630000017465967897992510640_);}
	.st68{clip-path:url(#SVGID_00000017498666590106655800000007810612883450327999_);}
	.st69{clip-path:url(#SVGID_00000061465580320236258080000005107268444043850169_);}
	.st70{clip-path:url(#SVGID_00000051349303883541882700000008075034171945910947_);}
	.st71{fill:#2650A1;}
	.st72{fill:url(#SVGID_00000072998503978256002300000013370435162631647376_);}
	.st73{fill:#FEFEFE;}
	.st74{fill:#FDFDFD;}
	.st75{fill:#FCFCFC;}
	.st76{fill:#FBFBFB;}
	.st77{fill:#FAFAFA;}
	.st78{fill:#F9F9F9;}
	.st79{fill:#F8F8F8;}
	.st80{fill:#F7F7F7;}
	.st81{fill:#F6F6F6;}
	.st82{fill:#F5F5F5;}
	.st83{fill:#F4F4F4;}
	.st84{fill:#F3F3F3;}
	.st85{fill:#F2F2F2;}
	.st86{fill:#F1F1F1;}
	.st87{fill:#F0F0F0;}
	.st88{fill:#EFEFEF;}
	.st89{fill:#EEEEEE;}
	.st90{fill:#EDEDED;}
	.st91{fill:#ECECEC;}
	.st92{fill:#EBEBEB;}
	.st93{fill:#EAEAEA;}
	.st94{fill:#E9E9E9;}
	.st95{fill:#E8E8E8;}
	.st96{fill:#E7E7E7;}
	.st97{fill:#E6E6E6;}
	.st98{fill:#E5E5E5;}
	.st99{fill:#E4E4E4;}
	.st100{fill:#E3E3E3;}
	.st101{fill:#E2E2E2;}
	.st102{fill:#E1E1E1;}
	.st103{fill:#E0E0E0;}
	.st104{fill:#DFDFDF;}
	.st105{fill:#DEDEDE;}
	.st106{fill:#DDDDDD;}
	.st107{fill:#DCDCDC;}
	.st108{fill:#DBDBDB;}
	.st109{fill:#DADADA;}
	.st110{fill:#D9D9D9;}
	.st111{fill:#D92231;}
	.st112{fill:url(#SVGID_00000104681782620004758540000008635994675702789517_);}
	.st113{fill:url(#SVGID_00000024722750272526410910000010212648832684249749_);}
	.st114{opacity:0.8;}
	.st115{fill:url(#SVGID_00000032609585207527872960000007341791760367688355_);}
	.st116{fill:url(#SVGID_00000007396480626130891930000012744225631146670757_);}
	.st117{fill-rule:evenodd;clip-rule:evenodd;fill:#010101;}
	.st118{fill:#80A845;}
	.st119{fill-rule:evenodd;clip-rule:evenodd;fill:#80A845;}
	.st120{fill:url(#SVGID_00000164490946484159981160000007611279864931209884_);}
	.st121{fill-rule:evenodd;clip-rule:evenodd;fill:#04984A;}
	.st122{fill-rule:evenodd;clip-rule:evenodd;fill:url(#SVGID_00000079458882292584736730000005723534887276358304_);}
	.st123{fill:url(#SVGID_00000157270064498388360880000005742908719409892529_);}
	.st124{fill:url(#SVGID_00000110430397618998863720000004661217125958668947_);}
	.st125{fill:url(#SVGID_00000124852307035576672150000015383162127736064409_);}
	.st126{fill:url(#SVGID_00000013189451356752909300000007473559304926275255_);}
	.st127{fill:url(#SVGID_00000069398593094007670710000011354632227210855079_);}
	.st128{fill:url(#SVGID_00000011032734804025312360000000169465336544279701_);}
	.st129{fill:url(#SVGID_00000078760428742096607860000008545239102604701833_);}
	.st130{fill:url(#SVGID_00000085249193041358988780000009894305175260911494_);}
	.st131{fill:url(#SVGID_00000071546967720777191520000001901254694144718464_);}
	.st132{fill:url(#SVGID_00000103972551975491310390000011126319411543577766_);}
	.st133{fill:url(#SVGID_00000160168653351714768610000010361551978970173370_);}
	.st134{fill:url(#SVGID_00000124851951090717352520000013213294924506190251_);}
	.st135{fill:url(#SVGID_00000150098660613647015830000012037567630329073054_);}
	.st136{fill:url(#SVGID_00000049936424616775945300000013322244896035779774_);}
	.st137{fill-rule:evenodd;clip-rule:evenodd;fill:url(#SVGID_00000108282457232301415910000015978857592175130004_);}
	.st138{fill:#0A529D;}
	.st139{fill:url(#SVGID_00000050647066579880292880000016914089103075479189_);}
	.st140{fill:url(#SVGID_00000069360161636969607270000015725610039592460952_);}
	.st141{fill:url(#SVGID_00000111191458475854815900000012730118489759985575_);}
	.st142{fill:url(#SVGID_00000068637829880194292210000016001390713735683740_);}
	.st143{fill:url(#SVGID_00000100367273276284937220000009734044066496993928_);}
	.st144{fill:url(#SVGID_00000020387145054700938740000016373361663923172512_);}
	.st145{fill:url(#SVGID_00000060731787958972975120000015915176247032206241_);}
	.st146{fill:url(#SVGID_00000124146723305383108650000007534327060829272750_);}
	.st147{fill:url(#SVGID_00000169526906447484632880000010605093371398328246_);}
	.st148{fill:url(#SVGID_00000125575480697940967610000003969502600338323609_);}
	.st149{fill:url(#SVGID_00000006696780970063110530000002663626946626338965_);}
	.st150{fill:url(#SVGID_00000163755314594311486590000011603504154624012934_);}
	.st151{fill-rule:evenodd;clip-rule:evenodd;fill:url(#SVGID_00000169527275244596338010000001991520667055169206_);}
	.st152{fill:url(#SVGID_00000120539272744656417020000000474207903346725779_);}
	.st153{fill:url(#SVGID_00000106835914992186122830000013346891066756750977_);}
	.st154{fill:url(#SVGID_00000093163467985087544080000010404440700600001929_);}
	.st155{fill:url(#SVGID_00000013909399373551165280000004295703337919597998_);}
	.st156{fill:url(#SVGID_00000090268954244447077140000000979600751642905475_);}
	.st157{fill:url(#SVGID_00000077314704280275815830000014949611889429907102_);}
	.st158{fill:url(#SVGID_00000176004264992480535480000013508205515038668202_);}
	.st159{fill:url(#SVGID_00000012461985888222085730000002483164747390434945_);}
	.st160{fill:url(#SVGID_00000124877282419240180060000003541808657475767484_);}
	.st161{fill:url(#SVGID_00000160172541696626768290000015001446687898001573_);}
	.st162{fill:url(#SVGID_00000057837236905110240710000006718850894881312908_);}
	.st163{fill:url(#SVGID_00000000922041498292162150000011649850547422559167_);}
	.st164{fill:url(#SVGID_00000025420158945818349910000009418375616325949112_);}
	.st165{fill:url(#SVGID_00000043435974288195830110000013721290677444436385_);}
	.st166{fill:url(#SVGID_00000129186007590730416220000016306491466325682097_);}
	.st167{fill:url(#SVGID_00000135684824334630510420000016048546382445013650_);}
	.st168{fill:url(#SVGID_00000083774659877356146540000017966372083419541408_);}
	.st169{fill-rule:evenodd;clip-rule:evenodd;fill:url(#SVGID_00000098197743663563137040000005227203401449275292_);}
	.st170{fill:url(#SVGID_00000152258782698008124820000014219134043808172676_);}
	.st171{fill:url(#SVGID_00000080203946293136375800000001209095606468616125_);}
	.st172{fill:url(#SVGID_00000034811982903429621860000016250765005886744500_);}
	.st173{fill:url(#SVGID_00000182489292500921091620000016410109734275226549_);}
	.st174{fill:url(#SVGID_00000166663795929529838760000015295685403197986210_);}
	.st175{fill:url(#SVGID_00000165940999676785045240000013515599206515884705_);}
	.st176{fill:url(#SVGID_00000088099664893278085480000016127214048604524432_);}
	.st177{fill:url(#SVGID_00000084526582699855216980000017236216712180926890_);}
	.st178{fill:url(#SVGID_00000137841851382908444850000016440312669370881927_);}
	.st179{fill:url(#SVGID_00000087396568676913789180000003884099576849920152_);}
	.st180{fill:url(#SVGID_00000031904677271075645680000017122396997570742939_);}
	.st181{fill:url(#SVGID_00000043441701691515818440000010804652999025902986_);}
	.st182{fill:url(#SVGID_00000092435429315338137450000016794818483020688561_);}
	.st183{fill:url(#SVGID_00000047760207971080038520000006241966704808738749_);}
	.st184{fill-rule:evenodd;clip-rule:evenodd;fill:url(#SVGID_00000129913278823844311220000005933020857267684245_);}
	.st185{fill:url(#SVGID_00000162347996581428116890000006672698028457243014_);}
	.st186{fill:url(#SVGID_00000045596027165249784240000015015158472642506370_);}
	.st187{fill:url(#SVGID_00000052070532574115099550000014607964163408651927_);}
	.st188{fill:url(#SVGID_00000123407750045756245220000007858924799508605570_);}
	.st189{fill:url(#SVGID_00000120558346809073551320000005682567581124669867_);}
	.st190{fill:url(#SVGID_00000038396630407745445960000006595010035922484096_);}
	.st191{fill:url(#SVGID_00000100384031473441227130000015969052808330537121_);}
	.st192{fill:url(#SVGID_00000021816653678078627620000012318408977474641822_);}
	.st193{fill:url(#SVGID_00000000923372746693208660000015928181028644881839_);}
	.st194{fill:url(#SVGID_00000133501330456933473190000014824653795835471021_);}
	.st195{fill:url(#SVGID_00000111912009138431172690000008295223432032640153_);}
	.st196{fill:url(#SVGID_00000001646561167742484740000001708863377123582859_);}
	.st197{fill:url(#SVGID_00000150797441404613243290000003209824407545260222_);}
	.st198{fill:url(#SVGID_00000131363296476362270350000017675221707629950093_);}
	.st199{fill:url(#SVGID_00000041297792876549924760000008102334616108433029_);}
	.st200{fill:url(#SVGID_00000084513587568017952490000007738744384417894324_);}
	.st201{fill:url(#SVGID_00000023254212463131447280000015839062129916554642_);}
	.st202{fill:url(#SVGID_00000084516975239985875380000002785445592032631460_);}
	.st203{fill:url(#SVGID_00000066492630027616142610000017216319359427434663_);}
	.st204{fill-rule:evenodd;clip-rule:evenodd;fill:url(#SVGID_00000161604402790918498980000012154759934278308023_);}
	.st205{fill:url(#SVGID_00000034771693080715347820000008424870695726203063_);}
	.st206{fill:url(#SVGID_00000124129393612097163250000009501888165138955401_);}
	.st207{fill:url(#SVGID_00000084529855473720392960000012747088333388069020_);}
	.st208{fill:url(#SVGID_00000082356520736633988660000002245324693620050337_);}
	.st209{fill:url(#SVGID_00000026856627139073212830000012290904505529351581_);}
	.st210{fill:url(#SVGID_00000029030305840123859570000003796546556856476054_);}
	.st211{fill:url(#SVGID_00000145752987772714148960000009404295499206336929_);}
	.st212{fill:url(#SVGID_00000040563170236755359180000015043593792638394754_);}
	.st213{fill:url(#SVGID_00000014630898955607818400000003738022062848335008_);}
	.st214{fill:url(#SVGID_00000122678780732260979150000014682370892958052538_);}
	.st215{fill:url(#SVGID_00000124150902598202067280000004530669287378508216_);}
	.st216{fill:url(#SVGID_00000183217715130426582430000009683437333498212773_);}
	.st217{fill:url(#SVGID_00000161625964775069292830000004041346725622627968_);}
	.st218{fill:url(#SVGID_00000061472585078364358990000005609128668179223701_);}
	.st219{fill:url(#SVGID_00000170963127168616170880000010869724701955166901_);}
	.st220{fill:url(#SVGID_00000121255347498156334620000011636867161732253617_);}
	.st221{fill-rule:evenodd;clip-rule:evenodd;fill:url(#SVGID_00000119798241757136207730000005568292983318448543_);}
	.st222{fill:url(#SVGID_00000058590788423590932300000000093789624250784141_);}
	.st223{fill:url(#SVGID_00000161619510666816931920000013956090402185411223_);}
	.st224{fill:url(#SVGID_00000092414811529737574010000007152919176255294636_);}
	.st225{fill:url(#SVGID_00000083080120151335570710000014595836859367505287_);}
	.st226{fill:url(#SVGID_00000013911120262242222300000016017771649774678912_);}
	.st227{fill:url(#SVGID_00000054985551226795794850000009957663170664852874_);}
	.st228{fill:url(#SVGID_00000098188122134558021760000000900669211044983984_);}
	.st229{fill:url(#SVGID_00000153677692197669408800000005235914895987294110_);}
	.st230{fill:url(#SVGID_00000080208289756948158370000008902227643916344499_);}
	.st231{fill:url(#SVGID_00000003820386956174504500000000013086584558259102_);}
	.st232{fill:url(#SVGID_00000049908267691961949430000003175564990667549618_);}
	.st233{fill:url(#SVGID_00000142887914004709738490000011277485637605842358_);}
	.st234{fill:url(#SVGID_00000060729208394037254660000010347363742114139036_);}
	.st235{fill:url(#SVGID_00000119091616561833781330000010746386044248389775_);}
	.st236{fill:url(#SVGID_00000162320223590518515340000008899069062577293198_);}
	.st237{fill-rule:evenodd;clip-rule:evenodd;fill:url(#SVGID_00000039097734631727697530000003321429687734749838_);}
	.st238{fill:url(#SVGID_00000067213511904768153340000009351062730623061141_);}
	.st239{fill:url(#SVGID_00000182521468930178492960000001969166907822529209_);}
	.st240{fill:url(#SVGID_00000152251172885830165830000016279273084169537667_);}
	.st241{fill:url(#SVGID_00000074400254099672334300000003976467577663670145_);}
	.st242{fill:url(#SVGID_00000133525889409781994680000002322997135152664711_);}
	.st243{fill:url(#SVGID_00000005963043185650972960000006954386432231981753_);}
	.st244{fill:url(#SVGID_00000021118295470766958430000013844733787286911166_);}
	.st245{fill:url(#SVGID_00000050624680472662626550000014483444918264483002_);}
	.st246{fill:url(#SVGID_00000121266084527416899640000006764358651382473878_);}
	.st247{fill:url(#SVGID_00000044163420981118515760000005356112910311789461_);}
	.st248{fill:url(#SVGID_00000021818896251093904610000003269522035868826266_);}
	.st249{fill:url(#SVGID_00000029746479668106190330000013705268095079783583_);}
	.st250{fill:url(#SVGID_00000172430357973342482760000000654248399045023166_);}
	.st251{fill:url(#SVGID_00000049913757757050732850000015842724122007283072_);}
	.st252{fill:url(#SVGID_00000069390850061140054540000017383458134928408977_);}
	.st253{fill-rule:evenodd;clip-rule:evenodd;fill:url(#SVGID_00000074435269057919284760000012170190046253806506_);}
	.st254{fill:url(#SVGID_00000034784723587505637740000013657838348994775979_);}
	.st255{fill:url(#SVGID_00000032616992990207722210000007293380580654416813_);}
	.st256{fill:url(#SVGID_00000181068740410929671480000007832890837695388583_);}
	.st257{fill:url(#SVGID_00000070097210635948630690000005625370419736871324_);}
	.st258{fill:url(#SVGID_00000030448164111219186080000004493368527317153418_);}
	.st259{fill:url(#SVGID_00000041260408524935704710000006501666212308888502_);}
	.st260{fill:url(#SVGID_00000120529612824306165610000013011519648682752667_);}
	.st261{fill:url(#SVGID_00000021105678375535766840000004766540938904724617_);}
	.st262{fill:url(#SVGID_00000150800940759374187570000017625198178296929446_);}
	.st263{fill:url(#SVGID_00000049916680488934990250000017389014993049557897_);}
	.st264{fill:url(#SVGID_00000117639853047741078680000004752865752434756017_);}
	.st265{fill:url(#SVGID_00000125567805025534454550000009723470753297581448_);}
	.st266{fill:url(#SVGID_00000150807455271459452350000010351269825138951577_);}
	.st267{fill:url(#SVGID_00000045588586546099919790000016368862658197541820_);}
	.st268{fill:url(#SVGID_00000074436410971809733250000005847436507941038489_);}
	.st269{fill-rule:evenodd;clip-rule:evenodd;fill:url(#SVGID_00000147935490940277551620000008817794710273248159_);}
	.st270{fill:url(#SVGID_00000065071152425781400010000012183852393943474347_);}
	.st271{fill:url(#SVGID_00000002363300158358472330000018446447785210551715_);}
	.st272{fill:url(#SVGID_00000127004570364055837460000010649140764787439001_);}
	.st273{fill:url(#SVGID_00000041293278945844678510000014413922418897268355_);}
	.st274{fill:url(#SVGID_00000092422608392130805540000010608621538169483176_);}
	.st275{fill:url(#SVGID_00000028312526294476877610000017642858067443710633_);}
	.st276{fill:url(#SVGID_00000109735778984910896010000018087344262034345866_);}
	.st277{fill:url(#SVGID_00000066495758545442477780000006225193353535520649_);}
	.st278{fill:url(#SVGID_00000007391354851372422830000009302200768417540534_);}
	.st279{fill:url(#SVGID_00000145031706714328408190000014934012516358910131_);}
	.st280{fill:url(#SVGID_00000183243473335958934090000008728958741416625299_);}
	.st281{fill:url(#SVGID_00000007394077883846792600000013833178061089414310_);}
	.st282{fill:url(#SVGID_00000116235613926056641600000013371246585492050602_);}
	.st283{fill:url(#SVGID_00000178197536425238678660000003204603536745561500_);}
	.st284{fill:url(#SVGID_00000173853457585803134500000017680165357904845219_);}
	.st285{fill-rule:evenodd;clip-rule:evenodd;fill:url(#SVGID_00000127765881146860871860000012021355194302996134_);}
	.st286{fill:url(#SVGID_00000168093373379453595580000002766356627255724723_);}
	.st287{fill:url(#SVGID_00000114043153676852960080000007496259161885993378_);}
	.st288{fill:url(#SVGID_00000103235630039118496740000012420673885901921667_);}
	.st289{fill:url(#SVGID_00000181788353638988796400000005105516311750531988_);}
	.st290{fill:url(#SVGID_00000021079924538534692540000016059307417954636706_);}
	.st291{fill:url(#SVGID_00000143596655154061944760000014895900672270875316_);}
	.st292{fill:url(#SVGID_00000040570538613204531130000000096842849928010644_);}
	.st293{fill:url(#SVGID_00000029724000618823708170000008160652211266322076_);}
	.st294{fill:url(#SVGID_00000113324610964392700800000002086242236905498770_);}
	.st295{fill:url(#SVGID_00000061468063644330096110000018235459863328462733_);}
	.st296{fill:url(#SVGID_00000053512997497740828410000003485460679962340025_);}
	.st297{fill:url(#SVGID_00000159467973587534697160000012214238817914260098_);}
	.st298{fill:url(#SVGID_00000044152218770485169450000007881134920641068190_);}
	.st299{fill:url(#SVGID_00000176733274695688857720000012284024902475423631_);}
	.st300{fill:url(#SVGID_00000037656030490168584120000009132384342473505974_);}
	.st301{fill:url(#SVGID_00000065758709645100028070000015076560225565985162_);}
	.st302{fill:url(#SVGID_00000073002892980771001780000006490117468675903370_);}
	.st303{fill:url(#SVGID_00000018930128589561097620000006710391794693178509_);}
	.st304{fill-rule:evenodd;clip-rule:evenodd;fill:url(#SVGID_00000140728401731710561230000006988868037577597102_);}
	.st305{fill:url(#SVGID_00000119834812916131405500000012164015184389811328_);}
	.st306{fill:url(#SVGID_00000121959510656850353890000002341375752901629105_);}
	.st307{fill:url(#SVGID_00000174604329254147554230000011943665380685291946_);}
	.st308{fill:url(#SVGID_00000040544403873197519990000007180535184915624874_);}
	.st309{fill:url(#SVGID_00000109737227586570790970000014968538782486303884_);}
	.st310{fill:url(#SVGID_00000171704465614128846560000004420041910442102451_);}
	.st311{fill:url(#SVGID_00000179611102373536055130000002154946935024416667_);}
	.st312{fill:url(#SVGID_00000119807373902274658720000001915282619607110289_);}
	.st313{fill:url(#SVGID_00000088113363870197024430000000238292337440303275_);}
	.st314{fill:url(#SVGID_00000126287353886210546220000013522900424071723702_);}
	.st315{fill:url(#SVGID_00000173143651101873059600000007093332198401426335_);}
	.st316{fill:url(#SVGID_00000129195556818051616540000017484504970304156290_);}
	.st317{fill:url(#SVGID_00000072279764673641910250000005441935730869951404_);}
	.st318{fill:url(#SVGID_00000035506391165358546330000000326620943092903609_);}
	.st319{fill:url(#SVGID_00000023280201815697280120000011955935098084846766_);}
	.st320{fill:url(#SVGID_00000006692394229816017620000011623042374125988778_);}
	.st321{fill:url(#SVGID_00000031203418919563843790000010896591177325013438_);}
	.st322{fill:url(#SVGID_00000053531164640746957350000007673086085310771646_);}
	.st323{fill:url(#SVGID_00000026130139115142099370000017255128128479102080_);}
	.st324{fill:url(#SVGID_00000058560677146536207900000006862556291979129747_);}
	.st325{fill-rule:evenodd;clip-rule:evenodd;fill:url(#SVGID_00000005965759913696862530000010794477254360470418_);}
	.st326{fill:url(#SVGID_00000183931784409213425530000013341488745979928496_);}
	.st327{fill:url(#SVGID_00000152241165245574840730000010480567744402562475_);}
	.st328{fill:url(#SVGID_00000059311542622303324960000004593874603936550819_);}
	.st329{fill:url(#SVGID_00000155105547719060732880000002961954362906871684_);}
	.st330{fill:url(#SVGID_00000163754147318294378210000012362695930698027416_);}
	.st331{fill:url(#SVGID_00000034051480830986908690000011781394940433737615_);}
	.st332{fill:url(#SVGID_00000170269308407108609140000013824147029404294079_);}
	.st333{fill:url(#SVGID_00000041998045263112478200000017650591782918157199_);}
	.st334{fill:url(#SVGID_00000155118127431805072550000000094761713651766160_);}
	.st335{fill:url(#SVGID_00000077298037654413377730000009945537870276165799_);}
	.st336{fill:url(#SVGID_00000158011417587338414260000009051672821998571950_);}
	.st337{fill:url(#SVGID_00000075860598215814061630000016134949263457619078_);}
	.st338{fill:url(#SVGID_00000145748597058936525210000006037027867580243601_);}
	.st339{fill:url(#SVGID_00000016062832335434929650000010644178123776749214_);}
	.st340{fill:url(#SVGID_00000147909226709397781860000003321864904496288913_);}
	.st341{fill:url(#SVGID_00000159427671007324847520000002060752206493156781_);}
	.st342{fill-rule:evenodd;clip-rule:evenodd;fill:url(#SVGID_00000119118338529919722000000014690643661538245020_);}
	.st343{fill:url(#SVGID_00000000905831884994139250000012543842735279307906_);}
	.st344{fill:url(#SVGID_00000158002229850469320090000003187311733621113773_);}
	.st345{fill:url(#SVGID_00000075841858505768669820000003615245110914727570_);}
	.st346{fill:url(#SVGID_00000106121196887578176690000017056823267234982830_);}
	.st347{fill:url(#SVGID_00000114767171007528822830000013793048839526243236_);}
	.st348{fill:url(#SVGID_00000011734270967277153970000001776222747625492877_);}
	.st349{fill:url(#SVGID_00000173134867144132969120000017673271643885931941_);}
	.st350{fill:url(#SVGID_00000072275497877022490720000013184661389232712631_);}
	.st351{fill:url(#SVGID_00000091733215356643207360000018091225865160880545_);}
	.st352{fill:url(#SVGID_00000039127542009965463980000015462693964483176867_);}
	.st353{fill:url(#SVGID_00000163054429633325591540000014018096302476942254_);}
	.st354{fill:url(#SVGID_00000080194795742161508510000002265446369945883009_);}
	.st355{fill:url(#SVGID_00000115506834800241049080000006057711307162873761_);}
	.st356{fill:url(#SVGID_00000016074041330077277870000004815848652636096394_);}
	.st357{fill:url(#SVGID_00000029046239636101354220000017354310265947443591_);}
	.st358{fill:url(#SVGID_00000072255934282458716820000002551698257468189598_);}
	.st359{fill:url(#SVGID_00000098211709186371748010000013986950538152905107_);}
	.st360{fill:url(#SVGID_00000182528713733133674550000002191044832022262925_);}
	.st361{fill:url(#SVGID_00000128464042862100550670000001667416925433049217_);}
	.st362{fill:url(#SVGID_00000128457173685024435970000000775306963009770393_);}
	.st363{fill:#C1282D;}
	.st364{fill-rule:evenodd;clip-rule:evenodd;fill:url(#SVGID_00000000185914837456017130000013393983241742201482_);}
	.st365{fill:url(#SVGID_00000029768502409829775010000012485944467547248265_);}
	.st366{fill:url(#SVGID_00000078731754201921925410000005217995330909922476_);}
	.st367{fill:url(#SVGID_00000096034449087619446530000017516455900381848487_);}
	.st368{fill:url(#SVGID_00000091015972173035453760000007941562846479796399_);}
	.st369{fill:url(#SVGID_00000002364782355360790340000016059045807703141558_);}
	.st370{fill:url(#SVGID_00000119803428605900522400000012964685937895012000_);}
	.st371{fill:url(#SVGID_00000072981048660887799640000018255420958861016224_);}
	.st372{fill:url(#SVGID_00000088824943475314899090000010233659201093235374_);}
	.st373{fill:url(#SVGID_00000123409479850110129410000016154749550299940245_);}
	.st374{fill:url(#SVGID_00000079461573568990718600000010442278148169177236_);}
	.st375{fill:url(#SVGID_00000170277527610736403810000016286847119300186046_);}
	.st376{fill:url(#SVGID_00000008135035425748623190000006509482147772068030_);}
	.st377{fill:url(#SVGID_00000111908949913104016400000000531001079923379101_);}
	.st378{fill:url(#SVGID_00000051344013842509312300000000254830113507410574_);}
	.st379{fill:url(#SVGID_00000008850835051826764340000010265039947442044053_);}
	.st380{fill:url(#SVGID_00000018229609354000118570000017519900052934436231_);}
	.st381{fill-rule:evenodd;clip-rule:evenodd;fill:url(#SVGID_00000016066283305780309080000016549826108472805554_);}
	.st382{fill:url(#SVGID_00000009589119460895692250000011812143571550815882_);}
	.st383{fill:url(#SVGID_00000114781475653891815050000016950715639315146429_);}
	.st384{fill:url(#SVGID_00000073680790184626099850000005150482313075476411_);}
	.st385{fill:url(#SVGID_00000045577125820261886370000010749246397839505340_);}
	.st386{fill:url(#SVGID_00000031191905918764392130000000206664132754655630_);}
	.st387{fill:url(#SVGID_00000124851002384927363230000017611325456281156511_);}
	.st388{fill:url(#SVGID_00000155116478535239625690000011781196570527952031_);}
	.st389{fill:url(#SVGID_00000014622373566316651490000009827368949833730720_);}
	.st390{fill:url(#SVGID_00000177455118796581098290000017250192648496465041_);}
	.st391{fill:url(#SVGID_00000034052761328547595000000005184799350687507369_);}
	.st392{fill:url(#SVGID_00000064337781117490503080000013755702040427587006_);}
	.st393{fill:url(#SVGID_00000060708973385641870190000018077590959694389890_);}
	.st394{fill:url(#SVGID_00000013179034574110697140000006338703023289505440_);}
	.st395{fill:url(#SVGID_00000142165005138570065990000009398608402865340341_);}
	.st396{fill:url(#SVGID_00000138531179552339819310000003814500139746521014_);}
	.st397{fill:url(#SVGID_00000065769495997253709250000001718072765895809159_);}
	.st398{fill:url(#SVGID_00000175290882336091695940000009506582584016082066_);}
	.st399{fill:url(#SVGID_00000054245997125918245450000016799427112151108504_);}
	.st400{fill:url(#SVGID_00000178168552155079486740000009832735869804586923_);}
	.st401{fill:url(#SVGID_00000024692643040048102700000005085771649586330256_);}
</style>
<g>
	<rect x="539.69" y="679.56" class="st20" width="0.63" height="0.63"/>
	<path class="st26" d="M61.12,729.94h957.76v-3.78c0-1.45-0.44-1.88-1.88-1.88H61.12V729.94z"/>
	<path class="st30" d="M1006.63,769.58L1006.63,769.58l-4.37-11.49l-4.63,11.49H1006.63z M996.31,772.58L996.31,772.58l-1.23,3.44
		l-1.31,3.83l-0.92,2.94l-2.29-0.15l-2.36,0.15l14.06-34.15c0.63,0.09,1.24,0.15,1.85,0.15c0.59,0,1.22-0.05,1.87-0.15l13.73,34.25
		l-4.22-0.25c-1.52,0.16-2.93,0.25-4.24,0.25c-1.44-4.71-2.61-8.14-3.48-10.31H996.31z M975.68,749.07L975.68,749.07
		c0.52,0,1.75,0.08,3.67,0.24c1.36-0.17,2.59-0.24,3.69-0.24v33.82l-3.69-0.25c-1.36,0.16-2.58,0.25-3.67,0.25V749.07z
		 M957.92,779.08L957.92,779.08c0.61,0,1.53-0.03,2.76-0.09c1.23-0.05,2.16-0.08,2.76-0.08c0.74,0,1.62-0.06,2.66-0.17l3.07-0.34
		l-0.23,2.12c0,0.3,0.08,1.01,0.23,2.12h-18.61v-33.57c0.51,0,1.73,0.08,3.7,0.24c1.36-0.17,2.58-0.24,3.67-0.24V779.08z
		 M915.58,767.36L915.58,767.36c0,5.12,1.49,8.89,4.47,11.32c1.55,1.26,3.48,1.89,5.8,1.89c4.74,0,8-2.65,9.77-7.97
		c0.79-2.41,1.2-5.01,1.2-7.81c0-2.23-0.37-4.41-1.11-6.53c-1.64-4.75-4.71-7.12-9.21-7.12c-5.32,0-8.71,3.02-10.17,9.05
		C915.83,762.25,915.58,764.64,915.58,767.36z M925.61,783.53L925.61,783.53c-5.56,0-9.94-1.55-13.18-4.64
		c-3.34-3.17-5.01-7.49-5.01-12.97c0-3.33,0.78-6.35,2.35-9.03c1.55-2.69,3.8-4.81,6.72-6.36c2.93-1.56,6.36-2.34,10.29-2.34
		c6.36,0,11.09,1.9,14.21,5.73c1.39,1.71,2.4,3.6,3.03,5.66c0.64,2.09,0.96,4.15,0.96,6.15c0,4.98-1.74,9.16-5.21,12.54
		C936.17,781.77,931.46,783.53,925.61,783.53z M902.25,781.29L902.25,781.29c-5.32,1.49-9.7,2.23-13.12,2.23
		c-5.59,0-10.18-1.39-13.77-4.16c-3.89-2.98-5.83-7.21-5.83-12.66c0-7.89,3.3-13.36,9.93-16.4c3.09-1.42,6.54-2.12,10.37-2.12
		c4.36,0,8.31,1,11.85,3c-0.71,1.58-1.17,3.25-1.39,4.98h-0.68c-2.28-3.35-5.51-5.03-9.69-5.03c-3.86,0-6.9,1.56-9.08,4.67
		c-2.1,2.95-3.15,6.63-3.15,11.05c0,4.33,1.05,7.7,3.13,10.11c2.09,2.41,4.98,3.61,8.68,3.61c2.05,0,3.85-0.47,5.4-1.4v-11.52
		c0.51,0,1.73,0.08,3.7,0.24c1.36-0.16,2.57-0.24,3.67-0.24V781.29z M833.34,749.07L833.34,749.07h4.88l16.06,17.32
		c0.34,0.37,0.9,0.98,1.69,1.87c0.79,0.87,1.36,1.51,1.74,1.94l1.74,1.96v-23.08c0.63,0.1,1.28,0.15,1.97,0.15
		c0.64,0,1.29-0.05,1.97-0.15v33.82l-4.15-0.05l-11.48-12.76c-0.9-0.97-1.74-1.91-2.55-2.77c-0.8-0.87-1.65-1.79-2.56-2.76
		l-5.35-5.6v23.85l-1.97-0.15l-1.97,0.15V749.07z M798.18,767.36L798.18,767.36c0,5.12,1.48,8.89,4.46,11.32
		c1.55,1.26,3.49,1.89,5.81,1.89c4.73,0,7.99-2.65,9.77-7.97c0.79-2.41,1.19-5.01,1.19-7.81c0-2.23-0.36-4.41-1.1-6.53
		c-1.64-4.75-4.71-7.12-9.22-7.12c-5.32,0-8.71,3.02-10.17,9.05C798.42,762.25,798.18,764.64,798.18,767.36z M808.21,783.53
		L808.21,783.53c-5.55,0-9.95-1.55-13.18-4.64c-3.34-3.17-5.01-7.49-5.01-12.97c0-3.33,0.77-6.35,2.34-9.03
		c1.56-2.69,3.8-4.81,6.72-6.36c2.94-1.56,6.36-2.34,10.29-2.34c6.35,0,11.09,1.9,14.21,5.73c1.39,1.71,2.4,3.6,3.02,5.66
		c0.64,2.09,0.97,4.15,0.97,6.15c0,4.98-1.74,9.16-5.22,12.54C818.76,781.77,814.04,783.53,808.21,783.53z M778.12,749.07
		L778.12,749.07c1.1,0.17,1.78,0.24,2.06,0.24c0.29,0,0.99-0.08,2.11-0.24l3.2,26.51c0.1,0.92,0.29,2.17,0.54,3.74
		c0.11,0.7,0.3,1.88,0.58,3.57l-4.07-0.25l-3.98,0.25c0-1.22-0.11-3.14-0.37-5.73l-0.5-5.47l-1.26-11.77l-10.89,22.73h-1.88
		l-3.99-8.43c-0.25-0.48-0.64-1.24-1.15-2.29l-5.62-11.47c-1.37,10.73-2.07,18.2-2.07,22.43l-2.3-0.25l-2.25,0.25
		c0.45-2.52,0.91-5.36,1.42-8.57c0.48-3.09,1.02-6.83,1.66-11.27l1.94-13.98c1.08,0.17,1.76,0.24,2.03,0.24
		c0.27,0,0.96-0.09,2.06-0.25c2.09,4.59,5.84,12.32,11.27,23.18l5.97-11.67c0.73-1.43,1.3-2.56,1.7-3.39
		c0.22-0.46,0.6-1.23,1.13-2.31l1.36-2.93C776.98,751.6,777.42,750.65,778.12,749.07z M717.56,782.89L717.56,782.89l-3.67-0.25
		c-1.36,0.16-2.58,0.25-3.69,0.25v-33.82h18.71l-0.23,2.12c0,0.31,0.08,1.01,0.23,2.12l-2.74-0.34c-0.94-0.11-1.79-0.18-2.54-0.18
		c-0.68,0-1.68-0.03-3.03-0.08c-1.35-0.06-2.36-0.09-3.04-0.09v10.59h5.22c1.59,0,3.58-0.16,5.95-0.46
		c-0.17,1.03-0.25,1.74-0.25,2.12c0,0.4,0.08,1.12,0.25,2.15c-3.22-0.31-5.22-0.46-6-0.46h-5.16V782.89z M675.32,767.36
		L675.32,767.36c0,5.12,1.49,8.89,4.46,11.32c1.55,1.26,3.49,1.89,5.81,1.89c4.74,0,7.99-2.65,9.77-7.97
		c0.79-2.41,1.19-5.01,1.19-7.81c0-2.23-0.37-4.41-1.1-6.53c-1.64-4.75-4.71-7.12-9.21-7.12c-5.33,0-8.72,3.02-10.17,9.05
		C675.56,762.25,675.32,764.64,675.32,767.36z M685.35,783.53L685.35,783.53c-5.56,0-9.95-1.55-13.18-4.64
		c-3.34-3.17-5-7.49-5-12.97c0-3.33,0.77-6.35,2.34-9.03c1.56-2.69,3.8-4.81,6.72-6.36c2.94-1.56,6.37-2.34,10.3-2.34
		c6.36,0,11.09,1.9,14.21,5.73c1.39,1.71,2.4,3.6,3.02,5.66c0.64,2.09,0.96,4.15,0.96,6.15c0,4.98-1.74,9.16-5.2,12.54
		C695.91,781.77,691.19,783.53,685.35,783.53z M617.65,749.07L617.65,749.07h4.87l16.06,17.32c0.33,0.37,0.9,0.98,1.69,1.87
		c0.8,0.87,1.37,1.51,1.74,1.94l1.75,1.96v-23.08c0.62,0.1,1.28,0.15,1.97,0.15c0.63,0,1.29-0.05,1.96-0.15v33.82l-4.16-0.05
		l-11.48-12.76c-0.9-0.97-1.75-1.91-2.55-2.77c-0.8-0.87-1.65-1.79-2.57-2.76l-5.35-5.6v23.85l-1.97-0.15l-1.97,0.15V749.07z
		 M582.48,767.36L582.48,767.36c0,5.12,1.49,8.89,4.47,11.32c1.55,1.26,3.48,1.89,5.81,1.89c4.73,0,7.99-2.65,9.76-7.97
		c0.8-2.41,1.2-5.01,1.2-7.81c0-2.23-0.37-4.41-1.1-6.53c-1.65-4.75-4.72-7.12-9.22-7.12c-5.32,0-8.71,3.02-10.17,9.05
		C582.73,762.25,582.48,764.64,582.48,767.36z M592.51,783.53L592.51,783.53c-5.55,0-9.94-1.55-13.17-4.64
		c-3.35-3.17-5.01-7.49-5.01-12.97c0-3.33,0.78-6.35,2.35-9.03c1.55-2.69,3.8-4.81,6.72-6.36c2.93-1.56,6.36-2.34,10.29-2.34
		c6.35,0,11.09,1.9,14.21,5.73c1.39,1.71,2.4,3.6,3.03,5.66c0.64,2.09,0.95,4.15,0.95,6.15c0,4.98-1.74,9.16-5.21,12.54
		C603.06,781.77,598.35,783.53,592.51,783.53z M560.73,749.07L560.73,749.07c0.52,0,1.75,0.08,3.67,0.24
		c1.36-0.17,2.58-0.24,3.69-0.24v33.82l-3.69-0.25c-1.36,0.16-2.58,0.25-3.67,0.25V749.07z M546.41,782.89L546.41,782.89l-3.67-0.25
		c-1.36,0.16-2.58,0.25-3.69,0.25v-30.33c-2.63,0-5.67,0.23-9.15,0.7c0.16-1.11,0.24-1.82,0.24-2.12c0-0.27-0.08-0.95-0.24-2.07
		h25.31c-0.17,1.11-0.24,1.8-0.24,2.07c0,0.29,0.08,1,0.24,2.12c-3.93-0.47-6.88-0.7-8.81-0.7V782.89z M515.22,769.58L515.22,769.58
		l-4.38-11.49l-4.62,11.49H515.22z M504.9,772.58L504.9,772.58l-1.23,3.44l-1.31,3.83l-0.92,2.94l-2.3-0.15l-2.35,0.15l14.06-34.15
		c0.63,0.09,1.24,0.15,1.84,0.15c0.6,0,1.23-0.05,1.88-0.15l13.73,34.25l-4.22-0.25c-1.52,0.16-2.93,0.25-4.24,0.25
		c-1.44-4.71-2.61-8.14-3.48-10.31H504.9z M477.16,764.96L477.16,764.96l1.22,0.04c4.33,0.17,6.5-2.19,6.5-7.1
		c0-0.64-0.09-1.47-0.26-2.49c-0.25-1.49-0.97-2.52-2.13-3.08c-0.83-0.4-2.12-0.6-3.86-0.6h-1.47V764.96z M469.79,749.07
		L469.79,749.07h10.46c4.02,0,6.67,0.33,7.97,0.99c2.84,1.44,4.27,3.79,4.27,7.04c0,4.78-2.55,7.75-7.64,8.89l2.46,4.16l8.14,12.74
		l-4.47-0.25c-1.64,0.16-3.13,0.25-4.43,0.25l-9.05-15.82h-0.34v15.82l-3.69-0.25c-1.31,0.16-2.54,0.25-3.68,0.25V749.07z
		 M435.06,767.36L435.06,767.36c0,5.12,1.49,8.89,4.46,11.32c1.55,1.26,3.48,1.89,5.81,1.89c4.73,0,7.99-2.65,9.77-7.97
		c0.79-2.41,1.19-5.01,1.19-7.81c0-2.23-0.37-4.41-1.1-6.53c-1.64-4.75-4.71-7.12-9.22-7.12c-5.32,0-8.71,3.02-10.16,9.05
		C435.31,762.25,435.06,764.64,435.06,767.36z M445.1,783.53L445.1,783.53c-5.56,0-9.95-1.55-13.18-4.64
		c-3.34-3.17-5.01-7.49-5.01-12.97c0-3.33,0.77-6.35,2.34-9.03c1.56-2.69,3.8-4.81,6.72-6.36c2.94-1.56,6.36-2.34,10.29-2.34
		c6.36,0,11.09,1.9,14.21,5.73c1.39,1.71,2.4,3.6,3.02,5.66c0.64,2.09,0.96,4.15,0.96,6.15c0,4.98-1.73,9.16-5.21,12.54
		C455.65,781.77,450.93,783.53,445.1,783.53z M408.76,765.34L408.76,765.34c1.33,0,2.41-0.11,3.25-0.34
		c2.9-0.78,4.35-3.02,4.35-6.72c0-1.65-0.34-3.08-1.02-4.3c-0.84-1.49-2.01-2.24-3.53-2.24h-3.05V765.34z M408.76,782.89
		L408.76,782.89l-3.69-0.25c-1.36,0.16-2.58,0.25-3.67,0.25v-33.82h12.09c7,0,10.5,2.77,10.5,8.33c0,4.1-1.4,6.95-4.2,8.57
		c-1.82,1.06-4.38,1.71-7.68,1.97c-1.04,0.08-2.16,0.12-3.36,0.12V782.89z M378.87,764.96L378.87,764.96l1.23,0.04
		c4.33,0.17,6.5-2.19,6.5-7.1c0-0.64-0.1-1.47-0.27-2.49c-0.25-1.49-0.96-2.52-2.13-3.08c-0.83-0.4-2.12-0.6-3.86-0.6h-1.47V764.96z
		 M371.51,749.07L371.51,749.07h10.45c4.02,0,6.67,0.33,7.97,0.99c2.84,1.44,4.27,3.79,4.27,7.04c0,4.78-2.55,7.75-7.64,8.89
		l2.46,4.16l8.14,12.74l-4.46-0.25c-1.65,0.16-3.13,0.25-4.44,0.25l-9.05-15.82h-0.34v15.82l-3.69-0.25
		c-1.31,0.16-2.53,0.25-3.67,0.25V749.07z M336.77,767.36L336.77,767.36c0,5.12,1.49,8.89,4.46,11.32c1.55,1.26,3.5,1.89,5.81,1.89
		c4.74,0,7.99-2.65,9.77-7.97c0.79-2.41,1.19-5.01,1.19-7.81c0-2.23-0.36-4.41-1.1-6.53c-1.64-4.75-4.71-7.12-9.21-7.12
		c-5.33,0-8.72,3.02-10.17,9.05C337.02,762.25,336.77,764.64,336.77,767.36z M346.81,783.53L346.81,783.53
		c-5.55,0-9.95-1.55-13.18-4.64c-3.34-3.17-5.01-7.49-5.01-12.97c0-3.33,0.77-6.35,2.34-9.03c1.56-2.69,3.8-4.81,6.72-6.36
		c2.94-1.56,6.36-2.34,10.3-2.34c6.35,0,11.08,1.9,14.21,5.73c1.39,1.71,2.4,3.6,3.01,5.66c0.64,2.09,0.97,4.15,0.97,6.15
		c0,4.98-1.74,9.16-5.22,12.54C357.36,781.77,352.64,783.53,346.81,783.53z M324.69,777.16L324.69,777.16l-1.09,4.25
		c-2.69,1.42-5.94,2.12-9.71,2.12c-5.37,0-9.77-1.52-13.2-4.54c-3.53-3.11-5.3-7.14-5.3-12.08c0-6.13,1.9-10.85,5.71-14.15
		c3.54-3.04,8.15-4.57,13.87-4.57c3.86,0,7.2,0.81,10,2.43l-1.12,5.05h-0.68c-1.26-1.85-2.95-3.16-5.05-3.95
		c-1.05-0.38-2.09-0.58-3.12-0.58c-3.78,0-6.69,1.59-8.73,4.77c-0.98,1.53-1.66,3.13-2.06,4.81c-0.45,1.87-0.67,3.7-0.67,5.51
		c0,5.94,1.79,10.11,5.37,12.54c1.75,1.21,3.87,1.81,6.33,1.81c3.28,0,6.22-1.24,8.78-3.7L324.69,777.16z M270.27,749.07
		L270.27,749.07c1.1,0.17,1.79,0.24,2.07,0.24c0.28,0,0.99-0.08,2.1-0.24l3.2,26.51c0.1,0.92,0.29,2.17,0.55,3.74
		c0.11,0.7,0.3,1.88,0.57,3.57l-4.07-0.25l-3.98,0.25c0-1.22-0.11-3.14-0.36-5.73l-0.5-5.47l-1.26-11.77l-10.88,22.73h-1.88l-4-8.43
		c-0.25-0.48-0.64-1.24-1.15-2.29l-5.62-11.47c-1.37,10.73-2.06,18.2-2.06,22.43l-2.31-0.25l-2.25,0.25
		c0.45-2.52,0.92-5.36,1.42-8.57c0.49-3.09,1.04-6.83,1.66-11.27l1.95-13.98c1.07,0.17,1.75,0.24,2.01,0.24
		c0.27,0,0.96-0.09,2.07-0.25c2.08,4.59,5.83,12.32,11.28,23.18l5.96-11.67c0.72-1.43,1.3-2.56,1.7-3.39
		c0.23-0.46,0.6-1.23,1.13-2.31l1.37-2.93C269.14,751.6,269.57,750.65,270.27,749.07z M231.32,755.42L231.32,755.42
		c-1.09-2.85-2.97-4.29-5.67-4.29c-3.6,0-5.4,1.61-5.4,4.84c0,1.43,0.49,2.49,1.44,3.17c0.69,0.51,2.68,1.65,5.98,3.43
		c2.48,1.34,4.32,2.7,5.54,4.07c1.33,1.5,1.99,3.52,1.99,6.04c0,4.35-2.09,7.5-6.29,9.45c-2,0.93-4.24,1.4-6.73,1.4
		c-3.06,0-5.7-0.7-7.92-2.12c0.72-2.53,1.2-4.63,1.44-6.28h0.93c0.36,1.67,1.14,2.99,2.36,3.97c1.22,0.98,2.7,1.47,4.41,1.47
		c1.63,0,2.98-0.43,4.05-1.3c1.14-0.95,1.71-2.23,1.71-3.83c0-1.78-0.76-3.23-2.28-4.35c-0.48-0.35-2.04-1.16-4.68-2.42
		c-2.64-1.26-4.51-2.53-5.62-3.82c-1.37-1.6-2.06-3.71-2.06-6.32c0-3.03,0.97-5.47,2.9-7.35c2.07-2,4.88-3,8.45-3
		c3.53,0,6.11,0.8,7.75,2.38c-0.09,0.17-0.25,0.67-0.5,1.5c-0.5,1.54-0.85,2.66-1.05,3.36H231.32z M200.33,749.07L200.33,749.07
		c0.52,0,1.75,0.08,3.66,0.24c1.37-0.17,2.59-0.24,3.69-0.24v33.82l-3.69-0.25c-1.36,0.16-2.58,0.25-3.66,0.25V749.07z
		 M176.85,764.96L176.85,764.96l1.22,0.04c4.33,0.17,6.5-2.19,6.5-7.1c0-0.64-0.09-1.47-0.26-2.49c-0.25-1.49-0.97-2.52-2.14-3.08
		c-0.83-0.4-2.12-0.6-3.85-0.6h-1.47V764.96z M169.49,749.07L169.49,749.07h10.46c4.02,0,6.67,0.33,7.97,0.99
		c2.83,1.44,4.26,3.79,4.26,7.04c0,4.78-2.55,7.75-7.64,8.89l2.47,4.16l8.13,12.74l-4.46-0.25c-1.64,0.16-3.13,0.25-4.43,0.25
		l-9.05-15.82h-0.34v15.82l-3.7-0.25c-1.31,0.16-2.53,0.25-3.67,0.25V749.07z M131.94,749.07L131.94,749.07
		c0.53,0,1.76,0.08,3.67,0.24c1.36-0.17,2.59-0.24,3.7-0.24v14c0,6.55,0.41,10.75,1.23,12.59c0.34,0.8,0.92,1.6,1.72,2.38
		c1.45,1.41,3.32,2.12,5.6,2.12c2.98,0,5.23-0.83,6.69-2.48c1.43-1.57,2.33-3.74,2.7-6.5c0.16-1.18,0.23-3.57,0.23-7.17v-14.94
		c0.66,0.1,1.31,0.15,1.97,0.15c0.65,0,1.3-0.05,1.96-0.15v17.55c0,2.21-0.13,4.3-0.37,6.27c-0.16,1.32-0.61,2.7-1.34,4.17
		c-0.71,1.39-1.88,2.67-3.51,3.85c-2.44,1.75-5.54,2.61-9.29,2.61c-4.76,0-8.48-1.14-11.15-3.42c-2.54-2.14-3.82-5.77-3.82-10.93
		V749.07z M96.52,767.36L96.52,767.36c0,5.12,1.49,8.89,4.46,11.32c1.55,1.26,3.49,1.89,5.81,1.89c4.73,0,7.99-2.65,9.77-7.97
		c0.79-2.41,1.19-5.01,1.19-7.81c0-2.23-0.36-4.41-1.1-6.53c-1.64-4.75-4.72-7.12-9.22-7.12c-5.32,0-8.71,3.02-10.16,9.05
		C96.76,762.25,96.52,764.64,96.52,767.36z M106.55,783.53L106.55,783.53c-5.55,0-9.95-1.55-13.18-4.64
		c-3.34-3.17-5.01-7.49-5.01-12.97c0-3.33,0.77-6.35,2.34-9.03c1.56-2.69,3.8-4.81,6.72-6.36c2.94-1.56,6.36-2.34,10.29-2.34
		c6.35,0,11.09,1.9,14.21,5.73c1.39,1.71,2.4,3.6,3.02,5.66c0.64,2.09,0.96,4.15,0.96,6.15c0,4.98-1.73,9.16-5.21,12.54
		C117.1,781.77,112.38,783.53,106.55,783.53z M76.81,782.89l-3.68-0.25c-1.36,0.16-2.58,0.25-3.69,0.25v-30.33
		c-2.63,0-5.68,0.23-9.15,0.7c0.16-1.11,0.23-1.82,0.23-2.12c0-0.27-0.08-0.95-0.23-2.07h25.3c-0.17,1.11-0.23,1.8-0.23,2.07
		c0,0.29,0.07,1,0.23,2.12c-3.93-0.47-6.87-0.7-8.8-0.7V782.89z"/>
	<path class="st31" d="M813.78,621.8l1.07-0.53h38.73l-9.37,18.82l-0.81,0.69l-38.55-0.08l-1.25-0.63L813.78,621.8z M149.59,621.27
		l-1.25,0.63l-4.37,8.77v0.63l0.63,0.63l31.24,0.63v0.63l-22.49,48.25c-6.72,13.01-15.51,11.88-28.16,12.24
		c-18.73,0.51-37.45,1.03-56.17,1.55l-5.62,8.15h112.44c3.85-0.02,7.51-2.54,9.37-6.27l19.01-35.87l27.22,0.15
		c-4.99,10.64-10.78,20.92-10.52,29.24c0.37,11.52,10.77,14.07,20.62,14.57c23.57,1.19,38.9-4.48,47.99-11.21
		c0.9,2.7,2.57,5.54,4.81,7.61c1.96,1.82,4.36,3.03,7.06,3.03h14.37l89.95-0.63c0.84-0.03,1.69-0.06,2.52-0.1
		c5.81-0.22,23.2-5.68,29.96-7.42c-0.04,3.84,1.3,6.58,5.6,6.89h237.4l14.99-26.95l0.63-0.8l29.36-7.97l0.63,0.63
		c-3.7,7.23-9.63,15.05-12.47,22.18c-2.89,7.24,1.1,13.04,8.72,12.92h156.17c4.54-9.12,9.8-18.44,14.36-27.57l30.17-8.78
		c5.32-1.54,4.56-1.88,2.24,3.21l-11.14,25.24c-0.72,2.17-0.93,4.2-0.08,5.76c0.82,1.49,3.38,2.04,6.51,2.06l12.75,0.09h78.86
		l3.75-8.77l-0.62-0.63h-0.63h-61.85l-1.24-0.63l10.45-23.39l0.63-1.89c0.23-0.69,0.43-1.36,0.59-2.02c1.52-6-0.38-10.6-3.61-13.8
		c-4.87-4.82-12.07-6.64-18.61-4.7l-38.17,11.33l-1.88,0.63h-0.63c1.69-1.69,2.3-4.34,2.32-6.66c0.02-2.02-0.55-3.99-2.94-3.99h-20
		h-24.1l-6.24,11.9v0.63l10.44,0.02l-17.28,32.61l-26.64,0.04l22.14-44.07l-0.62-1.26l-39,0.01l-23.41,45.29l-25.81-0.12l-0.78-1.36
		l1.36-2.32l15.98-27.95c2.43-4.25-0.02-8.73-4.94-12.45c-3.7-2.81-9.02-3.95-14.73-3.36l-37.54,6.78l17.29-30.64l0.63-1.08
		l-0.63-0.8h-1.88l-71.24-0.06h-0.62l-6.01,10.65l0.63,0.63h28.1h1.88h0.62h1.4l-32.55,59.48l-1.45,2.64l-29.15-0.12
		c-3.64-0.5-4.9-3.14-3.13-6.89l10.53-19.39c3.41-4.55,6.62-5.81,11.01-6.67c6.24-1.24,14.02-0.85,20.85-0.85l7.5-10.65v-1.25
		l-32.97-0.15c-12.78-0.06-25.57,1.22-33.25,8.92c-1.11,1.12-12.6,21.36-13.23,23.25c-3.83,8.32-0.11,10.36,2.62,13.1l-1.25,0.63
		l-38.07-0.44l39.07-70.62v-1.88l-77.46-0.63h-1.87l-6.37,11.11l0.63,0.63l35.21,0.17l-34.84,61.65h-21.24
		c-6.34,0.15-8.58-3.14-6.25-6.89l19.83-36.31l0.63-0.63v-1.25l-35.22-0.16h-1.25l-1.25,0.63l-15.59,29.89
		c-1.26,2.44-2.81,4.83-7.66,6.7c-5.21,2-12.77,5.08-18.77,6.53c-6.16,1.51-12.98,1.66-8.49-6.27l19.68-35.44v-1.88l-19.99-0.03
		h-29.98l-6.25,11.9l9.9,0.39l-14.21,27.18c-1.17,1.94-1.28,3.78,0.56,5.64l-19.33-0.06c-9.46-0.03-20.43,0.08-21.77-1.29
		c-1.49-1.52-0.91-3.26-0.12-4.92l20.27-37.53l-0.75-1.52l-36.61,0.2l-16.53,30.54c-6.51,12.04-18.02,14.65-31.05,15.08
		c-3.61,0.12-5.98-1.41-2.83-6.93l20.02-36.82v-1.88h-36.23l-30.19-0.1l12.7-25.6c0.89-1.89-0.31-2.5-1.88-2.5L149.59,621.27z"/>
	<path class="st20" d="M540,296.47c75.75,0,137.15,61.59,137.15,137.58c0,75.99-61.4,137.59-137.15,137.59
		c-75.74,0-137.15-61.6-137.15-137.59C402.84,358.07,464.25,296.47,540,296.47"/>
	<path class="st1" d="M584.21,588.39L584.21,588.39l-3.89,5.87l0.11,0.12h3.78V588.39z M578.86,596.58L578.86,596.58l0.1-0.98
		l-0.1-1l1.81-2.64c0.33-0.5,0.82-1.24,1.48-2.22l1.25-1.86c0.38-0.57,0.75-1.16,1.1-1.74l1.28,0.1c0.09,0,0.5-0.03,1.27-0.1v8.24
		h1.7c-0.07,0.54-0.1,0.91-0.1,1.09c0,0.2,0.04,0.58,0.1,1.11h-1.7v3.43l-1.41-0.1c-0.1-0.01-0.57,0.02-1.42,0.1v-3.43H578.86z
		 M575.99,586.26L575.99,586.26c-0.07,0.64-0.1,1.05-0.1,1.21c0,0.16,0.03,0.57,0.1,1.24h-5.89l-0.16,3.55l0.12,0.05
		c0.59-0.31,1.28-0.47,2.07-0.47c1.25,0,2.29,0.31,3.09,0.95c0.89,0.7,1.33,1.65,1.33,2.88c0,1.4-0.61,2.55-1.82,3.43
		c-0.65,0.47-1.46,0.79-2.43,0.98c-0.48,0.08-0.9,0.12-1.28,0.12c-1.42,0-2.62-0.38-3.61-1.16c0.38-0.55,0.73-1.24,1.02-2.09h0.29
		c0.38,1.55,1.13,2.32,2.23,2.32c0.89,0,1.55-0.37,2.01-1.08c0.37-0.6,0.56-1.37,0.56-2.32c0-0.75-0.21-1.42-0.64-2
		c-0.47-0.64-1.07-0.97-1.78-0.97c-0.66,0-1.26,0.28-1.78,0.83l-0.5-0.28l0.34-7.2H575.99z M561.08,587.06L561.08,587.06
		c-0.63,0-1.11,0.37-1.44,1.13c-0.24,0.56-0.37,1.22-0.37,1.95c0,2.2,0.61,3.29,1.83,3.29c0.63,0,1.09-0.35,1.39-1.05
		c0.22-0.51,0.32-1.14,0.32-1.89C562.82,588.2,562.24,587.06,561.08,587.06z M557.49,598.46L557.49,598.46
		c0.75,0.54,1.35,0.81,1.8,0.81c1.51,0,2.56-0.99,3.14-2.97c0.29-0.97,0.44-1.8,0.44-2.46v-0.21l-0.15-0.06
		c-0.29,0.32-0.65,0.57-1.08,0.77c-0.44,0.18-0.89,0.28-1.36,0.28c-1.14,0-2.09-0.34-2.85-1.02c-0.79-0.7-1.19-1.62-1.19-2.76
		c0-1.04,0.18-1.88,0.55-2.5c0.21-0.36,0.49-0.71,0.83-1.06c0.78-0.76,1.83-1.14,3.17-1.14c1.75,0,3.06,0.56,3.91,1.69
		c0.77,1.02,1.15,2.35,1.15,4.01c0,2.32-0.52,4.26-1.56,5.82c-0.53,0.78-1.23,1.41-2.12,1.87c-0.9,0.46-1.82,0.69-2.78,0.69
		c-0.52,0-0.91-0.05-1.17-0.16l-0.22-0.1c-0.08-0.01-0.12-0.03-0.14-0.06l-0.08-0.19c-0.09-0.25-0.24-0.61-0.44-1.08L557.49,598.46z
		 M548.49,588.4L548.49,588.4c-0.77,0.44-1.56,0.85-2.41,1.23c-0.18-0.34-0.47-0.68-0.83-1.03v-0.17c1.7-0.55,3.67-1.4,5.9-2.53
		l0.16,0.1v14.01l-1.41-0.1c-0.11-0.01-0.58,0.02-1.41,0.1V588.4z M531.75,595.03L531.75,595.03c0,2.56,0.95,3.82,2.85,3.82
		c0.9,0,1.7-0.3,2.39-0.92l0.25,0.19l-0.45,1.15c-0.4,0.29-0.87,0.51-1.4,0.68c-0.53,0.18-1.03,0.25-1.53,0.25
		c-2.23,0-3.75-0.83-4.55-2.5c-0.39-0.8-0.59-1.77-0.59-2.91c0-2.03,0.73-3.47,2.18-4.32c0.71-0.42,1.55-0.63,2.51-0.63
		c1.88,0,3.14,0.72,3.77,2.16c0.33,0.74,0.48,1.52,0.45,2.35l-0.01,0.67H531.75z M534.78,594.05L534.78,594.05
		c0-2.18-0.45-3.27-1.35-3.27c-0.65,0-1.09,0.32-1.3,0.98c-0.25,0.75-0.38,1.51-0.38,2.28H534.78z M526.8,592.91L526.8,592.91h-0.49
		c-0.07-0.6-0.29-1.09-0.64-1.5c-0.38-0.42-0.87-0.63-1.45-0.63c-1.1,0-1.86,0.74-2.26,2.22c-0.17,0.63-0.25,1.23-0.25,1.81
		c0,2.7,1.04,4.04,3.11,4.04c0.39,0,0.78-0.09,1.18-0.27c0.39-0.17,0.71-0.41,0.95-0.7l0.35,0.3l-0.5,1.23
		c-0.27,0.24-0.7,0.43-1.31,0.58c-0.52,0.13-1.01,0.2-1.45,0.2c-1.61,0-2.89-0.43-3.86-1.28c-1.01-0.89-1.51-2.13-1.51-3.72
		c0-1.62,0.5-2.92,1.5-3.9c0.96-0.97,2.27-1.45,3.89-1.45c0.61,0,1.24,0.08,1.9,0.25c0.66,0.16,1.21,0.39,1.63,0.69L526.8,592.91z
		 M507.48,590.04L507.48,590.04l1.37,0.09c0.1,0.01,0.56-0.02,1.35-0.09v1.51c0.98-1.13,2.04-1.71,3.16-1.71
		c1.24,0,2.1,0.4,2.62,1.2c0.41,0.63,0.62,1.62,0.62,2.94v6.02l-1.41-0.1c-0.11-0.01-0.58,0.02-1.42,0.1v-5.12
		c0-0.97-0.07-1.68-0.21-2.12c-0.24-0.8-0.73-1.19-1.47-1.19c-0.8,0-1.32,0.45-1.58,1.36c-0.13,0.48-0.2,1.26-0.2,2.35v4.73
		l-1.43-0.1c-0.11-0.01-0.58,0.02-1.41,0.1V590.04z M503.47,584.65L503.47,584.65c0.45,0,0.83,0.16,1.15,0.49
		c0.33,0.32,0.5,0.7,0.5,1.14c0,0.44-0.17,0.82-0.5,1.15c-0.32,0.32-0.7,0.48-1.15,0.48c-0.43,0-0.81-0.16-1.13-0.48
		c-0.31-0.32-0.47-0.71-0.47-1.14c0-0.44,0.16-0.82,0.47-1.14C502.66,584.81,503.04,584.65,503.47,584.65z M502.08,590.04
		L502.08,590.04l1.42,0.09c0.1,0.01,0.58-0.02,1.41-0.09v9.97l-1.41-0.1c-0.12-0.01-0.59,0.02-1.42,0.1V590.04z M498.37,588.56
		c-0.45-1.2-1.24-1.79-2.36-1.79c-1.5,0-2.25,0.67-2.25,2.01c0,0.59,0.2,1.04,0.6,1.32c0.29,0.21,1.12,0.69,2.49,1.42
		c1.04,0.56,1.81,1.12,2.31,1.71c0.56,0.63,0.83,1.46,0.83,2.51c0,1.82-0.88,3.13-2.63,3.95c-0.83,0.39-1.77,0.58-2.82,0.58
		c-1.27,0-2.37-0.3-3.3-0.88c0.3-1.06,0.5-1.94,0.6-2.63h0.39c0.15,0.7,0.48,1.26,0.99,1.66c0.51,0.41,1.12,0.61,1.83,0.61
		c0.69,0,1.24-0.18,1.7-0.54c0.47-0.39,0.71-0.93,0.71-1.6c0-0.74-0.32-1.35-0.95-1.82c-0.2-0.15-0.85-0.48-1.95-1.01
		c-1.1-0.52-1.89-1.06-2.35-1.59c-0.57-0.67-0.86-1.55-0.86-2.64c0-1.27,0.4-2.28,1.21-3.07c0.87-0.83,2.03-1.25,3.53-1.25
		c1.47,0,2.55,0.33,3.23,0.99c-0.03,0.07-0.1,0.28-0.21,0.63c-0.21,0.64-0.35,1.11-0.44,1.41H498.37z"/>
	<path class="st31" d="M528.64,375.89L528.64,375.89c3.28,0.4,6.63,0.63,10.08,0.66l-0.05-23.58c-3.46-0.11-6.92-0.56-10.33-1.3
		c-0.9,1.57-1.76,3.21-2.62,4.89c-1.17,2.3-2.28,4.65-3.32,7.03c-0.38,0.88-0.75,1.76-1.12,2.66
		C523.42,368.24,526.39,371.5,528.64,375.89 M499.17,367.76L499.17,367.76l2.56,1.08l12.44-7.54l1.45-6.93
		c1.11,2.63,3.44,5.69,2.96,9.63c0,0,0.34,0.24,0.9,0.7l0.85-2.01c1.09-2.48,2.21-4.87,3.37-7.17c0.75-1.48,1.53-2.95,2.35-4.41
		c-1.25-0.32-2.48-0.69-3.7-1.09c-2.23-0.73-4.42-1.61-6.56-2.61l-1.01,1.16C509.89,354.22,504.44,360.48,499.17,367.76z
		 M538.74,384.3L538.74,384.3l-0.01-5.5c-3.07-0.02-6.05-0.2-8.99-0.51c1.57,3.89,2.47,8.48,1.85,13.72
		C533.9,389.36,536.27,386.79,538.74,384.3z M499.34,370.28L499.34,370.28l-1.51-0.65c-0.61,0.87-1.2,1.76-1.8,2.66L499.34,370.28z
		 M482.74,397.75L482.74,397.75c1.09,0.41,2.21,0.83,3.36,1.23c0.84-0.58,1.8-0.95,2.87-1.14c2.99,0.86,5.3,2.26,7.01,4.1l2.07,0.52
		l10.75-8.5c1.52-4.53,3.03-9.07,4.55-13.59c-4.59,0.22-7.73-1.12-10.19-3.19c-2.5,1.18-5,2.35-7.5,3.53
		c-0.57-0.59-1.16-1.2-1.73-1.8c0.99-0.88,1.98-1.75,2.97-2.63c-1.36,0.51-2.11,1.33-3.46,1.84c-0.14-0.42-0.19-0.91-0.23-1.42
		C489.32,382.97,485.71,389.92,482.74,397.75z M507.44,432.93L507.44,432.93h31.43l-0.02-6.69c-4.75,1.39-20.78,4.99-29.51-6.62
		c0,0-0.44,0.16-1.19,0.33C507.72,424.34,507.48,428.64,507.44,432.93z M484.34,400.77L484.34,400.77l-2.39-0.88
		c-0.39,1.09-0.75,2.2-1.11,3.32c0.62-0.45,1.22-0.88,1.85-1.27c2.84,1.13,5.7,2.26,8.54,3.4c-2.38-1.39-4.77-2.77-7.16-4.16
		L484.34,400.77z M476.05,432.93L476.05,432.93h11.06c-1.09-1.5-1.72-4.23-1.72-4.23c-2.7-2.84-0.76-9.01-0.76-9.01l-0.27-8.39
		l1.1,0.38l2.17,0.86c-0.56,3.05,0.79,5.27,0.79,5.27c2.2,2.57-0.51,4.65-0.51,4.65c-0.64,3.04,3.95,5.54,3.95,5.54
		c-1.9,0.43-3.26,3.5-3.8,4.91h17.13c0.03-4.19,0.27-8.38,0.68-12.65c-2.3,0.16-5.3-0.19-7.61-2.33c-4.59-2.68-9.18-5.36-13.77-8.04
		c0,0-5.24,3.14-7.22,7.58c-0.25,1.51-0.46,3.02-0.63,4.52c0.2,1.1,0.68,2.23,1.53,3.4c0,0-1.22,0.19-1.9,0.87
		C476.11,428.5,476.03,430.71,476.05,432.93z M524.57,459.83L524.57,459.83l-14.84-0.11c-1.48-8.45-2.22-16.39-2.29-24.3h31.44
		l-0.04,16.15l-7.82-0.02l-0.16,1.96l-3.22,6.21C526.6,459.74,525.58,459.78,524.57,459.83z M507.43,459.7L507.43,459.7l-23.46-0.19
		l1.35-8.14h-7.47c-0.69-3.86-1.22-7.76-1.52-11.71c-0.1-1.41-0.18-2.83-0.22-4.24l29.07-0.01
		C505.25,443.34,505.98,451.28,507.43,459.7z M518.22,491.97L518.22,491.97c6.41-1.45,13.29-2.37,20.51-2.44l0.01-4.03l-22.7-0.01
		c0.57,1.81,1.17,3.62,1.81,5.42L518.22,491.97z M497.76,498.74L497.76,498.74c5.41-2.36,11.55-4.58,18.26-6.24l-0.31-0.84
		c-0.71-2.04-1.39-4.1-2.03-6.17l-24.13-0.01c1.99,3.66,4.18,7.26,6.55,10.81C496.64,497.1,497.19,497.93,497.76,498.74z
		 M528.91,516.55L528.91,516.55c3.23-0.67,6.5-1.06,9.76-1.18l0.05-23.57c-6.93,0.05-13.55,0.93-19.73,2.31
		C521.81,501.74,525.11,509.23,528.91,516.55z M515.41,521.09L515.41,521.09c2.27-1.07,4.59-2,6.95-2.78
		c1.41-0.46,2.83-0.88,4.27-1.24c-3.77-7.34-7.05-14.82-9.85-22.45c-6.49,1.6-12.43,3.72-17.7,6
		C504.03,507.59,509.59,514.38,515.41,521.09z M560.48,493.99L560.48,493.99c-6.01-1.31-12.43-2.13-19.15-2.18l0.06,23.57
		c3.08,0.11,6.16,0.47,9.2,1.07C554.38,509.11,557.67,501.62,560.48,493.99z M580.49,500.42L580.49,500.42
		c-5.29-2.26-11.28-4.37-17.79-5.93c-2.79,7.63-6.06,15.11-9.83,22.45c1.63,0.39,3.23,0.85,4.83,1.37c2.2,0.73,4.37,1.59,6.5,2.58
		C570.02,514.18,575.56,507.38,580.49,500.42z M541.32,485.5L541.32,485.5l0.01,4.03c7,0.06,13.68,0.93,19.92,2.3l0.33-0.92
		c0.63-1.79,1.23-3.59,1.8-5.4L541.32,485.5z M565.75,485.52L565.75,485.52c-0.64,2.05-1.32,4.1-2.04,6.14l-0.24,0.71
		c6.73,1.62,12.9,3.82,18.34,6.17c0.52-0.75,1.03-1.49,1.53-2.25c2.36-3.53,4.54-7.11,6.51-10.75L565.75,485.52z M572,435.42
		L572,435.42c-0.04,5.18-0.38,10.37-1.03,15.71l-11.99-0.09l-3.02,8.05H552l2.61-7.46l-13.37-0.05l-0.04-16.16H572z M602.24,447.22
		L602.24,447.22c0.29-1.94,0.52-3.9,0.71-5.86c-3.77-2.39-8.61-4.76-13.02-4.83c0.75,1.83,1.91,3.61,5.03,5.2
		c0.78-0.11,1.56-0.23,2.34-0.35L602.24,447.22z M576.83,435.42L576.83,435.42h-2.57c-0.04,5.2-0.37,10.39-1.01,15.72l8,0.06
		l-2.11,8.05l7.26,0.17l3.36-8.14l11.82,0.07c0.18-1.01,0.36-2.02,0.51-3.02c-2.26,0.23-7.84,0.24-11.2-4.6
		c-4.27-6.16-5.44-7.21-5.44-7.21c-2.13,0.21-4.27,0.42-6.4,0.63C579.05,437.16,578.52,437.27,576.83,435.42z M603.33,435.43
		L603.33,435.43h-2.77l1.49,1.04l1.23-0.07L603.33,435.43z M541.21,425.36L541.21,425.36l-0.02,7.56H572l-0.04-1.17
		c-3.05-0.76-10.06-3.48-11.72-12.42C560.25,419.34,550.55,421.42,541.21,425.36z M597.25,432.93L597.25,432.93h6.12
		c0.05-6.42-0.55-12.92-1.97-19.46c-2.71-3.98-7.81-8.49-16.3-5.99c0,0,4.68,9.16-1.17,14.7c0,0-1.37,3.33,1.37,5.34
		c0,0,2.82,2.49,5.93,0.97C591.24,428.49,598.34,427.28,597.25,432.93z M574.24,432.82L574.24,432.82l0.01,0.1h0.1L574.24,432.82z
		 M597.56,400.09L597.56,400.09c-4.17,1.55-8.75,3.01-13.7,4.25l0.29,0.43c0,0,7.2-2.61,14.41-1.69
		C598.23,402.07,597.91,401.07,597.56,400.09z M563.92,382.66L563.92,382.66l-0.02-0.05l-0.09,0.05H563.92z M566.03,390.36
		L566.03,390.36l-0.38-1.46h-10.08c-0.8,0.46-1.61,0.92-2.42,1.38L566.03,390.36z M541.28,399.58L541.28,399.58v0.2
		c0.53,0.93,3.18,4.74,9.81,2.29c0,0,7.93-3.98,16.65-4.34c-0.32-1.5-0.65-2.97-1-4.42c-2.31,0.97-5.65,1.83-10.28,1.83
		c-3.62-0.05-7.24-0.11-10.87-0.17c-0.9,0.47-1.81,0.93-2.71,1.39c4.58,0.03,9.17,0.07,13.75,0.1c0,0-3.82,3.09-9.98,3.09
		L541.28,399.58z M544.27,378.74L544.27,378.74c-0.97,0.04-1.96,0.06-2.94,0.07l-0.01,2.94
		C542.4,380.67,543.36,379.66,544.27,378.74z M565.9,381.4L565.9,381.4l0.39,1.29l17.93,0.1c0,0-3.86,6.24-11.85,6.11h-4.38
		l0.37,1.48l2.81,0.01c0,0-0.71,0.88-2.35,1.86c0.43,1.8,0.83,3.62,1.23,5.48c2.63,0.1,5.29,0.57,7.76,1.65c0,0,2.35,1.32,4.3,3.07
		c5.34-1.3,10.22-2.84,14.66-4.49c-2.37-6.31-5.17-12.05-8.19-17.32c-0.68,0.13-1.37,0.21-2.09,0.21
		c-6.68,0.07-13.36,0.14-20.04,0.21L565.9,381.4z M581.74,369.84L581.74,369.84c-1.41,0.61-2.89,1.22-4.39,1.8
		c1.97,0.1,3.89,0.18,5.78,0.25C582.68,371.2,582.21,370.51,581.74,369.84z M551.16,351.79L551.16,351.79
		c-3.23,0.67-6.5,1.07-9.77,1.18l-0.06,23.58c1.8-0.01,3.58-0.08,5.34-0.19c3.36-3.2,6.14-4.94,11.35-5.16
		c0.68-0.03,1.36-0.04,2.05-0.05c-0.97-2.58-1.97-5.1-3.04-7.55c-1.04-2.38-2.16-4.73-3.33-7.03
		C552.88,354.92,552.02,353.32,551.16,351.79z M563.81,347.63L563.81,347.63c-2,0.91-4.05,1.71-6.11,2.4
		c-1.41,0.46-2.82,0.87-4.24,1.22c0.79,1.42,1.54,2.83,2.28,4.27c1.16,2.3,2.29,4.69,3.37,7.17c1.19,2.72,2.3,5.54,3.36,8.42
		c2.99,0,6.01,0.1,9.01,0.23c3.16-1.04,6.14-2.2,8.93-3.39c-5.3-7.35-10.81-13.68-15.76-19.37L563.81,347.63z M479.73,357.21
		L479.73,357.21c8.04-6.36,17.12-11.47,26.92-15.06c1.64,1.15,3.33,2.21,5.06,3.18c0.66,0.37,1.32,0.73,1.99,1.07l-0.61,0.7
		c-5.03,5.78-10.64,12.21-16.05,19.72C489.53,363.4,483.58,359.79,479.73,357.21z M456.06,384.35L456.06,384.35
		c5.76-9.77,13.16-18.45,21.83-25.65c3.85,2.62,9.99,6.41,17.84,10c-5.62,8.05-10.95,17.31-15.09,28.25
		C469.71,392.62,461.64,387.74,456.06,384.35z M442.54,432.93L442.54,432.93h31.25c-0.01-1.03,0.01-2.04,0.03-3.07l-2.24,1.73
		c-0.53-1.89-1.52-6.41,0.13-9.44c0,0,4.3-3.02,3.3-9.61c-0.21-1.22-0.22-2.43,0.18-3.63c0.79-1.14,1.62-2.09,2.44-2.94
		c0.69-2.35,1.42-4.67,2.21-6.89c-11.07-4.37-19.25-9.32-24.91-12.76C447.21,400.13,442.73,416.01,442.54,432.93z M445.83,459.38
		L445.83,459.38c-2.05-7.65-3.18-15.68-3.3-23.95h31.31c0.05,1.48,0.13,2.95,0.24,4.42c0.29,3.89,0.8,7.74,1.48,11.54h-12.74
		l-2.94,8.33L445.83,459.38z M478.04,509.54L478.04,509.54c3.84-2.6,9.9-6.33,17.62-9.86c-0.5-0.71-0.98-1.43-1.45-2.14
		c-2.63-3.96-5.07-7.98-7.23-12.07l-29.91-0.02C462.71,494.59,469.81,502.73,478.04,509.54z M506.88,526.04L506.88,526.04
		c1.57-1.09,3.18-2.09,4.83-3.03c0.53-0.31,1.07-0.59,1.62-0.88c-5.83-6.74-11.4-13.57-16.35-20.58c-7.38,3.36-13.24,6.9-17.09,9.47
		C487.95,517.38,497.04,522.49,506.88,526.04z M570.47,526.95L570.47,526.95c-1.05-0.69-2.13-1.34-3.24-1.96
		c-0.81-0.46-1.64-0.9-2.47-1.31l-0.56,0.64l-1.71-1.49l0.15-0.17c-1.85-0.84-3.74-1.57-5.65-2.2c-1.72-0.57-3.46-1.05-5.21-1.45
		l-0.22,0.4l-1.38-0.75c-3.36-0.66-6.77-1.02-10.16-1.05c-3.73,0.03-7.48,0.46-11.16,1.26l-1.01,0.54l-0.14-0.28
		c-1.56,0.37-3.11,0.82-4.65,1.33c-2.11,0.7-4.21,1.52-6.25,2.47l-1.58,1.38l-0.37-0.43c-0.69,0.35-1.37,0.71-2.05,1.1
		c-1.1,0.62-2.19,1.27-3.25,1.97c9.57,3.16,19.81,4.87,30.44,4.87C550.64,531.84,560.89,530.12,570.47,526.95z M600.13,511.01
		L600.13,511.01c-3.93-2.62-9.95-6.26-17.53-9.67c-4.94,7.01-10.49,13.84-16.31,20.58c0.69,0.35,1.37,0.72,2.05,1.1
		c1.64,0.92,3.24,1.93,4.81,3.01C582.98,522.46,592.07,517.36,600.13,511.01z M622.93,485.42L622.93,485.42l-28.8,0.11h-1.71
		c-2.16,4.08-4.57,8.07-7.2,12.01c-0.43,0.64-0.86,1.28-1.3,1.92c7.92,3.59,14.14,7.41,18.06,10.06
		C610.21,502.71,617.3,494.57,622.93,485.42z M637.45,435.43L637.45,435.43c-0.11,8.16-1.23,16.08-3.22,23.65l-31.08-0.07l1.51-7.62
		l-0.8-0.01c0.5-2.83,0.91-5.7,1.21-8.58c2.78,1.96,4.62,3.59,4.62,3.59c3.51,3.11,10.19,1.52,10.19,1.52
		c-1.9-2.56-3.81-5.13-5.71-7.7c-0.8,0.49-1.61,0.98-2.41,1.45c-1.63,0.33-3.09-0.32-4.47-1.52c-0.14-1.32-0.28-2.64-0.42-3.96
		l-1.32,0.1l0.04-0.85h11.46c0.86,0.5,1.39,0.69,1.39,0.69c0.35-0.05,0.67-0.3,0.96-0.69H637.45z M613.56,432.93L613.56,432.93
		c-2.69-2.31-5.99-6.09-8.61-12c0.49,4.03,0.71,8.03,0.68,12H613.56z M625.08,386.34L625.08,386.34c-5.75,3.5-14.1,8.54-25.42,12.95
		c0.49,1.39,0.96,2.82,1.42,4.26c2.86,0.73,5.59,2.13,7.72,4.63c0,0,8.61,14.7,13.5,15.32c0,0-0.56,5.69-1.75,9.43h16.9
		C637.26,416.02,632.79,400.14,625.08,386.34z M602.13,358.72L602.13,358.72c8.67,7.2,16.06,15.88,21.82,25.65
		c-5.68,3.44-13.9,8.42-25.07,12.78c-2.36-6.25-5.1-11.95-8.07-17.19c6.34-2.55,10.96-9.57,10.96-9.57
		c-4.18,1.42-9.7,1.71-15.85,1.58c-0.69-1.04-1.36-2.07-2.07-3.07C591.91,365.26,598.21,361.38,602.13,358.72z M573.38,342.16
		L573.38,342.16c-1.63,1.15-3.32,2.21-5.03,3.17c-0.8,0.44-1.61,0.88-2.43,1.29l0.42,0.48c5.09,5.83,10.75,12.34,16.2,19.93
		c7.72-3.47,13.82-7.17,17.76-9.8C592.25,350.87,583.19,345.75,573.38,342.16z M540,336.27L540,336.27
		c-10.72,0-21.03,1.74-30.68,4.95c1.15,0.76,2.3,1.47,3.49,2.13c3.29,1.85,6.73,3.37,10.25,4.53c1.37,0.45,2.75,0.85,4.15,1.19
		l0.17-0.28l0.01-0.01l0.98,0.56c3.85,0.87,7.75,1.34,11.66,1.37c3.56-0.04,7.15-0.43,10.68-1.16l1.34-0.78l0.01,0.01l0.25,0.42
		c1.58-0.37,3.15-0.82,4.7-1.33c3.52-1.16,6.97-2.68,10.24-4.53c1.18-0.66,2.34-1.36,3.48-2.11
		C561.06,338.02,550.73,336.27,540,336.27z M540,332.93L540,332.93c27.86,0,53.1,11.32,71.37,29.63
		c18.27,18.3,29.56,43.57,29.57,71.49h-0.01v0.01h0.01c0,27.92-11.3,53.19-29.57,71.5c-18.27,18.3-43.49,29.62-71.37,29.63v-0.01
		h-0.01v0.01c-27.86,0-53.1-11.33-71.37-29.63c-18.27-18.31-29.57-43.58-29.57-71.5v-0.01c0-27.92,11.3-53.2,29.57-71.5
		C486.89,344.25,512.13,332.93,540,332.93L540,332.93z M540,330.66L540,330.66c28.49,0,54.29,11.58,72.97,30.29
		c18.67,18.71,30.22,44.55,30.23,73.09v0.01c-0.01,28.55-11.56,54.39-30.24,73.11c-18.67,18.7-44.47,30.27-72.96,30.28h-0.01
		c-28.49-0.01-54.29-11.58-72.97-30.29c-18.66-18.71-30.22-44.55-30.22-73.09h-0.01v-0.01h0.01c0-28.55,11.55-54.4,30.23-73.1
		C485.71,342.24,511.5,330.67,540,330.66L540,330.66z M540,302.41L540,302.41c36.23,0.01,69.03,14.74,92.78,38.57
		c23.75,23.82,38.44,56.73,38.44,93.06h-0.01v0.01h0.01c0,36.34-14.69,69.25-38.44,93.08c-23.75,23.82-56.55,38.56-92.78,38.56
		h-0.01c-36.23,0-69.03-14.74-92.78-38.57c-23.75-23.82-38.44-56.73-38.44-93.06h0.01v-0.01h-0.01c0-36.34,14.69-69.25,38.44-93.08
		C470.97,317.16,503.77,302.42,540,302.41L540,302.41L540,302.41L540,302.41z M540,300.15L540,300.15L540,300.15
		c36.85,0.01,70.23,15,94.38,39.22c24.15,24.23,39.1,57.71,39.1,94.67h0.01v0.01h-0.01c0,36.97-14.94,70.45-39.1,94.68
		c-24.15,24.23-57.52,39.22-94.38,39.22v0.01h-0.01v-0.01c-36.85,0-70.23-14.99-94.38-39.22c-24.15-24.23-39.1-57.71-39.1-94.67
		h-0.01v-0.01h0.01c0-36.97,14.94-70.45,39.1-94.68C469.76,315.15,503.14,300.16,540,300.15L540,300.15L540,300.15z M619.76,520.56
		L619.76,520.56l-5.08-2.6l1.96,5.41L619.76,520.56z M617.13,524.82L617.13,524.82l0.64,1.57l0.74,1.73l0.59,1.3l-0.83,0.66
		l-0.78,0.79l-5.73-16.19c0.25-0.16,0.47-0.33,0.68-0.52c0.21-0.18,0.41-0.4,0.6-0.63l15.36,7.54l-1.53,1.24
		c-0.48,0.53-0.94,1-1.39,1.41c-1.95-1.17-3.42-2-4.4-2.48L617.13,524.82z M596.65,526.2L596.65,526.2c0.21-0.13,0.71-0.42,1.5-0.84
		c0.49-0.4,0.95-0.75,1.38-1.02l8.53,13.18l-1.5,0.84c-0.49,0.41-0.95,0.75-1.37,1.03L596.65,526.2z M588.86,546.09L588.86,546.09
		c0.25-0.12,0.63-0.31,1.14-0.58c0.51-0.27,0.9-0.46,1.15-0.58c0.31-0.14,0.67-0.34,1.09-0.59l1.23-0.75l0.32,0.94
		c0.06,0.13,0.23,0.41,0.51,0.84l-7.84,3.67l-6.57-14.14c0.21-0.1,0.74-0.31,1.6-0.63c0.54-0.33,1.04-0.61,1.49-0.82L588.86,546.09z
		 M560.58,549.19L560.58,549.19c0.54,2.32,1.6,3.87,3.2,4.66c0.83,0.41,1.77,0.49,2.82,0.24c2.15-0.49,3.35-2.03,3.6-4.63
		c0.1-1.16,0.02-2.39-0.27-3.66c-0.24-1.01-0.63-1.96-1.18-2.84c-1.24-1.97-2.89-2.73-4.92-2.26c-2.41,0.56-3.63,2.28-3.66,5.16
		C560.15,546.85,560.29,547.96,560.58,549.19z M566.8,555.47L566.8,555.47c-2.51,0.57-4.66,0.34-6.45-0.72
		c-1.84-1.1-3.05-2.88-3.62-5.35c-0.35-1.51-0.31-2.96,0.11-4.34c0.43-1.37,1.23-2.57,2.39-3.58c1.16-1.02,2.63-1.73,4.42-2.14
		c2.88-0.67,5.22-0.31,7.03,1.1c0.81,0.64,1.47,1.38,1.97,2.24c0.5,0.88,0.86,1.79,1.07,2.69c0.52,2.26,0.18,4.33-1.05,6.23
		C571.4,553.56,569.45,554.85,566.8,555.47z M546.88,557.55L546.88,557.55c-2.49,0.61-4.54,0.88-6.13,0.83
		c-2.6-0.09-4.7-0.81-6.33-2.16c-1.76-1.45-2.6-3.44-2.5-5.97c0.13-3.67,1.75-6.15,4.88-7.47c1.46-0.6,3.08-0.88,4.85-0.82
		c2.02,0.08,3.84,0.61,5.46,1.59c-0.36,0.73-0.6,1.49-0.73,2.29l-0.31-0.01c-1.01-1.6-2.48-2.42-4.43-2.49
		c-1.79-0.06-3.23,0.61-4.29,2.02c-1.03,1.34-1.56,3.03-1.64,5.09c-0.07,2.01,0.36,3.59,1.29,4.75c0.94,1.15,2.26,1.75,3.98,1.82
		c0.95,0.02,1.79-0.16,2.53-0.57l0.18-5.35c0.24,0.01,0.8,0.07,1.71,0.17c0.64-0.05,1.2-0.07,1.71-0.05L546.88,557.55z
		 M509.79,538.12L509.79,538.12l2.2,0.55l5.3,9.62c0.1,0.2,0.3,0.54,0.55,1.02c0.27,0.49,0.45,0.84,0.57,1.08l0.56,1.08l2.59-10.41
		c0.27,0.1,0.55,0.21,0.87,0.28c0.29,0.08,0.58,0.13,0.9,0.16l-3.78,15.25l-1.87-0.49l-3.76-7.05c-0.29-0.54-0.56-1.05-0.83-1.54
		c-0.26-0.48-0.54-0.99-0.85-1.53l-1.78-3.14l-2.68,10.76l-0.87-0.28l-0.9-0.16L509.79,538.12z M485.14,537.31L485.14,537.31
		c-1,2.15-1.11,4.04-0.33,5.64c0.4,0.83,1.1,1.49,2.07,1.94c2,0.94,3.89,0.46,5.68-1.43c0.81-0.86,1.49-1.88,2.03-3.06
		c0.44-0.94,0.71-1.93,0.81-2.97c0.24-2.32-0.59-3.93-2.49-4.81c-2.24-1.04-4.25-0.45-6.05,1.82
		C486.24,535.2,485.68,536.16,485.14,537.31z M486.2,546.09L486.2,546.09c-2.34-1.1-3.89-2.61-4.64-4.54
		c-0.78-2-0.64-4.15,0.43-6.46c0.65-1.4,1.57-2.52,2.76-3.34c1.17-0.83,2.54-1.28,4.07-1.36c1.55-0.08,3.15,0.27,4.8,1.04
		c2.68,1.25,4.3,2.99,4.86,5.21c0.26,1,0.31,2,0.17,2.98c-0.14,1.01-0.41,1.94-0.8,2.79c-0.97,2.09-2.52,3.51-4.64,4.26
		C490.99,547.43,488.66,547.25,486.2,546.09z M476.25,521.49L476.25,521.49c0.36,0.37,0.58,0.6,0.69,0.68
		c0.1,0.09,0.38,0.26,0.84,0.51l-6.39,10.63c-0.22,0.36-0.52,0.88-0.88,1.53c-0.15,0.28-0.43,0.77-0.8,1.47l-1.42-1.26l-1.53-1.05
		c0.35-0.45,0.85-1.18,1.51-2.2l1.37-2.15l2.89-4.67l-10.48,5.19l-0.68-0.53l0.94-4.24c0.04-0.24,0.11-0.63,0.23-1.17l1.21-5.81
		c-3.56,3.54-5.94,6.07-7.15,7.62l-0.78-0.75l-0.9-0.56c0.88-0.79,1.86-1.7,2.97-2.73c1.05-0.99,2.32-2.21,3.82-3.65l4.7-4.56
		c0.35,0.37,0.57,0.59,0.67,0.67c0.1,0.08,0.38,0.25,0.83,0.51c-0.55,2.27-1.37,6.18-2.48,11.72l5.51-2.56
		c0.68-0.31,1.2-0.57,1.59-0.76c0.21-0.1,0.57-0.28,1.08-0.52l1.33-0.68C475.11,522.08,475.54,521.86,476.25,521.49z M664.85,432.68
		L664.85,432.68l-0.04,2.36l-8.48,7.63c-0.17,0.16-0.48,0.42-0.9,0.81c-0.43,0.37-0.75,0.64-0.95,0.82l-0.97,0.83l11.12,0.19
		c-0.05,0.3-0.09,0.62-0.09,0.96c-0.01,0.3,0.02,0.63,0.05,0.96l-16.28-0.29l0.06-2.01l6.24-5.46c0.47-0.43,0.93-0.83,1.36-1.21
		c0.42-0.37,0.88-0.78,1.35-1.21l2.75-2.55l-11.49-0.2l0.09-0.96l-0.05-0.96L664.85,432.68z M653.34,409.4L653.34,409.4
		c-2.42,0.47-4.06,1.52-4.93,3.16c-0.46,0.85-0.58,1.83-0.36,2.94c0.44,2.25,1.99,3.56,4.67,3.91c1.21,0.16,2.48,0.1,3.81-0.15
		c1.05-0.21,2.04-0.58,2.98-1.13c2.1-1.22,2.93-2.9,2.52-5.04c-0.5-2.53-2.24-3.87-5.22-4.01
		C655.78,409.04,654.63,409.15,653.34,409.4z M646.62,415.66L646.62,415.66c-0.51-2.64-0.19-4.87,0.98-6.69
		c1.2-1.89,3.09-3.08,5.68-3.58c1.57-0.3,3.07-0.22,4.49,0.28c1.41,0.49,2.62,1.36,3.62,2.62c1.01,1.24,1.69,2.81,2.06,4.69
		c0.58,3.02,0.12,5.44-1.4,7.28c-0.69,0.82-1.49,1.47-2.4,1.96c-0.93,0.5-1.88,0.84-2.82,1.03c-2.36,0.45-4.49,0.02-6.41-1.32
		C648.42,420.52,647.15,418.44,646.62,415.66z M657.22,390.97L657.22,390.97c0.08,0.24,0.23,0.82,0.46,1.72
		c0.29,0.6,0.52,1.15,0.69,1.65l-15.4,5.32l-0.47-1.73c-0.29-0.6-0.52-1.14-0.69-1.64L657.22,390.97z M637.23,385.78L637.23,385.78
		l-0.73-1.62c-0.37-0.55-0.69-1.05-0.94-1.52l12.89-6.88c-0.59-1.12-1.38-2.37-2.36-3.76c0.5-0.18,0.83-0.3,0.95-0.38
		c0.12-0.05,0.39-0.24,0.83-0.56l5.74,10.83c-0.51,0.18-0.82,0.3-0.93,0.36c-0.13,0.07-0.41,0.26-0.85,0.59
		c-0.69-1.79-1.26-3.1-1.7-3.93L637.23,385.78z M631.9,364.78L631.9,364.78l-2.73-3.39l5.7-1.76L631.9,364.78z M627.64,361.8
		L627.64,361.8l3.48,4.32c-0.55,0.99-1.47,2.47-2.79,4.44c0.39,0.5,0.86,1,1.37,1.53l1.2,1.66l8.64-15.59
		c-0.23-0.22-0.44-0.44-0.63-0.66c-0.18-0.23-0.35-0.48-0.5-0.74l-17.06,5.09l0.76,0.83l0.64,0.91l1.38-0.55l1.83-0.67L627.64,361.8
		z M616.86,345.36L616.86,345.36l0.43,0.39c1.56,1.42,3.09,1.22,4.61-0.6c0.2-0.24,0.43-0.57,0.67-1c0.37-0.63,0.43-1.24,0.17-1.81
		c-0.18-0.41-0.6-0.88-1.24-1.43l-0.54-0.45L616.86,345.36z M619.06,337.18L619.06,337.18l3.87,3.26c1.48,1.25,2.36,2.2,2.64,2.84
		c0.6,1.42,0.4,2.74-0.6,3.95c-1.48,1.76-3.35,2.07-5.58,0.9l-0.37,2.31l-0.93,7.25l-1.58-1.49c-0.66-0.45-1.23-0.89-1.72-1.29
		l1.55-8.67l-0.12-0.11l-4.89,5.86l-1.29-1.24c-0.53-0.35-1.02-0.7-1.43-1.05L619.06,337.18z M594.43,331.23L594.43,331.23
		c-1.19,2.17-1.44,4.1-0.75,5.83c0.36,0.89,1.03,1.62,2.02,2.16c2,1.11,3.99,0.76,5.99-1.07c0.9-0.84,1.67-1.84,2.33-3.03
		c0.52-0.94,0.88-1.95,1.05-3.02c0.42-2.4-0.32-4.12-2.23-5.18c-2.25-1.25-4.39-0.77-6.42,1.43
		C595.73,329.12,595.07,330.08,594.43,331.23z M594.9,340.42L594.9,340.42c-2.35-1.31-3.84-2.99-4.48-5.06
		c-0.67-2.13-0.37-4.35,0.91-6.66c0.78-1.41,1.81-2.49,3.09-3.27c1.29-0.78,2.73-1.14,4.33-1.11c1.61,0.03,3.23,0.51,4.89,1.44
		c2.69,1.49,4.24,3.42,4.67,5.76c0.19,1.05,0.17,2.09-0.04,3.1c-0.22,1.04-0.56,1.97-1.03,2.82c-1.17,2.09-2.87,3.46-5.13,4.07
		C599.77,342.16,597.37,341.79,594.9,340.42z M577.63,322.85L577.63,322.85c0.61,0.2,1.12,0.31,1.54,0.34
		c1.45,0.07,2.45-0.74,3.01-2.43c0.24-0.77,0.3-1.48,0.17-2.14c-0.17-0.81-0.59-1.33-1.29-1.56l-1.4-0.45L577.63,322.85z
		 M575.02,330.92L575.02,330.92l-1.66-0.66c-0.64-0.13-1.22-0.28-1.72-0.45l5.03-15.53l5.55,1.81c3.23,1.05,4.43,2.84,3.59,5.4
		c-0.61,1.88-1.67,2.98-3.21,3.31c-0.99,0.21-2.27,0.13-3.81-0.25c-0.5-0.12-1.01-0.27-1.57-0.45L575.02,330.92z M557.88,317.88
		L557.88,317.88l0.57,0.12c2.05,0.45,3.28-0.5,3.7-2.83c0.05-0.3,0.08-0.7,0.08-1.2c0-0.74-0.25-1.29-0.76-1.64
		c-0.36-0.26-0.97-0.47-1.79-0.62l-0.7-0.12L557.88,317.88z M555.7,309.7L555.7,309.7l4.98,0.88c1.91,0.34,3.15,0.72,3.71,1.14
		c1.24,0.93,1.71,2.16,1.44,3.71c-0.4,2.28-1.86,3.48-4.38,3.59l0.83,2.18l2.8,6.75l-2.1-0.49c-0.79-0.06-1.5-0.16-2.13-0.26
		l-2.98-8.29l-0.17-0.03l-1.32,7.53l-1.74-0.43c-0.63-0.03-1.22-0.09-1.76-0.19L555.7,309.7z M531.38,317.9L531.38,317.9
		c0.04,2.48,0.79,4.28,2.25,5.42c0.76,0.6,1.7,0.89,2.82,0.87c2.29-0.03,3.84-1.35,4.66-3.93c0.36-1.18,0.53-2.44,0.52-3.79
		c-0.03-1.07-0.22-2.12-0.59-3.14c-0.83-2.28-2.34-3.41-4.51-3.37c-2.57,0.04-4.18,1.53-4.83,4.46
		C531.46,315.43,531.36,316.57,531.38,317.9z M536.37,325.62L536.37,325.62c-2.69,0.04-4.82-0.66-6.41-2.13
		c-1.64-1.5-2.48-3.58-2.53-6.23c-0.03-1.62,0.33-3.08,1.06-4.39c0.73-1.31,1.79-2.35,3.19-3.13c1.4-0.77,3.06-1.18,4.95-1.22
		c3.07-0.05,5.37,0.82,6.91,2.64c0.69,0.83,1.19,1.73,1.51,2.71c0.32,1.01,0.5,2,0.51,2.97c0.04,2.41-0.76,4.44-2.41,6.1
		C541.45,324.68,539.19,325.57,536.37,325.62z M520.65,324.21L520.65,324.21l-0.08,2.12c-1.14,0.94-2.6,1.6-4.38,1.99
		c-2.54,0.54-4.77,0.26-6.69-0.83c-1.98-1.11-3.23-2.84-3.71-5.17c-0.62-2.9-0.19-5.32,1.28-7.26c1.36-1.8,3.4-2.99,6.1-3.56
		c1.83-0.39,3.49-0.34,4.96,0.14l-0.02,2.5l-0.31,0.07c-0.79-0.75-1.71-1.2-2.78-1.36c-0.54-0.08-1.04-0.07-1.53,0.03
		c-1.79,0.38-3.01,1.43-3.65,3.13c-0.3,0.83-0.47,1.65-0.49,2.48c-0.03,0.93,0.05,1.82,0.23,2.68c0.6,2.81,1.86,4.6,3.8,5.38
		c0.95,0.39,2.01,0.47,3.17,0.22c1.55-0.33,2.81-1.21,3.78-2.63L520.65,324.21z M479.22,324.67L479.22,324.67
		c0.11,0.83,0.18,1.33,0.21,1.51l0.18,1.55c0.06,0.58,0.1,0.99,0.13,1.24c0.04,0.45,0.1,1.06,0.17,1.82l0.54,6.32
		c-5-3.06-8.52-5.26-10.54-6.61c-0.41,0.36-0.67,0.57-0.77,0.64c-0.11,0.07-0.41,0.22-0.9,0.42l2.77,6.23
		c0.87,1.98,1.61,3.66,2.2,5.04c0.62,1.44,1.15,2.73,1.6,3.88l0.87-0.68l1-0.5c-1.08-1.73-2.7-4.97-4.88-9.72l5.23,3.26
		c0.48,0.3,0.83,0.51,1.05,0.63l3.79,2.44l0.77-0.49l-1.33-12.11l3.52,4.51l1.6,2.1c0.75,1.01,1.29,1.75,1.61,2.26l1.57-1.12
		l1.73-0.95c-0.55-0.62-0.93-1.06-1.15-1.31c-0.51-0.57-0.91-1.04-1.18-1.4l-8.08-10.03c-0.42,0.35-0.69,0.56-0.8,0.63
		C480.01,324.3,479.71,324.45,479.22,324.67z M459.65,342.29L459.65,342.29c-1.32-0.65-2.46-0.53-3.41,0.37
		c-1.27,1.18-1.38,2.35-0.32,3.49c0.47,0.5,0.99,0.72,1.55,0.65c0.41-0.06,1.49-0.31,3.24-0.77c1.31-0.35,2.41-0.48,3.29-0.39
		c0.97,0.09,1.86,0.58,2.69,1.48c1.43,1.53,1.72,3.34,0.89,5.42c-0.41,0.99-1.04,1.9-1.92,2.72c-1.09,1.01-2.25,1.63-3.5,1.87
		c-0.58-1.13-1.1-2.03-1.55-2.7l0.33-0.31c0.67,0.47,1.38,0.68,2.14,0.62c0.75-0.05,1.43-0.37,2.04-0.94c0.57-0.54,0.91-1.13,1-1.8
		c0.1-0.7-0.13-1.35-0.65-1.91c-0.58-0.63-1.33-0.89-2.23-0.78c-0.29,0.03-1.1,0.26-2.45,0.69c-1.35,0.43-2.43,0.6-3.24,0.51
		c-1.01-0.11-1.95-0.63-2.8-1.56c-1-1.07-1.45-2.25-1.39-3.56c0.07-1.39,0.73-2.67,2-3.85c1.25-1.17,2.42-1.74,3.52-1.72
		c0.02,0.09,0.14,0.32,0.31,0.7c0.33,0.7,0.57,1.23,0.73,1.54L459.65,342.29z M442.61,355.85L442.61,355.85l12.66,10.28
		c0.33-0.41,0.68-0.89,1.03-1.45l1.21-1.32l-12.66-10.28c-0.33,0.42-0.67,0.91-1.02,1.47C443.17,355.21,442.77,355.66,442.61,355.85
		z M438.75,375.04L438.75,375.04l0.31-0.49c1.12-1.77,0.66-3.26-1.39-4.45c-0.27-0.15-0.64-0.31-1.1-0.49
		c-0.69-0.26-1.29-0.21-1.8,0.16c-0.36,0.24-0.76,0.74-1.18,1.47l-0.36,0.62L438.75,375.04z M430.34,374.29L430.34,374.29l2.53-4.39
		c0.97-1.69,1.75-2.72,2.33-3.1c1.29-0.84,2.62-0.88,3.97-0.09c2,1.16,2.62,2.94,1.86,5.36l2.33-0.04l7.27-0.33l-1.17,1.81
		c-0.33,0.73-0.66,1.37-0.97,1.92l-8.78-0.02l-0.09,0.14l6.6,3.82l-0.99,1.49c-0.25,0.59-0.51,1.12-0.78,1.6L430.34,374.29z
		 M420.23,398.33L420.23,398.33c0.09-0.24,0.31-0.79,0.68-1.64c0.14-0.65,0.3-1.22,0.47-1.73l6.38,2.2c2.98,1.04,4.96,1.5,5.93,1.42
		c0.42-0.03,0.87-0.17,1.36-0.42c0.87-0.43,1.48-1.19,1.84-2.22c0.47-1.37,0.44-2.53-0.08-3.46c-0.5-0.9-1.34-1.65-2.54-2.26
		c-0.51-0.25-1.59-0.67-3.22-1.23l-6.81-2.35c0.15-0.29,0.28-0.58,0.38-0.88c0.09-0.3,0.17-0.61,0.23-0.92l7.99,2.75
		c1.01,0.35,1.95,0.73,2.81,1.16c0.57,0.27,1.13,0.71,1.69,1.27c0.52,0.54,0.92,1.28,1.2,2.21c0.41,1.4,0.32,2.96-0.27,4.67
		c-0.75,2.18-1.85,3.71-3.3,4.57c-1.38,0.84-3.23,0.84-5.58,0.04L420.23,398.33z M424.22,423.91L424.22,423.91
		c2.44,0.35,4.35-0.12,5.69-1.38c0.71-0.66,1.15-1.55,1.3-2.66c0.32-2.26-0.72-4.01-3.14-5.22c-1.1-0.54-2.31-0.91-3.65-1.1
		c-1.06-0.16-2.13-0.12-3.18,0.09c-2.38,0.47-3.72,1.78-4.01,3.95c-0.37,2.56,0.85,4.38,3.62,5.49
		C421.8,423.45,422.92,423.73,424.22,423.91z M432.61,420.18L432.61,420.18c-0.37,2.67-1.41,4.67-3.1,6.02
		c-1.74,1.39-3.91,1.9-6.52,1.53c-1.59-0.22-2.98-0.8-4.16-1.73c-1.18-0.93-2.03-2.15-2.58-3.65c-0.55-1.52-0.69-3.22-0.43-5.1
		c0.44-3.05,1.66-5.19,3.69-6.43c0.91-0.56,1.89-0.91,2.91-1.07c1.03-0.16,2.04-0.18,2.99-0.05c2.38,0.34,4.25,1.45,5.63,3.35
		C432.48,415,433,417.38,432.61,420.18z M431.53,439.07L431.53,439.07l0.01,1.78c0.12,0.66,0.21,1.24,0.25,1.78l-14.57,1.03
		c0.09,1.27,0.3,2.73,0.64,4.4c-0.54-0.04-0.88-0.06-1.03-0.04c-0.13,0.01-0.46,0.06-0.99,0.19l-0.85-12.24
		c0.54,0.05,0.88,0.05,1,0.05c0.14-0.01,0.48-0.07,1.02-0.19c-0.09,1.91-0.1,3.35-0.04,4.28L431.53,439.07z M645.32,480.03
		L645.32,480.03c0,0-2.2,8.37,1.41,11.29c0,0-7.65,2.47-8.8,7.14c1-3.78,1.11-7.49-0.7-11.03
		C640.83,486.76,643.36,483.98,645.32,480.03z M549.81,454.15L549.81,454.15l-14.75,0.01l-0.93,2.92l6.22,0.04
		c0.33,0,0.65,0.17,0.65,0.74c0,0.33-3.11,8.73-3.49,9.69c-0.44,1.16-3.32,8.93-3.43,9.62l-4.06,0.01c-0.66,0-1.54-0.6-1.54-1.67
		c0-1.64,4.14-10.41,4.83-12.62h-6.6c-0.14,0.91-3.22,7.67-3.8,9.17c-0.88,2.24-1.29,2.09-2.69,3.27c-0.5,0.43-2.62,2.23-3.18,2.23
		l-0.55,0.01c-0.49,0-0.99-0.76-0.99-1.49c0-3.68,3.73-10.5,3.73-12.44c0-0.2-0.32-0.74-0.55-0.74l-8.46,0.01l-0.92,3.3l1.9,0.03
		c0.26,0,0.33,0.13,0.33,0.56c0,0.31-1.59,4.81-1.82,5.46c-0.28,0.78-1.53,5.12-1.92,5.12l-6.59,0.01c-0.2,0-0.65-0.46-0.65-0.93
		v-1.11c0-0.88,3.57-11.2,4.06-12.44l-7.26,0.01c-0.9,2.91-1.95,6.5-3.1,9.04c-0.86,1.93-3.35,5.43-5.13,5.44h-0.23l-1.21-0.21
		c-0.17-0.39-0.44-0.63-0.44-1.1c0-2.97,3.95-10.83,3.95-12.62c0-0.41-0.09-0.4-0.21-0.74l-11.88,0.25c0.28-0.93,2.1-7.07,2.1-7.67
		v-1.11c-0.25-0.1-0.26-0.19-0.56-0.19l-12.74,0.02l-1.03,2.93c0.81,0.04,6.08,0.03,6.08,0.77c0,0.17-2.29,8.34-2.55,9.23
		c-0.98,3.29-1.44,6.15-3.02,8.46c-1.65,2.42-3.89,2-6.84,2.01c-2.7,0-5.07,0.18-7.8,0.19l-1,2.21c5.75,0.01,11.51,0.01,17.27,0
		c3.55,0,5.12,0.3,6.16-4.24c0.25-1.05,2.7-9.31,3.06-9.31h2.1c1,0,1.6,0.13,2.53,0.16c0.96,0.04,0.25,1.26-0.05,2.54
		c-0.27,1.17-1.37,5.37-1.37,6.39v0.55c0,2.85,1.54,4.45,3.3,4.45h0.98c1.72,0,3.33-0.58,4.64-1.27c0.82-0.43,1.23-0.57,1.99-1.1
		c0.56-0.38,1.36-1.17,1.83-1.36c0.43,1.5,0.72,3.34,2.09,3.34l20.88-0.02c0.82,0,3.85-2.54,4.94-2.97v0.55
		c0,1.06,0.91,2.42,1.55,2.42l32.53-0.02l11.32-0.25l2.91-9c1.39-0.26,3.8-2.47,5.22-2.47h0.11c0.36,0,0.55,0.67,0.55,1.3
		c0,0.8-2.53,4.93-2.52,6.69v1.11c0,1.36,1.37,2.42,2.2,2.42l28.25-0.02c0.56,0,2.52-7.92,3.09-8.69c0.29-0.39,5.71-3.39,6.24-3.39
		h0.11c0.25,0,0.33,0.13,0.33,0.55c0,1.51-2.63,8.06-2.63,9.47v0.93c0,0.61,0.47,1.12,0.88,1.12l17.14-0.03
		c0.42,0,0.79-1.92,0.88-2.59l-11.54,0.01c-0.26,0-0.44-0.31-0.44-0.75c0-1.4,2.53-6.62,2.53-9.47v-0.74c0-2.5-2.02-4.27-3.74-4.27
		h-0.11c-2.81,0-5.89,3.31-8.35,4.28c0.11-0.83,0.44-1.26,0.44-2.04c0-0.9-0.35-1.49-0.88-1.49l-7.59,0.01
		c-0.4,0-0.95,2.92-0.98,3.71h0.98c0.26,0,0.55,0.5,0.55,0.93c0,0.33-2.88,8.63-3.07,10.03h-5.27l4.08-14.46l-7.06,0.22l-4.53,14.41
		l-3.71,0.03c-0.65,0-1.21-0.36-1.21-1.49c0-1.83,2.97-7.48,2.96-9.47v-1.48c0-2.15-1.89-2.96-3.29-2.96h-0.55
		c-2.33,0-4.68,1.93-6.82,2.23l3.32-10.37l-13.33-0.02l-1.37,3.08l5.22,0.06c0.3,0,0.3,0.1,0.55,0.19v0.56
		c0,0.79-5.48,17.33-6.15,19.49l-4.51,0.25l-1.21-0.05c-0.31,0-0.66-0.77-0.66-1.3c0-1.98,1.2-5.07,1.69-6.62
		c0.64-2.05,1.6-3.77,3.36-3.77h0.45l2.31,0.5c0.18,0.1,1.28-3.21,1.43-3.66c-3.28,0-7.69-0.47-10.13,0.9
		c-1.85,1.04-1.87,1.96-2.74,4.48c-0.48,1.42-1.64,4.17-1.64,6.14c0,1.27,0.4,2.13,0.66,2.96l-8.62,0.33L549.81,454.15z
		 M590.55,460.81L590.55,460.81l2.09-6.1l7.08,0.26l-2.34,5.9L590.55,460.81z M433.75,480.03c0,0,2.2,8.37-1.41,11.29
		c0,0,7.65,2.47,8.8,7.14c-1-3.78-1.12-7.49,0.7-11.03C438.24,486.76,435.7,483.98,433.75,480.03z"/>
</g>
</svg>
