<?xml version="1.0" encoding="utf-8"?>
<!-- Generator: Adobe Illustrator 26.5.0, SVG Export Plug-In . SVG Version: 6.00 Build 0)  -->
<svg version="1.1" id="Layer_1" xmlns="http://www.w3.org/2000/svg" xmlns:xlink="http://www.w3.org/1999/xlink" x="0px" y="0px"
	 viewBox="0 0 1080 1080" style="enable-background:new 0 0 1080 1080;" xml:space="preserve">
<style type="text/css">
	.st0{fill-rule:evenodd;clip-rule:evenodd;}
	.st1{fill:#ED1C24;}
	.st2{fill:#E1251B;}
	.st3{fill-rule:evenodd;clip-rule:evenodd;fill:#16397B;}
	.st4{fill:#EE2745;}
	
		.st5{clip-path:url(#SVGID_00000139251719814599041090000008959009419901867392_);fill:url(#SVGID_00000098942879580123487540000004778502793741833362_);}
	
		.st6{clip-path:url(#SVGID_00000019645339968482910000000000889334009868801443_);fill:url(#SVGID_00000171689978871630390020000003951204961744834946_);}
	
		.st7{clip-path:url(#SVGID_00000021830986218832552990000010608021716052336005_);fill:url(#SVGID_00000008830273847359274700000010440062013025620411_);}
	
		.st8{clip-path:url(#SVGID_00000173141864992057890290000007345443838270569392_);fill:url(#SVGID_00000097470596450053572230000016944060627931143608_);}
	.st9{fill:#424243;}
	
		.st10{clip-path:url(#SVGID_00000039816295440060734500000007481688033461388955_);fill:url(#SVGID_00000008857706795039785970000009769339374623280546_);}
	.st11{fill:#FFFFFF;}
	
		.st12{clip-path:url(#SVGID_00000121242288412910561220000009577947437984824743_);fill:url(#SVGID_00000138569908271178066450000007927706048127964591_);}
	
		.st13{clip-path:url(#SVGID_00000090996599948405890980000016496886969202755485_);fill:url(#SVGID_00000164490108081557274530000009708462799364855720_);}
	
		.st14{clip-path:url(#SVGID_00000155864330132091268540000005204008622418179247_);fill:url(#SVGID_00000163768476867090821730000015537572084691073203_);}
	
		.st15{clip-path:url(#SVGID_00000109001602258058401150000010143405274824253081_);fill:url(#SVGID_00000168835753497881202090000002490361194549123211_);}
	
		.st16{clip-path:url(#SVGID_00000183945840598217880840000007090485469974363317_);fill:url(#SVGID_00000045605971638577168520000015323373505950301342_);}
	
		.st17{clip-path:url(#SVGID_00000034049065105985176890000001966474060951301034_);fill:url(#SVGID_00000096773637277596363180000008953352988905622696_);}
	
		.st18{clip-path:url(#SVGID_00000037666231235265494030000013481251986958166435_);fill:url(#SVGID_00000011016874941976529720000013974112527269480874_);}
	.st19{fill-rule:evenodd;clip-rule:evenodd;fill:#C8202F;}
	.st20{fill-rule:evenodd;clip-rule:evenodd;fill:#FFFFFF;}
	.st21{fill-rule:evenodd;clip-rule:evenodd;fill:#F98238;}
	.st22{filter:url(#Adobe_OpacityMaskFilter);}
	.st23{fill:url(#SVGID_00000004527627835142829190000000794243555138362025_);}
	.st24{mask:url(#SVGID_00000013154425298774079380000014834667528711872405_);fill-rule:evenodd;clip-rule:evenodd;fill:#ED1C24;}
	.st25{fill-rule:evenodd;clip-rule:evenodd;fill:#F5333F;}
	.st26{fill-rule:evenodd;clip-rule:evenodd;fill:#ED1C24;}
	.st27{fill-rule:evenodd;clip-rule:evenodd;fill:#F9A46E;}
	.st28{fill-rule:evenodd;clip-rule:evenodd;fill:#F47B26;}
	.st29{fill-rule:evenodd;clip-rule:evenodd;fill:#EB5433;}
	.st30{fill:#1A3282;}
	.st31{fill-rule:evenodd;clip-rule:evenodd;fill:#1A3282;}
	.st32{fill-rule:evenodd;clip-rule:evenodd;fill:#9D9FA2;}
	.st33{fill-rule:evenodd;clip-rule:evenodd;fill:#000303;}
	.st34{fill:#64003D;}
	.st35{fill:#536270;}
	.st36{fill-rule:evenodd;clip-rule:evenodd;fill:#64003D;}
	.st37{fill-rule:evenodd;clip-rule:evenodd;fill:#536270;}
	.st38{fill-rule:evenodd;clip-rule:evenodd;fill:#1A3382;}
	.st39{fill-rule:evenodd;clip-rule:evenodd;fill:#29387E;}
	.st40{fill-rule:evenodd;clip-rule:evenodd;fill:#F37021;}
	.st41{fill-rule:evenodd;clip-rule:evenodd;fill:#005C32;}
	.st42{fill-rule:evenodd;clip-rule:evenodd;fill:#D2AB67;}
	
		.st43{clip-path:url(#SVGID_00000178896084427731913420000002401661336933789347_);fill:url(#SVGID_00000089547695725143293620000013298060839445839029_);}
	
		.st44{clip-path:url(#SVGID_00000129889750543641740810000014686736796938057148_);fill:url(#SVGID_00000132046892597749186290000003321107150225541765_);}
	
		.st45{clip-path:url(#SVGID_00000087389688406453536820000017215417823431091391_);fill:url(#SVGID_00000021810067900793679260000002364135441915827606_);}
	.st46{fill-rule:evenodd;clip-rule:evenodd;fill:#00AEEF;}
	.st47{fill-rule:evenodd;clip-rule:evenodd;fill:#EC008C;}
	.st48{fill-rule:evenodd;clip-rule:evenodd;fill:#FFF200;}
	.st49{fill:#A7AAAC;}
	.st50{fill-rule:evenodd;clip-rule:evenodd;fill:#5C5B5B;}
	.st51{fill:#9D9D9F;}
	.st52{fill:#F04D23;}
	.st53{fill-rule:evenodd;clip-rule:evenodd;fill:#2E3192;}
	.st54{fill-rule:evenodd;clip-rule:evenodd;fill:#C4312D;}
	.st55{fill:#552715;}
	.st56{fill:#010101;}
	.st57{fill:#E31E2E;}
	.st58{fill:url(#SVGID_00000072273228242640159580000004102816443174914233_);}
	.st59{fill:url(#SVGID_00000134234656434266962200000006714803682373146812_);}
	.st60{clip-path:url(#SVGID_00000062171268596634361910000002952328774556305843_);}
	.st61{clip-path:url(#SVGID_00000056409223228334314440000013056523147425124480_);}
	.st62{clip-path:url(#SVGID_00000013170444286806890160000002943619935963516306_);}
	.st63{clip-path:url(#SVGID_00000067205233283454020500000012655527423422452901_);}
	.st64{clip-path:url(#SVGID_00000006710077186882871740000002071340807012430756_);}
	.st65{clip-path:url(#SVGID_00000074419431918024222390000017401762877605851316_);}
	.st66{clip-path:url(#SVGID_00000160902930490567008350000001933901069993183669_);}
	.st67{clip-path:url(#SVGID_00000127753746339139254560000012242863558918402733_);}
	.st68{clip-path:url(#SVGID_00000147215351244401916520000002424498931618519938_);}
	.st69{clip-path:url(#SVGID_00000037653453368373466970000005274588784037932957_);}
	.st70{clip-path:url(#SVGID_00000031913606722257371180000007646769184009132176_);}
	.st71{fill:#2650A1;}
	.st72{fill:url(#SVGID_00000080199006034444533290000014578933743515541141_);}
	.st73{fill:#FEFEFE;}
	.st74{fill:#FDFDFD;}
	.st75{fill:#FCFCFC;}
	.st76{fill:#FBFBFB;}
	.st77{fill:#FAFAFA;}
	.st78{fill:#F9F9F9;}
	.st79{fill:#F8F8F8;}
	.st80{fill:#F7F7F7;}
	.st81{fill:#F6F6F6;}
	.st82{fill:#F5F5F5;}
	.st83{fill:#F4F4F4;}
	.st84{fill:#F3F3F3;}
	.st85{fill:#F2F2F2;}
	.st86{fill:#F1F1F1;}
	.st87{fill:#F0F0F0;}
	.st88{fill:#EFEFEF;}
	.st89{fill:#EEEEEE;}
	.st90{fill:#EDEDED;}
	.st91{fill:#ECECEC;}
	.st92{fill:#EBEBEB;}
	.st93{fill:#EAEAEA;}
	.st94{fill:#E9E9E9;}
	.st95{fill:#E8E8E8;}
	.st96{fill:#E7E7E7;}
	.st97{fill:#E6E6E6;}
	.st98{fill:#E5E5E5;}
	.st99{fill:#E4E4E4;}
	.st100{fill:#E3E3E3;}
	.st101{fill:#E2E2E2;}
	.st102{fill:#E1E1E1;}
	.st103{fill:#E0E0E0;}
	.st104{fill:#DFDFDF;}
	.st105{fill:#DEDEDE;}
	.st106{fill:#DDDDDD;}
	.st107{fill:#DCDCDC;}
	.st108{fill:#DBDBDB;}
	.st109{fill:#DADADA;}
	.st110{fill:#D9D9D9;}
	.st111{fill:#D92231;}
	.st112{fill:url(#SVGID_00000029743186135139855490000012575094411099601070_);}
	.st113{fill:url(#SVGID_00000056424051571388670510000014019924407781513917_);}
	.st114{opacity:0.8;}
	.st115{fill:url(#SVGID_00000151516717623957788660000011311446473975851710_);}
	.st116{fill:url(#SVGID_00000090284268667125618910000006906910396277536156_);}
	.st117{fill-rule:evenodd;clip-rule:evenodd;fill:#010101;}
	.st118{fill:#80A845;}
	.st119{fill-rule:evenodd;clip-rule:evenodd;fill:#80A845;}
	.st120{fill:url(#SVGID_00000068658235120058407880000014805049666446886583_);}
	.st121{fill-rule:evenodd;clip-rule:evenodd;fill:#04984A;}
	.st122{fill-rule:evenodd;clip-rule:evenodd;fill:url(#SVGID_00000124876612838030732200000006000478129041438111_);}
	.st123{fill:url(#SVGID_00000058580206511853960650000003085177754735960750_);}
	.st124{fill:url(#SVGID_00000072268868339600025860000002340637874946782362_);}
	.st125{fill:url(#SVGID_00000114787845928960320400000005385184601697746862_);}
	.st126{fill:url(#SVGID_00000093891110451472073450000002972770173398593947_);}
	.st127{fill:url(#SVGID_00000083787760635417486310000015682871648525847204_);}
	.st128{fill:url(#SVGID_00000155866780987533045370000000993186428204498098_);}
	.st129{fill:url(#SVGID_00000175288554703213056670000002135167710320829097_);}
	.st130{fill:url(#SVGID_00000121237461995001657050000015963287218770480521_);}
	.st131{fill:url(#SVGID_00000127753314840167396220000002510839749038269363_);}
	.st132{fill:url(#SVGID_00000112622912092224613590000003958025836053470593_);}
	.st133{fill:url(#SVGID_00000029046803624514979650000007637287173551983774_);}
	.st134{fill:url(#SVGID_00000018235855534279483740000016337122995935806627_);}
	.st135{fill:url(#SVGID_00000091697553380050456320000010667092998404761526_);}
	.st136{fill:url(#SVGID_00000008827433959526772840000014565506638080764078_);}
	.st137{fill-rule:evenodd;clip-rule:evenodd;fill:url(#SVGID_00000048481388293153641510000011893702129345154733_);}
	.st138{fill:#0A529D;}
	.st139{fill:url(#SVGID_00000182528978292105096210000012980877016121874345_);}
	.st140{fill:url(#SVGID_00000067203901578406640340000001600737639434080188_);}
	.st141{fill:url(#SVGID_00000128451278413461269580000001329678817497002400_);}
	.st142{fill:url(#SVGID_00000089535941757908756530000002636758285371207602_);}
	.st143{fill:url(#SVGID_00000060736099738583053030000003463222992996008626_);}
	.st144{fill:url(#SVGID_00000097464461633451052260000007125101304394090384_);}
	.st145{fill:url(#SVGID_00000016039045112633615270000001923339929457205651_);}
	.st146{fill:url(#SVGID_00000061431114461881519880000007673974886772875692_);}
	.st147{fill:url(#SVGID_00000039091947705087764090000016511101039229785745_);}
	.st148{fill:url(#SVGID_00000121281158343773733950000017450163215054762665_);}
	.st149{fill:url(#SVGID_00000178898902057907192490000008884825644160002201_);}
	.st150{fill:url(#SVGID_00000030483419173269383650000001349059506162387336_);}
	.st151{fill-rule:evenodd;clip-rule:evenodd;fill:url(#SVGID_00000012473235377043922840000014084921165064212644_);}
	.st152{fill:url(#SVGID_00000037656946593879093980000003753887757289361832_);}
	.st153{fill:url(#SVGID_00000172421009739983278120000011300893137098560137_);}
	.st154{fill:url(#SVGID_00000011741295449720624480000011764591743309724044_);}
	.st155{fill:url(#SVGID_00000112630833492517598430000007657459218857991819_);}
	.st156{fill:url(#SVGID_00000175319284656533462330000002238522064870635704_);}
	.st157{fill:url(#SVGID_00000080911244897404451420000016379958350844233875_);}
	.st158{fill:url(#SVGID_00000001659476707913821400000004408172706166939027_);}
	.st159{fill:url(#SVGID_00000114761895226029507250000016005204621474577286_);}
	.st160{fill:url(#SVGID_00000094617946329738452830000000891528459588544409_);}
	.st161{fill:url(#SVGID_00000168824727726949726620000000244652457528568998_);}
	.st162{fill:url(#SVGID_00000103255813215994990620000004826346572452088973_);}
	.st163{fill:url(#SVGID_00000083054449809205134380000015048083799092039848_);}
	.st164{fill:url(#SVGID_00000062181117378093448250000008866062572789341369_);}
	.st165{fill:url(#SVGID_00000140731782441927847140000009221455413212274094_);}
	.st166{fill:url(#SVGID_00000132788506248217068100000012534453347009109905_);}
	.st167{fill:url(#SVGID_00000043454632836252610940000007790048176578592173_);}
	.st168{fill:url(#SVGID_00000136395280816284472050000007387700852297637785_);}
	.st169{fill-rule:evenodd;clip-rule:evenodd;fill:url(#SVGID_00000025430945594969348460000006168699209044232345_);}
	.st170{fill:url(#SVGID_00000055685300295079010720000004789256130046245815_);}
	.st171{fill:url(#SVGID_00000041985729156204644500000011093683896154031249_);}
	.st172{fill:url(#SVGID_00000116929597623189316800000000428664003253243566_);}
	.st173{fill:url(#SVGID_00000174564696590223821360000004827670562174618500_);}
	.st174{fill:url(#SVGID_00000065065008372182049350000008204803141838328491_);}
	.st175{fill:url(#SVGID_00000024690934256589599960000006640910364706024611_);}
	.st176{fill:url(#SVGID_00000029759291517721340930000002444406594513703842_);}
	.st177{fill:url(#SVGID_00000056395260933511563520000004504589213688886949_);}
	.st178{fill:url(#SVGID_00000072264005482916056530000016743907281247426212_);}
	.st179{fill:url(#SVGID_00000024697479497079468300000013487002817718440851_);}
	.st180{fill:url(#SVGID_00000107551418300150236870000000495618980583886780_);}
	.st181{fill:url(#SVGID_00000085942723709255046610000012861797900589603759_);}
	.st182{fill:url(#SVGID_00000157287986454221662110000017118013181540273588_);}
	.st183{fill:url(#SVGID_00000034079407633107466680000005054608140097721023_);}
	.st184{fill-rule:evenodd;clip-rule:evenodd;fill:url(#SVGID_00000054246504778593965620000005404304782272037766_);}
	.st185{fill:url(#SVGID_00000054961575486166881170000012709898828367545260_);}
	.st186{fill:url(#SVGID_00000181785228213166096210000003057040019210536337_);}
	.st187{fill:url(#SVGID_00000108279463516746204340000002870422917257936012_);}
	.st188{fill:url(#SVGID_00000165216923814133494990000008517389482847945389_);}
	.st189{fill:url(#SVGID_00000183238428934952288540000003465197693845210792_);}
	.st190{fill:url(#SVGID_00000020361067423078715850000014207302932465575560_);}
	.st191{fill:url(#SVGID_00000128456191211985667640000013601178143672394928_);}
	.st192{fill:url(#SVGID_00000147182916348984756760000008180816842413779874_);}
	.st193{fill:url(#SVGID_00000095330653601084434070000007533548602876539783_);}
	.st194{fill:url(#SVGID_00000012472309344563718690000013415909478601718671_);}
	.st195{fill:url(#SVGID_00000026885514945575862980000005657621109437988024_);}
	.st196{fill:url(#SVGID_00000154389711126019376220000015609205259163859887_);}
	.st197{fill:url(#SVGID_00000099651820955525777730000007041348016201065362_);}
	.st198{fill:url(#SVGID_00000028318278580174053890000009545519411478488733_);}
	.st199{fill:url(#SVGID_00000123443112794479270860000003116416366117096126_);}
	.st200{fill:url(#SVGID_00000081646326228968397110000016264319956064407449_);}
	.st201{fill:url(#SVGID_00000148622449954790914530000012495809205396595127_);}
	.st202{fill:url(#SVGID_00000139276707620771842250000016893988453607010971_);}
	.st203{fill:url(#SVGID_00000021810490903241068090000008761849931023072693_);}
	.st204{fill-rule:evenodd;clip-rule:evenodd;fill:url(#SVGID_00000029037539258608638620000001450538500792662696_);}
	.st205{fill:url(#SVGID_00000070108328858989555860000006841847141223649414_);}
	.st206{fill:url(#SVGID_00000114069483420799367990000014431593044078252206_);}
	.st207{fill:url(#SVGID_00000175310383377797370670000009023434871855042231_);}
	.st208{fill:url(#SVGID_00000167354519452380381020000012920094670013000081_);}
	.st209{fill:url(#SVGID_00000132781774503806739360000014611385977286264732_);}
	.st210{fill:url(#SVGID_00000120552122703077232810000001717733452235281851_);}
	.st211{fill:url(#SVGID_00000016039719152010993640000016344287797244776344_);}
	.st212{fill:url(#SVGID_00000006708293985384552870000012927038188094715548_);}
	.st213{fill:url(#SVGID_00000088120215109570436470000001163240991074169219_);}
	.st214{fill:url(#SVGID_00000173144270893764767000000005273850480691692438_);}
	.st215{fill:url(#SVGID_00000018916870341694836890000009979541075525634703_);}
	.st216{fill:url(#SVGID_00000121991900119472108670000007853636688104675252_);}
	.st217{fill:url(#SVGID_00000005266827893517210170000004752750269935108230_);}
	.st218{fill:url(#SVGID_00000036222947504033238560000003635027457015857583_);}
	.st219{fill:url(#SVGID_00000148632008386791812460000007469161749426394559_);}
	.st220{fill:url(#SVGID_00000059286544057849516310000006719094271022638478_);}
	.st221{fill-rule:evenodd;clip-rule:evenodd;fill:url(#SVGID_00000118360185228724080000000011734845620532659591_);}
	.st222{fill:url(#SVGID_00000058579449700080760000000011776298748566019712_);}
	.st223{fill:url(#SVGID_00000163063287772852262540000009492264701417279633_);}
	.st224{fill:url(#SVGID_00000181799145099241570910000014087900622633028530_);}
	.st225{fill:url(#SVGID_00000063608738841515792630000012930357550807969707_);}
	.st226{fill:url(#SVGID_00000158742869852182144300000012789413783947683995_);}
	.st227{fill:url(#SVGID_00000062901961439096269250000017034215542218256831_);}
	.st228{fill:url(#SVGID_00000182520948607010852990000002994400343220855717_);}
	.st229{fill:url(#SVGID_00000114769072018839471350000013742049032141595570_);}
	.st230{fill:url(#SVGID_00000082366803576602709640000002602005195978076594_);}
	.st231{fill:url(#SVGID_00000070800324327275687380000010765778854387420044_);}
	.st232{fill:url(#SVGID_00000127045191163208681310000012929630515205375146_);}
	.st233{fill:url(#SVGID_00000125567699421504219750000013594304994192165553_);}
	.st234{fill:url(#SVGID_00000117677526504146275970000006257374502324226977_);}
	.st235{fill:url(#SVGID_00000176018503780208896190000002282348735170995098_);}
	.st236{fill:url(#SVGID_00000181082135903851007060000003251418920745734801_);}
	.st237{fill-rule:evenodd;clip-rule:evenodd;fill:url(#SVGID_00000132801002769788253870000002974551435732388538_);}
	.st238{fill:url(#SVGID_00000170978888125189348450000007995453016978987906_);}
	.st239{fill:url(#SVGID_00000131338888143633098020000014609948023377761465_);}
	.st240{fill:url(#SVGID_00000108282012475350841080000003215384771718826172_);}
	.st241{fill:url(#SVGID_00000046310753293215893640000005370115405786732719_);}
	.st242{fill:url(#SVGID_00000120548087897400200230000016131201433917062535_);}
	.st243{fill:url(#SVGID_00000095316598599160915340000011644775690021457832_);}
	.st244{fill:url(#SVGID_00000171698867461453822480000011972136924486029469_);}
	.st245{fill:url(#SVGID_00000042709835628598937910000003175514636903690404_);}
	.st246{fill:url(#SVGID_00000032608935434666512480000005479011481633657521_);}
	.st247{fill:url(#SVGID_00000006699133173719173510000013106645443176682135_);}
	.st248{fill:url(#SVGID_00000128474766423532772410000004380966474137838501_);}
	.st249{fill:url(#SVGID_00000048464581454698443450000003165540092583191948_);}
	.st250{fill:url(#SVGID_00000003827248135462855280000001870084955581324963_);}
	.st251{fill:url(#SVGID_00000003084799858696451940000001817459816792487338_);}
	.st252{fill:url(#SVGID_00000134238819749563750780000001440521059615033510_);}
	.st253{fill-rule:evenodd;clip-rule:evenodd;fill:url(#SVGID_00000183226820410672930000000001556512006264174526_);}
	.st254{fill:url(#SVGID_00000121240613466941681920000004624292601319050132_);}
	.st255{fill:url(#SVGID_00000101800033249626344390000018429943552652760223_);}
	.st256{fill:url(#SVGID_00000042723944574642357270000012560642773415156115_);}
	.st257{fill:url(#SVGID_00000103944081259403141170000003455623573155627912_);}
	.st258{fill:url(#SVGID_00000009567730701392667010000005642193620447761547_);}
	.st259{fill:url(#SVGID_00000155830152658119038380000015209704929786983307_);}
	.st260{fill:url(#SVGID_00000098935016381950948720000002959059417858175415_);}
	.st261{fill:url(#SVGID_00000053534477219485235080000005695973711507008899_);}
	.st262{fill:url(#SVGID_00000177464491284718972600000010705904149413130941_);}
	.st263{fill:url(#SVGID_00000061458441350470384470000003850247297375950253_);}
	.st264{fill:url(#SVGID_00000082348501926961555350000003847276836925948800_);}
	.st265{fill:url(#SVGID_00000139986643490109392230000015611621683530214318_);}
	.st266{fill:url(#SVGID_00000175295186669457512450000005481670551928595129_);}
	.st267{fill:url(#SVGID_00000152242272897590862290000013426139431358384008_);}
	.st268{fill:url(#SVGID_00000165913894007084487030000010968461451759486647_);}
	.st269{fill-rule:evenodd;clip-rule:evenodd;fill:url(#SVGID_00000031920037635831866400000017443344578717769656_);}
	.st270{fill:url(#SVGID_00000079475046814382126520000004317018414138876051_);}
	.st271{fill:url(#SVGID_00000157286310553596014840000001226689631763209368_);}
	.st272{fill:url(#SVGID_00000042010198681647442400000009543017480727557778_);}
	.st273{fill:url(#SVGID_00000175314895392315258060000009344876321302525063_);}
	.st274{fill:url(#SVGID_00000098899143400220973640000015348388991578709893_);}
	.st275{fill:url(#SVGID_00000087414242635334739790000017196221853794708404_);}
	.st276{fill:url(#SVGID_00000114048253264699869140000015683043383081844666_);}
	.st277{fill:url(#SVGID_00000142145643246504666530000008700285919625463224_);}
	.st278{fill:url(#SVGID_00000106834921044551101290000014293349509521580446_);}
	.st279{fill:url(#SVGID_00000079481695309626656530000015604293067635181730_);}
	.st280{fill:url(#SVGID_00000018237554264256205850000006075485621720901011_);}
	.st281{fill:url(#SVGID_00000166661102081195599100000008041358086558959008_);}
	.st282{fill:url(#SVGID_00000081649025524853525420000015035742391775009412_);}
	.st283{fill:url(#SVGID_00000155120003342059360400000013964307197239423653_);}
	.st284{fill:url(#SVGID_00000163042980415873762150000015146937203913201330_);}
	.st285{fill-rule:evenodd;clip-rule:evenodd;fill:url(#SVGID_00000161589850565129420470000012862532023587363718_);}
	.st286{fill:url(#SVGID_00000060022413213114438970000016682844482263425977_);}
	.st287{fill:url(#SVGID_00000008851463546717559020000005717464341892840636_);}
	.st288{fill:url(#SVGID_00000158749120434063532120000011510341958459213968_);}
	.st289{fill:url(#SVGID_00000153677691833021135370000002355453064308523669_);}
	.st290{fill:url(#SVGID_00000147199387999807618220000014930907309158556844_);}
	.st291{fill:url(#SVGID_00000073686042826386556760000001172522042083311023_);}
	.st292{fill:url(#SVGID_00000124129516610174118610000000660563049913549995_);}
	.st293{fill:url(#SVGID_00000004526247145282025820000008438216163895870084_);}
	.st294{fill:url(#SVGID_00000137132972077354571610000017191952849316128941_);}
	.st295{fill:url(#SVGID_00000065793552797023440440000004424482728715573905_);}
	.st296{fill:url(#SVGID_00000124876161253008944010000005066825377184190364_);}
	.st297{fill:url(#SVGID_00000163760206250754439320000017473852046487096200_);}
	.st298{fill:url(#SVGID_00000183249128090688745440000014565243857841442239_);}
	.st299{fill:url(#SVGID_00000147909080199589163980000003518620203742500246_);}
	.st300{fill:url(#SVGID_00000090294128248358040800000015249261665668031141_);}
	.st301{fill:url(#SVGID_00000152961331144600172850000010807185128100606911_);}
	.st302{fill:url(#SVGID_00000054252848859063747430000004007613663346592164_);}
	.st303{fill:url(#SVGID_00000083783660631047472790000005957857362042156190_);}
	.st304{fill-rule:evenodd;clip-rule:evenodd;fill:url(#SVGID_00000029737225533657076880000003979526311594556330_);}
	.st305{fill:url(#SVGID_00000121256732623774945730000013597570785104508327_);}
	.st306{fill:url(#SVGID_00000075142299889923041540000010615011482289016492_);}
	.st307{fill:url(#SVGID_00000029765890184028585630000011350474612872252346_);}
	.st308{fill:url(#SVGID_00000047026329356852124320000003099038021297701274_);}
	.st309{fill:url(#SVGID_00000120517544414578805690000010769273431767597214_);}
	.st310{fill:url(#SVGID_00000152952872159592118270000015613813760778329511_);}
	.st311{fill:url(#SVGID_00000008828952753271224610000004353335507540503208_);}
	.st312{fill:url(#SVGID_00000152968451633098577710000016161402995069029002_);}
	.st313{fill:url(#SVGID_00000173870193933089618120000010601532015743468422_);}
	.st314{fill:url(#SVGID_00000132767371211838576600000006061905192157180803_);}
	.st315{fill:url(#SVGID_00000076602030716140269860000003246237001933324470_);}
	.st316{fill:url(#SVGID_00000001653142588534618480000005920011751511401866_);}
	.st317{fill:url(#SVGID_00000176008449135164363600000005333412047098832566_);}
	.st318{fill:url(#SVGID_00000111150561231900355290000013306072126962445218_);}
	.st319{fill:url(#SVGID_00000097478692644029438330000017995803099766198400_);}
	.st320{fill:url(#SVGID_00000082363494065912917770000000598979946964852396_);}
	.st321{fill:url(#SVGID_00000047765076604151191540000016069618083412424320_);}
	.st322{fill:url(#SVGID_00000096030924879457494300000011631585385397837478_);}
	.st323{fill:url(#SVGID_00000106859130634627101490000005459057232116026240_);}
	.st324{fill:url(#SVGID_00000174580129491743401920000013494835874548268713_);}
	.st325{fill-rule:evenodd;clip-rule:evenodd;fill:url(#SVGID_00000137855050452779706960000014509590858610238621_);}
	.st326{fill:url(#SVGID_00000093872681768867969050000007886016409473844624_);}
	.st327{fill:url(#SVGID_00000024720279084174358290000005698005253556278708_);}
	.st328{fill:url(#SVGID_00000179616536643639704790000001064494844780378281_);}
	.st329{fill:url(#SVGID_00000065764552645707373570000017231150060076840121_);}
	.st330{fill:url(#SVGID_00000143596198215773717590000008907628567206513056_);}
	.st331{fill:url(#SVGID_00000134940023837370017940000010654778473608378035_);}
	.st332{fill:url(#SVGID_00000073684091422737443080000001821841629118941629_);}
	.st333{fill:url(#SVGID_00000067213451263019653560000009454155801320288166_);}
	.st334{fill:url(#SVGID_00000032639480870313250800000004538450366500316807_);}
	.st335{fill:url(#SVGID_00000097471675837318003900000011908296550450958981_);}
	.st336{fill:url(#SVGID_00000093139867435132642410000002179331395036042645_);}
	.st337{fill:url(#SVGID_00000127751254238512820780000011698771779767251098_);}
	.st338{fill:url(#SVGID_00000005262429765191905710000013130312783923779717_);}
	.st339{fill:url(#SVGID_00000151534721763887059670000011300747228253909910_);}
	.st340{fill:url(#SVGID_00000011734862397410611070000001658602763779757999_);}
	.st341{fill:url(#SVGID_00000128481162107142941550000003227811282366661809_);}
	.st342{fill-rule:evenodd;clip-rule:evenodd;fill:url(#SVGID_00000135685553732328621130000005518389562209771664_);}
	.st343{fill:url(#SVGID_00000137810691195115810020000011808910874786615172_);}
	.st344{fill:url(#SVGID_00000050663006104106341390000015905030934803503498_);}
	.st345{fill:url(#SVGID_00000142860969167920222740000015529541977487321739_);}
	.st346{fill:url(#SVGID_00000142893959015484104370000016327277523683080864_);}
	.st347{fill:url(#SVGID_00000112615746123216285480000008346462575319862930_);}
	.st348{fill:url(#SVGID_00000013155927757316274500000012499703686773968793_);}
	.st349{fill:url(#SVGID_00000042014453006127018620000004038588477047504272_);}
	.st350{fill:url(#SVGID_00000058552988531492555210000012174298887835787174_);}
	.st351{fill:url(#SVGID_00000088132323164939015730000001953110396136528296_);}
	.st352{fill:url(#SVGID_00000127746335657168750510000007512254092635368348_);}
	.st353{fill:url(#SVGID_00000155111584613895542200000013328161251557713085_);}
	.st354{fill:url(#SVGID_00000085245712232694232850000005393975006033397401_);}
	.st355{fill:url(#SVGID_00000109734203648161878430000005468074167717061798_);}
	.st356{fill:url(#SVGID_00000046317209058907863470000012033272320254672063_);}
	.st357{fill:url(#SVGID_00000166674406671383446720000010976130980167474068_);}
	.st358{fill:url(#SVGID_00000014633373805098421020000007667250516568433073_);}
	.st359{fill:url(#SVGID_00000010268455274670237790000016394113527580447155_);}
	.st360{fill:url(#SVGID_00000143598167871073728160000012984376176637223561_);}
	.st361{fill:url(#SVGID_00000024682362727980509260000000161620006049011607_);}
	.st362{fill:url(#SVGID_00000128457709051237167900000016957572019460153476_);}
	.st363{fill:#C1282D;}
	.st364{fill-rule:evenodd;clip-rule:evenodd;fill:url(#SVGID_00000126324818725318965450000002335753308934549643_);}
	.st365{fill:url(#SVGID_00000004511781130256815230000017974380809692003493_);}
	.st366{fill:url(#SVGID_00000072256427670905400610000009712247403937812616_);}
	.st367{fill:url(#SVGID_00000023245409934034559860000015952119918255023283_);}
	.st368{fill:url(#SVGID_00000053508600680959363330000009364338400517609606_);}
	.st369{fill:url(#SVGID_00000055699760005840129260000012999511239150122938_);}
	.st370{fill:url(#SVGID_00000012447258501150332150000004692878927329470124_);}
	.st371{fill:url(#SVGID_00000164492006981477900470000013822273306287836568_);}
	.st372{fill:url(#SVGID_00000075132520654769197330000014633932662372386717_);}
	.st373{fill:url(#SVGID_00000163073783303183682030000007229440280566131081_);}
	.st374{fill:url(#SVGID_00000101814725606780558990000015469252159367208598_);}
	.st375{fill:url(#SVGID_00000021084382259331244990000007824966586832805530_);}
	.st376{fill:url(#SVGID_00000128476523929417466550000010809483565352162689_);}
	.st377{fill:url(#SVGID_00000034768561520840549160000006141548290062539182_);}
	.st378{fill:url(#SVGID_00000150099858720098789500000001525334744422707128_);}
	.st379{fill:url(#SVGID_00000026867696592922158660000017130339380609495187_);}
	.st380{fill:url(#SVGID_00000161599460390965334810000002407084745494321566_);}
	.st381{fill-rule:evenodd;clip-rule:evenodd;fill:url(#SVGID_00000164513257232482154510000014698098109437163167_);}
	.st382{fill:url(#SVGID_00000008866940374226419370000014182138666171265698_);}
	.st383{fill:url(#SVGID_00000056394698136746233140000018311393334429957007_);}
	.st384{fill:url(#SVGID_00000142860498377173078880000010670655907863226813_);}
	.st385{fill:url(#SVGID_00000020371534482993057570000014801479850576301744_);}
	.st386{fill:url(#SVGID_00000144321138959684421460000004816937716847526025_);}
	.st387{fill:url(#SVGID_00000017487343107692301780000003208099210666798521_);}
	.st388{fill:url(#SVGID_00000056404539258539207260000012994082094010667146_);}
	.st389{fill:url(#SVGID_00000181058420849153335910000016700538697527211416_);}
	.st390{fill:url(#SVGID_00000085929544921825276780000004416432944724779696_);}
	.st391{fill:url(#SVGID_00000138575012195671305860000014966652485673867161_);}
	.st392{fill:url(#SVGID_00000085223589030332082150000015678764914346222730_);}
	.st393{fill:url(#SVGID_00000125576674601173269230000012445020659203358897_);}
	.st394{fill:url(#SVGID_00000032640335190096618020000004262126721957384373_);}
	.st395{fill:url(#SVGID_00000097484760820650779520000014944109050259698307_);}
	.st396{fill:url(#SVGID_00000043455624805664725030000003908440075381351614_);}
	.st397{fill:url(#SVGID_00000095333423176856651590000006484045168511870619_);}
	.st398{fill:url(#SVGID_00000176019499725939976860000014142450729379985579_);}
	.st399{fill:url(#SVGID_00000152980407871812233180000007557697690570003356_);}
	.st400{fill:url(#SVGID_00000145765904203952139230000005906818582970193084_);}
	.st401{fill:url(#SVGID_00000129190904334451034180000003269602838513905823_);}
</style>
<g>
	<path class="st32" d="M443.48,408.57c4.62,0.61,45.88,0.13,54.27,0.13c14.94,0,10.27-2,19.87,7.62
		c10.37,10.39,4.07,7.18,26.81,7.45c4.12,0.05,2.87,0.19,4.98-1.91l10.01-10.51c1.46-1.62,1.53-2.6,4.29-2.68l67.79,0.16
		l0.03-240.88c-5.18-1.75-48.67,1.21-51.25-0.98c-1.24-1.04-2.77-2.49-3.38-3.74c-1.07-0.61-5.47-4.8-6.29-5.92
		c-1.27-1.73-0.67-8.72-0.54-11.2l22.34-0.02l0.01-17l-6.43,0.16l-0.05,10.41c-4.03,0.02-11.27,0.43-14.94-0.01
		c-1.6-0.2-16.21-9.67-18.57-11.21c-1.94-1.27-7.42-4.34-8.66-5.68h-14.86c-0.5,0.5,0.18-0.06-0.71,0.64l-8.14,5.17
		c-2.84,1.73-5.86,3.64-8.64,5.44c-11.23,7.3-6.89,5.68-22.55,5.65v-10.54l-6.45-0.01l0.04,17h20.17c0.08,1.76,0.28,9.11-0.03,10.43
		c-0.29,1.22-8.4,9.2-9.81,10.37c-1.67,1.39-6.69,0.75-9.13,0.75c-13.46,0-26.9,0-40.36,0L443.48,408.57z M513.35,139.64
		c2.17-2.08,7.01-4.43,9.98-6.19c2.16-1.29,8.03-5.49,10.24-5.49c8.48,0,5.94-0.57,11.07,2.64c3.6,2.25,12.76,7.24,14.74,9.03
		L513.35,139.64z M509.15,146.11l25.01-0.01l0.02,7.03l-25.06-0.17L509.15,146.11z M540.67,146.1h22.89l0.01,7.02h-22.96
		L540.67,146.1z M493.72,174.07c1.58,0,7.06-6.13,8.41-7.5c2.54-2.54,6.12-7.03,8.49-7.03h51.5c2.31,0,7.94,6.59,10.45,9.09
		c5.6,5.58,3.01,5.44,13.7,5.44c7.02,0,34.43-0.34,39.02,0.16c-0.7,2.26-0.21,182.32-0.21,199.59c0,8.8,0.58,19.76-0.06,28.3
		c-3.44,0.59-50.78,0.15-60.08,0.14c-7.81,0-4.62-0.35-8.83,3.37c-2.26,2.01-3.65,4.29-5.84,6.24c-3.67,3.27-3.86,5.46-6.66,5.46
		h-14.48c-1.73,0-2.61-1.52-3.59-2.49c-1.1-1.11-1.92-1.91-3.01-3.02l-8.84-8.88c-1.34-1.03-2.96-0.69-5.08-0.68l-58.74,0.01
		l-0.16-228.19H493.72z M521.2,190.86c1.01-1.87,3.28-4.15,4.85-5.99c1.58-1.84,3.3-3.81,4.79-5.63c2.92,0.02,5.85,0.03,8.76,0
		c3.29-0.02,3.6-0.47,6.24,2.45l8.32,9.36l61-0.02l0.02-6.38l-57.07-0.01c-2.14-0.1-2.43-1.35-3.64-2.73
		c-1.13-1.27-7.81-8.95-8.84-9.1h-16.5c-1.77,0-2.23,0.78-3.16,1.92l-6.98,8.31c-1.1,1.44-1.3,1.53-3.51,1.55
		c-17.08,0.03-41.1-0.87-55.93,0.04v28.86l149.25,0.02l0.01,11.11l-149.26,0.03l0.09,26.39l149.1,0.08
		c0.04,4.68,0.26,19.94-0.13,23.18l-23.41-0.07l-0.08-9.78l-125.55,0.03l-0.01,6.4h119.13l0.04,13.83l-119.06,0.07l0.13,6.36h125.1
		c0.68-2.26,0.27-7.61,0.27-10.29l23.59-0.04l-0.08,22.56l-149.12,0.05l0.09,44.6h38.67l0.02-38.07l110.41-0.08l-0.04,11.2
		l-102.84,0.09l-0.16,26.75l102.83,0.01l-0.06,12.72l-148.19-0.04l-0.16,29.12h56.54c1.61,0,5.4,4.84,6.59,6.09
		c1.11,1.17,2.21,1.93,3.3,3.13c1.18,1.31,1.61,2.57,3.79,2.57c15.66,0,12.09,1.18,17.84-4.6c1.79-1.8,3.55-3.31,5.4-5.06
		c3.44-3.24,2.38-2.46,8.54-2.45c16.89,0,36.91,0.6,53.02-0.04l0.04-6.3c-17.01-0.52-42.39-0.05-60.3-0.05
		c-2.13,0-3.43,1.92-4.66,3.08c-1.42,1.33-2.56,2.35-3.97,3.69c-6.68,6.3-3.82,5.33-9.49,5.3c-6.38-0.02-4.47,1.01-10.1-5.1
		c-1.5-1.62-5.81-6.73-8.01-6.73h-52.02l0.09-16.2l148.43-0.05l0.01-1.6c0.13-39.49,0.34-81.47-0.01-120.79l-149.16-0.04l0.06-13.51
		l149.22-0.03l-0.21-23.97l-149.09-0.07l0.18-16.04L521.2,190.86z M466.01,309.79l25.89-0.01l-0.14,31.78L466,341.52L466.01,309.79z
		 M512.3,327.5l96.46,0.06l0.09,10.06l0.03,2.42l-0.23,1.42l-96.6-0.13L512.3,327.5z"/>
	<path class="st33" d="M711.49,934.58c1.23-2.71,5.18-14.86,5.93-15.76l4.86,15.96L711.49,934.58z M710.17,953.87
		c-1.38-0.18-3.22,0.25-4.05-1.42l4.71-15.33h12.21c3.31,12.81,6.77,15.24-0.24,16.75h-2.6v2.38h20.76v-2.38h-2.16
		c-3.89-0.96-4.28-2.74-5.71-6.75c-2.23-6.16-11.23-36.12-12.19-37.18c-0.56,0.48-4.6,4.01-4.64,4.08
		c-0.35,0.42-11.29,29.25-12.36,31.92c-2.54,5.84-4.29,7.46-5.45,7.93h-2.08v2.38h15.78v-2.38H710.17z M526.07,953.82h4.13
		c1.56-0.15,3.07-0.9,3.44-4.61l0.03-28.18c-0.05-3.26-0.04-5.16-1.93-6.07h-4.54v-2.38c2.52,0,4.96-0.11,7.58-0.05
		c2.6,0.02,5.17-0.11,7.72-0.2c4.84-0.16,9.64,0.01,13.16,2.3c2.88,1.86,5.72,6.16,3.68,10.84c-1.69,3.9-5.63,5.26-8.75,6.64
		c15.3,3.52,16.5,14.03,9.11,20.28c-5.36,4.54-18.7,4.08-28.47,3.81h-5.16V953.82z M540.18,953.85l-0.26-20.37
		c8.07-0.28,15.58,2.62,16.24,10.07C556.93,952.49,548.9,955.58,540.18,953.85z M540.14,914.33c3.74-0.14,6.76-0.25,9.32,1.67
		c6.43,4.85,5.61,16.22-9.51,15.78L540.14,914.33z M756.51,934.83c-0.09-3.25-0.48-18.39,0.16-20.45
		c7.91-0.95,13.87,2.36,13.6,10.29C770,932.01,764.15,935.32,756.51,934.83z M743.55,912.98c0.29,4.04,6.19-1.67,6.53,7.23V948
		c-0.07,2.2-0.23,4.28-1.68,5.2c-0.48,0.31-0.92,0.5-1.33,0.61h-3.78v2.38h20.48v-2.38h-2.13c-1.98-0.27-5.15,0.97-5.31-4.61
		c-0.09-3.16-0.29-9.53,0.17-12.43l6.02-0.13c1.92,3.57,11.42,18.83,14.88,19.45c1.8,0.32,9.16,0.8,10.56,0.12
		c0.07-0.04,0.2-0.12,0.28-0.2c-0.08-1.79,0.83-0.71-2.94-1.85c-5.35-1.61-14.46-14.23-16.85-18.66c1.71-1.62,6.51-3.36,8.22-8.4
		c1.67-4.94-1.1-9.63-3.96-11.86c-5.5-4.3-13.73-2.65-21.06-2.54L743.55,912.98z M514.31,957.24h0.8l1.35-0.71
		c0.01-8.02-0.38-29.29,0.55-36.73c0.29-2.31,0.86-3.34,2.27-4.21c0.5-0.3,0.94-0.5,1.32-0.64h3.61v-2.38h-18.66v2.38h3.3
		c0.15,0.04,0.32,0.07,0.49,0.11c1.35,0.32,2.43,0.86,3.16,1.68c1.67,1.91,1.48,5.82,1.48,8.7c0,5.28,0.55,14.83-0.15,19.6
		l-18.71-19.77c-1.37-1.28-10.32-12.2-11.44-12.48v-0.23h-12.06v2.38h3.53c0.51,0.16,1.1,0.4,1.77,0.77
		c1.98,1.08,2.34,4.02,2.51,7.29c0.2,3.82,0.01,8.14-0.12,11.29c-0.18,4.59-0.12,9.63-0.48,14.11c-0.5,6.35-3.49,5.15-5.37,5.4
		h-1.55v2.01c-0.01,0.09-0.01,0.18-0.01,0.27h0.01v0.1h18.09v-2.38h-1.46c-1.33-0.31-3.45,0.45-5.27-1.8
		c-1.58-1.94-1.29-6.6-1.32-9.26c-0.07-7.19-0.07-14.39-0.04-21.57c1.71,1.21,7.1,7.03,8.55,8.74l16.16,17.65
		C508.38,949.22,513.13,954.59,514.31,957.24z M307.43,956.97c30.83,1.43,16.34-33.73,22.03-40.46c1.27-1.49,2.61-1.52,3.62-1.55
		h1.67v-2.38h-17.83v2.38h3.09c0.63,0.09,1.34,0.26,2.11,0.63c4.75,2.23,3.21,11.42,3.25,19.52c0.04,7.76-0.35,17.63-11.89,18.32
		c-10.34,0.62-14.11-6.14-14.12-15.9c-0.04-19.27-1.42-21.18,5.05-22.57h2.69v-2.38h-20.4v2.38h3.41c0.78,0.15,1.52,0.5,2.1,1.59
		c0.9,1.68,0.63,5.28,0.63,7.3C292.82,943.14,289.57,954.27,307.43,956.97z M394.87,934.51c1.23-2.71,5.18-14.85,5.94-15.75
		l4.86,15.95L394.87,934.51z M393.56,953.82c-1.39-0.19-3.23,0.24-4.06-1.44l4.72-15.32l12.2-0.01c3.31,12.81,6.77,15.25-0.24,16.77
		h-2.6v2.38h20.76v-2.38h-2.16c-3.9-0.97-4.28-2.74-5.72-6.76c-2.21-6.16-11.23-36.12-12.19-37.19c-0.56,0.48-4.59,4.02-4.64,4.08
		c-0.35,0.42-11.29,29.26-12.36,31.92c-2.53,5.85-4.29,7.47-5.45,7.94h-2.08v2.38h15.78v-2.38H393.56z M440.46,934.51
		c1.24-2.71,5.18-14.85,5.94-15.75l4.86,15.95L440.46,934.51z M439.14,953.82c-1.39-0.19-3.22,0.24-4.06-1.44l4.73-15.32l12.2-0.01
		c3.31,12.81,6.77,15.25-0.24,16.77h-2.6v2.38h20.76v-2.38h-2.15c-3.9-0.97-4.28-2.74-5.72-6.76c-2.21-6.16-11.23-36.12-12.19-37.19
		c-0.56,0.48-4.59,4.02-4.65,4.08c-0.35,0.42-11.29,29.26-12.36,31.92c-2.53,5.85-4.29,7.47-5.45,7.94h-2.09v2.38h15.78v-2.38
		H439.14z M673.09,915.14c0.46,3.94,0.11,26.77,0.02,32.45c-0.08,4.38-0.74,5.78-4.56,6.22h-2.68v2.38h22.17v-2.38h-1.84
		c-2.61-0.28-6.31,0.88-6.31-6.23l0.25-32.42c3.72-0.27,9.45-0.56,11.99,1.8c1.01,0.95,1.36,2.08,1.71,3.53
		c0.63,2.63-0.07,3.16,2.28,3.02c0.06-0.09,0.16-0.32,0.18-0.26c0.01,0.05,0.13-0.22,0.14-0.3c0.19-0.82,0.48-10.46-0.73-12.06
		c-2.14,1.04-1.33,2.09-5.23,2.09h-25.33c-4.41,0-3.37-1.09-5.65-2.17c-0.37,0.44-0.11-0.08-0.51,0.8
		c-0.72,1.56-2.96,10.61-2.56,11.29c1.18,2.01,2.24-0.82,2.57-1.56C662.03,914.61,664.83,915.03,673.09,915.14z M338.62,914.43
		c0.02,0,0.03,0.01,0.05,0.02v0.51h1.59c3.98,0.95,4.98-1.35,4.97,6.88c-0.01,5.09,0.26,24.6-0.19,28.03
		c-0.41,3.11-1.28,3.72-3.55,3.96h-4.93v2.38h35.61v-0.13c0.01,0,0.03,0,0.03,0c0.67-1.87,4.69-10.64,3.58-11.75
		c-1.3-0.7-1.65,0.08-2.23,0.97c-0.67,1.06-1.07,1.74-1.75,2.69c-2.45,3.44-4.72,5.09-8.35,5.84h-10.14l-0.16-0.08
		c-2.51-1.27-1.26-19.66-1.21-23.45c0.22-17.59-0.31-14.75,4.54-15.33h2.88v-2.38h-20.7v1L338.62,914.43z M582.93,934.48
		c1.23-2.71,5.18-14.85,5.94-15.75l4.87,15.95L582.93,934.48z M581.61,953.79c-1.39-0.19-3.22,0.24-4.06-1.44l4.73-15.32l12.2-0.01
		c3.31,12.81,6.77,15.25-0.24,16.76h-2.6v2.38h20.76v-2.38h-2.15c-3.9-0.97-4.28-2.74-5.72-6.76c-2.21-6.16-11.23-36.12-12.19-37.18
		c-0.56,0.48-4.59,4.02-4.64,4.08c-0.35,0.42-11.29,29.26-12.36,31.92c-2.53,5.85-4.29,7.47-5.45,7.94h-2.08v2.38h15.78v-2.38
		H581.61z M628.52,934.48c1.23-2.71,5.18-14.85,5.93-15.75l4.86,15.95L628.52,934.48z M627.2,953.79c-1.39-0.19-3.22,0.24-4.05-1.44
		l4.72-15.32l12.2-0.01c3.32,12.81,6.78,15.25-0.24,16.76h-2.6v2.38H658v-2.38h-2.16c-3.9-0.97-4.28-2.74-5.72-6.76
		c-2.21-6.16-11.22-36.12-12.19-37.18c-0.56,0.48-4.59,4.02-4.65,4.08c-0.34,0.42-11.29,29.26-12.36,31.92
		c-2.53,5.85-4.28,7.47-5.45,7.94h-2.08v2.38h15.79v-2.38H627.2z"/>
	<path class="st33" d="M441.52,609c-0.16,1.82-1.34,2.58-3.61,3.23c-1.82,0.53-3.81,0.56-5.81,0.74l0.07,3.38l31.7,0.01
		c0.17-1.22,0.52-2.98-0.43-3.53c-7.37-0.68-9.77-0.86-9.89-8.83c-0.09-6.04-0.17-12.08-0.25-18.12c-0.05-3.05-0.66-15.26,1.2-16.98
		c6.76-6.26,20.6-7.69,25.24,0.7c3.73,6.74,2,25,1.64,33.27c-0.33,7.75-0.84,9.23-8.68,9.91l-2.82,0.17l0.07,3.41l32.42-0.1
		l-0.3-3.38c-10.95-0.64-10.63-0.27-9.39-19.76c0.56-8.88,1.59-19.13-1.98-26.84c-2.65-5.73-9.34-12.83-18.47-11.03
		c-4,0.8-7.37,2.92-10.16,4.7c-2.23,1.43-6.74,5.61-8.51,6.06v-12.47c-3.34,0.83-7.31,2.59-10.57,3.82
		c-1.03,0.38-7.48,2.58-9.85,3.69c-0.03,0.55-0.02,1.3,0,1.82c0.9,0.51,7.32,2.72,9.11,4.48C442.26,572.65,443.13,607.25,441.52,609
		 M407.8,530.67c-9.55,2.37-5.75,15.63,3.32,13.24c3.15-0.84,5.94-4.33,4.77-8.55C415.08,532.38,411.77,529.69,407.8,530.67z
		 M643.54,530.65c-9.52,2.16-5.96,15.37,3,13.28C655.12,541.95,652.41,528.64,643.54,530.65z M412.89,555.56l-16.06,6.25
		c-6.78,2.6,6.25,4.88,7.25,6.76c0.45,0.84,0.6,37.51-0.49,40.64c-1.17,3.39-5.92,3.33-10,3.7l-0.1,3.3l32.61-0.11l-0.04-3.17
		c-6.39-0.71-10.12,0.04-10.69-6.56c-0.99-11.13,0.53-37.49-0.13-49.93c-0.07-1.3,0.18-1.31-0.38-1.56L412.89,555.56z
		 M643.46,557.58l-11.74,4.52c-2.38,1.21-1.29,1.97,0.82,2.85c1.3,0.54,6.85,2.86,7.2,3.61c0.42,0.86,0.7,37.73-0.59,40.81
		c-1.17,2.8-4.14,2.95-7.13,3.23c-0.19,0.02-1.42,0.14-1.5,0.16c-1.39,0.38-1.36-0.64-1.36,3.49l32.61-0.16l-0.02-3.26
		c-2.89-0.85-10.52,1.1-10.7-6.44c-1.11-12.53,0.99-36.81-0.23-51.99L643.46,557.58z M775.4,751.49l3.8,4.37
		c4.7,4.75,10.84,7.79,18.31,7.85c8.63,0.08,15.33-4.74,19.88-9.24c1.07-1.06,1.86-2.2,2.72-3.14l-1.79-2.02
		c-1.41,0.74-2.58,2.04-4.62,3.29c-1.4,0.84-3.2,1.65-5.75,2.22c-13.31,2.3-24.04-7.61-24.81-22.89
		c-0.5-10.01,2.44-19.78,8.99-23.49c10.06-5.7,16.56,6.15,23.19,6.66c1.18-2.25,3.29-4.67,4.15-7.72
		c-7.95-10.55-26.09-5.84-36.89,4.4c-7.75,7.34-12.24,17.39-10.57,29.21C772.74,746.08,774.37,747.81,775.4,751.49z M515.45,600.31
		l-3.48,0.58l2.08,14.97c3.55,1.61,13.5,2.5,17.74,2c6.14-0.72,11.18-3.17,13.84-6.65c7.74-10.16,4.13-19.94-6.26-26.33
		c-7.39-4.55-22.7-9.99-16.48-21.35c3-5.47,15.66-8.73,23.16,9.42l3.42-0.73c-0.3-3.63-1.24-11.99-2.38-15.14
		c-6.17,2.25-20.79-6.39-31.05,6.04c-3.34,4.05-4.62,9.7-2.22,15.53c3.67,8.87,17.16,12.08,22.82,17.83
		c3.16,3.22,5.7,9.92,1.59,14.56c-4.59,5.2-13.34,6.33-19.14-3.85C517.86,605.07,517.02,602.09,515.45,600.31z M925.31,607.3
		c-8.92,6.31-19.31,5.3-19.69-8.14c-0.3-10.78-0.49-24.34,0.05-35.02h18.19c1.33-0.71,2.7-4.79,3.07-6.27l-20.9,0.01l-0.17-11.67
		c-2.8,1.83-11.59,10.25-14.61,12.69l-3.9,3.34c-1.17,1.12-0.64,0.07-0.89,1.52c1.75,1.03,5.8,0.4,8.08,0.4
		c0.54,10.47-2.3,38.43,0.55,46.06c2.19,5.82,7.59,8.71,15.72,7.65c8.33-1.08,11.39-4.95,15.9-8.15
		C926.43,608.48,926.13,607.83,925.31,607.3z M832.97,749.46c0.65,0.48,1.32,1.79,1.93,2.61c5,6.78,13.35,11.78,22.56,11.21
		c10.28-0.64,19.89-9.69,23.13-16.08l-1.01-1.45c-0.03-0.04-0.1-0.13-0.14-0.2c-2.6-0.27-3.49,4.69-12,7.58
		c-13.8,4.68-30.57-9.2-27.19-29.6l39.08-1.02c1-6.68-5.03-15.03-11.72-18.45c-7.99-4.1-17.38-2.75-24.2,1.7
		c-10.01,6.53-15.25,19.36-14.07,31.79C829.87,743.2,831.57,745.15,832.97,749.46z M840.98,720.37c0.8-6.94,5.9-14.67,12.55-15.31
		c8.26-0.8,13.64,5.35,13.85,13.05C861.45,719.94,847.72,720.35,840.98,720.37z M148.93,584.25c-3.95,20.71,17.05,41.87,38.11,30.51
		c4.77-2.58,10.7-8.12,12.88-12.8c-0.45-0.75-0.96-1.39-2.14-1.66c-18.24,19.6-41.68,2.02-38.22-21.93l39.28-1.25
		c-0.77-13.25-13-23.87-28.05-20.08C158.9,560.03,150.3,570.46,148.93,584.25z M160.31,574.92c1.35-7.05,5.59-14.38,12.36-15.12
		c8.61-0.93,13.79,5.18,14.07,13.2C180.64,573.75,166.07,575.99,160.31,574.92z M939.05,606.22c3.55,5.74,13.42,13.45,24.75,11.56
		c8.69-1.45,19.81-10.57,21.28-16.3l-1.82-1.24c-0.85,0.42-3.51,3.11-5,4.19c-16.92,12.35-36.66-3.65-33.62-25.97l39.32-1.21
		c-2.19-27.96-42.5-28.75-49.4,3.6C932.54,590.3,934.01,599.8,939.05,606.22z M945.4,575.1c3.23-20.57,25.58-19.86,26.45-2.08
		C962.75,574.11,954.93,575.05,945.4,575.1z M999.25,526.69l3,1.52c0.85,11-0.06,56.51-0.05,71.34c0,10.85,0.97,12.93-10.38,13.32
		l-0.05,3.45h33.09v-3.43c-4-0.09-9.78-0.03-11.08-3.1c-1.49-3.5-0.67-35.5-0.61-40.43c0.21-18,1.07-36.8,0.52-54.81l-19.52,8.95
		C994.84,525.12,997.75,525.94,999.25,526.69z M680.61,750.83c-0.46,6.67-2.16,7-10.22,7.32l-0.08,3.44h32.97
		c0.12-1.18,0.4-2.76-0.32-3.44c-4.16-0.06-9.68-0.13-10.79-3.38c-1.35-3.93-0.57-35.37-0.47-40.55c0.25-14.3,1.06-41.32,0.5-54.39
		l-19.46,8.92c0.4,1.24,0.16,0.83,1.72,1.56l6.24,3.26c0.69,5.97,0.29,13.59,0.3,19.72C680.98,701.62,681.01,745.97,680.61,750.83z
		 M619.44,763.08c4.37,0.77,13.01-3.31,16.98-5.15c2.31-1.06,5.61-3.08,7.88-3.71c0.44,2.29,1.84,5.13,3.02,6.8
		c3.19,4.53,9.28,0,13.49-2.84c2.14-1.44,3.87-2.88,5.85-4.2l-0.56-1.92c-3.22,0.05-9.29,5.57-10.99-1.24
		c-2.17-8.68,3.4-35.23-4.05-44.64c-9.53-12.03-22.71-3.38-32.37,4.24c-3.12,2.46-7.66,5.35-6.79,9.16
		c2.09,0.14,9.03,0.43,10.63-0.08c0.33-4.99,0.17-8.5,3.52-10.58c3.2-1.98,8.36-1.97,11.94-0.53c7.48,3.02,6.12,13.55,6.1,22.23
		c-2.91,1.3-7.83,2.42-11.12,3.34c-3.81,1.06-7.42,2.12-10.92,3.56c-3.7,1.51-6.52,3.12-7.69,6.8c-0.57,1.82-0.79,3.79-0.78,5.77
		C613.57,754.35,614.18,762.17,619.44,763.08z M644.08,734.33v16.33c-2.62,1.72-8.25,4.88-11.93,5.19
		c-4.79,0.41-8.81-3.74-8.94-8.24c-0.16-5.6,3.55-7.67,7.51-9.47C633.41,736.92,641.08,734.29,644.08,734.33z M370.73,763.13
		c6.08,0.78,19.14-6.62,24.33-8.93c3.78,6.75,2.66,13.99,17.7,3.39c4.44-3.13,4.88-2.78,4.64-5.05c-1.54-0.95-1.5-0.39-3.5,0.56
		c-3.78,1.8-7.42,1.65-7.97-3.46c-1.65-15.09,4.38-38.13-6.66-46.4c-9.22-6.9-18.59-0.76-25.21,3.98
		c-2.98,2.14-10.83,7.32-11.3,10.85c-0.24,1.79,0.59,1.58,2.16,1.59c2.02,0.03,6.94,0.27,8.6-0.11c0.54-4.94,0.21-8.59,3.74-10.76
		c2.9-1.76,8.09-1.82,11.64-0.41c7.82,3.12,6.39,13.09,6.21,22.36c-21.26,6.58-30.17,6.05-30.38,18.92
		C364.66,754.04,365.17,762.41,370.73,763.13z M395.05,750.77c-3,1.64-8.04,4.82-12.07,5.1c-7.11,0.5-15.19-11.59-1.04-17.83
		c3.11-1.38,9.47-3.34,13.18-3.84L395.05,750.77z M727.2,761.39c2.79-1.03,5.29-2.13,7.88-3.38c2.09-1.02,5.66-3.07,7.72-3.7
		c1.36,2,2,5.05,3.44,6.77c4.95,5.98,14.59-4.74,19.28-6.87c-0.33-1.23-0.26-1-0.37-1.92c-1.5-0.53-1.5-0.04-3.22,0.76
		c-0.77,0.36-2.13,0.88-3.08,1.01c-2.76,0.38-4.27-0.71-4.88-3.14c-2.13-8.39,3.37-35.64-3.99-44.68c-6.02-7.4-13.81-7.8-22.85-2.46
		c-3.43,2.03-11.14,7.53-14.18,10.36c-1.11,1.03-2.82,3.01-2.11,5.48l10.46,0.06c0.73-4.76,0.03-8.43,3.67-10.82
		c3-1.96,8.57-1.77,11.93-0.41c7.48,3.04,6.07,13.48,6.07,22.03c-1.88,1.22-8.49,2.7-11.05,3.42c-14.04,3.94-19.3,5.85-19.44,15.48
		C712.3,760.34,714.69,766.02,727.2,761.39z M742.89,750.88c-3.6,1.32-7.36,4.78-12.25,5c-7.25,0.33-14.66-11.93-0.98-17.78
		c3.75-1.61,8.98-3.21,13.3-3.92L742.89,750.88z M842.59,556.73c-15.19,2.12-30.35,16.19-27.89,34
		c2.14,15.51,16.55,29.85,34.82,27.01c28.34-4.39,37.51-37.83,16.74-53.94C860.94,559.65,851.59,555.48,842.59,556.73z
		 M844.02,560.47c12.53-2.18,19.95,12.27,20.7,24.17c0.8,12.64-5.07,28.17-16.09,29.5C824.23,617.09,818.02,565.01,844.02,560.47z
		 M431.56,754.24c-0.16,1.84-1.34,2.58-3.61,3.24c-1.82,0.52-3.81,0.55-5.81,0.73l0.07,3.39h31.69c0.18-1.21,0.53-2.98-0.42-3.52
		c-7.37-0.7-9.77-0.86-9.89-8.83c-0.1-6.04-0.17-12.09-0.25-18.13c-0.05-3.05-0.67-15.26,1.2-16.98c6.75-6.26,20.6-7.7,25.23,0.7
		c3.73,6.74,2,25,1.65,33.27c-0.34,7.75-0.84,9.23-8.68,9.93l-2.82,0.16l0.07,3.41l32.42-0.1l-0.3-3.37
		c-10.96-0.64-10.63-0.27-9.4-19.77c0.57-8.88,1.6-19.13-1.97-26.84c-2.66-5.73-9.34-12.81-18.47-11.01c-4,0.79-7.36,2.91-10.16,4.7
		c-2.23,1.41-6.75,5.6-8.51,6.05l-0.01-12.47c-3.33,0.84-7.3,2.6-10.56,3.83c-1.03,0.38-7.46,2.58-9.84,3.69
		c-0.04,0.56-0.02,1.3,0,1.82c0.9,0.51,7.32,2.72,9.11,4.49C432.3,717.89,433.17,752.48,431.56,754.24z M568.78,553.68
		c-0.01,14.72,0.16,36.95-0.45,51.45c-0.35,8.09-1.71,7.5-9.36,7.78l-0.03,3.41l29.61,0.01l0.13-3.14c-7.73-0.44-9.59-0.57-9.68-8.8
		c-0.06-6.17-0.06-12.48,0.05-18.64c2.16,1.34,4.6,3.97,6.42,5.75l8.86,9.25c2.2,2.51,7.61,7.37,7.59,10.63
		c-2.29,1.92-3.92,1.78-7.24,1.82l0.03,3.14h29.73l0.12-3.4c-6.11-0.25-8.03-3.12-10.75-5.93c-2.8-2.87-5.36-5.45-8.09-8.39
		c-1.48-1.59-2.28-2.39-4.01-4.05c-1.48-1.41-2.55-2.98-3.97-4.48c-1.64-1.74-7.23-7.16-7.88-8.76c10.5-7.69,18.7-19.17,31.79-20.09
		l0.02-3.27l-27.69-0.1l0.07,3.32c3.21,0.36,5.58,0.47,7.11,2.57c0.49,5.26-17.01,19.02-22.24,21.84l1-70.96l-18.8,8.31
		c-0.8,0.65-0.36-0.01-0.75,0.97c1.49,1.38,7.89,3.41,8.28,5.24L568.78,553.68z M335.89,555.52c-2.3,0.65-5.08,1.91-7.31,2.82
		c-1.33,0.54-2.4,1-3.71,1.52c-2.17,0.86-2.84,0.49-2.84,2.68c0.91,0.82,7.45,3.28,9.06,4.3v66.51c0,9.78-0.15,11.5-10.38,12.12
		l-0.1,3.28h32.76v-3.43c-8.5-0.82-11.37,0.52-11.54-9.16c-0.12-6.45-0.17-14.08,0.2-20.48c17.83,1.44,37.16-5.57,43.06-22.57
		c3.1-8.93,0.87-19.78-3.91-26.28c-3.23-4.41-13.05-12.14-22.26-10.77c-3.74,0.5-6.58,1.87-9.39,3.52c-1.42,0.83-6.44,4.41-7.7,4.35
		l-0.15-10.56L335.89,555.52z M341.94,567.65c3.8-1.43,7.73-5.67,16.08-3.38c26.69,7.31,18.87,46.06,0.44,47.64
		c-6.42,0.55-11.33-2.85-14.07-5.87c-2.64-2.92-2.5-3.22-2.49-8.1C341.92,588.32,341.61,576.82,341.94,567.65z M294.83,672.97
		c1.66,0.91,0.74-0.24,1.19,1.42l-0.14,74.03c0.08,4.09,0.78,7.37-2.74,8.56c-1.39,0.96-4.51,0.92-6.86,1.28l-0.05,3.26l30.45,0.08
		v-3.47c-11.22-0.87-10.16-0.13-10.16-16.95c0-8.9-0.01-17.81,0-26.72c5.01-2.12,9.38-6.47,17.22-4.82
		c13.04,2.74,11.02,22.49,10.4,34.52c-0.61,12.13-0.35,13.57-9.41,13.97c-1.65,0.23-0.75-0.03-1.1,0.77l0.04,2.63l30.6,0.07
		l-0.16-3.46c-5.31-0.26-9,0.3-9.47-5.32c-0.86-10.32,3.42-29.32-1.71-40.28c-2.8-5.97-8.7-11.82-17.77-11.08
		c-9.89,0.81-14.39,8.18-18.63,9.89l0.58-41.37l0.05-10.03c-2.73,0.85-18.17,7.52-19.58,8.83c0.48,1.22-0.38,0.49,1.53,1.42
		L294.83,672.97z M567.63,761.84l6.1-0.28l0.27-3.88c-9.96-0.65-13.84-1.16-13.89-10.07c-0.05-7.89,0.15-15.84,0.15-23.74
		c0-9.75-1.05-39.2,0.3-46.63c7.83-0.7,14.57-0.68,20.33,3.31c10.26,7.13,11.9,24.59,2.81,34.71c-5.4,6.02-9.07,5.27-18.76,5.02
		l-0.26,3.27c6.86,0.43,11.65,1.82,18.58-0.29c5.53-1.68,8.48-3.85,12.2-7.51c6.83-6.7,10.14-18.84,4.13-29.36
		c-9.64-16.89-29.33-13.21-45.12-12.79c-6.6,0.18-13.26-0.26-19.73-0.09l0.03,3.69c12.13,1.42,12.34,0.77,12.33,14.07l0.15,53.1
		c-0.1,12-1.74,12.34-13.4,13.21v3.99C538.16,761.39,565.91,760.82,567.63,761.84z M217.17,566.85c0.24,3.09,0.55,38.41-0.1,41.74
		c-0.99,5.12-5.07,3.44-9.61,4.46l-0.02,3.15l31.74,0.12l0.02-3.2c-11.35-1.99-10.67,0.84-10.67-16.39c0-7.68-0.75-20.27,0.13-27.36
		c1.5-3.07,26.61-14.68,27.5,7.75c0.31,7.65,0.36,15.58,0.13,23.23c-0.32,10.6,0.36,12.04-10.78,12.54l-0.04,3.42h31.53l0.05-3.25
		c-3.96-0.94-8.28-0.04-9.6-3.7c-0.58-1.62-0.56-38.27-0.32-40c4.29-3.16,10.73-6.34,17.51-4.56c6.99,1.84,8.97,5.69,9.79,13.51
		c0.77,7.28-0.03,15.37-0.43,22.64c-0.59,10.81-0.5,11.05-11.39,12.01l-0.04,3.31l32.33,0.05l0.09-3.37
		c-9.6-1.41-10.52,0.44-10.13-10.99c0.43-12.23,3.28-27.3-2.75-37.34c-2.19-3.65-6.65-7.82-11.92-9.03
		c-10.2-1.73-17.71,7.2-24.04,11.57c-1.05-1.72-1.47-3.25-2.65-4.97c-1.32-1.91-2.19-2.68-3.76-3.9
		c-12.99-10.06-24.81,4.94-31.21,7.74l-0.01-12.5c-2.9,0.56-8.1,2.84-11.03,3.93c-1.86,0.69-3.43,1.3-5.25,1.99
		c-4.08,1.54-4.07,0.86-4.08,3.05C208.67,562.97,215.93,566.19,217.17,566.85z M230.49,757.62c-10.58-0.42-12.97-1.85-12.95-12.42
		c0.01-8.11-0.34-16.93,0.05-24.95c4.25-0.22,4.97-0.42,7.56,1.82c1.59,1.38,2.71,3.02,4.41,4.81c5.63,5.92,11.85,13.34,17.72,19.3
		l4.42,4.84c1.46,1.68,3.48,4.88-0.42,5.94c-1.24,0.7-4.19,0.7-6.21,0.74l-0.21,3.87c11.82-0.45,24.73-0.58,36.51,0l-0.6-3.83
		l-1.92-0.54c-6.3-1.01-11.91-8.32-15.67-12.44l-29.79-32.22c1.84-1.62,2.89-3.14,4.65-4.94c0.91-0.93,1.29-1.67,2.2-2.63
		c5.86-6.2,16.29-18.15,21.59-22.67c6.64-5.66,6.42-2.94,14.91-4.96l0.07-3.7l-34.57-0.06l0.03,3.79c6.8,1.72,13.16,0.05,7.41,9.27
		c-2.22,3.53-10.83,13.89-14.06,16.91c-4.86,4.5-8.73,12.95-17.8,12.94c-0.89-7.26-0.12-18.37-0.12-26.01
		c0-3.46-0.38-8.94,1.8-11.08c2.63-2.58,7.26-1.23,10.99-2.04l0.07-3.73l-39.29-0.03l-0.01,3.87c12.32,1.83,12.7-0.75,13.33,13.31
		c0.39,8.56,0.05,17.6,0.05,26.26c0,8.6-0.35,17.46-0.26,26.16c0.15,12.95,0.2,13.61-12.48,14.44l-0.02,3.96
		c12.34-0.65,26.15-0.44,38.53,0.01L230.49,757.62z M55.14,532.21c12.19,1.29,12.84-0.4,13.39,13.03
		c0.66,15.98-0.23,36.49-0.17,53.1c0.04,12.41-0.1,13.29-12.5,14v3.92l38.53-0.1v-3.33c-1.27-0.8-3.54-0.68-5.27-1
		c-1.81-0.33-3.45-0.75-4.73-1.67c-3.13-2.26-2.88-5.36-2.87-9.8c0.02-8.41-0.18-17,0.03-25.39c8.2-0.36,8.54,3.16,15.87,10.89
		l17.04,18.77c6.99,6.78,0.69,7.9-5.52,7.73l-0.09,3.91l36.5-0.17v-3.76c-6.11-0.57-7.11-1.93-10.46-4.81
		c-4.84-4.17-11.75-12.75-14.97-15.6c-1.48-1.32-2.4-2.51-3.68-3.98l-3.67-3.83c-1.41-1.44-2.32-2.75-3.71-4.09l-11.53-12.82
		c1.89-1.5,2.97-2.99,4.67-4.9l6.9-7.58c4.67-4.96,6.35-7.2,11.86-12.69c8.34-8.32,6.36-8.06,19.89-9.88l0.1-3.74l-34.65-0.1
		l0.06,3.95c7.56,0.64,12.59,1.12,7.61,8.83c-3.45,5.34-5.94,7.55-9.2,11.71l-9.81,10.71c-2.97,3.16-5.94,7.63-12.92,7.69
		c-1.05-5.12-0.22-19.54-0.19-25.57c0.07-13.81,0.03-12.58,12.84-13.43l0.04-3.85l-39.4,0.03V532.21z M716.49,540.53
		c-0.66,4.75,0.01,15.02-0.12,20.58c-0.17,7.01-0.2,14.12-0.24,21.14c-0.03,6.51,0.36,14.73-0.23,20.97
		c-0.86,8.91-4.53,8-12.68,9.07c-0.44,2.61-0.41,3.77,0.95,4.05l39.78-0.02l0.06-4.07c-11.14-0.25-14.6-0.59-14.62-12.29
		c-0.01-8.84-0.16-18.13,0.13-26.92l49.63-0.04c0.36,8.22,0.48,18.47,0.05,26.63c-0.69,13.32-2.91,11.51-14.83,12.66l-0.16,3.98
		l41.52,0.07l0.03-4.02c-9.32-1.55-13.49,2.79-13.49-13.17c0-8.72,0.11-17.51,0.21-26.14c0.1-8.87,0.19-17.69,0.11-26.56
		c-0.13-12.88,0.3-13.72,12.92-14.22l0.16-3.9l-40.48,0.07l-0.08,3.78c10.25,0.95,13.93-0.76,14.35,11.03
		c0.23,6.41,0.43,18.59-0.33,24.78l-49.44-0.02c-0.82-4.32,0.13-18.93,0.19-24.35c0.14-12.29,3.13-9.88,13.54-11.49v-3.8
		l-40.21-0.01l0.15,3.94C712.1,532.67,714.75,532.28,716.49,540.53z"/>
	<polygon class="st33" points="194.95,854.58 881.61,854.55 881.61,852.37 194.95,852.47 	"/>
</g>
</svg>
