<?xml version="1.0" encoding="utf-8"?>
<!-- Generator: Adobe Illustrator 26.5.0, SVG Export Plug-In . SVG Version: 6.00 Build 0)  -->
<svg version="1.1" id="Layer_1" xmlns="http://www.w3.org/2000/svg" xmlns:xlink="http://www.w3.org/1999/xlink" x="0px" y="0px"
	 viewBox="0 0 1080 1080" style="enable-background:new 0 0 1080 1080;" xml:space="preserve">
<style type="text/css">
	.st0{fill-rule:evenodd;clip-rule:evenodd;}
	.st1{fill:#ED1C24;}
	.st2{fill:#E1251B;}
	.st3{fill-rule:evenodd;clip-rule:evenodd;fill:#16397B;}
	.st4{fill:#EE2745;}
	
		.st5{clip-path:url(#SVGID_00000132798520782032282510000013119861543448483504_);fill:url(#SVGID_00000102538297670795550510000004670325460552097425_);}
	
		.st6{clip-path:url(#SVGID_00000036973223586988408200000012913152960644535696_);fill:url(#SVGID_00000037694403986379121180000009796451919029401788_);}
	
		.st7{clip-path:url(#SVGID_00000007425623892226832230000015415149195351190956_);fill:url(#SVGID_00000092448425377667944860000016282758592547881405_);}
	
		.st8{clip-path:url(#SVGID_00000017502491245477026760000013737155774612199055_);fill:url(#SVGID_00000163055859627169345790000008258947295443691422_);}
	.st9{fill:#424243;}
	
		.st10{clip-path:url(#SVGID_00000181769153318892243720000016884874517050663097_);fill:url(#SVGID_00000015321027684885911030000003143792760505963691_);}
	.st11{fill:#FFFFFF;}
	
		.st12{clip-path:url(#SVGID_00000078006605465072370570000011447195835494276534_);fill:url(#SVGID_00000183227187806321952070000015384493952721182100_);}
	
		.st13{clip-path:url(#SVGID_00000183930418026761132510000013318547390576565655_);fill:url(#SVGID_00000005965881567781996070000008641016253559016073_);}
	
		.st14{clip-path:url(#SVGID_00000028303682458527250370000016354732490600748706_);fill:url(#SVGID_00000000206914416066862000000016041950782677566605_);}
	
		.st15{clip-path:url(#SVGID_00000008108452324015704350000007205675734533605029_);fill:url(#SVGID_00000093859308838809294170000005493630774568002696_);}
	
		.st16{clip-path:url(#SVGID_00000056421167511271368890000017855792936492572568_);fill:url(#SVGID_00000080185610228298733480000006491790400608804279_);}
	
		.st17{clip-path:url(#SVGID_00000049911475271551995850000000117403308561603001_);fill:url(#SVGID_00000053507504825912721260000012867755098577044113_);}
	
		.st18{clip-path:url(#SVGID_00000108307048484435672770000015286691316662086564_);fill:url(#SVGID_00000132070360663599232010000003862741876661847953_);}
	.st19{fill-rule:evenodd;clip-rule:evenodd;fill:#C8202F;}
	.st20{fill-rule:evenodd;clip-rule:evenodd;fill:#FFFFFF;}
	.st21{fill-rule:evenodd;clip-rule:evenodd;fill:#F98238;}
	.st22{filter:url(#Adobe_OpacityMaskFilter);}
	.st23{fill:url(#SVGID_00000147217372838853232260000014090614918345557148_);}
	.st24{mask:url(#SVGID_00000162324243782990467670000005142805180945220797_);fill-rule:evenodd;clip-rule:evenodd;fill:#ED1C24;}
	.st25{fill-rule:evenodd;clip-rule:evenodd;fill:#F5333F;}
	.st26{fill-rule:evenodd;clip-rule:evenodd;fill:#ED1C24;}
	.st27{fill-rule:evenodd;clip-rule:evenodd;fill:#F9A46E;}
	.st28{fill-rule:evenodd;clip-rule:evenodd;fill:#F47B26;}
	.st29{fill-rule:evenodd;clip-rule:evenodd;fill:#EB5433;}
	.st30{fill:#1A3282;}
	.st31{fill-rule:evenodd;clip-rule:evenodd;fill:#1A3282;}
	.st32{fill-rule:evenodd;clip-rule:evenodd;fill:#9D9FA2;}
	.st33{fill-rule:evenodd;clip-rule:evenodd;fill:#000303;}
	.st34{fill:#64003D;}
	.st35{fill:#536270;}
	.st36{fill-rule:evenodd;clip-rule:evenodd;fill:#64003D;}
	.st37{fill-rule:evenodd;clip-rule:evenodd;fill:#536270;}
	.st38{fill-rule:evenodd;clip-rule:evenodd;fill:#1A3382;}
	.st39{fill-rule:evenodd;clip-rule:evenodd;fill:#29387E;}
	.st40{fill-rule:evenodd;clip-rule:evenodd;fill:#F37021;}
	.st41{fill-rule:evenodd;clip-rule:evenodd;fill:#005C32;}
	.st42{fill-rule:evenodd;clip-rule:evenodd;fill:#D2AB67;}
	
		.st43{clip-path:url(#SVGID_00000089569173268831294820000006578994458948374156_);fill:url(#SVGID_00000052824950171983633080000014863117649381874075_);}
	
		.st44{clip-path:url(#SVGID_00000114046026214045646240000017099252533089084847_);fill:url(#SVGID_00000160153124444922713100000014547821795078999729_);}
	
		.st45{clip-path:url(#SVGID_00000177479476565150323050000016470204105393767332_);fill:url(#SVGID_00000128480367647048043510000006385166534690780343_);}
	.st46{fill-rule:evenodd;clip-rule:evenodd;fill:#00AEEF;}
	.st47{fill-rule:evenodd;clip-rule:evenodd;fill:#EC008C;}
	.st48{fill-rule:evenodd;clip-rule:evenodd;fill:#FFF200;}
	.st49{fill:#A7AAAC;}
	.st50{fill-rule:evenodd;clip-rule:evenodd;fill:#5C5B5B;}
	.st51{fill:#9D9D9F;}
	.st52{fill:#F04D23;}
	.st53{fill-rule:evenodd;clip-rule:evenodd;fill:#2E3192;}
	.st54{fill-rule:evenodd;clip-rule:evenodd;fill:#C4312D;}
	.st55{fill:#552715;}
	.st56{fill:#010101;}
	.st57{fill:#E31E2E;}
	.st58{fill:url(#SVGID_00000044872469533651873990000003985060850734499208_);}
	.st59{fill:url(#SVGID_00000166646059809085233670000010860042195582732185_);}
	.st60{clip-path:url(#SVGID_00000024724247135084700890000015539729304837640362_);}
	.st61{clip-path:url(#SVGID_00000018931081457578985150000006288962555542163127_);}
	.st62{clip-path:url(#SVGID_00000064335193752388413790000013497683762109311417_);}
	.st63{clip-path:url(#SVGID_00000049900263493848613350000011140964904866658691_);}
	.st64{clip-path:url(#SVGID_00000042010577909547029980000014089762878244228757_);}
	.st65{clip-path:url(#SVGID_00000054251502317691379460000004995111288298576278_);}
	.st66{clip-path:url(#SVGID_00000152975424432261849070000003430416192588303756_);}
	.st67{clip-path:url(#SVGID_00000065779596765904537110000011577155712810408077_);}
	.st68{clip-path:url(#SVGID_00000034073439197033437490000017607509066521540284_);}
	.st69{clip-path:url(#SVGID_00000086684613389622880090000010216403720322157754_);}
	.st70{clip-path:url(#SVGID_00000088112537244168847620000012457517445704162449_);}
	.st71{fill:#2650A1;}
	.st72{fill:url(#SVGID_00000080890821552056742790000000498729921936510111_);}
	.st73{fill:#FEFEFE;}
	.st74{fill:#FDFDFD;}
	.st75{fill:#FCFCFC;}
	.st76{fill:#FBFBFB;}
	.st77{fill:#FAFAFA;}
	.st78{fill:#F9F9F9;}
	.st79{fill:#F8F8F8;}
	.st80{fill:#F7F7F7;}
	.st81{fill:#F6F6F6;}
	.st82{fill:#F5F5F5;}
	.st83{fill:#F4F4F4;}
	.st84{fill:#F3F3F3;}
	.st85{fill:#F2F2F2;}
	.st86{fill:#F1F1F1;}
	.st87{fill:#F0F0F0;}
	.st88{fill:#EFEFEF;}
	.st89{fill:#EEEEEE;}
	.st90{fill:#EDEDED;}
	.st91{fill:#ECECEC;}
	.st92{fill:#EBEBEB;}
	.st93{fill:#EAEAEA;}
	.st94{fill:#E9E9E9;}
	.st95{fill:#E8E8E8;}
	.st96{fill:#E7E7E7;}
	.st97{fill:#E6E6E6;}
	.st98{fill:#E5E5E5;}
	.st99{fill:#E4E4E4;}
	.st100{fill:#E3E3E3;}
	.st101{fill:#E2E2E2;}
	.st102{fill:#E1E1E1;}
	.st103{fill:#E0E0E0;}
	.st104{fill:#DFDFDF;}
	.st105{fill:#DEDEDE;}
	.st106{fill:#DDDDDD;}
	.st107{fill:#DCDCDC;}
	.st108{fill:#DBDBDB;}
	.st109{fill:#DADADA;}
	.st110{fill:#D9D9D9;}
	.st111{fill:#D92231;}
	.st112{fill:url(#SVGID_00000069365849864625328260000014486981854705658796_);}
	.st113{fill:url(#SVGID_00000173865698560432176900000006819941608776011178_);}
	.st114{opacity:0.8;}
	.st115{fill:url(#SVGID_00000020380593073091624200000000662764233352008611_);}
	.st116{fill:url(#SVGID_00000047755123134367405260000011675067749551342219_);}
	.st117{fill-rule:evenodd;clip-rule:evenodd;fill:#010101;}
	.st118{fill:#80A845;}
	.st119{fill-rule:evenodd;clip-rule:evenodd;fill:#80A845;}
	.st120{fill:url(#SVGID_00000121276209253719548120000003071275399681795207_);}
	.st121{fill-rule:evenodd;clip-rule:evenodd;fill:#04984A;}
	.st122{fill-rule:evenodd;clip-rule:evenodd;fill:url(#SVGID_00000160182519780485730490000004242512013525151879_);}
	.st123{fill:url(#SVGID_00000168796756485959866620000014180063460377314479_);}
	.st124{fill:url(#SVGID_00000153669683381130691500000005177450462395822247_);}
	.st125{fill:url(#SVGID_00000168797683226775471760000002267198420455033993_);}
	.st126{fill:url(#SVGID_00000168082302638519945170000014651651270606236842_);}
	.st127{fill:url(#SVGID_00000178887391835721225690000008156209173927544751_);}
	.st128{fill:url(#SVGID_00000025429129537497211240000017164093065022035130_);}
	.st129{fill:url(#SVGID_00000053519288755736115940000001359997731183884693_);}
	.st130{fill:url(#SVGID_00000178173437690790590940000005740338135347925150_);}
	.st131{fill:url(#SVGID_00000059302182997497412740000013210085972667214504_);}
	.st132{fill:url(#SVGID_00000170243031423360760920000000435833940849651584_);}
	.st133{fill:url(#SVGID_00000021086468154180215840000014568997880625696427_);}
	.st134{fill:url(#SVGID_00000158021245546547401060000010529985265911540637_);}
	.st135{fill:url(#SVGID_00000102529098208400371290000013597629380509307318_);}
	.st136{fill:url(#SVGID_00000005952531633111101720000001513127115569568181_);}
	.st137{fill-rule:evenodd;clip-rule:evenodd;fill:url(#SVGID_00000091726991190470153330000001189245758423689917_);}
	.st138{fill:#0A529D;}
	.st139{fill:url(#SVGID_00000058547996266551593230000014486804511828009883_);}
	.st140{fill:url(#SVGID_00000016047456819754689050000006311366106598777003_);}
	.st141{fill:url(#SVGID_00000055680027451043797710000005120502189443067294_);}
	.st142{fill:url(#SVGID_00000073722051738924530190000000758057813107986584_);}
	.st143{fill:url(#SVGID_00000183939928834214541800000001479638337298002568_);}
	.st144{fill:url(#SVGID_00000063627237244010520930000013532914393606869950_);}
	.st145{fill:url(#SVGID_00000016765680007387356070000010363047953983740347_);}
	.st146{fill:url(#SVGID_00000050643696026027269700000013582745282282433957_);}
	.st147{fill:url(#SVGID_00000031182810587189484540000008611076545054903680_);}
	.st148{fill:url(#SVGID_00000050662555635587373150000010551335915955193241_);}
	.st149{fill:url(#SVGID_00000163752383477376088920000007767403435586338969_);}
	.st150{fill:url(#SVGID_00000005244116416280915010000009291300405133214617_);}
	.st151{fill-rule:evenodd;clip-rule:evenodd;fill:url(#SVGID_00000182504751037472923540000006102281900292974472_);}
	.st152{fill:url(#SVGID_00000067940625040579886900000002201166527826406333_);}
	.st153{fill:url(#SVGID_00000086691379041959394730000005566438139759643033_);}
	.st154{fill:url(#SVGID_00000145766108948148491760000013057768304335497407_);}
	.st155{fill:url(#SVGID_00000079479461405439107520000003637246883894687368_);}
	.st156{fill:url(#SVGID_00000037652532584621007400000011404778597419351726_);}
	.st157{fill:url(#SVGID_00000058577193220349706770000015400184334771928989_);}
	.st158{fill:url(#SVGID_00000044898717520302780940000012354655417181549972_);}
	.st159{fill:url(#SVGID_00000156548675802578322740000003209838010181342638_);}
	.st160{fill:url(#SVGID_00000140002764550066872910000017002876627599337110_);}
	.st161{fill:url(#SVGID_00000144302610230740533020000003330341371656041395_);}
	.st162{fill:url(#SVGID_00000086678012564035507630000007949843674511233463_);}
	.st163{fill:url(#SVGID_00000145758390493596544170000016725453959752284051_);}
	.st164{fill:url(#SVGID_00000125589400468111719840000012544706212236573572_);}
	.st165{fill:url(#SVGID_00000116221892281554023260000005908201979858166400_);}
	.st166{fill:url(#SVGID_00000005976904458924355000000001990768720062122372_);}
	.st167{fill:url(#SVGID_00000161612445849293796100000003744776178281977279_);}
	.st168{fill:url(#SVGID_00000065767331382492117940000013539780199275343770_);}
	.st169{fill-rule:evenodd;clip-rule:evenodd;fill:url(#SVGID_00000132776766253495391240000009308152029085194419_);}
	.st170{fill:url(#SVGID_00000119104710742290410640000004564886498016616358_);}
	.st171{fill:url(#SVGID_00000041272542018411570880000004595162624016018339_);}
	.st172{fill:url(#SVGID_00000003069260233787500170000013694015532889586574_);}
	.st173{fill:url(#SVGID_00000168819165983875326430000011305889814888103296_);}
	.st174{fill:url(#SVGID_00000089569390764790533370000002236008902858387850_);}
	.st175{fill:url(#SVGID_00000031890142476105613840000011601666226165623440_);}
	.st176{fill:url(#SVGID_00000054958262917014257720000006810446602454262717_);}
	.st177{fill:url(#SVGID_00000078009724684467075700000003138908569735954868_);}
	.st178{fill:url(#SVGID_00000150094111172657290560000004656655602053148551_);}
	.st179{fill:url(#SVGID_00000107569066164215295110000003399647831522686362_);}
	.st180{fill:url(#SVGID_00000125564868998019274380000010326781104775190697_);}
	.st181{fill:url(#SVGID_00000018218055510870256540000002932856668760905141_);}
	.st182{fill:url(#SVGID_00000115512074443580600340000001606230865276352162_);}
	.st183{fill:url(#SVGID_00000152970642039802609330000013799200803425065097_);}
	.st184{fill-rule:evenodd;clip-rule:evenodd;fill:url(#SVGID_00000024686797251884999840000004044525085880085674_);}
	.st185{fill:url(#SVGID_00000046298066957514339110000007184416160910573722_);}
	.st186{fill:url(#SVGID_00000042709642821504133520000013021499256335180705_);}
	.st187{fill:url(#SVGID_00000167381397951017152320000014886525554119769780_);}
	.st188{fill:url(#SVGID_00000128483176301173108060000007750270390133148564_);}
	.st189{fill:url(#SVGID_00000057834740361905792880000002714536078336012697_);}
	.st190{fill:url(#SVGID_00000014614313526549923380000004557185569459507124_);}
	.st191{fill:url(#SVGID_00000101804749544251034640000007612265816688545951_);}
	.st192{fill:url(#SVGID_00000154427162250501323230000007633898757821174150_);}
	.st193{fill:url(#SVGID_00000098921331964946572370000017344268616501815716_);}
	.st194{fill:url(#SVGID_00000040532725351772449950000001699054746365012642_);}
	.st195{fill:url(#SVGID_00000094620148764209058540000000175110218767845562_);}
	.st196{fill:url(#SVGID_00000168081575176573510820000009516481468162127510_);}
	.st197{fill:url(#SVGID_00000029752315479961583120000006293248620345124765_);}
	.st198{fill:url(#SVGID_00000180346245992889838850000003973989931723782803_);}
	.st199{fill:url(#SVGID_00000062169993287204088180000017440982902259456649_);}
	.st200{fill:url(#SVGID_00000088129285018091118640000016917173628411196840_);}
	.st201{fill:url(#SVGID_00000000925571046345383370000011952911435774874758_);}
	.st202{fill:url(#SVGID_00000003086961370385577900000016820401244780269233_);}
	.st203{fill:url(#SVGID_00000090255574907783815670000005458885333720033158_);}
	.st204{fill-rule:evenodd;clip-rule:evenodd;fill:url(#SVGID_00000168828784120221319180000010872716359126972084_);}
	.st205{fill:url(#SVGID_00000162352327222172499000000011046319478795116729_);}
	.st206{fill:url(#SVGID_00000049189598590967082490000015568746606262360991_);}
	.st207{fill:url(#SVGID_00000152236109067817014640000011629570707046447021_);}
	.st208{fill:url(#SVGID_00000173864162210383940760000012675269955603639222_);}
	.st209{fill:url(#SVGID_00000010989692753641146910000001781713705534918560_);}
	.st210{fill:url(#SVGID_00000047747910057216493720000012926165620765419403_);}
	.st211{fill:url(#SVGID_00000109729505052078520070000003634537241042798992_);}
	.st212{fill:url(#SVGID_00000098211402312792102060000007427548468684371629_);}
	.st213{fill:url(#SVGID_00000163794399321908725420000013179185189307898265_);}
	.st214{fill:url(#SVGID_00000170982630258527282170000014539717064710862991_);}
	.st215{fill:url(#SVGID_00000049942892578161524650000004984593024808407462_);}
	.st216{fill:url(#SVGID_00000077316896526995237490000008255502352573427379_);}
	.st217{fill:url(#SVGID_00000165230735360001138200000011693155729115925684_);}
	.st218{fill:url(#SVGID_00000047057856071010727490000005058190005730186631_);}
	.st219{fill:url(#SVGID_00000153694034937224928350000005882310056203806654_);}
	.st220{fill:url(#SVGID_00000020358871062613234820000014404361654734536112_);}
	.st221{fill-rule:evenodd;clip-rule:evenodd;fill:url(#SVGID_00000148649174536530791840000012288265724764483209_);}
	.st222{fill:url(#SVGID_00000132066391570290579260000006876027436007402678_);}
	.st223{fill:url(#SVGID_00000060020950666227564240000007657741333972730504_);}
	.st224{fill:url(#SVGID_00000003794802052541020510000005396584439472013750_);}
	.st225{fill:url(#SVGID_00000093154365358235426300000007451298472217868952_);}
	.st226{fill:url(#SVGID_00000174579907518465996990000007082076494951731334_);}
	.st227{fill:url(#SVGID_00000060017860852787084570000004122002887606805653_);}
	.st228{fill:url(#SVGID_00000072991546043336272100000007535097101171310248_);}
	.st229{fill:url(#SVGID_00000137848043188104121790000007622759207171879043_);}
	.st230{fill:url(#SVGID_00000029047784506260553940000012965724302691152533_);}
	.st231{fill:url(#SVGID_00000048460930596632876450000002845829350028257927_);}
	.st232{fill:url(#SVGID_00000153671962202150435640000009293794468432182913_);}
	.st233{fill:url(#SVGID_00000150098274845698162420000010388125992097413550_);}
	.st234{fill:url(#SVGID_00000070090639077846872360000017484587888394443920_);}
	.st235{fill:url(#SVGID_00000035521897519450381110000003906510860983701648_);}
	.st236{fill:url(#SVGID_00000052789009142093212690000004026350896646255779_);}
	.st237{fill-rule:evenodd;clip-rule:evenodd;fill:url(#SVGID_00000039818404245898854550000012060865314037497522_);}
	.st238{fill:url(#SVGID_00000173122483130937878730000018048110350872256904_);}
	.st239{fill:url(#SVGID_00000088096536712295083710000015055255188996713623_);}
	.st240{fill:url(#SVGID_00000162330013618837487300000006305925270205135010_);}
	.st241{fill:url(#SVGID_00000167389116468543120770000006594241915045593242_);}
	.st242{fill:url(#SVGID_00000129163429268462863980000005150504477624284349_);}
	.st243{fill:url(#SVGID_00000122709110270011537530000000677698260694275242_);}
	.st244{fill:url(#SVGID_00000111160790578483546380000001765717002514631863_);}
	.st245{fill:url(#SVGID_00000043441305498056565600000011132318046945733024_);}
	.st246{fill:url(#SVGID_00000039102989416086119670000018432031099487007620_);}
	.st247{fill:url(#SVGID_00000033365314126084161500000008463125729331004574_);}
	.st248{fill:url(#SVGID_00000055669370655505862360000007966554656250981810_);}
	.st249{fill:url(#SVGID_00000170243404088656535700000001742067382024309131_);}
	.st250{fill:url(#SVGID_00000072279623829094642360000013193481633344891528_);}
	.st251{fill:url(#SVGID_00000142142967685755565220000000307977604164723075_);}
	.st252{fill:url(#SVGID_00000010297581430099294690000007825728234177245621_);}
	.st253{fill-rule:evenodd;clip-rule:evenodd;fill:url(#SVGID_00000093155675293066697910000005171807306656768399_);}
	.st254{fill:url(#SVGID_00000160898065396209553500000018050709375331807106_);}
	.st255{fill:url(#SVGID_00000152225834279610412300000007086331406987848341_);}
	.st256{fill:url(#SVGID_00000093896161973913529510000008582594444499757992_);}
	.st257{fill:url(#SVGID_00000098917539555701407790000007216899778144752790_);}
	.st258{fill:url(#SVGID_00000072245693496558554440000016762802864144178589_);}
	.st259{fill:url(#SVGID_00000013189285634389143030000016521790188626957185_);}
	.st260{fill:url(#SVGID_00000085929619033981924940000007435654109630886037_);}
	.st261{fill:url(#SVGID_00000036226474682277677810000009208590820534782866_);}
	.st262{fill:url(#SVGID_00000069396107867080650290000007066355513090064310_);}
	.st263{fill:url(#SVGID_00000101808576959006104480000002800353831331998349_);}
	.st264{fill:url(#SVGID_00000131327169784408267340000013868213306877983418_);}
	.st265{fill:url(#SVGID_00000005973198828810829280000005891420538543603348_);}
	.st266{fill:url(#SVGID_00000156558594235785592570000005373952258941933229_);}
	.st267{fill:url(#SVGID_00000116917682728273106280000016330345986075024529_);}
	.st268{fill:url(#SVGID_00000026879795269858120980000011718627556163149215_);}
	.st269{fill-rule:evenodd;clip-rule:evenodd;fill:url(#SVGID_00000010311629002699136820000015980905493550600099_);}
	.st270{fill:url(#SVGID_00000106870371332121280890000007778871635469689000_);}
	.st271{fill:url(#SVGID_00000042722245469407176650000003839345586569608583_);}
	.st272{fill:url(#SVGID_00000091737687201378220270000006459240059916875931_);}
	.st273{fill:url(#SVGID_00000066484044211089021210000009328180400809208230_);}
	.st274{fill:url(#SVGID_00000147923012497650686070000010935696456736024762_);}
	.st275{fill:url(#SVGID_00000109710654795366782570000010770113866751478689_);}
	.st276{fill:url(#SVGID_00000170245548484324736910000018327383909250262203_);}
	.st277{fill:url(#SVGID_00000020377089097239430010000006976782385169894078_);}
	.st278{fill:url(#SVGID_00000101807054159145279280000017732515735763946935_);}
	.st279{fill:url(#SVGID_00000179608206898119396920000012782681411917332640_);}
	.st280{fill:url(#SVGID_00000182493565215410360000000011509350399522125473_);}
	.st281{fill:url(#SVGID_00000100367027668020184960000005260865362141552311_);}
	.st282{fill:url(#SVGID_00000173876335425739922070000005344008953692023721_);}
	.st283{fill:url(#SVGID_00000022530978348015306050000010094842243575107721_);}
	.st284{fill:url(#SVGID_00000120533811586448168400000004303853494699292566_);}
	.st285{fill-rule:evenodd;clip-rule:evenodd;fill:url(#SVGID_00000009555187782534090360000013538277046752755636_);}
	.st286{fill:url(#SVGID_00000009577771335131341710000002900846118047959188_);}
	.st287{fill:url(#SVGID_00000016778473550732794240000007678425397679203248_);}
	.st288{fill:url(#SVGID_00000023253605929668117160000007187416221279233449_);}
	.st289{fill:url(#SVGID_00000171682041815601686080000013021855294328261801_);}
	.st290{fill:url(#SVGID_00000083778321727532331580000010264219235956659857_);}
	.st291{fill:url(#SVGID_00000120544115369791790150000001681662542423888301_);}
	.st292{fill:url(#SVGID_00000121270512666942336240000016393701579340934530_);}
	.st293{fill:url(#SVGID_00000132771957548781006540000000102205694410998181_);}
	.st294{fill:url(#SVGID_00000107549088446819734510000011353511681346449034_);}
	.st295{fill:url(#SVGID_00000051378187994937718020000005992313746399887791_);}
	.st296{fill:url(#SVGID_00000171685915382307379800000013771212912259122817_);}
	.st297{fill:url(#SVGID_00000029735777956666518390000017680503049276841110_);}
	.st298{fill:url(#SVGID_00000019666281347143916330000007717561224188005000_);}
	.st299{fill:url(#SVGID_00000129919205375500890350000012298266694379937953_);}
	.st300{fill:url(#SVGID_00000129187146655019213950000001319254016420053154_);}
	.st301{fill:url(#SVGID_00000005268968550544634180000012276892421484222896_);}
	.st302{fill:url(#SVGID_00000083809571640559784370000001247555093334427295_);}
	.st303{fill:url(#SVGID_00000080187762920261459720000017194258892675943302_);}
	.st304{fill-rule:evenodd;clip-rule:evenodd;fill:url(#SVGID_00000025441609664893413680000011441996244558880651_);}
	.st305{fill:url(#SVGID_00000003784181549666627170000015309486946384029605_);}
	.st306{fill:url(#SVGID_00000032628807341896301720000010060170866028147633_);}
	.st307{fill:url(#SVGID_00000089556240448737345850000014100120256906928035_);}
	.st308{fill:url(#SVGID_00000085208137712808115060000001333498162945477762_);}
	.st309{fill:url(#SVGID_00000049937577178374348580000012792177879732430268_);}
	.st310{fill:url(#SVGID_00000004543700142956644790000000692732320546638976_);}
	.st311{fill:url(#SVGID_00000067921200539278561970000017218779140459042695_);}
	.st312{fill:url(#SVGID_00000000918691963327754300000013124053703155124382_);}
	.st313{fill:url(#SVGID_00000013903671553053137100000013824305186944899740_);}
	.st314{fill:url(#SVGID_00000062177189224844783990000005267843897798169510_);}
	.st315{fill:url(#SVGID_00000057850499311385953960000011884491337939027328_);}
	.st316{fill:url(#SVGID_00000010999667512389959420000005389963087750246074_);}
	.st317{fill:url(#SVGID_00000101104607561438752490000002313857583478307471_);}
	.st318{fill:url(#SVGID_00000158017192702178918620000003929810094001981322_);}
	.st319{fill:url(#SVGID_00000070824553414374563800000004252936296536896937_);}
	.st320{fill:url(#SVGID_00000128446300799964341550000009439866957933781122_);}
	.st321{fill:url(#SVGID_00000047769687764188783230000016349320279945484690_);}
	.st322{fill:url(#SVGID_00000026864016791313292490000011149386472360003721_);}
	.st323{fill:url(#SVGID_00000154392869007701474430000013911456464954977171_);}
	.st324{fill:url(#SVGID_00000019668074307839406140000014799614769277124516_);}
	.st325{fill-rule:evenodd;clip-rule:evenodd;fill:url(#SVGID_00000160152041018780672490000008439532651255944099_);}
	.st326{fill:url(#SVGID_00000163035378147475523660000005585291070724020879_);}
	.st327{fill:url(#SVGID_00000080914917776273271690000013897859889418241460_);}
	.st328{fill:url(#SVGID_00000183956526116367732010000016129567584829264574_);}
	.st329{fill:url(#SVGID_00000126287510897858368140000005249528893680588980_);}
	.st330{fill:url(#SVGID_00000182522602940193057890000008680049103083262107_);}
	.st331{fill:url(#SVGID_00000024701564633545770190000007387826656499972794_);}
	.st332{fill:url(#SVGID_00000047047547852661696080000002987536818850575272_);}
	.st333{fill:url(#SVGID_00000040560115656483616060000009457417381440677037_);}
	.st334{fill:url(#SVGID_00000178907672423510871560000007736070727037083066_);}
	.st335{fill:url(#SVGID_00000149365403331670177160000005923090237861367721_);}
	.st336{fill:url(#SVGID_00000128472022241437765900000000979230087020671363_);}
	.st337{fill:url(#SVGID_00000128471051941940208390000013480004781810281632_);}
	.st338{fill:url(#SVGID_00000065761348332484037260000010678988068877882018_);}
	.st339{fill:url(#SVGID_00000140729214440173298770000012867287845107584941_);}
	.st340{fill:url(#SVGID_00000124845149377398530650000014011535937485674383_);}
	.st341{fill:url(#SVGID_00000011716692245667938570000003380411839300047802_);}
	.st342{fill-rule:evenodd;clip-rule:evenodd;fill:url(#SVGID_00000119831252454424092800000013046563566383633537_);}
	.st343{fill:url(#SVGID_00000058572618789255967940000014845768140911783824_);}
	.st344{fill:url(#SVGID_00000166657843295734127920000015837194367135751823_);}
	.st345{fill:url(#SVGID_00000042727507314227118250000013247610457204428418_);}
	.st346{fill:url(#SVGID_00000154413930562867417000000018330773969873011898_);}
	.st347{fill:url(#SVGID_00000162339293341144232920000006003842683614293429_);}
	.st348{fill:url(#SVGID_00000021101048326598800760000010263414961532694166_);}
	.st349{fill:url(#SVGID_00000083084026517330832120000000156040088000843161_);}
	.st350{fill:url(#SVGID_00000015319540575064342540000003983421389200381312_);}
	.st351{fill:url(#SVGID_00000155844883342575211150000014042788360937799310_);}
	.st352{fill:url(#SVGID_00000114050323611904583570000012980622945054140819_);}
	.st353{fill:url(#SVGID_00000093884284120560884200000010887565856378905753_);}
	.st354{fill:url(#SVGID_00000140001084246148257630000007117467308829456529_);}
	.st355{fill:url(#SVGID_00000147197899451641149630000001476206112799261375_);}
	.st356{fill:url(#SVGID_00000129166757526037645430000005065361608088482176_);}
	.st357{fill:url(#SVGID_00000102527374872272503960000006736696434379885976_);}
	.st358{fill:url(#SVGID_00000157991664958944106300000004008975244910768549_);}
	.st359{fill:url(#SVGID_00000104685169077874407200000011771610698028503683_);}
	.st360{fill:url(#SVGID_00000165232632277891188020000001296612820941808572_);}
	.st361{fill:url(#SVGID_00000027590196980343173420000008652279690160574888_);}
	.st362{fill:url(#SVGID_00000128480640794103880180000014593665934523839644_);}
	.st363{fill:#C1282D;}
	.st364{fill-rule:evenodd;clip-rule:evenodd;fill:url(#SVGID_00000178913413641266158660000000140623488175327395_);}
	.st365{fill:url(#SVGID_00000052822073517217911180000011221172086688304539_);}
	.st366{fill:url(#SVGID_00000034049347589754134070000000218420367343663274_);}
	.st367{fill:url(#SVGID_00000080911779561673433260000015247624259956967342_);}
	.st368{fill:url(#SVGID_00000068676843967274852870000016664218818911827595_);}
	.st369{fill:url(#SVGID_00000114772744200791080810000004837364248425682851_);}
	.st370{fill:url(#SVGID_00000023969430283013542070000002640955544466206343_);}
	.st371{fill:url(#SVGID_00000028322154630487608880000014794474292945323159_);}
	.st372{fill:url(#SVGID_00000150066505002875977290000010213979110146423994_);}
	.st373{fill:url(#SVGID_00000083784052381575074720000017994709211036663976_);}
	.st374{fill:url(#SVGID_00000022554142819488051890000006742286031152260025_);}
	.st375{fill:url(#SVGID_00000050656810023530961400000016449049423411675804_);}
	.st376{fill:url(#SVGID_00000176756176796059662000000008087650124648263609_);}
	.st377{fill:url(#SVGID_00000052095732475273591130000000792767588778453435_);}
	.st378{fill:url(#SVGID_00000129915695666118407490000009656043543249208468_);}
	.st379{fill:url(#SVGID_00000158707447894603504450000005565794304457468573_);}
	.st380{fill:url(#SVGID_00000138572048454230878100000006197641304208705668_);}
	.st381{fill-rule:evenodd;clip-rule:evenodd;fill:url(#SVGID_00000146471939327658777700000008823436527438566037_);}
	.st382{fill:url(#SVGID_00000103251422466526933610000007383910139799037336_);}
	.st383{fill:url(#SVGID_00000158740217432338175760000011050164870053036940_);}
	.st384{fill:url(#SVGID_00000042698341398629276240000007263039234936969107_);}
	.st385{fill:url(#SVGID_00000059287367548990213720000000877537732441065125_);}
	.st386{fill:url(#SVGID_00000091713407186671628850000000327040492649794485_);}
	.st387{fill:url(#SVGID_00000147902276126742473930000017539961601656309634_);}
	.st388{fill:url(#SVGID_00000175291028435740961410000000500554816954355366_);}
	.st389{fill:url(#SVGID_00000146480490711848863260000018030778976392947628_);}
	.st390{fill:url(#SVGID_00000170278196670584105260000001125349988316715409_);}
	.st391{fill:url(#SVGID_00000044862995560541404840000013154047115209484731_);}
	.st392{fill:url(#SVGID_00000170263167179245620480000005480053060615271329_);}
	.st393{fill:url(#SVGID_00000003083684276343958430000017553362909800026269_);}
	.st394{fill:url(#SVGID_00000005952908708963474890000006070973762686231186_);}
	.st395{fill:url(#SVGID_00000165196968879162770060000016270516114022307219_);}
	.st396{fill:url(#SVGID_00000174572051697088264300000018402280585279871370_);}
	.st397{fill:url(#SVGID_00000140703678976730866620000012226369344526176165_);}
	.st398{fill:url(#SVGID_00000103254805534770117180000001495403659941748625_);}
	.st399{fill:url(#SVGID_00000062876070819793503590000007649621829140756927_);}
	.st400{fill:url(#SVGID_00000070108701883587126330000017420192770060117432_);}
	.st401{fill:url(#SVGID_00000037654161132015776630000001674493454039379390_);}
</style>
<g>
	<path class="st11" d="M221.85,952.15c-17.61,0-32.47-13.73-33.86-31.23l-60.02-756.44c-0.76-9.4,2.49-18.77,8.89-25.68
		c6.4-6.95,15.52-10.93,24.97-10.93h756.34c9.44,0,18.56,3.98,24.97,10.91c6.39,6.92,9.62,16.29,8.91,25.69l-60.04,756.44
		c-1.37,17.5-16.28,31.23-33.86,31.23H221.85z"/>
	<path class="st56" d="M918.16,122.76H161.83c-10.88,0-21.34,4.59-28.71,12.59c-7.35,7.96-11.09,18.74-10.23,29.54l60.02,756.44
		c1.6,20.15,18.69,35.93,38.94,35.93h636.29c20.26,0,37.36-15.77,38.95-35.93l60.02-756.44c0.87-10.8-2.89-21.57-10.22-29.54
		C939.51,127.35,929.03,122.76,918.16,122.76 M918.16,132.95c16.86,0,30.14,14.35,28.8,31.12l-60.01,756.44
		c-1.19,14.98-13.74,26.57-28.82,26.57H221.85c-15.07,0-27.61-11.58-28.81-26.57l-60.02-756.44c-1.32-16.77,11.95-31.12,28.8-31.12
		H918.16z"/>
	<path class="st57" d="M197.89,709.53h138.58V154.49H169.01c-8.19,0-14.63,6.98-13.99,15.13L197.89,709.53z"/>
	<path class="st57" d="M743.51,709.53h138.6l42.85-539.91c0.64-8.15-5.79-15.13-13.97-15.13H743.51V709.53z"/>
	<path class="st56" d="M443.34,500.68c0.26,10.43,6.3,37.99,41.3,64.13c14.59,10.89,21.28,15.81,23.21,17.14l-0.02,0.08
		c0.99,0.67-5.16,0.52-6.86,0.69c-2.73,0.25-12.06-0.59-19.54,0.79c-6.73,1.25-5.82,2.87-6.48,7.76c-0.54,3.86-0.04,9.98-0.24,15.2
		c-0.2,5.22-0.48,8.93,1.72,11.44c2.18,2.5,3.56,2.89,12.81,2.32c8.82-0.54,33.18-0.55,36.09-1.15c3.77-0.78,3.17,0.6,1,5.27
		c-3.73,7.98-15.86,44.59-34.7,79.38c-2.65,4.88,4.77,2.57,11.12,5.64c11.48,5.52,11.1,7.06,14.11,1.29
		c3.26-6.26,19.81-45.19,22.38-57.24c0.33-1.56,1-2.92,1.27-0.57c0.17,1.7,0.41,50.9-0.96,66.42c-0.07,0.82,0.14,1.69,0.7,2.27
		c0.82,0.85,2.08,1.2,3.13,1.45h0.03c5.72-1.9,12.62-3.31,18.47-2.33c0.53-0.06,1-0.18,1.48-0.32c0.31-0.27,0.6-0.58,0.81-0.95
		c0.46-0.83,0.68-1.76,0.9-2.67c0.02-0.07,0.03-0.15,0.05-0.21c0.27-1.31,0.51-2.63,0.64-3.96c0.09-0.79,0.17-1.59,0.2-2.37
		c0.07-1.02,0.11-2.06,0.14-3.08c0.06-1.23,0.07-2.47,0.11-3.71c0.02-1.42,0.03-2.86,0.03-4.28c0-1.6-0.03-3.19-0.04-4.79
		c-0.03-1.75-0.06-1.17-0.12-2.9c-0.04-1.86-0.11-3.73-0.2-5.6c-0.09-1.96-0.2-3.92-0.29-5.9c-0.12-2.04-0.25-4.09-0.4-6.12
		c-0.14-2.09-0.32-4.19-0.5-6.3c-0.19-2.12-0.4-4.27-0.61-6.39c-0.24-2.15-0.48-4.3-0.75-6.42c-0.27-2.14-0.55-4.27-0.88-6.39
		c-0.3-2.09-0.63-4.2-0.99-6.28c-0.36-2.04-0.75-2.92-1.17-4.94c-0.41-1.98-0.82-3.93-1.3-5.88c-0.45-1.85-0.94-3.73-1.46-5.55
		c-0.44-1.47-0.89-2.92-1.36-4.39c-0.08-0.24-0.48-2.23-0.44-2.48c0.15-0.72,1.07-0.19,2.07-0.39c0,0,0.46-0.09,0.72-0.14
		c6.26-0.83,17.15-0.28,19.63-0.18c2.42,0.07,14.8,1.26,18.3,1.57c3.46,0.34,7.7,1.15,7.49-9.38c-0.05-2.8-0.06-4.48-0.05-7.09
		v-1.06c0.02-0.66,0.02-1.32,0.02-1.95c0.02-0.39,0.02-0.73,0.03-1.11c0-0.36,0-0.72,0.02-1.06c0-0.31,0.01-0.64,0.01-0.95
		c0.03-0.55,0.03-1.11,0.06-1.6c0-0.16,0-0.3,0-0.46c0.02-0.37,0.03-0.72,0.04-1.03c0-0.18,0.02-0.33,0.03-0.5
		c0.02-0.3,0.03-0.54,0.05-0.74c0-0.07,0-0.18,0-0.24c0.03-0.33,0.04-0.66,0.06-1.03c0.07-2.56-0.25-7.28-5.12-8.53
		c-5.6-1.39-15.44-1.72-24.3-0.95c-1.24,0.12-1.5,0-1.12-0.35v-0.07c1.92-1.36,14.7-8.43,29.31-21.52
		c16.1-14.44,23.78-22.1,28.7-32.55c0,0,17.6-34.18,16.73-63.1c-0.19-5.84,0.75-5.35,4.39-5.24c1.09,0.03,5.27-0.27,7.5-1.74
		c7.45-1.72,14.07-27.22,14.07-27.22s11.22-38.73,13.95-54.56c2.42-14.1,1.84-22.32-6.75-26.5l-1.44-0.82
		c-0.66-0.36-0.97-1.12-0.78-1.82c0.15-0.6,0.34-1.32,0.43-1.84c4.19-14.59,11.71-33.07,10.01-40.55c-0.31-2.14-2.14-2.84-2.75-3.28
		c-0.89-0.6-4.22-4.31-5.15-6.91c-0.13-0.39-0.19-0.78-0.22-1.18c-2.35-27.56-12.17-62.12-41.31-92.24
		c-0.05-0.02-2.01-1.83-3.2-2.92c-2.51-2.25-5.7-5.04-9.37-7.79c-7.77-5.81-13.97-10.27-26.74-16.64
		c-0.99-0.49-10.56-4.85-24.76-8.32c-1.34-0.36-2.65-0.7-4-1.01c-2.1-0.5-5.34-1.09-9.05-1.6c-8.74-1.36-18.44-2.1-28.51-1.48
		c-1.21,0.07-2.62,0.13-2.99,0.15c-0.59,0.02-1.23,0.03-1.86,0.06c-0.67,0.03-1.35,0.03-2.05,0.06c-2.13,0.11-4.95,0.43-7.9,0.85
		c-4.77,0.69-9.89,1.65-13.05,2.38c-3.52,0.87-8.27,1.85-14.21,3.55c-2.44,0.72-4.91,1.48-7.35,2.27c-0.7,0.22-1.38,0.43-2.06,0.66
		c-2.63,0.85-5.28,1.77-7.96,2.74c-1.96,0.68-10.22,4.27-12.04,5.09c-0.85,0.4-2.03,0.9-3.3,1.42c-5.82,1.86-7.06,5.22-7.26,7.06
		c-0.16,1.2-0.42,2.38-0.91,3.46c-8.41,17.85-28.15,19.58-36,19.96c-2.03,0.09-3.84,0.41-3.22,2.4
		c1.67,5.12,10.91,14.68,16.58,16.41c-0.07,0.81-4.85,1.86-5.85,2.11c-2.28,0.6-11.64-0.22-12.1-0.13c-0.03,0-0.07,0-0.11,0.01
		c-10.61,0.91-13.87,8.12-14.83,11.54c-0.29,1.06-0.12,2.22,0.48,3.14c2.35,3.56,4.81,6.47,6.67,11.2c0.02,0.04,0.04,0.09,0.06,0.15
		c0.48,1.24,0.91,2.6,1.3,4.13c0.24,2.02,1.84,4.13-0.2,8.08c-3.62,7.02-12.66,9.22-14.02,16.17c-1.93,9.93,1.48,16.4,5.24,32.77
		c2.59,11.22,5.36,22.83,7.33,28.1c0.12,0.27-0.06,0.57-0.34,0.61c-0.79,0.15-2.15,0.43-2.63,0.6c-5.25,2.08-6.88,6.21-7.5,14.27
		c-1.32,17.85,11.87,45.37,15.95,68.97c1.39,7.95,5.06,20.71,11.14,25.92c1.39,1.21,4.36,1.98,6.18,2.29
		c4.76,0.83,6.84-2.18,7.11,2.6c0.06,1,0.39,3.7,0.44,5.2C434.28,483.87,443.34,500.68,443.34,500.68 M451.56,217.27
		c1.05-1.62,3.56-3.97,6.07-5.78c2.65-1.88,15.61-11.61,27.69-15.28c2.23-0.67,2.8-1.01,4.22-1.35c1.81-0.48,3.34-4.37-0.43-4.94
		c-3.94-0.57-5.54-0.32-7.65-0.24c-2.1,0.05-3.13-1.08-1.58-2.74c1.54-1.66,4.32-3.35,9.25-5.34c10.74-4.26,29.75-6.53,38.62-7.33
		c11.57-1,12.97-0.96,20.5-0.39c7.05,0.54,12.58,1.85,15.2,2.3c13.28,2.41,28.58,8.56,42.18,16.03c7.17,4.25,14.05,9,20.47,14.01
		c19.49,15.19,41.88,44.08,38.62,104.96c-0.39,7.18-1.24,11.16-1.7,12.9c-0.5,1.77-2.81,4.76-4.05,0.79
		c-4.04-13.02-9.2-35.97-20.99-54.11c-1.63-2.53-4.18-2.28-3.92,0.38c0.09,1.11,0.63,12.72,0.36,14.96
		c-1.93,14.95,2.67,9.13,9.4,25.17c2.1,4.97,4.79,14.78,5.46,21.1c0.18,1.59,0.39,3.44,0.43,5.19c0.03,2.24-1.08,2.39-1.08,2.39
		c-4.59-0.02-12.66-2.2-16.98-2.35c-4.94-0.15-39.22-0.5-52.09,0.51c-12.9,0.99-19.92,5.63-27.22,11.61
		c-1.21,0.99-2.95,1.92-3.92,2.39c-0.47,0.24-1.01,0.32-1.55,0.23c-0.6-0.11-1.56-0.29-3.08-0.6c-3.15-0.64-6.96-0.92-10.03,0.05
		c-3.07,0.91-4.5,1.7-7.84-0.23c-4.71-2.75-11.97-13.79-37.27-14c-14.34-0.11-33.16-0.3-44.23,0.18c-3.56,0.16-5.43,0.57-6.36,0.54
		c-0.07-0.42-0.09-1-0.09-1.11c-0.18-20.21,12.99-15.74,14.52-20.98c3.77-13.09,4.65-44.57,27.49-63.89
		c10.92-9.24,16.62-9.62,26.75-9.62c10.93,0,21.6,2.84,27.03,5.53c4.32,2.14,6.48,3.58,8.18,2.32c1.69-1.3,6.24-5.42,8.12-6.84
		c1.89-1.43,1.16-3.68-0.61-5.15c-1.71-1.39-17.93-21.79-42.78-25.9c-5.7-0.94-9.91-1.81-15.07-1.83c-2.8-0.11-5.28-0.12-11.77,0.67
		c-9.5,1.16-21.95,6.45-29.96,9.62C449.42,220.65,451.05,217.97,451.56,217.27z M647.36,348.55c-1.02,1.11-1.93,0.43-4.05,0.97
		c-1.65,0.41-2.76,1.33-4.27,1.2c-2.41-0.23-3.59-3.1-2.31-4.97c1.98-2.92,4.79-0.39,7.05,0.02c1.12,0.19,1.92-0.14,3.01,0.25
		C647.9,346.4,648.06,347.44,647.36,348.55z M613.31,358.71c0,0-4.53-3.08-5.99-5.6c-0.72-1.26-0.54-2.29,1.36-2.32
		c6.81-0.06,13.02-0.23,16.06,2.32c2.19,1.86,2.26,5.73,1.18,8.23c-1.26,2.85-3.74,2.05-5.16,1.84
		C619.35,362.97,613.31,358.71,613.31,358.71z M616.32,370.83c-1.3,0.64-6.15-0.99-7.48-1.74c-2.68-1.5-4.58-2.56-8.2-5.63
		c-2.38-2.04-6.75-2.98-10.86-2.78c-3.16,0.15-6.3,0.83-8.72,1.39c-2.38,0.58-2.58-1.59-1.86-2.41c0.72-0.81,4.07-3.89,11.4-5.81
		c1.06-0.28,3.11-0.18,4.16-0.07c3.05,0.33,6.72,2.36,9.35,4.93c2.62,2.57,7.93,7.1,10.82,8.86
		C616.29,368.39,619.35,369.27,616.32,370.83z M511.65,421.72c0.76,1.41,1,3.77,0.79,4.75c-0.24,1.2-4.41,2.75-7.92-2.46
		c-3.48-5.19-1.85-11.57,0.24-14.08c3.26-4.01,8.29-1.09,7.55,0.4C509.83,415.48,510.93,420.33,511.65,421.72z M463.31,363.75
		c0.82-0.68,1.21-0.68,4.01-2.23c1.99-1.11,4.28-2.47,6.58-3.97c4.18-2.71,12.06-5.52,15.41-5.47c2.43,0.03,6.65,1.08,8.91,3.53
		c2.36,2.56,3.01,5.55-0.06,5.03c-3.06-0.52-6.29-1.35-12.14,0c-6.52,1.5-10.99,4-14.14,5.42c-3.23,1.48-6.49,1.84-7.59,1.79
		C463.24,367.77,460.3,366.19,463.31,363.75z M459.02,357.9c-3.11,1.98-6.18,4.25-8.5,5.76c-2.81,1.87-6.81,0.09-5.64-3.89
		c0.57-1.93,3.31-6.87,7.92-7.76c0.6-0.12,2.87-0.55,4.79-0.77c2.24-0.24,4.62-0.45,5.81-0.5c3.28-0.15,3.64,2.48,1.42,3.83
		C463.33,355.47,461.07,356.58,459.02,357.9z M406.95,292.81c2.72-7.36,7.68-13.65,11.04-18.08c3.09-4.06,1.64-9.41,0.06-14.21
		c-1.03-4.43-3.86-9-4.3-10.21c-0.33-0.83-0.33-1.52-0.04-2.12c0.18-0.14,0.36-0.24,0.55-0.38l5.99-0.52
		c17.13-2.18,32.23-8.2,36.78-10.76c2.26-1.26,4.66-2.25,7.08-3.08c2.86-0.96,5.82-1.93,8.77-2.32c2.24-0.37,4.89-0.72,7.17-0.97
		c3.39-0.37,8.74,1.99,7.55,2.69c-2.87,1.72-16.19,4.8-27.88,18.76c-7.18,8.55-8.84,13.83-11.26,17.78
		c-2.44,3.95-4.4,4.89-7.84,7.86c-1.69,1.44-5.1,4.45-6.8,9.23c-1.69,4.83-8.23,21.68-9.08,48.46c-0.09,3.1-0.61,6.38-3.57,7.49
		l-0.03,0.02c-2.41,0.97-4.37,2.58-4.77,0.84c-1.56-5.88-5.16-18.56-6.66-26.57c-0.47-2.54-1.03-5.04-1.65-7.55
		C406.41,302.33,405.67,296.26,406.95,292.81z M421.33,419.5c-4.88-3.24-4.64-7.51-5.87-11.7c-2.63-8.91-5.46-19.6-7.93-28.72
		c-1.48-5.49-1.85-18.4,5.63-18.4c3.77,0,6.57,1.17,7.77,4.71c2.69,7.9-2.36,6.52-1.08,15.84c0.91,6.6,2.19,13.1,4.27,24.3
		c0.96,5.15,2.65,17.58-1.88,14.54 M440.09,350.56c-1.51,0.15-2.8-0.76-4.46-1.12c-1.92-0.43-3.11,0.16-3.89-0.9
		c-0.72-1.09-0.59-2.13,0.52-2.53c1.09-0.42,1.88-0.12,2.99-0.32c2.26-0.43,5.01-3.04,7.06-0.16
		C443.64,347.41,442.51,350.29,440.09,350.56z M443.63,404.9c-0.69-2.92,0.61-7.28,7.5-2.87c1.11,0.7,4.34,2.17,7.93,3.2
		c2.17,0.63,3.59-0.28,4.19-1.86c0.63-1.57,2.43-4.71-0.63-6.21c-3.05-1.53-10.61-2.83-14.9-13.43c-0.76-1.9,0.52-4.07,1.75-4.64
		c1.21-0.54,2.74-0.25,4.14,1.08c1.39,1.3,4.41,4.21,7.09,4.32c2.47,0.12,2.9-0.9,3.38-1.48c2.1-2.33,8.07-11.07,20.44-9.55
		c5.12,0.62,9.83,1.75,11.56,1.88c1.21,0.08,4.62,0.23,7.89-0.37c3.7-0.71,9.23-1.86,6.52,1.27c-2.2,2.54-4.05,3.61-2.09,6.37
		c0.09,0.14,0.18,0.27,0.27,0.41c1.75,2.46,1.8,5.7,0.01,8.13l-0.19,0.31c-2.74,3.56-8.41,7.66-20.1,8.4
		c-5.34,0.34-5.69,0.13-5.77,3.2c-0.05,1.17-0.05,1.79,0.12,2.6c0.33,1.54,1.32,2.18,5.01,2.41c2.68,0.16,7.6-0.36,7.62-0.38
		c1.19-0.36,2.62,0.42,1.84,1.42c-0.12,0.15-0.61,0.89-0.7,1c-2.65,3.43-3.47,6.57-3.73,8.44c-0.2,1.59-1.11,2.99-2.53,3.74
		c-0.02,0-0.03,0-0.06,0.01c-1.71,0.89-8.6,2.38-14.04,6.86c-5.4,4.49-16.71,8.2-21.58,2.68
		C449.69,426.36,445.72,414.06,443.63,404.9z M494.52,534.36c-9.68,0.28-35-14.99-46.06-58.38c-2.87-11.14,4.18-20.21,8.53-21.75
		c2.59-0.96,3.93-1.25,4.81-1.38c0.9-0.11,5.32-0.07,5.15,4.89c-0.15,4.04,3.2,37.69,11.99,49.86c2.17,3.03,4.19,3.13,5.19,0.46
		c0.91-2.47,2.45-5.67,2.95-6.9c0.34-0.87,3.55-5.74,4.49-2.03c2.01,7.87,6.74,24.09,8.73,28.28
		C503.57,534.36,498.16,534.25,494.52,534.36z M500.6,464.06c-12.63-0.16-18.48-4.88-19.38-6.28c-0.88-1.36,0.57-2.43,1.9-2.85
		c2.98-0.94,8.27-3.62,10.43-5.27c2.17-1.6,8.14-5.31,11.14-7.25c1.43-0.93,9.55-4.48,14.3-1.16c7.14,4.97,13.79,8.3,25.99,7.56
		c7.87-0.48,7.69-6.81,14.07-8.83c5.78-1.81,6.9-3.23,8.71-4.29c2.32-0.46,4.04-1.05,6.55,1.3c3.22,2.98,4.39,5.33,8.08,9.53
		c5.09,5.74,10.68,8.39,12.42,8.75c1.72,0.35,2.96,1.75,2.99,2.32c0.01,0.58-0.71,2.35-5.82,3.81c-17.09,4.9-35.6,1.77-45.12-2.04
		c-4.85-1.94-9.54-2.47-14.84,0.14C526.66,462.14,512.41,464.2,500.6,464.06z M564.49,474.61c-2.9,1.06-11.31,3.02-15.4,3.26
		c-4.12,0.24-17.14,1.12-19.3,1.01c-2.71-0.14-6.33-1.46-9.27-4.16c-0.6-0.55-1.23-2.42,1.17-2.46c4.49-0.08,12.01-2.47,37.99-0.26
		c2.77,0.21,4.1,0.35,4.75,0.41C565.1,472.49,567.4,473.58,564.49,474.61z M675.54,374.13c-3.42,18.2-7.24,27.34-9.71,38.56
		c-2.54,11.67-7.57,28.74-12.42,29.19c-4.92,1.47-6.91-4.22-10.07,0c-1.87,2.52-3.34,5.82-4.99,7.95c-1.08,1.4-2.13,4.53-2.14,6.22
		c0,3.28-0.2,13.88-3.12,27.8c-4.45,20.99-12.5,36.3-20.85,45.96c-16.04,18.49-31.07,21.46-32.85,22.42
		c-2.3,1.21-5.76,0.5-6.91-0.06c-1.16-0.53-2.04-1.9-4.03-3.85c-2.03-1.91-2.76,0.99-2.83,1.74c-0.07,0.69,1.03,9.46-1.19,13.41
		c-4.79,8.52-9.43,9.25-11.99,19.84c-0.87,3.59-0.29,8.99-4.55,6.55c-10.44-5.97-25.42-22.14-28.52-37.83
		c-0.94-4.77-0.06-10.08,2.83-19.17c1.7-5.33,2.89-11.25,2.89-14.66c0-6.06-2.38-11.21,0-11.73c4.39-0.99,6.39,10.38,8.43,9.22
		c3.55-2.06,0.91-14.05,0.91-14.05s-1.45-3.41-7.68-4.88c-3.58-0.84-4.68-3.52-0.88-5.39c2.84-1.39,6.17-3.22,10.01-2.65
		c25.77,3.65,33.2-1.54,43.62-4.34c2.04-0.54,3.26-0.78,4.86-0.03c1.59,0.75,5.85,3.08,6.74,5.28c0.88,2.18-0.05,10.74,1.33,17.16
		c1.39,6.47,5.94,0.6,7.06-1.96c1.15-2.53,2.32-8.79,2.56-10.36c0.25-1.6,1.57-8.25,3.95-10.24c4.73-3.91,6.39-9.07,7.17-11.08
		c0.77-2.02,1.99-8.25,1.78-17.33c-0.22-9.05-1.87-10.04-4.05-12c-2.17-1.95-4.77-1.56-10.29-6.61
		c-4.93-4.52-8.98-11.82-12.54-16.42c-3.56-4.58-9.49-9.52-16.25-11.16c-6.74-1.63-3.94,4.59-3.57,6.33
		c0.27,1.22,1.87,6.75-0.38,8.56c-2.22,1.83-15.82,10.97-27.98,7.8c-14.49-3.79-19.48-11.83-19.8-19.63
		c-0.2-5.51,2.47-10.83,5.74-17.16c1.93-3.7,2.71-9.86,3.5-15.79c0.6-4.75,1.87-11.6,2.9-14.04c0.75-1.75,2.5-3.66,6.42-3.44
		c3.88,0.23,6.43,2.16,7.14,5.51c2.53,11.66,6.64,14.59,8.02,15.55c1.4,0.92,4.04-0.96,5.04-1.63c1.05-0.68,3.68-3.34,2.86-4.78
		c-1.27-2.21-1.96-3.53-2.23-4.83c-0.48-2.23,2.29-1.97,2.86-1.52c4.53,3.58,8.81,3.89,16.65,5.21c13.72,2.27,15.68-2.78,25.14-1.15
		c1.21,0.22,3.55,1.24,4.29,2.66c0.63,1.2,1.75,4,2.92,4.48c1.14,0.45,3.94,0.63,5.39,0.87c1.97,0.34,5.56,0.12,4.97,3.82
		c-1.54,9.88-12.96,12.6-18.27,13.52c-2.22,0.38-3.22,0.55-3.56,0.87c-1.15,1-1.2,4.1,0.13,6.1c0.93,1.41,5.24,1.5,11.13,0.36
		c6.17-1.18,12.08-4.16,16.74-11.43c4.93-7.69,7.65-24.66,8.23-27.83c0.57-3.16,1.83-8.45,3.56-9.55c1.74-1.08,9.77-3.52,10.9-3.32
		c1.35,0.24,2.33,0.88,2.98,3.99c0.61,3.13-0.55,21.82-0.57,24.65c-0.03,3.01,1.5,2.98,2.35,2.58c1.88-0.86,6.87-4.19,8.01-8.04
		c0.83-2.85-1.57-7.01-0.35-10.96c1.87-6.16,3.73-7.81,5.01-7.68c7.83,0.73,9.44,4.18,7.56,14.13"/>
	<path class="st56" d="M784.68,755.92c-10.45-2.89-23.71-5.52-40.26-5.52c-86.51,0.02-108.44,48.84-111.99,82
		c-3.98,37.24,21.77,73.77,85.28,73.75c26.73,0,44.17-4.66,50.41-6.65c1.54-0.49,2.7-1.78,3.01-3.39l3.55-18.79
		c0.57-2.83-2.11-5.19-4.85-4.34c-6.92,2.19-19.25,5.17-34.79,5.19c-30.36,0-52.27-18.22-49.48-49.57
		c2.68-30.36,23.18-53.48,51.34-53.5c16.96,0,24.44,8.86,23.89,20.73c0,0.02,0,0.21-0.03,0.66c-0.12,2.19,1.61,4.01,3.77,4.01h11.51
		c1.77,0,3.32-1.25,3.71-2.98l8.07-36.38C788.33,758.85,786.95,756.54,784.68,755.92"/>
	<path class="st56" d="M426.78,755.99l-2.09,9.48c-0.46,2.12,0.78,4.27,2.84,4.88h0.03c3.65,1.42,4.44,4.92,1.26,7.56l-53.11,44.14
		c-0.02,0.02-0.03,0-0.03,0l9.13-41.61c1.56-6.39,6.61-8.99,9.83-10.06c0.18-0.04,0.34-0.1,0.52-0.15c1.4-0.43,2.48-1.6,2.8-3.04
		l2.19-9.85c0.51-2.35-1.27-4.58-3.67-4.58h-68.49c-1.94,0-3.62,1.34-4.02,3.24l-2.23,9.98c-0.45,2.02,0.7,4.09,2.68,4.74
		c0.39,0.14,0.63,0.23,0.67,0.26c4.3,1.66,9.28,5.47,7.17,15.42l-16.33,74.76c-4.28,20.42-11.19,24.58-17.79,25.35
		c-0.07,0.02-0.14,0.03-0.21,0.03c-1.76,0.19-3.22,1.49-3.61,3.23l-2.11,9.58c-0.55,2.45,1.34,4.8,3.86,4.8h72
		c1.77,0,3.31-1.21,3.68-2.94l2.49-11.21c0.41-1.83-0.59-3.68-2.32-4.35c-0.15-0.06-0.3-0.13-0.46-0.19
		c-3.65-1.47-8.62-4.61-7.36-10.56l8.37-38.23c0.02-0.02,0.03-0.03,0.04-0.02c28.66,52.41,38.16,67.49,72.57,67.49h31.07
		c1.76,0,3.28-1.2,3.66-2.92l2.19-9.71c0.55-2.5-1.28-4.88-3.84-4.94c-7.77-0.12-11.58-1.92-19.32-11.85l-39.91-54.02v-0.02
		l51.86-43.12c6.96-5.45,15.43-6.96,20.14-7.6c0,0,0.18-0.02,0.46-0.05c1.66-0.18,3.01-1.33,3.37-2.94l2.13-9.59
		c0.52-2.38-1.29-4.64-3.71-4.64h-62.39C428.86,752.76,427.2,754.1,426.78,755.99"/>
	<path class="st56" d="M618.64,797.51h12.14c1.77,0,3.31-1.22,3.68-2.94l8.25-37.18c0.53-2.36-1.27-4.61-3.7-4.61H511.44
		c-1.93,0-3.61,1.34-4.03,3.24l-2.21,9.97c-0.42,1.93,0.66,3.91,2.54,4.56c0.13,0.05,0.27,0.11,0.42,0.15
		c4.19,1.61,10.04,5.67,7.5,15.67L490.67,899.6c-0.52,2.36,1.27,4.58,3.67,4.58h57.39c1.75,0,3.29-1.24,3.68-2.96l2.5-11.3
		c0.38-1.66-0.47-3.35-2.03-4.07c-0.2-0.07-0.37-0.16-0.55-0.24c-3.65-1.78-9.07-5.88-7.26-13.83c0.21-1.06,5.61-25.62,5.61-25.62
		h48.81c1.76,0,3.29-1.25,3.7-2.98l4.58-20.68c0.53-2.36-1.28-4.61-3.68-4.61h-47.14l8.8-40.1l32.92-0.03
		c10.63,0,13.87,5.54,13.26,15.01c0,0-0.01,0.13-0.06,0.52C614.6,795.54,616.37,797.51,618.64,797.51"/>
</g>
</svg>
