<?xml version="1.0" encoding="utf-8"?>
<!-- Generator: Adobe Illustrator 26.5.0, SVG Export Plug-In . SVG Version: 6.00 Build 0)  -->
<svg version="1.1" id="Layer_1" xmlns="http://www.w3.org/2000/svg" xmlns:xlink="http://www.w3.org/1999/xlink" x="0px" y="0px"
	 viewBox="0 0 1080 1080" style="enable-background:new 0 0 1080 1080;" xml:space="preserve">
<style type="text/css">
	.st0{fill-rule:evenodd;clip-rule:evenodd;}
	.st1{fill:#ED1C24;}
	.st2{fill:#E1251B;}
	.st3{fill-rule:evenodd;clip-rule:evenodd;fill:#16397B;}
	.st4{fill:#EE2745;}
	
		.st5{clip-path:url(#SVGID_00000033360084835677517260000002720891697667164323_);fill:url(#SVGID_00000096764263516281170190000013416649694079086505_);}
	
		.st6{clip-path:url(#SVGID_00000057122226510054761550000016403854780086465155_);fill:url(#SVGID_00000003804124851719503090000011054095966435874720_);}
	
		.st7{clip-path:url(#SVGID_00000009582605024725776490000014701018984422429327_);fill:url(#SVGID_00000105406137372435488140000002813927872215192230_);}
	
		.st8{clip-path:url(#SVGID_00000093897616574774452270000010570450894929837704_);fill:url(#SVGID_00000178195616349535380620000003240165245023792295_);}
	.st9{fill:#424243;}
	
		.st10{clip-path:url(#SVGID_00000014606655305247036560000012980557940458568380_);fill:url(#SVGID_00000174589009434511744710000001912408616177662137_);}
	.st11{fill:#FFFFFF;}
	
		.st12{clip-path:url(#SVGID_00000124125311271407450220000013282912105705861783_);fill:url(#SVGID_00000091697529645880040320000008120485496300200324_);}
	
		.st13{clip-path:url(#SVGID_00000046310157209479127490000005241276144781202611_);fill:url(#SVGID_00000043449958991989162650000006890184456156510892_);}
	
		.st14{clip-path:url(#SVGID_00000059304857386867765220000009900497753399666619_);fill:url(#SVGID_00000155109141220163279620000013874108364698039175_);}
	
		.st15{clip-path:url(#SVGID_00000007414499284081610230000018084471063965588620_);fill:url(#SVGID_00000119082897375032987390000011349854206840356531_);}
	
		.st16{clip-path:url(#SVGID_00000128477161451326352810000005267956916878601394_);fill:url(#SVGID_00000106832782360603665200000008748827281656545451_);}
	
		.st17{clip-path:url(#SVGID_00000163753286188230530930000006585064518514201017_);fill:url(#SVGID_00000084492472596486303360000013071901405551541140_);}
	
		.st18{clip-path:url(#SVGID_00000013901400188336841370000006349950470499893399_);fill:url(#SVGID_00000147216936019553038550000006555301123283009214_);}
	.st19{fill-rule:evenodd;clip-rule:evenodd;fill:#C8202F;}
	.st20{fill-rule:evenodd;clip-rule:evenodd;fill:#FFFFFF;}
	.st21{fill-rule:evenodd;clip-rule:evenodd;fill:#F98238;}
	.st22{filter:url(#Adobe_OpacityMaskFilter);}
	.st23{fill:url(#SVGID_00000074410350126387713400000017368601908724909492_);}
	.st24{mask:url(#SVGID_00000111157500863330047570000013999777648405139865_);fill-rule:evenodd;clip-rule:evenodd;fill:#ED1C24;}
	.st25{fill-rule:evenodd;clip-rule:evenodd;fill:#F5333F;}
	.st26{fill-rule:evenodd;clip-rule:evenodd;fill:#ED1C24;}
	.st27{fill-rule:evenodd;clip-rule:evenodd;fill:#F9A46E;}
	.st28{fill-rule:evenodd;clip-rule:evenodd;fill:#F47B26;}
	.st29{fill-rule:evenodd;clip-rule:evenodd;fill:#EB5433;}
	.st30{fill:#1A3282;}
	.st31{fill-rule:evenodd;clip-rule:evenodd;fill:#1A3282;}
	.st32{fill-rule:evenodd;clip-rule:evenodd;fill:#9D9FA2;}
	.st33{fill-rule:evenodd;clip-rule:evenodd;fill:#000303;}
	.st34{fill:#64003D;}
	.st35{fill:#536270;}
	.st36{fill-rule:evenodd;clip-rule:evenodd;fill:#64003D;}
	.st37{fill-rule:evenodd;clip-rule:evenodd;fill:#536270;}
	.st38{fill-rule:evenodd;clip-rule:evenodd;fill:#1A3382;}
	.st39{fill-rule:evenodd;clip-rule:evenodd;fill:#29387E;}
	.st40{fill-rule:evenodd;clip-rule:evenodd;fill:#F37021;}
	.st41{fill-rule:evenodd;clip-rule:evenodd;fill:#005C32;}
	.st42{fill-rule:evenodd;clip-rule:evenodd;fill:#D2AB67;}
	
		.st43{clip-path:url(#SVGID_00000084506154513436624100000017108080173348999810_);fill:url(#SVGID_00000070813523272467325340000016914689936631755937_);}
	
		.st44{clip-path:url(#SVGID_00000000942889437946230810000015989094985262342581_);fill:url(#SVGID_00000155835137087330603050000004600403385048132238_);}
	
		.st45{clip-path:url(#SVGID_00000073711703773034412310000010247451633512773266_);fill:url(#SVGID_00000115498597889052752970000004895610020913277078_);}
	.st46{fill-rule:evenodd;clip-rule:evenodd;fill:#00AEEF;}
	.st47{fill-rule:evenodd;clip-rule:evenodd;fill:#EC008C;}
	.st48{fill-rule:evenodd;clip-rule:evenodd;fill:#FFF200;}
	.st49{fill:#A7AAAC;}
	.st50{fill-rule:evenodd;clip-rule:evenodd;fill:#5C5B5B;}
	.st51{fill:#9D9D9F;}
	.st52{fill:#F04D23;}
	.st53{fill-rule:evenodd;clip-rule:evenodd;fill:#2E3192;}
	.st54{fill-rule:evenodd;clip-rule:evenodd;fill:#C4312D;}
	.st55{fill:#552715;}
	.st56{fill:#010101;}
	.st57{fill:#E31E2E;}
	.st58{fill:url(#SVGID_00000003074265125175537110000014848540102784596641_);}
	.st59{fill:url(#SVGID_00000071551032396674541940000014939017303178577291_);}
	.st60{clip-path:url(#SVGID_00000075874776412064736290000004432770697944329369_);}
	.st61{clip-path:url(#SVGID_00000045587211478992183620000009424161903862668703_);}
	.st62{clip-path:url(#SVGID_00000158730679590093698970000007978580693532445866_);}
	.st63{clip-path:url(#SVGID_00000033331007481511409570000009734717761755301007_);}
	.st64{clip-path:url(#SVGID_00000030446748732808890810000013026640271965318286_);}
	.st65{clip-path:url(#SVGID_00000111891103313695982770000012525570754283303329_);}
	.st66{clip-path:url(#SVGID_00000103261739250291785290000008285510384800252074_);}
	.st67{clip-path:url(#SVGID_00000096020193250694747870000006457998425464737170_);}
	.st68{clip-path:url(#SVGID_00000090253195442562463030000002191805839885129369_);}
	.st69{clip-path:url(#SVGID_00000134952729842630228890000002438721524044116890_);}
	.st70{clip-path:url(#SVGID_00000140736192250143758280000005225459561257894842_);}
	.st71{fill:#2650A1;}
	.st72{fill:url(#SVGID_00000137089974563541285150000016435698005972601738_);}
	.st73{fill:#FEFEFE;}
	.st74{fill:#FDFDFD;}
	.st75{fill:#FCFCFC;}
	.st76{fill:#FBFBFB;}
	.st77{fill:#FAFAFA;}
	.st78{fill:#F9F9F9;}
	.st79{fill:#F8F8F8;}
	.st80{fill:#F7F7F7;}
	.st81{fill:#F6F6F6;}
	.st82{fill:#F5F5F5;}
	.st83{fill:#F4F4F4;}
	.st84{fill:#F3F3F3;}
	.st85{fill:#F2F2F2;}
	.st86{fill:#F1F1F1;}
	.st87{fill:#F0F0F0;}
	.st88{fill:#EFEFEF;}
	.st89{fill:#EEEEEE;}
	.st90{fill:#EDEDED;}
	.st91{fill:#ECECEC;}
	.st92{fill:#EBEBEB;}
	.st93{fill:#EAEAEA;}
	.st94{fill:#E9E9E9;}
	.st95{fill:#E8E8E8;}
	.st96{fill:#E7E7E7;}
	.st97{fill:#E6E6E6;}
	.st98{fill:#E5E5E5;}
	.st99{fill:#E4E4E4;}
	.st100{fill:#E3E3E3;}
	.st101{fill:#E2E2E2;}
	.st102{fill:#E1E1E1;}
	.st103{fill:#E0E0E0;}
	.st104{fill:#DFDFDF;}
	.st105{fill:#DEDEDE;}
	.st106{fill:#DDDDDD;}
	.st107{fill:#DCDCDC;}
	.st108{fill:#DBDBDB;}
	.st109{fill:#DADADA;}
	.st110{fill:#D9D9D9;}
	.st111{fill:#D92231;}
	.st112{fill:url(#SVGID_00000076585438226434037720000009786900747351371682_);}
	.st113{fill:url(#SVGID_00000049192568791640846630000003194302791886747830_);}
	.st114{opacity:0.8;}
	.st115{fill:url(#SVGID_00000068663767676585271480000002672491669584640139_);}
	.st116{fill:url(#SVGID_00000099620925967417397110000010997454727191536306_);}
	.st117{fill-rule:evenodd;clip-rule:evenodd;fill:#010101;}
	.st118{fill:#80A845;}
	.st119{fill-rule:evenodd;clip-rule:evenodd;fill:#80A845;}
	.st120{fill:url(#SVGID_00000101084379141012482160000017273183398307559318_);}
	.st121{fill-rule:evenodd;clip-rule:evenodd;fill:#04984A;}
	.st122{fill-rule:evenodd;clip-rule:evenodd;fill:url(#SVGID_00000127045436247070361650000015188681889064238509_);}
	.st123{fill:url(#SVGID_00000007391254288538033810000008079493403852964788_);}
	.st124{fill:url(#SVGID_00000101093953115515567440000014225256630247954845_);}
	.st125{fill:url(#SVGID_00000072275196452192893490000015310361670168414899_);}
	.st126{fill:url(#SVGID_00000037669999570572140200000014902504538790910648_);}
	.st127{fill:url(#SVGID_00000120540196992402712350000008977545493231481272_);}
	.st128{fill:url(#SVGID_00000132051811200742748070000007330439513553420683_);}
	.st129{fill:url(#SVGID_00000117666939184998101170000010102607168321809797_);}
	.st130{fill:url(#SVGID_00000115513150747298770790000013723570565161838980_);}
	.st131{fill:url(#SVGID_00000182519354982113145790000012475667034867589039_);}
	.st132{fill:url(#SVGID_00000175290174484669298590000002729195671226363014_);}
	.st133{fill:url(#SVGID_00000097489444143887661120000006265659143941350309_);}
	.st134{fill:url(#SVGID_00000101822429407558206870000006566139966460193945_);}
	.st135{fill:url(#SVGID_00000065063237085712019190000015604009376975786656_);}
	.st136{fill:url(#SVGID_00000176040639922729773300000011032817069056136625_);}
	.st137{fill-rule:evenodd;clip-rule:evenodd;fill:url(#SVGID_00000073705600978170937690000003023282199776338598_);}
	.st138{fill:#0A529D;}
	.st139{fill:url(#SVGID_00000110463036869326016720000009779831526315706254_);}
	.st140{fill:url(#SVGID_00000177472553792989229300000005320018693998986392_);}
	.st141{fill:url(#SVGID_00000036952071037171501930000013564298571124310922_);}
	.st142{fill:url(#SVGID_00000117671827192065507770000016673533096028866454_);}
	.st143{fill:url(#SVGID_00000093148817116652738920000016332189421550238614_);}
	.st144{fill:url(#SVGID_00000085239524027290469720000005857250014148698515_);}
	.st145{fill:url(#SVGID_00000084492302923869569820000007083936063587110805_);}
	.st146{fill:url(#SVGID_00000083806989303114456060000002436955192432485794_);}
	.st147{fill:url(#SVGID_00000174591688712563905620000007432254484264082560_);}
	.st148{fill:url(#SVGID_00000145032665398811350540000015977773376863861936_);}
	.st149{fill:url(#SVGID_00000149375950466842337580000009371901825072494773_);}
	.st150{fill:url(#SVGID_00000145739970206534925830000008416373148329759131_);}
	.st151{fill-rule:evenodd;clip-rule:evenodd;fill:url(#SVGID_00000001636642480360339830000012736225155712960688_);}
	.st152{fill:url(#SVGID_00000150785589298956648050000010252668448546799246_);}
	.st153{fill:url(#SVGID_00000109000833519201297380000001901970952704917173_);}
	.st154{fill:url(#SVGID_00000034806520195198537310000003491121558609365385_);}
	.st155{fill:url(#SVGID_00000085946552408903217960000014482634073854403495_);}
	.st156{fill:url(#SVGID_00000121265860843729198740000011778256738623760257_);}
	.st157{fill:url(#SVGID_00000043435121214798056780000011013647401387469723_);}
	.st158{fill:url(#SVGID_00000063594353115669983140000011399962840370919073_);}
	.st159{fill:url(#SVGID_00000005951582957903070810000013033617697792265148_);}
	.st160{fill:url(#SVGID_00000005246590960534877230000000661725220286117541_);}
	.st161{fill:url(#SVGID_00000170269061422191921880000004529427513368785300_);}
	.st162{fill:url(#SVGID_00000084522597343990129580000004462372792765573275_);}
	.st163{fill:url(#SVGID_00000075138541145581942410000005760374795907467423_);}
	.st164{fill:url(#SVGID_00000069375731512286230830000014867612808588501132_);}
	.st165{fill:url(#SVGID_00000028291285662035560050000009211712859034260106_);}
	.st166{fill:url(#SVGID_00000155125759519309118840000014301889624343243696_);}
	.st167{fill:url(#SVGID_00000003816495903272652990000017469085116010528175_);}
	.st168{fill:url(#SVGID_00000054239306095575879180000000214119942038160014_);}
	.st169{fill-rule:evenodd;clip-rule:evenodd;fill:url(#SVGID_00000137110690066227017540000000202123239579923630_);}
	.st170{fill:url(#SVGID_00000147921766215700325630000004844490741726782350_);}
	.st171{fill:url(#SVGID_00000087381819460073604160000010466987844810623388_);}
	.st172{fill:url(#SVGID_00000156567191784314737530000008134504970890429614_);}
	.st173{fill:url(#SVGID_00000120531618389954225090000002723588365037211778_);}
	.st174{fill:url(#SVGID_00000169549694292200429210000000318431709680005546_);}
	.st175{fill:url(#SVGID_00000126302341657797493020000007942418518823131297_);}
	.st176{fill:url(#SVGID_00000097486019051328617750000013156614410510924454_);}
	.st177{fill:url(#SVGID_00000085252692194633332990000017990959902365382306_);}
	.st178{fill:url(#SVGID_00000010271976786282032580000001675143040605593757_);}
	.st179{fill:url(#SVGID_00000178924237899544873500000004899784175177249460_);}
	.st180{fill:url(#SVGID_00000068672308960533897310000015514048092355836085_);}
	.st181{fill:url(#SVGID_00000041272925456157915940000005615100959112555157_);}
	.st182{fill:url(#SVGID_00000019663662938107743710000002024092337730583964_);}
	.st183{fill:url(#SVGID_00000158714379709727454550000000035556539800070581_);}
	.st184{fill-rule:evenodd;clip-rule:evenodd;fill:url(#SVGID_00000126314810155571983730000006804609676320563900_);}
	.st185{fill:url(#SVGID_00000000911340030634464940000015393879783192696238_);}
	.st186{fill:url(#SVGID_00000042697759384151430400000011058652132460179109_);}
	.st187{fill:url(#SVGID_00000026879188181528255450000009565966172395395504_);}
	.st188{fill:url(#SVGID_00000043418272244578401620000008152063609584909470_);}
	.st189{fill:url(#SVGID_00000155128330000741168930000017145435630401767310_);}
	.st190{fill:url(#SVGID_00000103959585692198933060000005781687674368599206_);}
	.st191{fill:url(#SVGID_00000026871502762595034810000014829655719359991681_);}
	.st192{fill:url(#SVGID_00000070834067678249163100000007788867567435893923_);}
	.st193{fill:url(#SVGID_00000178889852897672873590000016201047428541457563_);}
	.st194{fill:url(#SVGID_00000087405525233726429590000009905567198118160804_);}
	.st195{fill:url(#SVGID_00000040556591277342374310000008759460312007630526_);}
	.st196{fill:url(#SVGID_00000158713376339955374640000007989625444421139642_);}
	.st197{fill:url(#SVGID_00000106840956948384021790000016008179203358187944_);}
	.st198{fill:url(#SVGID_00000137115746438080914860000006031876522012005043_);}
	.st199{fill:url(#SVGID_00000077305418214471233790000016565389981513078179_);}
	.st200{fill:url(#SVGID_00000034806567272595091520000005925630936042622627_);}
	.st201{fill:url(#SVGID_00000029763451770557866680000004030913309503371919_);}
	.st202{fill:url(#SVGID_00000049209593733881918980000011371891677163770545_);}
	.st203{fill:url(#SVGID_00000070815105771916797390000012559947889580381857_);}
	.st204{fill-rule:evenodd;clip-rule:evenodd;fill:url(#SVGID_00000062155847838894136520000004931118371774019978_);}
	.st205{fill:url(#SVGID_00000170964369531999723480000004396378695225775774_);}
	.st206{fill:url(#SVGID_00000116932357022163426870000018382367396271051675_);}
	.st207{fill:url(#SVGID_00000106828288703364737250000002043392084242650546_);}
	.st208{fill:url(#SVGID_00000130605211210717748850000013321510673610193584_);}
	.st209{fill:url(#SVGID_00000072986744832102713740000013048842863546427053_);}
	.st210{fill:url(#SVGID_00000119097770949438127910000018213282150496118967_);}
	.st211{fill:url(#SVGID_00000040562522346687268350000013977595061494404004_);}
	.st212{fill:url(#SVGID_00000139976021827224708430000006805845410808388001_);}
	.st213{fill:url(#SVGID_00000182495405129293477100000014365862290333068179_);}
	.st214{fill:url(#SVGID_00000033357869771184846100000013486589001923781026_);}
	.st215{fill:url(#SVGID_00000122682803120005348800000002733431931400477119_);}
	.st216{fill:url(#SVGID_00000123420131361971461850000008381732450037106087_);}
	.st217{fill:url(#SVGID_00000149373101011241582460000012491569468714554764_);}
	.st218{fill:url(#SVGID_00000023975768025173487790000018123292534008875164_);}
	.st219{fill:url(#SVGID_00000098930377200980287480000014416811658561019270_);}
	.st220{fill:url(#SVGID_00000173854927202670462860000007313635628861607346_);}
	.st221{fill-rule:evenodd;clip-rule:evenodd;fill:url(#SVGID_00000016033511653165513720000000155451691477437848_);}
	.st222{fill:url(#SVGID_00000085218363068304286010000016130408532082888868_);}
	.st223{fill:url(#SVGID_00000161607519629295239450000009819190116837056153_);}
	.st224{fill:url(#SVGID_00000179621839439804975470000016219794961692137344_);}
	.st225{fill:url(#SVGID_00000018216712368994031280000008864928398983348912_);}
	.st226{fill:url(#SVGID_00000114033887311349302720000006784595996136052632_);}
	.st227{fill:url(#SVGID_00000034803521270471371040000001945082625769070505_);}
	.st228{fill:url(#SVGID_00000114070560555952902820000013957499090674760639_);}
	.st229{fill:url(#SVGID_00000016759213729931585960000003516963702062914202_);}
	.st230{fill:url(#SVGID_00000063606913316227781090000007155111680438593930_);}
	.st231{fill:url(#SVGID_00000096031756762746011250000012523134549698879915_);}
	.st232{fill:url(#SVGID_00000065796314896262348950000002719492431588732826_);}
	.st233{fill:url(#SVGID_00000105423615385141948450000016450610546384762002_);}
	.st234{fill:url(#SVGID_00000000198635660657024810000009904465608134754736_);}
	.st235{fill:url(#SVGID_00000034075902450691024710000016262765339689474960_);}
	.st236{fill:url(#SVGID_00000147189559760516290590000007260876924612887171_);}
	.st237{fill-rule:evenodd;clip-rule:evenodd;fill:url(#SVGID_00000144321596649913608310000009737895529376604819_);}
	.st238{fill:url(#SVGID_00000142153302307764905360000004632632868237921194_);}
	.st239{fill:url(#SVGID_00000145043308117673024870000006251276987154729612_);}
	.st240{fill:url(#SVGID_00000148649023564311705210000016563897483133746367_);}
	.st241{fill:url(#SVGID_00000046327667607091069640000014051619491665143967_);}
	.st242{fill:url(#SVGID_00000034074272810231548450000007235279321248406188_);}
	.st243{fill:url(#SVGID_00000002368955199868928720000004423337528523152284_);}
	.st244{fill:url(#SVGID_00000120535334042287787670000005509151934202224780_);}
	.st245{fill:url(#SVGID_00000001651708435988174070000001063905546471706754_);}
	.st246{fill:url(#SVGID_00000125605134541020909420000011731431143696766893_);}
	.st247{fill:url(#SVGID_00000053546644311001798300000008135936903161041580_);}
	.st248{fill:url(#SVGID_00000173143141037121615450000002816210269559314050_);}
	.st249{fill:url(#SVGID_00000013165275335632007730000007750888066544460699_);}
	.st250{fill:url(#SVGID_00000121273169780384066930000013145947308180646559_);}
	.st251{fill:url(#SVGID_00000069386411754906618620000011884653902429101480_);}
	.st252{fill:url(#SVGID_00000105400714593285496310000012069629535418989746_);}
	.st253{fill-rule:evenodd;clip-rule:evenodd;fill:url(#SVGID_00000008136097244472600450000007287095176320917676_);}
	.st254{fill:url(#SVGID_00000173877534997075903560000017084979441668448447_);}
	.st255{fill:url(#SVGID_00000163064769799564464830000007789158553625030534_);}
	.st256{fill:url(#SVGID_00000037652111456533650350000008867391633304735878_);}
	.st257{fill:url(#SVGID_00000124136713418567943730000009116870882607116211_);}
	.st258{fill:url(#SVGID_00000025432312922816714810000008821750819954880933_);}
	.st259{fill:url(#SVGID_00000013177591647485187850000000797233752030870667_);}
	.st260{fill:url(#SVGID_00000069387275005900415520000003937701538199232389_);}
	.st261{fill:url(#SVGID_00000166634914355757389760000002915749407215713195_);}
	.st262{fill:url(#SVGID_00000083799643059767681340000001687686727471517361_);}
	.st263{fill:url(#SVGID_00000054233686410685179210000017509373101759023034_);}
	.st264{fill:url(#SVGID_00000150077257729249912370000000325915629763958420_);}
	.st265{fill:url(#SVGID_00000102510319380444608930000000849589894107938950_);}
	.st266{fill:url(#SVGID_00000114062171216306155100000003331154896988398505_);}
	.st267{fill:url(#SVGID_00000016757869607380135490000017057287885965130638_);}
	.st268{fill:url(#SVGID_00000132057437082226612300000013421035754026430371_);}
	.st269{fill-rule:evenodd;clip-rule:evenodd;fill:url(#SVGID_00000067947357567565667410000011921985403860116611_);}
	.st270{fill:url(#SVGID_00000101810852677723382460000013089298798868147609_);}
	.st271{fill:url(#SVGID_00000101087536893337433420000016642188383039342982_);}
	.st272{fill:url(#SVGID_00000052104912618957715150000008644791783667459491_);}
	.st273{fill:url(#SVGID_00000183938216792053252020000007891900223275021234_);}
	.st274{fill:url(#SVGID_00000060004813062949983820000012721022281089901984_);}
	.st275{fill:url(#SVGID_00000014633157614331378450000001163431072241259149_);}
	.st276{fill:url(#SVGID_00000164506572498141245660000004043225569253493656_);}
	.st277{fill:url(#SVGID_00000054249733273144909230000012002771623947218619_);}
	.st278{fill:url(#SVGID_00000145749466658583602850000016897075884998484116_);}
	.st279{fill:url(#SVGID_00000011722541952171027160000010565477272782581650_);}
	.st280{fill:url(#SVGID_00000152253501597644657670000004078673447679884687_);}
	.st281{fill:url(#SVGID_00000176001933483578868370000009900450748418270101_);}
	.st282{fill:url(#SVGID_00000077284640788051486830000009956232804636476570_);}
	.st283{fill:url(#SVGID_00000158745515587613791660000017574238319327212952_);}
	.st284{fill:url(#SVGID_00000104675535599862933820000014330796639945957311_);}
	.st285{fill-rule:evenodd;clip-rule:evenodd;fill:url(#SVGID_00000128473123175958852830000010566650901229437824_);}
	.st286{fill:url(#SVGID_00000076599587224686921600000014883491904263236016_);}
	.st287{fill:url(#SVGID_00000059310587200948437820000003740833017082056375_);}
	.st288{fill:url(#SVGID_00000079458444665355972430000018350336133807346316_);}
	.st289{fill:url(#SVGID_00000170998576838022323100000008456533417440785547_);}
	.st290{fill:url(#SVGID_00000183235555217650549010000012965722269672780477_);}
	.st291{fill:url(#SVGID_00000047021874572068246250000005120352209263715202_);}
	.st292{fill:url(#SVGID_00000156553562293344597220000005043650769307645868_);}
	.st293{fill:url(#SVGID_00000118358360327490626620000000906570420195454131_);}
	.st294{fill:url(#SVGID_00000055689594761138517740000017156626538587547809_);}
	.st295{fill:url(#SVGID_00000076602480437827174250000017548314613005048491_);}
	.st296{fill:url(#SVGID_00000149374160816736532510000018061260588543953067_);}
	.st297{fill:url(#SVGID_00000028320673546776201070000003572666579744607877_);}
	.st298{fill:url(#SVGID_00000139977457502418174950000011825363174180915852_);}
	.st299{fill:url(#SVGID_00000176040137352315499330000006953263853339018156_);}
	.st300{fill:url(#SVGID_00000170970078194463588990000017020525940911544250_);}
	.st301{fill:url(#SVGID_00000025409462029333901190000017472444621993091258_);}
	.st302{fill:url(#SVGID_00000150071130592767530500000008102837468202874240_);}
	.st303{fill:url(#SVGID_00000026157374661426861980000002509024574526826676_);}
	.st304{fill-rule:evenodd;clip-rule:evenodd;fill:url(#SVGID_00000132077768755362789270000004234838752435431070_);}
	.st305{fill:url(#SVGID_00000145745662955712830090000004048411556308869006_);}
	.st306{fill:url(#SVGID_00000145740312474997784830000004804600906496058293_);}
	.st307{fill:url(#SVGID_00000030477344901412631440000009182382514390032027_);}
	.st308{fill:url(#SVGID_00000178906355828381747090000004205803513028229017_);}
	.st309{fill:url(#SVGID_00000132782893718977713730000009204222271244537766_);}
	.st310{fill:url(#SVGID_00000088112786556662749350000017320069573077223342_);}
	.st311{fill:url(#SVGID_00000045586307841032128610000013337940857779906467_);}
	.st312{fill:url(#SVGID_00000131342329990873353570000014839266825200364720_);}
	.st313{fill:url(#SVGID_00000052788512684342186980000013307910580181564840_);}
	.st314{fill:url(#SVGID_00000049902645340151620990000011963854980396108731_);}
	.st315{fill:url(#SVGID_00000047740434038198300000000005350482120720116628_);}
	.st316{fill:url(#SVGID_00000163761078503820662300000008933987535916958873_);}
	.st317{fill:url(#SVGID_00000003075441964075007770000006432284496346774147_);}
	.st318{fill:url(#SVGID_00000114052739910794268780000012202695060651659453_);}
	.st319{fill:url(#SVGID_00000176757256357944490660000009455202406894514107_);}
	.st320{fill:url(#SVGID_00000038393211556534259290000017589746699841037719_);}
	.st321{fill:url(#SVGID_00000052814355518231031850000007514041183650716589_);}
	.st322{fill:url(#SVGID_00000131342288325516970950000016441680767100079766_);}
	.st323{fill:url(#SVGID_00000183215413723283450260000010579941511646195631_);}
	.st324{fill:url(#SVGID_00000109002320119207906080000005341233872937493416_);}
	.st325{fill-rule:evenodd;clip-rule:evenodd;fill:url(#SVGID_00000072964651534244536760000017886782086279591587_);}
	.st326{fill:url(#SVGID_00000034069247417737772060000018057865995333594773_);}
	.st327{fill:url(#SVGID_00000116958329776013147330000017800082550302412433_);}
	.st328{fill:url(#SVGID_00000011016525947296056410000007990595278342189446_);}
	.st329{fill:url(#SVGID_00000179617736002398987350000004523466223577959351_);}
	.st330{fill:url(#SVGID_00000027596704581469311130000011827240410373427101_);}
	.st331{fill:url(#SVGID_00000023969704763970632300000005810906717431025300_);}
	.st332{fill:url(#SVGID_00000046320483962730465180000003570920769426988682_);}
	.st333{fill:url(#SVGID_00000003816777332830386860000004492983794737248419_);}
	.st334{fill:url(#SVGID_00000024704834627317233880000007225442243242687139_);}
	.st335{fill:url(#SVGID_00000147901347033153705720000011168419749848621967_);}
	.st336{fill:url(#SVGID_00000008851919657113819700000009920570994998079926_);}
	.st337{fill:url(#SVGID_00000077306615690984749830000013328201400356125331_);}
	.st338{fill:url(#SVGID_00000078743367015862772030000009347682991552180393_);}
	.st339{fill:url(#SVGID_00000026847375720529602300000016384177529269900945_);}
	.st340{fill:url(#SVGID_00000173143662926303143690000017650871894368903594_);}
	.st341{fill:url(#SVGID_00000062167268290837196800000014982816096363845022_);}
	.st342{fill-rule:evenodd;clip-rule:evenodd;fill:url(#SVGID_00000044141481142219953250000008314535739870378679_);}
	.st343{fill:url(#SVGID_00000054259489116408342620000003857352434350792849_);}
	.st344{fill:url(#SVGID_00000168829761899724832200000008438365410830587527_);}
	.st345{fill:url(#SVGID_00000140736125052964867640000007135770615914175165_);}
	.st346{fill:url(#SVGID_00000165231174370144790110000017723422823518366892_);}
	.st347{fill:url(#SVGID_00000078046957967134233320000016582840597449846974_);}
	.st348{fill:url(#SVGID_00000177444293249928120440000004406952243989069710_);}
	.st349{fill:url(#SVGID_00000127744686897179746010000012482136610593502634_);}
	.st350{fill:url(#SVGID_00000115512231973606849570000014268509616917399978_);}
	.st351{fill:url(#SVGID_00000044135450794760795450000013659533287967543714_);}
	.st352{fill:url(#SVGID_00000121244362926523656370000007889603903909838479_);}
	.st353{fill:url(#SVGID_00000131345196782181216300000011836632203162485434_);}
	.st354{fill:url(#SVGID_00000143597806815670689470000016944642830378263173_);}
	.st355{fill:url(#SVGID_00000018927213600056620000000010507524900016001187_);}
	.st356{fill:url(#SVGID_00000089550917237769791110000012222769399566056072_);}
	.st357{fill:url(#SVGID_00000132778149235756223730000002255198445101174682_);}
	.st358{fill:url(#SVGID_00000045621387310353711050000008611649416240353926_);}
	.st359{fill:url(#SVGID_00000052090750152156783790000010451180228418547646_);}
	.st360{fill:url(#SVGID_00000110471958680861791640000011044102002177532807_);}
	.st361{fill:url(#SVGID_00000176018627659335034670000011652330085343933850_);}
	.st362{fill:url(#SVGID_00000018238130514314876050000016887072294754655664_);}
	.st363{fill:#C1282D;}
	.st364{fill-rule:evenodd;clip-rule:evenodd;fill:url(#SVGID_00000183933998136524107780000016988726978075748514_);}
	.st365{fill:url(#SVGID_00000121252835690670172720000011502280023472852127_);}
	.st366{fill:url(#SVGID_00000115497415821329077740000011432082811823269811_);}
	.st367{fill:url(#SVGID_00000065786711688694340510000015447856467783731088_);}
	.st368{fill:url(#SVGID_00000163766930000091772750000013800024309123581861_);}
	.st369{fill:url(#SVGID_00000002372925178733199570000002495881982057959323_);}
	.st370{fill:url(#SVGID_00000146496727130821719350000016328177406076490941_);}
	.st371{fill:url(#SVGID_00000064341607050174496510000010325099263847162246_);}
	.st372{fill:url(#SVGID_00000080185237960236901950000015172113681119389322_);}
	.st373{fill:url(#SVGID_00000132077185138969359640000006122274639335709837_);}
	.st374{fill:url(#SVGID_00000044870763735505162570000002104299570957619082_);}
	.st375{fill:url(#SVGID_00000151504211535997619930000011836459307900735146_);}
	.st376{fill:url(#SVGID_00000137129590074308008730000008703949620838603907_);}
	.st377{fill:url(#SVGID_00000131354935076286918500000014233237690638142125_);}
	.st378{fill:url(#SVGID_00000120547846536929129530000014637814843237789350_);}
	.st379{fill:url(#SVGID_00000176729201893869786440000005914107844756850862_);}
	.st380{fill:url(#SVGID_00000022556898983409179750000009357685326155004588_);}
	.st381{fill-rule:evenodd;clip-rule:evenodd;fill:url(#SVGID_00000054952844578725610410000011703628694756926648_);}
	.st382{fill:url(#SVGID_00000026859230849060804080000011436496732324590517_);}
	.st383{fill:url(#SVGID_00000173122836459187815280000007503674040798115224_);}
	.st384{fill:url(#SVGID_00000126294946008602477410000014637667358288189596_);}
	.st385{fill:url(#SVGID_00000156547984811497612380000000156988921872257700_);}
	.st386{fill:url(#SVGID_00000065791696230046167400000003377599065284896933_);}
	.st387{fill:url(#SVGID_00000054946713107182463040000000773570836881108618_);}
	.st388{fill:url(#SVGID_00000074438986980005130660000008094936904477424302_);}
	.st389{fill:url(#SVGID_00000015343531100841748560000005782695958154568340_);}
	.st390{fill:url(#SVGID_00000094612449487343049000000010455423336006586269_);}
	.st391{fill:url(#SVGID_00000016076530620396083940000005329069572437951139_);}
	.st392{fill:url(#SVGID_00000134943441511495227900000015273262814538264710_);}
	.st393{fill:url(#SVGID_00000130637361959538326620000014811335194038681527_);}
	.st394{fill:url(#SVGID_00000146489527983237659090000016989841106167931527_);}
	.st395{fill:url(#SVGID_00000152254228472609160430000002161321123689885859_);}
	.st396{fill:url(#SVGID_00000111909541763682043980000013118808663428189106_);}
	.st397{fill:url(#SVGID_00000067934051475301562240000015517950243238187449_);}
	.st398{fill:url(#SVGID_00000034066818555488472050000010402724630685133715_);}
	.st399{fill:url(#SVGID_00000079473240847367850050000001305391826079565985_);}
	.st400{fill:url(#SVGID_00000005238038754869764000000007571964562350930109_);}
	.st401{fill:url(#SVGID_00000043457409784879217110000003563029805971380356_);}
</style>
<g>
	<rect x="441.11" y="364.4" class="st20" width="199.15" height="199.27"/>
	<path class="st41" d="M488.2,340.83c20.74,0,39.32,9.14,51.99,23.62l-27.46-0.18l26.52,31.85l29.34-31.48l-26.7-0.17
		c12.58-13.21,30.33-21.44,50.01-21.44c38.14,0,69.06,30.91,69.06,69.05c0,19.31-7.92,36.75-20.69,49.29l-0.16-25.2l-31.48,29.34
		l31.84,26.52l-0.15-22.97c12.74,12.52,20.64,29.95,20.64,49.23c0,38.14-30.92,69.06-69.06,69.06c-20.73,0-39.32-9.14-51.98-23.61
		l28.67-0.19l-29.34-31.48l-26.52,31.84l25.46-0.16c-12.58,13.19-30.32,21.41-49.99,21.41c-38.14,0-69.06-30.92-69.06-69.06
		c0-19.9,8.42-37.82,21.88-50.42l-0.17,26.34l31.84-26.52l-31.48-29.34l-0.16,24.19c-13.48-12.6-21.91-30.54-21.91-50.45
		C419.13,371.75,450.06,340.83,488.2,340.83"/>
	<path class="st42" d="M541.04,427.12c4,0.55,6.82,4.26,6.27,8.27c-0.55,4-4.26,6.82-8.27,6.27c-4-0.55-6.81-4.26-6.26-8.26
		C533.33,429.39,537.04,426.57,541.04,427.12 M540.06,459.27c7.67-0.46,14.33-1.23,20.1-5.79c5.73-4.52,8.72-7.52,9.74-14.97
		c1.06-7.74-1.21-11.29-5.92-17.31c-4.7-6.03-11.08-9.57-19.09-10.67c-14.73-2.02-28.74,4.33-36.88,10.8
		c-8.06,6.4-18.18,18.97-20.24,33.92c-2.1,15.32,1.25,28.78,10.05,40.38c4.25,5.59,8.41,10.07,13.38,13.56
		c-3.1-4.91-4.89-10.73-4.89-16.96c0-4.78,1.05-9.3,2.93-13.37c1.65-4.07,4.24-7.55,7.76-10.44c1.64-1.46,3.44-2.76,5.36-3.86
		C527.37,461.42,532.43,459.72,540.06,459.27z"/>
	<path class="st42" d="M541.04,485.59c4,0.55,6.82,4.26,6.27,8.27c-0.55,4-4.26,6.82-8.27,6.27c-4-0.55-6.81-4.26-6.26-8.26
		C533.33,487.86,537.04,485.04,541.04,485.59 M540.26,467.81c-7.12,0-13.33,1.43-18.75,5.69c-5.64,4.43-8.68,8.31-9.68,15.64
		c-1.05,7.58,0.74,14.35,5.36,20.26c4.6,5.91,11.18,7.06,19.04,8.13c14.45,1.98,23.62-2.2,35.53-11.37
		c11.91-9.2,18.54-18.78,20.55-33.45c2.07-15.06-1.22-28.25-9.86-39.65c-4-5.27-7.91-9.53-12.54-12.89
		c2.68,4.67,4.21,10.07,4.21,15.84c0,3.72-0.64,7.29-1.81,10.6c-1.53,5.52-4.6,10.06-9.2,13.65c-4.63,3.6-9.05,5.93-14.39,6.95
		c-2.09,0.43-4.25,0.66-6.46,0.66C541.59,467.88,540.92,467.85,540.26,467.81z"/>
	<path d="M997.05,739.17h-50.6v-4.08c1.78,0,3.36-0.41,4.75-1.23c1.38-0.82,2.08-2.26,2.08-4.32c0-2.71-0.9-6.85-2.68-12.4
		c-1.78-5.55-3.56-10.28-5.34-14.19c-1.58-3.92-3.66-7.83-6.23-11.75l-7.86-11.09l-5.19,5.22v33.45c0,10.87,3.01,16.32,9.05,16.32
		v4.08h-47.64v-4.08c2.96,0,5.07-1.25,6.3-3.75c1.24-2.51,1.86-6.69,1.86-12.56v-66.56c0-5.44-0.59-9.52-1.78-12.24
		c-1.18-2.72-3.31-4.08-6.38-4.08v-4.08h46.6l0.15,4.08c-2.97,0-5.08,1.33-6.31,4c-1.23,2.67-1.85,7.04-1.85,13.14v18.76
		l15.88-15.66l5.94-6.52c2.67-3.26,4-5.82,4-7.67c0-1.31-0.74-2.72-2.23-4.24l-2.23-1.3l-2.53-0.49v-4.08h43.05v4.08
		c-4.55,0.65-9.5,2.61-14.84,5.87c-4.35,2.72-8.71,6.09-13.06,10.12l-7.57,7.18c7.52,8.38,14.05,18.21,19.6,29.53
		c4.15,8.48,8.51,19.74,13.06,33.77c1.39,3.92,2.73,6.85,4.02,8.81c1.97,2.61,4.64,3.92,8.01,3.92V739.17z M863.48,652.21
		c0-10.88-3.02-16.32-9.05-16.32v-4.08h29.83v4.08c-2.97,0-5.07,1.17-6.31,3.51c-1.24,2.34-1.86,6.64-1.86,12.83v66.51
		c0,5.44,0.59,9.54,1.78,12.26c1.18,2.72,3.31,4.08,6.39,4.08v4.08h-29.83v-3.91c5.04-0.87,7.56-4,7.56-9.33
		c0-3.59-0.89-7.02-2.67-10.31l-2.07-3.42l-4.01-5.06l-44.08-55.9v67.54c0,6.09,0.54,10.33,1.63,12.72c1.29,2.4,3.42,3.59,6.38,3.59
		v4.08h-28.79v-4.08c2.97,0,5.07-1.25,6.31-3.75c1.24-2.51,1.86-6.69,1.86-12.56v-66.56c0-5.44-0.59-9.52-1.78-12.24
		c-1.19-2.72-3.32-4.08-6.39-4.08v-4.08h56.69v4.08c-1.08,0.33-1.92,0.82-2.52,1.47c-0.59,0.65-1.04,1.63-1.34,2.93
		c0,1.09,0.74,2.94,2.23,5.55l3.71,4.89l16.33,22.03V652.21z M720.83,653.46l-9.33,30.72c3.36,0,6.83,0.65,10.39,1.96
		c3.56,1.31,6.97,3.32,10.24,6.04L720.83,653.46z M701.46,714.67l-1.86,7.34c-0.56,2.29-0.86,4.24-0.86,5.9
		c0,1.95,0.6,3.7,1.78,5.22c1.19,0.98,2.87,1.63,5.04,1.96v4.08h-32.65v-4.08c3.66-0.87,6.63-3.27,8.9-7.18
		c0.99-1.63,2.67-5.44,5.05-11.42l23.35-67.68l1.59-4.6c0.59-1.85,0.89-3.27,0.89-4.24c0-2.28-1.09-3.64-3.26-4.08v-4.08h43.34v4.08
		c-1.29,0.22-2.18,0.6-2.67,1.14c-0.5,0.54-0.74,1.52-0.74,2.93c0,0.76,1.24,5.22,3.71,13.38l4.3,14.85
		c1.98,6.85,3.47,11.58,4.46,14.19l10.69,34.26l4,11.42c2.08,4.25,4.86,6.59,8.32,7.02v4.08h-51.2v-4.08c2.47,0,4.45-0.96,5.94-2.86
		c1.48-1.9,2.23-4.11,2.23-6.6c0-3.27-1.34-7.12-4.01-11.59c-2.08-3.26-4.9-6.2-8.46-8.81c-3.07-2.61-6.58-4.46-10.56-5.55
		l-5.64-1.14l-6.24-0.48L701.46,714.67z M607.75,717.63c0,4.13,0.45,7.02,1.34,8.65c0.99,1.41,3.51,2.12,7.57,2.12
		c6.53,0,11.82-1.9,15.88-5.71c4.06-3.8,6.08-9.3,6.08-16.48c0-5.98-1.43-11.09-4.31-15.33c-2.47-3.92-6.38-7.61-11.72-11.1
		l-14.85,5.55V717.63z M607.75,673.58c5.94-1.53,11.13-3.81,15.59-6.85c5.93-4.14,8.9-8.92,8.9-14.36c0-3.27-1.38-5.71-4.14-7.34
		c-2.75-1.63-5.93-2.45-9.54-2.45l-5.69,0.49c-1.22,0-2.52,0.65-3.91,1.96c-0.32,0.22-0.72,1.04-1.21,2.45v3.26v1.8V673.58z
		 M577.33,652.21c0-5.44-0.59-9.52-1.78-12.24c-1.19-2.72-3.32-4.08-6.38-4.08v-4.08h65.75c8.01,0,13.8,0.65,17.36,1.96
		c6.24,2.29,9.35,7.05,9.35,14.25c0,5.87-2.92,11.34-8.76,16.37c-3.96,3.16-9.35,6.25-16.18,9.32c9.4,1.63,17.02,5.12,22.85,10.47
		c7.03,6.23,10.54,14.17,10.54,23.9c0,2.72-0.24,5.11-0.74,7.18c-0.49,2.09-0.92,3.51-1.26,4.27c-0.35,0.76-0.97,1.9-1.86,3.42
		c-2.37,4.27-5.99,7.86-10.83,10.79c-3.17,2.31-7.43,3.84-12.77,4.6l-7.72,0.82h-8.32h-57.43v-4.08c2.96,0,5.06-1.25,6.3-3.75
		c1.24-2.51,1.86-6.69,1.86-12.56V652.21z M495.4,652.21c0-10.88-3.02-16.32-9.05-16.32v-4.08h29.83v4.08
		c-2.97,0-5.07,1.17-6.31,3.51c-1.24,2.34-1.86,6.64-1.86,12.83v66.51c0,5.44,0.59,9.54,1.78,12.26c1.19,2.72,3.31,4.08,6.39,4.08
		v4.08h-29.83v-3.91c5.04-0.87,7.56-4,7.56-9.33c0-3.59-0.89-7.02-2.67-10.31l-2.07-3.42l-4.01-5.06l-44.08-55.9v67.54
		c0,6.09,0.54,10.33,1.63,12.72c1.29,2.4,3.42,3.59,6.38,3.59v4.08H420.3v-4.08c2.97,0,5.07-1.25,6.31-3.75
		c1.24-2.51,1.86-6.69,1.86-12.56v-66.56c0-5.44-0.59-9.52-1.78-12.24c-1.19-2.72-3.32-4.08-6.39-4.08v-4.08H477v4.08
		c-1.08,0.33-1.92,0.82-2.52,1.47c-0.59,0.65-1.04,1.63-1.34,2.93c0,1.09,0.74,2.94,2.23,5.55l3.71,4.89l16.33,22.03V652.21z
		 M352.75,653.46l-9.32,30.72c3.36,0,6.83,0.65,10.39,1.96c3.56,1.31,6.97,3.32,10.24,6.04L352.75,653.46z M333.38,714.67
		l-1.86,7.34c-0.56,2.29-0.87,4.24-0.87,5.9c0,1.95,0.6,3.7,1.79,5.22c1.18,0.98,2.87,1.63,5.04,1.96v4.08h-32.65v-4.08
		c3.66-0.87,6.63-3.27,8.9-7.18c0.99-1.63,2.67-5.44,5.05-11.42l23.35-67.68l1.58-4.6c0.59-1.85,0.89-3.27,0.89-4.24
		c0-2.28-1.09-3.64-3.27-4.08v-4.08h43.34v4.08c-1.29,0.22-2.18,0.6-2.67,1.14c-0.49,0.54-0.74,1.52-0.74,2.93
		c0,0.76,1.24,5.22,3.71,13.38l4.3,14.85c1.98,6.85,3.47,11.58,4.46,14.19l10.68,34.26l4,11.42c2.08,4.25,4.86,6.59,8.32,7.02v4.08
		h-51.2v-4.08c2.47,0,4.45-0.96,5.94-2.86c1.48-1.9,2.22-4.11,2.22-6.6c0-3.27-1.34-7.12-4.01-11.59c-2.08-3.26-4.9-6.2-8.46-8.81
		c-3.07-2.61-6.58-4.46-10.56-5.55l-5.64-1.14l-6.23-0.48L333.38,714.67z M231.07,717.96c0,6.2,0.59,10.6,1.78,13.22
		c1.18,2.61,3.51,3.92,6.98,3.92v4.08h-47.35v-4.08c2.96,0,5.07-1.25,6.3-3.75c1.24-2.51,1.86-6.69,1.86-12.56v-66.56
		c0-5.44-0.59-9.52-1.78-12.24c-1.19-2.72-3.32-4.08-6.38-4.08v-4.08h47.35v4.08c-3.07,0-5.3,1.25-6.68,3.75
		c-1.39,2.5-2.08,6.69-2.08,12.57v8.81h29.54v-8.81c0-5.66-0.7-9.79-2.08-12.4c-1.39-2.61-3.62-3.91-6.68-3.91v-4.08h47.35v4.08
		c-2.98,0-5.08,1.17-6.31,3.51c-1.23,2.34-1.85,6.61-1.85,12.81v66.56c0,5.44,0.59,9.51,1.78,12.23c1.19,2.72,3.32,4.08,6.39,4.08
		v4.08h-47.35v-4.08c3.06,0,5.34-1.3,6.83-3.92c1.28-3.05,1.93-7.45,1.93-13.22v-46.17h-29.54V717.96z M192.63,739.17h-50.61v-4.08
		c1.79,0,3.36-0.41,4.75-1.23c1.39-0.82,2.08-2.26,2.08-4.32c0-2.71-0.9-6.85-2.67-12.4c-1.79-5.55-3.56-10.28-5.35-14.19
		c-1.59-3.92-3.66-7.83-6.23-11.75l-7.87-11.09l-5.19,5.22v33.45c0,10.87,3.01,16.32,9.05,16.32v4.08H82.95v-4.08
		c2.96,0,5.07-1.25,6.31-3.75c1.23-2.51,1.85-6.69,1.85-12.56v-66.56c0-5.44-0.59-9.52-1.78-12.24c-1.19-2.72-3.31-4.08-6.38-4.08
		v-4.08h46.6l0.15,4.08c-2.97,0-5.07,1.33-6.31,4c-1.24,2.67-1.86,7.04-1.86,13.14v18.76l15.88-15.66l5.94-6.52
		c2.67-3.26,4-5.82,4-7.67c0-1.31-0.74-2.72-2.23-4.24l-2.23-1.3l-2.52-0.49v-4.08h43.04v4.08c-4.55,0.65-9.5,2.61-14.84,5.87
		c-4.35,2.72-8.71,6.09-13.06,10.12l-7.57,7.18c7.52,8.38,14.05,18.21,19.59,29.53c4.16,8.48,8.51,19.74,13.06,33.77
		c1.38,3.92,2.72,6.85,4.01,8.81c1.97,2.61,4.65,3.92,8.01,3.92V739.17z"/>
</g>
</svg>
