<?xml version="1.0" encoding="utf-8"?>
<!-- Generator: Adobe Illustrator 26.5.0, SVG Export Plug-In . SVG Version: 6.00 Build 0)  -->
<svg version="1.1" id="Layer_1" xmlns="http://www.w3.org/2000/svg" xmlns:xlink="http://www.w3.org/1999/xlink" x="0px" y="0px"
	 viewBox="0 0 1080 1080" style="enable-background:new 0 0 1080 1080;" xml:space="preserve">
<style type="text/css">
	.st0{fill-rule:evenodd;clip-rule:evenodd;}
	.st1{fill:#ED1C24;}
	.st2{fill:#E1251B;}
	.st3{fill-rule:evenodd;clip-rule:evenodd;fill:#16397B;}
	.st4{fill:#EE2745;}
	
		.st5{clip-path:url(#SVGID_00000067228316942878789780000000551957084381172154_);fill:url(#SVGID_00000112601516399616803930000002762642456179671442_);}
	
		.st6{clip-path:url(#SVGID_00000122714546899122055950000002194173214739173029_);fill:url(#SVGID_00000079460446307021956680000003557523836132443020_);}
	
		.st7{clip-path:url(#SVGID_00000064339815647082643420000003843387164143726997_);fill:url(#SVGID_00000005231284492903367490000002014124524196716979_);}
	
		.st8{clip-path:url(#SVGID_00000175305084616601142160000002295684505152196744_);fill:url(#SVGID_00000173136654712118783610000008432793351119317173_);}
	.st9{fill:#424243;}
	
		.st10{clip-path:url(#SVGID_00000153682984648053860250000018051270395018563990_);fill:url(#SVGID_00000048489559382555941470000000719025982766401410_);}
	.st11{fill:#FFFFFF;}
	
		.st12{clip-path:url(#SVGID_00000064339657600403972440000013568392498639510957_);fill:url(#SVGID_00000037682450599218839940000004975872414827482268_);}
	
		.st13{clip-path:url(#SVGID_00000025414080049018803380000014544911538665788302_);fill:url(#SVGID_00000166660102700791916400000012648193134740225414_);}
	
		.st14{clip-path:url(#SVGID_00000054944988352659232040000007650193204243538615_);fill:url(#SVGID_00000167365734833233775760000005672343462290282663_);}
	
		.st15{clip-path:url(#SVGID_00000068637595492257925940000002804447134031491253_);fill:url(#SVGID_00000150075773996234184210000001992838293287026055_);}
	
		.st16{clip-path:url(#SVGID_00000151529414263147477430000003517523912588162728_);fill:url(#SVGID_00000116213120338446749050000002149903421950491828_);}
	
		.st17{clip-path:url(#SVGID_00000062900704286062143710000014137943781980353923_);fill:url(#SVGID_00000024701372899059112300000000342641666782188189_);}
	
		.st18{clip-path:url(#SVGID_00000126320299049367287330000000457920535936194474_);fill:url(#SVGID_00000153669080477371170080000006103592073027073414_);}
	.st19{fill-rule:evenodd;clip-rule:evenodd;fill:#C8202F;}
	.st20{fill-rule:evenodd;clip-rule:evenodd;fill:#FFFFFF;}
	.st21{fill-rule:evenodd;clip-rule:evenodd;fill:#F98238;}
	.st22{filter:url(#Adobe_OpacityMaskFilter);}
	.st23{fill:url(#SVGID_00000105428410549912163230000007162975497214794918_);}
	.st24{mask:url(#SVGID_00000021839689428240878580000000302964588786486420_);fill-rule:evenodd;clip-rule:evenodd;fill:#ED1C24;}
	.st25{fill-rule:evenodd;clip-rule:evenodd;fill:#F5333F;}
	.st26{fill-rule:evenodd;clip-rule:evenodd;fill:#ED1C24;}
	.st27{fill-rule:evenodd;clip-rule:evenodd;fill:#F9A46E;}
	.st28{fill-rule:evenodd;clip-rule:evenodd;fill:#F47B26;}
	.st29{fill-rule:evenodd;clip-rule:evenodd;fill:#EB5433;}
	.st30{fill:#1A3282;}
	.st31{fill-rule:evenodd;clip-rule:evenodd;fill:#1A3282;}
	.st32{fill-rule:evenodd;clip-rule:evenodd;fill:#9D9FA2;}
	.st33{fill-rule:evenodd;clip-rule:evenodd;fill:#000303;}
	.st34{fill:#64003D;}
	.st35{fill:#536270;}
	.st36{fill-rule:evenodd;clip-rule:evenodd;fill:#64003D;}
	.st37{fill-rule:evenodd;clip-rule:evenodd;fill:#536270;}
	.st38{fill-rule:evenodd;clip-rule:evenodd;fill:#1A3382;}
	.st39{fill-rule:evenodd;clip-rule:evenodd;fill:#29387E;}
	.st40{fill-rule:evenodd;clip-rule:evenodd;fill:#F37021;}
	.st41{fill-rule:evenodd;clip-rule:evenodd;fill:#005C32;}
	.st42{fill-rule:evenodd;clip-rule:evenodd;fill:#D2AB67;}
	
		.st43{clip-path:url(#SVGID_00000092418838932305172170000017443409488914578597_);fill:url(#SVGID_00000145058349615748475400000006058816174155660445_);}
	
		.st44{clip-path:url(#SVGID_00000145781498328802999020000004468876039214972564_);fill:url(#SVGID_00000034808030260838362720000017982801301889460908_);}
	
		.st45{clip-path:url(#SVGID_00000106121318403659922780000004535786268878580405_);fill:url(#SVGID_00000110434856147928048050000009825505920799657886_);}
	.st46{fill-rule:evenodd;clip-rule:evenodd;fill:#00AEEF;}
	.st47{fill-rule:evenodd;clip-rule:evenodd;fill:#EC008C;}
	.st48{fill-rule:evenodd;clip-rule:evenodd;fill:#FFF200;}
	.st49{fill:#A7AAAC;}
	.st50{fill-rule:evenodd;clip-rule:evenodd;fill:#5C5B5B;}
	.st51{fill:#9D9D9F;}
	.st52{fill:#F04D23;}
	.st53{fill-rule:evenodd;clip-rule:evenodd;fill:#2E3192;}
	.st54{fill-rule:evenodd;clip-rule:evenodd;fill:#C4312D;}
	.st55{fill:#552715;}
	.st56{fill:#010101;}
	.st57{fill:#E31E2E;}
	.st58{fill:url(#SVGID_00000091708131356260040330000016704778867585028226_);}
	.st59{fill:url(#SVGID_00000160869632269861879550000011313059802480770205_);}
	.st60{clip-path:url(#SVGID_00000144329342214232193620000010916763281051775392_);}
	.st61{clip-path:url(#SVGID_00000011722406923574981970000006965962419805153686_);}
	.st62{clip-path:url(#SVGID_00000001622956961131158970000007960344681311737739_);}
	.st63{clip-path:url(#SVGID_00000119817823355933301550000004645864456090890163_);}
	.st64{clip-path:url(#SVGID_00000051377961624996671380000002416304732644385703_);}
	.st65{clip-path:url(#SVGID_00000049933816972602193780000013978165050530095520_);}
	.st66{clip-path:url(#SVGID_00000043447561449091708820000003063789029339067323_);}
	.st67{clip-path:url(#SVGID_00000139279878772870933330000002654454356274743991_);}
	.st68{clip-path:url(#SVGID_00000029017092810524993870000009737221602434383499_);}
	.st69{clip-path:url(#SVGID_00000165219409717250195760000000449927192216296865_);}
	.st70{clip-path:url(#SVGID_00000154399784859088306500000017233883300425594018_);}
	.st71{fill:#2650A1;}
	.st72{fill:url(#SVGID_00000090982759297491635310000002589402789601886888_);}
	.st73{fill:#FEFEFE;}
	.st74{fill:#FDFDFD;}
	.st75{fill:#FCFCFC;}
	.st76{fill:#FBFBFB;}
	.st77{fill:#FAFAFA;}
	.st78{fill:#F9F9F9;}
	.st79{fill:#F8F8F8;}
	.st80{fill:#F7F7F7;}
	.st81{fill:#F6F6F6;}
	.st82{fill:#F5F5F5;}
	.st83{fill:#F4F4F4;}
	.st84{fill:#F3F3F3;}
	.st85{fill:#F2F2F2;}
	.st86{fill:#F1F1F1;}
	.st87{fill:#F0F0F0;}
	.st88{fill:#EFEFEF;}
	.st89{fill:#EEEEEE;}
	.st90{fill:#EDEDED;}
	.st91{fill:#ECECEC;}
	.st92{fill:#EBEBEB;}
	.st93{fill:#EAEAEA;}
	.st94{fill:#E9E9E9;}
	.st95{fill:#E8E8E8;}
	.st96{fill:#E7E7E7;}
	.st97{fill:#E6E6E6;}
	.st98{fill:#E5E5E5;}
	.st99{fill:#E4E4E4;}
	.st100{fill:#E3E3E3;}
	.st101{fill:#E2E2E2;}
	.st102{fill:#E1E1E1;}
	.st103{fill:#E0E0E0;}
	.st104{fill:#DFDFDF;}
	.st105{fill:#DEDEDE;}
	.st106{fill:#DDDDDD;}
	.st107{fill:#DCDCDC;}
	.st108{fill:#DBDBDB;}
	.st109{fill:#DADADA;}
	.st110{fill:#D9D9D9;}
	.st111{fill:#D92231;}
	.st112{fill:url(#SVGID_00000016766317945565433070000007487091525798006961_);}
	.st113{fill:url(#SVGID_00000116913559033606672290000016350029849527944348_);}
	.st114{opacity:0.8;}
	.st115{fill:url(#SVGID_00000182502287902516626330000004576229736730856330_);}
	.st116{fill:url(#SVGID_00000150099077770601956860000011297067837966669235_);}
	.st117{fill-rule:evenodd;clip-rule:evenodd;fill:#010101;}
	.st118{fill:#80A845;}
	.st119{fill-rule:evenodd;clip-rule:evenodd;fill:#80A845;}
	.st120{fill:url(#SVGID_00000016060467433979544290000017779220891714640265_);}
	.st121{fill-rule:evenodd;clip-rule:evenodd;fill:#04984A;}
	.st122{fill-rule:evenodd;clip-rule:evenodd;fill:url(#SVGID_00000111182250939551755510000010628449367804991365_);}
	.st123{fill:url(#SVGID_00000088094019356051177960000008562375403877703357_);}
	.st124{fill:url(#SVGID_00000076586848889475420960000016617745016893798332_);}
	.st125{fill:url(#SVGID_00000078031571235383174840000005862072205906344868_);}
	.st126{fill:url(#SVGID_00000177459010213745435010000014828634292502336411_);}
	.st127{fill:url(#SVGID_00000041292629172963589690000013682663056066587828_);}
	.st128{fill:url(#SVGID_00000065782053216243310730000005176309239964154514_);}
	.st129{fill:url(#SVGID_00000100341656357470994750000007664899084247314092_);}
	.st130{fill:url(#SVGID_00000111882936508150938830000005307944865002131864_);}
	.st131{fill:url(#SVGID_00000021836497099613699560000018112837831154128279_);}
	.st132{fill:url(#SVGID_00000057136860262336218000000000452211327332126898_);}
	.st133{fill:url(#SVGID_00000078739186934621001710000008985734548749563305_);}
	.st134{fill:url(#SVGID_00000029760962238763817160000008454666113789237431_);}
	.st135{fill:url(#SVGID_00000137826620674600361920000000434191057186654905_);}
	.st136{fill:url(#SVGID_00000183971815464740148190000015491153376679069880_);}
	.st137{fill-rule:evenodd;clip-rule:evenodd;fill:url(#SVGID_00000144319349423377471850000018233716251216386215_);}
	.st138{fill:#0A529D;}
	.st139{fill:url(#SVGID_00000052088281871745970090000000025693058651617193_);}
	.st140{fill:url(#SVGID_00000120520700022859649860000004136106333007959959_);}
	.st141{fill:url(#SVGID_00000099652906665758019050000009862471403822090169_);}
	.st142{fill:url(#SVGID_00000180356519910240430730000008392523702768075427_);}
	.st143{fill:url(#SVGID_00000139989909097361363040000016270669001507738761_);}
	.st144{fill:url(#SVGID_00000167359342461494339130000001899509070262760851_);}
	.st145{fill:url(#SVGID_00000015327250817260518130000017224874381558218896_);}
	.st146{fill:url(#SVGID_00000017507262932070905300000016347551737666583206_);}
	.st147{fill:url(#SVGID_00000088129924839243394560000016781747608063996341_);}
	.st148{fill:url(#SVGID_00000077290798794225543290000004244536264752272825_);}
	.st149{fill:url(#SVGID_00000180363606900742933300000001130770563077450386_);}
	.st150{fill:url(#SVGID_00000068670803096583815570000004845823928182860718_);}
	.st151{fill-rule:evenodd;clip-rule:evenodd;fill:url(#SVGID_00000179630591961436368170000001259616768517045166_);}
	.st152{fill:url(#SVGID_00000179610608972953857450000015138431412356793510_);}
	.st153{fill:url(#SVGID_00000044157368549076219200000012764331734407980450_);}
	.st154{fill:url(#SVGID_00000044153734475229869510000013080880490711120003_);}
	.st155{fill:url(#SVGID_00000012455631424945552500000017944444664613362055_);}
	.st156{fill:url(#SVGID_00000031201824951803538830000006530763633804578981_);}
	.st157{fill:url(#SVGID_00000129886117257196257700000013144443505886791574_);}
	.st158{fill:url(#SVGID_00000115488127900385998470000000627986202284670655_);}
	.st159{fill:url(#SVGID_00000041275362956457709640000012463022242477909381_);}
	.st160{fill:url(#SVGID_00000057866882663427643320000008905556389157156485_);}
	.st161{fill:url(#SVGID_00000096035500157867326410000009717858395236419211_);}
	.st162{fill:url(#SVGID_00000115475419405338986990000011633449104513186962_);}
	.st163{fill:url(#SVGID_00000034805943715497120400000012203875612142983869_);}
	.st164{fill:url(#SVGID_00000155868973703232986960000001104855816368208309_);}
	.st165{fill:url(#SVGID_00000136370587299449051140000004938753701352682658_);}
	.st166{fill:url(#SVGID_00000026142260308283505670000003162199715516873634_);}
	.st167{fill:url(#SVGID_00000111883879983970292140000014028909303670121867_);}
	.st168{fill:url(#SVGID_00000004547333044719399760000009821804904379439790_);}
	.st169{fill-rule:evenodd;clip-rule:evenodd;fill:url(#SVGID_00000177453403484677811940000004356273313048396193_);}
	.st170{fill:url(#SVGID_00000057869964246773970080000009850981494263909541_);}
	.st171{fill:url(#SVGID_00000180362678017666145170000018128276675594219648_);}
	.st172{fill:url(#SVGID_00000009561984576175908180000009865444870603868813_);}
	.st173{fill:url(#SVGID_00000090269611787818397690000005359611219492103083_);}
	.st174{fill:url(#SVGID_00000000217914296818514820000009116474911260592820_);}
	.st175{fill:url(#SVGID_00000024688605013867293610000010837359323896552847_);}
	.st176{fill:url(#SVGID_00000062169561362181471720000016963879766520987540_);}
	.st177{fill:url(#SVGID_00000171689385094784746870000012461822778495771291_);}
	.st178{fill:url(#SVGID_00000176762606604580060420000010527282684854614915_);}
	.st179{fill:url(#SVGID_00000065787539978162441500000011614813156768047780_);}
	.st180{fill:url(#SVGID_00000021078178517883603140000003057556260060596877_);}
	.st181{fill:url(#SVGID_00000096768332104004746980000002909089702184676527_);}
	.st182{fill:url(#SVGID_00000065760952094185367360000015052525270369324957_);}
	.st183{fill:url(#SVGID_00000051371840998969348400000003357049646185006513_);}
	.st184{fill-rule:evenodd;clip-rule:evenodd;fill:url(#SVGID_00000023264594986006567720000006676543694028228002_);}
	.st185{fill:url(#SVGID_00000008141524794859461790000008326605147000352903_);}
	.st186{fill:url(#SVGID_00000107552194091918441350000011527208891037367463_);}
	.st187{fill:url(#SVGID_00000008136041152572186580000016173991094021943682_);}
	.st188{fill:url(#SVGID_00000039099378076659034720000015702699094008052127_);}
	.st189{fill:url(#SVGID_00000057111338643546129530000013722627346558548400_);}
	.st190{fill:url(#SVGID_00000083811490940725292960000004143734228994199433_);}
	.st191{fill:url(#SVGID_00000062151194325096242320000017716158825887367344_);}
	.st192{fill:url(#SVGID_00000052822464546605643450000009965805887892398729_);}
	.st193{fill:url(#SVGID_00000153697493150782853820000009271702587635548815_);}
	.st194{fill:url(#SVGID_00000097474355407767030410000013646356109302450361_);}
	.st195{fill:url(#SVGID_00000160877285235256506900000002144473654256703669_);}
	.st196{fill:url(#SVGID_00000137850492388477890780000009865906727628574364_);}
	.st197{fill:url(#SVGID_00000044896684389585456020000010509944303652861835_);}
	.st198{fill:url(#SVGID_00000135665488889886392500000001823884349090304159_);}
	.st199{fill:url(#SVGID_00000032646739866996173320000001912313372626710144_);}
	.st200{fill:url(#SVGID_00000109714977261990260210000001555176704919219639_);}
	.st201{fill:url(#SVGID_00000170994834445272425360000000252335916358467976_);}
	.st202{fill:url(#SVGID_00000086676855261293825520000015669916196567730573_);}
	.st203{fill:url(#SVGID_00000176034358514510550770000002557781436600337826_);}
	.st204{fill-rule:evenodd;clip-rule:evenodd;fill:url(#SVGID_00000136399077852258734360000016510122113965626553_);}
	.st205{fill:url(#SVGID_00000088092879880388628820000006007553381490789006_);}
	.st206{fill:url(#SVGID_00000074424489851466493820000012914250401170908290_);}
	.st207{fill:url(#SVGID_00000006705926615538956120000012463058124731910044_);}
	.st208{fill:url(#SVGID_00000154390990172156998690000016426520380269367985_);}
	.st209{fill:url(#SVGID_00000135656394566561793730000003080597906922786739_);}
	.st210{fill:url(#SVGID_00000010302684478533141260000007729777251217316011_);}
	.st211{fill:url(#SVGID_00000042699720181955308170000006457326141654766526_);}
	.st212{fill:url(#SVGID_00000026154366697186815530000017716458831410365366_);}
	.st213{fill:url(#SVGID_00000103983946365539669660000011587414198025549970_);}
	.st214{fill:url(#SVGID_00000086686465081972937100000002487647341625750923_);}
	.st215{fill:url(#SVGID_00000023271701831491280680000009281692031683891335_);}
	.st216{fill:url(#SVGID_00000000928014333283249570000014480991167890672265_);}
	.st217{fill:url(#SVGID_00000037654207411177947720000009772444215628128679_);}
	.st218{fill:url(#SVGID_00000034084436012354239940000018081827406128694671_);}
	.st219{fill:url(#SVGID_00000172436300517065564270000015886198644237727364_);}
	.st220{fill:url(#SVGID_00000127753391636987213360000003901525434363287201_);}
	.st221{fill-rule:evenodd;clip-rule:evenodd;fill:url(#SVGID_00000078026228022077397990000004529900197118238883_);}
	.st222{fill:url(#SVGID_00000025406879454825296220000015448701212466711952_);}
	.st223{fill:url(#SVGID_00000042700611153085590440000000317307259577365911_);}
	.st224{fill:url(#SVGID_00000088115421036491212700000009235876183193876369_);}
	.st225{fill:url(#SVGID_00000164473866864966402740000015814201610554592173_);}
	.st226{fill:url(#SVGID_00000005962590584819668160000006884874654303500680_);}
	.st227{fill:url(#SVGID_00000168814513829909607190000016949218935104735133_);}
	.st228{fill:url(#SVGID_00000157290446231823098880000009065257440361838271_);}
	.st229{fill:url(#SVGID_00000030450616531561561160000011738343364262348716_);}
	.st230{fill:url(#SVGID_00000067921062177152040150000012085238837078847370_);}
	.st231{fill:url(#SVGID_00000183240705589596566530000000003036845041767613_);}
	.st232{fill:url(#SVGID_00000095333190652249028580000007680309990543903148_);}
	.st233{fill:url(#SVGID_00000028287560853295394920000012646790692484816003_);}
	.st234{fill:url(#SVGID_00000051357172907007293520000005462665511886926782_);}
	.st235{fill:url(#SVGID_00000038375710652925045950000000190761431059862697_);}
	.st236{fill:url(#SVGID_00000156553148823793441520000017485833466822173366_);}
	.st237{fill-rule:evenodd;clip-rule:evenodd;fill:url(#SVGID_00000116205624023683133280000008159742509595177359_);}
	.st238{fill:url(#SVGID_00000047017666661121187930000012145325987647795343_);}
	.st239{fill:url(#SVGID_00000173867214916441596000000012901277248072553094_);}
	.st240{fill:url(#SVGID_00000134964520395180321820000015473680259647533209_);}
	.st241{fill:url(#SVGID_00000114033056530983883230000014067072207505689009_);}
	.st242{fill:url(#SVGID_00000164480837537434558100000009569756307972214199_);}
	.st243{fill:url(#SVGID_00000062903296776297374850000011064951923379728055_);}
	.st244{fill:url(#SVGID_00000075869640198186381580000010286039683724283024_);}
	.st245{fill:url(#SVGID_00000139270341658738920980000010170958089407243949_);}
	.st246{fill:url(#SVGID_00000000924734908564908300000015867227752231291782_);}
	.st247{fill:url(#SVGID_00000138563703869352544520000016671023178139688111_);}
	.st248{fill:url(#SVGID_00000170956971501859276440000012175820551749473409_);}
	.st249{fill:url(#SVGID_00000098938496841891550110000007871735291658009535_);}
	.st250{fill:url(#SVGID_00000026866862019068909310000017971863883756028032_);}
	.st251{fill:url(#SVGID_00000010995324865173783360000008636547993234877830_);}
	.st252{fill:url(#SVGID_00000109723352780712294170000006063506357631677111_);}
	.st253{fill-rule:evenodd;clip-rule:evenodd;fill:url(#SVGID_00000080195760066186834310000015584916595214798226_);}
	.st254{fill:url(#SVGID_00000119829388519440771660000005231108267848098748_);}
	.st255{fill:url(#SVGID_00000057836838151176043070000015274111816429019553_);}
	.st256{fill:url(#SVGID_00000144333549006765091230000009027385689148013996_);}
	.st257{fill:url(#SVGID_00000029742596438888053000000013273397887777102783_);}
	.st258{fill:url(#SVGID_00000029754802353342435350000017599153549214473636_);}
	.st259{fill:url(#SVGID_00000177474410139468873710000013732905595391439254_);}
	.st260{fill:url(#SVGID_00000157310679410828008470000017303437175953114503_);}
	.st261{fill:url(#SVGID_00000104669622894719073080000010376766794054988699_);}
	.st262{fill:url(#SVGID_00000064312893239880125630000011437248847022993339_);}
	.st263{fill:url(#SVGID_00000090287214576374271230000007253699969654364577_);}
	.st264{fill:url(#SVGID_00000098930140605319123000000014182867722996779702_);}
	.st265{fill:url(#SVGID_00000154402011392497059810000004045984649109442209_);}
	.st266{fill:url(#SVGID_00000093138684605679513420000008209050765436034973_);}
	.st267{fill:url(#SVGID_00000121274760551310430830000010414691456392853427_);}
	.st268{fill:url(#SVGID_00000182522444427233617130000001806557981999552919_);}
	.st269{fill-rule:evenodd;clip-rule:evenodd;fill:url(#SVGID_00000061464554697447223830000002062373117872195516_);}
	.st270{fill:url(#SVGID_00000113338612524481917320000018371157180902542215_);}
	.st271{fill:url(#SVGID_00000009549817272938502340000005325176800578770859_);}
	.st272{fill:url(#SVGID_00000046307885919593648780000010039572249617744773_);}
	.st273{fill:url(#SVGID_00000010996189388708288300000013549656852266063788_);}
	.st274{fill:url(#SVGID_00000013184995933347063060000009199850975813195450_);}
	.st275{fill:url(#SVGID_00000137837950897953931310000009052850816288332698_);}
	.st276{fill:url(#SVGID_00000078744787446862013210000008483174360240371386_);}
	.st277{fill:url(#SVGID_00000065046583746699504510000003036660431001636028_);}
	.st278{fill:url(#SVGID_00000080891072328288681670000017002553557897572532_);}
	.st279{fill:url(#SVGID_00000065073312380511619990000016629767968342199975_);}
	.st280{fill:url(#SVGID_00000142880729560267649360000003484385420768061102_);}
	.st281{fill:url(#SVGID_00000056404432982449780230000014441496896720519866_);}
	.st282{fill:url(#SVGID_00000017500154538577186180000009629977695666548132_);}
	.st283{fill:url(#SVGID_00000034068073799117913770000017395938105931610780_);}
	.st284{fill:url(#SVGID_00000052067318343845696420000011582029058317493947_);}
	.st285{fill-rule:evenodd;clip-rule:evenodd;fill:url(#SVGID_00000123410273555848263110000000658498007013310375_);}
	.st286{fill:url(#SVGID_00000056407060922736745200000001112603950182809788_);}
	.st287{fill:url(#SVGID_00000122694699986177086380000003902518370091916704_);}
	.st288{fill:url(#SVGID_00000085219200713312187550000010580582648970659228_);}
	.st289{fill:url(#SVGID_00000011719247296344873090000018133687253547787965_);}
	.st290{fill:url(#SVGID_00000003785615229977890500000002261420534670971069_);}
	.st291{fill:url(#SVGID_00000137108017144656660910000015293168751698184633_);}
	.st292{fill:url(#SVGID_00000155836125361512318530000010130421757103026875_);}
	.st293{fill:url(#SVGID_00000092426216326118549890000018321269283169928089_);}
	.st294{fill:url(#SVGID_00000135689707688632379540000011261728187826507692_);}
	.st295{fill:url(#SVGID_00000173135508236100545670000007014273339695978400_);}
	.st296{fill:url(#SVGID_00000097462436661515045630000012346959966000168093_);}
	.st297{fill:url(#SVGID_00000041269516496442776200000018148087628475679931_);}
	.st298{fill:url(#SVGID_00000000204496375782835660000001387574318964913829_);}
	.st299{fill:url(#SVGID_00000007407576377740596210000016540152240461703083_);}
	.st300{fill:url(#SVGID_00000037685894965668196710000013881376666442230442_);}
	.st301{fill:url(#SVGID_00000105421542860096532950000010789030733740228770_);}
	.st302{fill:url(#SVGID_00000179641273784034770290000011653197293325415333_);}
	.st303{fill:url(#SVGID_00000097477855885953152150000005562790850489635755_);}
	.st304{fill-rule:evenodd;clip-rule:evenodd;fill:url(#SVGID_00000065072329772391992190000010059703579682640308_);}
	.st305{fill:url(#SVGID_00000076569604659564250100000011987622932355111325_);}
	.st306{fill:url(#SVGID_00000172418936131268456000000004306545024339724417_);}
	.st307{fill:url(#SVGID_00000178182408123763060160000012750973368120740005_);}
	.st308{fill:url(#SVGID_00000016037591066073653140000014561985079215857819_);}
	.st309{fill:url(#SVGID_00000126290399866354393800000018091688024063548046_);}
	.st310{fill:url(#SVGID_00000152984308189952244820000008369826844843668152_);}
	.st311{fill:url(#SVGID_00000023269515789205752620000006283344345649476790_);}
	.st312{fill:url(#SVGID_00000073717427073912545810000014840231986959592342_);}
	.st313{fill:url(#SVGID_00000006708739812028635480000017098405288550072729_);}
	.st314{fill:url(#SVGID_00000160162631477752878530000000760942169555035033_);}
	.st315{fill:url(#SVGID_00000098200657838712362120000000981741986734270604_);}
	.st316{fill:url(#SVGID_00000150089573830110630710000001651079154404916103_);}
	.st317{fill:url(#SVGID_00000163031173632610311200000007350445833355029910_);}
	.st318{fill:url(#SVGID_00000139275349604458884810000009064807732803635354_);}
	.st319{fill:url(#SVGID_00000086661899814330125750000012330698492647435188_);}
	.st320{fill:url(#SVGID_00000070816889604774767640000005487273484324062894_);}
	.st321{fill:url(#SVGID_00000052789169094920460740000016662760879675501461_);}
	.st322{fill:url(#SVGID_00000129204998426154685430000005330609892494472379_);}
	.st323{fill:url(#SVGID_00000067201461434683416740000009784493150631216815_);}
	.st324{fill:url(#SVGID_00000116913469752335901800000017187960405294175392_);}
	.st325{fill-rule:evenodd;clip-rule:evenodd;fill:url(#SVGID_00000062901377104591462100000009572983488404414639_);}
	.st326{fill:url(#SVGID_00000155833593706487613990000005731058814833671098_);}
	.st327{fill:url(#SVGID_00000081615497399874220560000004783468538021499306_);}
	.st328{fill:url(#SVGID_00000026885258599389501520000012417430446751539096_);}
	.st329{fill:url(#SVGID_00000131338131663589450170000006980171650707582356_);}
	.st330{fill:url(#SVGID_00000088112201711991594230000014483637149821139629_);}
	.st331{fill:url(#SVGID_00000031193108653194044670000005491575070935443390_);}
	.st332{fill:url(#SVGID_00000127035053502223783220000016190687233589817472_);}
	.st333{fill:url(#SVGID_00000069366547374964840500000007331252842619081113_);}
	.st334{fill:url(#SVGID_00000087376925062039348680000006917728535589206165_);}
	.st335{fill:url(#SVGID_00000132056675982901672140000016949877204800738238_);}
	.st336{fill:url(#SVGID_00000035509220206510420880000016688510900887648954_);}
	.st337{fill:url(#SVGID_00000078043371769384094280000015701441216796479924_);}
	.st338{fill:url(#SVGID_00000160184777901369785670000008766524022863718827_);}
	.st339{fill:url(#SVGID_00000069360011773861604660000012816571292064743603_);}
	.st340{fill:url(#SVGID_00000177479679560494773960000004842862756302518665_);}
	.st341{fill:url(#SVGID_00000157298156930121162610000011314254751842131129_);}
	.st342{fill-rule:evenodd;clip-rule:evenodd;fill:url(#SVGID_00000034769428700615759040000004884872586976816827_);}
	.st343{fill:url(#SVGID_00000049221675338363363630000008790553612142554046_);}
	.st344{fill:url(#SVGID_00000169522781752302597830000004342571557515401906_);}
	.st345{fill:url(#SVGID_00000007427281936531436690000007511361426715081368_);}
	.st346{fill:url(#SVGID_00000114767677001501573460000014272071404642875784_);}
	.st347{fill:url(#SVGID_00000084520629573093443040000015468479278854262459_);}
	.st348{fill:url(#SVGID_00000145044640780680880400000016689105200492850860_);}
	.st349{fill:url(#SVGID_00000038393695281145147220000008077620396611947961_);}
	.st350{fill:url(#SVGID_00000160890750386960139580000015610788879313797016_);}
	.st351{fill:url(#SVGID_00000052088777616903560260000009115010749609794750_);}
	.st352{fill:url(#SVGID_00000002356416102781019110000008247669140470781347_);}
	.st353{fill:url(#SVGID_00000106109057799298402930000007143141560349368975_);}
	.st354{fill:url(#SVGID_00000146471668633405954870000009056707055752844678_);}
	.st355{fill:url(#SVGID_00000070800592828873249230000004553706886112122008_);}
	.st356{fill:url(#SVGID_00000037660856275711363640000000167867941247512223_);}
	.st357{fill:url(#SVGID_00000183212453809524040420000000949012514465608328_);}
	.st358{fill:url(#SVGID_00000074425360221212886720000006862087115938745736_);}
	.st359{fill:url(#SVGID_00000150786344573665213480000013053090488648385162_);}
	.st360{fill:url(#SVGID_00000170990122232093507020000012198423576270277781_);}
	.st361{fill:url(#SVGID_00000034061357105993565750000013083240229148289460_);}
	.st362{fill:url(#SVGID_00000022558240972810268380000000561996608078138506_);}
	.st363{fill:#C1282D;}
	.st364{fill-rule:evenodd;clip-rule:evenodd;fill:url(#SVGID_00000141427654306333298710000014729818315575353781_);}
	.st365{fill:url(#SVGID_00000165921181360701492850000004158205691443826095_);}
	.st366{fill:url(#SVGID_00000103266447127956408720000002932315150756042899_);}
	.st367{fill:url(#SVGID_00000049905238202811977520000005427286238385418135_);}
	.st368{fill:url(#SVGID_00000079477872867013250060000005480739621837197725_);}
	.st369{fill:url(#SVGID_00000079484874388779528430000010560119888898578576_);}
	.st370{fill:url(#SVGID_00000114793344195466454940000013456353177089106578_);}
	.st371{fill:url(#SVGID_00000110464270611762361760000018276092501713326259_);}
	.st372{fill:url(#SVGID_00000177446648692886224440000011510913581539458742_);}
	.st373{fill:url(#SVGID_00000079483574281223462820000012176212595215704711_);}
	.st374{fill:url(#SVGID_00000179612785144379758880000009132334767419878321_);}
	.st375{fill:url(#SVGID_00000072973072783920062550000010747656462967851453_);}
	.st376{fill:url(#SVGID_00000075129501352187428290000007659948318437473424_);}
	.st377{fill:url(#SVGID_00000094579932321684213930000004804448489013764743_);}
	.st378{fill:url(#SVGID_00000034050548170954675040000008146179552740792759_);}
	.st379{fill:url(#SVGID_00000006684320993190167530000002360554873738198914_);}
	.st380{fill:url(#SVGID_00000150824264249270824680000006515711205694349235_);}
	.st381{fill-rule:evenodd;clip-rule:evenodd;fill:url(#SVGID_00000178197771652091577720000003965502812546857660_);}
	.st382{fill:url(#SVGID_00000174593026537712642710000001449839228525691551_);}
	.st383{fill:url(#SVGID_00000008864120929168346140000013023261351459966892_);}
	.st384{fill:url(#SVGID_00000141447518878171629730000017075772586545437881_);}
	.st385{fill:url(#SVGID_00000041983894390927274230000016442404988684346047_);}
	.st386{fill:url(#SVGID_00000033355938332935425020000011661402727106616749_);}
	.st387{fill:url(#SVGID_00000005973139507650314580000001116369836565960068_);}
	.st388{fill:url(#SVGID_00000059298922271736962940000008434955705032849568_);}
	.st389{fill:url(#SVGID_00000143607702196282309270000003250295156108881084_);}
	.st390{fill:url(#SVGID_00000119810823646905328810000001781669327384058036_);}
	.st391{fill:url(#SVGID_00000181773377382549844790000007449059641875087244_);}
	.st392{fill:url(#SVGID_00000020366601995493808500000005433115552832510610_);}
	.st393{fill:url(#SVGID_00000113331513541817027990000007077885223133704853_);}
	.st394{fill:url(#SVGID_00000094583224141294766140000016003120692872913060_);}
	.st395{fill:url(#SVGID_00000057114884181158483050000016029976962368806807_);}
	.st396{fill:url(#SVGID_00000031179902054853448890000005622469150166232498_);}
	.st397{fill:url(#SVGID_00000156546030464603726140000008230210435160467340_);}
	.st398{fill:url(#SVGID_00000183960580864319379240000007940445576324225451_);}
	.st399{fill:url(#SVGID_00000145053616727974312630000007010804020061244852_);}
	.st400{fill:url(#SVGID_00000011009042892861637520000016541144636416315323_);}
	.st401{fill:url(#SVGID_00000127038674915057433800000014959054369370315913_);}
</style>
<g>
	<path class="st3" d="M718.75,619.42c0,1.35,0.04,1.43,1.33,1.43h3.29c2.49,0,3.01-0.33,3.54-2.63l0.24-1.18
		c0.33-0.39,1.53-0.39,1.77,0.05c-0.09,1.53-0.15,3.25-0.15,5.07c0,1.8,0.05,3.51,0.15,5.05c-0.24,0.43-1.44,0.48-1.77,0.05
		l-0.24-1.2c-0.53-2.29-1.05-2.67-3.54-2.67h-3.29c-1.29,0-1.33,0.04-1.33,1.47v5.69c0,2.19,0.18,3.73,0.75,4.53
		c0.62,0.86,1.53,1.25,5.02,1.25c4.15,0,5.77-0.15,8.41-5.54c0.38-0.52,1.57-0.33,1.77,0.24c-0.19,2.48-1.34,6.35-2.01,7.65
		c-2.52-0.09-7.11-0.15-11.02-0.15h-6.22c-2.29,0-4.63,0.05-8.21,0.15c-0.38-0.29-0.38-1.44,0-1.67l2.24-0.34
		c2.16-0.29,2.44-0.63,2.44-5.02v-17.81c0-4.35-0.28-4.68-2.44-5.08l-1.2-0.22c-0.43-0.3-0.38-1.39,0.1-1.68
		c2.25,0.09,4.59,0.15,6.88,0.15h10.12c3.07,0,5.79-0.06,6.4-0.15c0.05,0.77,0.38,4.21,0.62,7.4c-0.2,0.52-1.29,0.63-1.76,0.19
		c-0.52-1.67-1.21-3.1-1.82-3.77c-0.91-0.9-2.34-1.48-4.68-1.48h-3.82c-1.57,0-1.57,0.1-1.57,1.86V619.42z M698.1,607.49
		c0,0.86,0.15,4.67,0.58,7.45c-0.19,0.57-1.48,0.76-1.81,0.32c-1.29-4.43-4.35-6.83-8.98-6.83c-5.3,0-10.98,4.54-10.98,14.05
		c0,9.5,5.49,14.61,11.22,14.61c5.78,0,8.45-4.15,9.74-7.4c0.38-0.38,1.53-0.24,1.82,0.34c-0.34,3.53-1.15,6.4-1.82,7.5
		c-2.58,0.71-5.97,1.76-9.69,1.76c-4.68,0-9.46-1.09-12.85-3.62c-3.44-2.64-6.07-6.6-6.07-12.51c0-5.84,2.49-9.94,5.78-12.67
		c3.39-2.82,8.28-4.25,13.23-4.25C693.15,606.24,696.68,607.4,698.1,607.49z M656.56,630.4c0,3.11,0,6.13,0.1,7.71
		c-0.35,0.57-1.67,1.09-2.82,1.09c-0.05,0-1.63-2.44-3.88-5.2l-11.02-13.67c-2.73-3.43-4.35-5.39-5.21-6.11
		c-0.23,0.47-0.23,1.29-0.23,3.06v9.27c0,3.85,0.18,7.45,0.71,8.75c0.43,0.99,1.53,1.27,2.77,1.52l1.33,0.2
		c0.38,0.37,0.28,1.37,0,1.67c-2.57-0.09-4.48-0.15-6.39-0.15c-1.77,0-3.53,0.05-5.35,0.15c-0.29-0.29-0.38-1.3,0-1.67l0.81-0.15
		c1.3-0.29,2.2-0.58,2.63-1.57c0.48-1.29,0.67-4.89,0.67-8.75v-12.14c0-2.63,0-3.4-0.34-4.06c-0.33-0.81-1.05-1.3-2.72-1.62
		l-1.35-0.18c-0.33-0.4-0.28-1.53,0.19-1.68c2.26,0.09,4.63,0.15,6.59,0.15c1.64,0,3.02-0.06,4.02-0.15
		c0.48,2.15,3.58,5.78,7.88,10.89l4.01,4.73c2.16,2.48,3.5,4.14,4.59,5.25c0.19-0.47,0.19-1.29,0.19-2.16v-6.6
		c0-3.86-0.19-7.44-0.71-8.72c-0.44-1.01-1.49-1.3-2.78-1.54l-1.29-0.18c-0.38-0.4-0.28-1.39,0-1.68c2.58,0.09,4.44,0.15,6.41,0.15
		c1.76,0,3.49-0.06,5.34-0.15c0.28,0.29,0.38,1.28,0,1.68l-0.86,0.14c-1.24,0.28-2.15,0.57-2.57,1.58
		c-0.53,1.28-0.72,4.86-0.72,8.72V630.4z M603.17,619.42c0,1.35,0.04,1.43,1.33,1.43h3.29c2.48,0,3.01-0.33,3.53-2.63l0.25-1.18
		c0.33-0.39,1.52-0.39,1.77,0.05c-0.08,1.53-0.14,3.25-0.14,5.07c0,1.8,0.05,3.51,0.14,5.05c-0.25,0.43-1.44,0.48-1.77,0.05
		l-0.25-1.2c-0.52-2.29-1.05-2.67-3.53-2.67h-3.29c-1.29,0-1.34,0.04-1.34,1.47l0.01,5.69c0,2.19,0.18,3.73,0.75,4.53
		c0.63,0.86,1.54,1.25,5.02,1.25c4.14,0,5.76-0.15,8.41-5.54c0.38-0.52,1.57-0.33,1.77,0.24c-0.2,2.48-1.34,6.35-2.01,7.65
		c-2.53-0.09-7.12-0.15-11.03-0.15h-6.21c-2.29,0-4.63,0.05-8.22,0.15c-0.38-0.29-0.38-1.44,0-1.67l2.25-0.34
		c2.14-0.29,2.44-0.63,2.44-5.02v-17.81c0-4.35-0.3-4.68-2.44-5.08l-1.2-0.22c-0.43-0.3-0.37-1.39,0.09-1.68
		c2.25,0.09,4.6,0.15,6.89,0.15h10.11c3.06,0,5.78-0.06,6.41-0.15c0.05,0.77,0.37,4.21,0.61,7.4c-0.18,0.52-1.28,0.63-1.77,0.19
		c-0.52-1.67-1.2-3.1-1.8-3.77c-0.93-0.9-2.35-1.48-4.69-1.48h-3.82c-1.57,0-1.57,0.1-1.57,1.86L603.17,619.42z M575.7,626.69
		c-2.44,5.78-3.73,9.55-4.82,12.22c-0.39,0.25-0.96,0.39-1.67,0.39c-0.58,0-1-0.14-1.29-0.39c-0.53-1.29-1.34-3.82-2-5.44
		l-7.75-19.43c-1.96-4.83-1.86-4.64-4.14-5.21l-1.34-0.33c-0.38-0.53-0.24-1.39,0.19-1.63c2.43,0.04,4.01,0.15,6.5,0.15
		c2.19,0,4.24-0.06,7.16-0.15c0.38,0.29,0.32,1.19,0.05,1.63l-1.44,0.28c-0.86,0.2-1.2,0.49-1.2,0.92c0,0.38,0.77,2.38,1.91,5.25
		l4.21,10.73c0.67,1.77,1.14,2.88,1.47,3.69c0.39-0.81,0.97-2.1,1.54-3.54l1.77-4.49c1.24-3,3.19-8.36,3.77-9.98
		c0.34-0.9,0.48-1.43,0.48-1.72c0-0.33-0.14-0.58-1.29-0.81l-1.39-0.33c-0.37-0.38-0.37-1.39,0.2-1.63
		c2.25,0.09,4.05,0.15,5.87,0.15c1.63,0,3.05-0.06,4.44-0.15c0.38,0.18,0.42,1.34,0.09,1.63l-1.24,0.24c-1.34,0.28-2,0.66-2.63,1.67
		c-1.04,1.57-2.29,4.16-3.96,8.03L575.7,626.69z M545.9,622.63c0,10.41-6.98,16.67-17.24,16.67c-9.6,0-16.57-6.3-16.57-16.28
		c0-9.47,7.07-16.77,17.05-16.77C539.07,606.24,545.9,612.94,545.9,622.63z M528.75,608.44c-5.87,0-9.03,5.49-9.03,13.47
		c0,5.83,2.06,15.19,9.84,15.19c6.25,0,8.7-6.1,8.7-13.84C538.26,615.08,534.67,608.44,528.75,608.44z M477.69,614.74
		c0-4.77-0.09-5.3-2.1-5.58l-1.29-0.19c-0.48-0.24-0.48-1.44,0.09-1.67c3.58-0.25,7.31-0.43,11.85-0.43c4.05,0,7.54,0.62,9.35,1.72
		c2.78,1.63,4.21,4.01,4.21,7.07c0,4.25-2.87,6.06-5.06,7.16c-0.48,0.25-0.48,0.52-0.24,1.04c3.16,6.41,5.11,10,7.4,11.95
		c1.24,1.01,2.49,1.29,3.21,1.34c0.43,0.23,0.43,0.96,0.19,1.23c-0.77,0.34-2.3,0.43-3.78,0.43c-4.39,0-7.16-1.57-9.26-5.01
		c-1.54-2.54-2.64-4.87-3.74-7.41c-0.57-1.29-1.34-1.67-2.53-1.67c-1.66,0-1.76,0.09-1.76,1.05v5.87c0,4.39,0.28,4.73,2.43,5.1
		l1.29,0.25c0.33,0.23,0.33,1.37,0,1.67c-2.52-0.09-4.73-0.15-7.03-0.15c-2.38,0-4.48,0.05-6.96,0.15c-0.38-0.29-0.38-1.44,0-1.67
		l1.29-0.25c2.15-0.38,2.43-0.71,2.43-5.1V614.74z M484.24,620.8c0,1.69,0.15,1.83,2.95,1.83c1.72,0,2.72-0.43,3.63-1.33
		c0.81-0.82,1.73-2.35,1.73-5.17c0-4.3-2.54-7.07-6.26-7.07c-1.95,0-1.95,0.16-2.05,2.45V620.8z M442.79,614.74
		c0-4.81-0.1-5.35-2.1-5.63l-1.48-0.18c-0.43-0.24-0.43-1.29,0.09-1.63c3.16-0.25,6.89-0.43,11.04-0.43c4.05,0,6.73,0.48,8.74,1.24
		c2.92,1.1,5.83,3.62,5.83,8.26c0,7.84-7.88,8.97-10.41,8.97c-0.57,0-1.01,0-1.53-0.04c-0.38-0.25-0.48-1-0.15-1.3
		c3.97-1.23,4.78-4.05,4.78-7.59c0-3.54-1.82-7.37-6.12-7.37c-1.77,0-1.86,0.54-1.86,2.45v20.15c0,4.44,0.28,4.78,2.43,5.16
		l1.53,0.24c0.52,0.25,0.52,1.34,0,1.63c-2.68-0.09-5.01-0.15-7.31-0.15c-2.28,0-4.58,0.05-7.16,0.15c-0.53-0.29-0.62-1.38-0.1-1.63
		l1.34-0.24c2.15-0.38,2.44-0.72,2.44-5.16V614.74z M407.92,630.4c0,3.11,0,6.13,0.1,7.71c-0.34,0.57-1.68,1.09-2.82,1.09
		c-0.05,0-1.63-2.44-3.86-5.2l-11.04-13.67c-2.72-3.43-4.34-5.39-5.2-6.11c-0.24,0.47-0.24,1.29-0.24,3.06v9.27
		c0,3.85,0.19,7.45,0.71,8.75c0.44,0.99,1.54,1.27,2.77,1.52l1.35,0.2c0.37,0.37,0.28,1.37,0,1.67c-2.58-0.09-4.49-0.15-6.4-0.15
		c-1.77,0-3.54,0.05-5.36,0.15c-0.28-0.29-0.38-1.3,0-1.67l0.81-0.15c1.3-0.29,2.2-0.58,2.63-1.57c0.48-1.29,0.67-4.89,0.67-8.75
		v-12.14c0-2.63,0-3.4-0.33-4.06c-0.34-0.81-1.05-1.3-2.72-1.62l-1.34-0.18c-0.34-0.4-0.28-1.53,0.18-1.68
		c2.25,0.09,4.64,0.15,6.59,0.15c1.64,0,3.02-0.06,4.02-0.15c0.48,2.15,3.58,5.78,7.88,10.89l4.01,4.73
		c2.15,2.48,3.49,4.14,4.58,5.25c0.2-0.47,0.2-1.29,0.2-2.16v-6.6c0-3.86-0.2-7.44-0.72-8.72c-0.43-1.01-1.48-1.3-2.77-1.54
		l-1.29-0.18c-0.38-0.4-0.28-1.39,0-1.68c2.58,0.09,4.44,0.15,6.39,0.15c1.77,0,3.49-0.06,5.35-0.15c0.29,0.29,0.38,1.28,0,1.68
		l-0.85,0.14c-1.25,0.28-2.16,0.57-2.59,1.58c-0.52,1.28-0.71,4.86-0.71,8.72V630.4z M354.52,619.42c0,1.35,0.05,1.43,1.34,1.43
		h3.29c2.49,0,3.01-0.33,3.54-2.63l0.24-1.18c0.34-0.39,1.53-0.39,1.76,0.05c-0.08,1.53-0.13,3.25-0.13,5.07
		c0,1.8,0.05,3.51,0.13,5.05c-0.23,0.43-1.42,0.48-1.76,0.05l-0.24-1.2c-0.53-2.29-1.05-2.67-3.54-2.67h-3.29
		c-1.29,0-1.34,0.04-1.34,1.47v5.69c0,2.19,0.19,3.73,0.77,4.53c0.61,0.86,1.53,1.25,5,1.25c4.16,0,5.79-0.15,8.41-5.54
		c0.38-0.52,1.57-0.33,1.77,0.24c-0.19,2.48-1.34,6.35-2.01,7.65c-2.53-0.09-7.11-0.15-11.03-0.15h-6.2c-2.3,0-4.64,0.05-8.21,0.15
		c-0.38-0.29-0.38-1.44,0-1.67l2.23-0.34c2.16-0.29,2.44-0.63,2.44-5.02v-17.81c0-4.35-0.28-4.68-2.44-5.08l-1.19-0.22
		c-0.43-0.3-0.38-1.39,0.1-1.68c2.24,0.09,4.59,0.15,6.88,0.15h10.13c3.05,0,5.77-0.06,6.4-0.15c0.05,0.77,0.37,4.21,0.61,7.4
		c-0.19,0.52-1.29,0.63-1.77,0.19c-0.52-1.67-1.2-3.1-1.81-3.77c-0.91-0.9-2.34-1.48-4.69-1.48h-3.82c-1.57,0-1.57,0.1-1.57,1.86
		V619.42z M946.19,491.5c0-16.37-1.39-16.84-8.65-17.92l-2.46-0.3c-1.08-1.09-0.93-3.86,0.31-4.47c5.87,0.3,13.12,0.45,19.91,0.45
		h29.49c9.88,0,18.84-0.16,20.84-0.45c0.63,2.62,1.54,14.81,2.47,21.45c-0.61,1.24-3.7,1.54-4.94,0.61
		c-2.46-8.95-4.78-12.8-9.72-14.04c-3.55-1.09-8.18-1.39-12.35-1.39h-10.35c-6.63,0-6.63,0.3-6.63,9.1v26.09
		c0,4.01,0.15,4.16,3.71,4.16h7.41c13.42,0,16.04-0.15,17.13-6.78l1.08-5.26c1.23-1.08,4.16-1.08,4.94,0.15
		c-0.15,4.18-0.46,9.73-0.46,15.45c0,5.86,0.31,11.27,0.46,16.21c-0.77,1.08-3.71,1.08-4.94,0.16l-1.08-6.19
		c-1.08-6.48-3.71-6.78-17.14-6.78h-7.4c-3.55,0-3.71,0.3-3.71,4.16v19.62c0,7.86,0.31,13.42,2.62,16.04
		c1.85,2.16,4.47,3.4,17.44,3.4c19.62,0.31,23.01-4.17,28.42-16.68c1.38-1.08,4.01-0.62,4.94,0.93c-0.93,6.49-4.32,18.21-6.48,22.39
		c-6.8-0.31-20.08-0.48-38.14-0.48h-17.6c-6.79,0-16.21,0.16-23.16,0.48c-1.23-0.63-1.39-3.4-0.3-4.48l5.7-0.62
		c7.26-0.77,8.65-1.24,8.65-17.6V491.5z M910.68,544.92c0,4.63,0,23.62,0.47,27.17c-1.25,1.7-3.4,2.31-5.26,2.16
		c-2.46-3.25-6.95-8.49-18.06-21.16l-36.11-41.21c-10.05-11.27-14.98-17.13-17.61-19.45c-0.47,0-0.47,1.69-0.47,9.89v30.1
		c0,11.56,0.16,25.78,2.79,30.41c1.4,2.32,4.01,3.24,7.87,3.85l3.39,0.47c1.39,1.07,1.24,4-0.31,4.48
		c-5.71-0.31-11.74-0.48-17.6-0.48c-6.48,0-10.65,0.16-16.05,0.48c-1.23-0.77-1.54-3.4-0.3-4.48l3.39-0.78
		c2.95-0.47,5.72-1.08,6.79-3.55c2.01-4.78,2.01-18.22,2.01-30.41v-36.59c0-12.05,0.15-14.52-5.1-18.99
		c-1.69-1.39-6.01-2.63-8.18-3.09l-2.3-0.46c-1.08-0.94-0.92-4.02,0.61-4.47c5.86,0.61,14.36,0.46,18.21,0.46
		c3.25,0,6.95-0.16,10.66-0.46c2.62,6.63,19.46,26.08,24.86,31.94l15.43,16.69c6.49,7.09,20.86,23.46,22.41,24.39
		c0.46-0.47,0.46-1.24,0.46-3.71v-30.1c0-11.59-0.16-25.79-2.94-30.41c-1.38-2.32-3.86-3.25-7.72-3.86l-3.55-0.46
		c-1.39-1.09-1.23-4.02,0.31-4.47c6.02,0.3,11.75,0.46,17.76,0.46c6.64,0,10.66-0.16,16.21-0.46c1.25,0.76,1.54,3.39,0.31,4.47
		l-3.55,0.76c-2.93,0.47-5.56,1.09-6.64,3.56c-2.16,4.79-2.16,18.22-2.16,30.41V544.92z M742.71,533.34c-4.02,0-3.86,0-5.25,4.17
		l-6.33,18.53c-3.09,9.1-2.46,9.57,3.23,10.34l4.48,0.78c1.09,1.07,0.94,3.85-0.31,4.48c-4.94-0.31-10.03-0.31-16.36-0.48
		c-5.1,0-9.89,0.16-15.29,0.48c-1.08-0.77-1.23-3.09-0.15-4.48l4.63-0.78c4.48-0.61,6.16-2.01,8.48-7.1
		c1.87-4.02,4.32-10.51,7.57-18.84l21.15-54.96c2-4.94,3.39-8.65,2.93-11.27c5.41-1.08,10.5-7.41,10.81-7.41
		c1.23,0,2,0.47,2.63,1.23c2.46,6.94,4.47,14.2,6.95,21.15l22.22,64.68c3.56,10.34,4.33,11.42,12.2,12.81l2.31,0.47
		c1.24,1.07,1.24,3.7,0.16,4.48c-6.33-0.31-12.04-0.48-20.07-0.48c-6.63,0-13.42,0.31-18.83,0.48c-1.23-0.77-1.38-3.55-0.46-4.48
		l3.4-0.47c5.54-0.61,6.01-1.54,4.02-8.18l-7.27-21c-1.54-4.17-2-4.17-6.33-4.17H742.71z M761.23,526.39c4.34,0,4.95-0.31,3.72-4.01
		l-6.49-18.53c-2.63-8.18-3.55-11.12-4.32-12.2h-0.31c-0.62,1.08-1.87,4.94-4.63,12.2l-6.49,18.06c-1.69,4.47-1.24,4.47,2.47,4.47
		H761.23z M649.47,482.23c0-6.49-0.15-6.79-4.18-6.79h-8.65c-14.21,0-18.37,1.69-24.08,14.2c-1.08,0.93-4.33,0.46-4.94-1.07
		c2.62-8.34,4.94-17.92,6.01-23.32c0.32-0.46,0.93-0.61,1.71-0.61c0.61,0,1.22,0.15,1.54,0.61c0.77,3.86,2.94,4.02,13.43,4.02h62.99
		c7.56,0,9.88-0.45,11.73-4.02c0.61-0.31,1.24-0.61,1.85-0.61c0.94,0,1.7,0.31,2.01,0.77c-1.54,6.33-2.79,19.61-2.31,24.55
		c-0.79,1.24-3.4,1.55-4.8,0.46c-2-12.04-4.94-14.97-21.44-14.97h-8.81c-4.01,0-4.16,0.3-4.16,6.79v66.7
		c0,16.37,1.38,16.84,8.64,17.6l5.56,0.62c1.07,1.07,0.92,3.85-0.32,4.48c-8.93-0.31-15.88-0.48-22.68-0.48
		c-6.8,0-14.06,0.16-23.93,0.48c-1.23-0.63-1.39-3.72-0.31-4.48l6.49-0.78c7.26-0.61,8.65-1.08,8.65-17.45V482.23z M586.95,548.93
		c0,16.37,1.38,16.84,8.64,17.75l3.4,0.47c1.08,1.07,0.93,3.85-0.31,4.48c-6.8-0.31-13.75-0.48-20.54-0.48
		c-6.79,0-14.03,0.16-20.83,0.48c-1.24-0.63-1.39-3.4-0.31-4.48l3.4-0.47c7.26-0.91,8.65-1.38,8.65-17.75V491.5
		c0-16.37-1.39-16.84-8.65-17.76l-3.4-0.46c-1.07-1.09-0.92-3.86,0.31-4.47c6.8,0.3,13.73,0.46,20.83,0.46
		c6.79,0,13.75-0.16,20.54-0.46c1.23,0.61,1.39,3.39,0.31,4.47l-3.4,0.46c-7.25,0.92-8.64,1.39-8.64,17.76V548.93z M545.26,495.2
		c-1.09,1.23-3.86,1.39-4.94,0.31c-2.62-9.72-9.57-22.55-29.95-22.55c-19.6,0-39.37,13.89-39.37,45.54
		c0.01,32.89,20.53,48.94,40.44,48.94c19.46,0,27.95-12.98,32.27-23c1.4-1.38,3.86-0.78,4.64,0.62
		c-1.08,10.33-5.25,20.53-7.42,23.46c-1.84,0.31-3.7,0.93-5.4,1.38c-3.39,1.08-14.05,3.71-24.09,3.71
		c-15.27,0-28.41-3.08-39.52-10.33c-12.5-8.19-21.91-22.23-21.91-42.46c0-18.06,8.02-32.11,19.45-40.9
		c11.42-8.65,27.01-13.13,42.61-13.13c8.8,0,19.46,1.54,26.71,3.39c1.85,0.46,2.94,0.61,4.32,0.93
		C543.41,474.67,543.72,483.77,545.26,495.2z M438.13,495.2c-1.08,1.23-3.87,1.39-4.95,0.31c-2.63-9.72-9.57-22.55-29.95-22.55
		c-19.61,0-39.37,13.89-39.37,45.54c0,32.89,20.54,48.94,40.46,48.94c19.45,0,27.94-12.98,32.26-23c1.39-1.38,3.86-0.78,4.63,0.62
		c-1.07,10.33-5.25,20.53-7.4,23.46c-1.86,0.31-3.71,0.93-5.41,1.38c-3.4,1.08-14.05,3.71-24.07,3.71
		c-15.29,0-28.41-3.08-39.53-10.33c-12.5-8.19-21.92-22.23-21.92-42.46c0-18.06,8.03-32.11,19.45-40.9
		c11.42-8.65,27.02-13.13,42.61-13.13c8.8,0,19.44,1.54,26.7,3.39c1.86,0.46,2.94,0.61,4.33,0.93
		C436.28,474.67,436.58,483.77,438.13,495.2z M191.86,508.84c0-38.61,28.94-68.13,68.69-68.13c44.58,0,66.96,32.24,66.96,66.2
		c0,38.98-29.72,67.35-66.96,67.35C217.71,574.25,191.86,543.55,191.86,508.84z M308.22,512.88c0-31.84-14.08-66.2-50.95-66.2
		c-20.07,0-46.11,13.7-46.11,55.96c0,28.58,13.89,65.62,51.9,65.62C286.22,568.26,308.22,550.89,308.22,512.88z M175.26,478.98
		c0,11.75-10.49,20.39-21.15,23.02c-1.23-0.93-1.54-2.78-1.08-4.03c6.65-2.77,12.51-7.25,12.51-14.04c0-5.1-4.64-7.56-8.34-8.02
		c-2.32-0.31-4.79-2.17-4.79-5.57c0-2.62,1.86-7.26,8.8-7.26C168.79,463.08,175.26,470.5,175.26,478.98z M94.52,545.69
		c0,7.72,0.31,13.27,2.63,15.9c1.85,2.16,4.31,3.4,16.67,3.4c17.13,0,19.61-0.78,26.71-16.68c1.54-0.77,4.01-0.31,4.78,0.93
		c-1.24,6.49-4.64,18.21-6.48,22.39c-6.48-0.31-19.76-0.48-37.05-0.48H85.72c-7.88,0-15.6,0.16-22.08,0.48
		c-1.24-0.63-1.7-3.72-0.31-4.48l4.64-0.78c7.25-0.93,8.64-1.39,8.64-17.45V491.5c0-16.06-1.39-16.53-8.64-17.6l-4.33-0.61
		c-1.08-0.78-1.08-3.86,0.32-4.47c7.7,0.3,14.65,0.46,21.75,0.46c6.8,0,13.74-0.16,20.54-0.46c1.39,0.61,1.54,3.7,0.31,4.47
		l-3.4,0.61c-7.26,1.07-8.65,1.54-8.65,17.6V545.69z"/>
</g>
</svg>
