<?xml version="1.0" encoding="utf-8"?>
<!-- Generator: Adobe Illustrator 26.5.0, SVG Export Plug-In . SVG Version: 6.00 Build 0)  -->
<svg version="1.1" id="Layer_1" xmlns="http://www.w3.org/2000/svg" xmlns:xlink="http://www.w3.org/1999/xlink" x="0px" y="0px"
	 viewBox="0 0 1080 1080" style="enable-background:new 0 0 1080 1080;" xml:space="preserve">
<style type="text/css">
	.st0{fill-rule:evenodd;clip-rule:evenodd;}
	.st1{fill:#ED1C24;}
	.st2{fill:#E1251B;}
	.st3{fill-rule:evenodd;clip-rule:evenodd;fill:#16397B;}
	.st4{fill:#EE2745;}
	
		.st5{clip-path:url(#SVGID_00000061444566740550161520000009902816075408140468_);fill:url(#SVGID_00000088128781379960079220000005821947284357917592_);}
	
		.st6{clip-path:url(#SVGID_00000163073409853286351130000010679190002728987053_);fill:url(#SVGID_00000173846530115549576760000002940280262277399945_);}
	
		.st7{clip-path:url(#SVGID_00000151511834287497975330000013615775329528285339_);fill:url(#SVGID_00000068668406195466111680000013010863684814367407_);}
	
		.st8{clip-path:url(#SVGID_00000116194304789727376320000004494824369914505371_);fill:url(#SVGID_00000104702848447773976230000000388232032530304149_);}
	.st9{fill:#424243;}
	
		.st10{clip-path:url(#SVGID_00000103963142199852795580000015478311903827058828_);fill:url(#SVGID_00000160150822914230271060000012017205911653129639_);}
	.st11{fill:#FFFFFF;}
	
		.st12{clip-path:url(#SVGID_00000003089252143396687280000009703491677928842914_);fill:url(#SVGID_00000034075121429571480740000001172625988746605481_);}
	
		.st13{clip-path:url(#SVGID_00000108994235080930633500000000563567901991049402_);fill:url(#SVGID_00000097500878391959021520000013776497162475317661_);}
	
		.st14{clip-path:url(#SVGID_00000080186114880690315780000006004877081752712105_);fill:url(#SVGID_00000146468111674927416690000011365099523792226453_);}
	
		.st15{clip-path:url(#SVGID_00000083048024530076710390000010585984479493759934_);fill:url(#SVGID_00000139982743440091972930000006761894420669916825_);}
	
		.st16{clip-path:url(#SVGID_00000175288593781799377040000003664444347133426054_);fill:url(#SVGID_00000152246404877939455050000007952874698027620785_);}
	
		.st17{clip-path:url(#SVGID_00000016784803672531282230000016834158447745108352_);fill:url(#SVGID_00000085239502669812036610000007635661383839067785_);}
	
		.st18{clip-path:url(#SVGID_00000146489077579780637680000018103554799147875986_);fill:url(#SVGID_00000003817791694428210450000006470195386200218006_);}
	.st19{fill-rule:evenodd;clip-rule:evenodd;fill:#C8202F;}
	.st20{fill-rule:evenodd;clip-rule:evenodd;fill:#FFFFFF;}
	.st21{fill-rule:evenodd;clip-rule:evenodd;fill:#F98238;}
	.st22{filter:url(#Adobe_OpacityMaskFilter);}
	.st23{fill:url(#SVGID_00000142155364017157064660000003092285815856061370_);}
	.st24{mask:url(#SVGID_00000107564069394145922740000002432987307702225317_);fill-rule:evenodd;clip-rule:evenodd;fill:#ED1C24;}
	.st25{fill-rule:evenodd;clip-rule:evenodd;fill:#F5333F;}
	.st26{fill-rule:evenodd;clip-rule:evenodd;fill:#ED1C24;}
	.st27{fill-rule:evenodd;clip-rule:evenodd;fill:#F9A46E;}
	.st28{fill-rule:evenodd;clip-rule:evenodd;fill:#F47B26;}
	.st29{fill-rule:evenodd;clip-rule:evenodd;fill:#EB5433;}
	.st30{fill:#1A3282;}
	.st31{fill-rule:evenodd;clip-rule:evenodd;fill:#1A3282;}
	.st32{fill-rule:evenodd;clip-rule:evenodd;fill:#9D9FA2;}
	.st33{fill-rule:evenodd;clip-rule:evenodd;fill:#000303;}
	.st34{fill:#64003D;}
	.st35{fill:#536270;}
	.st36{fill-rule:evenodd;clip-rule:evenodd;fill:#64003D;}
	.st37{fill-rule:evenodd;clip-rule:evenodd;fill:#536270;}
	.st38{fill-rule:evenodd;clip-rule:evenodd;fill:#1A3382;}
	.st39{fill-rule:evenodd;clip-rule:evenodd;fill:#29387E;}
	.st40{fill-rule:evenodd;clip-rule:evenodd;fill:#F37021;}
	.st41{fill-rule:evenodd;clip-rule:evenodd;fill:#005C32;}
	.st42{fill-rule:evenodd;clip-rule:evenodd;fill:#D2AB67;}
	
		.st43{clip-path:url(#SVGID_00000174572359723113279530000002182178909526841273_);fill:url(#SVGID_00000080894650184401757050000015036040143895997836_);}
	
		.st44{clip-path:url(#SVGID_00000143588727128969707510000015376017242718965897_);fill:url(#SVGID_00000097487182397490564870000012923131862111569284_);}
	
		.st45{clip-path:url(#SVGID_00000104699535334883388600000013913075938242463885_);fill:url(#SVGID_00000136403189199216220780000003339083933830895033_);}
	.st46{fill-rule:evenodd;clip-rule:evenodd;fill:#00AEEF;}
	.st47{fill-rule:evenodd;clip-rule:evenodd;fill:#EC008C;}
	.st48{fill-rule:evenodd;clip-rule:evenodd;fill:#FFF200;}
	.st49{fill:#A7AAAC;}
	.st50{fill-rule:evenodd;clip-rule:evenodd;fill:#5C5B5B;}
	.st51{fill:#9D9D9F;}
	.st52{fill:#F04D23;}
	.st53{fill-rule:evenodd;clip-rule:evenodd;fill:#2E3192;}
	.st54{fill-rule:evenodd;clip-rule:evenodd;fill:#C4312D;}
	.st55{fill:#552715;}
	.st56{fill:#010101;}
	.st57{fill:#E31E2E;}
	.st58{fill:url(#SVGID_00000073705890618899976890000004536770011705596042_);}
	.st59{fill:url(#SVGID_00000176007255019349206510000011211670572285359763_);}
	.st60{clip-path:url(#SVGID_00000078735165354173646180000016706997544894819752_);}
	.st61{clip-path:url(#SVGID_00000141456916158092800320000003503707932278271619_);}
	.st62{clip-path:url(#SVGID_00000148636900576534466820000000717541019330380469_);}
	.st63{clip-path:url(#SVGID_00000148648425817490229880000016319271039509782912_);}
	.st64{clip-path:url(#SVGID_00000072281766719908080150000009923813489620809405_);}
	.st65{clip-path:url(#SVGID_00000049197985987503449980000006820832269503086012_);}
	.st66{clip-path:url(#SVGID_00000022523728570801799620000012087599648153331877_);}
	.st67{clip-path:url(#SVGID_00000057829398503283343860000011899735557676971444_);}
	.st68{clip-path:url(#SVGID_00000081648990126547214110000015818370377394782888_);}
	.st69{clip-path:url(#SVGID_00000173143124433866713990000001627948909874413702_);}
	.st70{clip-path:url(#SVGID_00000178179510117864313300000013643213872800476312_);}
	.st71{fill:#2650A1;}
	.st72{fill:url(#SVGID_00000129901190271486709640000012804387229708275640_);}
	.st73{fill:#FEFEFE;}
	.st74{fill:#FDFDFD;}
	.st75{fill:#FCFCFC;}
	.st76{fill:#FBFBFB;}
	.st77{fill:#FAFAFA;}
	.st78{fill:#F9F9F9;}
	.st79{fill:#F8F8F8;}
	.st80{fill:#F7F7F7;}
	.st81{fill:#F6F6F6;}
	.st82{fill:#F5F5F5;}
	.st83{fill:#F4F4F4;}
	.st84{fill:#F3F3F3;}
	.st85{fill:#F2F2F2;}
	.st86{fill:#F1F1F1;}
	.st87{fill:#F0F0F0;}
	.st88{fill:#EFEFEF;}
	.st89{fill:#EEEEEE;}
	.st90{fill:#EDEDED;}
	.st91{fill:#ECECEC;}
	.st92{fill:#EBEBEB;}
	.st93{fill:#EAEAEA;}
	.st94{fill:#E9E9E9;}
	.st95{fill:#E8E8E8;}
	.st96{fill:#E7E7E7;}
	.st97{fill:#E6E6E6;}
	.st98{fill:#E5E5E5;}
	.st99{fill:#E4E4E4;}
	.st100{fill:#E3E3E3;}
	.st101{fill:#E2E2E2;}
	.st102{fill:#E1E1E1;}
	.st103{fill:#E0E0E0;}
	.st104{fill:#DFDFDF;}
	.st105{fill:#DEDEDE;}
	.st106{fill:#DDDDDD;}
	.st107{fill:#DCDCDC;}
	.st108{fill:#DBDBDB;}
	.st109{fill:#DADADA;}
	.st110{fill:#D9D9D9;}
	.st111{fill:#D92231;}
	.st112{fill:url(#SVGID_00000138567811692719421770000004963009993236463287_);}
	.st113{fill:url(#SVGID_00000030460487625203656230000017475616189029724565_);}
	.st114{opacity:0.8;}
	.st115{fill:url(#SVGID_00000127727932333915045270000011498673511261540489_);}
	.st116{fill:url(#SVGID_00000179605536610112868900000003883639256075524767_);}
	.st117{fill-rule:evenodd;clip-rule:evenodd;fill:#010101;}
	.st118{fill:#80A845;}
	.st119{fill-rule:evenodd;clip-rule:evenodd;fill:#80A845;}
	.st120{fill:url(#SVGID_00000054948811056898639340000018281544650873112476_);}
	.st121{fill-rule:evenodd;clip-rule:evenodd;fill:#04984A;}
	.st122{fill-rule:evenodd;clip-rule:evenodd;fill:url(#SVGID_00000160178678047824091410000015679161360336916637_);}
	.st123{fill:url(#SVGID_00000173868891186436318320000001711984480463925694_);}
	.st124{fill:url(#SVGID_00000133527672383530359340000005608726154403678622_);}
	.st125{fill:url(#SVGID_00000016757659042543233800000011195436390586235531_);}
	.st126{fill:url(#SVGID_00000053532849774986965890000017542371417035043209_);}
	.st127{fill:url(#SVGID_00000130642998707413644930000016348515985839242906_);}
	.st128{fill:url(#SVGID_00000178196452323821579020000017996855629208638598_);}
	.st129{fill:url(#SVGID_00000134228816469941825460000010538157948600753836_);}
	.st130{fill:url(#SVGID_00000016778964466199766930000004092770726233724841_);}
	.st131{fill:url(#SVGID_00000002344459888386330960000010475291898836519326_);}
	.st132{fill:url(#SVGID_00000019654343372484066460000013419930602499678112_);}
	.st133{fill:url(#SVGID_00000009574205019711530060000014912246840155381947_);}
	.st134{fill:url(#SVGID_00000183213204396406509560000008023579665703143084_);}
	.st135{fill:url(#SVGID_00000080918647400938119440000014365517344980035982_);}
	.st136{fill:url(#SVGID_00000044863353648049087200000007331642347215788190_);}
	.st137{fill-rule:evenodd;clip-rule:evenodd;fill:url(#SVGID_00000166671552858707615020000004003481189052724643_);}
	.st138{fill:#0A529D;}
	.st139{fill:url(#SVGID_00000016764576526307647420000008844823474128681641_);}
	.st140{fill:url(#SVGID_00000059271056390359843950000007297596992811725996_);}
	.st141{fill:url(#SVGID_00000145056972379565310030000002315644619286757264_);}
	.st142{fill:url(#SVGID_00000178904404150305708480000013495621335919988616_);}
	.st143{fill:url(#SVGID_00000181075768885213654460000017754721021828932245_);}
	.st144{fill:url(#SVGID_00000101784730805753940740000014438603276016956595_);}
	.st145{fill:url(#SVGID_00000147207597457900153380000008354847878887517100_);}
	.st146{fill:url(#SVGID_00000137826326258892034100000006472327788602444427_);}
	.st147{fill:url(#SVGID_00000123412377080814864450000015704071266856754108_);}
	.st148{fill:url(#SVGID_00000030464975637743289020000007901787668417420416_);}
	.st149{fill:url(#SVGID_00000011722808312950562080000001063683284487193230_);}
	.st150{fill:url(#SVGID_00000183953352939430436910000014167504702531504059_);}
	.st151{fill-rule:evenodd;clip-rule:evenodd;fill:url(#SVGID_00000133500219422117640430000016197057999332210614_);}
	.st152{fill:url(#SVGID_00000127026335092592447370000007554889514898334624_);}
	.st153{fill:url(#SVGID_00000083063144897673860530000018426688435512227252_);}
	.st154{fill:url(#SVGID_00000077286251658748345930000002009026400662642349_);}
	.st155{fill:url(#SVGID_00000113337226734070418920000017489310130164942749_);}
	.st156{fill:url(#SVGID_00000056403191844039335300000012490231358058530220_);}
	.st157{fill:url(#SVGID_00000026841543913893333760000006387015930679009412_);}
	.st158{fill:url(#SVGID_00000178925465632499587020000012129478126736007091_);}
	.st159{fill:url(#SVGID_00000114038240903827635170000010039812283187232433_);}
	.st160{fill:url(#SVGID_00000069397867905074026050000017580800656692070836_);}
	.st161{fill:url(#SVGID_00000081647901618767606770000015678515307233024662_);}
	.st162{fill:url(#SVGID_00000088840705137572383180000009639794722187192457_);}
	.st163{fill:url(#SVGID_00000103976873085750598140000007348103936090258326_);}
	.st164{fill:url(#SVGID_00000100348490623679742040000017973348370516981171_);}
	.st165{fill:url(#SVGID_00000000191804858815087750000001137368404806629766_);}
	.st166{fill:url(#SVGID_00000053532366459046369080000014800068691170137503_);}
	.st167{fill:url(#SVGID_00000153685679231095121910000008623149263229311403_);}
	.st168{fill:url(#SVGID_00000075846936638193736850000001392713854649720979_);}
	.st169{fill-rule:evenodd;clip-rule:evenodd;fill:url(#SVGID_00000029039400531040671520000000263869284569289398_);}
	.st170{fill:url(#SVGID_00000144321921141538935820000011109913074566766235_);}
	.st171{fill:url(#SVGID_00000163061928614791526300000015206338404753213576_);}
	.st172{fill:url(#SVGID_00000171699171709296991660000016372404644814503301_);}
	.st173{fill:url(#SVGID_00000180360222669807863160000014423565656451418015_);}
	.st174{fill:url(#SVGID_00000127033340666258484540000015070484551152304784_);}
	.st175{fill:url(#SVGID_00000096023129101487670630000007743339270418844589_);}
	.st176{fill:url(#SVGID_00000134955666553489722970000013614184857140545721_);}
	.st177{fill:url(#SVGID_00000145052381422135201360000008144478824402700438_);}
	.st178{fill:url(#SVGID_00000132793934788959667380000010585872685900900501_);}
	.st179{fill:url(#SVGID_00000005948258877252509650000000928918792641275274_);}
	.st180{fill:url(#SVGID_00000142139779830691017260000014870900559432540345_);}
	.st181{fill:url(#SVGID_00000053519555328127077170000014479986592253131958_);}
	.st182{fill:url(#SVGID_00000025431410782514045620000004453260290796538245_);}
	.st183{fill:url(#SVGID_00000178190166677623721590000003882423666642067854_);}
	.st184{fill-rule:evenodd;clip-rule:evenodd;fill:url(#SVGID_00000016034632388753434720000006059923152658739355_);}
	.st185{fill:url(#SVGID_00000015316474703707726120000012401667019772369562_);}
	.st186{fill:url(#SVGID_00000096043555792919478170000014844934248783578555_);}
	.st187{fill:url(#SVGID_00000119119556874764258780000013280333120162220938_);}
	.st188{fill:url(#SVGID_00000109029082999994300870000012119434981324232346_);}
	.st189{fill:url(#SVGID_00000170996608537260970110000011631230740178429884_);}
	.st190{fill:url(#SVGID_00000080928151985112893700000013977671717606092474_);}
	.st191{fill:url(#SVGID_00000042733933522762535290000018440246776949508480_);}
	.st192{fill:url(#SVGID_00000048497701379289365530000014669528491747797385_);}
	.st193{fill:url(#SVGID_00000007404322175498465040000011615575224751810724_);}
	.st194{fill:url(#SVGID_00000086694095498748769450000013708211499639089302_);}
	.st195{fill:url(#SVGID_00000058577075148171714430000013829837354779875228_);}
	.st196{fill:url(#SVGID_00000052091274894744366550000008550201454255918986_);}
	.st197{fill:url(#SVGID_00000108304779939559690960000005426950931470874012_);}
	.st198{fill:url(#SVGID_00000063612097245528791330000005034078001622078130_);}
	.st199{fill:url(#SVGID_00000142177367433842118890000009433863082158690236_);}
	.st200{fill:url(#SVGID_00000163030411799117858320000013015650615115278011_);}
	.st201{fill:url(#SVGID_00000025440665951382700420000002759554815344721796_);}
	.st202{fill:url(#SVGID_00000176765821384596748250000004263849703571646594_);}
	.st203{fill:url(#SVGID_00000106132811363219289500000000568491461586081709_);}
	.st204{fill-rule:evenodd;clip-rule:evenodd;fill:url(#SVGID_00000160180000367308991440000011872750856770088862_);}
	.st205{fill:url(#SVGID_00000158740572395023583020000007307405364310394519_);}
	.st206{fill:url(#SVGID_00000042734331809870889020000003462235972493477822_);}
	.st207{fill:url(#SVGID_00000168111240825010211210000006127177860413366941_);}
	.st208{fill:url(#SVGID_00000140002406619766180610000012776160892581641878_);}
	.st209{fill:url(#SVGID_00000165955052970756281610000006746755931444773775_);}
	.st210{fill:url(#SVGID_00000165199367695845259410000012577860411009599391_);}
	.st211{fill:url(#SVGID_00000134941486600482680300000016429416077743264435_);}
	.st212{fill:url(#SVGID_00000093886128437271476730000010079714573165279397_);}
	.st213{fill:url(#SVGID_00000009561716670334810540000002679917986917231023_);}
	.st214{fill:url(#SVGID_00000147903064027454484000000013501511754012324737_);}
	.st215{fill:url(#SVGID_00000138572477379507503690000011135145322579618471_);}
	.st216{fill:url(#SVGID_00000083779671061943118930000011572141266746525569_);}
	.st217{fill:url(#SVGID_00000152240434201084362490000004642154748481048720_);}
	.st218{fill:url(#SVGID_00000064356396957757623680000014609599419956556215_);}
	.st219{fill:url(#SVGID_00000057142354145092424750000013240227237556057482_);}
	.st220{fill:url(#SVGID_00000003819873048183292700000013586811613064389513_);}
	.st221{fill-rule:evenodd;clip-rule:evenodd;fill:url(#SVGID_00000107580850609000651500000004806804974234095036_);}
	.st222{fill:url(#SVGID_00000160176204155161681630000007010184067154570890_);}
	.st223{fill:url(#SVGID_00000146474677760667618900000008446554852920215976_);}
	.st224{fill:url(#SVGID_00000049202253960401984690000015088109053542207155_);}
	.st225{fill:url(#SVGID_00000130637320333658845680000015355740932534781837_);}
	.st226{fill:url(#SVGID_00000047755635792289462890000011060537649477435301_);}
	.st227{fill:url(#SVGID_00000174594535342137712610000003943637135827733137_);}
	.st228{fill:url(#SVGID_00000005231996337506650290000017021233227887665029_);}
	.st229{fill:url(#SVGID_00000081609449980304424730000014366316128722589568_);}
	.st230{fill:url(#SVGID_00000165215532609291610390000017499571216981918123_);}
	.st231{fill:url(#SVGID_00000164475419841719945610000013631927951776205498_);}
	.st232{fill:url(#SVGID_00000090275745915576322130000014052245742616628614_);}
	.st233{fill:url(#SVGID_00000120558562975566979060000011449982383803553724_);}
	.st234{fill:url(#SVGID_00000012442432426063616280000006340558563196782262_);}
	.st235{fill:url(#SVGID_00000093859574049167801580000018037544752289919125_);}
	.st236{fill:url(#SVGID_00000083061078709328917210000017722721627424022194_);}
	.st237{fill-rule:evenodd;clip-rule:evenodd;fill:url(#SVGID_00000145019594136312692690000006579059749095058307_);}
	.st238{fill:url(#SVGID_00000096022114924995322570000012432420844845954725_);}
	.st239{fill:url(#SVGID_00000111880073899501909790000004432200852159957164_);}
	.st240{fill:url(#SVGID_00000108303470872099903120000002417343812294555521_);}
	.st241{fill:url(#SVGID_00000178903850428697964330000010764839715876368825_);}
	.st242{fill:url(#SVGID_00000181777359276638102240000008679550968090625204_);}
	.st243{fill:url(#SVGID_00000030467266442993526750000005006056830320535194_);}
	.st244{fill:url(#SVGID_00000017478422851272175840000012238306036813637052_);}
	.st245{fill:url(#SVGID_00000095311817242268858920000006301313064710504835_);}
	.st246{fill:url(#SVGID_00000055702353854338923530000005238728425029504644_);}
	.st247{fill:url(#SVGID_00000072256443184481316530000007488354224139751333_);}
	.st248{fill:url(#SVGID_00000073002024577707315200000009598032592515140263_);}
	.st249{fill:url(#SVGID_00000001628126677927907110000016658074590838999721_);}
	.st250{fill:url(#SVGID_00000146475011564427746950000018139838688146696092_);}
	.st251{fill:url(#SVGID_00000031181640867725761550000005772498740879188411_);}
	.st252{fill:url(#SVGID_00000183950764081385484360000003971620937374074509_);}
	.st253{fill-rule:evenodd;clip-rule:evenodd;fill:url(#SVGID_00000116203296789549118770000007032278591068267704_);}
	.st254{fill:url(#SVGID_00000099652870208539458410000012261754095025384072_);}
	.st255{fill:url(#SVGID_00000074410113994592657780000004701447359675125174_);}
	.st256{fill:url(#SVGID_00000027607028386408919400000013834143794500841912_);}
	.st257{fill:url(#SVGID_00000061461787309238698080000017688580048614682804_);}
	.st258{fill:url(#SVGID_00000014634008415109973480000005538942095298386562_);}
	.st259{fill:url(#SVGID_00000124869496882611250930000005497609043004525479_);}
	.st260{fill:url(#SVGID_00000106849156019707421790000006329484806660985240_);}
	.st261{fill:url(#SVGID_00000094608610524258638860000016242466388362256292_);}
	.st262{fill:url(#SVGID_00000030462917355787108560000001233147814526295715_);}
	.st263{fill:url(#SVGID_00000151544016479526347960000012272734398959138952_);}
	.st264{fill:url(#SVGID_00000142151533902320321200000003846803295418628744_);}
	.st265{fill:url(#SVGID_00000106842787759361652080000001118719567101009076_);}
	.st266{fill:url(#SVGID_00000010291861314654661110000003506099273502983850_);}
	.st267{fill:url(#SVGID_00000056413583037440782480000000019219351450929570_);}
	.st268{fill:url(#SVGID_00000071553665496256410710000016262786644292218249_);}
	.st269{fill-rule:evenodd;clip-rule:evenodd;fill:url(#SVGID_00000176024745675119452210000011409188452945150875_);}
	.st270{fill:url(#SVGID_00000059292595789358821020000012196870574082817442_);}
	.st271{fill:url(#SVGID_00000103972956931151322230000008625482428863423418_);}
	.st272{fill:url(#SVGID_00000178175819518072655890000006612954125325820837_);}
	.st273{fill:url(#SVGID_00000084525251354403929400000000569300156494450578_);}
	.st274{fill:url(#SVGID_00000006699801730214905320000013852613644320852147_);}
	.st275{fill:url(#SVGID_00000154422630913928524960000011528572901814773398_);}
	.st276{fill:url(#SVGID_00000082349850954340996310000003154028642134514361_);}
	.st277{fill:url(#SVGID_00000003068315658541274660000002488831693983167623_);}
	.st278{fill:url(#SVGID_00000169547860641364419950000002408145744662834081_);}
	.st279{fill:url(#SVGID_00000002384789257160126850000008445849387609406602_);}
	.st280{fill:url(#SVGID_00000024700689194051160230000017914726543508158901_);}
	.st281{fill:url(#SVGID_00000051378936322590674910000014459220442753075584_);}
	.st282{fill:url(#SVGID_00000006666457782582644510000007574057969223346327_);}
	.st283{fill:url(#SVGID_00000117639734515177049200000002679561555403104164_);}
	.st284{fill:url(#SVGID_00000165924849631022139440000011181557883524130966_);}
	.st285{fill-rule:evenodd;clip-rule:evenodd;fill:url(#SVGID_00000085928795317731778490000013716217341712418980_);}
	.st286{fill:url(#SVGID_00000178204285706833092470000003907817235469458065_);}
	.st287{fill:url(#SVGID_00000036953744301795543490000011339577526376284803_);}
	.st288{fill:url(#SVGID_00000093899324978775700740000014358502156262650000_);}
	.st289{fill:url(#SVGID_00000000938774077901648480000013264052100972463276_);}
	.st290{fill:url(#SVGID_00000054961711232317602470000015419767945328231041_);}
	.st291{fill:url(#SVGID_00000077302777419564504760000006840017011978908347_);}
	.st292{fill:url(#SVGID_00000146458115651126133920000006367063128104380324_);}
	.st293{fill:url(#SVGID_00000156553258589871433380000000514482027186662842_);}
	.st294{fill:url(#SVGID_00000129925437846215452970000010065568121548717446_);}
	.st295{fill:url(#SVGID_00000156552251451625573500000001680529582559560608_);}
	.st296{fill:url(#SVGID_00000125566447419224320630000016183275191788724864_);}
	.st297{fill:url(#SVGID_00000083781794095386343760000011916380048872049582_);}
	.st298{fill:url(#SVGID_00000066489190155148062510000001799342189455722666_);}
	.st299{fill:url(#SVGID_00000139979699363543872000000009086693887941308350_);}
	.st300{fill:url(#SVGID_00000096775385461969092280000012110520789932580775_);}
	.st301{fill:url(#SVGID_00000121242450606349130970000004959855958646192769_);}
	.st302{fill:url(#SVGID_00000174599975268891679850000007089042889349666494_);}
	.st303{fill:url(#SVGID_00000161598677795367833290000007694942564008670139_);}
	.st304{fill-rule:evenodd;clip-rule:evenodd;fill:url(#SVGID_00000085244047804809734320000007847472909364216757_);}
	.st305{fill:url(#SVGID_00000145774700653496628300000011936406321404676531_);}
	.st306{fill:url(#SVGID_00000104684804188228568870000016794245406918764420_);}
	.st307{fill:url(#SVGID_00000158007168651877628830000008309363250951096481_);}
	.st308{fill:url(#SVGID_00000119110588266607069010000010564621029441253528_);}
	.st309{fill:url(#SVGID_00000012437418811418152590000010772538688790404543_);}
	.st310{fill:url(#SVGID_00000084503848850056213440000017816611658672077222_);}
	.st311{fill:url(#SVGID_00000115503912367385414300000017188280137867514554_);}
	.st312{fill:url(#SVGID_00000157283625495319755480000003822376360646965890_);}
	.st313{fill:url(#SVGID_00000145763571937028346230000015548413895712493718_);}
	.st314{fill:url(#SVGID_00000077298212661158985320000013841461470832534676_);}
	.st315{fill:url(#SVGID_00000119077297923898747830000001994678925777485734_);}
	.st316{fill:url(#SVGID_00000178199743283314222660000016400220742259927459_);}
	.st317{fill:url(#SVGID_00000113353019165452970950000008314859610589940152_);}
	.st318{fill:url(#SVGID_00000179622460555091953760000004052625984814203554_);}
	.st319{fill:url(#SVGID_00000036973758663077090050000002358311267327579055_);}
	.st320{fill:url(#SVGID_00000098182776857823033790000011528412126673092261_);}
	.st321{fill:url(#SVGID_00000150810549389898312850000007899567893476582558_);}
	.st322{fill:url(#SVGID_00000134210078758849460290000003125338750728986282_);}
	.st323{fill:url(#SVGID_00000155849101478402995780000006315668788835577512_);}
	.st324{fill:url(#SVGID_00000085218371223515598910000017822824259744064671_);}
	.st325{fill-rule:evenodd;clip-rule:evenodd;fill:url(#SVGID_00000154389753105466240310000011868096859986807487_);}
	.st326{fill:url(#SVGID_00000060018580872651885560000009799748910661688748_);}
	.st327{fill:url(#SVGID_00000155120108292754946290000010869237619556990088_);}
	.st328{fill:url(#SVGID_00000150097088257223444560000010677390845156164508_);}
	.st329{fill:url(#SVGID_00000026861623251536885930000018365808077272620723_);}
	.st330{fill:url(#SVGID_00000038385044511915660470000010175707785023401356_);}
	.st331{fill:url(#SVGID_00000083774907476489917980000004467251580593227144_);}
	.st332{fill:url(#SVGID_00000183211426512292710420000010970765505751380629_);}
	.st333{fill:url(#SVGID_00000042694300668198006640000014485554353506660260_);}
	.st334{fill:url(#SVGID_00000006672509186576578380000017797937830437415101_);}
	.st335{fill:url(#SVGID_00000073683892883881676930000005573578517278426031_);}
	.st336{fill:url(#SVGID_00000053506664323123988140000009404350860339152317_);}
	.st337{fill:url(#SVGID_00000062165471437949160100000004415615561760271547_);}
	.st338{fill:url(#SVGID_00000028297891512349187250000002501026800294465946_);}
	.st339{fill:url(#SVGID_00000040546968773799833530000016048485820150637242_);}
	.st340{fill:url(#SVGID_00000051376281964512848120000012171566277272809397_);}
	.st341{fill:url(#SVGID_00000138551196880215261600000005199702723262296714_);}
	.st342{fill-rule:evenodd;clip-rule:evenodd;fill:url(#SVGID_00000031192208254178393180000010435481826786596237_);}
	.st343{fill:url(#SVGID_00000062172895060140627080000014769174180679847832_);}
	.st344{fill:url(#SVGID_00000115511243047766788930000008548147877731848624_);}
	.st345{fill:url(#SVGID_00000180334537574943635990000002615863806128171666_);}
	.st346{fill:url(#SVGID_00000000924224374625217250000011382056800023110304_);}
	.st347{fill:url(#SVGID_00000035494881697373148130000002404284439303970688_);}
	.st348{fill:url(#SVGID_00000171694503520684805100000015517044359465552800_);}
	.st349{fill:url(#SVGID_00000070831702738466901050000000615179415521624506_);}
	.st350{fill:url(#SVGID_00000026165109825817231670000001762072601214224573_);}
	.st351{fill:url(#SVGID_00000034800105360189103900000005715465715763945919_);}
	.st352{fill:url(#SVGID_00000102517007641826854110000012134269202639885202_);}
	.st353{fill:url(#SVGID_00000067939625488843564220000000329585044303494035_);}
	.st354{fill:url(#SVGID_00000164500521385670382600000013202167646815679906_);}
	.st355{fill:url(#SVGID_00000155133216576753778650000004116203648670840215_);}
	.st356{fill:url(#SVGID_00000071549961154245425460000003612167068341835189_);}
	.st357{fill:url(#SVGID_00000016063531126928622940000007371449786415934096_);}
	.st358{fill:url(#SVGID_00000081625012329622058530000018440452757692741052_);}
	.st359{fill:url(#SVGID_00000042695290276963330060000010650614512203226514_);}
	.st360{fill:url(#SVGID_00000026867699130583782320000009674713533286340251_);}
	.st361{fill:url(#SVGID_00000095337077207330077380000013244655134776169100_);}
	.st362{fill:url(#SVGID_00000013894591993025364860000009303024255442014650_);}
	.st363{fill:#C1282D;}
	.st364{fill-rule:evenodd;clip-rule:evenodd;fill:url(#SVGID_00000145059154833019506320000015280872592596682146_);}
	.st365{fill:url(#SVGID_00000046311062538218254810000003814227694543280040_);}
	.st366{fill:url(#SVGID_00000129884928343272490940000008995960013233837737_);}
	.st367{fill:url(#SVGID_00000025404663863712296760000013442415923837202864_);}
	.st368{fill:url(#SVGID_00000047053001854874304830000007239936183081195435_);}
	.st369{fill:url(#SVGID_00000142134658285535025290000000204572896951221930_);}
	.st370{fill:url(#SVGID_00000176025598253322963540000005261863702243852184_);}
	.st371{fill:url(#SVGID_00000048468836114068688060000003216034812497068978_);}
	.st372{fill:url(#SVGID_00000123411227062402644850000014217342796792487812_);}
	.st373{fill:url(#SVGID_00000057119409927962879380000005352547435143087774_);}
	.st374{fill:url(#SVGID_00000031168186121979270230000007573602219099879340_);}
	.st375{fill:url(#SVGID_00000021113147590967552810000013062085044626971061_);}
	.st376{fill:url(#SVGID_00000039830395629141011470000010251271300837745560_);}
	.st377{fill:url(#SVGID_00000118379435338716747480000009717458790738025642_);}
	.st378{fill:url(#SVGID_00000103258498351057229260000004176837238984778158_);}
	.st379{fill:url(#SVGID_00000023255661197322350220000014371168548690172321_);}
	.st380{fill:url(#SVGID_00000083791634290136626700000012866664024688610739_);}
	.st381{fill-rule:evenodd;clip-rule:evenodd;fill:url(#SVGID_00000075146744916007765520000004969344522898586550_);}
	.st382{fill:url(#SVGID_00000049211706985321470800000006100963113520590474_);}
	.st383{fill:url(#SVGID_00000166677289235046990640000001248470683317024664_);}
	.st384{fill:url(#SVGID_00000017507312792456039260000009337894815135869345_);}
	.st385{fill:url(#SVGID_00000013903390336359455750000000934563631789591953_);}
	.st386{fill:url(#SVGID_00000011710285898375831240000004270241661476506267_);}
	.st387{fill:url(#SVGID_00000089559136033799135400000012647669453721826692_);}
	.st388{fill:url(#SVGID_00000041258674867516790970000003120593922461405357_);}
	.st389{fill:url(#SVGID_00000088830163055009971050000009889807175122026387_);}
	.st390{fill:url(#SVGID_00000157308131913235193760000008623949003038741644_);}
	.st391{fill:url(#SVGID_00000118380461796340125680000016154662164410960777_);}
	.st392{fill:url(#SVGID_00000172408698257461901120000006345867559411098529_);}
	.st393{fill:url(#SVGID_00000146465660386045355840000016808483110793152643_);}
	.st394{fill:url(#SVGID_00000019642843169570167500000000564524127488745099_);}
	.st395{fill:url(#SVGID_00000112618268873024341670000003336842372802788502_);}
	.st396{fill:url(#SVGID_00000064315796861559076770000010978415369347420325_);}
	.st397{fill:url(#SVGID_00000011720669576916720810000011642076290084389563_);}
	.st398{fill:url(#SVGID_00000116953752186089370190000015708383880970207927_);}
	.st399{fill:url(#SVGID_00000045600229525107687300000009243191675552956578_);}
	.st400{fill:url(#SVGID_00000018947651585666411400000008941157235987288999_);}
	.st401{fill:url(#SVGID_00000180331385604530262720000013774790460107102849_);}
</style>
<g>
	<g>
		<ellipse class="st11" cx="537.56" cy="408.88" rx="279.42" ry="138.65"/>
		<path class="st121" d="M803.05,452.06c-36.61,55.45-141.61,95.47-265.49,95.47c-124.56,0-230.03-40.45-266.09-96.41l2.73-0.85
			l12.86-4.02l90.77-28.49l-8.54,23.75c-0.73,2.01,1.32,3.93,3.29,3.08l80.14-34.6l-27.17,40.2c-1.5,2.18,1.07,4.87,3.33,3.46
			l80.44-49.68v30.16c0,2.14,2.56,3.25,4.14,1.75l8.24-7.82l12.99,30.16c0.81,1.88,3.46,2.01,4.44,0.17l21.06-40.2l97.74,49.42
			c2.22,1.15,4.53-1.45,3.12-3.55l-25.76-38.62c-0.6-0.85-0.56-2.01,0.09-2.82l11.11-15.08l12.94,16.1
			c1.15,1.41,3.33,1.15,4.14-0.47l6.84-13.88l59.16,43.7c1.37,0.98,3.33,0.34,3.8-1.28l6.15-20.25l63.31,20.46
			c0.04,0,0.09,0.04,0.09,0.04C802.96,452.01,803.01,452.01,803.05,452.06z"/>
		
			<linearGradient id="SVGID_00000163037999332792996960000011465906329776080030_" gradientUnits="userSpaceOnUse" x1="422.8304" y1="275.2894" x2="698.2326" y2="589.8792">
			<stop  offset="0" style="stop-color:#3E76BB"/>
			<stop  offset="1" style="stop-color:#06509E"/>
		</linearGradient>
		<path style="fill-rule:evenodd;clip-rule:evenodd;fill:url(#SVGID_00000163037999332792996960000011465906329776080030_);" d="
			M816.98,409.11c0,1.32-0.04,2.61-0.13,3.89c-0.04,1.11-0.13,2.18-0.26,3.25c-0.09,0.98-0.21,1.96-0.34,2.95
			c-0.09,0.68-0.21,1.37-0.34,2.05c-0.38,2.39-0.94,4.78-1.62,7.13c-0.21,0.85-0.47,1.71-0.73,2.52c-0.09,0.3-0.17,0.6-0.3,0.9
			c-0.34,1.07-0.73,2.14-1.11,3.16c-0.3,0.81-0.64,1.67-1.03,2.48c-0.09,0.26-0.21,0.56-0.34,0.81l-0.13-0.04l-0.09-0.04
			L630.6,350.84c-1.11-0.51-2.43-0.17-3.12,0.85l-24.18,36.1l-64.42-79.16c-0.9-1.03-2.43-1.2-3.46-0.3l-89.49,75.01l-42.42-4.06
			c-0.68-0.09-1.37,0-2.01,0.3c-11.66,5.25-129.18,58.48-135.88,61.51c-0.3-0.56-0.56-1.07-0.77-1.62
			c-0.34-0.77-0.68-1.58-1.03-2.39c-0.68-1.62-1.32-3.29-1.84-4.91c-0.34-0.98-0.64-1.92-0.9-2.9c-0.98-3.16-1.67-6.36-2.14-9.61
			c-0.34-2.14-0.56-4.31-0.68-6.49c-0.09-1.32-0.13-2.69-0.13-4.06c0-76.68,125.08-138.87,279.42-138.87
			C691.9,270.23,816.98,332.43,816.98,409.11z"/>
		<g>
			<path class="st11" d="M382.54,482.79c0.38,0,0.75-0.08,1.11-0.23c0.36-0.15,0.58-0.37,0.68-0.66h0.82l-1.43,5.45
				c-0.24,0.76-0.94,1.14-2.1,1.14h-2.1l-3.99,16.97c-0.05,0.24,0.06,0.48,0.32,0.73c0.26,0.25,0.52,0.38,0.78,0.38l-0.25,0.82
				h-9.91c-0.76,0-1.14-0.38-1.14-1.14c0-0.1,0.02-0.29,0.07-0.57l4.03-17.19h-2.46c-0.38,0-0.69,0.09-0.94,0.27
				c-0.25,0.18-0.42,0.41-0.52,0.7h-0.89l1.43-5.7c0.09-0.33,0.28-0.58,0.57-0.73s0.74-0.23,1.36-0.23H382.54z"/>
			<path class="st11" d="M393.99,507.39c-0.62,0-1.08-0.1-1.37-0.3c-0.3-0.2-0.47-0.55-0.52-1.05l-0.32-3.64h-4.14l-1.46,2.92
				c-0.02,0.07-0.04,0.13-0.04,0.18s-0.01,0.14-0.04,0.29c0,0.21,0.1,0.4,0.3,0.55c0.2,0.15,0.43,0.23,0.7,0.23l-0.18,0.82h-7.74
				c-1,0-1.5-0.39-1.5-1.18c0-0.21,0.06-0.44,0.18-0.68l10.48-20.32c0.07-0.14,0.11-0.32,0.11-0.54c0-0.26-0.11-0.5-0.34-0.73
				c-0.23-0.23-0.47-0.34-0.73-0.34l0.21-0.82h10.63c0.55,0,1.01,0.15,1.39,0.45c0.38,0.3,0.57,0.72,0.57,1.27l1.64,20.82
				c0,0.31,0.17,0.59,0.5,0.86c0.33,0.26,0.68,0.39,1.03,0.39l-0.18,0.82H393.99z M389.75,497.62h2.03l-0.29-3.99L389.75,497.62z"/>
			<path class="st11" d="M401.66,485c-0.05-0.43-0.21-0.77-0.48-1.02c-0.27-0.25-0.58-0.38-0.91-0.38l0.18-0.82h9.95
				c0.31,0,0.6,0.15,0.89,0.47c0.29,0.31,0.43,0.64,0.43,1l0.29,9.34l3.49-8.17l0.14-0.57c0-0.29-0.1-0.57-0.3-0.84
				s-0.43-0.41-0.69-0.41l0.18-0.82h7.24c0.43,0,0.78,0.16,1.05,0.48c0.27,0.32,0.41,0.66,0.41,1.02l-0.14,0.71l-10.48,22.39h-6.67
				c-0.55,0-1-0.12-1.36-0.36c-0.36-0.24-0.57-0.56-0.64-0.96L401.66,485z"/>
			<path class="st11" d="M432.07,507.39c-0.62,0-1.08-0.1-1.37-0.3c-0.3-0.2-0.47-0.55-0.52-1.05l-0.32-3.64h-4.14l-1.46,2.92
				c-0.02,0.07-0.04,0.13-0.04,0.18s-0.01,0.14-0.04,0.29c0,0.21,0.1,0.4,0.3,0.55c0.2,0.15,0.43,0.23,0.7,0.23l-0.18,0.82h-7.74
				c-1,0-1.5-0.39-1.5-1.18c0-0.21,0.06-0.44,0.18-0.68l10.48-20.32c0.07-0.14,0.11-0.32,0.11-0.54c0-0.26-0.11-0.5-0.34-0.73
				c-0.23-0.23-0.47-0.34-0.73-0.34l0.21-0.82h10.63c0.55,0,1.01,0.15,1.39,0.45c0.38,0.3,0.57,0.72,0.57,1.27l1.64,20.82
				c0,0.31,0.17,0.59,0.5,0.86c0.33,0.26,0.68,0.39,1.03,0.39l-0.18,0.82H432.07z M427.83,497.62h2.03l-0.29-3.99L427.83,497.62z"/>
			<path class="st11" d="M465.41,507.39h-6.49c-0.71,0-1.31-0.1-1.8-0.29c-0.49-0.19-0.8-0.53-0.94-1.03l-3.64-8.81l-2.07,7.95
				l-0.07,0.61c0,0.24,0.1,0.42,0.3,0.55c0.2,0.13,0.47,0.2,0.8,0.2l-0.18,0.82h-8.02c-0.4,0-0.71-0.11-0.91-0.34
				c-0.2-0.23-0.3-0.53-0.3-0.91c0-0.14,0.02-0.33,0.07-0.57l4.85-20.86c0.05-0.26-0.05-0.51-0.29-0.75s-0.5-0.36-0.78-0.36
				l0.21-0.82h9.06c0.29,0,0.61,0.14,0.98,0.41c0.37,0.27,0.61,0.57,0.73,0.87l3.85,8.98l1.71-7.7c0.05-0.14,0.07-0.37,0.07-0.68
				c0-0.28-0.12-0.53-0.36-0.75c-0.24-0.21-0.5-0.32-0.78-0.32l0.21-0.82h7.99c0.38,0,0.67,0.13,0.87,0.39
				c0.2,0.26,0.3,0.56,0.3,0.89l-0.11,0.96L465.41,507.39z"/>
			<path class="st11" d="M503.11,482.75c1.59,0,2.82,0.42,3.69,1.25c0.87,0.83,1.3,1.88,1.3,3.14c0,0.19-0.02,0.4-0.05,0.64
				c-0.04,0.24-0.06,0.42-0.09,0.54c-0.55,2.61-1.66,4.19-3.35,4.74c0.69,0.43,1.2,0.9,1.51,1.41c0.32,0.51,0.48,1.26,0.48,2.26
				c0,0.9-0.18,2.16-0.53,3.78c-0.62,2.69-1.57,4.53-2.85,5.53c-1.16,0.9-2.96,1.36-5.38,1.36h-14.15c-0.4,0-0.71-0.11-0.91-0.34
				c-0.2-0.23-0.3-0.53-0.3-0.91c0-0.14,0.02-0.33,0.07-0.57l4.85-20.86c0.05-0.26-0.05-0.51-0.29-0.75
				c-0.24-0.24-0.5-0.36-0.78-0.36l0.21-0.82L503.11,482.75z M494.73,501.86c0.64,0,1.09-0.15,1.34-0.44
				c0.25-0.3,0.49-0.97,0.73-2.01c0.17-0.67,0.25-1.21,0.25-1.64c0-0.81-0.44-1.21-1.32-1.21h-1l-1.21,5.31H494.73z M497.26,491.81
				c0.4,0,0.69-0.11,0.86-0.34c0.17-0.23,0.32-0.64,0.46-1.23c0.14-0.59,0.21-1.02,0.21-1.28c0-0.62-0.35-0.93-1.03-0.93h-1.07
				l-0.86,3.78H497.26z"/>
			<path class="st11" d="M524.72,482.79c2.09,0,3.81,0.54,5.17,1.62c1.36,1.08,2.03,2.61,2.03,4.58c0,0.71-0.08,1.4-0.25,2.07
				l-2.14,9.06c-0.62,2.69-1.69,4.6-3.21,5.74c-1.33,1.02-3.16,1.53-5.49,1.53h-7.31c-2.23,0-3.89-0.5-4.97-1.51
				c-1.08-1.01-1.62-2.5-1.62-4.48c0-1.16,0.15-2.38,0.46-3.64l1.57-6.74c0.62-2.59,1.51-4.53,2.67-5.81
				c1.5-1.62,3.6-2.43,6.31-2.43H524.72z M517.02,499.76c-0.07,0.33-0.11,0.62-0.11,0.86c0,0.59,0.33,0.89,1,0.89
				c0.45,0,0.79-0.1,1.02-0.3c0.23-0.2,0.4-0.56,0.52-1.09l2.35-10.02c0.05-0.29,0.07-0.48,0.07-0.57c0-0.69-0.34-1.03-1.03-1.03
				c-0.76,0-1.27,0.48-1.53,1.43L517.02,499.76z"/>
			<path class="st11" d="M544.05,496.73l0.07-0.46c0-0.21-0.14-0.32-0.43-0.32c-0.28,0-0.43-0.12-0.43-0.36l0.07-0.46l1.03-4.24
				h7.88c0.57,0,1.02,0.17,1.34,0.52c0.32,0.35,0.48,0.73,0.48,1.16c0,0.55-0.05,1-0.14,1.36l-1.89,8.38
				c-0.43,1.9-1.08,3.23-1.96,3.98c-0.88,0.75-2.35,1.12-4.42,1.12h-8.63c-2.4,0-4.12-0.46-5.17-1.39c-0.93-0.83-1.39-2.1-1.39-3.81
				c0-1.09,0.19-2.42,0.57-3.99l1.96-8.59c0.5-2.23,1.46-3.96,2.89-5.17c1.31-1.12,2.81-1.68,4.49-1.68h14.58
				c-0.07,0.71-0.2,1.44-0.39,2.18s-0.4,1.34-0.62,1.82c-0.23,0.48-0.57,0.82-1.03,1.03c-0.46,0.21-0.99,0.32-1.59,0.32h-6.02
				c-0.67,0-1.18,0.16-1.55,0.48c-0.37,0.32-0.64,0.85-0.8,1.59l-2.32,9.98c-0.05,0.33-0.07,0.55-0.07,0.64
				c0,0.59,0.37,0.89,1.11,0.89c0.83,0,1.34-0.44,1.53-1.32L544.05,496.73z"/>
			<path class="st11" d="M571.4,482.79c2.4,0,4.15,0.62,5.24,1.85c0.97,1.12,1.46,2.76,1.46,4.92c0,0.83-0.08,1.76-0.23,2.8
				c-0.15,1.03-0.38,2.12-0.66,3.26c-1.12,4.73-2.22,7.87-3.3,9.43c-1.08,1.56-2.66,2.34-4.72,2.34h-15.9
				c-0.4,0-0.71-0.11-0.91-0.34c-0.2-0.23-0.3-0.53-0.3-0.91c0-0.14,0.03-0.33,0.07-0.57l4.85-20.86c0.05-0.26-0.05-0.51-0.28-0.75
				s-0.5-0.36-0.78-0.36l0.21-0.82H571.4z M564.41,501.51c0.5,0,0.88-0.14,1.14-0.43c0.26-0.28,0.48-0.77,0.64-1.46l2.07-8.88
				c0.1-0.4,0.14-0.78,0.14-1.14c0-0.74-0.43-1.11-1.28-1.11h-0.89l-3.03,13.02H564.41z"/>
			<path class="st11" d="M603.78,496.73l0.07-0.46c0-0.21-0.14-0.32-0.43-0.32c-0.28,0-0.43-0.12-0.43-0.36l0.07-0.46l1.03-4.24
				h7.88c0.57,0,1.02,0.17,1.34,0.52c0.32,0.35,0.48,0.73,0.48,1.16c0,0.55-0.05,1-0.14,1.36l-1.89,8.38
				c-0.43,1.9-1.08,3.23-1.96,3.98c-0.88,0.75-2.35,1.12-4.42,1.12h-8.63c-2.4,0-4.12-0.46-5.17-1.39c-0.93-0.83-1.39-2.1-1.39-3.81
				c0-1.09,0.19-2.42,0.57-3.99l1.96-8.59c0.5-2.23,1.46-3.96,2.89-5.17c1.31-1.12,2.81-1.68,4.49-1.68h14.58
				c-0.07,0.71-0.2,1.44-0.39,2.18s-0.4,1.34-0.62,1.82c-0.23,0.48-0.57,0.82-1.03,1.03c-0.46,0.21-0.99,0.32-1.59,0.32h-6.02
				c-0.67,0-1.18,0.16-1.55,0.48c-0.37,0.32-0.64,0.85-0.8,1.59l-2.32,9.98c-0.05,0.33-0.07,0.55-0.07,0.64
				c0,0.59,0.37,0.89,1.11,0.89c0.83,0,1.34-0.44,1.53-1.32L603.78,496.73z"/>
			<path class="st11" d="M634.02,500.61c0.17,0.29,0.39,0.53,0.68,0.73c0.28,0.2,0.6,0.3,0.96,0.3h1.03l-0.86,4.07
				c-0.24,1.12-1.1,1.67-2.57,1.67h-4.78c-0.62,0-1.15-0.16-1.6-0.48c-0.45-0.32-0.74-0.72-0.86-1.19l-2.07-7.28l-1.53,6.95
				l-0.04,0.36c0,0.24,0.1,0.43,0.3,0.59c0.2,0.15,0.46,0.23,0.77,0.23l-0.18,0.82h-9.88c-0.4,0-0.71-0.11-0.91-0.34
				c-0.2-0.23-0.3-0.53-0.3-0.91c0-0.14,0.03-0.33,0.07-0.57l4.85-20.86c0.05-0.26-0.05-0.51-0.28-0.75s-0.5-0.36-0.78-0.36
				l0.21-0.82h16.51c3.71,0,5.56,1.72,5.56,5.17c0,0.48-0.02,0.89-0.07,1.25c-0.12,0.62-0.2,1.09-0.25,1.43
				c-0.48,2.14-1.11,3.71-1.89,4.71c-0.78,1-1.9,1.66-3.35,2L634.02,500.61z M625.36,492.73h1.39c0.81,0,1.37-0.68,1.67-2.03
				c0.05-0.26,0.1-0.52,0.14-0.77c0.05-0.25,0.07-0.46,0.07-0.63c0-0.67-0.29-1-0.86-1h-1.39L625.36,492.73z"/>
			<path class="st11" d="M654.81,482.79c2.09,0,3.82,0.54,5.17,1.62c1.36,1.08,2.03,2.61,2.03,4.58c0,0.71-0.08,1.4-0.25,2.07
				l-2.14,9.06c-0.62,2.69-1.69,4.6-3.21,5.74c-1.33,1.02-3.16,1.53-5.49,1.53h-7.31c-2.23,0-3.89-0.5-4.97-1.51
				c-1.08-1.01-1.62-2.5-1.62-4.48c0-1.16,0.15-2.38,0.46-3.64l1.57-6.74c0.62-2.59,1.51-4.53,2.67-5.81
				c1.5-1.62,3.6-2.43,6.31-2.43H654.81z M647.11,499.76c-0.07,0.33-0.11,0.62-0.11,0.86c0,0.59,0.33,0.89,1,0.89
				c0.45,0,0.79-0.1,1.02-0.3c0.23-0.2,0.4-0.56,0.52-1.09l2.35-10.02c0.05-0.29,0.07-0.48,0.07-0.57c0-0.69-0.34-1.03-1.03-1.03
				c-0.76,0-1.27,0.48-1.53,1.43L647.11,499.76z"/>
			<path class="st11" d="M671.18,499.97c-0.05,0.24-0.07,0.38-0.07,0.43c0,0.52,0.4,0.78,1.21,0.78c0.45,0,0.78-0.08,0.98-0.23
				c0.2-0.16,0.36-0.48,0.48-0.98l3.53-15.26c0.05-0.24-0.05-0.48-0.29-0.73s-0.49-0.38-0.75-0.38l0.18-0.82h9.91
				c0.4,0,0.69,0.1,0.87,0.3c0.18,0.2,0.27,0.49,0.27,0.87l-0.07,0.54l-3.6,15.62c-0.62,2.71-1.63,4.62-3.03,5.74
				c-1.26,1-3.03,1.5-5.31,1.5h-8.17c-2.16,0-3.75-0.48-4.76-1.44c-1.01-0.96-1.51-2.38-1.51-4.26c0-1.14,0.18-2.45,0.53-3.92
				l3.03-13.02c0.05-0.24-0.05-0.48-0.28-0.73s-0.49-0.38-0.75-0.38l0.18-0.82h9.91c0.4,0,0.69,0.1,0.87,0.3
				c0.18,0.2,0.27,0.49,0.27,0.87l-0.07,0.54L671.18,499.97z"/>
			<path class="st11" d="M703.88,482.79c2.19,0,3.84,0.44,4.96,1.32c1.12,0.88,1.68,2.27,1.68,4.17c0,0.52-0.03,1-0.07,1.43
				c-0.05,0.43-0.15,0.96-0.32,1.6c-0.76,3.28-1.62,5.45-2.57,6.51c-0.95,1.06-2.51,1.59-4.67,1.59h-7.34l-1.32,5.6l-0.11,0.68
				c0,0.26,0.11,0.47,0.32,0.64c0.21,0.17,0.47,0.25,0.75,0.25l-0.21,0.82h-9.84c-0.4,0-0.71-0.11-0.91-0.34
				c-0.2-0.23-0.3-0.53-0.3-0.91c0-0.14,0.02-0.33,0.07-0.57l4.85-20.86c0.05-0.26-0.05-0.51-0.29-0.75
				c-0.24-0.24-0.5-0.36-0.78-0.36l0.21-0.82H703.88z M696.89,493.7H698c0.59,0,1.03-0.18,1.32-0.55s0.55-1.08,0.78-2.12
				c0.14-0.62,0.21-1.11,0.21-1.46c0-0.48-0.1-0.8-0.3-0.98c-0.2-0.18-0.5-0.27-0.91-0.27h-0.96L696.89,493.7z"/>
		</g>
	</g>
	<g>
		<path class="st138" d="M144.57,799.08l16.65-18.42l-9.87-18.02h5.14l4.5,8.26c1.62,2.94,2.74,5.18,3.4,6.71
			c1.14-1.6,2.96-3.78,5.44-6.54l7.67-8.43h6.09l-16.87,18.83l9.55,17.62l-5.06-0.01l-5.65-10.67c-0.54-1.04-1.18-2.38-1.92-4.01
			c-0.8,1.11-1.85,2.39-3.15,3.85l-9.73,10.84H144.57L144.57,799.08z M197.19,795.8c-2.76,2.59-5.66,3.88-8.71,3.88
			c-2.27,0-4.13-0.7-5.6-2.09c-1.47-1.39-2.2-3.23-2.2-5.51c0-2.72,0.95-4.82,2.86-6.3c1.96-1.52,4.84-2.28,8.62-2.28l2.28-0.1
			c1.08,0,2.05-0.08,2.89-0.24c0.85-0.15,1.55-0.36,2.1-0.63c0.33-1.23,0.5-2.29,0.5-3.18c0-1.04-0.46-1.9-1.39-2.57
			c-0.93-0.67-2.28-1.01-4.06-1.01c-3.56,0-5.88,1.6-6.98,4.82l-4.35-0.4c1.8-5.41,5.64-8.1,11.51-8.1c2.83,0,5.12,0.63,6.88,1.89
			c1.76,1.26,2.64,2.91,2.64,4.97c0,1.41-0.19,3.04-0.59,4.9l-1.4,6.56c-0.23,1.13-0.39,2.09-0.5,2.86
			c-0.11,0.78-0.17,1.5-0.17,2.16c0,1.18,0.18,2.4,0.53,3.66h-4.35c-0.15-0.47-0.26-0.98-0.36-1.54
			C197.24,796.98,197.19,796.39,197.19,795.8L197.19,795.8z M198.78,785.71c-1.02,0.39-2.41,0.68-4.16,0.87l-2.48,0.25
			c-1.4,0-2.62,0.18-3.66,0.53c-0.93,0.3-1.64,0.71-2.14,1.24c-0.92,0.92-1.38,2.01-1.38,3.28c0,1.25,0.42,2.27,1.27,3.1
			c0.85,0.82,2,1.23,3.46,1.23c2.06,0,3.94-0.76,5.63-2.27C197.01,792.43,198.16,789.69,198.78,785.71L198.78,785.71z
			 M212.56,772.68h6.4l2.38,21.06l11.73-21.06h6.28l-5.4,26.4h-4.26l4.4-21.28l-11.85,21.28h-3.82l-2.5-22.1l-4.52,22.1h-4.26
			L212.56,772.68L212.56,772.68z M240.54,799.08l5.28-26.4h4.31l-0.89,4.34c2.68-3.3,5.46-4.95,8.33-4.95
			c1.66,0,3.01,0.42,4.04,1.25c0.98,0.77,1.67,2.01,2.05,3.7c1.25-1.62,2.6-2.85,4.04-3.69c1.45-0.84,2.94-1.26,4.5-1.26
			c2.08,0,3.65,0.5,4.72,1.5c1.07,1,1.61,2.5,1.61,4.49c0,0.87-0.19,2.2-0.55,4l-3.41,17h-4.3l3.48-17.45
			c0.15-0.73,0.25-1.34,0.33-1.83c0.08-0.5,0.12-0.91,0.12-1.22c0-0.92-0.25-1.62-0.75-2.09c-0.5-0.47-1.25-0.7-2.25-0.7
			c-1.46,0-2.89,0.49-4.29,1.48c-1.4,0.99-2.42,2.16-3.07,3.52c-0.57,1.29-1.1,3.12-1.62,5.49l-2.58,12.8h-4.3l3.57-17.83
			c0.25-1.27,0.38-2.14,0.38-2.58c0-0.9-0.28-1.6-0.81-2.11c-0.54-0.52-1.2-0.77-1.97-0.77c-0.73,0-1.45,0.13-2.15,0.37
			c-0.71,0.25-1.43,0.63-2.16,1.17c-1.4,1.01-2.47,2.27-3.18,3.77c-0.65,1.41-1.22,3.24-1.69,5.49l-2.5,12.48H240.54L240.54,799.08z
			 M311.48,772.68h4.35l-5.46,26.4h-4.33L311.48,772.68L311.48,772.68z M286.57,772.68h4.3l-2.16,10.21h4.6
			c2.91,0,4.99,0.22,6.24,0.67c1.24,0.45,2.23,1.26,2.96,2.45c0.73,1.19,1.1,2.5,1.1,3.96c0,0.88-0.12,1.73-0.36,2.56
			c-0.24,0.83-0.61,1.66-1.12,2.49c-0.95,1.6-2.14,2.66-3.58,3.22c-1.43,0.55-3.65,0.83-6.68,0.83h-10.75L286.57,772.68
			L286.57,772.68z M286.12,795.5h5.49c2.12,0,3.63-0.15,4.52-0.45c0.89-0.3,1.65-0.84,2.25-1.64c0.6-0.8,0.9-1.75,0.9-2.86
			c0-1.01-0.27-1.87-0.79-2.55c-0.54-0.69-1.15-1.1-1.84-1.26c-0.32-0.07-0.81-0.12-1.47-0.17c-0.66-0.05-1.43-0.08-2.32-0.08h-4.9
			L286.12,795.5L286.12,795.5z M322.38,772.68h4.26l-2.28,11h11.73l2.23-11h4.21l-5.32,26.4h-4.29l2.44-11.81h-11.69l-2.44,11.81
			h-4.25L322.38,772.68L322.38,772.68z M355.66,799.08l11-13.4l-6.31-13h4.76l2.14,4.69c0.92,2.09,1.63,3.77,2.14,5.05l7.28-9.74
			h5.25l-10.61,13.35l6.38,13.05l-4.77,0.01l-2.52-5.38c-0.32-0.7-0.61-1.35-0.88-1.96c-0.19-0.45-0.51-1.21-0.95-2.29l-7.52,9.62
			H355.66L355.66,799.08z M388.11,799.08l-4.17-26.4h4.17l2.19,14.53c0.23,1.46,0.52,4.06,0.88,7.79c0.82-1.91,1.88-4.06,3.15-6.45
			l8.45-15.87h4.55l-14.46,26.4l-3,10.44l-4.36,0.11L388.11,799.08L388.11,799.08z M409.98,772.68h4.23l-0.9,4.42
			c-0.58,2.78-0.86,4.74-0.86,5.89c0,1.15,0.42,2.01,1.26,2.61c0.84,0.59,2.1,0.89,3.78,0.89c2.03,0,3.91-0.37,5.66-1.11l2.6-12.7
			h4.28l-5.38,26.4h-4.3l2.07-10.11c-2.14,0.74-4.14,1.11-6,1.11c-2.55,0-4.57-0.57-6.05-1.71c-1.49-1.15-2.22-2.77-2.22-4.87
			c0-0.88,0.38-3.33,1.15-7.33L409.98,772.68L409.98,772.68z M445.23,788.14l0.9-4.5h13.13l-0.88,4.5H445.23L445.23,788.14z
			 M472.02,799.08l19.77-36.44h5.5l5.76,36.44h-4.53l-1.68-10.49h-14.1l-5.59,10.5L472.02,799.08L472.02,799.08z M484.7,784.84
			h11.54l-1.35-9.16c-0.31-2.21-0.54-3.89-0.68-5.07c-0.19-1.61-0.28-2.94-0.28-4c-0.81,2.14-1.97,4.62-3.48,7.43L484.7,784.84
			L484.7,784.84z M512.48,772.68h6.4l2.38,21.06L533,772.68h6.28l-5.4,26.4h-4.26l4.4-21.28l-11.85,21.28h-3.82l-2.5-22.1
			l-4.51,22.1h-4.26L512.48,772.68L512.48,772.68z M557.25,772.68h4.19l-2.35,11.28l0.33,0.03c0.91,0,1.77-0.4,2.59-1.21
			c0.81-0.81,1.86-2.3,3.13-4.49c1.38-2.37,2.63-3.89,3.76-4.58c1.13-0.69,2.29-1.03,3.5-1.03c0.84,0,1.72,0.15,2.66,0.45
			l-0.97,2.68c-0.58-0.23-1.05-0.35-1.43-0.35c-0.71,0-1.34,0.26-1.88,0.77c-0.54,0.52-1.23,1.58-2.06,3.17
			c-1.75,3.28-3.71,5.3-5.89,6.07c0.76,0.28,1.48,0.74,2.15,1.37c0.68,0.63,1.38,1.89,2.11,3.8l3.17,8.43h-4.43l-2.49-6.71
			c-0.76-2.09-1.45-3.5-2.09-4.23c-0.63-0.74-1.53-1.21-2.69-1.41l-2.57,12.35h-4.23l2.54-12.35c-0.44,0-0.85,0.07-1.23,0.2
			c-0.38,0.14-0.79,0.34-1.22,0.63c-0.77,0.51-2.06,1.99-3.85,4.45l-5.22,7.08l-5.22,0.01l6.68-8.8c1.95-2.57,4.04-4.17,6.28-4.79
			c-0.97-0.64-1.68-1.39-2.13-2.27c-0.46-0.88-0.91-2.49-1.33-4.84c-0.2-1.15-0.43-1.92-0.71-2.32c-0.28-0.4-0.68-0.59-1.23-0.59
			c-0.4,0-1.01,0.12-1.83,0.35l0.28-2.86c0.35-0.08,0.71-0.14,1.1-0.19c0.38-0.05,0.76-0.08,1.13-0.08c1.5,0,2.57,0.44,3.22,1.32
			c0.65,0.81,1.21,2.33,1.67,4.56c0.47,2.23,0.98,3.69,1.52,4.39c0.55,0.69,1.42,1.03,2.62,1.03L557.25,772.68L557.25,772.68z
			 M591.27,794.3c-3.03,3.58-6.1,5.37-9.21,5.37c-1.9,0-3.48-0.56-4.73-1.68c-1.25-1.12-1.88-2.55-1.88-4.29
			c0-1.2,0.27-3.12,0.8-5.8l3.05-15.23h4.31l-3.38,16.88c-0.28,1.39-0.43,2.5-0.43,3.33c0,1.01,0.29,1.79,0.85,2.33
			c0.59,0.52,1.44,0.77,2.55,0.77c1.65,0,3.22-0.55,4.7-1.66c1.48-1.11,2.57-2.43,3.26-3.98c0.65-1.47,1.26-3.55,1.81-6.26
			l2.28-11.4h4.3l-5.28,26.4h-3.97L591.27,794.3L591.27,794.3z M608.32,772.68h19.03l-5.38,26.4h-4.28l4.71-22.65h-10.61
			l-3.26,15.74c-0.55,2.7-1.3,4.58-2.23,5.65c-0.93,1.07-2.23,1.6-3.88,1.6c-0.5,0-1.06-0.03-1.65-0.08
			c-0.6-0.05-1.31-0.14-2.14-0.27l0.79-3.72l1.81,0.07c1.09,0,1.8-0.27,2.13-0.82c0.32-0.54,0.82-2.3,1.49-5.26L608.32,772.68
			L608.32,772.68z M628.56,799.08l5.28-26.4h4.31l-0.89,4.34c2.68-3.3,5.46-4.95,8.33-4.95c1.67,0,3.01,0.42,4.04,1.25
			c0.98,0.77,1.67,2.01,2.05,3.7c1.25-1.62,2.6-2.85,4.04-3.69c1.45-0.84,2.94-1.26,4.5-1.26c2.08,0,3.65,0.5,4.72,1.5
			c1.07,1,1.61,2.5,1.61,4.49c0,0.87-0.19,2.2-0.55,4l-3.41,17h-4.3l3.48-17.45c0.15-0.73,0.25-1.34,0.33-1.83
			c0.08-0.5,0.12-0.91,0.12-1.22c0-0.92-0.25-1.62-0.75-2.09c-0.5-0.47-1.25-0.7-2.25-0.7c-1.46,0-2.89,0.49-4.29,1.48
			c-1.4,0.99-2.42,2.16-3.07,3.52c-0.57,1.29-1.1,3.12-1.62,5.49l-2.58,12.8h-4.3l3.57-17.83c0.25-1.27,0.38-2.14,0.38-2.58
			c0-0.9-0.28-1.6-0.81-2.11c-0.54-0.52-1.2-0.77-1.97-0.77c-0.73,0-1.45,0.13-2.15,0.37c-0.71,0.25-1.43,0.63-2.16,1.17
			c-1.41,1.01-2.47,2.27-3.18,3.77c-0.65,1.41-1.22,3.24-1.69,5.49l-2.5,12.48H628.56L628.56,799.08z M699.5,772.68h4.35l-5.46,26.4
			h-4.33L699.5,772.68L699.5,772.68z M674.59,772.68h4.3l-2.16,10.21h4.6c2.92,0,4.99,0.22,6.24,0.67c1.24,0.45,2.23,1.26,2.96,2.45
			c0.73,1.19,1.1,2.5,1.1,3.96c0,0.88-0.12,1.73-0.36,2.56c-0.24,0.83-0.61,1.66-1.12,2.49c-0.95,1.6-2.14,2.66-3.58,3.22
			c-1.43,0.55-3.65,0.83-6.68,0.83h-10.75L674.59,772.68L674.59,772.68z M674.14,795.5h5.49c2.12,0,3.63-0.15,4.52-0.45
			c0.89-0.3,1.65-0.84,2.25-1.64c0.6-0.8,0.9-1.75,0.9-2.86c0-1.01-0.27-1.87-0.8-2.55c-0.54-0.69-1.15-1.1-1.84-1.26
			c-0.32-0.07-0.81-0.12-1.47-0.17c-0.66-0.05-1.43-0.08-2.32-0.08h-4.9L674.14,795.5L674.14,795.5z M710.4,772.68h4.26l-2.28,11
			h11.73l2.23-11h4.21l-5.32,26.4h-4.29l2.44-11.81H711.7l-2.44,11.81H705L710.4,772.68L710.4,772.68z M745.35,799.08l5.28-26.4
			h4.31l-0.89,4.34c2.68-3.3,5.46-4.95,8.33-4.95c1.67,0,3.01,0.42,4.04,1.25c0.98,0.77,1.67,2.01,2.05,3.7
			c1.25-1.62,2.6-2.85,4.04-3.69c1.45-0.84,2.94-1.26,4.5-1.26c2.08,0,3.65,0.5,4.72,1.5c1.07,1,1.61,2.5,1.61,4.49
			c0,0.87-0.19,2.2-0.55,4l-3.41,17h-4.3l3.48-17.45c0.15-0.73,0.25-1.34,0.33-1.83c0.08-0.5,0.12-0.91,0.12-1.22
			c0-0.92-0.25-1.62-0.75-2.09c-0.5-0.47-1.25-0.7-2.25-0.7c-1.46,0-2.89,0.49-4.29,1.48c-1.4,0.99-2.42,2.16-3.07,3.52
			c-0.57,1.29-1.1,3.12-1.62,5.49l-2.58,12.8h-4.3l3.57-17.83c0.25-1.27,0.38-2.14,0.38-2.58c0-0.9-0.28-1.6-0.81-2.11
			c-0.54-0.52-1.2-0.77-1.97-0.77c-0.73,0-1.45,0.13-2.15,0.37c-0.71,0.25-1.43,0.63-2.16,1.17c-1.41,1.01-2.47,2.27-3.18,3.77
			c-0.65,1.41-1.22,3.24-1.69,5.49l-2.5,12.48H745.35L745.35,799.08z M792.36,799.08l-4.17-26.4h4.17l2.19,14.53
			c0.23,1.46,0.52,4.06,0.88,7.79c0.82-1.91,1.88-4.06,3.15-6.45l8.45-15.87h4.55l-14.46,26.4l-3,10.44l-4.36,0.11L792.36,799.08
			L792.36,799.08z M817.54,772.68h19.03l-5.38,26.4h-4.28l4.71-22.65h-10.61l-3.26,15.74c-0.55,2.7-1.3,4.58-2.23,5.65
			c-0.93,1.07-2.23,1.6-3.88,1.6c-0.5,0-1.06-0.03-1.65-0.08c-0.6-0.05-1.31-0.14-2.14-0.27l0.79-3.72l1.81,0.07
			c1.09,0,1.8-0.27,2.13-0.82c0.32-0.54,0.82-2.3,1.49-5.26L817.54,772.68L817.54,772.68z M836.11,799.08l11-13.4l-6.31-13h4.76
			l2.14,4.69c0.92,2.09,1.63,3.77,2.14,5.05l7.28-9.74h5.25l-10.61,13.35l6.37,13.05l-4.77,0.01l-2.52-5.38
			c-0.32-0.7-0.61-1.35-0.88-1.96c-0.2-0.45-0.51-1.21-0.95-2.29l-7.52,9.62H836.11L836.11,799.08z M868.56,799.08l-4.17-26.4h4.17
			l2.19,14.53c0.23,1.46,0.52,4.06,0.88,7.79c0.82-1.91,1.88-4.06,3.15-6.45l8.45-15.87h4.55l-14.46,26.4l-3,10.44l-4.36,0.11
			L868.56,799.08L868.56,799.08z M892.92,799.08l-4.17-26.4h4.17l2.19,14.53c0.23,1.46,0.52,4.06,0.88,7.79
			c0.82-1.91,1.88-4.06,3.15-6.45l8.45-15.87h4.55l-14.46,26.4l-3,10.44l-4.36,0.11L892.92,799.08L892.92,799.08z M908.86,809.19
			l7.3-36.51h3.98l-0.74,3.67c2.53-2.85,5.1-4.28,7.68-4.28c2.38,0,4.36,0.92,5.96,2.77c1.59,1.84,2.39,4.47,2.39,7.87
			c0,4.64-1.24,8.63-3.74,11.95c-2.49,3.34-5.38,5-8.66,5c-3.01,0-5.34-1.6-7.02-4.82l-2.84,14.34H908.86L908.86,809.19z
			 M917.33,789.18c0,2.27,0.54,3.98,1.61,5.11c1.08,1.14,2.4,1.7,3.95,1.7c2.49,0,4.49-1.48,6-4.45c1.5-2.97,2.26-5.96,2.26-8.98
			c0-1.79-0.45-3.38-1.36-4.77c-0.9-1.39-2.23-2.09-3.97-2.09c-2.43,0-4.45,1.43-6.07,4.28
			C918.14,782.86,917.33,785.92,917.33,789.18L917.33,789.18z"/>
	</g>
	<g>
		<g>
			
				<linearGradient id="SVGID_00000044146016119073731020000000303533108560971702_" gradientUnits="userSpaceOnUse" x1="628.4641" y1="562.4857" x2="628.4641" y2="791.6778">
				<stop  offset="0" style="stop-color:#3E76BB"/>
				<stop  offset="0.9672" style="stop-color:#06509E"/>
			</linearGradient>
			<path style="fill:url(#SVGID_00000044146016119073731020000000303533108560971702_);" d="M626.29,733.41
				c-0.22,0.8-0.32,1.59-0.32,2.39c0,0.87,0.42,1.65,1.25,2.33c0.83,0.69,1.68,1.03,2.55,1.03l-0.54,2.5h-30.83
				c-1.23,0-2.15-0.34-2.77-1.03c-0.61-0.69-0.92-1.61-0.92-2.77c0-0.43,0.07-1.01,0.22-1.74l14.76-63.51
				c0.15-0.8-0.15-1.56-0.87-2.28c-0.72-0.73-1.52-1.09-2.39-1.09l0.65-2.5h55.15l-2.82,12.16c-0.36,1.59-1.18,2.86-2.44,3.8
				c-1.27,0.94-2.73,1.41-4.4,1.41h-14.98L626.29,733.41z"/>
			
				<linearGradient id="SVGID_00000047738765224877022010000002601230878133590670_" gradientUnits="userSpaceOnUse" x1="773.7733" y1="562.4857" x2="773.7733" y2="791.6778">
				<stop  offset="0" style="stop-color:#3E76BB"/>
				<stop  offset="0.9672" style="stop-color:#06509E"/>
			</linearGradient>
			<path style="fill:url(#SVGID_00000047738765224877022010000002601230878133590670_);" d="M763.02,732.83
				c-0.88,1.17-1.43,1.95-1.66,2.31c-0.44,0.73-0.66,1.48-0.66,2.21c0,0.81,0.37,1.51,1.1,2.09c0.73,0.59,1.51,0.88,2.32,0.88
				l-0.55,2.54h-30.78c-2.43,0-3.64-1.18-3.64-3.53c0-0.37,0.07-0.99,0.22-1.87l15.11-64.75c0.15-0.74-0.18-1.49-0.99-2.27
				c-0.81-0.77-1.62-1.15-2.43-1.15l0.77-2.54h30.67c2.35,0,3.53,1.17,3.53,3.53c0,0.29-0.07,0.88-0.22,1.77l-6.62,28.46
				l14.45-21.84c0.66-0.95,1.29-1.87,1.87-2.76c0.59-0.88,1.03-1.95,1.32-3.2c0.15-0.74-0.14-1.49-0.88-2.27
				c-0.73-0.77-1.51-1.15-2.32-1.15l0.55-2.54h30.67c1.25,0,2.15,0.31,2.7,0.93s0.83,1.53,0.83,2.71l-0.22,1.66l-15,64.86
				c-0.14,0.73,0.18,1.49,1,2.26c0.81,0.77,1.62,1.16,2.43,1.16l-0.77,2.54h-30.67c-2.35,0-3.53-1.18-3.53-3.53
				c0-0.3,0.07-0.88,0.22-1.77l6.51-28.13L763.02,732.83z"/>
			
				<linearGradient id="SVGID_00000012454821592538892710000011815348320350653065_" gradientUnits="userSpaceOnUse" x1="695.7373" y1="562.4857" x2="695.7373" y2="791.6778">
				<stop  offset="0" style="stop-color:#3E76BB"/>
				<stop  offset="0.9672" style="stop-color:#06509E"/>
			</linearGradient>
			<path style="fill:url(#SVGID_00000012454821592538892710000011815348320350653065_);" d="M716.04,666.75
				c6.66,0,11.69,1.34,15.09,4.01c3.4,2.68,5.1,6.92,5.1,12.7c0,1.59-0.07,3.04-0.22,4.34c-0.15,1.3-0.47,2.93-0.98,4.89
				c-2.32,9.99-4.92,16.59-7.82,19.81c-2.9,3.22-7.64,4.83-14.22,4.83h-22.37l-4.02,17.05l-0.33,2.06c0,0.8,0.33,1.45,0.98,1.95
				c0.65,0.51,1.41,0.76,2.28,0.76l-0.65,2.5h-29.96c-1.23,0-2.16-0.34-2.77-1.03c-0.61-0.68-0.92-1.61-0.92-2.76
				c0-0.44,0.07-1.01,0.22-1.74l14.77-63.51c0.14-0.8-0.15-1.56-0.87-2.28c-0.73-0.72-1.52-1.08-2.39-1.08l0.65-2.5H716.04z
				 M694.76,699.97h3.37c1.81,0,3.15-0.56,4.02-1.68c0.87-1.12,1.66-3.28,2.39-6.46c0.44-1.88,0.65-3.37,0.65-4.46
				c0-1.45-0.31-2.44-0.92-2.98c-0.61-0.55-1.54-0.82-2.77-0.82h-2.93L694.76,699.97z"/>
			
				<linearGradient id="SVGID_00000132787037549140099450000001772985594919610532_" gradientUnits="userSpaceOnUse" x1="846.8315" y1="562.4857" x2="846.8315" y2="791.6778">
				<stop  offset="0" style="stop-color:#3E76BB"/>
				<stop  offset="0.9672" style="stop-color:#06509E"/>
			</linearGradient>
			<path style="fill:url(#SVGID_00000132787037549140099450000001772985594919610532_);" d="M878.1,735.25
				c0.15,1.15,0.61,2.1,1.41,2.82c0.8,0.72,1.7,1.08,2.71,1.08l-0.54,2.5H851.5c-0.94,0-1.84-0.44-2.71-1.3
				c-0.87-0.87-1.31-1.81-1.31-2.83l-1.52-25.19l-10.1,22.15c-0.22,0.51-0.33,1.08-0.33,1.74c0,0.79,0.33,1.48,0.98,2.06
				c0.65,0.58,1.38,0.87,2.17,0.87l-0.54,2.5h-22.58c-1.38,0-2.41-0.36-3.09-1.08s-1.03-1.67-1.03-2.83c0-0.86,0.07-1.46,0.22-1.79
				c0.15-0.32,0.25-0.56,0.33-0.7l28.44-60.91c0.36-0.87,0.55-1.56,0.55-2.07c0-0.79-0.35-1.5-1.03-2.12
				c-0.69-0.61-1.43-0.92-2.23-0.92l0.54-2.5h25.84c1.66,0,3.07,0.4,4.23,1.19c1.16,0.8,1.81,1.84,1.96,3.15L878.1,735.25z"/>
			
				<linearGradient id="SVGID_00000103241792284476609350000015490444438351420299_" gradientUnits="userSpaceOnUse" x1="921.1914" y1="562.4857" x2="921.1914" y2="791.6778">
				<stop  offset="0" style="stop-color:#3E76BB"/>
				<stop  offset="0.9672" style="stop-color:#06509E"/>
			</linearGradient>
			<path style="fill:url(#SVGID_00000103241792284476609350000015490444438351420299_);" d="M952.46,735.25
				c0.15,1.15,0.61,2.1,1.41,2.82c0.8,0.72,1.7,1.08,2.71,1.08l-0.54,2.5h-30.18c-0.94,0-1.84-0.44-2.71-1.3
				c-0.87-0.87-1.31-1.81-1.31-2.83l-1.52-25.19l-10.1,22.15c-0.22,0.51-0.33,1.08-0.33,1.74c0,0.79,0.33,1.48,0.98,2.06
				c0.65,0.58,1.38,0.87,2.17,0.87l-0.54,2.5h-22.58c-1.38,0-2.41-0.36-3.09-1.08s-1.03-1.67-1.03-2.83c0-0.86,0.07-1.46,0.22-1.79
				c0.15-0.32,0.25-0.56,0.33-0.7l28.44-60.91c0.36-0.87,0.55-1.56,0.55-2.07c0-0.79-0.35-1.5-1.03-2.12
				c-0.69-0.61-1.43-0.92-2.23-0.92l0.54-2.5h25.84c1.66,0,3.07,0.4,4.23,1.19c1.16,0.8,1.81,1.84,1.96,3.15L952.46,735.25z"/>
		</g>
		<g>
			
				<linearGradient id="SVGID_00000030476559225565013020000013134000621570481321_" gradientUnits="userSpaceOnUse" x1="404.9451" y1="562.4857" x2="404.9451" y2="791.6778">
				<stop  offset="0" style="stop-color:#3E76BB"/>
				<stop  offset="0.9672" style="stop-color:#06509E"/>
			</linearGradient>
			<path style="fill:url(#SVGID_00000030476559225565013020000013134000621570481321_);" d="M402.77,733.41
				c-0.22,0.8-0.32,1.59-0.32,2.39c0,0.87,0.42,1.65,1.25,2.33c0.83,0.69,1.68,1.03,2.55,1.03l-0.54,2.5h-30.83
				c-1.23,0-2.15-0.34-2.77-1.03c-0.61-0.69-0.92-1.61-0.92-2.77c0-0.43,0.07-1.01,0.22-1.74l14.76-63.51
				c0.15-0.8-0.15-1.56-0.87-2.28c-0.72-0.73-1.52-1.09-2.39-1.09l0.65-2.5h55.15l-2.82,12.16c-0.36,1.59-1.18,2.86-2.44,3.8
				c-1.27,0.94-2.73,1.41-4.4,1.41h-14.98L402.77,733.41z"/>
			
				<linearGradient id="SVGID_00000147187285573496103720000007060909793617926788_" gradientUnits="userSpaceOnUse" x1="530.5093" y1="562.4857" x2="530.5093" y2="791.6778">
				<stop  offset="0" style="stop-color:#3E76BB"/>
				<stop  offset="0.9672" style="stop-color:#06509E"/>
			</linearGradient>
			<path style="fill:url(#SVGID_00000147187285573496103720000007060909793617926788_);" d="M561.78,735.25
				c0.15,1.15,0.61,2.1,1.41,2.82c0.8,0.72,1.7,1.08,2.71,1.08l-0.54,2.5h-30.18c-0.94,0-1.84-0.44-2.71-1.3
				c-0.87-0.87-1.31-1.81-1.31-2.83l-1.52-25.19l-10.1,22.15c-0.22,0.51-0.33,1.08-0.33,1.74c0,0.79,0.33,1.48,0.98,2.06
				c0.65,0.58,1.38,0.87,2.17,0.87l-0.54,2.5h-22.58c-1.38,0-2.41-0.36-3.09-1.08s-1.03-1.67-1.03-2.83c0-0.86,0.07-1.46,0.22-1.79
				c0.15-0.32,0.25-0.56,0.33-0.7l28.44-60.91c0.36-0.87,0.55-1.56,0.55-2.07c0-0.79-0.35-1.5-1.03-2.12
				c-0.69-0.61-1.43-0.92-2.23-0.92l0.54-2.5h25.84c1.66,0,3.07,0.4,4.23,1.19c1.16,0.8,1.81,1.84,1.96,3.15L561.78,735.25z"/>
			
				<linearGradient id="SVGID_00000015349569101836385390000015555940379054403478_" gradientUnits="userSpaceOnUse" x1="174.9641" y1="562.4857" x2="174.9641" y2="791.6778">
				<stop  offset="0" style="stop-color:#3E76BB"/>
				<stop  offset="0.9672" style="stop-color:#06509E"/>
			</linearGradient>
			<path style="fill:url(#SVGID_00000015349569101836385390000015555940379054403478_);" d="M187.32,676.74
				c1.46-3.14,1.8-4.27,1.8-5.05c0-1.01-0.68-1.68-2.02-2.02l0.67-2.92h25.72c6.07,0,7.63,1.69,7.75,7.97l1.23,55.37
				c0.11,7.53,0.45,8.09,4.04,8.42l-0.79,3.14h-22.01c-6.18,0-7.19-1.01-7.3-7.41l-0.11-32.57l-15.27,39.98h-24.15l-0.22-39.98
				l-9.21,29.43c-0.9,2.81-1.23,4.04-1.23,4.83c0,1.69,1.01,2.47,3.03,2.58l-0.79,3.14h-17.97c-4.94,0-7.07-1.35-7.07-4.38
				c0-1.12,0.22-2.02,1.34-5.05l20.78-55.03c1.24-3.15,1.46-4.16,1.46-4.94c0-1.34-0.45-2.02-1.91-2.58l0.68-2.92h24.14
				c3.59,0,4.72,0.23,5.95,1.24c1.69,1.24,2.36,2.92,2.58,5.95l0.9,19.54L187.32,676.74z"/>
			
				<linearGradient id="SVGID_00000157304071555683635210000009814780926940508574_" gradientUnits="userSpaceOnUse" x1="264.5784" y1="562.4857" x2="264.5784" y2="791.6778">
				<stop  offset="0" style="stop-color:#3E76BB"/>
				<stop  offset="0.9672" style="stop-color:#06509E"/>
			</linearGradient>
			<path style="fill:url(#SVGID_00000157304071555683635210000009814780926940508574_);" d="M248.57,741.66
				c-8.09,0-12.69-0.67-15.95-3.03c-3.59-2.7-5.5-6.62-5.5-11.45c0-3.59,0.9-9.77,2.7-18.76c1.23-6.18,4.05-17.52,5.39-22.12
				c3.15-11.12,5.5-14.82,11.12-17.52c2.47-1.24,8.31-2.02,13.92-2.02h21.79c6.85,0,10.78,0.56,14.61,3.14
				c3.93,2.81,5.39,6.74,5.39,11.91c0,4.94-0.91,10.22-4.27,24.59c-3.93,17.19-5.06,21.56-7.75,26.17c-5.28,9.1-13.48,9.1-24.82,9.1
				H248.57z M257.11,718.97c-0.23,1.01-0.34,1.91-0.34,2.47c0,2.13,1.23,3.26,3.48,3.26c2.58,0,3.71-1.46,4.94-6.51l6.63-28.75
				c0.22-1.24,0.45-2.25,0.45-2.92c0-2.25-1.23-3.48-3.48-3.48c-2.58,0-3.71,1.46-4.83,6.4L257.11,718.97z"/>
			
				<linearGradient id="SVGID_00000173140547214203909190000002941690575546607782_" gradientUnits="userSpaceOnUse" x1="466.969" y1="562.4857" x2="466.969" y2="791.6778">
				<stop  offset="0" style="stop-color:#3E76BB"/>
				<stop  offset="0.9672" style="stop-color:#06509E"/>
			</linearGradient>
			<path style="fill:url(#SVGID_00000173140547214203909190000002941690575546607782_);" d="M450.96,741.66
				c-8.09,0-12.69-0.67-15.95-3.03c-3.59-2.7-5.5-6.62-5.5-11.45c0-3.59,0.9-9.77,2.7-18.76c1.23-6.18,4.05-17.52,5.39-22.12
				c3.15-11.12,5.5-14.82,11.12-17.52c2.47-1.24,8.31-2.02,13.92-2.02h21.79c6.85,0,10.78,0.56,14.61,3.14
				c3.93,2.81,5.39,6.74,5.39,11.91c0,4.94-0.91,10.22-4.27,24.59c-3.93,17.19-5.06,21.56-7.75,26.17c-5.28,9.1-13.48,9.1-24.82,9.1
				H450.96z M459.5,718.97c-0.23,1.01-0.34,1.91-0.34,2.47c0,2.13,1.23,3.26,3.48,3.26c2.58,0,3.71-1.46,4.94-6.51l6.63-28.75
				c0.22-1.24,0.45-2.25,0.45-2.92c0-2.25-1.23-3.48-3.48-3.48c-2.58,0-3.71,1.46-4.83,6.4L459.5,718.97z"/>
			
				<linearGradient id="SVGID_00000082362945835741866910000007543129131188101518_" gradientUnits="userSpaceOnUse" x1="337.3874" y1="562.4857" x2="337.3874" y2="791.6778">
				<stop  offset="0" style="stop-color:#3E76BB"/>
				<stop  offset="0.9672" style="stop-color:#06509E"/>
			</linearGradient>
			<path style="fill:url(#SVGID_00000082362945835741866910000007543129131188101518_);" d="M327.34,730.09
				c-0.68,2.58-0.9,4.15-0.9,4.94c0,1.91,0.79,2.92,3.25,3.37l-0.78,3.26h-23.25h-2.81c-3.82,0-5.84-1.46-5.84-4.27
				c0-0.79,0.11-1.91,0.33-3.03l0.56-2.7l12.36-53.24c0.56-2.58,0.9-4.15,0.9-4.94c0-2.02-0.9-2.92-3.26-3.48l0.79-3.26h23.25h2.7
				c3.93,0,5.95,1.57,5.95,4.38c0,0.68-0.11,1.8-0.33,2.92l-0.68,2.7l-3.82,16.74h8.09l3.48-15.05c0.68-2.58,0.9-4.15,0.9-4.94
				c0-2.02-0.9-2.92-3.26-3.48l0.79-3.26H369h2.7c3.93,0,6.07,1.57,6.07,4.38c0,0.68-0.22,1.8-0.45,2.92l-0.67,2.7l-12.24,53.35
				c-0.68,2.58-0.9,4.15-0.9,4.94c0,1.91,0.9,2.92,3.26,3.37l-0.79,3.26h-23.25h-2.7c-3.93,0-5.95-1.46-5.95-4.27
				c0-0.79,0.11-1.91,0.34-3.03l0.67-2.7l5.39-23.36h-8.2L327.34,730.09z"/>
		</g>
	</g>
	<g>
		
			<linearGradient id="SVGID_00000150065279270285725860000010253832071514821539_" gradientUnits="userSpaceOnUse" x1="226.2703" y1="540.3769" x2="226.2703" y2="663.6262">
			<stop  offset="0" style="stop-color:#3E76BB"/>
			<stop  offset="0.9672" style="stop-color:#06509E"/>
		</linearGradient>
		<path style="fill:url(#SVGID_00000150065279270285725860000010253832071514821539_);" d="M251.2,571.28
			c1.24,0,2.44-0.24,3.59-0.71c1.16-0.48,1.89-1.15,2.2-2.03h2.67l-4.64,16.82c-0.77,2.35-3.05,3.52-6.84,3.52h-6.84l-12.99,52.32
			c-0.15,0.73,0.19,1.48,1.04,2.25c0.85,0.77,1.7,1.15,2.55,1.15l-0.81,2.53h-32.23c-2.47,0-3.71-1.17-3.71-3.52
			c0-0.29,0.08-0.88,0.23-1.76l13.1-52.97h-8c-1.24,0-2.26,0.27-3.07,0.82s-1.37,1.26-1.68,2.14h-2.9l4.64-17.59
			c0.31-1.03,0.93-1.78,1.86-2.25s2.4-0.71,4.41-0.71H251.2z"/>
		
			<linearGradient id="SVGID_00000156566164557008589260000002062922969467699076_" gradientUnits="userSpaceOnUse" x1="276.8287" y1="540.3769" x2="276.8287" y2="663.6262">
			<stop  offset="0" style="stop-color:#3E76BB"/>
			<stop  offset="0.9672" style="stop-color:#06509E"/>
		</linearGradient>
		<path style="fill:url(#SVGID_00000156566164557008589260000002062922969467699076_);" d="M288.08,647.12
			c-2.01,0-3.5-0.31-4.46-0.93c-0.97-0.62-1.53-1.7-1.68-3.24l-1.04-11.21h-13.45l-4.75,9.01c-0.08,0.22-0.12,0.4-0.12,0.55
			s-0.04,0.44-0.12,0.88c0,0.66,0.33,1.23,0.99,1.7c0.66,0.48,1.41,0.71,2.26,0.71l-0.58,2.53h-25.16c-3.25,0-4.87-1.21-4.87-3.63
			c0-0.66,0.19-1.36,0.58-2.09l34.09-62.65c0.23-0.44,0.35-0.99,0.35-1.65c0-0.81-0.37-1.56-1.1-2.25c-0.73-0.7-1.53-1.04-2.38-1.04
			l0.7-2.53h34.55c1.78,0,3.28,0.46,4.52,1.37c1.24,0.92,1.86,2.21,1.86,3.9l5.33,64.19c0,0.95,0.54,1.83,1.62,2.64
			c1.08,0.81,2.2,1.21,3.36,1.21l-0.58,2.53H288.08z M274.28,617h6.61l-0.93-12.31L274.28,617z"/>
		
			<linearGradient id="SVGID_00000164480053838030082000000011281847594653511049_" gradientUnits="userSpaceOnUse" x1="359.7974" y1="540.3769" x2="359.7974" y2="663.6262">
			<stop  offset="0" style="stop-color:#3E76BB"/>
			<stop  offset="0.9672" style="stop-color:#06509E"/>
		</linearGradient>
		<path style="fill:url(#SVGID_00000164480053838030082000000011281847594653511049_);" d="M385.25,571.17c5.18,0,9.18,1.28,12,3.85
			c2.82,2.57,4.23,5.79,4.23,9.67c0,0.59-0.06,1.25-0.17,1.98c-0.12,0.73-0.21,1.28-0.29,1.65c-1.78,8.06-5.41,12.93-10.9,14.62
			c2.24,1.32,3.88,2.76,4.93,4.34s1.57,3.9,1.57,6.97c0,2.79-0.58,6.67-1.74,11.65c-2.01,8.28-5.1,13.96-9.28,17.04
			c-3.79,2.79-9.62,4.18-17.51,4.18h-46.03c-1.31,0-2.3-0.35-2.96-1.04c-0.66-0.7-0.99-1.63-0.99-2.8c0-0.44,0.08-1.03,0.23-1.76
			l15.77-64.3c0.15-0.81-0.15-1.58-0.93-2.31c-0.77-0.73-1.62-1.1-2.55-1.1l0.7-2.53L385.25,571.17z M358,630.08
			c2.09,0,3.54-0.46,4.35-1.37c0.81-0.92,1.6-2.98,2.38-6.21c0.54-2.05,0.81-3.74,0.81-5.06c0-2.49-1.43-3.74-4.29-3.74H358
			l-3.94,16.38H358z M366.23,599.09c1.31,0,2.24-0.35,2.78-1.04c0.54-0.7,1.04-1.96,1.51-3.79s0.7-3.15,0.7-3.96
			c0-1.91-1.12-2.86-3.36-2.86h-3.48l-2.78,11.65H366.23z"/>
		
			<linearGradient id="SVGID_00000128471038139349629920000016991957854734467509_" gradientUnits="userSpaceOnUse" x1="434.3016" y1="540.3769" x2="434.3016" y2="663.6262">
			<stop  offset="0" style="stop-color:#3E76BB"/>
			<stop  offset="0.9672" style="stop-color:#06509E"/>
		</linearGradient>
		<path style="fill:url(#SVGID_00000128471038139349629920000016991957854734467509_);" d="M445.55,647.12
			c-2.01,0-3.5-0.31-4.46-0.93c-0.97-0.62-1.53-1.7-1.68-3.24l-1.04-11.21h-13.45l-4.75,9.01c-0.08,0.22-0.12,0.4-0.12,0.55
			s-0.04,0.44-0.12,0.88c0,0.66,0.33,1.23,0.99,1.7c0.66,0.48,1.41,0.71,2.26,0.71l-0.58,2.53h-25.16c-3.25,0-4.87-1.21-4.87-3.63
			c0-0.66,0.19-1.36,0.58-2.09l34.09-62.65c0.23-0.44,0.35-0.99,0.35-1.65c0-0.81-0.37-1.56-1.1-2.25c-0.73-0.7-1.53-1.04-2.38-1.04
			l0.7-2.53h34.55c1.78,0,3.28,0.46,4.52,1.37c1.24,0.92,1.86,2.21,1.86,3.9l5.33,64.19c0,0.95,0.54,1.83,1.62,2.64
			c1.08,0.81,2.2,1.21,3.36,1.21l-0.58,2.53H445.55z M431.75,617h6.61l-0.93-12.31L431.75,617z"/>
		
			<linearGradient id="SVGID_00000088127788609809770680000018383199748827095226_" gradientUnits="userSpaceOnUse" x1="523.7072" y1="540.3769" x2="523.7072" y2="663.6262">
			<stop  offset="0" style="stop-color:#3E76BB"/>
			<stop  offset="0.9672" style="stop-color:#06509E"/>
		</linearGradient>
		<path style="fill:url(#SVGID_00000088127788609809770680000018383199748827095226_);" d="M518.49,613.7l-6.61,27.04l-0.12,0.88
			c0,0.81,0.39,1.5,1.16,2.09c0.77,0.59,1.59,0.88,2.43,0.88l-0.58,2.53h-32.35c-2.55,0-3.83-1.17-3.83-3.52
			c0-0.37,0.08-0.99,0.23-1.87l15.89-64.52c0.15-0.73-0.19-1.48-1.04-2.25s-1.7-1.15-2.55-1.15l0.81-2.53h32.23
			c2.47,0,3.71,1.17,3.71,3.52c0,0.29-0.08,0.88-0.23,1.76l-5.57,22.53h8.23l5.33-21.87c0.15-0.73-0.15-1.48-0.93-2.25
			s-1.59-1.15-2.44-1.15l0.58-2.53h32.23c1.31,0,2.26,0.31,2.84,0.93s0.87,1.52,0.87,2.69l-0.23,1.65l-15.77,64.63
			c-0.15,0.73,0.19,1.48,1.04,2.25c0.85,0.77,1.7,1.15,2.55,1.15l-0.81,2.53h-32.23c-2.47,0-3.71-1.17-3.71-3.52
			c0-0.29,0.08-0.88,0.23-1.76l6.84-28.14H518.49z"/>
		
			<linearGradient id="SVGID_00000047058870210816161960000017403754221811930502_" gradientUnits="userSpaceOnUse" x1="649.8133" y1="540.3769" x2="649.8133" y2="663.6262">
			<stop  offset="0" style="stop-color:#3E76BB"/>
			<stop  offset="0.9672" style="stop-color:#06509E"/>
		</linearGradient>
		<path style="fill:url(#SVGID_00000047058870210816161960000017403754221811930502_);" d="M668.77,596.78
			c5.8,0,10.36,1.5,13.68,4.51c3.32,3.01,4.99,7.33,4.99,12.96c0,3.01-0.46,6.3-1.39,9.89s-2.05,6.92-3.36,10
			c-2.17,5.13-5.04,8.57-8.64,10.33s-8.83,2.64-15.71,2.64h-46.96c-1.31,0-2.3-0.35-2.96-1.04c-0.66-0.7-0.99-1.63-0.99-2.8
			c0-0.44,0.08-1.03,0.23-1.76l15.77-64.3c0.15-0.81-0.15-1.58-0.93-2.31c-0.77-0.73-1.62-1.1-2.55-1.1l0.7-2.53h71.54l-3.25,12.09
			c-0.39,1.47-1.47,2.65-3.25,3.57c-1.78,0.92-3.56,1.37-5.33,1.37h-26.9l-2.09,8.46H668.77z M643.5,629.53h3.83
			c1.86,0,3.19-0.55,4-1.65s1.68-3.37,2.61-6.81c0.46-1.91,0.7-3.48,0.7-4.73c0-2.42-1.2-3.63-3.59-3.63h-3.48L643.5,629.53z"/>
		
			<linearGradient id="SVGID_00000017506794630686089910000016081709588934679466_" gradientUnits="userSpaceOnUse" x1="728.5497" y1="540.3769" x2="728.5497" y2="663.6262">
			<stop  offset="0" style="stop-color:#3E76BB"/>
			<stop  offset="0.9672" style="stop-color:#06509E"/>
		</linearGradient>
		<path style="fill:url(#SVGID_00000017506794630686089910000016081709588934679466_);" d="M745.77,571.28c6.8,0,12.41,1.67,16.81,5
			s6.61,8.04,6.61,14.12c0,2.2-0.27,4.33-0.81,6.38l-6.96,27.91c-2.01,8.28-5.49,14.18-10.44,17.7c-4.33,3.15-10.28,4.73-17.86,4.73
			h-23.77c-7.27,0-12.66-1.56-16.18-4.67c-3.52-3.12-5.28-7.71-5.28-13.79c0-3.59,0.5-7.33,1.51-11.21l5.1-20.77
			c2.01-7.99,4.91-13.96,8.7-17.92c4.87-4.98,11.71-7.47,20.52-7.47H745.77z M720.72,623.59c-0.23,1.03-0.35,1.91-0.35,2.64
			c0,1.83,1.08,2.75,3.25,2.75c1.47,0,2.57-0.31,3.3-0.93s1.3-1.74,1.68-3.35l7.65-30.88c0.15-0.88,0.23-1.47,0.23-1.76
			c0-2.13-1.12-3.19-3.36-3.19c-2.47,0-4.14,1.47-4.99,4.4L720.72,623.59z"/>
		
			<linearGradient id="SVGID_00000130638389405598830300000014446815685900297407_" gradientUnits="userSpaceOnUse" x1="798.4172" y1="540.3769" x2="798.4172" y2="663.6262">
			<stop  offset="0" style="stop-color:#3E76BB"/>
			<stop  offset="0.9672" style="stop-color:#06509E"/>
		</linearGradient>
		<path style="fill:url(#SVGID_00000130638389405598830300000014446815685900297407_);" d="M796.1,638.76
			c-0.23,0.81-0.35,1.61-0.35,2.42c0,0.88,0.44,1.67,1.33,2.36c0.89,0.7,1.8,1.04,2.72,1.04l-0.58,2.53H766.3
			c-1.31,0-2.3-0.35-2.96-1.04c-0.66-0.7-0.99-1.63-0.99-2.8c0-0.44,0.08-1.03,0.23-1.76l15.77-64.3c0.15-0.81-0.15-1.58-0.93-2.31
			c-0.77-0.73-1.62-1.1-2.55-1.1l0.7-2.53h58.9l-3.01,12.31c-0.39,1.61-1.26,2.9-2.61,3.85c-1.35,0.95-2.92,1.43-4.7,1.43h-16
			L796.1,638.76z"/>
		
			<linearGradient id="SVGID_00000027582802055250404320000000821761345030001061_" gradientUnits="userSpaceOnUse" x1="847.8162" y1="540.3769" x2="847.8162" y2="663.6262">
			<stop  offset="0" style="stop-color:#3E76BB"/>
			<stop  offset="0.9672" style="stop-color:#06509E"/>
		</linearGradient>
		<path style="fill:url(#SVGID_00000027582802055250404320000000821761345030001061_);" d="M880.98,626.12
			c0.39,2.27,1.47,3.41,3.25,3.41h2.9l-3.01,12.53c-0.54,2.13-1.62,3.56-3.25,4.29c-1.24,0.51-3.28,0.77-6.15,0.77h-61.46
			c-3.17,0-4.75-1.21-4.75-3.63l0.23-1.76l2.9-12.2h3.13c1.08,0,2.03-0.31,2.84-0.93c0.81-0.62,1.41-1.37,1.8-2.25l23.42-47.48
			l0.23-1.98c0-0.88-0.31-1.61-0.93-2.2c-0.62-0.59-1.39-0.88-2.32-0.88l0.58-2.53h28.06c1.62,0,2.99,0.42,4.12,1.26
			c1.12,0.84,1.76,1.89,1.91,3.13L880.98,626.12z M849.56,615.68l-5.68,13.85h6.61L849.56,615.68z"/>
	</g>
</g>
</svg>
