<?xml version="1.0" encoding="utf-8"?>
<!-- Generator: Adobe Illustrator 26.5.0, SVG Export Plug-In . SVG Version: 6.00 Build 0)  -->
<svg version="1.1" id="Layer_1" xmlns="http://www.w3.org/2000/svg" xmlns:xlink="http://www.w3.org/1999/xlink" x="0px" y="0px"
	 viewBox="0 0 1080 1080" style="enable-background:new 0 0 1080 1080;" xml:space="preserve">
<style type="text/css">
	.st0{fill-rule:evenodd;clip-rule:evenodd;}
	.st1{fill:#ED1C24;}
	.st2{fill:#E1251B;}
	.st3{fill-rule:evenodd;clip-rule:evenodd;fill:#16397B;}
	.st4{fill:#EE2745;}
	
		.st5{clip-path:url(#SVGID_00000057870841469347294240000011222615560633327240_);fill:url(#SVGID_00000072972232096927774800000003801119317304270271_);}
	
		.st6{clip-path:url(#SVGID_00000136386884378832241530000009654869451735920002_);fill:url(#SVGID_00000109016523207669005020000007959139183463861644_);}
	
		.st7{clip-path:url(#SVGID_00000063620441881520475320000002128661799160504255_);fill:url(#SVGID_00000029733722825430871850000009182449142357044367_);}
	
		.st8{clip-path:url(#SVGID_00000150783953073987317660000001841179136582501797_);fill:url(#SVGID_00000018219634641579545140000013462879529423844780_);}
	.st9{fill:#424243;}
	
		.st10{clip-path:url(#SVGID_00000080166865044318473880000018066708987442990241_);fill:url(#SVGID_00000007406726789677122320000001121659608176915842_);}
	.st11{fill:#FFFFFF;}
	
		.st12{clip-path:url(#SVGID_00000044863612922252338280000018387369940611405753_);fill:url(#SVGID_00000019651345092810257150000006073057760201121685_);}
	
		.st13{clip-path:url(#SVGID_00000150096162372556587260000012292788960685420674_);fill:url(#SVGID_00000033343361958226766160000000815921393330960309_);}
	
		.st14{clip-path:url(#SVGID_00000134942241899018679150000015090005640270151559_);fill:url(#SVGID_00000089544813627356345540000012247052614074124681_);}
	
		.st15{clip-path:url(#SVGID_00000164473646792383914160000000213994105700786049_);fill:url(#SVGID_00000159436596272111992220000000404128440050473918_);}
	
		.st16{clip-path:url(#SVGID_00000160880652216431513150000016492746388898242472_);fill:url(#SVGID_00000045583386210948072670000013091395190857930929_);}
	
		.st17{clip-path:url(#SVGID_00000088093000662234942850000014248122398037090218_);fill:url(#SVGID_00000078757325769012070670000015153450862323046802_);}
	
		.st18{clip-path:url(#SVGID_00000005258476760311326410000007267447059510293149_);fill:url(#SVGID_00000016036220183146851350000014017350459431110589_);}
	.st19{fill-rule:evenodd;clip-rule:evenodd;fill:#C8202F;}
	.st20{fill-rule:evenodd;clip-rule:evenodd;fill:#FFFFFF;}
	.st21{fill-rule:evenodd;clip-rule:evenodd;fill:#F98238;}
	.st22{filter:url(#Adobe_OpacityMaskFilter);}
	.st23{fill:url(#SVGID_00000129927483458160975680000014534106525763648424_);}
	.st24{mask:url(#SVGID_00000062163866400242152070000016369337070535444888_);fill-rule:evenodd;clip-rule:evenodd;fill:#ED1C24;}
	.st25{fill-rule:evenodd;clip-rule:evenodd;fill:#F5333F;}
	.st26{fill-rule:evenodd;clip-rule:evenodd;fill:#ED1C24;}
	.st27{fill-rule:evenodd;clip-rule:evenodd;fill:#F9A46E;}
	.st28{fill-rule:evenodd;clip-rule:evenodd;fill:#F47B26;}
	.st29{fill-rule:evenodd;clip-rule:evenodd;fill:#EB5433;}
	.st30{fill:#1A3282;}
	.st31{fill-rule:evenodd;clip-rule:evenodd;fill:#1A3282;}
	.st32{fill-rule:evenodd;clip-rule:evenodd;fill:#9D9FA2;}
	.st33{fill-rule:evenodd;clip-rule:evenodd;fill:#000303;}
	.st34{fill:#64003D;}
	.st35{fill:#536270;}
	.st36{fill-rule:evenodd;clip-rule:evenodd;fill:#64003D;}
	.st37{fill-rule:evenodd;clip-rule:evenodd;fill:#536270;}
	.st38{fill-rule:evenodd;clip-rule:evenodd;fill:#1A3382;}
	.st39{fill-rule:evenodd;clip-rule:evenodd;fill:#29387E;}
	.st40{fill-rule:evenodd;clip-rule:evenodd;fill:#F37021;}
	.st41{fill-rule:evenodd;clip-rule:evenodd;fill:#005C32;}
	.st42{fill-rule:evenodd;clip-rule:evenodd;fill:#D2AB67;}
	
		.st43{clip-path:url(#SVGID_00000030470500180166650210000002529111939068089229_);fill:url(#SVGID_00000054258969775097743580000013482433609710619315_);}
	
		.st44{clip-path:url(#SVGID_00000099621860169431965820000009929116916702323880_);fill:url(#SVGID_00000106838161536947168540000009542512451687645318_);}
	
		.st45{clip-path:url(#SVGID_00000119837997231013676760000004420601463533854901_);fill:url(#SVGID_00000006701541223372848420000010151144383083724975_);}
	.st46{fill-rule:evenodd;clip-rule:evenodd;fill:#00AEEF;}
	.st47{fill-rule:evenodd;clip-rule:evenodd;fill:#EC008C;}
	.st48{fill-rule:evenodd;clip-rule:evenodd;fill:#FFF200;}
	.st49{fill:#A7AAAC;}
	.st50{fill-rule:evenodd;clip-rule:evenodd;fill:#5C5B5B;}
	.st51{fill:#9D9D9F;}
	.st52{fill:#F04D23;}
	.st53{fill-rule:evenodd;clip-rule:evenodd;fill:#2E3192;}
	.st54{fill-rule:evenodd;clip-rule:evenodd;fill:#C4312D;}
	.st55{fill:#552715;}
	.st56{fill:#010101;}
	.st57{fill:#E31E2E;}
	.st58{fill:url(#SVGID_00000006692867200581974400000000063915538054754970_);}
	.st59{fill:url(#SVGID_00000113311050825740589020000012396753790231882634_);}
	.st60{clip-path:url(#SVGID_00000141455534685854441030000016368336256546224020_);}
	.st61{clip-path:url(#SVGID_00000162327787543149812800000008894349498056547513_);}
	.st62{clip-path:url(#SVGID_00000119100243927706218410000016604908345886676902_);}
	.st63{clip-path:url(#SVGID_00000027573740025763853250000011063026275350432685_);}
	.st64{clip-path:url(#SVGID_00000065797230195170125770000016823271423279306171_);}
	.st65{clip-path:url(#SVGID_00000169524023563066489590000017649368873551743380_);}
	.st66{clip-path:url(#SVGID_00000148630136637000571510000015508616690316380554_);}
	.st67{clip-path:url(#SVGID_00000054226863838822082620000015646359484185847692_);}
	.st68{clip-path:url(#SVGID_00000062899241926916843660000017096578129637024407_);}
	.st69{clip-path:url(#SVGID_00000115495968584423074710000004284763653634070685_);}
	.st70{clip-path:url(#SVGID_00000131328043331808376870000006098155900816817599_);}
	.st71{fill:#2650A1;}
	.st72{fill:url(#SVGID_00000112606884459322535200000007760532717736041628_);}
	.st73{fill:#FEFEFE;}
	.st74{fill:#FDFDFD;}
	.st75{fill:#FCFCFC;}
	.st76{fill:#FBFBFB;}
	.st77{fill:#FAFAFA;}
	.st78{fill:#F9F9F9;}
	.st79{fill:#F8F8F8;}
	.st80{fill:#F7F7F7;}
	.st81{fill:#F6F6F6;}
	.st82{fill:#F5F5F5;}
	.st83{fill:#F4F4F4;}
	.st84{fill:#F3F3F3;}
	.st85{fill:#F2F2F2;}
	.st86{fill:#F1F1F1;}
	.st87{fill:#F0F0F0;}
	.st88{fill:#EFEFEF;}
	.st89{fill:#EEEEEE;}
	.st90{fill:#EDEDED;}
	.st91{fill:#ECECEC;}
	.st92{fill:#EBEBEB;}
	.st93{fill:#EAEAEA;}
	.st94{fill:#E9E9E9;}
	.st95{fill:#E8E8E8;}
	.st96{fill:#E7E7E7;}
	.st97{fill:#E6E6E6;}
	.st98{fill:#E5E5E5;}
	.st99{fill:#E4E4E4;}
	.st100{fill:#E3E3E3;}
	.st101{fill:#E2E2E2;}
	.st102{fill:#E1E1E1;}
	.st103{fill:#E0E0E0;}
	.st104{fill:#DFDFDF;}
	.st105{fill:#DEDEDE;}
	.st106{fill:#DDDDDD;}
	.st107{fill:#DCDCDC;}
	.st108{fill:#DBDBDB;}
	.st109{fill:#DADADA;}
	.st110{fill:#D9D9D9;}
	.st111{fill:#D92231;}
	.st112{fill:url(#SVGID_00000169542302858736967150000004051574463624932481_);}
	.st113{fill:url(#SVGID_00000082368430616719140830000015916091727983200137_);}
	.st114{opacity:0.8;}
	.st115{fill:url(#SVGID_00000018948434669281018750000016017070187727919491_);}
	.st116{fill:url(#SVGID_00000158720644796161271420000003322398958304470162_);}
	.st117{fill-rule:evenodd;clip-rule:evenodd;fill:#010101;}
	.st118{fill:#80A845;}
	.st119{fill-rule:evenodd;clip-rule:evenodd;fill:#80A845;}
	.st120{fill:url(#SVGID_00000075157688494259397050000009379278801112970676_);}
	.st121{fill-rule:evenodd;clip-rule:evenodd;fill:#04984A;}
	.st122{fill-rule:evenodd;clip-rule:evenodd;fill:url(#SVGID_00000075156851237563286490000011330735644141173414_);}
	.st123{fill:url(#SVGID_00000013154951946646725370000017524597353798055849_);}
	.st124{fill:url(#SVGID_00000147193235549450267610000005438597248292050319_);}
	.st125{fill:url(#SVGID_00000127752375413420038560000018405194824796707475_);}
	.st126{fill:url(#SVGID_00000008140812098398730470000010823078204653422509_);}
	.st127{fill:url(#SVGID_00000057837271413817406390000016821588757066070717_);}
	.st128{fill:url(#SVGID_00000098928823774081192440000001926628749888237231_);}
	.st129{fill:url(#SVGID_00000131343321287238591800000000820724541931625368_);}
	.st130{fill:url(#SVGID_00000044883771577352506240000012761803714982196404_);}
	.st131{fill:url(#SVGID_00000115483847490455361170000004419229209691003831_);}
	.st132{fill:url(#SVGID_00000016774474834859721850000011922345574228149128_);}
	.st133{fill:url(#SVGID_00000098932660149078276730000004704104711601320368_);}
	.st134{fill:url(#SVGID_00000036942657804591548130000000907889931868606907_);}
	.st135{fill:url(#SVGID_00000123433927695979786450000004842274087403638935_);}
	.st136{fill:url(#SVGID_00000065054138131436834730000002163505690104663481_);}
	.st137{fill-rule:evenodd;clip-rule:evenodd;fill:url(#SVGID_00000034064514466066559980000011439202909206248344_);}
	.st138{fill:#0A529D;}
	.st139{fill:url(#SVGID_00000025435436491263953220000011739299746937879457_);}
	.st140{fill:url(#SVGID_00000141413612501182613310000013303497047763097226_);}
	.st141{fill:url(#SVGID_00000148657463010985531040000016195719683993330322_);}
	.st142{fill:url(#SVGID_00000163035199416992877600000003778782934156297885_);}
	.st143{fill:url(#SVGID_00000104680805718859854810000004506404099142744462_);}
	.st144{fill:url(#SVGID_00000076584207413061532410000007941316092190508695_);}
	.st145{fill:url(#SVGID_00000018952571960218118850000014743544000538946205_);}
	.st146{fill:url(#SVGID_00000123438078041391472690000002229708670157025445_);}
	.st147{fill:url(#SVGID_00000034067354598339353430000015343699147641118650_);}
	.st148{fill:url(#SVGID_00000165936324532667378330000015749892278496872095_);}
	.st149{fill:url(#SVGID_00000115503724232219311330000005631671023397739148_);}
	.st150{fill:url(#SVGID_00000134940299154243940680000005331343676295481984_);}
	.st151{fill-rule:evenodd;clip-rule:evenodd;fill:url(#SVGID_00000149367211676653074990000006540073790904287365_);}
	.st152{fill:url(#SVGID_00000096742139734293352220000016143272564334315675_);}
	.st153{fill:url(#SVGID_00000181778042520448015460000010728913319300398978_);}
	.st154{fill:url(#SVGID_00000128447464001643027790000008877002782636145804_);}
	.st155{fill:url(#SVGID_00000158002203658861339340000008636936107727405221_);}
	.st156{fill:url(#SVGID_00000042707263431749483840000008300646707136549558_);}
	.st157{fill:url(#SVGID_00000024693657513198671890000005235393688032078215_);}
	.st158{fill:url(#SVGID_00000175285598764022006400000000383239857405610149_);}
	.st159{fill:url(#SVGID_00000077295999018409216140000003971651168206873509_);}
	.st160{fill:url(#SVGID_00000085244135571937912600000012555148663738998417_);}
	.st161{fill:url(#SVGID_00000160902046639214172450000015080509170049906354_);}
	.st162{fill:url(#SVGID_00000124133603802032668180000002278360805684000678_);}
	.st163{fill:url(#SVGID_00000016776301676610878720000013133686969143983551_);}
	.st164{fill:url(#SVGID_00000066476613539350494600000012877265558646237607_);}
	.st165{fill:url(#SVGID_00000171719746668482371360000010419278947936165013_);}
	.st166{fill:url(#SVGID_00000105388022857131071340000005334453184827632563_);}
	.st167{fill:url(#SVGID_00000168825905846917781440000001497301538988769198_);}
	.st168{fill:url(#SVGID_00000116234939865824943080000007124534239061976243_);}
	.st169{fill-rule:evenodd;clip-rule:evenodd;fill:url(#SVGID_00000045584534185323963680000016047827384630038657_);}
	.st170{fill:url(#SVGID_00000095297048451536903060000001133163354228732319_);}
	.st171{fill:url(#SVGID_00000092441558502494364690000002867666514558036633_);}
	.st172{fill:url(#SVGID_00000098212267076525501420000010059638507997907339_);}
	.st173{fill:url(#SVGID_00000148659897106962425610000014959028682927107737_);}
	.st174{fill:url(#SVGID_00000013877500241016242990000014461193728209255831_);}
	.st175{fill:url(#SVGID_00000080208574942601918790000016825277669567330955_);}
	.st176{fill:url(#SVGID_00000039125323629453789120000004806639164223038848_);}
	.st177{fill:url(#SVGID_00000119799196758581592190000000633849623317305007_);}
	.st178{fill:url(#SVGID_00000070079792448915903250000015298764726544689820_);}
	.st179{fill:url(#SVGID_00000148656347005665513040000005930053685759318701_);}
	.st180{fill:url(#SVGID_00000070819778020675125660000002038178664928093618_);}
	.st181{fill:url(#SVGID_00000018954949602721233530000001157868233215863682_);}
	.st182{fill:url(#SVGID_00000019663479097756416210000005683881922710592946_);}
	.st183{fill:url(#SVGID_00000056420322458327222030000002861988958863195321_);}
	.st184{fill-rule:evenodd;clip-rule:evenodd;fill:url(#SVGID_00000122678705706131700290000012252938689714491810_);}
	.st185{fill:url(#SVGID_00000135676130743375333210000007128883131504497034_);}
	.st186{fill:url(#SVGID_00000118397501295497001430000009800454427905905573_);}
	.st187{fill:url(#SVGID_00000102531888604349522680000011818407261654700455_);}
	.st188{fill:url(#SVGID_00000135657389313270353900000007337920871950683524_);}
	.st189{fill:url(#SVGID_00000162331983743907062260000013175059743963309757_);}
	.st190{fill:url(#SVGID_00000121992462344697086060000004255021951629869247_);}
	.st191{fill:url(#SVGID_00000160890087292327879020000001385856849456725673_);}
	.st192{fill:url(#SVGID_00000021081330352703590520000017428180570234737298_);}
	.st193{fill:url(#SVGID_00000069381241492683847930000018256093080499964597_);}
	.st194{fill:url(#SVGID_00000058561298730494674330000012050557744537161903_);}
	.st195{fill:url(#SVGID_00000112598723944420931910000017848502362116618675_);}
	.st196{fill:url(#SVGID_00000028306907937101168940000010024037352505915533_);}
	.st197{fill:url(#SVGID_00000039123676475969934560000000739286897522907535_);}
	.st198{fill:url(#SVGID_00000048495872129379163170000015583705323400493461_);}
	.st199{fill:url(#SVGID_00000107571497391613773590000007548977897279684760_);}
	.st200{fill:url(#SVGID_00000154426063900474080750000012411646069648726717_);}
	.st201{fill:url(#SVGID_00000016043362840026148390000001656930907034769329_);}
	.st202{fill:url(#SVGID_00000153665818133978879890000011773488153146806697_);}
	.st203{fill:url(#SVGID_00000154398694952123535190000001073000508724743306_);}
	.st204{fill-rule:evenodd;clip-rule:evenodd;fill:url(#SVGID_00000181082822854674869100000012433949322861375676_);}
	.st205{fill:url(#SVGID_00000052085443876185793970000016004209680775648430_);}
	.st206{fill:url(#SVGID_00000160150153661303669830000008584554000944599194_);}
	.st207{fill:url(#SVGID_00000159442093675493703450000000227151424605118131_);}
	.st208{fill:url(#SVGID_00000015345916400079913180000000472131487923884464_);}
	.st209{fill:url(#SVGID_00000012466533078430560050000004650923332575259063_);}
	.st210{fill:url(#SVGID_00000062877389739913870580000013813070159151375287_);}
	.st211{fill:url(#SVGID_00000018938759188741824800000015730208753131010473_);}
	.st212{fill:url(#SVGID_00000163792287988819869500000006335253565166896281_);}
	.st213{fill:url(#SVGID_00000143614201776193434140000007586186252681016730_);}
	.st214{fill:url(#SVGID_00000045607252694190575180000006863763706730193026_);}
	.st215{fill:url(#SVGID_00000116925319143346019780000015334504320412333501_);}
	.st216{fill:url(#SVGID_00000011023061527766941100000010551828671692041118_);}
	.st217{fill:url(#SVGID_00000067215875622481524350000014751784550592881567_);}
	.st218{fill:url(#SVGID_00000180325281403313498960000011019034697144454785_);}
	.st219{fill:url(#SVGID_00000177486601722072539740000000369690682775470005_);}
	.st220{fill:url(#SVGID_00000013909805103354460150000003219662772372371119_);}
	.st221{fill-rule:evenodd;clip-rule:evenodd;fill:url(#SVGID_00000108294303635974151340000015218689074845005713_);}
	.st222{fill:url(#SVGID_00000024711188830802186840000004441641910784035739_);}
	.st223{fill:url(#SVGID_00000001630771805300965340000007668863688234095525_);}
	.st224{fill:url(#SVGID_00000147912675097337215770000015903614662293380499_);}
	.st225{fill:url(#SVGID_00000148645466222418062650000013594079788532492677_);}
	.st226{fill:url(#SVGID_00000106117448357392212950000007608997121437757324_);}
	.st227{fill:url(#SVGID_00000039106418485854820870000015838873148778421431_);}
	.st228{fill:url(#SVGID_00000057118970597591768320000004695920594326164366_);}
	.st229{fill:url(#SVGID_00000033352585083427238540000014162438039238023334_);}
	.st230{fill:url(#SVGID_00000073691194096724038790000017674769875960144544_);}
	.st231{fill:url(#SVGID_00000167396522406705957840000006551862549222575501_);}
	.st232{fill:url(#SVGID_00000181053333994469182570000000531278524855758520_);}
	.st233{fill:url(#SVGID_00000023996543375625505440000003261343466256074664_);}
	.st234{fill:url(#SVGID_00000141443097766436709870000010472002270448409489_);}
	.st235{fill:url(#SVGID_00000028313950791745345090000013596867104645496243_);}
	.st236{fill:url(#SVGID_00000106116259315369471340000012926467405961312901_);}
	.st237{fill-rule:evenodd;clip-rule:evenodd;fill:url(#SVGID_00000059299573213324547390000014261934097961418126_);}
	.st238{fill:url(#SVGID_00000165920104277253559750000008386224799289395898_);}
	.st239{fill:url(#SVGID_00000175320768231351119500000018233378455318061697_);}
	.st240{fill:url(#SVGID_00000033336952611249059470000007102482359067699882_);}
	.st241{fill:url(#SVGID_00000172437169348191047330000002472811673054235535_);}
	.st242{fill:url(#SVGID_00000121993930833975327200000008222691593763091608_);}
	.st243{fill:url(#SVGID_00000160898832958791506290000012469692960309610120_);}
	.st244{fill:url(#SVGID_00000044179050759568971900000000825491236446292359_);}
	.st245{fill:url(#SVGID_00000183247206669370025910000008426924111880746389_);}
	.st246{fill:url(#SVGID_00000156561911463180232250000004848129743151683731_);}
	.st247{fill:url(#SVGID_00000152239525118412298490000014008840675487808643_);}
	.st248{fill:url(#SVGID_00000170985231422854032130000012173343944852743606_);}
	.st249{fill:url(#SVGID_00000150819425001112149190000016217212740667514047_);}
	.st250{fill:url(#SVGID_00000069366080977035584100000006060983395336871343_);}
	.st251{fill:url(#SVGID_00000139268308369174164490000013150769548434652335_);}
	.st252{fill:url(#SVGID_00000116194203825570324950000011408571589603670970_);}
	.st253{fill-rule:evenodd;clip-rule:evenodd;fill:url(#SVGID_00000065051175173530261280000015602791964877395900_);}
	.st254{fill:url(#SVGID_00000047760954088328132070000008013525373742977195_);}
	.st255{fill:url(#SVGID_00000063633080087131605270000001127916390822752656_);}
	.st256{fill:url(#SVGID_00000096057062590861016100000018085344059015955897_);}
	.st257{fill:url(#SVGID_00000097473548515090319020000016723946193946437505_);}
	.st258{fill:url(#SVGID_00000052089747598102336080000017068443353794922894_);}
	.st259{fill:url(#SVGID_00000144298008145603209500000014911649878607230648_);}
	.st260{fill:url(#SVGID_00000010276624333162477350000009724885409145024170_);}
	.st261{fill:url(#SVGID_00000183949285481985241070000010561090884521626506_);}
	.st262{fill:url(#SVGID_00000140710767636426208550000015969548313511843718_);}
	.st263{fill:url(#SVGID_00000163059698166470145510000015900869565884186016_);}
	.st264{fill:url(#SVGID_00000119814547076189971160000009927087573279723180_);}
	.st265{fill:url(#SVGID_00000062160957000334921660000016146690086201376685_);}
	.st266{fill:url(#SVGID_00000111912027170936255510000014648123058208708486_);}
	.st267{fill:url(#SVGID_00000084505830848386408740000000117223482947199627_);}
	.st268{fill:url(#SVGID_00000011020723144588969250000014293484946778036922_);}
	.st269{fill-rule:evenodd;clip-rule:evenodd;fill:url(#SVGID_00000015323605546612411620000004046574551941716151_);}
	.st270{fill:url(#SVGID_00000017494481254934133160000016380873051668257201_);}
	.st271{fill:url(#SVGID_00000111165061269180420240000016162324502506961065_);}
	.st272{fill:url(#SVGID_00000088123469671128150670000000551519778705516200_);}
	.st273{fill:url(#SVGID_00000093160090382794429520000009777829088281712261_);}
	.st274{fill:url(#SVGID_00000134950462738601686970000014737107498661417140_);}
	.st275{fill:url(#SVGID_00000134213613036804415350000009336931457149212824_);}
	.st276{fill:url(#SVGID_00000173879958523511325250000003294540469660159120_);}
	.st277{fill:url(#SVGID_00000000194043538683294670000005825005188223375761_);}
	.st278{fill:url(#SVGID_00000116919172588028243670000004929835292111888807_);}
	.st279{fill:url(#SVGID_00000120551131366792465200000011646931767869129634_);}
	.st280{fill:url(#SVGID_00000172431607489165483470000004847709513412619148_);}
	.st281{fill:url(#SVGID_00000008114421103135171070000012338395706802759308_);}
	.st282{fill:url(#SVGID_00000162351783099471477980000008464901700306217357_);}
	.st283{fill:url(#SVGID_00000022555782730745164780000006852450589709202063_);}
	.st284{fill:url(#SVGID_00000017485701909608983870000007889093072510289035_);}
	.st285{fill-rule:evenodd;clip-rule:evenodd;fill:url(#SVGID_00000070840569859657333980000013116430274230305708_);}
	.st286{fill:url(#SVGID_00000043424217016364807360000000714907748273724580_);}
	.st287{fill:url(#SVGID_00000127738065365124129530000008721065100671731603_);}
	.st288{fill:url(#SVGID_00000124874024836042450020000016811370844240296887_);}
	.st289{fill:url(#SVGID_00000154399052943864330570000017465177105840798121_);}
	.st290{fill:url(#SVGID_00000036931862563462587540000009193911801551161992_);}
	.st291{fill:url(#SVGID_00000106836373735327408040000004589703645839589520_);}
	.st292{fill:url(#SVGID_00000141420895690913258120000011201005796696838066_);}
	.st293{fill:url(#SVGID_00000078036736553263258040000016014245621150228901_);}
	.st294{fill:url(#SVGID_00000122713736565872892510000008072576161937588659_);}
	.st295{fill:url(#SVGID_00000103975047068857342520000003600923682529397679_);}
	.st296{fill:url(#SVGID_00000149370370770034267200000006338346879077813436_);}
	.st297{fill:url(#SVGID_00000074408944654197883560000007947055512715708065_);}
	.st298{fill:url(#SVGID_00000018207245711996205670000017922015246358252211_);}
	.st299{fill:url(#SVGID_00000034073441649314139940000016482629683148556976_);}
	.st300{fill:url(#SVGID_00000152259384816398400400000016109961709922014122_);}
	.st301{fill:url(#SVGID_00000089558272937826807410000004073063174437901247_);}
	.st302{fill:url(#SVGID_00000129900386644806217230000010098219488787700624_);}
	.st303{fill:url(#SVGID_00000124876457419632688100000010594343877526409147_);}
	.st304{fill-rule:evenodd;clip-rule:evenodd;fill:url(#SVGID_00000107553768008222836500000017592553453874059663_);}
	.st305{fill:url(#SVGID_00000001629833317888110130000008971290188874229673_);}
	.st306{fill:url(#SVGID_00000030454612898455355660000008126504518206427030_);}
	.st307{fill:url(#SVGID_00000181800151855730191470000002629097068234388108_);}
	.st308{fill:url(#SVGID_00000091708727401830945780000002274906700195328385_);}
	.st309{fill:url(#SVGID_00000167382878754427932010000007517726052047730080_);}
	.st310{fill:url(#SVGID_00000056428308595400567030000010408365077938990744_);}
	.st311{fill:url(#SVGID_00000168107246854225583570000013805310033701448633_);}
	.st312{fill:url(#SVGID_00000077296686313294278740000004359095369597076897_);}
	.st313{fill:url(#SVGID_00000160870270372816474020000009576921111927569562_);}
	.st314{fill:url(#SVGID_00000183231607747109997870000018121800422618514075_);}
	.st315{fill:url(#SVGID_00000164476814526913944980000018072880576050555025_);}
	.st316{fill:url(#SVGID_00000080177858740133709140000016490074056998334125_);}
	.st317{fill:url(#SVGID_00000072981694977165192050000003134009423868432043_);}
	.st318{fill:url(#SVGID_00000046320995080182536310000013556408834530887346_);}
	.st319{fill:url(#SVGID_00000134941506316952669820000002809572700331575710_);}
	.st320{fill:url(#SVGID_00000140734479216565215100000008870938639634134404_);}
	.st321{fill:url(#SVGID_00000030448919001068941590000009334467118201068953_);}
	.st322{fill:url(#SVGID_00000164478525232559375540000006909744693213948843_);}
	.st323{fill:url(#SVGID_00000069382352939825836670000008263187356017503932_);}
	.st324{fill:url(#SVGID_00000064336969361467522110000002899805586226070957_);}
	.st325{fill-rule:evenodd;clip-rule:evenodd;fill:url(#SVGID_00000105422734441995255090000000584107118279303331_);}
	.st326{fill:url(#SVGID_00000016040106946506276880000008422359434542892719_);}
	.st327{fill:url(#SVGID_00000151501148048751269120000006180968073347975300_);}
	.st328{fill:url(#SVGID_00000132779337775576948760000013121516421118256054_);}
	.st329{fill:url(#SVGID_00000168810678086339429390000008744543757540154277_);}
	.st330{fill:url(#SVGID_00000089570916523424145790000015478414851317650622_);}
	.st331{fill:url(#SVGID_00000018224085300723536160000011209465727226109599_);}
	.st332{fill:url(#SVGID_00000093168565084268330800000006440712375201574542_);}
	.st333{fill:url(#SVGID_00000092414376831325230880000016863695193659822758_);}
	.st334{fill:url(#SVGID_00000048491825022339776320000000046539780631903652_);}
	.st335{fill:url(#SVGID_00000020370033619141191400000016704485661828039809_);}
	.st336{fill:url(#SVGID_00000110466304113599328180000005632881663322622353_);}
	.st337{fill:url(#SVGID_00000069364193391348207220000010119831065318301102_);}
	.st338{fill:url(#SVGID_00000175285708141669774680000007610288067143176332_);}
	.st339{fill:url(#SVGID_00000113322263887048658100000000736955166167903147_);}
	.st340{fill:url(#SVGID_00000081633318734591660990000017892076337169382330_);}
	.st341{fill:url(#SVGID_00000073001747950369167380000002090982377777198741_);}
	.st342{fill-rule:evenodd;clip-rule:evenodd;fill:url(#SVGID_00000162347920905031427620000010901346205030523070_);}
	.st343{fill:url(#SVGID_00000023253747958566151520000009750730441594432422_);}
	.st344{fill:url(#SVGID_00000148638228081765067450000016932419016130111628_);}
	.st345{fill:url(#SVGID_00000022551045152276487100000005909112130794956990_);}
	.st346{fill:url(#SVGID_00000003819409584562308710000001965193957199901573_);}
	.st347{fill:url(#SVGID_00000018929140188710740620000008896686850660949901_);}
	.st348{fill:url(#SVGID_00000121258468974692451940000011071105812209898128_);}
	.st349{fill:url(#SVGID_00000021835947232976568700000006465489700581103517_);}
	.st350{fill:url(#SVGID_00000060004342755773834290000008602600316034740925_);}
	.st351{fill:url(#SVGID_00000080914474244633410810000017015269427820304551_);}
	.st352{fill:url(#SVGID_00000120516580746496165690000010691677322368444600_);}
	.st353{fill:url(#SVGID_00000134240128641243536760000004102666627065340312_);}
	.st354{fill:url(#SVGID_00000079465343112540055710000012192794032671307392_);}
	.st355{fill:url(#SVGID_00000138547624875439111290000003640918090097291923_);}
	.st356{fill:url(#SVGID_00000082351235593152335600000002666285844376800188_);}
	.st357{fill:url(#SVGID_00000018931128660108741840000007957232656218452373_);}
	.st358{fill:url(#SVGID_00000148642365702024815410000007672667477713906104_);}
	.st359{fill:url(#SVGID_00000077313553411346718280000011075827197597440418_);}
	.st360{fill:url(#SVGID_00000076600168679611021190000012325538558619000741_);}
	.st361{fill:url(#SVGID_00000050626024214771545020000017112199124046079678_);}
	.st362{fill:url(#SVGID_00000116949757444417716240000017815083461642767273_);}
	.st363{fill:#C1282D;}
	.st364{fill-rule:evenodd;clip-rule:evenodd;fill:url(#SVGID_00000057839445618448946340000017019401163908078226_);}
	.st365{fill:url(#SVGID_00000079456191333469997650000003017309970732316294_);}
	.st366{fill:url(#SVGID_00000078761056330910163490000007967102349014907565_);}
	.st367{fill:url(#SVGID_00000039120303184804071960000009048595749892695206_);}
	.st368{fill:url(#SVGID_00000175321089612565832960000009156665154812210600_);}
	.st369{fill:url(#SVGID_00000126305184354583736950000004598800428853826463_);}
	.st370{fill:url(#SVGID_00000177473484464821711560000015233744117335815089_);}
	.st371{fill:url(#SVGID_00000169549603004782905930000009780954846817312430_);}
	.st372{fill:url(#SVGID_00000022527988575071723020000001292211540898715568_);}
	.st373{fill:url(#SVGID_00000174583366764263750820000003003370023932385207_);}
	.st374{fill:url(#SVGID_00000012455646766536418760000008774739930293859224_);}
	.st375{fill:url(#SVGID_00000087407704647838124370000017478531613999700626_);}
	.st376{fill:url(#SVGID_00000132064457908550133740000004690432173675165579_);}
	.st377{fill:url(#SVGID_00000168088707787071504430000015831992340805017533_);}
	.st378{fill:url(#SVGID_00000081645633524864822070000017695875935514860479_);}
	.st379{fill:url(#SVGID_00000091734222734238223940000015041990005326547882_);}
	.st380{fill:url(#SVGID_00000048479713929816415920000008502814236589689220_);}
	.st381{fill-rule:evenodd;clip-rule:evenodd;fill:url(#SVGID_00000042001684309350963550000000292565163730815386_);}
	.st382{fill:url(#SVGID_00000162321004955676129140000010901076484258961027_);}
	.st383{fill:url(#SVGID_00000029040945456589220350000012784096891703970984_);}
	.st384{fill:url(#SVGID_00000072983684897265563120000004338393595652664973_);}
	.st385{fill:url(#SVGID_00000170992391669880168740000013523563834251406466_);}
	.st386{fill:url(#SVGID_00000158715256996678132860000007709169390944192930_);}
	.st387{fill:url(#SVGID_00000098942234572571301340000004336699148094485408_);}
	.st388{fill:url(#SVGID_00000062914217653322903010000014727370013758754193_);}
	.st389{fill:url(#SVGID_00000172420635436493776160000017515113350333581465_);}
	.st390{fill:url(#SVGID_00000026885366018974123240000012779877194307081356_);}
	.st391{fill:url(#SVGID_00000063629776236554980660000001710698835079048583_);}
	.st392{fill:url(#SVGID_00000048462284494180971640000006232379545542640299_);}
	.st393{fill:url(#SVGID_00000034770737172904081330000011218347946503636927_);}
	.st394{fill:url(#SVGID_00000057859209936990466460000014253172178935507877_);}
	.st395{fill:url(#SVGID_00000026149624753345997380000015816451503554022796_);}
	.st396{fill:url(#SVGID_00000050658887167029833040000014982501880574699421_);}
	.st397{fill:url(#SVGID_00000162333378133042227060000004856073607494424712_);}
	.st398{fill:url(#SVGID_00000168112034461043053320000007695103975215293109_);}
	.st399{fill:url(#SVGID_00000056388040429825280700000014644831827716699553_);}
	.st400{fill:url(#SVGID_00000030462122126733704330000010525726019666331058_);}
	.st401{fill:url(#SVGID_00000108266608362453845140000004927361403876379537_);}
</style>
<g>
	<path d="M394.77,553.6c11.69-28.01,22.62-54.19,33.53-80.38c30.9-74.17,61.87-148.31,92.57-222.56c2.52-6.09,5.64-8.37,12.01-8.14
		c13.5,0.5,27.03,0.14,40.54,0.25c2.79,0.02,5.58,0.51,8.57,2.61c-1.3,0.61-2.55,1.44-3.92,1.78c-18.93,4.76-26.6,14.52-24.84,34.46
		c1.83,20.78,5.01,41.44,7.86,64.23c2.5-3.37,3.94-5.04,5.1-6.9c45.32-72.91,111.01-104.5,193.31-101.75
		c33.06,1.1,64.81,9.4,95.42,22.03c4.21,1.74,8.28,6.62,10.16,11.08c4.79,11.33,8.31,23.24,12.33,34.92
		c-1.54,1.29-3.08,2.59-4.62,3.88c-1.17-2.89-1.69-6.4-3.62-8.56c-47.98-53.81-131.61-69.43-193.71-34.8
		c-46.67,26.03-72.57,68.91-84.27,121.38c-7.78,34.91-7.56,70.16-0.18,105.21c12.09,57.42,60.82,103.92,120.09,115.14
		c32.52,6.15,65.15,6.65,97.9,2.82c20.18-2.36,24.76-7.69,25.02-29.1c0.2-16.8,0.06-33.61-0.02-50.41
		c-0.14-29.25-0.27-29.39-25.19-38.88c31.3,0,62.59,0,95.79,0c-2.42,1.85-3.12,2.85-3.85,2.88c-17.06,0.73-23.42,5.68-23.79,28.88
		c-0.34,21.35-0.64,42.73,0.09,64.06c0.86,25.32,3.14,29.88,25.68,34.96c-2.53,0.38-5.06,1.09-7.59,1.09
		c-50.68-0.05-101.36-0.17-152.03-0.32c-59.13-0.18-109.29-22.17-150.26-66.46c-0.43-0.46-1.13-0.66-4.86-2.75
		c4.17,19.94,6.66,38,12.21,54.99c1.88,5.76,11.51,8.8,17.98,13.35c-26.74,0-53.82,0-80.95,0c0.15-0.85,0.09-1.91,0.38-2.02
		c14.71-5.63,16.71-8.89,14.31-26.86c-10.97-82.13-22.1-164.25-33.18-246.37c-1.54-11.39-3.09-22.78-6.47-34.56
		c-43.36,103.6-86.71,207.2-130.07,310.8c-0.94,0.02-1.89,0.04-2.83,0.06c-43.6-103.47-87.19-206.94-130.79-310.41
		c-0.64,0.17-1.28,0.34-1.92,0.51c-5.54,41.78-11.07,83.57-16.63,125.35c-6.55,49.21-13.12,98.42-19.67,147.64
		c-0.28,2.08-0.47,4.17-0.66,6.26c-1.8,19.85-1.34,20.7,17.9,29.62c-20.86,0-39.05,0-57.36,0c0.19-1.02,0.24-1.67,0.31-1.67
		c19.17-0.58,21.53-14.84,23.61-30.14c13.59-100.13,27.43-200.21,41.16-300.32c2.19-16-11.59-36.77-27.61-41.68
		c-3.68-1.13-7.43-1.98-10.98-5.23c2.73-0.28,5.46-0.8,8.19-0.81c17.57-0.07,35.15,0.3,52.7-0.19c6.22-0.17,8.87,2.32,11.16,7.87
		c34.94,84.55,70.06,169.02,105.16,253.5C380.58,519.92,387.32,535.85,394.77,553.6z"/>
	<path d="M1031.15,664.61c-23.9,0-47.81,0.14-71.71-0.08c-7.23-0.07-12.29,0.44-12.24,10.38c0.05,9.56,3.82,11.8,12.23,11.65
		c23.94-0.42,47.9-0.15,72.09,0.85c-15.86,2.78-31.72,5.57-47.58,8.33c-8.99,1.57-18.03,2.88-26.97,4.68
		c-9.08,1.83-16.21-0.92-20.59-9.32c-3.96-7.59-10-9.45-17.69-9.37c-67.57,0.74-135.14,0.98-202.7,2.09
		c-38.94,0.64-77.86,2.62-116.79,3.91c-3,0.1-6.77,0.61-8.84-0.96c-2.87-2.19-6.3-6.28-6.11-9.34c0.18-3.02,4.43-5.92,7.2-8.53
		c0.78-0.73,2.61-0.34,3.96-0.35c35.14-0.21,70.5-3.16,105.36-0.04c71.7,6.4,143.3-0.03,214.9,1.83c9.5,0.25,16.59-2.19,21.77-11.69
		c2.3-4.22,9.46-8.53,13.95-8.06c26.69,2.78,53.26,6.95,79.86,10.65C1031.22,662.37,1031.18,663.49,1031.15,664.61z"/>
	<path d="M48.67,686.38c24.6,0,49.19-0.19,73.78,0.12c7.34,0.09,10.19-2.49,10.33-10.27c0.16-8.44-2.33-11.97-10.96-11.82
		c-24.23,0.43-48.48,0.15-72.71,0.15c-0.03-1.05-0.07-2.1-0.1-3.16c26.18-3.73,52.31-7.97,78.59-10.73
		c4.8-0.5,12.47,3.72,14.84,8.08c5.46,10.07,13.24,11.71,22.84,11.76c55.72,0.28,111.43,0.71,167.15,1.11
		c11.14,0.08,22.65,2.21,33.36,0.05c38.48-7.76,77.13-0.93,115.63-3.06c2.02-0.11,4.63-0.77,5.96,0.25c3.19,2.44,8.3,6.01,8.02,8.58
		c-0.39,3.64-4.37,8-7.89,9.82c-3.26,1.68-7.93,0.47-11.98,0.46c-31.4-0.08-63.03,2.27-94.17-0.78
		c-72.31-7.08-144.72-2.73-217.03-5.25c-9.56-0.33-16.62,1.83-22.22,10.87c-2.58,4.16-9.58,8.4-14,7.82
		c-26.64-3.5-53.1-8.38-79.63-12.8C48.54,687.17,48.6,686.77,48.67,686.38z"/>
	<path d="M634.11,813.37c-0.92,3.39-1.63,5.71-2.17,8.06c-5.38,23.5-5.84,23.81-31.09,19.23c1.07-5.26,2.04-10.55,3.24-15.79
		c6.31-27.56,12.58-55.14,19.05-82.66c3.42-14.54,10.93-19.97,26.67-19.96c14.28,0.01,21.93,5.53,25.2,19.21
		c7.3,30.55,14.3,61.17,21.37,91.78c0.53,2.32,0.6,4.75,1.06,8.61c-7.86,0-15.26,0.67-22.43-0.39c-2.3-0.34-4.99-4.94-5.79-8.05
		c-5.12-20.07-4.96-20.11-25.25-20.05C640.97,813.37,637.96,813.37,634.11,813.37z M638.33,789.89c8.06,0,14.67,0,21.93,0
		c-3.48-15.51-6.67-29.68-9.85-43.85c-0.91,0.09-1.82,0.18-2.73,0.27C644.58,760.8,641.47,775.29,638.33,789.89z"/>
	<path d="M848.05,842.06c-11.19,0-19.92,0.57-28.51-0.32c-2.83-0.29-6.01-3.9-7.82-6.79c-8.95-14.33-17.49-28.94-28.13-43.19
		c0,13.31-0.45,26.65,0.16,39.93c0.39,8.5-2.67,11.48-10.48,10.53c-3-0.37-6.07-0.27-9.1-0.13c-5.08,0.24-7.2-1.9-7.17-7.39
		c0.14-34.61,0.13-69.23-0.01-103.84c-0.02-5.43,2-7.34,7.19-7.34c24.12,0.01,19.03-1.36,19.42,18.79
		c0.2,10.33,0.04,20.66,0.04,34.18c9.77-14.85,18.5-26.72,25.69-39.51c5.71-10.17,12.47-15.64,24.16-13.52
		c3.87,0.7,7.97,0.11,13.95,0.11c-2.14,4.05-3.27,6.74-4.86,9.1c-9.65,14.33-19.27,28.69-29.19,42.82
		c-2.99,4.26-3.27,7.4-0.25,11.96C824.53,804.69,835.46,822.27,848.05,842.06z"/>
	<path d="M499.38,770.95c12.3,0,23.39,0.35,34.45-0.12c7.92-0.34,8.67,4.03,8.47,10.51c-0.19,6.21,0.65,12.04-8.43,11.6
		c-11.05-0.54-22.14-0.13-33.13-0.13c-0.59,1.88-1.12,2.82-1.16,3.78c-1.01,23.23-1,23.23,21.57,23.26c3.04,0,6.08,0.01,9.12,0.01
		c13.04,0.02,15.54,2.87,12.84,15.92c-0.47,2.27-3.48,5.58-5.42,5.65c-14.09,0.55-28.36,1.71-42.29,0.1
		c-13.68-1.59-21.54-11.56-21.99-25.97c-0.68-21.68-0.67-43.41-0.07-65.09c0.41-14.9,9.33-25.29,23.83-26.72
		c13-1.29,26.24-0.25,39.37,0.15c9.17,0.29,6.48,7.8,6.89,13.3c0.45,6.04-1.72,9.11-8.1,8.76c-7.08-0.39-14.19-0.11-21.28-0.05
		c-13.44,0.11-14.58,1.29-14.65,14.87C499.37,763.55,499.38,766.32,499.38,770.95z"/>
	<path d="M253.27,746.18c-5.39,0-10.91-0.72-16.14,0.26c-3.42,0.64-8.39,3.19-9.06,5.86c-0.69,2.79,2.08,8.08,4.82,9.93
		c8.72,5.91,18.21,10.58,27.25,16.01c10.61,6.37,17.1,15.6,17.51,28.74c0.53,17.02-8.55,31.12-25.53,33.87
		c-13.68,2.21-28.08,0.95-42.03-0.29c-10.47-0.93-6.11-10.55-6.51-16.76c-0.49-7.49,5.12-5.63,9.28-5.41
		c8.08,0.43,16.24,1.89,24.2,1.11c4.17-0.41,10.36-3.94,11.32-7.36c0.97-3.46-2.31-10-5.63-12.59c-8.3-6.49-17.72-11.42-26.59-17.14
		c-9.08-5.86-14.83-14.06-16-25.35c-1.76-16.99,7.06-30.89,24.06-32.83c14.53-1.66,29.55-0.31,44.2,1.22
		c10.79,1.12,5.03,10.99,5.61,16.98c0.12,1.28-5.46,3.99-8.66,4.56c-3.9,0.69-8.05-0.2-12.09-0.41
		C253.27,746.45,253.27,746.32,253.27,746.18z"/>
	<path d="M361.95,746.4c-7.08,0-13.11-0.48-19.05,0.11c-8.48,0.85-9.4-4-9.13-10.89c0.26-6.41-0.89-12.48,8.93-12.2
		c21.95,0.62,43.93,0.53,65.89,0.07c8.48-0.18,8.32,4.8,8,10.77c-0.31,5.57,2.09,12.75-7.62,12.24c-6.37-0.33-12.78-0.06-20.51-0.06
		c0,10.02,0,19.36,0,28.69c-0.01,19.26-0.21,38.52,0.09,57.77c0.11,6.66-1.84,9.87-8.59,9.21c-3.01-0.3-6.1-0.24-9.11,0.04
		c-7.19,0.65-9.18-2.77-9.07-9.93c0.37-24.5,0.17-49.01,0.18-73.52C361.95,754.93,361.95,751.17,361.95,746.4z"/>
</g>
</svg>
