<?xml version="1.0" encoding="utf-8"?>
<!-- Generator: Adobe Illustrator 26.5.0, SVG Export Plug-In . SVG Version: 6.00 Build 0)  -->
<svg version="1.1" id="Layer_1" xmlns="http://www.w3.org/2000/svg" xmlns:xlink="http://www.w3.org/1999/xlink" x="0px" y="0px"
	 viewBox="0 0 1080 1080" style="enable-background:new 0 0 1080 1080;" xml:space="preserve">
<style type="text/css">
	.st0{fill-rule:evenodd;clip-rule:evenodd;}
	.st1{fill:#ED1C24;}
	.st2{fill:#E1251B;}
	.st3{fill-rule:evenodd;clip-rule:evenodd;fill:#16397B;}
	.st4{fill:#EE2745;}
	
		.st5{clip-path:url(#SVGID_00000030454012119159655220000000771271701159564705_);fill:url(#SVGID_00000109021312091181985880000007429236850129997455_);}
	
		.st6{clip-path:url(#SVGID_00000070114849065119699070000013076039006724048055_);fill:url(#SVGID_00000085221562320071214910000000949567548125062275_);}
	
		.st7{clip-path:url(#SVGID_00000016757714434977435620000014294531589487077516_);fill:url(#SVGID_00000060030123323438884000000002573092348784061609_);}
	
		.st8{clip-path:url(#SVGID_00000065756313632198253210000017216617685221717893_);fill:url(#SVGID_00000105395647214571649420000001051170668721797014_);}
	.st9{fill:#424243;}
	
		.st10{clip-path:url(#SVGID_00000001650845798988861640000002841612816848764587_);fill:url(#SVGID_00000093167328968059009540000012994281730227478967_);}
	.st11{fill:#FFFFFF;}
	
		.st12{clip-path:url(#SVGID_00000088854399532636607980000010287639663489285522_);fill:url(#SVGID_00000099641590476797022630000005736094922547326601_);}
	
		.st13{clip-path:url(#SVGID_00000131351798684463431160000015477310159165587611_);fill:url(#SVGID_00000010997033239264736460000003099466447291275922_);}
	
		.st14{clip-path:url(#SVGID_00000120518333650593328850000008838633435217663423_);fill:url(#SVGID_00000176026670228465894210000006818544695507205266_);}
	
		.st15{clip-path:url(#SVGID_00000154427721892282074250000007764133046780184236_);fill:url(#SVGID_00000139276037993563910020000013456041521699015041_);}
	
		.st16{clip-path:url(#SVGID_00000134957766542601706360000004956988183489887156_);fill:url(#SVGID_00000078756077280287567480000010283011597004768157_);}
	
		.st17{clip-path:url(#SVGID_00000163061993859511862090000009423673408288884921_);fill:url(#SVGID_00000027577222527485051410000008226230756739715478_);}
	
		.st18{clip-path:url(#SVGID_00000103973563534177626340000012551813341374038459_);fill:url(#SVGID_00000011742409697745870970000002801946412419912596_);}
	.st19{fill-rule:evenodd;clip-rule:evenodd;fill:#C8202F;}
	.st20{fill-rule:evenodd;clip-rule:evenodd;fill:#FFFFFF;}
	.st21{fill-rule:evenodd;clip-rule:evenodd;fill:#F98238;}
	.st22{filter:url(#Adobe_OpacityMaskFilter);}
	.st23{fill:url(#SVGID_00000073699215734587728070000011627524976582083501_);}
	.st24{mask:url(#SVGID_00000007405470986388900470000017447568585942771090_);fill-rule:evenodd;clip-rule:evenodd;fill:#ED1C24;}
	.st25{fill-rule:evenodd;clip-rule:evenodd;fill:#F5333F;}
	.st26{fill-rule:evenodd;clip-rule:evenodd;fill:#ED1C24;}
	.st27{fill-rule:evenodd;clip-rule:evenodd;fill:#F9A46E;}
	.st28{fill-rule:evenodd;clip-rule:evenodd;fill:#F47B26;}
	.st29{fill-rule:evenodd;clip-rule:evenodd;fill:#EB5433;}
	.st30{fill:#1A3282;}
	.st31{fill-rule:evenodd;clip-rule:evenodd;fill:#1A3282;}
	.st32{fill-rule:evenodd;clip-rule:evenodd;fill:#9D9FA2;}
	.st33{fill-rule:evenodd;clip-rule:evenodd;fill:#000303;}
	.st34{fill:#64003D;}
	.st35{fill:#536270;}
	.st36{fill-rule:evenodd;clip-rule:evenodd;fill:#64003D;}
	.st37{fill-rule:evenodd;clip-rule:evenodd;fill:#536270;}
	.st38{fill-rule:evenodd;clip-rule:evenodd;fill:#1A3382;}
	.st39{fill-rule:evenodd;clip-rule:evenodd;fill:#29387E;}
	.st40{fill-rule:evenodd;clip-rule:evenodd;fill:#F37021;}
	.st41{fill-rule:evenodd;clip-rule:evenodd;fill:#005C32;}
	.st42{fill-rule:evenodd;clip-rule:evenodd;fill:#D2AB67;}
	
		.st43{clip-path:url(#SVGID_00000162335620780884103030000000333881063565038232_);fill:url(#SVGID_00000161629171113727973980000006238949003923281318_);}
	
		.st44{clip-path:url(#SVGID_00000068662026477764804540000011006319265003733923_);fill:url(#SVGID_00000137845028702654232580000007002542885872267934_);}
	
		.st45{clip-path:url(#SVGID_00000037654004941788618010000016269035615047109565_);fill:url(#SVGID_00000165193067001813041860000012360542821460529042_);}
	.st46{fill-rule:evenodd;clip-rule:evenodd;fill:#00AEEF;}
	.st47{fill-rule:evenodd;clip-rule:evenodd;fill:#EC008C;}
	.st48{fill-rule:evenodd;clip-rule:evenodd;fill:#FFF200;}
	.st49{fill:#A7AAAC;}
	.st50{fill-rule:evenodd;clip-rule:evenodd;fill:#5C5B5B;}
	.st51{fill:#9D9D9F;}
	.st52{fill:#F04D23;}
	.st53{fill-rule:evenodd;clip-rule:evenodd;fill:#2E3192;}
	.st54{fill-rule:evenodd;clip-rule:evenodd;fill:#C4312D;}
	.st55{fill:#552715;}
	.st56{fill:#010101;}
	.st57{fill:#E31E2E;}
	.st58{fill:url(#SVGID_00000171704749802820283400000009546704814554800012_);}
	.st59{fill:url(#SVGID_00000096760575722233728850000003170786461432426143_);}
	.st60{clip-path:url(#SVGID_00000133488487134986553630000013560608763084922788_);}
	.st61{clip-path:url(#SVGID_00000096764005158244254430000005300756954015861176_);}
	.st62{clip-path:url(#SVGID_00000150788901741621732860000013756095157671125165_);}
	.st63{clip-path:url(#SVGID_00000077312872942029365630000004972057543557311399_);}
	.st64{clip-path:url(#SVGID_00000049931132563299558030000010343075165436914612_);}
	.st65{clip-path:url(#SVGID_00000016754062567364995780000015299083634280446898_);}
	.st66{clip-path:url(#SVGID_00000119095199829781629670000003904792230316752031_);}
	.st67{clip-path:url(#SVGID_00000035501230465637147230000011158015404141537189_);}
	.st68{clip-path:url(#SVGID_00000176037295118730830480000011402743338016663436_);}
	.st69{clip-path:url(#SVGID_00000111905640286288024870000006762616960199240859_);}
	.st70{clip-path:url(#SVGID_00000011020378088273617750000003002609258616285835_);}
	.st71{fill:#2650A1;}
	.st72{fill:url(#SVGID_00000046321433103722644240000002474491030294177682_);}
	.st73{fill:#FEFEFE;}
	.st74{fill:#FDFDFD;}
	.st75{fill:#FCFCFC;}
	.st76{fill:#FBFBFB;}
	.st77{fill:#FAFAFA;}
	.st78{fill:#F9F9F9;}
	.st79{fill:#F8F8F8;}
	.st80{fill:#F7F7F7;}
	.st81{fill:#F6F6F6;}
	.st82{fill:#F5F5F5;}
	.st83{fill:#F4F4F4;}
	.st84{fill:#F3F3F3;}
	.st85{fill:#F2F2F2;}
	.st86{fill:#F1F1F1;}
	.st87{fill:#F0F0F0;}
	.st88{fill:#EFEFEF;}
	.st89{fill:#EEEEEE;}
	.st90{fill:#EDEDED;}
	.st91{fill:#ECECEC;}
	.st92{fill:#EBEBEB;}
	.st93{fill:#EAEAEA;}
	.st94{fill:#E9E9E9;}
	.st95{fill:#E8E8E8;}
	.st96{fill:#E7E7E7;}
	.st97{fill:#E6E6E6;}
	.st98{fill:#E5E5E5;}
	.st99{fill:#E4E4E4;}
	.st100{fill:#E3E3E3;}
	.st101{fill:#E2E2E2;}
	.st102{fill:#E1E1E1;}
	.st103{fill:#E0E0E0;}
	.st104{fill:#DFDFDF;}
	.st105{fill:#DEDEDE;}
	.st106{fill:#DDDDDD;}
	.st107{fill:#DCDCDC;}
	.st108{fill:#DBDBDB;}
	.st109{fill:#DADADA;}
	.st110{fill:#D9D9D9;}
	.st111{fill:#D92231;}
	.st112{fill:url(#SVGID_00000096762823655002419400000012774782063659116708_);}
	.st113{fill:url(#SVGID_00000053533926709549897260000013855515919748380091_);}
	.st114{opacity:0.8;}
	.st115{fill:url(#SVGID_00000051370795432414403900000002072631764268498328_);}
	.st116{fill:url(#SVGID_00000147918856052921000920000013040811451190330008_);}
	.st117{fill-rule:evenodd;clip-rule:evenodd;fill:#010101;}
	.st118{fill:#80A845;}
	.st119{fill-rule:evenodd;clip-rule:evenodd;fill:#80A845;}
	.st120{fill:url(#SVGID_00000060005646855070460810000000755665755998239397_);}
	.st121{fill-rule:evenodd;clip-rule:evenodd;fill:#04984A;}
	.st122{fill-rule:evenodd;clip-rule:evenodd;fill:url(#SVGID_00000059297077176401599530000004715630210693623183_);}
	.st123{fill:url(#SVGID_00000025437896633472422520000001674352664817292695_);}
	.st124{fill:url(#SVGID_00000058582595625194101580000002844291727621926278_);}
	.st125{fill:url(#SVGID_00000150815176565386522470000013415850935800363693_);}
	.st126{fill:url(#SVGID_00000158019885653248976600000003394247670757993391_);}
	.st127{fill:url(#SVGID_00000134930488038092337130000006607125851980861337_);}
	.st128{fill:url(#SVGID_00000003079010524795743400000015733873672858476965_);}
	.st129{fill:url(#SVGID_00000144297075719220861140000006422489581320545939_);}
	.st130{fill:url(#SVGID_00000059273322640988276850000004237996353699536299_);}
	.st131{fill:url(#SVGID_00000183232324355635677010000002167992623710102177_);}
	.st132{fill:url(#SVGID_00000060031363075327292950000010093343157518879369_);}
	.st133{fill:url(#SVGID_00000106834326974116601150000008660782929771954834_);}
	.st134{fill:url(#SVGID_00000026137333522606914520000006928769415422031006_);}
	.st135{fill:url(#SVGID_00000106848484876312420470000011943680620679689355_);}
	.st136{fill:url(#SVGID_00000111169537821370013460000014677600104328643499_);}
	.st137{fill-rule:evenodd;clip-rule:evenodd;fill:url(#SVGID_00000140722493345961527720000011892508464968598180_);}
	.st138{fill:#0A529D;}
	.st139{fill:url(#SVGID_00000163783987503219984820000004724094424137262495_);}
	.st140{fill:url(#SVGID_00000095338345814171179430000009187827039136541098_);}
	.st141{fill:url(#SVGID_00000111176622000520332360000000521213404691132045_);}
	.st142{fill:url(#SVGID_00000058554761603626556800000015482200521441724823_);}
	.st143{fill:url(#SVGID_00000170258137594715800580000003295037304792768656_);}
	.st144{fill:url(#SVGID_00000076575434694605883250000009300972278667162768_);}
	.st145{fill:url(#SVGID_00000029030015790472618590000002051205137798590130_);}
	.st146{fill:url(#SVGID_00000125598121631901911780000001571405457642952064_);}
	.st147{fill:url(#SVGID_00000031171326595592185430000008608856738202820532_);}
	.st148{fill:url(#SVGID_00000069389697567604537290000003487702381382093737_);}
	.st149{fill:url(#SVGID_00000125560674701739424040000013403359770261741464_);}
	.st150{fill:url(#SVGID_00000160872586452904707260000004414542896656568469_);}
	.st151{fill-rule:evenodd;clip-rule:evenodd;fill:url(#SVGID_00000028296823287742332520000002518370566385836703_);}
	.st152{fill:url(#SVGID_00000028303612229120896520000003973312682296105636_);}
	.st153{fill:url(#SVGID_00000120516334443680242990000003234857884613592720_);}
	.st154{fill:url(#SVGID_00000053518100493583063970000004807853435995024052_);}
	.st155{fill:url(#SVGID_00000007403254028148520140000013555676411638132900_);}
	.st156{fill:url(#SVGID_00000001658392972564121830000012494886469132020921_);}
	.st157{fill:url(#SVGID_00000164497411194969798280000003947291778352840338_);}
	.st158{fill:url(#SVGID_00000070814771234627142360000006864067220183581583_);}
	.st159{fill:url(#SVGID_00000139268925509172191820000007044075494399592360_);}
	.st160{fill:url(#SVGID_00000000934554766471828850000015928138767347342526_);}
	.st161{fill:url(#SVGID_00000151509382476093847620000005166802693633803652_);}
	.st162{fill:url(#SVGID_00000162338044343960999500000011350019516932835224_);}
	.st163{fill:url(#SVGID_00000148651338036654075200000003041019971526002054_);}
	.st164{fill:url(#SVGID_00000095310124062891069320000012604354058853989535_);}
	.st165{fill:url(#SVGID_00000054244513713674723530000003924708851280626325_);}
	.st166{fill:url(#SVGID_00000182518339222224263550000007652735077137987474_);}
	.st167{fill:url(#SVGID_00000015342706092787903430000006291167648891563956_);}
	.st168{fill:url(#SVGID_00000122717967698831476650000000827685757399249582_);}
	.st169{fill-rule:evenodd;clip-rule:evenodd;fill:url(#SVGID_00000140734330038731304680000015150285809819595452_);}
	.st170{fill:url(#SVGID_00000144297668344102236560000006610016107971494789_);}
	.st171{fill:url(#SVGID_00000058590321522521134530000012765078908381797562_);}
	.st172{fill:url(#SVGID_00000109744771986701603730000007923060518179955364_);}
	.st173{fill:url(#SVGID_00000068660357166527156550000003526790718633838479_);}
	.st174{fill:url(#SVGID_00000096758343570119020440000012742349246436318391_);}
	.st175{fill:url(#SVGID_00000021108212239907724900000000410649875742438562_);}
	.st176{fill:url(#SVGID_00000065041047667919059160000003892815948785159812_);}
	.st177{fill:url(#SVGID_00000044145775065113830850000000832196493105739656_);}
	.st178{fill:url(#SVGID_00000124146514462888258730000007424492000272050111_);}
	.st179{fill:url(#SVGID_00000005956800305412605780000000571392176276534165_);}
	.st180{fill:url(#SVGID_00000158719740657519418410000002751228346759071674_);}
	.st181{fill:url(#SVGID_00000005257292742484025820000004766330831243479696_);}
	.st182{fill:url(#SVGID_00000000937774868332266410000012305836235714597008_);}
	.st183{fill:url(#SVGID_00000148631597083883249840000000296460529178921632_);}
	.st184{fill-rule:evenodd;clip-rule:evenodd;fill:url(#SVGID_00000044862223964741982720000009406281123504008836_);}
	.st185{fill:url(#SVGID_00000035519956626483940700000009614107363704463028_);}
	.st186{fill:url(#SVGID_00000019647488738322738980000015495002131094285462_);}
	.st187{fill:url(#SVGID_00000049188818470041723300000004238108267889272248_);}
	.st188{fill:url(#SVGID_00000047048199091379090110000007505684951205155753_);}
	.st189{fill:url(#SVGID_00000053507206750547595200000000939501784195210428_);}
	.st190{fill:url(#SVGID_00000038404641032912645090000010201839326986909839_);}
	.st191{fill:url(#SVGID_00000005950556870414359510000015252602685334352032_);}
	.st192{fill:url(#SVGID_00000159467514667801160640000016746249688358145922_);}
	.st193{fill:url(#SVGID_00000173858242174642580090000017212414174982816652_);}
	.st194{fill:url(#SVGID_00000156554944580771412150000003990001529022434993_);}
	.st195{fill:url(#SVGID_00000032618217321022210080000012179015070583843236_);}
	.st196{fill:url(#SVGID_00000013173254514695576120000010953460038874742440_);}
	.st197{fill:url(#SVGID_00000143601499980286109530000015367439664896380078_);}
	.st198{fill:url(#SVGID_00000026872508301234071550000008046321462747229871_);}
	.st199{fill:url(#SVGID_00000019664171688467505420000007212075431914774459_);}
	.st200{fill:url(#SVGID_00000040575951652839171650000018044986240855501233_);}
	.st201{fill:url(#SVGID_00000157994610565814350000000017901730988946343101_);}
	.st202{fill:url(#SVGID_00000142168927344343805750000002999727457775430540_);}
	.st203{fill:url(#SVGID_00000016058461516333409410000016210045281416743849_);}
	.st204{fill-rule:evenodd;clip-rule:evenodd;fill:url(#SVGID_00000034801905753338321050000012179974021098874793_);}
	.st205{fill:url(#SVGID_00000132792759244893193690000005047899606808384150_);}
	.st206{fill:url(#SVGID_00000137133810312042091900000004322146121038892988_);}
	.st207{fill:url(#SVGID_00000073718699395969271650000017246152465254032266_);}
	.st208{fill:url(#SVGID_00000103251380935023789470000006751159113312092296_);}
	.st209{fill:url(#SVGID_00000141444278972244192200000007654542632688311448_);}
	.st210{fill:url(#SVGID_00000154424780243944773570000008942266882088566444_);}
	.st211{fill:url(#SVGID_00000141444267834064248950000009616300272965995707_);}
	.st212{fill:url(#SVGID_00000179627359667837891210000001958310072472965296_);}
	.st213{fill:url(#SVGID_00000057113538985422217050000007325302386338155163_);}
	.st214{fill:url(#SVGID_00000000945236528022365260000001499813364500819901_);}
	.st215{fill:url(#SVGID_00000177442772603030374920000014251328823646651267_);}
	.st216{fill:url(#SVGID_00000168800356605408413160000013670770557349368731_);}
	.st217{fill:url(#SVGID_00000012474865077414799770000012568686892285939126_);}
	.st218{fill:url(#SVGID_00000058557483882463986620000006276371048835622043_);}
	.st219{fill:url(#SVGID_00000093140233593384097010000014356890651134463405_);}
	.st220{fill:url(#SVGID_00000118367209238129447770000017324396593810330293_);}
	.st221{fill-rule:evenodd;clip-rule:evenodd;fill:url(#SVGID_00000050640274305070489580000004630224088864555938_);}
	.st222{fill:url(#SVGID_00000071534668863987404850000004812188705367303570_);}
	.st223{fill:url(#SVGID_00000088844073034994600480000000131365991707967365_);}
	.st224{fill:url(#SVGID_00000127759853517286943150000008188895461503448706_);}
	.st225{fill:url(#SVGID_00000142858378412104877400000010814672947099712410_);}
	.st226{fill:url(#SVGID_00000044142161011557213140000011509875572251460745_);}
	.st227{fill:url(#SVGID_00000013185068638733369490000005064040886516969131_);}
	.st228{fill:url(#SVGID_00000110452563223094471030000005015679759160278708_);}
	.st229{fill:url(#SVGID_00000052068147702000615240000014223213166654480293_);}
	.st230{fill:url(#SVGID_00000179647409322940554870000010291166015751810444_);}
	.st231{fill:url(#SVGID_00000090287494796861975040000009495210121948670399_);}
	.st232{fill:url(#SVGID_00000112589992988935193540000005964849260966519740_);}
	.st233{fill:url(#SVGID_00000050658282973625051500000015009518780071389079_);}
	.st234{fill:url(#SVGID_00000139258858761591740890000016167695875181410959_);}
	.st235{fill:url(#SVGID_00000057109915594689237820000007073381769234261438_);}
	.st236{fill:url(#SVGID_00000072265893576324827900000014291799828994142644_);}
	.st237{fill-rule:evenodd;clip-rule:evenodd;fill:url(#SVGID_00000152967468175264059820000013689826697466303624_);}
	.st238{fill:url(#SVGID_00000134234620202240600920000001890100334544701605_);}
	.st239{fill:url(#SVGID_00000142170183267533703830000001663282906042007210_);}
	.st240{fill:url(#SVGID_00000098924686298861423350000006942697383979759271_);}
	.st241{fill:url(#SVGID_00000136401715447062473770000000738085752369158331_);}
	.st242{fill:url(#SVGID_00000098195672579904507480000010480714017716371862_);}
	.st243{fill:url(#SVGID_00000093162646417215762030000014613621548440930239_);}
	.st244{fill:url(#SVGID_00000092428474089521441850000004447184322941093822_);}
	.st245{fill:url(#SVGID_00000160157537990671910440000004240956573640412593_);}
	.st246{fill:url(#SVGID_00000178914060921039487250000010787173135397523632_);}
	.st247{fill:url(#SVGID_00000158716755293587824260000006050140331046542769_);}
	.st248{fill:url(#SVGID_00000140707442404696818230000014655727447985921168_);}
	.st249{fill:url(#SVGID_00000106825400934365026550000005708047008332768897_);}
	.st250{fill:url(#SVGID_00000129195602200619149510000007723510191128320658_);}
	.st251{fill:url(#SVGID_00000036213615082763083590000014897816791719144600_);}
	.st252{fill:url(#SVGID_00000062873448248275718150000002274435425975351464_);}
	.st253{fill-rule:evenodd;clip-rule:evenodd;fill:url(#SVGID_00000181048659401582397640000008308667911360442788_);}
	.st254{fill:url(#SVGID_00000038397469935070117410000010799024508216448957_);}
	.st255{fill:url(#SVGID_00000019662729702965432950000012623121895186523033_);}
	.st256{fill:url(#SVGID_00000093172560432697859410000011871643484737614486_);}
	.st257{fill:url(#SVGID_00000116198876652218395100000008445266320511067266_);}
	.st258{fill:url(#SVGID_00000128463836262241374210000014792789866690896556_);}
	.st259{fill:url(#SVGID_00000144325205145178169500000011858348143718779833_);}
	.st260{fill:url(#SVGID_00000008829634594122556360000002525537413421133979_);}
	.st261{fill:url(#SVGID_00000105391411384953859320000000592587524660090014_);}
	.st262{fill:url(#SVGID_00000044144221392355666960000001659683274771508892_);}
	.st263{fill:url(#SVGID_00000100383788772818490130000009877066260676233143_);}
	.st264{fill:url(#SVGID_00000163054121165051341730000013759716092080960653_);}
	.st265{fill:url(#SVGID_00000054981288270916255100000002311065117450176401_);}
	.st266{fill:url(#SVGID_00000176005450909098683660000000585140506556414651_);}
	.st267{fill:url(#SVGID_00000090275491693832977980000002486205445935805119_);}
	.st268{fill:url(#SVGID_00000183227852198538232000000012302166618870036623_);}
	.st269{fill-rule:evenodd;clip-rule:evenodd;fill:url(#SVGID_00000165922199369008572180000016537420745004093114_);}
	.st270{fill:url(#SVGID_00000033341669387167272810000008157208579288693128_);}
	.st271{fill:url(#SVGID_00000101064183521023681610000004382758203073516192_);}
	.st272{fill:url(#SVGID_00000169545663613338079070000003227886993971890620_);}
	.st273{fill:url(#SVGID_00000133523862607867913380000014075156702230655383_);}
	.st274{fill:url(#SVGID_00000080193230911773126160000010413004856160980380_);}
	.st275{fill:url(#SVGID_00000093155893490794392220000013787326824342997946_);}
	.st276{fill:url(#SVGID_00000040570043221931309210000005167987057303460543_);}
	.st277{fill:url(#SVGID_00000136374127569086558140000005038699269411076755_);}
	.st278{fill:url(#SVGID_00000105425502026655621720000017006653235265939886_);}
	.st279{fill:url(#SVGID_00000013894282877448870830000013378213350488933530_);}
	.st280{fill:url(#SVGID_00000171712398189375883830000012773288524143750036_);}
	.st281{fill:url(#SVGID_00000105422872696715016640000013681117832036138940_);}
	.st282{fill:url(#SVGID_00000074440806648991556940000018322661349853251250_);}
	.st283{fill:url(#SVGID_00000083080066554018572800000018132697522299690386_);}
	.st284{fill:url(#SVGID_00000083811270338517739720000007355424079670965409_);}
	.st285{fill-rule:evenodd;clip-rule:evenodd;fill:url(#SVGID_00000147941170441811202640000008172540010461759876_);}
	.st286{fill:url(#SVGID_00000068636645552770522820000017653113935557587898_);}
	.st287{fill:url(#SVGID_00000160151727881982596190000017885545522976435336_);}
	.st288{fill:url(#SVGID_00000008852834496325520530000014148332718836575653_);}
	.st289{fill:url(#SVGID_00000016774392658751286060000005188727543083844250_);}
	.st290{fill:url(#SVGID_00000059281810607211367280000012237096499453256619_);}
	.st291{fill:url(#SVGID_00000088123047675762880920000014004612649588245134_);}
	.st292{fill:url(#SVGID_00000113313171805492837120000000497413207061125009_);}
	.st293{fill:url(#SVGID_00000172441118999779384320000013675207815743810693_);}
	.st294{fill:url(#SVGID_00000025411675902972754740000016488901016740549011_);}
	.st295{fill:url(#SVGID_00000154415802479738985170000001673796334712214170_);}
	.st296{fill:url(#SVGID_00000101099799803905932670000005158735437934463676_);}
	.st297{fill:url(#SVGID_00000066476265398053784370000002204862746136085130_);}
	.st298{fill:url(#SVGID_00000065046733773947667880000017736954728564051587_);}
	.st299{fill:url(#SVGID_00000166657047318159414820000014945082894019201681_);}
	.st300{fill:url(#SVGID_00000128452294380195650460000013351333680891927948_);}
	.st301{fill:url(#SVGID_00000034067942578900508050000000226944365027219388_);}
	.st302{fill:url(#SVGID_00000136396241221477621390000012074409470932953484_);}
	.st303{fill:url(#SVGID_00000109746615860721490860000014760094098601280657_);}
	.st304{fill-rule:evenodd;clip-rule:evenodd;fill:url(#SVGID_00000116220770339905532760000012826849566652316547_);}
	.st305{fill:url(#SVGID_00000072254966615804769970000016265321861918880170_);}
	.st306{fill:url(#SVGID_00000096038638389100929830000008498506167113140393_);}
	.st307{fill:url(#SVGID_00000032623818780283927920000013481062897018546874_);}
	.st308{fill:url(#SVGID_00000114788284596901783740000017903914134764695464_);}
	.st309{fill:url(#SVGID_00000178163426916744871160000009966257032979482251_);}
	.st310{fill:url(#SVGID_00000035516731794528179040000016790443316199312291_);}
	.st311{fill:url(#SVGID_00000080172329809579058540000018168798941753834890_);}
	.st312{fill:url(#SVGID_00000075161541247403495530000012894649601039855263_);}
	.st313{fill:url(#SVGID_00000134945665416860428310000009172195506323376021_);}
	.st314{fill:url(#SVGID_00000091000016094652391080000004752625903006395015_);}
	.st315{fill:url(#SVGID_00000175287141219655724390000017676037398000389263_);}
	.st316{fill:url(#SVGID_00000072977759875964073940000000679916962164973953_);}
	.st317{fill:url(#SVGID_00000070094253470846575300000015764478818136106142_);}
	.st318{fill:url(#SVGID_00000163067556014513172460000004332245173667057564_);}
	.st319{fill:url(#SVGID_00000039843921282545930220000012449731703168491426_);}
	.st320{fill:url(#SVGID_00000074436043464186520690000014606730000763241914_);}
	.st321{fill:url(#SVGID_00000165200746248725950970000000207744296256925876_);}
	.st322{fill:url(#SVGID_00000154415448348226909950000017495064283186052228_);}
	.st323{fill:url(#SVGID_00000097492564771758148900000011414342067394330802_);}
	.st324{fill:url(#SVGID_00000073719562006726044840000005197969038548017830_);}
	.st325{fill-rule:evenodd;clip-rule:evenodd;fill:url(#SVGID_00000109732194149030360020000015806933684789700005_);}
	.st326{fill:url(#SVGID_00000131354433137741027640000015921698469699937982_);}
	.st327{fill:url(#SVGID_00000160908781657758908030000007251460437901618354_);}
	.st328{fill:url(#SVGID_00000055697836260782135150000005497493916081995191_);}
	.st329{fill:url(#SVGID_00000067924647957141763950000009688515111838691216_);}
	.st330{fill:url(#SVGID_00000090271229743664780870000012712441193389011899_);}
	.st331{fill:url(#SVGID_00000083811644056267987240000002893720855201540504_);}
	.st332{fill:url(#SVGID_00000107560887906884599790000009491041993787260077_);}
	.st333{fill:url(#SVGID_00000164472411455296721670000010497384210732366473_);}
	.st334{fill:url(#SVGID_00000042001933840165081190000013979760978487500191_);}
	.st335{fill:url(#SVGID_00000106834888734690509340000016868420842577197190_);}
	.st336{fill:url(#SVGID_00000023993367482881723570000007825189826042305946_);}
	.st337{fill:url(#SVGID_00000130629934150618843790000005467794070794768556_);}
	.st338{fill:url(#SVGID_00000171719863730829422900000002851094036682145156_);}
	.st339{fill:url(#SVGID_00000088819888153806635580000015288867215235368638_);}
	.st340{fill:url(#SVGID_00000085246728663666408590000018000380572536062852_);}
	.st341{fill:url(#SVGID_00000080192350106301977860000012198360612088982206_);}
	.st342{fill-rule:evenodd;clip-rule:evenodd;fill:url(#SVGID_00000084490843618141859380000002718213736890242434_);}
	.st343{fill:url(#SVGID_00000047780149276874773260000017194930435235107745_);}
	.st344{fill:url(#SVGID_00000102520059317440708610000007342578131666856844_);}
	.st345{fill:url(#SVGID_00000163754938943500944490000004437755470653474736_);}
	.st346{fill:url(#SVGID_00000052805586271965163660000004578961555098800818_);}
	.st347{fill:url(#SVGID_00000183215323536227695640000007639103980649384322_);}
	.st348{fill:url(#SVGID_00000066498788181830164380000015064398334682221239_);}
	.st349{fill:url(#SVGID_00000108308851362839429120000010740674719456230805_);}
	.st350{fill:url(#SVGID_00000108282244857237459770000008433053153022794119_);}
	.st351{fill:url(#SVGID_00000024698137776159470010000002963727998900923794_);}
	.st352{fill:url(#SVGID_00000146457506889927957990000001769277736628866944_);}
	.st353{fill:url(#SVGID_00000018929079367493604180000018234534500355980953_);}
	.st354{fill:url(#SVGID_00000181787538561091619780000002174328767465492126_);}
	.st355{fill:url(#SVGID_00000165946207790202856910000017259787531736566965_);}
	.st356{fill:url(#SVGID_00000169536400078996982920000007043570443244203436_);}
	.st357{fill:url(#SVGID_00000181058596043155539610000004517093850249498758_);}
	.st358{fill:url(#SVGID_00000031201309470716062870000003386746634784144799_);}
	.st359{fill:url(#SVGID_00000114771738519059926500000001701329369583803810_);}
	.st360{fill:url(#SVGID_00000132788600153464167530000014822415372955680649_);}
	.st361{fill:url(#SVGID_00000157276025116876323300000004442537356608632229_);}
	.st362{fill:url(#SVGID_00000064342810301333595340000001285647976016824225_);}
	.st363{fill:#C1282D;}
	.st364{fill-rule:evenodd;clip-rule:evenodd;fill:url(#SVGID_00000169531919987000279340000009874094251124620172_);}
	.st365{fill:url(#SVGID_00000031165356010739473880000001027825089111970991_);}
	.st366{fill:url(#SVGID_00000123430500014271503950000017302761293099697285_);}
	.st367{fill:url(#SVGID_00000116219816708200334850000001147248290806054546_);}
	.st368{fill:url(#SVGID_00000040560614183052773820000004915440205105880450_);}
	.st369{fill:url(#SVGID_00000050624938922715608900000015506815287464004770_);}
	.st370{fill:url(#SVGID_00000117666397623959294240000003589905559475422630_);}
	.st371{fill:url(#SVGID_00000098212651216668413440000008442156393429615760_);}
	.st372{fill:url(#SVGID_00000150095143594470638390000011313818493683257246_);}
	.st373{fill:url(#SVGID_00000051359374576530852630000003746806480723394699_);}
	.st374{fill:url(#SVGID_00000044876863920637284320000007564015890037158552_);}
	.st375{fill:url(#SVGID_00000168802495299899949840000000987209453507725463_);}
	.st376{fill:url(#SVGID_00000147933264551414764850000003889928534717584040_);}
	.st377{fill:url(#SVGID_00000108995611598493417570000002162403660949817995_);}
	.st378{fill:url(#SVGID_00000127746743657088110090000009483893065816906903_);}
	.st379{fill:url(#SVGID_00000011019646382062332750000008963593181245455010_);}
	.st380{fill:url(#SVGID_00000118390227319361672570000017234027871223294643_);}
	.st381{fill-rule:evenodd;clip-rule:evenodd;fill:url(#SVGID_00000142155628385664945880000016251920915497197755_);}
	.st382{fill:url(#SVGID_00000080903074682847884410000013971031660356019866_);}
	.st383{fill:url(#SVGID_00000181778410434471891120000004974267651874330025_);}
	.st384{fill:url(#SVGID_00000062908646518980578090000008570615324891695756_);}
	.st385{fill:url(#SVGID_00000020376650942268258010000017200429537788943536_);}
	.st386{fill:url(#SVGID_00000150813324249133970500000014833931184262993086_);}
	.st387{fill:url(#SVGID_00000029033089900301430930000017757004105359207050_);}
	.st388{fill:url(#SVGID_00000158725203170789768440000003463811479679912585_);}
	.st389{fill:url(#SVGID_00000048476826006990031490000008606394828792552351_);}
	.st390{fill:url(#SVGID_00000092457276250332740500000002825290638244727443_);}
	.st391{fill:url(#SVGID_00000092439189779056344950000013921110130552767121_);}
	.st392{fill:url(#SVGID_00000088130586285681339280000007481014753874993821_);}
	.st393{fill:url(#SVGID_00000100353922424252499740000012045168740438339488_);}
	.st394{fill:url(#SVGID_00000032626705210301436270000001930034838289243314_);}
	.st395{fill:url(#SVGID_00000035511418752294058560000007592330855578870963_);}
	.st396{fill:url(#SVGID_00000112624594308679089680000009777614637508193158_);}
	.st397{fill:url(#SVGID_00000044162230500131383760000004140118174784090800_);}
	.st398{fill:url(#SVGID_00000148630773125485162320000003113333897462279325_);}
	.st399{fill:url(#SVGID_00000146465544825549747580000002676566637665892778_);}
	.st400{fill:url(#SVGID_00000090271336732923571250000008435571352520079784_);}
	.st401{fill:url(#SVGID_00000093855627675098455630000012722507718598846861_);}
</style>
<g>
	<g>
		<ellipse class="st11" cx="536.9" cy="409.02" rx="279.42" ry="138.65"/>
		<path class="st121" d="M802.39,452.2c-36.61,55.45-141.61,95.47-265.49,95.47c-124.56,0-230.03-40.45-266.09-96.41l2.73-0.85
			l12.86-4.02l90.77-28.49l-8.54,23.75c-0.73,2.01,1.32,3.93,3.29,3.08l80.14-34.6l-27.17,40.2c-1.49,2.18,1.07,4.87,3.33,3.46
			l80.44-49.68v30.16c0,2.14,2.56,3.25,4.14,1.75l8.24-7.82l12.99,30.16c0.81,1.88,3.46,2.01,4.44,0.17l21.06-40.2l97.74,49.42
			c2.22,1.15,4.53-1.45,3.12-3.55l-25.76-38.62c-0.6-0.85-0.56-2.01,0.09-2.82l11.11-15.08l12.94,16.1
			c1.15,1.41,3.33,1.15,4.14-0.47l6.83-13.88l59.16,43.7c1.37,0.98,3.33,0.34,3.8-1.28l6.15-20.25l63.31,20.46
			c0.04,0,0.09,0.04,0.09,0.04C802.3,452.15,802.34,452.15,802.39,452.2z"/>
		
			<linearGradient id="SVGID_00000120553599982006300700000012685459631766871702_" gradientUnits="userSpaceOnUse" x1="422.1674" y1="275.4286" x2="697.5695" y2="590.0184">
			<stop  offset="0" style="stop-color:#3E76BB"/>
			<stop  offset="1" style="stop-color:#06509E"/>
		</linearGradient>
		<path style="fill-rule:evenodd;clip-rule:evenodd;fill:url(#SVGID_00000120553599982006300700000012685459631766871702_);" d="
			M816.31,409.25c0,1.32-0.04,2.61-0.13,3.89c-0.04,1.11-0.13,2.18-0.26,3.25c-0.09,0.98-0.21,1.96-0.34,2.95
			c-0.09,0.68-0.21,1.37-0.34,2.05c-0.38,2.39-0.94,4.78-1.62,7.13c-0.21,0.85-0.47,1.71-0.73,2.52c-0.09,0.3-0.17,0.6-0.3,0.9
			c-0.34,1.07-0.73,2.14-1.11,3.16c-0.3,0.81-0.64,1.67-1.03,2.48c-0.09,0.26-0.21,0.56-0.34,0.81l-0.13-0.04l-0.09-0.04
			l-179.97-87.31c-1.11-0.51-2.43-0.17-3.12,0.85l-24.18,36.1l-64.42-79.16c-0.9-1.03-2.43-1.2-3.46-0.3l-89.49,75.01l-42.42-4.06
			c-0.68-0.09-1.37,0-2.01,0.3c-11.66,5.25-129.18,58.48-135.88,61.51c-0.3-0.56-0.56-1.07-0.77-1.62
			c-0.34-0.77-0.68-1.58-1.03-2.39c-0.68-1.62-1.32-3.29-1.84-4.91c-0.34-0.98-0.64-1.92-0.9-2.9c-0.98-3.16-1.67-6.36-2.14-9.61
			c-0.34-2.14-0.56-4.31-0.68-6.49c-0.09-1.32-0.13-2.69-0.13-4.06c0-76.68,125.08-138.87,279.42-138.87
			C691.23,270.37,816.31,332.57,816.31,409.25z"/>
		<g>
			<path class="st11" d="M381.88,482.93c0.38,0,0.75-0.08,1.11-0.23c0.36-0.15,0.58-0.37,0.68-0.66h0.82l-1.43,5.45
				c-0.24,0.76-0.94,1.14-2.1,1.14h-2.1l-3.99,16.97c-0.05,0.24,0.06,0.48,0.32,0.73c0.26,0.25,0.52,0.38,0.78,0.38l-0.25,0.82
				h-9.91c-0.76,0-1.14-0.38-1.14-1.14c0-0.1,0.02-0.29,0.07-0.57l4.03-17.19h-2.46c-0.38,0-0.69,0.09-0.94,0.27
				c-0.25,0.18-0.42,0.41-0.52,0.7h-0.89l1.43-5.7c0.09-0.33,0.28-0.58,0.57-0.73c0.29-0.15,0.74-0.23,1.36-0.23H381.88z"/>
			<path class="st11" d="M393.32,507.53c-0.62,0-1.08-0.1-1.37-0.3c-0.3-0.2-0.47-0.55-0.52-1.05l-0.32-3.64h-4.14l-1.46,2.92
				c-0.02,0.07-0.04,0.13-0.04,0.18s-0.01,0.14-0.04,0.29c0,0.21,0.1,0.4,0.3,0.55c0.2,0.15,0.43,0.23,0.7,0.23l-0.18,0.82h-7.74
				c-1,0-1.5-0.39-1.5-1.18c0-0.21,0.06-0.44,0.18-0.68l10.48-20.32c0.07-0.14,0.11-0.32,0.11-0.54c0-0.26-0.11-0.5-0.34-0.73
				c-0.23-0.23-0.47-0.34-0.73-0.34l0.21-0.82h10.63c0.55,0,1.01,0.15,1.39,0.45c0.38,0.3,0.57,0.72,0.57,1.27l1.64,20.82
				c0,0.31,0.17,0.59,0.5,0.86c0.33,0.26,0.68,0.39,1.03,0.39l-0.18,0.82H393.32z M389.08,497.76h2.03l-0.29-3.99L389.08,497.76z"/>
			<path class="st11" d="M400.99,485.14c-0.05-0.43-0.21-0.77-0.48-1.02c-0.27-0.25-0.58-0.38-0.91-0.38l0.18-0.82h9.95
				c0.31,0,0.6,0.15,0.89,0.47c0.29,0.31,0.43,0.64,0.43,1l0.29,9.34l3.49-8.17l0.14-0.57c0-0.29-0.1-0.57-0.3-0.84
				c-0.2-0.27-0.43-0.41-0.69-0.41l0.18-0.82h7.24c0.43,0,0.78,0.16,1.05,0.48c0.27,0.32,0.41,0.66,0.41,1.02l-0.14,0.71
				l-10.48,22.39h-6.67c-0.55,0-1-0.12-1.36-0.36c-0.36-0.24-0.57-0.56-0.64-0.96L400.99,485.14z"/>
			<path class="st11" d="M431.41,507.53c-0.62,0-1.08-0.1-1.37-0.3c-0.3-0.2-0.47-0.55-0.52-1.05l-0.32-3.64h-4.14l-1.46,2.92
				c-0.02,0.07-0.04,0.13-0.04,0.18s-0.01,0.14-0.04,0.29c0,0.21,0.1,0.4,0.3,0.55s0.43,0.23,0.7,0.23l-0.18,0.82h-7.74
				c-1,0-1.5-0.39-1.5-1.18c0-0.21,0.06-0.44,0.18-0.68l10.48-20.32c0.07-0.14,0.11-0.32,0.11-0.54c0-0.26-0.11-0.5-0.34-0.73
				c-0.23-0.23-0.47-0.34-0.73-0.34l0.21-0.82h10.63c0.55,0,1.01,0.15,1.39,0.45c0.38,0.3,0.57,0.72,0.57,1.27l1.64,20.82
				c0,0.31,0.17,0.59,0.5,0.86c0.33,0.26,0.68,0.39,1.03,0.39l-0.18,0.82H431.41z M427.17,497.76h2.03l-0.29-3.99L427.17,497.76z"/>
			<path class="st11" d="M464.75,507.53h-6.49c-0.71,0-1.31-0.1-1.8-0.29c-0.49-0.19-0.8-0.53-0.94-1.03l-3.64-8.81l-2.07,7.95
				l-0.07,0.61c0,0.24,0.1,0.42,0.3,0.55s0.47,0.2,0.8,0.2l-0.18,0.82h-8.02c-0.4,0-0.71-0.11-0.91-0.34
				c-0.2-0.23-0.3-0.53-0.3-0.91c0-0.14,0.02-0.33,0.07-0.57l4.85-20.86c0.05-0.26-0.05-0.51-0.29-0.75
				c-0.24-0.24-0.5-0.36-0.78-0.36l0.21-0.82h9.06c0.29,0,0.61,0.14,0.98,0.41c0.37,0.27,0.61,0.57,0.73,0.87l3.85,8.98l1.71-7.7
				c0.05-0.14,0.07-0.37,0.07-0.68c0-0.28-0.12-0.53-0.36-0.75c-0.24-0.21-0.5-0.32-0.78-0.32l0.21-0.82h7.99
				c0.38,0,0.67,0.13,0.87,0.39c0.2,0.26,0.3,0.56,0.3,0.89l-0.11,0.96L464.75,507.53z"/>
			<path class="st11" d="M502.45,482.89c1.59,0,2.82,0.42,3.69,1.25c0.87,0.83,1.3,1.88,1.3,3.14c0,0.19-0.02,0.4-0.05,0.64
				c-0.04,0.24-0.06,0.42-0.09,0.54c-0.55,2.61-1.66,4.19-3.35,4.74c0.69,0.43,1.2,0.9,1.51,1.41c0.32,0.51,0.48,1.26,0.48,2.26
				c0,0.9-0.18,2.16-0.53,3.78c-0.62,2.69-1.57,4.53-2.85,5.53c-1.16,0.9-2.96,1.36-5.38,1.36h-14.15c-0.4,0-0.71-0.11-0.91-0.34
				c-0.2-0.23-0.3-0.53-0.3-0.91c0-0.14,0.02-0.33,0.07-0.57l4.85-20.86c0.05-0.26-0.05-0.51-0.29-0.75
				c-0.24-0.24-0.5-0.36-0.78-0.36l0.21-0.82L502.45,482.89z M494.07,502c0.64,0,1.09-0.15,1.34-0.44c0.25-0.3,0.49-0.97,0.73-2.01
				c0.17-0.67,0.25-1.21,0.25-1.64c0-0.81-0.44-1.21-1.32-1.21h-1l-1.21,5.31H494.07z M496.6,491.95c0.4,0,0.69-0.11,0.86-0.34
				c0.17-0.23,0.32-0.64,0.46-1.23c0.14-0.59,0.21-1.02,0.21-1.28c0-0.62-0.35-0.93-1.03-0.93h-1.07l-0.86,3.78H496.6z"/>
			<path class="st11" d="M524.06,482.93c2.09,0,3.81,0.54,5.17,1.62c1.36,1.08,2.03,2.61,2.03,4.58c0,0.71-0.08,1.4-0.25,2.07
				l-2.14,9.06c-0.62,2.69-1.69,4.6-3.21,5.74c-1.33,1.02-3.16,1.53-5.49,1.53h-7.31c-2.23,0-3.89-0.5-4.97-1.51
				c-1.08-1.01-1.62-2.5-1.62-4.48c0-1.16,0.15-2.38,0.46-3.64l1.57-6.74c0.62-2.59,1.51-4.53,2.67-5.81
				c1.5-1.62,3.6-2.43,6.31-2.43H524.06z M516.35,499.9c-0.07,0.33-0.11,0.62-0.11,0.86c0,0.59,0.33,0.89,1,0.89
				c0.45,0,0.79-0.1,1.02-0.3s0.4-0.56,0.52-1.09l2.35-10.02c0.05-0.29,0.07-0.48,0.07-0.57c0-0.69-0.34-1.03-1.03-1.03
				c-0.76,0-1.27,0.48-1.53,1.43L516.35,499.9z"/>
			<path class="st11" d="M543.39,496.87l0.07-0.46c0-0.21-0.14-0.32-0.43-0.32c-0.28,0-0.43-0.12-0.43-0.36l0.07-0.46l1.03-4.24
				h7.88c0.57,0,1.02,0.17,1.34,0.52c0.32,0.35,0.48,0.73,0.48,1.16c0,0.55-0.05,1-0.14,1.36l-1.89,8.38
				c-0.43,1.9-1.08,3.23-1.96,3.98c-0.88,0.75-2.35,1.12-4.42,1.12h-8.63c-2.4,0-4.12-0.46-5.17-1.39c-0.93-0.83-1.39-2.1-1.39-3.81
				c0-1.09,0.19-2.42,0.57-3.99l1.96-8.59c0.5-2.23,1.46-3.96,2.89-5.17c1.31-1.12,2.81-1.68,4.49-1.68h14.58
				c-0.07,0.71-0.2,1.44-0.39,2.18s-0.4,1.34-0.62,1.82c-0.23,0.48-0.57,0.82-1.03,1.03c-0.46,0.21-0.99,0.32-1.59,0.32h-6.02
				c-0.67,0-1.18,0.16-1.55,0.48c-0.37,0.32-0.64,0.85-0.8,1.59l-2.32,9.98c-0.05,0.33-0.07,0.55-0.07,0.64
				c0,0.59,0.37,0.89,1.11,0.89c0.83,0,1.34-0.44,1.53-1.32L543.39,496.87z"/>
			<path class="st11" d="M570.74,482.93c2.4,0,4.15,0.62,5.24,1.85c0.97,1.12,1.46,2.76,1.46,4.92c0,0.83-0.08,1.76-0.23,2.8
				c-0.15,1.03-0.38,2.12-0.66,3.26c-1.12,4.73-2.22,7.87-3.3,9.43c-1.08,1.56-2.66,2.34-4.72,2.34h-15.9
				c-0.4,0-0.71-0.11-0.91-0.34c-0.2-0.23-0.3-0.53-0.3-0.91c0-0.14,0.03-0.33,0.07-0.57l4.85-20.86c0.05-0.26-0.05-0.51-0.28-0.75
				s-0.5-0.36-0.78-0.36l0.21-0.82H570.74z M563.75,501.65c0.5,0,0.88-0.14,1.14-0.43c0.26-0.28,0.48-0.77,0.64-1.46l2.07-8.88
				c0.1-0.4,0.14-0.78,0.14-1.14c0-0.74-0.43-1.11-1.28-1.11h-0.89l-3.03,13.02H563.75z"/>
			<path class="st11" d="M603.12,496.87l0.07-0.46c0-0.21-0.14-0.32-0.43-0.32c-0.28,0-0.43-0.12-0.43-0.36l0.07-0.46l1.03-4.24
				h7.88c0.57,0,1.02,0.17,1.34,0.52c0.32,0.35,0.48,0.73,0.48,1.16c0,0.55-0.05,1-0.14,1.36l-1.89,8.38
				c-0.43,1.9-1.08,3.23-1.96,3.98c-0.88,0.75-2.35,1.12-4.42,1.12h-8.63c-2.4,0-4.12-0.46-5.17-1.39c-0.93-0.83-1.39-2.1-1.39-3.81
				c0-1.09,0.19-2.42,0.57-3.99l1.96-8.59c0.5-2.23,1.46-3.96,2.89-5.17c1.31-1.12,2.81-1.68,4.49-1.68h14.58
				c-0.07,0.71-0.2,1.44-0.39,2.18s-0.4,1.34-0.62,1.82c-0.23,0.48-0.57,0.82-1.03,1.03c-0.46,0.21-0.99,0.32-1.59,0.32h-6.02
				c-0.67,0-1.18,0.16-1.55,0.48c-0.37,0.32-0.64,0.85-0.8,1.59l-2.32,9.98c-0.05,0.33-0.07,0.55-0.07,0.64
				c0,0.59,0.37,0.89,1.11,0.89c0.83,0,1.34-0.44,1.53-1.32L603.12,496.87z"/>
			<path class="st11" d="M633.36,500.75c0.17,0.29,0.39,0.53,0.68,0.73c0.28,0.2,0.6,0.3,0.96,0.3h1.03l-0.86,4.07
				c-0.24,1.12-1.1,1.67-2.57,1.67h-4.78c-0.62,0-1.15-0.16-1.6-0.48c-0.45-0.32-0.74-0.72-0.86-1.19l-2.07-7.28l-1.53,6.95
				l-0.04,0.36c0,0.24,0.1,0.43,0.3,0.59c0.2,0.15,0.46,0.23,0.77,0.23l-0.18,0.82h-9.88c-0.4,0-0.71-0.11-0.91-0.34
				c-0.2-0.23-0.3-0.53-0.3-0.91c0-0.14,0.03-0.33,0.07-0.57l4.85-20.86c0.05-0.26-0.05-0.51-0.28-0.75
				c-0.24-0.24-0.5-0.36-0.78-0.36l0.21-0.82h16.51c3.71,0,5.56,1.72,5.56,5.17c0,0.48-0.02,0.89-0.07,1.25
				c-0.12,0.62-0.2,1.09-0.25,1.43c-0.48,2.14-1.11,3.71-1.89,4.71c-0.78,1-1.9,1.66-3.35,2L633.36,500.75z M624.69,492.87h1.39
				c0.81,0,1.37-0.68,1.67-2.03c0.05-0.26,0.1-0.52,0.14-0.77c0.05-0.25,0.07-0.46,0.07-0.63c0-0.67-0.29-1-0.86-1h-1.39
				L624.69,492.87z"/>
			<path class="st11" d="M654.15,482.93c2.09,0,3.82,0.54,5.17,1.62c1.36,1.08,2.03,2.61,2.03,4.58c0,0.71-0.08,1.4-0.25,2.07
				l-2.14,9.06c-0.62,2.69-1.69,4.6-3.21,5.74c-1.33,1.02-3.16,1.53-5.49,1.53h-7.31c-2.23,0-3.89-0.5-4.97-1.51
				c-1.08-1.01-1.62-2.5-1.62-4.48c0-1.16,0.15-2.38,0.46-3.64l1.57-6.74c0.62-2.59,1.51-4.53,2.67-5.81
				c1.5-1.62,3.6-2.43,6.31-2.43H654.15z M646.45,499.9c-0.07,0.33-0.11,0.62-0.11,0.86c0,0.59,0.33,0.89,1,0.89
				c0.45,0,0.79-0.1,1.02-0.3s0.4-0.56,0.52-1.09l2.35-10.02c0.05-0.29,0.07-0.48,0.07-0.57c0-0.69-0.34-1.03-1.03-1.03
				c-0.76,0-1.27,0.48-1.53,1.43L646.45,499.9z"/>
			<path class="st11" d="M670.52,500.11c-0.05,0.24-0.07,0.38-0.07,0.43c0,0.52,0.4,0.78,1.21,0.78c0.45,0,0.78-0.08,0.98-0.23
				c0.2-0.16,0.36-0.48,0.48-0.98l3.53-15.26c0.05-0.24-0.05-0.48-0.29-0.73c-0.24-0.25-0.49-0.38-0.75-0.38l0.18-0.82h9.91
				c0.4,0,0.69,0.1,0.87,0.3c0.18,0.2,0.27,0.49,0.27,0.87l-0.07,0.54l-3.6,15.62c-0.62,2.71-1.63,4.62-3.03,5.74
				c-1.26,1-3.03,1.5-5.31,1.5h-8.17c-2.16,0-3.75-0.48-4.76-1.44c-1.01-0.96-1.51-2.38-1.51-4.26c0-1.14,0.18-2.45,0.53-3.92
				l3.03-13.02c0.05-0.24-0.05-0.48-0.28-0.73c-0.24-0.25-0.49-0.38-0.75-0.38l0.18-0.82h9.91c0.4,0,0.69,0.1,0.87,0.3
				c0.18,0.2,0.27,0.49,0.27,0.87l-0.07,0.54L670.52,500.11z"/>
			<path class="st11" d="M703.22,482.93c2.19,0,3.84,0.44,4.96,1.32c1.12,0.88,1.68,2.27,1.68,4.17c0,0.52-0.03,1-0.07,1.43
				c-0.05,0.43-0.15,0.96-0.32,1.6c-0.76,3.28-1.62,5.45-2.57,6.51c-0.95,1.06-2.51,1.59-4.67,1.59h-7.34l-1.32,5.6l-0.11,0.68
				c0,0.26,0.11,0.47,0.32,0.64c0.21,0.17,0.47,0.25,0.75,0.25l-0.21,0.82h-9.84c-0.4,0-0.71-0.11-0.91-0.34
				c-0.2-0.23-0.3-0.53-0.3-0.91c0-0.14,0.02-0.33,0.07-0.57l4.85-20.86c0.05-0.26-0.05-0.51-0.29-0.75s-0.5-0.36-0.78-0.36
				l0.21-0.82H703.22z M696.23,493.84h1.11c0.59,0,1.03-0.18,1.32-0.55c0.29-0.37,0.55-1.08,0.78-2.12
				c0.14-0.62,0.21-1.11,0.21-1.46c0-0.48-0.1-0.8-0.3-0.98c-0.2-0.18-0.5-0.27-0.91-0.27h-0.96L696.23,493.84z"/>
		</g>
	</g>
	<g>
		<path class="st138" d="M147.41,799.08l16.65-18.42l-9.87-18.02h5.14l4.5,8.26c1.62,2.94,2.74,5.18,3.4,6.71
			c1.14-1.6,2.96-3.78,5.44-6.54l7.67-8.43h6.09l-16.87,18.83l9.55,17.62l-5.06-0.01l-5.65-10.67c-0.54-1.04-1.18-2.38-1.92-4.01
			c-0.8,1.11-1.85,2.39-3.15,3.85l-9.73,10.84H147.41L147.41,799.08z M200.03,795.8c-2.76,2.59-5.66,3.88-8.71,3.88
			c-2.27,0-4.13-0.7-5.6-2.09c-1.47-1.39-2.2-3.23-2.2-5.51c0-2.72,0.95-4.82,2.86-6.3c1.96-1.52,4.84-2.28,8.62-2.28l2.28-0.1
			c1.08,0,2.05-0.08,2.89-0.24c0.85-0.15,1.55-0.36,2.1-0.63c0.33-1.23,0.5-2.29,0.5-3.18c0-1.04-0.46-1.9-1.39-2.57
			c-0.93-0.67-2.28-1.01-4.06-1.01c-3.56,0-5.88,1.6-6.98,4.82l-4.35-0.4c1.8-5.41,5.64-8.1,11.51-8.1c2.83,0,5.12,0.63,6.88,1.89
			c1.76,1.26,2.64,2.91,2.64,4.97c0,1.41-0.19,3.04-0.59,4.9l-1.4,6.56c-0.23,1.13-0.39,2.09-0.5,2.86
			c-0.11,0.78-0.17,1.5-0.17,2.16c0,1.18,0.18,2.4,0.53,3.66h-4.35c-0.15-0.47-0.26-0.98-0.36-1.54
			C200.08,796.98,200.03,796.39,200.03,795.8L200.03,795.8z M201.62,785.71c-1.02,0.39-2.41,0.68-4.16,0.87l-2.48,0.25
			c-1.4,0-2.62,0.18-3.66,0.53c-0.93,0.3-1.64,0.71-2.14,1.24c-0.92,0.92-1.38,2.01-1.38,3.28c0,1.25,0.42,2.27,1.27,3.1
			c0.85,0.82,2,1.23,3.46,1.23c2.06,0,3.94-0.76,5.63-2.27C199.85,792.43,201,789.69,201.62,785.71L201.62,785.71z M215.4,772.68
			h6.4l2.38,21.06l11.73-21.06h6.28l-5.4,26.4h-4.26l4.4-21.28l-11.85,21.28h-3.82l-2.5-22.1l-4.52,22.1h-4.26L215.4,772.68
			L215.4,772.68z M243.38,799.08l5.28-26.4h4.31l-0.89,4.34c2.68-3.3,5.46-4.95,8.33-4.95c1.66,0,3.01,0.42,4.04,1.25
			c0.98,0.77,1.67,2.01,2.05,3.7c1.25-1.62,2.6-2.85,4.04-3.69c1.45-0.84,2.94-1.26,4.5-1.26c2.08,0,3.65,0.5,4.72,1.5
			c1.07,1,1.61,2.5,1.61,4.49c0,0.87-0.19,2.2-0.55,4l-3.41,17h-4.3l3.48-17.45c0.15-0.73,0.25-1.34,0.33-1.83
			c0.08-0.5,0.12-0.91,0.12-1.22c0-0.92-0.25-1.62-0.75-2.09c-0.5-0.47-1.25-0.7-2.25-0.7c-1.46,0-2.89,0.49-4.29,1.48
			c-1.4,0.99-2.42,2.16-3.07,3.52c-0.57,1.29-1.1,3.12-1.62,5.49l-2.58,12.8h-4.3l3.57-17.83c0.25-1.27,0.38-2.14,0.38-2.58
			c0-0.9-0.28-1.6-0.81-2.11c-0.54-0.52-1.2-0.77-1.97-0.77c-0.73,0-1.45,0.13-2.15,0.37c-0.71,0.25-1.43,0.63-2.16,1.17
			c-1.4,1.01-2.47,2.27-3.18,3.77c-0.65,1.41-1.22,3.24-1.69,5.49l-2.5,12.48H243.38L243.38,799.08z M314.32,772.68h4.35l-5.46,26.4
			h-4.33L314.32,772.68L314.32,772.68z M289.41,772.68h4.3l-2.16,10.21h4.6c2.91,0,4.99,0.22,6.24,0.67
			c1.24,0.45,2.23,1.26,2.96,2.45c0.73,1.19,1.1,2.5,1.1,3.96c0,0.88-0.12,1.73-0.36,2.56c-0.24,0.83-0.61,1.66-1.12,2.49
			c-0.95,1.6-2.14,2.66-3.58,3.22c-1.43,0.55-3.65,0.83-6.68,0.83h-10.75L289.41,772.68L289.41,772.68z M288.96,795.5h5.49
			c2.12,0,3.63-0.15,4.52-0.45c0.89-0.3,1.65-0.84,2.25-1.64c0.6-0.8,0.9-1.75,0.9-2.86c0-1.01-0.27-1.87-0.79-2.55
			c-0.54-0.69-1.15-1.1-1.84-1.26c-0.32-0.07-0.81-0.12-1.47-0.17c-0.66-0.05-1.43-0.08-2.32-0.08h-4.9L288.96,795.5L288.96,795.5z
			 M325.22,772.68h4.26l-2.28,11h11.73l2.23-11h4.21l-5.32,26.4h-4.29l2.44-11.81h-11.69l-2.44,11.81h-4.25L325.22,772.68
			L325.22,772.68z M358.5,799.08l11-13.4l-6.31-13h4.76l2.14,4.69c0.92,2.09,1.63,3.77,2.14,5.05l7.28-9.74h5.25l-10.61,13.35
			l6.38,13.05l-4.77,0.01l-2.52-5.38c-0.32-0.7-0.61-1.35-0.88-1.96c-0.19-0.45-0.51-1.21-0.95-2.29l-7.52,9.62H358.5L358.5,799.08z
			 M390.95,799.08l-4.17-26.4h4.17l2.19,14.53c0.23,1.46,0.52,4.06,0.88,7.79c0.82-1.91,1.88-4.06,3.15-6.45l8.45-15.87h4.55
			l-14.46,26.4l-3,10.44l-4.36,0.11L390.95,799.08L390.95,799.08z M412.82,772.68h4.23l-0.9,4.42c-0.58,2.78-0.86,4.74-0.86,5.89
			c0,1.15,0.42,2.01,1.26,2.61c0.84,0.59,2.1,0.89,3.78,0.89c2.03,0,3.91-0.37,5.66-1.11l2.6-12.7h4.28l-5.38,26.4h-4.3l2.07-10.11
			c-2.14,0.74-4.14,1.11-6,1.11c-2.55,0-4.57-0.57-6.05-1.71c-1.49-1.15-2.22-2.77-2.22-4.87c0-0.88,0.38-3.33,1.15-7.33
			L412.82,772.68L412.82,772.68z M448.07,788.14l0.9-4.5h13.13l-0.88,4.5H448.07L448.07,788.14z M474.86,799.08l19.77-36.44h5.5
			l5.76,36.44h-4.53l-1.68-10.49h-14.1l-5.59,10.5L474.86,799.08L474.86,799.08z M487.54,784.84h11.54l-1.35-9.16
			c-0.31-2.21-0.54-3.89-0.68-5.07c-0.19-1.61-0.28-2.94-0.28-4c-0.81,2.14-1.97,4.62-3.48,7.43L487.54,784.84L487.54,784.84z
			 M515.32,772.68h6.4l2.38,21.06l11.73-21.06h6.28l-5.4,26.4h-4.26l4.4-21.28L525,799.08h-3.82l-2.5-22.1l-4.51,22.1h-4.26
			L515.32,772.68L515.32,772.68z M560.09,772.68h4.19l-2.35,11.28l0.33,0.03c0.91,0,1.77-0.4,2.59-1.21
			c0.81-0.81,1.86-2.3,3.13-4.49c1.38-2.37,2.63-3.89,3.76-4.58c1.13-0.69,2.29-1.03,3.5-1.03c0.84,0,1.72,0.15,2.66,0.45
			l-0.97,2.68c-0.58-0.23-1.05-0.35-1.43-0.35c-0.71,0-1.34,0.26-1.88,0.77c-0.54,0.52-1.23,1.58-2.06,3.17
			c-1.75,3.28-3.71,5.3-5.89,6.07c0.76,0.28,1.48,0.74,2.15,1.37c0.68,0.63,1.38,1.89,2.11,3.8l3.17,8.43h-4.43l-2.49-6.71
			c-0.76-2.09-1.45-3.5-2.09-4.23c-0.63-0.74-1.53-1.21-2.69-1.41l-2.57,12.35h-4.23l2.54-12.35c-0.44,0-0.85,0.07-1.23,0.2
			c-0.38,0.14-0.79,0.34-1.22,0.63c-0.77,0.51-2.06,1.99-3.85,4.45l-5.22,7.08l-5.22,0.01l6.68-8.8c1.95-2.57,4.04-4.17,6.28-4.79
			c-0.97-0.64-1.68-1.39-2.13-2.27c-0.46-0.88-0.91-2.49-1.33-4.84c-0.2-1.15-0.43-1.92-0.71-2.32c-0.28-0.4-0.68-0.59-1.23-0.59
			c-0.4,0-1.01,0.12-1.83,0.35l0.28-2.86c0.35-0.08,0.71-0.14,1.1-0.19c0.38-0.05,0.76-0.08,1.13-0.08c1.5,0,2.57,0.44,3.22,1.32
			c0.65,0.81,1.21,2.33,1.67,4.56c0.47,2.23,0.98,3.69,1.52,4.39c0.55,0.69,1.42,1.03,2.62,1.03L560.09,772.68L560.09,772.68z
			 M594.11,794.3c-3.03,3.58-6.1,5.37-9.21,5.37c-1.9,0-3.48-0.56-4.73-1.68c-1.25-1.12-1.88-2.55-1.88-4.29
			c0-1.2,0.27-3.12,0.8-5.8l3.05-15.23h4.31l-3.38,16.88c-0.28,1.39-0.43,2.5-0.43,3.33c0,1.01,0.29,1.79,0.85,2.33
			c0.59,0.52,1.44,0.77,2.55,0.77c1.65,0,3.22-0.55,4.7-1.66c1.48-1.11,2.57-2.43,3.26-3.98c0.65-1.47,1.26-3.55,1.81-6.26
			l2.28-11.4h4.3l-5.28,26.4h-3.97L594.11,794.3L594.11,794.3z M611.16,772.68h19.03l-5.38,26.4h-4.28l4.71-22.65h-10.61
			l-3.26,15.74c-0.55,2.7-1.3,4.58-2.23,5.65c-0.93,1.07-2.23,1.6-3.88,1.6c-0.5,0-1.06-0.03-1.65-0.08
			c-0.6-0.05-1.31-0.14-2.14-0.27l0.79-3.72l1.81,0.07c1.09,0,1.8-0.27,2.13-0.82c0.32-0.54,0.82-2.3,1.49-5.26L611.16,772.68
			L611.16,772.68z M631.4,799.08l5.28-26.4h4.31l-0.89,4.34c2.68-3.3,5.46-4.95,8.33-4.95c1.67,0,3.01,0.42,4.04,1.25
			c0.98,0.77,1.67,2.01,2.05,3.7c1.25-1.62,2.6-2.85,4.04-3.69c1.45-0.84,2.94-1.26,4.5-1.26c2.08,0,3.65,0.5,4.72,1.5
			c1.07,1,1.61,2.5,1.61,4.49c0,0.87-0.19,2.2-0.55,4l-3.41,17h-4.3l3.48-17.45c0.15-0.73,0.25-1.34,0.33-1.83
			c0.08-0.5,0.12-0.91,0.12-1.22c0-0.92-0.25-1.62-0.75-2.09c-0.5-0.47-1.25-0.7-2.25-0.7c-1.46,0-2.89,0.49-4.29,1.48
			c-1.4,0.99-2.42,2.16-3.07,3.52c-0.57,1.29-1.1,3.12-1.62,5.49l-2.58,12.8h-4.3l3.57-17.83c0.25-1.27,0.38-2.14,0.38-2.58
			c0-0.9-0.28-1.6-0.81-2.11c-0.54-0.52-1.2-0.77-1.97-0.77c-0.73,0-1.45,0.13-2.15,0.37c-0.71,0.25-1.43,0.63-2.16,1.17
			c-1.41,1.01-2.47,2.27-3.18,3.77c-0.65,1.41-1.22,3.24-1.69,5.49l-2.5,12.48H631.4L631.4,799.08z M702.34,772.68h4.35l-5.46,26.4
			h-4.33L702.34,772.68L702.34,772.68z M677.43,772.68h4.3l-2.16,10.21h4.6c2.92,0,4.99,0.22,6.24,0.67
			c1.24,0.45,2.23,1.26,2.96,2.45c0.73,1.19,1.1,2.5,1.1,3.96c0,0.88-0.12,1.73-0.36,2.56c-0.24,0.83-0.61,1.66-1.12,2.49
			c-0.95,1.6-2.14,2.66-3.58,3.22c-1.43,0.55-3.65,0.83-6.68,0.83h-10.75L677.43,772.68L677.43,772.68z M676.98,795.5h5.49
			c2.12,0,3.63-0.15,4.52-0.45c0.89-0.3,1.65-0.84,2.25-1.64c0.6-0.8,0.9-1.75,0.9-2.86c0-1.01-0.27-1.87-0.8-2.55
			c-0.54-0.69-1.15-1.1-1.84-1.26c-0.32-0.07-0.81-0.12-1.47-0.17c-0.66-0.05-1.43-0.08-2.32-0.08h-4.9L676.98,795.5L676.98,795.5z
			 M713.24,772.68h4.26l-2.28,11h11.73l2.23-11h4.21l-5.32,26.4h-4.29l2.44-11.81h-11.69l-2.44,11.81h-4.26L713.24,772.68
			L713.24,772.68z M748.19,799.08l5.28-26.4h4.31l-0.89,4.34c2.68-3.3,5.46-4.95,8.33-4.95c1.67,0,3.01,0.42,4.04,1.25
			c0.98,0.77,1.67,2.01,2.05,3.7c1.25-1.62,2.6-2.85,4.04-3.69c1.45-0.84,2.94-1.26,4.5-1.26c2.08,0,3.65,0.5,4.72,1.5
			c1.07,1,1.61,2.5,1.61,4.49c0,0.87-0.19,2.2-0.55,4l-3.41,17h-4.3l3.48-17.45c0.15-0.73,0.25-1.34,0.33-1.83
			c0.08-0.5,0.12-0.91,0.12-1.22c0-0.92-0.25-1.62-0.75-2.09c-0.5-0.47-1.25-0.7-2.25-0.7c-1.46,0-2.89,0.49-4.29,1.48
			c-1.4,0.99-2.42,2.16-3.07,3.52c-0.57,1.29-1.1,3.12-1.62,5.49l-2.58,12.8h-4.3l3.57-17.83c0.25-1.27,0.38-2.14,0.38-2.58
			c0-0.9-0.28-1.6-0.81-2.11c-0.54-0.52-1.2-0.77-1.97-0.77c-0.73,0-1.45,0.13-2.15,0.37c-0.71,0.25-1.43,0.63-2.16,1.17
			c-1.41,1.01-2.47,2.27-3.18,3.77c-0.65,1.41-1.22,3.24-1.69,5.49l-2.5,12.48H748.19L748.19,799.08z M795.2,799.08l-4.17-26.4h4.17
			l2.19,14.53c0.23,1.46,0.52,4.06,0.88,7.79c0.82-1.91,1.88-4.06,3.15-6.45l8.45-15.87h4.55l-14.46,26.4l-3,10.44l-4.36,0.11
			L795.2,799.08L795.2,799.08z M820.38,772.68h19.03l-5.38,26.4h-4.28l4.71-22.65h-10.61l-3.26,15.74c-0.55,2.7-1.3,4.58-2.23,5.65
			c-0.93,1.07-2.23,1.6-3.88,1.6c-0.5,0-1.06-0.03-1.65-0.08c-0.6-0.05-1.31-0.14-2.14-0.27l0.79-3.72l1.81,0.07
			c1.09,0,1.8-0.27,2.13-0.82c0.32-0.54,0.82-2.3,1.49-5.26L820.38,772.68L820.38,772.68z M838.95,799.08l11-13.4l-6.31-13h4.76
			l2.14,4.69c0.92,2.09,1.63,3.77,2.14,5.05l7.28-9.74h5.25l-10.61,13.35l6.37,13.05l-4.77,0.01l-2.52-5.38
			c-0.32-0.7-0.61-1.35-0.88-1.96c-0.2-0.45-0.51-1.21-0.95-2.29l-7.52,9.62H838.95L838.95,799.08z M871.4,799.08l-4.17-26.4h4.17
			l2.19,14.53c0.23,1.46,0.52,4.06,0.88,7.79c0.82-1.91,1.88-4.06,3.15-6.45l8.45-15.87h4.55l-14.46,26.4l-3,10.44l-4.36,0.11
			L871.4,799.08L871.4,799.08z M895.76,799.08l-4.17-26.4h4.17l2.19,14.53c0.23,1.46,0.52,4.06,0.88,7.79
			c0.82-1.91,1.88-4.06,3.15-6.45l8.45-15.87h4.55l-14.46,26.4l-3,10.44l-4.36,0.11L895.76,799.08L895.76,799.08z M911.7,809.19
			l7.3-36.51h3.98l-0.74,3.67c2.53-2.85,5.1-4.28,7.68-4.28c2.38,0,4.36,0.92,5.96,2.77c1.59,1.84,2.39,4.47,2.39,7.87
			c0,4.64-1.24,8.63-3.74,11.95c-2.49,3.34-5.38,5-8.66,5c-3.01,0-5.34-1.6-7.02-4.82l-2.84,14.34H911.7L911.7,809.19z
			 M920.17,789.18c0,2.27,0.54,3.98,1.61,5.11c1.08,1.14,2.4,1.7,3.95,1.7c2.49,0,4.49-1.48,6-4.45c1.5-2.97,2.26-5.96,2.26-8.98
			c0-1.79-0.45-3.38-1.36-4.77c-0.9-1.39-2.23-2.09-3.97-2.09c-2.43,0-4.45,1.43-6.07,4.28
			C920.98,782.86,920.17,785.92,920.17,789.18L920.17,789.18z"/>
	</g>
	<g>
		
			<linearGradient id="SVGID_00000047047948429922928030000016569566131141605528_" gradientUnits="userSpaceOnUse" x1="114.5955" y1="558.1277" x2="114.5955" y2="647.4028">
			<stop  offset="0" style="stop-color:#3E76BB"/>
			<stop  offset="0.9672" style="stop-color:#06509E"/>
		</linearGradient>
		<path style="fill:url(#SVGID_00000047047948429922928030000016569566131141605528_);" d="M63.72,647.12
			c-1.57,0-2.81-0.37-3.71-1.12c-0.9-0.75-1.35-1.65-1.35-2.7c0-0.9,0.19-1.72,0.56-2.47l25.61-63c0.3-0.6,0.45-1.27,0.45-2.02
			c0-0.9-0.33-1.72-1.01-2.47c-0.68-0.75-1.42-1.12-2.25-1.12l0.56-2.58h30.33c1.2,0,2.26,0.34,3.2,1.01
			c0.93,0.67,1.4,1.68,1.4,3.03l0.79,27.07l9.88-23.7c0.3-0.6,0.45-1.31,0.45-2.13c0-1.8-0.94-2.7-2.81-2.7l0.68-2.58h30.89
			c1.27,0,2.36,0.56,3.26,1.69c0.9,1.12,1.35,2.43,1.35,3.93l3.71,65.81c0,1.05,0.52,1.89,1.57,2.52c1.05,0.64,2.13,0.95,3.26,0.95
			l-0.56,2.58h-30.77c-0.97,0-1.91-0.45-2.81-1.35c-0.9-0.9-1.35-1.87-1.35-2.92l0.23-29.88l-13.03,34.14H95.61l-0.67-33.92
			l-10.33,26.5c-0.15,0.3-0.23,0.83-0.23,1.57c0,1.05,0.37,1.85,1.12,2.41c0.75,0.56,1.65,0.84,2.7,0.84l-0.68,2.58H63.72z"/>
		
			<linearGradient id="SVGID_00000061466304235353560800000010437907076051905199_" gradientUnits="userSpaceOnUse" x1="204.9049" y1="558.1277" x2="204.9049" y2="647.4028">
			<stop  offset="0" style="stop-color:#3E76BB"/>
			<stop  offset="0.9672" style="stop-color:#06509E"/>
		</linearGradient>
		<path style="fill:url(#SVGID_00000061466304235353560800000010437907076051905199_);" d="M221.58,569.62
			c6.59,0,12.02,1.71,16.29,5.11c4.27,3.41,6.4,8.22,6.4,14.43c0,2.25-0.26,4.42-0.79,6.51l-6.74,28.53
			c-1.94,8.46-5.32,14.49-10.11,18.08c-4.19,3.22-9.96,4.83-17.3,4.83h-23.02c-7.04,0-12.26-1.59-15.67-4.77
			c-3.41-3.18-5.11-7.88-5.11-14.09c0-3.67,0.49-7.49,1.46-11.45l4.94-21.23c1.95-8.16,4.75-14.26,8.42-18.3
			c4.72-5.09,11.34-7.64,19.88-7.64H221.58z M197.32,623.08c-0.22,1.05-0.33,1.94-0.33,2.7c0,1.87,1.05,2.81,3.14,2.81
			c1.42,0,2.49-0.32,3.2-0.95c0.71-0.64,1.25-1.78,1.63-3.43l7.41-31.56c0.15-0.9,0.22-1.5,0.22-1.8c0-2.17-1.09-3.26-3.26-3.26
			c-2.39,0-4,1.5-4.83,4.49L197.32,623.08z"/>
		
			<linearGradient id="SVGID_00000175306937293867350310000007242012966738610080_" gradientUnits="userSpaceOnUse" x1="279.5009" y1="558.1277" x2="279.5009" y2="647.4028">
			<stop  offset="0" style="stop-color:#3E76BB"/>
			<stop  offset="0.9672" style="stop-color:#06509E"/>
		</linearGradient>
		<path style="fill:url(#SVGID_00000175306937293867350310000007242012966738610080_);" d="M274.45,612.97l-6.4,27.63l-0.11,0.9
			c0,0.83,0.37,1.54,1.12,2.13c0.75,0.6,1.54,0.9,2.36,0.9l-0.56,2.58h-31.33c-2.47,0-3.71-1.2-3.71-3.59
			c0-0.37,0.08-1.01,0.23-1.91l15.39-65.93c0.15-0.75-0.19-1.51-1.01-2.3c-0.82-0.79-1.65-1.18-2.47-1.18l0.78-2.58h31.22
			c2.39,0,3.59,1.2,3.59,3.59c0,0.3-0.08,0.9-0.23,1.8l-5.39,23.03h7.97l5.17-22.35c0.15-0.75-0.15-1.51-0.9-2.3
			c-0.75-0.79-1.54-1.18-2.36-1.18l0.56-2.58h31.22c1.27,0,2.19,0.32,2.75,0.96c0.56,0.64,0.84,1.55,0.84,2.75l-0.23,1.68
			l-15.27,66.04c-0.15,0.75,0.19,1.51,1.01,2.3c0.82,0.78,1.65,1.18,2.47,1.18l-0.79,2.58h-31.22c-2.4,0-3.59-1.2-3.59-3.59
			c0-0.3,0.08-0.9,0.23-1.8l6.62-28.75H274.45z"/>
		
			<linearGradient id="SVGID_00000018934019853309911270000001545235189633002932_" gradientUnits="userSpaceOnUse" x1="349.2095" y1="558.1277" x2="349.2095" y2="647.4028">
			<stop  offset="0" style="stop-color:#3E76BB"/>
			<stop  offset="0.9672" style="stop-color:#06509E"/>
		</linearGradient>
		<path style="fill:url(#SVGID_00000018934019853309911270000001545235189633002932_);" d="M346.96,638.58
			c-0.22,0.82-0.34,1.65-0.34,2.47c0,0.9,0.43,1.7,1.29,2.41c0.86,0.71,1.74,1.07,2.64,1.07l-0.56,2.58h-31.9
			c-1.27,0-2.23-0.35-2.86-1.07c-0.64-0.71-0.96-1.67-0.96-2.87c0-0.45,0.08-1.05,0.23-1.8l15.27-65.7c0.15-0.82-0.15-1.61-0.9-2.36
			c-0.75-0.75-1.57-1.12-2.47-1.12l0.67-2.58h57.05l-2.92,12.58c-0.38,1.65-1.22,2.96-2.53,3.93c-1.31,0.97-2.83,1.46-4.55,1.46
			h-15.5L346.96,638.58z"/>
		
			<linearGradient id="SVGID_00000145755612353359692400000003288223968381783705_" gradientUnits="userSpaceOnUse" x1="412.1335" y1="558.1277" x2="412.1335" y2="647.4028">
			<stop  offset="0" style="stop-color:#3E76BB"/>
			<stop  offset="0.9672" style="stop-color:#06509E"/>
		</linearGradient>
		<path style="fill:url(#SVGID_00000145755612353359692400000003288223968381783705_);" d="M428.81,569.62
			c6.59,0,12.01,1.71,16.28,5.11c4.27,3.41,6.4,8.22,6.4,14.43c0,2.25-0.26,4.42-0.79,6.51l-6.74,28.53
			c-1.94,8.46-5.32,14.49-10.11,18.08c-4.19,3.22-9.96,4.83-17.3,4.83h-23.02c-7.04,0-12.26-1.59-15.67-4.77
			c-3.41-3.18-5.11-7.88-5.11-14.09c0-3.67,0.49-7.49,1.46-11.45l4.94-21.23c1.95-8.16,4.75-14.26,8.42-18.3
			c4.72-5.09,11.34-7.64,19.88-7.64H428.81z M404.55,623.08c-0.23,1.05-0.34,1.94-0.34,2.7c0,1.87,1.05,2.81,3.14,2.81
			c1.42,0,2.49-0.32,3.2-0.95c0.71-0.64,1.25-1.78,1.63-3.43l7.41-31.56c0.15-0.9,0.23-1.5,0.23-1.8c0-2.17-1.09-3.26-3.26-3.26
			c-2.39,0-4,1.5-4.83,4.49L404.55,623.08z"/>
		
			<linearGradient id="SVGID_00000100358743034443258140000002960189080169152189_" gradientUnits="userSpaceOnUse" x1="478.7532" y1="558.1277" x2="478.7532" y2="647.4028">
			<stop  offset="0" style="stop-color:#3E76BB"/>
			<stop  offset="0.9672" style="stop-color:#06509E"/>
		</linearGradient>
		<path style="fill:url(#SVGID_00000100358743034443258140000002960189080169152189_);" d="M511.1,640.49
			c0.15,1.2,0.64,2.17,1.46,2.92c0.82,0.75,1.76,1.12,2.81,1.12l-0.56,2.58h-31.22c-0.97,0-1.91-0.45-2.81-1.35
			c-0.9-0.9-1.34-1.87-1.34-2.92l-1.57-26.06l-10.44,22.91c-0.23,0.52-0.34,1.12-0.34,1.8c0,0.83,0.34,1.54,1.01,2.13
			c0.68,0.6,1.42,0.9,2.25,0.9l-0.56,2.58h-23.36c-1.42,0-2.49-0.37-3.2-1.12c-0.71-0.75-1.07-1.72-1.07-2.92
			c0-0.9,0.08-1.51,0.23-1.85c0.15-0.34,0.26-0.58,0.34-0.73l29.42-63c0.37-0.9,0.56-1.61,0.56-2.13c0-0.82-0.35-1.55-1.07-2.19
			c-0.71-0.64-1.48-0.95-2.3-0.95l0.56-2.58h26.73c1.72,0,3.18,0.41,4.38,1.24c1.2,0.82,1.87,1.91,2.02,3.26L511.1,640.49z"/>
		
			<linearGradient id="SVGID_00000099620932077209626010000001908653454551882122_" gradientUnits="userSpaceOnUse" x1="595.7396" y1="558.1277" x2="595.7396" y2="647.4028">
			<stop  offset="0" style="stop-color:#3E76BB"/>
			<stop  offset="0.9672" style="stop-color:#06509E"/>
		</linearGradient>
		<path style="fill:url(#SVGID_00000099620932077209626010000001908653454551882122_);" d="M544.86,647.12
			c-1.57,0-2.81-0.37-3.71-1.12c-0.9-0.75-1.35-1.65-1.35-2.7c0-0.9,0.19-1.72,0.56-2.47l25.61-63c0.3-0.6,0.45-1.27,0.45-2.02
			c0-0.9-0.34-1.72-1.01-2.47c-0.67-0.75-1.42-1.12-2.25-1.12l0.56-2.58h30.33c1.2,0,2.26,0.34,3.2,1.01
			c0.93,0.67,1.4,1.68,1.4,3.03l0.79,27.07l9.88-23.7c0.3-0.6,0.45-1.31,0.45-2.13c0-1.8-0.94-2.7-2.81-2.7l0.67-2.58h30.89
			c1.27,0,2.35,0.56,3.25,1.69c0.9,1.12,1.35,2.43,1.35,3.93l3.7,65.81c0,1.05,0.52,1.89,1.57,2.52c1.05,0.64,2.14,0.95,3.26,0.95
			l-0.56,2.58h-30.78c-0.97,0-1.91-0.45-2.81-1.35c-0.9-0.9-1.35-1.87-1.35-2.92l0.22-29.88l-13.02,34.14h-26.62l-0.67-33.92
			l-10.33,26.5c-0.15,0.3-0.23,0.83-0.23,1.57c0,1.05,0.37,1.85,1.12,2.41c0.75,0.56,1.65,0.84,2.7,0.84l-0.68,2.58H544.86z"/>
		
			<linearGradient id="SVGID_00000083065560351630197080000015087828904765006221_" gradientUnits="userSpaceOnUse" x1="688.5657" y1="558.1277" x2="688.5657" y2="647.4028">
			<stop  offset="0" style="stop-color:#3E76BB"/>
			<stop  offset="0.9672" style="stop-color:#06509E"/>
		</linearGradient>
		<path style="fill:url(#SVGID_00000083065560351630197080000015087828904765006221_);" d="M699.46,647.12
			c-1.94,0-3.38-0.32-4.32-0.95c-0.94-0.64-1.48-1.74-1.63-3.31l-1.02-11.46h-13.02l-4.6,9.21c-0.08,0.23-0.11,0.41-0.11,0.56
			c0,0.15-0.03,0.45-0.11,0.9c0,0.67,0.31,1.25,0.96,1.74c0.63,0.49,1.36,0.73,2.19,0.73l-0.56,2.58h-24.37
			c-3.15,0-4.72-1.24-4.72-3.71c0-0.68,0.19-1.39,0.56-2.13l33.01-64.01c0.23-0.45,0.34-1.01,0.34-1.69c0-0.82-0.35-1.59-1.06-2.3
			c-0.71-0.71-1.48-1.07-2.31-1.07l0.68-2.58h33.47c1.72,0,3.19,0.47,4.38,1.41c1.2,0.93,1.8,2.26,1.8,3.98l5.17,65.59
			c0,0.97,0.52,1.87,1.57,2.7c1.05,0.83,2.13,1.24,3.25,1.24l-0.56,2.58H699.46z M686.09,616.34h6.4l-0.89-12.58L686.09,616.34z"/>
		
			<linearGradient id="SVGID_00000165945353475036740590000017068436120728270000_" gradientUnits="userSpaceOnUse" x1="790.7946" y1="558.1277" x2="790.7946" y2="647.4028">
			<stop  offset="0" style="stop-color:#3E76BB"/>
			<stop  offset="0.9672" style="stop-color:#06509E"/>
		</linearGradient>
		<path style="fill:url(#SVGID_00000165945353475036740590000017068436120728270000_);" d="M727.17,643.52c0-0.3,0.07-0.9,0.22-1.8
			l15.27-66.04c0.16-0.75-0.14-1.51-0.89-2.3c-0.75-0.79-1.53-1.18-2.36-1.18l0.56-2.58h31.22c1.27,0,2.19,0.32,2.75,0.96
			c0.56,0.64,0.84,1.55,0.84,2.75l-0.22,1.68l-12.46,54.13h7.86l12.47-53.46c0.15-0.75-0.15-1.51-0.9-2.3
			c-0.75-0.79-1.53-1.18-2.36-1.18l0.56-2.58h31.22c1.28,0,2.19,0.32,2.75,0.96c0.56,0.64,0.84,1.55,0.84,2.75l-0.22,1.68
			l-12.46,54.13h7.86l12.58-53.46c0.15-0.75-0.14-1.51-0.89-2.3c-0.75-0.79-1.53-1.18-2.36-1.18l0.56-2.58h31.22
			c1.27,0,2.19,0.32,2.75,0.96c0.56,0.64,0.84,1.55,0.84,2.75l-0.22,1.68l-15.05,64.58l-0.33,2.13c0,0.82,0.33,1.5,1.01,2.02
			c0.67,0.52,1.46,0.78,2.36,0.78l-0.68,2.58H730.77C728.37,647.12,727.17,645.92,727.17,643.52z"/>
		
			<linearGradient id="SVGID_00000101791769337551024020000006466371664856998819_" gradientUnits="userSpaceOnUse" x1="892.266" y1="558.1277" x2="892.266" y2="647.4028">
			<stop  offset="0" style="stop-color:#3E76BB"/>
			<stop  offset="0.9672" style="stop-color:#06509E"/>
		</linearGradient>
		<path style="fill:url(#SVGID_00000101791769337551024020000006466371664856998819_);" d="M881.32,636.9
			c-0.9,1.2-1.46,1.98-1.68,2.36c-0.46,0.75-0.68,1.5-0.68,2.24c0,0.83,0.38,1.54,1.13,2.13c0.75,0.6,1.53,0.9,2.36,0.9l-0.56,2.58
			h-31.33c-2.47,0-3.71-1.2-3.71-3.59c0-0.37,0.08-1.01,0.23-1.91l15.39-65.93c0.15-0.75-0.19-1.51-1.01-2.3
			c-0.82-0.79-1.65-1.18-2.47-1.18l0.79-2.58h31.22c2.39,0,3.59,1.2,3.59,3.59c0,0.3-0.07,0.9-0.23,1.8l-6.74,28.98l14.71-22.24
			c0.68-0.97,1.31-1.91,1.91-2.81c0.6-0.9,1.05-1.98,1.34-3.26c0.15-0.75-0.15-1.51-0.9-2.3c-0.75-0.79-1.53-1.18-2.36-1.18
			l0.56-2.58h31.22c1.27,0,2.19,0.32,2.75,0.96c0.56,0.64,0.85,1.55,0.85,2.75l-0.23,1.68l-15.27,66.04
			c-0.15,0.75,0.18,1.51,1.01,2.3c0.83,0.78,1.65,1.18,2.47,1.18l-0.79,2.58h-31.22c-2.4,0-3.59-1.2-3.59-3.59
			c0-0.3,0.08-0.9,0.22-1.8l6.62-28.64L881.32,636.9z"/>
		
			<linearGradient id="SVGID_00000158744892746774017220000000577907448551605148_" gradientUnits="userSpaceOnUse" x1="977.6437" y1="558.1277" x2="977.6437" y2="647.4028">
			<stop  offset="0" style="stop-color:#3E76BB"/>
			<stop  offset="0.9672" style="stop-color:#06509E"/>
		</linearGradient>
		<path style="fill:url(#SVGID_00000158744892746774017220000000577907448551605148_);" d="M972.59,612.97l-6.41,27.63l-0.11,0.9
			c0,0.83,0.37,1.54,1.13,2.13c0.75,0.6,1.53,0.9,2.35,0.9l-0.56,2.58h-31.34c-2.48,0-3.71-1.2-3.71-3.59
			c0-0.37,0.08-1.01,0.22-1.91l15.39-65.93c0.16-0.75-0.18-1.51-1.01-2.3c-0.82-0.79-1.64-1.18-2.47-1.18l0.79-2.58h31.22
			c2.4,0,3.59,1.2,3.59,3.59c0,0.3-0.07,0.9-0.22,1.8l-5.39,23.03h7.97l5.17-22.35c0.14-0.75-0.15-1.51-0.91-2.3
			c-0.75-0.79-1.53-1.18-2.35-1.18l0.56-2.58h31.23c1.27,0,2.19,0.32,2.75,0.96c0.56,0.64,0.85,1.55,0.85,2.75l-0.22,1.68
			l-15.28,66.04c-0.14,0.75,0.19,1.51,1.01,2.3c0.83,0.78,1.65,1.18,2.47,1.18l-0.78,2.58H977.3c-2.39,0-3.59-1.2-3.59-3.59
			c0-0.3,0.08-0.9,0.22-1.8l6.63-28.75H972.59z"/>
		
			<linearGradient id="SVGID_00000068668566108562038840000016294791927794741900_" gradientUnits="userSpaceOnUse" x1="318.9599" y1="558.1277" x2="318.9599" y2="647.4028">
			<stop  offset="0" style="stop-color:#3E76BB"/>
			<stop  offset="0.9672" style="stop-color:#06509E"/>
		</linearGradient>
		<path style="fill:url(#SVGID_00000068668566108562038840000016294791927794741900_);" d="M354.34,736.6
			c-0.38,1.65-1.29,2.88-2.75,3.71c-1.46,0.82-4.17,1.23-8.14,1.23h-9.43c-1.72,0-3.33-0.6-4.83-1.8c-1.5-1.2-2.55-2.54-3.15-4.05
			l-9.1-22.46l-6.4,6.06l-3.82,16.62c0,0.82,0.37,1.53,1.12,2.13c0.75,0.6,1.53,0.9,2.36,0.9l-0.56,2.58H278.3
			c-2.47,0-3.71-1.2-3.71-3.59c0-0.37,0.08-1.01,0.22-1.91l15.39-65.92c0.15-0.75-0.19-1.52-1.01-2.31
			c-0.82-0.78-1.65-1.17-2.47-1.17l0.79-2.58h31.22c2.4,0,3.59,1.19,3.59,3.59c0,0.3-0.08,0.9-0.22,1.8l-3.14,13.48l10.56-11.46
			c0.6-0.75,0.9-1.46,0.9-2.13c0-0.75-0.26-1.39-0.79-1.91c-0.52-0.52-1.01-0.78-1.46-0.78l0.68-2.58h30.1
			c1.42,0,2.51,0.41,3.26,1.23c0.75,0.83,1.12,1.76,1.12,2.81s-0.45,2.1-1.35,3.15l-22.8,21.56l11.34,27.85
			c0.82,1.95,2.28,2.92,4.38,2.92h2.47L354.34,736.6z"/>
		
			<linearGradient id="SVGID_00000126290854799273082230000002192303755897817736_" gradientUnits="userSpaceOnUse" x1="393.8887" y1="558.1277" x2="393.8887" y2="647.4028">
			<stop  offset="0" style="stop-color:#3E76BB"/>
			<stop  offset="0.9672" style="stop-color:#06509E"/>
		</linearGradient>
		<path style="fill:url(#SVGID_00000126290854799273082230000002192303755897817736_);" d="M410.57,664.05
			c6.59,0,12.01,1.7,16.28,5.11c4.27,3.4,6.4,8.22,6.4,14.43c0,2.25-0.26,4.42-0.79,6.52l-6.74,28.53
			c-1.94,8.46-5.32,14.49-10.11,18.08c-4.19,3.22-9.96,4.83-17.3,4.83H375.3c-7.04,0-12.26-1.59-15.67-4.77s-5.11-7.88-5.11-14.09
			c0-3.67,0.49-7.49,1.46-11.46l4.94-21.22c1.95-8.16,4.75-14.26,8.42-18.31c4.72-5.09,11.34-7.63,19.88-7.63H410.57z M386.31,717.5
			c-0.23,1.05-0.34,1.95-0.34,2.7c0,1.88,1.05,2.81,3.14,2.81c1.42,0,2.49-0.31,3.2-0.95c0.71-0.64,1.25-1.78,1.63-3.42l7.41-31.56
			c0.15-0.9,0.23-1.5,0.23-1.8c0-2.17-1.09-3.25-3.26-3.25c-2.39,0-4,1.5-4.83,4.49L386.31,717.5z"/>
		
			<linearGradient id="SVGID_00000147903438624866378300000012244610632195091596_" gradientUnits="userSpaceOnUse" x1="468.4863" y1="558.1277" x2="468.4863" y2="647.4028">
			<stop  offset="0" style="stop-color:#3E76BB"/>
			<stop  offset="0.9672" style="stop-color:#06509E"/>
		</linearGradient>
		<path style="fill:url(#SVGID_00000147903438624866378300000012244610632195091596_);" d="M463.43,707.4l-6.4,27.63l-0.11,0.9
			c0,0.82,0.37,1.53,1.12,2.13c0.75,0.6,1.53,0.9,2.36,0.9l-0.56,2.58H428.5c-2.47,0-3.71-1.2-3.71-3.59c0-0.37,0.07-1.01,0.22-1.91
			l15.39-65.92c0.15-0.75-0.19-1.52-1.01-2.31c-0.82-0.78-1.65-1.17-2.47-1.17l0.79-2.58h31.22c2.39,0,3.59,1.19,3.59,3.59
			c0,0.3-0.08,0.9-0.23,1.8l-5.39,23.02h7.97l5.16-22.34c0.15-0.75-0.15-1.52-0.9-2.31c-0.75-0.78-1.53-1.17-2.36-1.17l0.56-2.58
			h31.22c1.27,0,2.19,0.32,2.75,0.95c0.56,0.63,0.84,1.55,0.84,2.75l-0.22,1.69l-15.27,66.03c-0.15,0.75,0.19,1.51,1.01,2.3
			c0.82,0.79,1.65,1.18,2.47,1.18l-0.78,2.58h-31.22c-2.4,0-3.59-1.2-3.59-3.59c0-0.3,0.08-0.9,0.22-1.8l6.63-28.75H463.43z"/>
		
			<linearGradient id="SVGID_00000033350439978188566170000018069119103150047369_" gradientUnits="userSpaceOnUse" x1="547.2386" y1="558.1277" x2="547.2386" y2="647.4028">
			<stop  offset="0" style="stop-color:#3E76BB"/>
			<stop  offset="0.9672" style="stop-color:#06509E"/>
		</linearGradient>
		<path style="fill:url(#SVGID_00000033350439978188566170000018069119103150047369_);" d="M546.39,723.57l12.47-53.46
			c0.15-0.75-0.15-1.52-0.9-2.31c-0.75-0.78-1.53-1.17-2.36-1.17l0.56-2.58h31.22c1.27,0,2.19,0.32,2.75,0.95
			c0.56,0.63,0.84,1.55,0.84,2.75l-0.23,1.69l-12.58,54.13h6.96l-6.18,26.73c-0.52,2.24-1.65,3.36-3.37,3.36h-13.25
			c-0.97,0-1.87-0.28-2.7-0.84s-1.53-1.59-2.13-3.09l-4.15-8.2h-46.27c-2.4,0-3.59-1.2-3.59-3.59c0-0.3,0.08-0.9,0.23-1.8
			l15.5-66.03c0.15-0.75-0.15-1.52-0.9-2.31c-0.75-0.78-1.53-1.17-2.36-1.17l0.56-2.58h31.22c1.27,0,2.19,0.32,2.75,0.95
			c0.56,0.63,0.84,1.55,0.84,2.75l-0.23,1.69l-12.69,54.13H546.39z"/>
		
			<linearGradient id="SVGID_00000008827246491859841840000004802716536703556262_" gradientUnits="userSpaceOnUse" x1="623.0069" y1="558.1277" x2="623.0069" y2="647.4028">
			<stop  offset="0" style="stop-color:#3E76BB"/>
			<stop  offset="0.9672" style="stop-color:#06509E"/>
		</linearGradient>
		<path style="fill:url(#SVGID_00000008827246491859841840000004802716536703556262_);" d="M659.11,664.05l-2.92,12.35
			c-0.52,2.1-1.55,3.56-3.09,4.38c-1.53,0.83-3.54,1.24-6.01,1.24h-15.61l-2.47,10.67h18.64l-2.14,9.43
			c-0.37,1.65-1.36,2.98-2.98,3.99c-1.61,1.01-3.42,1.51-5.44,1.51h-6.85c-3.07,0-5.02,1.69-5.84,5.06l-2.58,10.89h18.19
			c1.12,0,2.3-0.28,3.53-0.84c1.24-0.56,1.97-1.26,2.19-2.08h2.58l-4.04,17.07c-0.37,1.5-1.22,2.51-2.53,3.03
			c-1.31,0.52-2.98,0.79-5,0.79h-46.04c-1.28,0-2.23-0.35-2.87-1.07c-0.64-0.71-0.95-1.67-0.95-2.86c0-0.45,0.08-1.05,0.23-1.8
			l15.27-65.7c0.15-0.83-0.15-1.61-0.9-2.36c-0.75-0.75-1.57-1.12-2.47-1.12l0.68-2.58H659.11z"/>
		
			<linearGradient id="SVGID_00000042733509441584984300000004775585470664307890_" gradientUnits="userSpaceOnUse" x1="690.4217" y1="558.1277" x2="690.4217" y2="647.4028">
			<stop  offset="0" style="stop-color:#3E76BB"/>
			<stop  offset="0.9672" style="stop-color:#06509E"/>
		</linearGradient>
		<path style="fill:url(#SVGID_00000042733509441584984300000004775585470664307890_);" d="M711.42,664.05
			c6.89,0,12.09,1.38,15.61,4.15c3.52,2.77,5.28,7.15,5.28,13.14c0,1.65-0.08,3.15-0.22,4.49c-0.16,1.34-0.49,3.03-1.01,5.06
			c-2.4,10.33-5.1,17.16-8.09,20.49c-2.99,3.33-7.9,5-14.71,5h-23.13l-4.16,17.63l-0.34,2.13c0,0.83,0.34,1.5,1.01,2.02
			c0.68,0.52,1.46,0.79,2.36,0.79l-0.67,2.58h-31.01c-1.27,0-2.22-0.35-2.86-1.07c-0.64-0.71-0.96-1.67-0.96-2.86
			c0-0.45,0.08-1.05,0.22-1.8l15.28-65.7c0.14-0.83-0.15-1.61-0.91-2.36c-0.75-0.75-1.57-1.12-2.47-1.12l0.67-2.58H711.42z
			 M689.41,698.41h3.48c1.87,0,3.26-0.58,4.15-1.74c0.91-1.16,1.72-3.39,2.48-6.68c0.45-1.95,0.67-3.48,0.67-4.61
			c0-1.5-0.31-2.52-0.96-3.08c-0.63-0.56-1.59-0.85-2.86-0.85h-3.03L689.41,698.41z"/>
		
			<linearGradient id="SVGID_00000170254179013512048550000018354772506177050259_" gradientUnits="userSpaceOnUse" x1="767.5458" y1="558.1277" x2="767.5458" y2="647.4028">
			<stop  offset="0" style="stop-color:#3E76BB"/>
			<stop  offset="0.9672" style="stop-color:#06509E"/>
		</linearGradient>
		<path style="fill:url(#SVGID_00000170254179013512048550000018354772506177050259_);" d="M762.5,707.4l-6.41,27.63l-0.11,0.9
			c0,0.82,0.37,1.53,1.13,2.13c0.75,0.6,1.53,0.9,2.35,0.9l-0.56,2.58h-31.33c-2.48,0-3.71-1.2-3.71-3.59
			c0-0.37,0.08-1.01,0.22-1.91l15.39-65.92c0.16-0.75-0.18-1.52-1.01-2.31c-0.82-0.78-1.64-1.17-2.47-1.17l0.79-2.58h31.22
			c2.4,0,3.59,1.19,3.59,3.59c0,0.3-0.07,0.9-0.22,1.8l-5.39,23.02h7.97l5.17-22.34c0.14-0.75-0.15-1.52-0.91-2.31
			c-0.75-0.78-1.53-1.17-2.35-1.17l0.56-2.58h31.23c1.27,0,2.19,0.32,2.75,0.95c0.56,0.63,0.85,1.55,0.85,2.75l-0.22,1.69
			l-15.28,66.03c-0.14,0.75,0.19,1.51,1.01,2.3c0.83,0.79,1.65,1.18,2.47,1.18l-0.78,2.58H767.2c-2.39,0-3.59-1.2-3.59-3.59
			c0-0.3,0.08-0.9,0.22-1.8l6.63-28.75H762.5z"/>
	</g>
</g>
</svg>
