<?xml version="1.0" encoding="utf-8"?>
<!-- Generator: Adobe Illustrator 26.5.0, SVG Export Plug-In . SVG Version: 6.00 Build 0)  -->
<svg version="1.1" id="Layer_1" xmlns="http://www.w3.org/2000/svg" xmlns:xlink="http://www.w3.org/1999/xlink" x="0px" y="0px"
	 viewBox="0 0 1080 1080" style="enable-background:new 0 0 1080 1080;" xml:space="preserve">
<style type="text/css">
	.st0{fill-rule:evenodd;clip-rule:evenodd;}
	.st1{fill:#ED1C24;}
	.st2{fill:#E1251B;}
	.st3{fill-rule:evenodd;clip-rule:evenodd;fill:#16397B;}
	.st4{fill:#EE2745;}
	
		.st5{clip-path:url(#SVGID_00000064327051066163175420000002057530769308593056_);fill:url(#SVGID_00000057142909684933486050000008598608082987572889_);}
	
		.st6{clip-path:url(#SVGID_00000057118030953661111020000012417926645347861122_);fill:url(#SVGID_00000027563950403826010390000001722356177848971944_);}
	
		.st7{clip-path:url(#SVGID_00000011736421790119588750000006257412561691265700_);fill:url(#SVGID_00000023279649334479023200000005430821402464089275_);}
	
		.st8{clip-path:url(#SVGID_00000160152456769620640610000018374394075231373448_);fill:url(#SVGID_00000078034950964346078690000006984874323601384359_);}
	.st9{fill:#424243;}
	
		.st10{clip-path:url(#SVGID_00000002386537543885527700000009949077812620811169_);fill:url(#SVGID_00000096737903210740896110000008553146560243478190_);}
	.st11{fill:#FFFFFF;}
	
		.st12{clip-path:url(#SVGID_00000156588234931633940610000001859711824931585703_);fill:url(#SVGID_00000134216664610736666770000013666947351732518070_);}
	
		.st13{clip-path:url(#SVGID_00000138536571951601488050000017049587663219029152_);fill:url(#SVGID_00000179628227670319158250000017219608990067719069_);}
	
		.st14{clip-path:url(#SVGID_00000062884930523447470540000010098277026911068311_);fill:url(#SVGID_00000147218255582677358630000014328454329333294757_);}
	
		.st15{clip-path:url(#SVGID_00000057853098120390146130000014642819950467646605_);fill:url(#SVGID_00000063597615278741226720000003712298592034378658_);}
	
		.st16{clip-path:url(#SVGID_00000027593419492320174970000008551569309397074851_);fill:url(#SVGID_00000164476839442368882130000014422370861147687302_);}
	
		.st17{clip-path:url(#SVGID_00000005266312431122452900000015122494296925679015_);fill:url(#SVGID_00000170243587766248934800000015420620957981572487_);}
	
		.st18{clip-path:url(#SVGID_00000114772233483777372030000005600567976562718892_);fill:url(#SVGID_00000108291527202774168540000007500815514435901086_);}
	.st19{fill-rule:evenodd;clip-rule:evenodd;fill:#C8202F;}
	.st20{fill-rule:evenodd;clip-rule:evenodd;fill:#FFFFFF;}
	.st21{fill-rule:evenodd;clip-rule:evenodd;fill:#F98238;}
	.st22{filter:url(#Adobe_OpacityMaskFilter);}
	.st23{fill:url(#SVGID_00000092428145438864269700000010779422808562215344_);}
	.st24{mask:url(#SVGID_00000173858895157152034780000010375601451954474152_);fill-rule:evenodd;clip-rule:evenodd;fill:#ED1C24;}
	.st25{fill-rule:evenodd;clip-rule:evenodd;fill:#F5333F;}
	.st26{fill-rule:evenodd;clip-rule:evenodd;fill:#ED1C24;}
	.st27{fill-rule:evenodd;clip-rule:evenodd;fill:#F9A46E;}
	.st28{fill-rule:evenodd;clip-rule:evenodd;fill:#F47B26;}
	.st29{fill-rule:evenodd;clip-rule:evenodd;fill:#EB5433;}
	.st30{fill:#1A3282;}
	.st31{fill-rule:evenodd;clip-rule:evenodd;fill:#1A3282;}
	.st32{fill-rule:evenodd;clip-rule:evenodd;fill:#9D9FA2;}
	.st33{fill-rule:evenodd;clip-rule:evenodd;fill:#000303;}
	.st34{fill:#64003D;}
	.st35{fill:#536270;}
	.st36{fill-rule:evenodd;clip-rule:evenodd;fill:#64003D;}
	.st37{fill-rule:evenodd;clip-rule:evenodd;fill:#536270;}
	.st38{fill-rule:evenodd;clip-rule:evenodd;fill:#1A3382;}
	.st39{fill-rule:evenodd;clip-rule:evenodd;fill:#29387E;}
	.st40{fill-rule:evenodd;clip-rule:evenodd;fill:#F37021;}
	.st41{fill-rule:evenodd;clip-rule:evenodd;fill:#005C32;}
	.st42{fill-rule:evenodd;clip-rule:evenodd;fill:#D2AB67;}
	
		.st43{clip-path:url(#SVGID_00000116930072983865476210000001695537616949084547_);fill:url(#SVGID_00000093176959405035962930000010716871418277991821_);}
	
		.st44{clip-path:url(#SVGID_00000129183627084064050330000015078035258656422332_);fill:url(#SVGID_00000044178469458650355510000016633647802043386524_);}
	
		.st45{clip-path:url(#SVGID_00000029754232590155063820000012459227368423769776_);fill:url(#SVGID_00000052826403085629510080000007242686709807693717_);}
	.st46{fill-rule:evenodd;clip-rule:evenodd;fill:#00AEEF;}
	.st47{fill-rule:evenodd;clip-rule:evenodd;fill:#EC008C;}
	.st48{fill-rule:evenodd;clip-rule:evenodd;fill:#FFF200;}
	.st49{fill:#A7AAAC;}
	.st50{fill-rule:evenodd;clip-rule:evenodd;fill:#5C5B5B;}
	.st51{fill:#9D9D9F;}
	.st52{fill:#F04D23;}
	.st53{fill-rule:evenodd;clip-rule:evenodd;fill:#2E3192;}
	.st54{fill-rule:evenodd;clip-rule:evenodd;fill:#C4312D;}
	.st55{fill:#552715;}
	.st56{fill:#010101;}
	.st57{fill:#E31E2E;}
	.st58{fill:url(#SVGID_00000111874052786428490830000000263968654967048840_);}
	.st59{fill:url(#SVGID_00000012464565929778434290000004646866397843140770_);}
	.st60{clip-path:url(#SVGID_00000058548489279327566260000003845671706855898299_);}
	.st61{clip-path:url(#SVGID_00000031885902486073672830000016361042265875051185_);}
	.st62{clip-path:url(#SVGID_00000070824812431402948680000013153906555271616905_);}
	.st63{clip-path:url(#SVGID_00000081609427551127237580000011520015636985249947_);}
	.st64{clip-path:url(#SVGID_00000002369185036402696660000001275590001083017353_);}
	.st65{clip-path:url(#SVGID_00000178195291659705658020000015897853845051127441_);}
	.st66{clip-path:url(#SVGID_00000099653063915633104530000013745707207442392732_);}
	.st67{clip-path:url(#SVGID_00000058582906278337406640000010883701678715943563_);}
	.st68{clip-path:url(#SVGID_00000136412964538228066790000009196387156537973904_);}
	.st69{clip-path:url(#SVGID_00000157987798357299354030000015813893202676213398_);}
	.st70{clip-path:url(#SVGID_00000032621012332093630830000000508430537519880350_);}
	.st71{fill:#2650A1;}
	.st72{fill:url(#SVGID_00000045595177784301633620000000109878316452191657_);}
	.st73{fill:#FEFEFE;}
	.st74{fill:#FDFDFD;}
	.st75{fill:#FCFCFC;}
	.st76{fill:#FBFBFB;}
	.st77{fill:#FAFAFA;}
	.st78{fill:#F9F9F9;}
	.st79{fill:#F8F8F8;}
	.st80{fill:#F7F7F7;}
	.st81{fill:#F6F6F6;}
	.st82{fill:#F5F5F5;}
	.st83{fill:#F4F4F4;}
	.st84{fill:#F3F3F3;}
	.st85{fill:#F2F2F2;}
	.st86{fill:#F1F1F1;}
	.st87{fill:#F0F0F0;}
	.st88{fill:#EFEFEF;}
	.st89{fill:#EEEEEE;}
	.st90{fill:#EDEDED;}
	.st91{fill:#ECECEC;}
	.st92{fill:#EBEBEB;}
	.st93{fill:#EAEAEA;}
	.st94{fill:#E9E9E9;}
	.st95{fill:#E8E8E8;}
	.st96{fill:#E7E7E7;}
	.st97{fill:#E6E6E6;}
	.st98{fill:#E5E5E5;}
	.st99{fill:#E4E4E4;}
	.st100{fill:#E3E3E3;}
	.st101{fill:#E2E2E2;}
	.st102{fill:#E1E1E1;}
	.st103{fill:#E0E0E0;}
	.st104{fill:#DFDFDF;}
	.st105{fill:#DEDEDE;}
	.st106{fill:#DDDDDD;}
	.st107{fill:#DCDCDC;}
	.st108{fill:#DBDBDB;}
	.st109{fill:#DADADA;}
	.st110{fill:#D9D9D9;}
	.st111{fill:#D92231;}
	.st112{fill:url(#SVGID_00000123424996855844401200000002304805812412102031_);}
	.st113{fill:url(#SVGID_00000157295033353670831140000006432559526122846123_);}
	.st114{opacity:0.8;}
	.st115{fill:url(#SVGID_00000019670149497007533770000003467354636568711057_);}
	.st116{fill:url(#SVGID_00000139290967972529556050000017874901151649365170_);}
	.st117{fill-rule:evenodd;clip-rule:evenodd;fill:#010101;}
	.st118{fill:#80A845;}
	.st119{fill-rule:evenodd;clip-rule:evenodd;fill:#80A845;}
	.st120{fill:url(#SVGID_00000016764528309114347880000001270360732768714120_);}
	.st121{fill-rule:evenodd;clip-rule:evenodd;fill:#04984A;}
	.st122{fill-rule:evenodd;clip-rule:evenodd;fill:url(#SVGID_00000180361255391041852010000004785858147158834583_);}
	.st123{fill:url(#SVGID_00000145774583030712267940000002762312319545166739_);}
	.st124{fill:url(#SVGID_00000019640519932001421920000007068862741411070347_);}
	.st125{fill:url(#SVGID_00000090259466938081699490000004815153813919926667_);}
	.st126{fill:url(#SVGID_00000026871744399719430410000012436139878567672451_);}
	.st127{fill:url(#SVGID_00000005962220540258366160000015180258243854255019_);}
	.st128{fill:url(#SVGID_00000057150207394336965410000008996712335006125455_);}
	.st129{fill:url(#SVGID_00000076602296437648659880000016069756150581194896_);}
	.st130{fill:url(#SVGID_00000000203997197797718390000011755721910228672925_);}
	.st131{fill:url(#SVGID_00000042731099029511778960000018222770101023822481_);}
	.st132{fill:url(#SVGID_00000008114401848485226250000015279427511570528434_);}
	.st133{fill:url(#SVGID_00000138561473368484007320000018094965336885333386_);}
	.st134{fill:url(#SVGID_00000144322479898805001050000002754778332057032615_);}
	.st135{fill:url(#SVGID_00000065777126661662423820000000521153622914153132_);}
	.st136{fill:url(#SVGID_00000045603055912898177770000016492899864241212580_);}
	.st137{fill-rule:evenodd;clip-rule:evenodd;fill:url(#SVGID_00000171691067460350943270000012946361663485959318_);}
	.st138{fill:#0A529D;}
	.st139{fill:url(#SVGID_00000007399090597847470860000014882116877216919976_);}
	.st140{fill:url(#SVGID_00000130633746404656953900000006446771522384816829_);}
	.st141{fill:url(#SVGID_00000182520537383016649090000005148978868922230675_);}
	.st142{fill:url(#SVGID_00000062878763588760059440000007972017877823123596_);}
	.st143{fill:url(#SVGID_00000078757728663409605120000005457714821574036387_);}
	.st144{fill:url(#SVGID_00000002362125045698599830000001925021055348794254_);}
	.st145{fill:url(#SVGID_00000017480145760577349170000008417784481793574842_);}
	.st146{fill:url(#SVGID_00000048499580977571976200000004267007335044970918_);}
	.st147{fill:url(#SVGID_00000060727090442571512190000004494470479146896780_);}
	.st148{fill:url(#SVGID_00000096773144146467554090000011372527147092501177_);}
	.st149{fill:url(#SVGID_00000104665047933386961580000005657334126349766841_);}
	.st150{fill:url(#SVGID_00000039093285236319828160000005691951112159988666_);}
	.st151{fill-rule:evenodd;clip-rule:evenodd;fill:url(#SVGID_00000121969425011872082530000008849180368315897023_);}
	.st152{fill:url(#SVGID_00000007418285333375562500000014974064324010997155_);}
	.st153{fill:url(#SVGID_00000065771665193552028410000003260270329011365252_);}
	.st154{fill:url(#SVGID_00000173130180437772252560000007275736137370557072_);}
	.st155{fill:url(#SVGID_00000083778297885438266250000001334901956224283818_);}
	.st156{fill:url(#SVGID_00000097481755868825165930000002401290069656075139_);}
	.st157{fill:url(#SVGID_00000123420835681492364350000015611537028295498115_);}
	.st158{fill:url(#SVGID_00000035523764544583735310000001802159853003939230_);}
	.st159{fill:url(#SVGID_00000129194815875068014750000014745984503679640467_);}
	.st160{fill:url(#SVGID_00000008845170513148459100000001771931873764489603_);}
	.st161{fill:url(#SVGID_00000160870313892966977640000003981756037450336406_);}
	.st162{fill:url(#SVGID_00000028284389775135133620000000436163882885054382_);}
	.st163{fill:url(#SVGID_00000016058725229716124440000015841326171006061466_);}
	.st164{fill:url(#SVGID_00000059994998916108513160000004516156864616326570_);}
	.st165{fill:url(#SVGID_00000006690350798395109130000016284202137539526581_);}
	.st166{fill:url(#SVGID_00000137844614757707450920000007407740025272519307_);}
	.st167{fill:url(#SVGID_00000139972261941692244950000009984538324643890832_);}
	.st168{fill:url(#SVGID_00000181073304832301959770000003725225360070700942_);}
	.st169{fill-rule:evenodd;clip-rule:evenodd;fill:url(#SVGID_00000116914005005956204980000018018092029279336599_);}
	.st170{fill:url(#SVGID_00000067234450187315277910000006757686809674015678_);}
	.st171{fill:url(#SVGID_00000165945181855982712410000011975724161745848718_);}
	.st172{fill:url(#SVGID_00000157287800642712391010000009392491915150292917_);}
	.st173{fill:url(#SVGID_00000003068672300082421660000008842436015663786404_);}
	.st174{fill:url(#SVGID_00000060746285043138564870000000326688033278308517_);}
	.st175{fill:url(#SVGID_00000062896649071878870630000013731263933020155287_);}
	.st176{fill:url(#SVGID_00000002365910430073313410000004733091332881553062_);}
	.st177{fill:url(#SVGID_00000149371307357452242220000002556287435655310470_);}
	.st178{fill:url(#SVGID_00000130607967769735500540000018069841505599128723_);}
	.st179{fill:url(#SVGID_00000178204200157102342760000001796735208515604664_);}
	.st180{fill:url(#SVGID_00000025441462541460292160000006479947767156350363_);}
	.st181{fill:url(#SVGID_00000155837716310647862110000015714117697326335413_);}
	.st182{fill:url(#SVGID_00000140720141392116519080000016951393303506356367_);}
	.st183{fill:url(#SVGID_00000054945385518919040490000002657425152234099849_);}
	.st184{fill-rule:evenodd;clip-rule:evenodd;fill:url(#SVGID_00000100377163671527018900000014142241155498013835_);}
	.st185{fill:url(#SVGID_00000135684392582613347740000009846506922238408090_);}
	.st186{fill:url(#SVGID_00000155855798347760715810000002966032180112548525_);}
	.st187{fill:url(#SVGID_00000129168771932214432390000004719837727117023393_);}
	.st188{fill:url(#SVGID_00000169552551337391286040000011435409680197470855_);}
	.st189{fill:url(#SVGID_00000147196719152435658900000004903031395027466425_);}
	.st190{fill:url(#SVGID_00000042015342869978320530000017670989302341958832_);}
	.st191{fill:url(#SVGID_00000085934198802267024320000004097613319095679930_);}
	.st192{fill:url(#SVGID_00000075873936175728891630000012009019295724840328_);}
	.st193{fill:url(#SVGID_00000181084760091552761280000014968572028790816673_);}
	.st194{fill:url(#SVGID_00000051367426938111478000000004044801554156665502_);}
	.st195{fill:url(#SVGID_00000122717264218888288750000012878418477727174308_);}
	.st196{fill:url(#SVGID_00000051378213171249953820000010991794223874306208_);}
	.st197{fill:url(#SVGID_00000031186186885924121760000006395601172075456387_);}
	.st198{fill:url(#SVGID_00000004503765125917649590000013609163839871653547_);}
	.st199{fill:url(#SVGID_00000152234568621713961990000002665825873346321554_);}
	.st200{fill:url(#SVGID_00000005234455088877656640000018236278741508981899_);}
	.st201{fill:url(#SVGID_00000105415489042322265750000016462238261429431726_);}
	.st202{fill:url(#SVGID_00000162334368039251794570000017791372703259605379_);}
	.st203{fill:url(#SVGID_00000010272938968482681720000005533558185732837310_);}
	.st204{fill-rule:evenodd;clip-rule:evenodd;fill:url(#SVGID_00000106865661312340843220000013832501266200296358_);}
	.st205{fill:url(#SVGID_00000057866222012354357800000002279169300894893697_);}
	.st206{fill:url(#SVGID_00000104671614346340387020000016100336732379943319_);}
	.st207{fill:url(#SVGID_00000074420379527378907530000009779607249214066111_);}
	.st208{fill:url(#SVGID_00000009564192623686745720000004054524471101116860_);}
	.st209{fill:url(#SVGID_00000021801737536893445890000004623799690820043682_);}
	.st210{fill:url(#SVGID_00000100349111668764637250000009778374123176457387_);}
	.st211{fill:url(#SVGID_00000000924633455427195890000013153813901679757717_);}
	.st212{fill:url(#SVGID_00000165949112599627122460000007370666267695439794_);}
	.st213{fill:url(#SVGID_00000020376102816344460410000015065974374406903201_);}
	.st214{fill:url(#SVGID_00000175302123690995276190000003418327807097261964_);}
	.st215{fill:url(#SVGID_00000129912753483708333770000000731544150709112979_);}
	.st216{fill:url(#SVGID_00000051381333570568890930000006850290646342080167_);}
	.st217{fill:url(#SVGID_00000101782051946823068800000007564240732540178090_);}
	.st218{fill:url(#SVGID_00000089566244823144831020000011355569511968922770_);}
	.st219{fill:url(#SVGID_00000010308768509460032300000010854907234162033310_);}
	.st220{fill:url(#SVGID_00000004525429421983810070000010042627402948062399_);}
	.st221{fill-rule:evenodd;clip-rule:evenodd;fill:url(#SVGID_00000078736799149424186960000000592796186543329700_);}
	.st222{fill:url(#SVGID_00000103964095781212775850000008271659507700824983_);}
	.st223{fill:url(#SVGID_00000013909839014321097740000011705461120454546111_);}
	.st224{fill:url(#SVGID_00000062886841046518661140000006087979542350016409_);}
	.st225{fill:url(#SVGID_00000050650499116298183160000018388011307938152332_);}
	.st226{fill:url(#SVGID_00000178902958184935755450000016578210956391272622_);}
	.st227{fill:url(#SVGID_00000109715755134130294280000006582566833717290409_);}
	.st228{fill:url(#SVGID_00000053526191210174766820000016578635594477698747_);}
	.st229{fill:url(#SVGID_00000170995550646345232360000005862695985543438512_);}
	.st230{fill:url(#SVGID_00000158002545958997935010000006329237840393497753_);}
	.st231{fill:url(#SVGID_00000139279052133906479800000010948556825956409984_);}
	.st232{fill:url(#SVGID_00000008867235735752412830000004875369400830121865_);}
	.st233{fill:url(#SVGID_00000147220676509549499510000012834834385322719917_);}
	.st234{fill:url(#SVGID_00000048489167979196439100000009129730292010638491_);}
	.st235{fill:url(#SVGID_00000008151112803498556590000007162996609653833900_);}
	.st236{fill:url(#SVGID_00000054253171410080012950000001612393897183122818_);}
	.st237{fill-rule:evenodd;clip-rule:evenodd;fill:url(#SVGID_00000020387206270755695230000016332709325479089339_);}
	.st238{fill:url(#SVGID_00000070801397825527805380000003874321220272906391_);}
	.st239{fill:url(#SVGID_00000141439220104411510380000012093099631005033348_);}
	.st240{fill:url(#SVGID_00000103985131736580911980000004217244210777333926_);}
	.st241{fill:url(#SVGID_00000132795363283513595800000013186507562887248555_);}
	.st242{fill:url(#SVGID_00000171690063420027230520000002404842507602537631_);}
	.st243{fill:url(#SVGID_00000053535816282307908380000010741659887847151744_);}
	.st244{fill:url(#SVGID_00000123433481356975792630000004096425406344315069_);}
	.st245{fill:url(#SVGID_00000057847209128790274650000005634011610420201661_);}
	.st246{fill:url(#SVGID_00000039110730620072820070000008027544458957499014_);}
	.st247{fill:url(#SVGID_00000070823874849131245220000017080755602325028018_);}
	.st248{fill:url(#SVGID_00000028296471300960538400000004575169082518591164_);}
	.st249{fill:url(#SVGID_00000132086933079897908840000018253531902359593107_);}
	.st250{fill:url(#SVGID_00000147183815359859129490000002531590452726489525_);}
	.st251{fill:url(#SVGID_00000136408815081440585960000013425084180787830166_);}
	.st252{fill:url(#SVGID_00000166660329027911151620000004015207400745192352_);}
	.st253{fill-rule:evenodd;clip-rule:evenodd;fill:url(#SVGID_00000129896735838990531480000016851487366481259418_);}
	.st254{fill:url(#SVGID_00000089571852685916065800000015608801510020303748_);}
	.st255{fill:url(#SVGID_00000012461152980318690980000006410713802885110435_);}
	.st256{fill:url(#SVGID_00000060018123251340876200000003181471486596836773_);}
	.st257{fill:url(#SVGID_00000176045310462876308580000004070183353427349903_);}
	.st258{fill:url(#SVGID_00000088124712817642631410000003055967304264057512_);}
	.st259{fill:url(#SVGID_00000046300562904358259770000014449034214780312724_);}
	.st260{fill:url(#SVGID_00000136371640351550638910000000468954059783068067_);}
	.st261{fill:url(#SVGID_00000036210348799463157240000013759549466922167204_);}
	.st262{fill:url(#SVGID_00000024704813863674879340000002711615132433008512_);}
	.st263{fill:url(#SVGID_00000021823829412738722150000017357340217851953332_);}
	.st264{fill:url(#SVGID_00000000904602498995399600000012249905999145393806_);}
	.st265{fill:url(#SVGID_00000104703918594015280310000009913929237740405915_);}
	.st266{fill:url(#SVGID_00000160875890192565816890000016308256469218637204_);}
	.st267{fill:url(#SVGID_00000036942211958117263560000000177807873449978536_);}
	.st268{fill:url(#SVGID_00000111902588997838445510000016948991666864419725_);}
	.st269{fill-rule:evenodd;clip-rule:evenodd;fill:url(#SVGID_00000109013281213053869800000016412048237166974880_);}
	.st270{fill:url(#SVGID_00000104677975327237691450000004096868131627373204_);}
	.st271{fill:url(#SVGID_00000037676122937049628940000008400182934183637650_);}
	.st272{fill:url(#SVGID_00000104683906621816384470000013322691718302318241_);}
	.st273{fill:url(#SVGID_00000179624054378445117210000017739567745365107104_);}
	.st274{fill:url(#SVGID_00000181071885230775477960000002077561421058988460_);}
	.st275{fill:url(#SVGID_00000127025811985693259570000017874127230852990397_);}
	.st276{fill:url(#SVGID_00000122709523816136472220000012596739135354489253_);}
	.st277{fill:url(#SVGID_00000083059365433977521570000010120983656411898014_);}
	.st278{fill:url(#SVGID_00000129900173794628757640000013870262908478470052_);}
	.st279{fill:url(#SVGID_00000040564067182375494250000005920891063279248808_);}
	.st280{fill:url(#SVGID_00000058583896793721092170000014265650323187118212_);}
	.st281{fill:url(#SVGID_00000116217628232005457880000001484083373708994750_);}
	.st282{fill:url(#SVGID_00000130629362969216560130000010292613356677274007_);}
	.st283{fill:url(#SVGID_00000111159877000750221070000003394635050766801028_);}
	.st284{fill:url(#SVGID_00000005969586754125891920000013142133998156127381_);}
	.st285{fill-rule:evenodd;clip-rule:evenodd;fill:url(#SVGID_00000046326580915014369650000001319055636975483779_);}
	.st286{fill:url(#SVGID_00000103227879134942274350000012053183888528997535_);}
	.st287{fill:url(#SVGID_00000178896523321406095430000003146477867007289783_);}
	.st288{fill:url(#SVGID_00000165195140852742768210000015818780183961787799_);}
	.st289{fill:url(#SVGID_00000029729459200226494410000004785373718018445225_);}
	.st290{fill:url(#SVGID_00000144314916333252288460000014087406998367363463_);}
	.st291{fill:url(#SVGID_00000023245001971974715490000002014743888767349918_);}
	.st292{fill:url(#SVGID_00000106140971819659867910000014704679987139606459_);}
	.st293{fill:url(#SVGID_00000160161723239423486390000005032964160569058983_);}
	.st294{fill:url(#SVGID_00000034772035961986881770000010725080941768538546_);}
	.st295{fill:url(#SVGID_00000031185445837523179080000001033647010364205447_);}
	.st296{fill:url(#SVGID_00000047774647070512514570000000666269327045999039_);}
	.st297{fill:url(#SVGID_00000026124048005008484480000018075940650467145372_);}
	.st298{fill:url(#SVGID_00000023993548079268002570000010697911365185708472_);}
	.st299{fill:url(#SVGID_00000029762574680471249250000001681381267764124577_);}
	.st300{fill:url(#SVGID_00000110469711183776444050000014160370431494814093_);}
	.st301{fill:url(#SVGID_00000114788238111835722280000011535363177373773745_);}
	.st302{fill:url(#SVGID_00000070091339262043666110000006717381806192352137_);}
	.st303{fill:url(#SVGID_00000124160523608765226240000018349601171038851209_);}
	.st304{fill-rule:evenodd;clip-rule:evenodd;fill:url(#SVGID_00000050642293665571959170000014094033789676678060_);}
	.st305{fill:url(#SVGID_00000041270091503871385950000017247400540607268994_);}
	.st306{fill:url(#SVGID_00000154416379145814422730000012584465367525445773_);}
	.st307{fill:url(#SVGID_00000021112382422799861980000002143455138630023091_);}
	.st308{fill:url(#SVGID_00000039829414590401047990000014936948155743883946_);}
	.st309{fill:url(#SVGID_00000109032133072034039710000013625490713217110179_);}
	.st310{fill:url(#SVGID_00000094599554083745224210000003230526714117835170_);}
	.st311{fill:url(#SVGID_00000074424281701355385760000017282039835103145865_);}
	.st312{fill:url(#SVGID_00000165196533689640614080000002785459922440653195_);}
	.st313{fill:url(#SVGID_00000019642147521310723960000000626091470620346280_);}
	.st314{fill:url(#SVGID_00000036222790591307614650000007214099676217847171_);}
	.st315{fill:url(#SVGID_00000021816300460549124150000012354170577562673290_);}
	.st316{fill:url(#SVGID_00000001651866711405830520000000420616483978839735_);}
	.st317{fill:url(#SVGID_00000137098399263249402610000006290900145663199630_);}
	.st318{fill:url(#SVGID_00000176014746691038708830000010253080915954287536_);}
	.st319{fill:url(#SVGID_00000136408167144867811980000018266514869143421104_);}
	.st320{fill:url(#SVGID_00000119117359852047100550000015742232075535414929_);}
	.st321{fill:url(#SVGID_00000029047835659487135800000002530469112691305358_);}
	.st322{fill:url(#SVGID_00000071555073902614396680000010870221295071265159_);}
	.st323{fill:url(#SVGID_00000091013892387097803640000016682252504954495389_);}
	.st324{fill:url(#SVGID_00000155867348671594143930000011109214075602212758_);}
	.st325{fill-rule:evenodd;clip-rule:evenodd;fill:url(#SVGID_00000067938731121574645260000005643859125051397304_);}
	.st326{fill:url(#SVGID_00000093168504650995585800000001460637906434537887_);}
	.st327{fill:url(#SVGID_00000053537152243024122010000002422756573078760108_);}
	.st328{fill:url(#SVGID_00000133520442483269906150000012584422747919512490_);}
	.st329{fill:url(#SVGID_00000110455878206814696200000012093820479909406360_);}
	.st330{fill:url(#SVGID_00000060722166430811462240000003242424905953108874_);}
	.st331{fill:url(#SVGID_00000104687744751432598460000003604491938290495115_);}
	.st332{fill:url(#SVGID_00000104676935511365397730000017679955469886200704_);}
	.st333{fill:url(#SVGID_00000169559825315676352790000011928460375013781391_);}
	.st334{fill:url(#SVGID_00000058578086765250318810000005423275506038251446_);}
	.st335{fill:url(#SVGID_00000010992907309685726650000008793630855958007971_);}
	.st336{fill:url(#SVGID_00000145753904351024844020000002010180291840081076_);}
	.st337{fill:url(#SVGID_00000111179663087753458100000002278230481931014812_);}
	.st338{fill:url(#SVGID_00000114049015818629027130000003123072012890943875_);}
	.st339{fill:url(#SVGID_00000128470071542281891930000015766340051705506227_);}
	.st340{fill:url(#SVGID_00000075131979287018996710000005525243295419551657_);}
	.st341{fill:url(#SVGID_00000116216026097068276190000013612779733025394622_);}
	.st342{fill-rule:evenodd;clip-rule:evenodd;fill:url(#SVGID_00000101075564173334263430000009124226654897136309_);}
	.st343{fill:url(#SVGID_00000166671023816587788280000014950994111146494892_);}
	.st344{fill:url(#SVGID_00000179645484981130404170000003163397552566353316_);}
	.st345{fill:url(#SVGID_00000137106627482172888560000008804948163360529814_);}
	.st346{fill:url(#SVGID_00000157307608926517177490000005778746334143569284_);}
	.st347{fill:url(#SVGID_00000020359033713809426670000015454623150012816821_);}
	.st348{fill:url(#SVGID_00000016064432303614019730000002364211274631736759_);}
	.st349{fill:url(#SVGID_00000080915505102040886910000004248179461974276011_);}
	.st350{fill:url(#SVGID_00000096017754746507870530000004884131021948491186_);}
	.st351{fill:url(#SVGID_00000005225578014400568870000016068160390065870482_);}
	.st352{fill:url(#SVGID_00000016076571933708508980000000111179190769337482_);}
	.st353{fill:url(#SVGID_00000137107027905382474840000007381913119915382460_);}
	.st354{fill:url(#SVGID_00000068644597631928489230000000242768004249914769_);}
	.st355{fill:url(#SVGID_00000178922038194549187000000002556371267136737978_);}
	.st356{fill:url(#SVGID_00000157993965045059869000000003110762086935373243_);}
	.st357{fill:url(#SVGID_00000177453538328129275080000017257944330729691549_);}
	.st358{fill:url(#SVGID_00000021110141153903491490000008767042652804119719_);}
	.st359{fill:url(#SVGID_00000064328263537188958500000014833679228568986018_);}
	.st360{fill:url(#SVGID_00000019643334166139986440000017489328367822333591_);}
	.st361{fill:url(#SVGID_00000132050017675171589560000012190844725728662145_);}
	.st362{fill:url(#SVGID_00000030446288450011223760000010572194046530260142_);}
	.st363{fill:#C1282D;}
	.st364{fill-rule:evenodd;clip-rule:evenodd;fill:url(#SVGID_00000057113246678489875940000008167631355994929839_);}
	.st365{fill:url(#SVGID_00000066487741423201074490000002319655195861123260_);}
	.st366{fill:url(#SVGID_00000055669006179453839520000012075772709786075305_);}
	.st367{fill:url(#SVGID_00000050627353639057610600000015972018274406476178_);}
	.st368{fill:url(#SVGID_00000067232058093246048290000015157828442330864258_);}
	.st369{fill:url(#SVGID_00000081621367250488439550000017206846743420507270_);}
	.st370{fill:url(#SVGID_00000093136738763932272040000006977537910262814881_);}
	.st371{fill:url(#SVGID_00000115497743328661769300000017881571143356259490_);}
	.st372{fill:url(#SVGID_00000103974595607858365580000008835073030632867973_);}
	.st373{fill:url(#SVGID_00000149378124584317826360000003019253475653935773_);}
	.st374{fill:url(#SVGID_00000170956813340757989730000003529314041655645337_);}
	.st375{fill:url(#SVGID_00000032643533201419470530000014964453136151161789_);}
	.st376{fill:url(#SVGID_00000101812968657618186780000017403676520363748259_);}
	.st377{fill:url(#SVGID_00000172434190088119100690000008185649075748482181_);}
	.st378{fill:url(#SVGID_00000090291881542638402250000003997607883743589525_);}
	.st379{fill:url(#SVGID_00000002351168916517046510000015528677089966590624_);}
	.st380{fill:url(#SVGID_00000112595580917322266910000012897646059482643348_);}
	.st381{fill-rule:evenodd;clip-rule:evenodd;fill:url(#SVGID_00000016036744042324572380000000627826365487345331_);}
	.st382{fill:url(#SVGID_00000061448243301374557030000001198321169404942474_);}
	.st383{fill:url(#SVGID_00000051384259949628088540000004019378799397239682_);}
	.st384{fill:url(#SVGID_00000121260666466409454710000012937456824736170416_);}
	.st385{fill:url(#SVGID_00000007420375941988065390000008341620468719355064_);}
	.st386{fill:url(#SVGID_00000127004146799306177490000005203380676665112486_);}
	.st387{fill:url(#SVGID_00000065778828135664992700000012734982388593509295_);}
	.st388{fill:url(#SVGID_00000011728963727296066970000000155959031031804340_);}
	.st389{fill:url(#SVGID_00000085962633965556977410000008571827387818052482_);}
	.st390{fill:url(#SVGID_00000144296574426290679330000008367784133359816362_);}
	.st391{fill:url(#SVGID_00000036935176677252121520000018351354012564359046_);}
	.st392{fill:url(#SVGID_00000088101985353268922590000014948351565717819018_);}
	.st393{fill:url(#SVGID_00000155126081040922533100000016931342834874392231_);}
	.st394{fill:url(#SVGID_00000072268883064022046890000012416710799617209271_);}
	.st395{fill:url(#SVGID_00000172442715415636470890000016475096220685079180_);}
	.st396{fill:url(#SVGID_00000127007823860467572890000007449603940781054083_);}
	.st397{fill:url(#SVGID_00000079456701344681827110000010627454671639272873_);}
	.st398{fill:url(#SVGID_00000107558161008396103320000009284471197182307479_);}
	.st399{fill:url(#SVGID_00000024698739002683619120000010806303926426330788_);}
	.st400{fill:url(#SVGID_00000025440671724955963910000002442370253394206386_);}
	.st401{fill:url(#SVGID_00000108294500065589538750000010324558060354840748_);}
</style>
<g>
	<g>
		<path class="st117" d="M144.35,704.08h-43.71v-9.49l13.3-8.23V521.22l-12.67-9.49v-9.49l48.15,9.49c0,0,9.37-0.83,13.3,18.35
			l21.54,140.47h2.53l25.34-139.21c0,0,1.2-8.94,10.77-8.23l47.52,5.7l0.63,8.23l-12.04,6.33l0.63,149.33l13.3,8.86v8.23h-55.75
			v-9.49l11.4-8.23l1.27-146.8h-1.9l-30.41,159.46h-27.24c0,0-7.25,0.87-9.5-15.19l-27.88-158.83h-1.9l2.54,156.93l10.77,7.59
			l0.63,8.23L144.35,704.08z"/>
		<path class="st117" d="M334.41,551.59c0,0-30.48-5.99-45.61,12.65c0,0-8.75,7.13-8.23,29.11v81c0,0,1.19,40.27,53.85,39.86
			c0,0,50.17-1.91,49.42-36.08v-87.95C383.83,590.19,387.03,559.37,334.41,551.59z M357.12,675.83c0,14.86-12.88,22.79-24.92,22.79
			c-12.05,0-24.46-8.92-24.46-20.81c0-11.89,0-100.03,0-100.03c0-3.96,7.12-12.54,20.65-12.54c13.54,0,28.72,12.54,28.72,19.47
			V675.83z"/>
		<path class="st117" d="M397.13,557.92v6.33l9.5,6.96v127.19l-9.5,6.33v6.96h40.55v-6.33l-10.14-6.96v-95.55l-4.44-15.82l1.9-2.21
			l41.18,119.91c0,0,1.79,8.23,11.4,8.23h24.71V576.27l9.5-6.96v-7.59h-39.28v6.33l8.87,7.59l1.9,101.88l-1.27,0.63l-0.63-0.63
			l-34.85-107.57c0,0-1.5-10.03-13.3-10.76L397.13,557.92z"/>
		<path class="st117" d="M637.24,633.22v-3.8c0,0,14.86-0.52,15.21-13.93v-32.9c0,0-2.36-20.88-27.24-20.88h-71.59v6.96l9.5,6.95
			v123.39l-11.4,7.59v6.33h75.39c0,0,31.03-2.9,31.05-27.22v-32.9C658.16,652.83,658.85,634.15,637.24,633.22z M590.77,575.4
			c0,0,25.22,0,30.81,0c5.58,0,4.36,24.97,4.36,35.41c0,10.42-2.91,17.45-6.55,17.94c-3.63,0.49-28.62,2.91-28.62,0
			C590.77,625.84,590.77,575.4,590.77,575.4z M630.31,687.68c0,8.24-4.86,12.62-6.79,12.62h-16.25c-9.71,0-22.31,0.73-22.31-1.21
			c0-1.94,5.81-2.92,5.81-5.34v-54.81c0,0,19.17,0,26.68,0s12.85,5.1,12.85,7.77V687.68z"/>
		<polygon class="st117" points="669.56,558.55 669.56,563.61 678.43,570.57 678.43,698.39 667.03,705.98 667.03,712.31 
			764.59,712.31 764.59,675.61 753.19,675.61 742.42,696.49 701.24,698.39 700.6,696.49 705.67,693.33 705.67,640.81 728.48,640.81 
			736.72,650.3 744.95,650.3 744.95,612.97 737.35,612.97 728.48,626.25 705.67,626.25 705.67,570.57 740.52,567.41 748.12,587.66 
			760.79,587.66 760.79,550.96 		"/>
		<polygon class="st117" points="871.66,708.51 926.78,704.72 926.15,697.12 913.48,687.63 914.11,618.66 945.16,615.5 
			952.76,630.05 961.63,630.05 962.26,582.59 952.12,582.59 944.52,598.41 914.74,602.21 914.74,530.71 957.19,523.11 
			966.06,551.59 979.37,550.96 979.37,500.33 872.3,519.95 872.93,528.81 883.7,537.67 883.7,690.8 871.66,698.39 		"/>
		<polygon class="st117" points="772.48,549.98 772.49,555.41 781.41,562.65 781.55,697.55 770.28,705.74 770.29,712.31 
			866.59,709.78 866.9,671.6 855.61,671.89 844.83,693.93 804.11,696.96 803.49,695.01 808.51,691.58 808.61,636.57 831.3,636 
			839.44,645.78 847.61,645.58 847.85,606.19 840.27,606.37 831.36,620.65 808.64,621.22 808.74,562 843.69,557.78 851.17,579.22 
			863.84,578.91 864.13,539.66 		"/>
	</g>
	<path class="st56" d="M115.93,799.7c0.13,1.52,0.56,2.61,1.27,3.27c0.72,0.66,1.76,0.99,3.12,0.99c1.5,0,2.62-0.52,3.35-1.57
		c0.73-1.05,1.15-2.6,1.26-4.65h-7.06v-3.92h7.05c-0.12-2.1-0.57-3.65-1.34-4.67c-0.77-1.02-1.88-1.52-3.31-1.52
		c-1.39,0-2.44,0.35-3.13,1.04c-0.7,0.69-1.1,1.81-1.21,3.35h-4.61c0.23-2.57,1.12-4.6,2.68-6.08c1.56-1.48,3.65-2.23,6.27-2.23
		c1.86,0,3.5,0.46,4.91,1.38c1.41,0.92,2.49,2.24,3.25,3.95c0.76,1.72,1.14,3.71,1.14,5.99v1.53c0,3.46-0.82,6.21-2.46,8.24
		c-1.64,2.03-3.9,3.04-6.76,3.04c-2.64,0-4.76-0.73-6.35-2.2c-1.59-1.47-2.47-3.44-2.65-5.93H115.93z M138.52,799.23v8.28h-4.61
		v-23.49h8.72c1.68,0,3.16,0.32,4.43,0.97c1.27,0.65,2.25,1.56,2.94,2.75c0.69,1.19,1.03,2.54,1.03,4.06c0,2.3-0.75,4.12-2.25,5.44
		c-1.5,1.33-3.58,1.99-6.23,1.99H138.52z M138.52,795.31h4.12c1.22,0,2.15-0.3,2.79-0.9c0.64-0.6,0.96-1.46,0.96-2.58
		c0-1.15-0.32-2.08-0.97-2.79c-0.65-0.71-1.54-1.08-2.67-1.1h-4.22V795.31z M163.02,794.6l4.65-10.58h5.04l-7.34,14.97v8.52h-4.68
		v-8.52l-7.34-14.97h5.05L163.02,794.6z M183.57,794.6l4.65-10.58h5.04l-7.34,14.97v8.52h-4.68v-8.52l-7.34-14.97h5.05L183.57,794.6
		z M214.59,784.02v23.49h-4.62v-19.57h-5.96l-0.37,8.29c-0.15,2.8-0.49,5-1.01,6.61c-0.52,1.61-1.28,2.79-2.29,3.53
		c-1,0.75-2.38,1.13-4.12,1.14h-1.2v-3.89l0.77-0.08c1.16-0.16,1.98-0.86,2.48-2.11c0.5-1.24,0.81-3.45,0.94-6.64l0.38-10.78H214.59
		z M240.16,802.67h-8.08l-1.54,4.84h-4.9l8.32-23.49h4.27l8.37,23.49h-4.9L240.16,802.67z M233.32,798.75h5.59l-2.81-8.79
		L233.32,798.75z M257.8,792.12l4.19-8.1h5.3l-6.51,11.65l6.68,11.84h-5.36l-4.3-8.23l-4.3,8.23h-5.36l6.68-11.84l-6.51-11.65h5.3
		L257.8,792.12z M279.27,795.12l4.07-11.1h4.98l-7.82,19.37l-0.63,1.27c-1.16,2.12-2.93,3.18-5.31,3.18l-1.61-0.06l-0.05-3.89
		c0.25,0.04,0.64,0.06,1.2,0.06c0.65,0,1.16-0.12,1.56-0.35c0.39-0.24,0.72-0.67,0.99-1.31l0.57-1.53l-7.85-16.74h4.96
		L279.27,795.12z M305.24,784.02h4.62v23.49h-4.62v-15.6l-8.95,15.6h-4.61v-23.49h4.61v15.63L305.24,784.02z M306.14,777.86
		c0,1.43-0.49,2.58-1.47,3.46c-0.98,0.88-2.26,1.32-3.85,1.32c-1.59,0-2.87-0.43-3.85-1.3c-0.98-0.87-1.47-2.03-1.47-3.47h3.15
		c0,0.68,0.19,1.2,0.58,1.57s0.91,0.56,1.59,0.56c0.67,0,1.19-0.19,1.57-0.56c0.38-0.37,0.57-0.9,0.57-1.57H306.14z M333.16,807.51
		h-4.61v-10.07h-8.98v10.07h-4.61v-23.49h4.61v9.52h8.98v-9.52h4.61V807.51z M350.72,784.02v19.6h6.2v-19.6h4.62v19.6h6.14v-19.6
		h4.61v23.49h-26.2v-23.49H350.72z M390,802.67h-8.08l-1.54,4.84h-4.9l8.32-23.49h4.27l8.37,23.49h-4.9L390,802.67z M383.17,798.75
		h5.59l-2.81-8.79L383.17,798.75z M412.26,802.67h-8.08l-1.54,4.84h-4.9l8.32-23.49h4.27l8.37,23.49h-4.9L412.26,802.67z
		 M405.42,798.75h5.59l-2.81-8.79L405.42,798.75z M426.51,799.23v8.28h-4.61v-23.49h8.72c1.68,0,3.16,0.32,4.43,0.97
		c1.27,0.65,2.25,1.56,2.94,2.75c0.69,1.19,1.03,2.54,1.03,4.06c0,2.3-0.75,4.12-2.25,5.44c-1.5,1.33-3.58,1.99-6.23,1.99H426.51z
		 M426.51,795.31h4.12c1.22,0,2.15-0.3,2.79-0.9c0.64-0.6,0.96-1.46,0.96-2.58c0-1.15-0.32-2.08-0.97-2.79s-1.54-1.08-2.67-1.1
		h-4.22V795.31z M464.02,813.28h-4.25v-5.78h-13.48v5.76h-4.36l-0.25-9.65h1.69c0.91-0.8,1.62-1.97,2.11-3.51
		c0.5-1.54,0.83-3.45,1.01-5.73l0.64-10.36h14.65v19.6h2.61L464.02,813.28z M451.12,794.12c-0.31,4.14-1.13,7.31-2.47,9.5h8.52
		v-15.68h-5.67L451.12,794.12L451.12,794.12z M486.33,784.02v23.49h-4.62v-19.57h-5.96l-0.37,8.29c-0.15,2.8-0.49,5-1.01,6.61
		c-0.52,1.61-1.28,2.79-2.29,3.53c-1,0.75-2.38,1.13-4.12,1.14h-1.2v-3.89l0.77-0.08c1.16-0.16,1.98-0.86,2.48-2.11
		c0.5-1.24,0.81-3.45,0.94-6.64l0.38-10.78H486.33z M504.08,802.67h-8.08l-1.54,4.84h-4.9l8.32-23.49h4.27l8.37,23.49h-4.9
		L504.08,802.67z M497.25,798.75h5.59l-2.81-8.79L497.25,798.75z M528.39,787.94h-10.03v19.57h-4.61v-23.49h14.63V787.94z
		 M544.98,802.67h-8.08l-1.54,4.84h-4.9l8.32-23.49h4.27l8.37,23.49h-4.9L544.98,802.67z M538.15,798.75h5.59l-2.81-8.79
		L538.15,798.75z M570.44,792.12l4.19-8.1h5.3l-6.51,11.65l6.68,11.84h-5.36l-4.3-8.23l-4.3,8.23h-5.36l6.68-11.84l-6.51-11.65h5.3
		L570.44,792.12z M596.16,802.67h-8.08l-1.53,4.84h-4.9l8.32-23.49h4.27l8.37,23.49h-4.9L596.16,802.67z M589.33,798.75h5.59
		l-2.81-8.79L589.33,798.75z M623.99,807.51h-4.61v-10.07h-8.98v10.07h-4.61v-23.49h4.61v9.52h8.98v-9.52h4.61V807.51z
		 M643.79,787.94h-10.03v19.57h-4.61v-23.49h14.63V787.94z M660.37,802.67h-8.08l-1.54,4.84h-4.9l8.32-23.49h4.27l8.37,23.49h-4.9
		L660.37,802.67z M653.54,798.75h5.59l-2.81-8.79L653.54,798.75z M687.57,799.68c-0.17,2.53-1.06,4.52-2.66,5.97
		c-1.6,1.45-3.71,2.18-6.33,2.18c-2.87,0-5.12-1.01-6.76-3.04c-1.64-2.03-2.46-4.81-2.46-8.35V795c0-2.26,0.38-4.25,1.14-5.97
		c0.76-1.72,1.84-3.04,3.25-3.96c1.41-0.92,3.04-1.38,4.91-1.38c2.58,0,4.66,0.73,6.23,2.18c1.58,1.45,2.49,3.49,2.73,6.11h-4.61
		c-0.11-1.52-0.51-2.62-1.21-3.3c-0.69-0.68-1.74-1.02-3.16-1.02c-1.54,0-2.68,0.58-3.45,1.73c-0.76,1.16-1.15,2.95-1.17,5.38v1.77
		c0,2.54,0.37,4.39,1.1,5.57c0.73,1.17,1.89,1.76,3.46,1.76c1.42,0,2.48-0.34,3.19-1.02c0.7-0.68,1.1-1.74,1.21-3.17H687.57z
		 M704.32,802.67h-8.08l-1.54,4.84h-4.9l8.32-23.49h4.27l8.37,23.49h-4.9L704.32,802.67z M697.49,798.75h5.59l-2.81-8.79
		L697.49,798.75z M732.16,807.51h-4.61v-10.07h-8.98v10.07h-4.61v-23.49h4.61v9.52h8.98v-9.52h4.61V807.51z M752.9,799.33h-8.65
		v-3.76h8.65V799.33z M768.72,799.7c0.13,1.52,0.56,2.61,1.27,3.27c0.72,0.66,1.76,0.99,3.12,0.99c1.5,0,2.62-0.52,3.35-1.57
		c0.73-1.05,1.15-2.6,1.26-4.65h-7.06v-3.92h7.05c-0.12-2.1-0.57-3.65-1.34-4.67c-0.77-1.02-1.88-1.52-3.31-1.52
		c-1.39,0-2.44,0.35-3.13,1.04c-0.7,0.69-1.1,1.81-1.21,3.35h-4.61c0.22-2.57,1.12-4.6,2.68-6.08c1.56-1.48,3.65-2.23,6.27-2.23
		c1.86,0,3.5,0.46,4.91,1.38c1.41,0.92,2.49,2.24,3.25,3.95c0.76,1.72,1.14,3.71,1.14,5.99v1.53c0,3.46-0.82,6.21-2.46,8.24
		c-1.64,2.03-3.9,3.04-6.76,3.04c-2.64,0-4.76-0.73-6.35-2.2c-1.59-1.47-2.47-3.44-2.65-5.93H768.72z M791.31,799.23v8.28h-4.61
		v-23.49h8.72c1.68,0,3.16,0.32,4.43,0.97c1.27,0.65,2.25,1.56,2.94,2.75c0.69,1.19,1.03,2.54,1.03,4.06c0,2.3-0.75,4.12-2.25,5.44
		c-1.5,1.33-3.58,1.99-6.23,1.99H791.31z M791.31,795.31h4.12c1.22,0,2.15-0.3,2.79-0.9c0.64-0.6,0.96-1.46,0.96-2.58
		c0-1.15-0.32-2.08-0.97-2.79c-0.64-0.71-1.54-1.08-2.67-1.1h-4.22V795.31z M815.8,794.6l4.65-10.58h5.04l-7.34,14.97v8.52h-4.68
		v-8.52l-7.34-14.97h5.05L815.8,794.6z M836.35,794.6l4.65-10.58h5.04l-7.34,14.97v8.52h-4.68v-8.52l-7.34-14.97h5.05L836.35,794.6z
		 M867.37,784.02v23.49h-4.62v-19.57h-5.96l-0.37,8.29c-0.15,2.8-0.49,5-1.01,6.61c-0.52,1.61-1.28,2.79-2.29,3.53
		c-1,0.75-2.38,1.13-4.12,1.14h-1.2v-3.89l0.77-0.08c1.16-0.16,1.98-0.86,2.48-2.11c0.5-1.24,0.81-3.45,0.94-6.64l0.38-10.78H867.37
		z M888.32,792.12l4.19-8.1h5.3l-6.51,11.65l6.68,11.84h-5.36l-4.3-8.23l-4.3,8.23h-5.36l6.68-11.84l-6.51-11.65h5.3L888.32,792.12z
		 M909.11,794.6l4.65-10.58h5.04l-7.34,14.97v8.52h-4.68v-8.52l-7.34-14.97h5.05L909.11,794.6z M940.14,807.51h-4.61v-10.07h-8.98
		v10.07h-4.61v-23.49h4.61v9.52h8.98v-9.52h4.61V807.51z M962.82,799.68c-0.17,2.53-1.06,4.52-2.66,5.97
		c-1.6,1.45-3.71,2.18-6.33,2.18c-2.87,0-5.12-1.01-6.76-3.04c-1.64-2.03-2.46-4.81-2.46-8.35V795c0-2.26,0.38-4.25,1.14-5.97
		c0.76-1.72,1.84-3.04,3.25-3.96c1.41-0.92,3.04-1.38,4.91-1.38c2.58,0,4.66,0.73,6.23,2.18c1.58,1.45,2.49,3.49,2.73,6.11h-4.61
		c-0.11-1.52-0.51-2.62-1.21-3.3c-0.69-0.68-1.74-1.02-3.16-1.02c-1.54,0-2.68,0.58-3.45,1.73c-0.76,1.16-1.15,2.95-1.17,5.38v1.77
		c0,2.54,0.37,4.39,1.1,5.57c0.73,1.17,1.89,1.76,3.46,1.76c1.42,0,2.48-0.34,3.19-1.02c0.7-0.68,1.1-1.74,1.21-3.17H962.82z"/>
	<path class="st118" d="M289.6,479.55c-1.05,1.44-2.51,2.53-4.38,3.28c-1.87,0.74-3.99,1.11-6.36,1.11c-2.44,0-4.6-0.58-6.48-1.74
		c-1.88-1.16-3.33-2.83-4.35-4.99c-1.02-2.16-1.55-4.69-1.59-7.57v-2.39c0-4.62,1.05-8.23,3.16-10.83c2.11-2.6,5.04-3.9,8.82-3.9
		c3.24,0,5.81,0.84,7.72,2.53c1.91,1.69,3.05,4.11,3.44,7.28h-4.96c-0.56-3.68-2.59-5.52-6.1-5.52c-2.27,0-3.99,0.86-5.17,2.57
		c-1.18,1.71-1.79,4.23-1.83,7.54v2.35c0,3.3,0.66,5.87,1.99,7.69c1.33,1.83,3.17,2.74,5.53,2.74c2.59,0,4.42-0.62,5.52-1.85v-5.99
		h-6v-4.03h11.04V479.55z M303.57,465.45c-0.64-0.11-1.3-0.17-1.98-0.17c-2.23,0-3.73,0.9-4.5,2.69v15.54h-4.86v-22.73h4.64
		l0.12,2.54c1.17-1.97,2.8-2.96,4.88-2.96c0.69,0,1.27,0.1,1.72,0.29L303.57,465.45z M316.5,483.52c-0.21-0.43-0.4-1.14-0.56-2.12
		c-1.55,1.69-3.44,2.54-5.68,2.54c-2.17,0-3.95-0.65-5.32-1.95c-1.37-1.3-2.06-2.91-2.06-4.83c0-2.42,0.86-4.28,2.57-5.58
		c1.71-1.3,4.16-1.94,7.35-1.94h2.98v-1.49c0-1.18-0.31-2.12-0.94-2.83c-0.63-0.71-1.58-1.06-2.86-1.06c-1.11,0-2.01,0.29-2.72,0.87
		c-0.71,0.58-1.06,1.32-1.06,2.22h-4.86c0-1.25,0.39-2.41,1.18-3.5c0.79-1.09,1.86-1.94,3.21-2.55c1.35-0.62,2.86-0.92,4.53-0.92
		c2.53,0,4.55,0.67,6.06,2.01c1.51,1.34,2.28,3.22,2.32,5.64v10.25c0,2.04,0.27,3.68,0.82,4.89v0.36H316.5z M311.16,479.84
		c0.96,0,1.86-0.24,2.71-0.74c0.85-0.49,1.48-1.15,1.91-1.97v-4.29h-2.62c-1.8,0-3.15,0.33-4.06,0.99
		c-0.91,0.66-1.36,1.59-1.36,2.79c0,0.98,0.31,1.76,0.93,2.34C309.3,479.55,310.13,479.84,311.16,479.84z M335.39,477.34
		c0-0.91-0.36-1.6-1.07-2.08c-0.71-0.48-1.9-0.9-3.55-1.26c-1.65-0.36-3.03-0.83-4.14-1.39c-2.43-1.23-3.64-3.02-3.64-5.36
		c0-1.96,0.79-3.6,2.36-4.92c1.57-1.32,3.57-1.97,6-1.97c2.59,0,4.67,0.67,6.27,2.02c1.59,1.34,2.39,3.09,2.39,5.23h-4.86
		c0-0.98-0.35-1.8-1.04-2.45c-0.69-0.65-1.61-0.98-2.76-0.98c-1.07,0-1.94,0.26-2.61,0.78c-0.67,0.52-1.01,1.21-1.01,2.08
		c0,0.78,0.31,1.39,0.94,1.83c0.63,0.43,1.89,0.87,3.8,1.31c1.91,0.44,3.4,0.97,4.49,1.58c1.09,0.61,1.89,1.34,2.42,2.2
		c0.53,0.85,0.79,1.89,0.79,3.11c0,2.04-0.81,3.7-2.42,4.97c-1.61,1.27-3.73,1.9-6.34,1.9c-1.77,0-3.35-0.34-4.74-1.01
		c-1.39-0.67-2.47-1.6-3.24-2.77c-0.77-1.18-1.16-2.44-1.16-3.8h4.72c0.07,1.2,0.5,2.13,1.3,2.78c0.8,0.65,1.86,0.98,3.18,0.98
		c1.28,0,2.25-0.26,2.92-0.77C335.06,478.84,335.39,478.17,335.39,477.34z M354.08,477.34c0-0.91-0.36-1.6-1.07-2.08
		c-0.71-0.48-1.9-0.9-3.55-1.26c-1.65-0.36-3.03-0.83-4.14-1.39c-2.43-1.23-3.64-3.02-3.64-5.36c0-1.96,0.79-3.6,2.36-4.92
		c1.57-1.32,3.57-1.97,6-1.97c2.59,0,4.67,0.67,6.27,2.02c1.59,1.34,2.39,3.09,2.39,5.23h-4.86c0-0.98-0.35-1.8-1.04-2.45
		c-0.69-0.65-1.61-0.98-2.76-0.98c-1.07,0-1.94,0.26-2.61,0.78c-0.67,0.52-1.01,1.21-1.01,2.08c0,0.78,0.31,1.39,0.94,1.83
		c0.63,0.43,1.89,0.87,3.8,1.31c1.91,0.44,3.4,0.97,4.49,1.58c1.09,0.61,1.89,1.34,2.42,2.2c0.53,0.85,0.79,1.89,0.79,3.11
		c0,2.04-0.81,3.7-2.42,4.97c-1.61,1.27-3.73,1.9-6.34,1.9c-1.77,0-3.35-0.34-4.74-1.01c-1.39-0.67-2.47-1.6-3.24-2.77
		c-0.77-1.18-1.16-2.44-1.16-3.8h4.72c0.07,1.2,0.5,2.13,1.3,2.78c0.8,0.65,1.86,0.98,3.18,0.98c1.28,0,2.25-0.26,2.92-0.77
		C353.74,478.84,354.08,478.17,354.08,477.34z M370.05,472.57h-10.5v-4.12h10.5V472.57z M388.85,470.56h-11.71v12.96h-5.06v-30.59
		h18.49v4.29h-13.43v9.1h11.71V470.56z M401.15,483.94c-3.08,0-5.57-1.02-7.49-3.06c-1.91-2.04-2.87-4.75-2.87-8.14v-0.63
		c0-2.27,0.42-4.3,1.25-6.08c0.83-1.79,2-3.18,3.51-4.17c1.51-0.99,3.19-1.49,5.04-1.49c2.95,0,5.22,0.99,6.83,2.96
		c1.61,1.97,2.41,4.77,2.41,8.38v2.06H395.7c0.15,1.88,0.74,3.36,1.79,4.45c1.05,1.09,2.36,1.64,3.95,1.64
		c2.23,0,4.04-0.95,5.44-2.84l2.62,2.63c-0.87,1.36-2.02,2.41-3.47,3.16C404.58,483.56,402.95,483.94,401.15,483.94z M400.57,464.46
		c-1.33,0-2.41,0.49-3.23,1.47c-0.82,0.98-1.34,2.35-1.57,4.1h9.26v-0.38c-0.11-1.71-0.54-3-1.3-3.88
		C402.97,464.9,401.92,464.46,400.57,464.46z M410.24,471.99c0-3.5,0.77-6.31,2.32-8.43c1.55-2.12,3.62-3.18,6.22-3.18
		c2.29,0,4.14,0.84,5.56,2.52v-11.64h4.86v32.27h-4.4l-0.24-2.35c-1.45,1.85-3.39,2.77-5.82,2.77c-2.53,0-4.58-1.07-6.15-3.21
		C411.02,478.58,410.24,475.67,410.24,471.99z M415.09,472.43c0,2.31,0.42,4.11,1.27,5.41c0.85,1.3,2.05,1.94,3.61,1.94
		c1.99,0,3.44-0.93,4.36-2.79v-9.71c-0.89-1.82-2.33-2.73-4.32-2.73c-1.57,0-2.79,0.65-3.64,1.96
		C415.52,467.82,415.09,469.79,415.09,472.43z"/>
	<path class="st118" d="M664.44,470.5h-11.95v9.41h13.97v4.24h-19.03v-30.59h18.89v4.29h-13.83v8.44h11.95V470.5z M676.15,480.5
		c1.21,0,2.22-0.37,3.02-1.11c0.8-0.74,1.23-1.66,1.28-2.75h4.58c-0.05,1.41-0.47,2.73-1.26,3.96c-0.79,1.23-1.85,2.2-3.2,2.91
		c-1.35,0.71-2.8,1.07-4.36,1.07c-3.03,0-5.42-1.03-7.2-3.09c-1.77-2.06-2.66-4.9-2.66-8.53v-0.53c0-3.46,0.88-6.23,2.64-8.31
		c1.76-2.08,4.16-3.12,7.2-3.12c2.57,0,4.67,0.79,6.29,2.36c1.62,1.58,2.47,3.64,2.55,6.21h-4.58c-0.05-1.3-0.48-2.37-1.27-3.21
		c-0.79-0.84-1.8-1.26-3.03-1.26c-1.57,0-2.79,0.6-3.64,1.8c-0.85,1.2-1.29,3.01-1.3,5.45v0.82c0,2.46,0.42,4.3,1.27,5.51
		C673.33,479.89,674.55,480.5,676.15,480.5z M685.34,472.58c0-2.23,0.42-4.23,1.26-6.02c0.84-1.79,2.02-3.16,3.54-4.12
		c1.52-0.96,3.27-1.44,5.24-1.44c2.92,0,5.29,0.99,7.11,2.96c1.82,1.97,2.8,4.59,2.95,7.86l0.02,1.2c0,2.24-0.41,4.24-1.23,6.01
		c-0.82,1.76-1.99,3.13-3.52,4.1c-1.53,0.97-3.29,1.45-5.29,1.45c-3.05,0-5.49-1.07-7.33-3.2c-1.83-2.14-2.75-4.98-2.75-8.54V472.58
		z M690.2,473.02c0,2.34,0.46,4.17,1.38,5.49c0.92,1.32,2.2,1.99,3.84,1.99s2.92-0.67,3.83-2.02c0.91-1.34,1.37-3.31,1.37-5.9
		c0-2.3-0.47-4.12-1.41-5.46c-0.94-1.34-2.22-2.02-3.83-2.02c-1.59,0-2.85,0.66-3.78,1.99C690.66,468.41,690.2,470.39,690.2,473.02z
		 M720.36,472.81v11.34h-5.06v-30.59h11.14c3.25,0,5.83,0.89,7.75,2.67c1.91,1.78,2.87,4.14,2.87,7.07c0,3-0.94,5.33-2.81,7
		c-1.87,1.67-4.49,2.5-7.87,2.5H720.36z M720.36,468.53h6.08c1.8,0,3.17-0.44,4.12-1.33c0.95-0.89,1.42-2.17,1.42-3.85
		c0-1.65-0.48-2.97-1.44-3.96c-0.96-0.99-2.28-1.49-3.96-1.52h-6.22V468.53z M749.87,466.09c-0.64-0.11-1.3-0.17-1.98-0.17
		c-2.23,0-3.73,0.9-4.5,2.69v15.54h-4.86v-22.73h4.64l0.12,2.54c1.17-1.97,2.8-2.96,4.88-2.96c0.69,0,1.27,0.1,1.72,0.29
		L749.87,466.09z M748.85,472.58c0-2.23,0.42-4.23,1.26-6.02c0.84-1.79,2.02-3.16,3.54-4.12c1.52-0.96,3.27-1.44,5.24-1.44
		c2.92,0,5.29,0.99,7.11,2.96c1.82,1.97,2.8,4.59,2.95,7.86l0.02,1.2c0,2.24-0.41,4.24-1.23,6.01c-0.82,1.76-1.99,3.13-3.52,4.1
		c-1.53,0.97-3.29,1.45-5.29,1.45c-3.05,0-5.49-1.07-7.33-3.2c-1.83-2.14-2.75-4.98-2.75-8.54V472.58z M753.71,473.02
		c0,2.34,0.46,4.17,1.38,5.49c0.92,1.32,2.2,1.99,3.84,1.99c1.64,0,2.92-0.67,3.83-2.02c0.91-1.34,1.37-3.31,1.37-5.9
		c0-2.3-0.47-4.12-1.41-5.46c-0.94-1.34-2.22-2.02-3.83-2.02c-1.59,0-2.85,0.66-3.78,1.99
		C754.18,468.41,753.71,470.39,753.71,473.02z M769.71,472.62c0-3.5,0.77-6.31,2.32-8.43c1.55-2.12,3.62-3.18,6.22-3.18
		c2.29,0,4.14,0.84,5.56,2.52v-11.64h4.86v32.27h-4.4l-0.24-2.35c-1.45,1.85-3.39,2.77-5.82,2.77c-2.53,0-4.58-1.07-6.15-3.21
		C770.49,479.22,769.71,476.31,769.71,472.62z M774.57,473.06c0,2.31,0.42,4.11,1.27,5.41c0.85,1.3,2.05,1.94,3.61,1.94
		c1.99,0,3.44-0.93,4.36-2.79v-9.71c-0.89-1.82-2.33-2.73-4.32-2.73c-1.57,0-2.79,0.65-3.64,1.96
		C774.99,468.46,774.57,470.43,774.57,473.06z M804.37,481.93c-1.43,1.76-3.45,2.65-6.08,2.65c-2.35,0-4.12-0.72-5.33-2.16
		c-1.21-1.44-1.81-3.53-1.81-6.26v-14.73h4.86v14.66c0,2.89,1.14,4.33,3.42,4.33c2.36,0,3.95-0.89,4.78-2.67v-16.32h4.86v22.73
		h-4.58L804.37,481.93z M820.45,480.5c1.21,0,2.22-0.37,3.02-1.11c0.8-0.74,1.23-1.66,1.28-2.75h4.58
		c-0.05,1.41-0.47,2.73-1.26,3.96c-0.79,1.23-1.85,2.2-3.2,2.91c-1.35,0.71-2.8,1.07-4.36,1.07c-3.03,0-5.42-1.03-7.2-3.09
		c-1.77-2.06-2.66-4.9-2.66-8.53v-0.53c0-3.46,0.88-6.23,2.64-8.31c1.76-2.08,4.16-3.12,7.2-3.12c2.57,0,4.67,0.79,6.29,2.36
		c1.62,1.58,2.47,3.64,2.55,6.21h-4.58c-0.05-1.3-0.48-2.37-1.27-3.21c-0.79-0.84-1.8-1.26-3.03-1.26c-1.57,0-2.79,0.6-3.64,1.8
		c-0.85,1.2-1.29,3.01-1.3,5.45v0.82c0,2.46,0.42,4.3,1.27,5.51C817.62,479.89,818.85,480.5,820.45,480.5z M836.63,455.9v5.52h3.82
		v3.78h-3.82v12.69c0,0.87,0.16,1.5,0.49,1.88c0.33,0.39,0.91,0.58,1.75,0.58c0.56,0,1.13-0.07,1.7-0.21v3.95
		c-1.11,0.32-2.17,0.48-3.2,0.48c-3.73,0-5.6-2.16-5.6-6.49v-12.88h-3.56v-3.78h3.56v-5.52H836.63z"/>
	<path class="st118" d="M676.44,387.49c0,0-17.72,11.95-46.21,6.32c0,0-4.02,30.45-16.47,51.85c0,0-12.78,30.69-15.2,48.68
		c0,0-1.8,23.94-23.42,24.67c0,0-4.84,0.14-6.33,2.53c0,0-10.32,13.28-29.44,13.28v0.31c-19.15,0-29.46-13.29-29.46-13.29
		c-1.5-2.39-6.33-2.53-6.33-2.53c-21.64-0.73-23.44-24.68-23.44-24.68c-2.42-18.02-15.21-48.73-15.21-48.73
		c-12.44-21.41-16.48-51.88-16.48-51.88c-28.5,5.63-46.24-6.33-46.24-6.33c-23-16.44-12.67-53.78-12.67-53.78
		c28.19-2.02,54.49,7.59,54.49,7.59c4.82,1.08,3.17-1.27,3.17-1.27c-13.96-9.35-20.27-31-20.27-31c-3.92-32.79,15.2-42.4,15.2-42.4
		c-4.81,19.81,19.02,37.34,19.02,37.34c7.79,7.64,17.11,3.8,17.11,3.8c23.5-10.39,61.14-10.12,61.14-10.12v-0.14
		c0,0,37.61-0.27,61.09,10.11c0,0,9.32,3.84,17.1-3.79c0,0,23.81-17.52,18.99-37.31c0,0,19.11,9.6,15.2,42.37
		c0,0-6.31,21.63-20.26,30.98c0,0-1.65,2.34,3.17,1.27c0,0,26.27-9.6,54.45-7.59C689.11,333.74,699.42,371.06,676.44,387.49z"/>
	<rect x="101.08" y="736.38" class="st119" width="872.59" height="5.63"/>
</g>
</svg>
