<?xml version="1.0" encoding="utf-8"?>
<!-- Generator: Adobe Illustrator 26.5.0, SVG Export Plug-In . SVG Version: 6.00 Build 0)  -->
<svg version="1.1" id="Layer_1" xmlns="http://www.w3.org/2000/svg" xmlns:xlink="http://www.w3.org/1999/xlink" x="0px" y="0px"
	 viewBox="0 0 1080 1080" style="enable-background:new 0 0 1080 1080;" xml:space="preserve">
<style type="text/css">
	.st0{fill-rule:evenodd;clip-rule:evenodd;}
	.st1{fill:#ED1C24;}
	.st2{fill:#E1251B;}
	.st3{fill-rule:evenodd;clip-rule:evenodd;fill:#16397B;}
	.st4{fill:#EE2745;}
	
		.st5{clip-path:url(#SVGID_00000167354645814842856350000006809420058576770435_);fill:url(#SVGID_00000087402389320230297650000015901697671934157481_);}
	
		.st6{clip-path:url(#SVGID_00000075148972001493163130000013793614642119446703_);fill:url(#SVGID_00000002367570388428038420000002765593167378280852_);}
	
		.st7{clip-path:url(#SVGID_00000161627038025501905790000005287768185614628777_);fill:url(#SVGID_00000156551113364724170800000004459612843976883644_);}
	
		.st8{clip-path:url(#SVGID_00000103254167613296073900000012736079272814743990_);fill:url(#SVGID_00000171698054250825192080000000201982819506900659_);}
	.st9{fill:#424243;}
	
		.st10{clip-path:url(#SVGID_00000046341541953283383280000005980297770403070116_);fill:url(#SVGID_00000144332917621865965400000012849586563210280848_);}
	.st11{fill:#FFFFFF;}
	
		.st12{clip-path:url(#SVGID_00000175293622008861569400000011135134437505216700_);fill:url(#SVGID_00000068647645298165259960000002749335233225514903_);}
	
		.st13{clip-path:url(#SVGID_00000111878483307128137190000016988994888848903094_);fill:url(#SVGID_00000178912353432814602230000015329892042150263212_);}
	
		.st14{clip-path:url(#SVGID_00000127762655951559551660000015770037045648905348_);fill:url(#SVGID_00000103239215765702895110000004386603708000018062_);}
	
		.st15{clip-path:url(#SVGID_00000044166740363891751780000005119976412964357518_);fill:url(#SVGID_00000111898779817903237290000003814502262105662867_);}
	
		.st16{clip-path:url(#SVGID_00000142146240480789327680000003013352659839144878_);fill:url(#SVGID_00000028283426509832706830000003396545702602694021_);}
	
		.st17{clip-path:url(#SVGID_00000181087622758149403960000004711499347433684127_);fill:url(#SVGID_00000139253050655245488910000002430924209853041318_);}
	
		.st18{clip-path:url(#SVGID_00000127761349418387798110000016196292313446392201_);fill:url(#SVGID_00000179647919026062172100000018203676108035302311_);}
	.st19{fill-rule:evenodd;clip-rule:evenodd;fill:#C8202F;}
	.st20{fill-rule:evenodd;clip-rule:evenodd;fill:#FFFFFF;}
	.st21{fill-rule:evenodd;clip-rule:evenodd;fill:#F98238;}
	.st22{filter:url(#Adobe_OpacityMaskFilter);}
	.st23{fill:url(#SVGID_00000180353347430759236760000017256470766432102584_);}
	.st24{mask:url(#SVGID_00000119816056161623282810000008915683898964415634_);fill-rule:evenodd;clip-rule:evenodd;fill:#ED1C24;}
	.st25{fill-rule:evenodd;clip-rule:evenodd;fill:#F5333F;}
	.st26{fill-rule:evenodd;clip-rule:evenodd;fill:#ED1C24;}
	.st27{fill-rule:evenodd;clip-rule:evenodd;fill:#F9A46E;}
	.st28{fill-rule:evenodd;clip-rule:evenodd;fill:#F47B26;}
	.st29{fill-rule:evenodd;clip-rule:evenodd;fill:#EB5433;}
	.st30{fill:#1A3282;}
	.st31{fill-rule:evenodd;clip-rule:evenodd;fill:#1A3282;}
	.st32{fill-rule:evenodd;clip-rule:evenodd;fill:#9D9FA2;}
	.st33{fill-rule:evenodd;clip-rule:evenodd;fill:#000303;}
	.st34{fill:#64003D;}
	.st35{fill:#536270;}
	.st36{fill-rule:evenodd;clip-rule:evenodd;fill:#64003D;}
	.st37{fill-rule:evenodd;clip-rule:evenodd;fill:#536270;}
	.st38{fill-rule:evenodd;clip-rule:evenodd;fill:#1A3382;}
	.st39{fill-rule:evenodd;clip-rule:evenodd;fill:#29387E;}
	.st40{fill-rule:evenodd;clip-rule:evenodd;fill:#F37021;}
	.st41{fill-rule:evenodd;clip-rule:evenodd;fill:#005C32;}
	.st42{fill-rule:evenodd;clip-rule:evenodd;fill:#D2AB67;}
	
		.st43{clip-path:url(#SVGID_00000176034541959037321040000004477929912834203038_);fill:url(#SVGID_00000104680571115717934030000002253531171919984572_);}
	
		.st44{clip-path:url(#SVGID_00000167361344491677747420000001970103287169330086_);fill:url(#SVGID_00000059271360793422737490000013978090052019802030_);}
	
		.st45{clip-path:url(#SVGID_00000090999204612155776850000010052520430530116262_);fill:url(#SVGID_00000132068876037175871650000015850861890475956639_);}
	.st46{fill-rule:evenodd;clip-rule:evenodd;fill:#00AEEF;}
	.st47{fill-rule:evenodd;clip-rule:evenodd;fill:#EC008C;}
	.st48{fill-rule:evenodd;clip-rule:evenodd;fill:#FFF200;}
	.st49{fill:#A7AAAC;}
	.st50{fill-rule:evenodd;clip-rule:evenodd;fill:#5C5B5B;}
	.st51{fill:#9D9D9F;}
	.st52{fill:#F04D23;}
	.st53{fill-rule:evenodd;clip-rule:evenodd;fill:#2E3192;}
	.st54{fill-rule:evenodd;clip-rule:evenodd;fill:#C4312D;}
	.st55{fill:#552715;}
	.st56{fill:#010101;}
	.st57{fill:#E31E2E;}
	.st58{fill:url(#SVGID_00000069380204059841289330000017287491823496454330_);}
	.st59{fill:url(#SVGID_00000089571601263310590890000011255326566807498421_);}
	.st60{clip-path:url(#SVGID_00000174593536555920031940000003050884892494857915_);}
	.st61{clip-path:url(#SVGID_00000078040549851406874750000006855869732111768707_);}
	.st62{clip-path:url(#SVGID_00000008870985790413478660000003558469754402333314_);}
	.st63{clip-path:url(#SVGID_00000038386074213799284090000014060843438281593236_);}
	.st64{clip-path:url(#SVGID_00000110462850516146346260000013137552231279699590_);}
	.st65{clip-path:url(#SVGID_00000175322561136055445690000015944115868692067724_);}
	.st66{clip-path:url(#SVGID_00000030453039426133256990000014069039334128801421_);}
	.st67{clip-path:url(#SVGID_00000161622777869601718410000016495770819805637768_);}
	.st68{clip-path:url(#SVGID_00000105402697978112031360000007682858201516914620_);}
	.st69{clip-path:url(#SVGID_00000057114440872897550980000005465408222800542349_);}
	.st70{clip-path:url(#SVGID_00000106831539835882452660000011688181783091833010_);}
	.st71{fill:#2650A1;}
	.st72{fill:url(#SVGID_00000122693549033133679320000006097551449062414769_);}
	.st73{fill:#FEFEFE;}
	.st74{fill:#FDFDFD;}
	.st75{fill:#FCFCFC;}
	.st76{fill:#FBFBFB;}
	.st77{fill:#FAFAFA;}
	.st78{fill:#F9F9F9;}
	.st79{fill:#F8F8F8;}
	.st80{fill:#F7F7F7;}
	.st81{fill:#F6F6F6;}
	.st82{fill:#F5F5F5;}
	.st83{fill:#F4F4F4;}
	.st84{fill:#F3F3F3;}
	.st85{fill:#F2F2F2;}
	.st86{fill:#F1F1F1;}
	.st87{fill:#F0F0F0;}
	.st88{fill:#EFEFEF;}
	.st89{fill:#EEEEEE;}
	.st90{fill:#EDEDED;}
	.st91{fill:#ECECEC;}
	.st92{fill:#EBEBEB;}
	.st93{fill:#EAEAEA;}
	.st94{fill:#E9E9E9;}
	.st95{fill:#E8E8E8;}
	.st96{fill:#E7E7E7;}
	.st97{fill:#E6E6E6;}
	.st98{fill:#E5E5E5;}
	.st99{fill:#E4E4E4;}
	.st100{fill:#E3E3E3;}
	.st101{fill:#E2E2E2;}
	.st102{fill:#E1E1E1;}
	.st103{fill:#E0E0E0;}
	.st104{fill:#DFDFDF;}
	.st105{fill:#DEDEDE;}
	.st106{fill:#DDDDDD;}
	.st107{fill:#DCDCDC;}
	.st108{fill:#DBDBDB;}
	.st109{fill:#DADADA;}
	.st110{fill:#D9D9D9;}
	.st111{fill:#D92231;}
	.st112{fill:url(#SVGID_00000134936717983650692850000012752416497349484475_);}
	.st113{fill:url(#SVGID_00000059279755479358022620000006014624299594901404_);}
	.st114{opacity:0.8;}
	.st115{fill:url(#SVGID_00000015333277927279905840000009610089939396789406_);}
	.st116{fill:url(#SVGID_00000016056686879714318880000018288751162000764347_);}
	.st117{fill-rule:evenodd;clip-rule:evenodd;fill:#010101;}
	.st118{fill:#80A845;}
	.st119{fill-rule:evenodd;clip-rule:evenodd;fill:#80A845;}
	.st120{fill:url(#SVGID_00000056404100733080657480000002200171020120826788_);}
	.st121{fill-rule:evenodd;clip-rule:evenodd;fill:#04984A;}
	.st122{fill-rule:evenodd;clip-rule:evenodd;fill:url(#SVGID_00000039820014058387469480000017837832301650360749_);}
	.st123{fill:url(#SVGID_00000074410609742269817720000006253961768424308143_);}
	.st124{fill:url(#SVGID_00000093877395497935574720000006867559263575313597_);}
	.st125{fill:url(#SVGID_00000023254851419356205280000000781267098888384928_);}
	.st126{fill:url(#SVGID_00000077312512386958343050000007000447869736942215_);}
	.st127{fill:url(#SVGID_00000042728461604356286200000015709418913481957526_);}
	.st128{fill:url(#SVGID_00000110434487480021582760000006750333065586858667_);}
	.st129{fill:url(#SVGID_00000140695578487159652360000017407613913965977775_);}
	.st130{fill:url(#SVGID_00000116224484529597382570000006571337195626909075_);}
	.st131{fill:url(#SVGID_00000180359824998262105380000008074666005315635357_);}
	.st132{fill:url(#SVGID_00000027575040853020929780000016499001320296584842_);}
	.st133{fill:url(#SVGID_00000057112252955935722970000017189963899716677021_);}
	.st134{fill:url(#SVGID_00000052813157329519337860000009884169802208839601_);}
	.st135{fill:url(#SVGID_00000012450307273614814370000008096244028707557303_);}
	.st136{fill:url(#SVGID_00000145741025340000611420000003333644733165068219_);}
	.st137{fill-rule:evenodd;clip-rule:evenodd;fill:url(#SVGID_00000138562143798854495850000013792179052367434417_);}
	.st138{fill:#0A529D;}
	.st139{fill:url(#SVGID_00000008150164129617373630000000905807232000954015_);}
	.st140{fill:url(#SVGID_00000134931291940259772270000001524403411629568678_);}
	.st141{fill:url(#SVGID_00000002375105214064019480000001076851449323400884_);}
	.st142{fill:url(#SVGID_00000085935173775434876460000002922913777509793708_);}
	.st143{fill:url(#SVGID_00000089556223035699689320000007485731977517970848_);}
	.st144{fill:url(#SVGID_00000057117887829070268190000012156529214772466839_);}
	.st145{fill:url(#SVGID_00000064321805668147150100000010107921107428244112_);}
	.st146{fill:url(#SVGID_00000011026842838948386680000014347015363156382354_);}
	.st147{fill:url(#SVGID_00000045591108439995418410000005175202201850703798_);}
	.st148{fill:url(#SVGID_00000055705933610267655350000007861141349626601400_);}
	.st149{fill:url(#SVGID_00000142175462374738640520000013879711571951442323_);}
	.st150{fill:url(#SVGID_00000149365908000166585740000012015045605562689203_);}
	.st151{fill-rule:evenodd;clip-rule:evenodd;fill:url(#SVGID_00000132055185567432390440000003394791825945699461_);}
	.st152{fill:url(#SVGID_00000090978993899214257590000017516344923073780397_);}
	.st153{fill:url(#SVGID_00000013151044564882563400000013724890337513811340_);}
	.st154{fill:url(#SVGID_00000118359037536441808100000012129220283645377711_);}
	.st155{fill:url(#SVGID_00000142137818810866761040000017212947994501138316_);}
	.st156{fill:url(#SVGID_00000008847074315830947650000007527331163500802217_);}
	.st157{fill:url(#SVGID_00000041988715639438207640000007269339446514593936_);}
	.st158{fill:url(#SVGID_00000107556997459984391030000004114709196208978876_);}
	.st159{fill:url(#SVGID_00000054974229798604522570000018253338735686541759_);}
	.st160{fill:url(#SVGID_00000017508157807760509850000007125425353576349867_);}
	.st161{fill:url(#SVGID_00000085943081675728883340000006495031833690803097_);}
	.st162{fill:url(#SVGID_00000072964754266184135230000013796665289630091190_);}
	.st163{fill:url(#SVGID_00000108289450625648892590000001647078429312740528_);}
	.st164{fill:url(#SVGID_00000180346003095141768700000000868243036633556923_);}
	.st165{fill:url(#SVGID_00000058573845579050233470000013839539041060472978_);}
	.st166{fill:url(#SVGID_00000165920421592459702290000005244478603859149729_);}
	.st167{fill:url(#SVGID_00000052793636081071930470000018209642650845005757_);}
	.st168{fill:url(#SVGID_00000142887472755787010760000016818421559566047916_);}
	.st169{fill-rule:evenodd;clip-rule:evenodd;fill:url(#SVGID_00000078032914580008734890000006766629461726787487_);}
	.st170{fill:url(#SVGID_00000147205481838746143740000013396685232671544490_);}
	.st171{fill:url(#SVGID_00000021798436721055709630000010177503377118384282_);}
	.st172{fill:url(#SVGID_00000176037265190190739020000011284493260126247858_);}
	.st173{fill:url(#SVGID_00000170241733451013279130000001280414347130669466_);}
	.st174{fill:url(#SVGID_00000097491125063905353470000006416543026626960019_);}
	.st175{fill:url(#SVGID_00000096053035177875428360000003266802218894394814_);}
	.st176{fill:url(#SVGID_00000180356357983854079150000007077254791527554455_);}
	.st177{fill:url(#SVGID_00000102504530764818557630000010009133958263130276_);}
	.st178{fill:url(#SVGID_00000129910407254084788220000001605781784127282323_);}
	.st179{fill:url(#SVGID_00000112627560433976486390000016628395356551752859_);}
	.st180{fill:url(#SVGID_00000114781473431300294640000007479145323457896837_);}
	.st181{fill:url(#SVGID_00000067943363856275663210000007792600552446999190_);}
	.st182{fill:url(#SVGID_00000084495420557965925390000006203237840603633049_);}
	.st183{fill:url(#SVGID_00000132079852146007749230000009047591691486247304_);}
	.st184{fill-rule:evenodd;clip-rule:evenodd;fill:url(#SVGID_00000036967032422038143990000004820217508429798810_);}
	.st185{fill:url(#SVGID_00000166672406788236563670000016477421616378048949_);}
	.st186{fill:url(#SVGID_00000094580776558173669620000009653487309402000519_);}
	.st187{fill:url(#SVGID_00000088110120662539519510000005870582226216271786_);}
	.st188{fill:url(#SVGID_00000161618196198354955120000008965655353553245828_);}
	.st189{fill:url(#SVGID_00000157998371258775958160000002170837825471478145_);}
	.st190{fill:url(#SVGID_00000181808289845394629070000012203242746266468277_);}
	.st191{fill:url(#SVGID_00000113348202024598643330000004068786214958802592_);}
	.st192{fill:url(#SVGID_00000104691180015522138360000011245175650325915265_);}
	.st193{fill:url(#SVGID_00000107565829301923608770000014156701493769856155_);}
	.st194{fill:url(#SVGID_00000054254910970711667000000015595467982045091729_);}
	.st195{fill:url(#SVGID_00000084503597124028847930000010613223584014998461_);}
	.st196{fill:url(#SVGID_00000067235890533593898940000005180008204374115463_);}
	.st197{fill:url(#SVGID_00000178204984344933725670000009056106203575074196_);}
	.st198{fill:url(#SVGID_00000086671451545575209100000008009577622208678302_);}
	.st199{fill:url(#SVGID_00000122684947909970219930000010028245904684993465_);}
	.st200{fill:url(#SVGID_00000062872361705309996330000002811291797114648496_);}
	.st201{fill:url(#SVGID_00000140718738856167346240000009068236596858549685_);}
	.st202{fill:url(#SVGID_00000172434645928548955460000002882505364352340381_);}
	.st203{fill:url(#SVGID_00000103954911561738863030000000723344466392194988_);}
	.st204{fill-rule:evenodd;clip-rule:evenodd;fill:url(#SVGID_00000083806711062797119220000004286622875299234237_);}
	.st205{fill:url(#SVGID_00000009562753851678202440000001898922479139495577_);}
	.st206{fill:url(#SVGID_00000152985837753084889430000003980261985296908680_);}
	.st207{fill:url(#SVGID_00000122715284940505834160000011607720891372105610_);}
	.st208{fill:url(#SVGID_00000054239717333259983490000013311963671124705157_);}
	.st209{fill:url(#SVGID_00000114777541217443077480000000086829485248627358_);}
	.st210{fill:url(#SVGID_00000128475507109370471750000004530969888616194693_);}
	.st211{fill:url(#SVGID_00000179608838912100978710000003549608045481789085_);}
	.st212{fill:url(#SVGID_00000156571285678695392200000001733709831137309056_);}
	.st213{fill:url(#SVGID_00000005967901066415121710000008776962092290598802_);}
	.st214{fill:url(#SVGID_00000155122661315205069490000015764570731348048522_);}
	.st215{fill:url(#SVGID_00000166634977547436644210000013515249699221143946_);}
	.st216{fill:url(#SVGID_00000008854515093758277620000009802125746264771997_);}
	.st217{fill:url(#SVGID_00000170275117401552329340000003541848280555943306_);}
	.st218{fill:url(#SVGID_00000083807195232099103410000009530961874403334050_);}
	.st219{fill:url(#SVGID_00000021111070474282104030000004483518933108935350_);}
	.st220{fill:url(#SVGID_00000078733087778965451380000012849725334242065569_);}
	.st221{fill-rule:evenodd;clip-rule:evenodd;fill:url(#SVGID_00000032617262765917234920000018380274247874078641_);}
	.st222{fill:url(#SVGID_00000150807948174378996730000010586513156015953052_);}
	.st223{fill:url(#SVGID_00000127008879337000322490000006964344827476055685_);}
	.st224{fill:url(#SVGID_00000032609048339405945600000002743132491114269884_);}
	.st225{fill:url(#SVGID_00000108267756902636195940000012465201496008060095_);}
	.st226{fill:url(#SVGID_00000025401262177229620870000015667842599546913938_);}
	.st227{fill:url(#SVGID_00000124861375398313577450000009756010684001125011_);}
	.st228{fill:url(#SVGID_00000078756201761931027190000010246315500839704233_);}
	.st229{fill:url(#SVGID_00000066505184700657728690000000111918217470962099_);}
	.st230{fill:url(#SVGID_00000155104619516403713550000008719272944425696954_);}
	.st231{fill:url(#SVGID_00000088820466638189290500000000484895293807514021_);}
	.st232{fill:url(#SVGID_00000180343086741762323160000005120250428756585378_);}
	.st233{fill:url(#SVGID_00000005224676274075562710000010417340444084295058_);}
	.st234{fill:url(#SVGID_00000096761304950791665980000010319501192239349425_);}
	.st235{fill:url(#SVGID_00000052098455085613426960000012616360209382647709_);}
	.st236{fill:url(#SVGID_00000017498575590956788990000009119851317117392564_);}
	.st237{fill-rule:evenodd;clip-rule:evenodd;fill:url(#SVGID_00000132047843300538511720000010219731649930662540_);}
	.st238{fill:url(#SVGID_00000130646863639186211250000007478602981415189170_);}
	.st239{fill:url(#SVGID_00000131332841691586671220000003559132060685262224_);}
	.st240{fill:url(#SVGID_00000181073508170229013850000011131644199194573993_);}
	.st241{fill:url(#SVGID_00000158747760766944537650000009034251315528261534_);}
	.st242{fill:url(#SVGID_00000115516371511759998700000016864191795197513616_);}
	.st243{fill:url(#SVGID_00000051359951479997149290000006821154320945798063_);}
	.st244{fill:url(#SVGID_00000180358772595267761730000010405576533604265394_);}
	.st245{fill:url(#SVGID_00000000911778611218446510000014962432217039722411_);}
	.st246{fill:url(#SVGID_00000142135391524940409210000008866446875491233414_);}
	.st247{fill:url(#SVGID_00000080168136486206498540000007048877664084001714_);}
	.st248{fill:url(#SVGID_00000145750864645376111340000000311414735481527468_);}
	.st249{fill:url(#SVGID_00000168813615066027355780000017738760301845841849_);}
	.st250{fill:url(#SVGID_00000034779230460801126580000009526043365419014816_);}
	.st251{fill:url(#SVGID_00000022551798228532974370000013659677081485164175_);}
	.st252{fill:url(#SVGID_00000038391899700262527100000014896925372011221685_);}
	.st253{fill-rule:evenodd;clip-rule:evenodd;fill:url(#SVGID_00000153705990671100287820000017801096610918051461_);}
	.st254{fill:url(#SVGID_00000178885673114365033300000018045761449424842666_);}
	.st255{fill:url(#SVGID_00000049223656387508635830000003091573891955672749_);}
	.st256{fill:url(#SVGID_00000023277868350561366110000007835795127647708565_);}
	.st257{fill:url(#SVGID_00000081642431443931310010000001337721015469570999_);}
	.st258{fill:url(#SVGID_00000145780437487366578060000014020600470537847439_);}
	.st259{fill:url(#SVGID_00000034804709546293547810000015181721586541783939_);}
	.st260{fill:url(#SVGID_00000155865038935869679230000008633245828898378923_);}
	.st261{fill:url(#SVGID_00000045591621992449493380000014698220083475224724_);}
	.st262{fill:url(#SVGID_00000011004138544567530050000002960785585294640285_);}
	.st263{fill:url(#SVGID_00000094577706979912914560000000008882815391053748_);}
	.st264{fill:url(#SVGID_00000000934576192702878970000010415637250042034354_);}
	.st265{fill:url(#SVGID_00000142148578930374843880000008255317357074341309_);}
	.st266{fill:url(#SVGID_00000088820337950549898510000002483812088336460706_);}
	.st267{fill:url(#SVGID_00000052801373648160584490000014818127255205117374_);}
	.st268{fill:url(#SVGID_00000137813014420078020660000001294576133237814182_);}
	.st269{fill-rule:evenodd;clip-rule:evenodd;fill:url(#SVGID_00000129182059416846158990000007074286694587212432_);}
	.st270{fill:url(#SVGID_00000032634152112451908480000000965700051874301848_);}
	.st271{fill:url(#SVGID_00000016758768673455847100000009390442639269166249_);}
	.st272{fill:url(#SVGID_00000070095361913766154560000001001019795343069087_);}
	.st273{fill:url(#SVGID_00000106867419310988431750000008012118988151442357_);}
	.st274{fill:url(#SVGID_00000012470194838882652550000017365539530890395573_);}
	.st275{fill:url(#SVGID_00000140732421379042451110000007008622287220826806_);}
	.st276{fill:url(#SVGID_00000101103294540281629490000000134070343911582596_);}
	.st277{fill:url(#SVGID_00000056395420531450024330000004429521158818370181_);}
	.st278{fill:url(#SVGID_00000028318077625607153800000012298014086224678529_);}
	.st279{fill:url(#SVGID_00000088841177540748622650000009005465839073400727_);}
	.st280{fill:url(#SVGID_00000085223681411928654120000012386827584367597477_);}
	.st281{fill:url(#SVGID_00000105391345940514393430000009569972277455214214_);}
	.st282{fill:url(#SVGID_00000047056929578017727630000002128447815901714843_);}
	.st283{fill:url(#SVGID_00000086665781283236425430000000362961962722490032_);}
	.st284{fill:url(#SVGID_00000095313947452700765540000010272825988087789757_);}
	.st285{fill-rule:evenodd;clip-rule:evenodd;fill:url(#SVGID_00000126291288749404988350000004579783885929518990_);}
	.st286{fill:url(#SVGID_00000031178389539954686490000013338214889855151264_);}
	.st287{fill:url(#SVGID_00000122695850927774230740000009870596744377209010_);}
	.st288{fill:url(#SVGID_00000029010567600172395990000005775868803164219053_);}
	.st289{fill:url(#SVGID_00000152973121983295072450000004468192250869524361_);}
	.st290{fill:url(#SVGID_00000164512988945228882620000015042837369953358977_);}
	.st291{fill:url(#SVGID_00000039130793810137281630000009232101407886217865_);}
	.st292{fill:url(#SVGID_00000006681476897049828250000008681737576049101994_);}
	.st293{fill:url(#SVGID_00000016766624248639119850000001557338551831955344_);}
	.st294{fill:url(#SVGID_00000037655330139326709850000017223875661228428428_);}
	.st295{fill:url(#SVGID_00000137843151968101392950000007614743519875573893_);}
	.st296{fill:url(#SVGID_00000042004370359407874850000018399200410565508228_);}
	.st297{fill:url(#SVGID_00000057127886492007265830000013082426100477497514_);}
	.st298{fill:url(#SVGID_00000021806652614982357200000017871778836317973898_);}
	.st299{fill:url(#SVGID_00000102533761875924499810000001851550711930848641_);}
	.st300{fill:url(#SVGID_00000049206502890559195260000005700293619969194383_);}
	.st301{fill:url(#SVGID_00000027584123468748370430000000562368721526026157_);}
	.st302{fill:url(#SVGID_00000080177821141286798940000002628452779918253207_);}
	.st303{fill:url(#SVGID_00000173149124319859490280000006240380611082342819_);}
	.st304{fill-rule:evenodd;clip-rule:evenodd;fill:url(#SVGID_00000031205491331966633760000012936619162185577401_);}
	.st305{fill:url(#SVGID_00000140703157005633525060000002390552002369291184_);}
	.st306{fill:url(#SVGID_00000058582623231760170820000013370745360590872459_);}
	.st307{fill:url(#SVGID_00000000201421738363772880000013320023786767442102_);}
	.st308{fill:url(#SVGID_00000129920802028310328940000004927598511267406235_);}
	.st309{fill:url(#SVGID_00000062191166828980411030000005423363413999427516_);}
	.st310{fill:url(#SVGID_00000061445307335955127620000005252756551602992315_);}
	.st311{fill:url(#SVGID_00000144339957444705451870000014329200104349355416_);}
	.st312{fill:url(#SVGID_00000152238407153600762550000016240035792917240733_);}
	.st313{fill:url(#SVGID_00000136380226785873006590000012636816002434922421_);}
	.st314{fill:url(#SVGID_00000134945117068215877670000015581378590364311477_);}
	.st315{fill:url(#SVGID_00000111168661044856296440000008878611630055624619_);}
	.st316{fill:url(#SVGID_00000131343103973754087900000002624201402417740944_);}
	.st317{fill:url(#SVGID_00000018936394841577850990000018258389132392761754_);}
	.st318{fill:url(#SVGID_00000054979977308494035880000002664125582302953100_);}
	.st319{fill:url(#SVGID_00000008844814511815144490000003395334295074726581_);}
	.st320{fill:url(#SVGID_00000039841283199415534630000009573282864073827231_);}
	.st321{fill:url(#SVGID_00000132066855835432674100000013797495111615449526_);}
	.st322{fill:url(#SVGID_00000000916740786270684240000015332050786319916685_);}
	.st323{fill:url(#SVGID_00000139992467312562418040000017444459846671639438_);}
	.st324{fill:url(#SVGID_00000106125866623183650200000012812658097799526584_);}
	.st325{fill-rule:evenodd;clip-rule:evenodd;fill:url(#SVGID_00000018224574853748538260000010809386775187205018_);}
	.st326{fill:url(#SVGID_00000066509924662774288910000009407124604031625879_);}
	.st327{fill:url(#SVGID_00000094601382656819335040000018157818803090673302_);}
	.st328{fill:url(#SVGID_00000142164517185884344390000005324230082968915595_);}
	.st329{fill:url(#SVGID_00000168108454955914657530000018089165312687782835_);}
	.st330{fill:url(#SVGID_00000152976487591101916220000005855748259431799688_);}
	.st331{fill:url(#SVGID_00000138551622519506080570000014432345252217958076_);}
	.st332{fill:url(#SVGID_00000148619324227189855720000014048013324780723641_);}
	.st333{fill:url(#SVGID_00000151538934008503449360000001928866560202623670_);}
	.st334{fill:url(#SVGID_00000091721457194726743670000013105006719718414251_);}
	.st335{fill:url(#SVGID_00000052071956268442904620000006405845385307087492_);}
	.st336{fill:url(#SVGID_00000139977406601437471320000012964292769119694473_);}
	.st337{fill:url(#SVGID_00000097462911062067308950000012324133132996190344_);}
	.st338{fill:url(#SVGID_00000106111669781616677610000013223744597304730779_);}
	.st339{fill:url(#SVGID_00000107557487150165829620000010407297453297313937_);}
	.st340{fill:url(#SVGID_00000001665703482137414750000001812875277771581094_);}
	.st341{fill:url(#SVGID_00000013189529804277666360000008008235414386937238_);}
	.st342{fill-rule:evenodd;clip-rule:evenodd;fill:url(#SVGID_00000036934089701618858810000009880326444736131470_);}
	.st343{fill:url(#SVGID_00000162325599637288728300000005002732520858855829_);}
	.st344{fill:url(#SVGID_00000168076673251358068320000010355082951994531502_);}
	.st345{fill:url(#SVGID_00000181783577504277257600000008305924081143810741_);}
	.st346{fill:url(#SVGID_00000183249773302770367720000014278386416964653233_);}
	.st347{fill:url(#SVGID_00000098899088128585061600000016826412668372788886_);}
	.st348{fill:url(#SVGID_00000041999345507076608820000010249528999132485036_);}
	.st349{fill:url(#SVGID_00000034056993077919203480000010981272192125913528_);}
	.st350{fill:url(#SVGID_00000176043578629603656930000004446619734032747453_);}
	.st351{fill:url(#SVGID_00000158012376185221867620000003806726609803672983_);}
	.st352{fill:url(#SVGID_00000165941888168949672370000015970481978183770792_);}
	.st353{fill:url(#SVGID_00000144322600512787397220000002744186891123206048_);}
	.st354{fill:url(#SVGID_00000076572013977102551460000007984962079989383335_);}
	.st355{fill:url(#SVGID_00000060008960369293339460000008301536244696114332_);}
	.st356{fill:url(#SVGID_00000061464556169016773190000001136315078527143856_);}
	.st357{fill:url(#SVGID_00000138563053236642198450000013885700765828431545_);}
	.st358{fill:url(#SVGID_00000060006214071429195970000017546286664183132081_);}
	.st359{fill:url(#SVGID_00000118385453974082941570000003486582284154901164_);}
	.st360{fill:url(#SVGID_00000038406169213079984980000003549068584325475474_);}
	.st361{fill:url(#SVGID_00000123404200374175275320000004699034763511616421_);}
	.st362{fill:url(#SVGID_00000176010699675505378120000007709779657206755970_);}
	.st363{fill:#C1282D;}
	.st364{fill-rule:evenodd;clip-rule:evenodd;fill:url(#SVGID_00000127038686898610633990000016937121908380778123_);}
	.st365{fill:url(#SVGID_00000060743113393983125730000009299441624394703244_);}
	.st366{fill:url(#SVGID_00000045596802340292595610000013865413666484380812_);}
	.st367{fill:url(#SVGID_00000097501628594946980420000005586865082272022151_);}
	.st368{fill:url(#SVGID_00000098903079434982387220000017973869447405825173_);}
	.st369{fill:url(#SVGID_00000117647885109475167710000010885745431356897413_);}
	.st370{fill:url(#SVGID_00000044891669699006147630000012303290153272633758_);}
	.st371{fill:url(#SVGID_00000053519616786810679750000014535742318411501490_);}
	.st372{fill:url(#SVGID_00000102513172992822430050000003367483706278881969_);}
	.st373{fill:url(#SVGID_00000004526526847503375620000003943929512145380259_);}
	.st374{fill:url(#SVGID_00000079448863619011470880000001084052233614090680_);}
	.st375{fill:url(#SVGID_00000114046229949048742270000011244898199124233662_);}
	.st376{fill:url(#SVGID_00000039110917205101940870000008861727617227966097_);}
	.st377{fill:url(#SVGID_00000045601651974265753080000015397380155629638044_);}
	.st378{fill:url(#SVGID_00000172407646760437579740000004322894729996432311_);}
	.st379{fill:url(#SVGID_00000004529209949813645540000008320928827387748277_);}
	.st380{fill:url(#SVGID_00000029744342005783816110000014866361744179927689_);}
	.st381{fill-rule:evenodd;clip-rule:evenodd;fill:url(#SVGID_00000010270463593029663460000013101533879064374189_);}
	.st382{fill:url(#SVGID_00000078032516453297286590000002502505401496108674_);}
	.st383{fill:url(#SVGID_00000061444320992175716750000004369540690343576472_);}
	.st384{fill:url(#SVGID_00000111158286938713955250000005741514581818000306_);}
	.st385{fill:url(#SVGID_00000114038866994842208860000016596837801542763406_);}
	.st386{fill:url(#SVGID_00000058552415677722341810000005094579126603076776_);}
	.st387{fill:url(#SVGID_00000048484870727321648580000012392464384547984055_);}
	.st388{fill:url(#SVGID_00000150074313831366052140000002974362037372979586_);}
	.st389{fill:url(#SVGID_00000183957909216017510630000002123890903810578067_);}
	.st390{fill:url(#SVGID_00000137092962660668406760000001422946947337836936_);}
	.st391{fill:url(#SVGID_00000172411661149905303120000016787301276929500290_);}
	.st392{fill:url(#SVGID_00000057143861104606695960000017069355867496329874_);}
	.st393{fill:url(#SVGID_00000057119499942046910130000007390739401270877579_);}
	.st394{fill:url(#SVGID_00000005236543628507032280000002916349626057098137_);}
	.st395{fill:url(#SVGID_00000009580163763883093260000016155285849432210587_);}
	.st396{fill:url(#SVGID_00000160880060731775787220000015743703703186773384_);}
	.st397{fill:url(#SVGID_00000011711408585778642290000006836412958254780557_);}
	.st398{fill:url(#SVGID_00000177470717451493225480000007490793230542933688_);}
	.st399{fill:url(#SVGID_00000106868164414585113090000012008732967659823003_);}
	.st400{fill:url(#SVGID_00000123425792056564797140000005347097828481808795_);}
	.st401{fill:url(#SVGID_00000079449852309981443000000011384761644904794531_);}
</style>
<g>
	<path d="M998.69,454.82c0.39,0.02,0.97,0.08,1.77,0.15c0.81,0.09,1.61,0.14,2.39,0.18c0.78,0.05,1.4,0.07,1.89,0.07
		c0.39,0,0.99-0.01,1.79-0.09c0.77-0.05,1.56-0.09,2.32-0.17c0.77-0.07,1.43-0.12,1.96-0.15v96.8c-0.81-0.04-1.86-0.14-3.15-0.25
		c-1.31-0.12-2.27-0.17-2.92-0.17c-0.67,0-1.7,0.04-3.11,0.17c-1.38,0.11-2.37,0.21-2.94,0.25V454.82z M967.55,454.82
		c1.4,13.54,2.44,23.22,3.04,29.03c0.62,5.82,1.44,13.18,2.46,22.15c1.03,8.94,1.99,17.15,2.94,24.6
		c0.94,7.48,1.86,14.49,2.73,21.02c-0.94-0.04-2.12-0.14-3.5-0.25c-1.38-0.12-2.37-0.17-3.01-0.17c-0.76,0-1.86,0.04-3.33,0.17
		c-1.45,0.11-2.49,0.21-3.13,0.25c-0.58-6.98-1.35-16.04-2.34-27.2c-0.99-11.16-1.86-20.46-2.62-27.89
		c-0.74-7.43-1.43-13.4-2.07-17.95c-17.36,31.77-29.41,55.6-36.15,71.48h-1.52l-7.59-16.02c-2.25-4.84-4.57-9.61-6.92-14.32
		c-2.34-4.7-4.57-9.18-6.72-13.38c-2.16-4.22-4.46-8.75-6.94-13.61c-2.49-4.83-4.9-9.55-7.27-14.15c-0.32,3.18-1.01,9.26-2.05,18.26
		c-1.04,8.99-1.89,16.72-2.55,23.23c-0.67,6.51-1.2,12.36-1.59,17.58c-0.39,5.21-0.57,9.86-0.57,13.96
		c-0.7-0.04-1.57-0.14-2.58-0.25c-1.01-0.12-1.78-0.17-2.23-0.17c-0.65,0-1.5,0.04-2.6,0.17c-1.11,0.11-1.91,0.21-2.38,0.25
		c0.9-5.66,2.44-16.08,4.61-31.28c2.17-15.2,4.05-28.71,5.59-40.55c1.57-11.84,2.58-20.18,3.01-24.97h3.61
		c4.56,9.28,8.85,17.89,12.88,25.88c4.02,8,8.19,15.98,12.46,23.93c4.28,7.97,8.83,16.09,13.68,24.35
		c0.78-1.42,3.36-6.24,7.71-14.37c4.37-8.17,8.23-15.43,11.62-21.82c3.38-6.4,6.55-12.39,9.54-17.96
		c2.99-5.57,6.59-12.25,10.88-20.01H967.55z M753.8,503.18c0-7.57,1.28-14.51,3.89-20.78c2.59-6.28,6.23-11.63,10.88-16.05
		c4.67-4.4,10.09-7.81,16.3-10.16c6.19-2.34,12.86-3.52,20.01-3.52c6.72,0,13.18,0.97,19.38,2.87c6.24,1.92,11.83,4.84,16.76,8.81
		c4.95,3.96,8.88,9.04,11.78,15.19c2.9,6.19,4.35,13.35,4.35,21.54c0,7.77-1.27,14.87-3.82,21.31c-2.55,6.44-6.21,11.98-10.95,16.61
		c-4.75,4.65-10.34,8.19-16.81,10.64c-6.44,2.43-13.43,3.66-21.02,3.66c-7.5,0-14.38-1.19-20.66-3.54
		c-6.27-2.36-11.65-5.75-16.16-10.19c-4.49-4.43-7.94-9.74-10.33-15.93C754.99,517.44,753.8,510.64,753.8,503.18z M834.93,471.1
		c-3.41-4.44-7.64-7.84-12.72-10.2c-5.07-2.38-10.4-3.56-15.96-3.56c-7.98,0-14.9,1.96-20.79,5.88c-5.89,3.92-10.4,9.46-13.5,16.66
		c-3.11,7.17-4.67,15.52-4.67,25.03c0,9.22,1.68,17.13,5.01,23.76c3.36,6.61,7.92,11.59,13.66,14.93c5.75,3.35,12.1,5.03,19.02,5.03
		c6.63,0,12.4-1.46,17.34-4.41c4.92-2.93,8.97-6.75,12.09-11.47c3.16-4.72,5.45-9.77,6.98-15.17c1.49-5.4,2.25-10.52,2.25-15.36
		c0-6.56-0.62-12.29-1.85-17.17C840.57,480.13,838.26,475.49,834.93,471.1z M733.76,471.78c-3.79-4.43-8.41-7.83-13.89-10.19
		c-5.47-2.36-11.2-3.54-17.15-3.54c-5.86,0-11.24,0.97-16.14,2.93c-4.88,1.95-9.06,4.83-12.57,8.63c-3.5,3.78-6.21,8.45-8.14,13.99
		c-1.91,5.54-2.87,11.84-2.87,18.87c0,9.39,1.56,17.49,4.67,24.3c3.1,6.82,7.78,12.03,13.99,15.68c6.18,3.63,13.72,5.45,22.6,5.45
		c8.37,0,15.55-1.6,21.54-4.81v-36.38c0.42,0.02,1.04,0.07,1.82,0.14c0.77,0.07,1.56,0.14,2.34,0.19c0.78,0.07,1.4,0.1,1.89,0.1
		c0.38,0,0.99-0.02,1.79-0.1c0.77-0.05,1.56-0.12,2.32-0.19c0.76-0.07,1.43-0.12,1.96-0.14v40.06c-12.26,4.34-24.77,6.51-37.51,6.51
		c-11.29,0-20.75-2.12-28.38-6.39c-7.61-4.27-13.27-10.17-16.97-17.69c-3.7-7.53-5.56-16.22-5.56-26.03c0-10.66,2.3-19.8,6.92-27.44
		c4.6-7.62,10.99-13.38,19.17-17.24c8.17-3.89,17.41-5.83,27.71-5.83c6.12,0,11.64,0.49,16.56,1.49c4.92,0.99,8.85,2.1,11.77,3.33
		c2.92,1.22,5.2,2.35,6.8,3.4c-0.71,2.03-1.74,5.66-3.14,10.89H733.76z M592.05,471.22l-15.04,36.22h30.36L592.05,471.22z
		 M638.41,551.62c-0.91-0.04-2.16-0.14-3.7-0.25c-1.56-0.12-2.69-0.17-3.45-0.17c-0.9,0-2.16,0.04-3.8,0.17
		c-1.66,0.11-2.82,0.21-3.54,0.25c-1.17-3.49-2.6-7.52-4.26-12.15c-1.68-4.63-3.35-9.08-5.06-13.38c-1.68-4.27-3.4-8.52-5.17-12.71
		h-35.05c-6.92,17.88-11.48,30.64-13.68,38.24c-0.74-0.04-1.66-0.14-2.72-0.25c-1.08-0.12-1.86-0.17-2.37-0.17
		c-0.65,0-1.51,0.07-2.62,0.18c-1.11,0.15-1.84,0.22-2.2,0.24l43.03-98.94h3.21L638.41,551.62z M535.06,551.62h-4.14
		c-2.05-2.64-4.44-5.52-7.18-8.63l-59.58-67.65h-1.39v76.28c-0.5-0.04-1.19-0.14-2.02-0.25c-0.83-0.12-1.45-0.17-1.85-0.17
		c-0.48,0-1.15,0.04-2.02,0.17c-0.87,0.11-1.47,0.21-1.82,0.25v-96.8h5.37l65.54,72.88h1.39v-72.88c0.62,0.08,1.29,0.15,1.95,0.26
		c0.67,0.09,1.31,0.14,1.91,0.14c0.28,0,0.64-0.01,1.13-0.07c0.48-0.04,0.98-0.1,1.49-0.18c0.5-0.07,0.9-0.12,1.22-0.15V551.62z"/>
	<path class="st54" d="M388.56,541.59c0.49,0.1,0.98-0.58,1.01-0.96c0.04-0.37,0.08-0.5,0.33-0.81c0.25-0.31,0.63-1.13,0.2-1.59
		c-0.43-0.45-0.98-0.59-1.39-0.47c-0.27,0.09-0.45,0.34-0.58,0.67C387.88,539.06,387.71,541.42,388.56,541.59 M385.95,540.85
		c0.68,0.19,1.44-0.47,1.42-1.18c-0.02-1.29-0.61-1.67-1.17-1.62c-0.42,0.04-0.82,0.31-0.95,0.61
		C384.95,539.37,385.21,540.65,385.95,540.85z M380.4,521.46c0.34,0.85,1.02,2.9,1.56,3.7c0.54,0.79,0.8,1.08,0.8,1.4
		c0,0.31-0.18,0.65-0.43,0.65c-0.26,0-1.19,0.54-0.85,1.23c0.34,0.68,1.48,0.59,1.98,0.62c0.51,0.04,0.98,0.24,1,0.52
		c0.03,0.29-0.31,1.51,0.17,1.93c0.49,0.43,1.23,0.4,1.45-0.17c0.23-0.57,0.2-2.08,0.77-2.22c0.57-0.14,2.91-0.71,3.02-1.42
		c0.11-0.71,0.03-3.11-0.31-4.01c-0.34-0.91-0.49-0.97-0.22-1.62c0.25-0.66,0.37-3.27,0.37-3.99c0-0.72,0-3.95-0.45-4.53
		c-0.45-0.57-0.71-0.99-1.03-0.62c-0.31,0.37-0.43,0.79-0.43,1.42c0,0.63-0.11,0.71-0.51,1.03c-0.39,0.32-0.93,1.05-0.97,2.81
		c-0.02,1.77-0.09,4.07-0.14,4.35c-0.06,0.29-0.6,0.34-1.17,0.71c-0.57,0.37-0.65,0.88-1.34,0.91c-0.68,0.04-1.19,0.11-1.22-0.79
		c-0.02-0.91-0.26-0.88,0.14-1.34c0.4-0.45,0.74-0.88,0.43-1.13c-0.31-0.26-0.88,0.05-0.97-0.71c-0.09-0.77-0.25-1.6,0.14-1.37
		c0.4,0.23,0.11,0.74,0.83,0.8c0.71,0.05,1.34-1.03,1.08-1.72c-0.25-0.68-0.93-1.82-1.85-1.33c-0.91,0.48-1.34,1.14-1.42,1.53
		C380.61,519.12,379.8,519.98,380.4,521.46z M381.57,533.72c0.51,0.17,1.9-0.14,1.76-1.4c-0.14-1.25-0.09-2-0.97-1.79
		c-0.88,0.2-0.6,1.03-0.99,1c-0.4-0.03-0.51-0.51-0.54-1.03c-0.03-0.52-0.74-0.52-1.12-0.29c-0.37,0.24-0.57,0.63-0.48,1.05
		C379.42,532.2,380.76,533.46,381.57,533.72z M378.18,524.85c0.48,0.43,0.57,0.68,0.59,1.31c0.04,0.63-0.14,1.14,0.49,1.26
		c0.63,0.11,1.22-0.94,1.22-2.02c0-1.08,0.09-2.36-0.65-2.67c-0.74-0.31-1.42-0.2-1.65,0.02
		C377.56,523.37,377.47,524.22,378.18,524.85z M375.71,504.92c0.36,0.95,1.17,3.02,1.9,4.27c0.97,1.64,1.31,1.7,1.53,0.79
		c0.24-0.91-0.5-1.6-0.57-2.16c-0.06-0.57-0.29-1.66,0.8-1.77c1.08-0.11,1.13,0.63,1.31-0.68c0.17-1.31,0.34-2.79-0.45-3.82
		c-2.43-3.12-1.9,0.2-1.59,1.2c0.17,0.57,0.68,1.25-0.18,1.2c-0.85-0.06-0.96-0.46-1.31-0.85c-0.35-0.4-0.35-0.8-0.97-0.63
		c-0.63,0.17-0.74,0.56-0.74,0.91C375.45,504.06,375.48,504.31,375.71,504.92z M378.21,486.78c0.97,0.65,1.71,0.99,2.1,0.51
		c0.4-0.49,0.06-1.25-0.48-1.68c-0.54-0.43-1.19-0.43-1.31-1.14c-0.11-0.71-0.17-1.51-0.7-1.65c-0.83-0.22-1.13,0.2-1.12,0.84
		C376.7,484.7,377.49,486.3,378.21,486.78z M374.16,488.18c1.58,0.24,2.76,0.29,2.96-0.37c0.2-0.65-0.31-1.88-0.91-2.53
		c-0.6-0.65-0.94-1.68-2.02-1.23C371.81,485.06,372.59,487.94,374.16,488.18z M277.33,486.33c0.83-0.34,2.19-1,3.05-1.17
		c0.85-0.17,3.81-1.12,4.49-1.57c0.68-0.45,0.72-1.48,0.4-1.79c-0.31-0.32-1.28-0.68-2.13-0.17c-0.85,0.5-2.02,1.51-3.05,1.93
		c-1.03,0.43-2.25,0.74-3.21,0.85c-1.35,0.16-2.03,0.98-1.97,1.58C274.96,486.6,275.75,486.99,277.33,486.33z M270.55,484.63
		c0.18-0.35,0.46-0.86,1.17-0.43c0.72,0.43,1.17,0.2,1.17,0.74c0,0.54-0.34,0.68-0.77,0.79c-0.34,0.08-1.43,1.68-2.45,1
		C268.15,485.71,270.12,485.48,270.55,484.63z M257.03,497.26c0.51,0.65,0.92,0.88,1.45,0.59c0.54-0.28,0.79-1.05,0.37-1.68
		C257.94,494.84,256.47,496.55,257.03,497.26z M255.21,495.09c0.94-0.4,1.48-1.11,1.26-1.79c-0.23-0.68-0.31-1.36-0.97-1.22
		c-0.66,0.14-1.2,1.03-1.37,1.37C253.59,494.52,253.77,495.71,255.21,495.09z M245.57,483.62c0,0-0.43,1.54,0.2,1.77
		c0.63,0.23,1.57-0.43,2.62-1.79s2.02-2.13,2.88-3.12c0.12-0.15,1.9-1.59,3.36-4.11c1.25-2.19,2.45-5.59,0.02-4.83
		c-1,0.31-3.85,3.7-4.96,5.33c-1.11,1.62-3.25,4.78-3.53,5.4C245.88,482.88,245.57,483.62,245.57,483.62z M225.14,513.12
		c0,0-0.34-0.46-0.09-1.19c0.25-0.74,0.43-0.63,0.57-1.51c0.15-0.88,0.58-1.51,1.32-0.86c0.74,0.65,0.77,1.48,0.39,1.82
		c-0.37,0.34-0.54,0.65-0.5,1.05c0.02,0.4,0,1.45-0.66,1.45C225.5,513.89,225.14,513.12,225.14,513.12z M238.71,488.8
		c0,0,3.27-5.16,4.07-6.1c0.79-0.94,1.22-1.42,1.93-0.83c0.71,0.6-0.14,1.51-0.63,2.22c-1.04,1.53-2.53,3.98-3.69,5.38
		C238.95,491.24,238.17,489.65,238.71,488.8z M219.82,538.01c-0.28-0.81-0.75-1.86-0.36-2.43c0.4-0.58,0.99-1.04,1.88-0.15
		c0.89,0.9,1.7,2.04,1.23,3.56c-0.47,1.52-0.62,2.12-1.25,2.49c-0.65,0.37-1.34,0.52-1.62-0.3c-0.29-0.82,0.21-1.24,0.27-2.04
		C220.02,538.35,219.82,538.01,219.82,538.01z M219.04,527.69c0,0,0.42-3.11,0.23-4.17c-0.19-1.06-0.61-2.24,0-3.99
		c0.61-1.74,1.16-3.15,1.33-3.6c0.17-0.46-0.3-0.87-0.17-1.88c0.13-1,0.61-1.85,1.06-1.93c0.45-0.07,0.79,0.19,0.7,0.55
		c-0.1,0.37-0.56,1.17-0.32,1.41c0.22,0.23,0.77,0.32,1.04-0.06c0.27-0.38,0.69-1.71,0.92-2.24c0.22-0.53,0.26-1.26,0.26-1.9
		c0-0.65,0-1.67,0.61-2.27c0.61-0.61,1.59-1.98,2.01-2.77c0.42-0.8,1.03-1.79,1.03-1.79s0.38-2.62,0.34-3.46
		c-0.03-0.83,0.19-0.95,0.72-1.44c0.53-0.49,0.79-0.8,0.95-1.44c0.15-0.65-0.08-0.99-0.27-1.26c-0.19-0.26-0.87-0.76-0.57-1.43
		c0.3-0.69,0.7-1.01,1.04-1.67c0.34-0.66,0.87-1.25,1.32-1.63c0.45-0.38,2.01-1.99,2.62-3.47c0.6-1.48,0.76-3.14,0.91-3.6
		c0.16-0.45,1.33-0.45,1.9-0.42c0.57,0.04,1.11-0.19,1.14-0.84c0.04-0.65,0.11-1.59,0.95-2.35c0.84-0.76,6.92-5.97,7.99-7.26
		c1.06-1.29,2.51-2.54,3-2.81c0.49-0.26,3.07-1.55,4.22-2.42c1.14-0.88,5.15-3.99,5.84-4.86c0.68-0.87,1.93-1.45,2.73-1.75
		c0.79-0.29,2.16-0.68,2.16-0.68s0.19-1.82,0.38-2.2c0.18-0.38,3.9-3.79,4.09-3.83c0.19-0.04,2.65-0.11,2.88-0.11
		s2.62-2.2,3.46-2.66c0.84-0.45,2.58-1.25,3.33-1.4c0.76-0.15,1.45-0.38,1.79-0.61c0.34-0.23,0.87-0.34,1.18-0.38
		c0.3-0.04,1.18-0.38,1.18-0.38s1.11-1.82,1.51-1.97c0.42-0.16,2.81,0.26,3.46,0.26c0.65,0,1.18-0.08,1.18-0.08s1.56-1.97,1.93-2.05
		c0.38-0.08,8.35-2.16,11.5-2.73c3.15-0.57,9.61-1.66,10.59-1.63c0.98,0.04,5.92-0.08,6.41-0.08c0.5,0,1.06-0.02,1.37-0.23
		c0.3-0.21,1.2,0,1.39,0.37c0.19,0.36,2.38,2.58,3.08,3.11c0.7,0.53,2.32,1.02,2.49,1.08c0.17,0.06,1.74,0.42,2.24,0.57
		c0.49,0.16,0.96,0.67,1.08,1.03c0.11,0.36,1.48,2.3,2.05,2.37c0.57,0.08,2.45-0.03,2.94,0.1c0.5,0.13,1.1,0.89,1.23,1.29
		c0.14,0.4,0.67,2.06,1.24,2.24c0.57,0.19,1.84,0.31,2.37,0.32c0.53,0.03,2.64,0.27,3.83,0.5c1.2,0.23,6,1.93,7.93,2.62
		c1.94,0.68,3.83,1.55,4.75,1.55c0.91,0,1.59-0.23,2.35,0.72c0.76,0.95,2.77,2.28,3.83,2.77c1.06,0.5,3.45,1.03,4.25,1.79
		c0.79,0.76,1.37,1.48,2.27,2.92c0.92,1.45,1.37,2.01,2.01,2.32c0.65,0.3,2.06,0.46,2.85,1.67c0.8,1.21,1.33,3,2.35,3.98
		c1.03,0.99,2.51,0.92,3.41,2.89c0.92,1.97,1.37,2.27,1.41,2.77c0.04,0.49-0.16,2.2,0.07,3c0.23,0.79,0.69,1.74,0.69,2.35
		c0,0.61,0.15,0.95,0.15,0.95s1.51-0.03,1.82,0.08c0.3,0.11,0.57,0.53,0.53,1.29c-0.04,0.76,0.04,1.82,0.16,2.05
		c0.11,0.23,1.82,1.18,2.05,1.9c0.22,0.72,0.61,1.29,1.03,2.77c0.42,1.48,0.45,2.66,0.95,3.11c0.49,0.46,1.1,1.52,0.76,2.01
		c-0.34,0.5,0.15,0.83-0.69,0.53c-0.83-0.3-0.95-0.45-0.95-0.45s-0.38,0.84-0.53,1.1c-0.15,0.27-0.83,0.76-1.1,1.4
		c-0.26,0.65-0.45,0.8-0.19,1.41c0.27,0.6,1.06,1.44,0.73,1.9c-0.34,0.45-0.87-0.04-1.48,0.26c-0.61,0.31-0.3,1.26-0.08,1.52
		c0.24,0.27,1.3-0.15,1.48,0.31c0.19,0.45,0.53,1.7,0.57,2.24c0.04,0.53,0.31,0.61,0.49,0.73c0.19,0.11,0.61,0.15,0.61,0.15
		s0.99-1.52,1.29-2.39c0.3-0.87,0.57-2.35,1.03-2.39c0.45-0.04,1.7,1.11,1.93,1.79c0.23,0.69,1.29,2.81,1.33,3.07
		c0.03,0.27,0.11,1.75,0.18,2.77c0.08,1.03,0.23,1.48,0.57,1.86c0.34,0.38,1.13,0.42,1.18,1.06c0.03,0.65-0.23,0.99-0.38,1.6
		c-0.15,0.6-0.23,1.48-0.26,1.82c-0.04,0.34-0.19,0.91-0.84,0.91c-0.65,0-1.03-0.6-1.03-2.12c0-1.52-0.22-3.15-0.45-4.4
		c-0.23-1.25-0.95-2.54-0.95-2.54s-0.65,0.42-0.65,0.92c0,0.49,0.26,1.44,0.42,1.86c0.15,0.42,0.53,1.1,0.5,1.67
		c-0.04,0.56-0.16,1.71-0.27,2.32c-0.11,0.6,0.03,4.97,0.11,5.46c0.08,0.5,0.42,1.33,0.42,1.52c0,0.19-0.19,0.76-0.4,1.33
		c-0.21,0.57-0.05,1.31,0.17,1.58c0.23,0.26,0.55,0.31,0.55,0.31s0.85-0.9,0.84-1.43c-0.02-0.53,0.08-1.08,0.05-1.23
		c-0.02-0.16,0.16-0.58,0.59-0.21c0.43,0.36,1.12,1.13,1.5,1.4c0.38,0.26,1.16,1.05,1.01,1.63c-0.16,0.59-1.11,1.4-1.11,1.82
		c0,0.42-0.34,3.06-0.15,3.62c0.19,0.57,0.57,1.06,0.57,1.83c0,0.76,0.27,2.18-0.57,2.41c-0.84,0.22-1.82-1.37-1.88-2.06
		c-0.05-0.71,0.1-1.39-0.05-1.73c-0.16-0.34-0.53-1.32-0.92-1.36c-0.38-0.05-0.63,0.29-0.77,0.85c-0.16,0.55-0.18,1.25,0.34,1.9
		c0.51,0.65,0.85,1.06,0.84,1.73c-0.02,0.66-0.46,1.87-0.76,2.14c-0.3,0.26-0.78,2.41-0.9,3.74c-0.11,1.33-0.34,4.52-0.42,5.31
		c-0.07,0.8,0.22,1.71-0.49,1.75c-0.72,0.03-1.14-0.16-1.14-0.61c0-0.45,0.22-1.22-0.19-1.25c-0.42-0.03-0.49,0.73-0.49,1.33
		c0,0.6-0.23,0.94-0.65,0.94c-0.42,0-1.1,0.3-1.21,1.06c-0.11,0.77-0.38,1.94-0.42,2.51c-0.03,0.57-0.15,0.31,0.19,0.95
		c0.34,0.65,0.38,0.79,0.38,1.26c0,0.45-0.07,0.53-0.71,1.06c-0.65,0.53-1.14,0.6-1.26,1.48c-0.11,0.87-1.44,5.23-1.7,5.99
		c-0.27,0.76-0.84,3.57-0.8,4.37c0.04,0.8,0,1.93,0.65,2.28c0.65,0.34,1.33-0.27,1.18-0.95c-0.15-0.69-1.06-2.32-0.53-3.41
		c0.53-1.11,1.17-2.25,1.78-2.28c0.61-0.03,0.76,0.04,1.29,0.31c0.53,0.26,0.99-0.65,1.11-0.99c0.11-0.35,0.15-0.49,0.68-0.49
		c0.53,0,0.87-0.08,0.87-0.08s1.41-4.74,1.33-5.62c-0.08-0.87,0.26-5.12,0.68-6.18c0.42-1.06,1.67-1.37,1.78,0.5
		c0.11,1.86,0.3,4.14-0.08,5.04c-0.38,0.92-1.66,3.42-1.86,4.02c-0.19,0.61-0.53,1.6-0.64,2.28c-0.11,0.68-0.34,1.44-0.34,2.24
		c0,0.79,0,1.37-0.3,1.86c-0.3,0.5-0.3,0.8-0.42,1.22c-0.11,0.42-0.46,1.29-0.8,1.44c-0.34,0.16-0.57-1.29-0.68-1.9
		c-0.11-0.6-0.61-1.66-1.22-1.85c-0.6-0.19-1.1-0.08-0.83,0.9c0.26,1,0.76,1.79,0.65,2.43c-0.11,0.65-0.38,1.25-0.84,1.56
		c-0.46,0.3-0.84,0.49-0.87,1.03c-0.04,0.53,0.45,0.98,0.41,1.89c-0.03,0.92-0.79,1.64-1.4,2.54c-0.6,0.92-0.53,1.56-0.49,2.39
		c0.03,0.84-1.11,1.59-1.67,2.62c-0.57,1.02-1.14,2-1.18,2.72c-0.03,0.72,0.19,1.33-0.03,1.6c-0.24,0.27-0.5,0.87-0.99,0.91
		c-0.49,0.04-1.06-0.57-1.82-0.27c-0.76,0.31-1.97,2.17-2.24,2.88c-0.26,0.72-0.3,1.98-0.23,2.81c0.08,0.83,0.3,2.47-0.92,2.99
		c-1.21,0.53-1.9-0.08-1.63-0.72c0.26-0.65,0.99-0.91,1.06-1.4c0.08-0.5,0.04-1.82-0.08-2.24c-0.11-0.42-0.87-0.8-1.25-0.03
		c-0.38,0.76-0.88,1.89-0.95,2.08c-0.08,0.19-0.04,0.5-0.16,0.95c-0.11,0.45-0.34,1.64-0.72,2.01c-0.37,0.38-0.87,1.18-0.49,1.75
		c0.38,0.56,1.63,0.38,1.29,2.42c-0.34,2.06-0.61,2.77-1.1,3.27c-0.5,0.5-1.86,2.43-2.32,2.51c-0.46,0.07-1,0.57-1.03-0.58
		c-0.03-1.13,0.23-1.85-0.76-1.13c-0.99,0.71-0.84,1.17-0.61,1.78c0.23,0.61,0.92,1.06,0.87,2.66c-0.04,1.59-0.57,3.26-1.36,3.07
		c-0.8-0.18-0.88-0.34-1.06-0.34c-0.19,0-1.03-0.46-1.3,0.22c-0.26,0.69-0.57,2.85-1.82,2.85c-1.25,0-2.2,0.04-2.2,0.04
		s0.57,1.22-0.77,2.17c-1.32,0.95-3.3,1.48-4.01,2.43c-0.72,0.94-2.12,3.22-2.73,3.56c-0.61,0.34-1.4,0.42-2.32,0.45
		c-0.91,0.04-1.63,0.08-1.67,0.42c-0.04,0.35-1.1,3.08-1.82,3.23c-0.72,0.15-1.4-0.04-2.05,0.07c-0.65,0.11-1.86,0.61-2.27,0.72
		c-0.42,0.11-2.01,0.45-1.59,0.91c0.42,0.45,1.21,0.49,1.82,0.19c0.6-0.3,1.74-1.03,1.97-0.77c0.22,0.27,0.46,0.5-0.34,0.92
		c-0.79,0.42-1.51,0.87-1.93,0.91c-0.42,0.03-0.45-0.38-0.95,0.18c-0.5,0.57-0.98,1.48-2.16,1.52c-1.18,0.04-2.4,0.07-2.89,0.3
		c-0.49,0.23-1.93,0.91-3.14,1.52c-1.22,0.6-4.64,0.98-5.65,1.37c-1.03,0.38-5.78,1.85-7.78,2.84c-2.01,0.99-4.36,2.17-5.43,2.2
		c-1.06,0.03-4.29,0-4.93-0.08c-0.64-0.07-1.44-0.07-1.44-0.07s0.69,0.98-0.34,0.98c-1.03,0-1.82-0.76-2.5-0.8
		c-0.69-0.03-1.83-0.15-2.06-0.03c-0.23,0.11-0.07,0.69-0.65,0.69c-0.56,0-6.3-0.12-7.55,0c-1.25,0.11-1.21,0.41-2.2,0.76
		c-0.98,0.34-2.01,0.37-3.22,0.34c-1.21-0.04-14.23-2.43-16.88-3.11c-2.66-0.69-6.33-1.41-7.78-2.54c-1.45-1.14-2.13-2.01-2.27-2.96
		c-0.16-0.95-0.16-1.33,0.87-1.03c1.02,0.3,2.46-0.26,3.38-0.49c0.91-0.23,2.88-0.69,3.79-0.69c0.92,0,13.09,0.04,14.72-0.08
		c1.63-0.11,5.24-0.76,6.83-1.29c1.59-0.53,3.11-0.98,3.38-1.1c0.26-0.11,1.17-0.65,0.98-1.22c-0.19-0.56,0.19-0.79-1.86-0.76
		c-2.06,0.04-7.13,0.04-8.92-0.15c-1.79-0.2-12.45-4.52-16.32-5.81c-3.86-1.29-5.65-2.66-6.75-2.99c-1.11-0.34-2.21-1.03-2.77-1.71
		c-0.57-0.68-1.52-2.01-3.38-2.92c-1.86-0.91-5.89-2.28-7.71-3.69c-1.82-1.4-3.9-2.93-5.65-4.17c-1.74-1.25-3-2.7-3.98-4.41
		c-1-1.71-1.56-2.85-1.56-2.85s0.23-2.05-0.08-2.88c-0.31-0.84-2.66-4.13-2.66-4.13l-4.51-5.8l-0.11-1.03l-2.35-1.98
		c0,0-3.12-5.31-4.41-8.04c-1.29-2.74-1.82-5.01-2.13-8.5c-0.3-3.49-0.98-8.27-1.51-10.17c-0.53-1.9-1.21-5.92-1.06-8.27
		c0.15-2.35,0.13-5.01-0.59-7.17c-0.72-2.17-0.94-6.26-0.68-7.32c0.27-1.06,1.17-1.67,1.33-2.39
		C218.87,529.04,219.04,527.69,219.04,527.69z M238.42,532.5c0,0,0.06,2.09-0.3,2.64c-0.37,0.55-1.04,0.62-1.85,0.62
		c-0.8,0-2.15,0.61-1.29,1.23c0.86,0.62,0.92,0.06,1.85-0.18c0.92-0.24,1.16,0.37,1.23,1.04c0.06,0.67,0.3,4.55,0.12,5.16
		c-0.18,0.61-1.04,0.67-1.47,1.47c-0.44,0.8-0.56,2.27-0.98,3.2c-0.44,0.92-1.54,2.03-1.79,1.29c-0.24-0.73-0.37-1.29,0-2.52
		c0.37-1.23,0.43-2.45,0.43-3.5c0-1.04,0.06-2.59-0.86-0.86c-0.92,1.71-1.41,4.3-1.41,5.41s0.37,2.45,0.8,3.5
		c0.43,1.04,1.29,1.48,0.8,2.09c-0.5,0.62-1.6,0.44-1.54,2.21c0.06,1.79,0.5,4.18,0.62,4.86c0.12,0.68,2.58,8.06,2.95,8.9
		c0.37,0.86,0.68,1.82,1.11,2.31c0.43,0.48,0.97,0.51,0.97-0.52c0-1.03-0.99-1.93-0.74-2.81c0.26-0.89,0.89-1.31,1.17-1.59
		c0.29-0.29,1.08-0.89,1.31,0.79c0.23,1.68,0.59,3.33,0.79,4.13c0.2,0.79,2.87,8.76,5.32,13.31c2.45,4.55,7.8,9.56,11.38,11.96
		c3.59,2.39,10.3,6.26,16,8.6c5.69,2.33,11.21,3.64,14,3.64c2.79,0,12.98,0.52,17.07,0.29c4.1-0.24,9.56-1.66,12.07-2.28
		c2.5-0.63,10.07-2.9,15.25-5.29c5.18-2.39,9.22-5.41,9.85-5.86c0.63-0.45,1.08-0.51,1.08-1.31c0-0.8,0-1.66,0.96-2.56
		c0.98-0.92,3.93-4.04,4.84-5.58c0.92-1.53,0.97-2.9,0.79-3.98c-0.16-1.08-0.66-2.26-0.3-2.55c0.38-0.28,1.19-0.26,1.59-0.4
		c0.4-0.14,1.37-0.11,1.05-0.91c-0.31-0.8-1.17-1.77-0.94-2.53c0.22-0.77,0.43-0.97,0.91-1.51c0.48-0.54,0.63-0.77,0.59-1.62
		c-0.02-0.85-0.54-2.08,0.09-2.96c0.63-0.89,1.43-1.31,1.28-2.33c-0.14-1.03-0.54-3.25-0.37-3.99c0.17-0.74,1.33-2.41,1.65-3.21
		c0.31-0.79,0.85-1.42,0.85-1.42s0.11-1.71,0.46-2.62c0.34-0.91,0.68-0.91,0.68-2.05c0-1.14-0.57-2.91,0-3.93
		c0.57-1.03,0.8-1.37,0.8-1.37s0.17-2.56,0.68-3.75c0.51-1.21,0.8-1.26,0.8-2.28s-0.24-2.16-0.24-2.85c0-0.68,0.09-5.35-0.17-7.03
		c-0.26-1.68-0.43-2.65-1.23-3.5c-0.79-0.86-1.44-1.25-0.94-2.19c0.52-0.94,1.17-1.51,1.4-1.74c0.22-0.22,0.74-1.85-0.4-3.78
		c-1.14-1.94-1.9-3.73-1.79-5.98c0.11-2.25,0.43-3.75,0.14-4.58c-0.28-0.83-2.07-3.67-2.14-4.98c-0.05-1.31-0.68-3.47-1.64-4.21
		c-0.97-0.74-2.22-1.93-2.11-3.41c0.11-1.48,0.4-1.43,0.4-1.71c0-0.29-0.18-0.29-0.74-0.58c-0.57-0.28-2.22-1.53-2.67-2.79
		c-0.46-1.25-0.8-1.77-0.8-1.77s-2.11,0.4-2.96-0.45c-0.85-0.85-2.16-2.39-2.96-2.39c-0.79,0-1.7-0.24-2.1-0.51
		c-0.4-0.29-1.54-0.63-2.17-0.4c-0.63,0.23-0.34,0.45-1.02,0.51c-0.69,0.05-1.43-0.11-1.59-0.58c-0.17-0.45-0.97-0.45-0.97-0.45
		s-0.39,0.97-1.31,1.08c-0.9,0.11-7.34-0.85-9-1.24c-1.65-0.4-6.54-0.46-7.5-0.51c-0.97-0.06-1.88-0.29-2.51-0.97
		c-0.63-0.69-0.9-1.14-1.48-0.8c-0.57,0.34-0.51,1.77-0.96,1.82c-0.45,0.06-1.37,0.34-1.94-0.05c-0.57-0.4-0.4-0.74-1.82-0.63
		c-1.43,0.11-2.62,1.14-3.3,0.85c-0.69-0.29-1.25-1.37-2.17-1.54c-0.91-0.17-1.48-0.57-2.95,0.06c-1.48,0.63-3.65,1.37-5.92,1.53
		c-2.28,0.17-5.52,0.11-6.26,0.46c-0.74,0.34-2.28,0.97-3.07,1.37c-0.8,0.39-1.37,0.62-1.88,0.23c-0.51-0.4-0.64-0.81-0.2-1.05
		c0.45-0.24,1.07-0.71,1.14-0.77c0.07-0.06,0.29-0.5,0.2-0.85c-0.09-0.34-0.17-0.59-0.45-0.44c-0.29,0.15-2.04,1.49-2.53,1.78
		c-0.49,0.28-0.98,0.79-1.28,0.97c-0.3,0.17-1.91,0.29-2.04,0.38c-0.13,0.09-1.82,1.22-2.33,1.28c-0.52,0.06-1.57,0.22-1.91-0.65
		c-0.34-0.88-0.2-1.31,0.74-1.6c0.94-0.29,1.45-0.37,1.68-0.48c0.23-0.11,0.88-1.08,0.2-1.13c-0.69-0.06-2.25,0.59-3.05,1.02
		c-0.79,0.43-4.04,1.77-4.49,2.51c-0.45,0.74-1.28,1.13-0.99,1.87c0.28,0.74,0.99,0.8,0.79,1.52c-0.2,0.7-5.75,6.49-6.15,6.74
		c-0.4,0.26-0.45,0.45-1.13,0.4c-0.69-0.06-1.63-0.29-1.9-0.02c-0.29,0.25-1.34,2.16-1.91,2.59c-0.57,0.42-1.43,0.51-1.54-0.14
		c-0.11-0.66,0.65-1.74,1.34-2.37c0.68-0.62,1.05-0.82,1.05-0.82s0.54-0.6,0.05-0.92c-0.48-0.31-1.05,0.09-2.05,1.4
		c-0.99,1.32-2.33,2.65-2.76,3.19c-0.43,0.54-1.88,1.77-2.51,1.93c-0.63,0.17-1.28,0.8-1.85,0.2c-0.57-0.59-0.45-1.26-1.66-1.17
		c-1.19,0.09-1.31,0.86-1.19,1.45c0.11,0.6,0.6,1.11,0.38,1.34c-0.23,0.23-1.26,0.39-1.63,0.85c-0.37,0.46-1.11,2.9-1.13,3.98
		c-0.03,1.08-0.2,3.3-0.2,3.79c0,0.48-0.15,0.68,0.4,1.17c0.54,0.48,0.82,0.54,0.88,1.13c0.05,0.6,0.09,1.4,0.05,2.08
		c-0.02,0.68-1.84,4.18-1.96,5.21c-0.11,1.03-0.52,1.48-0.63,2.96C239.35,529.99,238.42,532.5,238.42,532.5z"/>
	<path class="st0" d="M165.96,676.32c-0.3-0.76-0.99-1.21-0.91-3.11c0.08-1.9-0.15-6.15-0.68-7.44c-0.53-1.29-1.37-5.47-1.59-7.82
		c-0.24-2.35-0.38-3.95-0.38-3.95s-1.21-0.31-1.67-0.08c-0.45,0.24-3.26,1.52-4.4,2.28c-1.14,0.76-1.14,0.84-2.12,0.91
		c-0.99,0.08-1.52,0.23-1.52,0.23s-0.46,1.51-1.44,2.13c-0.99,0.6-1.98,0.53-2.66,0.6c-0.68,0.08-1.44,0.16-1.9,0.16
		c-0.45,0-0.3-0.53-0.98,0c-0.69,0.53-1.59,1.82-2.2,2.43c-0.61,0.6-0.68,0.91-1.29,0.83c-0.61-0.07-2.51-0.23-3.19-0.23
		c-0.68,0-1.06,0-1.45,0c-0.37,0-0.83,0.08-0.83,0.08s0.15,0.53-0.53,0.99c-0.69,0.46-0.61,1.06-2.2,1.67
		c-1.59,0.61-3.19,1.37-4.48,1.37c-1.29,0-2.35-0.53-3.94-1.67c-1.59-1.14-2.51-2.2-2.59-2.96c-0.07-0.76-0.07-1.82-0.07-1.82
		s-1.3,0.08-1.67-1.43c-0.38-1.52-0.68-3.72-1.59-6.15c-0.91-2.43-3.33-7.37-3.8-8.43c-0.45-1.06-0.76-2.58-0.07-4.17
		c0.68-1.59,0.9-2.12,1.74-4.09c0.84-1.98,2.8-5.05,3.86-9.61c1.06-4.56,1.98-6.15,2.13-7.74c0.16-1.59,1.06-6.75,1.9-9.41
		c0.84-2.65,2.51-5.84,3.65-7.51c1.13-1.67,3.48-5.92,3.64-6.75c0.15-0.84,0.23-1.83,0.23-2.36c0-0.53-0.08-2.05,0.3-2.81
		c0.38-0.76,2.13-1.67,2.66-3.49c0.53-1.82,0-4.03,0.98-6.15c0.98-2.12,4.41-7.13,5.7-9.86c1.29-2.73,3.03-6.22,2.73-7.44
		c-0.3-1.21-0.76-2.19-2.81-2.13c-2.05,0.08-2.51,0.08-3.41,0.31c-0.91,0.23-1.82,1.82-4.02,2.2c-2.2,0.38-21.33,0.53-24.44,0.84
		c-3.11,0.3-3.94,0.37-3.94,0.37s-8.73,1.59-15.79,1.22c-7.05-0.38-13.28-1.06-18.06-2.43c-4.78-1.37-9.18-3.11-11.46-3.64
		c-2.27-0.53-5.23-1.59-5.99-3.19c-0.76-1.59,0.22-3.19,2.35-4.02c2.13-0.84,4.56-0.99,5.24-1.45c0.69-0.45,11.46-7.36,12.45-7.5
		c0.99-0.16,5.08-0.3,6.22-0.69c1.14-0.38,6.68-2.73,9.48-3.11c2.81-0.38,4.25-0.46,4.86-0.76c0.61-0.3,1.22-1.29,1.22-1.29
		s5.31-0.69,7.73-0.99c2.43-0.31,5.62-0.68,7.14-0.84c1.51-0.15,8.2-0.98,9.18-1.52c0.98-0.53,1.06-0.53,1.06-0.53
		s11.76-1.29,13.58-1.52c1.82-0.23,14.49-2.28,15.48-2.35c0.98-0.08,7.36-0.84,8.12-0.84c0.76,0,2.58-0.08,2.96-2.43
		c0.37-2.35,0.45-5.62,0.23-6.23c-0.23-0.6-0.61-1.74-0.61-1.74s-0.45-1.37-0.37-3.72c0.07-2.35,0.6-3.8,0.6-5.01
		c0-1.22,0-9.94,0-13.66c0-3.72,0.77-5.24,0.84-6.75c0.08-1.52,0.46-3.65-1.13-4.55c-1.59-0.92-3.87-0.53-4.25-0.76
		c-0.38-0.23-0.77-1.9-1.52-2.06c-0.76-0.15-11.99,0.16-14.34,0c-2.35-0.15-6.37-0.68-7.28-1.97c-0.91-1.29-0.98-2.13-0.98-2.13
		s-3.8,0.23-5.24-1.37c-1.44-1.6-1.67-2.81-1.67-2.81s-3.42,0.45-4.1-0.23c-0.68-0.68,0.15-1.36-0.76-1.82
		c-0.91-0.45-2.12-0.07-2.73-1.82c-0.61-1.74-0.45-2.58-2.35-3.11c-1.9-0.53-4.93-1.52-5.62-3.49c-0.68-1.98,0.69-3.04-0.31-3.72
		c-0.98-0.68-2.43-1.29-2.96-2.43c-0.53-1.14-0.74-2.22-2.03-2.98c-1.29-0.76-1.7-0.68-1.59-1.59c0.11-0.91,0.38-1.48-0.37-2.01
		c-0.76-0.53-2.58-2.24-2.96-3.67c-0.38-1.45,0.34-1.9-0.31-2.01c-0.64-0.11-2.43-1.64-3.68-4.33c-1.24-2.69-6.14-11.35-6.14-11.35
		s0.5-0.55,0.18-1.16c-0.32-0.6-1.95-0.83-1.87-1.42c0.07-0.59,0.26-2.67,0.37-3.54c0.11-0.88,0.19-1.9-0.3-2.85
		c-0.49-0.95-0.99-2.32-0.23-4.33c0.76-2.01,1.33-3.64,0.53-4.51c-0.79-0.88-2.01-1.87-2.01-1.87s0.53-3.94,0.42-6.37
		c-0.11-2.43,0-3.27-0.18-4.29c-0.19-1.03-0.27-1.64-0.27-1.82c0-0.19,0.11-4.78,0.11-4.78s18.02-0.88,22.84-1.06
		c4.82-0.19,26.9-0.69,30.7-0.08c3.8,0.61,6.15,1.06,8.88,2.13c2.73,1.06,5.46,2.96,5.46,2.96s3.91-0.38,5.01,0.03
		c1.11,0.42,2.77,1.45,3.91,1.56c1.14,0.11,1.94,0.11,1.94,0.11s2.12,0.83,2.73,1.25c0.61,0.41,0.84,0.26,1.48,0.76
		c0.64,0.49,1.51,0.98,1.82,0.98s1.51-0.61,2.32,0.42c0.79,1.02,1.06,2.77,1.97,2.96c0.91,0.19,2.46,0.68,2.96,1.29
		c0.49,0.61,3.27,2.58,3.75,3.3c0.5,0.72,0.77,1.93,1.25,2.16c0.5,0.23,1.53-0.38,2.13,0.27c0.61,0.65,2.28,2.35,2.73,3.22
		c0.45,0.87,1.98,3.57,2.66,4.4c0.68,0.83,2.09,3.34,3.45,4.29c1.37,0.95,4.25,2.5,5.13,4.48c0.87,1.97,0.42,3.19,1.02,4.22
		c0.61,1.02,5.08,5.35,6.22,7.58c1.14,2.24,1.48,3.68,1.48,5.5c0,1.82-0.11,3.15,0.04,3.95c0.16,0.79,2.84,6.04,3.15,7.32
		c0.3,1.29,0.61,4.4-0.61,8.81c-1.21,4.4-3.86,8.72-3.94,9.79c-0.08,1.06,0.5,3.03-0.53,3.38c-1.03,0.34-1.86,0.11-1.93,0.42
		c-0.08,0.3-0.45,2.99-1.51,3.26c-1.06,0.27-2.09-0.42-2.85,0.16c-0.76,0.57-2.62,3.61-5.05,3.87c-2.43,0.27-7.02-0.15-8.23,0.53
		c-1.22,0.69-3,3-3.72,3.34c-0.73,0.34-1.59,0.57-1.98,1.25c-0.37,0.69-0.95,4.29-1.37,6.26c-0.41,1.98-1.06,3.19-1.1,3.53
		c-0.03,0.35-0.03,5.66,0.03,7.06c0.08,1.4-0.53,3.45-1.13,4.59c-0.61,1.14-1.06,6.49-1.06,9.48c0,3-0.11,3.91,0.57,4.78
		c0.69,0.88,2.93,1.94,4.63,1.9c1.71-0.04,6.72-0.73,8.5-1.1c1.78-0.38,5.76-1.11,7.05-1.26c1.29-0.15,3.41-0.68,5.01-1.06
		c1.59-0.38,3.72-0.45,4.55-0.53c0.84-0.08,1.59-1.63,3.72-1.63c2.12,0,8.58-0.8,9.3-0.58c0.72,0.24,1.32,0.91,1.93,1
		c0.61,0.07,0.61-0.73,0.65-1.11c0.04-0.38,1.32-0.42,2.66-0.42c1.32,0,4.97-0.18,4.97-0.18s1.9-0.69,2.99-1.25
		c1.1-0.57,5.65-0.83,8.23-0.87c2.59-0.04,10.06-0.3,11.04-0.27c0.99,0.04,1.11,0.27,1.75,0.42c0.65,0.15,5.88-0.15,7.63,0.19
		c1.74,0.34,3.95,0.6,3.87,1.18c-0.08,0.57-0.34,0.95-1.29,1.06c-0.95,0.11-1.79-0.22-1.44,0.42c0.34,0.65,1.06,0.53,1.33,0.87
		c0.26,0.34,0,0.76-1.52,1.37c-1.52,0.61-4.29,1.52-4.96,1.85c-0.69,0.35-1.67,0.88-2.51,0.72c-0.84-0.15-1.4-0.65-2.27-0.76
		c-0.88-0.11-1.64,0.76-0.95,1.03c0.68,0.26,1.48,0.03,2.24,0.15c0.76,0.11,2.5,0.31,1.14,1.63c-1.37,1.33-3.19,1.18-4.33,1.33
		c-1.14,0.15-4.52,0.76-6.83,1.14c-2.32,0.37-7.21,0.83-8.38,1.06c-1.18,0.23-4.94,1.29-6.15,1.78c-1.22,0.5-3.8,1.52-5.12,1.11
		c-1.33-0.42-1.56-1.56,0.72-2.39c2.28-0.84,4.02-1.25,5.01-1.52c0.99-0.27,2.43-1.45,2.01-2.85c-0.42-1.4-1.29-2.32-3.37-2.35
		c-2.09-0.03-3.15,0.23-4.1,0.57c-0.95,0.35-1.26,0.65-1.26,0.65s1.22,0.12,1.98,0.27c0.76,0.15,2.61,1.06,2.12,2.13
		c-0.49,1.06-1.29,1.82-2.32,1.44c-1.03-0.38-2.12-1.41-3.11-1.71c-0.99-0.3-5.65-0.91-9.14-0.98c-3.49-0.08-4.63-0.08-4.63-0.08
		s-0.53,0.69-1.51,1.37c-0.98,0.69-1.37,1.14-0.84,1.52c0.53,0.37,1.32,0.72,2.06,1.04c0.74,0.33,1.69,0.8,1.56,1.3
		c-0.13,0.49-0.58,0.45-1.46,0.39c-0.87-0.05-1.37,0.3-1.94,0.93c-0.57,0.63-1.03,1.52-1.4,1.54c-0.38,0.02-1.01-0.35-1.31-0.98
		c-0.3-0.62-0.56-0.92-0.67-0.97c-0.11-0.03-1.1-0.24-1.59,0.19c-0.49,0.43-0.81,0.55-0.51,0.97c0.3,0.42,0.86,1.13,0.04,1.69
		c-0.83,0.56-1.87,0.29-2.25-0.67c-0.38-0.96-0.4-2.24-1.5-2.3c-1.11-0.05-2.36,1.19-2.91,1.98c-0.55,0.77-1.29,2.71-2.58,2.99
		c-1.29,0.29-1.9-0.26-3.2,0.19c-1.31,0.45-2.4,1.46-4.02,2.33c-1.63,0.87-2.27,1.25-3.49,1.25c-1.21,0-2.27,0-2.27,0
		s-1.59,6.78-2.05,8.68c-0.46,1.9-0.77,5.62-0.84,7.29c-0.08,1.67-0.22,2.96-0.76,5.23c-0.53,2.28-0.08,3.87,1.97,6.77
		c2.05,2.9,2.74,3.41,2.74,5.24c0,1.82-0.42,14.84-0.42,14.84s0.53,0.98-0.23,1.66c-0.76,0.69-1.04,0.77-1.08,1.18
		c-0.04,0.41,0.04,0.97-0.64,0.98c-0.69,0.02-1.12-0.28-1.64,0.19c-0.52,0.47-2.05,3.13-2.43,4.27c-0.37,1.13-1.1,3.19-1.21,3.98
		c-0.11,0.8,0.03,1.22,0.3,1.65c0.26,0.43,0.68,1.08,0.68,2.03c0,0.95-0.21,2.99-0.36,4.4c-0.16,1.41-0.44,2.53-0.06,2.81
		c0.38,0.28,1.06,0.24,3.19-0.82c2.13-1.06,8.8-4.12,10.17-4.58c1.37-0.45,4.14-0.76,4.86-0.76c0.72,0,4.36,0.19,5.54-0.27
		c1.18-0.45,1.48-0.79,2.5-0.83c1.03-0.05,1.79,0,2.81-0.27c1.03-0.26,2.27-0.53,2.27-0.53s1.48-0.38,0.76,0.61
		c-0.72,0.99-4.7,4.62-4.7,4.62s-1.74,1.87-1.93,1.87c-0.19,0-0.79,0.23-0.79,0.23s-3.42,4.1-3.76,4.13
		c-0.34,0.04-1.21,0.04-1.21,0.04l-9.19,9.53c0,0-1.66,2.29-2.27,3.43c-0.61,1.14-2.4,4.31-2.9,4.73c-0.52,0.42-2.04,0.74-2.04,0.74
		l-2.85,5.1c0,0,1.59,3.45,1.66,5.99c0.08,2.54,0.46,4.48-0.15,7.05c-0.61,2.59-1.22,8.58-1.45,13.36
		c-0.22,4.78-1.13,11.99-1.66,14.34c-0.53,2.35-1.37,4.25-1.83,4.63c-0.45,0.38-1.44,0.38-2.13-0.99c-0.68-1.36-0.98-1.82-1.06-3.95
		c-0.07-2.13,0.3-3.41-0.29-4.78C166.64,677.13,165.96,676.32,165.96,676.32"/>
	<path d="M1015.92,612.72l-1.88-0.09l-1.88,0.13v-27.31h-2.7c-0.38,0-0.72,0-1.04,0c-0.33,0-0.67,0.05-1.01,0.17
		c-0.43,0-0.78,0-1.07,0c-0.29,0-0.78,0-1.5,0l-2.06,0.35l0.13-1.29l-0.13-1.28h22.08l-0.12,1.28l0.12,1.29l-4.02-0.35l-4.92-0.17
		V612.72z M1000.75,612.72h-1.28l-2.25-2.64l-18.47-20.47h-0.43v23.07l-1.2-0.13l-1.2,0.18v-29.32l1.69-0.01l20.29,22.07l0.45-0.02
		v-22.04l1.2,0.13l1.19-0.13V612.72z M959.61,588.4l-4.68,10.91h9.41L959.61,588.4z M973.99,612.72l-2.25-0.18l-2.29,0.14l-2.62-7.1
		l-0.73-1.94l-1.14-2.53h-10.84l-2.77,7.06l-1.45,4.49l-1.59-0.13l-1.5,0.13l13.35-29.92h0.98L973.99,612.72z M926.84,583.39h9.07
		c3.28,0,5.69,0.53,7.22,1.56c1.52,1.04,2.28,2.69,2.28,4.94c0,2.31-0.91,4.2-2.73,5.65c-1.43,1.14-3.44,1.97-6.04,2.48l8.78,11.16
		l2.08,2.41l0.83,1.11l-2.5-0.18l-2.45,0.14l-2.7-3.72l-5.02-6.58l-3.43-4.06h-1.63v14.34l-1.88-0.13l-1.89,0.13V583.39z
		 M930.61,596.7l0.94,0.04h1.24h1.77c0.66,0,1.18-0.07,1.59-0.21c1.55-0.35,2.85-1.05,3.91-2.14c1.06-1.08,1.59-2.41,1.59-3.98
		c0-3.08-1.58-4.88-4.73-5.39l-2.24-0.13h-2.1h-1.98V596.7z M900.51,599.76c0,3.94,0.65,6.77,1.97,8.51
		c1.46,1.94,3.94,2.91,7.49,2.91c3.16,0,5.55-1.1,7.15-3.29c1.39-2,2.09-4.85,2.09-8.54v-15.95l1.2,0.13l1.2-0.13v17.02
		c0,4.07-1.13,7.21-3.39,9.42c-2.25,2.21-5.28,3.31-9.12,3.31c-3.99,0-7.09-1-9.28-2.99c-1.14-1-1.99-2.48-2.53-4.46
		c-0.38-1.67-0.56-3.41-0.56-5.21v-17.1l1.88,0.13l1.89-0.13V599.76z M880.68,588.4l-4.68,10.91h9.4L880.68,588.4z M895.06,612.72
		l-2.25-0.18l-2.29,0.14l-2.62-7.1l-0.73-1.94l-1.14-2.53h-10.84l-2.77,7.06l-1.45,4.49l-1.58-0.13l-1.5,0.13l13.35-29.92h0.98
		L895.06,612.72z M863.58,612.72l-1.88-0.09l-1.88,0.13v-27.31h-2.7c-0.37,0-0.72,0-1.04,0c-0.33,0-0.67,0.05-1.01,0.17
		c-0.43,0-0.79,0-1.07,0c-0.29,0-0.78,0-1.5,0l-2.06,0.35l0.13-1.29l-0.13-1.28h22.09l-0.12,1.28l0.12,1.29l-4.02-0.35l-4.92-0.17
		V612.72z M834.29,606.89c0.86,1.39,1.84,2.47,2.93,3.25c1.09,0.77,2.44,1.16,4.05,1.16c1.72,0,3.15-0.6,4.28-1.81
		c1.14-1.22,1.71-2.68,1.71-4.42c0-2.09-1.15-3.77-3.45-5.05l-6.47-2.85c-2.33-1.37-3.47-3.44-3.47-6.2c0-2.57,0.94-4.62,2.82-6.16
		c1.72-1.37,3.94-2.06,6.68-2.06c1.08,0,2.17,0.17,3.25,0.51c1.06,0.29,2.01,0.8,2.87,1.54l-0.51,1.29l-0.65,2.22h-0.43
		c-0.42-1.17-1.1-2.08-2.01-2.73c-0.92-0.66-2.01-0.98-3.3-0.98c-1.42,0-2.68,0.46-3.76,1.38c-1.09,0.93-1.63,2.13-1.63,3.62
		c0,2.08,1.16,3.76,3.47,5.05l6.5,2.86c2.34,1.39,3.51,3.36,3.51,5.89c0,3-1.03,5.38-3.08,7.18c-1.93,1.71-4.43,2.56-7.49,2.56
		c-1.19,0-2.46-0.22-3.8-0.64c-1.34-0.43-2.4-1.04-3.17-1.84l0.43-1.7l0.3-2.08H834.29z M820.41,596.15h6.64h2.14l1.66-0.22
		l-0.13,1.12l0.13,1.19l-2.14-0.08l-1.67-0.13h-6.64v12.49l4.45-0.09h3.3l1.75-0.05l2.19-0.42l-0.13,1.29l0.13,1.28h-15.46v-29.15
		h15.2l-0.12,1.28l0.12,1.29l-2.1-0.35l-1.75-0.12l-4.29-0.09h-3.29V596.15z M793.55,583.39h9.07c3.28,0,5.69,0.53,7.22,1.56
		c1.52,1.04,2.28,2.69,2.28,4.94c0,2.31-0.91,4.2-2.73,5.65c-1.43,1.14-3.44,1.97-6.04,2.48l8.78,11.16l2.08,2.41l0.83,1.11
		l-2.5-0.18l-2.45,0.14l-2.7-3.72l-5.01-6.58l-3.43-4.06h-1.63v14.34l-1.88-0.13l-1.89,0.13V583.39z M797.32,596.7l0.94,0.04h1.24
		h1.77c0.66,0,1.18-0.07,1.59-0.21c1.55-0.35,2.85-1.05,3.91-2.14c1.06-1.08,1.59-2.41,1.59-3.98c0-3.08-1.58-4.88-4.73-5.39
		l-2.24-0.13h-2.1h-1.98V596.7z M771.02,612.72l-1.88-0.09l-1.88,0.13v-27.31h-2.7c-0.38,0-0.72,0-1.04,0
		c-0.33,0-0.67,0.05-1.01,0.17c-0.43,0-0.78,0-1.07,0c-0.29,0-0.78,0-1.5,0l-2.06,0.35l0.13-1.29l-0.13-1.28h22.08l-0.12,1.28
		l0.12,1.29l-4.02-0.35l-4.92-0.17V612.72z M726.19,598.01c0-4.58,1.53-8.3,4.58-11.15c2.92-2.73,6.66-4.1,11.26-4.1
		c4.36,0,8.07,1.16,11.13,3.46c3.4,2.66,5.1,6.38,5.1,11.16c0,4.69-1.51,8.5-4.52,11.41c-3,2.91-6.94,4.37-11.79,4.37
		c-4.71,0-8.51-1.37-11.41-4.1C727.65,606.3,726.19,602.62,726.19,598.01z M751.36,588.31c-1.03-1.34-2.34-2.36-3.95-3.07
		c-1.61-0.72-3.27-1.07-4.95-1.07c-3.74,0-6.68,1.3-8.84,3.87c-2.15,2.58-3.23,6.08-3.23,10.49c0,4.22,1.14,7.51,3.42,9.88
		c2.14,2.22,4.89,3.33,8.26,3.33c4.05,0,7.18-1.74,9.37-5.22c1.74-2.79,2.61-5.73,2.61-8.8c0-1.99-0.17-3.74-0.53-5.24
		C753.17,590.98,752.45,589.6,751.36,588.31z M710.77,597.56l1.16,0.04h0.81h0.85h0.69H715c1,0,1.92-0.19,2.74-0.58
		c0.83-0.38,1.57-0.92,2.23-1.61c1.19-1.26,1.79-2.85,1.79-4.76c0-1.52-0.38-2.8-1.16-3.83c-0.74-0.92-1.65-1.46-2.73-1.64
		l-2.44-0.16h-1.38h-1.75h-1.54V597.56z M710.77,612.72l-1.88-0.18l-1.89,0.13v-29.28h7.66c4.11,0,6.98,0.52,8.6,1.55
		c1.63,1.03,2.44,2.87,2.44,5.51c0,2.41-0.77,4.38-2.31,5.9c-1.34,1.23-3.62,2.19-6.85,2.88h-1.5l-1.07,0.13l-1.75-0.13h-0.56h-0.9
		V612.72z M684.94,612.72l-1.88-0.09l-1.88,0.13v-27.31h-2.7c-0.37,0-0.72,0-1.04,0c-0.33,0-0.67,0.05-1.01,0.17
		c-0.42,0-0.78,0-1.07,0c-0.29,0-0.78,0-1.5,0l-2.06,0.35l0.13-1.29l-0.13-1.28h22.09l-0.12,1.28l0.12,1.29l-4.02-0.35l-4.92-0.17
		V612.72z M640.11,598.01c0-4.58,1.53-8.3,4.58-11.15c2.92-2.73,6.66-4.1,11.26-4.1c4.36,0,8.07,1.16,11.13,3.46
		c3.39,2.66,5.09,6.38,5.09,11.16c0,4.69-1.51,8.5-4.52,11.41c-3,2.91-6.94,4.37-11.79,4.37c-4.71,0-8.51-1.37-11.41-4.1
		C641.56,606.3,640.11,602.62,640.11,598.01z M665.28,588.31c-1.03-1.34-2.34-2.36-3.95-3.07c-1.61-0.72-3.27-1.07-4.95-1.07
		c-3.74,0-6.68,1.3-8.84,3.87c-2.15,2.58-3.23,6.08-3.23,10.49c0,4.22,1.14,7.51,3.42,9.88c2.14,2.22,4.89,3.33,8.26,3.33
		c4.05,0,7.18-1.74,9.37-5.22c1.74-2.79,2.61-5.73,2.61-8.8c0-1.99-0.17-3.74-0.53-5.24C667.09,590.98,666.37,589.6,665.28,588.31z
		 M633.68,583.39l1.88,0.13l1.89-0.13v29.32l-1.89-0.18l-1.88,0.13v-14.69l-3.38-0.13l-5.61-0.13l-5.27,0.13h-3.76v14.86l-1.88-0.18
		l-1.89,0.13v-29.28l1.89,0.13l1.88-0.13v12.37l5.35,0.13h3.68h3.33l5.65-0.17V583.39z M579.47,598.09
		c-1.31,0.85-2.4,1.79-3.29,2.81c-0.92,1.23-1.37,2.6-1.37,4.11c0,1.79,0.61,3.29,1.81,4.48c1.21,1.19,2.71,1.78,4.47,1.78
		c0.65,0,1.24-0.05,1.75-0.16c0.52-0.1,1.1-0.33,1.75-0.7c1.14-0.52,2.22-1.28,3.25-2.3l-4.1-5.11l-3.94-5.13L579.47,598.09z
		 M596.47,612.63l-1.63-0.13l-0.99-0.04l-2.44,0.13l-1.28-1.84l-1.42-1.76c-2.51,2.77-5.59,4.16-9.24,4.16
		c-2.28,0-4.22-0.65-5.78-1.93c-1.57-1.29-2.35-3.03-2.35-5.23c0-1.88,0.74-3.65,2.22-5.3c1.2-1.34,2.96-2.59,5.27-3.73l0.25-0.13
		l-1.93-3.13l-0.68-1.79c-0.17-0.6-0.26-1.19-0.26-1.76c0-1.82,0.6-3.34,1.8-4.54c1.19-1.19,2.8-1.79,4.79-1.79
		c1.63,0,2.98,0.39,4.05,1.18c1.06,0.78,1.6,1.89,1.6,3.32c0,1.6-0.63,3.11-1.88,4.54c-0.46,0.51-0.98,1.01-1.59,1.5
		c-0.6,0.49-1.38,1.05-2.36,1.72l5.27,6.67l2.26,2.57l2.61-4.1l2.48-4.33l0.64,0.89l0.99,0.86c-1.94,2.96-3.87,5.57-5.78,7.83
		L596.47,612.63z M586.28,588.58c0-1.06-0.3-1.92-0.91-2.6c-0.62-0.67-1.46-1-2.51-1c-1.11,0-2.01,0.4-2.7,1.19
		c-0.63,0.8-0.94,1.74-0.94,2.83c0,0.79,0.19,1.66,0.56,2.57l0.82,1.62l1.32,1.98c1.28-0.95,2.3-1.87,3.04-2.79
		C585.83,591.15,586.28,589.88,586.28,588.58z M551.56,583.39l1.88,0.13l1.88-0.13v29.32l-1.88-0.18l-1.88,0.13V583.39z
		 M542.85,583.39l1.88,0.13l1.89-0.13v29.32l-1.89-0.18l-1.88,0.13v-14.69l-3.38-0.13l-5.61-0.13l-5.27,0.13h-3.76v14.86l-1.88-0.18
		l-1.89,0.13v-29.28l1.89,0.13l1.88-0.13v12.37l5.35,0.13h3.68h3.34l5.65-0.17V583.39z M501.92,606.89
		c0.86,1.39,1.84,2.47,2.93,3.25c1.09,0.77,2.44,1.16,4.05,1.16c1.72,0,3.15-0.6,4.28-1.81c1.14-1.22,1.71-2.68,1.71-4.42
		c0-2.09-1.15-3.77-3.45-5.05l-6.47-2.85c-2.33-1.37-3.47-3.44-3.47-6.2c0-2.57,0.94-4.62,2.82-6.16c1.72-1.37,3.94-2.06,6.68-2.06
		c1.08,0,2.17,0.17,3.25,0.51c1.06,0.29,2.01,0.8,2.87,1.54l-0.51,1.29l-0.65,2.22h-0.42c-0.43-1.17-1.1-2.08-2.01-2.73
		c-0.92-0.66-2.01-0.98-3.3-0.98c-1.42,0-2.68,0.46-3.76,1.38c-1.09,0.93-1.63,2.13-1.63,3.62c0,2.08,1.16,3.76,3.47,5.05l6.5,2.86
		c2.34,1.39,3.51,3.36,3.51,5.89c0,3-1.03,5.38-3.08,7.18c-1.93,1.71-4.43,2.56-7.49,2.56c-1.19,0-2.47-0.22-3.81-0.64
		c-1.34-0.43-2.4-1.04-3.17-1.84l0.43-1.7l0.3-2.08H501.92z M476.35,599.76c0,3.94,0.65,6.77,1.97,8.51
		c1.45,1.94,3.94,2.91,7.49,2.91c3.16,0,5.55-1.1,7.15-3.29c1.39-2,2.09-4.85,2.09-8.54v-15.95l1.2,0.13l1.2-0.13v17.02
		c0,4.07-1.13,7.21-3.39,9.42c-2.25,2.21-5.29,3.31-9.12,3.31c-3.99,0-7.09-1-9.28-2.99c-1.14-1-1.99-2.48-2.53-4.46
		c-0.37-1.67-0.56-3.41-0.56-5.21v-17.1l1.88,0.13l1.89-0.13V599.76z M453.27,606.89c0.86,1.39,1.84,2.47,2.93,3.25
		c1.09,0.77,2.44,1.16,4.05,1.16c1.72,0,3.14-0.6,4.28-1.81c1.14-1.22,1.71-2.68,1.71-4.42c0-2.09-1.15-3.77-3.45-5.05l-6.47-2.85
		c-2.33-1.37-3.47-3.44-3.47-6.2c0-2.57,0.94-4.62,2.82-6.16c1.72-1.37,3.94-2.06,6.68-2.06c1.08,0,2.17,0.17,3.25,0.51
		c1.06,0.29,2.01,0.8,2.87,1.54l-0.51,1.29l-0.65,2.22h-0.43c-0.43-1.17-1.1-2.08-2.01-2.73c-0.92-0.66-2.01-0.98-3.3-0.98
		c-1.42,0-2.68,0.46-3.76,1.38c-1.09,0.93-1.63,2.13-1.63,3.62c0,2.08,1.16,3.76,3.47,5.05l6.5,2.86c2.34,1.39,3.51,3.36,3.51,5.89
		c0,3-1.03,5.38-3.08,7.18c-1.93,1.71-4.43,2.56-7.49,2.56c-1.19,0-2.46-0.22-3.8-0.64c-1.34-0.43-2.4-1.04-3.17-1.84l0.43-1.7
		l0.3-2.08H453.27z"/>
</g>
</svg>
