<?xml version="1.0" encoding="utf-8"?>
<!-- Generator: Adobe Illustrator 26.5.0, SVG Export Plug-In . SVG Version: 6.00 Build 0)  -->
<svg version="1.1" id="Layer_1" xmlns="http://www.w3.org/2000/svg" xmlns:xlink="http://www.w3.org/1999/xlink" x="0px" y="0px"
	 viewBox="0 0 1080 1080" style="enable-background:new 0 0 1080 1080;" xml:space="preserve">
<style type="text/css">
	.st0{fill-rule:evenodd;clip-rule:evenodd;}
	.st1{fill:#ED1C24;}
	.st2{fill:#E1251B;}
	.st3{fill-rule:evenodd;clip-rule:evenodd;fill:#16397B;}
	.st4{fill:#EE2745;}
	
		.st5{clip-path:url(#SVGID_00000080174023844090976630000007805088049577311153_);fill:url(#SVGID_00000145780363300714479890000017255954482789669006_);}
	
		.st6{clip-path:url(#SVGID_00000040566199645121244390000008486602067258565772_);fill:url(#SVGID_00000160910102170186203560000001689504751523297206_);}
	
		.st7{clip-path:url(#SVGID_00000106858403560133701640000016191217703572827562_);fill:url(#SVGID_00000030471089899595089190000002714208453984096185_);}
	
		.st8{clip-path:url(#SVGID_00000181769239870513949460000004847626592874025623_);fill:url(#SVGID_00000090973985716271896760000013226178101336654763_);}
	.st9{fill:#424243;}
	
		.st10{clip-path:url(#SVGID_00000151518075395714552490000006360854536591620758_);fill:url(#SVGID_00000005244383286949557960000004341941835131108265_);}
	.st11{fill:#FFFFFF;}
	
		.st12{clip-path:url(#SVGID_00000068671741806248394820000003671718380969067450_);fill:url(#SVGID_00000148620147503540429900000003662732681224467634_);}
	
		.st13{clip-path:url(#SVGID_00000094589241924230655670000015277185770854193850_);fill:url(#SVGID_00000089572174610472768200000017778791739736135324_);}
	
		.st14{clip-path:url(#SVGID_00000047762098999864615240000002425604137216198838_);fill:url(#SVGID_00000181774174919793320620000016431553159321177504_);}
	
		.st15{clip-path:url(#SVGID_00000110469167515731138560000001767291992897446805_);fill:url(#SVGID_00000172426749864970975900000005935048122904744595_);}
	
		.st16{clip-path:url(#SVGID_00000165219378205755504260000014598254801942164115_);fill:url(#SVGID_00000016039999942806035190000013627264288466753424_);}
	
		.st17{clip-path:url(#SVGID_00000115509408313032961330000018249373567684412337_);fill:url(#SVGID_00000061429577381402769250000014127583909089453465_);}
	
		.st18{clip-path:url(#SVGID_00000004532523577124226060000012338780538062040249_);fill:url(#SVGID_00000114763976516568330470000009751434588718317961_);}
	.st19{fill-rule:evenodd;clip-rule:evenodd;fill:#C8202F;}
	.st20{fill-rule:evenodd;clip-rule:evenodd;fill:#FFFFFF;}
	.st21{fill-rule:evenodd;clip-rule:evenodd;fill:#F98238;}
	.st22{filter:url(#Adobe_OpacityMaskFilter);}
	.st23{fill:url(#SVGID_00000083788870890717564710000004652316840400084906_);}
	.st24{mask:url(#SVGID_00000123402285618312627340000016336271202486490298_);fill-rule:evenodd;clip-rule:evenodd;fill:#ED1C24;}
	.st25{fill-rule:evenodd;clip-rule:evenodd;fill:#F5333F;}
	.st26{fill-rule:evenodd;clip-rule:evenodd;fill:#ED1C24;}
	.st27{fill-rule:evenodd;clip-rule:evenodd;fill:#F9A46E;}
	.st28{fill-rule:evenodd;clip-rule:evenodd;fill:#F47B26;}
	.st29{fill-rule:evenodd;clip-rule:evenodd;fill:#EB5433;}
	.st30{fill:#1A3282;}
	.st31{fill-rule:evenodd;clip-rule:evenodd;fill:#1A3282;}
	.st32{fill-rule:evenodd;clip-rule:evenodd;fill:#9D9FA2;}
	.st33{fill-rule:evenodd;clip-rule:evenodd;fill:#000303;}
	.st34{fill:#64003D;}
	.st35{fill:#536270;}
	.st36{fill-rule:evenodd;clip-rule:evenodd;fill:#64003D;}
	.st37{fill-rule:evenodd;clip-rule:evenodd;fill:#536270;}
	.st38{fill-rule:evenodd;clip-rule:evenodd;fill:#1A3382;}
	.st39{fill-rule:evenodd;clip-rule:evenodd;fill:#29387E;}
	.st40{fill-rule:evenodd;clip-rule:evenodd;fill:#F37021;}
	.st41{fill-rule:evenodd;clip-rule:evenodd;fill:#005C32;}
	.st42{fill-rule:evenodd;clip-rule:evenodd;fill:#D2AB67;}
	
		.st43{clip-path:url(#SVGID_00000180345425487208977190000000972357520278476437_);fill:url(#SVGID_00000147221756247949653910000000711124817353767814_);}
	
		.st44{clip-path:url(#SVGID_00000070099997959066350260000008418662820801503638_);fill:url(#SVGID_00000066486346411359017440000013768684396924130975_);}
	
		.st45{clip-path:url(#SVGID_00000055696962873603519090000011065585561448653718_);fill:url(#SVGID_00000075869339817979901990000009627780411803807112_);}
	.st46{fill-rule:evenodd;clip-rule:evenodd;fill:#00AEEF;}
	.st47{fill-rule:evenodd;clip-rule:evenodd;fill:#EC008C;}
	.st48{fill-rule:evenodd;clip-rule:evenodd;fill:#FFF200;}
	.st49{fill:#A7AAAC;}
	.st50{fill-rule:evenodd;clip-rule:evenodd;fill:#5C5B5B;}
	.st51{fill:#9D9D9F;}
	.st52{fill:#F04D23;}
	.st53{fill-rule:evenodd;clip-rule:evenodd;fill:#2E3192;}
	.st54{fill-rule:evenodd;clip-rule:evenodd;fill:#C4312D;}
	.st55{fill:#552715;}
	.st56{fill:#010101;}
	.st57{fill:#E31E2E;}
	.st58{fill:url(#SVGID_00000126293522949522310790000010269165324135458961_);}
	.st59{fill:url(#SVGID_00000147195463491044851340000012977113710190778812_);}
	.st60{clip-path:url(#SVGID_00000066507752085372334150000018336824051844481965_);}
	.st61{clip-path:url(#SVGID_00000094606093498221091780000006666281066428051075_);}
	.st62{clip-path:url(#SVGID_00000041278154665933083250000010042247509928079511_);}
	.st63{clip-path:url(#SVGID_00000168822519900565400970000007984268677206835380_);}
	.st64{clip-path:url(#SVGID_00000149346246128550575870000011296138498728678279_);}
	.st65{clip-path:url(#SVGID_00000143612941512325864130000000898079717036486571_);}
	.st66{clip-path:url(#SVGID_00000110471935661400881260000017722177161303111091_);}
	.st67{clip-path:url(#SVGID_00000114753613891309206790000010295268063547170456_);}
	.st68{clip-path:url(#SVGID_00000085956781310678189180000011036015143096294546_);}
	.st69{clip-path:url(#SVGID_00000054261221302326367380000012102632898202856066_);}
	.st70{clip-path:url(#SVGID_00000119103178828868510680000013712945603550265763_);}
	.st71{fill:#2650A1;}
	.st72{fill:url(#SVGID_00000152222401790394440610000015047354583875751828_);}
	.st73{fill:#FEFEFE;}
	.st74{fill:#FDFDFD;}
	.st75{fill:#FCFCFC;}
	.st76{fill:#FBFBFB;}
	.st77{fill:#FAFAFA;}
	.st78{fill:#F9F9F9;}
	.st79{fill:#F8F8F8;}
	.st80{fill:#F7F7F7;}
	.st81{fill:#F6F6F6;}
	.st82{fill:#F5F5F5;}
	.st83{fill:#F4F4F4;}
	.st84{fill:#F3F3F3;}
	.st85{fill:#F2F2F2;}
	.st86{fill:#F1F1F1;}
	.st87{fill:#F0F0F0;}
	.st88{fill:#EFEFEF;}
	.st89{fill:#EEEEEE;}
	.st90{fill:#EDEDED;}
	.st91{fill:#ECECEC;}
	.st92{fill:#EBEBEB;}
	.st93{fill:#EAEAEA;}
	.st94{fill:#E9E9E9;}
	.st95{fill:#E8E8E8;}
	.st96{fill:#E7E7E7;}
	.st97{fill:#E6E6E6;}
	.st98{fill:#E5E5E5;}
	.st99{fill:#E4E4E4;}
	.st100{fill:#E3E3E3;}
	.st101{fill:#E2E2E2;}
	.st102{fill:#E1E1E1;}
	.st103{fill:#E0E0E0;}
	.st104{fill:#DFDFDF;}
	.st105{fill:#DEDEDE;}
	.st106{fill:#DDDDDD;}
	.st107{fill:#DCDCDC;}
	.st108{fill:#DBDBDB;}
	.st109{fill:#DADADA;}
	.st110{fill:#D9D9D9;}
	.st111{fill:#D92231;}
	.st112{fill:url(#SVGID_00000054982814288022201980000008696884984564676249_);}
	.st113{fill:url(#SVGID_00000129180997010202248750000001887057453461946499_);}
	.st114{opacity:0.8;}
	.st115{fill:url(#SVGID_00000062189906737734315780000011653166935338568842_);}
	.st116{fill:url(#SVGID_00000049181368369656202500000001630347687192663990_);}
	.st117{fill-rule:evenodd;clip-rule:evenodd;fill:#010101;}
	.st118{fill:#80A845;}
	.st119{fill-rule:evenodd;clip-rule:evenodd;fill:#80A845;}
	.st120{fill:url(#SVGID_00000107566387511158887970000007946591672521040535_);}
	.st121{fill-rule:evenodd;clip-rule:evenodd;fill:#04984A;}
	.st122{fill-rule:evenodd;clip-rule:evenodd;fill:url(#SVGID_00000059303839965249640320000014695602495636785305_);}
	.st123{fill:url(#SVGID_00000160894252827745203720000015255326399884449193_);}
	.st124{fill:url(#SVGID_00000003822137740922195590000006353882451539417531_);}
	.st125{fill:url(#SVGID_00000145046357916850919740000010697894964885246104_);}
	.st126{fill:url(#SVGID_00000150062559637567950060000002967260952382576032_);}
	.st127{fill:url(#SVGID_00000016070282945947672310000016160536188557073579_);}
	.st128{fill:url(#SVGID_00000052069352232822497450000008891104040462773672_);}
	.st129{fill:url(#SVGID_00000056401894215546578640000000955109604976586144_);}
	.st130{fill:url(#SVGID_00000129890972596069459950000016069929341406353075_);}
	.st131{fill:url(#SVGID_00000144323949174719212870000010850556134642343869_);}
	.st132{fill:url(#SVGID_00000105410060908540278860000004542952029906804879_);}
	.st133{fill:url(#SVGID_00000016791502896736062390000001230881462351687603_);}
	.st134{fill:url(#SVGID_00000079459122675852977690000005954698551361945488_);}
	.st135{fill:url(#SVGID_00000016068938561058871000000017026428064284358278_);}
	.st136{fill:url(#SVGID_00000099646409014299716620000005721827760778373540_);}
	.st137{fill-rule:evenodd;clip-rule:evenodd;fill:url(#SVGID_00000129175376424833960690000003706505797273601204_);}
	.st138{fill:#0A529D;}
	.st139{fill:url(#SVGID_00000018210165085238659330000011718613673165358483_);}
	.st140{fill:url(#SVGID_00000054263120660006610970000010620031941895295661_);}
	.st141{fill:url(#SVGID_00000010268715326179378750000014419485775151257278_);}
	.st142{fill:url(#SVGID_00000070832925262869592340000009021938815125800589_);}
	.st143{fill:url(#SVGID_00000054951797204965353210000008133275427202301086_);}
	.st144{fill:url(#SVGID_00000085968060672120046210000008598972561721898157_);}
	.st145{fill:url(#SVGID_00000072976572984351819710000015359088569385177517_);}
	.st146{fill:url(#SVGID_00000041974153849950473750000014582218520232062611_);}
	.st147{fill:url(#SVGID_00000135658711652520315400000012972049666884438433_);}
	.st148{fill:url(#SVGID_00000067212525217526915970000014256756478858550181_);}
	.st149{fill:url(#SVGID_00000021809869884032588970000010902011444653343889_);}
	.st150{fill:url(#SVGID_00000156564176599366432640000008552893626054860950_);}
	.st151{fill-rule:evenodd;clip-rule:evenodd;fill:url(#SVGID_00000029744171238775285210000016435861555811689118_);}
	.st152{fill:url(#SVGID_00000010288811585453015880000009169958061345586109_);}
	.st153{fill:url(#SVGID_00000132798575965323626230000010197238939420410552_);}
	.st154{fill:url(#SVGID_00000155138175933859847240000001947651311742715785_);}
	.st155{fill:url(#SVGID_00000047740483717237028260000015742967239219313032_);}
	.st156{fill:url(#SVGID_00000112609332134650691320000007041270698253748918_);}
	.st157{fill:url(#SVGID_00000169522546009801074760000000976675837241052299_);}
	.st158{fill:url(#SVGID_00000053539776331328238560000013714721838307733943_);}
	.st159{fill:url(#SVGID_00000140727659317360702120000006910806112245151623_);}
	.st160{fill:url(#SVGID_00000069369770723253681870000009939494584966877862_);}
	.st161{fill:url(#SVGID_00000170967989507653194490000005183499087922831005_);}
	.st162{fill:url(#SVGID_00000155115490774653926400000006640294438487770002_);}
	.st163{fill:url(#SVGID_00000036973756127640843310000012265701740782905260_);}
	.st164{fill:url(#SVGID_00000163061978747180586920000005170187747054843047_);}
	.st165{fill:url(#SVGID_00000056426111515991701450000017823937282181935250_);}
	.st166{fill:url(#SVGID_00000149342166432942811050000010920269869950415008_);}
	.st167{fill:url(#SVGID_00000141422391214793982180000013062514622870779010_);}
	.st168{fill:url(#SVGID_00000155115302566119624470000003996572177055954082_);}
	.st169{fill-rule:evenodd;clip-rule:evenodd;fill:url(#SVGID_00000066473398016909366920000008166900992662952116_);}
	.st170{fill:url(#SVGID_00000170275626946124707390000002923581888860809117_);}
	.st171{fill:url(#SVGID_00000182495288714274108120000015748062884482470536_);}
	.st172{fill:url(#SVGID_00000000941341271107784400000005396849501916299953_);}
	.st173{fill:url(#SVGID_00000125597113564191218640000008286059533667452086_);}
	.st174{fill:url(#SVGID_00000107559016244557809470000013908143770940695718_);}
	.st175{fill:url(#SVGID_00000023979085416100317630000013330116815261101980_);}
	.st176{fill:url(#SVGID_00000106134782064981279000000001791759145382048899_);}
	.st177{fill:url(#SVGID_00000169536844746170185380000003755494082078225054_);}
	.st178{fill:url(#SVGID_00000026133347887004866630000014902433926876358032_);}
	.st179{fill:url(#SVGID_00000176041223530187356320000010119187992723441297_);}
	.st180{fill:url(#SVGID_00000145773526489618759600000008985677601486431158_);}
	.st181{fill:url(#SVGID_00000119834223611093882870000018128772772514527106_);}
	.st182{fill:url(#SVGID_00000098187529156453379940000015307022487784480948_);}
	.st183{fill:url(#SVGID_00000178188589679698973190000011233717095404746673_);}
	.st184{fill-rule:evenodd;clip-rule:evenodd;fill:url(#SVGID_00000183240585353690433900000010037653505216603034_);}
	.st185{fill:url(#SVGID_00000116231168621404805100000002129216586207688871_);}
	.st186{fill:url(#SVGID_00000041984797307278471380000015978049731169290411_);}
	.st187{fill:url(#SVGID_00000058586503090479747740000001835116392602248605_);}
	.st188{fill:url(#SVGID_00000029040764240474910210000002359249229758228636_);}
	.st189{fill:url(#SVGID_00000081630502225279781620000007667916472315817616_);}
	.st190{fill:url(#SVGID_00000149360615898237969990000006191076770012938379_);}
	.st191{fill:url(#SVGID_00000166674447218966726030000002445438636503343260_);}
	.st192{fill:url(#SVGID_00000093877268460972724610000014284791290271230369_);}
	.st193{fill:url(#SVGID_00000141420951785111435850000005909570456587526071_);}
	.st194{fill:url(#SVGID_00000146482571607482465870000010346300235607591839_);}
	.st195{fill:url(#SVGID_00000125593354878998357800000009013383318193896352_);}
	.st196{fill:url(#SVGID_00000002355200303730680820000015696279140548770997_);}
	.st197{fill:url(#SVGID_00000051376243473787619080000014086897403461418667_);}
	.st198{fill:url(#SVGID_00000065034997381526063620000013971043318878666387_);}
	.st199{fill:url(#SVGID_00000034791201752751200230000002327820438907841978_);}
	.st200{fill:url(#SVGID_00000165951489909215766160000014065194961484093066_);}
	.st201{fill:url(#SVGID_00000026135731921068793550000016596985810883774376_);}
	.st202{fill:url(#SVGID_00000070115729995950706040000001498983529097681317_);}
	.st203{fill:url(#SVGID_00000121255488623271491570000004734966023560748939_);}
	.st204{fill-rule:evenodd;clip-rule:evenodd;fill:url(#SVGID_00000123424617655207110370000005191240189598204336_);}
	.st205{fill:url(#SVGID_00000016066804041662422270000007292664377032857009_);}
	.st206{fill:url(#SVGID_00000165209491204145988830000017782066292195951238_);}
	.st207{fill:url(#SVGID_00000142855762557193557510000000841046678530643391_);}
	.st208{fill:url(#SVGID_00000026157291783140685090000010892635241632158624_);}
	.st209{fill:url(#SVGID_00000100376415832948699380000006501811586273051315_);}
	.st210{fill:url(#SVGID_00000000911889008550540560000004630803207897880716_);}
	.st211{fill:url(#SVGID_00000071531326978411272070000015818679852362327972_);}
	.st212{fill:url(#SVGID_00000112613060628490481360000002913351341339767452_);}
	.st213{fill:url(#SVGID_00000022530617281595759400000006331212759212329114_);}
	.st214{fill:url(#SVGID_00000074440600321004629330000012999659491346317236_);}
	.st215{fill:url(#SVGID_00000177484044737886105240000002063847327255561357_);}
	.st216{fill:url(#SVGID_00000059302469134049596690000015918742159332278940_);}
	.st217{fill:url(#SVGID_00000058559331936339707730000010310231443003082147_);}
	.st218{fill:url(#SVGID_00000062170736878141987720000006224498791931241352_);}
	.st219{fill:url(#SVGID_00000095310581268954468580000008277795276092938172_);}
	.st220{fill:url(#SVGID_00000051355872243065907380000005871577563229468340_);}
	.st221{fill-rule:evenodd;clip-rule:evenodd;fill:url(#SVGID_00000039115721163635367850000008879482798097055104_);}
	.st222{fill:url(#SVGID_00000142859734574782781270000014919824577298757786_);}
	.st223{fill:url(#SVGID_00000147219832270789169760000011148468924041093036_);}
	.st224{fill:url(#SVGID_00000145771767033060855510000013762155865503623870_);}
	.st225{fill:url(#SVGID_00000043459452164131216480000007714509531457738894_);}
	.st226{fill:url(#SVGID_00000029012456772226232450000009939466071192648067_);}
	.st227{fill:url(#SVGID_00000116956406489610081250000004281743125448474548_);}
	.st228{fill:url(#SVGID_00000003798741684782521300000008079930214082502575_);}
	.st229{fill:url(#SVGID_00000177459333612501037060000016490044113230131087_);}
	.st230{fill:url(#SVGID_00000134248964885065645140000000728735581074462088_);}
	.st231{fill:url(#SVGID_00000103961386131831915410000011931715545832929186_);}
	.st232{fill:url(#SVGID_00000134243195936578715800000017178512485441894549_);}
	.st233{fill:url(#SVGID_00000118366512352686858120000013259914474976476065_);}
	.st234{fill:url(#SVGID_00000088103940717739906360000005817101933853689012_);}
	.st235{fill:url(#SVGID_00000137837527538231632000000010732360463104881294_);}
	.st236{fill:url(#SVGID_00000065062671900045876760000013235186868156761246_);}
	.st237{fill-rule:evenodd;clip-rule:evenodd;fill:url(#SVGID_00000175292070928681447740000007302802361125795497_);}
	.st238{fill:url(#SVGID_00000013893003615697636690000015827806215449496227_);}
	.st239{fill:url(#SVGID_00000108300633452801547790000002021683875932947646_);}
	.st240{fill:url(#SVGID_00000183960589994558316620000017800793212777645955_);}
	.st241{fill:url(#SVGID_00000178908663458424834200000013233237279359703432_);}
	.st242{fill:url(#SVGID_00000131352007586530304460000018194178857100055208_);}
	.st243{fill:url(#SVGID_00000029033477484852922510000012538424982513199753_);}
	.st244{fill:url(#SVGID_00000044866134521458425500000002096016491376998574_);}
	.st245{fill:url(#SVGID_00000172400408385211456320000008163686445792538273_);}
	.st246{fill:url(#SVGID_00000092441754378670183530000018180149694854328704_);}
	.st247{fill:url(#SVGID_00000072968929624693099690000004320305221290288803_);}
	.st248{fill:url(#SVGID_00000114057447823583289140000000194238568844995744_);}
	.st249{fill:url(#SVGID_00000103972587708715945350000001404603789363200437_);}
	.st250{fill:url(#SVGID_00000170245305356951120720000008597534321736992702_);}
	.st251{fill:url(#SVGID_00000175283309697196937340000008446542936690951600_);}
	.st252{fill:url(#SVGID_00000157288260134243673990000006043841169022375558_);}
	.st253{fill-rule:evenodd;clip-rule:evenodd;fill:url(#SVGID_00000157300809204778291640000001826707252047558041_);}
	.st254{fill:url(#SVGID_00000137830122665948617480000008086101767925870734_);}
	.st255{fill:url(#SVGID_00000006698396081817982650000008557851202066819712_);}
	.st256{fill:url(#SVGID_00000113338354424064707930000017698818961705330574_);}
	.st257{fill:url(#SVGID_00000004538640370499201460000001323321868940839072_);}
	.st258{fill:url(#SVGID_00000008141111523332484620000013623325991088446874_);}
	.st259{fill:url(#SVGID_00000147182868875319998780000006426689823892284088_);}
	.st260{fill:url(#SVGID_00000118366970976538678070000013741865470812403391_);}
	.st261{fill:url(#SVGID_00000139254883637446537530000001220272615134080425_);}
	.st262{fill:url(#SVGID_00000122701800476627142630000007597243039761147543_);}
	.st263{fill:url(#SVGID_00000147204545142966261610000001458167984020741788_);}
	.st264{fill:url(#SVGID_00000089563003770941832290000005475637568208063673_);}
	.st265{fill:url(#SVGID_00000126319661831760946000000012239199410251662725_);}
	.st266{fill:url(#SVGID_00000005263844682461212140000009089450243724284292_);}
	.st267{fill:url(#SVGID_00000052105641955159909620000001562288132923252096_);}
	.st268{fill:url(#SVGID_00000023994646629446065090000000937868510900142008_);}
	.st269{fill-rule:evenodd;clip-rule:evenodd;fill:url(#SVGID_00000116924355997221492870000016369986745347618199_);}
	.st270{fill:url(#SVGID_00000129203987839882719680000006171361688920708531_);}
	.st271{fill:url(#SVGID_00000150804764307158816900000014648078367725627797_);}
	.st272{fill:url(#SVGID_00000128484915220931473770000008743318367137794482_);}
	.st273{fill:url(#SVGID_00000130640520895137754620000008760058387416567458_);}
	.st274{fill:url(#SVGID_00000161617716578705098740000015616398226937571204_);}
	.st275{fill:url(#SVGID_00000090269155651265657020000008173665620869733550_);}
	.st276{fill:url(#SVGID_00000023997404943453499420000001492475501078328472_);}
	.st277{fill:url(#SVGID_00000146464315586604450600000010336321745142295683_);}
	.st278{fill:url(#SVGID_00000064346241527588672530000001772662077308803999_);}
	.st279{fill:url(#SVGID_00000110452402883071223900000010460635866579731096_);}
	.st280{fill:url(#SVGID_00000124841240693580723840000009688373784993368723_);}
	.st281{fill:url(#SVGID_00000102526611020505132130000018389462102522259129_);}
	.st282{fill:url(#SVGID_00000013912876855473844160000012638365322449551791_);}
	.st283{fill:url(#SVGID_00000131328521959904082930000000700812542453192346_);}
	.st284{fill:url(#SVGID_00000130618170838213605450000001023490808941934492_);}
	.st285{fill-rule:evenodd;clip-rule:evenodd;fill:url(#SVGID_00000060722982757031702000000003189079321132969365_);}
	.st286{fill:url(#SVGID_00000118365197916768417060000002735797193927165076_);}
	.st287{fill:url(#SVGID_00000040541311959938594080000012226449226966977724_);}
	.st288{fill:url(#SVGID_00000003811247793329159770000010686550221858193038_);}
	.st289{fill:url(#SVGID_00000155108507435431384710000014674949102455276217_);}
	.st290{fill:url(#SVGID_00000176729005405882338660000001822959593740314498_);}
	.st291{fill:url(#SVGID_00000047745596651116992830000003393452993798919867_);}
	.st292{fill:url(#SVGID_00000006687633975897809070000017838314728592521372_);}
	.st293{fill:url(#SVGID_00000105395768464334956680000007892987909943040910_);}
	.st294{fill:url(#SVGID_00000097491774020545495520000002207733272199949703_);}
	.st295{fill:url(#SVGID_00000019677451413256961930000012163533377878247095_);}
	.st296{fill:url(#SVGID_00000112593311819785423530000004368625048298266788_);}
	.st297{fill:url(#SVGID_00000063595246118225718550000002399202118494227593_);}
	.st298{fill:url(#SVGID_00000072970847280836362780000014555445305414264973_);}
	.st299{fill:url(#SVGID_00000124139205534415889970000004899184635785899690_);}
	.st300{fill:url(#SVGID_00000099635793347984708990000008080989045239624065_);}
	.st301{fill:url(#SVGID_00000116216645545024345360000001189306154399671969_);}
	.st302{fill:url(#SVGID_00000119091619739592830630000018397623067429376904_);}
	.st303{fill:url(#SVGID_00000158000933234326724470000001933960119830057908_);}
	.st304{fill-rule:evenodd;clip-rule:evenodd;fill:url(#SVGID_00000098195612278551711650000004465003977162166713_);}
	.st305{fill:url(#SVGID_00000109748314334069177940000010133952040946876342_);}
	.st306{fill:url(#SVGID_00000023984815454901560720000008614541578520626840_);}
	.st307{fill:url(#SVGID_00000038402418667786891840000011890994660476014262_);}
	.st308{fill:url(#SVGID_00000121994935172545895660000000953961858473351090_);}
	.st309{fill:url(#SVGID_00000036939642078267880600000016466328544419663795_);}
	.st310{fill:url(#SVGID_00000131339414847102345420000003178784292639802534_);}
	.st311{fill:url(#SVGID_00000047018060760448616810000015026583193035721651_);}
	.st312{fill:url(#SVGID_00000158718146781284001070000007339236808816638617_);}
	.st313{fill:url(#SVGID_00000167361471976128972860000008590529122243782817_);}
	.st314{fill:url(#SVGID_00000141418012987249911920000004280003409171474094_);}
	.st315{fill:url(#SVGID_00000170280425256771134970000000829394928306093200_);}
	.st316{fill:url(#SVGID_00000058561574385280569880000002079657718104136607_);}
	.st317{fill:url(#SVGID_00000096773232533183817720000015966680178393035181_);}
	.st318{fill:url(#SVGID_00000128446985410252382800000006236822719849385113_);}
	.st319{fill:url(#SVGID_00000036958984937264064450000002832613850393548448_);}
	.st320{fill:url(#SVGID_00000116216923359213147510000016945323187059845299_);}
	.st321{fill:url(#SVGID_00000096750909127505758340000008282725420934604933_);}
	.st322{fill:url(#SVGID_00000124853960004531808170000008401128592906758581_);}
	.st323{fill:url(#SVGID_00000142883596778921192980000003350182988047200933_);}
	.st324{fill:url(#SVGID_00000011011298073942645390000015122300052073672102_);}
	.st325{fill-rule:evenodd;clip-rule:evenodd;fill:url(#SVGID_00000117676581275806697300000011421119329109990282_);}
	.st326{fill:url(#SVGID_00000103228674494985840250000001748023082618865066_);}
	.st327{fill:url(#SVGID_00000047033223681059475230000014899287880035540414_);}
	.st328{fill:url(#SVGID_00000145762275232992353740000008339750133907263897_);}
	.st329{fill:url(#SVGID_00000044148646948570106010000008702303011143312823_);}
	.st330{fill:url(#SVGID_00000176743998110126947050000015396058632709438652_);}
	.st331{fill:url(#SVGID_00000040558531142364842290000010974279975016139932_);}
	.st332{fill:url(#SVGID_00000130624356237322436200000014569544452427868831_);}
	.st333{fill:url(#SVGID_00000107570959604013212560000016221581275390403227_);}
	.st334{fill:url(#SVGID_00000034775863520257904510000017386321220319398829_);}
	.st335{fill:url(#SVGID_00000067928475510127038840000013214626337823402166_);}
	.st336{fill:url(#SVGID_00000123420790555745974920000008805279587556855196_);}
	.st337{fill:url(#SVGID_00000163754630549214815190000004673451101645405102_);}
	.st338{fill:url(#SVGID_00000140715546894501304230000001649141264358481588_);}
	.st339{fill:url(#SVGID_00000111190200433590523380000014974974345708075152_);}
	.st340{fill:url(#SVGID_00000075161284066935075250000000997645745861444015_);}
	.st341{fill:url(#SVGID_00000163061905709298762200000016503294517887319968_);}
	.st342{fill-rule:evenodd;clip-rule:evenodd;fill:url(#SVGID_00000123436416359824982210000008875071152908385161_);}
	.st343{fill:url(#SVGID_00000021086590607081671050000009692851783709462671_);}
	.st344{fill:url(#SVGID_00000173140764253647977290000017967963708312443777_);}
	.st345{fill:url(#SVGID_00000024723025919949267200000004897775744034713217_);}
	.st346{fill:url(#SVGID_00000155113621870627927490000005255637806185944963_);}
	.st347{fill:url(#SVGID_00000026854892371724834080000008871361539354710190_);}
	.st348{fill:url(#SVGID_00000093167628066444891350000000281021506708891265_);}
	.st349{fill:url(#SVGID_00000070080465241778375420000005672242625096868286_);}
	.st350{fill:url(#SVGID_00000035498285610702679560000000283845017164469917_);}
	.st351{fill:url(#SVGID_00000000927377991884564580000013936003185582088124_);}
	.st352{fill:url(#SVGID_00000176023281746471760290000010836481708121152679_);}
	.st353{fill:url(#SVGID_00000111889997291966165830000013106582703177463427_);}
	.st354{fill:url(#SVGID_00000096059242938979125170000003693904665442915250_);}
	.st355{fill:url(#SVGID_00000162341534714272976040000017883974217605592235_);}
	.st356{fill:url(#SVGID_00000183219238637709148860000006693628708957700517_);}
	.st357{fill:url(#SVGID_00000176734847730325550950000012276837168783488674_);}
	.st358{fill:url(#SVGID_00000183209511188044574710000017589612050007754171_);}
	.st359{fill:url(#SVGID_00000113336238770744005110000016522132111222722179_);}
	.st360{fill:url(#SVGID_00000022523481952809320650000014726263365596188064_);}
	.st361{fill:url(#SVGID_00000181806158026037575910000010954583569859555205_);}
	.st362{fill:url(#SVGID_00000097465580672584522180000017580843445015052672_);}
	.st363{fill:#C1282D;}
	.st364{fill-rule:evenodd;clip-rule:evenodd;fill:url(#SVGID_00000114035035737897522490000015696752236697924754_);}
	.st365{fill:url(#SVGID_00000032635956829775499850000008197485005223262136_);}
	.st366{fill:url(#SVGID_00000047036406258096294250000008941162395372736182_);}
	.st367{fill:url(#SVGID_00000167354316659448557310000005162400244609158056_);}
	.st368{fill:url(#SVGID_00000000937505207544556770000016256422849760382347_);}
	.st369{fill:url(#SVGID_00000003786350711995825410000005896294201445590411_);}
	.st370{fill:url(#SVGID_00000028317495112758143000000010607296037596190855_);}
	.st371{fill:url(#SVGID_00000128478508865155930940000003089949602285769865_);}
	.st372{fill:url(#SVGID_00000133487361311605796750000004470950592299225733_);}
	.st373{fill:url(#SVGID_00000069383051840479525990000003958489169101942710_);}
	.st374{fill:url(#SVGID_00000132768764571487092670000011849525974033830285_);}
	.st375{fill:url(#SVGID_00000171689324792131285240000015628747263685028006_);}
	.st376{fill:url(#SVGID_00000036962807197793648140000011099347648580712595_);}
	.st377{fill:url(#SVGID_00000173876695871343595810000001475889803352474272_);}
	.st378{fill:url(#SVGID_00000055691565402401926460000007151870925687527051_);}
	.st379{fill:url(#SVGID_00000127757462285783370100000012610925800198385819_);}
	.st380{fill:url(#SVGID_00000175294872564683677810000014970370933218319280_);}
	.st381{fill-rule:evenodd;clip-rule:evenodd;fill:url(#SVGID_00000116952239936268225920000007027630540163976607_);}
	.st382{fill:url(#SVGID_00000166673321748830661390000004963495055552331392_);}
	.st383{fill:url(#SVGID_00000088125482285244042420000012793734979920016560_);}
	.st384{fill:url(#SVGID_00000157299680478512164490000009093972700237628811_);}
	.st385{fill:url(#SVGID_00000168821828002697380370000007998267120478011554_);}
	.st386{fill:url(#SVGID_00000068637398437478708370000017953851064004648370_);}
	.st387{fill:url(#SVGID_00000165200385249415683860000010826418987561081533_);}
	.st388{fill:url(#SVGID_00000030488009559845801120000017591372801679550879_);}
	.st389{fill:url(#SVGID_00000115508640769111881260000009106991675296439700_);}
	.st390{fill:url(#SVGID_00000132066800043015859000000012674832942324352673_);}
	.st391{fill:url(#SVGID_00000037692704507308623060000000848162221447076737_);}
	.st392{fill:url(#SVGID_00000106142163023619940540000008423095127979852936_);}
	.st393{fill:url(#SVGID_00000003805579147702642910000018088980303061440439_);}
	.st394{fill:url(#SVGID_00000132778412161683883130000001685063409659035301_);}
	.st395{fill:url(#SVGID_00000025422585082796927630000008008368310706967195_);}
	.st396{fill:url(#SVGID_00000130634745180805220100000003007467955852758160_);}
	.st397{fill:url(#SVGID_00000011723503840429945530000015214280471252727965_);}
	.st398{fill:url(#SVGID_00000163056687396962179690000010802757051671504058_);}
	.st399{fill:url(#SVGID_00000066479212236833920140000015074445150844220854_);}
	.st400{fill:url(#SVGID_00000011015803900133711600000013958377055334826884_);}
	.st401{fill:url(#SVGID_00000095301691847815096800000017673085960642284168_);}
</style>
<g>
	<path class="st19" d="M95.48,646.31c0,14.7,3.96,38.53,12.78,50.25c10.25,13.65,38.63,23.86,38.63,2.82
		c0-9.18-3.48-41.3-4.82-50.73c-3.22-22.57-10.1-29.69-31.65-29.69c-1.72,0-4.91,2.74-6.06,3.9
		C98.81,628.44,95.48,637.92,95.48,646.31 M108.74,495.42c0,20.59-2.76,63.76,8.51,79.38c8.69,12.05,17.97,14.11,21.44-3
		c1.23-6.04,0.49-12.89,0.7-20.03c0.13-4.2,0.86-4.57,0.89-9.06c0.21-29.39,9.48-72.01,16.84-97.57
		c7.66-26.6,16.63-50.11,30.23-72.58c6.43-10.62,12.63-21.51,20.06-31.34c7.27-9.62,14.49-19.87,23.02-28.39
		c2.17-2.15,2.57-3.27,4.54-5.41c1.84-1.99,3.45-3.43,5.4-5.38l21.51-19.94c11.45-9.62,23.08-18.24,35.57-26.61l19.13-11.56
		c16.37-8.31,32.25-16.78,49.54-23.43c10.05-3.85,21.53-6.87,31.99-9.46c0.19-0.05,30.61-7.77,21.46,0.59
		c-7.87,7.2-54.84,25.49-69,32.29c-22.29,10.69-44.42,21.89-63.3,37.85c-16.91,14.29-32.27,30.23-47.31,46.37
		c-20.77,22.3-42.43,59.32-53.13,86.15c-24.36,61.05-23.02,95.91-23.34,159.07l0.8,29.86c0.01,4.8,0.76,5.65,0.89,9.9
		c0.09,3.27-0.16,6.73-0.05,10c0.13,4.27,0.89,5.08,0.87,9.91c-0.19,44.09,18.91,89.05,40.56,125.26
		c5.03,8.4,11.67,16.07,18.09,23.36c3.3,3.75,7.05,6.63,10.35,10.37c7.88,8.96,16.84,16.8,25.28,25.3c2.32,2.32,3.6,2.86,5.83,4.95
		c10.82,10.06,23.42,18.03,35.25,26.93c4.09,3.06,8.11,5.51,12.37,8.36c12.53,8.35,25.61,16.33,39.07,23.11
		c29.57,14.89,63.37,23.39,96.24,28.11c5.36,0.78,13.76-0.33,13.76,6.97c0,6.59-17.76,4.97-22.38,4.97
		c-15.51,0-35.64-5.63-50.41-9.28c-7.78-1.92-15.34-4.47-23.21-6.64c-7.61-2.1-15.36-5.39-22.65-8.01
		c-3.88-1.4-6.81-2.82-10.56-4.36c-33.81-13.96-55.02-29.52-83.15-51.99c-3-2.4-4.41-4.48-7.82-7.1c-2.86-2.22-5.06-4.77-7.61-7.32
		l-25.3-26.94c-16.08-16.52-27.15-37.9-44.34-53.49c-2.62-2.38-5.94-4.88-9.76-2.78c-16.39,8.96,7.03,55.38,11.05,62.03
		c7.83,12.95,16.33,24.69,25.74,36.43c6.62,8.28,15.17,16.14,22.72,23.72l24.66,21.76c36.1,28.14,59.19,39.29,102.71,53.15
		c94.43,30.08,205.86,18.97,296.92-17.51c41.84-16.77,76.45-36.03,111.57-63.36c7.8-6.07,33.37-30.24,38.49-36.96l11.85-13.02
		c12.51-14.88,32.29-41.43,41.48-58.02l17.98-32.55c21.5-41.39,37.3-90.55,37.3-138.51v-36.47c0-14.58-1.3-26.84-1.63-40.65
		c-0.15-5.86-1.42-12.91-1.68-19.04c-1.2-28.15-9.44-63.61-16.93-90.03c-3.8-13.4-9.33-24.92-15.66-36.44
		c-8.66-15.76-17.76-31.84-28.86-45.87c-6.47-8.17-13.37-14.99-20.83-22.3l-10.69-10.02c-3.74-2.99-7.48-7.04-11.37-10.2
		c-23.86-19.39-49.66-36.62-77.22-50.44l-21.8-9.72c-33.99-14.72-47.22-10.25-78.38-17.79c-14.41-3.5-21.03-17.26-2.64-17.26
		c13.03,0,25.95,2.27,37.32,4.14c32.83,5.4,61.5,18.92,90.64,33.7c11.18,5.68,21.93,12.39,32.53,18.89l19.07,12.43
		c8.31,6.04,15.92,11.24,23.82,17.63c15.28,12.35,29.97,25.4,42.03,40.88c12.25,15.72,22.48,33.41,31.49,51.4
		c4.69,9.35,8.43,18.97,12.45,29.02c0.95,2.39,1.68,4.7,2.57,7.37c14.37,43.15,24.78,84,24.78,131.92c0,32.8-0.24,69.62-3.99,100.48
		c-1.37,11.26-3.47,20.65-6.28,31.85c-12.19,48.41-20.13,69.72-42.24,110.3c-4.57,8.41-9.66,15.58-14.81,23.34
		c-7.43,11.2-15.77,22.48-24.9,32.31c-15.35,16.48-31.25,32.59-48.83,46.51c-3.65,2.9-6.91,5.61-10.56,8.52
		c-3.6,2.88-7.28,5.47-10.89,8.17c-15.84,11.88-49.98,33.32-56.64,38.71c-18.86,15.26-4.64,23.65,32.61,6.91l14.35-7.21
		c22.69-11.21,43.55-28.65,63.57-44.21l16.82-14.68c2.52-2.12,3.39-2.6,5.77-5.01c14.25-14.42,29.77-27.81,43.54-42.69l15.32-17.01
		c2.1-2.1,3.09-3.53,4.97-5.81c3.17-3.87,6.14-7.81,8.94-11.79c32.08-45.69,47.9-79.06,59.07-134.95
		c8.43-42.22,12.75-85.69,11.42-130.39c-0.14-4.42-0.9-6.25-0.87-11.57c0.11-19.84-0.92-37.98-4.91-57.28
		c-9.22-44.62-20.72-81.89-40.96-122.37c-14.92-29.85-37.27-66.64-60.87-90.03c-4.47-4.42-7.4-8.59-12.01-12.86
		c-13.05-12.07-26.86-23.76-41.75-33.7c-5.37-3.58-9.78-6.39-15.22-9.67c-15.98-9.62-33.1-18.17-50.75-24.69
		c-18.62-6.88-37.32-12.64-56.79-17.82c-14.44-3.84-27.14-6.24-42.2-8.38c-12.18-1.73-38.6-1.23-47.5-2.24
		c-21.29-2.39-55.14-0.52-75.42,1.92c-15.39,1.87-30.26,5.29-44.85,8.22c-34.97,7.07-71.23,14.54-104.65,27.99
		c-22.14,8.91-34.17,12.7-55.99,23.62c-5.91,2.95-12.23,5.73-17.64,8.87c-2.96,1.73-5.17,2.91-8.62,4.66
		c-3.23,1.63-5.25,3.09-8.35,4.91c-27.25,16.01-53.45,34.66-76.15,56.5c-4.68,4.51-8.64,8.69-13.26,13.28
		c-11.62,11.55-26.59,30.78-35.91,43.67c-3.96,5.48-6.81,10.42-10.46,16.07c-13.49,20.9-25.74,45.94-34.35,71.78
		C115.63,432.92,108.74,458.94,108.74,495.42z M869.84,884.26h3.31v-13.27l5.81,13.27h1.42l5.21-12.44v12.44h3.31v-19.08l-4.01,0.02
		l-5.12,12.74l-4.97-12.76h-4.98V884.26z M852.43,867.67h5.81v16.58h3.32v-16.58h6.63v-2.49h-15.76V867.67z"/>
	<path class="st20" d="M551.68,706.72c0.45-5.43,6.52-22.64-0.61-34.3c-8.67-14.19-41.82-2.91-20.02,7.56
		c-2.01,10.78-22.99,52.79,3.41,57.13c22.04,3.63,40.37-23.49,49.34-28.76c2.12,2.08,6.18,10.49,9.65,15.37
		c2.58,3.64,9.08,10.01,16.82,8.62c3.56-4.89,1.26-15.82,1.45-23.03c0.46-16.67,3.6-33.07,3.89-47.27
		c0.29-14.73-11.53-7.96-13.59-5.79c-3.08,3.22-7.11,10.43-10.15,14.72C585.61,679.85,560.3,706.91,551.68,706.72 M431.86,706.78
		c0.41-8.04,26.02-66.23,13.49-69.89c-12.48-3.64-38.54,49.87-43.25,59.82c-1.86,3.92-5.72,15.69-8.32,17.41
		c-5.03,3.35-31.8,5.13-36.48,15c-3.59,7.56,5.17,13.07,10.31,14.83c7.85,2.7,15.36,0.21,13.27,11.24
		c-1.28,6.77-4.06,12.69-5.31,20.22c-7.97,48.12,18.86,39.95,27.03,25.47c3.07-5.43,5.22-11.52,7.3-18.41
		c3.86-12.81,7.67-28.25,10.58-41.63c11.12-2.75,30.2-11.7,40.46-12.49c-0.68,12.68-7.71,32.2,1.35,41.97
		c4.94,5.32,12,4.14,17.75,0.23c11.99-8.15,13.14-36.92,18.05-56.49c3.62-14.42,24.02-15,21.71-27.82c-2.45-0.78-4.84-0.4-7.48,0.48
		c-1.35,0.44-6.12,2.77-7.53,1.05c-1.64-5,7.13-36.52,8.41-44.95c2.23-14.59-9.97-15.44-24.06,10.82
		c-6.98,13.01-11.1,23.87-16.89,37.81c-3.79,9.13-6.47,8.42-16.2,11.16C449.19,704.57,439.32,707.2,431.86,706.78z M655.32,640.81
		c-13.34,0.45-29.86-2.45-33.72,6.01c-3.77,8.22,5.04,15.18,11.2,16.16c4.96,0.78,5.86-0.5,7.6,2.37
		c3.67,7.76-21.14,78.37-1.87,84.2c7.72-3.7,14.46-30,17.95-40.5l15.86-43c3.29-8.7,7.44-9.53,16.19-12.83
		c7.15-2.69,13.76-5.3,20.87-8.13c6.66-2.66,24.47-9.82,30.56-13.38c4.01-2.35,7.25-2.97,6.84-7.43
		c-11.38-5.01-44.27,7.97-58.65,7.94c0.04-5.03,12.93-31.12-1.47-29.96c-4.29,0.34-6.52,3.33-8.72,5.61
		C672.78,613.23,657.56,634.06,655.32,640.81z M656.18,565.24c-17.05,2.42-29.63,2.93-47.71-0.08c1.33-3.94,5.05-7.19,7.7-10
		c3.41-3.63,4.52-5.94,8.73-9.53l26.41-28.3c2.74-3.52,4.95-8.16,3.72-14.3c-3.39-17.03-42.73-6.01-58.75-4.16
		c-8.63,0.99-26.1-0.35-30.29,6.1c-6.15,9.45,7.28,17.59,15.56,18.29c10.92,0.92,24.24-3.06,33.47-1.82
		c-2.74,6.59-58.38,44.01-58.25,62.75c0.08,11.44,23.72,5.2,32.05,4.87c24.02-0.96,51.32,0.09,69.37-11.78
		c5.51-3.63,5.74-4.99,14.3-5.25c19.07-0.57,30.15-7.13,45.35-17.21c7.49-4.96,16.93,5.94,31.68,2.67
		c8.53-1.89,27.47-7.7,15.81-16.39c-9.43-7.02-22.84,0.32-15.91-20.18c2.5-7.41,10.51-28.71-3.11-28.67
		c-35.5,0.07-63.7,13.36-82.85,38.91C653.75,544.08,655.41,546.36,656.18,565.24z M687.88,543.09
		c-0.09-8.02,22.36-26.65,35.37-27.03c-1.71,7.48-5.39,15.23-12.5,19.22C706.83,537.48,692.56,545.01,687.88,543.09z M520.66,543.64
		c-0.91,3.83-7.32,9.13-9.83,11.46l-22.81,21.94c-8.11,7.23-27.59,25.68-31.11,35.21c-7.31,19.84,12.79,16.39,25.33,13.77
		c42.59-8.9,93.42-4.26,120.77-11.89c9.34-2.6,26.78-9.65,25.41-19.14c-6.51-3.26-16.75,1.13-25.5,1.69
		c-17.92,1.15-71.58-1.12-93.94-1.12c5.09-7.69,21.08-21.53,26.81-27.93c8.39-9.39,17.71-19.03,23.87-30.89
		c6.4-12.35-1.86-19.42-14.83-18c-10.8,1.19-21.27,2.75-32.42,3.63c-11.04,0.88-45.73,0.35-37.03,15.99
		C482.9,551.87,514.45,543.69,520.66,543.64z M454.73,526.82c-5.53,2.67-13.38,15.57-17.23,21.28
		c-9.32,13.85-24.52,34.16-24.99,51.75c-0.35,13.12,0.37,24.01,10.8,27.93c12.58,4.72,11.82-8,16.67-19.17
		c8.24-18.95,26.57-52.28,23.23-72.28C462.4,531.61,460.09,524.22,454.73,526.82z M491.66,461.08
		c-12.18,3.67-26.2,13.57-33.11,20.98c-4.99,5.37-14.5,18.98-9.22,27.6c13.11,21.34,38.86-22.36,46.66-34.9
		C499.25,469.55,503,457.66,491.66,461.08z M328.57,529.21l-16.31,29.63c-14.37,26.86-30.85,71.21-35.84,100.93
		c-1.11,6.63-1.96,13.71-1.92,20.57c0.02,6.61,4.17,14.18,11.32,11.35c11.58-4.58,39.3-80.22,43.94-92.7
		c9.39,2.27,7.93,10.1,34.86-0.25c21.48-8.26,39.67-18.63,49.05-40.48c4.57-10.62,5.41-28.45,0.1-38.71
		c-4.46-8.61-14.13-16.14-24.11-20.69c-11.27-5.13-26.49-5.89-39.75-3.6c-13.39,2.32-23.34,6.61-31.2,13.61
		c-2.82,2.5-8.4,7.9-7.18,14.24C313.33,532.39,319.89,529.41,328.57,529.21z M333.63,595.5c-0.85-5.78,7.38-27.57,9.53-33.97
		c1.85-5.5,3.79-11.53,5.23-17.15l3.62-18.76c4.71-0.91,12.71,0.92,17.09,2.11c17.12,4.69,24.1,20.98,13.51,35.94
		c-5.13,7.27-12.93,13.98-21.52,19.12C357.51,584.93,337.47,595,333.63,595.5z M621.23,288.66c-24.57,2.58-50.64,10.24-75.08,14.96
		c-25.1,4.83-50.57,9.65-75.35,14.96c-10.66,2.28-16.41,14.09-22.26,22.52c-6.5,9.37-11.97,18.12-18.48,27.1
		c-2.37,3.28-7.05,10.73-9.83,12.56l-47.06,20.93c-12.85,5.85-98.03,48.16-105.51,62.89c-2.19,4.29-0.99,5.12,1.77,6.96
		c9.19,6.1,22.67,1.71,37.62-0.71c13.29-2.16,26.53-3.94,40-5.75c79.98-10.77,161.29-23.95,241.78-28.86
		c57.55-3.51,116.22-5.64,174.08-6.02c14.23-0.1,29.23,3.37,35.38-8.02c6.85-12.71-8.57-19.61-16.78-24.11
		c-18.43-10.11-41.66-20.17-62.94-27.45c-7.39-2.53-65.42-21.72-67.17-23.19c-3.11-2.6-8.96-28.57-10.04-34.78
		c-1.06-6.02-2.23-12.4-4.7-17.63C633.31,287.94,629.66,287.77,621.23,288.66z"/>
</g>
</svg>
