<?xml version="1.0" encoding="utf-8"?>
<!-- Generator: Adobe Illustrator 26.5.0, SVG Export Plug-In . SVG Version: 6.00 Build 0)  -->
<svg version="1.1" id="Layer_1" xmlns="http://www.w3.org/2000/svg" xmlns:xlink="http://www.w3.org/1999/xlink" x="0px" y="0px"
	 viewBox="0 0 1080 1080" style="enable-background:new 0 0 1080 1080;" xml:space="preserve">
<style type="text/css">
	.st0{fill-rule:evenodd;clip-rule:evenodd;}
	.st1{fill:#ED1C24;}
	.st2{fill:#E1251B;}
	.st3{fill-rule:evenodd;clip-rule:evenodd;fill:#16397B;}
	.st4{fill:#EE2745;}
	
		.st5{clip-path:url(#SVGID_00000018199925245902524680000015004500604721120937_);fill:url(#SVGID_00000162320143887105373260000007997551662084667067_);}
	
		.st6{clip-path:url(#SVGID_00000137820531271196703950000002328740389843723170_);fill:url(#SVGID_00000087387563822427404370000010619536045061026487_);}
	
		.st7{clip-path:url(#SVGID_00000049219437785887750250000010806140794974871938_);fill:url(#SVGID_00000070818962938025809990000017111051667796371600_);}
	
		.st8{clip-path:url(#SVGID_00000096041098018369273970000002041359085004139172_);fill:url(#SVGID_00000137099650282767568990000013918109746621904051_);}
	.st9{fill:#424243;}
	
		.st10{clip-path:url(#SVGID_00000006679369399568055010000006660601693619946388_);fill:url(#SVGID_00000117666556028374042940000013150085094156069053_);}
	.st11{fill:#FFFFFF;}
	
		.st12{clip-path:url(#SVGID_00000040534107717008015750000016380289409277472671_);fill:url(#SVGID_00000078013815642597099800000001791628324794595216_);}
	
		.st13{clip-path:url(#SVGID_00000069372988271958055250000017529752891257502851_);fill:url(#SVGID_00000143583872476098640040000012305339927404298166_);}
	
		.st14{clip-path:url(#SVGID_00000088102955412413923360000015465862707012568240_);fill:url(#SVGID_00000182492528050542747490000017350891962732795008_);}
	
		.st15{clip-path:url(#SVGID_00000180348013034425131720000015017934741412541073_);fill:url(#SVGID_00000102518624313367320170000015023851507842763660_);}
	
		.st16{clip-path:url(#SVGID_00000072965499193524327730000003766535341589308830_);fill:url(#SVGID_00000085246191761672099900000015862944255321044613_);}
	
		.st17{clip-path:url(#SVGID_00000132089185256796300650000016300518188372254386_);fill:url(#SVGID_00000143593809257421347590000000235241585576373636_);}
	
		.st18{clip-path:url(#SVGID_00000160885274778276110960000010206093829641518775_);fill:url(#SVGID_00000014608641634151347610000013675314070421361288_);}
	.st19{fill-rule:evenodd;clip-rule:evenodd;fill:#C8202F;}
	.st20{fill-rule:evenodd;clip-rule:evenodd;fill:#FFFFFF;}
	.st21{fill-rule:evenodd;clip-rule:evenodd;fill:#F98238;}
	.st22{filter:url(#Adobe_OpacityMaskFilter);}
	.st23{fill:url(#SVGID_00000134962891982954407520000009287895304952031104_);}
	.st24{mask:url(#SVGID_00000091008246214174546310000003649340893151611296_);fill-rule:evenodd;clip-rule:evenodd;fill:#ED1C24;}
	.st25{fill-rule:evenodd;clip-rule:evenodd;fill:#F5333F;}
	.st26{fill-rule:evenodd;clip-rule:evenodd;fill:#ED1C24;}
	.st27{fill-rule:evenodd;clip-rule:evenodd;fill:#F9A46E;}
	.st28{fill-rule:evenodd;clip-rule:evenodd;fill:#F47B26;}
	.st29{fill-rule:evenodd;clip-rule:evenodd;fill:#EB5433;}
	.st30{fill:#1A3282;}
	.st31{fill-rule:evenodd;clip-rule:evenodd;fill:#1A3282;}
	.st32{fill-rule:evenodd;clip-rule:evenodd;fill:#9D9FA2;}
	.st33{fill-rule:evenodd;clip-rule:evenodd;fill:#000303;}
	.st34{fill:#64003D;}
	.st35{fill:#536270;}
	.st36{fill-rule:evenodd;clip-rule:evenodd;fill:#64003D;}
	.st37{fill-rule:evenodd;clip-rule:evenodd;fill:#536270;}
	.st38{fill-rule:evenodd;clip-rule:evenodd;fill:#1A3382;}
	.st39{fill-rule:evenodd;clip-rule:evenodd;fill:#29387E;}
	.st40{fill-rule:evenodd;clip-rule:evenodd;fill:#F37021;}
	.st41{fill-rule:evenodd;clip-rule:evenodd;fill:#005C32;}
	.st42{fill-rule:evenodd;clip-rule:evenodd;fill:#D2AB67;}
	
		.st43{clip-path:url(#SVGID_00000174578479394542763040000016040501775433356983_);fill:url(#SVGID_00000164483251806603368910000015680450521299546556_);}
	
		.st44{clip-path:url(#SVGID_00000116935978225367556690000015752297155552509094_);fill:url(#SVGID_00000025404520057453286760000014040754408414621076_);}
	
		.st45{clip-path:url(#SVGID_00000115475244542515875710000017957802830416073625_);fill:url(#SVGID_00000144300460968812695610000013887437516380651441_);}
	.st46{fill-rule:evenodd;clip-rule:evenodd;fill:#00AEEF;}
	.st47{fill-rule:evenodd;clip-rule:evenodd;fill:#EC008C;}
	.st48{fill-rule:evenodd;clip-rule:evenodd;fill:#FFF200;}
	.st49{fill:#A7AAAC;}
	.st50{fill-rule:evenodd;clip-rule:evenodd;fill:#5C5B5B;}
	.st51{fill:#9D9D9F;}
	.st52{fill:#F04D23;}
	.st53{fill-rule:evenodd;clip-rule:evenodd;fill:#2E3192;}
	.st54{fill-rule:evenodd;clip-rule:evenodd;fill:#C4312D;}
	.st55{fill:#552715;}
	.st56{fill:#010101;}
	.st57{fill:#E31E2E;}
	.st58{fill:url(#SVGID_00000007395920065373061530000007660170774386065793_);}
	.st59{fill:url(#SVGID_00000145741081837272576890000004398820747220880829_);}
	.st60{clip-path:url(#SVGID_00000029023178457968827970000017353187399592157577_);}
	.st61{clip-path:url(#SVGID_00000165944421701540258250000008687112185388492678_);}
	.st62{clip-path:url(#SVGID_00000127002036400075841070000016725422958184731283_);}
	.st63{clip-path:url(#SVGID_00000152252422150424059380000009073334520556590004_);}
	.st64{clip-path:url(#SVGID_00000015336425857071033490000008364978673810502837_);}
	.st65{clip-path:url(#SVGID_00000141451613223467935740000010668997320735429823_);}
	.st66{clip-path:url(#SVGID_00000049922177605187106410000014268579223355283859_);}
	.st67{clip-path:url(#SVGID_00000114789042123780223350000013609999132859593354_);}
	.st68{clip-path:url(#SVGID_00000126316500561300570670000012596938723039023490_);}
	.st69{clip-path:url(#SVGID_00000163773020485263699690000017605132915196134052_);}
	.st70{clip-path:url(#SVGID_00000171686773641776656420000005739023137780357779_);}
	.st71{fill:#2650A1;}
	.st72{fill:url(#SVGID_00000050630655324965611000000013109695523461434537_);}
	.st73{fill:#FEFEFE;}
	.st74{fill:#FDFDFD;}
	.st75{fill:#FCFCFC;}
	.st76{fill:#FBFBFB;}
	.st77{fill:#FAFAFA;}
	.st78{fill:#F9F9F9;}
	.st79{fill:#F8F8F8;}
	.st80{fill:#F7F7F7;}
	.st81{fill:#F6F6F6;}
	.st82{fill:#F5F5F5;}
	.st83{fill:#F4F4F4;}
	.st84{fill:#F3F3F3;}
	.st85{fill:#F2F2F2;}
	.st86{fill:#F1F1F1;}
	.st87{fill:#F0F0F0;}
	.st88{fill:#EFEFEF;}
	.st89{fill:#EEEEEE;}
	.st90{fill:#EDEDED;}
	.st91{fill:#ECECEC;}
	.st92{fill:#EBEBEB;}
	.st93{fill:#EAEAEA;}
	.st94{fill:#E9E9E9;}
	.st95{fill:#E8E8E8;}
	.st96{fill:#E7E7E7;}
	.st97{fill:#E6E6E6;}
	.st98{fill:#E5E5E5;}
	.st99{fill:#E4E4E4;}
	.st100{fill:#E3E3E3;}
	.st101{fill:#E2E2E2;}
	.st102{fill:#E1E1E1;}
	.st103{fill:#E0E0E0;}
	.st104{fill:#DFDFDF;}
	.st105{fill:#DEDEDE;}
	.st106{fill:#DDDDDD;}
	.st107{fill:#DCDCDC;}
	.st108{fill:#DBDBDB;}
	.st109{fill:#DADADA;}
	.st110{fill:#D9D9D9;}
	.st111{fill:#D92231;}
	.st112{fill:url(#SVGID_00000020356844849284437710000007863614278548865962_);}
	.st113{fill:url(#SVGID_00000119086498120616383760000012797230331520917658_);}
	.st114{opacity:0.8;}
	.st115{fill:url(#SVGID_00000139991756959753321050000002144498674977794713_);}
	.st116{fill:url(#SVGID_00000174585228628408638030000002521724312057574827_);}
	.st117{fill-rule:evenodd;clip-rule:evenodd;fill:#010101;}
	.st118{fill:#80A845;}
	.st119{fill-rule:evenodd;clip-rule:evenodd;fill:#80A845;}
	.st120{fill:url(#SVGID_00000054979442917653369730000014085023596912289156_);}
	.st121{fill-rule:evenodd;clip-rule:evenodd;fill:#04984A;}
	.st122{fill-rule:evenodd;clip-rule:evenodd;fill:url(#SVGID_00000166636711921395729400000012053501359488830133_);}
	.st123{fill:url(#SVGID_00000067229837434470428640000003161550045332849792_);}
	.st124{fill:url(#SVGID_00000026876389562400034920000008886000265400462985_);}
	.st125{fill:url(#SVGID_00000109751341520646682470000000293686363541134738_);}
	.st126{fill:url(#SVGID_00000117641378064721270370000012145314102962151565_);}
	.st127{fill:url(#SVGID_00000006695426885649691930000007896165373398654597_);}
	.st128{fill:url(#SVGID_00000123425316091211650580000011284175010288476293_);}
	.st129{fill:url(#SVGID_00000124138097965764441890000007895290819304686777_);}
	.st130{fill:url(#SVGID_00000046324610434732820130000012753226184928011163_);}
	.st131{fill:url(#SVGID_00000116914573602643899400000006608247223935627171_);}
	.st132{fill:url(#SVGID_00000011742065591474323600000000134647502406776983_);}
	.st133{fill:url(#SVGID_00000176045669115456746490000004939642843157508225_);}
	.st134{fill:url(#SVGID_00000052818424925096580760000008276366586039326624_);}
	.st135{fill:url(#SVGID_00000094589987377086339230000010767506248818582432_);}
	.st136{fill:url(#SVGID_00000039127495603574189960000009855127992453819267_);}
	.st137{fill-rule:evenodd;clip-rule:evenodd;fill:url(#SVGID_00000009550179040899829300000011722362871748025734_);}
	.st138{fill:#0A529D;}
	.st139{fill:url(#SVGID_00000103965404930089594490000013052458683351285915_);}
	.st140{fill:url(#SVGID_00000012464041436807547840000000853324485391233965_);}
	.st141{fill:url(#SVGID_00000181085780956203326140000016137548065689731991_);}
	.st142{fill:url(#SVGID_00000064326651363447547140000002026112816068031141_);}
	.st143{fill:url(#SVGID_00000142169011289010647140000011086803307013805990_);}
	.st144{fill:url(#SVGID_00000094611371521899559530000007857537812879198131_);}
	.st145{fill:url(#SVGID_00000116950640052773588630000008163244413220411818_);}
	.st146{fill:url(#SVGID_00000178908284329069969900000013689462309430681756_);}
	.st147{fill:url(#SVGID_00000132786206027301457150000000180655215564380856_);}
	.st148{fill:url(#SVGID_00000106122809434098459990000013568280613369335180_);}
	.st149{fill:url(#SVGID_00000045578130948094530770000015955586249500310690_);}
	.st150{fill:url(#SVGID_00000137850843828988115980000004708632821640083864_);}
	.st151{fill-rule:evenodd;clip-rule:evenodd;fill:url(#SVGID_00000016772636607754577780000012847788193216790413_);}
	.st152{fill:url(#SVGID_00000101825777347533138800000007892241894967035296_);}
	.st153{fill:url(#SVGID_00000134246059972333380750000010140855309760802224_);}
	.st154{fill:url(#SVGID_00000117676490445784549770000013529966898596562822_);}
	.st155{fill:url(#SVGID_00000029730953831535076160000007662810078780090032_);}
	.st156{fill:url(#SVGID_00000128464427711469384660000002848900615555353504_);}
	.st157{fill:url(#SVGID_00000021112466938645455060000001013049759974252717_);}
	.st158{fill:url(#SVGID_00000109003739436725403730000002042179408161859746_);}
	.st159{fill:url(#SVGID_00000046324099535088759420000012473524748000149918_);}
	.st160{fill:url(#SVGID_00000164513664246887123860000002370713399870741382_);}
	.st161{fill:url(#SVGID_00000022548225687452488660000006333817958251185285_);}
	.st162{fill:url(#SVGID_00000062163798080394177030000009109831882351013557_);}
	.st163{fill:url(#SVGID_00000183965007425455153740000008491704862312453022_);}
	.st164{fill:url(#SVGID_00000148640564427340226470000001607869657569951653_);}
	.st165{fill:url(#SVGID_00000096770489275014156680000003155503325864765059_);}
	.st166{fill:url(#SVGID_00000033349882859346171390000015504759757400076462_);}
	.st167{fill:url(#SVGID_00000003795767633531441780000010723848334190678922_);}
	.st168{fill:url(#SVGID_00000181087832696731719790000000056218997374920374_);}
	.st169{fill-rule:evenodd;clip-rule:evenodd;fill:url(#SVGID_00000142871549972628669960000009797961329038377374_);}
	.st170{fill:url(#SVGID_00000075856269413584282970000018373139214470625933_);}
	.st171{fill:url(#SVGID_00000173123085463186935850000001741679726382113420_);}
	.st172{fill:url(#SVGID_00000098219439961320751220000010384027343452480956_);}
	.st173{fill:url(#SVGID_00000044159158190134059640000011017518435508939684_);}
	.st174{fill:url(#SVGID_00000070087643595017294690000005947865079318165661_);}
	.st175{fill:url(#SVGID_00000032626831172736014170000011086944923165982380_);}
	.st176{fill:url(#SVGID_00000101809367524833497530000013378384583123466934_);}
	.st177{fill:url(#SVGID_00000089550531835506802630000001425586346977276825_);}
	.st178{fill:url(#SVGID_00000174570988992503235540000008726216557981560705_);}
	.st179{fill:url(#SVGID_00000132771944030878802980000002001176632025631885_);}
	.st180{fill:url(#SVGID_00000051359480554197987100000017332676344227245982_);}
	.st181{fill:url(#SVGID_00000036967770012833117220000018056839925738717065_);}
	.st182{fill:url(#SVGID_00000040573545661663971200000014521000177981719983_);}
	.st183{fill:url(#SVGID_00000130606299959974909510000017588206390646573189_);}
	.st184{fill-rule:evenodd;clip-rule:evenodd;fill:url(#SVGID_00000067942504400405555160000014819516399033764254_);}
	.st185{fill:url(#SVGID_00000165213964231155399320000012549513473403851945_);}
	.st186{fill:url(#SVGID_00000173149590039572407110000000692027750721667723_);}
	.st187{fill:url(#SVGID_00000040563941837169970380000008685098982128044990_);}
	.st188{fill:url(#SVGID_00000117676568592745035620000010102482338302070145_);}
	.st189{fill:url(#SVGID_00000096026865999498764920000004227488982470900366_);}
	.st190{fill:url(#SVGID_00000135693031581471956010000011575252486042917285_);}
	.st191{fill:url(#SVGID_00000005959514011383760770000016574186330216996499_);}
	.st192{fill:url(#SVGID_00000053527765626911303670000017273899732436207011_);}
	.st193{fill:url(#SVGID_00000032619224892595871930000011874543975771486350_);}
	.st194{fill:url(#SVGID_00000057107401917028954990000003470612919263560121_);}
	.st195{fill:url(#SVGID_00000075162615210305331340000000746361895967527359_);}
	.st196{fill:url(#SVGID_00000074425342130822085300000004621267153588324745_);}
	.st197{fill:url(#SVGID_00000180326156100505052290000012833344758793775509_);}
	.st198{fill:url(#SVGID_00000109021946889799141350000005992025799931397297_);}
	.st199{fill:url(#SVGID_00000084504259430032570210000012511540955720937649_);}
	.st200{fill:url(#SVGID_00000179615515171867496830000005090700211711422120_);}
	.st201{fill:url(#SVGID_00000042698942489777382400000006087061240207287733_);}
	.st202{fill:url(#SVGID_00000092449395271151675700000003855964458733555113_);}
	.st203{fill:url(#SVGID_00000182492129793092702270000006169823574272291766_);}
	.st204{fill-rule:evenodd;clip-rule:evenodd;fill:url(#SVGID_00000056410686782849719400000013619009229182021307_);}
	.st205{fill:url(#SVGID_00000066504161710387045260000004559470704311031468_);}
	.st206{fill:url(#SVGID_00000142144632733803364830000007827928015433894549_);}
	.st207{fill:url(#SVGID_00000003813602040061138570000011749361060033423542_);}
	.st208{fill:url(#SVGID_00000142868150626543975210000013580643614770190006_);}
	.st209{fill:url(#SVGID_00000029013247196669924680000012592773567275190943_);}
	.st210{fill:url(#SVGID_00000016048797263873687420000003611618989691612572_);}
	.st211{fill:url(#SVGID_00000066505430771751940870000002465314869811593376_);}
	.st212{fill:url(#SVGID_00000065043024873538147070000004110357734600836264_);}
	.st213{fill:url(#SVGID_00000178174933309329609910000015387146377700181380_);}
	.st214{fill:url(#SVGID_00000019642554788485436100000003828312007796203443_);}
	.st215{fill:url(#SVGID_00000143576697640456118680000003519240930994679989_);}
	.st216{fill:url(#SVGID_00000082340414860265025640000008784954891259343748_);}
	.st217{fill:url(#SVGID_00000108284353768414145230000005160137206872668335_);}
	.st218{fill:url(#SVGID_00000086670141182967808700000018374948263452631938_);}
	.st219{fill:url(#SVGID_00000057148622442150928180000016278033296368367017_);}
	.st220{fill:url(#SVGID_00000111154988665715238650000017090008133631929256_);}
	.st221{fill-rule:evenodd;clip-rule:evenodd;fill:url(#SVGID_00000110453023184402623520000008326779899004528304_);}
	.st222{fill:url(#SVGID_00000007388143905698247910000001921716178712156054_);}
	.st223{fill:url(#SVGID_00000029746873032402218170000003254843958464629144_);}
	.st224{fill:url(#SVGID_00000103971296685341145910000010962096469462634418_);}
	.st225{fill:url(#SVGID_00000021085086874279109720000008852021635240732072_);}
	.st226{fill:url(#SVGID_00000132771134918675049770000016943098382326017432_);}
	.st227{fill:url(#SVGID_00000155858554231186887880000016289133328622398626_);}
	.st228{fill:url(#SVGID_00000091722349483793063130000014085377036313133960_);}
	.st229{fill:url(#SVGID_00000005951781027332373000000008243529553519509638_);}
	.st230{fill:url(#SVGID_00000153691962510811672520000004653119109809485491_);}
	.st231{fill:url(#SVGID_00000062191621570244548720000004109043734479714965_);}
	.st232{fill:url(#SVGID_00000180345691847427695220000013968175603809835698_);}
	.st233{fill:url(#SVGID_00000049220099152120695670000007504668508801930673_);}
	.st234{fill:url(#SVGID_00000165217430723173126380000005153026267480454061_);}
	.st235{fill:url(#SVGID_00000080188723649015124630000002356357316910243258_);}
	.st236{fill:url(#SVGID_00000088131886665261190490000018118691508184816562_);}
	.st237{fill-rule:evenodd;clip-rule:evenodd;fill:url(#SVGID_00000008120908803303246910000017453997324593761982_);}
	.st238{fill:url(#SVGID_00000154427827702664585020000007734636349792632199_);}
	.st239{fill:url(#SVGID_00000099653003626744823680000015646222480711532478_);}
	.st240{fill:url(#SVGID_00000083074124105858934900000011628198428569575325_);}
	.st241{fill:url(#SVGID_00000124882125705003789080000002499008521722721465_);}
	.st242{fill:url(#SVGID_00000143574815516225652240000018117519234418286770_);}
	.st243{fill:url(#SVGID_00000181087318722455391290000005611078734258465435_);}
	.st244{fill:url(#SVGID_00000011741901219041452390000016084876213432517020_);}
	.st245{fill:url(#SVGID_00000086679030788736012550000009039572371555806628_);}
	.st246{fill:url(#SVGID_00000024713856624977378470000014046874576345403019_);}
	.st247{fill:url(#SVGID_00000166642376610739359690000000990729156861613445_);}
	.st248{fill:url(#SVGID_00000129204214380783877120000017613523871539230344_);}
	.st249{fill:url(#SVGID_00000116953441889314604560000008396793801355055773_);}
	.st250{fill:url(#SVGID_00000070100518752795208570000018444224137345023391_);}
	.st251{fill:url(#SVGID_00000183970657216908327630000011504711141425664387_);}
	.st252{fill:url(#SVGID_00000132797929169830938790000014216685077883649442_);}
	.st253{fill-rule:evenodd;clip-rule:evenodd;fill:url(#SVGID_00000057840602331385126470000000057371343300850823_);}
	.st254{fill:url(#SVGID_00000130623955382781588660000004179075314953600900_);}
	.st255{fill:url(#SVGID_00000147191185125302157930000001101659828011889285_);}
	.st256{fill:url(#SVGID_00000065770670010436974420000017689417773203426483_);}
	.st257{fill:url(#SVGID_00000158716711066808303530000014317356353580587441_);}
	.st258{fill:url(#SVGID_00000147917073998315192700000002616389264650048671_);}
	.st259{fill:url(#SVGID_00000071524968688743135350000013008968815935248542_);}
	.st260{fill:url(#SVGID_00000029735313396712221080000003291875577909806749_);}
	.st261{fill:url(#SVGID_00000039845113614791224540000011289537311535914882_);}
	.st262{fill:url(#SVGID_00000020369344193764639510000016670525578794154661_);}
	.st263{fill:url(#SVGID_00000080892139961125317860000015309096662386045574_);}
	.st264{fill:url(#SVGID_00000041265666544473471440000014938716038739984555_);}
	.st265{fill:url(#SVGID_00000150817417515946175010000011909023671740599431_);}
	.st266{fill:url(#SVGID_00000034052564894505975390000002311197853073691059_);}
	.st267{fill:url(#SVGID_00000132771541128545264610000016753121473553675668_);}
	.st268{fill:url(#SVGID_00000079450893318843816500000013698972439875953828_);}
	.st269{fill-rule:evenodd;clip-rule:evenodd;fill:url(#SVGID_00000036225027941878130050000008814562577938652050_);}
	.st270{fill:url(#SVGID_00000057859820816090046330000006718295965769958071_);}
	.st271{fill:url(#SVGID_00000177443632607110377120000001175224195129781437_);}
	.st272{fill:url(#SVGID_00000145743830432928475520000013778464479663161524_);}
	.st273{fill:url(#SVGID_00000163771341395133255660000004565232690552613545_);}
	.st274{fill:url(#SVGID_00000029016627848881008170000016193901791449002369_);}
	.st275{fill:url(#SVGID_00000174594455854316772720000009939835499959170693_);}
	.st276{fill:url(#SVGID_00000052785043306397026030000000539784926258869436_);}
	.st277{fill:url(#SVGID_00000057845475435830075780000013521953645697331858_);}
	.st278{fill:url(#SVGID_00000072266565311245048880000017139250909642723515_);}
	.st279{fill:url(#SVGID_00000020393254519069111620000008241960528170007468_);}
	.st280{fill:url(#SVGID_00000023974023477265136200000009691615059532590512_);}
	.st281{fill:url(#SVGID_00000142174973700631021930000009145730209677783213_);}
	.st282{fill:url(#SVGID_00000013180641016540555400000014508761282629942420_);}
	.st283{fill:url(#SVGID_00000161622226233673521530000002591722629006275216_);}
	.st284{fill:url(#SVGID_00000129898797215634744240000009266077147560134282_);}
	.st285{fill-rule:evenodd;clip-rule:evenodd;fill:url(#SVGID_00000062175970647020391920000002478754696860113853_);}
	.st286{fill:url(#SVGID_00000101788971395872055690000005002265556640838288_);}
	.st287{fill:url(#SVGID_00000083078548176617432790000010756483439117244857_);}
	.st288{fill:url(#SVGID_00000164497738169213283750000016804497698770788792_);}
	.st289{fill:url(#SVGID_00000033351846571830444530000001335801671161368732_);}
	.st290{fill:url(#SVGID_00000112610197664564054510000014940136868592863409_);}
	.st291{fill:url(#SVGID_00000084516417991690004900000016092819033841301171_);}
	.st292{fill:url(#SVGID_00000142895865563543840070000008909452547248769706_);}
	.st293{fill:url(#SVGID_00000019655374061644358280000001702474386034268603_);}
	.st294{fill:url(#SVGID_00000040564011911668230280000014362378818901899671_);}
	.st295{fill:url(#SVGID_00000096776230881022993250000003396414236673675165_);}
	.st296{fill:url(#SVGID_00000130624610677079608930000014679304795817783698_);}
	.st297{fill:url(#SVGID_00000125591636638393471420000009906552428241737394_);}
	.st298{fill:url(#SVGID_00000052098550831510003400000015918452545162238892_);}
	.st299{fill:url(#SVGID_00000074413884729323022000000013337899752604625284_);}
	.st300{fill:url(#SVGID_00000098931861121923961700000001224618585639999118_);}
	.st301{fill:url(#SVGID_00000047780330422025891540000001597572603329761967_);}
	.st302{fill:url(#SVGID_00000127008397424930194790000004017073616786986629_);}
	.st303{fill:url(#SVGID_00000001659627107033921720000014523526111171792284_);}
	.st304{fill-rule:evenodd;clip-rule:evenodd;fill:url(#SVGID_00000080911162743487204850000012325061891693941900_);}
	.st305{fill:url(#SVGID_00000070800040623939092730000010685637613768985527_);}
	.st306{fill:url(#SVGID_00000044148417693329031320000000382414092610200480_);}
	.st307{fill:url(#SVGID_00000173869763088391581430000004036844917168349869_);}
	.st308{fill:url(#SVGID_00000051377995793289958640000013263786820282942375_);}
	.st309{fill:url(#SVGID_00000145047750888721498460000004039973689486829199_);}
	.st310{fill:url(#SVGID_00000173128710693405067900000012393920044047571631_);}
	.st311{fill:url(#SVGID_00000059288586036360906720000017450005688329582485_);}
	.st312{fill:url(#SVGID_00000016766766783800073000000009606151606030101941_);}
	.st313{fill:url(#SVGID_00000000182578434257070460000003278129759893016707_);}
	.st314{fill:url(#SVGID_00000062899558060290576360000002428683013093467285_);}
	.st315{fill:url(#SVGID_00000078767134494001101250000007838243291888293543_);}
	.st316{fill:url(#SVGID_00000036959197331973433290000006703352642727189944_);}
	.st317{fill:url(#SVGID_00000080887705191723320480000016710967402089279397_);}
	.st318{fill:url(#SVGID_00000088825020671938648490000010796083467903669143_);}
	.st319{fill:url(#SVGID_00000172426107964263117440000014155749606612722617_);}
	.st320{fill:url(#SVGID_00000140711340491229245830000003931397406670854021_);}
	.st321{fill:url(#SVGID_00000149361519895934908760000009665273483503852418_);}
	.st322{fill:url(#SVGID_00000070825921377075594980000007362761627714037134_);}
	.st323{fill:url(#SVGID_00000104672262437223076150000007266201294817542823_);}
	.st324{fill:url(#SVGID_00000132088301311134962140000017780795485530586290_);}
	.st325{fill-rule:evenodd;clip-rule:evenodd;fill:url(#SVGID_00000114784242875262250210000007793089402951022271_);}
	.st326{fill:url(#SVGID_00000044179915507188808030000001588457905900187020_);}
	.st327{fill:url(#SVGID_00000135666723408403095620000004651653096695624582_);}
	.st328{fill:url(#SVGID_00000017517302865224838580000012175303363316104590_);}
	.st329{fill:url(#SVGID_00000079478838183995735340000004619976907239657639_);}
	.st330{fill:url(#SVGID_00000088820624035559169650000001621381409534827429_);}
	.st331{fill:url(#SVGID_00000124162948463120638650000004984171505730385051_);}
	.st332{fill:url(#SVGID_00000029022524852081219990000003366181279998865795_);}
	.st333{fill:url(#SVGID_00000017499177486182343380000017191250811197370514_);}
	.st334{fill:url(#SVGID_00000168839593665140636900000007705163999916352653_);}
	.st335{fill:url(#SVGID_00000172407566849650585980000002915498843780218763_);}
	.st336{fill:url(#SVGID_00000086658313735314581880000017520388470875037585_);}
	.st337{fill:url(#SVGID_00000114031313806830221550000016320637848720999042_);}
	.st338{fill:url(#SVGID_00000078021817723068019780000011244009756972481967_);}
	.st339{fill:url(#SVGID_00000049200763352633557640000003949972260897310908_);}
	.st340{fill:url(#SVGID_00000096052012985736556210000009759084536682911889_);}
	.st341{fill:url(#SVGID_00000136407278454226014200000004711603020506329785_);}
	.st342{fill-rule:evenodd;clip-rule:evenodd;fill:url(#SVGID_00000163754855163826339390000006525067444031000503_);}
	.st343{fill:url(#SVGID_00000056399184989900767590000016702834277123910799_);}
	.st344{fill:url(#SVGID_00000164494117898584031130000010741633899671922358_);}
	.st345{fill:url(#SVGID_00000111160414808123398280000005579159478078261121_);}
	.st346{fill:url(#SVGID_00000052791431522611671340000002322535509799253408_);}
	.st347{fill:url(#SVGID_00000052072048233730505300000001998899724092695468_);}
	.st348{fill:url(#SVGID_00000096044132026127741890000012632503076141742005_);}
	.st349{fill:url(#SVGID_00000103987614604409952190000015366379957108266675_);}
	.st350{fill:url(#SVGID_00000134215935717098718850000015103014662591115170_);}
	.st351{fill:url(#SVGID_00000143577425572376211270000012979268350546718878_);}
	.st352{fill:url(#SVGID_00000095328633383913516020000002216702021682346659_);}
	.st353{fill:url(#SVGID_00000174583621061980346600000004798138899195684258_);}
	.st354{fill:url(#SVGID_00000000192732449420556170000012764280536696980664_);}
	.st355{fill:url(#SVGID_00000120545120237552437430000018118709724100217490_);}
	.st356{fill:url(#SVGID_00000090269435639994182350000002178607832000849328_);}
	.st357{fill:url(#SVGID_00000039125658070108244620000007366077564515894400_);}
	.st358{fill:url(#SVGID_00000047040151925256027830000015919185882867198353_);}
	.st359{fill:url(#SVGID_00000073691603662136717060000016680031519214842526_);}
	.st360{fill:url(#SVGID_00000144316220928779991030000000122969121665948598_);}
	.st361{fill:url(#SVGID_00000169546964182803185810000016604654088388583611_);}
	.st362{fill:url(#SVGID_00000114760945217700601300000014868950065835236030_);}
	.st363{fill:#C1282D;}
	.st364{fill-rule:evenodd;clip-rule:evenodd;fill:url(#SVGID_00000168822195349901428800000008424551459072683924_);}
	.st365{fill:url(#SVGID_00000119806230632285718330000015397943305600327867_);}
	.st366{fill:url(#SVGID_00000070839951170463175440000013597114179926379950_);}
	.st367{fill:url(#SVGID_00000176753263698521823150000003248295920584532378_);}
	.st368{fill:url(#SVGID_00000124882005115142504350000016937321126352860567_);}
	.st369{fill:url(#SVGID_00000163776019660089705090000000917364746991346580_);}
	.st370{fill:url(#SVGID_00000039109069902026940600000015805276567879403438_);}
	.st371{fill:url(#SVGID_00000043446843976169858490000013201611522236747920_);}
	.st372{fill:url(#SVGID_00000178180396039819285840000004134447743501965501_);}
	.st373{fill:url(#SVGID_00000029746263775168173100000005641760920091728524_);}
	.st374{fill:url(#SVGID_00000090293494926697323980000004586412562422620813_);}
	.st375{fill:url(#SVGID_00000132803125247817793810000016747797550841896843_);}
	.st376{fill:url(#SVGID_00000024712348053471742290000010911277136452673429_);}
	.st377{fill:url(#SVGID_00000077313699063383848880000015011413443037063583_);}
	.st378{fill:url(#SVGID_00000119823815230947300220000003543539506006997160_);}
	.st379{fill:url(#SVGID_00000057129315783411873120000017593291814739003532_);}
	.st380{fill:url(#SVGID_00000152983022995981495350000008786484416944201096_);}
	.st381{fill-rule:evenodd;clip-rule:evenodd;fill:url(#SVGID_00000110453899193010170080000005032056516204618408_);}
	.st382{fill:url(#SVGID_00000124149596231060526660000016880521598939891874_);}
	.st383{fill:url(#SVGID_00000155835321671180807880000008158869172932516487_);}
	.st384{fill:url(#SVGID_00000080191766843754576730000017850455587309955259_);}
	.st385{fill:url(#SVGID_00000142896857833881749960000004779673230438002854_);}
	.st386{fill:url(#SVGID_00000044880097172888136970000005902966944548453288_);}
	.st387{fill:url(#SVGID_00000109000178013049975470000006666656552914021567_);}
	.st388{fill:url(#SVGID_00000079454474977100084910000017800562006078017422_);}
	.st389{fill:url(#SVGID_00000103266088613031509670000000251621484483571859_);}
	.st390{fill:url(#SVGID_00000093148995848840908770000016154672724253355408_);}
	.st391{fill:url(#SVGID_00000049921433224400930170000010282833079620391561_);}
	.st392{fill:url(#SVGID_00000106853335343220511080000004471386886447323542_);}
	.st393{fill:url(#SVGID_00000144336409232288658040000009975631859897390524_);}
	.st394{fill:url(#SVGID_00000083803722120853286000000013230911248125474709_);}
	.st395{fill:url(#SVGID_00000070079068384295371720000010741093706457974948_);}
	.st396{fill:url(#SVGID_00000160901731908356835130000002778668702869225107_);}
	.st397{fill:url(#SVGID_00000155841781052114783640000011038073114074995122_);}
	.st398{fill:url(#SVGID_00000158731340129416832040000010063134041819633336_);}
	.st399{fill:url(#SVGID_00000039834149228210873170000007718094528175486130_);}
	.st400{fill:url(#SVGID_00000083774138082300862480000004774680617250113209_);}
	.st401{fill:url(#SVGID_00000147938599987264749550000017645139616775459218_);}
</style>
<g>
	<path class="st26" d="M302.61,353.61l-16.08,66.85c-17.43-8.66-36.63-13.02-57.61-13.02c-9.54,0-17.82,1.06-24.77,3.11
		c-6.95,2.06-11.36,6.73-13.12,14.02c-1.7,7.1,2.48,12.27,12.6,15.57c10.06,3.31,22.11,7.29,36.22,11.83
		c14.11,4.55,24.72,12.53,31.82,23.87c17.12,27.32-3.9,82.37-24.76,103.48c-12.87,13.02-27.39,22.12-43.62,27.35
		c-16.28,5.23-32.89,7.85-50.01,7.85c-9.55,0-18.98-0.44-28.25-1.31c-9.34-0.81-18.13-2.12-26.41-3.87
		c-8.24-1.74-17.26-4.11-26.94-7.16l16.28-67.6c9.2,5.49,19.6,9.78,31.33,12.71c11.67,2.92,23.34,4.43,34.98,4.43
		c10.22,0,19.03-1.44,26.33-4.37c7.35-2.92,11.78-7.47,13.26-13.64c1.77-7.36-2.54-12.83-12.98-16.39
		c-10.42-3.62-22.5-7.73-36.19-12.4c-13.69-4.67-24.04-12.7-31.12-24.11c-7.07-11.47-7.82-28.66-2.29-51.65
		c5.37-22.3,14.74-39.69,28.17-52.21c13.4-12.58,28.4-21.05,45-25.6c16.63-4.49,34.15-6.73,52.58-6.73
		C259.28,344.65,281.16,347.63,302.61,353.61 M267.14,602.05l44.96-186.71h83.16l-5.49,102.18h0.42l43.46-102.18h82.95
		l-44.95,186.71h-50.4l34.5-146.63h-0.42l-64.07,146.63h-46.86l7.36-146.63h-0.8l-35.93,146.63H267.14z M474.19,602.05l96.37-186.71
		h77.51l7.31,186.71h-59l0.06-40.34h-47.47l-18.74,40.34H474.19z M598.49,455.42l-30.89,61.3h32.55l-1.23-61.3H598.49z
		 M655.98,602.05l44.94-186.71h90.96c12.01,0,21.82,1.69,29.37,5.05c7.6,3.33,12.71,8.69,15.44,16.09
		c2.7,7.39,2.65,16.94-0.16,28.61c-6.23,25.86-21.88,42.35-47,49.53l-0.12,0.53c10.11,2.33,16.8,9.01,19.99,20.02
		c0.88,4.45,1.25,9.45,1.11,15.02c-0.16,5.58-0.66,12.62-1.56,21.13c-0.86,8.52-1.49,14.75-1.78,18.72c-0.3,4.01-0.31,7.99-0.02,12
		h-58.58c0.14-2.9,0.9-9.14,2.28-18.64c1.34-9.5,2.33-16.94,2.87-22.25c0.58-5.35,0.6-9.63,0.01-12.83
		c-0.62-3.96-2.03-6.56-4.21-7.8c-2.18-1.25-5.32-1.88-9.45-1.88h-12.57l-15.26,63.4H655.98z M744.67,457.07l-9.59,39.86h14.66
		c7.28,0,13.23-1.29,17.83-3.88c4.62-2.58,7.95-8.16,10.01-16.71c1.85-7.67,1.15-12.8-2.14-15.38c-3.3-2.58-8.37-3.88-15.23-3.88
		H744.67z M1008.32,415.34l-13.28,55.15h-49.59l-31.67,131.56h-56.21l31.68-131.56h-49.6l13.27-55.15H1008.32z"/>
	<path class="st50" d="M584.77,665.71c-0.11-0.05,0.06-0.04-0.3-0.1l-15.8-0.02v-17.59c-0.02,0.03-0.04,0.04-0.04,0.09
		c0,0-0.1-0.11-0.09,0.81v16.8H584.77z M837.74,633.82c0,3.82,1.81,6.71,4.88,8.24c5.87,2.95,12.61-1.78,12.61-7.2
		c0-2.26-0.2-4.22-1.72-6.08c-1.38-1.71-2.99-2.86-5.26-3.31C842.71,624.36,837.74,628.78,837.74,633.82z M837.74,735.35h17.49
		v-86.69h-17.49V735.35z M635.34,653.08v-4.42h-17.63v86.69h17.63v-52.85c0-3.06,1.03-5.86,2.12-7.9c0.29-0.55,0.59-1.03,0.95-1.51
		c1.34-1.79,2.13-2.48,3.87-3.79c1.79-1.36,4.17-2.7,6.49-3.51c2.5-0.88,5.74-1.65,8.47-1.65v-16.92c0-0.78-1.88-0.27-2.98-0.27
		c-3.14,0.03-8.7,1.55-11.65,2.62l-4.95,2.2C636.9,652.19,636.13,652.67,635.34,653.08z M363.1,735.35h17.63V621.33H363.1V735.35z
		 M568.67,648.01v17.59l15.8,0.02c0.36,0.06,0.19,0.05,0.3,0.1l-0.04,69.64h17.63V621.33h-17.63v26.68H568.67z M955.56,672.09
		c0,6.16,2.01,11.39,5.04,15.12c0.19,0.23,0.28,0.29,0.48,0.56c2.9,3.72,8.7,6.65,13.16,8.12l5.04,1.71
		c1.5,0.49,5.25,1.76,6.48,2.47c3.07,1.8,4.93,4.43,4.93,8.59c0,9.21-13.19,13.65-18.27,3.38c-1.18-2.37-1.71-4.98-2.22-7.66
		c-0.07-0.43-0.04-0.93-0.5-0.93h-16.85c-0.64,0-0.12,1.48-0.01,2.88c0.28,3.59,0.63,5.95,1.49,9.44c1.31,5.3,4.94,11.22,9.42,14.37
		c1.64,1.15,1.73,1.14,3.43,2.15c0.41,0.25,0.78,0.39,1.22,0.6c3.2,1.51,6.6,2.32,10.09,2.45h2.11c0.99-0.04,1.98-0.13,2.98-0.27
		c0.96-0.14,1.97-0.29,2.86-0.51c4.84-1.18,9.93-3.18,13.51-6.74c0.17-0.17,0.22-0.2,0.41-0.36c0.17-0.15,0.07-0.05,0.21-0.18
		c0.03-0.03,0.1-0.1,0.13-0.13c0.02-0.02,0.04-0.06,0.06-0.07c1.95-2.16,2.89-3.2,4.33-5.94c1.8-3.43,3.26-7.86,3.26-11.95
		c0-6.58-0.42-10.94-4.15-16.28l-1.98-2.31l-4.99-3.84c-0.88-0.59-1.82-1.18-2.76-1.67c-2.38-1.24-3.11-1.67-5.92-2.76
		c-3.64-1.43-10.04-3.16-12.43-4.97c-6.02-4.52-2.14-15.07,6.25-12.91c1.23,0.31,1.92,0.73,2.76,1.4c2.62,2.1,3.64,5.77,3.64,9.1
		h17.62c0-4.32-0.61-8.17-1.69-11.44c-0.3-0.9-0.94-2.55-1.44-3.38c-1.29-2.14-0.88-1.76-2.66-3.97l-3.18-3.32
		c-0.32-0.3-0.58-0.49-0.92-0.77c-3.76-3.08-9.28-5.25-14.48-5.25c-4.33,0-8.23,0.67-11.62,2.38c-2.14,1.07-4.94,2.59-6.62,4.29
		c-0.37,0.38-0.49,0.46-0.9,0.79c-0.59,0.5-2.38,2.63-2.89,3.35C957.07,661.77,955.56,666.96,955.56,672.09z M482.48,690.84
		c0,6.52,1.34,12.11,3.68,17.78c1.27,3.04,3.88,7.55,6.01,9.98c0.44,0.49,0.84,0.95,1.25,1.48l1.61,1.77
		c0.78,0.92,2.86,2.67,3.82,3.45l3.07,2.27c0.52,0.35,1.06,0.75,1.64,1.08c1.75,0.97,3.43,2,5.29,2.76
		c4.56,1.91,10.22,3.57,15.24,3.57c4.47,0,8.04,0.01,12.39-1.1c2.4-0.61,4.66-1.26,6.74-2.21c1.08-0.48,2.03-0.88,3.02-1.38
		c0.95-0.48,1.91-1.02,2.83-1.58c2.11-1.28,3.93-2.68,5.77-4.23l3.43-3.19c1.99-2.15,3.72-4.54,5.35-7
		c0.29-0.45,0.54-0.87,0.81-1.39c0.55-1,1.01-1.89,1.51-2.9c0.69-1.36,2.34-5.04,2.47-6.51h-18.53
		c-4.29,8.14-12.97,14.19-22.94,14.19c-5.31,0-9.96-1.18-13.92-3.58l-2.05-1.34c-1.34-0.91-2.44-1.91-3.57-3.05
		c-1.04-1.05-2.08-2.31-2.94-3.57c-0.47-0.66-0.87-1.3-1.24-2c-3.02-5.59-4.43-12.61-2.82-18.98l0.71-2.55
		c0.77-2.39,1.93-4.67,3.29-6.72c0.85-1.3,1.93-2.5,2.95-3.67c0.27-0.31,0.5-0.52,0.81-0.75c0.37-0.29,0.52-0.5,0.88-0.82l0.91-0.77
		c0.33-0.26,0.61-0.45,0.98-0.7c3.36-2.33,6.29-3.53,10.31-4.48c7.41-1.73,16,0.59,21.62,5.24c2.31,1.91,4.2,3.96,5.86,6.47
		c0.29,0.44,1.57,3,1.95,3h18.02c-0.03-1.14-0.67-2.47-1.04-3.51l-1.33-3.22c-0.27-0.61-0.41-0.93-0.7-1.51
		c-0.3-0.6-0.56-1-0.82-1.52c-1.01-1.95-2.31-3.87-3.63-5.6c-1.12-1.46-2.49-3.1-3.81-4.37l-0.56-0.49c-1.98-1.76-2.95-2.67-5-4.22
		c-2.77-2.08-5.68-3.61-8.97-4.93c-8.3-3.33-18.04-4.19-26.97-1.95c-3.75,0.94-7.22,2.39-10.6,4.2c-2.64,1.41-5.04,3.11-7.31,5.03
		l-2.79,2.66C488.47,666.66,482.48,677.46,482.48,690.84z M860.94,690.05c0,8.48,1.67,15.34,5.62,22.49l1.46,2.44
		c3.42,5.64,8.63,10.28,14.16,13.76c5.31,3.35,13.99,6.23,20.24,6.23c2.29,0,4.71,0.14,6.96-0.17c4.29-0.59,6.63-1.14,10.71-2.52
		c2.66-0.9,5.26-2.34,7.59-3.69c0.44-0.26,0.88-0.59,1.33-0.88c2.69-1.81,4.04-3.11,6.45-5.24l2.4-2.55c1.2-1.56,2.3-2.82,3.42-4.5
		c1.79-2.7,3.34-5.75,4.56-8.82c0.21-0.53,0.36-1.04,0.57-1.65c0.13-0.38,0.77-1.49,0.08-1.49H928.6c-0.46,0-0.81,0.95-1.03,1.31
		c-1.44,2.42-3.27,4.48-5.35,6.35c-0.85,0.76-1.64,1.39-2.62,2.05c-7.61,5.09-17.36,5.91-25.83,2.11c-1.54-0.69-2.79-1.46-4.13-2.36
		c-5.18-3.47-9.13-9.32-10.62-15.36c-2.95-11.88,2.21-23.63,12.48-29.8c6.67-4.01,14.71-4.55,22.03-2.13l3.38,1.42
		c2.07,1.12,3.96,2.46,5.71,4.03c2.15,1.91,3.98,4.16,5.4,6.7c0.33,0.6,0.49,1.05,0.86,1.6h18.27c-0.14-0.62-0.32-1.2-0.48-1.72
		c-1.74-5.56-4.56-10.5-8.15-14.98c-0.39-0.49-0.74-0.81-1.08-1.26c-0.65-0.85-1.47-1.54-2.24-2.31c-0.47-0.49-0.7-0.68-1.23-1.12
		c-0.46-0.38-0.73-0.7-1.23-1.1c-7.45-6.11-17.08-10.06-26.93-10.06c-4.06,0-7.77,0.35-11.37,1.21c-6.59,1.54-12.64,4.84-17.81,9.06
		l-2.1,1.93c-0.03,0.03-0.12,0.09-0.15,0.12c-1.59,1.33-4.51,5.02-5.51,6.44c-2.24,3.17-4.1,6.9-5.46,10.65
		C861.78,680.69,860.94,684.98,860.94,690.05z M771.74,652.44v-3.77h-17.76v86.69h17.76v-54.67c0-1.91,1.6-5.3,2.37-6.59
		c1.61-2.72,3.86-5.16,6.54-6.84c3.88-2.44,6.97-3.23,11.82-3.23c5.89,0,11.65,3.25,15.08,7.51c4.76,5.92,4.63,10.55,4.63,18.01
		c0,15.14,0,30.28,0,45.43h17.17c0.06-12.68,0.06-25.34,0.06-38.01c0-13.02,1.15-21.26-5.62-32.36c-0.93-1.52-1.88-2.73-2.93-4.09
		c-0.22-0.28-0.29-0.34-0.55-0.62c-0.3-0.3-0.32-0.41-0.59-0.71c-8.29-9.45-21.77-14.24-34.21-12.05c-2.66,0.48-5.12,1.15-7.41,2.07
		C775.96,650.07,773.65,651.15,771.74,652.44z M387.99,689.27c0,2.68,0.01,5.54,0.45,8.14c0.26,1.58,0.47,2.96,0.84,4.36
		c0.61,2.3,1.38,4.62,2.34,6.77c0.16,0.36,0.25,0.62,0.43,1c1.95,3.91,4.21,7.77,7.25,10.93c0.87,0.91,1.61,1.94,2.61,2.72
		c0.58,0.44,0.85,0.81,1.38,1.22c3.05,2.36,4.06,3.27,7.68,5.3c1.75,0.98,3.53,1.76,5.4,2.51c1.29,0.52,2.66,0.88,4.04,1.29
		c4.94,1.46,8.85,1.45,13.98,1.45c1.96,0,4.17-0.33,6.09-0.79c2.29-0.54,4.55-1.07,6.74-1.95l6.04-2.78
		c0.76-0.46,1.45-0.84,2.18-1.33c3.71-2.44,7.4-5.53,10.17-9.05c0.86-1.1,3.34-4.08,3.65-5.2c-1.94-1.02-3.63-2.22-5.49-3.34
		l-3.69-2.28c-0.97-0.6-4.82-3.14-5.6-3.35c-0.12,0.42-0.15,0.31-0.39,0.65c-0.15,0.21-0.26,0.38-0.41,0.62
		c-0.32,0.48-0.56,0.84-0.93,1.28c-1.76,2.18-3.8,4.24-6.18,5.76c-0.27,0.17-0.43,0.27-0.72,0.46c-6.24,4.11-16.45,5.4-23.77,2.15
		c-4.1-1.81-6.69-3.62-9.82-6.8c-0.3-0.3-0.33-0.4-0.6-0.71c-0.26-0.32-0.37-0.39-0.66-0.76c-1.29-1.67-2.27-3.3-3.23-5.22
		c-0.48-0.95-1.42-3.03-1.51-4.08h68.83c1.26-5.44,0.59-12.45-0.57-17.66c-0.7-3.11-1.82-6.09-3.16-8.92l-1.39-2.64
		c-2.61-4.31-5.84-8.62-9.76-11.81c-4.09-3.33-8.63-6.22-13.66-7.89c-3.31-1.09-5.42-1.54-8.66-2.11c-2.1-0.38-4.74-0.39-7-0.39
		c-10.16,0-18.94,3.86-26.31,9.5l-4.2,3.85c-2.38,2.59-4.52,5.3-6.35,8.33C390.54,674.32,387.99,682.54,387.99,689.27z
		 M431.41,664.15c3.84,0,6.6,0.55,9.74,1.68c0.69,0.26,1.19,0.53,1.8,0.79c2.01,0.9,4.75,2.61,6.32,4.07l1.37,1.24
		c1.47,1.48,3.5,4.15,4.46,5.94c0.37,0.69,1.54,2.89,1.6,3.6h-49.77c0.28-0.54,0.52-1.24,0.78-1.81c1.68-3.77,4.94-7.68,8.21-10.12
		C420.14,666.34,425.65,664.15,431.41,664.15z M268.09,689.02c0,6.38,0.12,8.69,1.86,14.79c0.57,1.98,1.7,4.8,2.61,6.62
		c1.28,2.55,2.69,5.03,4.46,7.24l1.74,2.16c4.69,5.6,10.98,9.7,17.71,12.4c1.29,0.52,2.67,0.88,4.04,1.29
		c5.5,1.63,11.25,1.7,16.95,1.17c0.42-0.04,1.11-0.15,1.46-0.21c4.57-0.9,7.69-1.64,12.03-3.81c3.18-1.6,5.8-3.18,8.57-5.45
		c0.3-0.25,0.61-0.5,0.92-0.77c0.36-0.32,0.64-0.51,0.98-0.84l2.58-2.61c1.55-1.53,4.39-5.32,5.35-7.13c-1.9-1-14.12-8.8-14.77-8.98
		c-1.8,3.4-5.48,6.69-8.63,8.78c-1.65,1.09-4.08,2.15-5.93,2.76c-5.7,1.86-12.38,1.6-17.84-0.6c-2.21-0.88-3.5-1.65-5.4-2.91
		c-0.54-0.37-1.16-0.81-1.63-1.22c-0.55-0.49-0.91-0.78-1.43-1.3c-2.55-2.56-4.27-4.59-5.87-8.04c-0.38-0.81-1.41-3.21-1.48-4.09
		h68.82l0.42-3.35c0.6-4.65-0.05-9.67-0.93-13.98c-0.29-1.43-0.73-2.89-1.15-4.17c-0.44-1.33-0.99-2.65-1.54-3.93
		c-0.61-1.43-1.94-3.92-2.81-5.24c-0.21-0.32-0.29-0.51-0.48-0.81c-4.12-6.33-9.76-11.36-16.38-14.93
		c-5.61-3.03-12.98-5.01-19.37-5.01c-7.87,0-13.09,1.18-19.19,3.91c-3.96,1.77-9.38,5.41-12.6,8.68l-1.22,1.37
		c-2.66,3.02-3.55,3.97-5.74,7.64c-2.86,4.79-4.73,10.07-5.62,15.71C268.32,685.64,268.09,687.39,268.09,689.02z M311.52,664.15
		c3.58,0,6.68,0.54,9.52,1.64c1.37,0.53,2.42,0.96,3.58,1.61l2.4,1.49c0.32,0.22,0.57,0.35,0.85,0.58l5.19,5.19
		c1.15,1.4,3.33,5.05,3.73,6.8h-49.77c1.44-2.99,1.26-3.43,3.71-6.7C295.48,668.44,303.38,664.15,311.52,664.15z"/>
	<path class="st26" d="M693.82,647.75v21.73c0,1.12,0.49,2.62,0.87,3.42c0.52,1.1,1.08,1.74,1.89,2.54
		c3.53,3.55,9.15,3.5,12.69-0.07c0.8-0.79,1.31-1.5,1.83-2.59c0.44-0.91,0.86-2.38,0.86-3.69v-21.21c0-4.34-4.09-8.72-8.3-8.72
		c-3.01,0-4.98,0.37-7.29,2.7C695.02,643.23,693.82,645.64,693.82,647.75 M658.83,688.89c0,5.53-0.1,7.84,1.38,13.44
		c1.04,3.98,2.6,7.77,4.7,11.29c0.33,0.54,0.63,1.04,1,1.6c1.65,2.55,3.86,5.25,5.98,7.4l2.81,2.52c1.88,1.47,4.17,3.22,6.25,4.39
		l3.53,1.8c0.59,0.24,1.15,0.51,1.81,0.78c0.62,0.25,1.3,0.52,1.96,0.76c4.26,1.56,8.76,2.37,13.27,2.48h2.23
		c3.26-0.07,6.51-0.51,9.68-1.27c3.57-0.85,5.77-1.77,8.77-3.18c3.21-1.51,6.17-3.52,8.88-5.8c2.15-1.83,3.5-3.18,5.43-5.35
		c0.24-0.27,0.32-0.42,0.58-0.71c0.23-0.26,0.36-0.45,0.58-0.71c2.44-2.99,5.5-8.54,6.69-12.16c2.8-8.39,3.45-15.52,1.69-24.32
		c-2.44-12.14-10.6-23.39-21.33-29.34c-1.1-0.62-4.77-2.6-5.87-2.69v19.78c1.68,0.9,4.66,4.19,5.81,5.88
		c3.3,4.89,4.95,9.41,4.95,16.25c0,5.23-2.18,11.04-4.92,14.85c-0.44,0.6-0.97,1.2-1.44,1.79c-0.55,0.69-1.02,1.13-1.63,1.75
		c-1.98,1.99-3.22,2.85-5.59,4.29c-0.63,0.38-1.58,0.85-2.25,1.12c-5.76,2.37-10.42,2.99-16.69,1.7c-3.76-0.77-8.04-2.92-10.93-5.3
		c-2.14-1.76-3.91-3.66-5.47-5.96l-1.26-2.13c-1.72-3.14-3.23-7.82-3.23-11.6c0-5.24,0.4-7.91,2.5-12.59
		c1.33-2.97,4.39-7.12,6.76-8.96c1.26-0.98,1.37-0.92,1.39-1.74c0.11-5.97-0.01-13.07-0.01-19.14c-0.83,0.07-4.81,2.12-5.67,2.65
		c-4.05,2.45-6.16,3.96-9.46,7.28c-4.5,4.51-7.49,9.08-9.97,15.25C660.25,678.73,658.83,684.68,658.83,688.89z"/>
</g>
</svg>
