<?xml version="1.0" encoding="utf-8"?>
<!-- Generator: Adobe Illustrator 26.5.0, SVG Export Plug-In . SVG Version: 6.00 Build 0)  -->
<svg version="1.1" id="Layer_1" xmlns="http://www.w3.org/2000/svg" xmlns:xlink="http://www.w3.org/1999/xlink" x="0px" y="0px"
	 viewBox="0 0 1080 1080" style="enable-background:new 0 0 1080 1080;" xml:space="preserve">
<style type="text/css">
	.st0{fill-rule:evenodd;clip-rule:evenodd;}
	.st1{fill:#ED1C24;}
	.st2{fill:#E1251B;}
	.st3{fill-rule:evenodd;clip-rule:evenodd;fill:#16397B;}
	.st4{fill:#EE2745;}
	
		.st5{clip-path:url(#SVGID_00000098218048505965569190000012212869589298819515_);fill:url(#SVGID_00000052818910473580841050000000566108170698476691_);}
	
		.st6{clip-path:url(#SVGID_00000047744230702331880070000004106294729237883024_);fill:url(#SVGID_00000004512938482457577380000001114168075503420569_);}
	
		.st7{clip-path:url(#SVGID_00000117644084042099873490000002699516519083177647_);fill:url(#SVGID_00000017514590207422108370000011427061954263643059_);}
	
		.st8{clip-path:url(#SVGID_00000056401705170876806480000015577318832165330059_);fill:url(#SVGID_00000181057932075744874410000008485026900353422249_);}
	.st9{fill:#424243;}
	
		.st10{clip-path:url(#SVGID_00000047044937167402336120000002072440435506901427_);fill:url(#SVGID_00000107582318774955036340000004172709524303010227_);}
	.st11{fill:#FFFFFF;}
	
		.st12{clip-path:url(#SVGID_00000009553403841258463940000007190000914978285231_);fill:url(#SVGID_00000035526124859001331890000007170691863317070502_);}
	
		.st13{clip-path:url(#SVGID_00000101822730974194330640000014789159022953706120_);fill:url(#SVGID_00000183937148687932560120000012062119937181480073_);}
	
		.st14{clip-path:url(#SVGID_00000025423175665469207010000005108253347106863021_);fill:url(#SVGID_00000083802993146910136350000003804527945888530838_);}
	
		.st15{clip-path:url(#SVGID_00000169534962054335532960000012501739875629853077_);fill:url(#SVGID_00000176041320640396824970000005072795111977596569_);}
	
		.st16{clip-path:url(#SVGID_00000017511197715033659260000007617126403376966574_);fill:url(#SVGID_00000050647058760666523090000008177462121973748135_);}
	
		.st17{clip-path:url(#SVGID_00000021833140685327991030000004165749522678590899_);fill:url(#SVGID_00000008118140234346290780000006177851613928269753_);}
	
		.st18{clip-path:url(#SVGID_00000164477861703697062370000005506491966578079142_);fill:url(#SVGID_00000002342140664707458470000015928380658888886207_);}
	.st19{fill-rule:evenodd;clip-rule:evenodd;fill:#C8202F;}
	.st20{fill-rule:evenodd;clip-rule:evenodd;fill:#FFFFFF;}
	.st21{fill-rule:evenodd;clip-rule:evenodd;fill:#F98238;}
	.st22{filter:url(#Adobe_OpacityMaskFilter);}
	.st23{fill:url(#SVGID_00000057869611777545465690000001883043623862393788_);}
	.st24{mask:url(#SVGID_00000050648209006162309700000010571810199078034339_);fill-rule:evenodd;clip-rule:evenodd;fill:#ED1C24;}
	.st25{fill-rule:evenodd;clip-rule:evenodd;fill:#F5333F;}
	.st26{fill-rule:evenodd;clip-rule:evenodd;fill:#ED1C24;}
	.st27{fill-rule:evenodd;clip-rule:evenodd;fill:#F9A46E;}
	.st28{fill-rule:evenodd;clip-rule:evenodd;fill:#F47B26;}
	.st29{fill-rule:evenodd;clip-rule:evenodd;fill:#EB5433;}
	.st30{fill:#1A3282;}
	.st31{fill-rule:evenodd;clip-rule:evenodd;fill:#1A3282;}
	.st32{fill-rule:evenodd;clip-rule:evenodd;fill:#9D9FA2;}
	.st33{fill-rule:evenodd;clip-rule:evenodd;fill:#000303;}
	.st34{fill:#64003D;}
	.st35{fill:#536270;}
	.st36{fill-rule:evenodd;clip-rule:evenodd;fill:#64003D;}
	.st37{fill-rule:evenodd;clip-rule:evenodd;fill:#536270;}
	.st38{fill-rule:evenodd;clip-rule:evenodd;fill:#1A3382;}
	.st39{fill-rule:evenodd;clip-rule:evenodd;fill:#29387E;}
	.st40{fill-rule:evenodd;clip-rule:evenodd;fill:#F37021;}
	.st41{fill-rule:evenodd;clip-rule:evenodd;fill:#005C32;}
	.st42{fill-rule:evenodd;clip-rule:evenodd;fill:#D2AB67;}
	
		.st43{clip-path:url(#SVGID_00000130625089343990432850000007098131561532965261_);fill:url(#SVGID_00000124124448976787806030000008939382952730109113_);}
	
		.st44{clip-path:url(#SVGID_00000042006378197519735540000010451509129699751322_);fill:url(#SVGID_00000095298975471390800870000003146992420949006226_);}
	
		.st45{clip-path:url(#SVGID_00000118376018793601070280000001517807359572920498_);fill:url(#SVGID_00000164509953156588077670000014892422808379007627_);}
	.st46{fill-rule:evenodd;clip-rule:evenodd;fill:#00AEEF;}
	.st47{fill-rule:evenodd;clip-rule:evenodd;fill:#EC008C;}
	.st48{fill-rule:evenodd;clip-rule:evenodd;fill:#FFF200;}
	.st49{fill:#A7AAAC;}
	.st50{fill-rule:evenodd;clip-rule:evenodd;fill:#5C5B5B;}
	.st51{fill:#9D9D9F;}
	.st52{fill:#F04D23;}
	.st53{fill-rule:evenodd;clip-rule:evenodd;fill:#2E3192;}
	.st54{fill-rule:evenodd;clip-rule:evenodd;fill:#C4312D;}
	.st55{fill:#552715;}
	.st56{fill:#010101;}
	.st57{fill:#E31E2E;}
	.st58{fill:url(#SVGID_00000149353550107526556670000011962370416983684498_);}
	.st59{fill:url(#SVGID_00000078752653891328000740000007699815775440058031_);}
	.st60{clip-path:url(#SVGID_00000116936542664474218450000006627350912570307484_);}
	.st61{clip-path:url(#SVGID_00000165194752517738521840000005370961284557129889_);}
	.st62{clip-path:url(#SVGID_00000156556754986017371750000009111439412444897453_);}
	.st63{clip-path:url(#SVGID_00000129165772489587222040000010448365642934841493_);}
	.st64{clip-path:url(#SVGID_00000141441683215221712330000007812599331738294690_);}
	.st65{clip-path:url(#SVGID_00000050621555212126165380000010450679896331304622_);}
	.st66{clip-path:url(#SVGID_00000015327320586532234790000018099444470410399923_);}
	.st67{clip-path:url(#SVGID_00000077312598880532039690000018437869604851348920_);}
	.st68{clip-path:url(#SVGID_00000074440929357990018150000005958445833711101850_);}
	.st69{clip-path:url(#SVGID_00000131366415621792329790000012687978375492756671_);}
	.st70{clip-path:url(#SVGID_00000153695813940875056750000001392897437175121844_);}
	.st71{fill:#2650A1;}
	.st72{fill:url(#SVGID_00000085964112736975125860000013253914056246284173_);}
	.st73{fill:#FEFEFE;}
	.st74{fill:#FDFDFD;}
	.st75{fill:#FCFCFC;}
	.st76{fill:#FBFBFB;}
	.st77{fill:#FAFAFA;}
	.st78{fill:#F9F9F9;}
	.st79{fill:#F8F8F8;}
	.st80{fill:#F7F7F7;}
	.st81{fill:#F6F6F6;}
	.st82{fill:#F5F5F5;}
	.st83{fill:#F4F4F4;}
	.st84{fill:#F3F3F3;}
	.st85{fill:#F2F2F2;}
	.st86{fill:#F1F1F1;}
	.st87{fill:#F0F0F0;}
	.st88{fill:#EFEFEF;}
	.st89{fill:#EEEEEE;}
	.st90{fill:#EDEDED;}
	.st91{fill:#ECECEC;}
	.st92{fill:#EBEBEB;}
	.st93{fill:#EAEAEA;}
	.st94{fill:#E9E9E9;}
	.st95{fill:#E8E8E8;}
	.st96{fill:#E7E7E7;}
	.st97{fill:#E6E6E6;}
	.st98{fill:#E5E5E5;}
	.st99{fill:#E4E4E4;}
	.st100{fill:#E3E3E3;}
	.st101{fill:#E2E2E2;}
	.st102{fill:#E1E1E1;}
	.st103{fill:#E0E0E0;}
	.st104{fill:#DFDFDF;}
	.st105{fill:#DEDEDE;}
	.st106{fill:#DDDDDD;}
	.st107{fill:#DCDCDC;}
	.st108{fill:#DBDBDB;}
	.st109{fill:#DADADA;}
	.st110{fill:#D9D9D9;}
	.st111{fill:#D92231;}
	.st112{fill:url(#SVGID_00000059303170113004943590000005111339044895424934_);}
	.st113{fill:url(#SVGID_00000030459602704326141520000000484140332911419044_);}
	.st114{opacity:0.8;}
	.st115{fill:url(#SVGID_00000163042134121372911510000003941533884921496237_);}
	.st116{fill:url(#SVGID_00000145768725020519741580000003363106748740582280_);}
	.st117{fill-rule:evenodd;clip-rule:evenodd;fill:#010101;}
	.st118{fill:#80A845;}
	.st119{fill-rule:evenodd;clip-rule:evenodd;fill:#80A845;}
	.st120{fill:url(#SVGID_00000022521541241134516200000002654071678682052227_);}
	.st121{fill-rule:evenodd;clip-rule:evenodd;fill:#04984A;}
	.st122{fill-rule:evenodd;clip-rule:evenodd;fill:url(#SVGID_00000112612992141222204160000001986855954647716761_);}
	.st123{fill:url(#SVGID_00000012447956170230599580000001648865876096298668_);}
	.st124{fill:url(#SVGID_00000145055917239535650790000009670003176484565124_);}
	.st125{fill:url(#SVGID_00000075149827289517255180000000029345552777068971_);}
	.st126{fill:url(#SVGID_00000044862443266920412380000012705631202524687747_);}
	.st127{fill:url(#SVGID_00000155116039235557792730000007217232264597154984_);}
	.st128{fill:url(#SVGID_00000152257367865058038170000009025972826299137433_);}
	.st129{fill:url(#SVGID_00000165206551861315369630000010754023746269556142_);}
	.st130{fill:url(#SVGID_00000176763318789745144110000011081233643769947540_);}
	.st131{fill:url(#SVGID_00000023249188077974909640000009678990415631007874_);}
	.st132{fill:url(#SVGID_00000135673126020794362050000003259547616038592651_);}
	.st133{fill:url(#SVGID_00000165194225680535133320000009962918749649577375_);}
	.st134{fill:url(#SVGID_00000000940630142319676870000004884879710961550769_);}
	.st135{fill:url(#SVGID_00000160157273584022628270000012405743025775622017_);}
	.st136{fill:url(#SVGID_00000177449648280264179430000008872682687093900450_);}
	.st137{fill-rule:evenodd;clip-rule:evenodd;fill:url(#SVGID_00000141429015911879499930000015730851702101348011_);}
	.st138{fill:#0A529D;}
	.st139{fill:url(#SVGID_00000155130303991263384070000002507682086130649735_);}
	.st140{fill:url(#SVGID_00000124852732667611537410000015653526027925491084_);}
	.st141{fill:url(#SVGID_00000147202115804319270520000014182698881194315939_);}
	.st142{fill:url(#SVGID_00000139272363391259592900000013641273588275438219_);}
	.st143{fill:url(#SVGID_00000047747184349571909020000011959926931043990411_);}
	.st144{fill:url(#SVGID_00000181798081999237729970000010965232585459528595_);}
	.st145{fill:url(#SVGID_00000031919456185206326970000018347481467818250670_);}
	.st146{fill:url(#SVGID_00000121966199427775598680000005771731338005800879_);}
	.st147{fill:url(#SVGID_00000110464997002022587070000002530314855258352000_);}
	.st148{fill:url(#SVGID_00000126304664217860692280000007882024845356393618_);}
	.st149{fill:url(#SVGID_00000033341584028030365080000005558069414319076787_);}
	.st150{fill:url(#SVGID_00000125596061111213810460000008548406233449391805_);}
	.st151{fill-rule:evenodd;clip-rule:evenodd;fill:url(#SVGID_00000045584385286584360330000016772348648476319921_);}
	.st152{fill:url(#SVGID_00000001655293255768684530000011396800474206560404_);}
	.st153{fill:url(#SVGID_00000128454875322457568980000005477868201928328883_);}
	.st154{fill:url(#SVGID_00000152970545095391898170000017976109063096485523_);}
	.st155{fill:url(#SVGID_00000165918332223570351210000010517960247167517587_);}
	.st156{fill:url(#SVGID_00000115510581407037116430000015062293830061921160_);}
	.st157{fill:url(#SVGID_00000129205343582256329180000007050352227288973715_);}
	.st158{fill:url(#SVGID_00000058572134484627527390000004462879398824408970_);}
	.st159{fill:url(#SVGID_00000073680060482131348010000004752115149469798807_);}
	.st160{fill:url(#SVGID_00000114070729065790296310000010693086001558492565_);}
	.st161{fill:url(#SVGID_00000018217250766314287970000003515085466729976454_);}
	.st162{fill:url(#SVGID_00000039096021648678749340000006438220753883968688_);}
	.st163{fill:url(#SVGID_00000070077280640547822320000007585220859441999278_);}
	.st164{fill:url(#SVGID_00000052063960578375282750000008849690653019408037_);}
	.st165{fill:url(#SVGID_00000033359855130158380300000005437616858498333601_);}
	.st166{fill:url(#SVGID_00000163064998610751033710000016972137876328744604_);}
	.st167{fill:url(#SVGID_00000176012948979101154260000010405242792168833435_);}
	.st168{fill:url(#SVGID_00000072282076048442833960000000379017699897502389_);}
	.st169{fill-rule:evenodd;clip-rule:evenodd;fill:url(#SVGID_00000137840257740100341490000015373965815739312292_);}
	.st170{fill:url(#SVGID_00000057840589146176923640000003557019659341527948_);}
	.st171{fill:url(#SVGID_00000122716150265136966030000007015271240191974276_);}
	.st172{fill:url(#SVGID_00000176730889042245905110000017839332093632507835_);}
	.st173{fill:url(#SVGID_00000115473659593501170700000013126187841478958004_);}
	.st174{fill:url(#SVGID_00000159449505108650613470000006939357321586146454_);}
	.st175{fill:url(#SVGID_00000003791277028629346750000010507576524334628015_);}
	.st176{fill:url(#SVGID_00000126286342642266354120000011992248179020930974_);}
	.st177{fill:url(#SVGID_00000080179368840567069920000010838117487508849561_);}
	.st178{fill:url(#SVGID_00000155843244251866584060000012963877634632553912_);}
	.st179{fill:url(#SVGID_00000146491244284384710270000013713242501506801841_);}
	.st180{fill:url(#SVGID_00000161592622232693590130000012207056380628996004_);}
	.st181{fill:url(#SVGID_00000142859224470500121690000004078482441771221947_);}
	.st182{fill:url(#SVGID_00000084503441582475739940000000646705894985185939_);}
	.st183{fill:url(#SVGID_00000057863870468958343940000001945294247729093007_);}
	.st184{fill-rule:evenodd;clip-rule:evenodd;fill:url(#SVGID_00000015324219855760066180000001569700868270037938_);}
	.st185{fill:url(#SVGID_00000098912388071521923930000015641979361235778481_);}
	.st186{fill:url(#SVGID_00000067942320048694084870000011722972793966081979_);}
	.st187{fill:url(#SVGID_00000037661763025382190810000002881724483511288458_);}
	.st188{fill:url(#SVGID_00000087407988972419110040000002658280792423176627_);}
	.st189{fill:url(#SVGID_00000022521549911178425760000010847089376121974966_);}
	.st190{fill:url(#SVGID_00000039812926000554288050000014304552155546309564_);}
	.st191{fill:url(#SVGID_00000046322476402643320730000013089532907961338772_);}
	.st192{fill:url(#SVGID_00000116957551513906624300000012654312198328420230_);}
	.st193{fill:url(#SVGID_00000096018481014073312180000014189946915341836991_);}
	.st194{fill:url(#SVGID_00000145763720471785744240000004070684824769332122_);}
	.st195{fill:url(#SVGID_00000085954008817746961900000013413856931703731602_);}
	.st196{fill:url(#SVGID_00000151511331336152781250000011902635397067520898_);}
	.st197{fill:url(#SVGID_00000126308057475003796970000008717813358234139018_);}
	.st198{fill:url(#SVGID_00000100344249645773966710000000733132545079234479_);}
	.st199{fill:url(#SVGID_00000168109230281594821750000017393092680097565874_);}
	.st200{fill:url(#SVGID_00000074410325498024956700000005223707883944449924_);}
	.st201{fill:url(#SVGID_00000031166578430164985310000017773976215099495091_);}
	.st202{fill:url(#SVGID_00000133518277511986009130000003884324730744112055_);}
	.st203{fill:url(#SVGID_00000156581092584938612440000004510040680415089852_);}
	.st204{fill-rule:evenodd;clip-rule:evenodd;fill:url(#SVGID_00000027575607130917704710000000249155170073992627_);}
	.st205{fill:url(#SVGID_00000067199024471748547850000006925831316850140553_);}
	.st206{fill:url(#SVGID_00000173874043939074327910000012120496299859557512_);}
	.st207{fill:url(#SVGID_00000176017085823438952320000004101547654995037582_);}
	.st208{fill:url(#SVGID_00000121260903969287042930000012744190353640219070_);}
	.st209{fill:url(#SVGID_00000183229160567561293120000005369601431982181782_);}
	.st210{fill:url(#SVGID_00000049909182627643718320000004396536667089979834_);}
	.st211{fill:url(#SVGID_00000145051836157639073450000013871156951243686285_);}
	.st212{fill:url(#SVGID_00000173149475889824810540000010805838249941924007_);}
	.st213{fill:url(#SVGID_00000152237066752555701310000003394898255307079334_);}
	.st214{fill:url(#SVGID_00000078015631657236385280000015556985929867174327_);}
	.st215{fill:url(#SVGID_00000013886097586125278160000017868843733938701474_);}
	.st216{fill:url(#SVGID_00000058578312625603214570000008077632756019502514_);}
	.st217{fill:url(#SVGID_00000125573182643977528560000017286474146633794726_);}
	.st218{fill:url(#SVGID_00000009560491134843496430000002187208059699221394_);}
	.st219{fill:url(#SVGID_00000059277557391087130530000002219945397363728027_);}
	.st220{fill:url(#SVGID_00000141439272046900150850000008003570838248924314_);}
	.st221{fill-rule:evenodd;clip-rule:evenodd;fill:url(#SVGID_00000157274045893558128550000017895610924974925247_);}
	.st222{fill:url(#SVGID_00000029011441256632053330000005208897622040211902_);}
	.st223{fill:url(#SVGID_00000064331033446225537510000000009743448541722497_);}
	.st224{fill:url(#SVGID_00000182505035117017643900000007683209071803536015_);}
	.st225{fill:url(#SVGID_00000159457034763518705120000012068408931034774199_);}
	.st226{fill:url(#SVGID_00000000192071716839223880000008324750755117532576_);}
	.st227{fill:url(#SVGID_00000165228819806059675180000009357822327273754015_);}
	.st228{fill:url(#SVGID_00000041289898455842894820000011624536802861179558_);}
	.st229{fill:url(#SVGID_00000028306120384090276060000009769325786679928498_);}
	.st230{fill:url(#SVGID_00000029035065981626659160000018096443147624958099_);}
	.st231{fill:url(#SVGID_00000111159887783652389970000012953627022671210651_);}
	.st232{fill:url(#SVGID_00000078727463652537680800000010792995853858984635_);}
	.st233{fill:url(#SVGID_00000081648239057553837770000002509676221590303422_);}
	.st234{fill:url(#SVGID_00000124152144121670947910000007330606848111097497_);}
	.st235{fill:url(#SVGID_00000142895078699589311540000006782191650281529523_);}
	.st236{fill:url(#SVGID_00000120536335661065327120000010556000623663215752_);}
	.st237{fill-rule:evenodd;clip-rule:evenodd;fill:url(#SVGID_00000179648264571453819480000013863711471240738214_);}
	.st238{fill:url(#SVGID_00000032626963282663500050000015940009005492387505_);}
	.st239{fill:url(#SVGID_00000037663326757821155460000011401397850344195228_);}
	.st240{fill:url(#SVGID_00000057116468300790880730000004955086633272471699_);}
	.st241{fill:url(#SVGID_00000120540308506255794280000014391212451514238360_);}
	.st242{fill:url(#SVGID_00000023998096627946913520000008717369644552462468_);}
	.st243{fill:url(#SVGID_00000106120585890351507510000007396296696366342024_);}
	.st244{fill:url(#SVGID_00000043438911628717867700000000697254543156531609_);}
	.st245{fill:url(#SVGID_00000076604192653974680270000010563521331719217303_);}
	.st246{fill:url(#SVGID_00000076573578739131330730000002158032041638845844_);}
	.st247{fill:url(#SVGID_00000150078202470433545960000015605819722598948025_);}
	.st248{fill:url(#SVGID_00000127746870926302616320000016794486928207695243_);}
	.st249{fill:url(#SVGID_00000182486871384244324090000013622829411255895213_);}
	.st250{fill:url(#SVGID_00000158741945212794354070000001846013690404652199_);}
	.st251{fill:url(#SVGID_00000152977986379896462490000004885961101554528190_);}
	.st252{fill:url(#SVGID_00000138569174321185066820000017147847870731108018_);}
	.st253{fill-rule:evenodd;clip-rule:evenodd;fill:url(#SVGID_00000166660746249591271550000008933712982676772767_);}
	.st254{fill:url(#SVGID_00000161626008925552209120000014551493754630489218_);}
	.st255{fill:url(#SVGID_00000050636327607079262710000007013875955125274283_);}
	.st256{fill:url(#SVGID_00000054950497409020377360000008634361783421141683_);}
	.st257{fill:url(#SVGID_00000001665864425232897240000012361333006389910960_);}
	.st258{fill:url(#SVGID_00000079473261990768524070000005801027403074187702_);}
	.st259{fill:url(#SVGID_00000071539012349751998170000005506884630976722562_);}
	.st260{fill:url(#SVGID_00000079487303457640720610000017142479543806915477_);}
	.st261{fill:url(#SVGID_00000002353373652209444670000003422122305972341943_);}
	.st262{fill:url(#SVGID_00000145780992116033137220000014392656916269367698_);}
	.st263{fill:url(#SVGID_00000152943185143340876330000000041639256000526779_);}
	.st264{fill:url(#SVGID_00000145017115524389801360000014946748291604704685_);}
	.st265{fill:url(#SVGID_00000017488787337224953900000007769278126953614504_);}
	.st266{fill:url(#SVGID_00000036970774353688008300000005842879094834222247_);}
	.st267{fill:url(#SVGID_00000170249452482940308980000009584987559246257550_);}
	.st268{fill:url(#SVGID_00000114757558162660806440000017439689381693604280_);}
	.st269{fill-rule:evenodd;clip-rule:evenodd;fill:url(#SVGID_00000098223162603983979670000007198043258460141243_);}
	.st270{fill:url(#SVGID_00000044160592826288131470000009291935281663688335_);}
	.st271{fill:url(#SVGID_00000091729243301551848450000004495123959740115386_);}
	.st272{fill:url(#SVGID_00000040547656834493999790000000180986751725764008_);}
	.st273{fill:url(#SVGID_00000164514196918645757700000005660661165826864289_);}
	.st274{fill:url(#SVGID_00000067933375545924402180000004234353051056855216_);}
	.st275{fill:url(#SVGID_00000067917436361761455850000016908242745395428503_);}
	.st276{fill:url(#SVGID_00000026138341809661929560000013264937243384055707_);}
	.st277{fill:url(#SVGID_00000116918458894267358500000002523200690364031407_);}
	.st278{fill:url(#SVGID_00000129204555577177831640000012654388384768146851_);}
	.st279{fill:url(#SVGID_00000082350411694762448370000005021213533453308550_);}
	.st280{fill:url(#SVGID_00000172438540966812205310000000498636339076477883_);}
	.st281{fill:url(#SVGID_00000008871087141893009410000013501978679238245791_);}
	.st282{fill:url(#SVGID_00000170972618648013405640000005687290396570463139_);}
	.st283{fill:url(#SVGID_00000060752935717739697740000017307469369351137448_);}
	.st284{fill:url(#SVGID_00000173154200098471901300000016234864529232388243_);}
	.st285{fill-rule:evenodd;clip-rule:evenodd;fill:url(#SVGID_00000059990445029603606130000008566136168385854610_);}
	.st286{fill:url(#SVGID_00000048501974225411657890000016698230108450239382_);}
	.st287{fill:url(#SVGID_00000039815493499737575010000013937673781825441967_);}
	.st288{fill:url(#SVGID_00000121982635651687367510000011478289465983678087_);}
	.st289{fill:url(#SVGID_00000105419996962298004510000007854243574060246916_);}
	.st290{fill:url(#SVGID_00000103242715354871975110000005265127155679765388_);}
	.st291{fill:url(#SVGID_00000143614721847204022430000004925136133581522308_);}
	.st292{fill:url(#SVGID_00000171712272153257285580000006119858126963317933_);}
	.st293{fill:url(#SVGID_00000060018636802865731930000006437378851339522203_);}
	.st294{fill:url(#SVGID_00000093156846654346306780000009723839183310239631_);}
	.st295{fill:url(#SVGID_00000013152662773769685610000016820716452567190188_);}
	.st296{fill:url(#SVGID_00000067236532181642024810000014712857325370071742_);}
	.st297{fill:url(#SVGID_00000047741531206093344930000007486519872973543060_);}
	.st298{fill:url(#SVGID_00000098940324172701616400000010642300178884711328_);}
	.st299{fill:url(#SVGID_00000036958877067471802110000015685109110885068455_);}
	.st300{fill:url(#SVGID_00000005256777913503582620000007158090151218487702_);}
	.st301{fill:url(#SVGID_00000108992529569278630500000010246364805184255661_);}
	.st302{fill:url(#SVGID_00000027595087657571063970000017733133542247355029_);}
	.st303{fill:url(#SVGID_00000090994664923770477290000005333939960265407108_);}
	.st304{fill-rule:evenodd;clip-rule:evenodd;fill:url(#SVGID_00000024681279362456407580000006159416486488487581_);}
	.st305{fill:url(#SVGID_00000150781015384703334640000014245821688554277296_);}
	.st306{fill:url(#SVGID_00000146473956586139330320000017688313752863743630_);}
	.st307{fill:url(#SVGID_00000169522998804294661570000002657171106877804165_);}
	.st308{fill:url(#SVGID_00000109002464895364185800000011658431449853122728_);}
	.st309{fill:url(#SVGID_00000107587659127512418330000017224232435174523036_);}
	.st310{fill:url(#SVGID_00000147220762718525629160000008490983951275517082_);}
	.st311{fill:url(#SVGID_00000117649558125794267400000005184505635085192861_);}
	.st312{fill:url(#SVGID_00000075867922442553098790000008332556399525116306_);}
	.st313{fill:url(#SVGID_00000154421811421768059330000009991700026796642493_);}
	.st314{fill:url(#SVGID_00000104685592581945196980000001563271268550869158_);}
	.st315{fill:url(#SVGID_00000150077430870378676840000012394841973528080060_);}
	.st316{fill:url(#SVGID_00000154401122435588220720000013376135375373794196_);}
	.st317{fill:url(#SVGID_00000073723847255293017620000009550074559669029787_);}
	.st318{fill:url(#SVGID_00000000191882898725369890000009006025988738319515_);}
	.st319{fill:url(#SVGID_00000147222459476273307820000003012357866857528489_);}
	.st320{fill:url(#SVGID_00000072241764243772934920000000299166323434685366_);}
	.st321{fill:url(#SVGID_00000092431660058500536310000008878753407046027426_);}
	.st322{fill:url(#SVGID_00000024709960951646726240000012486179316291763103_);}
	.st323{fill:url(#SVGID_00000066503525230488374080000006112456386139695805_);}
	.st324{fill:url(#SVGID_00000112596914080714420800000000748585122154496424_);}
	.st325{fill-rule:evenodd;clip-rule:evenodd;fill:url(#SVGID_00000085242393523182247490000013675658442296079511_);}
	.st326{fill:url(#SVGID_00000018917078014973519340000011219345385122291605_);}
	.st327{fill:url(#SVGID_00000062159091716621209630000002456295847545570193_);}
	.st328{fill:url(#SVGID_00000117659132848158203370000015625029234500354229_);}
	.st329{fill:url(#SVGID_00000026164930658173675920000016713911556921240458_);}
	.st330{fill:url(#SVGID_00000063617269580670890580000015952668028563515561_);}
	.st331{fill:url(#SVGID_00000114786548565191249540000007335641680701273755_);}
	.st332{fill:url(#SVGID_00000029754347422227701990000011478951004628127678_);}
	.st333{fill:url(#SVGID_00000064334261669381479850000010180992094409816233_);}
	.st334{fill:url(#SVGID_00000062186438092791558590000006796233151265799587_);}
	.st335{fill:url(#SVGID_00000101089118566027769380000013282293077939731642_);}
	.st336{fill:url(#SVGID_00000168092261919667504890000004505999875475777691_);}
	.st337{fill:url(#SVGID_00000099660648177960198600000003425047187988744101_);}
	.st338{fill:url(#SVGID_00000000200083240609314120000011974327860501637805_);}
	.st339{fill:url(#SVGID_00000054947248309955976070000015213719116053692812_);}
	.st340{fill:url(#SVGID_00000097485936434480233960000017495619324356810932_);}
	.st341{fill:url(#SVGID_00000048490900227684496070000015190509958490759865_);}
	.st342{fill-rule:evenodd;clip-rule:evenodd;fill:url(#SVGID_00000026137276107885227130000006509333613587608198_);}
	.st343{fill:url(#SVGID_00000159460548579317615600000001646292430658110090_);}
	.st344{fill:url(#SVGID_00000151503488614930177060000011793050616445189270_);}
	.st345{fill:url(#SVGID_00000063628486407459619520000005247154995818183573_);}
	.st346{fill:url(#SVGID_00000145049457733936638280000006994398408952182203_);}
	.st347{fill:url(#SVGID_00000057113183454595586540000009238573866428888230_);}
	.st348{fill:url(#SVGID_00000114780122215359766220000014558499869401045687_);}
	.st349{fill:url(#SVGID_00000053523571048218286200000000086573966898660740_);}
	.st350{fill:url(#SVGID_00000001621555255213729390000017553346354093777309_);}
	.st351{fill:url(#SVGID_00000147217761497807414840000017633932159134927287_);}
	.st352{fill:url(#SVGID_00000132794572704914622060000017763681778864832152_);}
	.st353{fill:url(#SVGID_00000161614456132051462270000017865503133516582805_);}
	.st354{fill:url(#SVGID_00000114769569209089917680000003846491881437887144_);}
	.st355{fill:url(#SVGID_00000005253097974345548390000001554311760927370632_);}
	.st356{fill:url(#SVGID_00000005980075249068689920000005099697213580132997_);}
	.st357{fill:url(#SVGID_00000049198802280243684710000015305394615809136031_);}
	.st358{fill:url(#SVGID_00000148629570995706780540000009322641297167945380_);}
	.st359{fill:url(#SVGID_00000117643254412782985670000011285836296884378529_);}
	.st360{fill:url(#SVGID_00000051377635244174950330000010185466074834369971_);}
	.st361{fill:url(#SVGID_00000060022366745014006020000012728859652460521123_);}
	.st362{fill:url(#SVGID_00000055703357216757242850000000105042622140090524_);}
	.st363{fill:#C1282D;}
	.st364{fill-rule:evenodd;clip-rule:evenodd;fill:url(#SVGID_00000097498488548758821390000011258615838143841438_);}
	.st365{fill:url(#SVGID_00000155117701567041734890000004546847863927185564_);}
	.st366{fill:url(#SVGID_00000180355596247613050820000012007423338934103998_);}
	.st367{fill:url(#SVGID_00000083053485514882019190000009027413571174752701_);}
	.st368{fill:url(#SVGID_00000091717167369293893850000016115832956197520037_);}
	.st369{fill:url(#SVGID_00000021802596582900139750000009290807116268588437_);}
	.st370{fill:url(#SVGID_00000089563499978760859420000001974546479554191292_);}
	.st371{fill:url(#SVGID_00000011022406277128705390000007223496225821767078_);}
	.st372{fill:url(#SVGID_00000104690418923802183530000006598363670458434231_);}
	.st373{fill:url(#SVGID_00000141415922264675375580000006321830965359712923_);}
	.st374{fill:url(#SVGID_00000139999421124717041120000018135113898228752056_);}
	.st375{fill:url(#SVGID_00000150783222891290100090000000358451339017350542_);}
	.st376{fill:url(#SVGID_00000177442141750829019870000013444299406709518720_);}
	.st377{fill:url(#SVGID_00000098197523742220618180000009802863257131385765_);}
	.st378{fill:url(#SVGID_00000151545557768667264440000001948647435135009926_);}
	.st379{fill:url(#SVGID_00000147929101946402904380000005709146076275427248_);}
	.st380{fill:url(#SVGID_00000084505994441848598690000010336989507634857635_);}
	.st381{fill-rule:evenodd;clip-rule:evenodd;fill:url(#SVGID_00000036961030838077663150000000045733426741195935_);}
	.st382{fill:url(#SVGID_00000181079505640600877940000000409964452625558462_);}
	.st383{fill:url(#SVGID_00000014624220972987281400000003940508559309806014_);}
	.st384{fill:url(#SVGID_00000086675345003256898570000001220612520876845459_);}
	.st385{fill:url(#SVGID_00000049912658407960193540000015942892287810312862_);}
	.st386{fill:url(#SVGID_00000076580764517376934990000007147071706118104235_);}
	.st387{fill:url(#SVGID_00000005233180482785602500000006198662289470112663_);}
	.st388{fill:url(#SVGID_00000054983851159314942100000007773050483569775038_);}
	.st389{fill:url(#SVGID_00000080203847701878042780000016950742204990979200_);}
	.st390{fill:url(#SVGID_00000082368835448273275440000003891232968668535733_);}
	.st391{fill:url(#SVGID_00000178204389455007461140000005622126522541702287_);}
	.st392{fill:url(#SVGID_00000105401826990586875490000013293383844432020629_);}
	.st393{fill:url(#SVGID_00000145024355246467030890000000587212489525124512_);}
	.st394{fill:url(#SVGID_00000066509054863152310780000012711585430068473497_);}
	.st395{fill:url(#SVGID_00000123433329182226633590000002730158060763060405_);}
	.st396{fill:url(#SVGID_00000039130701228407300010000013367139023874392483_);}
	.st397{fill:url(#SVGID_00000084500431216127461230000008238551422770873500_);}
	.st398{fill:url(#SVGID_00000109720991333358331730000009701153986035827380_);}
	.st399{fill:url(#SVGID_00000163791465207078472830000002854335987229105036_);}
	.st400{fill:url(#SVGID_00000126282397680521531510000008484039435995316126_);}
	.st401{fill:url(#SVGID_00000016076345319941311210000010807049707721306253_);}
</style>
<g>
	<g>
		<ellipse class="st11" cx="540" cy="458.47" rx="262.51" ry="130.26"/>
		<path class="st121" d="M789.43,499.03c-34.39,52.09-133.04,89.7-249.43,89.7c-117.03,0-216.12-38.01-249.99-90.58l2.57-0.8
			l12.08-3.77l85.28-26.77l-8.03,22.31c-0.68,1.89,1.24,3.69,3.09,2.89l75.29-32.51l-25.52,37.77c-1.4,2.05,1,4.58,3.13,3.25
			l75.57-46.67v28.33c0,2.01,2.41,3.05,3.89,1.65l7.75-7.34l12.2,28.33c0.76,1.77,3.25,1.89,4.17,0.16l19.79-37.76l91.82,46.43
			c2.09,1.08,4.25-1.36,2.93-3.33l-24.2-36.28c-0.56-0.8-0.52-1.89,0.08-2.65l10.43-14.17l12.16,15.13
			c1.08,1.32,3.13,1.08,3.89-0.44l6.42-13.04l55.58,41.06c1.28,0.92,3.13,0.32,3.57-1.2l5.78-19.02l59.48,19.22
			c0.04,0,0.08,0.04,0.08,0.04C789.35,498.99,789.39,498.99,789.43,499.03z"/>
		
			<linearGradient id="SVGID_00000117673112204350655730000005487712985766326416_" gradientUnits="userSpaceOnUse" x1="432.2125" y1="332.9607" x2="690.9514" y2="628.5162">
			<stop  offset="0" style="stop-color:#3E76BB"/>
			<stop  offset="1" style="stop-color:#06509E"/>
		</linearGradient>
		<path style="fill-rule:evenodd;clip-rule:evenodd;fill:url(#SVGID_00000117673112204350655730000005487712985766326416_);" d="
			M802.51,458.68c0,1.24-0.04,2.45-0.12,3.65c-0.04,1.04-0.12,2.05-0.24,3.05c-0.08,0.92-0.2,1.85-0.32,2.77
			c-0.08,0.64-0.2,1.28-0.32,1.93c-0.36,2.25-0.88,4.49-1.53,6.7c-0.2,0.8-0.44,1.61-0.68,2.37c-0.08,0.28-0.16,0.56-0.28,0.84
			c-0.32,1-0.68,2.01-1.04,2.97c-0.28,0.76-0.6,1.57-0.96,2.33c-0.08,0.24-0.2,0.52-0.32,0.76l-0.12-0.04l-0.08-0.04l-169.08-82.03
			c-1.04-0.48-2.29-0.16-2.93,0.8l-22.72,33.91l-60.52-74.37c-0.84-0.96-2.29-1.12-3.25-0.28l-84.08,70.47l-39.85-3.81
			c-0.64-0.08-1.28,0-1.89,0.28c-10.96,4.94-121.36,54.94-127.66,57.79c-0.28-0.52-0.52-1-0.72-1.52c-0.32-0.72-0.64-1.49-0.96-2.25
			c-0.64-1.53-1.24-3.09-1.73-4.62c-0.32-0.92-0.6-1.81-0.84-2.73c-0.92-2.97-1.57-5.98-2.01-9.03c-0.32-2.01-0.52-4.05-0.64-6.1
			c-0.08-1.24-0.12-2.53-0.12-3.81c0-72.04,117.51-130.47,262.51-130.47C685,328.21,802.51,386.65,802.51,458.68z"/>
		<g>
			<path class="st11" d="M394.36,527.9c0.36,0,0.7-0.07,1.04-0.22c0.34-0.15,0.55-0.35,0.64-0.62h0.77l-1.34,5.12
				c-0.22,0.72-0.88,1.07-1.98,1.07h-1.98l-3.75,15.95c-0.05,0.22,0.05,0.45,0.3,0.69c0.25,0.24,0.49,0.35,0.74,0.35l-0.23,0.77
				h-9.31c-0.72,0-1.07-0.36-1.07-1.07c0-0.09,0.02-0.27,0.07-0.53l3.79-16.15h-2.31c-0.36,0-0.65,0.08-0.89,0.25
				c-0.24,0.17-0.4,0.39-0.49,0.65h-0.84l1.34-5.36c0.09-0.31,0.27-0.54,0.54-0.69c0.27-0.15,0.69-0.22,1.27-0.22H394.36z"/>
			<path class="st11" d="M405.11,551.02c-0.58,0-1.01-0.09-1.29-0.28c-0.28-0.19-0.44-0.52-0.49-0.99l-0.3-3.42h-3.89l-1.37,2.75
				c-0.02,0.07-0.03,0.12-0.03,0.17c0,0.05-0.01,0.13-0.03,0.27c0,0.2,0.09,0.37,0.28,0.52s0.41,0.22,0.65,0.22l-0.17,0.77h-7.27
				c-0.94,0-1.41-0.37-1.41-1.11c0-0.2,0.05-0.41,0.17-0.64l9.85-19.09c0.07-0.14,0.1-0.3,0.1-0.5c0-0.24-0.11-0.47-0.32-0.69
				c-0.21-0.21-0.44-0.32-0.69-0.32l0.2-0.77h9.98c0.51,0,0.95,0.14,1.31,0.42c0.36,0.28,0.53,0.68,0.53,1.19l1.54,19.56
				c0,0.29,0.16,0.56,0.47,0.8c0.31,0.24,0.63,0.37,0.97,0.37l-0.17,0.77H405.11z M401.13,541.84h1.91l-0.27-3.75L401.13,541.84z"/>
			<path class="st11" d="M412.32,529.98c-0.05-0.4-0.2-0.72-0.45-0.95c-0.26-0.24-0.54-0.35-0.85-0.35l0.17-0.77h9.35
				c0.29,0,0.57,0.15,0.84,0.44c0.27,0.29,0.4,0.6,0.4,0.94l0.27,8.78l3.28-7.67l0.13-0.53c0-0.27-0.09-0.53-0.28-0.79
				c-0.19-0.26-0.41-0.39-0.65-0.39l0.17-0.77h6.8c0.4,0,0.73,0.15,0.99,0.45s0.39,0.62,0.39,0.95l-0.13,0.67l-9.85,21.04h-6.26
				c-0.52,0-0.94-0.11-1.27-0.34c-0.34-0.22-0.54-0.53-0.6-0.9L412.32,529.98z"/>
			<path class="st11" d="M440.9,551.02c-0.58,0-1.01-0.09-1.29-0.28c-0.28-0.19-0.44-0.52-0.49-0.99l-0.3-3.42h-3.89l-1.37,2.75
				c-0.02,0.07-0.03,0.12-0.03,0.17c0,0.05-0.01,0.13-0.03,0.27c0,0.2,0.09,0.37,0.28,0.52s0.41,0.22,0.65,0.22l-0.17,0.77H427
				c-0.94,0-1.41-0.37-1.41-1.11c0-0.2,0.05-0.41,0.17-0.64l9.85-19.09c0.07-0.14,0.1-0.3,0.1-0.5c0-0.24-0.11-0.47-0.32-0.69
				c-0.21-0.21-0.44-0.32-0.69-0.32l0.2-0.77h9.98c0.51,0,0.95,0.14,1.31,0.42c0.36,0.28,0.53,0.68,0.53,1.19l1.54,19.56
				c0,0.29,0.16,0.56,0.47,0.8c0.31,0.24,0.63,0.37,0.97,0.37l-0.17,0.77H440.9z M436.91,541.84h1.91l-0.27-3.75L436.91,541.84z"/>
			<path class="st11" d="M472.22,551.02h-6.1c-0.67,0-1.23-0.09-1.69-0.27c-0.46-0.18-0.75-0.5-0.89-0.97l-3.42-8.28l-1.94,7.47
				l-0.07,0.57c0,0.22,0.09,0.4,0.28,0.52c0.19,0.12,0.44,0.18,0.75,0.18l-0.17,0.77h-7.54c-0.38,0-0.66-0.11-0.85-0.32
				c-0.19-0.21-0.28-0.5-0.28-0.85c0-0.14,0.02-0.31,0.07-0.54l4.56-19.6c0.05-0.24-0.05-0.48-0.27-0.7s-0.47-0.34-0.74-0.34
				l0.2-0.77h8.51c0.27,0,0.58,0.13,0.92,0.39c0.35,0.26,0.58,0.53,0.69,0.82l3.62,8.44l1.61-7.23c0.05-0.13,0.07-0.35,0.07-0.64
				c0-0.27-0.11-0.5-0.34-0.7c-0.22-0.2-0.47-0.3-0.74-0.3l0.2-0.77h7.5c0.36,0,0.63,0.12,0.82,0.37c0.19,0.25,0.28,0.53,0.28,0.84
				l-0.1,0.9L472.22,551.02z"/>
			<path class="st11" d="M507.63,527.87c1.5,0,2.65,0.39,3.47,1.17c0.82,0.78,1.22,1.77,1.22,2.95c0,0.18-0.02,0.38-0.05,0.6
				c-0.03,0.22-0.06,0.39-0.08,0.5c-0.51,2.46-1.56,3.94-3.15,4.45c0.65,0.4,1.12,0.84,1.42,1.32c0.3,0.48,0.45,1.19,0.45,2.13
				c0,0.85-0.17,2.03-0.5,3.55c-0.58,2.52-1.47,4.25-2.68,5.19c-1.09,0.85-2.78,1.27-5.06,1.27h-13.3c-0.38,0-0.66-0.11-0.85-0.32
				c-0.19-0.21-0.28-0.5-0.28-0.85c0-0.14,0.02-0.31,0.07-0.54l4.56-19.6c0.04-0.24-0.05-0.48-0.27-0.7
				c-0.22-0.22-0.47-0.34-0.74-0.34l0.2-0.77L507.63,527.87z M499.76,545.82c0.6,0,1.02-0.14,1.26-0.42
				c0.24-0.28,0.46-0.91,0.69-1.89c0.16-0.63,0.24-1.14,0.24-1.54c0-0.76-0.41-1.14-1.24-1.14h-0.94l-1.14,4.99H499.76z
				 M502.14,536.38c0.38,0,0.65-0.11,0.8-0.32c0.16-0.21,0.3-0.6,0.44-1.16c0.13-0.56,0.2-0.96,0.2-1.21c0-0.58-0.33-0.87-0.97-0.87
				h-1.01l-0.8,3.55H502.14z"/>
			<path class="st11" d="M527.94,527.9c1.97,0,3.58,0.51,4.86,1.52c1.27,1.02,1.91,2.45,1.91,4.31c0,0.67-0.08,1.32-0.24,1.94
				l-2.01,8.51c-0.58,2.52-1.59,4.32-3.01,5.39c-1.25,0.96-2.97,1.44-5.16,1.44h-6.87c-2.1,0-3.66-0.47-4.67-1.42
				c-1.02-0.95-1.52-2.35-1.52-4.21c0-1.09,0.15-2.23,0.44-3.42l1.47-6.33c0.58-2.43,1.42-4.25,2.51-5.46
				c1.41-1.52,3.38-2.28,5.93-2.28H527.94z M520.7,543.85c-0.07,0.31-0.1,0.58-0.1,0.8c0,0.56,0.31,0.84,0.94,0.84
				c0.42,0,0.74-0.1,0.95-0.29c0.21-0.19,0.37-0.53,0.49-1.02l2.21-9.41c0.05-0.27,0.07-0.45,0.07-0.54c0-0.65-0.32-0.97-0.97-0.97
				c-0.71,0-1.19,0.45-1.44,1.34L520.7,543.85z"/>
			<path class="st11" d="M546.1,541l0.07-0.44c0-0.2-0.14-0.3-0.4-0.3c-0.27,0-0.4-0.11-0.4-0.34l0.07-0.44l0.97-3.99h7.4
				c0.53,0,0.95,0.16,1.26,0.48c0.3,0.33,0.45,0.69,0.45,1.09c0,0.51-0.05,0.94-0.14,1.27l-1.78,7.87c-0.4,1.79-1.02,3.03-1.84,3.73
				c-0.83,0.7-2.21,1.05-4.15,1.05h-8.11c-2.26,0-3.87-0.43-4.86-1.31c-0.87-0.78-1.31-1.98-1.31-3.58c0-1.03,0.18-2.28,0.53-3.75
				l1.84-8.07c0.47-2.1,1.37-3.72,2.71-4.86c1.23-1.05,2.64-1.58,4.22-1.58h13.7c-0.07,0.67-0.19,1.35-0.37,2.04
				c-0.18,0.69-0.37,1.26-0.59,1.71c-0.21,0.45-0.54,0.77-0.97,0.97c-0.44,0.2-0.93,0.3-1.49,0.3h-5.66c-0.63,0-1.11,0.15-1.46,0.45
				c-0.35,0.3-0.6,0.8-0.75,1.49l-2.18,9.38c-0.04,0.31-0.07,0.51-0.07,0.6c0,0.56,0.35,0.84,1.04,0.84c0.78,0,1.26-0.41,1.44-1.24
				L546.1,541z"/>
			<path class="st11" d="M571.79,527.9c2.26,0,3.9,0.58,4.92,1.74c0.92,1.05,1.37,2.59,1.37,4.62c0,0.78-0.07,1.66-0.22,2.63
				c-0.15,0.97-0.35,1.99-0.62,3.06c-1.05,4.44-2.08,7.4-3.1,8.86c-1.02,1.46-2.49,2.19-4.44,2.19h-14.94
				c-0.38,0-0.66-0.11-0.85-0.32c-0.19-0.21-0.29-0.5-0.29-0.85c0-0.14,0.02-0.31,0.07-0.54l4.55-19.6c0.05-0.24-0.04-0.48-0.27-0.7
				s-0.47-0.34-0.74-0.34l0.2-0.77H571.79z M565.23,545.49c0.47,0,0.83-0.14,1.07-0.4c0.24-0.27,0.45-0.73,0.6-1.37l1.94-8.34
				c0.09-0.38,0.13-0.74,0.13-1.07c0-0.69-0.4-1.04-1.21-1.04h-0.84l-2.85,12.23H565.23z"/>
			<path class="st11" d="M602.21,541l0.07-0.44c0-0.2-0.14-0.3-0.4-0.3c-0.27,0-0.4-0.11-0.4-0.34l0.07-0.44l0.97-3.99h7.4
				c0.53,0,0.95,0.16,1.26,0.48c0.3,0.33,0.45,0.69,0.45,1.09c0,0.51-0.05,0.94-0.14,1.27l-1.78,7.87c-0.4,1.79-1.02,3.03-1.84,3.73
				c-0.83,0.7-2.21,1.05-4.15,1.05h-8.11c-2.26,0-3.87-0.43-4.86-1.31c-0.87-0.78-1.31-1.98-1.31-3.58c0-1.03,0.18-2.28,0.53-3.75
				l1.84-8.07c0.47-2.1,1.37-3.72,2.71-4.86c1.23-1.05,2.64-1.58,4.22-1.58h13.7c-0.07,0.67-0.19,1.35-0.37,2.04
				c-0.18,0.69-0.37,1.26-0.59,1.71c-0.21,0.45-0.54,0.77-0.97,0.97c-0.43,0.2-0.93,0.3-1.49,0.3h-5.66c-0.63,0-1.11,0.15-1.46,0.45
				c-0.35,0.3-0.6,0.8-0.75,1.49l-2.18,9.38c-0.04,0.31-0.07,0.51-0.07,0.6c0,0.56,0.35,0.84,1.04,0.84c0.78,0,1.26-0.41,1.44-1.24
				L602.21,541z"/>
			<path class="st11" d="M630.63,544.65c0.16,0.27,0.37,0.5,0.64,0.69c0.27,0.19,0.57,0.28,0.9,0.28h0.97l-0.8,3.82
				c-0.22,1.05-1.03,1.57-2.41,1.57h-4.49c-0.58,0-1.08-0.15-1.51-0.45c-0.42-0.3-0.69-0.68-0.8-1.12l-1.94-6.84l-1.44,6.53
				l-0.03,0.34c0,0.22,0.1,0.41,0.29,0.55c0.19,0.15,0.43,0.22,0.72,0.22l-0.17,0.77h-9.28c-0.38,0-0.66-0.11-0.85-0.32
				c-0.19-0.21-0.29-0.5-0.29-0.85c0-0.14,0.02-0.31,0.07-0.54l4.55-19.6c0.05-0.24-0.04-0.48-0.27-0.7s-0.47-0.34-0.74-0.34
				l0.2-0.77h15.51c3.48,0,5.22,1.62,5.22,4.86c0,0.45-0.02,0.84-0.07,1.17c-0.11,0.58-0.19,1.03-0.24,1.34
				c-0.45,2.01-1.04,3.48-1.78,4.42c-0.74,0.94-1.79,1.56-3.15,1.88L630.63,544.65z M622.49,537.25h1.31c0.76,0,1.28-0.63,1.57-1.91
				c0.05-0.24,0.09-0.49,0.13-0.72c0.05-0.24,0.07-0.43,0.07-0.59c0-0.63-0.27-0.94-0.81-0.94h-1.31L622.49,537.25z"/>
			<path class="st11" d="M650.16,527.9c1.97,0,3.58,0.51,4.86,1.52c1.27,1.02,1.91,2.45,1.91,4.31c0,0.67-0.08,1.32-0.24,1.94
				l-2.01,8.51c-0.58,2.52-1.59,4.32-3.01,5.39c-1.25,0.96-2.97,1.44-5.16,1.44h-6.87c-2.1,0-3.66-0.47-4.67-1.42
				c-1.02-0.95-1.52-2.35-1.52-4.21c0-1.09,0.15-2.23,0.44-3.42l1.47-6.33c0.58-2.43,1.42-4.25,2.51-5.46
				c1.41-1.52,3.38-2.28,5.93-2.28H650.16z M642.92,543.85c-0.07,0.31-0.1,0.58-0.1,0.8c0,0.56,0.31,0.84,0.94,0.84
				c0.42,0,0.74-0.1,0.95-0.29c0.21-0.19,0.37-0.53,0.49-1.02l2.21-9.41c0.05-0.27,0.07-0.45,0.07-0.54c0-0.65-0.32-0.97-0.97-0.97
				c-0.71,0-1.19,0.45-1.44,1.34L642.92,543.85z"/>
			<path class="st11" d="M665.54,544.05c-0.05,0.22-0.07,0.36-0.07,0.4c0,0.49,0.38,0.74,1.14,0.74c0.42,0,0.73-0.07,0.92-0.22
				c0.19-0.15,0.34-0.45,0.45-0.92l3.32-14.34c0.04-0.22-0.05-0.45-0.27-0.69c-0.22-0.24-0.46-0.35-0.7-0.35l0.17-0.77h9.31
				c0.38,0,0.65,0.1,0.82,0.29c0.17,0.19,0.25,0.46,0.25,0.82l-0.07,0.5l-3.38,14.67c-0.58,2.55-1.53,4.34-2.85,5.39
				c-1.18,0.94-2.85,1.41-4.99,1.41h-7.67c-2.03,0-3.52-0.45-4.47-1.36c-0.95-0.91-1.42-2.24-1.42-4c0-1.07,0.17-2.3,0.5-3.68
				l2.85-12.23c0.05-0.22-0.04-0.45-0.27-0.69c-0.22-0.24-0.46-0.35-0.7-0.35l0.17-0.77h9.31c0.38,0,0.65,0.1,0.82,0.29
				c0.17,0.19,0.25,0.46,0.25,0.82l-0.07,0.5L665.54,544.05z"/>
			<path class="st11" d="M696.26,527.9c2.06,0,3.61,0.41,4.66,1.24c1.05,0.82,1.58,2.13,1.58,3.92c0,0.49-0.02,0.94-0.07,1.34
				c-0.04,0.4-0.15,0.9-0.3,1.51c-0.72,3.08-1.52,5.12-2.41,6.11c-0.89,0.99-2.36,1.49-4.39,1.49h-6.9l-1.24,5.26l-0.1,0.64
				c0,0.24,0.1,0.44,0.3,0.6c0.2,0.16,0.44,0.24,0.7,0.24l-0.2,0.77h-9.25c-0.38,0-0.66-0.11-0.85-0.32
				c-0.19-0.21-0.28-0.5-0.28-0.85c0-0.14,0.02-0.31,0.07-0.54l4.56-19.6c0.04-0.24-0.05-0.48-0.27-0.7s-0.47-0.34-0.74-0.34
				l0.2-0.77H696.26z M689.69,538.15h1.04c0.56,0,0.97-0.17,1.24-0.52c0.27-0.35,0.51-1.01,0.74-1.99c0.14-0.58,0.2-1.04,0.2-1.37
				c0-0.45-0.1-0.75-0.29-0.92c-0.19-0.17-0.47-0.25-0.85-0.25h-0.91L689.69,538.15z"/>
		</g>
	</g>
	<g>
		<path class="st138" d="M168.5,741.88l15.65-17.31l-9.28-16.93h4.83l4.23,7.76c1.52,2.77,2.58,4.87,3.2,6.31
			c1.07-1.51,2.78-3.56,5.11-6.15l7.2-7.92h5.72l-15.85,17.69l8.97,16.56l-4.75-0.01l-5.31-10.03c-0.5-0.97-1.11-2.23-1.81-3.77
			c-0.75,1.04-1.74,2.25-2.96,3.62l-9.14,10.18H168.5L168.5,741.88z M217.93,738.79c-2.59,2.43-5.32,3.64-8.18,3.64
			c-2.13,0-3.88-0.65-5.26-1.96c-1.38-1.31-2.07-3.04-2.07-5.18c0-2.56,0.89-4.53,2.69-5.91c1.85-1.43,4.55-2.14,8.09-2.14l2.14-0.1
			c1.01,0,1.92-0.07,2.71-0.22c0.8-0.14,1.46-0.34,1.98-0.59c0.31-1.16,0.47-2.15,0.47-2.99c0-0.98-0.44-1.79-1.31-2.42
			c-0.88-0.63-2.14-0.95-3.81-0.95c-3.34,0-5.52,1.51-6.55,4.53l-4.09-0.37c1.69-5.08,5.3-7.61,10.82-7.61
			c2.66,0,4.81,0.59,6.46,1.78c1.66,1.18,2.48,2.73,2.48,4.67c0,1.32-0.18,2.85-0.56,4.6l-1.32,6.16c-0.21,1.06-0.37,1.96-0.47,2.69
			c-0.11,0.73-0.16,1.41-0.16,2.03c0,1.11,0.17,2.26,0.5,3.44h-4.09c-0.14-0.44-0.24-0.92-0.34-1.45
			C217.98,739.9,217.93,739.35,217.93,738.79L217.93,738.79z M219.43,729.32c-0.96,0.37-2.27,0.64-3.91,0.81l-2.33,0.23
			c-1.31,0-2.46,0.17-3.44,0.49c-0.87,0.28-1.54,0.67-2.01,1.16c-0.86,0.86-1.3,1.89-1.3,3.08c0,1.17,0.4,2.14,1.2,2.91
			c0.79,0.77,1.88,1.16,3.25,1.16c1.94,0,3.7-0.71,5.29-2.13C217.76,735.63,218.85,733.06,219.43,729.32L219.43,729.32z
			 M232.37,717.08h6.01l2.24,19.78l11.02-19.78h5.9l-5.07,24.8h-4.01l4.14-19.99l-11.13,19.99h-3.59l-2.35-20.76l-4.24,20.76h-4.01
			L232.37,717.08L232.37,717.08z M258.66,741.88l4.96-24.8h4.05l-0.83,4.08c2.52-3.1,5.13-4.65,7.83-4.65c1.56,0,2.83,0.39,3.8,1.17
			c0.92,0.73,1.56,1.89,1.92,3.48c1.17-1.52,2.44-2.68,3.8-3.47c1.36-0.79,2.76-1.18,4.23-1.18c1.95,0,3.43,0.47,4.43,1.41
			c1.01,0.94,1.51,2.35,1.51,4.22c0,0.81-0.18,2.06-0.52,3.76l-3.2,15.98h-4.04l3.27-16.4c0.14-0.68,0.24-1.26,0.31-1.72
			c0.08-0.47,0.11-0.85,0.11-1.15c0-0.87-0.24-1.52-0.7-1.96c-0.47-0.44-1.18-0.65-2.11-0.65c-1.37,0-2.72,0.46-4.03,1.39
			c-1.31,0.93-2.27,2.03-2.88,3.31c-0.53,1.21-1.04,2.93-1.52,5.16l-2.43,12.03h-4.04l3.36-16.75c0.24-1.2,0.36-2.01,0.36-2.42
			c0-0.85-0.26-1.51-0.76-1.99c-0.5-0.49-1.13-0.73-1.85-0.73c-0.69,0-1.37,0.12-2.02,0.35c-0.66,0.23-1.34,0.6-2.03,1.1
			c-1.32,0.95-2.32,2.13-2.99,3.55c-0.61,1.32-1.15,3.05-1.59,5.16l-2.35,11.73H258.66L258.66,741.88z M325.3,717.08h4.09
			l-5.13,24.8h-4.07L325.3,717.08L325.3,717.08z M301.91,717.08h4.04l-2.03,9.59h4.32c2.74,0,4.69,0.21,5.87,0.63
			c1.17,0.42,2.09,1.19,2.78,2.3c0.69,1.12,1.03,2.35,1.03,3.72c0,0.83-0.11,1.63-0.33,2.41c-0.22,0.78-0.57,1.56-1.05,2.34
			c-0.89,1.5-2.01,2.5-3.36,3.03c-1.34,0.52-3.43,0.78-6.27,0.78h-10.1L301.91,717.08L301.91,717.08z M301.48,738.52h5.16
			c1.99,0,3.41-0.14,4.25-0.42c0.84-0.28,1.55-0.79,2.11-1.54c0.56-0.75,0.85-1.64,0.85-2.69c0-0.95-0.25-1.75-0.75-2.4
			c-0.5-0.65-1.08-1.04-1.73-1.18c-0.3-0.06-0.76-0.11-1.38-0.16c-0.62-0.05-1.34-0.07-2.18-0.07h-4.6L301.48,738.52L301.48,738.52z
			 M335.54,717.08h4l-2.14,10.34h11.02l2.09-10.34h3.95l-5,24.8h-4.03l2.3-11.1h-10.98l-2.3,11.1h-4L335.54,717.08L335.54,717.08z
			 M366.81,741.88l10.33-12.59l-5.93-12.21h4.47l2.01,4.41c0.86,1.96,1.53,3.55,2.01,4.74l6.84-9.15h4.94l-9.96,12.54l5.99,12.26
			l-4.48,0.01l-2.37-5.05c-0.3-0.65-0.57-1.27-0.82-1.84c-0.18-0.42-0.48-1.14-0.89-2.15l-7.06,9.04H366.81L366.81,741.88z
			 M397.3,741.88l-3.91-24.8h3.91l2.06,13.65c0.21,1.37,0.49,3.81,0.82,7.32c0.77-1.79,1.76-3.81,2.96-6.06l7.94-14.91h4.27
			l-13.59,24.8l-2.82,9.81l-4.1,0.1L397.3,741.88L397.3,741.88z M417.85,717.08h3.97l-0.85,4.15c-0.54,2.61-0.81,4.46-0.81,5.53
			c0,1.08,0.4,1.89,1.18,2.45c0.79,0.56,1.98,0.84,3.56,0.84c1.91,0,3.68-0.35,5.32-1.05l2.44-11.93h4.02l-5.05,24.8h-4.04l1.95-9.5
			c-2.01,0.69-3.89,1.04-5.64,1.04c-2.39,0-4.3-0.53-5.68-1.61c-1.4-1.08-2.09-2.6-2.09-4.58c0-0.83,0.36-3.13,1.08-6.89
			L417.85,717.08L417.85,717.08z M450.96,731.61l0.85-4.22h12.34l-0.82,4.22H450.96L450.96,731.61z M476.13,741.88l18.57-34.24h5.17
			l5.41,34.24h-4.26l-1.58-9.85h-13.24l-5.26,9.86L476.13,741.88L476.13,741.88z M488.05,728.5h10.84l-1.27-8.6
			c-0.29-2.07-0.51-3.66-0.64-4.76c-0.18-1.51-0.27-2.77-0.27-3.76c-0.76,2.01-1.85,4.34-3.27,6.98L488.05,728.5L488.05,728.5z
			 M514.15,717.08h6.01l2.24,19.78l11.02-19.78h5.9l-5.07,24.8h-4.01l4.14-19.99l-11.13,19.99h-3.59l-2.35-20.76l-4.24,20.76h-4
			L514.15,717.08L514.15,717.08z M556.21,717.08h3.94l-2.2,10.59l0.31,0.03c0.85,0,1.66-0.38,2.43-1.13
			c0.76-0.76,1.75-2.16,2.94-4.22c1.3-2.22,2.47-3.66,3.53-4.3c1.06-0.64,2.15-0.97,3.29-0.97c0.79,0,1.62,0.14,2.5,0.42l-0.91,2.52
			c-0.54-0.22-0.99-0.33-1.34-0.33c-0.67,0-1.26,0.24-1.77,0.73c-0.5,0.49-1.15,1.48-1.94,2.98c-1.64,3.09-3.49,4.98-5.53,5.71
			c0.72,0.26,1.39,0.69,2.02,1.28c0.64,0.59,1.3,1.78,1.98,3.57l2.98,7.92h-4.17l-2.34-6.31c-0.71-1.96-1.37-3.28-1.96-3.98
			c-0.6-0.69-1.43-1.13-2.53-1.32l-2.42,11.61h-3.97l2.39-11.61c-0.41,0-0.8,0.06-1.16,0.18c-0.36,0.13-0.74,0.32-1.14,0.59
			c-0.72,0.48-1.94,1.87-3.62,4.18l-4.91,6.65l-4.91,0.01l6.28-8.27c1.83-2.42,3.8-3.91,5.9-4.5c-0.91-0.6-1.58-1.31-2.01-2.13
			c-0.44-0.83-0.86-2.34-1.25-4.55c-0.18-1.08-0.4-1.8-0.66-2.18c-0.26-0.37-0.64-0.56-1.15-0.56c-0.37,0-0.95,0.11-1.72,0.33
			l0.27-2.69c0.33-0.08,0.67-0.13,1.04-0.18c0.36-0.05,0.72-0.07,1.06-0.07c1.41,0,2.42,0.41,3.03,1.24
			c0.61,0.76,1.14,2.19,1.57,4.29c0.44,2.1,0.92,3.47,1.43,4.12c0.52,0.65,1.34,0.96,2.46,0.96L556.21,717.08L556.21,717.08z
			 M588.17,737.39c-2.84,3.36-5.73,5.05-8.65,5.05c-1.79,0-3.26-0.53-4.45-1.58c-1.17-1.05-1.76-2.39-1.76-4.03
			c0-1.12,0.25-2.93,0.75-5.44l2.86-14.31h4.05l-3.17,15.85c-0.27,1.31-0.41,2.35-0.41,3.13c0,0.95,0.27,1.68,0.8,2.19
			c0.56,0.49,1.35,0.73,2.4,0.73c1.55,0,3.02-0.52,4.42-1.56c1.39-1.04,2.41-2.29,3.07-3.74c0.61-1.38,1.18-3.34,1.7-5.88
			l2.14-10.71h4.04l-4.96,24.8h-3.73L588.17,737.39L588.17,737.39z M604.19,717.08h17.87l-5.05,24.8h-4.02l4.43-21.28h-9.97
			l-3.06,14.79c-0.52,2.53-1.22,4.3-2.1,5.31c-0.88,1-2.1,1.51-3.65,1.51c-0.47,0-0.99-0.02-1.55-0.07
			c-0.57-0.05-1.23-0.13-2.01-0.26l0.74-3.5l1.7,0.06c1.02,0,1.69-0.26,2-0.77c0.3-0.51,0.77-2.16,1.4-4.94L604.19,717.08
			L604.19,717.08z M623.2,741.88l4.96-24.8h4.05l-0.83,4.08c2.52-3.1,5.13-4.65,7.83-4.65c1.56,0,2.83,0.39,3.8,1.17
			c0.92,0.73,1.56,1.89,1.92,3.48c1.17-1.52,2.44-2.68,3.8-3.47c1.36-0.79,2.76-1.18,4.23-1.18c1.95,0,3.43,0.47,4.43,1.41
			c1.01,0.94,1.51,2.35,1.51,4.22c0,0.81-0.18,2.06-0.52,3.76l-3.2,15.98h-4.04l3.26-16.4c0.14-0.68,0.24-1.26,0.31-1.72
			c0.08-0.47,0.11-0.85,0.11-1.15c0-0.87-0.24-1.52-0.7-1.96c-0.47-0.44-1.17-0.65-2.11-0.65c-1.37,0-2.72,0.46-4.03,1.39
			c-1.31,0.93-2.27,2.03-2.88,3.31c-0.53,1.21-1.04,2.93-1.52,5.16l-2.43,12.03h-4.04l3.36-16.75c0.24-1.2,0.36-2.01,0.36-2.42
			c0-0.85-0.26-1.51-0.76-1.99c-0.5-0.49-1.13-0.73-1.85-0.73c-0.69,0-1.37,0.12-2.02,0.35c-0.66,0.23-1.34,0.6-2.03,1.1
			c-1.32,0.95-2.32,2.13-2.99,3.55c-0.61,1.32-1.14,3.05-1.59,5.16l-2.35,11.73H623.2L623.2,741.88z M689.85,717.08h4.09l-5.13,24.8
			h-4.07L689.85,717.08L689.85,717.08z M666.45,717.08h4.04l-2.03,9.59h4.32c2.74,0,4.69,0.21,5.87,0.63
			c1.17,0.42,2.09,1.19,2.78,2.3c0.69,1.12,1.03,2.35,1.03,3.72c0,0.83-0.11,1.63-0.34,2.41c-0.22,0.78-0.57,1.56-1.05,2.34
			c-0.89,1.5-2.01,2.5-3.36,3.03c-1.34,0.52-3.43,0.78-6.27,0.78h-10.1L666.45,717.08L666.45,717.08z M666.02,738.52h5.16
			c1.99,0,3.41-0.14,4.25-0.42c0.84-0.28,1.55-0.79,2.11-1.54c0.56-0.75,0.85-1.64,0.85-2.69c0-0.95-0.25-1.75-0.75-2.4
			c-0.5-0.65-1.08-1.04-1.73-1.18c-0.3-0.06-0.76-0.11-1.38-0.16c-0.62-0.05-1.34-0.07-2.18-0.07h-4.6L666.02,738.52L666.02,738.52z
			 M700.09,717.08h4.01l-2.14,10.34h11.02l2.09-10.34h3.95l-5,24.8h-4.03l2.3-11.1h-10.98l-2.3,11.1h-4L700.09,717.08L700.09,717.08
			z M732.92,741.88l4.96-24.8h4.05l-0.83,4.08c2.52-3.1,5.13-4.65,7.83-4.65c1.56,0,2.83,0.39,3.8,1.17
			c0.92,0.73,1.56,1.89,1.92,3.48c1.17-1.52,2.44-2.68,3.8-3.47c1.36-0.79,2.76-1.18,4.23-1.18c1.95,0,3.43,0.47,4.43,1.41
			c1.01,0.94,1.51,2.35,1.51,4.22c0,0.81-0.18,2.06-0.52,3.76l-3.2,15.98h-4.04l3.26-16.4c0.14-0.68,0.24-1.26,0.31-1.72
			c0.08-0.47,0.11-0.85,0.11-1.15c0-0.87-0.24-1.52-0.7-1.96c-0.47-0.44-1.17-0.65-2.11-0.65c-1.37,0-2.72,0.46-4.03,1.39
			c-1.31,0.93-2.27,2.03-2.88,3.31c-0.53,1.21-1.04,2.93-1.52,5.16l-2.43,12.03h-4.04l3.36-16.75c0.24-1.2,0.36-2.01,0.36-2.42
			c0-0.85-0.26-1.51-0.76-1.99c-0.5-0.49-1.13-0.73-1.85-0.73c-0.69,0-1.37,0.12-2.02,0.35c-0.66,0.23-1.34,0.6-2.03,1.1
			c-1.32,0.95-2.32,2.13-2.99,3.55c-0.61,1.32-1.14,3.05-1.59,5.16l-2.35,11.73H732.92L732.92,741.88z M777.09,741.88l-3.91-24.8
			h3.91l2.06,13.65c0.21,1.37,0.49,3.81,0.82,7.32c0.77-1.79,1.76-3.81,2.96-6.06l7.94-14.91h4.27l-13.59,24.8l-2.81,9.81l-4.1,0.1
			L777.09,741.88L777.09,741.88z M800.74,717.08h17.87l-5.05,24.8h-4.02l4.42-21.28H804l-3.06,14.79c-0.52,2.53-1.22,4.3-2.1,5.31
			c-0.88,1-2.1,1.51-3.65,1.51c-0.47,0-0.99-0.02-1.55-0.07c-0.56-0.05-1.23-0.13-2.01-0.26l0.74-3.5l1.7,0.06
			c1.02,0,1.69-0.26,2-0.77c0.3-0.51,0.77-2.16,1.4-4.94L800.74,717.08L800.74,717.08z M818.19,741.88l10.33-12.59l-5.93-12.21h4.47
			l2.01,4.41c0.86,1.96,1.53,3.55,2.01,4.74l6.84-9.15h4.94l-9.96,12.54l5.99,12.26l-4.48,0.01l-2.36-5.05
			c-0.3-0.65-0.57-1.27-0.82-1.84c-0.18-0.42-0.48-1.14-0.89-2.15l-7.06,9.04H818.19L818.19,741.88z M848.68,741.88l-3.91-24.8h3.91
			l2.06,13.65c0.21,1.37,0.49,3.81,0.82,7.32c0.77-1.79,1.76-3.81,2.96-6.06l7.94-14.91h4.27l-13.59,24.8l-2.81,9.81l-4.1,0.1
			L848.68,741.88L848.68,741.88z M871.57,741.88l-3.91-24.8h3.91l2.06,13.65c0.21,1.37,0.49,3.81,0.82,7.32
			c0.77-1.79,1.76-3.81,2.96-6.06l7.94-14.91h4.27l-13.59,24.8l-2.82,9.81l-4.1,0.1L871.57,741.88L871.57,741.88z M886.54,751.38
			l6.86-34.3h3.74l-0.69,3.45c2.38-2.68,4.79-4.02,7.22-4.02c2.24,0,4.1,0.87,5.6,2.61c1.5,1.73,2.24,4.2,2.24,7.39
			c0,4.36-1.17,8.11-3.51,11.23c-2.34,3.13-5.05,4.7-8.13,4.7c-2.82,0-5.02-1.51-6.6-4.53l-2.67,13.47H886.54L886.54,751.38z
			 M894.5,732.58c0,2.14,0.5,3.74,1.52,4.8c1.01,1.07,2.25,1.6,3.71,1.6c2.34,0,4.22-1.39,5.64-4.18c1.41-2.79,2.12-5.6,2.12-8.43
			c0-1.68-0.43-3.17-1.27-4.48c-0.85-1.31-2.09-1.96-3.73-1.96c-2.28,0-4.18,1.34-5.7,4.03C895.26,726.64,894.5,729.52,894.5,732.58
			L894.5,732.58z"/>
	</g>
	<g>
		
			<linearGradient id="SVGID_00000033338907987662740100000006838798007488604315_" gradientUnits="userSpaceOnUse" x1="132.4097" y1="603.9406" x2="132.4097" y2="684.1005">
			<stop  offset="0" style="stop-color:#3E76BB"/>
			<stop  offset="0.9672" style="stop-color:#06509E"/>
		</linearGradient>
		<path style="fill:url(#SVGID_00000033338907987662740100000006838798007488604315_);" d="M154.35,619.05
			c1.09,0,2.14-0.22,3.16-0.67c1.02-0.44,1.67-1.07,1.94-1.89h2.35l-4.08,15.61c-0.68,2.17-2.69,3.27-6.02,3.27h-6.02l-11.43,48.58
			c-0.14,0.68,0.17,1.37,0.92,2.09c0.75,0.71,1.5,1.07,2.25,1.07l-0.71,2.35h-28.37c-2.18,0-3.27-1.09-3.27-3.27
			c0-0.27,0.07-0.81,0.2-1.63l11.53-49.19h-7.04c-1.09,0-1.99,0.25-2.7,0.76c-0.71,0.51-1.21,1.18-1.48,1.99h-2.55l4.08-16.33
			c0.27-0.96,0.82-1.65,1.63-2.09c0.82-0.44,2.11-0.67,3.88-0.67H154.35z"/>
		
			<linearGradient id="SVGID_00000181790261172879542060000000425413479443255682_" gradientUnits="userSpaceOnUse" x1="174.8739" y1="603.9406" x2="174.8739" y2="684.1005">
			<stop  offset="0" style="stop-color:#3E76BB"/>
			<stop  offset="0.9672" style="stop-color:#06509E"/>
		</linearGradient>
		<path style="fill:url(#SVGID_00000181790261172879542060000000425413479443255682_);" d="M184.77,689.47
			c-1.77,0-3.08-0.29-3.93-0.87c-0.85-0.58-1.34-1.58-1.48-3.01l-0.92-10.41h-11.84l-4.18,8.37c-0.07,0.2-0.1,0.38-0.1,0.51
			s-0.04,0.41-0.1,0.82c0,0.61,0.29,1.14,0.87,1.58c0.58,0.44,1.24,0.67,1.99,0.67l-0.51,2.35h-22.14c-2.86,0-4.29-1.12-4.29-3.37
			c0-0.61,0.17-1.26,0.51-1.93l30-58.17c0.21-0.41,0.31-0.92,0.31-1.53c0-0.75-0.32-1.45-0.97-2.09c-0.65-0.65-1.34-0.97-2.09-0.97
			l0.61-2.35h30.41c1.56,0,2.89,0.43,3.98,1.28c1.09,0.85,1.63,2.06,1.63,3.62l4.69,59.59c0,0.89,0.48,1.7,1.43,2.45
			c0.95,0.75,1.94,1.12,2.96,1.12l-0.51,2.35H184.77z M172.63,661.51h5.82l-0.82-11.43L172.63,661.51z"/>
		
			<linearGradient id="SVGID_00000049926956240715078450000011721217849084049335_" gradientUnits="userSpaceOnUse" x1="247.9062" y1="603.9406" x2="247.9062" y2="684.1005">
			<stop  offset="0" style="stop-color:#3E76BB"/>
			<stop  offset="0.9672" style="stop-color:#06509E"/>
		</linearGradient>
		<path style="fill:url(#SVGID_00000049926956240715078450000011721217849084049335_);" d="M270.31,618.95
			c4.56,0,8.08,1.2,10.56,3.57s3.72,5.37,3.72,8.98c0,0.55-0.05,1.16-0.15,1.84c-0.1,0.68-0.19,1.19-0.26,1.53
			c-1.57,7.49-4.76,12.01-9.59,13.57c1.97,1.23,3.42,2.57,4.34,4.03c0.92,1.46,1.38,3.62,1.38,6.48c0,2.58-0.51,6.19-1.53,10.81
			c-1.77,7.69-4.49,12.96-8.16,15.82c-3.33,2.58-8.47,3.88-15.41,3.88h-40.51c-1.16,0-2.02-0.32-2.6-0.97
			c-0.58-0.65-0.87-1.52-0.87-2.61c0-0.41,0.07-0.95,0.21-1.63l13.88-59.7c0.14-0.75-0.14-1.46-0.82-2.14
			c-0.68-0.68-1.43-1.02-2.25-1.02l0.61-2.35L270.31,618.95z M246.33,673.65c1.84,0,3.11-0.43,3.83-1.28
			c0.71-0.85,1.41-2.77,2.09-5.77c0.47-1.9,0.71-3.47,0.71-4.69c0-2.31-1.26-3.47-3.78-3.47h-2.86l-3.47,15.21H246.33z
			 M253.57,644.87c1.16,0,1.97-0.32,2.45-0.97c0.48-0.65,0.92-1.82,1.33-3.52c0.41-1.7,0.61-2.92,0.61-3.67
			c0-1.77-0.99-2.65-2.96-2.65h-3.06l-2.45,10.81H253.57z"/>
		
			<linearGradient id="SVGID_00000061443330896557148710000000847736384264551569_" gradientUnits="userSpaceOnUse" x1="315.535" y1="603.9406" x2="315.535" y2="684.1005">
			<stop  offset="0" style="stop-color:#3E76BB"/>
			<stop  offset="0.9672" style="stop-color:#06509E"/>
		</linearGradient>
		<path style="fill:url(#SVGID_00000061443330896557148710000000847736384264551569_);" d="M325.43,689.47
			c-1.77,0-3.08-0.29-3.93-0.87c-0.85-0.58-1.34-1.58-1.48-3.01l-0.92-10.41h-11.84l-4.18,8.37c-0.07,0.2-0.1,0.38-0.1,0.51
			s-0.03,0.41-0.1,0.82c0,0.61,0.29,1.14,0.87,1.58c0.58,0.44,1.24,0.67,1.99,0.67l-0.51,2.35h-22.14c-2.86,0-4.29-1.12-4.29-3.37
			c0-0.61,0.17-1.26,0.51-1.93l30-58.17c0.2-0.41,0.31-0.92,0.31-1.53c0-0.75-0.32-1.45-0.97-2.09s-1.34-0.97-2.09-0.97l0.61-2.35
			h30.41c1.56,0,2.89,0.43,3.98,1.28c1.09,0.85,1.63,2.06,1.63,3.62l4.69,59.59c0,0.89,0.47,1.7,1.43,2.45
			c0.95,0.75,1.94,1.12,2.96,1.12l-0.51,2.35H325.43z M313.29,661.51h5.82l-0.82-11.43L313.29,661.51z"/>
		
			<linearGradient id="SVGID_00000020381778413834528210000005367404127905842059_" gradientUnits="userSpaceOnUse" x1="394.2327" y1="603.9406" x2="394.2327" y2="684.1005">
			<stop  offset="0" style="stop-color:#3E76BB"/>
			<stop  offset="0.9672" style="stop-color:#06509E"/>
		</linearGradient>
		<path style="fill:url(#SVGID_00000020381778413834528210000005367404127905842059_);" d="M389.64,658.44l-5.82,25.1l-0.1,0.82
			c0,0.75,0.34,1.39,1.02,1.94c0.68,0.54,1.4,0.81,2.14,0.81l-0.51,2.35H357.9c-2.24,0-3.37-1.09-3.37-3.27
			c0-0.34,0.07-0.92,0.21-1.74l13.98-59.9c0.14-0.68-0.17-1.37-0.92-2.09c-0.75-0.71-1.5-1.07-2.25-1.07l0.71-2.35h28.37
			c2.18,0,3.27,1.09,3.27,3.27c0,0.27-0.07,0.81-0.2,1.63l-4.9,20.92h7.25l4.69-20.31c0.14-0.68-0.14-1.37-0.82-2.09
			c-0.68-0.71-1.4-1.07-2.14-1.07l0.51-2.35h28.37c1.16,0,1.99,0.29,2.5,0.87s0.76,1.41,0.76,2.5l-0.2,1.53l-13.88,60.01
			c-0.14,0.68,0.17,1.37,0.92,2.09c0.75,0.71,1.5,1.07,2.25,1.07l-0.71,2.35h-28.37c-2.18,0-3.27-1.09-3.27-3.27
			c0-0.27,0.07-0.81,0.2-1.63l6.02-26.12H389.64z"/>
		
			<linearGradient id="SVGID_00000155108051030100402770000005462667420571702428_" gradientUnits="userSpaceOnUse" x1="505.2422" y1="603.9406" x2="505.2422" y2="684.1005">
			<stop  offset="0" style="stop-color:#3E76BB"/>
			<stop  offset="0.9672" style="stop-color:#06509E"/>
		</linearGradient>
		<path style="fill:url(#SVGID_00000155108051030100402770000005462667420571702428_);" d="M521.93,642.73
			c5.1,0,9.12,1.4,12.04,4.18c2.93,2.79,4.39,6.81,4.39,12.05c0,2.79-0.41,5.85-1.23,9.18c-0.82,3.33-1.8,6.43-2.96,9.29
			c-1.9,4.76-4.44,7.96-7.6,9.59c-3.16,1.64-7.77,2.45-13.83,2.45h-41.33c-1.16,0-2.02-0.32-2.6-0.97
			c-0.58-0.65-0.87-1.52-0.87-2.61c0-0.41,0.07-0.95,0.21-1.63l13.88-59.7c0.14-0.75-0.14-1.46-0.81-2.14
			c-0.68-0.68-1.43-1.02-2.25-1.02l0.61-2.35h62.96l-2.86,11.23c-0.34,1.36-1.29,2.46-2.86,3.31s-3.13,1.28-4.7,1.28h-23.68
			l-1.84,7.86H521.93z M499.68,673.14h3.37c1.63,0,2.81-0.51,3.52-1.53c0.71-1.02,1.48-3.13,2.3-6.33c0.41-1.77,0.61-3.23,0.61-4.39
			c0-2.24-1.05-3.36-3.16-3.36h-3.06L499.68,673.14z"/>
		
			<linearGradient id="SVGID_00000103230496607162759500000010190322808791852447_" gradientUnits="userSpaceOnUse" x1="576.5955" y1="603.9406" x2="576.5955" y2="684.1005">
			<stop  offset="0" style="stop-color:#3E76BB"/>
			<stop  offset="0.9672" style="stop-color:#06509E"/>
		</linearGradient>
		<path style="fill:url(#SVGID_00000103230496607162759500000010190322808791852447_);" d="M591.75,619.05
			c5.99,0,10.92,1.55,14.79,4.64c3.88,3.1,5.82,7.47,5.82,13.12c0,2.04-0.23,4.01-0.71,5.91l-6.12,25.92
			c-1.77,7.69-4.83,13.17-9.19,16.43c-3.81,2.93-9.04,4.39-15.71,4.39h-20.92c-6.4,0-11.14-1.45-14.24-4.34
			c-3.1-2.89-4.64-7.16-4.64-12.8c0-3.34,0.44-6.81,1.32-10.41l4.49-19.29c1.77-7.42,4.32-12.96,7.65-16.64
			c4.29-4.63,10.31-6.94,18.07-6.94H591.75z M569.71,667.63c-0.2,0.95-0.3,1.77-0.3,2.45c0,1.7,0.95,2.55,2.85,2.55
			c1.29,0,2.27-0.29,2.91-0.87c0.65-0.57,1.14-1.61,1.48-3.11l6.73-28.68c0.14-0.81,0.2-1.36,0.2-1.63c0-1.97-0.99-2.96-2.96-2.96
			c-2.18,0-3.64,1.36-4.39,4.08L569.71,667.63z"/>
		
			<linearGradient id="SVGID_00000057837290302357698030000012545976428784888482_" gradientUnits="userSpaceOnUse" x1="640.1408" y1="603.9406" x2="640.1408" y2="684.1005">
			<stop  offset="0" style="stop-color:#3E76BB"/>
			<stop  offset="0.9672" style="stop-color:#06509E"/>
		</linearGradient>
		<path style="fill:url(#SVGID_00000057837290302357698030000012545976428784888482_);" d="M638.1,681.71
			c-0.2,0.75-0.3,1.5-0.3,2.25c0,0.81,0.39,1.55,1.17,2.19c0.78,0.65,1.58,0.97,2.4,0.97l-0.51,2.35h-28.98
			c-1.16,0-2.03-0.32-2.61-0.97c-0.57-0.65-0.86-1.52-0.86-2.61c0-0.41,0.07-0.95,0.2-1.63l13.88-59.7
			c0.14-0.75-0.14-1.46-0.81-2.14c-0.68-0.68-1.43-1.02-2.25-1.02l0.62-2.35h51.84l-2.65,11.43c-0.34,1.5-1.11,2.69-2.3,3.57
			c-1.19,0.88-2.57,1.32-4.13,1.32h-14.08L638.1,681.71z"/>
		
			<linearGradient id="SVGID_00000017518465300607962510000002155042673463733126_" gradientUnits="userSpaceOnUse" x1="685.6672" y1="603.9406" x2="685.6672" y2="684.1005">
			<stop  offset="0" style="stop-color:#3E76BB"/>
			<stop  offset="0.9672" style="stop-color:#06509E"/>
		</linearGradient>
		<path style="fill:url(#SVGID_00000017518465300607962510000002155042673463733126_);" d="M714.85,669.98
			c0.35,2.11,1.29,3.16,2.86,3.16h2.55l-2.65,11.63c-0.48,1.97-1.43,3.3-2.86,3.98c-1.09,0.47-2.89,0.71-5.41,0.71h-54.08
			c-2.79,0-4.18-1.12-4.18-3.37l0.2-1.63l2.55-11.32h2.75c0.96,0,1.79-0.29,2.5-0.87c0.71-0.58,1.24-1.28,1.58-2.09l20.61-44.08
			l0.21-1.84c0-0.82-0.28-1.5-0.82-2.05c-0.54-0.54-1.23-0.81-2.04-0.81l0.51-2.35h24.69c1.43,0,2.64,0.39,3.62,1.17
			c0.99,0.78,1.55,1.76,1.68,2.91L714.85,669.98z M687.2,660.28l-5,12.86h5.82L687.2,660.28z"/>
		
			<linearGradient id="SVGID_00000089558721104856279850000006443428427654266514_" gradientUnits="userSpaceOnUse" x1="788.3558" y1="603.9406" x2="788.3558" y2="684.1005">
			<stop  offset="0" style="stop-color:#3E76BB"/>
			<stop  offset="0.9672" style="stop-color:#06509E"/>
		</linearGradient>
		<path style="fill:url(#SVGID_00000089558721104856279850000006443428427654266514_);" d="M800.6,624.56l0.41-1.32
			c0-0.47-0.19-0.9-0.56-1.28c-0.38-0.38-0.91-0.56-1.58-0.56l0.51-2.35h22.66c1.08,0,1.99,0.39,2.7,1.17
			c0.71,0.78,1.07,1.65,1.07,2.61c0,1.02-0.3,1.87-0.92,2.55l-21.84,25.21l15,33.37c0.47,1.02,1.26,1.8,2.35,2.35
			c1.08,0.54,2.11,0.81,3.06,0.81l-0.51,2.35h-29.09c-0.95,0-1.84-0.34-2.65-1.02c-0.82-0.68-1.36-1.53-1.63-2.55l-4.49-13.06
			l-7.65,9.9c-0.34,0.41-0.51,1.05-0.51,1.94c0,0.68,0.34,1.26,1.02,1.73c0.68,0.47,1.5,0.71,2.45,0.71l-0.51,2.35h-25.51
			c-1.16,0-2.03-0.29-2.61-0.87c-0.58-0.58-0.86-1.34-0.86-2.29c0-1.02,0.27-1.87,0.81-2.56l25-31.02l-9.49-28.27
			c-0.75-2.05-2.08-3.06-3.98-3.06l0.61-2.35h21.53c1.29,0,2.6,0.43,3.92,1.28c1.33,0.85,2.16,1.89,2.5,3.11l2.75,9.8L800.6,624.56z
			"/>
		
			<linearGradient id="SVGID_00000129915415798378336950000017517112669680732090_" gradientUnits="userSpaceOnUse" x1="858.6878" y1="603.9406" x2="858.6878" y2="684.1005">
			<stop  offset="0" style="stop-color:#3E76BB"/>
			<stop  offset="0.9672" style="stop-color:#06509E"/>
		</linearGradient>
		<path style="fill:url(#SVGID_00000129915415798378336950000017517112669680732090_);" d="M870.93,624.56l0.41-1.32
			c0-0.47-0.19-0.9-0.56-1.28c-0.38-0.38-0.91-0.56-1.58-0.56l0.51-2.35h22.66c1.08,0,1.99,0.39,2.7,1.17
			c0.71,0.78,1.07,1.65,1.07,2.61c0,1.02-0.3,1.87-0.92,2.55l-21.84,25.21l15,33.37c0.47,1.02,1.26,1.8,2.35,2.35
			c1.08,0.54,2.11,0.81,3.06,0.81l-0.51,2.35H864.2c-0.95,0-1.84-0.34-2.65-1.02c-0.82-0.68-1.36-1.53-1.63-2.55l-4.49-13.06
			l-7.65,9.9c-0.34,0.41-0.51,1.05-0.51,1.94c0,0.68,0.34,1.26,1.02,1.73c0.68,0.47,1.5,0.71,2.45,0.71l-0.51,2.35h-25.51
			c-1.16,0-2.03-0.29-2.61-0.87c-0.58-0.58-0.86-1.34-0.86-2.29c0-1.02,0.27-1.87,0.81-2.56l25-31.02l-9.49-28.27
			c-0.75-2.05-2.08-3.06-3.98-3.06l0.61-2.35h21.53c1.29,0,2.6,0.43,3.92,1.28c1.33,0.85,2.16,1.89,2.5,3.11l2.75,9.8L870.93,624.56
			z"/>
		
			<linearGradient id="SVGID_00000130630137625610045550000009509310083197575316_" gradientUnits="userSpaceOnUse" x1="936.6724" y1="603.9406" x2="936.6724" y2="684.1005">
			<stop  offset="0" style="stop-color:#3E76BB"/>
			<stop  offset="0.9672" style="stop-color:#06509E"/>
		</linearGradient>
		<path style="fill:url(#SVGID_00000130630137625610045550000009509310083197575316_);" d="M968.82,684.98
			c-0.34,1.5-1.17,2.62-2.5,3.37c-1.33,0.75-3.8,1.12-7.4,1.12h-8.57c-1.57,0-3.03-0.54-4.39-1.63c-1.36-1.09-2.31-2.31-2.85-3.67
			l-8.27-20.41l-5.82,5.51l-3.47,15.1c0,0.75,0.34,1.39,1.02,1.94c0.68,0.54,1.4,0.81,2.14,0.81l-0.51,2.35h-28.47
			c-2.25,0-3.37-1.09-3.37-3.27c0-0.34,0.07-0.92,0.2-1.74l13.98-59.9c0.14-0.68-0.17-1.37-0.92-2.09c-0.75-0.71-1.5-1.07-2.24-1.07
			l0.71-2.35h28.37c2.17,0,3.27,1.09,3.27,3.27c0,0.27-0.07,0.81-0.2,1.63l-2.86,12.24l9.59-10.41c0.54-0.68,0.82-1.32,0.82-1.94
			c0-0.68-0.24-1.26-0.71-1.73c-0.48-0.48-0.92-0.71-1.33-0.71l0.62-2.35H973c1.29,0,2.28,0.38,2.96,1.12
			c0.68,0.75,1.02,1.6,1.02,2.55c0,0.96-0.41,1.9-1.22,2.86l-20.72,19.59l10.31,25.3c0.75,1.77,2.08,2.66,3.98,2.66h2.25
			L968.82,684.98z"/>
	</g>
</g>
</svg>
