<?xml version="1.0" encoding="utf-8"?>
<!-- Generator: Adobe Illustrator 26.5.0, SVG Export Plug-In . SVG Version: 6.00 Build 0)  -->
<svg version="1.1" id="Layer_1" xmlns="http://www.w3.org/2000/svg" xmlns:xlink="http://www.w3.org/1999/xlink" x="0px" y="0px"
	 viewBox="0 0 1080 1080" style="enable-background:new 0 0 1080 1080;" xml:space="preserve">
<style type="text/css">
	.st0{fill-rule:evenodd;clip-rule:evenodd;}
	.st1{fill:#ED1C24;}
	.st2{fill:#E1251B;}
	.st3{fill-rule:evenodd;clip-rule:evenodd;fill:#16397B;}
	.st4{fill:#EE2745;}
	
		.st5{clip-path:url(#SVGID_00000001656366164070102440000016194874103292775581_);fill:url(#SVGID_00000167376743959102630850000001026249657317949857_);}
	
		.st6{clip-path:url(#SVGID_00000141430809424734178860000001529524384769009057_);fill:url(#SVGID_00000077308151208904966290000004423431494155588768_);}
	
		.st7{clip-path:url(#SVGID_00000067958610450149408130000002240341243759011213_);fill:url(#SVGID_00000049904311873365687960000010384077592410625161_);}
	
		.st8{clip-path:url(#SVGID_00000168097763503569518510000001848980502828854415_);fill:url(#SVGID_00000054963344561074245690000010040431327327736460_);}
	.st9{fill:#424243;}
	
		.st10{clip-path:url(#SVGID_00000030483352527170608840000016161081984318202001_);fill:url(#SVGID_00000031196100097655871460000003931493236188829092_);}
	.st11{fill:#FFFFFF;}
	
		.st12{clip-path:url(#SVGID_00000178910101826956721930000005427894062639937445_);fill:url(#SVGID_00000158721569091694119940000006050966120797775507_);}
	
		.st13{clip-path:url(#SVGID_00000170996590273908120520000017239822949302089897_);fill:url(#SVGID_00000127739548514793396900000011496084131817960889_);}
	
		.st14{clip-path:url(#SVGID_00000119811042505324751380000000779966373558024114_);fill:url(#SVGID_00000171701910710173005060000014601274577196870280_);}
	
		.st15{clip-path:url(#SVGID_00000088110296001083806540000004756428650079913893_);fill:url(#SVGID_00000046311880300507490810000000581762435531243423_);}
	
		.st16{clip-path:url(#SVGID_00000024692514381689398310000000916585694602843048_);fill:url(#SVGID_00000169545807793534530310000013846239981526013594_);}
	
		.st17{clip-path:url(#SVGID_00000026137844419961154980000007762796271716818842_);fill:url(#SVGID_00000080195895156738570420000012365657855648750227_);}
	
		.st18{clip-path:url(#SVGID_00000044175123587474059330000007246606823349152950_);fill:url(#SVGID_00000107560875567714511280000011198704752049414533_);}
	.st19{fill-rule:evenodd;clip-rule:evenodd;fill:#C8202F;}
	.st20{fill-rule:evenodd;clip-rule:evenodd;fill:#FFFFFF;}
	.st21{fill-rule:evenodd;clip-rule:evenodd;fill:#F98238;}
	.st22{filter:url(#Adobe_OpacityMaskFilter);}
	.st23{fill:url(#SVGID_00000177462562333720765330000004881169955487904668_);}
	.st24{mask:url(#SVGID_00000168117940169283556690000000063654392043291037_);fill-rule:evenodd;clip-rule:evenodd;fill:#ED1C24;}
	.st25{fill-rule:evenodd;clip-rule:evenodd;fill:#F5333F;}
	.st26{fill-rule:evenodd;clip-rule:evenodd;fill:#ED1C24;}
	.st27{fill-rule:evenodd;clip-rule:evenodd;fill:#F9A46E;}
	.st28{fill-rule:evenodd;clip-rule:evenodd;fill:#F47B26;}
	.st29{fill-rule:evenodd;clip-rule:evenodd;fill:#EB5433;}
	.st30{fill:#1A3282;}
	.st31{fill-rule:evenodd;clip-rule:evenodd;fill:#1A3282;}
	.st32{fill-rule:evenodd;clip-rule:evenodd;fill:#9D9FA2;}
	.st33{fill-rule:evenodd;clip-rule:evenodd;fill:#000303;}
	.st34{fill:#64003D;}
	.st35{fill:#536270;}
	.st36{fill-rule:evenodd;clip-rule:evenodd;fill:#64003D;}
	.st37{fill-rule:evenodd;clip-rule:evenodd;fill:#536270;}
	.st38{fill-rule:evenodd;clip-rule:evenodd;fill:#1A3382;}
	.st39{fill-rule:evenodd;clip-rule:evenodd;fill:#29387E;}
	.st40{fill-rule:evenodd;clip-rule:evenodd;fill:#F37021;}
	.st41{fill-rule:evenodd;clip-rule:evenodd;fill:#005C32;}
	.st42{fill-rule:evenodd;clip-rule:evenodd;fill:#D2AB67;}
	
		.st43{clip-path:url(#SVGID_00000003094623138088174940000007573532611386439102_);fill:url(#SVGID_00000176024543007444100220000013837888577070180483_);}
	
		.st44{clip-path:url(#SVGID_00000086678897695193455310000013795320503790547381_);fill:url(#SVGID_00000169519576278977074610000014449879916907608751_);}
	
		.st45{clip-path:url(#SVGID_00000131341696678516192050000007195969986280971180_);fill:url(#SVGID_00000041996989989993680250000015679304759357717676_);}
	.st46{fill-rule:evenodd;clip-rule:evenodd;fill:#00AEEF;}
	.st47{fill-rule:evenodd;clip-rule:evenodd;fill:#EC008C;}
	.st48{fill-rule:evenodd;clip-rule:evenodd;fill:#FFF200;}
	.st49{fill:#A7AAAC;}
	.st50{fill-rule:evenodd;clip-rule:evenodd;fill:#5C5B5B;}
	.st51{fill:#9D9D9F;}
	.st52{fill:#F04D23;}
	.st53{fill-rule:evenodd;clip-rule:evenodd;fill:#2E3192;}
	.st54{fill-rule:evenodd;clip-rule:evenodd;fill:#C4312D;}
	.st55{fill:#552715;}
	.st56{fill:#010101;}
	.st57{fill:#E31E2E;}
	.st58{fill:url(#SVGID_00000146461038355798943670000004003444994115799226_);}
	.st59{fill:url(#SVGID_00000124846800881893913670000016103439493268190337_);}
	.st60{clip-path:url(#SVGID_00000104689151917075207250000015321475411287974819_);}
	.st61{clip-path:url(#SVGID_00000060021384115843911910000018285027631345756038_);}
	.st62{clip-path:url(#SVGID_00000051377353984824645430000001523779518970321845_);}
	.st63{clip-path:url(#SVGID_00000039841239150786430780000013498985978194398341_);}
	.st64{clip-path:url(#SVGID_00000059292191099515120170000008720923578969747378_);}
	.st65{clip-path:url(#SVGID_00000134957838939337735530000001720761704059884682_);}
	.st66{clip-path:url(#SVGID_00000080206863484827767090000009810181203881597080_);}
	.st67{clip-path:url(#SVGID_00000079479790879064315610000018052460845873553542_);}
	.st68{clip-path:url(#SVGID_00000054955522770727936320000003536956336796529072_);}
	.st69{clip-path:url(#SVGID_00000069364896895211183640000008752564738301344161_);}
	.st70{clip-path:url(#SVGID_00000044881471390731444460000013582818435431878815_);}
	.st71{fill:#2650A1;}
	.st72{fill:url(#SVGID_00000036946111612486839670000005724749078619903929_);}
	.st73{fill:#FEFEFE;}
	.st74{fill:#FDFDFD;}
	.st75{fill:#FCFCFC;}
	.st76{fill:#FBFBFB;}
	.st77{fill:#FAFAFA;}
	.st78{fill:#F9F9F9;}
	.st79{fill:#F8F8F8;}
	.st80{fill:#F7F7F7;}
	.st81{fill:#F6F6F6;}
	.st82{fill:#F5F5F5;}
	.st83{fill:#F4F4F4;}
	.st84{fill:#F3F3F3;}
	.st85{fill:#F2F2F2;}
	.st86{fill:#F1F1F1;}
	.st87{fill:#F0F0F0;}
	.st88{fill:#EFEFEF;}
	.st89{fill:#EEEEEE;}
	.st90{fill:#EDEDED;}
	.st91{fill:#ECECEC;}
	.st92{fill:#EBEBEB;}
	.st93{fill:#EAEAEA;}
	.st94{fill:#E9E9E9;}
	.st95{fill:#E8E8E8;}
	.st96{fill:#E7E7E7;}
	.st97{fill:#E6E6E6;}
	.st98{fill:#E5E5E5;}
	.st99{fill:#E4E4E4;}
	.st100{fill:#E3E3E3;}
	.st101{fill:#E2E2E2;}
	.st102{fill:#E1E1E1;}
	.st103{fill:#E0E0E0;}
	.st104{fill:#DFDFDF;}
	.st105{fill:#DEDEDE;}
	.st106{fill:#DDDDDD;}
	.st107{fill:#DCDCDC;}
	.st108{fill:#DBDBDB;}
	.st109{fill:#DADADA;}
	.st110{fill:#D9D9D9;}
	.st111{fill:#D92231;}
	.st112{fill:url(#SVGID_00000026158075457428411620000001534530909879930806_);}
	.st113{fill:url(#SVGID_00000036221644551498307030000014611635258273737614_);}
	.st114{opacity:0.8;}
	.st115{fill:url(#SVGID_00000074414851300345133320000009362978241037162415_);}
	.st116{fill:url(#SVGID_00000183207899543760056640000013596738877925321891_);}
	.st117{fill-rule:evenodd;clip-rule:evenodd;fill:#010101;}
	.st118{fill:#80A845;}
	.st119{fill-rule:evenodd;clip-rule:evenodd;fill:#80A845;}
	.st120{fill:url(#SVGID_00000035491223995590831400000002066062122337739659_);}
	.st121{fill-rule:evenodd;clip-rule:evenodd;fill:#04984A;}
	.st122{fill-rule:evenodd;clip-rule:evenodd;fill:url(#SVGID_00000148658277204322866280000012673201325114553504_);}
	.st123{fill:url(#SVGID_00000173845396004266043180000003470330386909867188_);}
	.st124{fill:url(#SVGID_00000110469069608271689680000015725607578456606892_);}
	.st125{fill:url(#SVGID_00000062187530321628761150000017057044787435821498_);}
	.st126{fill:url(#SVGID_00000132797285624355348610000002880044248127536770_);}
	.st127{fill:url(#SVGID_00000139263534588607416550000018340008964493940408_);}
	.st128{fill:url(#SVGID_00000016059485696229675480000010605760173991839892_);}
	.st129{fill:url(#SVGID_00000044871371692225958930000002382839665456135314_);}
	.st130{fill:url(#SVGID_00000018232378856439047220000010769235258053714866_);}
	.st131{fill:url(#SVGID_00000063628324790009819090000003858399329315026315_);}
	.st132{fill:url(#SVGID_00000155849199004036550620000000397921331265366176_);}
	.st133{fill:url(#SVGID_00000137848733848388806870000012745585306049491390_);}
	.st134{fill:url(#SVGID_00000039097857382188537770000015693398122960804765_);}
	.st135{fill:url(#SVGID_00000140704928141990933950000005179071383706322326_);}
	.st136{fill:url(#SVGID_00000043455131428034183490000015918481373532773554_);}
	.st137{fill-rule:evenodd;clip-rule:evenodd;fill:url(#SVGID_00000047780659288909572650000003989664017941712041_);}
	.st138{fill:#0A529D;}
	.st139{fill:url(#SVGID_00000082360676080362447570000010959459560246112446_);}
	.st140{fill:url(#SVGID_00000011015563950571971200000005021617703171400576_);}
	.st141{fill:url(#SVGID_00000145767576442521896190000009543146664432332196_);}
	.st142{fill:url(#SVGID_00000098185170423169962630000010430601310539686534_);}
	.st143{fill:url(#SVGID_00000111155023608036287910000004471921145032339104_);}
	.st144{fill:url(#SVGID_00000136390856273680805810000015820194231143535769_);}
	.st145{fill:url(#SVGID_00000133494375477616997200000007365623456304801971_);}
	.st146{fill:url(#SVGID_00000130623558139972178700000014786926101600106939_);}
	.st147{fill:url(#SVGID_00000097486537836465081050000010963434091442015165_);}
	.st148{fill:url(#SVGID_00000136371430847070405280000011576440622188302250_);}
	.st149{fill:url(#SVGID_00000091727780961675393820000018124627552434526082_);}
	.st150{fill:url(#SVGID_00000170269314421399779280000003680382465539593868_);}
	.st151{fill-rule:evenodd;clip-rule:evenodd;fill:url(#SVGID_00000144318020306727541280000014588707874902506652_);}
	.st152{fill:url(#SVGID_00000162330698747026141260000014407360107988468623_);}
	.st153{fill:url(#SVGID_00000037678580128853048260000000649041153402175403_);}
	.st154{fill:url(#SVGID_00000162338652963686301100000014865811900608950177_);}
	.st155{fill:url(#SVGID_00000121242985620204198040000001955690733466182023_);}
	.st156{fill:url(#SVGID_00000047738166319525177740000008413488838757077928_);}
	.st157{fill:url(#SVGID_00000010995071832062108290000003835380172519323804_);}
	.st158{fill:url(#SVGID_00000025427936199236577100000011685417435481978806_);}
	.st159{fill:url(#SVGID_00000092423145066418033380000006915531121198157723_);}
	.st160{fill:url(#SVGID_00000068644762217634759690000007198426899657450406_);}
	.st161{fill:url(#SVGID_00000008831977376009038610000001036040046432718464_);}
	.st162{fill:url(#SVGID_00000076583654007953237310000002247021335567744662_);}
	.st163{fill:url(#SVGID_00000157268817972465718930000005115013869298759302_);}
	.st164{fill:url(#SVGID_00000001633811197266277860000015832352095851531148_);}
	.st165{fill:url(#SVGID_00000033360305511620331790000005069628712490378118_);}
	.st166{fill:url(#SVGID_00000063626213679676312960000011214261883181832356_);}
	.st167{fill:url(#SVGID_00000081607542530724754430000004186369383999713924_);}
	.st168{fill:url(#SVGID_00000057130486417359861840000008290906769817422258_);}
	.st169{fill-rule:evenodd;clip-rule:evenodd;fill:url(#SVGID_00000160157968597283443860000001786366306458054528_);}
	.st170{fill:url(#SVGID_00000027570185746380836880000005452339917192568962_);}
	.st171{fill:url(#SVGID_00000078725990528956164780000016415429108114830753_);}
	.st172{fill:url(#SVGID_00000137814551458959950380000015500938296264881342_);}
	.st173{fill:url(#SVGID_00000117673897101088465660000004180001699790949008_);}
	.st174{fill:url(#SVGID_00000161620797998542340690000018158417930959448978_);}
	.st175{fill:url(#SVGID_00000170242966685780255600000016230127815338425785_);}
	.st176{fill:url(#SVGID_00000051380000257633913440000014749130499887353790_);}
	.st177{fill:url(#SVGID_00000041258250933135631370000017215623271288682168_);}
	.st178{fill:url(#SVGID_00000144335532521840995390000003341795416895503280_);}
	.st179{fill:url(#SVGID_00000013877846043007189010000012024568371019166356_);}
	.st180{fill:url(#SVGID_00000016037477830000040910000014987871369923335868_);}
	.st181{fill:url(#SVGID_00000005965765219301672080000001650031932981466303_);}
	.st182{fill:url(#SVGID_00000088129215315632696150000006159095266943252402_);}
	.st183{fill:url(#SVGID_00000173152499653798048970000006793300156056623749_);}
	.st184{fill-rule:evenodd;clip-rule:evenodd;fill:url(#SVGID_00000168087238410941964920000006284146359053925811_);}
	.st185{fill:url(#SVGID_00000164502314225605559190000013972053093127793855_);}
	.st186{fill:url(#SVGID_00000124132676704637687430000014554660177555516565_);}
	.st187{fill:url(#SVGID_00000101799738952557759760000004826038278275154865_);}
	.st188{fill:url(#SVGID_00000059278714490839167250000000315126318514403226_);}
	.st189{fill:url(#SVGID_00000142870801324935982380000009931708390554370745_);}
	.st190{fill:url(#SVGID_00000168828638042061246700000012739469016127918772_);}
	.st191{fill:url(#SVGID_00000136401338043150685050000018271637667841823637_);}
	.st192{fill:url(#SVGID_00000073712445192580439500000007963187835667196086_);}
	.st193{fill:url(#SVGID_00000112598785502674494090000014166957198796243093_);}
	.st194{fill:url(#SVGID_00000160177742481528294270000015576760298970671274_);}
	.st195{fill:url(#SVGID_00000072261871044736503460000002177816434842263696_);}
	.st196{fill:url(#SVGID_00000005961231386226982200000013475787590135121075_);}
	.st197{fill:url(#SVGID_00000000202330897525474230000009815589326209645968_);}
	.st198{fill:url(#SVGID_00000098913136713123047200000006129691391314334648_);}
	.st199{fill:url(#SVGID_00000120558906748785396270000007996037434315006595_);}
	.st200{fill:url(#SVGID_00000121258737296436632530000007405228761446237367_);}
	.st201{fill:url(#SVGID_00000181789965456268101080000003329612891123757201_);}
	.st202{fill:url(#SVGID_00000010988822448290128510000008141266492522231466_);}
	.st203{fill:url(#SVGID_00000118380821236449215750000012819460844384678824_);}
	.st204{fill-rule:evenodd;clip-rule:evenodd;fill:url(#SVGID_00000005959966578875086450000011840929972453617067_);}
	.st205{fill:url(#SVGID_00000159459921970615384910000004129731505305159066_);}
	.st206{fill:url(#SVGID_00000047048977467304407910000013155794219918366609_);}
	.st207{fill:url(#SVGID_00000012431289483455138880000000022559278827696264_);}
	.st208{fill:url(#SVGID_00000177484451253248179930000012081277818723677314_);}
	.st209{fill:url(#SVGID_00000049931616248064211420000012028176882974374030_);}
	.st210{fill:url(#SVGID_00000039852091925811073800000011813427365955789757_);}
	.st211{fill:url(#SVGID_00000027591409666409750230000005725853759962200729_);}
	.st212{fill:url(#SVGID_00000042737938309608889670000005376886566705776032_);}
	.st213{fill:url(#SVGID_00000004532272908123904190000004071718857016354233_);}
	.st214{fill:url(#SVGID_00000023247478897167357550000002373866727685442475_);}
	.st215{fill:url(#SVGID_00000014628664800359880750000014151991150044964500_);}
	.st216{fill:url(#SVGID_00000013888919689517825120000004420115181467181238_);}
	.st217{fill:url(#SVGID_00000087388383360288102130000000157861640056072093_);}
	.st218{fill:url(#SVGID_00000089550018662150047620000007284727809207738258_);}
	.st219{fill:url(#SVGID_00000158013312809036989710000005291198732894000058_);}
	.st220{fill:url(#SVGID_00000114789370116263670290000002379087704430416798_);}
	.st221{fill-rule:evenodd;clip-rule:evenodd;fill:url(#SVGID_00000161592319415597085300000016262397691745385400_);}
	.st222{fill:url(#SVGID_00000044898296134932494860000018245684145728646032_);}
	.st223{fill:url(#SVGID_00000170277125311559990960000001696215284821271704_);}
	.st224{fill:url(#SVGID_00000131348784373893888390000006036312931123990449_);}
	.st225{fill:url(#SVGID_00000105424920028321513390000009832638024703825830_);}
	.st226{fill:url(#SVGID_00000065766035713998394620000001438937489121524405_);}
	.st227{fill:url(#SVGID_00000108292387335410051460000012995956635071645064_);}
	.st228{fill:url(#SVGID_00000112608657430408122690000006457494813786884287_);}
	.st229{fill:url(#SVGID_00000023973914060367955430000012095422859963832463_);}
	.st230{fill:url(#SVGID_00000158001395976433349840000007122483653600050088_);}
	.st231{fill:url(#SVGID_00000137099815689027547920000010253059841685048992_);}
	.st232{fill:url(#SVGID_00000064324731351221803250000017325827203105629837_);}
	.st233{fill:url(#SVGID_00000112612677831564152590000010536566011745114250_);}
	.st234{fill:url(#SVGID_00000018927051047336892050000000390858245505329042_);}
	.st235{fill:url(#SVGID_00000111153060074778240730000007462669249260727194_);}
	.st236{fill:url(#SVGID_00000015347769542197573130000014372828200032145847_);}
	.st237{fill-rule:evenodd;clip-rule:evenodd;fill:url(#SVGID_00000121982132114582285610000002614768225573030021_);}
	.st238{fill:url(#SVGID_00000016058215181550381810000010656541060993412014_);}
	.st239{fill:url(#SVGID_00000183965597297389894620000005650536660687241647_);}
	.st240{fill:url(#SVGID_00000134931388871034515180000010128962325066499518_);}
	.st241{fill:url(#SVGID_00000021089105694477316910000007164601713317445566_);}
	.st242{fill:url(#SVGID_00000165220204582616125830000001160636754478942630_);}
	.st243{fill:url(#SVGID_00000005970350103070422410000015835652306282549181_);}
	.st244{fill:url(#SVGID_00000062151521375539655480000008412833581068748681_);}
	.st245{fill:url(#SVGID_00000165946187234573598480000005832416298644474041_);}
	.st246{fill:url(#SVGID_00000033347705814163189090000014152428824488178095_);}
	.st247{fill:url(#SVGID_00000109011721704598914600000000064282848134252939_);}
	.st248{fill:url(#SVGID_00000183960511149646898870000005652464448113150366_);}
	.st249{fill:url(#SVGID_00000148636911226188841080000010045994806099408794_);}
	.st250{fill:url(#SVGID_00000071540721070523730160000002001661744947676340_);}
	.st251{fill:url(#SVGID_00000026868926234734435540000005425500946249355949_);}
	.st252{fill:url(#SVGID_00000181766670552719260130000016920334538957724545_);}
	.st253{fill-rule:evenodd;clip-rule:evenodd;fill:url(#SVGID_00000036952741380420204010000011056120729372262847_);}
	.st254{fill:url(#SVGID_00000150076290519601597670000014717574739606053774_);}
	.st255{fill:url(#SVGID_00000088123307754766094650000015398119078684310457_);}
	.st256{fill:url(#SVGID_00000036232701810130218530000016742715237065017261_);}
	.st257{fill:url(#SVGID_00000150077055104695214220000009163339117636304051_);}
	.st258{fill:url(#SVGID_00000133516251502938479350000008238735720765350814_);}
	.st259{fill:url(#SVGID_00000039113700813729799970000013626792704591344537_);}
	.st260{fill:url(#SVGID_00000061461404428644514870000010580508437721844888_);}
	.st261{fill:url(#SVGID_00000059995360985502466920000012182490614124578704_);}
	.st262{fill:url(#SVGID_00000168116079183302071320000004035146911645480842_);}
	.st263{fill:url(#SVGID_00000002357002458325651040000013739300615584007834_);}
	.st264{fill:url(#SVGID_00000075139666816377488180000010948823923427892902_);}
	.st265{fill:url(#SVGID_00000006697907791489277170000017135307204063084207_);}
	.st266{fill:url(#SVGID_00000042010932387772087950000010210189330809122461_);}
	.st267{fill:url(#SVGID_00000041977213924911385080000006142466612207948184_);}
	.st268{fill:url(#SVGID_00000158024159839595563060000002329398223433372578_);}
	.st269{fill-rule:evenodd;clip-rule:evenodd;fill:url(#SVGID_00000088113062881523371430000002816355590554531516_);}
	.st270{fill:url(#SVGID_00000141426298317204808390000017674719771389270715_);}
	.st271{fill:url(#SVGID_00000050654900796015025060000017693638100477945237_);}
	.st272{fill:url(#SVGID_00000011712216815605321830000008007368281773352358_);}
	.st273{fill:url(#SVGID_00000088833353852758572140000007836718931386018952_);}
	.st274{fill:url(#SVGID_00000132081391810191686280000005109811880651700927_);}
	.st275{fill:url(#SVGID_00000131356921427110837220000003642683809991795333_);}
	.st276{fill:url(#SVGID_00000097458272150730846850000004542282827867398044_);}
	.st277{fill:url(#SVGID_00000027564274711703343890000000670785793818985352_);}
	.st278{fill:url(#SVGID_00000104702969102898577520000002197929451819174057_);}
	.st279{fill:url(#SVGID_00000070115463948170373890000015690870039312295093_);}
	.st280{fill:url(#SVGID_00000065771359646471632700000012547701639505643695_);}
	.st281{fill:url(#SVGID_00000085966932471500500400000006377019814633893291_);}
	.st282{fill:url(#SVGID_00000083800917085538407470000016725792468115054215_);}
	.st283{fill:url(#SVGID_00000174578644862251079700000004036480798049780904_);}
	.st284{fill:url(#SVGID_00000146467889711873677830000000360861723445488821_);}
	.st285{fill-rule:evenodd;clip-rule:evenodd;fill:url(#SVGID_00000053512140883772502840000010859135681440211882_);}
	.st286{fill:url(#SVGID_00000158743109692089731230000017927585181665459359_);}
	.st287{fill:url(#SVGID_00000113324926887209412640000018085948735040369057_);}
	.st288{fill:url(#SVGID_00000039835446049622640070000015961766862195559060_);}
	.st289{fill:url(#SVGID_00000061434156652162072540000003956672738039969696_);}
	.st290{fill:url(#SVGID_00000129911190065742325930000002737628409902612925_);}
	.st291{fill:url(#SVGID_00000129894505280811810340000016658733479634338992_);}
	.st292{fill:url(#SVGID_00000005949133016636339100000002367939645104352931_);}
	.st293{fill:url(#SVGID_00000183224749340567610520000010819488028138734722_);}
	.st294{fill:url(#SVGID_00000045577470227621768920000018396303945676695712_);}
	.st295{fill:url(#SVGID_00000158023577162661410550000003679968292916553367_);}
	.st296{fill:url(#SVGID_00000130615970333448210760000014500002200165113509_);}
	.st297{fill:url(#SVGID_00000112603826304171772910000003142968728561236365_);}
	.st298{fill:url(#SVGID_00000170268303703620842910000009637716182724462491_);}
	.st299{fill:url(#SVGID_00000106145339238133528920000004471566349852187294_);}
	.st300{fill:url(#SVGID_00000062160566431484454050000014176494391701977242_);}
	.st301{fill:url(#SVGID_00000180367761270611131840000012438683976249318814_);}
	.st302{fill:url(#SVGID_00000081619828522553692720000017689505715354654100_);}
	.st303{fill:url(#SVGID_00000138531447583292362290000016816474097191745183_);}
	.st304{fill-rule:evenodd;clip-rule:evenodd;fill:url(#SVGID_00000129203682629926918270000005613353822833367213_);}
	.st305{fill:url(#SVGID_00000005968697439530776980000005351996894709466282_);}
	.st306{fill:url(#SVGID_00000106142823604333264500000007029367933316429709_);}
	.st307{fill:url(#SVGID_00000116213720923649708200000017827339700554374303_);}
	.st308{fill:url(#SVGID_00000111149102212436314910000008370462668139067807_);}
	.st309{fill:url(#SVGID_00000037680353875872596700000006099867384834803640_);}
	.st310{fill:url(#SVGID_00000052816621731923311670000003610292594903074726_);}
	.st311{fill:url(#SVGID_00000132774676868170447180000002669184797629559190_);}
	.st312{fill:url(#SVGID_00000054234456146718944900000008692529870817837184_);}
	.st313{fill:url(#SVGID_00000127733417755090165640000011983261936748695435_);}
	.st314{fill:url(#SVGID_00000040559880201395420050000012839369268493107125_);}
	.st315{fill:url(#SVGID_00000036939651483527957220000016964248770575663528_);}
	.st316{fill:url(#SVGID_00000110439470574727547390000006340797541398594747_);}
	.st317{fill:url(#SVGID_00000109018607031706528430000014099462199391486385_);}
	.st318{fill:url(#SVGID_00000014599805991965769500000003980160053836461745_);}
	.st319{fill:url(#SVGID_00000039834972585098879350000008198166494178567323_);}
	.st320{fill:url(#SVGID_00000045600972507382486130000016071441026339364006_);}
	.st321{fill:url(#SVGID_00000117639613716329403140000004708413101109593494_);}
	.st322{fill:url(#SVGID_00000054961392153671729310000008945952439631565495_);}
	.st323{fill:url(#SVGID_00000072973867271370511440000007604052557406664863_);}
	.st324{fill:url(#SVGID_00000114067901977855641940000000423774853083183754_);}
	.st325{fill-rule:evenodd;clip-rule:evenodd;fill:url(#SVGID_00000178162926874587764460000008126249563396919222_);}
	.st326{fill:url(#SVGID_00000010283574135562865340000018014981923519229317_);}
	.st327{fill:url(#SVGID_00000088104144313333009170000009093163433491986859_);}
	.st328{fill:url(#SVGID_00000152945429339174413800000005256607058354475164_);}
	.st329{fill:url(#SVGID_00000134940496892299280850000000540851394474520996_);}
	.st330{fill:url(#SVGID_00000162325438519089805970000000474282387013178779_);}
	.st331{fill:url(#SVGID_00000116925779800007832880000017609484074611931318_);}
	.st332{fill:url(#SVGID_00000054982533202553018930000010149830403382239417_);}
	.st333{fill:url(#SVGID_00000168077572005403094340000008339048799064563891_);}
	.st334{fill:url(#SVGID_00000129886357098894375090000002394948872929718692_);}
	.st335{fill:url(#SVGID_00000152251624413289599310000016473025478658547391_);}
	.st336{fill:url(#SVGID_00000142893585426991763130000013793470383838042768_);}
	.st337{fill:url(#SVGID_00000067954490827456301850000016562424981344600708_);}
	.st338{fill:url(#SVGID_00000021811949183477982170000006518931616862756494_);}
	.st339{fill:url(#SVGID_00000039813018990224562330000001393527212374315158_);}
	.st340{fill:url(#SVGID_00000183963916199526105260000015202552073057034124_);}
	.st341{fill:url(#SVGID_00000083086918243953439890000016127098782441946255_);}
	.st342{fill-rule:evenodd;clip-rule:evenodd;fill:url(#SVGID_00000031916910556974164960000018371975165844839836_);}
	.st343{fill:url(#SVGID_00000067946208504573451850000002995192816561972613_);}
	.st344{fill:url(#SVGID_00000139974545405325852260000002694041984536272298_);}
	.st345{fill:url(#SVGID_00000145781338619663033790000002331245878299446923_);}
	.st346{fill:url(#SVGID_00000168107566568582925370000014896446410424291485_);}
	.st347{fill:url(#SVGID_00000073698058771935957930000014237320707656462770_);}
	.st348{fill:url(#SVGID_00000155831479684957070140000003328998998312868010_);}
	.st349{fill:url(#SVGID_00000046319051563325743830000006810440868739853196_);}
	.st350{fill:url(#SVGID_00000036218749738865578730000012765433228775870635_);}
	.st351{fill:url(#SVGID_00000127021794815383374650000012160592403470378684_);}
	.st352{fill:url(#SVGID_00000072248170951306581190000017847484772996717996_);}
	.st353{fill:url(#SVGID_00000168082727098710729900000009074091656306977189_);}
	.st354{fill:url(#SVGID_00000021095058571012644740000010103734016037850753_);}
	.st355{fill:url(#SVGID_00000034802491298279786420000012050162741451000199_);}
	.st356{fill:url(#SVGID_00000169531501573539446060000009789640777259258524_);}
	.st357{fill:url(#SVGID_00000158729031582419816290000003908336892817038210_);}
	.st358{fill:url(#SVGID_00000141447193313417458000000002545408174138721980_);}
	.st359{fill:url(#SVGID_00000157990029558517797530000003699999624714674317_);}
	.st360{fill:url(#SVGID_00000043431132364691359780000006091316805534258564_);}
	.st361{fill:url(#SVGID_00000018934656142625290260000017247123304038747536_);}
	.st362{fill:url(#SVGID_00000182530659487833533660000012360637146487233712_);}
	.st363{fill:#C1282D;}
	.st364{fill-rule:evenodd;clip-rule:evenodd;fill:url(#SVGID_00000170989062362258597300000018062258261206168461_);}
	.st365{fill:url(#SVGID_00000161628525502958446670000005023722267818902420_);}
	.st366{fill:url(#SVGID_00000171716756673074240610000015021672538161217463_);}
	.st367{fill:url(#SVGID_00000033353995466045514090000006661378157444526985_);}
	.st368{fill:url(#SVGID_00000163050557386825841550000008683162036196242355_);}
	.st369{fill:url(#SVGID_00000121973822960890279150000013746292182215310730_);}
	.st370{fill:url(#SVGID_00000136397285492800460680000014485481822833749390_);}
	.st371{fill:url(#SVGID_00000093151258669055058700000009561081783157159614_);}
	.st372{fill:url(#SVGID_00000173880361778538110090000016577354705562715541_);}
	.st373{fill:url(#SVGID_00000113352805306597094450000012468724921431079856_);}
	.st374{fill:url(#SVGID_00000043441209645867020230000002056105962193461892_);}
	.st375{fill:url(#SVGID_00000181773547988353925450000008911205538266182037_);}
	.st376{fill:url(#SVGID_00000057111747494550671320000014081967162665813161_);}
	.st377{fill:url(#SVGID_00000155848983411641527570000014115833429018821805_);}
	.st378{fill:url(#SVGID_00000180338844994223558580000009619115743578445235_);}
	.st379{fill:url(#SVGID_00000049905015936763984710000012883032587435457683_);}
	.st380{fill:url(#SVGID_00000062155499494791391230000016804609574871846076_);}
	.st381{fill-rule:evenodd;clip-rule:evenodd;fill:url(#SVGID_00000013195290912572681940000011567259675388560309_);}
	.st382{fill:url(#SVGID_00000140730938748076603510000012089877125633502093_);}
	.st383{fill:url(#SVGID_00000164516323708629920620000017228184298316890263_);}
	.st384{fill:url(#SVGID_00000012441366635781828910000011084108886732592571_);}
	.st385{fill:url(#SVGID_00000005263266597356808140000007248807997603753912_);}
	.st386{fill:url(#SVGID_00000137843804960908433100000009280344409872862388_);}
	.st387{fill:url(#SVGID_00000174599992282792810380000018078565777353120431_);}
	.st388{fill:url(#SVGID_00000180360700815389937560000010979211243450583963_);}
	.st389{fill:url(#SVGID_00000026886398242813822410000003349955479767284115_);}
	.st390{fill:url(#SVGID_00000085936861052234282280000011148221695234869156_);}
	.st391{fill:url(#SVGID_00000080912596090907663680000002251373627054786998_);}
	.st392{fill:url(#SVGID_00000114795193238789662500000005083902799011603358_);}
	.st393{fill:url(#SVGID_00000089572256555912545720000001832232386377406107_);}
	.st394{fill:url(#SVGID_00000092436346183509072930000018400835884208663980_);}
	.st395{fill:url(#SVGID_00000142170109947128858330000014652311270604160435_);}
	.st396{fill:url(#SVGID_00000166641073722387526430000009471830748317272745_);}
	.st397{fill:url(#SVGID_00000104693207839911576300000011167457481928935304_);}
	.st398{fill:url(#SVGID_00000023993148316072889790000015181635610624151472_);}
	.st399{fill:url(#SVGID_00000158722513261056782690000017958625281547195057_);}
	.st400{fill:url(#SVGID_00000066484087900240496430000007739729244187860159_);}
	.st401{fill:url(#SVGID_00000155846090312723973170000016491509209808661376_);}
</style>
<g>
	<g>
		<ellipse class="st11" cx="540" cy="469.09" rx="228.3" ry="113.29"/>
		<path class="st121" d="M756.92,504.37c-29.91,45.3-115.7,78.01-216.92,78.01c-101.78,0-187.95-33.05-217.41-78.78l2.23-0.7
			l10.51-3.28l74.17-23.28l-6.98,19.41c-0.59,1.64,1.08,3.21,2.69,2.51l65.48-28.27l-22.2,32.84c-1.22,1.78,0.87,3.98,2.72,2.83
			l65.72-40.59v24.64c0,1.75,2.09,2.65,3.39,1.43l6.74-6.39l10.61,24.64c0.66,1.54,2.83,1.64,3.63,0.14l17.21-32.84l79.86,40.38
			c1.81,0.94,3.7-1.19,2.55-2.9l-21.05-31.55c-0.49-0.7-0.45-1.64,0.07-2.3L629,468l10.58,13.16c0.94,1.15,2.72,0.94,3.39-0.38
			l5.58-11.34l48.34,35.71c1.12,0.8,2.72,0.28,3.11-1.05l5.03-16.54l51.73,16.72c0.03,0,0.07,0.03,0.07,0.03
			C756.85,504.34,756.89,504.34,756.92,504.37z"/>
		
			<linearGradient id="SVGID_00000001665763167708569690000013019964297798911927_" gradientUnits="userSpaceOnUse" x1="446.2578" y1="359.939" x2="671.2817" y2="616.9821">
			<stop  offset="0" style="stop-color:#3E76BB"/>
			<stop  offset="1" style="stop-color:#06509E"/>
		</linearGradient>
		<path style="fill-rule:evenodd;clip-rule:evenodd;fill:url(#SVGID_00000001665763167708569690000013019964297798911927_);" d="
			M768.3,469.28c0,1.08-0.03,2.13-0.1,3.18c-0.03,0.91-0.1,1.78-0.21,2.65c-0.07,0.8-0.17,1.61-0.28,2.41
			c-0.07,0.56-0.17,1.12-0.28,1.68c-0.31,1.95-0.77,3.91-1.33,5.83c-0.17,0.7-0.38,1.4-0.59,2.06c-0.07,0.24-0.14,0.49-0.24,0.73
			c-0.28,0.87-0.59,1.75-0.91,2.58c-0.24,0.66-0.52,1.36-0.84,2.02c-0.07,0.21-0.17,0.45-0.28,0.66l-0.1-0.03l-0.07-0.03
			l-147.05-71.34c-0.91-0.42-1.99-0.14-2.55,0.7l-19.76,29.49l-52.63-64.68c-0.73-0.84-1.99-0.98-2.83-0.24l-73.12,61.29
			l-34.66-3.32c-0.56-0.07-1.12,0-1.64,0.24c-9.53,4.29-105.55,47.78-111.03,50.26c-0.24-0.45-0.45-0.87-0.63-1.33
			c-0.28-0.63-0.56-1.29-0.84-1.95c-0.56-1.33-1.08-2.69-1.5-4.01c-0.28-0.8-0.52-1.57-0.73-2.37c-0.8-2.58-1.36-5.2-1.75-7.85
			c-0.28-1.75-0.45-3.53-0.56-5.31c-0.07-1.08-0.1-2.2-0.1-3.32c0-62.65,102.2-113.47,228.3-113.47
			C666.11,355.81,768.3,406.63,768.3,469.28z"/>
		<g>
			<path class="st11" d="M413.34,529.48c0.31,0,0.61-0.06,0.9-0.19s0.48-0.31,0.55-0.54h0.67l-1.17,4.46
				c-0.19,0.62-0.77,0.93-1.72,0.93h-1.72l-3.26,13.87c-0.04,0.19,0.05,0.39,0.26,0.6c0.21,0.2,0.43,0.31,0.64,0.31l-0.2,0.67h-8.1
				c-0.62,0-0.93-0.31-0.93-0.93c0-0.08,0.02-0.23,0.06-0.47l3.29-14.04h-2.01c-0.31,0-0.57,0.07-0.77,0.22
				c-0.2,0.15-0.34,0.34-0.42,0.57h-0.73l1.17-4.66c0.08-0.27,0.23-0.47,0.47-0.6s0.6-0.19,1.11-0.19H413.34z"/>
			<path class="st11" d="M422.69,549.58c-0.51,0-0.88-0.08-1.12-0.25c-0.24-0.17-0.38-0.45-0.42-0.86l-0.26-2.97h-3.38l-1.19,2.39
				c-0.02,0.06-0.03,0.11-0.03,0.14c0,0.04-0.01,0.12-0.03,0.23c0,0.17,0.08,0.33,0.25,0.45c0.17,0.13,0.35,0.19,0.57,0.19
				l-0.15,0.67h-6.32c-0.82,0-1.22-0.32-1.22-0.96c0-0.18,0.05-0.36,0.14-0.55l8.57-16.6c0.06-0.12,0.09-0.26,0.09-0.44
				c0-0.21-0.09-0.41-0.28-0.6c-0.18-0.18-0.38-0.28-0.6-0.28l0.18-0.67h8.68c0.45,0,0.82,0.12,1.14,0.36
				c0.31,0.24,0.47,0.59,0.47,1.03l1.34,17.01c0,0.25,0.14,0.48,0.41,0.7c0.27,0.21,0.55,0.32,0.84,0.32l-0.14,0.67H422.69z
				 M419.22,541.6h1.66l-0.23-3.26L419.22,541.6z"/>
			<path class="st11" d="M428.96,531.29c-0.04-0.35-0.17-0.63-0.39-0.83c-0.22-0.2-0.47-0.31-0.74-0.31l0.14-0.67h8.13
				c0.25,0,0.49,0.13,0.73,0.38c0.23,0.25,0.35,0.52,0.35,0.81l0.23,7.63l2.85-6.67l0.12-0.47c0-0.23-0.08-0.46-0.25-0.69
				s-0.35-0.34-0.57-0.34l0.14-0.67h5.91c0.35,0,0.64,0.13,0.86,0.39c0.22,0.26,0.34,0.54,0.34,0.83l-0.12,0.58l-8.57,18.3h-5.45
				c-0.45,0-0.82-0.1-1.11-0.29c-0.29-0.19-0.47-0.46-0.52-0.79L428.96,531.29z"/>
			<path class="st11" d="M453.81,549.58c-0.51,0-0.88-0.08-1.12-0.25c-0.24-0.17-0.38-0.45-0.42-0.86L452,545.5h-3.38l-1.19,2.39
				c-0.02,0.06-0.03,0.11-0.03,0.14c0,0.04-0.01,0.12-0.03,0.23c0,0.17,0.08,0.33,0.25,0.45c0.17,0.13,0.35,0.19,0.57,0.19
				l-0.15,0.67h-6.32c-0.82,0-1.22-0.32-1.22-0.96c0-0.18,0.05-0.36,0.14-0.55l8.57-16.6c0.06-0.12,0.09-0.26,0.09-0.44
				c0-0.21-0.09-0.41-0.28-0.6c-0.18-0.18-0.38-0.28-0.6-0.28l0.18-0.67h8.68c0.45,0,0.82,0.12,1.14,0.36
				c0.31,0.24,0.47,0.59,0.47,1.03l1.34,17.01c0,0.25,0.14,0.48,0.41,0.7c0.27,0.21,0.55,0.32,0.84,0.32l-0.14,0.67H453.81z
				 M450.34,541.6H452l-0.23-3.26L450.34,541.6z"/>
			<path class="st11" d="M481.05,549.58h-5.3c-0.58,0-1.07-0.08-1.47-0.23c-0.4-0.16-0.66-0.44-0.77-0.84l-2.97-7.2l-1.69,6.5
				l-0.06,0.5c0,0.19,0.08,0.34,0.25,0.45s0.38,0.16,0.66,0.16l-0.15,0.67h-6.55c-0.33,0-0.58-0.09-0.74-0.28
				c-0.17-0.19-0.25-0.43-0.25-0.74c0-0.12,0.02-0.27,0.06-0.47l3.96-17.04c0.04-0.21-0.04-0.42-0.23-0.61
				c-0.19-0.19-0.41-0.29-0.64-0.29l0.17-0.67h7.4c0.23,0,0.5,0.11,0.8,0.34c0.3,0.22,0.5,0.46,0.6,0.71l3.15,7.34l1.4-6.29
				c0.04-0.12,0.06-0.3,0.06-0.55c0-0.23-0.1-0.44-0.29-0.61c-0.19-0.17-0.41-0.26-0.64-0.26l0.17-0.67h6.53
				c0.31,0,0.55,0.11,0.71,0.32c0.17,0.21,0.25,0.46,0.25,0.73l-0.09,0.79L481.05,549.58z"/>
			<path class="st11" d="M511.85,529.45c1.3,0,2.31,0.34,3.01,1.02c0.71,0.68,1.06,1.54,1.06,2.56c0,0.16-0.01,0.33-0.04,0.52
				c-0.03,0.19-0.05,0.34-0.07,0.44c-0.45,2.14-1.36,3.43-2.74,3.87c0.56,0.35,0.98,0.73,1.24,1.15c0.26,0.42,0.39,1.03,0.39,1.85
				c0,0.74-0.14,1.77-0.44,3.09c-0.51,2.2-1.28,3.7-2.33,4.51c-0.95,0.74-2.42,1.11-4.4,1.11h-11.57c-0.33,0-0.58-0.09-0.74-0.28
				c-0.17-0.19-0.25-0.43-0.25-0.74c0-0.12,0.02-0.27,0.06-0.47l3.96-17.04c0.04-0.21-0.04-0.42-0.23-0.61
				c-0.19-0.19-0.41-0.29-0.64-0.29l0.17-0.67L511.85,529.45z M505.01,545.07c0.52,0,0.89-0.12,1.09-0.36
				c0.2-0.24,0.4-0.79,0.6-1.65c0.14-0.54,0.2-0.99,0.2-1.34c0-0.66-0.36-0.99-1.08-0.99h-0.81l-0.99,4.34H505.01z M507.07,536.85
				c0.33,0,0.56-0.09,0.7-0.28c0.14-0.19,0.26-0.52,0.38-1.01c0.12-0.49,0.18-0.84,0.18-1.05c0-0.51-0.28-0.76-0.85-0.76h-0.87
				l-0.7,3.09H507.07z"/>
			<path class="st11" d="M529.51,529.48c1.71,0,3.12,0.44,4.22,1.33c1.11,0.88,1.66,2.13,1.66,3.74c0,0.58-0.07,1.15-0.2,1.69
				l-1.75,7.4c-0.5,2.2-1.38,3.76-2.62,4.69c-1.09,0.84-2.58,1.25-4.49,1.25h-5.97c-1.83,0-3.18-0.41-4.06-1.24
				c-0.88-0.83-1.33-2.05-1.33-3.66c0-0.95,0.13-1.94,0.38-2.97l1.28-5.51c0.51-2.12,1.23-3.7,2.18-4.75
				c1.22-1.32,2.94-1.98,5.16-1.98H529.51z M523.22,543.35c-0.06,0.27-0.09,0.5-0.09,0.7c0,0.49,0.27,0.73,0.82,0.73
				c0.37,0,0.65-0.08,0.83-0.25c0.18-0.17,0.33-0.46,0.42-0.89l1.92-8.19c0.04-0.23,0.06-0.39,0.06-0.47c0-0.56-0.28-0.85-0.85-0.85
				c-0.62,0-1.04,0.39-1.25,1.17L523.22,543.35z"/>
			<path class="st11" d="M545.3,540.87l0.06-0.38c0-0.18-0.12-0.26-0.35-0.26c-0.23,0-0.35-0.1-0.35-0.29l0.06-0.38l0.85-3.47H552
				c0.47,0,0.83,0.14,1.09,0.42c0.26,0.28,0.39,0.6,0.39,0.95c0,0.45-0.04,0.82-0.12,1.11l-1.54,6.85c-0.35,1.55-0.88,2.64-1.6,3.25
				c-0.72,0.61-1.92,0.92-3.61,0.92h-7.05c-1.96,0-3.37-0.38-4.22-1.14c-0.76-0.68-1.14-1.72-1.14-3.12c0-0.89,0.16-1.98,0.47-3.26
				l1.6-7.02c0.41-1.83,1.19-3.23,2.36-4.22c1.07-0.91,2.29-1.37,3.67-1.37h11.91c-0.06,0.58-0.17,1.18-0.32,1.78
				s-0.33,1.1-0.51,1.49c-0.18,0.39-0.47,0.67-0.85,0.84c-0.38,0.18-0.81,0.26-1.3,0.26h-4.92c-0.54,0-0.97,0.13-1.27,0.39
				c-0.3,0.26-0.52,0.69-0.66,1.3l-1.89,8.16c-0.04,0.27-0.06,0.45-0.06,0.52c0,0.49,0.3,0.73,0.9,0.73c0.68,0,1.1-0.36,1.25-1.08
				L545.3,540.87z"/>
			<path class="st11" d="M567.65,529.48c1.96,0,3.39,0.51,4.28,1.52c0.8,0.91,1.19,2.25,1.19,4.02c0,0.68-0.06,1.44-0.19,2.29
				c-0.13,0.85-0.31,1.73-0.54,2.67c-0.91,3.87-1.81,6.43-2.7,7.7c-0.88,1.27-2.17,1.91-3.86,1.91h-12.99
				c-0.33,0-0.58-0.09-0.74-0.28c-0.17-0.19-0.25-0.43-0.25-0.74c0-0.12,0.02-0.27,0.06-0.47l3.96-17.04
				c0.04-0.21-0.04-0.42-0.23-0.61s-0.41-0.29-0.64-0.29l0.17-0.67H567.65z M561.94,544.78c0.41,0,0.72-0.12,0.93-0.35
				c0.21-0.23,0.39-0.63,0.52-1.19l1.69-7.26c0.08-0.33,0.12-0.64,0.12-0.93c0-0.6-0.35-0.9-1.05-0.9h-0.73l-2.48,10.63H561.94z"/>
			<path class="st11" d="M594.11,540.87l0.06-0.38c0-0.18-0.12-0.26-0.35-0.26c-0.23,0-0.35-0.1-0.35-0.29l0.06-0.38l0.85-3.47h6.44
				c0.47,0,0.83,0.14,1.09,0.42c0.26,0.28,0.39,0.6,0.39,0.95c0,0.45-0.04,0.82-0.12,1.11l-1.54,6.85c-0.35,1.55-0.88,2.64-1.6,3.25
				c-0.72,0.61-1.92,0.92-3.61,0.92h-7.05c-1.96,0-3.37-0.38-4.22-1.14c-0.76-0.68-1.14-1.72-1.14-3.12c0-0.89,0.16-1.98,0.47-3.26
				l1.6-7.02c0.41-1.83,1.19-3.23,2.36-4.22c1.07-0.91,2.29-1.37,3.67-1.37h11.91c-0.06,0.58-0.17,1.18-0.32,1.78
				s-0.33,1.1-0.51,1.49c-0.18,0.39-0.47,0.67-0.85,0.84c-0.38,0.18-0.81,0.26-1.3,0.26h-4.92c-0.54,0-0.97,0.13-1.27,0.39
				c-0.3,0.26-0.52,0.69-0.66,1.3l-1.89,8.16c-0.04,0.27-0.06,0.45-0.06,0.52c0,0.49,0.3,0.73,0.9,0.73c0.68,0,1.1-0.36,1.25-1.08
				L594.11,540.87z"/>
			<path class="st11" d="M618.82,544.05c0.14,0.23,0.32,0.43,0.55,0.6c0.23,0.16,0.49,0.25,0.79,0.25H621l-0.7,3.32
				c-0.19,0.91-0.89,1.37-2.1,1.37h-3.9c-0.5,0-0.94-0.13-1.31-0.39c-0.37-0.26-0.6-0.59-0.7-0.97l-1.69-5.94l-1.25,5.68l-0.03,0.29
				c0,0.19,0.08,0.35,0.25,0.48c0.16,0.13,0.37,0.19,0.63,0.19l-0.14,0.67h-8.07c-0.33,0-0.58-0.09-0.74-0.28
				c-0.17-0.19-0.25-0.43-0.25-0.74c0-0.12,0.02-0.27,0.06-0.47l3.96-17.04c0.04-0.21-0.04-0.42-0.23-0.61
				c-0.19-0.19-0.41-0.29-0.64-0.29l0.17-0.67h13.49c3.03,0,4.54,1.41,4.54,4.22c0,0.39-0.02,0.73-0.06,1.02
				c-0.1,0.5-0.17,0.89-0.2,1.17c-0.39,1.75-0.9,3.03-1.54,3.84c-0.64,0.82-1.55,1.36-2.74,1.63L618.82,544.05z M611.74,537.61h1.14
				c0.66,0,1.12-0.55,1.37-1.66c0.04-0.21,0.08-0.42,0.12-0.63c0.04-0.2,0.06-0.37,0.06-0.51c0-0.54-0.23-0.81-0.7-0.81h-1.14
				L611.74,537.61z"/>
			<path class="st11" d="M635.8,529.48c1.71,0,3.12,0.44,4.22,1.33c1.11,0.88,1.66,2.13,1.66,3.74c0,0.58-0.07,1.15-0.2,1.69
				l-1.75,7.4c-0.5,2.2-1.38,3.76-2.62,4.69c-1.09,0.84-2.58,1.25-4.49,1.25h-5.97c-1.83,0-3.18-0.41-4.06-1.24
				c-0.88-0.83-1.33-2.05-1.33-3.66c0-0.95,0.13-1.94,0.38-2.97l1.28-5.51c0.51-2.12,1.23-3.7,2.18-4.75
				c1.22-1.32,2.94-1.98,5.16-1.98H635.8z M629.51,543.35c-0.06,0.27-0.09,0.5-0.09,0.7c0,0.49,0.27,0.73,0.82,0.73
				c0.37,0,0.65-0.08,0.83-0.25c0.18-0.17,0.33-0.46,0.42-0.89l1.92-8.19c0.04-0.23,0.06-0.39,0.06-0.47c0-0.56-0.28-0.85-0.85-0.85
				c-0.62,0-1.04,0.39-1.25,1.17L629.51,543.35z"/>
			<path class="st11" d="M649.18,543.52c-0.04,0.19-0.06,0.31-0.06,0.35c0,0.43,0.33,0.64,0.99,0.64c0.37,0,0.64-0.06,0.8-0.19
				c0.17-0.13,0.29-0.39,0.39-0.8l2.89-12.47c0.04-0.19-0.04-0.39-0.23-0.6s-0.4-0.31-0.61-0.31l0.14-0.67h8.1
				c0.33,0,0.57,0.08,0.71,0.25c0.15,0.16,0.22,0.4,0.22,0.71l-0.06,0.44l-2.94,12.76c-0.5,2.21-1.33,3.78-2.48,4.69
				c-1.03,0.82-2.48,1.22-4.34,1.22h-6.67c-1.77,0-3.06-0.39-3.89-1.18c-0.82-0.79-1.24-1.95-1.24-3.48c0-0.93,0.14-2,0.44-3.2
				l2.48-10.63c0.04-0.19-0.04-0.39-0.23-0.6s-0.4-0.31-0.61-0.31l0.14-0.67h8.1c0.33,0,0.57,0.08,0.71,0.25
				c0.14,0.16,0.22,0.4,0.22,0.71l-0.06,0.44L649.18,543.52z"/>
			<path class="st11" d="M675.9,529.48c1.79,0,3.14,0.36,4.05,1.08c0.91,0.72,1.37,1.85,1.37,3.41c0,0.43-0.02,0.81-0.06,1.17
				c-0.04,0.35-0.13,0.79-0.26,1.31c-0.62,2.68-1.32,4.45-2.1,5.32c-0.78,0.86-2.05,1.3-3.82,1.3h-6l-1.08,4.57l-0.09,0.55
				c0,0.21,0.09,0.39,0.26,0.52c0.18,0.14,0.38,0.2,0.61,0.2l-0.17,0.67h-8.04c-0.33,0-0.58-0.09-0.74-0.28
				c-0.17-0.19-0.25-0.43-0.25-0.74c0-0.12,0.02-0.27,0.06-0.47l3.96-17.04c0.04-0.21-0.04-0.42-0.23-0.61s-0.41-0.29-0.64-0.29
				l0.17-0.67H675.9z M670.19,538.39h0.9c0.49,0,0.84-0.15,1.08-0.45c0.23-0.3,0.45-0.88,0.64-1.73c0.12-0.5,0.18-0.9,0.18-1.19
				c0-0.39-0.08-0.66-0.25-0.8c-0.16-0.14-0.41-0.22-0.74-0.22h-0.79L670.19,538.39z"/>
		</g>
	</g>
	<g>
		<g>
			<path class="st138" d="M216.9,715.57l13.61-15.05l-8.07-14.72h4.2l3.68,6.75c1.32,2.41,2.24,4.24,2.78,5.48
				c0.93-1.31,2.42-3.09,4.45-5.34l6.26-6.88h4.98L235,701.18l7.8,14.4l-4.13-0.01l-4.62-8.72c-0.44-0.85-0.96-1.94-1.57-3.28
				c-0.65,0.91-1.51,1.95-2.57,3.15l-7.95,8.85H216.9L216.9,715.57z M259.9,712.89c-2.26,2.11-4.62,3.17-7.11,3.17
				c-1.85,0-3.38-0.57-4.58-1.71c-1.2-1.14-1.8-2.64-1.8-4.51c0-2.23,0.78-3.94,2.34-5.14c1.61-1.24,3.95-1.87,7.04-1.87l1.86-0.08
				c0.88,0,1.67-0.06,2.36-0.19c0.7-0.12,1.27-0.3,1.72-0.51c0.27-1.01,0.41-1.87,0.41-2.6c0-0.85-0.38-1.55-1.14-2.1
				c-0.76-0.55-1.86-0.82-3.32-0.82c-2.91,0-4.8,1.31-5.7,3.94l-3.56-0.33c1.47-4.42,4.61-6.62,9.41-6.62
				c2.31,0,4.18,0.51,5.62,1.55c1.44,1.03,2.16,2.38,2.16,4.06c0,1.15-0.16,2.48-0.48,4l-1.15,5.36c-0.19,0.92-0.32,1.71-0.41,2.34
				c-0.09,0.64-0.14,1.23-0.14,1.77c0,0.96,0.15,1.96,0.43,2.99h-3.56c-0.12-0.38-0.21-0.8-0.29-1.26
				C259.94,713.85,259.9,713.38,259.9,712.89L259.9,712.89z M261.2,704.65c-0.84,0.32-1.97,0.55-3.4,0.71l-2.02,0.2
				c-1.14,0-2.14,0.15-2.99,0.43c-0.76,0.24-1.34,0.58-1.75,1.01c-0.75,0.75-1.13,1.64-1.13,2.68c0,1.02,0.34,1.86,1.04,2.53
				c0.69,0.67,1.63,1.01,2.83,1.01c1.69,0,3.22-0.62,4.6-1.85C259.75,710.14,260.7,707.9,261.2,704.65L261.2,704.65z M272.46,694.01
				h5.23l1.94,17.21l9.59-17.21h5.13l-4.41,21.57h-3.48l3.6-17.39l-9.68,17.39h-3.12l-2.04-18.05l-3.69,18.05h-3.48L272.46,694.01
				L272.46,694.01z M295.32,715.57l4.31-21.57h3.52l-0.72,3.55c2.19-2.7,4.46-4.04,6.81-4.04c1.36,0,2.46,0.34,3.3,1.02
				c0.8,0.63,1.36,1.64,1.67,3.02c1.02-1.32,2.12-2.33,3.3-3.02c1.18-0.69,2.4-1.03,3.68-1.03c1.7,0,2.98,0.41,3.86,1.23
				c0.88,0.82,1.31,2.05,1.31,3.67c0,0.71-0.15,1.8-0.45,3.27l-2.79,13.89h-3.51l2.84-14.26c0.12-0.6,0.21-1.1,0.27-1.5
				c0.07-0.41,0.1-0.74,0.1-1c0-0.76-0.21-1.32-0.61-1.7c-0.41-0.38-1.02-0.57-1.84-0.57c-1.19,0-2.36,0.4-3.5,1.21
				c-1.14,0.81-1.98,1.77-2.51,2.88c-0.46,1.05-0.9,2.55-1.32,4.49l-2.11,10.46h-3.51l2.92-14.57c0.21-1.04,0.31-1.75,0.31-2.11
				c0-0.74-0.23-1.31-0.66-1.73c-0.44-0.42-0.98-0.63-1.61-0.63c-0.6,0-1.19,0.1-1.76,0.31c-0.58,0.2-1.17,0.52-1.77,0.96
				c-1.15,0.82-2.02,1.85-2.6,3.08c-0.53,1.15-1,2.65-1.38,4.48l-2.04,10.2H295.32L295.32,715.57z M353.28,694.01h3.56l-4.46,21.57
				h-3.54L353.28,694.01L353.28,694.01z M332.93,694.01h3.52l-1.76,8.34h3.76c2.38,0,4.08,0.18,5.1,0.55c1.02,0.37,1.82,1.03,2.42,2
				c0.6,0.97,0.9,2.04,0.9,3.24c0,0.72-0.1,1.41-0.29,2.09c-0.19,0.68-0.5,1.36-0.92,2.03c-0.78,1.3-1.75,2.18-2.92,2.63
				c-1.17,0.45-2.99,0.68-5.45,0.68h-8.78L332.93,694.01L332.93,694.01z M332.56,712.65h4.49c1.73,0,2.97-0.12,3.7-0.37
				c0.73-0.24,1.35-0.69,1.84-1.34c0.49-0.65,0.74-1.43,0.74-2.34c0-0.83-0.22-1.52-0.65-2.09c-0.44-0.56-0.94-0.9-1.51-1.03
				c-0.26-0.05-0.66-0.1-1.2-0.14c-0.54-0.04-1.17-0.06-1.9-0.06h-4L332.56,712.65L332.56,712.65z M362.18,694.01h3.48L363.8,703
				h9.59l1.82-8.99h3.44l-4.35,21.57h-3.5l2-9.65h-9.55l-2,9.65h-3.48L362.18,694.01L362.18,694.01z M389.38,715.57l8.98-10.95
				l-5.16-10.62h3.89l1.75,3.83c0.75,1.71,1.33,3.08,1.75,4.12l5.95-7.96h4.29l-8.67,10.9l5.21,10.66l-3.89,0.01l-2.06-4.4
				c-0.26-0.57-0.5-1.1-0.72-1.6c-0.16-0.37-0.42-0.99-0.78-1.87l-6.14,7.86H389.38L389.38,715.57z M415.9,715.57l-3.4-21.57h3.4
				l1.79,11.88c0.19,1.19,0.43,3.31,0.72,6.36c0.67-1.56,1.53-3.31,2.57-5.27l6.91-12.97h3.72l-11.82,21.57l-2.45,8.53l-3.56,0.09
				L415.9,715.57L415.9,715.57z M433.76,694.01h3.46l-0.74,3.61c-0.47,2.27-0.7,3.88-0.7,4.81c0,0.94,0.35,1.64,1.03,2.13
				c0.69,0.49,1.72,0.73,3.09,0.73c1.66,0,3.2-0.31,4.62-0.91l2.12-10.38h3.5l-4.39,21.57h-3.52l1.69-8.26
				c-1.75,0.6-3.38,0.91-4.9,0.91c-2.08,0-3.74-0.46-4.94-1.4c-1.21-0.94-1.82-2.26-1.82-3.98c0-0.72,0.31-2.72,0.94-5.99
				L433.76,694.01L433.76,694.01z M462.57,706.64l0.74-3.67h10.73l-0.72,3.67H462.57L462.57,706.64z M484.45,715.57l16.15-29.78
				h4.49l4.7,29.78h-3.7l-1.37-8.57h-11.52l-4.57,8.58L484.45,715.57L484.45,715.57z M494.82,703.94h9.43l-1.1-7.48
				c-0.25-1.8-0.44-3.18-0.56-4.14c-0.16-1.32-0.23-2.41-0.23-3.27c-0.66,1.75-1.61,3.77-2.84,6.07L494.82,703.94L494.82,703.94z
				 M517.52,694.01h5.23l1.94,17.21l9.59-17.21h5.13l-4.41,21.57h-3.48l3.6-17.39l-9.68,17.39h-3.12l-2.04-18.05l-3.69,18.05h-3.48
				L517.52,694.01L517.52,694.01z M554.1,694.01h3.42l-1.92,9.21l0.27,0.03c0.74,0,1.45-0.33,2.12-0.99
				c0.66-0.66,1.52-1.88,2.56-3.67c1.13-1.93,2.15-3.18,3.07-3.74c0.92-0.56,1.87-0.85,2.86-0.85c0.68,0,1.41,0.12,2.18,0.37
				l-0.8,2.19c-0.47-0.19-0.86-0.29-1.17-0.29c-0.58,0-1.09,0.21-1.54,0.63c-0.44,0.42-1,1.29-1.69,2.59
				c-1.43,2.68-3.03,4.33-4.81,4.96c0.62,0.23,1.21,0.6,1.76,1.12c0.56,0.51,1.13,1.55,1.72,3.11l2.59,6.88h-3.62l-2.04-5.48
				c-0.62-1.71-1.19-2.86-1.71-3.46c-0.52-0.6-1.25-0.99-2.2-1.15l-2.1,10.09h-3.46l2.08-10.09c-0.36,0-0.7,0.06-1.01,0.16
				c-0.31,0.11-0.64,0.28-1,0.51c-0.63,0.42-1.68,1.63-3.14,3.63l-4.27,5.78l-4.27,0.01l5.46-7.19c1.59-2.1,3.3-3.4,5.13-3.92
				c-0.79-0.52-1.37-1.14-1.74-1.85c-0.38-0.72-0.74-2.04-1.09-3.96c-0.16-0.94-0.35-1.57-0.58-1.89c-0.23-0.33-0.56-0.49-1-0.49
				c-0.33,0-0.82,0.1-1.49,0.29l0.23-2.34c0.29-0.07,0.58-0.12,0.9-0.16c0.31-0.04,0.62-0.06,0.92-0.06c1.23,0,2.1,0.36,2.63,1.08
				c0.53,0.66,0.99,1.91,1.37,3.73c0.39,1.82,0.8,3.02,1.24,3.58c0.45,0.56,1.16,0.84,2.14,0.84L554.1,694.01L554.1,694.01z
				 M581.89,711.67c-2.47,2.93-4.98,4.39-7.52,4.39c-1.55,0-2.84-0.46-3.87-1.37c-1.02-0.92-1.53-2.08-1.53-3.5
				c0-0.98,0.22-2.55,0.66-4.74l2.49-12.44h3.52l-2.76,13.79c-0.23,1.14-0.35,2.05-0.35,2.72c0,0.83,0.23,1.46,0.7,1.91
				c0.48,0.42,1.17,0.63,2.08,0.63c1.35,0,2.63-0.45,3.84-1.36c1.21-0.91,2.1-1.99,2.67-3.25c0.53-1.2,1.03-2.9,1.48-5.12l1.86-9.32
				h3.52l-4.31,21.57h-3.24L581.89,711.67L581.89,711.67z M595.82,694.01h15.55l-4.39,21.57h-3.5l3.85-18.5h-8.67L596,709.93
				c-0.45,2.2-1.06,3.74-1.82,4.62c-0.76,0.87-1.82,1.31-3.17,1.31c-0.41,0-0.86-0.02-1.35-0.06c-0.49-0.04-1.07-0.11-1.75-0.22
				l0.64-3.04l1.48,0.06c0.89,0,1.47-0.22,1.74-0.67c0.27-0.44,0.67-1.88,1.21-4.3L595.82,694.01L595.82,694.01z M612.36,715.57
				l4.31-21.57h3.52l-0.72,3.55c2.19-2.7,4.46-4.04,6.81-4.04c1.36,0,2.46,0.34,3.3,1.02c0.8,0.63,1.36,1.64,1.67,3.02
				c1.02-1.32,2.12-2.33,3.3-3.02c1.18-0.69,2.4-1.03,3.68-1.03c1.7,0,2.98,0.41,3.86,1.23c0.88,0.82,1.31,2.05,1.31,3.67
				c0,0.71-0.15,1.8-0.45,3.27l-2.79,13.89h-3.51l2.84-14.26c0.12-0.6,0.21-1.1,0.27-1.5c0.07-0.41,0.1-0.74,0.1-1
				c0-0.76-0.21-1.32-0.61-1.7c-0.41-0.38-1.02-0.57-1.84-0.57c-1.19,0-2.36,0.4-3.5,1.21c-1.14,0.81-1.98,1.77-2.51,2.88
				c-0.46,1.05-0.9,2.55-1.32,4.49l-2.11,10.46h-3.51l2.92-14.57c0.21-1.04,0.31-1.75,0.31-2.11c0-0.74-0.23-1.31-0.66-1.73
				c-0.44-0.42-0.98-0.63-1.61-0.63c-0.6,0-1.19,0.1-1.76,0.31c-0.58,0.2-1.17,0.52-1.76,0.96c-1.15,0.82-2.02,1.85-2.6,3.08
				c-0.53,1.15-1,2.65-1.38,4.48l-2.04,10.2H612.36L612.36,715.57z M670.32,694.01h3.56l-4.46,21.57h-3.54L670.32,694.01
				L670.32,694.01z M649.97,694.01h3.52l-1.77,8.34h3.76c2.38,0,4.08,0.18,5.1,0.55c1.02,0.37,1.82,1.03,2.41,2
				c0.6,0.97,0.9,2.04,0.9,3.24c0,0.72-0.1,1.41-0.29,2.09c-0.19,0.68-0.5,1.36-0.92,2.03c-0.78,1.3-1.75,2.18-2.93,2.63
				c-1.17,0.45-2.99,0.68-5.45,0.68h-8.78L649.97,694.01L649.97,694.01z M649.6,712.65h4.49c1.73,0,2.97-0.12,3.69-0.37
				c0.73-0.24,1.35-0.69,1.84-1.34c0.49-0.65,0.74-1.43,0.74-2.34c0-0.83-0.22-1.52-0.65-2.09c-0.44-0.56-0.94-0.9-1.51-1.03
				c-0.26-0.05-0.66-0.1-1.2-0.14c-0.54-0.04-1.17-0.06-1.9-0.06h-4L649.6,712.65L649.6,712.65z M679.23,694.01h3.48l-1.86,8.99
				h9.59l1.82-8.99h3.44l-4.35,21.57h-3.5l2-9.65h-9.55l-2,9.65h-3.48L679.23,694.01L679.23,694.01z M707.78,715.57l4.31-21.57h3.52
				l-0.72,3.55c2.19-2.7,4.46-4.04,6.81-4.04c1.36,0,2.46,0.34,3.3,1.02c0.8,0.63,1.36,1.64,1.67,3.02c1.02-1.32,2.12-2.33,3.3-3.02
				c1.18-0.69,2.4-1.03,3.68-1.03c1.7,0,2.98,0.41,3.86,1.23c0.88,0.82,1.31,2.05,1.31,3.67c0,0.71-0.15,1.8-0.45,3.27l-2.79,13.89
				h-3.51l2.84-14.26c0.12-0.6,0.21-1.1,0.27-1.5c0.07-0.41,0.1-0.74,0.1-1c0-0.76-0.21-1.32-0.61-1.7
				c-0.41-0.38-1.02-0.57-1.84-0.57c-1.19,0-2.36,0.4-3.5,1.21c-1.14,0.81-1.98,1.77-2.51,2.88c-0.46,1.05-0.9,2.55-1.32,4.49
				l-2.11,10.46h-3.51l2.92-14.57c0.21-1.04,0.31-1.75,0.31-2.11c0-0.74-0.23-1.31-0.66-1.73c-0.44-0.42-0.98-0.63-1.61-0.63
				c-0.6,0-1.19,0.1-1.76,0.31c-0.58,0.2-1.17,0.52-1.76,0.96c-1.15,0.82-2.02,1.85-2.6,3.08c-0.53,1.15-1,2.65-1.38,4.48
				l-2.04,10.2H707.78L707.78,715.57z M746.19,715.57l-3.4-21.57h3.4l1.79,11.88c0.19,1.19,0.42,3.31,0.72,6.36
				c0.67-1.56,1.53-3.31,2.57-5.27l6.91-12.97h3.72l-11.82,21.57l-2.45,8.53l-3.56,0.09L746.19,715.57L746.19,715.57z
				 M766.77,694.01h15.55l-4.39,21.57h-3.5l3.85-18.5h-8.67l-2.66,12.86c-0.45,2.2-1.06,3.74-1.82,4.62
				c-0.76,0.87-1.82,1.31-3.17,1.31c-0.41,0-0.86-0.02-1.35-0.06c-0.49-0.04-1.07-0.11-1.75-0.22l0.64-3.04l1.48,0.06
				c0.89,0,1.47-0.22,1.74-0.67c0.27-0.44,0.67-1.88,1.21-4.3L766.77,694.01L766.77,694.01z M781.94,715.57l8.98-10.95l-5.16-10.62
				h3.89l1.75,3.83c0.75,1.71,1.33,3.08,1.75,4.12l5.95-7.96h4.29l-8.67,10.9l5.21,10.66l-3.89,0.01l-2.06-4.4
				c-0.26-0.57-0.5-1.1-0.72-1.6c-0.16-0.37-0.42-0.99-0.78-1.87l-6.14,7.86H781.94L781.94,715.57z M808.46,715.57l-3.4-21.57h3.4
				l1.79,11.88c0.19,1.19,0.43,3.31,0.72,6.36c0.67-1.56,1.53-3.31,2.58-5.27l6.91-12.97h3.72l-11.82,21.57l-2.45,8.53l-3.56,0.09
				L808.46,715.57L808.46,715.57z M828.36,715.57l-3.4-21.57h3.4l1.79,11.88c0.19,1.19,0.43,3.31,0.72,6.36
				c0.67-1.56,1.53-3.31,2.57-5.27l6.91-12.97h3.72l-11.82,21.57l-2.45,8.53l-3.56,0.09L828.36,715.57L828.36,715.57z
				 M841.39,723.84l5.96-29.83h3.25l-0.6,3c2.07-2.33,4.17-3.49,6.28-3.49c1.94,0,3.56,0.76,4.87,2.27c1.3,1.5,1.95,3.65,1.95,6.43
				c0,3.79-1.01,7.05-3.05,9.77c-2.04,2.72-4.39,4.08-7.07,4.08c-2.46,0-4.37-1.31-5.74-3.94l-2.32,11.72H841.39L841.39,723.84z
				 M848.31,707.48c0,1.86,0.44,3.25,1.32,4.17c0.88,0.93,1.96,1.39,3.22,1.39c2.04,0,3.67-1.21,4.9-3.63
				c1.23-2.43,1.84-4.87,1.84-7.33c0-1.46-0.37-2.76-1.11-3.9c-0.74-1.14-1.82-1.71-3.24-1.71c-1.98,0-3.64,1.16-4.96,3.5
				C848.97,702.32,848.31,704.82,848.31,707.48L848.31,707.48z"/>
		</g>
		<g>
			<g>
				
					<linearGradient id="SVGID_00000057853527517284814720000007429814374376950183_" gradientUnits="userSpaceOnUse" x1="80.2295" y1="596.9497" x2="80.2295" y2="653.7191">
					<stop  offset="0" style="stop-color:#3E76BB"/>
					<stop  offset="0.9672" style="stop-color:#06509E"/>
				</linearGradient>
				<path style="fill:url(#SVGID_00000057853527517284814720000007429814374376950183_);" d="M81.35,633.2h12.39
					c4.13,0,7.38,1.13,9.75,3.38c2.37,2.25,3.55,5.5,3.55,9.73c0,2.25-0.33,4.73-0.99,7.42c-0.66,2.69-1.46,5.19-2.4,7.5
					c-1.54,3.85-3.59,6.43-6.16,7.75c-2.56,1.32-6.29,1.98-11.2,1.98H52.84c-0.94,0-1.64-0.26-2.11-0.78s-0.7-1.22-0.7-2.1
					c0-0.33,0.05-0.77,0.16-1.32l11.24-48.26c0.11-0.61-0.11-1.19-0.66-1.74c-0.55-0.55-1.16-0.82-1.82-0.82l0.5-1.9h50.98
					l-2.31,9.09c-0.28,1.1-1.05,2-2.31,2.69c-1.27,0.69-2.53,1.03-3.8,1.03H82.83L81.35,633.2z M78.62,645.1l-2.89,12.64h2.73
					c1.32,0,2.27-0.41,2.85-1.24c0.58-0.83,1.2-2.53,1.86-5.12c0.33-1.43,0.5-2.62,0.5-3.55c0-1.82-0.85-2.73-2.56-2.73H78.62z"/>
				
					<linearGradient id="SVGID_00000125579879700005262680000011768597196474235543_" gradientUnits="userSpaceOnUse" x1="141.3744" y1="596.9497" x2="141.3744" y2="653.7191">
					<stop  offset="0" style="stop-color:#3E76BB"/>
					<stop  offset="0.9672" style="stop-color:#06509E"/>
				</linearGradient>
				<path style="fill:url(#SVGID_00000125579879700005262680000011768597196474235543_);" d="M144.8,645.92l-11.49,17.52
					c-0.66,0.88-1.07,1.46-1.24,1.74c-0.33,0.55-0.5,1.1-0.5,1.65c0,0.61,0.27,1.13,0.83,1.57c0.55,0.44,1.13,0.66,1.74,0.66
					l-0.41,1.9h-23.05c-1.82,0-2.73-0.88-2.73-2.64c0-0.28,0.05-0.74,0.17-1.4l11.32-48.43c0.11-0.55-0.14-1.11-0.74-1.69
					c-0.61-0.58-1.21-0.86-1.82-0.86l0.58-1.9h22.97c1.76,0,2.64,0.88,2.64,2.63c0,0.22,0,0.66,0,1.32l-5.12,21.25l10.82-16.3
					c0.5-0.71,0.96-1.4,1.4-2.06c0.44-0.66,0.77-1.45,0.99-2.39c0.11-0.55-0.11-1.11-0.66-1.69c-0.55-0.58-1.13-0.86-1.74-0.86
					l0.41-1.9h22.97c0.94,0,1.61,0.23,2.02,0.7c0.41,0.47,0.62,1.14,0.62,2.02l-0.16,1.24L163.4,666.5
					c-0.11,0.55,0.14,1.11,0.74,1.69c0.6,0.58,1.21,0.86,1.82,0.86l-0.58,1.9h-22.97c-1.76,0-2.64-0.88-2.64-2.64
					c0-0.22,0-0.66,0-1.32L144.8,645.92z"/>
				
					<linearGradient id="SVGID_00000168819879531587017830000000265372005621456308_" gradientUnits="userSpaceOnUse" x1="195.0422" y1="596.9497" x2="195.0422" y2="653.7191">
					<stop  offset="0" style="stop-color:#3E76BB"/>
					<stop  offset="0.9672" style="stop-color:#06509E"/>
				</linearGradient>
				<path style="fill:url(#SVGID_00000168819879531587017830000000265372005621456308_);" d="M212.89,617.33l5.95,48.76
					c0.11,0.88,0.47,1.6,1.07,2.15c0.61,0.55,1.29,0.82,2.07,0.82l-0.41,1.9H198.6c-0.72,0-1.4-0.33-2.07-0.99
					c-0.66-0.66-0.99-1.38-0.99-2.15l-1.16-19.17l-7.68,16.85c-0.17,0.39-0.25,0.83-0.25,1.32c0,0.61,0.25,1.13,0.74,1.57
					c0.49,0.44,1.05,0.66,1.65,0.66l-0.41,1.9h-17.19c-1.05,0-1.83-0.28-2.35-0.82c-0.52-0.55-0.78-1.27-0.78-2.15
					c0-0.66,0.06-1.11,0.17-1.36c0.11-0.25,0.19-0.43,0.25-0.54l21.65-46.29c0.27-0.66,0.41-1.18,0.41-1.57
					c0-0.6-0.26-1.14-0.78-1.61c-0.52-0.47-1.09-0.7-1.69-0.7l0.41-1.9h19.67c1.27,0,2.34,0.3,3.22,0.91
					C212.28,615.54,212.78,616.34,212.89,617.33z"/>
				
					<linearGradient id="SVGID_00000011741628439370935580000000983836310875400353_" gradientUnits="userSpaceOnUse" x1="248.4197" y1="596.9497" x2="248.4197" y2="653.7191">
					<stop  offset="0" style="stop-color:#3E76BB"/>
					<stop  offset="0.9672" style="stop-color:#06509E"/>
				</linearGradient>
				<path style="fill:url(#SVGID_00000011741628439370935580000000983836310875400353_);" d="M267.42,617.33l4.63,37.86
					c0.28,1.7,1.05,2.55,2.31,2.55h2.07l-2.15,9.42c-0.39,1.6-1.16,2.67-2.31,3.22c-0.88,0.38-2.34,0.58-4.38,0.58H223.8
					c-2.26,0-3.39-0.91-3.39-2.73l0.17-1.32l2.07-9.17h2.23c0.77,0,1.45-0.23,2.02-0.7c0.58-0.47,1.01-1.03,1.28-1.69l16.69-35.63
					l0.17-1.49c0-0.66-0.22-1.21-0.66-1.65c-0.44-0.44-0.99-0.66-1.65-0.66l0.41-1.9h20c1.16,0,2.13,0.32,2.93,0.95
					C266.86,615.61,267.31,616.39,267.42,617.33z M250.32,657.74l-0.66-10.41l-4.05,10.41H250.32z"/>
				
					<linearGradient id="SVGID_00000150807573862374844200000015596809602445019522_" gradientUnits="userSpaceOnUse" x1="311.5887" y1="596.9497" x2="311.5887" y2="653.7191">
					<stop  offset="0" style="stop-color:#3E76BB"/>
					<stop  offset="0.9672" style="stop-color:#06509E"/>
				</linearGradient>
				<path style="fill:url(#SVGID_00000150807573862374844200000015596809602445019522_);" d="M315.02,645.92l-11.49,17.52
					c-0.66,0.88-1.07,1.46-1.24,1.74c-0.33,0.55-0.5,1.1-0.5,1.65c0,0.61,0.27,1.13,0.83,1.57c0.55,0.44,1.13,0.66,1.74,0.66
					l-0.41,1.9h-23.05c-1.82,0-2.73-0.88-2.73-2.64c0-0.28,0.05-0.74,0.17-1.4l11.32-48.43c0.11-0.55-0.14-1.11-0.74-1.69
					c-0.61-0.58-1.21-0.86-1.82-0.86l0.58-1.9h22.97c1.76,0,2.64,0.88,2.64,2.63c0,0.22,0,0.66,0,1.32l-5.12,21.25l10.82-16.3
					c0.5-0.71,0.96-1.4,1.4-2.06c0.44-0.66,0.77-1.45,0.99-2.39c0.11-0.55-0.11-1.11-0.66-1.69c-0.55-0.58-1.13-0.86-1.74-0.86
					l0.41-1.9h22.97c0.94,0,1.61,0.23,2.02,0.7c0.41,0.47,0.62,1.14,0.62,2.02l-0.16,1.24l-11.24,48.51
					c-0.11,0.55,0.14,1.11,0.74,1.69c0.6,0.58,1.21,0.86,1.82,0.86l-0.58,1.9h-22.97c-1.76,0-2.64-0.88-2.64-2.64
					c0-0.22,0-0.66,0-1.32L315.02,645.92z"/>
				
					<linearGradient id="SVGID_00000086667768274097843240000008678680580740985020_" gradientUnits="userSpaceOnUse" x1="372.7753" y1="596.9497" x2="372.7753" y2="653.7191">
					<stop  offset="0" style="stop-color:#3E76BB"/>
					<stop  offset="0.9672" style="stop-color:#06509E"/>
				</linearGradient>
				<path style="fill:url(#SVGID_00000086667768274097843240000008678680580740985020_);" d="M374.92,645.84h-5.87l-4.71,20.33
					l-0.08,0.66c0,0.61,0.27,1.13,0.83,1.57c0.55,0.44,1.13,0.66,1.74,0.66l-0.41,1.9h-23.05c-1.82,0-2.73-0.88-2.73-2.64
					c0-0.28,0.05-0.74,0.16-1.4l11.32-48.43c0.11-0.55-0.14-1.11-0.74-1.69c-0.61-0.58-1.21-0.86-1.82-0.86l0.58-1.9h22.97
					c1.76,0,2.64,0.88,2.64,2.63c0,0.22,0,0.66,0,1.32l-4.13,16.87h5.87l3.8-16.37c0.11-0.55-0.11-1.11-0.66-1.69
					c-0.55-0.58-1.13-0.86-1.73-0.86l0.41-1.9h22.97c0.94,0,1.61,0.23,2.02,0.7c0.41,0.47,0.62,1.14,0.62,2.02l-0.17,1.24
					l-11.24,48.51c-0.11,0.55,0.14,1.11,0.74,1.69c0.6,0.58,1.21,0.86,1.82,0.86l-0.58,1.9h-22.97c-1.76,0-2.64-0.88-2.64-2.64
					c0-0.22,0-0.66,0-1.32L374.92,645.84z"/>
				
					<linearGradient id="SVGID_00000003826964658067531420000013352953205701662375_" gradientUnits="userSpaceOnUse" x1="427.3931" y1="596.9497" x2="427.3931" y2="653.7191">
					<stop  offset="0" style="stop-color:#3E76BB"/>
					<stop  offset="0.9672" style="stop-color:#06509E"/>
				</linearGradient>
				<path style="fill:url(#SVGID_00000003826964658067531420000013352953205701662375_);" d="M434.33,627.25l-8.59,37.44
					c-0.17,0.6-0.25,1.21-0.25,1.81c0,0.66,0.32,1.25,0.95,1.77c0.63,0.52,1.28,0.78,1.94,0.78l-0.41,1.9H404.5
					c-0.94,0-1.64-0.26-2.11-0.78c-0.47-0.52-0.7-1.22-0.7-2.1c0-0.33,0.06-0.77,0.17-1.32l11.24-48.26
					c0.11-0.61-0.11-1.19-0.66-1.74c-0.55-0.55-1.16-0.82-1.82-0.82l0.5-1.9h41.98l-2.15,9.25c-0.28,1.21-0.9,2.18-1.86,2.89
					c-0.96,0.72-2.08,1.07-3.35,1.07H434.33z"/>
				
					<linearGradient id="SVGID_00000090989432427989064100000004471013299261081237_" gradientUnits="userSpaceOnUse" x1="501.8399" y1="596.9497" x2="501.8399" y2="653.7191">
					<stop  offset="0" style="stop-color:#3E76BB"/>
					<stop  offset="0.9672" style="stop-color:#06509E"/>
				</linearGradient>
				<path style="fill:url(#SVGID_00000090989432427989064100000004471013299261081237_);" d="M504.32,657.33h10.66
					c0.83,0,1.69-0.2,2.6-0.62c0.91-0.41,1.45-0.92,1.61-1.53h1.9l-2.4,10.41c-0.39,1.82-1.13,3.11-2.23,3.88
					c-1.38,0.99-3.5,1.49-6.36,1.49h-18.59c-5.56,0-9.56-1.07-11.98-3.22c-2.15-1.93-3.22-4.84-3.22-8.75
					c0-2.53,0.44-5.61,1.32-9.24l4.54-19.89c1.16-5.17,3.39-9.16,6.69-11.96c3.03-2.58,6.5-3.88,10.41-3.88h28.09
					c-0.17,0.99-0.44,2.38-0.83,4.17c-0.39,1.79-0.72,3.18-0.99,4.17c-0.44,1.71-0.99,2.89-1.65,3.55c-0.88,0.88-2.31,1.32-4.3,1.32
					h-8.51c-1.98,0-3.42,0.47-4.3,1.4c-0.88,0.93-1.52,2.33-1.9,4.2l-4.54,19.53c-0.16,0.6-0.25,1.15-0.25,1.65
					C500.1,656.23,501.51,657.33,504.32,657.33z"/>
				
					<linearGradient id="SVGID_00000150084730187562766130000011225144740728692397_" gradientUnits="userSpaceOnUse" x1="549.598" y1="596.9497" x2="549.598" y2="653.7191">
					<stop  offset="0" style="stop-color:#3E76BB"/>
					<stop  offset="0.9672" style="stop-color:#06509E"/>
				</linearGradient>
				<path style="fill:url(#SVGID_00000150084730187562766130000011225144740728692397_);" d="M578.93,670.96h-21.32
					c-1.43,0-2.49-0.23-3.18-0.7c-0.69-0.47-1.09-1.28-1.2-2.44l-0.74-8.43h-9.58l-3.39,6.78c-0.06,0.16-0.08,0.3-0.08,0.41
					c0,0.11-0.03,0.33-0.08,0.66c0,0.5,0.23,0.92,0.7,1.28c0.47,0.36,1,0.54,1.61,0.54l-0.41,1.9h-17.93
					c-2.31,0-3.47-0.91-3.47-2.72c0-0.49,0.14-1.02,0.41-1.57l24.29-47.03c0.16-0.33,0.25-0.74,0.25-1.24c0-0.6-0.26-1.17-0.78-1.69
					c-0.52-0.52-1.09-0.78-1.69-0.78l0.5-1.9h24.62c1.27,0,2.34,0.34,3.22,1.03c0.88,0.69,1.32,1.66,1.32,2.93l3.8,48.18
					c0,0.72,0.38,1.38,1.16,1.98c0.77,0.6,1.57,0.91,2.39,0.91L578.93,670.96z M551.83,639.07l-4.05,9.25h4.71L551.83,639.07z"/>
				
					<linearGradient id="SVGID_00000095312014896331263610000013955901883565570719_" gradientUnits="userSpaceOnUse" x1="611.7764" y1="596.9497" x2="611.7764" y2="653.7191">
					<stop  offset="0" style="stop-color:#3E76BB"/>
					<stop  offset="0.9672" style="stop-color:#06509E"/>
				</linearGradient>
				<path style="fill:url(#SVGID_00000095312014896331263610000013955901883565570719_);" d="M618.43,626.84h-5.87l-9.01,38.59
					l-0.25,1.57c0,0.6,0.25,1.1,0.74,1.49c0.5,0.38,1.07,0.58,1.74,0.58l-0.5,1.9h-22.81c-0.94,0-1.64-0.26-2.11-0.78
					c-0.47-0.52-0.7-1.22-0.7-2.1c0-0.33,0.05-0.77,0.16-1.32l11.24-48.26c0.11-0.61-0.11-1.19-0.66-1.74
					c-0.55-0.55-1.16-0.82-1.82-0.82l0.5-1.9h51.64c2.09,0,3.14,1.07,3.14,3.22c0,0.44-0.03,0.77-0.08,0.99l-11.24,48.27
					c-0.11,0.55,0.14,1.11,0.74,1.69c0.6,0.58,1.21,0.86,1.82,0.86l-0.58,1.9h-22.39c-2.09,0-3.14-0.99-3.14-2.97
					c0-0.44,0-0.77,0-0.99L618.43,626.84z"/>
				
					<linearGradient id="SVGID_00000083090005044302248790000017463622980564522156_" gradientUnits="userSpaceOnUse" x1="664.0399" y1="596.9497" x2="664.0399" y2="653.7191">
					<stop  offset="0" style="stop-color:#3E76BB"/>
					<stop  offset="0.9672" style="stop-color:#06509E"/>
				</linearGradient>
				<path style="fill:url(#SVGID_00000083090005044302248790000017463622980564522156_);" d="M681.89,617.33l5.95,48.76
					c0.11,0.88,0.47,1.6,1.08,2.15c0.6,0.55,1.29,0.82,2.07,0.82l-0.41,1.9h-22.97c-0.72,0-1.41-0.33-2.07-0.99
					c-0.66-0.66-0.99-1.38-0.99-2.15l-1.16-19.17l-7.68,16.85c-0.17,0.39-0.25,0.83-0.25,1.32c0,0.61,0.25,1.13,0.74,1.57
					c0.5,0.44,1.05,0.66,1.65,0.66l-0.41,1.9h-17.19c-1.05,0-1.83-0.28-2.35-0.82c-0.52-0.55-0.78-1.27-0.78-2.15
					c0-0.66,0.06-1.11,0.16-1.36c0.11-0.25,0.19-0.43,0.25-0.54l21.65-46.29c0.27-0.66,0.41-1.18,0.41-1.57
					c0-0.6-0.26-1.14-0.78-1.61c-0.52-0.47-1.09-0.7-1.69-0.7l0.41-1.9h19.67c1.27,0,2.34,0.3,3.22,0.91
					C681.28,615.54,681.78,616.34,681.89,617.33z"/>
			</g>
			<g>
				
					<linearGradient id="SVGID_00000005982980004828223440000007547621009106697650_" gradientUnits="userSpaceOnUse" x1="722.8418" y1="596.9497" x2="722.8418" y2="653.7191">
					<stop  offset="0" style="stop-color:#3E76BB"/>
					<stop  offset="0.9672" style="stop-color:#06509E"/>
				</linearGradient>
				<path style="fill:url(#SVGID_00000005982980004828223440000007547621009106697650_);" d="M752.18,670.96h-21.32
					c-1.43,0-2.49-0.23-3.18-0.7c-0.69-0.47-1.09-1.28-1.2-2.44l-0.74-8.43h-9.59l-3.39,6.78c-0.06,0.16-0.08,0.3-0.08,0.41
					c0,0.11-0.03,0.33-0.08,0.66c0,0.5,0.23,0.92,0.7,1.28c0.47,0.36,1.01,0.54,1.61,0.54l-0.41,1.9h-17.93
					c-2.31,0-3.47-0.91-3.47-2.72c0-0.49,0.14-1.02,0.41-1.57l24.29-47.03c0.16-0.33,0.25-0.74,0.25-1.24c0-0.6-0.26-1.17-0.78-1.69
					c-0.52-0.52-1.09-0.78-1.69-0.78l0.5-1.9h24.62c1.27,0,2.34,0.34,3.22,1.03c0.88,0.69,1.32,1.66,1.32,2.93l3.8,48.18
					c0,0.72,0.38,1.38,1.16,1.98c0.77,0.6,1.57,0.91,2.39,0.91L752.18,670.96z M725.07,639.07l-4.05,9.25h4.71L725.07,639.07z"/>
				
					<linearGradient id="SVGID_00000142178034668111777590000008700287189501290907_" gradientUnits="userSpaceOnUse" x1="787.9942" y1="596.9497" x2="787.9942" y2="653.7191">
					<stop  offset="0" style="stop-color:#3E76BB"/>
					<stop  offset="0.9672" style="stop-color:#06509E"/>
				</linearGradient>
				<path style="fill:url(#SVGID_00000142178034668111777590000008700287189501290907_);" d="M791.42,645.92l-12.23,18.26
					c-0.66,1.05-0.99,1.93-0.99,2.64c0,0.61,0.27,1.13,0.82,1.57c0.55,0.44,1.13,0.66,1.74,0.66l-0.41,1.9H757.3
					c-1.82,0-2.73-0.88-2.73-2.64c0-0.28,0.05-0.74,0.16-1.4l11.32-48.43c0.11-0.55-0.14-1.11-0.74-1.69
					c-0.61-0.58-1.21-0.86-1.82-0.86l0.58-1.9h22.97c1.76,0,2.64,0.88,2.64,2.63c0,0.22,0,0.66,0,1.32l-5.12,21.25l12.15-18.28
					c0.5-0.77,0.85-1.59,1.07-2.47c0.11-0.55-0.11-1.11-0.66-1.69c-0.55-0.58-1.13-0.86-1.74-0.86l0.41-1.9h22.97
					c0.94,0,1.61,0.23,2.02,0.7c0.41,0.47,0.62,1.14,0.62,2.02l-0.16,1.24l-11.24,48.51c-0.11,0.55,0.14,1.11,0.74,1.69
					c0.6,0.58,1.21,0.86,1.82,0.86l-0.58,1.9h-22.97c-1.76,0-2.64-0.88-2.64-2.64c0-0.22,0-0.66,0-1.32L791.42,645.92z
					 M807.86,609.65h-23.3c-2.09,0-3.14-0.99-3.14-2.98c0-0.44,0.03-0.77,0.08-0.99l1.41-5.54h22.89c2.37,0,3.55,1.02,3.55,3.06
					c0,0.39-0.03,0.66-0.08,0.83L807.86,609.65z"/>
				
					<linearGradient id="SVGID_00000027599494788823505920000000664397856112686760_" gradientUnits="userSpaceOnUse" x1="876.614" y1="596.9497" x2="876.614" y2="653.7191">
					<stop  offset="0" style="stop-color:#3E76BB"/>
					<stop  offset="0.9672" style="stop-color:#06509E"/>
				</linearGradient>
				<path style="fill:url(#SVGID_00000027599494788823505920000000664397856112686760_);" d="M881.65,625.43l4.88-6.96l0.33-1.07
					c0-0.38-0.15-0.72-0.45-1.03c-0.3-0.3-0.73-0.45-1.28-0.45l0.41-1.9h18.34c0.88,0,1.61,0.32,2.19,0.95
					c0.58,0.63,0.87,1.33,0.87,2.1c0,0.82-0.25,1.51-0.74,2.06l-17.68,20.38l12.15,26.98c0.38,0.83,1.02,1.46,1.9,1.9
					c0.88,0.44,1.71,0.66,2.48,0.66l-0.41,1.9h-23.55c-0.77,0-1.49-0.28-2.15-0.83c-0.66-0.55-1.1-1.24-1.32-2.07l-3.64-10.58
					l-6.2,8.01c-0.28,0.33-0.41,0.86-0.41,1.57c0,0.55,0.28,1.02,0.83,1.41c0.55,0.39,1.21,0.58,1.98,0.58l-0.41,1.9H849.1
					c-0.94,0-1.64-0.23-2.11-0.7c-0.47-0.47-0.7-1.09-0.7-1.86c0-0.82,0.22-1.51,0.66-2.06l20.24-25.08l-7.68-22.85
					c-0.61-1.65-1.68-2.47-3.22-2.47l0.5-1.9h17.43c1.05,0,2.11,0.34,3.18,1.03c1.08,0.68,1.75,1.52,2.03,2.5L881.65,625.43z"/>
				
					<linearGradient id="SVGID_00000095314629570366145140000018387928152463127681_" gradientUnits="userSpaceOnUse" x1="934.204" y1="596.9497" x2="934.204" y2="653.7191">
					<stop  offset="0" style="stop-color:#3E76BB"/>
					<stop  offset="0.9672" style="stop-color:#06509E"/>
				</linearGradient>
				<path style="fill:url(#SVGID_00000095314629570366145140000018387928152463127681_);" d="M939.24,625.43l4.88-6.96l0.33-1.07
					c0-0.38-0.15-0.72-0.45-1.03c-0.3-0.3-0.73-0.45-1.28-0.45l0.41-1.9h18.34c0.88,0,1.61,0.32,2.19,0.95
					c0.58,0.63,0.87,1.33,0.87,2.1c0,0.82-0.25,1.51-0.74,2.06l-17.68,20.38l12.15,26.98c0.38,0.83,1.02,1.46,1.9,1.9
					c0.88,0.44,1.71,0.66,2.48,0.66l-0.41,1.9h-23.55c-0.77,0-1.49-0.28-2.15-0.83c-0.66-0.55-1.1-1.24-1.32-2.07l-3.64-10.58
					l-6.2,8.01c-0.28,0.33-0.41,0.86-0.41,1.57c0,0.55,0.28,1.02,0.83,1.41c0.55,0.39,1.21,0.58,1.98,0.58l-0.41,1.9h-20.66
					c-0.94,0-1.64-0.23-2.11-0.7c-0.47-0.47-0.7-1.09-0.7-1.86c0-0.82,0.22-1.51,0.66-2.06l20.24-25.08l-7.68-22.85
					c-0.61-1.65-1.68-2.47-3.22-2.47l0.5-1.9h17.43c1.05,0,2.11,0.34,3.18,1.03c1.08,0.68,1.75,1.52,2.03,2.5L939.24,625.43z"/>
				
					<linearGradient id="SVGID_00000018220717396691878240000009931584814531012005_" gradientUnits="userSpaceOnUse" x1="997.3329" y1="596.9497" x2="997.3329" y2="653.7191">
					<stop  offset="0" style="stop-color:#3E76BB"/>
					<stop  offset="0.9672" style="stop-color:#06509E"/>
				</linearGradient>
				<path style="fill:url(#SVGID_00000018220717396691878240000009931584814531012005_);" d="M1025.59,657.74l-2.23,9.59
					c-0.28,1.21-0.95,2.12-2.03,2.73c-1.07,0.61-3.07,0.91-5.99,0.91h-6.94c-1.27,0-2.45-0.44-3.55-1.32
					c-1.1-0.88-1.87-1.87-2.31-2.97l-6.69-16.53l-4.71,4.46l-2.81,12.23c0,0.61,0.27,1.13,0.82,1.57c0.55,0.44,1.13,0.66,1.74,0.66
					l-0.41,1.9h-23.05c-1.82,0-2.73-0.88-2.73-2.64c0-0.28,0.05-0.74,0.16-1.4l11.32-48.43c0.11-0.55-0.14-1.11-0.74-1.69
					c-0.61-0.58-1.21-0.86-1.82-0.86l0.58-1.9h22.97c1.76,0,2.64,0.88,2.64,2.63c0,0.22,0,0.66,0,1.31l-2.48,9.86l7.77-8.37
					c0.44-0.55,0.66-1.07,0.66-1.56c0-0.54-0.19-1.01-0.58-1.39c-0.39-0.38-0.74-0.57-1.08-0.57l0.5-1.9h22.15
					c1.05,0,1.84,0.3,2.39,0.91c0.55,0.6,0.83,1.29,0.83,2.06s-0.33,1.54-0.99,2.31l-16.77,15.83l8.35,20.45
					c0.61,1.43,1.68,2.14,3.22,2.14H1025.59z"/>
			</g>
		</g>
	</g>
</g>
</svg>
