<?xml version="1.0" encoding="utf-8"?>
<!-- Generator: Adobe Illustrator 26.5.0, SVG Export Plug-In . SVG Version: 6.00 Build 0)  -->
<svg version="1.1" id="Layer_1" xmlns="http://www.w3.org/2000/svg" xmlns:xlink="http://www.w3.org/1999/xlink" x="0px" y="0px"
	 viewBox="0 0 1080 1080" style="enable-background:new 0 0 1080 1080;" xml:space="preserve">
<style type="text/css">
	.st0{fill-rule:evenodd;clip-rule:evenodd;}
	.st1{fill:#ED1C24;}
	.st2{fill:#E1251B;}
	.st3{fill-rule:evenodd;clip-rule:evenodd;fill:#16397B;}
	.st4{fill:#EE2745;}
	
		.st5{clip-path:url(#SVGID_00000160901921259206335390000000031524925244051355_);fill:url(#SVGID_00000104680361155306996300000004887743525595580582_);}
	
		.st6{clip-path:url(#SVGID_00000130638061862083380110000017054819464752959149_);fill:url(#SVGID_00000029763152195199285170000016145570079065666470_);}
	
		.st7{clip-path:url(#SVGID_00000005238826830586749400000009004954088881141946_);fill:url(#SVGID_00000110429417248409850400000008914963562995720096_);}
	
		.st8{clip-path:url(#SVGID_00000051364130255715533170000015229667132718995095_);fill:url(#SVGID_00000090979443453734662570000008912479546789022897_);}
	.st9{fill:#424243;}
	
		.st10{clip-path:url(#SVGID_00000116203979469818906350000009841309092163779516_);fill:url(#SVGID_00000003071420119878498460000010344181896683335097_);}
	.st11{fill:#FFFFFF;}
	
		.st12{clip-path:url(#SVGID_00000025406079102744365250000011884041593077172927_);fill:url(#SVGID_00000033349323273601354250000017486791182244078473_);}
	
		.st13{clip-path:url(#SVGID_00000179641102536506653960000017451232500806847891_);fill:url(#SVGID_00000093894562034780546690000002071962907175231885_);}
	
		.st14{clip-path:url(#SVGID_00000054953254197973042980000017946960794865958322_);fill:url(#SVGID_00000155122365234859293150000016505215553580347043_);}
	
		.st15{clip-path:url(#SVGID_00000130639852775230269660000004158856083345096578_);fill:url(#SVGID_00000021810599659723932220000013484739585000010122_);}
	
		.st16{clip-path:url(#SVGID_00000022540768176168116970000012344640128025274797_);fill:url(#SVGID_00000076598623686356657350000004303297365551799203_);}
	
		.st17{clip-path:url(#SVGID_00000049933895321659188580000006370921784112040124_);fill:url(#SVGID_00000031887395986659691540000007456614182682382013_);}
	
		.st18{clip-path:url(#SVGID_00000092452775466560085000000016207635884007848367_);fill:url(#SVGID_00000027571974462077965950000003478185147263668631_);}
	.st19{fill-rule:evenodd;clip-rule:evenodd;fill:#C8202F;}
	.st20{fill-rule:evenodd;clip-rule:evenodd;fill:#FFFFFF;}
	.st21{fill-rule:evenodd;clip-rule:evenodd;fill:#F98238;}
	.st22{filter:url(#Adobe_OpacityMaskFilter);}
	.st23{fill:url(#SVGID_00000018917758237915214710000006722065294991659909_);}
	.st24{mask:url(#SVGID_00000173163125523763167430000011562375395098691002_);fill-rule:evenodd;clip-rule:evenodd;fill:#ED1C24;}
	.st25{fill-rule:evenodd;clip-rule:evenodd;fill:#F5333F;}
	.st26{fill-rule:evenodd;clip-rule:evenodd;fill:#ED1C24;}
	.st27{fill-rule:evenodd;clip-rule:evenodd;fill:#F9A46E;}
	.st28{fill-rule:evenodd;clip-rule:evenodd;fill:#F47B26;}
	.st29{fill-rule:evenodd;clip-rule:evenodd;fill:#EB5433;}
	.st30{fill:#1A3282;}
	.st31{fill-rule:evenodd;clip-rule:evenodd;fill:#1A3282;}
	.st32{fill-rule:evenodd;clip-rule:evenodd;fill:#9D9FA2;}
	.st33{fill-rule:evenodd;clip-rule:evenodd;fill:#000303;}
	.st34{fill:#64003D;}
	.st35{fill:#536270;}
	.st36{fill-rule:evenodd;clip-rule:evenodd;fill:#64003D;}
	.st37{fill-rule:evenodd;clip-rule:evenodd;fill:#536270;}
	.st38{fill-rule:evenodd;clip-rule:evenodd;fill:#1A3382;}
	.st39{fill-rule:evenodd;clip-rule:evenodd;fill:#29387E;}
	.st40{fill-rule:evenodd;clip-rule:evenodd;fill:#F37021;}
	.st41{fill-rule:evenodd;clip-rule:evenodd;fill:#005C32;}
	.st42{fill-rule:evenodd;clip-rule:evenodd;fill:#D2AB67;}
	
		.st43{clip-path:url(#SVGID_00000150061124865831865910000013997266373360519578_);fill:url(#SVGID_00000178887923653569475240000016846998474194160271_);}
	
		.st44{clip-path:url(#SVGID_00000076586760752866374760000010744915319072748444_);fill:url(#SVGID_00000006688201163809304140000010668755112399570580_);}
	
		.st45{clip-path:url(#SVGID_00000013894946236733465020000004108247335939780522_);fill:url(#SVGID_00000046322651381041112700000015731431579023668158_);}
	.st46{fill-rule:evenodd;clip-rule:evenodd;fill:#00AEEF;}
	.st47{fill-rule:evenodd;clip-rule:evenodd;fill:#EC008C;}
	.st48{fill-rule:evenodd;clip-rule:evenodd;fill:#FFF200;}
	.st49{fill:#A7AAAC;}
	.st50{fill-rule:evenodd;clip-rule:evenodd;fill:#5C5B5B;}
	.st51{fill:#9D9D9F;}
	.st52{fill:#F04D23;}
	.st53{fill-rule:evenodd;clip-rule:evenodd;fill:#2E3192;}
	.st54{fill-rule:evenodd;clip-rule:evenodd;fill:#C4312D;}
	.st55{fill:#552715;}
	.st56{fill:#010101;}
	.st57{fill:#E31E2E;}
	.st58{fill:url(#SVGID_00000177481579038630292420000007771271702241515912_);}
	.st59{fill:url(#SVGID_00000175309541274942627060000017752681064058002580_);}
	.st60{clip-path:url(#SVGID_00000072273471165754176610000006841058841423191715_);}
	.st61{clip-path:url(#SVGID_00000108989320705790620960000012542458644600669874_);}
	.st62{clip-path:url(#SVGID_00000148643648767793146340000002940917722851952784_);}
	.st63{clip-path:url(#SVGID_00000145748998920014144050000004654566646463298714_);}
	.st64{clip-path:url(#SVGID_00000047053367196490231580000007923306239136409763_);}
	.st65{clip-path:url(#SVGID_00000080923666315654092040000006233275937113950361_);}
	.st66{clip-path:url(#SVGID_00000026852887283597323500000011021112457320309690_);}
	.st67{clip-path:url(#SVGID_00000101781406982918931490000017681567505517038209_);}
	.st68{clip-path:url(#SVGID_00000114070456279944611260000017895414528058556554_);}
	.st69{clip-path:url(#SVGID_00000067917014000504103800000007724760216132859321_);}
	.st70{clip-path:url(#SVGID_00000003821265207781623910000015590539474780819097_);}
	.st71{fill:#2650A1;}
	.st72{fill:url(#SVGID_00000005234026082395540220000011827842714270201728_);}
	.st73{fill:#FEFEFE;}
	.st74{fill:#FDFDFD;}
	.st75{fill:#FCFCFC;}
	.st76{fill:#FBFBFB;}
	.st77{fill:#FAFAFA;}
	.st78{fill:#F9F9F9;}
	.st79{fill:#F8F8F8;}
	.st80{fill:#F7F7F7;}
	.st81{fill:#F6F6F6;}
	.st82{fill:#F5F5F5;}
	.st83{fill:#F4F4F4;}
	.st84{fill:#F3F3F3;}
	.st85{fill:#F2F2F2;}
	.st86{fill:#F1F1F1;}
	.st87{fill:#F0F0F0;}
	.st88{fill:#EFEFEF;}
	.st89{fill:#EEEEEE;}
	.st90{fill:#EDEDED;}
	.st91{fill:#ECECEC;}
	.st92{fill:#EBEBEB;}
	.st93{fill:#EAEAEA;}
	.st94{fill:#E9E9E9;}
	.st95{fill:#E8E8E8;}
	.st96{fill:#E7E7E7;}
	.st97{fill:#E6E6E6;}
	.st98{fill:#E5E5E5;}
	.st99{fill:#E4E4E4;}
	.st100{fill:#E3E3E3;}
	.st101{fill:#E2E2E2;}
	.st102{fill:#E1E1E1;}
	.st103{fill:#E0E0E0;}
	.st104{fill:#DFDFDF;}
	.st105{fill:#DEDEDE;}
	.st106{fill:#DDDDDD;}
	.st107{fill:#DCDCDC;}
	.st108{fill:#DBDBDB;}
	.st109{fill:#DADADA;}
	.st110{fill:#D9D9D9;}
	.st111{fill:#D92231;}
	.st112{fill:url(#SVGID_00000000211570473978762540000010134211284170068876_);}
	.st113{fill:url(#SVGID_00000062164828444773685130000005421413781674533524_);}
	.st114{opacity:0.8;}
	.st115{fill:url(#SVGID_00000067228261486104806800000003589928315354562197_);}
	.st116{fill:url(#SVGID_00000148633438648250641150000002237989764741563279_);}
	.st117{fill-rule:evenodd;clip-rule:evenodd;fill:#010101;}
	.st118{fill:#80A845;}
	.st119{fill-rule:evenodd;clip-rule:evenodd;fill:#80A845;}
	.st120{fill:url(#SVGID_00000166662644466673384640000002578114462543891900_);}
	.st121{fill-rule:evenodd;clip-rule:evenodd;fill:#04984A;}
	.st122{fill-rule:evenodd;clip-rule:evenodd;fill:url(#SVGID_00000155119341749286477960000014881059008342128303_);}
	.st123{fill:url(#SVGID_00000090989982373951268380000000333175922511171496_);}
	.st124{fill:url(#SVGID_00000163785327686880261060000009918185271383125154_);}
	.st125{fill:url(#SVGID_00000103262912930970461950000006677328381807211433_);}
	.st126{fill:url(#SVGID_00000005988779376498645220000012540060559131486141_);}
	.st127{fill:url(#SVGID_00000049937929098730951970000007765607870055241092_);}
	.st128{fill:url(#SVGID_00000050636060247799960290000011433899596795691184_);}
	.st129{fill:url(#SVGID_00000039837372315859549310000014995913736364336822_);}
	.st130{fill:url(#SVGID_00000071523663626366878630000010276998068830925725_);}
	.st131{fill:url(#SVGID_00000062886549046850970110000003031062756774652556_);}
	.st132{fill:url(#SVGID_00000124878541601460926870000014192473238389561279_);}
	.st133{fill:url(#SVGID_00000094595299495989181070000001689701236566500503_);}
	.st134{fill:url(#SVGID_00000089561375854443305850000007959704162994549132_);}
	.st135{fill:url(#SVGID_00000008141152749094456440000012059113065916058534_);}
	.st136{fill:url(#SVGID_00000106121121561356984760000003015691541215143866_);}
	.st137{fill-rule:evenodd;clip-rule:evenodd;fill:url(#SVGID_00000103231931661266140010000014420491207406217111_);}
	.st138{fill:#0A529D;}
	.st139{fill:url(#SVGID_00000140736855884679379360000001396904112735115146_);}
	.st140{fill:url(#SVGID_00000025412949143359323700000003219703910226838965_);}
	.st141{fill:url(#SVGID_00000070801091657045826470000002327347033770759597_);}
	.st142{fill:url(#SVGID_00000025440684196625196000000010995564280835917996_);}
	.st143{fill:url(#SVGID_00000137848463282488210620000014337969549681851047_);}
	.st144{fill:url(#SVGID_00000036953669000870785300000014603539650177923982_);}
	.st145{fill:url(#SVGID_00000032633908251731134120000004679119111865094295_);}
	.st146{fill:url(#SVGID_00000092437703600481736290000009459449489896211859_);}
	.st147{fill:url(#SVGID_00000072972199793220109050000007972834441053588098_);}
	.st148{fill:url(#SVGID_00000061437680292985227130000004435607658722787480_);}
	.st149{fill:url(#SVGID_00000015344190057224136830000009291718047647516861_);}
	.st150{fill:url(#SVGID_00000008866296308218141520000011769922457116068508_);}
	.st151{fill-rule:evenodd;clip-rule:evenodd;fill:url(#SVGID_00000150098128853824973010000004760993038495587000_);}
	.st152{fill:url(#SVGID_00000155139924391781374840000013726637774558279342_);}
	.st153{fill:url(#SVGID_00000169525279173096138750000003332540854926424749_);}
	.st154{fill:url(#SVGID_00000053540803810819105070000011606925742879063463_);}
	.st155{fill:url(#SVGID_00000063599524456355725200000005177927918485850770_);}
	.st156{fill:url(#SVGID_00000123441559954921485750000011638198387191992740_);}
	.st157{fill:url(#SVGID_00000023986784341892931460000007810520931371152057_);}
	.st158{fill:url(#SVGID_00000175284719977347301220000008706838030937403291_);}
	.st159{fill:url(#SVGID_00000075121072315783700170000004936501412654636731_);}
	.st160{fill:url(#SVGID_00000031923090345761171970000015722896603417657528_);}
	.st161{fill:url(#SVGID_00000170259450536613727990000008097443848564937400_);}
	.st162{fill:url(#SVGID_00000097473204942017728520000016663163088344026242_);}
	.st163{fill:url(#SVGID_00000168826334069957084330000002258000080296008126_);}
	.st164{fill:url(#SVGID_00000083075702578117007650000003798515675119397041_);}
	.st165{fill:url(#SVGID_00000034785867985317226360000012109576993625431197_);}
	.st166{fill:url(#SVGID_00000056403628427969215080000013658583131466342832_);}
	.st167{fill:url(#SVGID_00000122702671919007330180000006023651534763515815_);}
	.st168{fill:url(#SVGID_00000177457535711165241840000015960719157118876336_);}
	.st169{fill-rule:evenodd;clip-rule:evenodd;fill:url(#SVGID_00000034049656953176247240000012471562357918417029_);}
	.st170{fill:url(#SVGID_00000160157850151241746320000015015912383862388405_);}
	.st171{fill:url(#SVGID_00000051367941776640156370000018330686020270789009_);}
	.st172{fill:url(#SVGID_00000037680132305968210420000000144912043711590787_);}
	.st173{fill:url(#SVGID_00000153680737951177385810000003336209030129553054_);}
	.st174{fill:url(#SVGID_00000047034051956325431700000018237532578280111266_);}
	.st175{fill:url(#SVGID_00000054946692835268801510000001485088236787428010_);}
	.st176{fill:url(#SVGID_00000034056759642809037880000005851731999378232255_);}
	.st177{fill:url(#SVGID_00000019654575666971071130000010426116026569787527_);}
	.st178{fill:url(#SVGID_00000052074049861192345030000016421670627068837513_);}
	.st179{fill:url(#SVGID_00000148657974863773775700000013573968956550938534_);}
	.st180{fill:url(#SVGID_00000036963879452096172890000007845313269727122573_);}
	.st181{fill:url(#SVGID_00000130629438256055060710000015248311348418679683_);}
	.st182{fill:url(#SVGID_00000043424845812911292220000013592853517525078430_);}
	.st183{fill:url(#SVGID_00000070821612774090789430000004345935040613088159_);}
	.st184{fill-rule:evenodd;clip-rule:evenodd;fill:url(#SVGID_00000118398812235096787110000009207393735265277604_);}
	.st185{fill:url(#SVGID_00000148646775143897715640000005444597211535091900_);}
	.st186{fill:url(#SVGID_00000151512710498110730720000002263121049445521573_);}
	.st187{fill:url(#SVGID_00000077317894873368137270000015444449587420317330_);}
	.st188{fill:url(#SVGID_00000132805730992435285140000013103502751452581021_);}
	.st189{fill:url(#SVGID_00000069365079741267687330000005008017119040788621_);}
	.st190{fill:url(#SVGID_00000160169553563197447020000011669481144884872632_);}
	.st191{fill:url(#SVGID_00000057137972099368309950000016609444873201317796_);}
	.st192{fill:url(#SVGID_00000068659157094856061460000008024769628695631275_);}
	.st193{fill:url(#SVGID_00000096035118763337063880000010928807944615486342_);}
	.st194{fill:url(#SVGID_00000150095597494887009950000008607288203138450078_);}
	.st195{fill:url(#SVGID_00000058559835232511578660000007062216348413737634_);}
	.st196{fill:url(#SVGID_00000168100512382630540750000002312584462030389164_);}
	.st197{fill:url(#SVGID_00000076567937967624919310000007677860874451657613_);}
	.st198{fill:url(#SVGID_00000170961988562854042320000000676257468331850627_);}
	.st199{fill:url(#SVGID_00000016066544596914959230000001200294449624627368_);}
	.st200{fill:url(#SVGID_00000179603554354732782000000011695091269562224552_);}
	.st201{fill:url(#SVGID_00000142898802793316187750000003803753984249432211_);}
	.st202{fill:url(#SVGID_00000098209547831896564980000004393718323021540248_);}
	.st203{fill:url(#SVGID_00000028304242280055995730000012660313147998792364_);}
	.st204{fill-rule:evenodd;clip-rule:evenodd;fill:url(#SVGID_00000129904257170109143220000016947424737933234106_);}
	.st205{fill:url(#SVGID_00000022549897668479604360000001673278938071179186_);}
	.st206{fill:url(#SVGID_00000136397728818682040890000002294266524324496521_);}
	.st207{fill:url(#SVGID_00000049932807469660179320000014715445714746439297_);}
	.st208{fill:url(#SVGID_00000023243584626409449530000010500960269597000333_);}
	.st209{fill:url(#SVGID_00000040549928161854279930000018050779179323562886_);}
	.st210{fill:url(#SVGID_00000178202664961987928000000016179758707296144570_);}
	.st211{fill:url(#SVGID_00000004525915483028311260000017692164642423038135_);}
	.st212{fill:url(#SVGID_00000150063228821398015400000012997299458413888944_);}
	.st213{fill:url(#SVGID_00000116923231104249898010000007716582958649871257_);}
	.st214{fill:url(#SVGID_00000170267998943500688730000016529935495377711290_);}
	.st215{fill:url(#SVGID_00000150814669205492085870000002984335143704357038_);}
	.st216{fill:url(#SVGID_00000026854065126964495330000006112507968144534168_);}
	.st217{fill:url(#SVGID_00000145036222528910863790000008227736799688976574_);}
	.st218{fill:url(#SVGID_00000078726615972138714210000012059660427892369563_);}
	.st219{fill:url(#SVGID_00000122710186169320541360000014159797083592710059_);}
	.st220{fill:url(#SVGID_00000168074983648389345830000018248500865473730462_);}
	.st221{fill-rule:evenodd;clip-rule:evenodd;fill:url(#SVGID_00000106850139797001919320000000558790362575115662_);}
	.st222{fill:url(#SVGID_00000116212947072449439800000008410235463552370593_);}
	.st223{fill:url(#SVGID_00000151501864279006042380000000944121287795789992_);}
	.st224{fill:url(#SVGID_00000080201876367328397850000017935404233647060920_);}
	.st225{fill:url(#SVGID_00000149359876693530289460000008954255149505373629_);}
	.st226{fill:url(#SVGID_00000097502929437313584920000008697154184467970692_);}
	.st227{fill:url(#SVGID_00000057849921510684703110000014814112283217836963_);}
	.st228{fill:url(#SVGID_00000119815377010561198670000004882891051943840146_);}
	.st229{fill:url(#SVGID_00000069389879242715351790000011381874487771822255_);}
	.st230{fill:url(#SVGID_00000132793497479160808960000002517792903133154996_);}
	.st231{fill:url(#SVGID_00000084512004486311958620000015696850664553870517_);}
	.st232{fill:url(#SVGID_00000100358899966580192870000011600146310087025056_);}
	.st233{fill:url(#SVGID_00000021115983107315159220000010726182285266539651_);}
	.st234{fill:url(#SVGID_00000128450309039683943160000014298795117192993184_);}
	.st235{fill:url(#SVGID_00000173130503410194710300000002464592715540803519_);}
	.st236{fill:url(#SVGID_00000073723308743741913250000010661163009335784320_);}
	.st237{fill-rule:evenodd;clip-rule:evenodd;fill:url(#SVGID_00000132072120808639768910000002706392242949550504_);}
	.st238{fill:url(#SVGID_00000176010219731073030180000006540757011614340250_);}
	.st239{fill:url(#SVGID_00000160186033030800674130000007622631210270251943_);}
	.st240{fill:url(#SVGID_00000125576351557143928740000011145207790112124056_);}
	.st241{fill:url(#SVGID_00000132052222975134650490000016412265079798462098_);}
	.st242{fill:url(#SVGID_00000035489893783743278020000016544415518696471715_);}
	.st243{fill:url(#SVGID_00000131349257684841882450000011165541879153230482_);}
	.st244{fill:url(#SVGID_00000109008319391750033440000017039660039971993995_);}
	.st245{fill:url(#SVGID_00000013877917915352443330000016252322185410996648_);}
	.st246{fill:url(#SVGID_00000152223779376819622440000002929780590082780069_);}
	.st247{fill:url(#SVGID_00000023261204106647541480000006661356619959914687_);}
	.st248{fill:url(#SVGID_00000102522031599175680210000009082696627340537483_);}
	.st249{fill:url(#SVGID_00000162331383335607947560000011380913938610570635_);}
	.st250{fill:url(#SVGID_00000039816968873133813600000018211787909367487141_);}
	.st251{fill:url(#SVGID_00000123426815093794797530000011824810802027447994_);}
	.st252{fill:url(#SVGID_00000014625885261837542200000006755736564532994195_);}
	.st253{fill-rule:evenodd;clip-rule:evenodd;fill:url(#SVGID_00000173864182495202954730000003202877240143599530_);}
	.st254{fill:url(#SVGID_00000041270650349083407970000017208754764856460929_);}
	.st255{fill:url(#SVGID_00000109738405187464195700000014397201806480848791_);}
	.st256{fill:url(#SVGID_00000028320264964548719950000006248334660863507123_);}
	.st257{fill:url(#SVGID_00000021824752246418946310000009500102893657561766_);}
	.st258{fill:url(#SVGID_00000074424935475278009460000000847691150144128677_);}
	.st259{fill:url(#SVGID_00000084493107715225333410000012943018527139500222_);}
	.st260{fill:url(#SVGID_00000094616070235673033870000016443788180536540090_);}
	.st261{fill:url(#SVGID_00000096748614206835811900000005113923853159338168_);}
	.st262{fill:url(#SVGID_00000134960571404315561150000008569218241625571248_);}
	.st263{fill:url(#SVGID_00000172439896065297597450000009865234481205753774_);}
	.st264{fill:url(#SVGID_00000050652519753373942280000009320246813392149152_);}
	.st265{fill:url(#SVGID_00000000181376787219264090000001135412493238540432_);}
	.st266{fill:url(#SVGID_00000178184247828659314290000000000322044990000527_);}
	.st267{fill:url(#SVGID_00000056405477997354133670000014386524765998079642_);}
	.st268{fill:url(#SVGID_00000112612341972557987540000001513702104887964558_);}
	.st269{fill-rule:evenodd;clip-rule:evenodd;fill:url(#SVGID_00000145024334736602574760000006561368000371602096_);}
	.st270{fill:url(#SVGID_00000027566869192159202970000007970036940238718081_);}
	.st271{fill:url(#SVGID_00000110472103317200669890000010439379549294611080_);}
	.st272{fill:url(#SVGID_00000080920681188083308610000015582489796516571305_);}
	.st273{fill:url(#SVGID_00000115506541953104058960000006901083336548915875_);}
	.st274{fill:url(#SVGID_00000166661720657771942980000007939571606246748291_);}
	.st275{fill:url(#SVGID_00000134235159570553786820000000608266399188735620_);}
	.st276{fill:url(#SVGID_00000029012593207248070050000005307891164599452034_);}
	.st277{fill:url(#SVGID_00000132807970214611881250000014786555096142292619_);}
	.st278{fill:url(#SVGID_00000041284209591391918350000015107231582275508354_);}
	.st279{fill:url(#SVGID_00000178904675551787768940000006448686654546001057_);}
	.st280{fill:url(#SVGID_00000013877487141191879120000008808421055616365502_);}
	.st281{fill:url(#SVGID_00000175315379995954793880000001880257071825038735_);}
	.st282{fill:url(#SVGID_00000141442567038084827660000003060343066495816832_);}
	.st283{fill:url(#SVGID_00000071561346029566757760000012452164651783552387_);}
	.st284{fill:url(#SVGID_00000084509379355105051530000000761244620446032277_);}
	.st285{fill-rule:evenodd;clip-rule:evenodd;fill:url(#SVGID_00000065071899683631097050000007122235572700951957_);}
	.st286{fill:url(#SVGID_00000128469045665630272960000009628393850731801742_);}
	.st287{fill:url(#SVGID_00000031185482268119443480000010442117262119422396_);}
	.st288{fill:url(#SVGID_00000047782450350509971180000005761077821350464660_);}
	.st289{fill:url(#SVGID_00000154405221922021941090000006736595162948495774_);}
	.st290{fill:url(#SVGID_00000155104820740133127320000007087614291365767068_);}
	.st291{fill:url(#SVGID_00000078741695290509263530000015135571194138176687_);}
	.st292{fill:url(#SVGID_00000134233998545820312120000006561486040485337525_);}
	.st293{fill:url(#SVGID_00000158728502543380433840000017036208203043585727_);}
	.st294{fill:url(#SVGID_00000004507195181984221380000001427645409229493915_);}
	.st295{fill:url(#SVGID_00000042017929316767220980000005472409718674354824_);}
	.st296{fill:url(#SVGID_00000115497215317956026650000002139303025965171597_);}
	.st297{fill:url(#SVGID_00000076580793267462272340000006352456627041112711_);}
	.st298{fill:url(#SVGID_00000090262821529214040120000010618060228588517292_);}
	.st299{fill:url(#SVGID_00000097463710235393061180000006974224678822158726_);}
	.st300{fill:url(#SVGID_00000004536291023484319570000014618169506839002298_);}
	.st301{fill:url(#SVGID_00000162354300243777529790000012469179387754542488_);}
	.st302{fill:url(#SVGID_00000129179702072722844560000003638521615571326398_);}
	.st303{fill:url(#SVGID_00000165941273734643208240000017349630538043357579_);}
	.st304{fill-rule:evenodd;clip-rule:evenodd;fill:url(#SVGID_00000124856427154116215850000002713167068039345051_);}
	.st305{fill:url(#SVGID_00000055673157800978171960000005230521476012577201_);}
	.st306{fill:url(#SVGID_00000080204074187304694340000000151199352554199183_);}
	.st307{fill:url(#SVGID_00000052078511923335432530000010752942469177018803_);}
	.st308{fill:url(#SVGID_00000042706008351163423430000016323175816368651676_);}
	.st309{fill:url(#SVGID_00000054962950781514554700000010909526073987458713_);}
	.st310{fill:url(#SVGID_00000000914130452935279720000005281336740022482589_);}
	.st311{fill:url(#SVGID_00000019677330497691948980000007718254945629985178_);}
	.st312{fill:url(#SVGID_00000173126301086254895750000015966668612002981513_);}
	.st313{fill:url(#SVGID_00000079462174121443160080000012383940337036258731_);}
	.st314{fill:url(#SVGID_00000080899107040899278820000002518146293871940737_);}
	.st315{fill:url(#SVGID_00000155105328167253790640000014406591497865988485_);}
	.st316{fill:url(#SVGID_00000083078276646234069870000010609798726477877436_);}
	.st317{fill:url(#SVGID_00000151524259072932367870000000814141112671716230_);}
	.st318{fill:url(#SVGID_00000080909584237759689730000003575787323605565092_);}
	.st319{fill:url(#SVGID_00000120541166576256709060000012368768053736987582_);}
	.st320{fill:url(#SVGID_00000089570875017255218540000016658219721695211445_);}
	.st321{fill:url(#SVGID_00000149360656265263251440000016919473293581490341_);}
	.st322{fill:url(#SVGID_00000031897969633238148310000002587849882032541586_);}
	.st323{fill:url(#SVGID_00000181067465401530170740000013308303536591499416_);}
	.st324{fill:url(#SVGID_00000107551518586590336480000001181287937841390249_);}
	.st325{fill-rule:evenodd;clip-rule:evenodd;fill:url(#SVGID_00000058587482341237186160000001435953621496381857_);}
	.st326{fill:url(#SVGID_00000183228902238174093620000012641977983600879029_);}
	.st327{fill:url(#SVGID_00000170251943152996330910000007911545299123293316_);}
	.st328{fill:url(#SVGID_00000152946192371083171740000004937290518332672896_);}
	.st329{fill:url(#SVGID_00000001665302749590154990000015469058612212569761_);}
	.st330{fill:url(#SVGID_00000110452677801924534250000011904291413451114933_);}
	.st331{fill:url(#SVGID_00000152954897390189748360000016074975058336733097_);}
	.st332{fill:url(#SVGID_00000088846682565881110610000008353747868361092020_);}
	.st333{fill:url(#SVGID_00000141451985590446938360000010548208365877342393_);}
	.st334{fill:url(#SVGID_00000143600663760387622400000015400159615399311762_);}
	.st335{fill:url(#SVGID_00000183240137127927894050000015013418736811188144_);}
	.st336{fill:url(#SVGID_00000125601186717550524160000003037400769015512218_);}
	.st337{fill:url(#SVGID_00000094620243973360198890000009837961627126745265_);}
	.st338{fill:url(#SVGID_00000056400510033681605180000014526901942818709684_);}
	.st339{fill:url(#SVGID_00000062912369740005982320000012314353463543706031_);}
	.st340{fill:url(#SVGID_00000037671269171754561700000015254864834196682373_);}
	.st341{fill:url(#SVGID_00000096772905560236823000000006597324361988926644_);}
	.st342{fill-rule:evenodd;clip-rule:evenodd;fill:url(#SVGID_00000054223503312572026900000011672536986585806254_);}
	.st343{fill:url(#SVGID_00000024724648330417165050000017993520161300407973_);}
	.st344{fill:url(#SVGID_00000163765205968991832830000017173437483672772493_);}
	.st345{fill:url(#SVGID_00000142874872915300700830000007767979491828189870_);}
	.st346{fill:url(#SVGID_00000031201090237297597350000011003842129192271519_);}
	.st347{fill:url(#SVGID_00000162323435456387541880000016194339822629422770_);}
	.st348{fill:url(#SVGID_00000070088209409035517680000009824656541052949177_);}
	.st349{fill:url(#SVGID_00000049192429462505953420000011404657904895669941_);}
	.st350{fill:url(#SVGID_00000147941368024259418910000014791909808407423676_);}
	.st351{fill:url(#SVGID_00000168096263439444621730000011963480282473261469_);}
	.st352{fill:url(#SVGID_00000042707077221893580160000015547090837524688265_);}
	.st353{fill:url(#SVGID_00000164493233399319755590000011289953123593013907_);}
	.st354{fill:url(#SVGID_00000138568044251526263760000005365925416583560594_);}
	.st355{fill:url(#SVGID_00000072268627624486095570000012671318584746160554_);}
	.st356{fill:url(#SVGID_00000007392409576929422930000011510596111999182240_);}
	.st357{fill:url(#SVGID_00000033328665056229844360000012999561308191161767_);}
	.st358{fill:url(#SVGID_00000182497736840365905990000000709127698483042987_);}
	.st359{fill:url(#SVGID_00000151515437308503253410000005130609830878068663_);}
	.st360{fill:url(#SVGID_00000009560883165642224940000002864266095187405227_);}
	.st361{fill:url(#SVGID_00000057121588011946316440000016759822735402275007_);}
	.st362{fill:url(#SVGID_00000179615684769456735160000011670119347335593149_);}
	.st363{fill:#C1282D;}
	.st364{fill-rule:evenodd;clip-rule:evenodd;fill:url(#SVGID_00000150082542481389253060000017179774318892816513_);}
	.st365{fill:url(#SVGID_00000030472702422116036640000016988682275990799531_);}
	.st366{fill:url(#SVGID_00000080195007723215300570000013558094881061468083_);}
	.st367{fill:url(#SVGID_00000114041153616664810040000008361032502455350149_);}
	.st368{fill:url(#SVGID_00000052085189748589169390000012665268146457179064_);}
	.st369{fill:url(#SVGID_00000156580717783195052990000002790311170506817720_);}
	.st370{fill:url(#SVGID_00000087370764424551556710000000309319869145564072_);}
	.st371{fill:url(#SVGID_00000028321546361695705060000011008407574043542444_);}
	.st372{fill:url(#SVGID_00000175321561663452651350000002259277449229381814_);}
	.st373{fill:url(#SVGID_00000049214820254983608680000003731858266245623692_);}
	.st374{fill:url(#SVGID_00000026845706796381815740000010193368217853674417_);}
	.st375{fill:url(#SVGID_00000011752824508121021370000007507801115918554047_);}
	.st376{fill:url(#SVGID_00000022542417889509416400000000667727472072150149_);}
	.st377{fill:url(#SVGID_00000119116927459891370130000007615492034507038399_);}
	.st378{fill:url(#SVGID_00000073715614617760984750000012412773481582449339_);}
	.st379{fill:url(#SVGID_00000075865202755148153820000002801765540003455415_);}
	.st380{fill:url(#SVGID_00000119076797995420825030000007181460045578758578_);}
	.st381{fill-rule:evenodd;clip-rule:evenodd;fill:url(#SVGID_00000027593676529368774300000008930775696551602081_);}
	.st382{fill:url(#SVGID_00000000907935368024831060000006800640435780610479_);}
	.st383{fill:url(#SVGID_00000003078297831518461890000001603475577244684457_);}
	.st384{fill:url(#SVGID_00000107587885702061837840000005901810673476983959_);}
	.st385{fill:url(#SVGID_00000016058720481064542750000004294862354170910102_);}
	.st386{fill:url(#SVGID_00000116224783321755745990000003452718217316478642_);}
	.st387{fill:url(#SVGID_00000061436058810545987430000016443958939375901844_);}
	.st388{fill:url(#SVGID_00000177454936437243392870000015503788086841762456_);}
	.st389{fill:url(#SVGID_00000164481733986930412290000009480636710430961329_);}
	.st390{fill:url(#SVGID_00000039105977724605227710000000009646193980700829_);}
	.st391{fill:url(#SVGID_00000101084855770758883290000015052738988391373486_);}
	.st392{fill:url(#SVGID_00000085963926580255874680000017053800813134644397_);}
	.st393{fill:url(#SVGID_00000021809102503573109470000002056432020537486236_);}
	.st394{fill:url(#SVGID_00000068647159816883396710000000061443542288926100_);}
	.st395{fill:url(#SVGID_00000137118874570614797060000000967300326685250992_);}
	.st396{fill:url(#SVGID_00000017484238835163139900000009661496684266909598_);}
	.st397{fill:url(#SVGID_00000000909899037136920300000006397662399204950676_);}
	.st398{fill:url(#SVGID_00000097494158348083081170000012332084020912557485_);}
	.st399{fill:url(#SVGID_00000181060855289157651210000008732984365095785894_);}
	.st400{fill:url(#SVGID_00000105425723258969505090000012302912955177185701_);}
	.st401{fill:url(#SVGID_00000141441035174323882220000009929503671606127759_);}
</style>
<g>
	<g>
		<ellipse class="st11" cx="535.62" cy="471.21" rx="237.26" ry="117.73"/>
		<path class="st121" d="M761.06,507.87c-31.09,47.08-120.24,81.07-225.43,81.07c-105.77,0-195.33-34.35-225.94-81.87l2.32-0.73
			l10.92-3.41L400,478.74l-7.25,20.17c-0.62,1.7,1.12,3.34,2.79,2.61l68.05-29.38l-23.07,34.13c-1.27,1.85,0.91,4.14,2.83,2.94
			l68.3-42.18v25.61c0,1.81,2.18,2.76,3.52,1.49l7-6.64l11.03,25.61c0.69,1.6,2.94,1.7,3.77,0.15l17.88-34.13l82.99,41.97
			c1.89,0.98,3.84-1.23,2.65-3.01l-21.87-32.79c-0.51-0.73-0.47-1.7,0.07-2.39l9.43-12.8l10.99,13.67c0.98,1.2,2.83,0.98,3.52-0.4
			l5.8-11.79l50.24,37.11c1.16,0.83,2.83,0.29,3.23-1.09l5.22-17.19l53.76,17.37c0.04,0,0.07,0.04,0.07,0.04
			C760.98,507.83,761.02,507.83,761.06,507.87z"/>
		
			<linearGradient id="SVGID_00000053512502295127860950000016244477624068437897_" gradientUnits="userSpaceOnUse" x1="438.2043" y1="357.772" x2="672.0549" y2="624.8978">
			<stop  offset="0" style="stop-color:#3E76BB"/>
			<stop  offset="1" style="stop-color:#06509E"/>
		</linearGradient>
		<path style="fill-rule:evenodd;clip-rule:evenodd;fill:url(#SVGID_00000053512502295127860950000016244477624068437897_);" d="
			M772.88,471.4c0,1.12-0.04,2.21-0.11,3.3c-0.04,0.94-0.11,1.85-0.22,2.76c-0.07,0.83-0.18,1.67-0.29,2.5
			c-0.07,0.58-0.18,1.16-0.29,1.74c-0.33,2.03-0.8,4.06-1.38,6.06c-0.18,0.73-0.4,1.45-0.62,2.14c-0.07,0.25-0.15,0.51-0.25,0.76
			c-0.29,0.91-0.62,1.81-0.94,2.68c-0.25,0.69-0.54,1.41-0.87,2.1c-0.07,0.22-0.18,0.47-0.29,0.69l-0.11-0.04l-0.07-0.04
			l-152.82-74.14c-0.94-0.44-2.07-0.15-2.65,0.73l-20.53,30.65l-54.7-67.21c-0.76-0.87-2.07-1.02-2.94-0.25l-75.99,63.69
			l-36.02-3.45c-0.58-0.07-1.16,0-1.7,0.25c-9.9,4.46-109.69,49.66-115.38,52.23c-0.25-0.47-0.47-0.91-0.65-1.38
			c-0.29-0.65-0.58-1.34-0.87-2.03c-0.58-1.38-1.12-2.79-1.56-4.17c-0.29-0.83-0.54-1.63-0.76-2.47c-0.83-2.68-1.41-5.4-1.81-8.16
			c-0.29-1.81-0.47-3.66-0.58-5.51c-0.07-1.12-0.11-2.29-0.11-3.45c0-65.11,106.21-117.92,237.26-117.92
			C666.68,353.48,772.88,406.29,772.88,471.4z"/>
		<g>
			<path class="st11" d="M403.99,533.96c0.32,0,0.64-0.07,0.94-0.2c0.3-0.13,0.49-0.32,0.58-0.56h0.7l-1.21,4.63
				c-0.2,0.65-0.8,0.97-1.79,0.97h-1.79l-3.39,14.41c-0.04,0.2,0.05,0.41,0.27,0.62c0.22,0.21,0.44,0.32,0.67,0.32l-0.21,0.7h-8.42
				c-0.65,0-0.97-0.32-0.97-0.97c0-0.08,0.02-0.24,0.06-0.48l3.42-14.59h-2.09c-0.32,0-0.59,0.08-0.8,0.23
				c-0.21,0.15-0.36,0.35-0.44,0.59h-0.76l1.21-4.84c0.08-0.28,0.24-0.49,0.48-0.62c0.24-0.13,0.63-0.2,1.15-0.2H403.99z"/>
			<path class="st11" d="M413.71,554.85c-0.53,0-0.91-0.09-1.17-0.26c-0.25-0.17-0.4-0.47-0.44-0.89l-0.27-3.09h-3.51l-1.24,2.48
				c-0.02,0.06-0.03,0.11-0.03,0.15c0,0.04-0.01,0.12-0.03,0.24c0,0.18,0.09,0.34,0.26,0.47c0.17,0.13,0.37,0.2,0.59,0.2l-0.15,0.7
				h-6.57c-0.85,0-1.27-0.33-1.27-1c0-0.18,0.05-0.37,0.15-0.58l8.9-17.26c0.06-0.12,0.09-0.27,0.09-0.46c0-0.22-0.1-0.43-0.29-0.62
				c-0.19-0.19-0.4-0.29-0.62-0.29l0.18-0.7h9.02c0.46,0,0.86,0.13,1.18,0.38c0.32,0.25,0.48,0.61,0.48,1.08l1.39,17.68
				c0,0.26,0.14,0.5,0.43,0.73c0.28,0.22,0.57,0.33,0.88,0.33l-0.15,0.7H413.71z M410.11,546.56h1.73l-0.24-3.39L410.11,546.56z"/>
			<path class="st11" d="M420.23,535.84c-0.04-0.36-0.18-0.65-0.41-0.86c-0.23-0.21-0.49-0.32-0.77-0.32l0.15-0.7h8.45
				c0.26,0,0.51,0.13,0.76,0.4c0.24,0.26,0.36,0.54,0.36,0.85l0.24,7.93l2.97-6.93l0.12-0.48c0-0.24-0.09-0.48-0.26-0.71
				c-0.17-0.23-0.37-0.35-0.59-0.35l0.15-0.7h6.15c0.36,0,0.66,0.14,0.89,0.41c0.23,0.27,0.35,0.56,0.35,0.86l-0.12,0.61l-8.9,19.01
				h-5.66c-0.47,0-0.85-0.1-1.15-0.3s-0.49-0.47-0.55-0.82L420.23,535.84z"/>
			<path class="st11" d="M446.05,554.85c-0.53,0-0.91-0.09-1.17-0.26c-0.25-0.17-0.4-0.47-0.44-0.89l-0.27-3.09h-3.51l-1.24,2.48
				c-0.02,0.06-0.03,0.11-0.03,0.15c0,0.04-0.01,0.12-0.03,0.24c0,0.18,0.08,0.34,0.26,0.47c0.17,0.13,0.37,0.2,0.59,0.2l-0.15,0.7
				h-6.57c-0.85,0-1.27-0.33-1.27-1c0-0.18,0.05-0.37,0.15-0.58l8.9-17.26c0.06-0.12,0.09-0.27,0.09-0.46c0-0.22-0.1-0.43-0.29-0.62
				c-0.19-0.19-0.4-0.29-0.62-0.29l0.18-0.7h9.02c0.46,0,0.86,0.13,1.18,0.38c0.32,0.25,0.48,0.61,0.48,1.08l1.39,17.68
				c0,0.26,0.14,0.5,0.43,0.73c0.28,0.22,0.57,0.33,0.88,0.33l-0.15,0.7H446.05z M442.45,546.56h1.73l-0.24-3.39L442.45,546.56z"/>
			<path class="st11" d="M474.36,554.85h-5.51c-0.61,0-1.12-0.08-1.53-0.24c-0.41-0.16-0.68-0.45-0.8-0.88l-3.09-7.48l-1.76,6.75
				l-0.06,0.52c0,0.2,0.09,0.36,0.26,0.47c0.17,0.11,0.4,0.17,0.68,0.17l-0.15,0.7h-6.81c-0.34,0-0.6-0.1-0.77-0.29
				c-0.17-0.19-0.26-0.45-0.26-0.77c0-0.12,0.02-0.28,0.06-0.49l4.12-17.71c0.04-0.22-0.04-0.43-0.24-0.64
				c-0.2-0.2-0.42-0.3-0.67-0.3l0.18-0.7h7.69c0.24,0,0.52,0.12,0.83,0.35c0.31,0.23,0.52,0.48,0.62,0.74l3.27,7.63l1.45-6.54
				c0.04-0.12,0.06-0.31,0.06-0.58c0-0.24-0.1-0.45-0.3-0.64c-0.2-0.18-0.43-0.27-0.67-0.27l0.18-0.7h6.78
				c0.32,0,0.57,0.11,0.74,0.33c0.17,0.22,0.26,0.47,0.26,0.76l-0.09,0.82L474.36,554.85z"/>
			<path class="st11" d="M506.37,533.93c1.35,0,2.4,0.35,3.13,1.06c0.74,0.71,1.11,1.6,1.11,2.67c0,0.16-0.01,0.34-0.05,0.54
				c-0.03,0.2-0.05,0.35-0.07,0.46c-0.46,2.22-1.41,3.56-2.85,4.03c0.58,0.36,1.01,0.76,1.29,1.2c0.27,0.43,0.41,1.07,0.41,1.92
				c0,0.77-0.15,1.84-0.45,3.21c-0.53,2.28-1.33,3.85-2.42,4.69c-0.99,0.77-2.51,1.15-4.57,1.15h-12.02c-0.34,0-0.6-0.1-0.77-0.29
				c-0.17-0.19-0.26-0.45-0.26-0.77c0-0.12,0.02-0.28,0.06-0.49l4.12-17.71c0.04-0.22-0.04-0.43-0.24-0.64s-0.43-0.3-0.67-0.3
				l0.18-0.7L506.37,533.93z M499.26,550.16c0.55,0,0.92-0.13,1.14-0.38c0.21-0.25,0.42-0.82,0.62-1.71
				c0.14-0.57,0.21-1.03,0.21-1.39c0-0.69-0.37-1.03-1.12-1.03h-0.85l-1.03,4.51H499.26z M501.41,541.62c0.34,0,0.58-0.1,0.73-0.29
				c0.14-0.19,0.27-0.54,0.39-1.04c0.12-0.5,0.18-0.87,0.18-1.09c0-0.53-0.29-0.79-0.88-0.79h-0.91l-0.73,3.21H501.41z"/>
			<path class="st11" d="M524.72,533.96c1.78,0,3.24,0.46,4.39,1.38c1.15,0.92,1.73,2.22,1.73,3.89c0,0.61-0.07,1.19-0.21,1.76
				l-1.82,7.69c-0.52,2.28-1.43,3.91-2.72,4.87c-1.13,0.87-2.68,1.3-4.66,1.3h-6.21c-1.9,0-3.3-0.43-4.22-1.29
				c-0.92-0.86-1.38-2.13-1.38-3.8c0-0.99,0.13-2.02,0.39-3.09l1.33-5.72c0.53-2.2,1.28-3.85,2.27-4.93
				c1.27-1.37,3.06-2.06,5.36-2.06H524.72z M518.18,548.37c-0.06,0.28-0.09,0.52-0.09,0.73c0,0.5,0.28,0.76,0.85,0.76
				c0.38,0,0.67-0.09,0.86-0.26c0.19-0.17,0.34-0.48,0.44-0.92l2-8.51c0.04-0.24,0.06-0.4,0.06-0.49c0-0.58-0.29-0.88-0.88-0.88
				c-0.64,0-1.08,0.4-1.3,1.21L518.18,548.37z"/>
			<path class="st11" d="M541.13,545.8l0.06-0.39c0-0.18-0.12-0.27-0.36-0.27c-0.24,0-0.36-0.1-0.36-0.3l0.06-0.39l0.88-3.6h6.69
				c0.48,0,0.86,0.15,1.14,0.44c0.27,0.29,0.41,0.62,0.41,0.98c0,0.46-0.04,0.85-0.12,1.15l-1.6,7.11
				c-0.36,1.61-0.92,2.74-1.66,3.38c-0.75,0.63-2,0.95-3.75,0.95h-7.33c-2.04,0-3.5-0.39-4.39-1.18c-0.79-0.71-1.18-1.79-1.18-3.24
				c0-0.93,0.16-2.06,0.48-3.39l1.66-7.3c0.43-1.9,1.24-3.36,2.45-4.39c1.11-0.95,2.38-1.42,3.81-1.42h12.38
				c-0.06,0.61-0.17,1.22-0.33,1.85c-0.16,0.63-0.34,1.14-0.53,1.54s-0.49,0.7-0.88,0.88c-0.39,0.18-0.84,0.27-1.35,0.27h-5.11
				c-0.57,0-1,0.14-1.32,0.41c-0.31,0.27-0.54,0.72-0.68,1.35l-1.97,8.48c-0.04,0.28-0.06,0.46-0.06,0.55c0,0.5,0.31,0.76,0.94,0.76
				c0.71,0,1.14-0.37,1.3-1.12L541.13,545.8z"/>
			<path class="st11" d="M564.36,533.96c2.04,0,3.52,0.53,4.45,1.57c0.83,0.95,1.24,2.34,1.24,4.18c0,0.71-0.07,1.5-0.2,2.38
				s-0.32,1.8-0.56,2.77c-0.95,4.02-1.88,6.69-2.8,8.01c-0.92,1.32-2.25,1.98-4.01,1.98h-13.5c-0.34,0-0.6-0.1-0.77-0.29
				c-0.17-0.19-0.26-0.45-0.26-0.77c0-0.12,0.02-0.28,0.06-0.49l4.12-17.71c0.04-0.22-0.04-0.43-0.24-0.64s-0.43-0.3-0.67-0.3
				l0.18-0.7H564.36z M558.43,549.86c0.42,0,0.75-0.12,0.97-0.36c0.22-0.24,0.4-0.66,0.55-1.24l1.76-7.54
				c0.08-0.34,0.12-0.67,0.12-0.97c0-0.63-0.36-0.94-1.09-0.94h-0.76l-2.57,11.05H558.43z"/>
			<path class="st11" d="M591.85,545.8l0.06-0.39c0-0.18-0.12-0.27-0.36-0.27c-0.24,0-0.36-0.1-0.36-0.3l0.06-0.39l0.88-3.6h6.69
				c0.48,0,0.86,0.15,1.14,0.44c0.27,0.29,0.41,0.62,0.41,0.98c0,0.46-0.04,0.85-0.12,1.15l-1.6,7.11
				c-0.36,1.61-0.92,2.74-1.66,3.38c-0.75,0.63-2,0.95-3.75,0.95h-7.33c-2.04,0-3.5-0.39-4.39-1.18c-0.79-0.71-1.18-1.79-1.18-3.24
				c0-0.93,0.16-2.06,0.48-3.39l1.66-7.3c0.43-1.9,1.24-3.36,2.45-4.39c1.11-0.95,2.38-1.42,3.82-1.42h12.38
				c-0.06,0.61-0.17,1.22-0.33,1.85c-0.16,0.63-0.34,1.14-0.53,1.54s-0.49,0.7-0.88,0.88c-0.39,0.18-0.84,0.27-1.35,0.27h-5.11
				c-0.56,0-1,0.14-1.32,0.41c-0.31,0.27-0.54,0.72-0.68,1.35l-1.97,8.48c-0.04,0.28-0.06,0.46-0.06,0.55c0,0.5,0.31,0.76,0.94,0.76
				c0.71,0,1.14-0.37,1.3-1.12L591.85,545.8z"/>
			<path class="st11" d="M617.53,549.1c0.14,0.24,0.33,0.45,0.58,0.62c0.24,0.17,0.51,0.26,0.82,0.26h0.88l-0.73,3.45
				c-0.2,0.95-0.93,1.42-2.18,1.42h-4.06c-0.52,0-0.98-0.14-1.36-0.41c-0.38-0.27-0.63-0.61-0.73-1.01l-1.76-6.18l-1.3,5.9
				l-0.03,0.3c0,0.2,0.09,0.37,0.26,0.5c0.17,0.13,0.39,0.2,0.65,0.2l-0.15,0.7h-8.39c-0.34,0-0.6-0.1-0.77-0.29
				c-0.17-0.19-0.26-0.45-0.26-0.77c0-0.12,0.02-0.28,0.06-0.49l4.12-17.71c0.04-0.22-0.04-0.43-0.24-0.64s-0.43-0.3-0.67-0.3
				l0.18-0.7h14.02c3.15,0,4.72,1.46,4.72,4.39c0,0.4-0.02,0.76-0.06,1.06c-0.1,0.52-0.17,0.93-0.21,1.21c-0.4,1.82-0.94,3.15-1.6,4
				c-0.67,0.85-1.61,1.41-2.84,1.7L617.53,549.1z M610.17,542.41h1.18c0.69,0,1.16-0.57,1.42-1.73c0.04-0.22,0.08-0.44,0.12-0.65
				c0.04-0.21,0.06-0.39,0.06-0.53c0-0.57-0.24-0.85-0.73-0.85h-1.18L610.17,542.41z"/>
			<path class="st11" d="M635.19,533.96c1.78,0,3.24,0.46,4.39,1.38c1.15,0.92,1.73,2.22,1.73,3.89c0,0.61-0.07,1.19-0.21,1.76
				l-1.82,7.69c-0.52,2.28-1.43,3.91-2.72,4.87c-1.13,0.87-2.69,1.3-4.66,1.3h-6.21c-1.9,0-3.3-0.43-4.22-1.29
				c-0.92-0.86-1.38-2.13-1.38-3.8c0-0.99,0.13-2.02,0.39-3.09l1.33-5.72c0.53-2.2,1.28-3.85,2.27-4.93
				c1.27-1.37,3.06-2.06,5.36-2.06H635.19z M628.65,548.37c-0.06,0.28-0.09,0.52-0.09,0.73c0,0.5,0.28,0.76,0.85,0.76
				c0.38,0,0.67-0.09,0.86-0.26c0.19-0.17,0.34-0.48,0.44-0.92l2-8.51c0.04-0.24,0.06-0.4,0.06-0.49c0-0.58-0.29-0.88-0.88-0.88
				c-0.64,0-1.08,0.4-1.3,1.21L628.65,548.37z"/>
			<path class="st11" d="M649.09,548.56c-0.04,0.2-0.06,0.32-0.06,0.36c0,0.44,0.34,0.67,1.03,0.67c0.38,0,0.66-0.07,0.83-0.2
				c0.17-0.13,0.31-0.41,0.41-0.83l3-12.96c0.04-0.2-0.04-0.41-0.24-0.62c-0.2-0.21-0.41-0.32-0.64-0.32l0.15-0.7h8.42
				c0.34,0,0.59,0.09,0.74,0.26c0.15,0.17,0.23,0.42,0.23,0.74l-0.06,0.46l-3.06,13.26c-0.52,2.3-1.38,3.92-2.57,4.87
				c-1.07,0.85-2.57,1.27-4.51,1.27h-6.93c-1.84,0-3.18-0.41-4.04-1.23c-0.86-0.82-1.29-2.02-1.29-3.62c0-0.97,0.15-2.08,0.45-3.33
				l2.57-11.05c0.04-0.2-0.04-0.41-0.24-0.62s-0.41-0.32-0.64-0.32l0.15-0.7h8.42c0.34,0,0.59,0.09,0.74,0.26
				c0.15,0.17,0.23,0.42,0.23,0.74l-0.06,0.46L649.09,548.56z"/>
			<path class="st11" d="M676.85,533.96c1.86,0,3.26,0.37,4.21,1.12c0.95,0.75,1.42,1.93,1.42,3.54c0,0.44-0.02,0.85-0.06,1.21
				c-0.04,0.36-0.13,0.82-0.27,1.36c-0.65,2.78-1.37,4.63-2.18,5.52s-2.13,1.35-3.97,1.35h-6.24l-1.12,4.75l-0.09,0.58
				c0,0.22,0.09,0.4,0.27,0.54c0.18,0.14,0.39,0.21,0.64,0.21l-0.18,0.7h-8.36c-0.34,0-0.6-0.1-0.77-0.29
				c-0.17-0.19-0.26-0.45-0.26-0.77c0-0.12,0.02-0.28,0.06-0.49l4.12-17.71c0.04-0.22-0.04-0.43-0.24-0.64s-0.42-0.3-0.67-0.3
				l0.18-0.7H676.85z M670.92,543.23h0.94c0.5,0,0.88-0.16,1.12-0.47c0.24-0.31,0.46-0.91,0.67-1.8c0.12-0.52,0.18-0.94,0.18-1.24
				c0-0.4-0.09-0.68-0.26-0.83c-0.17-0.15-0.43-0.23-0.77-0.23h-0.82L670.92,543.23z"/>
		</g>
	</g>
	<g>
		<path class="st138" d="M202.36,717.57l14.14-15.64l-8.38-15.3h4.36l3.82,7.01c1.37,2.5,2.33,4.4,2.89,5.7
			c0.97-1.36,2.51-3.21,4.62-5.55l6.51-7.15h5.17l-14.32,15.99l8.11,14.96l-4.3-0.01l-4.8-9.06c-0.46-0.88-1-2.02-1.63-3.41
			c-0.68,0.94-1.57,2.03-2.68,3.27l-8.26,9.2H202.36L202.36,717.57z M247.04,714.78c-2.34,2.2-4.81,3.29-7.39,3.29
			c-1.92,0-3.51-0.59-4.76-1.77c-1.25-1.18-1.87-2.74-1.87-4.68c0-2.31,0.81-4.09,2.43-5.35c1.67-1.29,4.11-1.94,7.32-1.94
			l1.94-0.09c0.92,0,1.74-0.06,2.45-0.2c0.72-0.13,1.32-0.31,1.79-0.53c0.28-1.04,0.43-1.94,0.43-2.7c0-0.89-0.39-1.61-1.18-2.18
			c-0.79-0.57-1.94-0.86-3.45-0.86c-3.02,0-4.99,1.36-5.92,4.09l-3.7-0.34c1.53-4.59,4.79-6.88,9.78-6.88c2.4,0,4.34,0.53,5.84,1.61
			c1.5,1.07,2.24,2.47,2.24,4.22c0,1.2-0.17,2.58-0.5,4.16l-1.19,5.57c-0.19,0.96-0.33,1.77-0.43,2.43
			c-0.1,0.66-0.14,1.28-0.14,1.84c0,1,0.15,2.04,0.45,3.1h-3.7c-0.12-0.4-0.22-0.83-0.3-1.31
			C247.08,715.78,247.04,715.28,247.04,714.78L247.04,714.78z M248.39,706.21c-0.87,0.33-2.05,0.58-3.53,0.74l-2.1,0.21
			c-1.19,0-2.22,0.15-3.11,0.45c-0.79,0.25-1.39,0.61-1.82,1.05c-0.78,0.78-1.17,1.71-1.17,2.79c0,1.06,0.36,1.93,1.08,2.63
			c0.72,0.7,1.7,1.04,2.94,1.04c1.75,0,3.34-0.64,4.78-1.92C246.89,711.92,247.87,709.59,248.39,706.21L248.39,706.21z
			 M260.09,695.15h5.43l2.02,17.88l9.96-17.88h5.33l-4.59,22.41h-3.62l3.74-18.07l-10.06,18.07h-3.25l-2.12-18.76l-3.83,18.76h-3.62
			L260.09,695.15L260.09,695.15z M283.85,717.57l4.48-22.41h3.66l-0.75,3.69c2.28-2.8,4.63-4.2,7.07-4.2c1.41,0,2.56,0.35,3.43,1.06
			c0.83,0.66,1.41,1.71,1.74,3.14c1.06-1.38,2.21-2.42,3.43-3.13c1.23-0.71,2.5-1.07,3.82-1.07c1.77,0,3.1,0.43,4.01,1.28
			c0.91,0.85,1.37,2.13,1.37,3.81c0,0.74-0.16,1.87-0.47,3.4l-2.89,14.44h-3.65l2.95-14.82c0.12-0.62,0.21-1.14,0.28-1.56
			c0.07-0.43,0.1-0.77,0.1-1.04c0-0.79-0.21-1.38-0.63-1.77c-0.43-0.4-1.06-0.59-1.91-0.59c-1.24,0-2.45,0.42-3.64,1.25
			c-1.19,0.84-2.05,1.84-2.61,2.99c-0.48,1.1-0.94,2.65-1.37,4.66l-2.19,10.87h-3.65l3.03-15.14c0.21-1.08,0.32-1.82,0.32-2.19
			c0-0.76-0.24-1.36-0.69-1.79c-0.45-0.44-1.02-0.66-1.68-0.66c-0.62,0-1.23,0.11-1.83,0.32c-0.6,0.21-1.21,0.54-1.83,0.99
			c-1.19,0.86-2.1,1.92-2.7,3.21c-0.55,1.2-1.04,2.75-1.44,4.66l-2.12,10.6H283.85L283.85,717.57z M344.09,695.15h3.7l-4.64,22.41
			h-3.68L344.09,695.15L344.09,695.15z M322.94,695.15h3.65l-1.83,8.67h3.9c2.48,0,4.24,0.19,5.3,0.57
			c1.06,0.38,1.89,1.07,2.51,2.08c0.62,1.01,0.93,2.12,0.93,3.36c0,0.75-0.1,1.47-0.3,2.18c-0.2,0.71-0.52,1.41-0.95,2.11
			c-0.81,1.35-1.82,2.26-3.04,2.74c-1.21,0.47-3.1,0.71-5.67,0.71h-9.13L322.94,695.15L322.94,695.15z M322.55,714.52h4.66
			c1.8,0,3.08-0.13,3.84-0.38c0.76-0.25,1.4-0.71,1.91-1.39c0.51-0.68,0.77-1.48,0.77-2.43c0-0.86-0.23-1.58-0.67-2.17
			c-0.46-0.58-0.97-0.94-1.57-1.07c-0.27-0.06-0.69-0.1-1.25-0.14c-0.56-0.04-1.21-0.06-1.97-0.06h-4.16L322.55,714.52
			L322.55,714.52z M353.34,695.15h3.62l-1.94,9.34h9.96l1.89-9.34h3.57l-4.52,22.41h-3.64l2.08-10.03h-9.92l-2.08,10.03h-3.61
			L353.34,695.15L353.34,695.15z M381.6,717.57l9.34-11.38l-5.36-11.04h4.04l1.82,3.98c0.78,1.77,1.39,3.21,1.81,4.29l6.18-8.27
			h4.46l-9.01,11.33l5.41,11.08l-4.05,0.01l-2.14-4.57c-0.27-0.59-0.52-1.15-0.75-1.66c-0.17-0.38-0.43-1.03-0.81-1.94l-6.38,8.17
			H381.6L381.6,717.57z M409.16,717.57l-3.54-22.41h3.54l1.86,12.34c0.19,1.24,0.44,3.44,0.74,6.61c0.7-1.62,1.59-3.44,2.68-5.48
			l7.18-13.48h3.86l-12.28,22.41l-2.54,8.86l-3.7,0.09L409.16,717.57L409.16,717.57z M427.73,695.15h3.59l-0.77,3.75
			c-0.49,2.36-0.73,4.03-0.73,5c0,0.97,0.36,1.71,1.07,2.22c0.72,0.5,1.79,0.76,3.21,0.76c1.72,0,3.32-0.32,4.81-0.94l2.21-10.78
			h3.63l-4.56,22.41h-3.65l1.76-8.59c-1.82,0.63-3.52,0.94-5.1,0.94c-2.16,0-3.88-0.48-5.14-1.46c-1.26-0.97-1.89-2.35-1.89-4.14
			c0-0.75,0.32-2.82,0.97-6.22L427.73,695.15L427.73,695.15z M457.66,708.28l0.77-3.82h11.15l-0.75,3.82H457.66L457.66,708.28z
			 M480.4,717.57l16.78-30.94h4.67l4.89,30.94h-3.85l-1.43-8.9H489.5l-4.75,8.91L480.4,717.57L480.4,717.57z M491.18,705.48h9.8
			l-1.14-7.77c-0.26-1.87-0.46-3.31-0.58-4.3c-0.17-1.37-0.24-2.5-0.24-3.4c-0.69,1.82-1.68,3.92-2.95,6.31L491.18,705.48
			L491.18,705.48z M514.76,695.15h5.43l2.02,17.88l9.96-17.88h5.33l-4.58,22.41h-3.62l3.74-18.07l-10.06,18.07h-3.25l-2.12-18.76
			l-3.83,18.76h-3.62L514.76,695.15L514.76,695.15z M552.78,695.15h3.56l-1.99,9.57l0.28,0.03c0.77,0,1.5-0.34,2.2-1.02
			c0.69-0.68,1.58-1.95,2.66-3.81c1.17-2.01,2.23-3.31,3.19-3.89c0.96-0.58,1.94-0.88,2.97-0.88c0.71,0,1.46,0.13,2.26,0.38
			l-0.83,2.28c-0.49-0.19-0.89-0.3-1.21-0.3c-0.61,0-1.14,0.22-1.6,0.66c-0.45,0.44-1.04,1.34-1.75,2.69c-1.48,2.79-3.15,4.5-5,5.16
			c0.65,0.24,1.26,0.63,1.83,1.16c0.58,0.53,1.17,1.61,1.79,3.23l2.69,7.15h-3.77l-2.12-5.7c-0.64-1.77-1.23-2.97-1.77-3.59
			c-0.54-0.63-1.3-1.02-2.28-1.2l-2.19,10.49h-3.59l2.16-10.49c-0.37,0-0.72,0.06-1.05,0.17c-0.32,0.12-0.67,0.29-1.03,0.53
			c-0.65,0.43-1.75,1.69-3.27,3.78l-4.43,6.01l-4.43,0.01l5.67-7.47c1.65-2.18,3.43-3.54,5.33-4.07c-0.82-0.54-1.43-1.18-1.81-1.92
			c-0.39-0.75-0.77-2.12-1.13-4.11c-0.17-0.97-0.37-1.63-0.6-1.97c-0.23-0.34-0.58-0.5-1.04-0.5c-0.34,0-0.86,0.1-1.55,0.3
			l0.24-2.43c0.3-0.07,0.61-0.12,0.94-0.17c0.32-0.04,0.65-0.06,0.96-0.06c1.28,0,2.19,0.37,2.74,1.12
			c0.55,0.68,1.03,1.98,1.42,3.88c0.4,1.9,0.83,3.13,1.29,3.73c0.47,0.58,1.21,0.87,2.23,0.87L552.78,695.15L552.78,695.15z
			 M581.66,713.51c-2.57,3.04-5.18,4.56-7.82,4.56c-1.61,0-2.95-0.48-4.02-1.43c-1.06-0.95-1.59-2.16-1.59-3.64
			c0-1.02,0.23-2.65,0.68-4.92l2.59-12.93h3.66l-2.87,14.33c-0.24,1.18-0.37,2.13-0.37,2.82c0,0.86,0.24,1.52,0.72,1.98
			c0.5,0.44,1.22,0.66,2.16,0.66c1.4,0,2.73-0.47,3.99-1.41c1.26-0.94,2.18-2.07,2.77-3.38c0.55-1.25,1.07-3.02,1.54-5.32l1.94-9.68
			h3.65l-4.48,22.41h-3.37L581.66,713.51L581.66,713.51z M596.14,695.15h16.16l-4.57,22.41h-3.63l4-19.23h-9.01l-2.77,13.36
			c-0.47,2.29-1.1,3.89-1.9,4.8c-0.79,0.91-1.9,1.36-3.3,1.36c-0.43,0-0.9-0.02-1.4-0.06c-0.51-0.04-1.11-0.12-1.81-0.23l0.67-3.16
			l1.54,0.06c0.92,0,1.53-0.23,1.81-0.7c0.28-0.46,0.7-1.95,1.26-4.47L596.14,695.15L596.14,695.15z M613.33,717.57l4.48-22.41h3.66
			l-0.75,3.69c2.28-2.8,4.63-4.2,7.07-4.2c1.41,0,2.56,0.35,3.43,1.06c0.83,0.66,1.41,1.71,1.74,3.14c1.06-1.38,2.21-2.42,3.43-3.13
			c1.23-0.71,2.5-1.07,3.82-1.07c1.77,0,3.1,0.43,4.01,1.28c0.91,0.85,1.36,2.13,1.36,3.81c0,0.74-0.16,1.87-0.47,3.4l-2.9,14.44
			h-3.65l2.95-14.82c0.12-0.62,0.21-1.14,0.28-1.56c0.07-0.43,0.1-0.77,0.1-1.04c0-0.79-0.21-1.38-0.63-1.77
			c-0.43-0.4-1.06-0.59-1.91-0.59c-1.24,0-2.45,0.42-3.64,1.25c-1.19,0.84-2.05,1.84-2.61,2.99c-0.48,1.1-0.94,2.65-1.37,4.66
			l-2.19,10.87h-3.65l3.03-15.14c0.21-1.08,0.32-1.82,0.32-2.19c0-0.76-0.23-1.36-0.69-1.79c-0.45-0.44-1.02-0.66-1.68-0.66
			c-0.62,0-1.23,0.11-1.83,0.32c-0.6,0.21-1.21,0.54-1.83,0.99c-1.19,0.86-2.1,1.92-2.7,3.21c-0.55,1.2-1.03,2.75-1.43,4.66
			l-2.12,10.6H613.33L613.33,717.57z M673.56,695.15h3.7l-4.64,22.41h-3.68L673.56,695.15L673.56,695.15z M652.41,695.15h3.65
			l-1.83,8.67h3.9c2.48,0,4.24,0.19,5.3,0.57c1.06,0.38,1.89,1.07,2.51,2.08c0.62,1.01,0.93,2.12,0.93,3.36
			c0,0.75-0.1,1.47-0.3,2.18c-0.2,0.71-0.52,1.41-0.95,2.11c-0.81,1.35-1.82,2.26-3.04,2.74c-1.21,0.47-3.1,0.71-5.67,0.71h-9.13
			L652.41,695.15L652.41,695.15z M652.03,714.52h4.66c1.8,0,3.08-0.13,3.84-0.38c0.76-0.25,1.4-0.71,1.91-1.39
			c0.51-0.68,0.77-1.48,0.77-2.43c0-0.86-0.23-1.58-0.68-2.17c-0.46-0.58-0.97-0.94-1.57-1.07c-0.27-0.06-0.69-0.1-1.25-0.14
			c-0.56-0.04-1.21-0.06-1.97-0.06h-4.16L652.03,714.52L652.03,714.52z M682.82,695.15h3.62l-1.94,9.34h9.96l1.89-9.34h3.57
			l-4.52,22.41h-3.64l2.08-10.03h-9.92l-2.08,10.03h-3.61L682.82,695.15L682.82,695.15z M712.49,717.57l4.48-22.41h3.66l-0.75,3.69
			c2.28-2.8,4.63-4.2,7.07-4.2c1.41,0,2.56,0.35,3.43,1.06c0.83,0.66,1.41,1.71,1.74,3.14c1.06-1.38,2.21-2.42,3.43-3.13
			c1.23-0.71,2.5-1.07,3.82-1.07c1.77,0,3.1,0.43,4.01,1.28c0.91,0.85,1.36,2.13,1.36,3.81c0,0.74-0.16,1.87-0.47,3.4l-2.9,14.44
			h-3.65l2.95-14.82c0.12-0.62,0.21-1.14,0.28-1.56c0.07-0.43,0.1-0.77,0.1-1.04c0-0.79-0.21-1.38-0.63-1.77
			c-0.43-0.4-1.06-0.59-1.91-0.59c-1.24,0-2.45,0.42-3.64,1.25c-1.19,0.84-2.05,1.84-2.61,2.99c-0.48,1.1-0.94,2.65-1.37,4.66
			l-2.19,10.87h-3.65l3.03-15.14c0.21-1.08,0.32-1.82,0.32-2.19c0-0.76-0.24-1.36-0.69-1.79c-0.46-0.44-1.02-0.66-1.68-0.66
			c-0.62,0-1.23,0.11-1.83,0.32c-0.6,0.21-1.21,0.54-1.83,0.99c-1.19,0.86-2.1,1.92-2.7,3.21c-0.55,1.2-1.03,2.75-1.43,4.66
			l-2.12,10.6H712.49L712.49,717.57z M752.41,717.57l-3.54-22.41h3.54l1.86,12.34c0.19,1.24,0.44,3.44,0.74,6.61
			c0.7-1.62,1.59-3.44,2.68-5.48l7.18-13.48h3.86l-12.28,22.41l-2.54,8.86l-3.7,0.09L752.41,717.57L752.41,717.57z M773.79,695.15
			h16.16l-4.56,22.41h-3.63l4-19.23h-9.01l-2.77,13.36c-0.47,2.29-1.1,3.89-1.9,4.8c-0.79,0.91-1.9,1.36-3.3,1.36
			c-0.43,0-0.9-0.02-1.4-0.06c-0.51-0.04-1.11-0.12-1.81-0.23l0.67-3.16l1.54,0.06c0.92,0,1.53-0.23,1.81-0.7
			c0.28-0.46,0.7-1.95,1.26-4.47L773.79,695.15L773.79,695.15z M789.56,717.57l9.34-11.38l-5.36-11.04h4.04l1.82,3.98
			c0.78,1.77,1.39,3.21,1.81,4.29l6.19-8.27h4.46l-9.01,11.33l5.41,11.08l-4.05,0.01l-2.14-4.57c-0.27-0.59-0.52-1.15-0.74-1.66
			c-0.17-0.38-0.43-1.03-0.81-1.94l-6.39,8.17H789.56L789.56,717.57z M817.12,717.57l-3.54-22.41h3.54l1.86,12.34
			c0.19,1.24,0.44,3.44,0.74,6.61c0.7-1.62,1.59-3.44,2.68-5.48l7.18-13.48h3.86l-12.28,22.41l-2.54,8.86l-3.7,0.09L817.12,717.57
			L817.12,717.57z M837.8,717.57l-3.54-22.41h3.54l1.86,12.34c0.19,1.24,0.44,3.44,0.74,6.61c0.7-1.62,1.59-3.44,2.68-5.48
			l7.18-13.48h3.86l-12.28,22.41l-2.54,8.86l-3.7,0.09L837.8,717.57L837.8,717.57z M851.34,726.15l6.2-31h3.38l-0.63,3.12
			c2.15-2.42,4.33-3.63,6.52-3.63c2.02,0,3.7,0.78,5.06,2.36c1.35,1.56,2.03,3.8,2.03,6.68c0,3.94-1.05,7.33-3.17,10.15
			c-2.12,2.83-4.56,4.24-7.35,4.24c-2.55,0-4.54-1.36-5.96-4.09L855,726.15H851.34L851.34,726.15z M858.53,709.16
			c0,1.93,0.45,3.38,1.37,4.34c0.92,0.97,2.03,1.45,3.35,1.45c2.12,0,3.81-1.26,5.1-3.78c1.28-2.52,1.92-5.06,1.92-7.62
			c0-1.52-0.39-2.87-1.15-4.05c-0.77-1.18-1.89-1.77-3.37-1.77c-2.06,0-3.78,1.21-5.15,3.64
			C859.22,703.79,858.53,706.39,858.53,709.16L858.53,709.16z"/>
	</g>
	<g>
		
			<linearGradient id="SVGID_00000042006046786815422580000007653713174660286358_" gradientUnits="userSpaceOnUse" x1="59.5751" y1="596.0154" x2="59.5751" y2="681.0543">
			<stop  offset="0" style="stop-color:#3E76BB"/>
			<stop  offset="0.9672" style="stop-color:#06509E"/>
		</linearGradient>
		<path style="fill:url(#SVGID_00000042006046786815422580000007653713174660286358_);" d="M80.08,607.58c1.02,0,2-0.21,2.96-0.62
			c0.95-0.41,1.56-1,1.81-1.77h2.19l-3.81,14.59c-0.63,2.04-2.51,3.05-5.63,3.05h-5.63l-10.68,45.4c-0.13,0.63,0.16,1.29,0.86,1.95
			c0.7,0.67,1.4,1,2.1,1l-0.67,2.19H37.07c-2.04,0-3.05-1.02-3.05-3.05c0-0.25,0.06-0.76,0.19-1.53l10.78-45.97H38.4
			c-1.02,0-1.86,0.24-2.53,0.72c-0.67,0.48-1.13,1.1-1.38,1.86h-2.38l3.81-15.26c0.25-0.89,0.76-1.54,1.53-1.95
			c0.76-0.41,1.97-0.62,3.63-0.62H80.08z"/>
		
			<linearGradient id="SVGID_00000002369234507864592870000001334028694078282885_" gradientUnits="userSpaceOnUse" x1="99.2298" y1="596.0154" x2="99.2298" y2="681.0543">
			<stop  offset="0" style="stop-color:#3E76BB"/>
			<stop  offset="0.9672" style="stop-color:#06509E"/>
		</linearGradient>
		<path style="fill:url(#SVGID_00000002369234507864592870000001334028694078282885_);" d="M108.48,673.38
			c-1.65,0-2.88-0.27-3.67-0.81c-0.79-0.54-1.26-1.48-1.38-2.81l-0.86-9.73H91.51l-3.91,7.82c-0.06,0.19-0.09,0.35-0.09,0.48
			c0,0.13-0.03,0.38-0.09,0.76c0,0.57,0.27,1.06,0.81,1.48c0.54,0.41,1.16,0.62,1.86,0.62l-0.48,2.19H68.9c-2.67,0-4-1.05-4-3.15
			c0-0.57,0.16-1.18,0.48-1.81l28.04-54.36c0.19-0.38,0.29-0.86,0.29-1.43c0-0.7-0.3-1.35-0.9-1.95c-0.6-0.6-1.26-0.91-1.95-0.91
			l0.57-2.19h28.42c1.46,0,2.7,0.4,3.72,1.19c1.02,0.79,1.53,1.92,1.53,3.38l4.39,55.69c0,0.83,0.45,1.59,1.33,2.29
			c0.89,0.7,1.81,1.05,2.77,1.05l-0.48,2.19H108.48z M97.13,647.25h5.44l-0.76-10.68L97.13,647.25z"/>
		
			<linearGradient id="SVGID_00000030483950398056957500000007850445798469554088_" gradientUnits="userSpaceOnUse" x1="167.4326" y1="596.0154" x2="167.4326" y2="681.0543">
			<stop  offset="0" style="stop-color:#3E76BB"/>
			<stop  offset="0.9672" style="stop-color:#06509E"/>
		</linearGradient>
		<path style="fill:url(#SVGID_00000030483950398056957500000007850445798469554088_);" d="M188.37,607.48
			c4.26,0,7.55,1.11,9.87,3.34c2.32,2.22,3.48,5.02,3.48,8.39c0,0.51-0.05,1.08-0.14,1.72c-0.09,0.63-0.17,1.11-0.24,1.43
			c-1.46,6.99-4.45,11.22-8.97,12.68c1.84,1.15,3.2,2.4,4.05,3.77c0.86,1.37,1.29,3.39,1.29,6.06c0,2.42-0.48,5.79-1.43,10.11
			c-1.65,7.18-4.2,12.11-7.63,14.78c-3.12,2.41-7.92,3.62-14.4,3.62h-37.86c-1.08,0-1.89-0.3-2.43-0.9
			c-0.54-0.6-0.81-1.41-0.81-2.43c0-0.38,0.06-0.89,0.19-1.53l12.97-55.79c0.13-0.7-0.13-1.37-0.76-2c-0.63-0.64-1.33-0.96-2.1-0.96
			l0.57-2.19L188.37,607.48z M165.95,658.6c1.72,0,2.91-0.4,3.58-1.19c0.67-0.79,1.32-2.59,1.95-5.39c0.45-1.78,0.67-3.24,0.67-4.39
			c0-2.16-1.18-3.24-3.53-3.24h-2.67l-3.24,14.21H165.95z M172.73,631.71c1.08,0,1.84-0.3,2.29-0.91c0.45-0.6,0.86-1.7,1.24-3.29
			c0.38-1.59,0.57-2.73,0.57-3.43c0-1.65-0.92-2.48-2.76-2.48h-2.86l-2.29,10.11H172.73z"/>
		
			<linearGradient id="SVGID_00000157999402566797419220000010853211822311939755_" gradientUnits="userSpaceOnUse" x1="226.7699" y1="596.0154" x2="226.7699" y2="681.0543">
			<stop  offset="0" style="stop-color:#3E76BB"/>
			<stop  offset="0.9672" style="stop-color:#06509E"/>
		</linearGradient>
		<path style="fill:url(#SVGID_00000157999402566797419220000010853211822311939755_);" d="M236.02,673.38
			c-1.65,0-2.88-0.27-3.67-0.81c-0.79-0.54-1.26-1.48-1.38-2.81l-0.86-9.73h-11.06l-3.91,7.82c-0.06,0.19-0.09,0.35-0.09,0.48
			c0,0.13-0.03,0.38-0.09,0.76c0,0.57,0.27,1.06,0.81,1.48c0.54,0.41,1.16,0.62,1.86,0.62l-0.48,2.19h-20.69c-2.67,0-4-1.05-4-3.15
			c0-0.57,0.16-1.18,0.48-1.81l28.04-54.36c0.19-0.38,0.29-0.86,0.29-1.43c0-0.7-0.3-1.35-0.9-1.95c-0.6-0.6-1.26-0.91-1.95-0.91
			l0.57-2.19h28.42c1.46,0,2.7,0.4,3.72,1.19c1.02,0.79,1.53,1.92,1.53,3.38l4.39,55.69c0,0.83,0.45,1.59,1.33,2.29
			c0.89,0.7,1.81,1.05,2.77,1.05l-0.48,2.19H236.02z M224.67,647.25h5.44l-0.76-10.68L224.67,647.25z"/>
		
			<linearGradient id="SVGID_00000060723634913270929680000009541046480614707352_" gradientUnits="userSpaceOnUse" x1="300.2643" y1="596.0154" x2="300.2643" y2="681.0543">
			<stop  offset="0" style="stop-color:#3E76BB"/>
			<stop  offset="0.9672" style="stop-color:#06509E"/>
		</linearGradient>
		<path style="fill:url(#SVGID_00000060723634913270929680000009541046480614707352_);" d="M295.97,644.39l-5.44,23.46l-0.09,0.76
			c0,0.7,0.32,1.31,0.95,1.81c0.64,0.51,1.31,0.76,2,0.76l-0.48,2.19h-26.6c-2.1,0-3.15-1.02-3.15-3.05c0-0.32,0.06-0.86,0.19-1.62
			l13.06-55.98c0.13-0.63-0.16-1.29-0.86-1.95c-0.7-0.67-1.4-1-2.1-1l0.67-2.19h26.51c2.03,0,3.05,1.02,3.05,3.05
			c0,0.26-0.06,0.76-0.19,1.53l-4.58,19.55h6.77l4.39-18.98c0.13-0.63-0.13-1.29-0.76-1.95c-0.64-0.67-1.31-1-2-1l0.48-2.19h26.51
			c1.08,0,1.86,0.27,2.34,0.81c0.48,0.54,0.72,1.32,0.72,2.34l-0.19,1.43l-12.97,56.08c-0.13,0.63,0.16,1.29,0.86,1.95
			c0.7,0.67,1.4,1,2.1,1l-0.67,2.19h-26.51c-2.04,0-3.05-1.02-3.05-3.05c0-0.25,0.06-0.76,0.19-1.53l5.62-24.41H295.97z"/>
		
			<linearGradient id="SVGID_00000040533372821667302830000004242203865192423097_" gradientUnits="userSpaceOnUse" x1="403.9272" y1="596.0154" x2="403.9272" y2="681.0543">
			<stop  offset="0" style="stop-color:#3E76BB"/>
			<stop  offset="0.9672" style="stop-color:#06509E"/>
		</linearGradient>
		<path style="fill:url(#SVGID_00000040533372821667302830000004242203865192423097_);" d="M419.52,629.7
			c4.77,0,8.52,1.31,11.25,3.91c2.73,2.61,4.1,6.36,4.1,11.25c0,2.61-0.38,5.47-1.14,8.58c-0.76,3.12-1.68,6.01-2.76,8.68
			c-1.78,4.45-4.15,7.44-7.11,8.96c-2.96,1.53-7.26,2.29-12.92,2.29h-38.62c-1.08,0-1.89-0.3-2.43-0.9
			c-0.54-0.6-0.81-1.41-0.81-2.43c0-0.38,0.06-0.89,0.19-1.53l12.97-55.79c0.13-0.7-0.13-1.37-0.76-2c-0.63-0.64-1.34-0.96-2.1-0.96
			l0.57-2.19h58.84l-2.67,10.49c-0.32,1.27-1.21,2.31-2.67,3.1c-1.46,0.8-2.92,1.19-4.39,1.19h-22.12l-1.72,7.34H419.52z
			 M398.73,658.12h3.15c1.53,0,2.62-0.48,3.29-1.43c0.67-0.95,1.38-2.92,2.15-5.91c0.38-1.65,0.57-3.02,0.57-4.1
			c0-2.1-0.99-3.15-2.95-3.15h-2.86L398.73,658.12z"/>
		
			<linearGradient id="SVGID_00000127736671950445893670000001787899639114650255_" gradientUnits="userSpaceOnUse" x1="468.6509" y1="596.0154" x2="468.6509" y2="681.0543">
			<stop  offset="0" style="stop-color:#3E76BB"/>
			<stop  offset="0.9672" style="stop-color:#06509E"/>
		</linearGradient>
		<path style="fill:url(#SVGID_00000127736671950445893670000001787899639114650255_);" d="M482.81,607.58
			c5.59,0,10.2,1.45,13.83,4.34c3.62,2.89,5.44,6.98,5.44,12.25c0,1.91-0.22,3.75-0.67,5.53l-5.72,24.22
			c-1.65,7.18-4.51,12.3-8.58,15.35c-3.56,2.73-8.46,4.1-14.69,4.1h-19.55c-5.98,0-10.41-1.35-13.3-4.05
			c-2.89-2.7-4.34-6.69-4.34-11.97c0-3.12,0.41-6.36,1.24-9.73l4.2-18.03c1.65-6.93,4.04-12.11,7.15-15.54
			c4-4.32,9.63-6.49,16.88-6.49H482.81z M462.21,652.97c-0.19,0.89-0.29,1.65-0.29,2.29c0,1.59,0.89,2.38,2.67,2.38
			c1.21,0,2.11-0.27,2.72-0.81c0.6-0.54,1.06-1.51,1.38-2.91l6.3-26.8c0.13-0.76,0.19-1.27,0.19-1.53c0-1.84-0.92-2.77-2.77-2.77
			c-2.03,0-3.4,1.27-4.1,3.81L462.21,652.97z"/>
		
			<linearGradient id="SVGID_00000009571805807565904690000006580240187012321982_" gradientUnits="userSpaceOnUse" x1="526.081" y1="596.0154" x2="526.081" y2="681.0543">
			<stop  offset="0" style="stop-color:#3E76BB"/>
			<stop  offset="0.9672" style="stop-color:#06509E"/>
		</linearGradient>
		<path style="fill:url(#SVGID_00000009571805807565904690000006580240187012321982_);" d="M524.17,666.13
			c-0.19,0.7-0.28,1.4-0.28,2.1c0,0.76,0.36,1.45,1.09,2.05c0.73,0.6,1.48,0.9,2.24,0.9l-0.48,2.19h-27.08
			c-1.08,0-1.89-0.3-2.43-0.9c-0.54-0.6-0.81-1.41-0.81-2.43c0-0.38,0.06-0.89,0.19-1.53l12.97-55.79c0.13-0.7-0.13-1.37-0.76-2
			c-0.63-0.64-1.34-0.96-2.1-0.96l0.57-2.19h48.45l-2.48,10.68c-0.32,1.4-1.04,2.51-2.14,3.34c-1.11,0.83-2.4,1.24-3.86,1.24h-13.16
			L524.17,666.13z"/>
		
			<linearGradient id="SVGID_00000060724830110634084350000000826066852145848471_" gradientUnits="userSpaceOnUse" x1="564.7808" y1="596.0154" x2="564.7808" y2="681.0543">
			<stop  offset="0" style="stop-color:#3E76BB"/>
			<stop  offset="0.9672" style="stop-color:#06509E"/>
		</linearGradient>
		<path style="fill:url(#SVGID_00000060724830110634084350000000826066852145848471_);" d="M592.06,655.17
			c0.32,1.97,1.21,2.96,2.67,2.96h2.38L594.63,669c-0.45,1.84-1.34,3.08-2.67,3.72c-1.02,0.45-2.71,0.67-5.06,0.67h-50.54
			c-2.61,0-3.91-1.05-3.91-3.15l0.19-1.53l2.38-10.59h2.58c0.89,0,1.67-0.27,2.34-0.81c0.67-0.54,1.16-1.19,1.48-1.95l19.27-41.2
			l0.19-1.72c0-0.76-0.26-1.4-0.76-1.91c-0.51-0.51-1.15-0.76-1.91-0.76l0.48-2.19h23.08c1.34,0,2.47,0.37,3.39,1.1
			c0.92,0.73,1.45,1.64,1.58,2.72L592.06,655.17z M566.21,646.11l-4.67,12.01h5.44L566.21,646.11z"/>
		
			<linearGradient id="SVGID_00000003079322529947623140000003404347461638450101_" gradientUnits="userSpaceOnUse" x1="677.6042" y1="596.0154" x2="677.6042" y2="681.0543">
			<stop  offset="0" style="stop-color:#3E76BB"/>
			<stop  offset="0.9672" style="stop-color:#06509E"/>
		</linearGradient>
		<path style="fill:url(#SVGID_00000003079322529947623140000003404347461638450101_);" d="M659.44,663.18h-14.21
			c-4.39,0-7.77-1.59-10.16-4.77c-2.38-3.18-3.58-6.99-3.58-11.44c0-2.35,0.3-4.95,0.91-7.77c0.6-2.83,1.79-6.53,3.58-11.11
			c1.27-3.18,3.15-5.79,5.62-7.82c3.56-2.93,8.04-4.39,13.45-4.39h15.35l0.76-3.15c0.13-0.63-0.16-1.29-0.86-1.95
			c-0.7-0.67-1.4-1-2.1-1l0.57-2.19h24.79c2.04,0,3.05,1.02,3.05,3.05c0,0.26-0.06,0.76-0.19,1.53l-0.76,3.72h13.73
			c4.45,0,7.95,1.48,10.49,4.44s3.81,6.63,3.81,11.01c0,2.35-0.26,4.74-0.76,7.15c-0.7,3.24-1.94,7.15-3.72,11.73
			c-1.34,3.37-3.18,6.1-5.53,8.2c-3.56,3.18-8.04,4.77-13.45,4.77h-15.54l-0.95,3.81l-0.29,1.81c0,0.7,0.29,1.27,0.86,1.72
			c0.57,0.44,1.24,0.67,2,0.67l-0.57,2.19h-24.79c-2.04,0-3.05-1.02-3.05-3.05c0-0.25,0.06-0.76,0.19-1.53L659.44,663.18z
			 M667.07,630.66h-2.77c-1.65,0-2.89,0.62-3.72,1.86c-0.82,1.24-1.68,3.8-2.57,7.68c-0.38,1.65-0.57,2.99-0.57,4
			c0,2.48,1.11,3.72,3.34,3.72h2.29L667.07,630.66z M688.14,647.92h2.77c1.65,0,2.89-0.62,3.72-1.86c0.82-1.24,1.68-3.8,2.57-7.68
			c0.38-1.65,0.57-2.99,0.57-4c0-2.48-1.11-3.72-3.34-3.72h-2.29L688.14,647.92z"/>
		
			<linearGradient id="SVGID_00000098912533044517360730000015514273300887590071_" gradientUnits="userSpaceOnUse" x1="756.0505" y1="596.0154" x2="756.0505" y2="681.0543">
			<stop  offset="0" style="stop-color:#3E76BB"/>
			<stop  offset="0.9672" style="stop-color:#06509E"/>
		</linearGradient>
		<path style="fill:url(#SVGID_00000098912533044517360730000015514273300887590071_);" d="M746.75,664.7
			c-0.76,1.02-1.24,1.68-1.43,2c-0.38,0.63-0.57,1.27-0.57,1.9c0,0.7,0.32,1.31,0.95,1.81c0.63,0.51,1.3,0.76,2,0.76l-0.48,2.19
			h-26.61c-2.1,0-3.15-1.02-3.15-3.05c0-0.32,0.06-0.86,0.19-1.62l13.06-55.98c0.13-0.63-0.16-1.29-0.86-1.95
			c-0.7-0.67-1.4-1-2.09-1l0.66-2.19h26.51c2.03,0,3.05,1.02,3.05,3.05c0,0.26-0.06,0.76-0.19,1.53l-5.72,24.61l12.5-18.88
			c0.57-0.83,1.11-1.62,1.62-2.39c0.51-0.76,0.89-1.68,1.14-2.76c0.13-0.63-0.12-1.29-0.76-1.95c-0.63-0.67-1.3-1-2-1l0.47-2.19
			h26.51c1.08,0,1.86,0.27,2.34,0.81c0.47,0.54,0.71,1.32,0.71,2.34l-0.19,1.43l-12.97,56.08c-0.13,0.63,0.16,1.29,0.86,1.95
			c0.7,0.67,1.4,1,2.1,1l-0.67,2.19h-26.51c-2.03,0-3.05-1.02-3.05-3.05c0-0.25,0.07-0.76,0.19-1.53l5.63-24.32L746.75,664.7z"/>
		
			<linearGradient id="SVGID_00000080179754208403302340000009111696993589261697_" gradientUnits="userSpaceOnUse" x1="824.7322" y1="596.0154" x2="824.7322" y2="681.0543">
			<stop  offset="0" style="stop-color:#3E76BB"/>
			<stop  offset="0.9672" style="stop-color:#06509E"/>
		</linearGradient>
		<path style="fill:url(#SVGID_00000080179754208403302340000009111696993589261697_);" d="M820.44,644.39L815,667.85l-0.09,0.76
			c0,0.7,0.32,1.31,0.96,1.81c0.63,0.51,1.3,0.76,2,0.76l-0.47,2.19h-26.61c-2.1,0-3.15-1.02-3.15-3.05c0-0.32,0.06-0.86,0.19-1.62
			l13.06-55.98c0.13-0.63-0.16-1.29-0.86-1.95c-0.7-0.67-1.4-1-2.1-1l0.67-2.19h26.51c2.03,0,3.05,1.02,3.05,3.05
			c0,0.26-0.07,0.76-0.19,1.53l-4.58,19.55h6.77l4.39-18.98c0.13-0.63-0.13-1.29-0.76-1.95c-0.63-0.67-1.3-1-2-1l0.48-2.19h26.51
			c1.08,0,1.86,0.27,2.33,0.81c0.48,0.54,0.72,1.32,0.72,2.34l-0.19,1.43l-12.97,56.08c-0.13,0.63,0.16,1.29,0.86,1.95
			c0.7,0.67,1.4,1,2.09,1l-0.66,2.19h-26.51c-2.04,0-3.05-1.02-3.05-3.05c0-0.25,0.06-0.76,0.19-1.53l5.62-24.41H820.44z"/>
		
			<linearGradient id="SVGID_00000113350446488817073100000014838523421130486709_" gradientUnits="userSpaceOnUse" x1="886.4028" y1="596.0154" x2="886.4028" y2="681.0543">
			<stop  offset="0" style="stop-color:#3E76BB"/>
			<stop  offset="0.9672" style="stop-color:#06509E"/>
		</linearGradient>
		<path style="fill:url(#SVGID_00000113350446488817073100000014838523421130486709_);" d="M895.65,673.38
			c-1.65,0-2.88-0.27-3.68-0.81c-0.79-0.54-1.25-1.48-1.38-2.81l-0.86-9.73h-11.06l-3.91,7.82c-0.06,0.19-0.09,0.35-0.09,0.48
			c0,0.13-0.03,0.38-0.09,0.76c0,0.57,0.27,1.06,0.81,1.48c0.54,0.41,1.16,0.62,1.86,0.62l-0.48,2.19h-20.69c-2.67,0-4-1.05-4-3.15
			c0-0.57,0.16-1.18,0.47-1.81l28.04-54.36c0.19-0.38,0.28-0.86,0.28-1.43c0-0.7-0.3-1.35-0.9-1.95c-0.61-0.6-1.26-0.91-1.95-0.91
			l0.57-2.19H907c1.46,0,2.7,0.4,3.72,1.19c1.01,0.79,1.53,1.92,1.53,3.38l4.38,55.69c0,0.83,0.45,1.59,1.34,2.29
			c0.89,0.7,1.81,1.05,2.77,1.05l-0.48,2.19H895.65z M884.3,647.25h5.44l-0.76-10.68L884.3,647.25z"/>
		
			<linearGradient id="SVGID_00000029011540293199507660000013516655917358553752_" gradientUnits="userSpaceOnUse" x1="957.9914" y1="596.0154" x2="957.9914" y2="681.0543">
			<stop  offset="0" style="stop-color:#3E76BB"/>
			<stop  offset="0.9672" style="stop-color:#06509E"/>
		</linearGradient>
		<path style="fill:url(#SVGID_00000029011540293199507660000013516655917358553752_);" d="M953.7,644.39l-5.44,23.46l-0.09,0.76
			c0,0.7,0.32,1.31,0.96,1.81c0.63,0.51,1.3,0.76,2,0.76l-0.47,2.19h-26.61c-2.1,0-3.15-1.02-3.15-3.05c0-0.32,0.06-0.86,0.19-1.62
			l13.06-55.98c0.13-0.63-0.16-1.29-0.86-1.95c-0.7-0.67-1.4-1-2.1-1l0.67-2.19h26.51c2.03,0,3.05,1.02,3.05,3.05
			c0,0.26-0.07,0.76-0.19,1.53l-4.58,19.55h6.77l4.39-18.98c0.13-0.63-0.13-1.29-0.76-1.95c-0.63-0.67-1.3-1-2-1l0.48-2.19h26.51
			c1.08,0,1.86,0.27,2.33,0.81c0.48,0.54,0.72,1.32,0.72,2.34l-0.19,1.43l-12.97,56.08c-0.13,0.63,0.16,1.29,0.86,1.95
			c0.7,0.67,1.4,1,2.09,1l-0.66,2.19H957.7c-2.04,0-3.05-1.02-3.05-3.05c0-0.25,0.06-0.76,0.19-1.53l5.62-24.41H953.7z"/>
		
			<linearGradient id="SVGID_00000098928317424307612980000011067417534147095183_" gradientUnits="userSpaceOnUse" x1="1018.4202" y1="596.0154" x2="1018.4202" y2="681.0543">
			<stop  offset="0" style="stop-color:#3E76BB"/>
			<stop  offset="0.9672" style="stop-color:#06509E"/>
		</linearGradient>
		<path style="fill:url(#SVGID_00000098928317424307612980000011067417534147095183_);" d="M1033.58,657.65c0.95,0,1.95-0.24,3-0.72
			c1.05-0.48,1.67-1.07,1.86-1.77h2.19l-2.76,12.02c-0.45,2.1-1.31,3.59-2.58,4.48c-1.59,1.15-4.04,1.72-7.34,1.72h-21.46
			c-6.42,0-11.03-1.24-13.83-3.72c-2.48-2.22-3.72-5.59-3.72-10.11c0-2.93,0.51-6.48,1.53-10.68l5.25-22.98
			c1.34-5.98,3.91-10.58,7.72-13.83c3.5-2.99,7.51-4.48,12.02-4.48h32.43c-0.19,1.15-0.51,2.75-0.96,4.82
			c-0.45,2.07-0.82,3.67-1.14,4.82c-0.51,1.97-1.15,3.34-1.91,4.1c-1.01,1.02-2.67,1.53-4.96,1.53h-9.82
			c-2.29,0-3.94,0.54-4.96,1.62c-1.02,1.08-1.75,2.7-2.19,4.86l-5.25,22.6c-0.19,0.7-0.29,1.33-0.29,1.91
			c0,2.54,1.63,3.81,4.87,3.81H1033.58z"/>
	</g>
</g>
</svg>
