<?xml version="1.0" encoding="utf-8"?>
<!-- Generator: Adobe Illustrator 26.5.0, SVG Export Plug-In . SVG Version: 6.00 Build 0)  -->
<svg version="1.1" id="Layer_1" xmlns="http://www.w3.org/2000/svg" xmlns:xlink="http://www.w3.org/1999/xlink" x="0px" y="0px"
	 viewBox="0 0 1080 1080" style="enable-background:new 0 0 1080 1080;" xml:space="preserve">
<style type="text/css">
	.st0{fill-rule:evenodd;clip-rule:evenodd;}
	.st1{fill:#ED1C24;}
	.st2{fill:#E1251B;}
	.st3{fill-rule:evenodd;clip-rule:evenodd;fill:#16397B;}
	.st4{fill:#EE2745;}
	
		.st5{clip-path:url(#SVGID_00000114773349602893106280000014416196771983200392_);fill:url(#SVGID_00000094587714598617926190000014043318519249485449_);}
	
		.st6{clip-path:url(#SVGID_00000025419765799682903810000004913005076694092443_);fill:url(#SVGID_00000147201004423372432720000009347524715841361551_);}
	
		.st7{clip-path:url(#SVGID_00000093148145602868488440000006422387304403704750_);fill:url(#SVGID_00000127751835919838076150000006834477765212848313_);}
	
		.st8{clip-path:url(#SVGID_00000061451854268846595590000006031764230398313881_);fill:url(#SVGID_00000004509720479768305710000004728902120193446053_);}
	.st9{fill:#424243;}
	
		.st10{clip-path:url(#SVGID_00000046332159309117247740000004733829407299487403_);fill:url(#SVGID_00000003065477307999083330000009280746010960992903_);}
	.st11{fill:#FFFFFF;}
	
		.st12{clip-path:url(#SVGID_00000117674479902397246450000005828223655077509799_);fill:url(#SVGID_00000008143556296659201070000001258324932546273410_);}
	
		.st13{clip-path:url(#SVGID_00000080885609290652597400000003698595519632766879_);fill:url(#SVGID_00000173842513394928375110000000286789695167231125_);}
	
		.st14{clip-path:url(#SVGID_00000178894486843752537710000012327058922893553581_);fill:url(#SVGID_00000062152632506679230980000013571732755198146442_);}
	
		.st15{clip-path:url(#SVGID_00000144307554595716896840000002521763915074866571_);fill:url(#SVGID_00000029014568215176221020000001956224354007247796_);}
	
		.st16{clip-path:url(#SVGID_00000041267663331935030550000011185387217919312768_);fill:url(#SVGID_00000049195979368484470510000005231228652898637758_);}
	
		.st17{clip-path:url(#SVGID_00000000184899522205893060000011345516350496268970_);fill:url(#SVGID_00000157275150686108542630000011568312065079496868_);}
	
		.st18{clip-path:url(#SVGID_00000139975276686759183860000005134999786428191624_);fill:url(#SVGID_00000165216400167535167790000017638641452123154109_);}
	.st19{fill-rule:evenodd;clip-rule:evenodd;fill:#C8202F;}
	.st20{fill-rule:evenodd;clip-rule:evenodd;fill:#FFFFFF;}
	.st21{fill-rule:evenodd;clip-rule:evenodd;fill:#F98238;}
	.st22{filter:url(#Adobe_OpacityMaskFilter);}
	.st23{fill:url(#SVGID_00000160189952641141506530000013057200798013912205_);}
	.st24{mask:url(#SVGID_00000057114286958733535900000002841889195456846225_);fill-rule:evenodd;clip-rule:evenodd;fill:#ED1C24;}
	.st25{fill-rule:evenodd;clip-rule:evenodd;fill:#F5333F;}
	.st26{fill-rule:evenodd;clip-rule:evenodd;fill:#ED1C24;}
	.st27{fill-rule:evenodd;clip-rule:evenodd;fill:#F9A46E;}
	.st28{fill-rule:evenodd;clip-rule:evenodd;fill:#F47B26;}
	.st29{fill-rule:evenodd;clip-rule:evenodd;fill:#EB5433;}
	.st30{fill:#1A3282;}
	.st31{fill-rule:evenodd;clip-rule:evenodd;fill:#1A3282;}
	.st32{fill-rule:evenodd;clip-rule:evenodd;fill:#9D9FA2;}
	.st33{fill-rule:evenodd;clip-rule:evenodd;fill:#000303;}
	.st34{fill:#64003D;}
	.st35{fill:#536270;}
	.st36{fill-rule:evenodd;clip-rule:evenodd;fill:#64003D;}
	.st37{fill-rule:evenodd;clip-rule:evenodd;fill:#536270;}
	.st38{fill-rule:evenodd;clip-rule:evenodd;fill:#1A3382;}
	.st39{fill-rule:evenodd;clip-rule:evenodd;fill:#29387E;}
	.st40{fill-rule:evenodd;clip-rule:evenodd;fill:#F37021;}
	.st41{fill-rule:evenodd;clip-rule:evenodd;fill:#005C32;}
	.st42{fill-rule:evenodd;clip-rule:evenodd;fill:#D2AB67;}
	
		.st43{clip-path:url(#SVGID_00000155108504617745193850000011022935970940019127_);fill:url(#SVGID_00000156573537645602909230000009898365480393989821_);}
	
		.st44{clip-path:url(#SVGID_00000149358778127440699620000003713671973249332880_);fill:url(#SVGID_00000086651803656215928730000013456200619384339853_);}
	
		.st45{clip-path:url(#SVGID_00000163784776686393779010000009015302898200794764_);fill:url(#SVGID_00000116224415141096111300000002861142022607938947_);}
	.st46{fill-rule:evenodd;clip-rule:evenodd;fill:#00AEEF;}
	.st47{fill-rule:evenodd;clip-rule:evenodd;fill:#EC008C;}
	.st48{fill-rule:evenodd;clip-rule:evenodd;fill:#FFF200;}
	.st49{fill:#A7AAAC;}
	.st50{fill-rule:evenodd;clip-rule:evenodd;fill:#5C5B5B;}
	.st51{fill:#9D9D9F;}
	.st52{fill:#F04D23;}
	.st53{fill-rule:evenodd;clip-rule:evenodd;fill:#2E3192;}
	.st54{fill-rule:evenodd;clip-rule:evenodd;fill:#C4312D;}
	.st55{fill:#552715;}
	.st56{fill:#010101;}
	.st57{fill:#E31E2E;}
	.st58{fill:url(#SVGID_00000105401668506576939200000017912844113502354066_);}
	.st59{fill:url(#SVGID_00000073693562481122319840000000257745895285847694_);}
	.st60{clip-path:url(#SVGID_00000126317232434169905870000005279610961563669922_);}
	.st61{clip-path:url(#SVGID_00000004507112939860238980000000546418291734845325_);}
	.st62{clip-path:url(#SVGID_00000053515330126722205750000011651873842681402041_);}
	.st63{clip-path:url(#SVGID_00000092443038348851162130000011397883135737552002_);}
	.st64{clip-path:url(#SVGID_00000053528284553743659590000017286017371180661439_);}
	.st65{clip-path:url(#SVGID_00000160170307417935436620000005604504592214893452_);}
	.st66{clip-path:url(#SVGID_00000109019333225468024240000000589058170575154862_);}
	.st67{clip-path:url(#SVGID_00000100353519197473677990000003267731598473628603_);}
	.st68{clip-path:url(#SVGID_00000116197996857363493510000012516133041429015191_);}
	.st69{clip-path:url(#SVGID_00000060015042809433611470000008524194584074918833_);}
	.st70{clip-path:url(#SVGID_00000056388060530883118380000011246148292204434620_);}
	.st71{fill:#2650A1;}
	.st72{fill:url(#SVGID_00000109006477394709342970000003058047903354787208_);}
	.st73{fill:#FEFEFE;}
	.st74{fill:#FDFDFD;}
	.st75{fill:#FCFCFC;}
	.st76{fill:#FBFBFB;}
	.st77{fill:#FAFAFA;}
	.st78{fill:#F9F9F9;}
	.st79{fill:#F8F8F8;}
	.st80{fill:#F7F7F7;}
	.st81{fill:#F6F6F6;}
	.st82{fill:#F5F5F5;}
	.st83{fill:#F4F4F4;}
	.st84{fill:#F3F3F3;}
	.st85{fill:#F2F2F2;}
	.st86{fill:#F1F1F1;}
	.st87{fill:#F0F0F0;}
	.st88{fill:#EFEFEF;}
	.st89{fill:#EEEEEE;}
	.st90{fill:#EDEDED;}
	.st91{fill:#ECECEC;}
	.st92{fill:#EBEBEB;}
	.st93{fill:#EAEAEA;}
	.st94{fill:#E9E9E9;}
	.st95{fill:#E8E8E8;}
	.st96{fill:#E7E7E7;}
	.st97{fill:#E6E6E6;}
	.st98{fill:#E5E5E5;}
	.st99{fill:#E4E4E4;}
	.st100{fill:#E3E3E3;}
	.st101{fill:#E2E2E2;}
	.st102{fill:#E1E1E1;}
	.st103{fill:#E0E0E0;}
	.st104{fill:#DFDFDF;}
	.st105{fill:#DEDEDE;}
	.st106{fill:#DDDDDD;}
	.st107{fill:#DCDCDC;}
	.st108{fill:#DBDBDB;}
	.st109{fill:#DADADA;}
	.st110{fill:#D9D9D9;}
	.st111{fill:#D92231;}
	.st112{fill:url(#SVGID_00000093139933900700700950000000173157081494437012_);}
	.st113{fill:url(#SVGID_00000070799197605886905280000006568249159764145797_);}
	.st114{opacity:0.8;}
	.st115{fill:url(#SVGID_00000183961170559053450140000001247884082618944391_);}
	.st116{fill:url(#SVGID_00000024701341726359803040000007084802291046616463_);}
	.st117{fill-rule:evenodd;clip-rule:evenodd;fill:#010101;}
	.st118{fill:#80A845;}
	.st119{fill-rule:evenodd;clip-rule:evenodd;fill:#80A845;}
	.st120{fill:url(#SVGID_00000101784442182123084540000011644864806120409767_);}
	.st121{fill-rule:evenodd;clip-rule:evenodd;fill:#04984A;}
	.st122{fill-rule:evenodd;clip-rule:evenodd;fill:url(#SVGID_00000157271021117351807930000014367425005640237704_);}
	.st123{fill:url(#SVGID_00000034085057962829480310000000711671113845536663_);}
	.st124{fill:url(#SVGID_00000177486399394339966030000016045576465483370371_);}
	.st125{fill:url(#SVGID_00000043455261018074901020000016473238588161803691_);}
	.st126{fill:url(#SVGID_00000147910183015660675290000002218297876928161716_);}
	.st127{fill:url(#SVGID_00000029752715895362719150000004428332688318720901_);}
	.st128{fill:url(#SVGID_00000041283559768285449110000011443632270469397420_);}
	.st129{fill:url(#SVGID_00000121262536236058440190000007072538795369011360_);}
	.st130{fill:url(#SVGID_00000083772795822870193520000008092396586809488048_);}
	.st131{fill:url(#SVGID_00000164481729598534606820000018419226108228522934_);}
	.st132{fill:url(#SVGID_00000179636292649919294790000003189198070997058470_);}
	.st133{fill:url(#SVGID_00000175323569215032809480000010468264791648316336_);}
	.st134{fill:url(#SVGID_00000158020758368740936610000009238210007806511238_);}
	.st135{fill:url(#SVGID_00000018217360255044852510000016670277895722306190_);}
	.st136{fill:url(#SVGID_00000074424456808343535220000008517957996217108884_);}
	.st137{fill-rule:evenodd;clip-rule:evenodd;fill:url(#SVGID_00000082336202775965890070000013624638265592739719_);}
	.st138{fill:#0A529D;}
	.st139{fill:url(#SVGID_00000070838077666223814720000012118466848882073473_);}
	.st140{fill:url(#SVGID_00000088101957526787811000000011474736484210565548_);}
	.st141{fill:url(#SVGID_00000140735081847708062290000012752559604104771507_);}
	.st142{fill:url(#SVGID_00000016051586207509494740000012685542622792260747_);}
	.st143{fill:url(#SVGID_00000175292937913534144770000017946943749438708873_);}
	.st144{fill:url(#SVGID_00000170250551959631004330000008332052584766307726_);}
	.st145{fill:url(#SVGID_00000021814702516936251750000008320029636311611315_);}
	.st146{fill:url(#SVGID_00000047036354953705411620000012042151250801237940_);}
	.st147{fill:url(#SVGID_00000080886901988398703120000012142731571488356267_);}
	.st148{fill:url(#SVGID_00000139973663088616639310000000190785342198141339_);}
	.st149{fill:url(#SVGID_00000068642303374923552630000011733385586819268243_);}
	.st150{fill:url(#SVGID_00000023973159165341362110000016434906958934540220_);}
	.st151{fill-rule:evenodd;clip-rule:evenodd;fill:url(#SVGID_00000181063392508606120070000015137601471615654545_);}
	.st152{fill:url(#SVGID_00000173865782801377919800000014588617993375452804_);}
	.st153{fill:url(#SVGID_00000145021566062004362270000011084376564758980030_);}
	.st154{fill:url(#SVGID_00000172411178797749480340000003882434654716278189_);}
	.st155{fill:url(#SVGID_00000129165764742314844030000013798414173221698177_);}
	.st156{fill:url(#SVGID_00000085955394201721516500000010517541965759468418_);}
	.st157{fill:url(#SVGID_00000178201206278440825030000005484861033601746056_);}
	.st158{fill:url(#SVGID_00000011014014185700546930000000673028456074415242_);}
	.st159{fill:url(#SVGID_00000011008338861579551590000001828288254205023891_);}
	.st160{fill:url(#SVGID_00000014615948701877657290000001572472827990296721_);}
	.st161{fill:url(#SVGID_00000008149755231549399440000014312438489722027688_);}
	.st162{fill:url(#SVGID_00000176009689291960835190000007222432757580180357_);}
	.st163{fill:url(#SVGID_00000035518212414845139420000011719175916486377346_);}
	.st164{fill:url(#SVGID_00000182487524713924071930000001304120245591235975_);}
	.st165{fill:url(#SVGID_00000147215050994490740920000015433205329294583230_);}
	.st166{fill:url(#SVGID_00000175287938017309207650000000807307179840892602_);}
	.st167{fill:url(#SVGID_00000053506186345192546890000016699827908210202005_);}
	.st168{fill:url(#SVGID_00000112598005091701094670000000894690947028439705_);}
	.st169{fill-rule:evenodd;clip-rule:evenodd;fill:url(#SVGID_00000173856328672184190900000011501561037200473224_);}
	.st170{fill:url(#SVGID_00000141425933093542683470000018332414573284021685_);}
	.st171{fill:url(#SVGID_00000129926636093605842140000014622790493162437257_);}
	.st172{fill:url(#SVGID_00000145756611897238316720000017089960260349851049_);}
	.st173{fill:url(#SVGID_00000158708776888530055290000013154613760493167275_);}
	.st174{fill:url(#SVGID_00000113353583177333710960000016562036456690034319_);}
	.st175{fill:url(#SVGID_00000175290184106673294480000018182117517016640674_);}
	.st176{fill:url(#SVGID_00000010287862720282030810000012129576890512816804_);}
	.st177{fill:url(#SVGID_00000119801020032475068230000008523783245845517455_);}
	.st178{fill:url(#SVGID_00000078038171948067234800000009971644247485144236_);}
	.st179{fill:url(#SVGID_00000128465552732324336720000017337095394045808807_);}
	.st180{fill:url(#SVGID_00000141431247591635560210000010486038789272819106_);}
	.st181{fill:url(#SVGID_00000103251770467942422150000003622220316648876174_);}
	.st182{fill:url(#SVGID_00000029039906881223759100000014684550471672693677_);}
	.st183{fill:url(#SVGID_00000131350605295738330190000003326121912313468843_);}
	.st184{fill-rule:evenodd;clip-rule:evenodd;fill:url(#SVGID_00000059294557568181743760000015117873359256976827_);}
	.st185{fill:url(#SVGID_00000002373497895403304340000016321623373746483364_);}
	.st186{fill:url(#SVGID_00000008851233595832221080000001450438326873269917_);}
	.st187{fill:url(#SVGID_00000132089018301381826570000001387759822488588164_);}
	.st188{fill:url(#SVGID_00000088824108224622585630000006759887120382698418_);}
	.st189{fill:url(#SVGID_00000016784945364916797470000010461923871226505387_);}
	.st190{fill:url(#SVGID_00000135666263348712964780000017294679734959995013_);}
	.st191{fill:url(#SVGID_00000161617152288765174130000004916985879601723326_);}
	.st192{fill:url(#SVGID_00000168109420654801324640000006588978634448148924_);}
	.st193{fill:url(#SVGID_00000064329847824477631290000015668506414386593934_);}
	.st194{fill:url(#SVGID_00000114758481017535923260000016779081892073839781_);}
	.st195{fill:url(#SVGID_00000054252906920827563680000000021899157070946718_);}
	.st196{fill:url(#SVGID_00000098196414600103012850000016764120301610534280_);}
	.st197{fill:url(#SVGID_00000013175307378842573190000004674327659550126508_);}
	.st198{fill:url(#SVGID_00000003819791040072244590000004817289708512699293_);}
	.st199{fill:url(#SVGID_00000106144121356831106810000003102333480523537340_);}
	.st200{fill:url(#SVGID_00000088117600798217072910000011483420427780695736_);}
	.st201{fill:url(#SVGID_00000023982924672322668290000009304157703219109000_);}
	.st202{fill:url(#SVGID_00000010286259746808618080000008361765290673984388_);}
	.st203{fill:url(#SVGID_00000104676878674769376510000010377365187488601776_);}
	.st204{fill-rule:evenodd;clip-rule:evenodd;fill:url(#SVGID_00000009559901444787108830000012462989263550036885_);}
	.st205{fill:url(#SVGID_00000083047222062722244450000018273844495918997934_);}
	.st206{fill:url(#SVGID_00000076582253658732374120000015661150020889876898_);}
	.st207{fill:url(#SVGID_00000178915016852911834660000014661250416614810035_);}
	.st208{fill:url(#SVGID_00000114775260055329077020000007248346945218284192_);}
	.st209{fill:url(#SVGID_00000089534111357687924620000011336925088106817453_);}
	.st210{fill:url(#SVGID_00000088112350304098304960000001006688046811273897_);}
	.st211{fill:url(#SVGID_00000057851367318860578520000004956484864848383667_);}
	.st212{fill:url(#SVGID_00000012463953222141859940000005011876455846224030_);}
	.st213{fill:url(#SVGID_00000023265405230141032890000000333646855727732366_);}
	.st214{fill:url(#SVGID_00000033326776968486824410000014862684988493791879_);}
	.st215{fill:url(#SVGID_00000177470974224992982820000015728927220770151055_);}
	.st216{fill:url(#SVGID_00000155143477492511340950000018052905852759678654_);}
	.st217{fill:url(#SVGID_00000128449394403418168770000015335374196794262919_);}
	.st218{fill:url(#SVGID_00000119075909166916334400000005343390854839987593_);}
	.st219{fill:url(#SVGID_00000161609818122466789260000009327864727338223497_);}
	.st220{fill:url(#SVGID_00000001625444132871032160000011128898691766889608_);}
	.st221{fill-rule:evenodd;clip-rule:evenodd;fill:url(#SVGID_00000169540962713138260160000011147085838712254614_);}
	.st222{fill:url(#SVGID_00000125571432595785433740000012844057877002824629_);}
	.st223{fill:url(#SVGID_00000124147994544083826060000016691913915646498742_);}
	.st224{fill:url(#SVGID_00000041257925327476821640000012198462889992526466_);}
	.st225{fill:url(#SVGID_00000001651988619986264720000011194046287100592294_);}
	.st226{fill:url(#SVGID_00000095333369061751176110000007310850984950975117_);}
	.st227{fill:url(#SVGID_00000066509111935946464000000017805040481710396856_);}
	.st228{fill:url(#SVGID_00000173845151949513234610000002609487067452739755_);}
	.st229{fill:url(#SVGID_00000124877086137593131290000016356070991223998609_);}
	.st230{fill:url(#SVGID_00000014605059149403261790000000109618930344709290_);}
	.st231{fill:url(#SVGID_00000129192622054006248660000012922501949895156402_);}
	.st232{fill:url(#SVGID_00000080916937398585348690000014598173562611794586_);}
	.st233{fill:url(#SVGID_00000135655759322410680500000001037336709125247674_);}
	.st234{fill:url(#SVGID_00000128480066336101172320000002986543543207889567_);}
	.st235{fill:url(#SVGID_00000162349537785222775550000009687833545500672164_);}
	.st236{fill:url(#SVGID_00000141442213119602216360000002785489543331088275_);}
	.st237{fill-rule:evenodd;clip-rule:evenodd;fill:url(#SVGID_00000109003010206363353430000014028220200925975479_);}
	.st238{fill:url(#SVGID_00000170992479916248839740000014035805384397332655_);}
	.st239{fill:url(#SVGID_00000042704910336095133810000001698469270074624906_);}
	.st240{fill:url(#SVGID_00000094586616656608014390000003788543514999660966_);}
	.st241{fill:url(#SVGID_00000003789143588268529810000013605683362813271463_);}
	.st242{fill:url(#SVGID_00000008134794166245279530000002357566859425718970_);}
	.st243{fill:url(#SVGID_00000038374398191231491400000011155634599358014885_);}
	.st244{fill:url(#SVGID_00000145748009197826908570000013419236926332923025_);}
	.st245{fill:url(#SVGID_00000013883699538193138200000017666622323225176206_);}
	.st246{fill:url(#SVGID_00000003100950999707646440000016616860446879633040_);}
	.st247{fill:url(#SVGID_00000038380182010612930710000008083224760347928461_);}
	.st248{fill:url(#SVGID_00000065052573004218654610000015324598439332603839_);}
	.st249{fill:url(#SVGID_00000004546769195565208120000004512777297703303100_);}
	.st250{fill:url(#SVGID_00000138569175389166075930000008819887621030023595_);}
	.st251{fill:url(#SVGID_00000128452283736830496140000005862809849688141447_);}
	.st252{fill:url(#SVGID_00000148628812190233340980000004874493765185089435_);}
	.st253{fill-rule:evenodd;clip-rule:evenodd;fill:url(#SVGID_00000040562512226707955810000007967709923774868137_);}
	.st254{fill:url(#SVGID_00000026859136862090036110000005643275619542642878_);}
	.st255{fill:url(#SVGID_00000047059176707931509560000001377516083000629418_);}
	.st256{fill:url(#SVGID_00000097478054660492088320000011494392024994464673_);}
	.st257{fill:url(#SVGID_00000145736980254939624480000010271451923089008004_);}
	.st258{fill:url(#SVGID_00000084501108358369354930000014795023873808381617_);}
	.st259{fill:url(#SVGID_00000087371344397073706760000005367536652386497448_);}
	.st260{fill:url(#SVGID_00000071524400037891945980000012941568814790402950_);}
	.st261{fill:url(#SVGID_00000106128240886308581610000005294049875188269242_);}
	.st262{fill:url(#SVGID_00000000914840478352551370000003865463843985827220_);}
	.st263{fill:url(#SVGID_00000047759786994717098150000015148866510233024933_);}
	.st264{fill:url(#SVGID_00000177456156509945466470000001478018739643020422_);}
	.st265{fill:url(#SVGID_00000150103451165789390590000014979426035940217265_);}
	.st266{fill:url(#SVGID_00000081611517293838967300000008190971880077093003_);}
	.st267{fill:url(#SVGID_00000017498037047090180670000011320833000806652288_);}
	.st268{fill:url(#SVGID_00000104684601602014994010000013078782800498070462_);}
	.st269{fill-rule:evenodd;clip-rule:evenodd;fill:url(#SVGID_00000057116435078434737610000002132336009963306401_);}
	.st270{fill:url(#SVGID_00000071558798090765506000000002769293730279272864_);}
	.st271{fill:url(#SVGID_00000139276492704924502510000004617585156097951661_);}
	.st272{fill:url(#SVGID_00000165930744133885867790000015695626528837123972_);}
	.st273{fill:url(#SVGID_00000135660953659857033720000015257603594601882529_);}
	.st274{fill:url(#SVGID_00000099658489497741322420000000409815188860135853_);}
	.st275{fill:url(#SVGID_00000091719031137668330030000014463283037781928361_);}
	.st276{fill:url(#SVGID_00000133506389897903307940000001845988756398160005_);}
	.st277{fill:url(#SVGID_00000151506013755163631250000005429089754210681270_);}
	.st278{fill:url(#SVGID_00000096052174059355805880000017684221255909657263_);}
	.st279{fill:url(#SVGID_00000008830920946465089490000001177987906183403705_);}
	.st280{fill:url(#SVGID_00000085949059536268238820000010718596431981859485_);}
	.st281{fill:url(#SVGID_00000025409187614303934580000011659867575896156596_);}
	.st282{fill:url(#SVGID_00000169524196602917600840000004712180171219594415_);}
	.st283{fill:url(#SVGID_00000183226667875535747920000009017443170919109293_);}
	.st284{fill:url(#SVGID_00000101785281311150556320000001878138179608696723_);}
	.st285{fill-rule:evenodd;clip-rule:evenodd;fill:url(#SVGID_00000160885547003353552980000014832730082785839260_);}
	.st286{fill:url(#SVGID_00000115482252146670698230000013036762510191640198_);}
	.st287{fill:url(#SVGID_00000094613244032101863150000016955168830367603902_);}
	.st288{fill:url(#SVGID_00000031890495033249182790000008920227126598904716_);}
	.st289{fill:url(#SVGID_00000116932835535225843030000003870405124479377041_);}
	.st290{fill:url(#SVGID_00000105427894206801715440000012356132514762873768_);}
	.st291{fill:url(#SVGID_00000101785986250427186910000016507918888306211463_);}
	.st292{fill:url(#SVGID_00000104698455522452096710000014237506665595468168_);}
	.st293{fill:url(#SVGID_00000133503500682858340750000008970098527939718819_);}
	.st294{fill:url(#SVGID_00000087383128129439265610000016629153302471980981_);}
	.st295{fill:url(#SVGID_00000035500985049147047120000000112586658636874145_);}
	.st296{fill:url(#SVGID_00000042007963662180298330000011687258367663266978_);}
	.st297{fill:url(#SVGID_00000040536561961257872240000007744859793741449626_);}
	.st298{fill:url(#SVGID_00000095302073481936353420000015046057013167500983_);}
	.st299{fill:url(#SVGID_00000176032995330823910900000003886136538515880329_);}
	.st300{fill:url(#SVGID_00000105393328359209933690000014734087394674936737_);}
	.st301{fill:url(#SVGID_00000085227723607736942770000005422846132647869097_);}
	.st302{fill:url(#SVGID_00000140729463421200196480000006491737342758095766_);}
	.st303{fill:url(#SVGID_00000124870754749820506000000009738352348105844877_);}
	.st304{fill-rule:evenodd;clip-rule:evenodd;fill:url(#SVGID_00000089554100682150136200000018218025704898917564_);}
	.st305{fill:url(#SVGID_00000022547253743156267940000004741092160129464725_);}
	.st306{fill:url(#SVGID_00000147921424871297052180000017672362471505591709_);}
	.st307{fill:url(#SVGID_00000173877973735122200680000005201632702897328001_);}
	.st308{fill:url(#SVGID_00000178202717858178590170000015490754287570919825_);}
	.st309{fill:url(#SVGID_00000173865722061575327630000014680170497499410590_);}
	.st310{fill:url(#SVGID_00000137121868877651583480000002572798296020676028_);}
	.st311{fill:url(#SVGID_00000007414237154279111540000007212962350701551785_);}
	.st312{fill:url(#SVGID_00000067946592187516726490000009371170628236104331_);}
	.st313{fill:url(#SVGID_00000078744420887135961200000015768404757835612043_);}
	.st314{fill:url(#SVGID_00000053541416205571260450000001428359401461680800_);}
	.st315{fill:url(#SVGID_00000027570919206241432340000009685581415385138604_);}
	.st316{fill:url(#SVGID_00000145774883933788881180000011141030835622530995_);}
	.st317{fill:url(#SVGID_00000096017750187104123860000005086170584610757545_);}
	.st318{fill:url(#SVGID_00000175291676342386631960000002226938062363672192_);}
	.st319{fill:url(#SVGID_00000057867419180697668910000012988122342688417938_);}
	.st320{fill:url(#SVGID_00000147909562864197614490000017366157296974470333_);}
	.st321{fill:url(#SVGID_00000134227324689255635110000001569526848761607088_);}
	.st322{fill:url(#SVGID_00000047749312416449226660000004010133816292473736_);}
	.st323{fill:url(#SVGID_00000128471140096706795180000014630667241927130289_);}
	.st324{fill:url(#SVGID_00000052800568861468702530000015218784881901782449_);}
	.st325{fill-rule:evenodd;clip-rule:evenodd;fill:url(#SVGID_00000039135441694026251230000015537562065880616885_);}
	.st326{fill:url(#SVGID_00000044175547050421952670000008464148964901690800_);}
	.st327{fill:url(#SVGID_00000176014168665339427020000002048907070232026808_);}
	.st328{fill:url(#SVGID_00000079464060600741771140000016046053015339438211_);}
	.st329{fill:url(#SVGID_00000146480277807565523240000016033608951790720423_);}
	.st330{fill:url(#SVGID_00000030444566008718234970000007832878365939556993_);}
	.st331{fill:url(#SVGID_00000131362765327332737980000009441048028423065777_);}
	.st332{fill:url(#SVGID_00000008116993124303230500000015374531437789982877_);}
	.st333{fill:url(#SVGID_00000026152453730643910430000003279677574402570633_);}
	.st334{fill:url(#SVGID_00000093142193643084777110000005316146796809516731_);}
	.st335{fill:url(#SVGID_00000057868711097985108260000011996708753115214754_);}
	.st336{fill:url(#SVGID_00000114768535305780592970000000840927348389109433_);}
	.st337{fill:url(#SVGID_00000026852891911700941470000017689953868936143276_);}
	.st338{fill:url(#SVGID_00000170245259848698678310000016214834532088795306_);}
	.st339{fill:url(#SVGID_00000167356129896374696480000015022505886054615475_);}
	.st340{fill:url(#SVGID_00000099639334944692367980000002898849758538130077_);}
	.st341{fill:url(#SVGID_00000023981655845091346270000017669090604471789187_);}
	.st342{fill-rule:evenodd;clip-rule:evenodd;fill:url(#SVGID_00000024687395776917046310000007877850324154319014_);}
	.st343{fill:url(#SVGID_00000121977690681096785140000003118476568931425209_);}
	.st344{fill:url(#SVGID_00000122687377715974678460000005796156120773547669_);}
	.st345{fill:url(#SVGID_00000008862067554066017740000009591765671241562499_);}
	.st346{fill:url(#SVGID_00000100361673158131160620000001918260151408824752_);}
	.st347{fill:url(#SVGID_00000171709521020963926840000017325490686711327896_);}
	.st348{fill:url(#SVGID_00000152952715910086006280000009584352555837680808_);}
	.st349{fill:url(#SVGID_00000088816420928649515060000014843811075568677252_);}
	.st350{fill:url(#SVGID_00000044867365264460918650000011419601580297351349_);}
	.st351{fill:url(#SVGID_00000082361741324979418780000013101338248424275895_);}
	.st352{fill:url(#SVGID_00000170978249135306704950000008608610325918378121_);}
	.st353{fill:url(#SVGID_00000054947409067164496250000004861749184531341754_);}
	.st354{fill:url(#SVGID_00000028313000894628981520000000823328765946958774_);}
	.st355{fill:url(#SVGID_00000173122057900297588100000010351972786604013743_);}
	.st356{fill:url(#SVGID_00000147216065845298279260000007220817921236140725_);}
	.st357{fill:url(#SVGID_00000100352903688397026600000004692612174448265636_);}
	.st358{fill:url(#SVGID_00000057123881762021360090000011718107189570985129_);}
	.st359{fill:url(#SVGID_00000132767240164353095060000003984715725951331505_);}
	.st360{fill:url(#SVGID_00000055705175096982429240000003519316009828548010_);}
	.st361{fill:url(#SVGID_00000005966403569012489640000006495924591173852330_);}
	.st362{fill:url(#SVGID_00000135665143724107251680000012889620933215502012_);}
	.st363{fill:#C1282D;}
	.st364{fill-rule:evenodd;clip-rule:evenodd;fill:url(#SVGID_00000127755794451836882440000014059005922665625984_);}
	.st365{fill:url(#SVGID_00000150822683088898472940000004449100296167568513_);}
	.st366{fill:url(#SVGID_00000036960877143848486600000005807883003243608245_);}
	.st367{fill:url(#SVGID_00000124882859323230687350000000031045528885093036_);}
	.st368{fill:url(#SVGID_00000163767529903836453690000015991516090823327418_);}
	.st369{fill:url(#SVGID_00000092431289798778883540000014488777790018291851_);}
	.st370{fill:url(#SVGID_00000125563452312892076140000018190947612702461831_);}
	.st371{fill:url(#SVGID_00000039818356575745863660000002245016169585784980_);}
	.st372{fill:url(#SVGID_00000038390494032162914100000016038363744657081781_);}
	.st373{fill:url(#SVGID_00000178193586230488603720000001083884130172250258_);}
	.st374{fill:url(#SVGID_00000004515436799924574170000004552168887643652515_);}
	.st375{fill:url(#SVGID_00000183968382531961834140000013375181292719829668_);}
	.st376{fill:url(#SVGID_00000005260295754715499700000009256263791534181288_);}
	.st377{fill:url(#SVGID_00000027601248312640862690000005998878766599893687_);}
	.st378{fill:url(#SVGID_00000023257083482226234310000012305857199260723597_);}
	.st379{fill:url(#SVGID_00000078009053222729542950000009302041563038120592_);}
	.st380{fill:url(#SVGID_00000087372165920251183430000012912072689214243775_);}
	.st381{fill-rule:evenodd;clip-rule:evenodd;fill:url(#SVGID_00000018200712164482912440000017823154624284904598_);}
	.st382{fill:url(#SVGID_00000181081585663618475980000003116254029569059498_);}
	.st383{fill:url(#SVGID_00000129176927527064793630000010632772177660480130_);}
	.st384{fill:url(#SVGID_00000166643085289904381980000013750026820514681786_);}
	.st385{fill:url(#SVGID_00000098923442179589977360000000765456152357551523_);}
	.st386{fill:url(#SVGID_00000156554257332744378840000014361319381721520803_);}
	.st387{fill:url(#SVGID_00000034058957474888737610000007736678739455402379_);}
	.st388{fill:url(#SVGID_00000042013982382061602900000005983136814957283485_);}
	.st389{fill:url(#SVGID_00000037681256000987136450000009252697365878792093_);}
	.st390{fill:url(#SVGID_00000136380386270445617740000000914548765712331663_);}
	.st391{fill:url(#SVGID_00000132072271620309659500000009398502353668945816_);}
	.st392{fill:url(#SVGID_00000053513337242035079880000017331708090137360565_);}
	.st393{fill:url(#SVGID_00000059294754777028134940000013029794965319690675_);}
	.st394{fill:url(#SVGID_00000057830867042098208850000014096027328587456661_);}
	.st395{fill:url(#SVGID_00000117636237926039596260000017748088724188105611_);}
	.st396{fill:url(#SVGID_00000072258378457311241750000002887839506738354345_);}
	.st397{fill:url(#SVGID_00000014635602218437258890000013040439469978831768_);}
	.st398{fill:url(#SVGID_00000096054232867430877540000004231624528691328943_);}
	.st399{fill:url(#SVGID_00000028325631004585563050000001957966771686882215_);}
	.st400{fill:url(#SVGID_00000150068708683270188520000004021118167423663779_);}
	.st401{fill:url(#SVGID_00000045604481003304858350000010504848158681538194_);}
</style>
<g>
	<g>
		<ellipse class="st11" cx="540" cy="462.71" rx="248.85" ry="123.48"/>
		<path class="st121" d="M776.45,501.16c-32.6,49.38-126.12,85.03-236.45,85.03c-110.94,0-204.87-36.03-236.98-85.87l2.43-0.76
			l11.45-3.58l80.85-25.38l-7.61,21.15c-0.65,1.79,1.18,3.5,2.93,2.74l71.37-30.82l-24.2,35.8c-1.33,1.94,0.95,4.34,2.97,3.08
			l71.64-44.25v26.86c0,1.9,2.28,2.89,3.69,1.56l7.34-6.96l11.57,26.86c0.72,1.67,3.08,1.79,3.96,0.15l18.76-35.8l87.05,44.02
			c1.98,1.03,4.03-1.29,2.78-3.16l-22.94-34.39c-0.53-0.76-0.49-1.79,0.08-2.51l9.89-13.43l11.53,14.34
			c1.03,1.26,2.97,1.03,3.69-0.42l6.09-12.36L711.01,502c1.22,0.88,2.97,0.3,3.39-1.14l5.48-18.03l56.38,18.22
			c0.04,0,0.08,0.04,0.08,0.04C776.37,501.13,776.41,501.13,776.45,501.16z"/>
		
			<linearGradient id="SVGID_00000015331453341453525550000001945588988847616949_" gradientUnits="userSpaceOnUse" x1="437.8209" y1="343.7333" x2="683.0972" y2="623.9105">
			<stop  offset="0" style="stop-color:#3E76BB"/>
			<stop  offset="1" style="stop-color:#06509E"/>
		</linearGradient>
		<path style="fill-rule:evenodd;clip-rule:evenodd;fill:url(#SVGID_00000015331453341453525550000001945588988847616949_);" d="
			M788.85,462.91c0,1.18-0.04,2.32-0.11,3.46c-0.04,0.99-0.11,1.94-0.23,2.89c-0.08,0.87-0.19,1.75-0.3,2.63
			c-0.08,0.61-0.19,1.22-0.3,1.83c-0.34,2.13-0.84,4.26-1.45,6.35c-0.19,0.76-0.42,1.52-0.65,2.24c-0.08,0.27-0.15,0.53-0.27,0.8
			c-0.3,0.95-0.65,1.9-0.99,2.82c-0.27,0.72-0.57,1.48-0.91,2.21c-0.08,0.23-0.19,0.49-0.3,0.72l-0.11-0.04l-0.08-0.04
			l-160.28-77.76c-0.99-0.46-2.17-0.15-2.78,0.76l-21.53,32.15l-57.37-70.5c-0.8-0.91-2.17-1.07-3.08-0.27l-79.7,66.81l-37.78-3.61
			c-0.61-0.08-1.22,0-1.79,0.27c-10.39,4.68-115.05,52.08-121.02,54.78c-0.27-0.49-0.49-0.95-0.68-1.45
			c-0.3-0.69-0.61-1.41-0.91-2.13c-0.61-1.45-1.18-2.93-1.64-4.38c-0.3-0.87-0.57-1.71-0.8-2.59c-0.87-2.82-1.48-5.67-1.9-8.56
			c-0.3-1.9-0.49-3.84-0.61-5.78c-0.08-1.18-0.11-2.4-0.11-3.61c0-68.29,111.4-123.68,248.85-123.68
			C677.46,339.23,788.85,394.62,788.85,462.91z"/>
		<g>
			<path class="st11" d="M401.94,528.53c0.34,0,0.67-0.07,0.98-0.21c0.32-0.14,0.52-0.33,0.6-0.59h0.73l-1.27,4.86
				c-0.21,0.68-0.84,1.02-1.87,1.02h-1.87l-3.56,15.12c-0.04,0.21,0.05,0.43,0.28,0.65c0.23,0.22,0.47,0.33,0.7,0.33l-0.22,0.73
				h-8.83c-0.68,0-1.02-0.34-1.02-1.02c0-0.09,0.02-0.25,0.06-0.51l3.59-15.31h-2.19c-0.34,0-0.62,0.08-0.84,0.24
				c-0.22,0.16-0.38,0.37-0.46,0.62h-0.79l1.27-5.08c0.08-0.3,0.25-0.51,0.51-0.65c0.25-0.14,0.66-0.21,1.21-0.21H401.94z"/>
			<path class="st11" d="M412.13,550.44c-0.55,0-0.96-0.09-1.22-0.27c-0.27-0.18-0.42-0.49-0.46-0.94l-0.29-3.24h-3.68l-1.3,2.6
				c-0.02,0.06-0.03,0.12-0.03,0.16s-0.01,0.13-0.03,0.25c0,0.19,0.09,0.35,0.27,0.49c0.18,0.14,0.39,0.21,0.62,0.21l-0.16,0.73
				h-6.89c-0.89,0-1.33-0.35-1.33-1.05c0-0.19,0.05-0.39,0.16-0.6l9.34-18.1c0.06-0.13,0.09-0.29,0.09-0.48
				c0-0.23-0.1-0.45-0.3-0.65s-0.42-0.3-0.65-0.3l0.19-0.73h9.46c0.49,0,0.9,0.13,1.24,0.4c0.34,0.26,0.51,0.64,0.51,1.13
				l1.46,18.54c0,0.27,0.15,0.53,0.45,0.76c0.3,0.23,0.6,0.35,0.92,0.35l-0.16,0.73H412.13z M408.35,541.74h1.81l-0.25-3.56
				L408.35,541.74z"/>
			<path class="st11" d="M418.96,530.5c-0.04-0.38-0.19-0.68-0.43-0.9s-0.51-0.33-0.81-0.33l0.16-0.73h8.86
				c0.27,0,0.54,0.14,0.79,0.41c0.25,0.27,0.38,0.57,0.38,0.89l0.25,8.32l3.11-7.27l0.13-0.51c0-0.25-0.09-0.5-0.27-0.75
				c-0.18-0.24-0.39-0.37-0.62-0.37l0.16-0.73h6.45c0.38,0,0.69,0.14,0.94,0.43s0.37,0.59,0.37,0.9l-0.13,0.64l-9.34,19.94h-5.94
				c-0.49,0-0.89-0.11-1.21-0.32s-0.51-0.5-0.57-0.86L418.96,530.5z"/>
			<path class="st11" d="M446.05,550.44c-0.55,0-0.96-0.09-1.22-0.27c-0.27-0.18-0.42-0.49-0.46-0.94l-0.29-3.24h-3.68l-1.3,2.6
				c-0.02,0.06-0.03,0.12-0.03,0.16s-0.01,0.13-0.03,0.25c0,0.19,0.09,0.35,0.27,0.49c0.18,0.14,0.39,0.21,0.62,0.21l-0.16,0.73
				h-6.89c-0.89,0-1.33-0.35-1.33-1.05c0-0.19,0.05-0.39,0.16-0.6l9.34-18.1c0.06-0.13,0.09-0.29,0.09-0.48
				c0-0.23-0.1-0.45-0.3-0.65s-0.42-0.3-0.65-0.3l0.19-0.73h9.46c0.49,0,0.9,0.13,1.24,0.4c0.34,0.26,0.51,0.64,0.51,1.13
				l1.46,18.54c0,0.27,0.15,0.53,0.45,0.76c0.3,0.23,0.6,0.35,0.92,0.35l-0.16,0.73H446.05z M442.28,541.74h1.81l-0.25-3.56
				L442.28,541.74z"/>
			<path class="st11" d="M475.75,550.44h-5.78c-0.64,0-1.17-0.09-1.6-0.25c-0.43-0.17-0.72-0.48-0.84-0.92l-3.24-7.84l-1.84,7.08
				l-0.06,0.54c0,0.21,0.09,0.38,0.27,0.49c0.18,0.12,0.42,0.17,0.72,0.17l-0.16,0.73h-7.14c-0.36,0-0.63-0.1-0.81-0.3
				c-0.18-0.2-0.27-0.47-0.27-0.81c0-0.13,0.02-0.3,0.06-0.51l4.32-18.58c0.04-0.23-0.04-0.46-0.25-0.67
				c-0.21-0.21-0.44-0.32-0.7-0.32l0.19-0.73h8.07c0.25,0,0.55,0.12,0.87,0.37c0.33,0.24,0.55,0.5,0.65,0.78l3.43,8l1.52-6.86
				c0.04-0.13,0.07-0.33,0.07-0.6c0-0.25-0.11-0.48-0.32-0.67c-0.21-0.19-0.45-0.29-0.7-0.29l0.19-0.73h7.11
				c0.34,0,0.6,0.12,0.78,0.35c0.18,0.23,0.27,0.5,0.27,0.8l-0.09,0.86L475.75,550.44z"/>
			<path class="st11" d="M509.32,528.5c1.42,0,2.51,0.37,3.29,1.11c0.77,0.74,1.16,1.67,1.16,2.8c0,0.17-0.01,0.36-0.05,0.57
				c-0.03,0.21-0.06,0.37-0.08,0.48c-0.49,2.33-1.48,3.74-2.99,4.22c0.61,0.38,1.06,0.8,1.35,1.26c0.29,0.46,0.43,1.13,0.43,2.02
				c0,0.8-0.16,1.93-0.48,3.37c-0.55,2.39-1.4,4.03-2.54,4.92c-1.04,0.8-2.64,1.21-4.79,1.21h-12.61c-0.36,0-0.63-0.1-0.81-0.3
				c-0.18-0.2-0.27-0.47-0.27-0.81c0-0.13,0.02-0.3,0.06-0.51l4.32-18.58c0.04-0.23-0.04-0.46-0.25-0.67
				c-0.21-0.21-0.45-0.32-0.7-0.32l0.19-0.73L509.32,528.5z M501.86,545.52c0.57,0,0.97-0.13,1.19-0.4
				c0.22-0.27,0.44-0.86,0.65-1.79c0.15-0.59,0.22-1.08,0.22-1.46c0-0.72-0.39-1.08-1.18-1.08h-0.89l-1.08,4.73H501.86z
				 M504.11,536.57c0.36,0,0.61-0.1,0.76-0.3c0.15-0.2,0.29-0.57,0.41-1.1c0.13-0.53,0.19-0.91,0.19-1.14
				c0-0.55-0.31-0.83-0.92-0.83h-0.95l-0.76,3.37H504.11z"/>
			<path class="st11" d="M528.57,528.53c1.86,0,3.4,0.48,4.6,1.45c1.21,0.96,1.81,2.32,1.81,4.08c0,0.64-0.07,1.25-0.22,1.84
				l-1.91,8.07c-0.55,2.39-1.5,4.1-2.86,5.11c-1.19,0.91-2.82,1.37-4.89,1.37h-6.51c-1.99,0-3.47-0.45-4.43-1.35
				c-0.96-0.9-1.45-2.23-1.45-3.99c0-1.04,0.14-2.12,0.41-3.24l1.4-6c0.55-2.31,1.34-4.03,2.38-5.18c1.33-1.44,3.21-2.16,5.62-2.16
				H528.57z M521.7,543.65c-0.06,0.3-0.09,0.55-0.09,0.76c0,0.53,0.3,0.8,0.89,0.8c0.4,0,0.7-0.09,0.9-0.27s0.35-0.5,0.46-0.97
				l2.1-8.92c0.04-0.25,0.06-0.42,0.06-0.51c0-0.61-0.31-0.92-0.92-0.92c-0.68,0-1.13,0.42-1.37,1.27L521.7,543.65z"/>
			<path class="st11" d="M545.78,540.95l0.07-0.41c0-0.19-0.13-0.29-0.38-0.29c-0.25,0-0.38-0.11-0.38-0.32l0.06-0.41l0.92-3.78
				h7.02c0.51,0,0.9,0.15,1.19,0.46c0.29,0.31,0.43,0.65,0.43,1.03c0,0.49-0.04,0.89-0.13,1.21l-1.68,7.46
				c-0.38,1.69-0.96,2.87-1.75,3.54c-0.78,0.67-2.1,1-3.94,1h-7.69c-2.14,0-3.67-0.41-4.61-1.24c-0.82-0.74-1.24-1.87-1.24-3.4
				c0-0.97,0.17-2.16,0.51-3.56l1.75-7.65c0.45-1.99,1.3-3.52,2.57-4.6c1.16-1,2.5-1.49,4-1.49h12.99
				c-0.06,0.64-0.18,1.28-0.35,1.94c-0.17,0.66-0.35,1.2-0.56,1.62c-0.2,0.42-0.51,0.73-0.92,0.92c-0.41,0.19-0.88,0.29-1.41,0.29
				h-5.36c-0.59,0-1.05,0.14-1.38,0.43s-0.57,0.76-0.72,1.41l-2.06,8.89c-0.04,0.3-0.06,0.49-0.06,0.57c0,0.53,0.33,0.79,0.98,0.79
				c0.74,0,1.2-0.39,1.37-1.17L545.78,540.95z"/>
			<path class="st11" d="M570.14,528.53c2.14,0,3.69,0.55,4.67,1.65c0.87,1,1.3,2.46,1.3,4.38c0,0.74-0.07,1.57-0.21,2.49
				c-0.14,0.92-0.33,1.89-0.59,2.91c-1,4.21-1.97,7.01-2.94,8.4c-0.96,1.39-2.36,2.08-4.21,2.08h-14.16c-0.36,0-0.63-0.1-0.81-0.3
				c-0.18-0.2-0.27-0.47-0.27-0.81c0-0.13,0.02-0.3,0.07-0.51l4.32-18.58c0.04-0.23-0.04-0.46-0.25-0.67
				c-0.21-0.21-0.45-0.32-0.7-0.32l0.19-0.73H570.14z M563.92,545.21c0.44,0,0.78-0.13,1.02-0.38c0.23-0.25,0.42-0.69,0.57-1.3
				l1.84-7.91c0.09-0.36,0.13-0.7,0.13-1.02c0-0.66-0.38-0.98-1.14-0.98h-0.79l-2.7,11.59H563.92z"/>
			<path class="st11" d="M598.98,540.95l0.07-0.41c0-0.19-0.13-0.29-0.38-0.29c-0.25,0-0.38-0.11-0.38-0.32l0.06-0.41l0.92-3.78
				h7.02c0.51,0,0.9,0.15,1.19,0.46c0.29,0.31,0.43,0.65,0.43,1.03c0,0.49-0.04,0.89-0.13,1.21l-1.68,7.46
				c-0.38,1.69-0.96,2.87-1.75,3.54c-0.78,0.67-2.1,1-3.94,1h-7.69c-2.14,0-3.67-0.41-4.61-1.24c-0.82-0.74-1.24-1.87-1.24-3.4
				c0-0.97,0.17-2.16,0.51-3.56l1.75-7.65c0.45-1.99,1.3-3.52,2.57-4.6c1.16-1,2.5-1.49,4-1.49h12.99
				c-0.06,0.64-0.18,1.28-0.35,1.94c-0.17,0.66-0.35,1.2-0.56,1.62c-0.2,0.42-0.51,0.73-0.92,0.92c-0.41,0.19-0.88,0.29-1.41,0.29
				h-5.36c-0.59,0-1.05,0.14-1.38,0.43s-0.57,0.76-0.72,1.41l-2.06,8.89c-0.04,0.3-0.06,0.49-0.06,0.57c0,0.53,0.33,0.79,0.98,0.79
				c0.74,0,1.2-0.39,1.37-1.17L598.98,540.95z"/>
			<path class="st11" d="M625.91,544.41c0.15,0.25,0.35,0.47,0.6,0.65c0.25,0.18,0.54,0.27,0.86,0.27h0.92l-0.76,3.62
				c-0.21,0.99-0.98,1.49-2.29,1.49h-4.26c-0.55,0-1.03-0.14-1.43-0.43c-0.4-0.29-0.66-0.64-0.76-1.06l-1.84-6.48l-1.37,6.19
				l-0.03,0.32c0,0.21,0.09,0.39,0.27,0.52c0.18,0.14,0.41,0.21,0.68,0.21l-0.16,0.73h-8.8c-0.36,0-0.63-0.1-0.81-0.3
				c-0.18-0.2-0.27-0.47-0.27-0.81c0-0.13,0.02-0.3,0.07-0.51l4.32-18.58c0.04-0.23-0.04-0.46-0.25-0.67
				c-0.21-0.21-0.45-0.32-0.7-0.32l0.19-0.73h14.7c3.3,0,4.95,1.54,4.95,4.61c0,0.42-0.02,0.79-0.06,1.11
				c-0.11,0.55-0.18,0.97-0.22,1.27c-0.42,1.91-0.98,3.3-1.68,4.19c-0.7,0.89-1.69,1.48-2.98,1.78L625.91,544.41z M618.19,537.39
				h1.24c0.72,0,1.22-0.6,1.49-1.81c0.04-0.23,0.09-0.46,0.13-0.68c0.04-0.22,0.07-0.41,0.07-0.56c0-0.59-0.25-0.89-0.76-0.89h-1.24
				L618.19,537.39z"/>
			<path class="st11" d="M644.43,528.53c1.86,0,3.4,0.48,4.6,1.45c1.21,0.96,1.81,2.32,1.81,4.08c0,0.64-0.07,1.25-0.22,1.84
				l-1.91,8.07c-0.55,2.39-1.5,4.1-2.86,5.11c-1.19,0.91-2.82,1.37-4.89,1.37h-6.51c-1.99,0-3.47-0.45-4.43-1.35
				c-0.96-0.9-1.45-2.23-1.45-3.99c0-1.04,0.14-2.12,0.41-3.24l1.4-6c0.55-2.31,1.34-4.03,2.38-5.18c1.33-1.44,3.21-2.16,5.62-2.16
				H644.43z M637.57,543.65c-0.06,0.3-0.09,0.55-0.09,0.76c0,0.53,0.3,0.8,0.89,0.8c0.4,0,0.7-0.09,0.9-0.27s0.35-0.5,0.46-0.97
				l2.1-8.92c0.04-0.25,0.06-0.42,0.06-0.51c0-0.61-0.31-0.92-0.92-0.92c-0.68,0-1.13,0.42-1.37,1.27L637.57,543.65z"/>
			<path class="st11" d="M659.01,543.84c-0.04,0.21-0.07,0.34-0.07,0.38c0,0.46,0.36,0.7,1.08,0.7c0.4,0,0.69-0.07,0.87-0.21
				c0.18-0.14,0.32-0.43,0.43-0.87l3.15-13.59c0.04-0.21-0.04-0.43-0.25-0.65s-0.43-0.33-0.67-0.33l0.16-0.73h8.83
				c0.36,0,0.62,0.09,0.78,0.27c0.16,0.18,0.24,0.44,0.24,0.78l-0.06,0.48l-3.21,13.91c-0.55,2.41-1.45,4.12-2.7,5.11
				c-1.12,0.89-2.7,1.33-4.73,1.33h-7.27c-1.93,0-3.34-0.43-4.24-1.29c-0.9-0.86-1.35-2.12-1.35-3.8c0-1.02,0.16-2.18,0.48-3.49
				l2.7-11.59c0.04-0.21-0.04-0.43-0.25-0.65s-0.43-0.33-0.67-0.33l0.16-0.73h8.83c0.36,0,0.62,0.09,0.78,0.27
				c0.16,0.18,0.24,0.44,0.24,0.78l-0.06,0.48L659.01,543.84z"/>
			<path class="st11" d="M688.13,528.53c1.95,0,3.42,0.39,4.41,1.18c1,0.78,1.49,2.02,1.49,3.72c0,0.46-0.02,0.89-0.07,1.27
				c-0.04,0.38-0.14,0.86-0.28,1.43c-0.68,2.92-1.44,4.85-2.29,5.79c-0.85,0.94-2.23,1.41-4.16,1.41h-6.54l-1.17,4.99l-0.1,0.6
				c0,0.23,0.1,0.42,0.29,0.57c0.19,0.15,0.41,0.22,0.67,0.22l-0.19,0.73h-8.76c-0.36,0-0.63-0.1-0.81-0.3
				c-0.18-0.2-0.27-0.47-0.27-0.81c0-0.13,0.02-0.3,0.06-0.51l4.32-18.58c0.04-0.23-0.04-0.46-0.25-0.67
				c-0.21-0.21-0.44-0.32-0.7-0.32l0.19-0.73H688.13z M681.91,538.25h0.98c0.53,0,0.92-0.16,1.17-0.49c0.25-0.33,0.49-0.96,0.7-1.89
				c0.13-0.55,0.19-0.98,0.19-1.3c0-0.42-0.09-0.72-0.27-0.87c-0.18-0.16-0.45-0.24-0.81-0.24h-0.86L681.91,538.25z"/>
		</g>
	</g>
	<g>
		
			<linearGradient id="SVGID_00000018223075920284031060000011300630877051291267_" gradientUnits="userSpaceOnUse" x1="96.9602" y1="592.4658" x2="96.9602" y2="693.714">
			<stop  offset="0" style="stop-color:#3E76BB"/>
			<stop  offset="0.9672" style="stop-color:#06509E"/>
		</linearGradient>
		<path style="fill:url(#SVGID_00000018223075920284031060000011300630877051291267_);" d="M117.76,614.94c1.03,0,2.03-0.21,3-0.63
			c0.97-0.42,1.58-1.02,1.84-1.79h2.23l-3.87,14.8c-0.64,2.06-2.55,3.1-5.71,3.1h-5.71L98.7,676.47c-0.13,0.64,0.16,1.3,0.87,1.98
			s1.42,1.02,2.13,1.02l-0.68,2.23H74.13c-2.06,0-3.1-1.03-3.1-3.1c0-0.26,0.06-0.77,0.19-1.55l10.93-46.63h-6.67
			c-1.03,0-1.89,0.24-2.56,0.72c-0.68,0.48-1.14,1.12-1.4,1.89H69.1l3.87-15.48c0.26-0.91,0.78-1.57,1.55-1.98
			c0.78-0.42,2-0.63,3.68-0.63H117.76z"/>
		
			<linearGradient id="SVGID_00000108988192464565871220000016355079541199974295_" gradientUnits="userSpaceOnUse" x1="137.2149" y1="592.4658" x2="137.2149" y2="693.714">
			<stop  offset="0" style="stop-color:#3E76BB"/>
			<stop  offset="0.9672" style="stop-color:#06509E"/>
		</linearGradient>
		<path style="fill:url(#SVGID_00000108988192464565871220000016355079541199974295_);" d="M146.6,681.69
			c-1.68,0-2.92-0.27-3.72-0.82c-0.81-0.55-1.27-1.5-1.4-2.85l-0.87-9.87h-11.22l-3.97,7.93c-0.06,0.19-0.1,0.36-0.1,0.48
			c0,0.13-0.04,0.39-0.1,0.78c0,0.58,0.27,1.08,0.82,1.5c0.55,0.42,1.18,0.63,1.89,0.63l-0.48,2.23h-20.99
			c-2.71,0-4.06-1.06-4.06-3.19c0-0.58,0.16-1.19,0.48-1.83l28.44-55.14c0.2-0.39,0.29-0.87,0.29-1.45c0-0.71-0.31-1.37-0.92-1.99
			c-0.61-0.61-1.27-0.92-1.98-0.92l0.58-2.23h28.83c1.48,0,2.74,0.4,3.77,1.21c1.03,0.81,1.55,1.95,1.55,3.43l4.45,56.49
			c0,0.84,0.45,1.61,1.36,2.32c0.9,0.71,1.84,1.06,2.81,1.06l-0.48,2.23H146.6z M135.09,655.18h5.51l-0.77-10.83L135.09,655.18z"/>
		
			<linearGradient id="SVGID_00000084513029431522951480000017586255448519399101_" gradientUnits="userSpaceOnUse" x1="208.3849" y1="592.4658" x2="208.3849" y2="693.714">
			<stop  offset="0" style="stop-color:#3E76BB"/>
			<stop  offset="0.9672" style="stop-color:#06509E"/>
		</linearGradient>
		<path style="fill:url(#SVGID_00000084513029431522951480000017586255448519399101_);" d="M229.62,614.84
			c4.32,0,7.66,1.13,10.01,3.39c2.35,2.25,3.53,5.09,3.53,8.51c0,0.52-0.05,1.1-0.14,1.75c-0.1,0.64-0.18,1.13-0.24,1.45
			c-1.48,7.1-4.51,11.38-9.09,12.87c1.87,1.16,3.24,2.44,4.11,3.82c0.87,1.38,1.31,3.43,1.31,6.14c0,2.45-0.48,5.87-1.45,10.25
			c-1.68,7.29-4.26,12.29-7.74,15c-3.16,2.45-8.03,3.67-14.61,3.67h-38.4c-1.1,0-1.92-0.3-2.47-0.92c-0.55-0.61-0.82-1.44-0.82-2.47
			c0-0.39,0.06-0.9,0.19-1.55l13.16-56.59c0.13-0.71-0.13-1.38-0.77-2.03c-0.65-0.64-1.36-0.96-2.13-0.96l0.58-2.23L229.62,614.84z
			 M206.88,666.7c1.74,0,2.95-0.4,3.63-1.21s1.34-2.63,1.98-5.47c0.45-1.8,0.68-3.29,0.68-4.45c0-2.19-1.19-3.29-3.58-3.29h-2.71
			l-3.29,14.42H206.88z M213.75,639.41c1.1,0,1.87-0.3,2.32-0.92c0.45-0.61,0.87-1.73,1.26-3.34c0.39-1.61,0.58-2.77,0.58-3.48
			c0-1.68-0.93-2.51-2.81-2.51h-2.9l-2.32,10.25H213.75z"/>
		
			<linearGradient id="SVGID_00000034780607548198597160000002519700256419037085_" gradientUnits="userSpaceOnUse" x1="272.4934" y1="592.4658" x2="272.4934" y2="693.714">
			<stop  offset="0" style="stop-color:#3E76BB"/>
			<stop  offset="0.9672" style="stop-color:#06509E"/>
		</linearGradient>
		<path style="fill:url(#SVGID_00000034780607548198597160000002519700256419037085_);" d="M281.88,681.69
			c-1.68,0-2.92-0.27-3.72-0.82c-0.81-0.55-1.27-1.5-1.4-2.85l-0.87-9.87h-11.22l-3.97,7.93c-0.06,0.19-0.1,0.36-0.1,0.48
			c0,0.13-0.04,0.39-0.1,0.78c0,0.58,0.27,1.08,0.82,1.5c0.55,0.42,1.18,0.63,1.89,0.63l-0.48,2.23h-20.99
			c-2.71,0-4.06-1.06-4.06-3.19c0-0.58,0.16-1.19,0.48-1.83l28.44-55.14c0.2-0.39,0.29-0.87,0.29-1.45c0-0.71-0.31-1.37-0.92-1.99
			s-1.27-0.92-1.98-0.92l0.58-2.23h28.83c1.48,0,2.74,0.4,3.77,1.21c1.03,0.81,1.55,1.95,1.55,3.43l4.45,56.49
			c0,0.84,0.45,1.61,1.36,2.32c0.9,0.71,1.84,1.06,2.81,1.06l-0.48,2.23H281.88z M270.36,655.18h5.51l-0.77-10.83L270.36,655.18z"/>
		
			<linearGradient id="SVGID_00000070821048768122861430000017954651930726873001_" gradientUnits="userSpaceOnUse" x1="347.0977" y1="592.4658" x2="347.0977" y2="693.714">
			<stop  offset="0" style="stop-color:#3E76BB"/>
			<stop  offset="0.9672" style="stop-color:#06509E"/>
		</linearGradient>
		<path style="fill:url(#SVGID_00000070821048768122861430000017954651930726873001_);" d="M342.74,652.28l-5.51,23.8l-0.1,0.78
			c0,0.71,0.32,1.32,0.97,1.84c0.65,0.51,1.32,0.77,2.03,0.77l-0.48,2.23h-26.99c-2.13,0-3.19-1.03-3.19-3.1
			c0-0.32,0.06-0.87,0.19-1.65l13.26-56.78c0.13-0.64-0.16-1.3-0.87-1.98c-0.71-0.68-1.42-1.02-2.13-1.02l0.68-2.23h26.89
			c2.06,0,3.1,1.03,3.1,3.1c0,0.26-0.06,0.77-0.19,1.55l-4.64,19.83h6.87l4.45-19.25c0.13-0.64-0.13-1.3-0.77-1.98
			c-0.65-0.68-1.32-1.02-2.03-1.02l0.48-2.23h26.89c1.1,0,1.88,0.27,2.37,0.82c0.48,0.55,0.73,1.34,0.73,2.37l-0.2,1.45
			l-13.16,56.88c-0.13,0.64,0.16,1.3,0.87,1.98s1.42,1.02,2.13,1.02l-0.68,2.23h-26.89c-2.06,0-3.1-1.03-3.1-3.1
			c0-0.26,0.07-0.77,0.2-1.55l5.71-24.76H342.74z"/>
		
			<linearGradient id="SVGID_00000130629913966851716370000000365357001977307544_" gradientUnits="userSpaceOnUse" x1="452.3298" y1="592.4658" x2="452.3298" y2="693.714">
			<stop  offset="0" style="stop-color:#3E76BB"/>
			<stop  offset="0.9672" style="stop-color:#06509E"/>
		</linearGradient>
		<path style="fill:url(#SVGID_00000130629913966851716370000000365357001977307544_);" d="M468.15,637.38
			c4.84,0,8.64,1.33,11.42,3.97c2.77,2.65,4.16,6.45,4.16,11.42c0,2.65-0.39,5.54-1.16,8.7c-0.77,3.16-1.71,6.1-2.81,8.81
			c-1.8,4.51-4.21,7.55-7.2,9.09c-3,1.55-7.37,2.32-13.11,2.32h-39.18c-1.1,0-1.92-0.3-2.46-0.92s-0.82-1.44-0.82-2.47
			c0-0.39,0.06-0.9,0.19-1.55l13.16-56.59c0.13-0.71-0.13-1.38-0.78-2.03c-0.64-0.64-1.35-0.96-2.13-0.96l0.58-2.23h59.69
			l-2.71,10.64c-0.32,1.29-1.22,2.34-2.71,3.14c-1.48,0.81-2.97,1.21-4.45,1.21h-22.44l-1.74,7.45H468.15z M447.06,666.21h3.19
			c1.55,0,2.66-0.48,3.34-1.45c0.68-0.97,1.4-2.97,2.18-6c0.39-1.68,0.58-3.07,0.58-4.16c0-2.13-1-3.19-3-3.19h-2.9L447.06,666.21z"
			/>
		
			<linearGradient id="SVGID_00000076578497852016769650000017260980261125797788_" gradientUnits="userSpaceOnUse" x1="519.9719" y1="592.4658" x2="519.9719" y2="693.714">
			<stop  offset="0" style="stop-color:#3E76BB"/>
			<stop  offset="0.9672" style="stop-color:#06509E"/>
		</linearGradient>
		<path style="fill:url(#SVGID_00000076578497852016769650000017260980261125797788_);" d="M534.34,614.94
			c5.68,0,10.35,1.47,14.03,4.4c3.68,2.94,5.52,7.08,5.52,12.43c0,1.93-0.23,3.8-0.68,5.61l-5.81,24.57
			c-1.68,7.29-4.58,12.48-8.71,15.58c-3.61,2.77-8.58,4.16-14.9,4.16h-19.83c-6.06,0-10.56-1.37-13.5-4.11s-4.4-6.79-4.4-12.14
			c0-3.17,0.42-6.45,1.26-9.87l4.26-18.28c1.68-7.03,4.09-12.29,7.25-15.77c4.07-4.39,9.77-6.58,17.12-6.58H534.34z M513.44,660.99
			c-0.19,0.9-0.29,1.68-0.29,2.32c0,1.61,0.9,2.42,2.71,2.42c1.23,0,2.15-0.27,2.76-0.82c0.61-0.54,1.08-1.53,1.4-2.95l6.38-27.18
			c0.13-0.77,0.19-1.29,0.19-1.55c0-1.87-0.93-2.8-2.8-2.8c-2.06,0-3.45,1.29-4.16,3.87L513.44,660.99z"/>
		
			<linearGradient id="SVGID_00000119092859434863472410000010073583057446320814_" gradientUnits="userSpaceOnUse" x1="580.2095" y1="592.4658" x2="580.2095" y2="693.714">
			<stop  offset="0" style="stop-color:#3E76BB"/>
			<stop  offset="0.9672" style="stop-color:#06509E"/>
		</linearGradient>
		<path style="fill:url(#SVGID_00000119092859434863472410000010073583057446320814_);" d="M578.27,674.34
			c-0.19,0.71-0.29,1.42-0.29,2.13c0,0.77,0.37,1.47,1.11,2.08c0.74,0.61,1.5,0.92,2.27,0.92l-0.48,2.23h-27.48
			c-1.1,0-1.92-0.3-2.47-0.92c-0.55-0.61-0.82-1.44-0.82-2.47c0-0.39,0.06-0.9,0.19-1.55l13.16-56.59c0.13-0.71-0.13-1.38-0.77-2.03
			c-0.65-0.64-1.36-0.96-2.13-0.96l0.58-2.23h49.14l-2.52,10.83c-0.32,1.42-1.05,2.55-2.18,3.39c-1.13,0.84-2.44,1.26-3.92,1.26
			h-13.35L578.27,674.34z"/>
		
			<linearGradient id="SVGID_00000083069641964339036690000004398149475272840083_" gradientUnits="userSpaceOnUse" x1="623.3655" y1="592.4658" x2="623.3655" y2="693.714">
			<stop  offset="0" style="stop-color:#3E76BB"/>
			<stop  offset="0.9672" style="stop-color:#06509E"/>
		</linearGradient>
		<path style="fill:url(#SVGID_00000083069641964339036690000004398149475272840083_);" d="M651.03,663.22c0.32,2,1.22,3,2.71,3
			h2.42l-2.51,11.03c-0.45,1.87-1.36,3.13-2.71,3.77c-1.03,0.45-2.74,0.68-5.13,0.68h-51.27c-2.64,0-3.97-1.06-3.97-3.19l0.2-1.55
			l2.42-10.74h2.61c0.9,0,1.69-0.27,2.37-0.82c0.68-0.55,1.18-1.21,1.5-1.98l19.54-41.79l0.2-1.74c0-0.78-0.26-1.42-0.77-1.94
			c-0.52-0.51-1.16-0.77-1.94-0.77l0.48-2.23h23.41c1.36,0,2.5,0.37,3.43,1.11c0.93,0.74,1.47,1.66,1.59,2.76L651.03,663.22z
			 M624.82,654.02l-4.74,12.19h5.51L624.82,654.02z"/>
		
			<linearGradient id="SVGID_00000116920984201762011060000015810343129783154562_" gradientUnits="userSpaceOnUse" x1="737.8815" y1="592.4658" x2="737.8815" y2="693.714">
			<stop  offset="0" style="stop-color:#3E76BB"/>
			<stop  offset="0.9672" style="stop-color:#06509E"/>
		</linearGradient>
		<path style="fill:url(#SVGID_00000116920984201762011060000015810343129783154562_);" d="M719.45,671.34h-14.42
			c-4.45,0-7.88-1.61-10.3-4.84c-2.42-3.22-3.63-7.1-3.63-11.61c0-2.38,0.31-5.01,0.92-7.89c0.61-2.87,1.82-6.62,3.63-11.27
			c1.29-3.22,3.19-5.87,5.71-7.93c3.61-2.97,8.16-4.45,13.64-4.45h15.57l0.77-3.19c0.13-0.64-0.16-1.3-0.87-1.98
			s-1.42-1.02-2.13-1.02l0.58-2.23h25.15c2.06,0,3.1,1.03,3.1,3.1c0,0.26-0.06,0.77-0.2,1.55l-0.77,3.77h13.93
			c4.51,0,8.06,1.5,10.64,4.5c2.58,3,3.87,6.72,3.87,11.17c0,2.38-0.26,4.81-0.77,7.25c-0.71,3.29-1.97,7.25-3.77,11.9
			c-1.35,3.42-3.22,6.19-5.61,8.32c-3.61,3.22-8.16,4.84-13.64,4.84h-15.77l-0.97,3.87l-0.29,1.84c0,0.71,0.29,1.29,0.87,1.74
			c0.58,0.45,1.26,0.68,2.03,0.68l-0.58,2.23H721c-2.06,0-3.1-1.03-3.1-3.1c0-0.26,0.06-0.77,0.19-1.55L719.45,671.34z
			 M727.19,638.35h-2.81c-1.68,0-2.93,0.63-3.77,1.89c-0.84,1.26-1.71,3.85-2.61,7.79c-0.39,1.68-0.58,3.03-0.58,4.07
			c0,2.51,1.13,3.77,3.39,3.77h2.32L727.19,638.35z M748.57,655.86h2.81c1.68,0,2.93-0.63,3.77-1.89c0.84-1.26,1.71-3.85,2.61-7.79
			c0.39-1.68,0.58-3.03,0.58-4.07c0-2.52-1.13-3.77-3.38-3.77h-2.32L748.57,655.86z"/>
		
			<linearGradient id="SVGID_00000070811126862920422710000015348201449568959675_" gradientUnits="userSpaceOnUse" x1="812.9254" y1="592.4658" x2="812.9254" y2="693.714">
			<stop  offset="0" style="stop-color:#3E76BB"/>
			<stop  offset="0.9672" style="stop-color:#06509E"/>
		</linearGradient>
		<path style="fill:url(#SVGID_00000070811126862920422710000015348201449568959675_);" d="M784.97,620.07
			c-0.32-1.94-1.45-2.9-3.39-2.9l0.58-2.23h23.12c1.74,0,3.24,0.43,4.5,1.3c1.26,0.88,1.95,1.99,2.08,3.34l2.03,16.54l8.8-14.51
			c0.13-0.39,0.2-0.93,0.2-1.65c0-0.71-0.32-1.36-0.97-1.93c-0.65-0.58-1.32-0.87-2.03-0.87l0.48-2.23h20.7
			c1.03,0,1.82,0.37,2.37,1.11c0.55,0.74,0.82,1.57,0.82,2.47c0,0.9-0.16,1.61-0.48,2.13l-24.38,39.66l-3.38,14.89l-0.29,1.84
			c0,0.71,0.29,1.29,0.87,1.74c0.58,0.45,1.26,0.68,2.03,0.68l-0.58,2.23h-24.47c-2.51,0-3.77-1.16-3.77-3.48
			c0-0.46,0.03-0.81,0.1-1.06l4.16-18L784.97,620.07z"/>
		
			<linearGradient id="SVGID_00000105401619072455264590000010565817378524115884_" gradientUnits="userSpaceOnUse" x1="872.0488" y1="592.4658" x2="872.0488" y2="693.714">
			<stop  offset="0" style="stop-color:#3E76BB"/>
			<stop  offset="0.9672" style="stop-color:#06509E"/>
		</linearGradient>
		<path style="fill:url(#SVGID_00000105401619072455264590000010565817378524115884_);" d="M844.09,620.07
			c-0.32-1.94-1.45-2.9-3.39-2.9l0.58-2.23h23.12c1.74,0,3.24,0.43,4.5,1.3c1.26,0.88,1.95,1.99,2.08,3.34l2.03,16.54l8.8-14.51
			c0.13-0.39,0.19-0.93,0.19-1.65c0-0.71-0.32-1.36-0.97-1.93c-0.64-0.58-1.32-0.87-2.03-0.87l0.48-2.23h20.7
			c1.03,0,1.82,0.37,2.37,1.11c0.55,0.74,0.82,1.57,0.82,2.47c0,0.9-0.16,1.61-0.48,2.13l-24.38,39.66l-3.38,14.89l-0.29,1.84
			c0,0.71,0.29,1.29,0.87,1.74c0.58,0.45,1.26,0.68,2.03,0.68l-0.58,2.23H852.7c-2.51,0-3.77-1.16-3.77-3.48
			c0-0.46,0.03-0.81,0.1-1.06l4.16-18L844.09,620.07z"/>
		
			<linearGradient id="SVGID_00000067230984831808054610000007813475458141870727_" gradientUnits="userSpaceOnUse" x1="917.531" y1="592.4658" x2="917.531" y2="693.714">
			<stop  offset="0" style="stop-color:#3E76BB"/>
			<stop  offset="0.9672" style="stop-color:#06509E"/>
		</linearGradient>
		<path style="fill:url(#SVGID_00000067230984831808054610000007813475458141870727_);" d="M945.2,663.22c0.32,2,1.22,3,2.71,3h2.42
			l-2.51,11.03c-0.45,1.87-1.36,3.13-2.71,3.77c-1.03,0.45-2.74,0.68-5.13,0.68H888.7c-2.64,0-3.97-1.06-3.97-3.19l0.2-1.55
			l2.42-10.74h2.61c0.9,0,1.69-0.27,2.37-0.82c0.68-0.55,1.18-1.21,1.5-1.98l19.54-41.79l0.2-1.74c0-0.78-0.26-1.42-0.77-1.94
			c-0.52-0.51-1.16-0.77-1.94-0.77l0.48-2.23h23.41c1.36,0,2.5,0.37,3.43,1.11c0.93,0.74,1.47,1.66,1.59,2.76L945.2,663.22z
			 M918.98,654.02l-4.74,12.19h5.51L918.98,654.02z"/>
		
			<linearGradient id="SVGID_00000018197725976539388680000014804248576632505248_" gradientUnits="userSpaceOnUse" x1="981.0087" y1="592.4658" x2="981.0087" y2="693.714">
			<stop  offset="0" style="stop-color:#3E76BB"/>
			<stop  offset="0.9672" style="stop-color:#06509E"/>
		</linearGradient>
		<path style="fill:url(#SVGID_00000018197725976539388680000014804248576632505248_);" d="M996.39,665.73
			c0.97,0,1.98-0.24,3.05-0.72c1.06-0.48,1.69-1.08,1.89-1.79h2.23l-2.81,12.18c-0.45,2.13-1.32,3.64-2.61,4.55
			c-1.61,1.16-4.09,1.74-7.45,1.74h-21.77c-6.51,0-11.19-1.26-14.03-3.77c-2.51-2.25-3.77-5.68-3.77-10.26
			c0-2.96,0.52-6.58,1.55-10.83l5.32-23.31c1.36-6.06,3.97-10.74,7.84-14.03c3.55-3.03,7.61-4.54,12.19-4.54h32.89
			c-0.19,1.16-0.51,2.79-0.97,4.88c-0.45,2.1-0.84,3.73-1.16,4.89c-0.52,2-1.16,3.38-1.94,4.16c-1.03,1.03-2.71,1.55-5.03,1.55
			h-9.96c-2.32,0-4,0.55-5.03,1.64c-1.03,1.1-1.77,2.75-2.23,4.94l-5.32,22.93c-0.2,0.71-0.29,1.36-0.29,1.94
			c0,2.58,1.64,3.87,4.94,3.87H996.39z"/>
	</g>
	<g>
		<path class="st138" d="M187.83,731.38l14.83-16.41l-8.79-16.05h4.58l4.01,7.35c1.44,2.62,2.44,4.62,3.03,5.98
			c1.01-1.43,2.63-3.37,4.85-5.83l6.83-7.5h5.42l-15.02,16.77l8.51,15.7l-4.51-0.01l-5.03-9.51c-0.48-0.92-1.05-2.12-1.71-3.57
			c-0.71,0.99-1.65,2.13-2.81,3.43l-8.66,9.65H187.83L187.83,731.38z M234.69,728.45c-2.46,2.31-5.04,3.45-7.75,3.45
			c-2.02,0-3.68-0.62-4.99-1.86c-1.31-1.24-1.96-2.88-1.96-4.91c0-2.43,0.85-4.29,2.55-5.61c1.75-1.35,4.31-2.03,7.67-2.03
			l2.03-0.09c0.96,0,1.82-0.07,2.57-0.21c0.76-0.14,1.38-0.32,1.87-0.56c0.3-1.1,0.45-2.04,0.45-2.83c0-0.93-0.41-1.69-1.24-2.29
			c-0.83-0.6-2.03-0.9-3.62-0.9c-3.17,0-5.24,1.43-6.21,4.29l-3.88-0.36c1.61-4.81,5.03-7.22,10.25-7.22c2.52,0,4.56,0.56,6.13,1.69
			c1.57,1.12,2.35,2.59,2.35,4.43c0,1.25-0.17,2.71-0.53,4.36l-1.25,5.84c-0.2,1.01-0.35,1.86-0.45,2.55
			c-0.1,0.7-0.15,1.34-0.15,1.93c0,1.05,0.16,2.14,0.47,3.26h-3.88c-0.13-0.41-0.23-0.87-0.32-1.37
			C234.73,729.5,234.69,728.98,234.69,728.45L234.69,728.45z M236.11,719.47c-0.91,0.35-2.15,0.6-3.7,0.77l-2.21,0.22
			c-1.24,0-2.33,0.16-3.26,0.47c-0.82,0.26-1.46,0.63-1.91,1.1c-0.82,0.82-1.23,1.79-1.23,2.92c0,1.11,0.38,2.03,1.13,2.76
			c0.75,0.73,1.78,1.1,3.08,1.1c1.84,0,3.51-0.67,5.01-2.02C234.53,725.45,235.56,723.01,236.11,719.47L236.11,719.47z
			 M248.38,707.87h5.7l2.12,18.75l10.45-18.75h5.59l-4.81,23.51h-3.8l3.92-18.95L257,731.38h-3.41l-2.23-19.68l-4.02,19.68h-3.8
			L248.38,707.87L248.38,707.87z M273.3,731.38l4.7-23.51h3.84l-0.79,3.87c2.39-2.94,4.86-4.41,7.42-4.41c1.48,0,2.68,0.37,3.6,1.11
			c0.88,0.69,1.48,1.79,1.82,3.3c1.11-1.44,2.31-2.54,3.6-3.29c1.29-0.75,2.62-1.12,4.01-1.12c1.85,0,3.25,0.45,4.2,1.34
			c0.95,0.89,1.43,2.23,1.43,4c0,0.77-0.17,1.96-0.49,3.57l-3.04,15.14h-3.83l3.1-15.54c0.13-0.65,0.22-1.19,0.3-1.63
			c0.07-0.45,0.11-0.81,0.11-1.09c0-0.82-0.22-1.44-0.67-1.86c-0.45-0.42-1.11-0.62-2-0.62c-1.3,0-2.57,0.44-3.82,1.31
			c-1.24,0.88-2.16,1.93-2.73,3.14c-0.51,1.15-0.98,2.78-1.44,4.89l-2.3,11.4h-3.83l3.18-15.88c0.22-1.13,0.34-1.9,0.34-2.3
			c0-0.8-0.25-1.43-0.72-1.88c-0.48-0.46-1.07-0.69-1.76-0.69c-0.65,0-1.3,0.11-1.92,0.33c-0.63,0.22-1.27,0.57-1.92,1.04
			c-1.25,0.9-2.2,2.02-2.83,3.36c-0.58,1.25-1.09,2.89-1.51,4.89l-2.23,11.12H273.3L273.3,731.38z M336.48,707.87h3.88l-4.87,23.51
			h-3.85L336.48,707.87L336.48,707.87z M314.29,707.87h3.83l-1.92,9.09h4.09c2.6,0,4.45,0.2,5.56,0.6c1.11,0.4,1.98,1.13,2.63,2.18
			c0.65,1.06,0.98,2.23,0.98,3.53c0,0.79-0.11,1.54-0.32,2.28c-0.21,0.74-0.54,1.48-1,2.21c-0.85,1.42-1.91,2.37-3.19,2.87
			c-1.27,0.49-3.25,0.74-5.95,0.74h-9.58L314.29,707.87L314.29,707.87z M313.89,728.19h4.89c1.89,0,3.23-0.13,4.03-0.4
			c0.8-0.26,1.47-0.75,2-1.46c0.53-0.71,0.8-1.56,0.8-2.55c0-0.9-0.24-1.66-0.71-2.27c-0.48-0.61-1.02-0.98-1.64-1.12
			c-0.28-0.06-0.72-0.11-1.31-0.15c-0.59-0.05-1.27-0.07-2.07-0.07h-4.36L313.89,728.19L313.89,728.19z M346.18,707.87h3.8
			l-2.03,9.8h10.45l1.98-9.8h3.75l-4.74,23.51h-3.82l2.18-10.52h-10.41l-2.18,10.52h-3.79L346.18,707.87L346.18,707.87z
			 M375.83,731.38l9.79-11.93L380,707.87h4.24l1.91,4.18c0.82,1.86,1.45,3.36,1.9,4.5l6.49-8.67h4.68l-9.45,11.89l5.68,11.62
			l-4.25,0.01l-2.24-4.79c-0.28-0.62-0.54-1.2-0.78-1.75c-0.17-0.4-0.46-1.08-0.85-2.04l-6.7,8.57H375.83L375.83,731.38z
			 M404.73,731.38l-3.71-23.51h3.71l1.95,12.94c0.2,1.3,0.46,3.61,0.78,6.94c0.73-1.7,1.67-3.61,2.81-5.74l7.53-14.14h4.05
			l-12.88,23.51l-2.67,9.3l-3.88,0.1L404.73,731.38L404.73,731.38z M424.2,707.87h3.77l-0.8,3.94c-0.51,2.48-0.77,4.23-0.77,5.24
			c0,1.02,0.38,1.79,1.12,2.33c0.75,0.53,1.87,0.79,3.37,0.79c1.81,0,3.49-0.33,5.04-0.99l2.31-11.31h3.81l-4.79,23.51h-3.83
			l1.84-9.01c-1.91,0.66-3.69,0.99-5.34,0.99c-2.27,0-4.07-0.51-5.39-1.53c-1.32-1.02-1.98-2.46-1.98-4.34
			c0-0.79,0.34-2.96,1.02-6.53L424.2,707.87L424.2,707.87z M455.6,721.64l0.8-4.01h11.69l-0.78,4.01H455.6L455.6,721.64z
			 M479.46,731.38l17.6-32.46h4.9l5.13,32.46h-4.04l-1.5-9.34h-12.56l-4.98,9.35L479.46,731.38L479.46,731.38z M490.75,718.7h10.28
			l-1.2-8.15c-0.27-1.96-0.48-3.47-0.61-4.51c-0.17-1.44-0.25-2.62-0.25-3.57c-0.72,1.9-1.76,4.11-3.1,6.62L490.75,718.7
			L490.75,718.7z M515.49,707.87h5.7l2.12,18.75l10.45-18.75h5.59l-4.81,23.51h-3.8l3.92-18.95l-10.55,18.95h-3.41l-2.23-19.68
			l-4.02,19.68h-3.8L515.49,707.87L515.49,707.87z M555.36,707.87h3.73l-2.09,10.04l0.3,0.03c0.81,0,1.58-0.36,2.31-1.07
			c0.72-0.72,1.66-2.05,2.79-4c1.23-2.11,2.34-3.47,3.35-4.08c1-0.61,2.04-0.92,3.12-0.92c0.75,0,1.53,0.14,2.37,0.4l-0.87,2.39
			c-0.51-0.2-0.93-0.31-1.27-0.31c-0.64,0-1.19,0.23-1.68,0.69c-0.48,0.46-1.09,1.41-1.84,2.83c-1.56,2.92-3.31,4.72-5.24,5.41
			c0.68,0.25,1.32,0.66,1.92,1.22c0.61,0.56,1.23,1.69,1.88,3.39l2.82,7.5h-3.95l-2.22-5.98c-0.67-1.86-1.29-3.11-1.86-3.77
			c-0.56-0.66-1.36-1.07-2.39-1.26l-2.29,11h-3.77l2.26-11c-0.39,0-0.76,0.06-1.1,0.17c-0.34,0.12-0.7,0.3-1.09,0.56
			c-0.69,0.45-1.84,1.78-3.43,3.96l-4.65,6.3l-4.65,0.01l5.95-7.84c1.74-2.29,3.6-3.71,5.59-4.27c-0.86-0.57-1.5-1.24-1.9-2.02
			c-0.41-0.79-0.81-2.22-1.19-4.31c-0.17-1.02-0.38-1.71-0.63-2.06c-0.25-0.36-0.61-0.53-1.09-0.53c-0.35,0-0.9,0.11-1.63,0.31
			l0.25-2.55c0.31-0.08,0.64-0.13,0.98-0.17c0.34-0.04,0.68-0.07,1.01-0.07c1.34,0,2.29,0.39,2.87,1.18
			c0.58,0.72,1.08,2.08,1.49,4.07c0.42,1.99,0.87,3.29,1.35,3.91c0.49,0.61,1.27,0.91,2.34,0.91L555.36,707.87L555.36,707.87z
			 M585.66,727.12c-2.7,3.19-5.43,4.78-8.2,4.78c-1.69,0-3.09-0.5-4.22-1.5c-1.11-1-1.67-2.27-1.67-3.82c0-1.07,0.24-2.78,0.72-5.16
			l2.71-13.56h3.84l-3.01,15.03c-0.25,1.24-0.38,2.23-0.38,2.96c0,0.9,0.25,1.59,0.76,2.08c0.53,0.46,1.28,0.69,2.27,0.69
			c1.47,0,2.86-0.49,4.19-1.48c1.32-0.99,2.29-2.17,2.91-3.54c0.58-1.31,1.12-3.17,1.61-5.58l2.03-10.16h3.83l-4.7,23.51h-3.54
			L585.66,727.12L585.66,727.12z M600.85,707.87h16.94L613,731.38h-3.81l4.19-20.17h-9.45l-2.9,14.02c-0.49,2.4-1.16,4.08-1.99,5.03
			c-0.83,0.95-1.99,1.43-3.46,1.43c-0.45,0-0.94-0.02-1.47-0.07c-0.54-0.05-1.16-0.12-1.9-0.24l0.7-3.32l1.61,0.06
			c0.97,0,1.61-0.24,1.9-0.73c0.29-0.48,0.73-2.05,1.32-4.68L600.85,707.87L600.85,707.87z M618.87,731.38l4.7-23.51h3.84
			l-0.79,3.87c2.39-2.94,4.86-4.41,7.42-4.41c1.48,0,2.68,0.37,3.6,1.11c0.88,0.69,1.48,1.79,1.82,3.3c1.11-1.44,2.31-2.54,3.6-3.29
			c1.29-0.75,2.62-1.12,4.01-1.12c1.85,0,3.25,0.45,4.2,1.34c0.95,0.89,1.43,2.23,1.43,4c0,0.77-0.17,1.96-0.49,3.57l-3.04,15.14
			h-3.83l3.09-15.54c0.13-0.65,0.22-1.19,0.3-1.63c0.07-0.45,0.11-0.81,0.11-1.09c0-0.82-0.22-1.44-0.67-1.86
			c-0.45-0.42-1.11-0.62-2-0.62c-1.3,0-2.57,0.44-3.82,1.31c-1.24,0.88-2.16,1.93-2.73,3.14c-0.51,1.15-0.98,2.78-1.44,4.89
			l-2.3,11.4h-3.83l3.18-15.88c0.22-1.13,0.34-1.9,0.34-2.3c0-0.8-0.25-1.43-0.72-1.88c-0.48-0.46-1.07-0.69-1.76-0.69
			c-0.65,0-1.29,0.11-1.92,0.33c-0.63,0.22-1.27,0.57-1.92,1.04c-1.25,0.9-2.2,2.02-2.84,3.36c-0.58,1.25-1.09,2.89-1.5,4.89
			l-2.23,11.12H618.87L618.87,731.38z M682.05,707.87h3.88l-4.87,23.51h-3.86L682.05,707.87L682.05,707.87z M659.87,707.87h3.83
			l-1.92,9.09h4.09c2.6,0,4.45,0.2,5.56,0.6c1.11,0.4,1.98,1.13,2.63,2.18c0.65,1.06,0.98,2.23,0.98,3.53
			c0,0.79-0.11,1.54-0.32,2.28c-0.21,0.74-0.54,1.48-1,2.21c-0.85,1.42-1.91,2.37-3.19,2.87c-1.27,0.49-3.25,0.74-5.94,0.74h-9.58
			L659.87,707.87L659.87,707.87z M659.46,728.19h4.89c1.89,0,3.23-0.13,4.03-0.4c0.8-0.26,1.47-0.75,2-1.46
			c0.53-0.71,0.8-1.56,0.8-2.55c0-0.9-0.24-1.66-0.71-2.27c-0.48-0.61-1.02-0.98-1.64-1.12c-0.28-0.06-0.72-0.11-1.31-0.15
			c-0.59-0.05-1.27-0.07-2.07-0.07h-4.36L659.46,728.19L659.46,728.19z M691.76,707.87h3.8l-2.03,9.8h10.45l1.98-9.8h3.75
			l-4.74,23.51h-3.82l2.18-10.52h-10.41l-2.18,10.52h-3.79L691.76,707.87L691.76,707.87z M722.88,731.38l4.7-23.51h3.84l-0.79,3.87
			c2.39-2.94,4.86-4.41,7.42-4.41c1.48,0,2.68,0.37,3.6,1.11c0.88,0.69,1.48,1.79,1.82,3.3c1.11-1.44,2.31-2.54,3.6-3.29
			c1.29-0.75,2.62-1.12,4.01-1.12c1.85,0,3.25,0.45,4.2,1.34c0.95,0.89,1.43,2.23,1.43,4c0,0.77-0.17,1.96-0.49,3.57l-3.04,15.14
			h-3.83l3.09-15.54c0.13-0.65,0.23-1.19,0.3-1.63c0.07-0.45,0.11-0.81,0.11-1.09c0-0.82-0.22-1.44-0.67-1.86
			c-0.45-0.42-1.11-0.62-2-0.62c-1.3,0-2.57,0.44-3.82,1.31c-1.24,0.88-2.16,1.93-2.73,3.14c-0.51,1.15-0.98,2.78-1.44,4.89
			l-2.3,11.4h-3.83l3.18-15.88c0.22-1.13,0.34-1.9,0.34-2.3c0-0.8-0.25-1.43-0.72-1.88c-0.48-0.46-1.07-0.69-1.76-0.69
			c-0.65,0-1.29,0.11-1.92,0.33c-0.63,0.22-1.27,0.57-1.92,1.04c-1.25,0.9-2.2,2.02-2.84,3.36c-0.58,1.25-1.09,2.89-1.5,4.89
			l-2.23,11.12H722.88L722.88,731.38z M764.75,731.38l-3.71-23.51h3.71l1.95,12.94c0.2,1.3,0.46,3.61,0.78,6.94
			c0.73-1.7,1.67-3.61,2.81-5.74l7.53-14.14h4.05l-12.88,23.51l-2.67,9.3l-3.88,0.1L764.75,731.38L764.75,731.38z M787.18,707.87
			h16.94l-4.79,23.51h-3.81l4.19-20.17h-9.45l-2.9,14.02c-0.49,2.4-1.16,4.08-1.99,5.03c-0.83,0.95-1.99,1.43-3.46,1.43
			c-0.45,0-0.94-0.02-1.47-0.07c-0.54-0.05-1.16-0.12-1.9-0.24l0.7-3.32l1.61,0.06c0.97,0,1.61-0.24,1.9-0.73
			c0.29-0.48,0.73-2.05,1.32-4.68L787.18,707.87L787.18,707.87z M803.72,731.38l9.79-11.93l-5.62-11.58h4.24l1.91,4.18
			c0.82,1.86,1.45,3.36,1.9,4.5l6.49-8.67h4.68l-9.45,11.89l5.68,11.62l-4.25,0.01l-2.24-4.79c-0.28-0.62-0.54-1.2-0.78-1.75
			c-0.17-0.4-0.46-1.08-0.85-2.04l-6.7,8.57H803.72L803.72,731.38z M832.62,731.38l-3.71-23.51h3.71l1.95,12.94
			c0.2,1.3,0.46,3.61,0.78,6.94c0.73-1.7,1.67-3.61,2.81-5.74l7.53-14.14h4.05l-12.88,23.51l-2.67,9.3l-3.88,0.1L832.62,731.38
			L832.62,731.38z M854.31,731.38l-3.71-23.51h3.71l1.95,12.94c0.2,1.3,0.46,3.61,0.78,6.94c0.73-1.7,1.67-3.61,2.81-5.74
			l7.53-14.14h4.05l-12.88,23.51l-2.67,9.3l-3.88,0.1L854.31,731.38L854.31,731.38z M868.51,740.38l6.5-32.52h3.54l-0.66,3.27
			c2.26-2.54,4.54-3.81,6.84-3.81c2.12,0,3.88,0.82,5.31,2.47c1.42,1.64,2.13,3.98,2.13,7.01c0,4.13-1.11,7.69-3.33,10.65
			c-2.22,2.97-4.79,4.45-7.71,4.45c-2.68,0-4.76-1.43-6.26-4.29l-2.53,12.77H868.51L868.51,740.38z M876.06,722.56
			c0,2.03,0.48,3.54,1.44,4.55c0.96,1.01,2.13,1.52,3.51,1.52c2.22,0,4-1.32,5.34-3.96c1.34-2.65,2.01-5.3,2.01-7.99
			c0-1.59-0.4-3.01-1.21-4.25c-0.8-1.24-1.98-1.86-3.54-1.86c-2.16,0-3.96,1.27-5.4,3.82C876.78,716.93,876.06,719.66,876.06,722.56
			L876.06,722.56z"/>
	</g>
</g>
</svg>
