<?xml version="1.0" encoding="utf-8"?>
<!-- Generator: Adobe Illustrator 26.5.0, SVG Export Plug-In . SVG Version: 6.00 Build 0)  -->
<svg version="1.1" id="Layer_1" xmlns="http://www.w3.org/2000/svg" xmlns:xlink="http://www.w3.org/1999/xlink" x="0px" y="0px"
	 viewBox="0 0 1080 1080" style="enable-background:new 0 0 1080 1080;" xml:space="preserve">
<style type="text/css">
	.st0{fill-rule:evenodd;clip-rule:evenodd;}
	.st1{fill:#ED1C24;}
	.st2{fill:#E1251B;}
	.st3{fill-rule:evenodd;clip-rule:evenodd;fill:#16397B;}
	.st4{fill:#EE2745;}
	
		.st5{clip-path:url(#SVGID_00000059269087132151958500000010459530851582849676_);fill:url(#SVGID_00000104707115961688371090000006279927778403627915_);}
	
		.st6{clip-path:url(#SVGID_00000109741298423417301640000005064347871377475980_);fill:url(#SVGID_00000163066436162566888750000012161300832660349073_);}
	
		.st7{clip-path:url(#SVGID_00000056387370339089484210000017408846108812082325_);fill:url(#SVGID_00000007426770438569836670000013337266412199482770_);}
	
		.st8{clip-path:url(#SVGID_00000041983820325587252830000012043948536477654717_);fill:url(#SVGID_00000090984810077372657770000002084933461183101090_);}
	.st9{fill:#424243;}
	
		.st10{clip-path:url(#SVGID_00000029029464790611383140000004091984988000389511_);fill:url(#SVGID_00000088833331645771254000000016035447077865587621_);}
	.st11{fill:#FFFFFF;}
	
		.st12{clip-path:url(#SVGID_00000108299620004037414060000003461242497062266781_);fill:url(#SVGID_00000034075578214082194570000008484039538958186923_);}
	
		.st13{clip-path:url(#SVGID_00000117663308785440732080000015776009269504983171_);fill:url(#SVGID_00000018195923250348272740000017461691081689821827_);}
	
		.st14{clip-path:url(#SVGID_00000163751140745270287590000011745625944290755224_);fill:url(#SVGID_00000088812790687213081410000008099663144148044672_);}
	
		.st15{clip-path:url(#SVGID_00000027596281526564650190000009971957519084721575_);fill:url(#SVGID_00000062900502499610965430000006932185916668377013_);}
	
		.st16{clip-path:url(#SVGID_00000096032521645059697920000018215375405903350921_);fill:url(#SVGID_00000144321418727811895120000006346503393841393288_);}
	
		.st17{clip-path:url(#SVGID_00000063601072343986491790000007941042666165413521_);fill:url(#SVGID_00000008845128711817950070000016434915364911129483_);}
	
		.st18{clip-path:url(#SVGID_00000158724165998504671880000007119499245502377400_);fill:url(#SVGID_00000183230181690423455220000006877102189695595671_);}
	.st19{fill-rule:evenodd;clip-rule:evenodd;fill:#C8202F;}
	.st20{fill-rule:evenodd;clip-rule:evenodd;fill:#FFFFFF;}
	.st21{fill-rule:evenodd;clip-rule:evenodd;fill:#F98238;}
	.st22{filter:url(#Adobe_OpacityMaskFilter);}
	.st23{fill:url(#SVGID_00000075876509753120796120000002338831347667510712_);}
	.st24{mask:url(#SVGID_00000162339296979291128900000013671973080522981309_);fill-rule:evenodd;clip-rule:evenodd;fill:#ED1C24;}
	.st25{fill-rule:evenodd;clip-rule:evenodd;fill:#F5333F;}
	.st26{fill-rule:evenodd;clip-rule:evenodd;fill:#ED1C24;}
	.st27{fill-rule:evenodd;clip-rule:evenodd;fill:#F9A46E;}
	.st28{fill-rule:evenodd;clip-rule:evenodd;fill:#F47B26;}
	.st29{fill-rule:evenodd;clip-rule:evenodd;fill:#EB5433;}
	.st30{fill:#1A3282;}
	.st31{fill-rule:evenodd;clip-rule:evenodd;fill:#1A3282;}
	.st32{fill-rule:evenodd;clip-rule:evenodd;fill:#9D9FA2;}
	.st33{fill-rule:evenodd;clip-rule:evenodd;fill:#000303;}
	.st34{fill:#64003D;}
	.st35{fill:#536270;}
	.st36{fill-rule:evenodd;clip-rule:evenodd;fill:#64003D;}
	.st37{fill-rule:evenodd;clip-rule:evenodd;fill:#536270;}
	.st38{fill-rule:evenodd;clip-rule:evenodd;fill:#1A3382;}
	.st39{fill-rule:evenodd;clip-rule:evenodd;fill:#29387E;}
	.st40{fill-rule:evenodd;clip-rule:evenodd;fill:#F37021;}
	.st41{fill-rule:evenodd;clip-rule:evenodd;fill:#005C32;}
	.st42{fill-rule:evenodd;clip-rule:evenodd;fill:#D2AB67;}
	
		.st43{clip-path:url(#SVGID_00000090996103866739474150000005847999449645435014_);fill:url(#SVGID_00000014606862074847040490000005116846410141224085_);}
	
		.st44{clip-path:url(#SVGID_00000032636489284322933360000006977833649066764974_);fill:url(#SVGID_00000078762098713073382130000000858701210373327781_);}
	
		.st45{clip-path:url(#SVGID_00000018949349057888527730000006343785174972944802_);fill:url(#SVGID_00000061437919029870546140000012028303023274926766_);}
	.st46{fill-rule:evenodd;clip-rule:evenodd;fill:#00AEEF;}
	.st47{fill-rule:evenodd;clip-rule:evenodd;fill:#EC008C;}
	.st48{fill-rule:evenodd;clip-rule:evenodd;fill:#FFF200;}
	.st49{fill:#A7AAAC;}
	.st50{fill-rule:evenodd;clip-rule:evenodd;fill:#5C5B5B;}
	.st51{fill:#9D9D9F;}
	.st52{fill:#F04D23;}
	.st53{fill-rule:evenodd;clip-rule:evenodd;fill:#2E3192;}
	.st54{fill-rule:evenodd;clip-rule:evenodd;fill:#C4312D;}
	.st55{fill:#552715;}
	.st56{fill:#010101;}
	.st57{fill:#E31E2E;}
	.st58{fill:url(#SVGID_00000178920627070259073380000003521300747450605189_);}
	.st59{fill:url(#SVGID_00000032647454744809485760000018083694652447889597_);}
	.st60{clip-path:url(#SVGID_00000157278280103803836990000016374990684289432978_);}
	.st61{clip-path:url(#SVGID_00000053506420267955310160000015688824479427928203_);}
	.st62{clip-path:url(#SVGID_00000044168397003579960370000003474639725244564636_);}
	.st63{clip-path:url(#SVGID_00000139993007807361402120000010870279133663037591_);}
	.st64{clip-path:url(#SVGID_00000122688517797298087730000001535366587001625244_);}
	.st65{clip-path:url(#SVGID_00000101785331264637518220000004936480096135554205_);}
	.st66{clip-path:url(#SVGID_00000069389334346689769270000003263481769975657116_);}
	.st67{clip-path:url(#SVGID_00000007401884974948797230000016543441250134469546_);}
	.st68{clip-path:url(#SVGID_00000027599840145951465710000017214428359094191539_);}
	.st69{clip-path:url(#SVGID_00000047038988149555096900000011496961437685056149_);}
	.st70{clip-path:url(#SVGID_00000012468487409921262410000004122067422862972840_);}
	.st71{fill:#2650A1;}
	.st72{fill:url(#SVGID_00000168089456003402609570000005330876003334505872_);}
	.st73{fill:#FEFEFE;}
	.st74{fill:#FDFDFD;}
	.st75{fill:#FCFCFC;}
	.st76{fill:#FBFBFB;}
	.st77{fill:#FAFAFA;}
	.st78{fill:#F9F9F9;}
	.st79{fill:#F8F8F8;}
	.st80{fill:#F7F7F7;}
	.st81{fill:#F6F6F6;}
	.st82{fill:#F5F5F5;}
	.st83{fill:#F4F4F4;}
	.st84{fill:#F3F3F3;}
	.st85{fill:#F2F2F2;}
	.st86{fill:#F1F1F1;}
	.st87{fill:#F0F0F0;}
	.st88{fill:#EFEFEF;}
	.st89{fill:#EEEEEE;}
	.st90{fill:#EDEDED;}
	.st91{fill:#ECECEC;}
	.st92{fill:#EBEBEB;}
	.st93{fill:#EAEAEA;}
	.st94{fill:#E9E9E9;}
	.st95{fill:#E8E8E8;}
	.st96{fill:#E7E7E7;}
	.st97{fill:#E6E6E6;}
	.st98{fill:#E5E5E5;}
	.st99{fill:#E4E4E4;}
	.st100{fill:#E3E3E3;}
	.st101{fill:#E2E2E2;}
	.st102{fill:#E1E1E1;}
	.st103{fill:#E0E0E0;}
	.st104{fill:#DFDFDF;}
	.st105{fill:#DEDEDE;}
	.st106{fill:#DDDDDD;}
	.st107{fill:#DCDCDC;}
	.st108{fill:#DBDBDB;}
	.st109{fill:#DADADA;}
	.st110{fill:#D9D9D9;}
	.st111{fill:#D92231;}
	.st112{fill:url(#SVGID_00000101782678026572304460000011368807540691152547_);}
	.st113{fill:url(#SVGID_00000172438155605339152990000005708884356518593470_);}
	.st114{opacity:0.8;}
	.st115{fill:url(#SVGID_00000083081304431195996090000017855486350893641145_);}
	.st116{fill:url(#SVGID_00000072276482897184963250000002877262695130964910_);}
	.st117{fill-rule:evenodd;clip-rule:evenodd;fill:#010101;}
	.st118{fill:#80A845;}
	.st119{fill-rule:evenodd;clip-rule:evenodd;fill:#80A845;}
	.st120{fill:url(#SVGID_00000041269626282825932670000009866609377189811072_);}
	.st121{fill-rule:evenodd;clip-rule:evenodd;fill:#04984A;}
	.st122{fill-rule:evenodd;clip-rule:evenodd;fill:url(#SVGID_00000141425522410131873000000006697716904716629420_);}
	.st123{fill:url(#SVGID_00000023240621175194538820000007940909703555018880_);}
	.st124{fill:url(#SVGID_00000172422245028215209140000007958858820857871794_);}
	.st125{fill:url(#SVGID_00000168812722099253702140000016340653490600413611_);}
	.st126{fill:url(#SVGID_00000183929200501431764350000010485326608405405577_);}
	.st127{fill:url(#SVGID_00000044168304577617977520000018436376085558946999_);}
	.st128{fill:url(#SVGID_00000104686049704326965140000013745243763223082166_);}
	.st129{fill:url(#SVGID_00000101094230417560773690000012350373283974956433_);}
	.st130{fill:url(#SVGID_00000147187349848666414750000015053547646177183371_);}
	.st131{fill:url(#SVGID_00000018959789446926453230000008229890688657544090_);}
	.st132{fill:url(#SVGID_00000122681604766945667690000009098276372745943964_);}
	.st133{fill:url(#SVGID_00000034051881835761653100000012501366651822005903_);}
	.st134{fill:url(#SVGID_00000078020320765641177190000016670260042850591376_);}
	.st135{fill:url(#SVGID_00000067941003577412868220000005507564345798683294_);}
	.st136{fill:url(#SVGID_00000005948936899491951220000010014136018469146047_);}
	.st137{fill-rule:evenodd;clip-rule:evenodd;fill:url(#SVGID_00000030461027694697780400000002364084886510253749_);}
	.st138{fill:#0A529D;}
	.st139{fill:url(#SVGID_00000169542086791147164450000012383816275232440714_);}
	.st140{fill:url(#SVGID_00000053546551994059305300000014015888272057835939_);}
	.st141{fill:url(#SVGID_00000005955327984866376730000011769972243254477196_);}
	.st142{fill:url(#SVGID_00000031929199091152862070000013716006813056175246_);}
	.st143{fill:url(#SVGID_00000162322382482265958920000015783802911274059194_);}
	.st144{fill:url(#SVGID_00000181779277534015526630000013201939343317705660_);}
	.st145{fill:url(#SVGID_00000155133501108021565780000015381422005543324334_);}
	.st146{fill:url(#SVGID_00000152966718637863929870000000939434283701302666_);}
	.st147{fill:url(#SVGID_00000011725099153039853500000008928925976188781735_);}
	.st148{fill:url(#SVGID_00000139278861111926264380000014124753128904798347_);}
	.st149{fill:url(#SVGID_00000170968191237448193600000006378633256986456722_);}
	.st150{fill:url(#SVGID_00000058583268923735303310000007773934462810911125_);}
	.st151{fill-rule:evenodd;clip-rule:evenodd;fill:url(#SVGID_00000154387205470885447230000008649773927150250371_);}
	.st152{fill:url(#SVGID_00000060730150250873657980000016111845533197035681_);}
	.st153{fill:url(#SVGID_00000042705685931596138000000013130366341899037354_);}
	.st154{fill:url(#SVGID_00000039120960975099060080000015935805542852502927_);}
	.st155{fill:url(#SVGID_00000166634081971189100670000003497474145701276288_);}
	.st156{fill:url(#SVGID_00000145740204518189618260000015484807056034173610_);}
	.st157{fill:url(#SVGID_00000168074566118407186330000001829368189722460345_);}
	.st158{fill:url(#SVGID_00000166638601466639725800000007599674986155792806_);}
	.st159{fill:url(#SVGID_00000160167497936230067380000004349459200510352564_);}
	.st160{fill:url(#SVGID_00000170258503538658046560000004421909026373465776_);}
	.st161{fill:url(#SVGID_00000123419530109522854720000004395480960403975577_);}
	.st162{fill:url(#SVGID_00000176019000648865846670000016916064677144160933_);}
	.st163{fill:url(#SVGID_00000155832821358401064280000012404792908940838333_);}
	.st164{fill:url(#SVGID_00000018205722225771813750000005103436291176175516_);}
	.st165{fill:url(#SVGID_00000109004087372253777110000000798363883439628462_);}
	.st166{fill:url(#SVGID_00000176727918764939423420000009563311728052105103_);}
	.st167{fill:url(#SVGID_00000062173952938330181170000002600913830141867671_);}
	.st168{fill:url(#SVGID_00000126294685403096140780000014636474084525864102_);}
	.st169{fill-rule:evenodd;clip-rule:evenodd;fill:url(#SVGID_00000052063627529896239740000012712185829730972833_);}
	.st170{fill:url(#SVGID_00000083802511316278295440000015964436270685706407_);}
	.st171{fill:url(#SVGID_00000122720292153267132330000002042014023177359258_);}
	.st172{fill:url(#SVGID_00000130625607945829073310000005051323338959827870_);}
	.st173{fill:url(#SVGID_00000142162167227919495660000005361940004931844278_);}
	.st174{fill:url(#SVGID_00000090290976403839926280000008957820088425213322_);}
	.st175{fill:url(#SVGID_00000083067169668110873240000015946852334547111070_);}
	.st176{fill:url(#SVGID_00000009572476418575923480000016728858705475094151_);}
	.st177{fill:url(#SVGID_00000064350156286312422410000017197621613058024890_);}
	.st178{fill:url(#SVGID_00000111177589934489974620000017164712058399883418_);}
	.st179{fill:url(#SVGID_00000021828765812554466360000000980187471001178038_);}
	.st180{fill:url(#SVGID_00000012449055203713270160000001772029761759520170_);}
	.st181{fill:url(#SVGID_00000096766713920941844670000014715194132318946465_);}
	.st182{fill:url(#SVGID_00000056420855439864768790000018073580814181951411_);}
	.st183{fill:url(#SVGID_00000173849292874400030490000011121187909268875953_);}
	.st184{fill-rule:evenodd;clip-rule:evenodd;fill:url(#SVGID_00000007419950548668805930000013300299360760892061_);}
	.st185{fill:url(#SVGID_00000063599623089596405290000000165240943562817209_);}
	.st186{fill:url(#SVGID_00000167395736131104335990000008048040575416175031_);}
	.st187{fill:url(#SVGID_00000157989962337742970980000005076578110376662420_);}
	.st188{fill:url(#SVGID_00000044149595064026336660000013793866120388498829_);}
	.st189{fill:url(#SVGID_00000166656706431326863040000017700759767444090809_);}
	.st190{fill:url(#SVGID_00000026135736705137536770000005761760171052713625_);}
	.st191{fill:url(#SVGID_00000003795728992669297870000001248127464975470265_);}
	.st192{fill:url(#SVGID_00000052814037136272787420000003222404757448809345_);}
	.st193{fill:url(#SVGID_00000064314197285329361360000007396979411190937002_);}
	.st194{fill:url(#SVGID_00000026129717160136545650000009846204231412867713_);}
	.st195{fill:url(#SVGID_00000026161779827314221550000000091998257626417542_);}
	.st196{fill:url(#SVGID_00000101819051252810177120000003344501137332308870_);}
	.st197{fill:url(#SVGID_00000147922975578559858930000000068255111634895520_);}
	.st198{fill:url(#SVGID_00000089576299431885436630000006329213959792840577_);}
	.st199{fill:url(#SVGID_00000019637216415288914050000014534262882600238489_);}
	.st200{fill:url(#SVGID_00000135650618195165354130000002334936448840385174_);}
	.st201{fill:url(#SVGID_00000016781951551427122460000011436559885626437810_);}
	.st202{fill:url(#SVGID_00000068669134907274732980000008289577831165882263_);}
	.st203{fill:url(#SVGID_00000178885748314684891480000011675201721836373175_);}
	.st204{fill-rule:evenodd;clip-rule:evenodd;fill:url(#SVGID_00000054258569799752207690000016636811855436480185_);}
	.st205{fill:url(#SVGID_00000015329925207401108010000015643488382157437093_);}
	.st206{fill:url(#SVGID_00000137093570059683746950000009213202052705699239_);}
	.st207{fill:url(#SVGID_00000116212782328341464470000014092036476240208304_);}
	.st208{fill:url(#SVGID_00000145740295783213206760000008502150066305753750_);}
	.st209{fill:url(#SVGID_00000121256292864932203460000003602916202271797126_);}
	.st210{fill:url(#SVGID_00000093138632260802415820000005109024733682666888_);}
	.st211{fill:url(#SVGID_00000159453176608104914620000001371249798535847085_);}
	.st212{fill:url(#SVGID_00000155125320007794556580000015014231684284077459_);}
	.st213{fill:url(#SVGID_00000119796199580657055820000007186984245088165295_);}
	.st214{fill:url(#SVGID_00000082330445478095454030000011806158444027608213_);}
	.st215{fill:url(#SVGID_00000134212546728072613660000018370046884132675752_);}
	.st216{fill:url(#SVGID_00000026120997095490236850000010949406916809451905_);}
	.st217{fill:url(#SVGID_00000070103633155665723200000013983137018908639146_);}
	.st218{fill:url(#SVGID_00000085950283150504317320000001990599393890071733_);}
	.st219{fill:url(#SVGID_00000048483792698410853600000004973601023203227069_);}
	.st220{fill:url(#SVGID_00000137812029958299026340000009665674384183642268_);}
	.st221{fill-rule:evenodd;clip-rule:evenodd;fill:url(#SVGID_00000144310801259502688670000003010150080683566484_);}
	.st222{fill:url(#SVGID_00000173863775620556114610000005008641206908270506_);}
	.st223{fill:url(#SVGID_00000083079502527176422290000002675049982628235418_);}
	.st224{fill:url(#SVGID_00000065788274605190767270000011424695391551484600_);}
	.st225{fill:url(#SVGID_00000135668026765926688960000005161244829826704273_);}
	.st226{fill:url(#SVGID_00000010292778289434784160000005640626235723191453_);}
	.st227{fill:url(#SVGID_00000067211156349435509020000010188757267430644096_);}
	.st228{fill:url(#SVGID_00000010306925898912212790000005577681357735662759_);}
	.st229{fill:url(#SVGID_00000011018523826862681300000016419733776541155772_);}
	.st230{fill:url(#SVGID_00000029016610149022962940000010663006790918261394_);}
	.st231{fill:url(#SVGID_00000090275761153702353850000003622174787913447310_);}
	.st232{fill:url(#SVGID_00000121255772311813008090000012035710606184649916_);}
	.st233{fill:url(#SVGID_00000147188769725062818350000004819289745696629657_);}
	.st234{fill:url(#SVGID_00000039115639719861920410000013393664684558935229_);}
	.st235{fill:url(#SVGID_00000055704472111828018120000006851050342567900091_);}
	.st236{fill:url(#SVGID_00000031185322679051907760000002468196171797142443_);}
	.st237{fill-rule:evenodd;clip-rule:evenodd;fill:url(#SVGID_00000117670811936610911400000001131794271637179316_);}
	.st238{fill:url(#SVGID_00000133493309670147082540000000428918083911936686_);}
	.st239{fill:url(#SVGID_00000150824933161336525870000000264602780309112756_);}
	.st240{fill:url(#SVGID_00000128476577332237310000000015771873594350298783_);}
	.st241{fill:url(#SVGID_00000058575721689990952150000006724140385734304179_);}
	.st242{fill:url(#SVGID_00000136408514316937606530000013148846682714179985_);}
	.st243{fill:url(#SVGID_00000146461908361990957290000008836865341213799053_);}
	.st244{fill:url(#SVGID_00000054961232207856147160000017462146778695417491_);}
	.st245{fill:url(#SVGID_00000109746763801259849860000017442234265873566099_);}
	.st246{fill:url(#SVGID_00000074441966918806278690000017364363392006767286_);}
	.st247{fill:url(#SVGID_00000070815562348103796960000015615528213188610238_);}
	.st248{fill:url(#SVGID_00000109741754502342731960000000238934114348926854_);}
	.st249{fill:url(#SVGID_00000018943662618520235580000006519120561070701440_);}
	.st250{fill:url(#SVGID_00000023248901635571555910000010551237190474658185_);}
	.st251{fill:url(#SVGID_00000130634592199331234120000016446323120897725321_);}
	.st252{fill:url(#SVGID_00000108281383595441014420000014751804251178950064_);}
	.st253{fill-rule:evenodd;clip-rule:evenodd;fill:url(#SVGID_00000000905119498468064350000013709056754669282994_);}
	.st254{fill:url(#SVGID_00000158017869060397825220000017254204983287440789_);}
	.st255{fill:url(#SVGID_00000085221862176744789350000015080818954932363178_);}
	.st256{fill:url(#SVGID_00000064329314480459093980000000632341494086976386_);}
	.st257{fill:url(#SVGID_00000147898823158454753740000014234235698387511205_);}
	.st258{fill:url(#SVGID_00000174586156825481760480000015498445616318860953_);}
	.st259{fill:url(#SVGID_00000133523839010064965790000009893347800034283446_);}
	.st260{fill:url(#SVGID_00000090267935623329631930000014139056837219675793_);}
	.st261{fill:url(#SVGID_00000010280850798159262200000011435340010702799494_);}
	.st262{fill:url(#SVGID_00000183965705998683898640000000244009033351512464_);}
	.st263{fill:url(#SVGID_00000071534766433456605970000013847896347429486254_);}
	.st264{fill:url(#SVGID_00000181806978514477539700000011395385753157238715_);}
	.st265{fill:url(#SVGID_00000029740208899812119170000009159329181144736692_);}
	.st266{fill:url(#SVGID_00000070112403007806513270000007498728601988267448_);}
	.st267{fill:url(#SVGID_00000152243703520008245710000010040063971813204119_);}
	.st268{fill:url(#SVGID_00000170245951629690012090000000849923328989591427_);}
	.st269{fill-rule:evenodd;clip-rule:evenodd;fill:url(#SVGID_00000171695769589158712820000006906504151054583959_);}
	.st270{fill:url(#SVGID_00000062912182570227784340000013903885424823408809_);}
	.st271{fill:url(#SVGID_00000026142067026656635480000003894318208606035371_);}
	.st272{fill:url(#SVGID_00000018936179985977070220000016028872990326621114_);}
	.st273{fill:url(#SVGID_00000050629944122040407230000004898442465458396551_);}
	.st274{fill:url(#SVGID_00000176026257675586605910000000559761243676297660_);}
	.st275{fill:url(#SVGID_00000096040318937468916200000005727105827360884631_);}
	.st276{fill:url(#SVGID_00000135668404044106789690000013089284942395817865_);}
	.st277{fill:url(#SVGID_00000045597277351451679490000014578099720670237569_);}
	.st278{fill:url(#SVGID_00000133521112085811369320000006688968062728863131_);}
	.st279{fill:url(#SVGID_00000178190801712289261930000011406933108552689024_);}
	.st280{fill:url(#SVGID_00000045611229724738700340000016291525589491443083_);}
	.st281{fill:url(#SVGID_00000060008282696824164110000016537211229936194695_);}
	.st282{fill:url(#SVGID_00000167388611879752447160000015805689896360084879_);}
	.st283{fill:url(#SVGID_00000175319866311522737690000004868221788304562313_);}
	.st284{fill:url(#SVGID_00000060746417839046588720000013709082881132372628_);}
	.st285{fill-rule:evenodd;clip-rule:evenodd;fill:url(#SVGID_00000036948106350423213400000006412854487199520191_);}
	.st286{fill:url(#SVGID_00000121965425979636135580000003365769613048887190_);}
	.st287{fill:url(#SVGID_00000050623211128524939620000015006855518887565742_);}
	.st288{fill:url(#SVGID_00000003097136281778083000000008216938306945787038_);}
	.st289{fill:url(#SVGID_00000156560117259229244430000006714702832140365489_);}
	.st290{fill:url(#SVGID_00000129203079981587285320000007493160231657237121_);}
	.st291{fill:url(#SVGID_00000064324433336910148850000008651484822801757090_);}
	.st292{fill:url(#SVGID_00000181777066064646129930000003819087348540303496_);}
	.st293{fill:url(#SVGID_00000150070468973890928500000011196413400657627578_);}
	.st294{fill:url(#SVGID_00000011736728918307401710000011397352315425117611_);}
	.st295{fill:url(#SVGID_00000096756321985400673510000004990936135300468627_);}
	.st296{fill:url(#SVGID_00000106112191300006498380000016158433293100591549_);}
	.st297{fill:url(#SVGID_00000081618189264664060890000012549351449137605530_);}
	.st298{fill:url(#SVGID_00000005975774481199380760000017198152241595296686_);}
	.st299{fill:url(#SVGID_00000015313045649015301290000015861183968175869625_);}
	.st300{fill:url(#SVGID_00000131337594846944913910000001600109482320501680_);}
	.st301{fill:url(#SVGID_00000032632433046755426520000002745459506145987484_);}
	.st302{fill:url(#SVGID_00000003105146319335248930000006310494612686220191_);}
	.st303{fill:url(#SVGID_00000044886871953569998020000014666749989408741545_);}
	.st304{fill-rule:evenodd;clip-rule:evenodd;fill:url(#SVGID_00000121259136752529260850000009103407593232847744_);}
	.st305{fill:url(#SVGID_00000031190267608683326570000013681162750366051989_);}
	.st306{fill:url(#SVGID_00000142865655241924240900000005824358752293243551_);}
	.st307{fill:url(#SVGID_00000061432751742354695280000008540324581432123574_);}
	.st308{fill:url(#SVGID_00000171698038654348323980000005330825758091350188_);}
	.st309{fill:url(#SVGID_00000135653718639807312330000004319075151363826834_);}
	.st310{fill:url(#SVGID_00000054236403645448770640000000682814984196610209_);}
	.st311{fill:url(#SVGID_00000130607452336806265900000007951133510625784752_);}
	.st312{fill:url(#SVGID_00000040543111581468423070000009034975611129021074_);}
	.st313{fill:url(#SVGID_00000129898926914628756230000002354752521404312504_);}
	.st314{fill:url(#SVGID_00000037661122474483178600000003561743037005335742_);}
	.st315{fill:url(#SVGID_00000057129828985356242630000017776966030806112394_);}
	.st316{fill:url(#SVGID_00000169541452282636085080000014312196072777342621_);}
	.st317{fill:url(#SVGID_00000081628062023147301390000005039298176918220418_);}
	.st318{fill:url(#SVGID_00000081640225669879670810000001354682558201402791_);}
	.st319{fill:url(#SVGID_00000115477619252591654270000003748753437286870188_);}
	.st320{fill:url(#SVGID_00000041983584898644878480000010073040040890507153_);}
	.st321{fill:url(#SVGID_00000157272762771863172790000011245351046000684722_);}
	.st322{fill:url(#SVGID_00000126322795702338261190000016350791653888042143_);}
	.st323{fill:url(#SVGID_00000120548748119825305750000010540057608595217570_);}
	.st324{fill:url(#SVGID_00000039841842826117373900000017472362849963819183_);}
	.st325{fill-rule:evenodd;clip-rule:evenodd;fill:url(#SVGID_00000075855334900630551810000014974496909807416751_);}
	.st326{fill:url(#SVGID_00000152262301754405260820000007813788504973823676_);}
	.st327{fill:url(#SVGID_00000127737620481301300010000011662311037930476687_);}
	.st328{fill:url(#SVGID_00000054969881222689608050000007021806337736486079_);}
	.st329{fill:url(#SVGID_00000128475656057828617460000010866132134207018662_);}
	.st330{fill:url(#SVGID_00000116920493403309844540000007137638655046746807_);}
	.st331{fill:url(#SVGID_00000114755160657395178640000017630499987075227275_);}
	.st332{fill:url(#SVGID_00000026857776380331840540000018358636634985489076_);}
	.st333{fill:url(#SVGID_00000021822268647295188050000006921592117488348346_);}
	.st334{fill:url(#SVGID_00000042015283185033858850000012822791286589814676_);}
	.st335{fill:url(#SVGID_00000158720057863015366320000014378052041395372445_);}
	.st336{fill:url(#SVGID_00000139252470760759979750000017737358087819303827_);}
	.st337{fill:url(#SVGID_00000023282421925833873290000005980455503241235126_);}
	.st338{fill:url(#SVGID_00000030452751326093449310000009147443801299239332_);}
	.st339{fill:url(#SVGID_00000090282393148860971340000000156206516946615986_);}
	.st340{fill:url(#SVGID_00000121977156614710825800000004047180823129589911_);}
	.st341{fill:url(#SVGID_00000048473351109556710850000012611676931344853902_);}
	.st342{fill-rule:evenodd;clip-rule:evenodd;fill:url(#SVGID_00000138564076142311570220000010614159602585215423_);}
	.st343{fill:url(#SVGID_00000183936208054892587480000015544229426592746125_);}
	.st344{fill:url(#SVGID_00000103977156768768576820000003226713353186652333_);}
	.st345{fill:url(#SVGID_00000060020780973908124120000004787772458063614353_);}
	.st346{fill:url(#SVGID_00000044159564334919083300000000269053950764989350_);}
	.st347{fill:url(#SVGID_00000145052040294283267840000014635390099264947617_);}
	.st348{fill:url(#SVGID_00000000181118634340905840000006009749630409794459_);}
	.st349{fill:url(#SVGID_00000073709469250544043200000003773499559036928399_);}
	.st350{fill:url(#SVGID_00000181781735370439899220000013579955140826632605_);}
	.st351{fill:url(#SVGID_00000036938258095392913000000005402758782332737695_);}
	.st352{fill:url(#SVGID_00000083057075483601202030000018441418406061390520_);}
	.st353{fill:url(#SVGID_00000138548426805052985310000004925616963879989892_);}
	.st354{fill:url(#SVGID_00000025441507384868481330000006740967047487451820_);}
	.st355{fill:url(#SVGID_00000015338927090882192770000002387782147595536769_);}
	.st356{fill:url(#SVGID_00000022541137548390611790000003546107459572332953_);}
	.st357{fill:url(#SVGID_00000023997559335207226920000009552565474173088688_);}
	.st358{fill:url(#SVGID_00000173866441457161413560000003602116978199575458_);}
	.st359{fill:url(#SVGID_00000131362823195759062710000001256688689501859742_);}
	.st360{fill:url(#SVGID_00000041294170299213479650000009146169873406340793_);}
	.st361{fill:url(#SVGID_00000102512999467219625180000001874414276844935569_);}
	.st362{fill:url(#SVGID_00000139989213005594850930000009523678357436180365_);}
	.st363{fill:#C1282D;}
	.st364{fill-rule:evenodd;clip-rule:evenodd;fill:url(#SVGID_00000070110505746158937040000006660626430992328093_);}
	.st365{fill:url(#SVGID_00000016068182563083890220000016264686975260075187_);}
	.st366{fill:url(#SVGID_00000164494608408027457320000006777195027932562610_);}
	.st367{fill:url(#SVGID_00000144332736611613706610000017908336292507150226_);}
	.st368{fill:url(#SVGID_00000142174661259882697510000014336314720803011768_);}
	.st369{fill:url(#SVGID_00000113312861971668983910000008820732402944345233_);}
	.st370{fill:url(#SVGID_00000097458319496100067560000005912439937534036371_);}
	.st371{fill:url(#SVGID_00000181067448200521712740000001896012389012818847_);}
	.st372{fill:url(#SVGID_00000124137013134146082510000007447767781006426256_);}
	.st373{fill:url(#SVGID_00000068635644708945194320000018026681044122366649_);}
	.st374{fill:url(#SVGID_00000175292649999919272240000016969175394711110074_);}
	.st375{fill:url(#SVGID_00000130607207109714933150000013297064367744106382_);}
	.st376{fill:url(#SVGID_00000047776882325730041090000004048906028073759373_);}
	.st377{fill:url(#SVGID_00000158012722656049449140000003567297972219093649_);}
	.st378{fill:url(#SVGID_00000010281210318561542230000002577790667063777934_);}
	.st379{fill:url(#SVGID_00000005955978830094707380000011363608309660720045_);}
	.st380{fill:url(#SVGID_00000110461475951608352320000017955463245110959495_);}
	.st381{fill-rule:evenodd;clip-rule:evenodd;fill:url(#SVGID_00000108276274030332582290000001798212053734455197_);}
	.st382{fill:url(#SVGID_00000073693709187523531880000006664855740634554249_);}
	.st383{fill:url(#SVGID_00000073712846981236137140000008705751355113193905_);}
	.st384{fill:url(#SVGID_00000085247524998134037800000010919937458511677371_);}
	.st385{fill:url(#SVGID_00000073685075634532274550000000122936402014471607_);}
	.st386{fill:url(#SVGID_00000056386028909385960580000000898637151171814064_);}
	.st387{fill:url(#SVGID_00000159463859491573358240000009771289836154848656_);}
	.st388{fill:url(#SVGID_00000099649059843495310370000017293669746481465757_);}
	.st389{fill:url(#SVGID_00000111160457047343698940000011272876068167177119_);}
	.st390{fill:url(#SVGID_00000025401622526001332670000010547379172891961483_);}
	.st391{fill:url(#SVGID_00000017515668497434240130000015980738757567583416_);}
	.st392{fill:url(#SVGID_00000051364275563314095880000013144175796396165276_);}
	.st393{fill:url(#SVGID_00000147935430340132652030000014723169940255157406_);}
	.st394{fill:url(#SVGID_00000127749634545631208890000005185199323307093670_);}
	.st395{fill:url(#SVGID_00000174572376268167586180000008520685711304622501_);}
	.st396{fill:url(#SVGID_00000155826652312633450790000013026422806642475707_);}
	.st397{fill:url(#SVGID_00000143593535367079922980000017911351733481050024_);}
	.st398{fill:url(#SVGID_00000177462708425375789480000014580142483540179095_);}
	.st399{fill:url(#SVGID_00000028284816296532028660000016603175698310594728_);}
	.st400{fill:url(#SVGID_00000049221164461828093050000005926266663991207614_);}
	.st401{fill:url(#SVGID_00000094583172979491657080000003571913231030387845_);}
</style>
<g>
	<g>
		<ellipse class="st11" cx="540" cy="395.56" rx="317.6" ry="157.59"/>
		<path class="st121" d="M841.77,444.64C800.16,507.66,680.81,553.16,540,553.16c-141.59,0-261.47-45.98-302.45-109.59l3.11-0.97
			l14.62-4.56l103.18-32.39l-9.71,27c-0.83,2.28,1.51,4.47,3.74,3.5l91.09-39.33l-30.88,45.69c-1.7,2.48,1.21,5.54,3.79,3.93
			l91.43-56.47v34.28c0,2.43,2.91,3.69,4.71,1.99l9.37-8.89l14.76,34.28c0.92,2.14,3.93,2.28,5.05,0.19l23.94-45.69l111.09,56.18
			c2.52,1.31,5.15-1.65,3.54-4.03l-29.28-43.89c-0.68-0.97-0.63-2.28,0.1-3.2l12.62-17.14l14.71,18.31c1.31,1.6,3.79,1.31,4.71-0.53
			l7.77-15.78l67.25,49.67c1.55,1.12,3.79,0.39,4.32-1.46l6.99-23.02l71.96,23.26c0.05,0,0.1,0.05,0.1,0.05
			C841.67,444.59,841.72,444.59,841.77,444.64z"/>
		
			<linearGradient id="SVGID_00000074425706877545980050000010390467511188799673_" gradientUnits="userSpaceOnUse" x1="409.5925" y1="243.7122" x2="722.6297" y2="601.2922">
			<stop  offset="0" style="stop-color:#3E76BB"/>
			<stop  offset="1" style="stop-color:#06509E"/>
		</linearGradient>
		<path style="fill-rule:evenodd;clip-rule:evenodd;fill:url(#SVGID_00000074425706877545980050000010390467511188799673_);" d="
			M857.6,395.82c0,1.51-0.05,2.96-0.15,4.42c-0.05,1.26-0.15,2.48-0.29,3.69c-0.1,1.12-0.24,2.23-0.39,3.35
			c-0.1,0.78-0.24,1.55-0.39,2.33c-0.44,2.72-1.07,5.44-1.85,8.11c-0.24,0.97-0.53,1.94-0.83,2.86c-0.1,0.34-0.19,0.68-0.34,1.02
			c-0.39,1.21-0.83,2.43-1.26,3.59c-0.34,0.92-0.73,1.89-1.17,2.82c-0.1,0.29-0.24,0.63-0.39,0.92l-0.15-0.05l-0.1-0.05
			l-204.56-99.25c-1.26-0.58-2.77-0.19-3.54,0.97l-27.48,41.03l-73.22-89.97c-1.02-1.17-2.77-1.36-3.93-0.34l-101.72,85.26
			l-48.22-4.61c-0.78-0.1-1.55,0-2.28,0.34c-13.26,5.97-146.83,66.47-154.45,69.92c-0.34-0.63-0.63-1.21-0.87-1.84
			c-0.39-0.87-0.78-1.8-1.17-2.72c-0.78-1.85-1.51-3.74-2.09-5.58c-0.39-1.12-0.73-2.19-1.02-3.3c-1.12-3.59-1.89-7.23-2.43-10.92
			c-0.39-2.43-0.63-4.9-0.78-7.38c-0.1-1.51-0.15-3.06-0.15-4.61c0-87.16,142.17-157.85,317.6-157.85
			C715.43,237.97,857.6,308.66,857.6,395.82z"/>
		<g>
			<path class="st11" d="M363.79,479.57c0.43,0,0.85-0.09,1.26-0.26c0.41-0.18,0.66-0.42,0.77-0.75h0.93l-1.62,6.2
				c-0.27,0.87-1.07,1.3-2.39,1.3h-2.39l-4.54,19.29c-0.05,0.27,0.07,0.55,0.36,0.83c0.3,0.28,0.6,0.43,0.89,0.43l-0.28,0.93h-11.27
				c-0.87,0-1.3-0.43-1.3-1.3c0-0.11,0.03-0.32,0.08-0.65l4.58-19.54h-2.8c-0.43,0-0.79,0.1-1.07,0.3c-0.28,0.2-0.48,0.47-0.59,0.79
				h-1.01l1.62-6.48c0.11-0.38,0.32-0.66,0.65-0.83c0.32-0.18,0.84-0.26,1.54-0.26H363.79z"/>
			<path class="st11" d="M376.81,507.53c-0.7,0-1.22-0.11-1.56-0.34c-0.34-0.23-0.53-0.63-0.59-1.2l-0.37-4.13h-4.7l-1.66,3.32
				c-0.03,0.08-0.04,0.15-0.04,0.2c0,0.05-0.01,0.16-0.04,0.32c0,0.24,0.11,0.45,0.34,0.63c0.23,0.18,0.49,0.26,0.79,0.26l-0.2,0.93
				h-8.79c-1.14,0-1.7-0.45-1.7-1.34c0-0.24,0.07-0.5,0.2-0.77l11.92-23.1c0.08-0.16,0.12-0.37,0.12-0.61c0-0.3-0.13-0.57-0.38-0.83
				c-0.26-0.26-0.53-0.39-0.83-0.39l0.24-0.93h12.08c0.62,0,1.15,0.17,1.58,0.51c0.43,0.34,0.65,0.82,0.65,1.44l1.86,23.67
				c0,0.35,0.19,0.67,0.57,0.97c0.38,0.3,0.77,0.45,1.17,0.45l-0.2,0.93H376.81z M371.99,496.42h2.31l-0.32-4.54L371.99,496.42z"/>
			<path class="st11" d="M385.53,482.08c-0.05-0.49-0.24-0.87-0.55-1.15c-0.31-0.28-0.66-0.43-1.03-0.43l0.2-0.93h11.31
				c0.35,0,0.69,0.18,1.01,0.53c0.32,0.35,0.49,0.73,0.49,1.13l0.32,10.62l3.97-9.28l0.16-0.65c0-0.32-0.11-0.64-0.34-0.95
				s-0.49-0.47-0.79-0.47l0.2-0.93h8.23c0.49,0,0.88,0.18,1.19,0.55s0.47,0.75,0.47,1.15l-0.16,0.81l-11.92,25.45h-7.58
				c-0.62,0-1.14-0.14-1.54-0.41c-0.41-0.27-0.65-0.64-0.73-1.09L385.53,482.08z"/>
			<path class="st11" d="M420.1,507.53c-0.7,0-1.22-0.11-1.56-0.34c-0.34-0.23-0.53-0.63-0.59-1.2l-0.37-4.13h-4.7l-1.66,3.32
				c-0.03,0.08-0.04,0.15-0.04,0.2c0,0.05-0.01,0.16-0.04,0.32c0,0.24,0.11,0.45,0.34,0.63c0.23,0.18,0.49,0.26,0.79,0.26l-0.2,0.93
				h-8.79c-1.14,0-1.7-0.45-1.7-1.34c0-0.24,0.07-0.5,0.2-0.77l11.92-23.1c0.08-0.16,0.12-0.37,0.12-0.61c0-0.3-0.13-0.57-0.38-0.83
				c-0.26-0.26-0.53-0.39-0.83-0.39l0.24-0.93h12.08c0.62,0,1.15,0.17,1.58,0.51c0.43,0.34,0.65,0.82,0.65,1.44l1.86,23.67
				c0,0.35,0.19,0.67,0.57,0.97c0.38,0.3,0.77,0.45,1.17,0.45l-0.2,0.93H420.1z M415.28,496.42h2.31l-0.32-4.54L415.28,496.42z"/>
			<path class="st11" d="M458,507.53h-7.38c-0.81,0-1.49-0.11-2.05-0.32c-0.55-0.22-0.91-0.61-1.07-1.17l-4.13-10.01l-2.35,9.04
				l-0.08,0.69c0,0.27,0.11,0.48,0.34,0.63c0.23,0.15,0.53,0.22,0.91,0.22l-0.2,0.93h-9.12c-0.46,0-0.8-0.13-1.03-0.38
				c-0.23-0.26-0.34-0.6-0.34-1.03c0-0.16,0.03-0.38,0.08-0.65l5.51-23.71c0.05-0.3-0.05-0.58-0.32-0.85
				c-0.27-0.27-0.57-0.41-0.89-0.41l0.24-0.93h10.29c0.32,0,0.7,0.16,1.11,0.47c0.42,0.31,0.7,0.64,0.83,0.99l4.38,10.21l1.94-8.75
				c0.05-0.16,0.08-0.42,0.08-0.77c0-0.32-0.14-0.61-0.41-0.85c-0.27-0.24-0.57-0.37-0.89-0.37l0.24-0.93h9.08
				c0.43,0,0.76,0.15,0.99,0.45c0.23,0.3,0.34,0.64,0.34,1.01l-0.12,1.09L458,507.53z"/>
			<path class="st11" d="M500.84,479.52c1.81,0,3.21,0.47,4.19,1.42c0.99,0.95,1.48,2.14,1.48,3.57c0,0.22-0.02,0.46-0.06,0.73
				c-0.04,0.27-0.07,0.47-0.1,0.61c-0.62,2.97-1.89,4.77-3.81,5.39c0.78,0.49,1.36,1.02,1.72,1.6c0.37,0.58,0.55,1.44,0.55,2.57
				c0,1.03-0.2,2.46-0.61,4.3c-0.7,3.05-1.78,5.15-3.24,6.28c-1.32,1.03-3.36,1.54-6.12,1.54h-16.09c-0.46,0-0.8-0.13-1.03-0.38
				c-0.23-0.26-0.34-0.6-0.34-1.03c0-0.16,0.03-0.38,0.08-0.65l5.51-23.71c0.05-0.3-0.05-0.58-0.32-0.85
				c-0.27-0.27-0.57-0.41-0.89-0.41l0.24-0.93L500.84,479.52z M491.32,501.25c0.73,0,1.24-0.17,1.52-0.5
				c0.28-0.34,0.56-1.1,0.83-2.29c0.19-0.76,0.28-1.38,0.28-1.86c0-0.92-0.5-1.38-1.5-1.38h-1.13l-1.38,6.04H491.32z M494.2,489.82
				c0.46,0,0.78-0.13,0.97-0.38c0.19-0.26,0.37-0.72,0.53-1.4c0.16-0.68,0.24-1.16,0.24-1.46c0-0.7-0.39-1.06-1.18-1.06h-1.22
				l-0.97,4.3H494.2z"/>
			<path class="st11" d="M525.41,479.57c2.38,0,4.34,0.62,5.88,1.84c1.54,1.23,2.31,2.97,2.31,5.21c0,0.81-0.09,1.59-0.28,2.35
				l-2.43,10.29c-0.7,3.05-1.92,5.23-3.65,6.52c-1.51,1.16-3.59,1.74-6.24,1.74h-8.31c-2.54,0-4.42-0.57-5.65-1.72
				c-1.23-1.15-1.84-2.85-1.84-5.09c0-1.32,0.18-2.7,0.53-4.13l1.78-7.66c0.7-2.94,1.72-5.15,3.04-6.61
				c1.7-1.84,4.09-2.76,7.17-2.76H525.41z M516.65,498.86c-0.08,0.38-0.12,0.7-0.12,0.97c0,0.68,0.38,1.01,1.14,1.01
				c0.51,0,0.9-0.12,1.15-0.35c0.26-0.23,0.45-0.64,0.59-1.24l2.67-11.39c0.05-0.32,0.08-0.54,0.08-0.65c0-0.78-0.39-1.18-1.18-1.18
				c-0.86,0-1.44,0.54-1.74,1.62L516.65,498.86z"/>
			<path class="st11" d="M547.38,495.41l0.08-0.53c0-0.24-0.16-0.37-0.49-0.37c-0.32,0-0.49-0.14-0.49-0.41l0.08-0.53l1.18-4.82
				h8.96c0.65,0,1.15,0.19,1.52,0.59c0.37,0.39,0.55,0.83,0.55,1.32c0,0.62-0.05,1.14-0.16,1.54l-2.15,9.52
				c-0.49,2.16-1.23,3.67-2.23,4.52c-1,0.85-2.67,1.28-5.02,1.28h-9.81c-2.73,0-4.69-0.53-5.88-1.58c-1.05-0.95-1.58-2.39-1.58-4.34
				c0-1.24,0.22-2.75,0.65-4.54l2.23-9.77c0.57-2.54,1.66-4.5,3.28-5.87c1.49-1.27,3.19-1.91,5.11-1.91h16.57
				c-0.08,0.81-0.23,1.64-0.45,2.47s-0.45,1.53-0.71,2.07s-0.65,0.93-1.18,1.17c-0.53,0.24-1.13,0.37-1.8,0.37h-6.85
				c-0.76,0-1.34,0.18-1.76,0.55s-0.72,0.96-0.91,1.8l-2.63,11.35c-0.05,0.38-0.08,0.62-0.08,0.73c0,0.68,0.42,1.01,1.26,1.01
				c0.95,0,1.53-0.5,1.74-1.5L547.38,495.41z"/>
			<path class="st11" d="M578.47,479.57c2.73,0,4.72,0.7,5.96,2.11c1.11,1.27,1.66,3.13,1.66,5.59c0,0.95-0.09,2.01-0.26,3.18
				c-0.18,1.18-0.43,2.41-0.75,3.71c-1.27,5.38-2.52,8.95-3.75,10.72c-1.23,1.77-3.02,2.66-5.37,2.66h-18.07
				c-0.46,0-0.8-0.13-1.03-0.38c-0.23-0.26-0.35-0.6-0.35-1.03c0-0.16,0.03-0.38,0.08-0.65l5.51-23.71c0.05-0.3-0.05-0.58-0.32-0.85
				c-0.27-0.27-0.57-0.41-0.89-0.41l0.24-0.93H578.47z M570.52,500.84c0.57,0,1-0.16,1.3-0.49c0.3-0.32,0.54-0.88,0.73-1.66
				l2.35-10.09c0.11-0.46,0.16-0.89,0.16-1.3c0-0.84-0.49-1.26-1.46-1.26h-1.01l-3.44,14.79H570.52z"/>
			<path class="st11" d="M615.27,495.41l0.08-0.53c0-0.24-0.16-0.37-0.49-0.37c-0.32,0-0.49-0.14-0.49-0.41l0.08-0.53l1.18-4.82
				h8.96c0.65,0,1.15,0.19,1.52,0.59c0.37,0.39,0.55,0.83,0.55,1.32c0,0.62-0.05,1.14-0.16,1.54l-2.15,9.52
				c-0.49,2.16-1.23,3.67-2.23,4.52c-1,0.85-2.67,1.28-5.02,1.28h-9.81c-2.73,0-4.69-0.53-5.88-1.58c-1.05-0.95-1.58-2.39-1.58-4.34
				c0-1.24,0.22-2.75,0.65-4.54l2.23-9.77c0.57-2.54,1.66-4.5,3.28-5.87c1.49-1.27,3.19-1.91,5.11-1.91h16.57
				c-0.08,0.81-0.23,1.64-0.45,2.47s-0.45,1.53-0.71,2.07c-0.26,0.54-0.65,0.93-1.18,1.17c-0.53,0.24-1.13,0.37-1.8,0.37h-6.85
				c-0.76,0-1.34,0.18-1.76,0.55s-0.72,0.96-0.91,1.8l-2.63,11.35c-0.05,0.38-0.08,0.62-0.08,0.73c0,0.68,0.42,1.01,1.26,1.01
				c0.95,0,1.53-0.5,1.74-1.5L615.27,495.41z"/>
			<path class="st11" d="M649.64,499.83c0.19,0.32,0.45,0.6,0.77,0.83c0.32,0.23,0.69,0.34,1.09,0.34h1.18l-0.97,4.62
				c-0.27,1.27-1.24,1.9-2.92,1.9h-5.43c-0.7,0-1.31-0.18-1.82-0.55c-0.51-0.37-0.84-0.82-0.97-1.36l-2.35-8.27l-1.74,7.9
				l-0.04,0.41c0,0.27,0.12,0.49,0.35,0.67c0.23,0.18,0.52,0.26,0.87,0.26l-0.2,0.93h-11.23c-0.46,0-0.8-0.13-1.03-0.38
				c-0.23-0.26-0.35-0.6-0.35-1.03c0-0.16,0.03-0.38,0.08-0.65l5.51-23.71c0.05-0.3-0.05-0.58-0.32-0.85
				c-0.27-0.27-0.57-0.41-0.89-0.41l0.24-0.93h18.77c4.21,0,6.32,1.96,6.32,5.88c0,0.54-0.03,1.01-0.08,1.42
				c-0.14,0.7-0.23,1.24-0.28,1.62c-0.54,2.43-1.26,4.22-2.15,5.35c-0.89,1.14-2.16,1.89-3.81,2.27L649.64,499.83z M639.8,490.87
				h1.58c0.92,0,1.55-0.77,1.9-2.31c0.05-0.3,0.11-0.59,0.16-0.87c0.05-0.28,0.08-0.52,0.08-0.71c0-0.76-0.32-1.13-0.97-1.13h-1.58
				L639.8,490.87z"/>
			<path class="st11" d="M673.28,479.57c2.38,0,4.34,0.62,5.87,1.84c1.54,1.23,2.31,2.97,2.31,5.21c0,0.81-0.09,1.59-0.28,2.35
				l-2.43,10.29c-0.7,3.05-1.92,5.23-3.65,6.52c-1.51,1.16-3.59,1.74-6.24,1.74h-8.31c-2.54,0-4.42-0.57-5.65-1.72
				c-1.23-1.15-1.84-2.85-1.84-5.09c0-1.32,0.18-2.7,0.53-4.13l1.78-7.66c0.7-2.94,1.72-5.15,3.04-6.61
				c1.7-1.84,4.09-2.76,7.17-2.76H673.28z M664.52,498.86c-0.08,0.38-0.12,0.7-0.12,0.97c0,0.68,0.38,1.01,1.14,1.01
				c0.51,0,0.9-0.12,1.15-0.35s0.45-0.64,0.59-1.24l2.67-11.39c0.05-0.32,0.08-0.54,0.08-0.65c0-0.78-0.39-1.18-1.18-1.18
				c-0.86,0-1.44,0.54-1.74,1.62L664.52,498.86z"/>
			<path class="st11" d="M691.88,499.1c-0.05,0.27-0.08,0.43-0.08,0.49c0,0.59,0.46,0.89,1.38,0.89c0.51,0,0.88-0.09,1.11-0.26
				c0.23-0.18,0.41-0.55,0.55-1.12l4.01-17.35c0.05-0.27-0.05-0.55-0.32-0.83c-0.27-0.28-0.55-0.43-0.85-0.43l0.2-0.93h11.27
				c0.46,0,0.79,0.12,0.99,0.35c0.2,0.23,0.3,0.56,0.3,0.99l-0.08,0.61l-4.09,17.75c-0.7,3.08-1.85,5.25-3.44,6.52
				c-1.43,1.14-3.44,1.7-6.04,1.7h-9.28c-2.46,0-4.26-0.55-5.41-1.64c-1.15-1.1-1.72-2.71-1.72-4.84c0-1.3,0.2-2.78,0.61-4.46
				l3.44-14.79c0.05-0.27-0.05-0.55-0.32-0.83c-0.27-0.28-0.55-0.43-0.85-0.43l0.2-0.93h11.27c0.46,0,0.79,0.12,0.99,0.35
				c0.2,0.23,0.3,0.56,0.3,0.99l-0.08,0.61L691.88,499.1z"/>
			<path class="st11" d="M729.05,479.57c2.49,0,4.36,0.5,5.63,1.5c1.27,1,1.91,2.58,1.91,4.74c0,0.59-0.03,1.13-0.08,1.62
				c-0.05,0.49-0.18,1.09-0.36,1.82c-0.87,3.73-1.84,6.19-2.92,7.39s-2.85,1.8-5.31,1.8h-8.35l-1.5,6.36l-0.12,0.77
				c0,0.3,0.12,0.54,0.37,0.73c0.24,0.19,0.53,0.28,0.85,0.28l-0.24,0.93h-11.19c-0.46,0-0.8-0.13-1.03-0.38
				c-0.23-0.26-0.34-0.6-0.34-1.03c0-0.16,0.03-0.38,0.08-0.65l5.51-23.71c0.05-0.3-0.05-0.58-0.32-0.85
				c-0.27-0.27-0.57-0.41-0.89-0.41l0.24-0.93H729.05z M721.11,491.97h1.26c0.68,0,1.17-0.21,1.5-0.63
				c0.32-0.42,0.62-1.22,0.89-2.41c0.16-0.7,0.24-1.26,0.24-1.66c0-0.54-0.12-0.91-0.35-1.11c-0.23-0.2-0.57-0.3-1.03-0.3h-1.1
				L721.11,491.97z"/>
		</g>
	</g>
	<g>
		
			<linearGradient id="SVGID_00000032622074180558734260000017600249608755735945_" gradientUnits="userSpaceOnUse" x1="207.54" y1="560.2281" x2="207.54" y2="748.8306">
			<stop  offset="0" style="stop-color:#3E76BB"/>
			<stop  offset="0.9672" style="stop-color:#06509E"/>
		</linearGradient>
		<path style="fill:url(#SVGID_00000032622074180558734260000017600249608755735945_);" d="M234.09,578.34
			c1.32,0,2.59-0.27,3.83-0.81c1.23-0.54,2.02-1.3,2.35-2.28h2.84l-4.93,18.89c-0.82,2.63-3.25,3.95-7.29,3.95h-7.28l-13.83,58.77
			c-0.16,0.82,0.21,1.66,1.11,2.53c0.91,0.86,1.81,1.3,2.72,1.3l-0.86,2.84H178.4c-2.64,0-3.95-1.32-3.95-3.95
			c0-0.33,0.08-0.98,0.25-1.98l13.95-59.51h-8.52c-1.32,0-2.41,0.31-3.27,0.92c-0.86,0.62-1.46,1.42-1.79,2.41h-3.09l4.94-19.75
			c0.33-1.16,0.98-2,1.98-2.53c0.98-0.54,2.55-0.81,4.69-0.81H234.09z"/>
		
			<linearGradient id="SVGID_00000170961712534457301720000002629685332226594976_" gradientUnits="userSpaceOnUse" x1="258.9194" y1="560.2281" x2="258.9194" y2="748.8306">
			<stop  offset="0" style="stop-color:#3E76BB"/>
			<stop  offset="0.9672" style="stop-color:#06509E"/>
		</linearGradient>
		<path style="fill:url(#SVGID_00000170961712534457301720000002629685332226594976_);" d="M270.89,663.53
			c-2.14,0-3.72-0.35-4.75-1.05c-1.03-0.7-1.63-1.92-1.79-3.64l-1.11-12.6h-14.32l-5.06,10.12c-0.08,0.25-0.13,0.45-0.13,0.62
			s-0.04,0.49-0.12,0.99c0,0.74,0.35,1.38,1.05,1.91c0.7,0.54,1.5,0.81,2.41,0.81l-0.62,2.84h-26.79c-3.46,0-5.18-1.36-5.18-4.08
			c0-0.74,0.21-1.52,0.62-2.34l36.3-70.38c0.25-0.49,0.37-1.11,0.37-1.85c0-0.91-0.39-1.75-1.17-2.53
			c-0.78-0.78-1.63-1.17-2.53-1.17l0.74-2.84h36.79c1.89,0,3.5,0.51,4.82,1.54c1.32,1.03,1.98,2.49,1.98,4.38l5.68,72.1
			c0,1.07,0.57,2.06,1.73,2.97c1.15,0.9,2.35,1.36,3.58,1.36l-0.62,2.84H270.89z M256.2,629.7h7.04l-0.99-13.83L256.2,629.7z"/>
		
			<linearGradient id="SVGID_00000143575560463210080680000004406793976135327678_" gradientUnits="userSpaceOnUse" x1="349.7492" y1="560.2281" x2="349.7492" y2="748.8306">
			<stop  offset="0" style="stop-color:#3E76BB"/>
			<stop  offset="0.9672" style="stop-color:#06509E"/>
		</linearGradient>
		<path style="fill:url(#SVGID_00000143575560463210080680000004406793976135327678_);" d="M376.85,578.22
			c5.51,0,9.77,1.45,12.78,4.32s4.51,6.5,4.51,10.86c0,0.66-0.06,1.4-0.18,2.23c-0.12,0.82-0.23,1.44-0.31,1.85
			c-1.89,9.06-5.76,14.53-11.61,16.42c2.39,1.48,4.14,3.11,5.25,4.88c1.11,1.77,1.67,4.38,1.67,7.84c0,3.12-0.62,7.49-1.85,13.08
			c-2.14,9.3-5.43,15.68-9.88,19.14c-4.03,3.12-10.25,4.69-18.64,4.69h-49.01c-1.4,0-2.45-0.39-3.15-1.17s-1.05-1.83-1.05-3.15
			c0-0.49,0.09-1.15,0.25-1.98l16.79-72.23c0.16-0.9-0.16-1.77-0.99-2.59c-0.82-0.82-1.73-1.23-2.72-1.23l0.74-2.84L376.85,578.22z
			 M347.84,644.4c2.22,0,3.76-0.51,4.63-1.54s1.71-3.35,2.53-6.98c0.57-2.3,0.86-4.2,0.86-5.68c0-2.8-1.52-4.2-4.57-4.2h-3.46
			l-4.2,18.4H347.84z M356.6,609.58c1.4,0,2.39-0.39,2.96-1.17c0.58-0.78,1.11-2.21,1.61-4.26c0.5-2.06,0.74-3.53,0.74-4.44
			c0-2.14-1.19-3.21-3.58-3.21h-3.7l-2.96,13.08H356.6z"/>
		
			<linearGradient id="SVGID_00000177476089254595889240000004650797877233608347_" gradientUnits="userSpaceOnUse" x1="426.6318" y1="560.2281" x2="426.6318" y2="748.8306">
			<stop  offset="0" style="stop-color:#3E76BB"/>
			<stop  offset="0.9672" style="stop-color:#06509E"/>
		</linearGradient>
		<path style="fill:url(#SVGID_00000177476089254595889240000004650797877233608347_);" d="M438.61,663.53
			c-2.14,0-3.72-0.35-4.75-1.05c-1.03-0.7-1.63-1.92-1.79-3.64l-1.11-12.6h-14.32l-5.06,10.12c-0.08,0.25-0.12,0.45-0.12,0.62
			s-0.04,0.49-0.13,0.99c0,0.74,0.35,1.38,1.05,1.91c0.7,0.54,1.5,0.81,2.41,0.81l-0.62,2.84h-26.79c-3.46,0-5.18-1.36-5.18-4.08
			c0-0.74,0.2-1.52,0.61-2.34l36.3-70.38c0.25-0.49,0.37-1.11,0.37-1.85c0-0.91-0.39-1.75-1.17-2.53s-1.63-1.17-2.53-1.17l0.74-2.84
			h36.79c1.89,0,3.5,0.51,4.82,1.54c1.32,1.03,1.98,2.49,1.98,4.38l5.68,72.1c0,1.07,0.58,2.06,1.73,2.97
			c1.15,0.9,2.35,1.36,3.58,1.36l-0.62,2.84H438.61z M423.91,629.7h7.04l-0.99-13.83L423.91,629.7z"/>
		
			<linearGradient id="SVGID_00000128461096617537448340000009898946305179368608_" gradientUnits="userSpaceOnUse" x1="519.3737" y1="560.2281" x2="519.3737" y2="748.8306">
			<stop  offset="0" style="stop-color:#3E76BB"/>
			<stop  offset="0.9672" style="stop-color:#06509E"/>
		</linearGradient>
		<path style="fill:url(#SVGID_00000128461096617537448340000009898946305179368608_);" d="M513.82,626l-7.04,30.37l-0.12,0.99
			c0,0.9,0.41,1.68,1.23,2.35c0.82,0.66,1.69,0.98,2.59,0.98l-0.62,2.84h-34.45c-2.71,0-4.07-1.32-4.07-3.95
			c0-0.41,0.08-1.11,0.25-2.1l16.91-72.47c0.16-0.82-0.21-1.66-1.11-2.53c-0.91-0.86-1.81-1.3-2.72-1.3l0.86-2.84h34.32
			c2.64,0,3.95,1.32,3.95,3.95c0,0.33-0.08,0.98-0.25,1.98l-5.93,25.31h8.77l5.68-24.57c0.16-0.82-0.16-1.66-0.99-2.53
			c-0.82-0.86-1.69-1.3-2.59-1.3l0.62-2.84h34.32c1.4,0,2.41,0.35,3.03,1.05c0.62,0.7,0.92,1.71,0.92,3.02l-0.25,1.86l-16.79,72.6
			c-0.16,0.82,0.21,1.66,1.11,2.53c0.91,0.86,1.81,1.3,2.72,1.3l-0.86,2.84h-34.32c-2.64,0-3.95-1.32-3.95-3.95
			c0-0.33,0.08-0.98,0.25-1.98l7.28-31.61H513.82z"/>
		
			<linearGradient id="SVGID_00000145749350108389560970000009590802080843923880_" gradientUnits="userSpaceOnUse" x1="653.6794" y1="560.2281" x2="653.6794" y2="748.8306">
			<stop  offset="0" style="stop-color:#3E76BB"/>
			<stop  offset="0.9672" style="stop-color:#06509E"/>
		</linearGradient>
		<path style="fill:url(#SVGID_00000145749350108389560970000009590802080843923880_);" d="M673.86,606.98
			c6.18,0,11.03,1.69,14.57,5.06c3.54,3.38,5.31,8.24,5.31,14.57c0,3.38-0.5,7.07-1.48,11.11c-0.99,4.03-2.18,7.78-3.58,11.24
			c-2.3,5.76-5.37,9.63-9.2,11.6c-3.83,1.98-9.4,2.97-16.73,2.97h-50c-1.4,0-2.45-0.39-3.15-1.17s-1.05-1.83-1.05-3.15
			c0-0.49,0.08-1.15,0.25-1.98l16.79-72.23c0.17-0.9-0.16-1.77-0.98-2.59c-0.82-0.82-1.73-1.23-2.72-1.23l0.74-2.84h76.18
			l-3.46,13.58c-0.41,1.65-1.56,2.98-3.46,4.01c-1.89,1.03-3.79,1.54-5.68,1.54h-28.64l-2.22,9.5H673.86z M646.95,643.78h4.07
			c1.98,0,3.4-0.62,4.26-1.85c0.86-1.24,1.79-3.79,2.78-7.66c0.5-2.14,0.74-3.91,0.74-5.31c0-2.71-1.27-4.07-3.83-4.07h-3.7
			L646.95,643.78z"/>
		
			<linearGradient id="SVGID_00000093139403554816213850000007927505694767191947_" gradientUnits="userSpaceOnUse" x1="737.5375" y1="560.2281" x2="737.5375" y2="748.8306">
			<stop  offset="0" style="stop-color:#3E76BB"/>
			<stop  offset="0.9672" style="stop-color:#06509E"/>
		</linearGradient>
		<path style="fill:url(#SVGID_00000093139403554816213850000007927505694767191947_);" d="M755.87,578.34
			c7.25,0,13.21,1.87,17.9,5.61c4.69,3.75,7.04,9.03,7.04,15.87c0,2.47-0.29,4.85-0.86,7.16l-7.41,31.36
			c-2.14,9.3-5.84,15.93-11.11,19.88c-4.61,3.54-10.95,5.31-19.01,5.31H717.1c-7.74,0-13.48-1.75-17.22-5.25
			c-3.75-3.5-5.62-8.66-5.62-15.49c0-4.04,0.53-8.24,1.61-12.6l5.43-23.33c2.14-8.98,5.23-15.68,9.26-20.13
			c5.19-5.6,12.47-8.39,21.85-8.39H755.87z M729.2,637.11c-0.25,1.15-0.37,2.14-0.37,2.96c0,2.06,1.15,3.09,3.46,3.09
			c1.57,0,2.74-0.35,3.52-1.05c0.78-0.69,1.38-1.95,1.79-3.76l8.15-34.69c0.16-0.98,0.25-1.65,0.25-1.98c0-2.39-1.19-3.58-3.58-3.58
			c-2.64,0-4.41,1.65-5.31,4.93L729.2,637.11z"/>
		
			<linearGradient id="SVGID_00000178186947722744272500000006771331422718672005_" gradientUnits="userSpaceOnUse" x1="811.9434" y1="560.2281" x2="811.9434" y2="748.8306">
			<stop  offset="0" style="stop-color:#3E76BB"/>
			<stop  offset="0.9672" style="stop-color:#06509E"/>
		</linearGradient>
		<path style="fill:url(#SVGID_00000178186947722744272500000006771331422718672005_);" d="M809.47,654.15
			c-0.25,0.91-0.37,1.81-0.37,2.72c0,0.98,0.47,1.87,1.42,2.65c0.95,0.78,1.91,1.17,2.9,1.17l-0.62,2.84h-35.06
			c-1.4,0-2.45-0.39-3.15-1.17c-0.7-0.78-1.05-1.83-1.05-3.15c0-0.49,0.08-1.15,0.25-1.98l16.79-72.23c0.16-0.9-0.16-1.77-0.99-2.59
			c-0.82-0.82-1.73-1.23-2.72-1.23l0.74-2.84h62.72l-3.21,13.83c-0.41,1.81-1.34,3.25-2.78,4.32c-1.44,1.07-3.11,1.6-5,1.6h-17.04
			L809.47,654.15z"/>
		
			<linearGradient id="SVGID_00000178205073654354957230000018276747688027630255_" gradientUnits="userSpaceOnUse" x1="867.0239" y1="560.2281" x2="867.0239" y2="748.8306">
			<stop  offset="0" style="stop-color:#3E76BB"/>
			<stop  offset="0.9672" style="stop-color:#06509E"/>
		</linearGradient>
		<path style="fill:url(#SVGID_00000178205073654354957230000018276747688027630255_);" d="M902.33,639.95
			c0.41,2.55,1.57,3.82,3.46,3.82h3.09l-3.21,14.07c-0.58,2.39-1.73,4-3.46,4.82c-1.32,0.57-3.5,0.86-6.54,0.86h-65.43
			c-3.38,0-5.07-1.36-5.07-4.08l0.25-1.98l3.09-13.7h3.33c1.15,0,2.16-0.35,3.03-1.05c0.86-0.7,1.5-1.54,1.91-2.53l24.94-53.34
			l0.25-2.22c0-0.99-0.33-1.81-0.99-2.47c-0.66-0.66-1.48-0.98-2.47-0.98l0.62-2.84H889c1.73,0,3.19,0.47,4.38,1.42
			c1.19,0.95,1.87,2.12,2.04,3.52L902.33,639.95z M868.88,628.22l-6.05,15.56h7.04L868.88,628.22z"/>
		
			<linearGradient id="SVGID_00000096749941276701824290000008631566991668083605_" gradientUnits="userSpaceOnUse" x1="153.8759" y1="560.2281" x2="153.8759" y2="748.8306">
			<stop  offset="0" style="stop-color:#3E76BB"/>
			<stop  offset="0.9672" style="stop-color:#06509E"/>
		</linearGradient>
		<path style="fill:url(#SVGID_00000096749941276701824290000008631566991668083605_);" d="M130.36,752.72h-18.4
			c-5.68,0-10.06-2.06-13.15-6.17c-3.09-4.11-4.63-9.06-4.63-14.82c0-3.04,0.39-6.4,1.17-10.06c0.78-3.66,2.33-8.45,4.63-14.38
			c1.65-4.11,4.07-7.49,7.29-10.12c4.61-3.79,10.41-5.68,17.41-5.68h19.88l0.99-4.08c0.16-0.82-0.2-1.66-1.11-2.53
			c-0.91-0.86-1.81-1.3-2.72-1.3l0.74-2.84h32.1c2.63,0,3.95,1.32,3.95,3.95c0,0.33-0.08,0.98-0.25,1.98l-0.99,4.82h17.78
			c5.76,0,10.29,1.92,13.58,5.74c3.29,3.82,4.94,8.58,4.94,14.26c0,3.04-0.33,6.13-0.99,9.26c-0.91,4.2-2.51,9.26-4.82,15.18
			c-1.73,4.37-4.11,7.9-7.16,10.62c-4.61,4.11-10.41,6.17-17.41,6.17h-20.12l-1.23,4.93l-0.37,2.35c0,0.9,0.37,1.65,1.11,2.22
			c0.74,0.57,1.6,0.86,2.59,0.86l-0.74,2.84h-32.1c-2.64,0-3.95-1.32-3.95-3.95c0-0.33,0.08-0.99,0.25-1.98L130.36,752.72z
			 M140.23,710.62h-3.58c-2.14,0-3.75,0.81-4.82,2.41c-1.07,1.6-2.18,4.92-3.33,9.94c-0.5,2.14-0.74,3.87-0.74,5.19
			c0,3.21,1.44,4.82,4.32,4.82h2.96L140.23,710.62z M167.52,732.97h3.58c2.14,0,3.75-0.81,4.82-2.41c1.07-1.6,2.18-4.92,3.33-9.94
			c0.5-2.15,0.74-3.87,0.74-5.19c0-3.21-1.44-4.82-4.32-4.82h-2.96L167.52,732.97z"/>
		
			<linearGradient id="SVGID_00000023991401164639449860000007262697346024636095_" gradientUnits="userSpaceOnUse" x1="249.6554" y1="560.2281" x2="249.6554" y2="748.8306">
			<stop  offset="0" style="stop-color:#3E76BB"/>
			<stop  offset="0.9672" style="stop-color:#06509E"/>
		</linearGradient>
		<path style="fill:url(#SVGID_00000023991401164639449860000007262697346024636095_);" d="M213.98,687.29
			c-0.41-2.47-1.85-3.7-4.32-3.7l0.74-2.84h29.51c2.22,0,4.14,0.55,5.74,1.66c1.61,1.12,2.49,2.53,2.66,4.26l2.59,21.11l11.24-18.52
			c0.16-0.5,0.25-1.19,0.25-2.1c0-0.9-0.41-1.73-1.24-2.47c-0.82-0.74-1.68-1.11-2.59-1.11l0.61-2.84h26.42
			c1.32,0,2.33,0.47,3.03,1.42c0.7,0.95,1.05,2,1.05,3.15c0,1.15-0.2,2.06-0.61,2.71l-31.11,50.62l-4.32,19.01l-0.37,2.35
			c0,0.9,0.37,1.65,1.11,2.22c0.74,0.57,1.6,0.86,2.59,0.86l-0.74,2.84h-31.24c-3.21,0-4.82-1.48-4.82-4.44
			c0-0.58,0.04-1.03,0.12-1.36l5.31-22.97L213.98,687.29z"/>
		
			<linearGradient id="SVGID_00000164512300524755697990000016451057079730717837_" gradientUnits="userSpaceOnUse" x1="327.5798" y1="560.2281" x2="327.5798" y2="748.8306">
			<stop  offset="0" style="stop-color:#3E76BB"/>
			<stop  offset="0.9672" style="stop-color:#06509E"/>
		</linearGradient>
		<path style="fill:url(#SVGID_00000164512300524755697990000016451057079730717837_);" d="M291.9,687.29
			c-0.41-2.47-1.85-3.7-4.32-3.7l0.74-2.84h29.51c2.22,0,4.14,0.55,5.74,1.66c1.61,1.12,2.49,2.53,2.65,4.26l2.59,21.11l11.23-18.52
			c0.17-0.5,0.25-1.19,0.25-2.1c0-0.9-0.41-1.73-1.23-2.47c-0.82-0.74-1.69-1.11-2.59-1.11l0.62-2.84h26.42
			c1.32,0,2.33,0.47,3.03,1.42c0.7,0.95,1.05,2,1.05,3.15c0,1.15-0.2,2.06-0.61,2.71l-31.11,50.62l-4.32,19.01l-0.37,2.35
			c0,0.9,0.37,1.65,1.11,2.22c0.74,0.57,1.6,0.86,2.59,0.86l-0.74,2.84h-31.23c-3.21,0-4.82-1.48-4.82-4.44
			c0-0.58,0.04-1.03,0.12-1.36l5.31-22.97L291.9,687.29z"/>
		
			<linearGradient id="SVGID_00000100349686657151967910000015295040012577659805_" gradientUnits="userSpaceOnUse" x1="383.156" y1="560.2281" x2="383.156" y2="748.8306">
			<stop  offset="0" style="stop-color:#3E76BB"/>
			<stop  offset="0.9672" style="stop-color:#06509E"/>
		</linearGradient>
		<path style="fill:url(#SVGID_00000100349686657151967910000015295040012577659805_);" d="M418.47,742.35
			c0.41,2.55,1.56,3.82,3.46,3.82h3.09l-3.21,14.07c-0.58,2.39-1.73,4-3.46,4.82c-1.32,0.57-3.5,0.86-6.54,0.86h-65.44
			c-3.37,0-5.06-1.36-5.06-4.08l0.25-1.98l3.09-13.7h3.33c1.15,0,2.16-0.35,3.03-1.05c0.86-0.7,1.5-1.54,1.91-2.53l24.94-53.34
			l0.25-2.22c0-0.99-0.33-1.81-0.99-2.47c-0.66-0.66-1.48-0.98-2.47-0.98l0.62-2.84h29.88c1.73,0,3.19,0.47,4.38,1.42
			c1.19,0.95,1.87,2.12,2.04,3.52L418.47,742.35z M385.01,730.62l-6.05,15.56H386L385.01,730.62z"/>
		
			<linearGradient id="SVGID_00000151532504786669852960000016640916403493588650_" gradientUnits="userSpaceOnUse" x1="464.1703" y1="560.2281" x2="464.1703" y2="748.8306">
			<stop  offset="0" style="stop-color:#3E76BB"/>
			<stop  offset="0.9672" style="stop-color:#06509E"/>
		</linearGradient>
		<path style="fill:url(#SVGID_00000151532504786669852960000016640916403493588650_);" d="M483.8,745.56
			c1.23,0,2.53-0.31,3.89-0.92c1.36-0.62,2.16-1.38,2.41-2.28h2.84l-3.58,15.55c-0.57,2.72-1.68,4.65-3.33,5.81
			c-2.06,1.48-5.23,2.22-9.51,2.22h-27.78c-8.31,0-14.28-1.6-17.9-4.82c-3.21-2.88-4.82-7.25-4.82-13.09
			c0-3.78,0.66-8.39,1.98-13.83l6.79-29.75c1.73-7.74,5.06-13.71,10-17.91c4.53-3.87,9.71-5.8,15.56-5.8h41.98
			c-0.25,1.48-0.66,3.56-1.23,6.23c-0.57,2.68-1.07,4.76-1.48,6.24c-0.66,2.55-1.48,4.32-2.47,5.31c-1.32,1.32-3.46,1.98-6.42,1.98
			H478c-2.96,0-5.1,0.7-6.42,2.09c-1.32,1.4-2.26,3.5-2.84,6.3l-6.79,29.26c-0.25,0.91-0.37,1.73-0.37,2.47
			c0,3.29,2.1,4.93,6.3,4.93H483.8z"/>
		
			<linearGradient id="SVGID_00000182504877009482870270000006950947976101735059_" gradientUnits="userSpaceOnUse" x1="588.9641" y1="560.2281" x2="588.9641" y2="748.8306">
			<stop  offset="0" style="stop-color:#3E76BB"/>
			<stop  offset="0.9672" style="stop-color:#06509E"/>
		</linearGradient>
		<path style="fill:url(#SVGID_00000182504877009482870270000006950947976101735059_);" d="M590.14,699.88l-13.46,57.78l-0.37,2.35
			c0,0.9,0.37,1.65,1.11,2.22c0.74,0.57,1.61,0.86,2.59,0.86l-0.74,2.84H545.2c-1.4,0-2.45-0.39-3.15-1.17
			c-0.7-0.78-1.05-1.83-1.05-3.15c0-0.49,0.09-1.15,0.25-1.98l16.79-72.23c0.16-0.9-0.16-1.77-0.99-2.59
			c-0.82-0.82-1.73-1.23-2.72-1.23l0.74-2.84h77.16c3.13,0,4.69,1.6,4.69,4.82c0,0.66-0.04,1.15-0.12,1.48l-16.79,72.23
			c-0.16,0.82,0.21,1.66,1.11,2.53c0.91,0.86,1.81,1.3,2.71,1.3l-0.86,2.84h-33.46c-3.13,0-4.69-1.48-4.69-4.44
			c0-0.66,0.04-1.16,0.12-1.48l13.95-60.13H590.14z"/>
		
			<linearGradient id="SVGID_00000137813351574139181950000007495718855026217110_" gradientUnits="userSpaceOnUse" x1="678.2546" y1="560.2281" x2="678.2546" y2="748.8306">
			<stop  offset="0" style="stop-color:#3E76BB"/>
			<stop  offset="0.9672" style="stop-color:#06509E"/>
		</linearGradient>
		<path style="fill:url(#SVGID_00000137813351574139181950000007495718855026217110_);" d="M666.22,754.7
			c-0.99,1.31-1.6,2.18-1.85,2.59c-0.49,0.82-0.74,1.64-0.74,2.47c0,0.9,0.41,1.68,1.24,2.35c0.82,0.66,1.68,0.98,2.59,0.98
			l-0.61,2.84h-34.45c-2.72,0-4.07-1.32-4.07-3.95c0-0.41,0.08-1.11,0.25-2.1l16.91-72.47c0.16-0.82-0.2-1.66-1.11-2.53
			c-0.91-0.86-1.81-1.3-2.72-1.3l0.86-2.84h34.32c2.64,0,3.95,1.32,3.95,3.95c0,0.33-0.08,0.98-0.25,1.98l-7.41,31.85l16.17-24.44
			c0.74-1.07,1.44-2.1,2.1-3.09c0.66-0.99,1.15-2.18,1.48-3.59c0.16-0.82-0.16-1.66-0.99-2.53c-0.82-0.86-1.69-1.3-2.59-1.3
			l0.62-2.84h34.32c1.4,0,2.41,0.35,3.02,1.05c0.62,0.7,0.93,1.71,0.93,3.02l-0.25,1.86l-16.79,72.6c-0.17,0.82,0.21,1.66,1.11,2.53
			c0.91,0.86,1.81,1.3,2.71,1.3l-0.86,2.84H679.8c-2.64,0-3.95-1.32-3.95-3.95c0-0.33,0.08-0.99,0.25-1.98l7.28-31.48L666.22,754.7z
			"/>
		
			<linearGradient id="SVGID_00000054961684165635673560000016048732873089251254_" gradientUnits="userSpaceOnUse" x1="767.0513" y1="560.2281" x2="767.0513" y2="748.8306">
			<stop  offset="0" style="stop-color:#3E76BB"/>
			<stop  offset="0.9672" style="stop-color:#06509E"/>
		</linearGradient>
		<path style="fill:url(#SVGID_00000054961684165635673560000016048732873089251254_);" d="M766.13,746.18l13.7-58.77
			c0.16-0.82-0.17-1.66-0.99-2.53c-0.82-0.86-1.69-1.3-2.59-1.3l0.62-2.84h34.32c1.4,0,2.41,0.35,3.03,1.05
			c0.62,0.7,0.92,1.71,0.92,3.02l-0.25,1.86l-13.83,59.51h7.66l-6.79,29.39c-0.58,2.47-1.81,3.7-3.7,3.7h-14.57
			c-1.07,0-2.06-0.31-2.97-0.92c-0.9-0.62-1.68-1.75-2.34-3.4l-4.57-9.01h-50.87c-2.64,0-3.95-1.32-3.95-3.95
			c0-0.33,0.08-0.99,0.25-1.98l17.04-72.6c0.16-0.82-0.17-1.66-0.99-2.53c-0.82-0.86-1.68-1.3-2.59-1.3l0.61-2.84h34.32
			c1.4,0,2.41,0.35,3.03,1.05c0.61,0.7,0.92,1.71,0.92,3.02l-0.25,1.86l-13.95,59.51H766.13z"/>
		
			<linearGradient id="SVGID_00000168074418104603059080000011132415157188706447_" gradientUnits="userSpaceOnUse" x1="856.3398" y1="560.2281" x2="856.3398" y2="748.8306">
			<stop  offset="0" style="stop-color:#3E76BB"/>
			<stop  offset="0.9672" style="stop-color:#06509E"/>
		</linearGradient>
		<path style="fill:url(#SVGID_00000168074418104603059080000011132415157188706447_);" d="M855.42,746.18l13.7-58.77
			c0.16-0.82-0.17-1.66-0.99-2.53c-0.82-0.86-1.69-1.3-2.59-1.3l0.62-2.84h34.32c1.4,0,2.41,0.35,3.03,1.05
			c0.62,0.7,0.92,1.71,0.92,3.02l-0.25,1.86l-13.83,59.51h7.66l-6.79,29.39c-0.58,2.47-1.81,3.7-3.7,3.7h-14.57
			c-1.07,0-2.06-0.31-2.97-0.92c-0.9-0.62-1.68-1.75-2.34-3.4l-4.57-9.01H812.2c-2.64,0-3.95-1.32-3.95-3.95
			c0-0.33,0.08-0.99,0.25-1.98l17.04-72.6c0.16-0.82-0.17-1.66-0.99-2.53c-0.82-0.86-1.68-1.3-2.59-1.3l0.61-2.84h34.32
			c1.4,0,2.41,0.35,3.03,1.05c0.61,0.7,0.92,1.71,0.92,3.02l-0.25,1.86l-13.95,59.51H855.42z"/>
		
			<linearGradient id="SVGID_00000145016326335088937440000009638131743698643858_" gradientUnits="userSpaceOnUse" x1="941.372" y1="560.2281" x2="941.372" y2="748.8306">
			<stop  offset="0" style="stop-color:#3E76BB"/>
			<stop  offset="0.9672" style="stop-color:#06509E"/>
		</linearGradient>
		<path style="fill:url(#SVGID_00000145016326335088937440000009638131743698643858_);" d="M953.35,765.93
			c-2.14,0-3.72-0.35-4.75-1.05c-1.03-0.7-1.63-1.91-1.79-3.64l-1.11-12.6h-14.32l-5.06,10.12c-0.08,0.25-0.12,0.45-0.12,0.62
			c0,0.16-0.04,0.49-0.13,0.99c0,0.74,0.35,1.38,1.05,1.91c0.7,0.54,1.5,0.81,2.41,0.81l-0.62,2.84h-26.79
			c-3.46,0-5.18-1.36-5.18-4.08c0-0.74,0.2-1.52,0.61-2.34l36.3-70.38c0.25-0.49,0.37-1.11,0.37-1.85c0-0.91-0.39-1.75-1.17-2.53
			c-0.78-0.78-1.63-1.17-2.53-1.17l0.74-2.84h36.79c1.89,0,3.5,0.51,4.82,1.54c1.32,1.03,1.98,2.49,1.98,4.38l5.68,72.1
			c0,1.07,0.58,2.06,1.73,2.97c1.15,0.9,2.35,1.36,3.58,1.36l-0.62,2.84H953.35z M938.65,732.1h7.04l-0.99-13.83L938.65,732.1z"/>
	</g>
	<g>
		<path class="st138" d="M90.53,830.05l18.93-20.94l-11.22-20.48h5.84l5.11,9.38c1.84,3.35,3.12,5.89,3.87,7.63
			c1.29-1.82,3.36-4.3,6.18-7.44l8.71-9.58h6.92l-19.17,21.4l10.86,20.03l-5.75-0.01l-6.42-12.13c-0.61-1.18-1.34-2.7-2.19-4.56
			c-0.9,1.26-2.1,2.72-3.58,4.38l-11.06,12.32H90.53L90.53,830.05z M150.34,826.31c-3.14,2.94-6.43,4.41-9.89,4.41
			c-2.57,0-4.7-0.79-6.37-2.37c-1.67-1.58-2.5-3.67-2.5-6.27c0-3.1,1.08-5.48,3.25-7.16c2.23-1.73,5.5-2.59,9.79-2.59l2.59-0.12
			c1.23,0,2.33-0.09,3.28-0.27c0.97-0.17,1.76-0.41,2.39-0.71c0.38-1.4,0.57-2.6,0.57-3.62c0-1.19-0.53-2.16-1.58-2.92
			c-1.06-0.76-2.59-1.15-4.61-1.15c-4.04,0-6.68,1.82-7.93,5.48l-4.95-0.45c2.05-6.14,6.42-9.21,13.09-9.21
			c3.21,0,5.82,0.71,7.82,2.15c2,1.43,3,3.31,3,5.65c0,1.6-0.22,3.45-0.67,5.57l-1.6,7.45c-0.26,1.28-0.44,2.37-0.57,3.25
			c-0.13,0.89-0.19,1.71-0.19,2.46c0,1.34,0.2,2.73,0.6,4.16h-4.95c-0.17-0.53-0.29-1.11-0.41-1.75
			C150.4,827.65,150.34,826.99,150.34,826.31L150.34,826.31z M152.15,814.85c-1.16,0.44-2.74,0.77-4.73,0.98l-2.81,0.28
			c-1.59,0-2.97,0.2-4.16,0.6c-1.05,0.34-1.86,0.81-2.44,1.41c-1.04,1.04-1.57,2.29-1.57,3.73c0,1.42,0.48,2.59,1.45,3.52
			c0.96,0.94,2.27,1.4,3.93,1.4c2.34,0,4.48-0.86,6.4-2.58C150.14,822.49,151.45,819.37,152.15,814.85L152.15,814.85z
			 M167.82,800.04h7.27l2.7,23.94l13.34-23.94h7.13l-6.14,30h-4.85l5-24.19l-13.47,24.19h-4.35l-2.84-25.11l-5.13,25.11h-4.85
			L167.82,800.04L167.82,800.04z M199.61,830.05l6-30h4.9l-1.01,4.94c3.05-3.75,6.2-5.62,9.47-5.62c1.89,0,3.42,0.47,4.6,1.42
			c1.12,0.88,1.89,2.29,2.33,4.21c1.42-1.84,2.95-3.24,4.6-4.2c1.64-0.95,3.34-1.43,5.11-1.43c2.36,0,4.15,0.57,5.36,1.71
			c1.22,1.14,1.83,2.85,1.83,5.1c0,0.98-0.21,2.5-0.63,4.55l-3.88,19.33h-4.88l3.95-19.84c0.17-0.83,0.29-1.52,0.38-2.08
			c0.09-0.57,0.14-1.03,0.14-1.39c0-1.05-0.29-1.84-0.85-2.37c-0.57-0.53-1.42-0.79-2.56-0.79c-1.66,0-3.29,0.56-4.87,1.68
			c-1.59,1.13-2.75,2.46-3.49,4c-0.65,1.47-1.26,3.55-1.84,6.24l-2.94,14.55h-4.88l4.06-20.26c0.29-1.45,0.43-2.43,0.43-2.93
			c0-1.02-0.31-1.82-0.92-2.4c-0.61-0.59-1.37-0.88-2.24-0.88c-0.83,0-1.65,0.14-2.45,0.42c-0.8,0.28-1.62,0.72-2.46,1.33
			c-1.6,1.15-2.81,2.57-3.62,4.29c-0.74,1.6-1.39,3.68-1.92,6.24l-2.84,14.19H199.61L199.61,830.05z M280.25,800.04h4.95l-6.21,30
			h-4.92L280.25,800.04L280.25,800.04z M251.94,800.04h4.89l-2.46,11.6h5.22c3.31,0,5.68,0.25,7.1,0.76
			c1.41,0.51,2.53,1.44,3.36,2.79c0.83,1.35,1.25,2.84,1.25,4.5c0,1-0.14,1.97-0.4,2.91c-0.27,0.95-0.69,1.89-1.27,2.83
			c-1.08,1.81-2.44,3.03-4.07,3.66c-1.63,0.63-4.15,0.95-7.59,0.95h-12.22L251.94,800.04L251.94,800.04z M251.42,825.98h6.24
			c2.41,0,4.13-0.17,5.14-0.51c1.02-0.34,1.87-0.95,2.56-1.86c0.68-0.91,1.02-1.99,1.02-3.25c0-1.15-0.3-2.12-0.9-2.9
			c-0.61-0.78-1.3-1.25-2.1-1.43c-0.36-0.08-0.92-0.13-1.67-0.19c-0.75-0.06-1.62-0.09-2.64-0.09h-5.57L251.42,825.98L251.42,825.98
			z M292.64,800.04h4.84l-2.59,12.51h13.34l2.53-12.51h4.78l-6.05,30h-4.87l2.78-13.42h-13.28l-2.78,13.42h-4.84L292.64,800.04
			L292.64,800.04z M330.47,830.05l12.5-15.23l-7.17-14.78h5.41l2.44,5.33c1.04,2.37,1.85,4.29,2.43,5.74l8.28-11.07h5.97
			l-12.06,15.17l7.25,14.83l-5.42,0.01l-2.86-6.11c-0.36-0.79-0.69-1.53-1-2.23c-0.22-0.51-0.58-1.38-1.08-2.6l-8.55,10.94H330.47
			L330.47,830.05z M367.35,830.05l-4.74-30h4.74l2.49,16.52c0.26,1.66,0.59,4.61,1,8.85c0.93-2.17,2.13-4.61,3.58-7.33l9.61-18.04
			h5.17l-16.44,30l-3.41,11.86l-4.96,0.12L367.35,830.05L367.35,830.05z M392.21,800.04h4.81l-1.02,5.02
			c-0.66,3.16-0.98,5.39-0.98,6.69c0,1.3,0.48,2.29,1.43,2.97c0.96,0.68,2.39,1.01,4.3,1.01c2.31,0,4.45-0.42,6.43-1.26l2.95-14.44
			H415l-6.11,30H404l2.35-11.5c-2.44,0.84-4.71,1.26-6.82,1.26c-2.9,0-5.2-0.65-6.88-1.95c-1.69-1.3-2.53-3.14-2.53-5.54
			c0-1,0.43-3.78,1.3-8.33L392.21,800.04L392.21,800.04z M432.28,817.61l1.03-5.11h14.93l-1,5.11H432.28L432.28,817.61z
			 M462.73,830.05l22.47-41.42h6.25l6.54,41.42h-5.15l-1.91-11.92H474.9l-6.36,11.93L462.73,830.05L462.73,830.05z M477.15,813.86
			h13.12l-1.53-10.41c-0.35-2.51-0.62-4.43-0.78-5.76c-0.22-1.83-0.32-3.35-0.32-4.55c-0.92,2.43-2.24,5.25-3.95,8.45L477.15,813.86
			L477.15,813.86z M508.72,800.04H516l2.7,23.94l13.34-23.94h7.13l-6.14,30h-4.85l5-24.19l-13.47,24.19h-4.35l-2.84-25.11
			l-5.13,25.11h-4.85L508.72,800.04L508.72,800.04z M559.61,800.04h4.76l-2.67,12.82l0.38,0.04c1.03,0,2.01-0.45,2.94-1.37
			c0.92-0.92,2.11-2.61,3.56-5.1c1.57-2.69,2.99-4.43,4.27-5.21c1.28-0.78,2.6-1.18,3.98-1.18c0.95,0,1.96,0.17,3.03,0.51
			l-1.11,3.05c-0.66-0.26-1.19-0.4-1.63-0.4c-0.81,0-1.52,0.29-2.14,0.88c-0.61,0.59-1.39,1.79-2.34,3.61
			c-1.98,3.73-4.22,6.03-6.69,6.91c0.87,0.32,1.68,0.84,2.45,1.55c0.78,0.71,1.57,2.15,2.4,4.32l3.6,9.58h-5.04l-2.83-7.63
			c-0.86-2.37-1.65-3.97-2.37-4.81c-0.72-0.84-1.74-1.37-3.06-1.6l-2.93,14.04h-4.81l2.89-14.04c-0.5,0-0.97,0.08-1.4,0.22
			c-0.43,0.15-0.9,0.39-1.39,0.71c-0.88,0.58-2.34,2.27-4.37,5.05l-5.93,8.04l-5.93,0.01l7.6-10c2.22-2.92,4.6-4.73,7.13-5.45
			c-1.1-0.72-1.91-1.58-2.43-2.58c-0.53-1-1.03-2.83-1.51-5.51c-0.22-1.3-0.49-2.18-0.8-2.63c-0.31-0.45-0.78-0.68-1.39-0.68
			c-0.45,0-1.15,0.14-2.08,0.4l0.32-3.25c0.4-0.1,0.81-0.16,1.25-0.22c0.43-0.06,0.87-0.09,1.28-0.09c1.71,0,2.93,0.5,3.66,1.5
			c0.74,0.92,1.38,2.65,1.9,5.19c0.54,2.54,1.11,4.2,1.73,4.99c0.63,0.78,1.62,1.17,2.98,1.17L559.61,800.04L559.61,800.04z
			 M598.27,824.62c-3.44,4.07-6.93,6.1-10.47,6.1c-2.16,0-3.95-0.64-5.38-1.91c-1.42-1.27-2.13-2.89-2.13-4.87
			c0-1.36,0.3-3.55,0.91-6.59l3.46-17.31h4.9l-3.84,19.18c-0.32,1.58-0.49,2.85-0.49,3.78c0,1.15,0.32,2.03,0.97,2.65
			c0.67,0.59,1.63,0.88,2.9,0.88c1.87,0,3.66-0.63,5.34-1.89c1.68-1.26,2.92-2.77,3.71-4.52c0.74-1.67,1.43-4.04,2.06-7.12
			l2.59-12.96h4.89l-6,30h-4.51L598.27,824.62L598.27,824.62z M617.66,800.04h21.63l-6.11,30h-4.86l5.35-25.74H621.6l-3.7,17.89
			c-0.63,3.07-1.48,5.21-2.54,6.42c-1.06,1.21-2.54,1.82-4.41,1.82c-0.57,0-1.2-0.03-1.87-0.09c-0.68-0.06-1.49-0.15-2.43-0.31
			l0.9-4.23l2.06,0.08c1.24,0,2.05-0.31,2.42-0.94c0.37-0.62,0.93-2.61,1.69-5.98L617.66,800.04L617.66,800.04z M640.66,830.05l6-30
			h4.9l-1.01,4.94c3.05-3.75,6.2-5.62,9.47-5.62c1.89,0,3.42,0.47,4.6,1.42c1.12,0.88,1.89,2.29,2.33,4.21
			c1.42-1.84,2.95-3.24,4.6-4.2c1.64-0.95,3.34-1.43,5.11-1.43c2.36,0,4.14,0.57,5.36,1.71c1.22,1.14,1.83,2.85,1.83,5.1
			c0,0.98-0.21,2.5-0.63,4.55l-3.88,19.33h-4.88l3.95-19.84c0.17-0.83,0.29-1.52,0.38-2.08c0.09-0.57,0.14-1.03,0.14-1.39
			c0-1.05-0.29-1.84-0.85-2.37c-0.57-0.53-1.42-0.79-2.56-0.79c-1.66,0-3.29,0.56-4.87,1.68c-1.59,1.13-2.75,2.46-3.49,4
			c-0.64,1.47-1.26,3.55-1.84,6.24l-2.93,14.55h-4.88l4.06-20.26c0.29-1.45,0.43-2.43,0.43-2.93c0-1.02-0.31-1.82-0.92-2.4
			c-0.61-0.59-1.37-0.88-2.24-0.88c-0.83,0-1.65,0.14-2.45,0.42c-0.8,0.28-1.62,0.72-2.45,1.33c-1.6,1.15-2.81,2.57-3.62,4.29
			c-0.74,1.6-1.39,3.68-1.92,6.24l-2.84,14.19H640.66L640.66,830.05z M721.29,800.04h4.95l-6.21,30h-4.92L721.29,800.04
			L721.29,800.04z M692.99,800.04h4.89l-2.46,11.6h5.22c3.31,0,5.68,0.25,7.1,0.76c1.41,0.51,2.53,1.44,3.36,2.79
			c0.83,1.35,1.25,2.84,1.25,4.5c0,1-0.14,1.97-0.41,2.91c-0.27,0.95-0.69,1.89-1.27,2.83c-1.08,1.81-2.44,3.03-4.07,3.66
			c-1.62,0.63-4.15,0.95-7.59,0.95h-12.22L692.99,800.04L692.99,800.04z M692.47,825.98h6.24c2.41,0,4.12-0.17,5.14-0.51
			c1.02-0.34,1.87-0.95,2.56-1.86c0.68-0.91,1.02-1.99,1.02-3.25c0-1.15-0.3-2.12-0.9-2.9c-0.61-0.78-1.3-1.25-2.1-1.43
			c-0.36-0.08-0.92-0.13-1.67-0.19c-0.75-0.06-1.62-0.09-2.64-0.09h-5.57L692.47,825.98L692.47,825.98z M733.68,800.04h4.85
			l-2.59,12.51h13.34l2.53-12.51h4.78l-6.05,30h-4.87l2.78-13.42h-13.28l-2.78,13.42h-4.84L733.68,800.04L733.68,800.04z
			 M773.41,830.05l6-30h4.9l-1.01,4.94c3.05-3.75,6.2-5.62,9.47-5.62c1.89,0,3.43,0.47,4.6,1.42c1.12,0.88,1.89,2.29,2.33,4.21
			c1.42-1.84,2.95-3.24,4.6-4.2c1.64-0.95,3.34-1.43,5.11-1.43c2.36,0,4.14,0.57,5.36,1.71c1.22,1.14,1.83,2.85,1.83,5.1
			c0,0.98-0.21,2.5-0.63,4.55l-3.88,19.33h-4.88l3.95-19.84c0.17-0.83,0.29-1.52,0.38-2.08c0.09-0.57,0.14-1.03,0.14-1.39
			c0-1.05-0.29-1.84-0.85-2.37c-0.57-0.53-1.42-0.79-2.56-0.79c-1.66,0-3.29,0.56-4.87,1.68c-1.59,1.13-2.75,2.46-3.49,4
			c-0.64,1.47-1.26,3.55-1.84,6.24l-2.94,14.55h-4.88l4.06-20.26c0.29-1.45,0.43-2.43,0.43-2.93c0-1.02-0.31-1.82-0.92-2.4
			c-0.61-0.59-1.37-0.88-2.24-0.88c-0.83,0-1.65,0.14-2.45,0.42c-0.8,0.28-1.62,0.72-2.45,1.33c-1.6,1.15-2.81,2.57-3.62,4.29
			c-0.74,1.6-1.39,3.68-1.92,6.24l-2.84,14.19H773.41L773.41,830.05z M826.84,830.05l-4.74-30h4.74l2.49,16.52
			c0.26,1.66,0.59,4.61,1,8.85c0.93-2.17,2.13-4.61,3.58-7.33l9.61-18.04h5.17l-16.44,30l-3.41,11.86l-4.96,0.12L826.84,830.05
			L826.84,830.05z M855.46,800.04h21.63l-6.11,30h-4.86l5.35-25.74h-12.06l-3.7,17.89c-0.63,3.07-1.48,5.21-2.54,6.42
			c-1.06,1.21-2.54,1.82-4.41,1.82c-0.57,0-1.2-0.03-1.87-0.09c-0.68-0.06-1.49-0.15-2.43-0.31l0.89-4.23l2.06,0.08
			c1.24,0,2.05-0.31,2.42-0.94c0.37-0.62,0.93-2.61,1.69-5.98L855.46,800.04L855.46,800.04z M876.57,830.05l12.5-15.23l-7.17-14.78
			h5.41l2.44,5.33c1.04,2.37,1.86,4.29,2.43,5.74l8.28-11.07h5.97l-12.06,15.17l7.25,14.83l-5.42,0.01l-2.86-6.11
			c-0.36-0.79-0.69-1.53-1-2.23c-0.22-0.51-0.58-1.38-1.08-2.6l-8.55,10.94H876.57L876.57,830.05z M913.46,830.05l-4.74-30h4.74
			l2.49,16.52c0.26,1.66,0.59,4.61,1,8.85c0.93-2.17,2.13-4.61,3.58-7.33l9.61-18.04h5.17l-16.44,30l-3.4,11.86l-4.96,0.12
			L913.46,830.05L913.46,830.05z M941.15,830.05l-4.73-30h4.73l2.49,16.52c0.26,1.66,0.59,4.61,1,8.85
			c0.93-2.17,2.13-4.61,3.58-7.33l9.61-18.04H963l-16.44,30l-3.41,11.86l-4.96,0.12L941.15,830.05L941.15,830.05z M959.27,841.54
			l8.3-41.5h4.52l-0.84,4.18c2.88-3.24,5.8-4.86,8.73-4.86c2.7,0,4.96,1.05,6.77,3.15c1.81,2.09,2.71,5.08,2.71,8.94
			c0,5.28-1.41,9.81-4.25,13.59c-2.83,3.79-6.11,5.68-9.84,5.68c-3.42,0-6.07-1.82-7.98-5.48l-3.23,16.3H959.27L959.27,841.54z
			 M968.9,818.79c0,2.59,0.61,4.52,1.84,5.81c1.23,1.29,2.72,1.94,4.49,1.94c2.83,0,5.1-1.69,6.82-5.05
			c1.71-3.38,2.57-6.77,2.57-10.2c0-2.03-0.52-3.84-1.54-5.42c-1.02-1.58-2.53-2.37-4.51-2.37c-2.76,0-5.06,1.62-6.89,4.87
			C969.82,811.61,968.9,815.09,968.9,818.79L968.9,818.79z"/>
	</g>
</g>
</svg>
