<?xml version="1.0" encoding="utf-8"?>
<!-- Generator: Adobe Illustrator 26.5.0, SVG Export Plug-In . SVG Version: 6.00 Build 0)  -->
<svg version="1.1" id="Layer_1" xmlns="http://www.w3.org/2000/svg" xmlns:xlink="http://www.w3.org/1999/xlink" x="0px" y="0px"
	 viewBox="0 0 1080 1080" style="enable-background:new 0 0 1080 1080;" xml:space="preserve">
<style type="text/css">
	.st0{fill-rule:evenodd;clip-rule:evenodd;}
	.st1{fill:#ED1C24;}
	.st2{fill:#E1251B;}
	.st3{fill-rule:evenodd;clip-rule:evenodd;fill:#16397B;}
	.st4{fill:#EE2745;}
	
		.st5{clip-path:url(#SVGID_00000098903169925008668680000006883320693125265593_);fill:url(#SVGID_00000089553493338327832850000004836134978341876355_);}
	
		.st6{clip-path:url(#SVGID_00000094580173188081399830000002414118701065588924_);fill:url(#SVGID_00000025401175730076880960000013208349904166659972_);}
	
		.st7{clip-path:url(#SVGID_00000023273320394217785210000006394768968093936565_);fill:url(#SVGID_00000103959782870642418140000010696748174026728364_);}
	
		.st8{clip-path:url(#SVGID_00000121975004035668099420000006802037259365188536_);fill:url(#SVGID_00000168112388131758322700000016289153263865973908_);}
	.st9{fill:#424243;}
	
		.st10{clip-path:url(#SVGID_00000046308972068509223970000010016419298592868533_);fill:url(#SVGID_00000091698453218341427840000001565686925245971387_);}
	.st11{fill:#FFFFFF;}
	
		.st12{clip-path:url(#SVGID_00000034047659476427389530000000392075393169309064_);fill:url(#SVGID_00000018212949402221857620000012156893119535322546_);}
	
		.st13{clip-path:url(#SVGID_00000098904504825256685920000012561933301655760788_);fill:url(#SVGID_00000152262902597107535600000015098559418231574450_);}
	
		.st14{clip-path:url(#SVGID_00000078741420663876504290000000888304454728843397_);fill:url(#SVGID_00000004539086288382018600000016214450122899118491_);}
	
		.st15{clip-path:url(#SVGID_00000093862917538469005890000008707259365658834594_);fill:url(#SVGID_00000162349167644074338180000001708348949944838587_);}
	
		.st16{clip-path:url(#SVGID_00000002344380197380560280000008002983673689663912_);fill:url(#SVGID_00000085247012388525476280000009758321615878043285_);}
	
		.st17{clip-path:url(#SVGID_00000147939626152401870070000002125260558543044488_);fill:url(#SVGID_00000103968783863226708940000000147323338623184768_);}
	
		.st18{clip-path:url(#SVGID_00000028300305786387096850000008699239429158942383_);fill:url(#SVGID_00000118359592729614125040000001005546497887920778_);}
	.st19{fill-rule:evenodd;clip-rule:evenodd;fill:#C8202F;}
	.st20{fill-rule:evenodd;clip-rule:evenodd;fill:#FFFFFF;}
	.st21{fill-rule:evenodd;clip-rule:evenodd;fill:#F98238;}
	.st22{filter:url(#Adobe_OpacityMaskFilter);}
	.st23{fill:url(#SVGID_00000029728114164419950060000016885758697231961735_);}
	.st24{mask:url(#SVGID_00000036209803382842841050000016936665721775357590_);fill-rule:evenodd;clip-rule:evenodd;fill:#ED1C24;}
	.st25{fill-rule:evenodd;clip-rule:evenodd;fill:#F5333F;}
	.st26{fill-rule:evenodd;clip-rule:evenodd;fill:#ED1C24;}
	.st27{fill-rule:evenodd;clip-rule:evenodd;fill:#F9A46E;}
	.st28{fill-rule:evenodd;clip-rule:evenodd;fill:#F47B26;}
	.st29{fill-rule:evenodd;clip-rule:evenodd;fill:#EB5433;}
	.st30{fill:#1A3282;}
	.st31{fill-rule:evenodd;clip-rule:evenodd;fill:#1A3282;}
	.st32{fill-rule:evenodd;clip-rule:evenodd;fill:#9D9FA2;}
	.st33{fill-rule:evenodd;clip-rule:evenodd;fill:#000303;}
	.st34{fill:#64003D;}
	.st35{fill:#536270;}
	.st36{fill-rule:evenodd;clip-rule:evenodd;fill:#64003D;}
	.st37{fill-rule:evenodd;clip-rule:evenodd;fill:#536270;}
	.st38{fill-rule:evenodd;clip-rule:evenodd;fill:#1A3382;}
	.st39{fill-rule:evenodd;clip-rule:evenodd;fill:#29387E;}
	.st40{fill-rule:evenodd;clip-rule:evenodd;fill:#F37021;}
	.st41{fill-rule:evenodd;clip-rule:evenodd;fill:#005C32;}
	.st42{fill-rule:evenodd;clip-rule:evenodd;fill:#D2AB67;}
	
		.st43{clip-path:url(#SVGID_00000079452215616052130010000017607951883578162061_);fill:url(#SVGID_00000033341763145054101760000004721814944589922997_);}
	
		.st44{clip-path:url(#SVGID_00000051361640640386464570000000077323165481493183_);fill:url(#SVGID_00000122001546279266106610000011758572415737626032_);}
	
		.st45{clip-path:url(#SVGID_00000131361795530474952570000004365170807452232591_);fill:url(#SVGID_00000114060556265540220330000003047485325104226749_);}
	.st46{fill-rule:evenodd;clip-rule:evenodd;fill:#00AEEF;}
	.st47{fill-rule:evenodd;clip-rule:evenodd;fill:#EC008C;}
	.st48{fill-rule:evenodd;clip-rule:evenodd;fill:#FFF200;}
	.st49{fill:#A7AAAC;}
	.st50{fill-rule:evenodd;clip-rule:evenodd;fill:#5C5B5B;}
	.st51{fill:#9D9D9F;}
	.st52{fill:#F04D23;}
	.st53{fill-rule:evenodd;clip-rule:evenodd;fill:#2E3192;}
	.st54{fill-rule:evenodd;clip-rule:evenodd;fill:#C4312D;}
	.st55{fill:#552715;}
	.st56{fill:#010101;}
	.st57{fill:#E31E2E;}
	.st58{fill:url(#SVGID_00000105384619535461496730000006418570929501248936_);}
	.st59{fill:url(#SVGID_00000132085517313151769290000000214655947302613166_);}
	.st60{clip-path:url(#SVGID_00000152237520414593765080000005539831985948851123_);}
	.st61{clip-path:url(#SVGID_00000088853069347357913910000009207036541968341410_);}
	.st62{clip-path:url(#SVGID_00000093870011869554046560000000152137550147043724_);}
	.st63{clip-path:url(#SVGID_00000088831549024278279610000008396863216539314344_);}
	.st64{clip-path:url(#SVGID_00000045587739269623354050000016489431748606898049_);}
	.st65{clip-path:url(#SVGID_00000066495002404517219320000016798875532111733145_);}
	.st66{clip-path:url(#SVGID_00000131361715557050895220000000771110606195499940_);}
	.st67{clip-path:url(#SVGID_00000100346755165999440810000016658108214449612178_);}
	.st68{clip-path:url(#SVGID_00000160889157553498444890000013213403272885820810_);}
	.st69{clip-path:url(#SVGID_00000114038980282093290330000013674591562208616869_);}
	.st70{clip-path:url(#SVGID_00000100343147276399282930000009176301480092585889_);}
	.st71{fill:#2650A1;}
	.st72{fill:url(#SVGID_00000161591197516216547630000018043443288826412961_);}
	.st73{fill:#FEFEFE;}
	.st74{fill:#FDFDFD;}
	.st75{fill:#FCFCFC;}
	.st76{fill:#FBFBFB;}
	.st77{fill:#FAFAFA;}
	.st78{fill:#F9F9F9;}
	.st79{fill:#F8F8F8;}
	.st80{fill:#F7F7F7;}
	.st81{fill:#F6F6F6;}
	.st82{fill:#F5F5F5;}
	.st83{fill:#F4F4F4;}
	.st84{fill:#F3F3F3;}
	.st85{fill:#F2F2F2;}
	.st86{fill:#F1F1F1;}
	.st87{fill:#F0F0F0;}
	.st88{fill:#EFEFEF;}
	.st89{fill:#EEEEEE;}
	.st90{fill:#EDEDED;}
	.st91{fill:#ECECEC;}
	.st92{fill:#EBEBEB;}
	.st93{fill:#EAEAEA;}
	.st94{fill:#E9E9E9;}
	.st95{fill:#E8E8E8;}
	.st96{fill:#E7E7E7;}
	.st97{fill:#E6E6E6;}
	.st98{fill:#E5E5E5;}
	.st99{fill:#E4E4E4;}
	.st100{fill:#E3E3E3;}
	.st101{fill:#E2E2E2;}
	.st102{fill:#E1E1E1;}
	.st103{fill:#E0E0E0;}
	.st104{fill:#DFDFDF;}
	.st105{fill:#DEDEDE;}
	.st106{fill:#DDDDDD;}
	.st107{fill:#DCDCDC;}
	.st108{fill:#DBDBDB;}
	.st109{fill:#DADADA;}
	.st110{fill:#D9D9D9;}
	.st111{fill:#D92231;}
	.st112{fill:url(#SVGID_00000075141367638160806760000003709097336627493563_);}
	.st113{fill:url(#SVGID_00000058548929277379876550000008198241398947415715_);}
	.st114{opacity:0.8;}
	.st115{fill:url(#SVGID_00000119799685932400463300000001297125996113795488_);}
	.st116{fill:url(#SVGID_00000029016408439242592430000001933977332352607126_);}
	.st117{fill-rule:evenodd;clip-rule:evenodd;fill:#010101;}
	.st118{fill:#80A845;}
	.st119{fill-rule:evenodd;clip-rule:evenodd;fill:#80A845;}
	.st120{fill:url(#SVGID_00000036936585487472905100000003388985095304706238_);}
	.st121{fill-rule:evenodd;clip-rule:evenodd;fill:#04984A;}
	.st122{fill-rule:evenodd;clip-rule:evenodd;fill:url(#SVGID_00000114791319705176908870000009341707133906353543_);}
	.st123{fill:url(#SVGID_00000065037175885023472490000010067858174662248582_);}
	.st124{fill:url(#SVGID_00000132805495496967415110000007083424486447573675_);}
	.st125{fill:url(#SVGID_00000173882481350076295120000012918303079585942418_);}
	.st126{fill:url(#SVGID_00000021093893941807230220000010760625420497249470_);}
	.st127{fill:url(#SVGID_00000123436569960360064900000001004877768246990251_);}
	.st128{fill:url(#SVGID_00000016046626819126381510000016912348783410194315_);}
	.st129{fill:url(#SVGID_00000085229364376649958830000015134469768473872567_);}
	.st130{fill:url(#SVGID_00000092457269544527118970000009360710954914940086_);}
	.st131{fill:url(#SVGID_00000169534851020785144370000016494495750425648271_);}
	.st132{fill:url(#SVGID_00000124858195903575412250000008013465292530513284_);}
	.st133{fill:url(#SVGID_00000017497654517659053660000008050307472351402939_);}
	.st134{fill:url(#SVGID_00000003097989267335358850000016102525655275036326_);}
	.st135{fill:url(#SVGID_00000051379881672781576490000001111954147106466481_);}
	.st136{fill:url(#SVGID_00000066484945165262364340000002425241527110262963_);}
	.st137{fill-rule:evenodd;clip-rule:evenodd;fill:url(#SVGID_00000141431373488503738010000011643950551958000560_);}
	.st138{fill:#0A529D;}
	.st139{fill:url(#SVGID_00000006667455712325827300000017879883487586488979_);}
	.st140{fill:url(#SVGID_00000024718878984449367290000005406803588893877432_);}
	.st141{fill:url(#SVGID_00000118384731389245933070000012507668004686880898_);}
	.st142{fill:url(#SVGID_00000147199194676962590780000014172349280720648895_);}
	.st143{fill:url(#SVGID_00000021102739969681373530000012990595240321515917_);}
	.st144{fill:url(#SVGID_00000034081746852354382860000000327568806374807450_);}
	.st145{fill:url(#SVGID_00000179633038683802809770000009953385248450778272_);}
	.st146{fill:url(#SVGID_00000018933562939043463730000006613521486712269223_);}
	.st147{fill:url(#SVGID_00000026146512058731719010000003921377879292304800_);}
	.st148{fill:url(#SVGID_00000147921977034663169340000008710711519692224447_);}
	.st149{fill:url(#SVGID_00000050663583070119185120000006390083056583030446_);}
	.st150{fill:url(#SVGID_00000011713718881508613930000007065672653832549517_);}
	.st151{fill-rule:evenodd;clip-rule:evenodd;fill:url(#SVGID_00000124853044053602225570000003510520016240515474_);}
	.st152{fill:url(#SVGID_00000174578261378347278070000012302907065216662942_);}
	.st153{fill:url(#SVGID_00000039092350901048478420000001920963215932775062_);}
	.st154{fill:url(#SVGID_00000163781766967682878170000007233209816780881329_);}
	.st155{fill:url(#SVGID_00000109731855728493501580000009274387546609735071_);}
	.st156{fill:url(#SVGID_00000161609538934608478010000004258372196424103559_);}
	.st157{fill:url(#SVGID_00000116950569788503664210000014333251162259262903_);}
	.st158{fill:url(#SVGID_00000096024776366071497400000017201986566209477013_);}
	.st159{fill:url(#SVGID_00000086687665172394530020000008198463311156587693_);}
	.st160{fill:url(#SVGID_00000134248993574083844450000005397933581071260041_);}
	.st161{fill:url(#SVGID_00000001621833872579948030000014970767408255820954_);}
	.st162{fill:url(#SVGID_00000159438673281348166640000008544453948134103437_);}
	.st163{fill:url(#SVGID_00000064334916592952376720000003052619957892404907_);}
	.st164{fill:url(#SVGID_00000175296197317952848820000000886735310433599675_);}
	.st165{fill:url(#SVGID_00000180369141404273097720000000292358721100390844_);}
	.st166{fill:url(#SVGID_00000029740269659129200180000008802100755266295429_);}
	.st167{fill:url(#SVGID_00000026873400479028337880000001043408939703812532_);}
	.st168{fill:url(#SVGID_00000161623029442162477970000009722695463672964774_);}
	.st169{fill-rule:evenodd;clip-rule:evenodd;fill:url(#SVGID_00000003803414858549673650000004930549714867698308_);}
	.st170{fill:url(#SVGID_00000124145980523565251100000011356239487449624500_);}
	.st171{fill:url(#SVGID_00000005945475110644483520000001029886537785611704_);}
	.st172{fill:url(#SVGID_00000054953635113839126670000012535587868225422253_);}
	.st173{fill:url(#SVGID_00000158019749621817806120000009366331054549575827_);}
	.st174{fill:url(#SVGID_00000084495163087400933310000004135634456509621136_);}
	.st175{fill:url(#SVGID_00000090973534693860848060000017294126967549599167_);}
	.st176{fill:url(#SVGID_00000025420567014157280750000015768656839116395936_);}
	.st177{fill:url(#SVGID_00000138543632860385453180000003067176827851181982_);}
	.st178{fill:url(#SVGID_00000004529306040892727650000013146300110294261136_);}
	.st179{fill:url(#SVGID_00000151524102601763752100000011322657325408346253_);}
	.st180{fill:url(#SVGID_00000096054292335357222860000000267684765718770589_);}
	.st181{fill:url(#SVGID_00000178176297131993193020000014152927233589818284_);}
	.st182{fill:url(#SVGID_00000019648547305457646780000003016074865922221700_);}
	.st183{fill:url(#SVGID_00000031193985713608695640000011865432323535848873_);}
	.st184{fill-rule:evenodd;clip-rule:evenodd;fill:url(#SVGID_00000084494627512904905890000015048050955113739400_);}
	.st185{fill:url(#SVGID_00000058559464455494516580000014193189680274844809_);}
	.st186{fill:url(#SVGID_00000013904824185889245510000014514068392911326848_);}
	.st187{fill:url(#SVGID_00000029724111035631905910000015237749328927285385_);}
	.st188{fill:url(#SVGID_00000035491036591919605420000017473278627602092956_);}
	.st189{fill:url(#SVGID_00000016772965886419877850000010241069118324944529_);}
	.st190{fill:url(#SVGID_00000052814444179535988510000017135333597444595595_);}
	.st191{fill:url(#SVGID_00000021806344615409094710000003885839566733571732_);}
	.st192{fill:url(#SVGID_00000139980530351324873850000010450929053801624454_);}
	.st193{fill:url(#SVGID_00000097481752650772447670000017606412303559758251_);}
	.st194{fill:url(#SVGID_00000107564825131598546650000008230579942962446010_);}
	.st195{fill:url(#SVGID_00000132801066157294385550000005853999297535225729_);}
	.st196{fill:url(#SVGID_00000132784991703913891740000004158648791536075944_);}
	.st197{fill:url(#SVGID_00000036246753755630561430000001888118112578053277_);}
	.st198{fill:url(#SVGID_00000014599752617802837310000016822073871516309910_);}
	.st199{fill:url(#SVGID_00000036244884808868871050000004302101558369545118_);}
	.st200{fill:url(#SVGID_00000116221962129851757550000003416619506016419728_);}
	.st201{fill:url(#SVGID_00000149341555456078006940000017235085812074466984_);}
	.st202{fill:url(#SVGID_00000111898289187649206620000018243102772473964731_);}
	.st203{fill:url(#SVGID_00000080204024100158877070000009224520494693304749_);}
	.st204{fill-rule:evenodd;clip-rule:evenodd;fill:url(#SVGID_00000014618861441942367300000013120588167534635957_);}
	.st205{fill:url(#SVGID_00000023976267252910130290000005992827671545098625_);}
	.st206{fill:url(#SVGID_00000018932629380647298080000011187131909912817280_);}
	.st207{fill:url(#SVGID_00000023274330143449737900000006749275317696921481_);}
	.st208{fill:url(#SVGID_00000176722009927912774480000017541134771814268829_);}
	.st209{fill:url(#SVGID_00000073695264844276885630000008521560704040865174_);}
	.st210{fill:url(#SVGID_00000104703597725512140600000015345073287187950008_);}
	.st211{fill:url(#SVGID_00000111168626465850985070000012363441754780373929_);}
	.st212{fill:url(#SVGID_00000160162061601091533470000016783418626127889068_);}
	.st213{fill:url(#SVGID_00000009572073142390988560000012329482222952610485_);}
	.st214{fill:url(#SVGID_00000008859668363996821910000018271826423734162319_);}
	.st215{fill:url(#SVGID_00000078731269469162864610000010670122255873848487_);}
	.st216{fill:url(#SVGID_00000112596081915465778980000014010432806897688238_);}
	.st217{fill:url(#SVGID_00000026841730596472271420000007100692623157084291_);}
	.st218{fill:url(#SVGID_00000109030678292837664570000017492879259956811648_);}
	.st219{fill:url(#SVGID_00000170262693181575442860000007170157894895785396_);}
	.st220{fill:url(#SVGID_00000014623062983214663080000018402655214304078720_);}
	.st221{fill-rule:evenodd;clip-rule:evenodd;fill:url(#SVGID_00000147214552313566832010000014541912918246021511_);}
	.st222{fill:url(#SVGID_00000181787912146628232700000014004225556339422619_);}
	.st223{fill:url(#SVGID_00000088839738216715485810000016369863008985540508_);}
	.st224{fill:url(#SVGID_00000025417821735684305480000009995868271729884339_);}
	.st225{fill:url(#SVGID_00000054226553673411090630000006167581016734453934_);}
	.st226{fill:url(#SVGID_00000025420862332892649430000014872540037597155495_);}
	.st227{fill:url(#SVGID_00000127730772836986201140000011151995271146135224_);}
	.st228{fill:url(#SVGID_00000071519704237288408340000012984370814673700287_);}
	.st229{fill:url(#SVGID_00000145041556704902817850000007253436062909667775_);}
	.st230{fill:url(#SVGID_00000023988536258371324670000013146474099556480164_);}
	.st231{fill:url(#SVGID_00000023994558214709025350000017803814624974078897_);}
	.st232{fill:url(#SVGID_00000022558474103361815300000015864275920815345075_);}
	.st233{fill:url(#SVGID_00000107563079482777005360000011474746737815362702_);}
	.st234{fill:url(#SVGID_00000163059531327183257930000013588058671610617256_);}
	.st235{fill:url(#SVGID_00000083781673419276888540000018162870834342358174_);}
	.st236{fill:url(#SVGID_00000142165086100972692590000005009101423598668725_);}
	.st237{fill-rule:evenodd;clip-rule:evenodd;fill:url(#SVGID_00000018958135569922941490000017544109368065179523_);}
	.st238{fill:url(#SVGID_00000065793645344269756550000009280221564876876672_);}
	.st239{fill:url(#SVGID_00000105420615518395832960000015883476020275567536_);}
	.st240{fill:url(#SVGID_00000113318964720210240620000001717208523684174512_);}
	.st241{fill:url(#SVGID_00000156568135144259149600000000561225247131228087_);}
	.st242{fill:url(#SVGID_00000122710001537214087460000016062710727679821210_);}
	.st243{fill:url(#SVGID_00000067230230233021093640000010907994891973836930_);}
	.st244{fill:url(#SVGID_00000060731848476959101620000009387787221883700890_);}
	.st245{fill:url(#SVGID_00000131363668697511374770000001238505292418125697_);}
	.st246{fill:url(#SVGID_00000020374084648459095780000006010135394603941266_);}
	.st247{fill:url(#SVGID_00000183947470857417670390000016926896516093068940_);}
	.st248{fill:url(#SVGID_00000083793710889541135910000008593181752010634660_);}
	.st249{fill:url(#SVGID_00000137118313584434708160000010839071005765809555_);}
	.st250{fill:url(#SVGID_00000107579222801828493860000009618116618834093195_);}
	.st251{fill:url(#SVGID_00000010310827887983652470000012124321093615952311_);}
	.st252{fill:url(#SVGID_00000011006008097702077420000014185662843076183943_);}
	.st253{fill-rule:evenodd;clip-rule:evenodd;fill:url(#SVGID_00000132798917392364939130000017735056086202342825_);}
	.st254{fill:url(#SVGID_00000029028890841783709670000013969741408842953645_);}
	.st255{fill:url(#SVGID_00000149346409326670341190000002829561762758868882_);}
	.st256{fill:url(#SVGID_00000109732072216656965990000009114015144858459320_);}
	.st257{fill:url(#SVGID_00000043428963314211293680000011372291343331699079_);}
	.st258{fill:url(#SVGID_00000052081836647299604470000010863837645243842707_);}
	.st259{fill:url(#SVGID_00000122689898493743963350000010253977931850563470_);}
	.st260{fill:url(#SVGID_00000072272515189325520550000011016001896819254958_);}
	.st261{fill:url(#SVGID_00000057113215157404289280000010381962605792723376_);}
	.st262{fill:url(#SVGID_00000056402918835161374340000009025968988866591634_);}
	.st263{fill:url(#SVGID_00000167360688762143728010000010599024327599329668_);}
	.st264{fill:url(#SVGID_00000061447177905323676300000012419519705662806197_);}
	.st265{fill:url(#SVGID_00000102544423714464245340000011322988083237654962_);}
	.st266{fill:url(#SVGID_00000011733729680907618120000000115186151974938285_);}
	.st267{fill:url(#SVGID_00000105422427539599378170000012488465617084123833_);}
	.st268{fill:url(#SVGID_00000183237271238731956690000013923006285762377914_);}
	.st269{fill-rule:evenodd;clip-rule:evenodd;fill:url(#SVGID_00000074440228086597180400000018436792206329845920_);}
	.st270{fill:url(#SVGID_00000021114675598801182660000007911976175777164974_);}
	.st271{fill:url(#SVGID_00000036957119233464312280000002198599120216910741_);}
	.st272{fill:url(#SVGID_00000008836710215281428170000004853530659676035712_);}
	.st273{fill:url(#SVGID_00000158751026118282335140000003279764410492722871_);}
	.st274{fill:url(#SVGID_00000170986328047142572710000007709308966733850266_);}
	.st275{fill:url(#SVGID_00000022551874588879423170000007368147694991577244_);}
	.st276{fill:url(#SVGID_00000154413092610888883690000011658937233197302194_);}
	.st277{fill:url(#SVGID_00000013173130919962428350000005577819793373789881_);}
	.st278{fill:url(#SVGID_00000085244241681970161460000017179669573202357651_);}
	.st279{fill:url(#SVGID_00000083051593070381856780000015747842553544636803_);}
	.st280{fill:url(#SVGID_00000016070216632529381760000007089524428086097297_);}
	.st281{fill:url(#SVGID_00000117657821704690583540000003338394976966926261_);}
	.st282{fill:url(#SVGID_00000128485071383222025110000007659489765043000966_);}
	.st283{fill:url(#SVGID_00000158030834405021603900000017336751469211811766_);}
	.st284{fill:url(#SVGID_00000150076590665493424060000000283498359817435065_);}
	.st285{fill-rule:evenodd;clip-rule:evenodd;fill:url(#SVGID_00000099656473769463343890000006279403975307928751_);}
	.st286{fill:url(#SVGID_00000138533058299789796480000014205033756471169706_);}
	.st287{fill:url(#SVGID_00000134222598197710268030000005658381529492028589_);}
	.st288{fill:url(#SVGID_00000183220661806169581510000016253936937389303945_);}
	.st289{fill:url(#SVGID_00000168112602128546815880000013192335445464266941_);}
	.st290{fill:url(#SVGID_00000006667636182920447570000015317583768998260137_);}
	.st291{fill:url(#SVGID_00000124880295801359984390000011620505179764704918_);}
	.st292{fill:url(#SVGID_00000136403674647845716980000016624469198862150328_);}
	.st293{fill:url(#SVGID_00000043438524242363348940000006532480911477359003_);}
	.st294{fill:url(#SVGID_00000091715597011312179950000008312339245908375212_);}
	.st295{fill:url(#SVGID_00000078045816496769028220000014350332715611018639_);}
	.st296{fill:url(#SVGID_00000097464534715771894250000013998742542336183982_);}
	.st297{fill:url(#SVGID_00000164503800045098905540000002817783615744681365_);}
	.st298{fill:url(#SVGID_00000011744549207904525480000004075240541080880055_);}
	.st299{fill:url(#SVGID_00000160163864604098285510000007617891528473157283_);}
	.st300{fill:url(#SVGID_00000087370344086460841240000005196942817116575876_);}
	.st301{fill:url(#SVGID_00000176012177988046167510000011807534203429662859_);}
	.st302{fill:url(#SVGID_00000009570937618962758070000003356434679313501317_);}
	.st303{fill:url(#SVGID_00000163065209993298534950000011234918520265596061_);}
	.st304{fill-rule:evenodd;clip-rule:evenodd;fill:url(#SVGID_00000113328827016280882220000007994555012610192053_);}
	.st305{fill:url(#SVGID_00000101103939827850655170000009892476153094624947_);}
	.st306{fill:url(#SVGID_00000120531166336822238420000006132688970113712016_);}
	.st307{fill:url(#SVGID_00000178905266971264493460000005418316911757670029_);}
	.st308{fill:url(#SVGID_00000108997966580697668120000009798852697915403952_);}
	.st309{fill:url(#SVGID_00000031900664257408339390000011220148988522589312_);}
	.st310{fill:url(#SVGID_00000087372069674389144110000008466543249879923340_);}
	.st311{fill:url(#SVGID_00000142859072241711776690000012435479114396809380_);}
	.st312{fill:url(#SVGID_00000121960231846252746400000006444174843369816195_);}
	.st313{fill:url(#SVGID_00000044860611787728334010000016371961557658991256_);}
	.st314{fill:url(#SVGID_00000062871400456007898170000016978847589316133553_);}
	.st315{fill:url(#SVGID_00000169533896731362821370000014525307119630332330_);}
	.st316{fill:url(#SVGID_00000159432822403465892380000005078033821874632588_);}
	.st317{fill:url(#SVGID_00000081633522486868458410000003629813224540684478_);}
	.st318{fill:url(#SVGID_00000032613667429723900350000016151068299949363877_);}
	.st319{fill:url(#SVGID_00000183961677748902535280000001543670118577616563_);}
	.st320{fill:url(#SVGID_00000083087888654537387690000008686524045239851925_);}
	.st321{fill:url(#SVGID_00000044883772754257153120000002250821813134051203_);}
	.st322{fill:url(#SVGID_00000065048532856736938490000008432220853589150655_);}
	.st323{fill:url(#SVGID_00000057844961699840414560000017934403151055737478_);}
	.st324{fill:url(#SVGID_00000140013834489411847520000008720274235507483052_);}
	.st325{fill-rule:evenodd;clip-rule:evenodd;fill:url(#SVGID_00000106866359113547089370000004131705334279711139_);}
	.st326{fill:url(#SVGID_00000127006491703135811200000011338994129701699003_);}
	.st327{fill:url(#SVGID_00000085246280313646863170000006259420969818761362_);}
	.st328{fill:url(#SVGID_00000166661506778368477440000015018284571821445527_);}
	.st329{fill:url(#SVGID_00000106863282961727279120000001008037538894429339_);}
	.st330{fill:url(#SVGID_00000042703322728414282690000004452960738985925024_);}
	.st331{fill:url(#SVGID_00000122705317577962886660000000097132289234967180_);}
	.st332{fill:url(#SVGID_00000003079717112882241320000017932898367333014673_);}
	.st333{fill:url(#SVGID_00000152255551879682578440000006830880779773601936_);}
	.st334{fill:url(#SVGID_00000038394549884018944590000003726070973841780367_);}
	.st335{fill:url(#SVGID_00000059993639075267373000000017185087866795477948_);}
	.st336{fill:url(#SVGID_00000152968760584781571420000014222091277711156356_);}
	.st337{fill:url(#SVGID_00000012466675536225102080000014100777651951642242_);}
	.st338{fill:url(#SVGID_00000147183768281574124820000012478216106938177214_);}
	.st339{fill:url(#SVGID_00000041999117922007610650000011525855125363270796_);}
	.st340{fill:url(#SVGID_00000110445929677874659030000017700233719529048708_);}
	.st341{fill:url(#SVGID_00000173851198075374176620000003075525630513625220_);}
	.st342{fill-rule:evenodd;clip-rule:evenodd;fill:url(#SVGID_00000060003165863860938250000001408074490609096866_);}
	.st343{fill:url(#SVGID_00000067937148666713598630000013893900286160329903_);}
	.st344{fill:url(#SVGID_00000173143714645756932000000006687447408579401404_);}
	.st345{fill:url(#SVGID_00000165196712190956333470000015025309500181617590_);}
	.st346{fill:url(#SVGID_00000107556879668835803410000009482694238858062749_);}
	.st347{fill:url(#SVGID_00000093137058998165976590000008001316002462537625_);}
	.st348{fill:url(#SVGID_00000106837758128414561020000006951623343548433298_);}
	.st349{fill:url(#SVGID_00000074441840437994566260000008059962832244680889_);}
	.st350{fill:url(#SVGID_00000121251174839787152910000000131611700328951475_);}
	.st351{fill:url(#SVGID_00000082331730342117770660000014554275305793847464_);}
	.st352{fill:url(#SVGID_00000132088695224949452850000003569862405656301218_);}
	.st353{fill:url(#SVGID_00000002370879259786668570000016487636718035329199_);}
	.st354{fill:url(#SVGID_00000031906394565362787140000005142328636241808799_);}
	.st355{fill:url(#SVGID_00000166656545154848206250000012064625285188898705_);}
	.st356{fill:url(#SVGID_00000028311582596306659050000016890800080467974790_);}
	.st357{fill:url(#SVGID_00000018226115836382286410000015784637708431971756_);}
	.st358{fill:url(#SVGID_00000165207792677742137540000000440393805375518643_);}
	.st359{fill:url(#SVGID_00000128474966434649678180000011641894016060851122_);}
	.st360{fill:url(#SVGID_00000181054526658683245960000005372780091974029503_);}
	.st361{fill:url(#SVGID_00000108297144954994955950000011587499059667658376_);}
	.st362{fill:url(#SVGID_00000170981702780969774580000002693258924152833424_);}
	.st363{fill:#C1282D;}
	.st364{fill-rule:evenodd;clip-rule:evenodd;fill:url(#SVGID_00000039130921137176626130000002248879755063692452_);}
	.st365{fill:url(#SVGID_00000026125662839864058290000000142314861349784960_);}
	.st366{fill:url(#SVGID_00000066516007603935130820000010234743344433756294_);}
	.st367{fill:url(#SVGID_00000100383268896079276790000008607608519332224408_);}
	.st368{fill:url(#SVGID_00000152236340551172522970000000397600364843680416_);}
	.st369{fill:url(#SVGID_00000181071593044100426480000013573375483612625337_);}
	.st370{fill:url(#SVGID_00000158019482720810420840000014085575215063931271_);}
	.st371{fill:url(#SVGID_00000098185661638640780570000000397353807789987761_);}
	.st372{fill:url(#SVGID_00000172431996832359345770000007339802255977064114_);}
	.st373{fill:url(#SVGID_00000093882329878547855500000011379005393766976186_);}
	.st374{fill:url(#SVGID_00000154420382221901232150000013361058070084629681_);}
	.st375{fill:url(#SVGID_00000034777544732789585700000008244958340325511101_);}
	.st376{fill:url(#SVGID_00000062160341013581173840000002929155146451360154_);}
	.st377{fill:url(#SVGID_00000148623929057103458880000008979557150508544684_);}
	.st378{fill:url(#SVGID_00000057840217097858508150000013953677778247161788_);}
	.st379{fill:url(#SVGID_00000104675048989346862160000006526945172244415901_);}
	.st380{fill:url(#SVGID_00000064332846187442277490000017798491747171995016_);}
	.st381{fill-rule:evenodd;clip-rule:evenodd;fill:url(#SVGID_00000041279817992328381600000010115301905810419353_);}
	.st382{fill:url(#SVGID_00000016073446485780366820000006792459921512397741_);}
	.st383{fill:url(#SVGID_00000131343022904649616390000007923906751594782130_);}
	.st384{fill:url(#SVGID_00000081605899813676769950000014610021981875347596_);}
	.st385{fill:url(#SVGID_00000075152705358276722540000008791255633330151327_);}
	.st386{fill:url(#SVGID_00000012441203726008941090000017531004948739840388_);}
	.st387{fill:url(#SVGID_00000002384990956441295760000017074071344346917267_);}
	.st388{fill:url(#SVGID_00000032649300323446532420000014546867050755724941_);}
	.st389{fill:url(#SVGID_00000018197731712255784140000004314536096406024088_);}
	.st390{fill:url(#SVGID_00000009568237301991862350000003725660139229827968_);}
	.st391{fill:url(#SVGID_00000057123953677126856550000017571907466498130839_);}
	.st392{fill:url(#SVGID_00000022561452227094539440000015542683031702044049_);}
	.st393{fill:url(#SVGID_00000127041834155926017790000015223660055588328081_);}
	.st394{fill:url(#SVGID_00000114795993554715251400000000009068164605572515_);}
	.st395{fill:url(#SVGID_00000098206931451522980470000010980597998650242733_);}
	.st396{fill:url(#SVGID_00000008853651672614479380000017904794580312217752_);}
	.st397{fill:url(#SVGID_00000060736115386386203480000005413018250343493786_);}
	.st398{fill:url(#SVGID_00000146477469389159269840000015722623653638455442_);}
	.st399{fill:url(#SVGID_00000080206006664819434900000012196974892299628678_);}
	.st400{fill:url(#SVGID_00000125599447460986062860000004003009570205654190_);}
	.st401{fill:url(#SVGID_00000083799310356573547510000009012375291681873847_);}
</style>
<g>
	<g>
		<ellipse class="st11" cx="540" cy="471.21" rx="237.26" ry="117.73"/>
		<path class="st121" d="M765.43,507.87c-31.09,47.08-120.24,81.07-225.43,81.07c-105.77,0-195.33-34.35-225.94-81.87l2.32-0.73
			l10.92-3.41l77.08-24.19l-7.25,20.17c-0.62,1.7,1.12,3.34,2.79,2.61l68.05-29.38l-23.07,34.13c-1.27,1.85,0.91,4.14,2.83,2.94
			l68.3-42.18v25.61c0,1.81,2.18,2.76,3.52,1.49l7-6.64l11.03,25.61c0.69,1.6,2.94,1.7,3.77,0.15l17.88-34.13l82.99,41.97
			c1.89,0.98,3.84-1.23,2.65-3.01l-21.87-32.79c-0.51-0.73-0.47-1.7,0.07-2.39l9.43-12.8l10.99,13.67c0.98,1.2,2.83,0.98,3.52-0.4
			l5.8-11.79l50.24,37.11c1.16,0.83,2.83,0.29,3.23-1.09l5.22-17.19l53.76,17.37c0.04,0,0.07,0.04,0.07,0.04
			C765.36,507.83,765.4,507.83,765.43,507.87z"/>
		
			<linearGradient id="SVGID_00000183931498256022350850000017479741912183463826_" gradientUnits="userSpaceOnUse" x1="442.5807" y1="357.772" x2="676.4313" y2="624.8978">
			<stop  offset="0" style="stop-color:#3E76BB"/>
			<stop  offset="1" style="stop-color:#06509E"/>
		</linearGradient>
		<path style="fill-rule:evenodd;clip-rule:evenodd;fill:url(#SVGID_00000183931498256022350850000017479741912183463826_);" d="
			M777.26,471.4c0,1.12-0.04,2.21-0.11,3.3c-0.04,0.94-0.11,1.85-0.22,2.76c-0.07,0.83-0.18,1.67-0.29,2.5
			c-0.07,0.58-0.18,1.16-0.29,1.74c-0.33,2.03-0.8,4.06-1.38,6.06c-0.18,0.73-0.4,1.45-0.62,2.14c-0.07,0.25-0.15,0.51-0.25,0.76
			c-0.29,0.91-0.62,1.81-0.94,2.68c-0.25,0.69-0.54,1.41-0.87,2.1c-0.07,0.22-0.18,0.47-0.29,0.69l-0.11-0.04l-0.07-0.04L619,421.93
			c-0.94-0.44-2.07-0.15-2.65,0.73l-20.53,30.65l-54.7-67.21c-0.76-0.87-2.07-1.02-2.94-0.25l-75.99,63.69l-36.02-3.45
			c-0.58-0.07-1.16,0-1.7,0.25c-9.9,4.46-109.69,49.66-115.38,52.23c-0.25-0.47-0.47-0.91-0.65-1.38c-0.29-0.65-0.58-1.34-0.87-2.03
			c-0.58-1.38-1.12-2.79-1.56-4.17c-0.29-0.83-0.54-1.63-0.76-2.47c-0.83-2.68-1.41-5.4-1.81-8.16c-0.29-1.81-0.47-3.66-0.58-5.51
			c-0.07-1.12-0.11-2.29-0.11-3.45c0-65.11,106.21-117.92,237.26-117.92C671.05,353.48,777.26,406.29,777.26,471.4z"/>
		<g>
			<path class="st11" d="M408.37,533.96c0.32,0,0.64-0.07,0.94-0.2c0.3-0.13,0.49-0.32,0.58-0.56h0.7l-1.21,4.63
				c-0.2,0.65-0.8,0.97-1.79,0.97h-1.79l-3.39,14.41c-0.04,0.2,0.05,0.41,0.27,0.62c0.22,0.21,0.44,0.32,0.67,0.32l-0.21,0.7h-8.42
				c-0.65,0-0.97-0.32-0.97-0.97c0-0.08,0.02-0.24,0.06-0.48l3.42-14.59h-2.09c-0.32,0-0.59,0.08-0.8,0.23
				c-0.21,0.15-0.36,0.35-0.44,0.59h-0.76l1.21-4.84c0.08-0.28,0.24-0.49,0.48-0.62c0.24-0.13,0.63-0.2,1.15-0.2H408.37z"/>
			<path class="st11" d="M418.09,554.85c-0.53,0-0.91-0.09-1.17-0.26c-0.25-0.17-0.4-0.47-0.44-0.89l-0.27-3.09h-3.51l-1.24,2.48
				c-0.02,0.06-0.03,0.11-0.03,0.15c0,0.04-0.01,0.12-0.03,0.24c0,0.18,0.09,0.34,0.26,0.47c0.17,0.13,0.37,0.2,0.59,0.2l-0.15,0.7
				h-6.57c-0.85,0-1.27-0.33-1.27-1c0-0.18,0.05-0.37,0.15-0.58l8.9-17.26c0.06-0.12,0.09-0.27,0.09-0.46c0-0.22-0.1-0.43-0.29-0.62
				c-0.19-0.19-0.4-0.29-0.62-0.29l0.18-0.7h9.02c0.46,0,0.86,0.13,1.18,0.38c0.32,0.25,0.48,0.61,0.48,1.08l1.39,17.68
				c0,0.26,0.14,0.5,0.43,0.73c0.28,0.22,0.57,0.33,0.88,0.33l-0.15,0.7H418.09z M414.49,546.56h1.73l-0.24-3.39L414.49,546.56z"/>
			<path class="st11" d="M424.6,535.84c-0.04-0.36-0.18-0.65-0.41-0.86c-0.23-0.21-0.49-0.32-0.77-0.32l0.15-0.7h8.45
				c0.26,0,0.51,0.13,0.76,0.4c0.24,0.26,0.36,0.54,0.36,0.85l0.24,7.93l2.97-6.93l0.12-0.48c0-0.24-0.09-0.48-0.26-0.71
				c-0.17-0.23-0.37-0.35-0.59-0.35l0.15-0.7h6.15c0.36,0,0.66,0.14,0.89,0.41c0.23,0.27,0.35,0.56,0.35,0.86l-0.12,0.61l-8.9,19.01
				h-5.66c-0.47,0-0.85-0.1-1.15-0.3s-0.49-0.47-0.55-0.82L424.6,535.84z"/>
			<path class="st11" d="M450.43,554.85c-0.53,0-0.91-0.09-1.17-0.26c-0.25-0.17-0.4-0.47-0.44-0.89l-0.27-3.09h-3.51l-1.24,2.48
				c-0.02,0.06-0.03,0.11-0.03,0.15c0,0.04-0.01,0.12-0.03,0.24c0,0.18,0.09,0.34,0.26,0.47c0.17,0.13,0.37,0.2,0.59,0.2l-0.15,0.7
				h-6.57c-0.85,0-1.27-0.33-1.27-1c0-0.18,0.05-0.37,0.15-0.58l8.9-17.26c0.06-0.12,0.09-0.27,0.09-0.46c0-0.22-0.1-0.43-0.29-0.62
				c-0.19-0.19-0.4-0.29-0.62-0.29l0.18-0.7h9.02c0.46,0,0.86,0.13,1.18,0.38c0.32,0.25,0.48,0.61,0.48,1.08l1.39,17.68
				c0,0.26,0.14,0.5,0.43,0.73c0.28,0.22,0.57,0.33,0.88,0.33l-0.15,0.7H450.43z M446.83,546.56h1.73l-0.24-3.39L446.83,546.56z"/>
			<path class="st11" d="M478.74,554.85h-5.51c-0.61,0-1.12-0.08-1.53-0.24c-0.41-0.16-0.68-0.45-0.8-0.88l-3.09-7.48l-1.76,6.75
				l-0.06,0.52c0,0.2,0.09,0.36,0.26,0.47c0.17,0.11,0.4,0.17,0.68,0.17l-0.15,0.7h-6.81c-0.34,0-0.6-0.1-0.77-0.29
				c-0.17-0.19-0.26-0.45-0.26-0.77c0-0.12,0.02-0.28,0.06-0.49l4.12-17.71c0.04-0.22-0.04-0.43-0.24-0.64
				c-0.2-0.2-0.42-0.3-0.67-0.3l0.18-0.7h7.69c0.24,0,0.52,0.12,0.83,0.35c0.31,0.23,0.52,0.48,0.62,0.74l3.27,7.63l1.45-6.54
				c0.04-0.12,0.06-0.31,0.06-0.58c0-0.24-0.1-0.45-0.3-0.64c-0.2-0.18-0.43-0.27-0.67-0.27l0.18-0.7h6.78
				c0.32,0,0.57,0.11,0.74,0.33c0.17,0.22,0.26,0.47,0.26,0.76l-0.09,0.82L478.74,554.85z"/>
			<path class="st11" d="M510.75,533.93c1.35,0,2.4,0.35,3.13,1.06c0.74,0.71,1.11,1.6,1.11,2.67c0,0.16-0.01,0.34-0.05,0.54
				c-0.03,0.2-0.05,0.35-0.07,0.46c-0.46,2.22-1.41,3.56-2.85,4.03c0.58,0.36,1.01,0.76,1.29,1.2c0.27,0.43,0.41,1.07,0.41,1.92
				c0,0.77-0.15,1.84-0.45,3.21c-0.53,2.28-1.33,3.85-2.42,4.69c-0.99,0.77-2.51,1.15-4.57,1.15h-12.02c-0.34,0-0.6-0.1-0.77-0.29
				c-0.17-0.19-0.26-0.45-0.26-0.77c0-0.12,0.02-0.28,0.06-0.49l4.12-17.71c0.04-0.22-0.04-0.43-0.24-0.64s-0.43-0.3-0.67-0.3
				l0.18-0.7L510.75,533.93z M503.63,550.16c0.55,0,0.92-0.13,1.14-0.38c0.21-0.25,0.42-0.82,0.62-1.71
				c0.14-0.57,0.21-1.03,0.21-1.39c0-0.69-0.37-1.03-1.12-1.03h-0.85l-1.03,4.51H503.63z M505.78,541.62c0.34,0,0.58-0.1,0.73-0.29
				c0.14-0.19,0.27-0.54,0.39-1.04c0.12-0.5,0.18-0.87,0.18-1.09c0-0.53-0.29-0.79-0.88-0.79h-0.91l-0.73,3.21H505.78z"/>
			<path class="st11" d="M529.1,533.96c1.78,0,3.24,0.46,4.39,1.38c1.15,0.92,1.73,2.22,1.73,3.89c0,0.61-0.07,1.19-0.21,1.76
				l-1.82,7.69c-0.52,2.28-1.43,3.91-2.72,4.87c-1.13,0.87-2.69,1.3-4.66,1.3h-6.21c-1.9,0-3.3-0.43-4.22-1.29
				c-0.92-0.86-1.38-2.13-1.38-3.8c0-0.99,0.13-2.02,0.39-3.09l1.33-5.72c0.53-2.2,1.28-3.85,2.27-4.93
				c1.27-1.37,3.06-2.06,5.36-2.06H529.1z M522.56,548.37c-0.06,0.28-0.09,0.52-0.09,0.73c0,0.5,0.28,0.76,0.85,0.76
				c0.38,0,0.67-0.09,0.86-0.26c0.19-0.17,0.34-0.48,0.44-0.92l2-8.51c0.04-0.24,0.06-0.4,0.06-0.49c0-0.58-0.29-0.88-0.88-0.88
				c-0.64,0-1.08,0.4-1.3,1.21L522.56,548.37z"/>
			<path class="st11" d="M545.51,545.8l0.06-0.39c0-0.18-0.12-0.27-0.36-0.27c-0.24,0-0.36-0.1-0.36-0.3l0.06-0.39l0.88-3.6h6.69
				c0.48,0,0.86,0.15,1.14,0.44c0.27,0.29,0.41,0.62,0.41,0.98c0,0.46-0.04,0.85-0.12,1.15l-1.6,7.11
				c-0.36,1.61-0.92,2.74-1.66,3.38c-0.75,0.63-2,0.95-3.75,0.95h-7.33c-2.04,0-3.5-0.39-4.39-1.18c-0.79-0.71-1.18-1.79-1.18-3.24
				c0-0.93,0.16-2.06,0.48-3.39l1.66-7.3c0.43-1.9,1.24-3.36,2.45-4.39c1.11-0.95,2.38-1.42,3.82-1.42h12.38
				c-0.06,0.61-0.17,1.22-0.33,1.85c-0.16,0.63-0.34,1.14-0.53,1.54s-0.49,0.7-0.88,0.88c-0.39,0.18-0.84,0.27-1.35,0.27h-5.11
				c-0.56,0-1,0.14-1.32,0.41c-0.31,0.27-0.54,0.72-0.68,1.35l-1.97,8.48c-0.04,0.28-0.06,0.46-0.06,0.55c0,0.5,0.31,0.76,0.94,0.76
				c0.71,0,1.14-0.37,1.3-1.12L545.51,545.8z"/>
			<path class="st11" d="M568.74,533.96c2.04,0,3.52,0.53,4.45,1.57c0.83,0.95,1.24,2.34,1.24,4.18c0,0.71-0.07,1.5-0.2,2.38
				c-0.13,0.88-0.32,1.8-0.56,2.77c-0.95,4.02-1.88,6.69-2.8,8.01c-0.92,1.32-2.25,1.98-4.01,1.98h-13.5c-0.34,0-0.6-0.1-0.77-0.29
				c-0.17-0.19-0.26-0.45-0.26-0.77c0-0.12,0.02-0.28,0.06-0.49l4.12-17.71c0.04-0.22-0.04-0.43-0.24-0.64s-0.43-0.3-0.67-0.3
				l0.18-0.7H568.74z M562.8,549.86c0.42,0,0.75-0.12,0.97-0.36c0.22-0.24,0.4-0.66,0.55-1.24l1.76-7.54
				c0.08-0.34,0.12-0.67,0.12-0.97c0-0.63-0.36-0.94-1.09-0.94h-0.76l-2.57,11.05H562.8z"/>
			<path class="st11" d="M596.23,545.8l0.06-0.39c0-0.18-0.12-0.27-0.36-0.27c-0.24,0-0.36-0.1-0.36-0.3l0.06-0.39l0.88-3.6h6.69
				c0.48,0,0.86,0.15,1.14,0.44c0.27,0.29,0.41,0.62,0.41,0.98c0,0.46-0.04,0.85-0.12,1.15l-1.6,7.11
				c-0.36,1.61-0.92,2.74-1.66,3.38c-0.75,0.63-2,0.95-3.75,0.95h-7.33c-2.04,0-3.5-0.39-4.39-1.18c-0.79-0.71-1.18-1.79-1.18-3.24
				c0-0.93,0.16-2.06,0.48-3.39l1.66-7.3c0.43-1.9,1.24-3.36,2.45-4.39c1.11-0.95,2.38-1.42,3.82-1.42h12.38
				c-0.06,0.61-0.17,1.22-0.33,1.85c-0.16,0.63-0.34,1.14-0.53,1.54s-0.49,0.7-0.88,0.88c-0.39,0.18-0.84,0.27-1.35,0.27h-5.11
				c-0.57,0-1,0.14-1.32,0.41c-0.31,0.27-0.54,0.72-0.68,1.35l-1.97,8.48c-0.04,0.28-0.06,0.46-0.06,0.55c0,0.5,0.31,0.76,0.94,0.76
				c0.71,0,1.14-0.37,1.3-1.12L596.23,545.8z"/>
			<path class="st11" d="M621.91,549.1c0.14,0.24,0.33,0.45,0.58,0.62c0.24,0.17,0.51,0.26,0.82,0.26h0.88l-0.73,3.45
				c-0.2,0.95-0.93,1.42-2.18,1.42h-4.06c-0.52,0-0.98-0.14-1.36-0.41c-0.38-0.27-0.63-0.61-0.73-1.01l-1.76-6.18l-1.3,5.9
				l-0.03,0.3c0,0.2,0.09,0.37,0.26,0.5c0.17,0.13,0.39,0.2,0.65,0.2l-0.15,0.7h-8.39c-0.34,0-0.6-0.1-0.77-0.29
				c-0.17-0.19-0.26-0.45-0.26-0.77c0-0.12,0.02-0.28,0.06-0.49l4.12-17.71c0.04-0.22-0.04-0.43-0.24-0.64s-0.43-0.3-0.67-0.3
				l0.18-0.7h14.02c3.15,0,4.72,1.46,4.72,4.39c0,0.4-0.02,0.76-0.06,1.06c-0.1,0.52-0.17,0.93-0.21,1.21c-0.4,1.82-0.94,3.15-1.6,4
				c-0.67,0.85-1.61,1.41-2.84,1.7L621.91,549.1z M614.55,542.41h1.18c0.69,0,1.16-0.57,1.42-1.73c0.04-0.22,0.08-0.44,0.12-0.65
				c0.04-0.21,0.06-0.39,0.06-0.53c0-0.57-0.24-0.85-0.73-0.85h-1.18L614.55,542.41z"/>
			<path class="st11" d="M639.56,533.96c1.78,0,3.24,0.46,4.39,1.38c1.15,0.92,1.73,2.22,1.73,3.89c0,0.61-0.07,1.19-0.21,1.76
				l-1.82,7.69c-0.52,2.28-1.43,3.91-2.72,4.87c-1.13,0.87-2.68,1.3-4.66,1.3h-6.21c-1.9,0-3.3-0.43-4.22-1.29
				c-0.92-0.86-1.38-2.13-1.38-3.8c0-0.99,0.13-2.02,0.39-3.09l1.33-5.72c0.53-2.2,1.28-3.85,2.27-4.93
				c1.27-1.37,3.06-2.06,5.36-2.06H639.56z M633.02,548.37c-0.06,0.28-0.09,0.52-0.09,0.73c0,0.5,0.28,0.76,0.85,0.76
				c0.38,0,0.67-0.09,0.86-0.26c0.19-0.17,0.34-0.48,0.44-0.92l2-8.51c0.04-0.24,0.06-0.4,0.06-0.49c0-0.58-0.29-0.88-0.88-0.88
				c-0.64,0-1.08,0.4-1.3,1.21L633.02,548.37z"/>
			<path class="st11" d="M653.46,548.56c-0.04,0.2-0.06,0.32-0.06,0.36c0,0.44,0.34,0.67,1.03,0.67c0.38,0,0.66-0.07,0.83-0.2
				c0.17-0.13,0.31-0.41,0.41-0.83l3-12.96c0.04-0.2-0.04-0.41-0.24-0.62s-0.41-0.32-0.64-0.32l0.15-0.7h8.42
				c0.34,0,0.59,0.09,0.74,0.26c0.15,0.17,0.23,0.42,0.23,0.74l-0.06,0.46l-3.06,13.26c-0.52,2.3-1.38,3.92-2.57,4.87
				c-1.07,0.85-2.57,1.27-4.51,1.27h-6.93c-1.84,0-3.18-0.41-4.04-1.23c-0.86-0.82-1.29-2.02-1.29-3.62c0-0.97,0.15-2.08,0.45-3.33
				l2.57-11.05c0.04-0.2-0.04-0.41-0.24-0.62c-0.2-0.21-0.41-0.32-0.64-0.32l0.15-0.7h8.42c0.34,0,0.59,0.09,0.74,0.26
				c0.15,0.17,0.23,0.42,0.23,0.74l-0.06,0.46L653.46,548.56z"/>
			<path class="st11" d="M681.23,533.96c1.86,0,3.26,0.37,4.21,1.12c0.95,0.75,1.42,1.93,1.42,3.54c0,0.44-0.02,0.85-0.06,1.21
				c-0.04,0.36-0.13,0.82-0.27,1.36c-0.65,2.78-1.37,4.63-2.18,5.52c-0.81,0.9-2.13,1.35-3.97,1.35h-6.24l-1.12,4.75l-0.09,0.58
				c0,0.22,0.09,0.4,0.27,0.54c0.18,0.14,0.39,0.21,0.64,0.21l-0.18,0.7h-8.36c-0.34,0-0.6-0.1-0.77-0.29
				c-0.17-0.19-0.26-0.45-0.26-0.77c0-0.12,0.02-0.28,0.06-0.49l4.12-17.71c0.04-0.22-0.04-0.43-0.24-0.64s-0.42-0.3-0.67-0.3
				l0.18-0.7H681.23z M675.29,543.23h0.94c0.5,0,0.88-0.16,1.12-0.47c0.24-0.31,0.46-0.91,0.67-1.8c0.12-0.52,0.18-0.94,0.18-1.24
				c0-0.4-0.09-0.68-0.26-0.83c-0.17-0.15-0.43-0.23-0.77-0.23h-0.82L675.29,543.23z"/>
		</g>
	</g>
	<g>
		<path class="st138" d="M204.23,717.57l14.14-15.64l-8.38-15.3h4.36l3.82,7.01c1.37,2.5,2.33,4.4,2.89,5.7
			c0.97-1.36,2.51-3.21,4.62-5.55l6.51-7.15h5.17l-14.32,15.99l8.11,14.96l-4.3-0.01l-4.8-9.06c-0.46-0.88-1-2.02-1.63-3.41
			c-0.68,0.94-1.57,2.03-2.68,3.27l-8.26,9.2H204.23L204.23,717.57z M248.91,714.78c-2.34,2.2-4.81,3.29-7.39,3.29
			c-1.92,0-3.51-0.59-4.76-1.77c-1.25-1.18-1.87-2.74-1.87-4.68c0-2.31,0.81-4.09,2.43-5.35c1.67-1.29,4.11-1.94,7.32-1.94
			l1.94-0.09c0.92,0,1.74-0.06,2.45-0.2c0.72-0.13,1.32-0.31,1.79-0.53c0.28-1.04,0.43-1.94,0.43-2.7c0-0.89-0.39-1.61-1.18-2.18
			c-0.79-0.57-1.94-0.86-3.45-0.86c-3.02,0-4.99,1.36-5.92,4.09l-3.7-0.34c1.53-4.59,4.79-6.88,9.78-6.88c2.4,0,4.34,0.53,5.84,1.61
			c1.5,1.07,2.24,2.47,2.24,4.22c0,1.2-0.17,2.58-0.5,4.16l-1.19,5.57c-0.19,0.96-0.33,1.77-0.43,2.43
			c-0.1,0.66-0.14,1.28-0.14,1.84c0,1,0.15,2.04,0.45,3.1h-3.7c-0.12-0.4-0.22-0.83-0.3-1.31
			C248.95,715.78,248.91,715.28,248.91,714.78L248.91,714.78z M250.26,706.21c-0.87,0.33-2.05,0.58-3.53,0.74l-2.1,0.21
			c-1.19,0-2.22,0.15-3.11,0.45c-0.79,0.25-1.39,0.61-1.82,1.05c-0.78,0.78-1.17,1.71-1.17,2.79c0,1.06,0.36,1.93,1.08,2.63
			c0.72,0.7,1.7,1.04,2.94,1.04c1.75,0,3.34-0.64,4.78-1.92C248.76,711.92,249.74,709.59,250.26,706.21L250.26,706.21z
			 M261.96,695.15h5.43l2.02,17.88l9.96-17.88h5.33l-4.59,22.41h-3.62l3.74-18.07l-10.06,18.07h-3.25l-2.12-18.76l-3.83,18.76h-3.62
			L261.96,695.15L261.96,695.15z M285.72,717.57l4.48-22.41h3.66l-0.75,3.69c2.28-2.8,4.63-4.2,7.07-4.2c1.41,0,2.56,0.35,3.43,1.06
			c0.83,0.66,1.41,1.71,1.74,3.14c1.06-1.38,2.21-2.42,3.43-3.13c1.23-0.71,2.5-1.07,3.82-1.07c1.77,0,3.1,0.43,4.01,1.28
			c0.91,0.85,1.37,2.13,1.37,3.81c0,0.74-0.16,1.87-0.47,3.4l-2.89,14.44h-3.65l2.95-14.82c0.12-0.62,0.21-1.14,0.28-1.56
			c0.07-0.43,0.1-0.77,0.1-1.04c0-0.79-0.21-1.38-0.63-1.77c-0.43-0.4-1.06-0.59-1.91-0.59c-1.24,0-2.45,0.42-3.64,1.25
			c-1.19,0.84-2.05,1.84-2.61,2.99c-0.48,1.1-0.94,2.65-1.37,4.66l-2.19,10.87h-3.65l3.03-15.14c0.21-1.08,0.32-1.82,0.32-2.19
			c0-0.76-0.24-1.36-0.69-1.79c-0.45-0.44-1.02-0.66-1.68-0.66c-0.62,0-1.23,0.11-1.83,0.32c-0.6,0.21-1.21,0.54-1.83,0.99
			c-1.19,0.86-2.1,1.92-2.7,3.21c-0.55,1.2-1.04,2.75-1.44,4.66l-2.12,10.6H285.72L285.72,717.57z M345.96,695.15h3.7l-4.64,22.41
			h-3.68L345.96,695.15L345.96,695.15z M324.81,695.15h3.65l-1.83,8.67h3.9c2.48,0,4.24,0.19,5.3,0.57
			c1.06,0.38,1.89,1.07,2.51,2.08c0.62,1.01,0.93,2.12,0.93,3.36c0,0.75-0.1,1.47-0.3,2.18c-0.2,0.71-0.52,1.41-0.95,2.11
			c-0.81,1.35-1.82,2.26-3.04,2.74c-1.21,0.47-3.1,0.71-5.67,0.71h-9.13L324.81,695.15L324.81,695.15z M324.42,714.52h4.66
			c1.8,0,3.08-0.13,3.84-0.38c0.76-0.25,1.4-0.71,1.91-1.39c0.51-0.68,0.77-1.48,0.77-2.43c0-0.86-0.23-1.58-0.67-2.17
			c-0.46-0.58-0.97-0.94-1.57-1.07c-0.27-0.06-0.69-0.1-1.25-0.14c-0.56-0.04-1.21-0.06-1.97-0.06h-4.16L324.42,714.52
			L324.42,714.52z M355.21,695.15h3.62l-1.94,9.34h9.96l1.89-9.34h3.57l-4.52,22.41h-3.64l2.08-10.03h-9.92l-2.08,10.03h-3.61
			L355.21,695.15L355.21,695.15z M383.47,717.57l9.34-11.38l-5.36-11.04h4.04l1.82,3.98c0.78,1.77,1.39,3.21,1.81,4.29l6.18-8.27
			h4.46l-9.01,11.33l5.41,11.08l-4.05,0.01l-2.14-4.57c-0.27-0.59-0.52-1.15-0.75-1.66c-0.17-0.38-0.43-1.03-0.81-1.94l-6.38,8.17
			H383.47L383.47,717.57z M411.03,717.57l-3.54-22.41h3.54l1.86,12.34c0.19,1.24,0.44,3.44,0.74,6.61c0.7-1.62,1.59-3.44,2.68-5.48
			l7.18-13.48h3.86l-12.28,22.41l-2.54,8.86l-3.7,0.09L411.03,717.57L411.03,717.57z M429.6,695.15h3.59l-0.77,3.75
			c-0.49,2.36-0.73,4.03-0.73,5c0,0.97,0.36,1.71,1.07,2.22c0.72,0.5,1.79,0.76,3.21,0.76c1.72,0,3.32-0.32,4.81-0.94l2.21-10.78
			h3.63l-4.56,22.41h-3.65l1.76-8.59c-1.82,0.63-3.52,0.94-5.1,0.94c-2.16,0-3.88-0.48-5.14-1.46c-1.26-0.97-1.89-2.35-1.89-4.14
			c0-0.75,0.32-2.82,0.97-6.22L429.6,695.15L429.6,695.15z M459.53,708.28l0.77-3.82h11.15l-0.75,3.82H459.53L459.53,708.28z
			 M482.28,717.57l16.78-30.94h4.67l4.89,30.94h-3.85l-1.43-8.9h-11.97l-4.75,8.91L482.28,717.57L482.28,717.57z M493.05,705.48h9.8
			l-1.14-7.77c-0.26-1.87-0.46-3.31-0.58-4.3c-0.17-1.37-0.24-2.5-0.24-3.4c-0.69,1.82-1.68,3.92-2.95,6.31L493.05,705.48
			L493.05,705.48z M516.64,695.15h5.43l2.02,17.88l9.96-17.88h5.33l-4.58,22.41h-3.62l3.74-18.07l-10.06,18.07h-3.25l-2.12-18.76
			l-3.83,18.76h-3.62L516.64,695.15L516.64,695.15z M554.65,695.15h3.56l-1.99,9.57l0.28,0.03c0.77,0,1.5-0.34,2.2-1.02
			c0.69-0.68,1.58-1.95,2.66-3.81c1.17-2.01,2.23-3.31,3.19-3.89c0.96-0.58,1.94-0.88,2.97-0.88c0.71,0,1.46,0.13,2.26,0.38
			l-0.83,2.28c-0.49-0.19-0.89-0.3-1.21-0.3c-0.61,0-1.14,0.22-1.6,0.66c-0.45,0.44-1.04,1.34-1.75,2.69c-1.48,2.79-3.15,4.5-5,5.16
			c0.65,0.24,1.26,0.63,1.83,1.16c0.58,0.53,1.17,1.61,1.79,3.23l2.69,7.15h-3.77l-2.12-5.7c-0.64-1.77-1.23-2.97-1.77-3.59
			c-0.54-0.63-1.3-1.02-2.28-1.2l-2.19,10.49h-3.59l2.16-10.49c-0.37,0-0.72,0.06-1.05,0.17c-0.32,0.12-0.67,0.29-1.03,0.53
			c-0.65,0.43-1.75,1.69-3.27,3.78l-4.43,6.01l-4.43,0.01l5.67-7.47c1.65-2.18,3.43-3.54,5.33-4.07c-0.82-0.54-1.43-1.18-1.81-1.92
			c-0.39-0.75-0.77-2.12-1.13-4.11c-0.17-0.97-0.37-1.63-0.6-1.97c-0.23-0.34-0.58-0.5-1.04-0.5c-0.34,0-0.86,0.1-1.55,0.3
			l0.24-2.43c0.3-0.07,0.61-0.12,0.94-0.17c0.32-0.04,0.65-0.06,0.96-0.06c1.28,0,2.19,0.37,2.74,1.12
			c0.55,0.68,1.03,1.98,1.42,3.88c0.4,1.9,0.83,3.13,1.29,3.73c0.47,0.58,1.21,0.87,2.23,0.87L554.65,695.15L554.65,695.15z
			 M583.53,713.51c-2.57,3.04-5.18,4.56-7.82,4.56c-1.61,0-2.95-0.48-4.02-1.43c-1.06-0.95-1.59-2.16-1.59-3.64
			c0-1.02,0.23-2.65,0.68-4.92l2.59-12.93h3.66l-2.87,14.33c-0.24,1.18-0.37,2.13-0.37,2.82c0,0.86,0.24,1.52,0.72,1.98
			c0.5,0.44,1.22,0.66,2.16,0.66c1.4,0,2.73-0.47,3.99-1.41c1.26-0.94,2.18-2.07,2.77-3.38c0.55-1.25,1.07-3.02,1.54-5.32l1.94-9.68
			h3.65l-4.48,22.41h-3.37L583.53,713.51L583.53,713.51z M598.01,695.15h16.16l-4.57,22.41h-3.63l4-19.23h-9.01l-2.77,13.36
			c-0.47,2.29-1.1,3.89-1.9,4.8c-0.79,0.91-1.9,1.36-3.3,1.36c-0.43,0-0.9-0.02-1.4-0.06c-0.51-0.04-1.11-0.12-1.81-0.23l0.67-3.16
			l1.54,0.06c0.92,0,1.53-0.23,1.81-0.7c0.28-0.46,0.7-1.95,1.26-4.47L598.01,695.15L598.01,695.15z M615.2,717.57l4.48-22.41h3.66
			l-0.75,3.69c2.28-2.8,4.63-4.2,7.07-4.2c1.41,0,2.56,0.35,3.43,1.06c0.83,0.66,1.41,1.71,1.74,3.14c1.06-1.38,2.21-2.42,3.43-3.13
			c1.23-0.71,2.5-1.07,3.82-1.07c1.77,0,3.1,0.43,4.01,1.28c0.91,0.85,1.36,2.13,1.36,3.81c0,0.74-0.16,1.87-0.47,3.4l-2.9,14.44
			h-3.65l2.95-14.82c0.12-0.62,0.21-1.14,0.28-1.56c0.07-0.43,0.1-0.77,0.1-1.04c0-0.79-0.21-1.38-0.63-1.77
			c-0.43-0.4-1.06-0.59-1.91-0.59c-1.24,0-2.45,0.42-3.64,1.25c-1.19,0.84-2.05,1.84-2.61,2.99c-0.48,1.1-0.94,2.65-1.37,4.66
			l-2.19,10.87h-3.65l3.03-15.14c0.21-1.08,0.32-1.82,0.32-2.19c0-0.76-0.23-1.36-0.69-1.79c-0.45-0.44-1.02-0.66-1.68-0.66
			c-0.62,0-1.23,0.11-1.83,0.32c-0.6,0.21-1.21,0.54-1.83,0.99c-1.19,0.86-2.1,1.92-2.7,3.21c-0.55,1.2-1.03,2.75-1.43,4.66
			l-2.12,10.6H615.2L615.2,717.57z M675.43,695.15h3.7l-4.64,22.41h-3.68L675.43,695.15L675.43,695.15z M654.29,695.15h3.65
			l-1.83,8.67h3.9c2.48,0,4.24,0.19,5.3,0.57c1.06,0.38,1.89,1.07,2.51,2.08c0.62,1.01,0.93,2.12,0.93,3.36
			c0,0.75-0.1,1.47-0.3,2.18c-0.2,0.71-0.52,1.41-0.95,2.11c-0.81,1.35-1.82,2.26-3.04,2.74c-1.21,0.47-3.1,0.71-5.67,0.71h-9.13
			L654.29,695.15L654.29,695.15z M653.9,714.52h4.66c1.8,0,3.08-0.13,3.84-0.38c0.76-0.25,1.4-0.71,1.91-1.39
			c0.51-0.68,0.77-1.48,0.77-2.43c0-0.86-0.23-1.58-0.68-2.17c-0.46-0.58-0.97-0.94-1.57-1.07c-0.27-0.06-0.69-0.1-1.25-0.14
			c-0.56-0.04-1.21-0.06-1.97-0.06h-4.16L653.9,714.52L653.9,714.52z M684.69,695.15h3.62l-1.94,9.34h9.96l1.89-9.34h3.57
			l-4.52,22.41h-3.64l2.08-10.03h-9.92l-2.08,10.03h-3.61L684.69,695.15L684.69,695.15z M714.36,717.57l4.48-22.41h3.66l-0.75,3.69
			c2.28-2.8,4.63-4.2,7.07-4.2c1.41,0,2.56,0.35,3.43,1.06c0.83,0.66,1.41,1.71,1.74,3.14c1.06-1.38,2.21-2.42,3.43-3.13
			c1.23-0.71,2.5-1.07,3.82-1.07c1.77,0,3.1,0.43,4.01,1.28c0.91,0.85,1.36,2.13,1.36,3.81c0,0.74-0.16,1.87-0.47,3.4l-2.9,14.44
			h-3.65l2.95-14.82c0.12-0.62,0.21-1.14,0.28-1.56c0.07-0.43,0.1-0.77,0.1-1.04c0-0.79-0.21-1.38-0.63-1.77
			c-0.43-0.4-1.06-0.59-1.91-0.59c-1.24,0-2.45,0.42-3.64,1.25c-1.19,0.84-2.05,1.84-2.61,2.99c-0.48,1.1-0.94,2.65-1.37,4.66
			l-2.19,10.87h-3.65l3.03-15.14c0.21-1.08,0.32-1.82,0.32-2.19c0-0.76-0.24-1.36-0.69-1.79c-0.46-0.44-1.02-0.66-1.68-0.66
			c-0.62,0-1.23,0.11-1.83,0.32c-0.6,0.21-1.21,0.54-1.83,0.99c-1.19,0.86-2.1,1.92-2.7,3.21c-0.55,1.2-1.03,2.75-1.43,4.66
			l-2.12,10.6H714.36L714.36,717.57z M754.28,717.57l-3.54-22.41h3.54l1.86,12.34c0.19,1.24,0.44,3.44,0.74,6.61
			c0.7-1.62,1.59-3.44,2.68-5.48l7.18-13.48h3.86l-12.28,22.41l-2.54,8.86l-3.7,0.09L754.28,717.57L754.28,717.57z M775.66,695.15
			h16.16l-4.56,22.41h-3.63l4-19.23h-9.01l-2.77,13.36c-0.47,2.29-1.1,3.89-1.9,4.8c-0.79,0.91-1.9,1.36-3.3,1.36
			c-0.43,0-0.9-0.02-1.4-0.06c-0.51-0.04-1.11-0.12-1.81-0.23l0.67-3.16l1.54,0.06c0.92,0,1.53-0.23,1.81-0.7
			c0.28-0.46,0.7-1.95,1.26-4.47L775.66,695.15L775.66,695.15z M791.43,717.57l9.34-11.38l-5.36-11.04h4.04l1.82,3.98
			c0.78,1.77,1.39,3.21,1.81,4.29l6.19-8.27h4.46l-9.01,11.33l5.41,11.08l-4.05,0.01l-2.14-4.57c-0.27-0.59-0.52-1.15-0.74-1.66
			c-0.17-0.38-0.43-1.03-0.81-1.94l-6.39,8.17H791.43L791.43,717.57z M818.99,717.57l-3.54-22.41h3.54l1.86,12.34
			c0.19,1.24,0.44,3.44,0.74,6.61c0.7-1.62,1.59-3.44,2.68-5.48l7.18-13.48h3.86l-12.28,22.41l-2.54,8.86l-3.7,0.09L818.99,717.57
			L818.99,717.57z M839.67,717.57l-3.54-22.41h3.54l1.86,12.34c0.19,1.24,0.44,3.44,0.74,6.61c0.7-1.62,1.59-3.44,2.68-5.48
			l7.18-13.48h3.86l-12.28,22.41l-2.54,8.86l-3.7,0.09L839.67,717.57L839.67,717.57z M853.21,726.15l6.2-31h3.38l-0.63,3.12
			c2.15-2.42,4.33-3.63,6.52-3.63c2.02,0,3.7,0.78,5.06,2.36c1.35,1.56,2.03,3.8,2.03,6.68c0,3.94-1.05,7.33-3.17,10.15
			c-2.12,2.83-4.56,4.24-7.35,4.24c-2.55,0-4.54-1.36-5.96-4.09l-2.41,12.18H853.21L853.21,726.15z M860.4,709.16
			c0,1.93,0.45,3.38,1.37,4.34c0.92,0.97,2.03,1.45,3.35,1.45c2.12,0,3.81-1.26,5.1-3.78c1.28-2.52,1.92-5.06,1.92-7.62
			c0-1.52-0.39-2.87-1.15-4.05c-0.77-1.18-1.89-1.77-3.37-1.77c-2.06,0-3.78,1.21-5.15,3.64
			C861.09,703.79,860.4,706.39,860.4,709.16L860.4,709.16z"/>
	</g>
	<g>
		
			<linearGradient id="SVGID_00000054977153946702742660000013438935004750375824_" gradientUnits="userSpaceOnUse" x1="89.7477" y1="598.558" x2="89.7477" y2="680.6359">
			<stop  offset="0" style="stop-color:#3E76BB"/>
			<stop  offset="0.9672" style="stop-color:#06509E"/>
		</linearGradient>
		<path style="fill:url(#SVGID_00000054977153946702742660000013438935004750375824_);" d="M110.25,607.58c1.02,0,2-0.21,2.96-0.62
			c0.95-0.41,1.56-1,1.81-1.77h2.19l-3.81,14.59c-0.63,2.04-2.51,3.05-5.63,3.05h-5.63l-10.68,45.4c-0.13,0.63,0.16,1.29,0.86,1.95
			c0.7,0.67,1.4,1,2.1,1l-0.67,2.19H67.24c-2.04,0-3.05-1.02-3.05-3.05c0-0.25,0.06-0.76,0.19-1.53l10.78-45.97h-6.58
			c-1.02,0-1.86,0.24-2.53,0.72c-0.67,0.48-1.13,1.1-1.38,1.86h-2.38l3.81-15.26c0.25-0.89,0.76-1.54,1.53-1.95
			c0.76-0.41,1.97-0.62,3.63-0.62H110.25z"/>
		
			<linearGradient id="SVGID_00000116917004808607397700000013520785550284188861_" gradientUnits="userSpaceOnUse" x1="129.6893" y1="598.558" x2="129.6893" y2="680.6359">
			<stop  offset="0" style="stop-color:#3E76BB"/>
			<stop  offset="0.9672" style="stop-color:#06509E"/>
		</linearGradient>
		<path style="fill:url(#SVGID_00000116917004808607397700000013520785550284188861_);" d="M138.94,673.38
			c-1.65,0-2.88-0.27-3.67-0.81c-0.79-0.54-1.26-1.48-1.38-2.81l-0.86-9.73h-11.07l-3.91,7.82c-0.06,0.19-0.09,0.35-0.09,0.48
			c0,0.13-0.03,0.38-0.09,0.76c0,0.57,0.27,1.06,0.81,1.48c0.54,0.41,1.16,0.62,1.86,0.62l-0.48,2.19h-20.7c-2.67,0-4-1.05-4-3.15
			c0-0.57,0.16-1.18,0.48-1.81l28.04-54.36c0.19-0.38,0.28-0.86,0.28-1.43c0-0.7-0.3-1.35-0.9-1.95c-0.6-0.6-1.26-0.91-1.95-0.91
			l0.57-2.19h28.42c1.46,0,2.7,0.4,3.72,1.19c1.02,0.79,1.53,1.92,1.53,3.38l4.39,55.69c0,0.83,0.45,1.59,1.34,2.29
			c0.89,0.7,1.81,1.05,2.76,1.05l-0.48,2.19H138.94z M127.59,647.25h5.44l-0.76-10.68L127.59,647.25z"/>
		
			<linearGradient id="SVGID_00000068678769994958587580000016232005272686950580_" gradientUnits="userSpaceOnUse" x1="186.7866" y1="598.558" x2="186.7866" y2="680.6359">
			<stop  offset="0" style="stop-color:#3E76BB"/>
			<stop  offset="0.9672" style="stop-color:#06509E"/>
		</linearGradient>
		<path style="fill:url(#SVGID_00000068678769994958587580000016232005272686950580_);" d="M159.42,613.49
			c-0.13-1.14-0.56-2.05-1.29-2.72c-0.73-0.67-1.54-1-2.43-1l0.48-2.19h26.61c0.83,0,1.62,0.41,2.38,1.24s1.14,1.72,1.14,2.67
			l0.76,24.98l9.35-21.84l0.38-1.53c0-0.76-0.27-1.51-0.81-2.24c-0.54-0.73-1.16-1.1-1.86-1.1l0.48-2.19h19.36
			c1.14,0,2.08,0.43,2.81,1.29c0.73,0.86,1.1,1.76,1.1,2.72l-0.38,1.91l-28.04,59.89h-17.83c-1.46,0-2.67-0.32-3.63-0.96
			c-0.95-0.63-1.53-1.49-1.72-2.57L159.42,613.49z"/>
		
			<linearGradient id="SVGID_00000145018245455895152690000013136853299991296926_" gradientUnits="userSpaceOnUse" x1="231.4936" y1="598.558" x2="231.4936" y2="680.6359">
			<stop  offset="0" style="stop-color:#3E76BB"/>
			<stop  offset="0.9672" style="stop-color:#06509E"/>
		</linearGradient>
		<path style="fill:url(#SVGID_00000145018245455895152690000013136853299991296926_);" d="M240.74,673.38
			c-1.65,0-2.88-0.27-3.67-0.81c-0.79-0.54-1.26-1.48-1.38-2.81l-0.86-9.73h-11.06l-3.91,7.82c-0.06,0.19-0.09,0.35-0.09,0.48
			c0,0.13-0.03,0.38-0.09,0.76c0,0.57,0.27,1.06,0.81,1.48c0.54,0.41,1.16,0.62,1.86,0.62l-0.48,2.19h-20.69c-2.67,0-4-1.05-4-3.15
			c0-0.57,0.16-1.18,0.48-1.81l28.04-54.36c0.19-0.38,0.29-0.86,0.29-1.43c0-0.7-0.3-1.35-0.9-1.95c-0.6-0.6-1.26-0.91-1.95-0.91
			l0.57-2.19h28.42c1.46,0,2.7,0.4,3.72,1.19c1.02,0.79,1.53,1.92,1.53,3.38l4.39,55.69c0,0.83,0.45,1.59,1.33,2.29
			c0.89,0.7,1.81,1.05,2.77,1.05l-0.48,2.19H240.74z M229.39,647.25h5.44l-0.76-10.68L229.39,647.25z"/>
		
			<linearGradient id="SVGID_00000071555975615473258120000006006643759088142723_" gradientUnits="userSpaceOnUse" x1="302.0825" y1="598.558" x2="302.0825" y2="680.6359">
			<stop  offset="0" style="stop-color:#3E76BB"/>
			<stop  offset="0.9672" style="stop-color:#06509E"/>
		</linearGradient>
		<path style="fill:url(#SVGID_00000071555975615473258120000006006643759088142723_);" d="M326.07,673.38h-17.36
			c-1.9,0-3.51-0.25-4.81-0.76s-2.15-1.43-2.53-2.76l-9.73-23.56l-5.53,21.27l-0.19,1.62c0,0.63,0.27,1.13,0.81,1.48
			c0.54,0.35,1.26,0.52,2.14,0.52l-0.48,2.19h-21.46c-1.08,0-1.89-0.3-2.43-0.9c-0.54-0.6-0.81-1.41-0.81-2.43
			c0-0.38,0.06-0.89,0.19-1.53l12.97-55.79c0.13-0.7-0.13-1.37-0.76-2c-0.63-0.64-1.33-0.96-2.1-0.96l0.57-2.19h24.22
			c0.76,0,1.64,0.37,2.62,1.1c0.99,0.73,1.64,1.51,1.95,2.34l10.3,24.03l4.58-20.6c0.13-0.38,0.19-0.98,0.19-1.81
			c0-0.76-0.32-1.43-0.95-2c-0.64-0.57-1.34-0.86-2.1-0.86l0.57-2.19h21.36c1.02,0,1.8,0.35,2.34,1.05c0.54,0.7,0.81,1.5,0.81,2.39
			l-0.29,2.57L326.07,673.38z"/>
		
			<linearGradient id="SVGID_00000070092572188605978140000001730268153560445343_" gradientUnits="userSpaceOnUse" x1="394.4479" y1="598.558" x2="394.4479" y2="680.6359">
			<stop  offset="0" style="stop-color:#3E76BB"/>
			<stop  offset="0.9672" style="stop-color:#06509E"/>
		</linearGradient>
		<path style="fill:url(#SVGID_00000070092572188605978140000001730268153560445343_);" d="M415.38,607.48
			c4.26,0,7.55,1.11,9.87,3.34c2.32,2.22,3.48,5.02,3.48,8.39c0,0.51-0.05,1.08-0.14,1.72c-0.09,0.63-0.17,1.11-0.24,1.43
			c-1.46,6.99-4.45,11.22-8.97,12.68c1.84,1.15,3.2,2.4,4.05,3.77s1.29,3.39,1.29,6.06c0,2.42-0.48,5.79-1.43,10.11
			c-1.65,7.18-4.2,12.11-7.63,14.78c-3.12,2.41-7.92,3.62-14.4,3.62h-37.86c-1.08,0-1.89-0.3-2.43-0.9
			c-0.54-0.6-0.81-1.41-0.81-2.43c0-0.38,0.06-0.89,0.19-1.53l12.97-55.79c0.13-0.7-0.13-1.37-0.76-2c-0.63-0.64-1.33-0.96-2.1-0.96
			l0.57-2.19L415.38,607.48z M392.97,658.6c1.72,0,2.91-0.4,3.58-1.19c0.67-0.79,1.32-2.59,1.95-5.39c0.45-1.78,0.67-3.24,0.67-4.39
			c0-2.16-1.18-3.24-3.53-3.24h-2.67l-3.24,14.21H392.97z M399.74,631.71c1.08,0,1.84-0.3,2.29-0.91c0.45-0.6,0.86-1.7,1.24-3.29
			c0.38-1.59,0.57-2.73,0.57-3.43c0-1.65-0.92-2.48-2.76-2.48h-2.86l-2.29,10.11H399.74z"/>
		
			<linearGradient id="SVGID_00000024681523628338091150000003309176019747583154_" gradientUnits="userSpaceOnUse" x1="460.8896" y1="598.558" x2="460.8896" y2="680.6359">
			<stop  offset="0" style="stop-color:#3E76BB"/>
			<stop  offset="0.9672" style="stop-color:#06509E"/>
		</linearGradient>
		<path style="fill:url(#SVGID_00000024681523628338091150000003309176019747583154_);" d="M475.05,607.58
			c5.59,0,10.2,1.45,13.83,4.34c3.62,2.89,5.44,6.98,5.44,12.25c0,1.91-0.22,3.75-0.67,5.53l-5.72,24.22
			c-1.65,7.18-4.51,12.3-8.58,15.35c-3.56,2.73-8.46,4.1-14.69,4.1h-19.55c-5.98,0-10.41-1.35-13.3-4.05
			c-2.89-2.7-4.34-6.69-4.34-11.97c0-3.12,0.41-6.36,1.24-9.73l4.2-18.03c1.65-6.93,4.04-12.11,7.15-15.54
			c4-4.32,9.63-6.49,16.88-6.49H475.05z M454.45,652.97c-0.19,0.89-0.29,1.65-0.29,2.29c0,1.59,0.89,2.38,2.67,2.38
			c1.21,0,2.11-0.27,2.72-0.81c0.6-0.54,1.06-1.51,1.38-2.91l6.3-26.8c0.13-0.76,0.19-1.27,0.19-1.53c0-1.84-0.92-2.77-2.77-2.77
			c-2.03,0-3.4,1.27-4.1,3.81L454.45,652.97z"/>
		
			<linearGradient id="SVGID_00000039828338271787922770000002554452734453232015_" gradientUnits="userSpaceOnUse" x1="525.0397" y1="598.558" x2="525.0397" y2="680.6359">
			<stop  offset="0" style="stop-color:#3E76BB"/>
			<stop  offset="0.9672" style="stop-color:#06509E"/>
		</linearGradient>
		<path style="fill:url(#SVGID_00000039828338271787922770000002554452734453232015_);" d="M528.61,644.87l0.19-1.24
			c0-0.57-0.38-0.86-1.14-0.86c-0.76,0-1.14-0.32-1.14-0.96l0.19-1.24l2.77-11.35h21.07c1.53,0,2.72,0.46,3.58,1.38
			c0.86,0.92,1.29,1.95,1.29,3.1c0,1.46-0.13,2.67-0.38,3.62l-5.06,22.41c-1.14,5.09-2.89,8.63-5.24,10.63c-2.35,2-6.3,3-11.83,3
			h-23.08c-6.42,0-11.03-1.24-13.83-3.72c-2.48-2.22-3.72-5.63-3.72-10.2c0-2.92,0.51-6.48,1.53-10.68l5.25-22.98
			c1.33-5.98,3.91-10.59,7.72-13.83c3.5-2.99,7.5-4.48,12.02-4.48h39c-0.19,1.91-0.54,3.85-1.05,5.82
			c-0.51,1.97-1.06,3.59-1.67,4.86c-0.61,1.27-1.53,2.19-2.77,2.77c-1.24,0.57-2.66,0.86-4.24,0.86h-16.12
			c-1.78,0-3.16,0.43-4.15,1.29c-0.99,0.86-1.7,2.27-2.14,4.24l-6.2,26.7c-0.13,0.89-0.19,1.46-0.19,1.72
			c0,1.59,0.99,2.38,2.95,2.38c2.23,0,3.59-1.17,4.1-3.53L528.61,644.87z"/>
		
			<linearGradient id="SVGID_00000086671510078782648810000016210829489819662486_" gradientUnits="userSpaceOnUse" x1="586.7632" y1="598.558" x2="586.7632" y2="680.6359">
			<stop  offset="0" style="stop-color:#3E76BB"/>
			<stop  offset="0.9672" style="stop-color:#06509E"/>
		</linearGradient>
		<path style="fill:url(#SVGID_00000086671510078782648810000016210829489819662486_);" d="M603.64,607.58
			c6.42,0,11.09,1.65,14.02,4.96c2.61,2.99,3.91,7.37,3.91,13.16c0,2.22-0.21,4.72-0.62,7.49c-0.41,2.76-1,5.67-1.76,8.72
			c-2.99,12.65-5.93,21.06-8.82,25.23c-2.9,4.16-7.11,6.25-12.64,6.25H555.2c-1.08,0-1.89-0.3-2.43-0.9
			c-0.54-0.6-0.81-1.41-0.81-2.43c0-0.38,0.06-0.89,0.19-1.53l12.97-55.79c0.13-0.7-0.13-1.37-0.76-2c-0.63-0.64-1.34-0.96-2.1-0.96
			l0.57-2.19H603.64z M584.95,657.65c1.34,0,2.35-0.38,3.05-1.14c0.7-0.76,1.27-2.07,1.72-3.91l5.53-23.74
			c0.26-1.08,0.38-2.1,0.38-3.05c0-1.97-1.15-2.96-3.44-2.96h-2.38l-8.1,34.81H584.95z"/>
		
			<linearGradient id="SVGID_00000157990265043018603190000011019442636894052999_" gradientUnits="userSpaceOnUse" x1="664.1599" y1="598.558" x2="664.1599" y2="680.6359">
			<stop  offset="0" style="stop-color:#3E76BB"/>
			<stop  offset="0.9672" style="stop-color:#06509E"/>
		</linearGradient>
		<path style="fill:url(#SVGID_00000157990265043018603190000011019442636894052999_);" d="M675.6,612.73l0.38-1.24
			c0-0.45-0.18-0.84-0.52-1.19c-0.35-0.35-0.85-0.53-1.48-0.53l0.48-2.19h21.17c1.01,0,1.85,0.37,2.52,1.1c0.67,0.73,1,1.54,1,2.43
			c0,0.95-0.28,1.75-0.86,2.38l-20.41,23.56l14.02,31.18c0.45,0.95,1.17,1.68,2.19,2.19c1.01,0.51,1.97,0.76,2.86,0.76l-0.47,2.19
			h-27.18c-0.89,0-1.72-0.32-2.48-0.96c-0.76-0.63-1.28-1.43-1.53-2.38l-4.2-12.21l-7.15,9.25c-0.32,0.38-0.48,0.99-0.48,1.81
			c0,0.64,0.32,1.18,0.96,1.62c0.63,0.44,1.4,0.67,2.29,0.67l-0.48,2.19h-23.84c-1.08,0-1.89-0.27-2.43-0.81s-0.81-1.26-0.81-2.15
			c0-0.95,0.26-1.75,0.76-2.38l23.37-28.99l-8.87-26.42c-0.7-1.91-1.94-2.86-3.71-2.86l0.57-2.19h20.13c1.21,0,2.43,0.4,3.67,1.19
			c1.24,0.79,2.02,1.76,2.34,2.91l2.57,9.15L675.6,612.73z"/>
		
			<linearGradient id="SVGID_00000181775553956179323230000007475425470863955592_" gradientUnits="userSpaceOnUse" x1="726.5517" y1="598.558" x2="726.5517" y2="680.6359">
			<stop  offset="0" style="stop-color:#3E76BB"/>
			<stop  offset="0.9672" style="stop-color:#06509E"/>
		</linearGradient>
		<path style="fill:url(#SVGID_00000181775553956179323230000007475425470863955592_);" d="M740.71,607.58
			c5.6,0,10.2,1.45,13.83,4.34s5.44,6.98,5.44,12.25c0,1.91-0.22,3.75-0.67,5.53l-5.72,24.22c-1.65,7.18-4.52,12.3-8.58,15.35
			c-3.56,2.73-8.46,4.1-14.69,4.1h-19.55c-5.98,0-10.41-1.35-13.3-4.05c-2.9-2.7-4.34-6.69-4.34-11.97c0-3.12,0.41-6.36,1.24-9.73
			l4.2-18.03c1.65-6.93,4.04-12.11,7.15-15.54c4-4.32,9.63-6.49,16.88-6.49H740.71z M720.11,652.97c-0.19,0.89-0.28,1.65-0.28,2.29
			c0,1.59,0.89,2.38,2.67,2.38c1.21,0,2.12-0.27,2.72-0.81c0.61-0.54,1.06-1.51,1.39-2.91l6.29-26.8c0.13-0.76,0.19-1.27,0.19-1.53
			c0-1.84-0.92-2.77-2.77-2.77c-2.03,0-3.4,1.27-4.1,3.81L720.11,652.97z"/>
		
			<linearGradient id="SVGID_00000091697316258176843080000012144160127728650389_" gradientUnits="userSpaceOnUse" x1="789.6062" y1="598.558" x2="789.6062" y2="680.6359">
			<stop  offset="0" style="stop-color:#3E76BB"/>
			<stop  offset="0.9672" style="stop-color:#06509E"/>
		</linearGradient>
		<path style="fill:url(#SVGID_00000091697316258176843080000012144160127728650389_);" d="M810.11,607.58c1.01,0,2-0.21,2.96-0.62
			c0.95-0.41,1.55-1,1.81-1.77h2.19l-3.81,14.59c-0.63,2.04-2.51,3.05-5.63,3.05H802l-10.68,45.4c-0.13,0.63,0.16,1.29,0.86,1.95
			c0.7,0.67,1.4,1,2.1,1l-0.67,2.19H767.1c-2.03,0-3.05-1.02-3.05-3.05c0-0.25,0.07-0.76,0.19-1.53l10.78-45.97h-6.58
			c-1.02,0-1.86,0.24-2.53,0.72c-0.67,0.48-1.12,1.1-1.38,1.86h-2.38l3.81-15.26c0.25-0.89,0.76-1.54,1.53-1.95
			c0.76-0.41,1.97-0.62,3.63-0.62H810.11z"/>
		
			<linearGradient id="SVGID_00000004521137446809581710000010355724058421014925_" gradientUnits="userSpaceOnUse" x1="864.0988" y1="598.558" x2="864.0988" y2="680.6359">
			<stop  offset="0" style="stop-color:#3E76BB"/>
			<stop  offset="0.9672" style="stop-color:#06509E"/>
		</linearGradient>
		<path style="fill:url(#SVGID_00000004521137446809581710000010355724058421014925_);" d="M865.01,622.36l-10.4,44.63l-0.28,1.81
			c0,0.7,0.28,1.27,0.86,1.72c0.57,0.44,1.24,0.67,2,0.67l-0.57,2.19H830.3c-1.09,0-1.89-0.3-2.43-0.9
			c-0.54-0.6-0.81-1.41-0.81-2.43c0-0.38,0.07-0.89,0.19-1.53l12.97-55.79c0.12-0.7-0.13-1.37-0.76-2c-0.64-0.64-1.34-0.96-2.1-0.96
			l0.57-2.19h59.6c2.41,0,3.62,1.24,3.62,3.72c0,0.51-0.03,0.89-0.09,1.14l-12.97,55.79c-0.13,0.63,0.16,1.29,0.86,1.95
			c0.7,0.67,1.4,1,2.1,1l-0.67,2.19h-25.84c-2.41,0-3.62-1.14-3.62-3.43c0-0.51,0.03-0.89,0.09-1.14l10.78-46.44H865.01z"/>
		
			<linearGradient id="SVGID_00000117654202521060049260000008712389474982233990_" gradientUnits="userSpaceOnUse" x1="929.1079" y1="598.558" x2="929.1079" y2="680.6359">
			<stop  offset="0" style="stop-color:#3E76BB"/>
			<stop  offset="0.9672" style="stop-color:#06509E"/>
		</linearGradient>
		<path style="fill:url(#SVGID_00000117654202521060049260000008712389474982233990_);" d="M943.27,607.58
			c5.6,0,10.2,1.45,13.83,4.34s5.44,6.98,5.44,12.25c0,1.91-0.22,3.75-0.67,5.53l-5.72,24.22c-1.65,7.18-4.52,12.3-8.58,15.35
			c-3.56,2.73-8.46,4.1-14.69,4.1h-19.55c-5.98,0-10.41-1.35-13.3-4.05c-2.9-2.7-4.34-6.69-4.34-11.97c0-3.12,0.41-6.36,1.24-9.73
			l4.2-18.03c1.65-6.93,4.04-12.11,7.15-15.54c4-4.32,9.63-6.49,16.88-6.49H943.27z M922.67,652.97c-0.19,0.89-0.28,1.65-0.28,2.29
			c0,1.59,0.89,2.38,2.67,2.38c1.21,0,2.12-0.27,2.72-0.81c0.61-0.54,1.06-1.51,1.39-2.91l6.29-26.8c0.13-0.76,0.19-1.27,0.19-1.53
			c0-1.84-0.92-2.77-2.77-2.77c-2.03,0-3.4,1.27-4.1,3.81L922.67,652.97z"/>
		
			<linearGradient id="SVGID_00000090261777492024349820000013836680199213815713_" gradientUnits="userSpaceOnUse" x1="990.2523" y1="598.558" x2="990.2523" y2="680.6359">
			<stop  offset="0" style="stop-color:#3E76BB"/>
			<stop  offset="0.9672" style="stop-color:#06509E"/>
		</linearGradient>
		<path style="fill:url(#SVGID_00000090261777492024349820000013836680199213815713_);" d="M1010.76,607.58c1.02,0,2-0.21,2.96-0.62
			c0.95-0.41,1.56-1,1.81-1.77h2.19l-3.81,14.59c-0.63,2.04-2.51,3.05-5.62,3.05h-5.62l-10.68,45.4c-0.13,0.63,0.16,1.29,0.86,1.95
			c0.7,0.67,1.4,1,2.09,1l-0.66,2.19h-26.51c-2.04,0-3.05-1.02-3.05-3.05c0-0.25,0.06-0.76,0.19-1.53l10.78-45.97h-6.58
			c-1.02,0-1.86,0.24-2.53,0.72c-0.67,0.48-1.13,1.1-1.39,1.86h-2.38l3.81-15.26c0.26-0.89,0.76-1.54,1.53-1.95
			c0.76-0.41,1.97-0.62,3.63-0.62H1010.76z"/>
	</g>
</g>
</svg>
