<?xml version="1.0" encoding="utf-8"?>
<!-- Generator: Adobe Illustrator 26.5.0, SVG Export Plug-In . SVG Version: 6.00 Build 0)  -->
<svg version="1.1" id="Layer_1" xmlns="http://www.w3.org/2000/svg" xmlns:xlink="http://www.w3.org/1999/xlink" x="0px" y="0px"
	 viewBox="0 0 1080 1080" style="enable-background:new 0 0 1080 1080;" xml:space="preserve">
<style type="text/css">
	.st0{fill-rule:evenodd;clip-rule:evenodd;}
	.st1{fill:#ED1C24;}
	.st2{fill:#E1251B;}
	.st3{fill-rule:evenodd;clip-rule:evenodd;fill:#16397B;}
	.st4{fill:#EE2745;}
	
		.st5{clip-path:url(#SVGID_00000149379436933235511150000008970993435546744238_);fill:url(#SVGID_00000059296089446108591130000001937202381406675612_);}
	
		.st6{clip-path:url(#SVGID_00000176027204811683542950000008490447417483994791_);fill:url(#SVGID_00000062875699793665863670000015714272813722167734_);}
	
		.st7{clip-path:url(#SVGID_00000056416463126079047660000000730647423672329628_);fill:url(#SVGID_00000099633661283137612960000014181925363836273825_);}
	
		.st8{clip-path:url(#SVGID_00000164488205043243331500000016653799660117206679_);fill:url(#SVGID_00000040556659225704988940000009400769482970823329_);}
	.st9{fill:#424243;}
	
		.st10{clip-path:url(#SVGID_00000018217490020194172310000014281654794317286061_);fill:url(#SVGID_00000132801070143774556060000012280898999280537480_);}
	.st11{fill:#FFFFFF;}
	
		.st12{clip-path:url(#SVGID_00000180333463407176690870000015836394767175608224_);fill:url(#SVGID_00000009554198434259296350000002671604529902268051_);}
	
		.st13{clip-path:url(#SVGID_00000001628194454310336530000000156242824269227660_);fill:url(#SVGID_00000013916019080594618310000014010224749725329034_);}
	
		.st14{clip-path:url(#SVGID_00000008151236508325660570000013313994761429756331_);fill:url(#SVGID_00000178903185048859010020000016190769761958766232_);}
	
		.st15{clip-path:url(#SVGID_00000141448930112318266630000018129393754355863973_);fill:url(#SVGID_00000124883794706827669900000016221006387214061724_);}
	
		.st16{clip-path:url(#SVGID_00000078747638346888077570000008744159353975865248_);fill:url(#SVGID_00000130635920660197058540000009030035426445553295_);}
	
		.st17{clip-path:url(#SVGID_00000145057034204133356310000012706322283798883226_);fill:url(#SVGID_00000039095801411042664710000009512494917733210242_);}
	
		.st18{clip-path:url(#SVGID_00000050655262247932896390000004853161359315139758_);fill:url(#SVGID_00000160181200174354453920000012673245830912563090_);}
	.st19{fill-rule:evenodd;clip-rule:evenodd;fill:#C8202F;}
	.st20{fill-rule:evenodd;clip-rule:evenodd;fill:#FFFFFF;}
	.st21{fill-rule:evenodd;clip-rule:evenodd;fill:#F98238;}
	.st22{filter:url(#Adobe_OpacityMaskFilter);}
	.st23{fill:url(#SVGID_00000183953489710754805520000012464090111268636325_);}
	.st24{mask:url(#SVGID_00000157271821093459701870000000148624246131002016_);fill-rule:evenodd;clip-rule:evenodd;fill:#ED1C24;}
	.st25{fill-rule:evenodd;clip-rule:evenodd;fill:#F5333F;}
	.st26{fill-rule:evenodd;clip-rule:evenodd;fill:#ED1C24;}
	.st27{fill-rule:evenodd;clip-rule:evenodd;fill:#F9A46E;}
	.st28{fill-rule:evenodd;clip-rule:evenodd;fill:#F47B26;}
	.st29{fill-rule:evenodd;clip-rule:evenodd;fill:#EB5433;}
	.st30{fill:#1A3282;}
	.st31{fill-rule:evenodd;clip-rule:evenodd;fill:#1A3282;}
	.st32{fill-rule:evenodd;clip-rule:evenodd;fill:#9D9FA2;}
	.st33{fill-rule:evenodd;clip-rule:evenodd;fill:#000303;}
	.st34{fill:#64003D;}
	.st35{fill:#536270;}
	.st36{fill-rule:evenodd;clip-rule:evenodd;fill:#64003D;}
	.st37{fill-rule:evenodd;clip-rule:evenodd;fill:#536270;}
	.st38{fill-rule:evenodd;clip-rule:evenodd;fill:#1A3382;}
	.st39{fill-rule:evenodd;clip-rule:evenodd;fill:#29387E;}
	.st40{fill-rule:evenodd;clip-rule:evenodd;fill:#F37021;}
	.st41{fill-rule:evenodd;clip-rule:evenodd;fill:#005C32;}
	.st42{fill-rule:evenodd;clip-rule:evenodd;fill:#D2AB67;}
	
		.st43{clip-path:url(#SVGID_00000033326770073557188200000013670947169276723635_);fill:url(#SVGID_00000018222414868707320870000017801112430397087373_);}
	
		.st44{clip-path:url(#SVGID_00000168098139330945357610000003556874369965787530_);fill:url(#SVGID_00000043448999763673174870000012269745152111614603_);}
	
		.st45{clip-path:url(#SVGID_00000024679987751124145100000004722802890948380857_);fill:url(#SVGID_00000112607892219744789690000011055521895346636953_);}
	.st46{fill-rule:evenodd;clip-rule:evenodd;fill:#00AEEF;}
	.st47{fill-rule:evenodd;clip-rule:evenodd;fill:#EC008C;}
	.st48{fill-rule:evenodd;clip-rule:evenodd;fill:#FFF200;}
	.st49{fill:#A7AAAC;}
	.st50{fill-rule:evenodd;clip-rule:evenodd;fill:#5C5B5B;}
	.st51{fill:#9D9D9F;}
	.st52{fill:#F04D23;}
	.st53{fill-rule:evenodd;clip-rule:evenodd;fill:#2E3192;}
	.st54{fill-rule:evenodd;clip-rule:evenodd;fill:#C4312D;}
	.st55{fill:#552715;}
	.st56{fill:#010101;}
	.st57{fill:#E31E2E;}
	.st58{fill:url(#SVGID_00000174597911877802854210000003981521568841463715_);}
	.st59{fill:url(#SVGID_00000158020198995450944930000012458563821831002774_);}
	.st60{clip-path:url(#SVGID_00000147202826632598841370000014363762459180343980_);}
	.st61{clip-path:url(#SVGID_00000159451271939377085070000017550670204460030865_);}
	.st62{clip-path:url(#SVGID_00000044892300362407513690000014047151132141568430_);}
	.st63{clip-path:url(#SVGID_00000042725614073714683830000004132186145348193164_);}
	.st64{clip-path:url(#SVGID_00000054956076607308455590000012275929077345792950_);}
	.st65{clip-path:url(#SVGID_00000076598762595465690220000009410215482165632916_);}
	.st66{clip-path:url(#SVGID_00000100363052350494979360000015447685707061965458_);}
	.st67{clip-path:url(#SVGID_00000112604815964276494420000012936310650722075831_);}
	.st68{clip-path:url(#SVGID_00000106856513105506418110000000692731769646555580_);}
	.st69{clip-path:url(#SVGID_00000048470090657626795710000011355217235279222420_);}
	.st70{clip-path:url(#SVGID_00000170977818357521360400000005059691925140437685_);}
	.st71{fill:#2650A1;}
	.st72{fill:url(#SVGID_00000150096663609621019810000009924425661495723944_);}
	.st73{fill:#FEFEFE;}
	.st74{fill:#FDFDFD;}
	.st75{fill:#FCFCFC;}
	.st76{fill:#FBFBFB;}
	.st77{fill:#FAFAFA;}
	.st78{fill:#F9F9F9;}
	.st79{fill:#F8F8F8;}
	.st80{fill:#F7F7F7;}
	.st81{fill:#F6F6F6;}
	.st82{fill:#F5F5F5;}
	.st83{fill:#F4F4F4;}
	.st84{fill:#F3F3F3;}
	.st85{fill:#F2F2F2;}
	.st86{fill:#F1F1F1;}
	.st87{fill:#F0F0F0;}
	.st88{fill:#EFEFEF;}
	.st89{fill:#EEEEEE;}
	.st90{fill:#EDEDED;}
	.st91{fill:#ECECEC;}
	.st92{fill:#EBEBEB;}
	.st93{fill:#EAEAEA;}
	.st94{fill:#E9E9E9;}
	.st95{fill:#E8E8E8;}
	.st96{fill:#E7E7E7;}
	.st97{fill:#E6E6E6;}
	.st98{fill:#E5E5E5;}
	.st99{fill:#E4E4E4;}
	.st100{fill:#E3E3E3;}
	.st101{fill:#E2E2E2;}
	.st102{fill:#E1E1E1;}
	.st103{fill:#E0E0E0;}
	.st104{fill:#DFDFDF;}
	.st105{fill:#DEDEDE;}
	.st106{fill:#DDDDDD;}
	.st107{fill:#DCDCDC;}
	.st108{fill:#DBDBDB;}
	.st109{fill:#DADADA;}
	.st110{fill:#D9D9D9;}
	.st111{fill:#D92231;}
	.st112{fill:url(#SVGID_00000087377930938010834190000010562808607589756047_);}
	.st113{fill:url(#SVGID_00000131338522527776839300000002050337494016941199_);}
	.st114{opacity:0.8;}
	.st115{fill:url(#SVGID_00000111152216042491664210000010342776552974833287_);}
	.st116{fill:url(#SVGID_00000096774914606582058640000009406519805726094266_);}
	.st117{fill-rule:evenodd;clip-rule:evenodd;fill:#010101;}
	.st118{fill:#80A845;}
	.st119{fill-rule:evenodd;clip-rule:evenodd;fill:#80A845;}
	.st120{fill:url(#SVGID_00000147936368327635317850000016953261772804265621_);}
	.st121{fill-rule:evenodd;clip-rule:evenodd;fill:#04984A;}
	.st122{fill-rule:evenodd;clip-rule:evenodd;fill:url(#SVGID_00000042710783184620304280000010319527546576202372_);}
	.st123{fill:url(#SVGID_00000101788503447892306680000003690851445353847465_);}
	.st124{fill:url(#SVGID_00000002345248445981451390000001845328013127020466_);}
	.st125{fill:url(#SVGID_00000004511881826680378830000006134345022651158149_);}
	.st126{fill:url(#SVGID_00000156564893775953343740000010067401447774831537_);}
	.st127{fill:url(#SVGID_00000035514657462514878540000012199237568319236764_);}
	.st128{fill:url(#SVGID_00000160885535730480891700000000040083813987232436_);}
	.st129{fill:url(#SVGID_00000000216001650715098410000014474917496046730123_);}
	.st130{fill:url(#SVGID_00000002345220148193250240000002423905486481554083_);}
	.st131{fill:url(#SVGID_00000163778481617020185900000014561516031452111494_);}
	.st132{fill:url(#SVGID_00000005244733531367202450000004745939073677489807_);}
	.st133{fill:url(#SVGID_00000150098841335423193350000013327344802870458543_);}
	.st134{fill:url(#SVGID_00000076590878384779752140000007023351492518146984_);}
	.st135{fill:url(#SVGID_00000088847142317481001170000012242111925596097170_);}
	.st136{fill:url(#SVGID_00000083074025361348226670000009006071457526848907_);}
	.st137{fill-rule:evenodd;clip-rule:evenodd;fill:url(#SVGID_00000120549553757432248080000004306440723094140578_);}
	.st138{fill:#0A529D;}
	.st139{fill:url(#SVGID_00000021810293740737183300000006701702942648133284_);}
	.st140{fill:url(#SVGID_00000177460584042380532490000013826981984306131095_);}
	.st141{fill:url(#SVGID_00000069398153110097192160000003870262519965486477_);}
	.st142{fill:url(#SVGID_00000144317694488766564200000011746915189704865200_);}
	.st143{fill:url(#SVGID_00000107559611659481491290000001197438992806405288_);}
	.st144{fill:url(#SVGID_00000142157877645139716670000011211935574311534739_);}
	.st145{fill:url(#SVGID_00000173120259404415809250000001781390352358159037_);}
	.st146{fill:url(#SVGID_00000147222439354930988520000005541196280926577846_);}
	.st147{fill:url(#SVGID_00000060019503843235024150000011749521432704763288_);}
	.st148{fill:url(#SVGID_00000011738029517763429390000003898838380528270253_);}
	.st149{fill:url(#SVGID_00000083775826814876463100000015892537370541754294_);}
	.st150{fill:url(#SVGID_00000036234906819292741030000000018504906703291776_);}
	.st151{fill-rule:evenodd;clip-rule:evenodd;fill:url(#SVGID_00000106115310449139126950000003396794208947278492_);}
	.st152{fill:url(#SVGID_00000070818029818418203170000010809375277389766064_);}
	.st153{fill:url(#SVGID_00000110464117055133921900000008451391279765549733_);}
	.st154{fill:url(#SVGID_00000025400737865297217490000012687990036954044336_);}
	.st155{fill:url(#SVGID_00000111189216803772063230000009711571174986293888_);}
	.st156{fill:url(#SVGID_00000124123275321511666890000000800084147573387143_);}
	.st157{fill:url(#SVGID_00000085232129934131051030000016179263712354976677_);}
	.st158{fill:url(#SVGID_00000162321816909304465470000013031437159964133504_);}
	.st159{fill:url(#SVGID_00000151519359877970018830000000330236800049677441_);}
	.st160{fill:url(#SVGID_00000101801822181398072230000014812995574977924224_);}
	.st161{fill:url(#SVGID_00000173842744041761482870000013571868135470949768_);}
	.st162{fill:url(#SVGID_00000139993901563966033230000000287638001841208758_);}
	.st163{fill:url(#SVGID_00000108272476210650930780000015716668863972301480_);}
	.st164{fill:url(#SVGID_00000114764235634101024840000003935794677711549069_);}
	.st165{fill:url(#SVGID_00000101784600991569028170000013299305902054902197_);}
	.st166{fill:url(#SVGID_00000063604467008598163980000011976101571309671341_);}
	.st167{fill:url(#SVGID_00000115517070034139062670000001444907407889587362_);}
	.st168{fill:url(#SVGID_00000145766554883419615830000012007110469805849017_);}
	.st169{fill-rule:evenodd;clip-rule:evenodd;fill:url(#SVGID_00000136392769445612915650000008842817560375022268_);}
	.st170{fill:url(#SVGID_00000154399273177356654870000008323989152489877178_);}
	.st171{fill:url(#SVGID_00000051366872015048039180000005436514481162028676_);}
	.st172{fill:url(#SVGID_00000057830579932160693520000008861073487984562845_);}
	.st173{fill:url(#SVGID_00000059309721771224962020000012606997243090726024_);}
	.st174{fill:url(#SVGID_00000127766174096979229880000014884161875672813697_);}
	.st175{fill:url(#SVGID_00000099646793934696417680000003822549298920572821_);}
	.st176{fill:url(#SVGID_00000153692816049740407240000015623680817503448244_);}
	.st177{fill:url(#SVGID_00000066493142102912710100000017400434343564875141_);}
	.st178{fill:url(#SVGID_00000007391448798997329910000004377241220701899679_);}
	.st179{fill:url(#SVGID_00000023272749014912079470000007760286108022520244_);}
	.st180{fill:url(#SVGID_00000168083124855158409030000003146816915316021902_);}
	.st181{fill:url(#SVGID_00000065033753798692467920000017391980179677021359_);}
	.st182{fill:url(#SVGID_00000165947516544091433070000018386341878365660329_);}
	.st183{fill:url(#SVGID_00000096041763343859726630000009481476150722916784_);}
	.st184{fill-rule:evenodd;clip-rule:evenodd;fill:url(#SVGID_00000150787164327327149390000011930344601398720922_);}
	.st185{fill:url(#SVGID_00000028318241096443827860000004673661756288787609_);}
	.st186{fill:url(#SVGID_00000147912588969582633950000012202546550258899113_);}
	.st187{fill:url(#SVGID_00000000217178389460107290000015390620503533462451_);}
	.st188{fill:url(#SVGID_00000082346064861061305340000018360510243472054414_);}
	.st189{fill:url(#SVGID_00000071531171106127844560000012745199020831788713_);}
	.st190{fill:url(#SVGID_00000173133028465465429290000007381663061666473145_);}
	.st191{fill:url(#SVGID_00000085252382794120406200000008852813425636498341_);}
	.st192{fill:url(#SVGID_00000045617437148646337060000007153213725089961135_);}
	.st193{fill:url(#SVGID_00000131325843554311449470000016767991658900532879_);}
	.st194{fill:url(#SVGID_00000035530505843376881870000017220166643456750263_);}
	.st195{fill:url(#SVGID_00000145053848561741965870000004520796892909158842_);}
	.st196{fill:url(#SVGID_00000023995615878912248630000002641294163809051308_);}
	.st197{fill:url(#SVGID_00000011726185099477964560000012285553261488447374_);}
	.st198{fill:url(#SVGID_00000043421146859581249980000016075716020885905572_);}
	.st199{fill:url(#SVGID_00000140708241857776963190000004550890506489126798_);}
	.st200{fill:url(#SVGID_00000096026372382628874730000005348466916874886796_);}
	.st201{fill:url(#SVGID_00000142893404330600716530000017579118435918860452_);}
	.st202{fill:url(#SVGID_00000117672286044436416530000000230608317407187333_);}
	.st203{fill:url(#SVGID_00000070808726111342907550000001561233355166024840_);}
	.st204{fill-rule:evenodd;clip-rule:evenodd;fill:url(#SVGID_00000093894345236432762660000014348633749955309729_);}
	.st205{fill:url(#SVGID_00000084527606042248724210000004251395601892592003_);}
	.st206{fill:url(#SVGID_00000164472952815646401610000004571704849793756813_);}
	.st207{fill:url(#SVGID_00000157993917393473089950000016334691033862561190_);}
	.st208{fill:url(#SVGID_00000124843664030361186690000012971066261718683274_);}
	.st209{fill:url(#SVGID_00000162337656148529169060000003188411538931558303_);}
	.st210{fill:url(#SVGID_00000034059018316907679570000017233831604930236302_);}
	.st211{fill:url(#SVGID_00000139981996736868615100000015948652532588202156_);}
	.st212{fill:url(#SVGID_00000159461313154240506770000000561417594002897311_);}
	.st213{fill:url(#SVGID_00000129201103954332795110000003632041214158365605_);}
	.st214{fill:url(#SVGID_00000103971592841911448870000005663738365077748871_);}
	.st215{fill:url(#SVGID_00000004528514606763950690000011902607135464631694_);}
	.st216{fill:url(#SVGID_00000148635609061653455850000003479422074541598890_);}
	.st217{fill:url(#SVGID_00000155143877472891026510000007921608376020005816_);}
	.st218{fill:url(#SVGID_00000031924034783062614970000010898940609735257748_);}
	.st219{fill:url(#SVGID_00000059991717337813374720000012585127913906899885_);}
	.st220{fill:url(#SVGID_00000018238314382067660360000011134297984094086028_);}
	.st221{fill-rule:evenodd;clip-rule:evenodd;fill:url(#SVGID_00000082345158702523465970000010928399328172670354_);}
	.st222{fill:url(#SVGID_00000174566953698672023500000003689341826638080696_);}
	.st223{fill:url(#SVGID_00000092433603269298893780000006801538241677670064_);}
	.st224{fill:url(#SVGID_00000161610933387149103800000014068116310389683866_);}
	.st225{fill:url(#SVGID_00000026867325093304406860000002776961062066042544_);}
	.st226{fill:url(#SVGID_00000040555910772626764310000008006343630223588253_);}
	.st227{fill:url(#SVGID_00000013186521788703553390000011364902226111730109_);}
	.st228{fill:url(#SVGID_00000085964651038815246450000010156527805352526476_);}
	.st229{fill:url(#SVGID_00000011728964448983111340000010540545574259034027_);}
	.st230{fill:url(#SVGID_00000128482341252097636300000018304289529270158489_);}
	.st231{fill:url(#SVGID_00000145052648802770406340000002971442806449765017_);}
	.st232{fill:url(#SVGID_00000150823912250110465430000002931942202210060676_);}
	.st233{fill:url(#SVGID_00000003820845661770682180000008694278616846552226_);}
	.st234{fill:url(#SVGID_00000026159775465774689180000005124717330646246812_);}
	.st235{fill:url(#SVGID_00000108279712786449273930000000564398657114857122_);}
	.st236{fill:url(#SVGID_00000039813776831586326670000018374209084537298844_);}
	.st237{fill-rule:evenodd;clip-rule:evenodd;fill:url(#SVGID_00000081639847759818981000000009613001343364491656_);}
	.st238{fill:url(#SVGID_00000014603514337543742400000010571939130785263252_);}
	.st239{fill:url(#SVGID_00000176019247810299690360000017162584013338249608_);}
	.st240{fill:url(#SVGID_00000089575592577369538940000011739397159423342495_);}
	.st241{fill:url(#SVGID_00000060032036726783406880000006898353019018197428_);}
	.st242{fill:url(#SVGID_00000146476593785406066380000001171813626011249025_);}
	.st243{fill:url(#SVGID_00000179611953368402491950000013308218546044889231_);}
	.st244{fill:url(#SVGID_00000001665199304162559410000001873135185251036329_);}
	.st245{fill:url(#SVGID_00000180360625319553087510000013336948633647138236_);}
	.st246{fill:url(#SVGID_00000067234882380671846330000009024881773314517921_);}
	.st247{fill:url(#SVGID_00000048495061645594322330000005235153688847406234_);}
	.st248{fill:url(#SVGID_00000053528259783524008060000001843429344748200084_);}
	.st249{fill:url(#SVGID_00000110449405527192095540000004868795477450242706_);}
	.st250{fill:url(#SVGID_00000124871262459380941270000008217757338281114018_);}
	.st251{fill:url(#SVGID_00000044861667280610952960000013060857224789758342_);}
	.st252{fill:url(#SVGID_00000141444184089858879240000011576733044663775673_);}
	.st253{fill-rule:evenodd;clip-rule:evenodd;fill:url(#SVGID_00000116200642134787773670000011678820786378725306_);}
	.st254{fill:url(#SVGID_00000092445030498813636010000018396199425292822153_);}
	.st255{fill:url(#SVGID_00000018228866216380000670000011986932484757689752_);}
	.st256{fill:url(#SVGID_00000050645251437863444320000005841932114201186227_);}
	.st257{fill:url(#SVGID_00000047034808677521528090000017478421559262031006_);}
	.st258{fill:url(#SVGID_00000055674053444201609120000015061235063288090511_);}
	.st259{fill:url(#SVGID_00000016071334547005789230000014806405068142390436_);}
	.st260{fill:url(#SVGID_00000108278452991002823320000003912560159253365919_);}
	.st261{fill:url(#SVGID_00000047019414411894707840000012545964741873880469_);}
	.st262{fill:url(#SVGID_00000006694830435838502960000003840642935175988358_);}
	.st263{fill:url(#SVGID_00000029021361154381115240000018110644624889826720_);}
	.st264{fill:url(#SVGID_00000168833670725030547330000013209257615668777112_);}
	.st265{fill:url(#SVGID_00000107555903996774171410000015959215314162386306_);}
	.st266{fill:url(#SVGID_00000137819108656109014360000004022979512576267428_);}
	.st267{fill:url(#SVGID_00000177485301487512456440000010234411336705418130_);}
	.st268{fill:url(#SVGID_00000097459088021476041730000012854869581298772877_);}
	.st269{fill-rule:evenodd;clip-rule:evenodd;fill:url(#SVGID_00000120527757689872670760000015562753030492571572_);}
	.st270{fill:url(#SVGID_00000132047762774037484630000017550731371403452088_);}
	.st271{fill:url(#SVGID_00000003812902100714596490000005695873756363603605_);}
	.st272{fill:url(#SVGID_00000080900934785155746650000016759509963126443447_);}
	.st273{fill:url(#SVGID_00000109714018460444121960000003888764010831951506_);}
	.st274{fill:url(#SVGID_00000009566706989305338170000018066059674037139897_);}
	.st275{fill:url(#SVGID_00000046316628475179449340000015046199662926474377_);}
	.st276{fill:url(#SVGID_00000151529335905563599330000009422592756126645922_);}
	.st277{fill:url(#SVGID_00000174604422424902190190000003426672055999763847_);}
	.st278{fill:url(#SVGID_00000151509917010289298670000008092631898116971692_);}
	.st279{fill:url(#SVGID_00000034088208959838610080000006500567767984761990_);}
	.st280{fill:url(#SVGID_00000092433044478567353500000011007414217756695462_);}
	.st281{fill:url(#SVGID_00000152261086542962474540000003107763787860185764_);}
	.st282{fill:url(#SVGID_00000160184575328380565560000000743006156195364243_);}
	.st283{fill:url(#SVGID_00000172439080202437520500000005900830911032159116_);}
	.st284{fill:url(#SVGID_00000005986582749101110700000009338114580812120968_);}
	.st285{fill-rule:evenodd;clip-rule:evenodd;fill:url(#SVGID_00000098220579181566719270000006977141268024585652_);}
	.st286{fill:url(#SVGID_00000168811995241249831050000013952860633256352932_);}
	.st287{fill:url(#SVGID_00000147192085813850432250000017190393860009471678_);}
	.st288{fill:url(#SVGID_00000091706267480990744700000016587694642795934136_);}
	.st289{fill:url(#SVGID_00000060720073080949729650000015063118361197836678_);}
	.st290{fill:url(#SVGID_00000120519276557891464540000002040770966503910809_);}
	.st291{fill:url(#SVGID_00000098195189448388736390000017462413742327557055_);}
	.st292{fill:url(#SVGID_00000072259128893979502720000017969130221789887916_);}
	.st293{fill:url(#SVGID_00000118358571540252576980000015774140007697323162_);}
	.st294{fill:url(#SVGID_00000023988746239514131610000004936476822441104028_);}
	.st295{fill:url(#SVGID_00000154416538048157215530000011760965838373191069_);}
	.st296{fill:url(#SVGID_00000016064910319583430640000015507971900641859484_);}
	.st297{fill:url(#SVGID_00000110445227581614495510000009707543298578298243_);}
	.st298{fill:url(#SVGID_00000084509422408118419860000015852390518747233194_);}
	.st299{fill:url(#SVGID_00000065764942877408835070000008142295077870616212_);}
	.st300{fill:url(#SVGID_00000179610255718963773520000016144690703532828319_);}
	.st301{fill:url(#SVGID_00000110430265290810837340000000922458818013742263_);}
	.st302{fill:url(#SVGID_00000012473220143754236210000002601912200671871420_);}
	.st303{fill:url(#SVGID_00000181770444421378193890000000775191953270923957_);}
	.st304{fill-rule:evenodd;clip-rule:evenodd;fill:url(#SVGID_00000168811824245007746990000007783313050462445230_);}
	.st305{fill:url(#SVGID_00000118397336878251789210000008121714676962609288_);}
	.st306{fill:url(#SVGID_00000081641052490885879930000006260412071068489911_);}
	.st307{fill:url(#SVGID_00000015332820188703994320000015042423816619294124_);}
	.st308{fill:url(#SVGID_00000160182627659798272950000005736571172695277224_);}
	.st309{fill:url(#SVGID_00000101818245182121723390000003333836366751641246_);}
	.st310{fill:url(#SVGID_00000127033482820768153700000004418348911873480096_);}
	.st311{fill:url(#SVGID_00000008856779620087941930000007544048338356966787_);}
	.st312{fill:url(#SVGID_00000116939984330988052560000015062626369231721863_);}
	.st313{fill:url(#SVGID_00000044875463529666555610000005166587637138148244_);}
	.st314{fill:url(#SVGID_00000085245789787970076770000009171954818481365397_);}
	.st315{fill:url(#SVGID_00000138565983278523870700000013864530333626243247_);}
	.st316{fill:url(#SVGID_00000161607401214315352010000004885457830284949689_);}
	.st317{fill:url(#SVGID_00000058583515756896326800000004135718496575126700_);}
	.st318{fill:url(#SVGID_00000112597893584546468530000004213526800374023815_);}
	.st319{fill:url(#SVGID_00000155830292641532553450000016025588856173904259_);}
	.st320{fill:url(#SVGID_00000160156204318635707580000001710461994658726809_);}
	.st321{fill:url(#SVGID_00000152264157421702860660000001383480567816866959_);}
	.st322{fill:url(#SVGID_00000103260368801694988120000008369761053062019736_);}
	.st323{fill:url(#SVGID_00000027575879042936033460000003548879738859050162_);}
	.st324{fill:url(#SVGID_00000109031637372453669600000009522303888098285721_);}
	.st325{fill-rule:evenodd;clip-rule:evenodd;fill:url(#SVGID_00000120524677740995651440000013147464967848060311_);}
	.st326{fill:url(#SVGID_00000050623535189502287620000009142336298419784584_);}
	.st327{fill:url(#SVGID_00000022538128116816221950000006793012077434342805_);}
	.st328{fill:url(#SVGID_00000083073976744913623070000005763967790456592297_);}
	.st329{fill:url(#SVGID_00000020373417860298721630000000108173389145283750_);}
	.st330{fill:url(#SVGID_00000131341321658874900950000016927231604719689110_);}
	.st331{fill:url(#SVGID_00000019659796889232641860000002168071755905276813_);}
	.st332{fill:url(#SVGID_00000163756841403465228210000004664829796970655382_);}
	.st333{fill:url(#SVGID_00000174572894507654070600000017067883270358245555_);}
	.st334{fill:url(#SVGID_00000038390561773092863500000014450950573656304294_);}
	.st335{fill:url(#SVGID_00000008140470424637329570000004325363354325305756_);}
	.st336{fill:url(#SVGID_00000172415522773404184570000009829069503525137593_);}
	.st337{fill:url(#SVGID_00000162337944284098420110000003464210410201568696_);}
	.st338{fill:url(#SVGID_00000166642157097001065740000009530990542545943427_);}
	.st339{fill:url(#SVGID_00000054959506652566714100000004523593966928750470_);}
	.st340{fill:url(#SVGID_00000131341538760737402030000013487099516508834950_);}
	.st341{fill:url(#SVGID_00000110464310580842528690000017163655872167374484_);}
	.st342{fill-rule:evenodd;clip-rule:evenodd;fill:url(#SVGID_00000005239985779936155710000005753357575787661219_);}
	.st343{fill:url(#SVGID_00000033359563396508831010000009358290999309337267_);}
	.st344{fill:url(#SVGID_00000084492951681709338470000004705740116836935097_);}
	.st345{fill:url(#SVGID_00000103248270486016256900000008129831444208851869_);}
	.st346{fill:url(#SVGID_00000013911543871354631440000016488339928955989409_);}
	.st347{fill:url(#SVGID_00000176018784066748435160000015192033962718430100_);}
	.st348{fill:url(#SVGID_00000176042353357292292040000003425304253283363986_);}
	.st349{fill:url(#SVGID_00000103234376617879171140000002065818814094806179_);}
	.st350{fill:url(#SVGID_00000083087220481207269180000014142552959822011784_);}
	.st351{fill:url(#SVGID_00000164507721177981746210000003749050481993245826_);}
	.st352{fill:url(#SVGID_00000012463409205213289210000016824674042632518846_);}
	.st353{fill:url(#SVGID_00000000914351856348221170000015221934737075171968_);}
	.st354{fill:url(#SVGID_00000060718704392112287990000000332524063092922028_);}
	.st355{fill:url(#SVGID_00000001648956866314212830000005377980373321025674_);}
	.st356{fill:url(#SVGID_00000078738933000101828100000017739695139323305653_);}
	.st357{fill:url(#SVGID_00000157310462651984084510000014041127863576069013_);}
	.st358{fill:url(#SVGID_00000015334682761995854770000013933193874228607930_);}
	.st359{fill:url(#SVGID_00000152258123517847667710000002715909483102876062_);}
	.st360{fill:url(#SVGID_00000170276156773120599770000004070792548114494346_);}
	.st361{fill:url(#SVGID_00000151540155858039234040000016671226072392476070_);}
	.st362{fill:url(#SVGID_00000036232733616146158880000007407279007550580637_);}
	.st363{fill:#C1282D;}
	.st364{fill-rule:evenodd;clip-rule:evenodd;fill:url(#SVGID_00000150062906344325088820000017005713953858576824_);}
	.st365{fill:url(#SVGID_00000104668173347027645050000003196953452847086270_);}
	.st366{fill:url(#SVGID_00000022535151269483364030000014898816782427281078_);}
	.st367{fill:url(#SVGID_00000115497485713417884700000001615134639928007555_);}
	.st368{fill:url(#SVGID_00000123433162412017685320000018369768239331816883_);}
	.st369{fill:url(#SVGID_00000124852431625754137450000013347638373558866587_);}
	.st370{fill:url(#SVGID_00000155840853507195453460000014143901537202286757_);}
	.st371{fill:url(#SVGID_00000103945105349542247040000017028629175659268772_);}
	.st372{fill:url(#SVGID_00000080205858961470963330000015466103269406341286_);}
	.st373{fill:url(#SVGID_00000146495041634987137840000018310846847352608131_);}
	.st374{fill:url(#SVGID_00000109735502083216844360000013745467348223872932_);}
	.st375{fill:url(#SVGID_00000109737316521143477250000001195958838931365309_);}
	.st376{fill:url(#SVGID_00000065068035994732228820000002571690180358063282_);}
	.st377{fill:url(#SVGID_00000097477452540078042860000009688845968896009897_);}
	.st378{fill:url(#SVGID_00000026873093183111454230000002259681225717167269_);}
	.st379{fill:url(#SVGID_00000030451595560411402630000007807920968714455995_);}
	.st380{fill:url(#SVGID_00000046328992586796946560000012878931039348960647_);}
	.st381{fill-rule:evenodd;clip-rule:evenodd;fill:url(#SVGID_00000044149494943392081630000006551848835364732082_);}
	.st382{fill:url(#SVGID_00000071541549794729088350000003737979565021690758_);}
	.st383{fill:url(#SVGID_00000008142055086052516820000013164235798843035531_);}
	.st384{fill:url(#SVGID_00000125584339527286708840000004229404076929305505_);}
	.st385{fill:url(#SVGID_00000178921327734954662290000005546984951537712264_);}
	.st386{fill:url(#SVGID_00000016766932419411115060000016156717160688624527_);}
	.st387{fill:url(#SVGID_00000005230978183000949520000017979921472883503539_);}
	.st388{fill:url(#SVGID_00000154395301175707534220000003873623927400667810_);}
	.st389{fill:url(#SVGID_00000117661085082080901100000015640630634846993087_);}
	.st390{fill:url(#SVGID_00000025405738149745433500000015453147777313387673_);}
	.st391{fill:url(#SVGID_00000093163565502305734850000016492397001395019660_);}
	.st392{fill:url(#SVGID_00000001649322198696390900000014940205615709768106_);}
	.st393{fill:url(#SVGID_00000129910526968127766640000005192102316156529341_);}
	.st394{fill:url(#SVGID_00000016791603057854296160000005929304751575523970_);}
	.st395{fill:url(#SVGID_00000123434355629474636190000004217555598842902186_);}
	.st396{fill:url(#SVGID_00000091006085272079319430000003595216555446554761_);}
	.st397{fill:url(#SVGID_00000099637413850342122950000005777775708253521552_);}
	.st398{fill:url(#SVGID_00000135651985840803376930000011101139652796374689_);}
	.st399{fill:url(#SVGID_00000101810900107420716750000008680373130404850106_);}
	.st400{fill:url(#SVGID_00000047751669318393702600000002096941855030766216_);}
	.st401{fill:url(#SVGID_00000116204617346396173650000001080550761646627722_);}
</style>
<g>
	<g>
		<ellipse class="st11" cx="540" cy="409.02" rx="279.42" ry="138.65"/>
		<path class="st121" d="M805.49,452.2c-36.61,55.45-141.61,95.47-265.49,95.47c-124.56,0-230.03-40.45-266.09-96.41l2.73-0.85
			l12.86-4.02l90.77-28.49l-8.54,23.75c-0.73,2.01,1.32,3.93,3.29,3.08l80.14-34.6l-27.17,40.2c-1.5,2.18,1.07,4.87,3.33,3.46
			l80.44-49.68v30.16c0,2.14,2.56,3.25,4.14,1.75l8.24-7.82l12.99,30.16c0.81,1.88,3.46,2.01,4.44,0.17l21.06-40.2l97.74,49.42
			c2.22,1.15,4.53-1.45,3.12-3.55l-25.76-38.62c-0.6-0.85-0.56-2.01,0.09-2.82l11.11-15.08l12.94,16.1
			c1.15,1.41,3.33,1.15,4.14-0.47l6.84-13.88l59.16,43.7c1.37,0.98,3.33,0.34,3.8-1.28l6.15-20.25l63.31,20.46
			c0.04,0,0.09,0.04,0.09,0.04C805.4,452.15,805.45,452.15,805.49,452.2z"/>
		
			<linearGradient id="SVGID_00000021078814842115761420000003457977853214536853_" gradientUnits="userSpaceOnUse" x1="425.2708" y1="275.4286" x2="700.673" y2="590.0184">
			<stop  offset="0" style="stop-color:#3E76BB"/>
			<stop  offset="1" style="stop-color:#06509E"/>
		</linearGradient>
		<path style="fill-rule:evenodd;clip-rule:evenodd;fill:url(#SVGID_00000021078814842115761420000003457977853214536853_);" d="
			M819.42,409.25c0,1.32-0.04,2.61-0.13,3.89c-0.04,1.11-0.13,2.18-0.26,3.25c-0.09,0.98-0.21,1.96-0.34,2.95
			c-0.09,0.68-0.21,1.37-0.34,2.05c-0.38,2.39-0.94,4.78-1.62,7.13c-0.21,0.85-0.47,1.71-0.73,2.52c-0.09,0.3-0.17,0.6-0.3,0.9
			c-0.34,1.07-0.73,2.14-1.11,3.16c-0.3,0.81-0.64,1.67-1.03,2.48c-0.09,0.26-0.21,0.56-0.34,0.81l-0.13-0.04l-0.09-0.04
			l-179.97-87.31c-1.11-0.51-2.43-0.17-3.12,0.85l-24.18,36.1l-64.42-79.16c-0.9-1.03-2.43-1.2-3.46-0.3l-89.49,75.01l-42.42-4.06
			c-0.68-0.09-1.37,0-2.01,0.3c-11.66,5.25-129.18,58.48-135.88,61.51c-0.3-0.56-0.56-1.07-0.77-1.62
			c-0.34-0.77-0.68-1.58-1.03-2.39c-0.68-1.62-1.32-3.29-1.84-4.91c-0.34-0.98-0.64-1.92-0.9-2.9c-0.98-3.16-1.67-6.36-2.14-9.61
			c-0.34-2.14-0.56-4.31-0.68-6.49c-0.09-1.32-0.13-2.69-0.13-4.06c0-76.68,125.08-138.87,279.42-138.87
			C694.34,270.37,819.42,332.57,819.42,409.25z"/>
		<g>
			<path class="st11" d="M384.98,482.93c0.38,0,0.75-0.08,1.11-0.23c0.36-0.15,0.58-0.37,0.68-0.66h0.82l-1.43,5.45
				c-0.24,0.76-0.94,1.14-2.1,1.14h-2.1l-3.99,16.97c-0.05,0.24,0.06,0.48,0.32,0.73c0.26,0.25,0.52,0.38,0.78,0.38l-0.25,0.82
				h-9.91c-0.76,0-1.14-0.38-1.14-1.14c0-0.1,0.02-0.29,0.07-0.57l4.03-17.19h-2.46c-0.38,0-0.69,0.09-0.94,0.27
				c-0.25,0.18-0.42,0.41-0.52,0.7h-0.89l1.43-5.7c0.09-0.33,0.28-0.58,0.57-0.73c0.29-0.15,0.74-0.23,1.36-0.23H384.98z"/>
			<path class="st11" d="M396.43,507.53c-0.62,0-1.08-0.1-1.37-0.3c-0.3-0.2-0.47-0.55-0.52-1.05l-0.32-3.64h-4.14l-1.46,2.92
				c-0.02,0.07-0.04,0.13-0.04,0.18s-0.01,0.14-0.04,0.29c0,0.21,0.1,0.4,0.3,0.55c0.2,0.15,0.43,0.23,0.7,0.23l-0.18,0.82h-7.74
				c-1,0-1.5-0.39-1.5-1.18c0-0.21,0.06-0.44,0.18-0.68l10.48-20.32c0.07-0.14,0.11-0.32,0.11-0.54c0-0.26-0.11-0.5-0.34-0.73
				c-0.23-0.23-0.47-0.34-0.73-0.34l0.21-0.82h10.63c0.55,0,1.01,0.15,1.39,0.45c0.38,0.3,0.57,0.72,0.57,1.27l1.64,20.82
				c0,0.31,0.17,0.59,0.5,0.86c0.33,0.26,0.68,0.39,1.03,0.39l-0.18,0.82H396.43z M392.19,497.76h2.03l-0.29-3.99L392.19,497.76z"/>
			<path class="st11" d="M404.1,485.14c-0.05-0.43-0.21-0.77-0.48-1.02c-0.27-0.25-0.58-0.38-0.91-0.38l0.18-0.82h9.95
				c0.31,0,0.6,0.15,0.89,0.47c0.29,0.31,0.43,0.64,0.43,1l0.29,9.34l3.49-8.17l0.14-0.57c0-0.29-0.1-0.57-0.3-0.84
				c-0.2-0.27-0.43-0.41-0.69-0.41l0.18-0.82h7.24c0.43,0,0.78,0.16,1.05,0.48c0.27,0.32,0.41,0.66,0.41,1.02l-0.14,0.71
				l-10.48,22.39h-6.67c-0.55,0-1-0.12-1.36-0.36c-0.36-0.24-0.57-0.56-0.64-0.96L404.1,485.14z"/>
			<path class="st11" d="M434.51,507.53c-0.62,0-1.08-0.1-1.37-0.3c-0.3-0.2-0.47-0.55-0.52-1.05l-0.32-3.64h-4.14l-1.46,2.92
				c-0.02,0.07-0.04,0.13-0.04,0.18s-0.01,0.14-0.04,0.29c0,0.21,0.1,0.4,0.3,0.55c0.2,0.15,0.43,0.23,0.7,0.23l-0.18,0.82h-7.74
				c-1,0-1.5-0.39-1.5-1.18c0-0.21,0.06-0.44,0.18-0.68l10.48-20.32c0.07-0.14,0.11-0.32,0.11-0.54c0-0.26-0.11-0.5-0.34-0.73
				c-0.23-0.23-0.47-0.34-0.73-0.34l0.21-0.82h10.63c0.55,0,1.01,0.15,1.39,0.45c0.38,0.3,0.57,0.72,0.57,1.27l1.64,20.82
				c0,0.31,0.17,0.59,0.5,0.86c0.33,0.26,0.68,0.39,1.03,0.39l-0.18,0.82H434.51z M430.27,497.76h2.03l-0.29-3.99L430.27,497.76z"/>
			<path class="st11" d="M467.85,507.53h-6.49c-0.71,0-1.31-0.1-1.8-0.29c-0.49-0.19-0.8-0.53-0.94-1.03l-3.64-8.81l-2.07,7.95
				l-0.07,0.61c0,0.24,0.1,0.42,0.3,0.55c0.2,0.13,0.47,0.2,0.8,0.2l-0.18,0.82h-8.02c-0.4,0-0.71-0.11-0.91-0.34
				c-0.2-0.23-0.3-0.53-0.3-0.91c0-0.14,0.02-0.33,0.07-0.57l4.85-20.86c0.05-0.26-0.05-0.51-0.29-0.75s-0.5-0.36-0.78-0.36
				l0.21-0.82h9.06c0.29,0,0.61,0.14,0.98,0.41c0.37,0.27,0.61,0.57,0.73,0.87l3.85,8.98l1.71-7.7c0.05-0.14,0.07-0.37,0.07-0.68
				c0-0.28-0.12-0.53-0.36-0.75c-0.24-0.21-0.5-0.32-0.78-0.32l0.21-0.82h7.99c0.38,0,0.67,0.13,0.87,0.39
				c0.2,0.26,0.3,0.56,0.3,0.89l-0.11,0.96L467.85,507.53z"/>
			<path class="st11" d="M505.55,482.89c1.59,0,2.82,0.42,3.69,1.25c0.87,0.83,1.3,1.88,1.3,3.14c0,0.19-0.02,0.4-0.05,0.64
				c-0.04,0.24-0.06,0.42-0.09,0.54c-0.55,2.61-1.66,4.19-3.35,4.74c0.69,0.43,1.2,0.9,1.51,1.41c0.32,0.51,0.48,1.26,0.48,2.26
				c0,0.9-0.18,2.16-0.53,3.78c-0.62,2.69-1.57,4.53-2.85,5.53c-1.16,0.9-2.96,1.36-5.38,1.36h-14.15c-0.4,0-0.71-0.11-0.91-0.34
				c-0.2-0.23-0.3-0.53-0.3-0.91c0-0.14,0.02-0.33,0.07-0.57l4.85-20.86c0.05-0.26-0.05-0.51-0.29-0.75
				c-0.24-0.24-0.5-0.36-0.78-0.36l0.21-0.82L505.55,482.89z M497.17,502c0.64,0,1.09-0.15,1.34-0.44c0.25-0.3,0.49-0.97,0.73-2.01
				c0.17-0.67,0.25-1.21,0.25-1.64c0-0.81-0.44-1.21-1.32-1.21h-1l-1.21,5.31H497.17z M499.7,491.95c0.4,0,0.69-0.11,0.86-0.34
				c0.17-0.23,0.32-0.64,0.46-1.23c0.14-0.59,0.21-1.02,0.21-1.28c0-0.62-0.35-0.93-1.03-0.93h-1.07l-0.86,3.78H499.7z"/>
			<path class="st11" d="M527.16,482.93c2.09,0,3.81,0.54,5.17,1.62c1.36,1.08,2.03,2.61,2.03,4.58c0,0.71-0.08,1.4-0.25,2.07
				l-2.14,9.06c-0.62,2.69-1.69,4.6-3.21,5.74c-1.33,1.02-3.16,1.53-5.49,1.53h-7.31c-2.23,0-3.89-0.5-4.97-1.51
				c-1.08-1.01-1.62-2.5-1.62-4.48c0-1.16,0.15-2.38,0.46-3.64l1.57-6.74c0.62-2.59,1.51-4.53,2.67-5.81
				c1.5-1.62,3.6-2.43,6.31-2.43H527.16z M519.46,499.9c-0.07,0.33-0.11,0.62-0.11,0.86c0,0.59,0.33,0.89,1,0.89
				c0.45,0,0.79-0.1,1.02-0.3s0.4-0.56,0.52-1.09l2.35-10.02c0.05-0.29,0.07-0.48,0.07-0.57c0-0.69-0.34-1.03-1.03-1.03
				c-0.76,0-1.27,0.48-1.53,1.43L519.46,499.9z"/>
			<path class="st11" d="M546.49,496.87l0.07-0.46c0-0.21-0.14-0.32-0.43-0.32c-0.28,0-0.43-0.12-0.43-0.36l0.07-0.46l1.03-4.24
				h7.88c0.57,0,1.02,0.17,1.34,0.52c0.32,0.35,0.48,0.73,0.48,1.16c0,0.55-0.05,1-0.14,1.36l-1.89,8.38
				c-0.43,1.9-1.08,3.23-1.96,3.98c-0.88,0.75-2.35,1.12-4.42,1.12h-8.63c-2.4,0-4.12-0.46-5.17-1.39c-0.93-0.83-1.39-2.1-1.39-3.81
				c0-1.09,0.19-2.42,0.57-3.99l1.96-8.59c0.5-2.23,1.46-3.96,2.89-5.17c1.31-1.12,2.81-1.68,4.49-1.68h14.58
				c-0.07,0.71-0.2,1.44-0.39,2.18s-0.4,1.34-0.62,1.82c-0.23,0.48-0.57,0.82-1.03,1.03c-0.46,0.21-0.99,0.32-1.59,0.32h-6.02
				c-0.67,0-1.18,0.16-1.55,0.48c-0.37,0.32-0.64,0.85-0.8,1.59l-2.32,9.98c-0.05,0.33-0.07,0.55-0.07,0.64
				c0,0.59,0.37,0.89,1.11,0.89c0.83,0,1.34-0.44,1.53-1.32L546.49,496.87z"/>
			<path class="st11" d="M573.84,482.93c2.4,0,4.15,0.62,5.24,1.85c0.97,1.12,1.46,2.76,1.46,4.92c0,0.83-0.08,1.76-0.23,2.8
				c-0.15,1.03-0.38,2.12-0.66,3.26c-1.12,4.73-2.22,7.87-3.3,9.43c-1.08,1.56-2.66,2.34-4.72,2.34h-15.9
				c-0.4,0-0.71-0.11-0.91-0.34c-0.2-0.23-0.3-0.53-0.3-0.91c0-0.14,0.03-0.33,0.07-0.57l4.85-20.86c0.05-0.26-0.05-0.51-0.28-0.75
				s-0.5-0.36-0.78-0.36l0.21-0.82H573.84z M566.85,501.65c0.5,0,0.88-0.14,1.14-0.43c0.26-0.28,0.48-0.77,0.64-1.46l2.07-8.88
				c0.1-0.4,0.14-0.78,0.14-1.14c0-0.74-0.43-1.11-1.28-1.11h-0.89l-3.03,13.02H566.85z"/>
			<path class="st11" d="M606.22,496.87l0.07-0.46c0-0.21-0.14-0.32-0.43-0.32c-0.28,0-0.43-0.12-0.43-0.36l0.07-0.46l1.03-4.24
				h7.88c0.57,0,1.02,0.17,1.34,0.52c0.32,0.35,0.48,0.73,0.48,1.16c0,0.55-0.05,1-0.14,1.36l-1.89,8.38
				c-0.43,1.9-1.08,3.23-1.96,3.98c-0.88,0.75-2.35,1.12-4.42,1.12h-8.63c-2.4,0-4.12-0.46-5.17-1.39c-0.93-0.83-1.39-2.1-1.39-3.81
				c0-1.09,0.19-2.42,0.57-3.99l1.96-8.59c0.5-2.23,1.46-3.96,2.89-5.17c1.31-1.12,2.81-1.68,4.49-1.68h14.58
				c-0.07,0.71-0.2,1.44-0.39,2.18s-0.4,1.34-0.62,1.82c-0.23,0.48-0.57,0.82-1.03,1.03c-0.46,0.21-0.99,0.32-1.59,0.32h-6.02
				c-0.67,0-1.18,0.16-1.55,0.48c-0.37,0.32-0.64,0.85-0.8,1.59l-2.32,9.98c-0.05,0.33-0.07,0.55-0.07,0.64
				c0,0.59,0.37,0.89,1.11,0.89c0.83,0,1.34-0.44,1.53-1.32L606.22,496.87z"/>
			<path class="st11" d="M636.46,500.75c0.17,0.29,0.39,0.53,0.68,0.73c0.28,0.2,0.6,0.3,0.96,0.3h1.03l-0.86,4.07
				c-0.24,1.12-1.1,1.67-2.57,1.67h-4.78c-0.62,0-1.15-0.16-1.6-0.48c-0.45-0.32-0.74-0.72-0.86-1.19l-2.07-7.28l-1.53,6.95
				l-0.04,0.36c0,0.24,0.1,0.43,0.3,0.59c0.2,0.15,0.46,0.23,0.77,0.23l-0.18,0.82h-9.88c-0.4,0-0.71-0.11-0.91-0.34
				c-0.2-0.23-0.3-0.53-0.3-0.91c0-0.14,0.03-0.33,0.07-0.57l4.85-20.86c0.05-0.26-0.05-0.51-0.28-0.75s-0.5-0.36-0.78-0.36
				l0.21-0.82h16.51c3.71,0,5.56,1.72,5.56,5.17c0,0.48-0.02,0.89-0.07,1.25c-0.12,0.62-0.2,1.09-0.25,1.43
				c-0.48,2.14-1.11,3.71-1.89,4.71c-0.78,1-1.9,1.66-3.35,2L636.46,500.75z M627.8,492.87h1.39c0.81,0,1.37-0.68,1.67-2.03
				c0.05-0.26,0.1-0.52,0.14-0.77c0.05-0.25,0.07-0.46,0.07-0.63c0-0.67-0.29-1-0.86-1h-1.39L627.8,492.87z"/>
			<path class="st11" d="M657.25,482.93c2.09,0,3.82,0.54,5.17,1.62c1.36,1.08,2.03,2.61,2.03,4.58c0,0.71-0.08,1.4-0.25,2.07
				l-2.14,9.06c-0.62,2.69-1.69,4.6-3.21,5.74c-1.33,1.02-3.16,1.53-5.49,1.53h-7.31c-2.23,0-3.89-0.5-4.97-1.51
				c-1.08-1.01-1.62-2.5-1.62-4.48c0-1.16,0.15-2.38,0.46-3.64l1.57-6.74c0.62-2.59,1.51-4.53,2.67-5.81
				c1.5-1.62,3.6-2.43,6.31-2.43H657.25z M649.55,499.9c-0.07,0.33-0.11,0.62-0.11,0.86c0,0.59,0.33,0.89,1,0.89
				c0.45,0,0.79-0.1,1.02-0.3s0.4-0.56,0.52-1.09l2.35-10.02c0.05-0.29,0.07-0.48,0.07-0.57c0-0.69-0.34-1.03-1.03-1.03
				c-0.76,0-1.27,0.48-1.53,1.43L649.55,499.9z"/>
			<path class="st11" d="M673.62,500.11c-0.05,0.24-0.07,0.38-0.07,0.43c0,0.52,0.4,0.78,1.21,0.78c0.45,0,0.78-0.08,0.98-0.23
				c0.2-0.16,0.36-0.48,0.48-0.98l3.53-15.26c0.05-0.24-0.05-0.48-0.29-0.73c-0.24-0.25-0.49-0.38-0.75-0.38l0.18-0.82h9.91
				c0.4,0,0.69,0.1,0.87,0.3c0.18,0.2,0.27,0.49,0.27,0.87l-0.07,0.54l-3.6,15.62c-0.62,2.71-1.63,4.62-3.03,5.74
				c-1.26,1-3.03,1.5-5.31,1.5h-8.17c-2.16,0-3.75-0.48-4.76-1.44c-1.01-0.96-1.51-2.38-1.51-4.26c0-1.14,0.18-2.45,0.53-3.92
				l3.03-13.02c0.05-0.24-0.05-0.48-0.28-0.73c-0.24-0.25-0.49-0.38-0.75-0.38l0.18-0.82h9.91c0.4,0,0.69,0.1,0.87,0.3
				c0.18,0.2,0.27,0.49,0.27,0.87l-0.07,0.54L673.62,500.11z"/>
			<path class="st11" d="M706.32,482.93c2.19,0,3.84,0.44,4.96,1.32c1.12,0.88,1.68,2.27,1.68,4.17c0,0.52-0.03,1-0.07,1.43
				c-0.05,0.43-0.15,0.96-0.32,1.6c-0.76,3.28-1.62,5.45-2.57,6.51c-0.95,1.06-2.51,1.59-4.67,1.59h-7.34l-1.32,5.6l-0.11,0.68
				c0,0.26,0.11,0.47,0.32,0.64c0.21,0.17,0.47,0.25,0.75,0.25l-0.21,0.82h-9.84c-0.4,0-0.71-0.11-0.91-0.34
				c-0.2-0.23-0.3-0.53-0.3-0.91c0-0.14,0.02-0.33,0.07-0.57l4.85-20.86c0.05-0.26-0.05-0.51-0.29-0.75
				c-0.24-0.24-0.5-0.36-0.78-0.36l0.21-0.82H706.32z M699.33,493.84h1.11c0.59,0,1.03-0.18,1.32-0.55
				c0.29-0.37,0.55-1.08,0.78-2.12c0.14-0.62,0.21-1.11,0.21-1.46c0-0.48-0.1-0.8-0.3-0.98c-0.2-0.18-0.5-0.27-0.91-0.27h-0.96
				L699.33,493.84z"/>
		</g>
	</g>
	<g>
		<path class="st138" d="M144.57,799.08l16.65-18.42l-9.87-18.02h5.14l4.5,8.26c1.62,2.94,2.74,5.18,3.4,6.71
			c1.14-1.6,2.96-3.78,5.44-6.54l7.67-8.43h6.09l-16.87,18.83l9.55,17.62l-5.06-0.01l-5.65-10.67c-0.54-1.04-1.18-2.38-1.92-4.01
			c-0.8,1.11-1.85,2.39-3.15,3.85l-9.73,10.84H144.57L144.57,799.08z M197.19,795.8c-2.76,2.59-5.66,3.88-8.71,3.88
			c-2.27,0-4.13-0.7-5.6-2.09c-1.47-1.39-2.2-3.23-2.2-5.51c0-2.72,0.95-4.82,2.86-6.3c1.96-1.52,4.84-2.28,8.62-2.28l2.28-0.1
			c1.08,0,2.05-0.08,2.89-0.24c0.85-0.15,1.55-0.36,2.1-0.63c0.33-1.23,0.5-2.29,0.5-3.18c0-1.04-0.46-1.9-1.39-2.57
			c-0.93-0.67-2.28-1.01-4.06-1.01c-3.56,0-5.88,1.6-6.98,4.82l-4.35-0.4c1.8-5.41,5.64-8.1,11.51-8.1c2.83,0,5.12,0.63,6.88,1.89
			c1.76,1.26,2.64,2.91,2.64,4.97c0,1.41-0.19,3.04-0.59,4.9l-1.4,6.56c-0.23,1.13-0.39,2.09-0.5,2.86
			c-0.11,0.78-0.17,1.5-0.17,2.16c0,1.18,0.18,2.4,0.53,3.66h-4.35c-0.15-0.47-0.26-0.98-0.36-1.54
			C197.24,796.98,197.19,796.39,197.19,795.8L197.19,795.8z M198.78,785.71c-1.02,0.39-2.41,0.68-4.16,0.87l-2.48,0.25
			c-1.4,0-2.62,0.18-3.66,0.53c-0.93,0.3-1.64,0.71-2.14,1.24c-0.92,0.92-1.38,2.01-1.38,3.28c0,1.25,0.42,2.27,1.27,3.1
			c0.85,0.82,2,1.23,3.46,1.23c2.06,0,3.94-0.76,5.63-2.27C197.01,792.43,198.16,789.69,198.78,785.71L198.78,785.71z
			 M212.56,772.68h6.4l2.38,21.06l11.73-21.06h6.28l-5.4,26.4h-4.26l4.4-21.28l-11.85,21.28h-3.82l-2.5-22.1l-4.52,22.1h-4.26
			L212.56,772.68L212.56,772.68z M240.54,799.08l5.28-26.4h4.31l-0.89,4.34c2.68-3.3,5.46-4.95,8.33-4.95
			c1.66,0,3.01,0.42,4.04,1.25c0.98,0.77,1.67,2.01,2.05,3.7c1.25-1.62,2.6-2.85,4.04-3.69c1.45-0.84,2.94-1.26,4.5-1.26
			c2.08,0,3.65,0.5,4.72,1.5c1.07,1,1.61,2.5,1.61,4.49c0,0.87-0.19,2.2-0.55,4l-3.41,17h-4.3l3.48-17.45
			c0.15-0.73,0.25-1.34,0.33-1.83c0.08-0.5,0.12-0.91,0.12-1.22c0-0.92-0.25-1.62-0.75-2.09c-0.5-0.47-1.25-0.7-2.25-0.7
			c-1.46,0-2.89,0.49-4.29,1.48c-1.4,0.99-2.42,2.16-3.07,3.52c-0.57,1.29-1.1,3.12-1.62,5.49l-2.58,12.8h-4.3l3.57-17.83
			c0.25-1.27,0.38-2.14,0.38-2.58c0-0.9-0.28-1.6-0.81-2.11c-0.54-0.52-1.2-0.77-1.97-0.77c-0.73,0-1.45,0.13-2.15,0.37
			c-0.71,0.25-1.43,0.63-2.16,1.17c-1.4,1.01-2.47,2.27-3.18,3.77c-0.65,1.41-1.22,3.24-1.69,5.49l-2.5,12.48H240.54L240.54,799.08z
			 M311.48,772.68h4.35l-5.46,26.4h-4.33L311.48,772.68L311.48,772.68z M286.57,772.68h4.3l-2.16,10.21h4.6
			c2.91,0,4.99,0.22,6.24,0.67c1.24,0.45,2.23,1.26,2.96,2.45c0.73,1.19,1.1,2.5,1.1,3.96c0,0.88-0.12,1.73-0.36,2.56
			c-0.24,0.83-0.61,1.66-1.12,2.49c-0.95,1.6-2.14,2.66-3.58,3.22c-1.43,0.55-3.65,0.83-6.68,0.83h-10.75L286.57,772.68
			L286.57,772.68z M286.12,795.5h5.49c2.12,0,3.63-0.15,4.52-0.45c0.89-0.3,1.65-0.84,2.25-1.64c0.6-0.8,0.9-1.75,0.9-2.86
			c0-1.01-0.27-1.87-0.79-2.55c-0.54-0.69-1.15-1.1-1.84-1.26c-0.32-0.07-0.81-0.12-1.47-0.17c-0.66-0.05-1.43-0.08-2.32-0.08h-4.9
			L286.12,795.5L286.12,795.5z M322.38,772.68h4.26l-2.28,11h11.73l2.23-11h4.21l-5.32,26.4h-4.29l2.44-11.81h-11.69l-2.44,11.81
			h-4.25L322.38,772.68L322.38,772.68z M355.66,799.08l11-13.4l-6.31-13h4.76l2.14,4.69c0.92,2.09,1.63,3.77,2.14,5.05l7.28-9.74
			h5.25l-10.61,13.35l6.38,13.05l-4.77,0.01l-2.52-5.38c-0.32-0.7-0.61-1.35-0.88-1.96c-0.19-0.45-0.51-1.21-0.95-2.29l-7.52,9.62
			H355.66L355.66,799.08z M388.11,799.08l-4.17-26.4h4.17l2.19,14.53c0.23,1.46,0.52,4.06,0.88,7.79c0.82-1.91,1.88-4.06,3.15-6.45
			l8.45-15.87h4.55l-14.46,26.4l-3,10.44l-4.36,0.11L388.11,799.08L388.11,799.08z M409.98,772.68h4.23l-0.9,4.42
			c-0.58,2.78-0.86,4.74-0.86,5.89c0,1.15,0.42,2.01,1.26,2.61c0.84,0.59,2.1,0.89,3.78,0.89c2.03,0,3.91-0.37,5.66-1.11l2.6-12.7
			h4.28l-5.38,26.4h-4.3l2.07-10.11c-2.14,0.74-4.14,1.11-6,1.11c-2.55,0-4.57-0.57-6.05-1.71c-1.49-1.15-2.22-2.77-2.22-4.87
			c0-0.88,0.38-3.33,1.15-7.33L409.98,772.68L409.98,772.68z M445.23,788.14l0.9-4.5h13.13l-0.88,4.5H445.23L445.23,788.14z
			 M472.02,799.08l19.77-36.44h5.5l5.76,36.44h-4.53l-1.68-10.49h-14.1l-5.59,10.5L472.02,799.08L472.02,799.08z M484.7,784.84
			h11.54l-1.35-9.16c-0.31-2.21-0.54-3.89-0.68-5.07c-0.19-1.61-0.28-2.94-0.28-4c-0.81,2.14-1.97,4.62-3.48,7.43L484.7,784.84
			L484.7,784.84z M512.48,772.68h6.4l2.38,21.06L533,772.68h6.28l-5.4,26.4h-4.26l4.4-21.28l-11.85,21.28h-3.82l-2.5-22.1
			l-4.51,22.1h-4.26L512.48,772.68L512.48,772.68z M557.25,772.68h4.19l-2.35,11.28l0.33,0.03c0.91,0,1.77-0.4,2.59-1.21
			c0.81-0.81,1.86-2.3,3.13-4.49c1.38-2.37,2.63-3.89,3.76-4.58c1.13-0.69,2.29-1.03,3.5-1.03c0.84,0,1.72,0.15,2.66,0.45
			l-0.97,2.68c-0.58-0.23-1.05-0.35-1.43-0.35c-0.71,0-1.34,0.26-1.88,0.77c-0.54,0.52-1.23,1.58-2.06,3.17
			c-1.75,3.28-3.71,5.3-5.89,6.07c0.76,0.28,1.48,0.74,2.15,1.37c0.68,0.63,1.38,1.89,2.11,3.8l3.17,8.43h-4.43l-2.49-6.71
			c-0.76-2.09-1.45-3.5-2.09-4.23c-0.63-0.74-1.53-1.21-2.69-1.41l-2.57,12.35h-4.23l2.54-12.35c-0.44,0-0.85,0.07-1.23,0.2
			c-0.38,0.14-0.79,0.34-1.22,0.63c-0.77,0.51-2.06,1.99-3.85,4.45l-5.22,7.08l-5.22,0.01l6.68-8.8c1.95-2.57,4.04-4.17,6.28-4.79
			c-0.97-0.64-1.68-1.39-2.13-2.27c-0.46-0.88-0.91-2.49-1.33-4.84c-0.2-1.15-0.43-1.92-0.71-2.32c-0.28-0.4-0.68-0.59-1.23-0.59
			c-0.4,0-1.01,0.12-1.83,0.35l0.28-2.86c0.35-0.08,0.71-0.14,1.1-0.19c0.38-0.05,0.76-0.08,1.13-0.08c1.5,0,2.57,0.44,3.22,1.32
			c0.65,0.81,1.21,2.33,1.67,4.56c0.47,2.23,0.98,3.69,1.52,4.39c0.55,0.69,1.42,1.03,2.62,1.03L557.25,772.68L557.25,772.68z
			 M591.27,794.3c-3.03,3.58-6.1,5.37-9.21,5.37c-1.9,0-3.48-0.56-4.73-1.68c-1.25-1.12-1.88-2.55-1.88-4.29
			c0-1.2,0.27-3.12,0.8-5.8l3.05-15.23h4.31l-3.38,16.88c-0.28,1.39-0.43,2.5-0.43,3.33c0,1.01,0.29,1.79,0.85,2.33
			c0.59,0.52,1.44,0.77,2.55,0.77c1.65,0,3.22-0.55,4.7-1.66c1.48-1.11,2.57-2.43,3.26-3.98c0.65-1.47,1.26-3.55,1.81-6.26
			l2.28-11.4h4.3l-5.28,26.4h-3.97L591.27,794.3L591.27,794.3z M608.32,772.68h19.03l-5.38,26.4h-4.28l4.71-22.65h-10.61
			l-3.26,15.74c-0.55,2.7-1.3,4.58-2.23,5.65c-0.93,1.07-2.23,1.6-3.88,1.6c-0.5,0-1.06-0.03-1.65-0.08
			c-0.6-0.05-1.31-0.14-2.14-0.27l0.79-3.72l1.81,0.07c1.09,0,1.8-0.27,2.13-0.82c0.32-0.54,0.82-2.3,1.49-5.26L608.32,772.68
			L608.32,772.68z M628.56,799.08l5.28-26.4h4.31l-0.89,4.34c2.68-3.3,5.46-4.95,8.33-4.95c1.67,0,3.01,0.42,4.04,1.25
			c0.98,0.77,1.67,2.01,2.05,3.7c1.25-1.62,2.6-2.85,4.04-3.69c1.45-0.84,2.94-1.26,4.5-1.26c2.08,0,3.65,0.5,4.72,1.5
			c1.07,1,1.61,2.5,1.61,4.49c0,0.87-0.19,2.2-0.55,4l-3.41,17h-4.3l3.48-17.45c0.15-0.73,0.25-1.34,0.33-1.83
			c0.08-0.5,0.12-0.91,0.12-1.22c0-0.92-0.25-1.62-0.75-2.09c-0.5-0.47-1.25-0.7-2.25-0.7c-1.46,0-2.89,0.49-4.29,1.48
			c-1.4,0.99-2.42,2.16-3.07,3.52c-0.57,1.29-1.1,3.12-1.62,5.49l-2.58,12.8h-4.3l3.57-17.83c0.25-1.27,0.38-2.14,0.38-2.58
			c0-0.9-0.28-1.6-0.81-2.11c-0.54-0.52-1.2-0.77-1.97-0.77c-0.73,0-1.45,0.13-2.15,0.37c-0.71,0.25-1.43,0.63-2.16,1.17
			c-1.41,1.01-2.47,2.27-3.18,3.77c-0.65,1.41-1.22,3.24-1.69,5.49l-2.5,12.48H628.56L628.56,799.08z M699.5,772.68h4.35l-5.46,26.4
			h-4.33L699.5,772.68L699.5,772.68z M674.59,772.68h4.3l-2.16,10.21h4.6c2.92,0,4.99,0.22,6.24,0.67c1.24,0.45,2.23,1.26,2.96,2.45
			c0.73,1.19,1.1,2.5,1.1,3.96c0,0.88-0.12,1.73-0.36,2.56c-0.24,0.83-0.61,1.66-1.12,2.49c-0.95,1.6-2.14,2.66-3.58,3.22
			c-1.43,0.55-3.65,0.83-6.68,0.83h-10.75L674.59,772.68L674.59,772.68z M674.14,795.5h5.49c2.12,0,3.63-0.15,4.52-0.45
			c0.89-0.3,1.65-0.84,2.25-1.64c0.6-0.8,0.9-1.75,0.9-2.86c0-1.01-0.27-1.87-0.8-2.55c-0.54-0.69-1.15-1.1-1.84-1.26
			c-0.32-0.07-0.81-0.12-1.47-0.17c-0.66-0.05-1.43-0.08-2.32-0.08h-4.9L674.14,795.5L674.14,795.5z M710.4,772.68h4.26l-2.28,11
			h11.73l2.23-11h4.21l-5.32,26.4h-4.29l2.44-11.81h-11.69l-2.44,11.81H705L710.4,772.68L710.4,772.68z M745.35,799.08l5.28-26.4
			h4.31l-0.89,4.34c2.68-3.3,5.46-4.95,8.33-4.95c1.67,0,3.01,0.42,4.04,1.25c0.98,0.77,1.67,2.01,2.05,3.7
			c1.25-1.62,2.6-2.85,4.04-3.69c1.45-0.84,2.94-1.26,4.5-1.26c2.08,0,3.65,0.5,4.72,1.5c1.07,1,1.61,2.5,1.61,4.49
			c0,0.87-0.19,2.2-0.55,4l-3.41,17h-4.3l3.48-17.45c0.15-0.73,0.25-1.34,0.33-1.83c0.08-0.5,0.12-0.91,0.12-1.22
			c0-0.92-0.25-1.62-0.75-2.09c-0.5-0.47-1.25-0.7-2.25-0.7c-1.46,0-2.89,0.49-4.29,1.48c-1.4,0.99-2.42,2.16-3.07,3.52
			c-0.57,1.29-1.1,3.12-1.62,5.49l-2.58,12.8h-4.3l3.57-17.83c0.25-1.27,0.38-2.14,0.38-2.58c0-0.9-0.28-1.6-0.81-2.11
			c-0.54-0.52-1.2-0.77-1.97-0.77c-0.73,0-1.45,0.13-2.15,0.37c-0.71,0.25-1.43,0.63-2.16,1.17c-1.41,1.01-2.47,2.27-3.18,3.77
			c-0.65,1.41-1.22,3.24-1.69,5.49l-2.5,12.48H745.35L745.35,799.08z M792.36,799.08l-4.17-26.4h4.17l2.19,14.53
			c0.23,1.46,0.52,4.06,0.88,7.79c0.82-1.91,1.88-4.06,3.15-6.45l8.45-15.87h4.55l-14.46,26.4l-3,10.44l-4.36,0.11L792.36,799.08
			L792.36,799.08z M817.54,772.68h19.03l-5.38,26.4h-4.28l4.71-22.65H821l-3.26,15.74c-0.55,2.7-1.3,4.58-2.23,5.65
			c-0.93,1.07-2.23,1.6-3.88,1.6c-0.5,0-1.06-0.03-1.65-0.08c-0.6-0.05-1.31-0.14-2.14-0.27l0.79-3.72l1.81,0.07
			c1.09,0,1.8-0.27,2.13-0.82c0.32-0.54,0.82-2.3,1.49-5.26L817.54,772.68L817.54,772.68z M836.11,799.08l11-13.4l-6.31-13h4.76
			l2.14,4.69c0.92,2.09,1.63,3.77,2.14,5.05l7.28-9.74h5.25l-10.61,13.35l6.37,13.05l-4.77,0.01l-2.52-5.38
			c-0.32-0.7-0.61-1.35-0.88-1.96c-0.2-0.45-0.51-1.21-0.95-2.29l-7.52,9.62H836.11L836.11,799.08z M868.56,799.08l-4.17-26.4h4.17
			l2.19,14.53c0.23,1.46,0.52,4.06,0.88,7.79c0.82-1.91,1.88-4.06,3.15-6.45l8.45-15.87h4.55l-14.46,26.4l-3,10.44l-4.36,0.11
			L868.56,799.08L868.56,799.08z M892.92,799.08l-4.17-26.4h4.17l2.19,14.53c0.23,1.46,0.52,4.06,0.88,7.79
			c0.82-1.91,1.88-4.06,3.15-6.45l8.45-15.87h4.55l-14.46,26.4l-3,10.44l-4.36,0.11L892.92,799.08L892.92,799.08z M908.86,809.19
			l7.3-36.51h3.98l-0.74,3.67c2.53-2.85,5.1-4.28,7.68-4.28c2.38,0,4.36,0.92,5.96,2.77c1.59,1.84,2.39,4.47,2.39,7.87
			c0,4.64-1.24,8.63-3.74,11.95c-2.49,3.34-5.38,5-8.66,5c-3.01,0-5.34-1.6-7.02-4.82l-2.84,14.34H908.86L908.86,809.19z
			 M917.33,789.18c0,2.27,0.54,3.98,1.61,5.11c1.08,1.14,2.4,1.7,3.95,1.7c2.49,0,4.49-1.48,6-4.45c1.5-2.97,2.26-5.96,2.26-8.98
			c0-1.79-0.45-3.38-1.36-4.77c-0.9-1.39-2.23-2.09-3.97-2.09c-2.43,0-4.45,1.43-6.07,4.28
			C918.14,782.86,917.33,785.92,917.33,789.18L917.33,789.18z"/>
	</g>
	<g>
		
			<linearGradient id="SVGID_00000067927423262139428530000000187304267168247173_" gradientUnits="userSpaceOnUse" x1="250.7138" y1="554.9728" x2="250.7138" y2="649.5506">
			<stop  offset="0" style="stop-color:#3E76BB"/>
			<stop  offset="0.9672" style="stop-color:#06509E"/>
		</linearGradient>
		<path style="fill:url(#SVGID_00000067927423262139428530000000187304267168247173_);" d="M274.86,569.62
			c1.2,0,2.36-0.24,3.48-0.73c1.12-0.49,1.83-1.18,2.13-2.08h2.58L278.57,584c-0.75,2.4-2.96,3.59-6.63,3.59h-6.63l-12.58,53.46
			c-0.15,0.75,0.19,1.51,1.01,2.3c0.82,0.78,1.65,1.18,2.47,1.18l-0.79,2.58h-31.22c-2.4,0-3.59-1.2-3.59-3.59
			c0-0.3,0.08-0.9,0.23-1.8l12.69-54.13h-7.75c-1.2,0-2.19,0.28-2.97,0.84c-0.79,0.56-1.33,1.29-1.63,2.19h-2.81l4.49-17.97
			c0.3-1.05,0.9-1.81,1.8-2.3c0.9-0.49,2.32-0.73,4.27-0.73H274.86z"/>
		
			<linearGradient id="SVGID_00000124158149828560903130000002105784011078331820_" gradientUnits="userSpaceOnUse" x1="292.9255" y1="554.9728" x2="292.9255" y2="649.5506">
			<stop  offset="0" style="stop-color:#3E76BB"/>
			<stop  offset="0.9672" style="stop-color:#06509E"/>
		</linearGradient>
		<path style="fill:url(#SVGID_00000124158149828560903130000002105784011078331820_);" d="M303.82,647.12
			c-1.95,0-3.39-0.32-4.33-0.95c-0.93-0.64-1.48-1.74-1.63-3.31l-1.01-11.46h-13.03l-4.6,9.21c-0.08,0.23-0.11,0.41-0.11,0.56
			c0,0.15-0.04,0.45-0.11,0.9c0,0.67,0.32,1.25,0.95,1.74c0.64,0.49,1.37,0.73,2.19,0.73l-0.56,2.58h-24.37
			c-3.14,0-4.72-1.24-4.72-3.71c0-0.68,0.19-1.39,0.56-2.13l33.02-64.01c0.22-0.45,0.33-1.01,0.33-1.69c0-0.82-0.35-1.59-1.07-2.3
			c-0.71-0.71-1.48-1.07-2.3-1.07l0.67-2.58h33.47c1.72,0,3.18,0.47,4.38,1.41c1.2,0.93,1.8,2.26,1.8,3.98l5.17,65.59
			c0,0.97,0.52,1.87,1.57,2.7c1.05,0.83,2.13,1.24,3.26,1.24l-0.56,2.58H303.82z M290.45,616.34h6.4l-0.9-12.58L290.45,616.34z"/>
		
			<linearGradient id="SVGID_00000128453629892397103400000011798192778114017207_" gradientUnits="userSpaceOnUse" x1="371.0006" y1="554.9728" x2="371.0006" y2="649.5506">
			<stop  offset="0" style="stop-color:#3E76BB"/>
			<stop  offset="0.9672" style="stop-color:#06509E"/>
		</linearGradient>
		<path style="fill:url(#SVGID_00000128453629892397103400000011798192778114017207_);" d="M395.65,569.51
			c5.02,0,8.89,1.31,11.62,3.93c2.73,2.62,4.1,5.92,4.1,9.88c0,0.6-0.06,1.27-0.17,2.02c-0.11,0.75-0.2,1.31-0.28,1.68
			c-1.72,8.24-5.24,13.21-10.56,14.94c2.17,1.35,3.76,2.83,4.77,4.44c1.01,1.61,1.51,3.99,1.51,7.13c0,2.85-0.56,6.81-1.68,11.91
			c-1.95,8.46-4.94,14.26-8.98,17.41c-3.67,2.84-9.32,4.27-16.96,4.27h-44.59c-1.27,0-2.23-0.35-2.86-1.07
			c-0.64-0.71-0.95-1.67-0.95-2.87c0-0.45,0.08-1.05,0.22-1.8l15.27-65.7c0.15-0.82-0.15-1.61-0.9-2.36
			c-0.75-0.75-1.57-1.12-2.47-1.12l0.67-2.58L395.65,569.51z M369.26,629.71c2.02,0,3.43-0.47,4.21-1.4
			c0.79-0.93,1.55-3.05,2.3-6.35c0.52-2.1,0.79-3.82,0.79-5.16c0-2.55-1.38-3.82-4.15-3.82h-3.14l-3.82,16.73H369.26z
			 M377.23,598.04c1.27,0,2.17-0.36,2.7-1.07s1.01-2,1.46-3.87c0.45-1.87,0.67-3.22,0.67-4.04c0-1.95-1.09-2.92-3.26-2.92h-3.37
			l-2.7,11.91H377.23z"/>
		
			<linearGradient id="SVGID_00000027594603105737344110000007036729519520025728_" gradientUnits="userSpaceOnUse" x1="440.8813" y1="554.9728" x2="440.8813" y2="649.5506">
			<stop  offset="0" style="stop-color:#3E76BB"/>
			<stop  offset="0.9672" style="stop-color:#06509E"/>
		</linearGradient>
		<path style="fill:url(#SVGID_00000027594603105737344110000007036729519520025728_);" d="M451.77,647.12
			c-1.95,0-3.39-0.32-4.33-0.95c-0.93-0.64-1.48-1.74-1.63-3.31l-1.01-11.46h-13.02l-4.61,9.21c-0.08,0.23-0.11,0.41-0.11,0.56
			c0,0.15-0.04,0.45-0.11,0.9c0,0.67,0.32,1.25,0.95,1.74c0.64,0.49,1.37,0.73,2.19,0.73l-0.56,2.58h-24.37
			c-3.14,0-4.72-1.24-4.72-3.71c0-0.68,0.19-1.39,0.56-2.13l33.02-64.01c0.23-0.45,0.34-1.01,0.34-1.69c0-0.82-0.35-1.59-1.07-2.3
			c-0.71-0.71-1.48-1.07-2.3-1.07l0.67-2.58h33.47c1.72,0,3.18,0.47,4.38,1.41c1.2,0.93,1.8,2.26,1.8,3.98l5.16,65.59
			c0,0.97,0.52,1.87,1.57,2.7c1.05,0.83,2.13,1.24,3.26,1.24l-0.56,2.58H451.77z M438.41,616.34h6.4l-0.9-12.58L438.41,616.34z"/>
		
			<linearGradient id="SVGID_00000016067686281406791900000000068080070603556992_" gradientUnits="userSpaceOnUse" x1="522.9422" y1="554.9728" x2="522.9422" y2="649.5506">
			<stop  offset="0" style="stop-color:#3E76BB"/>
			<stop  offset="0.9672" style="stop-color:#06509E"/>
		</linearGradient>
		<path style="fill:url(#SVGID_00000016067686281406791900000000068080070603556992_);" d="M517.89,612.97l-6.4,27.63l-0.11,0.9
			c0,0.83,0.37,1.54,1.12,2.13c0.75,0.6,1.54,0.9,2.36,0.9l-0.56,2.58h-31.33c-2.47,0-3.71-1.2-3.71-3.59
			c0-0.37,0.08-1.01,0.23-1.91l15.39-65.93c0.15-0.75-0.19-1.51-1.01-2.3c-0.82-0.79-1.65-1.18-2.47-1.18l0.78-2.58h31.22
			c2.39,0,3.59,1.2,3.59,3.59c0,0.3-0.08,0.9-0.23,1.8l-5.39,23.03h7.97l5.17-22.35c0.15-0.75-0.15-1.51-0.9-2.3
			c-0.75-0.79-1.54-1.18-2.36-1.18l0.56-2.58h31.22c1.27,0,2.19,0.32,2.75,0.96c0.56,0.64,0.84,1.55,0.84,2.75l-0.23,1.68
			l-15.27,66.04c-0.15,0.75,0.19,1.51,1.01,2.3c0.82,0.78,1.65,1.18,2.47,1.18l-0.79,2.58h-31.22c-2.4,0-3.59-1.2-3.59-3.59
			c0-0.3,0.08-0.9,0.23-1.8l6.62-28.75H517.89z"/>
		
			<linearGradient id="SVGID_00000160185933575597921010000011102634805795141544_" gradientUnits="userSpaceOnUse" x1="636.0446" y1="554.9728" x2="636.0446" y2="649.5506">
			<stop  offset="0" style="stop-color:#3E76BB"/>
			<stop  offset="0.9672" style="stop-color:#06509E"/>
		</linearGradient>
		<path style="fill:url(#SVGID_00000160185933575597921010000011102634805795141544_);" d="M654.41,595.68
			c5.61,0,10.03,1.54,13.25,4.61c3.22,3.07,4.83,7.49,4.83,13.25c0,3.07-0.45,6.44-1.34,10.11c-0.9,3.67-1.99,7.07-3.26,10.22
			c-2.1,5.24-4.89,8.76-8.37,10.56c-3.48,1.8-8.55,2.7-15.21,2.7h-45.48c-1.27,0-2.23-0.35-2.86-1.07
			c-0.64-0.71-0.95-1.67-0.95-2.87c0-0.45,0.07-1.05,0.22-1.8l15.27-65.7c0.15-0.82-0.15-1.61-0.9-2.36
			c-0.75-0.75-1.57-1.12-2.47-1.12l0.68-2.58h69.29l-3.14,12.36c-0.37,1.5-1.42,2.72-3.15,3.65c-1.72,0.94-3.44,1.4-5.16,1.4h-26.06
			l-2.03,8.65H654.41z M629.92,629.15h3.71c1.79,0,3.09-0.56,3.87-1.69c0.79-1.12,1.63-3.44,2.52-6.96
			c0.45-1.95,0.68-3.56,0.68-4.83c0-2.47-1.16-3.71-3.48-3.71h-3.37L629.92,629.15z"/>
		
			<linearGradient id="SVGID_00000022533616733801446670000018375376528010778533_" gradientUnits="userSpaceOnUse" x1="710.0224" y1="554.9728" x2="710.0224" y2="649.5506">
			<stop  offset="0" style="stop-color:#3E76BB"/>
			<stop  offset="0.9672" style="stop-color:#06509E"/>
		</linearGradient>
		<path style="fill:url(#SVGID_00000022533616733801446670000018375376528010778533_);" d="M726.7,569.62
			c6.59,0,12.02,1.71,16.29,5.11c4.26,3.41,6.4,8.22,6.4,14.43c0,2.25-0.26,4.42-0.79,6.51l-6.74,28.53
			c-1.94,8.46-5.31,14.49-10.11,18.08c-4.19,3.22-9.96,4.83-17.29,4.83h-23.03c-7.04,0-12.26-1.59-15.67-4.77
			c-3.4-3.18-5.11-7.88-5.11-14.09c0-3.67,0.49-7.49,1.46-11.45l4.94-21.23c1.95-8.16,4.75-14.26,8.43-18.3
			c4.72-5.09,11.34-7.64,19.88-7.64H726.7z M702.44,623.08c-0.22,1.05-0.33,1.94-0.33,2.7c0,1.87,1.05,2.81,3.15,2.81
			c1.42,0,2.49-0.32,3.2-0.95c0.71-0.64,1.25-1.78,1.63-3.43l7.41-31.56c0.15-0.9,0.22-1.5,0.22-1.8c0-2.17-1.08-3.26-3.25-3.26
			c-2.39,0-4.01,1.5-4.83,4.49L702.44,623.08z"/>
		
			<linearGradient id="SVGID_00000108995761160693542130000008332967125313882018_" gradientUnits="userSpaceOnUse" x1="779.9031" y1="554.9728" x2="779.9031" y2="649.5506">
			<stop  offset="0" style="stop-color:#3E76BB"/>
			<stop  offset="0.9672" style="stop-color:#06509E"/>
		</linearGradient>
		<path style="fill:url(#SVGID_00000108995761160693542130000008332967125313882018_);" d="M777.65,638.58
			c-0.22,0.82-0.33,1.65-0.33,2.47c0,0.9,0.43,1.7,1.29,2.41c0.86,0.71,1.74,1.07,2.64,1.07l-0.56,2.58h-31.9
			c-1.27,0-2.22-0.35-2.86-1.07c-0.64-0.71-0.96-1.67-0.96-2.87c0-0.45,0.07-1.05,0.22-1.8l15.27-65.7c0.15-0.82-0.15-1.61-0.9-2.36
			c-0.75-0.75-1.57-1.12-2.47-1.12l0.68-2.58h57.06l-2.92,12.58c-0.37,1.65-1.21,2.96-2.52,3.93c-1.31,0.97-2.83,1.46-4.54,1.46
			h-15.5L777.65,638.58z"/>
		
			<linearGradient id="SVGID_00000057836041233141255410000011909946827271974030_" gradientUnits="userSpaceOnUse" x1="825.4759" y1="554.9728" x2="825.4759" y2="649.5506">
			<stop  offset="0" style="stop-color:#3E76BB"/>
			<stop  offset="0.9672" style="stop-color:#06509E"/>
		</linearGradient>
		<path style="fill:url(#SVGID_00000057836041233141255410000011909946827271974030_);" d="M857.6,625.66
			c0.37,2.32,1.42,3.48,3.14,3.48h2.81l-2.92,12.8c-0.52,2.17-1.57,3.63-3.14,4.38c-1.2,0.52-3.19,0.79-5.95,0.79h-59.52
			c-3.07,0-4.6-1.24-4.6-3.71l0.22-1.8l2.81-12.47h3.03c1.05,0,1.97-0.32,2.75-0.95c0.79-0.64,1.36-1.4,1.74-2.3l22.69-48.52
			l0.22-2.02c0-0.9-0.3-1.65-0.9-2.25c-0.6-0.6-1.35-0.9-2.25-0.9l0.56-2.58h27.18c1.57,0,2.91,0.43,3.99,1.29
			c1.09,0.86,1.71,1.93,1.86,3.2L857.6,625.66z M827.16,615l-5.5,14.15h6.4L827.16,615z"/>
		
			<linearGradient id="SVGID_00000118384608161685852300000009966743926832519348_" gradientUnits="userSpaceOnUse" x1="156.0809" y1="554.9728" x2="156.0809" y2="649.5506">
			<stop  offset="0" style="stop-color:#3E76BB"/>
			<stop  offset="0.9672" style="stop-color:#06509E"/>
		</linearGradient>
		<path style="fill:url(#SVGID_00000118384608161685852300000009966743926832519348_);" d="M145.13,738.04
			c-0.9,1.19-1.46,1.98-1.68,2.35c-0.45,0.75-0.68,1.5-0.68,2.25c0,0.82,0.37,1.53,1.12,2.13c0.75,0.6,1.54,0.9,2.36,0.9l-0.56,2.58
			h-31.33c-2.47,0-3.71-1.2-3.71-3.59c0-0.37,0.08-1.01,0.23-1.91l15.39-65.92c0.15-0.75-0.19-1.52-1.01-2.31
			c-0.82-0.78-1.65-1.17-2.47-1.17l0.78-2.58h31.22c2.39,0,3.59,1.19,3.59,3.59c0,0.3-0.08,0.9-0.23,1.8l-6.74,28.97l14.71-22.24
			c0.68-0.97,1.31-1.91,1.91-2.81c0.6-0.9,1.05-1.98,1.35-3.25c0.15-0.75-0.15-1.52-0.9-2.31c-0.75-0.78-1.53-1.17-2.36-1.17
			l0.56-2.58h31.22c1.27,0,2.19,0.31,2.75,0.95c0.56,0.64,0.84,1.55,0.84,2.75l-0.23,1.69l-15.27,66.03
			c-0.15,0.75,0.19,1.51,1.01,2.3c0.83,0.79,1.65,1.18,2.47,1.18l-0.79,2.58h-31.22c-2.4,0-3.59-1.2-3.59-3.59
			c0-0.3,0.08-0.9,0.22-1.8l6.63-28.64L145.13,738.04z"/>
		
			<linearGradient id="SVGID_00000137122713760373183090000002774943779424860576_" gradientUnits="userSpaceOnUse" x1="241.457" y1="554.9728" x2="241.457" y2="649.5506">
			<stop  offset="0" style="stop-color:#3E76BB"/>
			<stop  offset="0.9672" style="stop-color:#06509E"/>
		</linearGradient>
		<path style="fill:url(#SVGID_00000137122713760373183090000002774943779424860576_);" d="M236.4,714.11l-6.4,27.63l-0.11,0.9
			c0,0.82,0.37,1.53,1.12,2.13c0.75,0.6,1.53,0.9,2.36,0.9l-0.56,2.58h-31.33c-2.47,0-3.71-1.2-3.71-3.59
			c0-0.37,0.07-1.01,0.22-1.91l15.39-65.92c0.15-0.75-0.19-1.52-1.01-2.31c-0.82-0.78-1.65-1.17-2.47-1.17l0.79-2.58h31.22
			c2.39,0,3.59,1.19,3.59,3.59c0,0.3-0.08,0.9-0.23,1.8l-5.39,23.02h7.97l5.16-22.34c0.15-0.75-0.15-1.52-0.9-2.31
			c-0.75-0.78-1.53-1.17-2.36-1.17l0.56-2.58h31.22c1.27,0,2.19,0.31,2.75,0.95c0.56,0.64,0.84,1.55,0.84,2.75l-0.22,1.69
			l-15.27,66.03c-0.15,0.75,0.19,1.51,1.01,2.3c0.82,0.79,1.65,1.18,2.47,1.18l-0.78,2.58h-31.22c-2.4,0-3.59-1.2-3.59-3.59
			c0-0.3,0.08-0.9,0.22-1.8l6.63-28.75H236.4z"/>
		
			<linearGradient id="SVGID_00000005233510411663956660000017161651700045902743_" gradientUnits="userSpaceOnUse" x1="315.5414" y1="554.9728" x2="315.5414" y2="649.5506">
			<stop  offset="0" style="stop-color:#3E76BB"/>
			<stop  offset="0.9672" style="stop-color:#06509E"/>
		</linearGradient>
		<path style="fill:url(#SVGID_00000005233510411663956660000017161651700045902743_);" d="M339.69,670.76
			c1.2,0,2.36-0.24,3.48-0.73c1.12-0.49,1.83-1.17,2.13-2.07h2.58l-4.49,17.18c-0.75,2.39-2.96,3.59-6.63,3.59h-6.63l-12.58,53.46
			c-0.15,0.75,0.19,1.51,1.01,2.3c0.82,0.79,1.65,1.18,2.47,1.18l-0.79,2.58h-31.22c-2.4,0-3.59-1.2-3.59-3.59
			c0-0.3,0.08-0.9,0.23-1.8l12.69-54.13h-7.75c-1.2,0-2.19,0.28-2.97,0.84c-0.79,0.56-1.33,1.29-1.63,2.19h-2.81l4.49-17.97
			c0.3-1.05,0.9-1.82,1.8-2.3s2.32-0.73,4.27-0.73H339.69z"/>
		
			<linearGradient id="SVGID_00000080203085323836432300000007045692149814903973_" gradientUnits="userSpaceOnUse" x1="371.9532" y1="554.9728" x2="371.9532" y2="649.5506">
			<stop  offset="0" style="stop-color:#3E76BB"/>
			<stop  offset="0.9672" style="stop-color:#06509E"/>
		</linearGradient>
		<path style="fill:url(#SVGID_00000080203085323836432300000007045692149814903973_);" d="M408.06,670.76l-2.92,12.35
			c-0.52,2.1-1.55,3.56-3.09,4.38c-1.53,0.83-3.53,1.24-6.01,1.24h-15.61l-2.47,10.67h18.64l-2.13,9.43
			c-0.37,1.65-1.36,2.98-2.97,3.99s-3.43,1.51-5.45,1.51h-6.85c-3.07,0-5.01,1.69-5.84,5.06l-2.58,10.89h18.19
			c1.12,0,2.3-0.28,3.54-0.84c1.24-0.56,1.96-1.26,2.19-2.08h2.58l-4.04,17.07c-0.37,1.5-1.22,2.51-2.53,3.03
			c-1.31,0.52-2.97,0.79-5,0.79h-46.05c-1.27,0-2.23-0.35-2.86-1.07c-0.64-0.71-0.95-1.67-0.95-2.86c0-0.45,0.08-1.05,0.22-1.8
			l15.27-65.7c0.15-0.83-0.15-1.61-0.9-2.36c-0.75-0.75-1.57-1.12-2.47-1.12l0.67-2.58H408.06z"/>
		
			<linearGradient id="SVGID_00000022529893760506807330000016450070282777354382_" gradientUnits="userSpaceOnUse" x1="439.368" y1="554.9728" x2="439.368" y2="649.5506">
			<stop  offset="0" style="stop-color:#3E76BB"/>
			<stop  offset="0.9672" style="stop-color:#06509E"/>
		</linearGradient>
		<path style="fill:url(#SVGID_00000022529893760506807330000016450070282777354382_);" d="M460.37,670.76
			c6.89,0,12.09,1.38,15.61,4.15c3.52,2.77,5.28,7.15,5.28,13.14c0,1.65-0.08,3.15-0.23,4.49c-0.15,1.34-0.49,3.03-1.01,5.06
			c-2.4,10.33-5.09,17.16-8.09,20.49c-3,3.33-7.9,5-14.71,5h-23.14l-4.15,17.63l-0.34,2.13c0,0.83,0.34,1.5,1.01,2.02
			c0.67,0.52,1.46,0.79,2.36,0.79l-0.68,2.58H401.3c-1.28,0-2.23-0.35-2.87-1.07c-0.64-0.71-0.95-1.67-0.95-2.86
			c0-0.45,0.08-1.05,0.23-1.8l15.27-65.7c0.15-0.83-0.15-1.61-0.9-2.36c-0.75-0.75-1.57-1.12-2.47-1.12l0.68-2.58H460.37z
			 M438.36,705.13h3.48c1.87,0,3.26-0.58,4.15-1.74c0.9-1.16,1.72-3.39,2.47-6.68c0.45-1.95,0.68-3.48,0.68-4.61
			c0-1.5-0.32-2.52-0.95-3.08c-0.64-0.56-1.59-0.85-2.86-0.85h-3.03L438.36,705.13z"/>
		
			<linearGradient id="SVGID_00000086667068167967929350000009938695891046851257_" gradientUnits="userSpaceOnUse" x1="518.7368" y1="554.9728" x2="518.7368" y2="649.5506">
			<stop  offset="0" style="stop-color:#3E76BB"/>
			<stop  offset="0.9672" style="stop-color:#06509E"/>
		</linearGradient>
		<path style="fill:url(#SVGID_00000086667068167967929350000009938695891046851257_);" d="M513.68,714.11l-6.4,27.63l-0.11,0.9
			c0,0.82,0.37,1.53,1.12,2.13c0.75,0.6,1.53,0.9,2.36,0.9l-0.56,2.58h-31.33c-2.47,0-3.71-1.2-3.71-3.59
			c0-0.37,0.07-1.01,0.22-1.91l15.39-65.92c0.15-0.75-0.19-1.52-1.01-2.31c-0.82-0.78-1.65-1.17-2.47-1.17l0.79-2.58h31.22
			c2.39,0,3.59,1.19,3.59,3.59c0,0.3-0.08,0.9-0.23,1.8l-5.39,23.02h7.97l5.16-22.34c0.15-0.75-0.15-1.52-0.9-2.31
			c-0.75-0.78-1.53-1.17-2.36-1.17l0.56-2.58h31.22c1.27,0,2.19,0.31,2.75,0.95c0.56,0.64,0.84,1.55,0.84,2.75l-0.22,1.69
			l-15.27,66.03c-0.15,0.75,0.19,1.51,1.01,2.3c0.82,0.79,1.65,1.18,2.47,1.18l-0.78,2.58H518.4c-2.4,0-3.59-1.2-3.59-3.59
			c0-0.3,0.08-0.9,0.22-1.8l6.63-28.75H513.68z"/>
		
			<linearGradient id="SVGID_00000052800668964817281450000002027163549216796811_" gradientUnits="userSpaceOnUse" x1="587.8829" y1="554.9728" x2="587.8829" y2="649.5506">
			<stop  offset="0" style="stop-color:#3E76BB"/>
			<stop  offset="0.9672" style="stop-color:#06509E"/>
		</linearGradient>
		<path style="fill:url(#SVGID_00000052800668964817281450000002027163549216796811_);" d="M600.01,670.76
			c7.71,0,13.63,1.83,17.74,5.5c3.9,3.44,5.84,8.13,5.84,14.03c0,2.25-0.26,4.42-0.79,6.52l-6.96,29.65
			c-3.22,14.53-11.98,21.79-26.28,21.79h-33.02c-1.12,0-2.13-0.32-3.03-0.96c-0.9-0.64-1.35-1.51-1.35-2.64l0.11-2.25l4.15-16.84
			h2.25c0.15,1.27,0.69,2.37,1.63,3.31c0.93,0.94,2.04,1.4,3.31,1.4h14.82c2.17,0,3.82-0.56,4.94-1.69c1.12-1.12,2.02-3.11,2.7-5.95
			l1.91-8.53h-15.39c-3.22,0-4.83-1.12-4.83-3.37c0-1.19,0.11-2.17,0.34-2.92l2.02-8.65h21.34l1.24-5.16
			c0.22-0.83,0.34-1.53,0.34-2.14c0-2.47-1.5-3.71-4.49-3.71h-15.84c-1.2,0-2.21-0.33-3.03-1.01c-0.83-0.68-1.24-1.53-1.24-2.58
			l0.11-1.69l2.81-12.13H600.01z"/>
		
			<linearGradient id="SVGID_00000005988525740795703690000000964526867053347242_" gradientUnits="userSpaceOnUse" x1="661.1345" y1="554.9728" x2="661.1345" y2="649.5506">
			<stop  offset="0" style="stop-color:#3E76BB"/>
			<stop  offset="0.9672" style="stop-color:#06509E"/>
		</linearGradient>
		<path style="fill:url(#SVGID_00000005988525740795703690000000964526867053347242_);" d="M649.17,739.05
			c-0.9,1.42-1.35,2.62-1.35,3.59c0,0.82,0.38,1.53,1.13,2.13c0.75,0.6,1.53,0.9,2.35,0.9l-0.56,2.58h-31.34
			c-2.47,0-3.71-1.2-3.71-3.59c0-0.37,0.08-1.01,0.23-1.91l15.39-65.92c0.15-0.75-0.19-1.52-1.01-2.31
			c-0.83-0.78-1.65-1.17-2.47-1.17l0.79-2.58h31.22c2.39,0,3.59,1.19,3.59,3.59c0,0.3-0.08,0.9-0.22,1.8l-6.74,28.97l16.51-24.93
			c0.68-1.05,1.16-2.17,1.46-3.36c0.15-0.75-0.15-1.52-0.9-2.31c-0.75-0.78-1.53-1.17-2.36-1.17l0.56-2.58h31.22
			c1.27,0,2.19,0.31,2.75,0.95c0.56,0.64,0.85,1.55,0.85,2.75l-0.22,1.69l-15.27,66.03c-0.15,0.75,0.18,1.51,1.01,2.3
			c0.82,0.79,1.65,1.18,2.47,1.18l-0.78,2.58h-31.22c-2.39,0-3.59-1.2-3.59-3.59c0-0.3,0.07-0.9,0.22-1.8l6.62-28.64L649.17,739.05z
			 M656.47,664.81c-2.85,0-4.27-1.35-4.27-4.04c0-0.6,0.04-1.05,0.11-1.35l1.91-7.52h31.11c3.22,0,4.83,1.38,4.83,4.15
			c0,0.52-0.04,0.9-0.12,1.12l-1.91,7.64H656.47z"/>
		
			<linearGradient id="SVGID_00000029044002516557766000000006135332401312437129_" gradientUnits="userSpaceOnUse" x1="762.5108" y1="554.9728" x2="762.5108" y2="649.5506">
			<stop  offset="0" style="stop-color:#3E76BB"/>
			<stop  offset="0.9672" style="stop-color:#06509E"/>
		</linearGradient>
		<path style="fill:url(#SVGID_00000029044002516557766000000006135332401312437129_);" d="M698.89,744.66c0-0.3,0.07-0.9,0.22-1.8
			l15.27-66.03c0.15-0.75-0.15-1.52-0.9-2.31c-0.75-0.78-1.53-1.17-2.36-1.17l0.56-2.58h31.22c1.27,0,2.19,0.31,2.75,0.95
			c0.56,0.64,0.85,1.55,0.85,2.75l-0.23,1.69l-12.46,54.13h7.86l12.47-53.46c0.15-0.75-0.15-1.52-0.9-2.31
			c-0.75-0.78-1.53-1.17-2.35-1.17l0.56-2.58h31.22c1.27,0,2.19,0.31,2.75,0.95c0.56,0.64,0.84,1.55,0.84,2.75l-0.22,1.69
			l-12.47,54.13h7.86l12.58-53.46c0.14-0.75-0.15-1.52-0.9-2.31c-0.75-0.78-1.53-1.17-2.36-1.17l0.56-2.58h31.22
			c1.27,0,2.19,0.31,2.75,0.95c0.56,0.64,0.84,1.55,0.84,2.75l-0.22,1.69l-15.05,64.58l-0.33,2.13c0,0.83,0.33,1.5,1.01,2.02
			c0.68,0.52,1.46,0.79,2.36,0.79l-0.68,2.58H702.48C700.08,748.25,698.89,747.05,698.89,744.66z"/>
		
			<linearGradient id="SVGID_00000090981588359970835340000007363941083437349051_" gradientUnits="userSpaceOnUse" x1="861.795" y1="554.9728" x2="861.795" y2="649.5506">
			<stop  offset="0" style="stop-color:#3E76BB"/>
			<stop  offset="0.9672" style="stop-color:#06509E"/>
		</linearGradient>
		<path style="fill:url(#SVGID_00000090981588359970835340000007363941083437349051_);" d="M856.74,714.11l-6.4,27.63l-0.11,0.9
			c0,0.82,0.37,1.53,1.12,2.13c0.75,0.6,1.54,0.9,2.36,0.9l-0.56,2.58h-31.33c-2.47,0-3.71-1.2-3.71-3.59
			c0-0.37,0.08-1.01,0.23-1.91l15.39-65.92c0.15-0.75-0.19-1.52-1.01-2.31c-0.83-0.78-1.65-1.17-2.47-1.17l0.79-2.58h31.22
			c2.39,0,3.59,1.19,3.59,3.59c0,0.3-0.08,0.9-0.23,1.8l-5.39,23.02h7.97l5.17-22.34c0.15-0.75-0.15-1.52-0.9-2.31
			c-0.75-0.78-1.53-1.17-2.36-1.17l0.56-2.58h31.22c1.27,0,2.19,0.31,2.75,0.95c0.56,0.64,0.85,1.55,0.85,2.75l-0.23,1.69
			l-15.27,66.03c-0.14,0.75,0.19,1.51,1.02,2.3c0.82,0.79,1.65,1.18,2.47,1.18l-0.79,2.58h-31.22c-2.4,0-3.59-1.2-3.59-3.59
			c0-0.3,0.07-0.9,0.22-1.8l6.62-28.75H856.74z"/>
		
			<linearGradient id="SVGID_00000145737054318017474290000008418697509511490704_" gradientUnits="userSpaceOnUse" x1="932.7382" y1="554.9728" x2="932.7382" y2="649.5506">
			<stop  offset="0" style="stop-color:#3E76BB"/>
			<stop  offset="0.9672" style="stop-color:#06509E"/>
		</linearGradient>
		<path style="fill:url(#SVGID_00000145737054318017474290000008418697509511490704_);" d="M965.09,741.63
			c0.15,1.19,0.64,2.17,1.46,2.92c0.83,0.75,1.76,1.12,2.81,1.12l-0.56,2.58h-31.22c-0.97,0-1.91-0.45-2.81-1.34
			c-0.9-0.91-1.35-1.88-1.35-2.92l-1.57-26.06l-10.45,22.91c-0.22,0.52-0.33,1.12-0.33,1.8c0,0.82,0.33,1.53,1.01,2.13
			c0.68,0.6,1.42,0.9,2.24,0.9l-0.56,2.58H900.4c-1.42,0-2.49-0.37-3.2-1.12c-0.71-0.75-1.07-1.72-1.07-2.92
			c0-0.89,0.07-1.51,0.22-1.85c0.15-0.33,0.26-0.58,0.34-0.73l29.42-63c0.37-0.91,0.56-1.61,0.56-2.14c0-0.82-0.35-1.55-1.07-2.19
			c-0.71-0.64-1.48-0.95-2.3-0.95l0.56-2.58h26.73c1.72,0,3.18,0.41,4.37,1.23c1.2,0.83,1.88,1.91,2.03,3.26L965.09,741.63z"/>
	</g>
</g>
</svg>
