<?xml version="1.0" encoding="utf-8"?>
<!-- Generator: Adobe Illustrator 26.5.0, SVG Export Plug-In . SVG Version: 6.00 Build 0)  -->
<svg version="1.1" id="Layer_1" xmlns="http://www.w3.org/2000/svg" xmlns:xlink="http://www.w3.org/1999/xlink" x="0px" y="0px"
	 viewBox="0 0 1080 1080" style="enable-background:new 0 0 1080 1080;" xml:space="preserve">
<style type="text/css">
	.st0{fill-rule:evenodd;clip-rule:evenodd;}
	.st1{fill:#ED1C24;}
	.st2{fill:#E1251B;}
	.st3{fill-rule:evenodd;clip-rule:evenodd;fill:#16397B;}
	.st4{fill:#EE2745;}
	
		.st5{clip-path:url(#SVGID_00000121963546828531600300000006508149622766674597_);fill:url(#SVGID_00000128478170373062899350000017312094690336031378_);}
	
		.st6{clip-path:url(#SVGID_00000137845155067825026930000010529474648287200409_);fill:url(#SVGID_00000110463235758916274190000013077345751402450599_);}
	
		.st7{clip-path:url(#SVGID_00000174594689455795629230000006089399363080546452_);fill:url(#SVGID_00000058571465705849003310000005094830094598036363_);}
	
		.st8{clip-path:url(#SVGID_00000101813980290450791790000011531358844109871278_);fill:url(#SVGID_00000137852342471080596800000017345219327159075219_);}
	.st9{fill:#424243;}
	
		.st10{clip-path:url(#SVGID_00000019663098557690765850000005562969604190218911_);fill:url(#SVGID_00000179623210146314157120000000825928298680087683_);}
	.st11{fill:#FFFFFF;}
	
		.st12{clip-path:url(#SVGID_00000061460497780332973600000003405180707950259587_);fill:url(#SVGID_00000000918683856209445890000004982178416997829766_);}
	
		.st13{clip-path:url(#SVGID_00000104699769501415951700000018183680770592831627_);fill:url(#SVGID_00000176032351917871031320000001372485438684247973_);}
	
		.st14{clip-path:url(#SVGID_00000099656702368576308720000015200035094062300304_);fill:url(#SVGID_00000016760952046128339040000010515667241259205026_);}
	
		.st15{clip-path:url(#SVGID_00000124865161807092859560000003539880482087576242_);fill:url(#SVGID_00000047742736507704428380000013112180847787273116_);}
	
		.st16{clip-path:url(#SVGID_00000087406340630650679750000016042512333199867319_);fill:url(#SVGID_00000177484566864059094460000010619653889218720130_);}
	
		.st17{clip-path:url(#SVGID_00000070105705943882301310000004775107119261338018_);fill:url(#SVGID_00000119830204780392718200000014769538988900056496_);}
	
		.st18{clip-path:url(#SVGID_00000088107939781983907360000013176693861515468929_);fill:url(#SVGID_00000003814381449436722760000004828526410371100856_);}
	.st19{fill-rule:evenodd;clip-rule:evenodd;fill:#C8202F;}
	.st20{fill-rule:evenodd;clip-rule:evenodd;fill:#FFFFFF;}
	.st21{fill-rule:evenodd;clip-rule:evenodd;fill:#F98238;}
	.st22{filter:url(#Adobe_OpacityMaskFilter);}
	.st23{fill:url(#SVGID_00000178182024708866705210000016615291380068194712_);}
	.st24{mask:url(#SVGID_00000045588191049782506340000012751864196232383159_);fill-rule:evenodd;clip-rule:evenodd;fill:#ED1C24;}
	.st25{fill-rule:evenodd;clip-rule:evenodd;fill:#F5333F;}
	.st26{fill-rule:evenodd;clip-rule:evenodd;fill:#ED1C24;}
	.st27{fill-rule:evenodd;clip-rule:evenodd;fill:#F9A46E;}
	.st28{fill-rule:evenodd;clip-rule:evenodd;fill:#F47B26;}
	.st29{fill-rule:evenodd;clip-rule:evenodd;fill:#EB5433;}
	.st30{fill:#1A3282;}
	.st31{fill-rule:evenodd;clip-rule:evenodd;fill:#1A3282;}
	.st32{fill-rule:evenodd;clip-rule:evenodd;fill:#9D9FA2;}
	.st33{fill-rule:evenodd;clip-rule:evenodd;fill:#000303;}
	.st34{fill:#64003D;}
	.st35{fill:#536270;}
	.st36{fill-rule:evenodd;clip-rule:evenodd;fill:#64003D;}
	.st37{fill-rule:evenodd;clip-rule:evenodd;fill:#536270;}
	.st38{fill-rule:evenodd;clip-rule:evenodd;fill:#1A3382;}
	.st39{fill-rule:evenodd;clip-rule:evenodd;fill:#29387E;}
	.st40{fill-rule:evenodd;clip-rule:evenodd;fill:#F37021;}
	.st41{fill-rule:evenodd;clip-rule:evenodd;fill:#005C32;}
	.st42{fill-rule:evenodd;clip-rule:evenodd;fill:#D2AB67;}
	
		.st43{clip-path:url(#SVGID_00000140703860762659596720000010926016824841168770_);fill:url(#SVGID_00000126307141437944122220000004516808584050978700_);}
	
		.st44{clip-path:url(#SVGID_00000046316606372253029890000012438549905743524741_);fill:url(#SVGID_00000160903494189909542150000009066546050337208211_);}
	
		.st45{clip-path:url(#SVGID_00000173861961079587469420000003727720817624726951_);fill:url(#SVGID_00000069394143881219057960000001690072795563969717_);}
	.st46{fill-rule:evenodd;clip-rule:evenodd;fill:#00AEEF;}
	.st47{fill-rule:evenodd;clip-rule:evenodd;fill:#EC008C;}
	.st48{fill-rule:evenodd;clip-rule:evenodd;fill:#FFF200;}
	.st49{fill:#A7AAAC;}
	.st50{fill-rule:evenodd;clip-rule:evenodd;fill:#5C5B5B;}
	.st51{fill:#9D9D9F;}
	.st52{fill:#F04D23;}
	.st53{fill-rule:evenodd;clip-rule:evenodd;fill:#2E3192;}
	.st54{fill-rule:evenodd;clip-rule:evenodd;fill:#C4312D;}
	.st55{fill:#552715;}
	.st56{fill:#010101;}
	.st57{fill:#E31E2E;}
	.st58{fill:url(#SVGID_00000074425857627171833810000006151880831419937157_);}
	.st59{fill:url(#SVGID_00000107582819252185250960000004029518210078811528_);}
	.st60{clip-path:url(#SVGID_00000165929813673615712330000015116962391809212556_);}
	.st61{clip-path:url(#SVGID_00000096024695591099470990000012329810336894963388_);}
	.st62{clip-path:url(#SVGID_00000091719824847669347730000016637621087319237051_);}
	.st63{clip-path:url(#SVGID_00000124163125330187555210000002141601013281810324_);}
	.st64{clip-path:url(#SVGID_00000181057101908807024270000000943388119062514304_);}
	.st65{clip-path:url(#SVGID_00000147942294186393785960000009222859627877812395_);}
	.st66{clip-path:url(#SVGID_00000157278129439375283480000013106051693056936886_);}
	.st67{clip-path:url(#SVGID_00000010311671196861481720000002216400204046871949_);}
	.st68{clip-path:url(#SVGID_00000010311672930167439750000008989105394332468667_);}
	.st69{clip-path:url(#SVGID_00000110450557723268833020000010614443881505378197_);}
	.st70{clip-path:url(#SVGID_00000114050540694008570370000001344165301779979179_);}
	.st71{fill:#2650A1;}
	.st72{fill:url(#SVGID_00000135670078369267362420000010810110755261211786_);}
	.st73{fill:#FEFEFE;}
	.st74{fill:#FDFDFD;}
	.st75{fill:#FCFCFC;}
	.st76{fill:#FBFBFB;}
	.st77{fill:#FAFAFA;}
	.st78{fill:#F9F9F9;}
	.st79{fill:#F8F8F8;}
	.st80{fill:#F7F7F7;}
	.st81{fill:#F6F6F6;}
	.st82{fill:#F5F5F5;}
	.st83{fill:#F4F4F4;}
	.st84{fill:#F3F3F3;}
	.st85{fill:#F2F2F2;}
	.st86{fill:#F1F1F1;}
	.st87{fill:#F0F0F0;}
	.st88{fill:#EFEFEF;}
	.st89{fill:#EEEEEE;}
	.st90{fill:#EDEDED;}
	.st91{fill:#ECECEC;}
	.st92{fill:#EBEBEB;}
	.st93{fill:#EAEAEA;}
	.st94{fill:#E9E9E9;}
	.st95{fill:#E8E8E8;}
	.st96{fill:#E7E7E7;}
	.st97{fill:#E6E6E6;}
	.st98{fill:#E5E5E5;}
	.st99{fill:#E4E4E4;}
	.st100{fill:#E3E3E3;}
	.st101{fill:#E2E2E2;}
	.st102{fill:#E1E1E1;}
	.st103{fill:#E0E0E0;}
	.st104{fill:#DFDFDF;}
	.st105{fill:#DEDEDE;}
	.st106{fill:#DDDDDD;}
	.st107{fill:#DCDCDC;}
	.st108{fill:#DBDBDB;}
	.st109{fill:#DADADA;}
	.st110{fill:#D9D9D9;}
	.st111{fill:#D92231;}
	.st112{fill:url(#SVGID_00000073707232612846332560000008668146918324997303_);}
	.st113{fill:url(#SVGID_00000062897116634976329360000009015923462483419268_);}
	.st114{opacity:0.8;}
	.st115{fill:url(#SVGID_00000077289695988631142700000003252419251312493960_);}
	.st116{fill:url(#SVGID_00000149340162506436570400000004640206629506949772_);}
	.st117{fill-rule:evenodd;clip-rule:evenodd;fill:#010101;}
	.st118{fill:#80A845;}
	.st119{fill-rule:evenodd;clip-rule:evenodd;fill:#80A845;}
	.st120{fill:url(#SVGID_00000025444379832329867710000006079581264741556356_);}
	.st121{fill-rule:evenodd;clip-rule:evenodd;fill:#04984A;}
	.st122{fill-rule:evenodd;clip-rule:evenodd;fill:url(#SVGID_00000045597234964263379750000010545604069752333963_);}
	.st123{fill:url(#SVGID_00000093162275736273217250000006880485377905899137_);}
	.st124{fill:url(#SVGID_00000045577061140323334600000002438321756848112276_);}
	.st125{fill:url(#SVGID_00000041999049967007900240000008636116873578803124_);}
	.st126{fill:url(#SVGID_00000044179227774671171190000014774297415905388475_);}
	.st127{fill:url(#SVGID_00000119827783141498607830000000969472425597165723_);}
	.st128{fill:url(#SVGID_00000134958356191786268800000017405721669988252817_);}
	.st129{fill:url(#SVGID_00000182512651739169774920000007036885956689723053_);}
	.st130{fill:url(#SVGID_00000104698680724751123430000015999273786669942929_);}
	.st131{fill:url(#SVGID_00000176002887633733920360000001754412452402951321_);}
	.st132{fill:url(#SVGID_00000035522797010579183490000014445083520672722065_);}
	.st133{fill:url(#SVGID_00000139993502052319164150000006867101131490146201_);}
	.st134{fill:url(#SVGID_00000000916462374700438090000010230480757949817756_);}
	.st135{fill:url(#SVGID_00000131349003790121984510000002140455113553423792_);}
	.st136{fill:url(#SVGID_00000065794563896112416180000004331893159332932283_);}
	.st137{fill-rule:evenodd;clip-rule:evenodd;fill:url(#SVGID_00000049200742289502175360000016904134480058489528_);}
	.st138{fill:#0A529D;}
	.st139{fill:url(#SVGID_00000100384253191622034670000017017745068743832764_);}
	.st140{fill:url(#SVGID_00000019645625202836879330000009683836037356589971_);}
	.st141{fill:url(#SVGID_00000169523111560735212160000006856984840403751302_);}
	.st142{fill:url(#SVGID_00000066488441686083641500000013812120761086801551_);}
	.st143{fill:url(#SVGID_00000091721467809373887590000012789108965917055145_);}
	.st144{fill:url(#SVGID_00000050626716725911254190000004341204260431989399_);}
	.st145{fill:url(#SVGID_00000004508868577983912690000017379418956343708349_);}
	.st146{fill:url(#SVGID_00000165207391008414785210000001190731088506181805_);}
	.st147{fill:url(#SVGID_00000080182375524102405910000008173139728773748139_);}
	.st148{fill:url(#SVGID_00000009573550203907469000000005758583161673403266_);}
	.st149{fill:url(#SVGID_00000113337454490839667490000010974143776205352617_);}
	.st150{fill:url(#SVGID_00000160908681137477261760000017812680213173398948_);}
	.st151{fill-rule:evenodd;clip-rule:evenodd;fill:url(#SVGID_00000021837833069234904180000014028688385971788478_);}
	.st152{fill:url(#SVGID_00000154426344634095733090000006497929791757541767_);}
	.st153{fill:url(#SVGID_00000099651942368947463190000013328269031002640553_);}
	.st154{fill:url(#SVGID_00000016032908340293231300000004196155248968409272_);}
	.st155{fill:url(#SVGID_00000115473717312450994870000016039136499018814089_);}
	.st156{fill:url(#SVGID_00000070841173798571311960000007941486694582918055_);}
	.st157{fill:url(#SVGID_00000051366622786179952740000003094236801153121445_);}
	.st158{fill:url(#SVGID_00000004529745457907109070000004471393047948854162_);}
	.st159{fill:url(#SVGID_00000094589330972145297440000011914306189449342389_);}
	.st160{fill:url(#SVGID_00000097488925825018104930000000184696063939458961_);}
	.st161{fill:url(#SVGID_00000155117225368776583320000003783929366815680701_);}
	.st162{fill:url(#SVGID_00000044875144858166371830000018033446074133615529_);}
	.st163{fill:url(#SVGID_00000156575084546748757070000014771384429635004079_);}
	.st164{fill:url(#SVGID_00000127726874053108602900000008429663719098794674_);}
	.st165{fill:url(#SVGID_00000077314584276387566120000016984792745860456340_);}
	.st166{fill:url(#SVGID_00000096026746738764523040000015231191238975952279_);}
	.st167{fill:url(#SVGID_00000178918081138776157290000015162773290034477963_);}
	.st168{fill:url(#SVGID_00000056397299902381932270000013829414178329470897_);}
	.st169{fill-rule:evenodd;clip-rule:evenodd;fill:url(#SVGID_00000171687700298056809820000004528924974546916278_);}
	.st170{fill:url(#SVGID_00000124137441221551409580000000892194626874797246_);}
	.st171{fill:url(#SVGID_00000115496550613249243250000010762078295383250582_);}
	.st172{fill:url(#SVGID_00000021084998466972049670000016639383779829430461_);}
	.st173{fill:url(#SVGID_00000134236736746017883720000004667690757975663763_);}
	.st174{fill:url(#SVGID_00000137117875870424128710000012845278001915777433_);}
	.st175{fill:url(#SVGID_00000149357591912019956290000017606523267298017215_);}
	.st176{fill:url(#SVGID_00000005254206479873149840000016477833209500927905_);}
	.st177{fill:url(#SVGID_00000114776862640043369240000009101503159957943451_);}
	.st178{fill:url(#SVGID_00000074405986706410203340000009318363401970929280_);}
	.st179{fill:url(#SVGID_00000123409526138261853370000008290268335450376888_);}
	.st180{fill:url(#SVGID_00000007406219417447373270000001387459373318353831_);}
	.st181{fill:url(#SVGID_00000076589984943495400420000003550872842597511325_);}
	.st182{fill:url(#SVGID_00000068641342695844124070000005982179167869981844_);}
	.st183{fill:url(#SVGID_00000035491691672431944390000017252165232899865263_);}
	.st184{fill-rule:evenodd;clip-rule:evenodd;fill:url(#SVGID_00000065766520490970193750000004185851428116796048_);}
	.st185{fill:url(#SVGID_00000073702375527284602150000013074976457731597709_);}
	.st186{fill:url(#SVGID_00000182519331580129614750000000018265723533398942_);}
	.st187{fill:url(#SVGID_00000054982483302199290630000013343149975280087680_);}
	.st188{fill:url(#SVGID_00000046334614832326391800000006154600941070928303_);}
	.st189{fill:url(#SVGID_00000153664936410427912310000003753681761784298128_);}
	.st190{fill:url(#SVGID_00000051371010293236260930000007883007054617879465_);}
	.st191{fill:url(#SVGID_00000047027834769124804980000009000665333489431456_);}
	.st192{fill:url(#SVGID_00000072272815448729081030000017908841353110782345_);}
	.st193{fill:url(#SVGID_00000088814252723491574200000000312985880885357464_);}
	.st194{fill:url(#SVGID_00000088117296942657388640000001535032898732447644_);}
	.st195{fill:url(#SVGID_00000092432650869452203890000009264976676443713183_);}
	.st196{fill:url(#SVGID_00000010281442145190891230000002054320496932490407_);}
	.st197{fill:url(#SVGID_00000076567570411309488570000001382973965023498114_);}
	.st198{fill:url(#SVGID_00000152254965961907930180000017929988231660285827_);}
	.st199{fill:url(#SVGID_00000095336865090652108270000000992135196657570195_);}
	.st200{fill:url(#SVGID_00000158749100399981790200000010148094124255953056_);}
	.st201{fill:url(#SVGID_00000107575659707175184560000017655724156200222891_);}
	.st202{fill:url(#SVGID_00000075872449733317485810000016805346820459519384_);}
	.st203{fill:url(#SVGID_00000068636181526312624420000009204530069376498619_);}
	.st204{fill-rule:evenodd;clip-rule:evenodd;fill:url(#SVGID_00000031167135180890943900000001361956575098010033_);}
	.st205{fill:url(#SVGID_00000023265554936906639610000010960831944898261177_);}
	.st206{fill:url(#SVGID_00000162329184537335890130000004194398073308210313_);}
	.st207{fill:url(#SVGID_00000141419242286519270780000000495816675654248873_);}
	.st208{fill:url(#SVGID_00000106838286005782282150000007482186821249121210_);}
	.st209{fill:url(#SVGID_00000140009430865852965970000009372368516648743856_);}
	.st210{fill:url(#SVGID_00000164489542359109528270000016192464548993824922_);}
	.st211{fill:url(#SVGID_00000036943871606022171740000013436643935388356251_);}
	.st212{fill:url(#SVGID_00000075861166330924818230000011482635102319186087_);}
	.st213{fill:url(#SVGID_00000085941055527684630260000010554409200464068003_);}
	.st214{fill:url(#SVGID_00000035519787049786480150000000526720980799260801_);}
	.st215{fill:url(#SVGID_00000024693691957831850810000004004165914970759608_);}
	.st216{fill:url(#SVGID_00000022539001217005119540000009908403623754497979_);}
	.st217{fill:url(#SVGID_00000105385547411814326880000011462854602242640263_);}
	.st218{fill:url(#SVGID_00000074400756115393788120000008763727662344561036_);}
	.st219{fill:url(#SVGID_00000087407313031551550960000010681136282005354151_);}
	.st220{fill:url(#SVGID_00000167366202310822219210000015540494648685515699_);}
	.st221{fill-rule:evenodd;clip-rule:evenodd;fill:url(#SVGID_00000031897866218137011270000015507951092606914989_);}
	.st222{fill:url(#SVGID_00000178182904396683737080000008562080419747397008_);}
	.st223{fill:url(#SVGID_00000155120388829911794250000012292559231959003315_);}
	.st224{fill:url(#SVGID_00000083802085249265001290000014252145443449074560_);}
	.st225{fill:url(#SVGID_00000124139750941723125420000005140189084210887066_);}
	.st226{fill:url(#SVGID_00000106851458653600296950000003386276740221331339_);}
	.st227{fill:url(#SVGID_00000044152411172613892350000004955510918422007432_);}
	.st228{fill:url(#SVGID_00000144297427531255550150000004083379847748842917_);}
	.st229{fill:url(#SVGID_00000018237653137415564370000011741983341715640765_);}
	.st230{fill:url(#SVGID_00000137132658169200328870000001041327907932599953_);}
	.st231{fill:url(#SVGID_00000046315622133139323910000005915539739695019658_);}
	.st232{fill:url(#SVGID_00000057839795312588777430000009754989984081009296_);}
	.st233{fill:url(#SVGID_00000026869093381282500300000004889187369087094701_);}
	.st234{fill:url(#SVGID_00000125578354406869034260000015217637302808002995_);}
	.st235{fill:url(#SVGID_00000083770970934151511930000006195043719794218654_);}
	.st236{fill:url(#SVGID_00000088851391085130543470000009679123016023827346_);}
	.st237{fill-rule:evenodd;clip-rule:evenodd;fill:url(#SVGID_00000013913126751408845230000007324886989022524324_);}
	.st238{fill:url(#SVGID_00000024699627896206784700000015971455304292011408_);}
	.st239{fill:url(#SVGID_00000059277545238519921970000010473717478927877014_);}
	.st240{fill:url(#SVGID_00000083788482758593092950000004116673390877943946_);}
	.st241{fill:url(#SVGID_00000083783665814791183750000002300592335273691823_);}
	.st242{fill:url(#SVGID_00000075159979886167507750000003251930719436917376_);}
	.st243{fill:url(#SVGID_00000128474167180923980650000009651885177343314074_);}
	.st244{fill:url(#SVGID_00000082346183256569241960000010829935590106248330_);}
	.st245{fill:url(#SVGID_00000080898163544894175950000002100570323131492778_);}
	.st246{fill:url(#SVGID_00000070806799147013563520000013132648940383284354_);}
	.st247{fill:url(#SVGID_00000029727499287938266520000005874607997113115277_);}
	.st248{fill:url(#SVGID_00000067198089495367521380000014645090057615873932_);}
	.st249{fill:url(#SVGID_00000088101819476416099910000013459947132715969459_);}
	.st250{fill:url(#SVGID_00000162349314812006870830000003614497215034361227_);}
	.st251{fill:url(#SVGID_00000031914559011543344250000009476204062037191866_);}
	.st252{fill:url(#SVGID_00000005989505862212517580000017568473806779371658_);}
	.st253{fill-rule:evenodd;clip-rule:evenodd;fill:url(#SVGID_00000150823273534430279780000005209129966627248575_);}
	.st254{fill:url(#SVGID_00000110454886988701307900000014902360334489527978_);}
	.st255{fill:url(#SVGID_00000145059369829866429090000007520288429538874800_);}
	.st256{fill:url(#SVGID_00000172409327691691527440000004332663941396460161_);}
	.st257{fill:url(#SVGID_00000029031761995485087130000011845567713254238106_);}
	.st258{fill:url(#SVGID_00000045613613090433617540000012431394248085185214_);}
	.st259{fill:url(#SVGID_00000166670234236214549470000006376803252806597011_);}
	.st260{fill:url(#SVGID_00000090985852673118397520000014450106712334131893_);}
	.st261{fill:url(#SVGID_00000090287670421781830340000014865208174965536389_);}
	.st262{fill:url(#SVGID_00000137850915819467780470000012994133518946138294_);}
	.st263{fill:url(#SVGID_00000150788876797006339030000013491995671281835142_);}
	.st264{fill:url(#SVGID_00000008845063843945209720000003037022910472353937_);}
	.st265{fill:url(#SVGID_00000132059722364333238170000009931483241952387483_);}
	.st266{fill:url(#SVGID_00000086685452409109287330000007496229762599722943_);}
	.st267{fill:url(#SVGID_00000161631977825454170690000000985034236411334293_);}
	.st268{fill:url(#SVGID_00000159434580496360996920000004505241196793423282_);}
	.st269{fill-rule:evenodd;clip-rule:evenodd;fill:url(#SVGID_00000077288863207033503670000000883975211684108703_);}
	.st270{fill:url(#SVGID_00000074419991246297994690000003793542685032875931_);}
	.st271{fill:url(#SVGID_00000171683830365970367310000003721908935767907976_);}
	.st272{fill:url(#SVGID_00000030468996384746385290000002519649401686250119_);}
	.st273{fill:url(#SVGID_00000169517554344184112470000013163896456375407506_);}
	.st274{fill:url(#SVGID_00000116926540538480621250000002963674767050342785_);}
	.st275{fill:url(#SVGID_00000088095928486532863770000003120765234881143970_);}
	.st276{fill:url(#SVGID_00000037661342402848139670000012283187111464452283_);}
	.st277{fill:url(#SVGID_00000024697336398417450330000004897942290577805216_);}
	.st278{fill:url(#SVGID_00000031172685096005925710000013006150871957971087_);}
	.st279{fill:url(#SVGID_00000106125907722827036630000016623940720408944040_);}
	.st280{fill:url(#SVGID_00000159436861769919340450000000450912785296952455_);}
	.st281{fill:url(#SVGID_00000085248094331085030520000012433209165737727364_);}
	.st282{fill:url(#SVGID_00000010993616668554990720000010938588274370043065_);}
	.st283{fill:url(#SVGID_00000116223261081495729660000003028858010284391862_);}
	.st284{fill:url(#SVGID_00000004505836092898145470000014758481493961868975_);}
	.st285{fill-rule:evenodd;clip-rule:evenodd;fill:url(#SVGID_00000175321309709037325110000002482038156869386677_);}
	.st286{fill:url(#SVGID_00000159448854286790715690000013884553393958904206_);}
	.st287{fill:url(#SVGID_00000101815871139481071840000010323167781950751904_);}
	.st288{fill:url(#SVGID_00000036951338425045731690000013593039550103609732_);}
	.st289{fill:url(#SVGID_00000078043394981509322110000011348857769563577498_);}
	.st290{fill:url(#SVGID_00000026143038008758263750000015390664538403125182_);}
	.st291{fill:url(#SVGID_00000069399777166427431020000007731394194728695984_);}
	.st292{fill:url(#SVGID_00000177452453209490426850000009432813652142133171_);}
	.st293{fill:url(#SVGID_00000034083431608575711030000012740335115364889730_);}
	.st294{fill:url(#SVGID_00000007424777405360173870000004957379291458258095_);}
	.st295{fill:url(#SVGID_00000077296436658543041610000000769638607332748197_);}
	.st296{fill:url(#SVGID_00000047026335975188009400000005225876058790275216_);}
	.st297{fill:url(#SVGID_00000152950218491298942920000013411326827062814364_);}
	.st298{fill:url(#SVGID_00000089549708136021835580000008509418733856788870_);}
	.st299{fill:url(#SVGID_00000116939607577193750040000008449408686517863092_);}
	.st300{fill:url(#SVGID_00000081614669903794880110000003133134463229229704_);}
	.st301{fill:url(#SVGID_00000064338120378876238450000003147433856501893032_);}
	.st302{fill:url(#SVGID_00000148633917797118646410000005448918716222612376_);}
	.st303{fill:url(#SVGID_00000015354129807718475500000009804542571827753117_);}
	.st304{fill-rule:evenodd;clip-rule:evenodd;fill:url(#SVGID_00000125597704672495590020000002490400675191453116_);}
	.st305{fill:url(#SVGID_00000114037415175955529110000016078848149899034752_);}
	.st306{fill:url(#SVGID_00000039125496383106227720000010394942516283070856_);}
	.st307{fill:url(#SVGID_00000103969686109875938500000006504834699529387931_);}
	.st308{fill:url(#SVGID_00000067236662397608041720000015585211805065948825_);}
	.st309{fill:url(#SVGID_00000112599276940754265360000006452005739035714731_);}
	.st310{fill:url(#SVGID_00000086673210016198536840000001680585495144754569_);}
	.st311{fill:url(#SVGID_00000141435414913078106760000015711706167624312720_);}
	.st312{fill:url(#SVGID_00000085937596562166981370000014228601339639251622_);}
	.st313{fill:url(#SVGID_00000082349785933485275650000013187696250273522355_);}
	.st314{fill:url(#SVGID_00000023984011318198534790000010610406269094332828_);}
	.st315{fill:url(#SVGID_00000113333997128084479680000005075232435415684507_);}
	.st316{fill:url(#SVGID_00000044893853514177239000000009387878368332381846_);}
	.st317{fill:url(#SVGID_00000160895035237579783540000006813143020735850642_);}
	.st318{fill:url(#SVGID_00000060007338178551595460000001577416655807185567_);}
	.st319{fill:url(#SVGID_00000052089005754875236500000004319061056692946849_);}
	.st320{fill:url(#SVGID_00000099632635228525903390000000170175086095944639_);}
	.st321{fill:url(#SVGID_00000152943143470047416640000010527917827685268626_);}
	.st322{fill:url(#SVGID_00000099641059949581587240000001980197658509122192_);}
	.st323{fill:url(#SVGID_00000142164420797834918480000017458566715517756810_);}
	.st324{fill:url(#SVGID_00000133517272339483850340000004918765917414802582_);}
	.st325{fill-rule:evenodd;clip-rule:evenodd;fill:url(#SVGID_00000132772563712051633430000000290379034109700006_);}
	.st326{fill:url(#SVGID_00000120539949380558980350000012067384004205413050_);}
	.st327{fill:url(#SVGID_00000107550088460526547240000013422588053970164667_);}
	.st328{fill:url(#SVGID_00000077284156595321895270000008723542536081207993_);}
	.st329{fill:url(#SVGID_00000074416320946263730250000010627316601436950169_);}
	.st330{fill:url(#SVGID_00000067234508709999611370000000435384491696762036_);}
	.st331{fill:url(#SVGID_00000096739953839666556850000001266763425022697896_);}
	.st332{fill:url(#SVGID_00000003821778310329457540000016358276269421391246_);}
	.st333{fill:url(#SVGID_00000138543534826228481650000010103712214254560178_);}
	.st334{fill:url(#SVGID_00000033358058195867511950000003342613312981961366_);}
	.st335{fill:url(#SVGID_00000127732920880182967210000006816113025606418324_);}
	.st336{fill:url(#SVGID_00000115491563554586162450000011841366471192886929_);}
	.st337{fill:url(#SVGID_00000072963486885831818900000011173199875769362338_);}
	.st338{fill:url(#SVGID_00000080198271073341948690000018391196163104989571_);}
	.st339{fill:url(#SVGID_00000072270840649408055660000011065267292838602930_);}
	.st340{fill:url(#SVGID_00000089575057021500526250000016939032533872984726_);}
	.st341{fill:url(#SVGID_00000154388611910549734180000013973353802129439375_);}
	.st342{fill-rule:evenodd;clip-rule:evenodd;fill:url(#SVGID_00000117665179253103044040000018377139739380682885_);}
	.st343{fill:url(#SVGID_00000014597083791320467760000001317145135224685194_);}
	.st344{fill:url(#SVGID_00000059288158935663901920000006431718753681892524_);}
	.st345{fill:url(#SVGID_00000147203717134652574340000008690042874423333525_);}
	.st346{fill:url(#SVGID_00000089573491564392633910000001947918812379713179_);}
	.st347{fill:url(#SVGID_00000183238435172663936880000008028884460159763846_);}
	.st348{fill:url(#SVGID_00000139283772062556277740000016128516998965381803_);}
	.st349{fill:url(#SVGID_00000164480136960682290770000009823940460026295431_);}
	.st350{fill:url(#SVGID_00000147918501932628666190000013984350934683761315_);}
	.st351{fill:url(#SVGID_00000038410374249329325370000011355392977200530594_);}
	.st352{fill:url(#SVGID_00000099634777099089237010000003361244607959771052_);}
	.st353{fill:url(#SVGID_00000023240075467254476740000000658315034997756051_);}
	.st354{fill:url(#SVGID_00000059279305019402864790000011259934415142506928_);}
	.st355{fill:url(#SVGID_00000114755096036694981810000011165723366588520338_);}
	.st356{fill:url(#SVGID_00000093896622061010249120000015203382584447606695_);}
	.st357{fill:url(#SVGID_00000167361339139807995430000007619508229554366085_);}
	.st358{fill:url(#SVGID_00000170263758075253799990000006259230051098342585_);}
	.st359{fill:url(#SVGID_00000044884793005048899370000017907723147178078362_);}
	.st360{fill:url(#SVGID_00000098909530802640948760000013752372072829535407_);}
	.st361{fill:url(#SVGID_00000076578977208408200660000006968428777621517243_);}
	.st362{fill:url(#SVGID_00000176011319760736254530000009212379762391381133_);}
	.st363{fill:#C1282D;}
	.st364{fill-rule:evenodd;clip-rule:evenodd;fill:url(#SVGID_00000057117858002271045640000013298326645639208589_);}
	.st365{fill:url(#SVGID_00000025404507786865084420000001952727967168730011_);}
	.st366{fill:url(#SVGID_00000147903616389508793450000005952957143940084353_);}
	.st367{fill:url(#SVGID_00000128450215689507288480000010447416564674099353_);}
	.st368{fill:url(#SVGID_00000023240096339965921940000010565890450701025953_);}
	.st369{fill:url(#SVGID_00000005248083780699331860000011578161558097014428_);}
	.st370{fill:url(#SVGID_00000074442418054695814490000001579282315531761547_);}
	.st371{fill:url(#SVGID_00000147938104643098117730000012237802268616263578_);}
	.st372{fill:url(#SVGID_00000084520865663893550590000014899699884503370659_);}
	.st373{fill:url(#SVGID_00000179613684757963415590000012997883952823713664_);}
	.st374{fill:url(#SVGID_00000100382634353160257310000006338360912653325240_);}
	.st375{fill:url(#SVGID_00000121996539035434415660000000035527685928049840_);}
	.st376{fill:url(#SVGID_00000137097146293841990020000005538740752875922603_);}
	.st377{fill:url(#SVGID_00000054978062962049715970000013895333687491097728_);}
	.st378{fill:url(#SVGID_00000119831276678558191230000006996083757520344503_);}
	.st379{fill:url(#SVGID_00000081620173751370684880000007030937516111930790_);}
	.st380{fill:url(#SVGID_00000167389307414880771960000007230492267788793269_);}
	.st381{fill-rule:evenodd;clip-rule:evenodd;fill:url(#SVGID_00000086679552189645822650000009389852082280378541_);}
	.st382{fill:url(#SVGID_00000051343010249177644140000005834126250010235071_);}
	.st383{fill:url(#SVGID_00000038410539588084797950000002589967764604435892_);}
	.st384{fill:url(#SVGID_00000103981644116607144540000011507926250418931868_);}
	.st385{fill:url(#SVGID_00000096749067093092432630000009572813062655756987_);}
	.st386{fill:url(#SVGID_00000089558735244214688400000006203261057432704925_);}
	.st387{fill:url(#SVGID_00000039131386597184395320000012100558306118156723_);}
	.st388{fill:url(#SVGID_00000168834419256546035300000018147367436578064787_);}
	.st389{fill:url(#SVGID_00000106826928582797618630000009495909779851946391_);}
	.st390{fill:url(#SVGID_00000017511201962325850660000004818544219098251944_);}
	.st391{fill:url(#SVGID_00000117652807475433318380000018194691465835661200_);}
	.st392{fill:url(#SVGID_00000032611712683821362810000015790482926545005973_);}
	.st393{fill:url(#SVGID_00000135690788175803472740000007692437452731056034_);}
	.st394{fill:url(#SVGID_00000122706951923046601880000015225393091868323764_);}
	.st395{fill:url(#SVGID_00000091718027215923601770000004865116797126725556_);}
	.st396{fill:url(#SVGID_00000142139812281477040020000007854536304412486298_);}
	.st397{fill:url(#SVGID_00000027603974156912613850000013004894903953102768_);}
	.st398{fill:url(#SVGID_00000129916105235967418180000006078400110481203346_);}
	.st399{fill:url(#SVGID_00000151503677717558288670000011511822310042668952_);}
	.st400{fill:url(#SVGID_00000082354846082592366710000008383992542538619044_);}
	.st401{fill:url(#SVGID_00000055682223313915348900000013750364660903583400_);}
</style>
<g>
	<g>
		<ellipse class="st11" cx="540" cy="475.16" rx="227.54" ry="112.91"/>
		<path class="st121" d="M756.2,510.32c-29.81,45.15-115.32,77.75-216.2,77.75c-101.44,0-187.33-32.94-216.69-78.51l2.23-0.7
			l10.47-3.27l73.92-23.2l-6.96,19.34c-0.59,1.64,1.08,3.2,2.68,2.5l65.26-28.18l-22.12,32.73c-1.22,1.77,0.87,3.97,2.71,2.82
			l65.5-40.46v24.56c0,1.74,2.09,2.64,3.37,1.43l6.71-6.37l10.58,24.56c0.66,1.53,2.82,1.63,3.62,0.14l17.15-32.73l79.59,40.25
			c1.81,0.94,3.69-1.18,2.54-2.89l-20.98-31.45c-0.49-0.7-0.45-1.63,0.07-2.3l9.04-12.28l10.54,13.11c0.94,1.15,2.71,0.94,3.37-0.38
			l5.57-11.31l48.18,35.59c1.11,0.8,2.71,0.28,3.1-1.04l5.01-16.49l51.55,16.66c0.03,0,0.07,0.03,0.07,0.03
			C756.13,510.29,756.16,510.29,756.2,510.32z"/>
		
			<linearGradient id="SVGID_00000013879002014391320430000008781174324397940616_" gradientUnits="userSpaceOnUse" x1="446.5716" y1="366.3737" x2="670.8422" y2="622.5562">
			<stop  offset="0" style="stop-color:#3E76BB"/>
			<stop  offset="1" style="stop-color:#06509E"/>
		</linearGradient>
		<path style="fill-rule:evenodd;clip-rule:evenodd;fill:url(#SVGID_00000013879002014391320430000008781174324397940616_);" d="
			M767.54,475.35c0,1.08-0.03,2.12-0.1,3.17c-0.03,0.9-0.1,1.77-0.21,2.64c-0.07,0.8-0.17,1.6-0.28,2.4
			c-0.07,0.56-0.17,1.11-0.28,1.67c-0.31,1.95-0.77,3.9-1.32,5.81c-0.17,0.7-0.38,1.39-0.59,2.05c-0.07,0.24-0.14,0.49-0.24,0.73
			c-0.28,0.87-0.59,1.74-0.9,2.57c-0.24,0.66-0.52,1.36-0.83,2.02c-0.07,0.21-0.17,0.45-0.28,0.66l-0.1-0.03l-0.07-0.03
			l-146.56-71.1c-0.9-0.42-1.98-0.14-2.54,0.7l-19.69,29.39l-52.46-64.46c-0.73-0.84-1.98-0.97-2.82-0.24l-72.88,61.09l-34.54-3.3
			c-0.56-0.07-1.11,0-1.64,0.24c-9.5,4.28-105.19,47.62-110.66,50.09c-0.24-0.45-0.45-0.87-0.63-1.32
			c-0.28-0.63-0.56-1.29-0.83-1.95c-0.56-1.32-1.08-2.68-1.5-4c-0.28-0.8-0.52-1.57-0.73-2.37c-0.8-2.57-1.36-5.18-1.74-7.83
			c-0.28-1.74-0.45-3.51-0.56-5.29c-0.07-1.08-0.1-2.19-0.1-3.3c0-62.44,101.86-113.09,227.54-113.09
			C665.68,362.26,767.54,412.91,767.54,475.35z"/>
		<g>
			<path class="st11" d="M413.76,535.35c0.31,0,0.61-0.06,0.9-0.19c0.29-0.13,0.47-0.3,0.55-0.54h0.67l-1.16,4.44
				c-0.19,0.62-0.76,0.93-1.71,0.93h-1.71l-3.25,13.82c-0.04,0.19,0.05,0.39,0.26,0.59c0.21,0.2,0.43,0.31,0.64,0.31l-0.2,0.67
				h-8.07c-0.62,0-0.93-0.31-0.93-0.93c0-0.08,0.02-0.23,0.06-0.46l3.28-14h-2c-0.31,0-0.57,0.07-0.77,0.22
				c-0.2,0.15-0.34,0.33-0.42,0.57h-0.73l1.16-4.65c0.08-0.27,0.23-0.47,0.46-0.6c0.23-0.13,0.6-0.19,1.1-0.19H413.76z"/>
			<path class="st11" d="M423.08,555.38c-0.5,0-0.88-0.08-1.12-0.25c-0.24-0.16-0.38-0.45-0.42-0.86l-0.26-2.96h-3.37l-1.19,2.38
				c-0.02,0.06-0.03,0.11-0.03,0.14s-0.01,0.12-0.03,0.23c0,0.17,0.08,0.32,0.25,0.45c0.16,0.13,0.35,0.19,0.57,0.19l-0.15,0.67
				h-6.3c-0.81,0-1.22-0.32-1.22-0.96c0-0.17,0.05-0.36,0.14-0.55l8.54-16.55c0.06-0.12,0.09-0.26,0.09-0.44
				c0-0.21-0.09-0.41-0.28-0.59c-0.18-0.18-0.38-0.28-0.6-0.28l0.17-0.67h8.65c0.45,0,0.82,0.12,1.13,0.36
				c0.31,0.24,0.46,0.59,0.46,1.03l1.34,16.96c0,0.25,0.14,0.48,0.41,0.7c0.27,0.21,0.55,0.32,0.84,0.32l-0.14,0.67H423.08z
				 M419.63,547.43h1.65l-0.23-3.25L419.63,547.43z"/>
			<path class="st11" d="M429.33,537.15c-0.04-0.35-0.17-0.62-0.39-0.83c-0.22-0.2-0.47-0.31-0.74-0.31l0.14-0.67h8.1
				c0.25,0,0.49,0.13,0.73,0.38c0.23,0.25,0.35,0.52,0.35,0.81l0.23,7.61l2.85-6.65l0.12-0.46c0-0.23-0.08-0.46-0.25-0.68
				c-0.16-0.22-0.35-0.33-0.57-0.33l0.14-0.67h5.89c0.35,0,0.63,0.13,0.86,0.39s0.33,0.54,0.33,0.83l-0.12,0.58l-8.54,18.23h-5.43
				c-0.45,0-0.81-0.1-1.1-0.29c-0.29-0.19-0.47-0.46-0.52-0.78L429.33,537.15z"/>
			<path class="st11" d="M454.1,555.38c-0.5,0-0.88-0.08-1.12-0.25c-0.24-0.16-0.38-0.45-0.42-0.86l-0.26-2.96h-3.37l-1.19,2.38
				c-0.02,0.06-0.03,0.11-0.03,0.14s-0.01,0.12-0.03,0.23c0,0.17,0.08,0.32,0.25,0.45c0.16,0.13,0.35,0.19,0.57,0.19l-0.15,0.67
				h-6.3c-0.81,0-1.22-0.32-1.22-0.96c0-0.17,0.05-0.36,0.14-0.55l8.54-16.55c0.06-0.12,0.09-0.26,0.09-0.44
				c0-0.21-0.09-0.41-0.28-0.59c-0.18-0.18-0.38-0.28-0.6-0.28l0.17-0.67h8.65c0.45,0,0.82,0.12,1.13,0.36
				c0.31,0.24,0.46,0.59,0.46,1.03l1.34,16.96c0,0.25,0.14,0.48,0.41,0.7c0.27,0.21,0.55,0.32,0.84,0.32l-0.14,0.67H454.1z
				 M450.64,547.43h1.65l-0.23-3.25L450.64,547.43z"/>
			<path class="st11" d="M481.25,555.38h-5.28c-0.58,0-1.07-0.08-1.47-0.23c-0.4-0.15-0.65-0.43-0.77-0.84l-2.96-7.17l-1.68,6.47
				l-0.06,0.49c0,0.19,0.08,0.34,0.25,0.45c0.16,0.11,0.38,0.16,0.65,0.16l-0.15,0.67h-6.53c-0.33,0-0.58-0.09-0.74-0.28
				c-0.16-0.19-0.25-0.43-0.25-0.74c0-0.12,0.02-0.27,0.06-0.47l3.95-16.99c0.04-0.21-0.04-0.42-0.23-0.61
				c-0.19-0.19-0.41-0.29-0.64-0.29l0.17-0.67h7.38c0.23,0,0.5,0.11,0.8,0.33c0.3,0.22,0.5,0.46,0.6,0.71l3.14,7.32l1.39-6.27
				c0.04-0.12,0.06-0.3,0.06-0.55c0-0.23-0.1-0.43-0.29-0.61c-0.19-0.17-0.41-0.26-0.64-0.26l0.17-0.67h6.5
				c0.31,0,0.55,0.11,0.71,0.32c0.16,0.21,0.25,0.46,0.25,0.73l-0.09,0.78L481.25,555.38z"/>
			<path class="st11" d="M511.95,535.32c1.3,0,2.3,0.34,3,1.02c0.71,0.68,1.06,1.53,1.06,2.56c0,0.15-0.01,0.33-0.04,0.52
				c-0.03,0.19-0.05,0.34-0.07,0.44c-0.45,2.13-1.36,3.42-2.73,3.86c0.56,0.35,0.97,0.73,1.23,1.15c0.26,0.42,0.39,1.03,0.39,1.84
				c0,0.74-0.14,1.76-0.43,3.08c-0.5,2.19-1.28,3.69-2.32,4.5c-0.95,0.74-2.41,1.1-4.38,1.1h-11.53c-0.33,0-0.58-0.09-0.74-0.28
				c-0.16-0.19-0.25-0.43-0.25-0.74c0-0.12,0.02-0.27,0.06-0.47l3.95-16.99c0.04-0.21-0.04-0.42-0.23-0.61
				c-0.19-0.19-0.41-0.29-0.64-0.29l0.17-0.67L511.95,535.32z M505.12,550.88c0.52,0,0.88-0.12,1.09-0.36
				c0.2-0.24,0.4-0.79,0.59-1.64c0.14-0.54,0.2-0.99,0.2-1.34c0-0.66-0.36-0.99-1.08-0.99h-0.81l-0.99,4.32H505.12z M507.18,542.69
				c0.33,0,0.56-0.09,0.7-0.28c0.14-0.19,0.26-0.52,0.38-1c0.12-0.48,0.17-0.83,0.17-1.04c0-0.5-0.28-0.76-0.84-0.76h-0.87
				l-0.7,3.08H507.18z"/>
			<path class="st11" d="M529.54,535.35c1.7,0,3.11,0.44,4.21,1.32c1.1,0.88,1.66,2.12,1.66,3.73c0,0.58-0.07,1.14-0.2,1.68
				l-1.74,7.38c-0.5,2.19-1.37,3.75-2.61,4.67c-1.08,0.83-2.58,1.25-4.47,1.25h-5.95c-1.82,0-3.17-0.41-4.05-1.23
				c-0.88-0.82-1.32-2.04-1.32-3.65c0-0.95,0.13-1.93,0.38-2.96l1.28-5.49c0.5-2.11,1.23-3.69,2.18-4.73
				c1.22-1.32,2.93-1.98,5.14-1.98H529.54z M523.27,549.17c-0.06,0.27-0.09,0.5-0.09,0.7c0,0.48,0.27,0.73,0.81,0.73
				c0.37,0,0.64-0.08,0.83-0.25c0.18-0.16,0.32-0.46,0.42-0.88l1.92-8.16c0.04-0.23,0.06-0.39,0.06-0.47c0-0.56-0.28-0.84-0.84-0.84
				c-0.62,0-1.03,0.39-1.25,1.16L523.27,549.17z"/>
			<path class="st11" d="M545.29,546.7l0.06-0.38c0-0.17-0.12-0.26-0.35-0.26c-0.23,0-0.35-0.1-0.35-0.29l0.06-0.38l0.84-3.45h6.42
				c0.46,0,0.83,0.14,1.09,0.42c0.26,0.28,0.39,0.6,0.39,0.94c0,0.45-0.04,0.81-0.12,1.1l-1.54,6.82c-0.35,1.55-0.88,2.63-1.6,3.24
				c-0.72,0.61-1.92,0.91-3.6,0.91h-7.03c-1.96,0-3.36-0.38-4.21-1.13c-0.75-0.68-1.13-1.71-1.13-3.11c0-0.89,0.15-1.97,0.46-3.25
				l1.6-7c0.41-1.82,1.19-3.22,2.35-4.21c1.07-0.91,2.28-1.37,3.66-1.37h11.87c-0.06,0.58-0.16,1.17-0.32,1.77
				c-0.15,0.6-0.32,1.09-0.51,1.48c-0.18,0.39-0.47,0.67-0.84,0.84c-0.38,0.17-0.81,0.26-1.29,0.26h-4.91
				c-0.54,0-0.96,0.13-1.26,0.39c-0.3,0.26-0.52,0.69-0.65,1.29l-1.89,8.13c-0.04,0.27-0.06,0.45-0.06,0.52
				c0,0.48,0.3,0.73,0.9,0.73c0.68,0,1.09-0.36,1.25-1.07L545.29,546.7z"/>
			<path class="st11" d="M567.56,535.35c1.96,0,3.38,0.5,4.27,1.51c0.79,0.91,1.19,2.25,1.19,4.01c0,0.68-0.06,1.44-0.19,2.28
				c-0.13,0.84-0.31,1.73-0.54,2.66c-0.91,3.85-1.81,6.41-2.69,7.68c-0.88,1.27-2.16,1.9-3.85,1.9h-12.95
				c-0.33,0-0.58-0.09-0.74-0.28c-0.16-0.19-0.25-0.43-0.25-0.74c0-0.12,0.02-0.27,0.06-0.47l3.95-16.99
				c0.04-0.21-0.04-0.42-0.23-0.61c-0.19-0.19-0.41-0.29-0.64-0.29l0.17-0.67H567.56z M561.87,550.59c0.41,0,0.72-0.12,0.93-0.35
				c0.21-0.23,0.39-0.63,0.52-1.19l1.68-7.23c0.08-0.33,0.12-0.64,0.12-0.93c0-0.6-0.35-0.9-1.04-0.9h-0.73l-2.47,10.6H561.87z"/>
			<path class="st11" d="M593.93,546.7l0.06-0.38c0-0.17-0.12-0.26-0.35-0.26c-0.23,0-0.35-0.1-0.35-0.29l0.06-0.38l0.84-3.45h6.42
				c0.46,0,0.83,0.14,1.09,0.42c0.26,0.28,0.39,0.6,0.39,0.94c0,0.45-0.04,0.81-0.12,1.1l-1.54,6.82c-0.35,1.55-0.88,2.63-1.6,3.24
				c-0.72,0.61-1.92,0.91-3.6,0.91h-7.03c-1.96,0-3.36-0.38-4.21-1.13c-0.75-0.68-1.13-1.71-1.13-3.11c0-0.89,0.15-1.97,0.46-3.25
				l1.6-7c0.41-1.82,1.19-3.22,2.35-4.21c1.07-0.91,2.28-1.37,3.66-1.37h11.87c-0.06,0.58-0.16,1.17-0.32,1.77
				c-0.15,0.6-0.32,1.09-0.51,1.48c-0.18,0.39-0.47,0.67-0.84,0.84c-0.38,0.17-0.81,0.26-1.29,0.26h-4.91
				c-0.54,0-0.96,0.13-1.26,0.39s-0.52,0.69-0.65,1.29l-1.89,8.13c-0.04,0.27-0.06,0.45-0.06,0.52c0,0.48,0.3,0.73,0.9,0.73
				c0.68,0,1.09-0.36,1.25-1.07L593.93,546.7z"/>
			<path class="st11" d="M618.55,549.86c0.14,0.23,0.32,0.43,0.55,0.6c0.23,0.16,0.49,0.25,0.78,0.25h0.84l-0.7,3.31
				c-0.19,0.91-0.89,1.36-2.09,1.36h-3.89c-0.5,0-0.94-0.13-1.31-0.39c-0.37-0.26-0.6-0.59-0.7-0.97l-1.68-5.92l-1.25,5.66
				l-0.03,0.29c0,0.19,0.08,0.35,0.25,0.48c0.16,0.13,0.37,0.19,0.62,0.19l-0.14,0.67h-8.04c-0.33,0-0.58-0.09-0.74-0.28
				c-0.16-0.19-0.25-0.43-0.25-0.74c0-0.12,0.02-0.27,0.06-0.47l3.95-16.99c0.04-0.21-0.04-0.42-0.23-0.61
				c-0.19-0.19-0.41-0.29-0.64-0.29l0.17-0.67h13.44c3.02,0,4.53,1.4,4.53,4.21c0,0.39-0.02,0.73-0.06,1.02
				c-0.1,0.5-0.16,0.89-0.2,1.16c-0.39,1.74-0.9,3.02-1.54,3.83c-0.64,0.81-1.55,1.36-2.73,1.63L618.55,549.86z M611.5,543.45h1.13
				c0.66,0,1.11-0.55,1.36-1.65c0.04-0.21,0.08-0.42,0.12-0.62c0.04-0.2,0.06-0.37,0.06-0.51c0-0.54-0.23-0.81-0.7-0.81h-1.13
				L611.5,543.45z"/>
			<path class="st11" d="M635.48,535.35c1.7,0,3.11,0.44,4.21,1.32c1.1,0.88,1.66,2.12,1.66,3.73c0,0.58-0.07,1.14-0.2,1.68
				l-1.74,7.38c-0.5,2.19-1.37,3.75-2.61,4.67c-1.08,0.83-2.58,1.25-4.47,1.25h-5.95c-1.82,0-3.17-0.41-4.05-1.23
				c-0.88-0.82-1.32-2.04-1.32-3.65c0-0.95,0.13-1.93,0.38-2.96l1.28-5.49c0.5-2.11,1.23-3.69,2.18-4.73
				c1.22-1.32,2.93-1.98,5.14-1.98H635.48z M629.21,549.17c-0.06,0.27-0.09,0.5-0.09,0.7c0,0.48,0.27,0.73,0.81,0.73
				c0.37,0,0.64-0.08,0.83-0.25c0.18-0.16,0.32-0.46,0.42-0.88l1.92-8.16c0.04-0.23,0.06-0.39,0.06-0.47c0-0.56-0.28-0.84-0.84-0.84
				c-0.62,0-1.03,0.39-1.25,1.16L629.21,549.17z"/>
			<path class="st11" d="M648.81,549.34c-0.04,0.19-0.06,0.31-0.06,0.35c0,0.42,0.33,0.64,0.99,0.64c0.37,0,0.63-0.06,0.8-0.19
				c0.16-0.13,0.29-0.39,0.39-0.8l2.88-12.43c0.04-0.19-0.04-0.39-0.23-0.59c-0.19-0.2-0.4-0.31-0.61-0.31l0.14-0.67h8.07
				c0.33,0,0.57,0.08,0.71,0.25c0.15,0.16,0.22,0.4,0.22,0.71l-0.06,0.44l-2.93,12.72c-0.5,2.21-1.33,3.76-2.47,4.67
				c-1.03,0.81-2.47,1.22-4.33,1.22h-6.65c-1.76,0-3.05-0.39-3.88-1.18c-0.82-0.78-1.23-1.94-1.23-3.47c0-0.93,0.14-1.99,0.43-3.19
				l2.47-10.6c0.04-0.19-0.04-0.39-0.23-0.59c-0.19-0.2-0.4-0.31-0.61-0.31l0.14-0.67h8.07c0.33,0,0.57,0.08,0.71,0.25
				c0.14,0.16,0.22,0.4,0.22,0.71l-0.06,0.44L648.81,549.34z"/>
			<path class="st11" d="M675.44,535.35c1.78,0,3.13,0.36,4.04,1.08c0.91,0.72,1.37,1.85,1.37,3.4c0,0.42-0.02,0.81-0.06,1.16
				c-0.04,0.35-0.13,0.78-0.26,1.31c-0.62,2.67-1.32,4.44-2.09,5.3c-0.77,0.86-2.04,1.29-3.8,1.29h-5.98l-1.07,4.56l-0.09,0.55
				c0,0.21,0.09,0.39,0.26,0.52c0.17,0.14,0.38,0.2,0.61,0.2l-0.17,0.67h-8.01c-0.33,0-0.58-0.09-0.74-0.28
				c-0.16-0.19-0.25-0.43-0.25-0.74c0-0.12,0.02-0.27,0.06-0.47l3.95-16.99c0.04-0.21-0.04-0.42-0.23-0.61
				c-0.19-0.19-0.41-0.29-0.64-0.29l0.17-0.67H675.44z M669.75,544.23h0.9c0.48,0,0.84-0.15,1.07-0.45c0.23-0.3,0.45-0.88,0.64-1.73
				c0.12-0.5,0.17-0.9,0.17-1.19c0-0.39-0.08-0.65-0.25-0.8c-0.16-0.14-0.41-0.22-0.74-0.22h-0.78L669.75,544.23z"/>
		</g>
	</g>
	<g>
		<path class="st138" d="M217.99,709.15l13.56-15l-8.04-14.68h4.19l3.66,6.72c1.32,2.4,2.23,4.22,2.77,5.47
			c0.93-1.31,2.41-3.08,4.43-5.33l6.24-6.86h4.96l-13.73,15.33l7.78,14.35l-4.12-0.01l-4.6-8.69c-0.44-0.84-0.96-1.94-1.57-3.27
			c-0.65,0.91-1.51,1.95-2.57,3.14l-7.92,8.82H217.99L217.99,709.15z M260.84,706.48c-2.25,2.11-4.61,3.16-7.09,3.16
			c-1.84,0-3.37-0.57-4.56-1.7c-1.2-1.13-1.79-2.63-1.79-4.49c0-2.22,0.77-3.92,2.33-5.13c1.6-1.24,3.94-1.86,7.02-1.86l1.86-0.08
			c0.88,0,1.67-0.06,2.35-0.19c0.69-0.12,1.26-0.3,1.71-0.51c0.27-1,0.41-1.87,0.41-2.59c0-0.85-0.38-1.55-1.13-2.09
			c-0.76-0.55-1.86-0.82-3.31-0.82c-2.9,0-4.79,1.31-5.68,3.92l-3.54-0.32c1.47-4.4,4.6-6.6,9.38-6.6c2.3,0,4.17,0.51,5.6,1.54
			c1.43,1.02,2.15,2.37,2.15,4.05c0,1.15-0.16,2.47-0.48,3.99l-1.14,5.34c-0.18,0.92-0.32,1.7-0.41,2.33
			c-0.09,0.64-0.14,1.22-0.14,1.76c0,0.96,0.15,1.96,0.43,2.98h-3.54c-0.12-0.38-0.21-0.79-0.29-1.26
			C260.88,707.44,260.84,706.96,260.84,706.48L260.84,706.48z M262.13,698.26c-0.83,0.32-1.96,0.55-3.39,0.71l-2.02,0.2
			c-1.14,0-2.13,0.14-2.98,0.43c-0.75,0.24-1.34,0.58-1.75,1.01c-0.75,0.75-1.12,1.64-1.12,2.67c0,1.02,0.34,1.85,1.04,2.52
			c0.69,0.67,1.63,1,2.82,1c1.68,0,3.21-0.62,4.58-1.85C260.69,703.74,261.63,701.51,262.13,698.26L262.13,698.26z M273.35,687.66
			h5.21l1.94,17.15l9.55-17.15h5.11l-4.4,21.5h-3.47l3.58-17.33l-9.65,17.33h-3.11l-2.04-17.99l-3.68,17.99h-3.47L273.35,687.66
			L273.35,687.66z M296.14,709.15l4.3-21.5h3.51l-0.72,3.54c2.18-2.69,4.44-4.03,6.78-4.03c1.36,0,2.45,0.34,3.29,1.02
			c0.8,0.63,1.36,1.64,1.67,3.01c1.02-1.32,2.12-2.32,3.29-3.01c1.18-0.68,2.39-1.02,3.66-1.02c1.69,0,2.97,0.41,3.84,1.22
			c0.87,0.82,1.31,2.04,1.31,3.66c0,0.71-0.15,1.79-0.45,3.26l-2.78,13.85h-3.5l2.83-14.21c0.12-0.59,0.21-1.09,0.27-1.49
			c0.07-0.41,0.1-0.74,0.1-1c0-0.75-0.2-1.32-0.61-1.7c-0.41-0.38-1.02-0.57-1.83-0.57c-1.19,0-2.35,0.4-3.49,1.2
			c-1.14,0.81-1.97,1.76-2.5,2.87c-0.46,1.05-0.9,2.54-1.32,4.47l-2.1,10.43h-3.5l2.91-14.52c0.2-1.04,0.31-1.74,0.31-2.1
			c0-0.73-0.23-1.31-0.66-1.72c-0.44-0.42-0.98-0.63-1.61-0.63c-0.6,0-1.18,0.1-1.75,0.3c-0.58,0.2-1.16,0.52-1.76,0.95
			c-1.14,0.82-2.01,1.84-2.59,3.07c-0.53,1.15-0.99,2.64-1.38,4.47l-2.04,10.16H296.14L296.14,709.15z M353.91,687.66h3.54
			l-4.45,21.5h-3.52L353.91,687.66L353.91,687.66z M333.62,687.66h3.5l-1.76,8.31h3.74c2.37,0,4.07,0.18,5.08,0.55
			c1.01,0.37,1.81,1.03,2.41,2c0.6,0.97,0.89,2.04,0.89,3.23c0,0.72-0.1,1.41-0.29,2.09c-0.19,0.68-0.5,1.35-0.91,2.02
			c-0.77,1.3-1.75,2.17-2.92,2.63c-1.16,0.45-2.98,0.68-5.44,0.68h-8.76L333.62,687.66L333.62,687.66z M333.25,706.24h4.47
			c1.73,0,2.96-0.12,3.68-0.37c0.73-0.24,1.34-0.68,1.83-1.33c0.49-0.65,0.73-1.42,0.73-2.33c0-0.82-0.22-1.52-0.65-2.08
			c-0.44-0.56-0.93-0.9-1.5-1.02c-0.26-0.05-0.66-0.1-1.2-0.14c-0.54-0.04-1.16-0.06-1.89-0.06h-3.99L333.25,706.24L333.25,706.24z
			 M362.78,687.66h3.47l-1.86,8.96h9.55l1.81-8.96h3.43l-4.33,21.5h-3.49l1.99-9.62h-9.52l-1.99,9.62h-3.46L362.78,687.66
			L362.78,687.66z M389.89,709.15l8.95-10.91l-5.14-10.59h3.87l1.75,3.82c0.75,1.7,1.33,3.07,1.74,4.11l5.93-7.93h4.28l-8.64,10.87
			l5.19,10.63l-3.88,0.01l-2.05-4.38c-0.26-0.57-0.5-1.1-0.71-1.6c-0.16-0.37-0.42-0.99-0.77-1.86l-6.12,7.84H389.89L389.89,709.15z
			 M416.31,709.15l-3.39-21.5h3.39l1.79,11.84c0.19,1.19,0.42,3.3,0.71,6.34c0.67-1.55,1.53-3.3,2.57-5.25l6.88-12.93h3.7
			l-11.78,21.5l-2.44,8.5l-3.55,0.09L416.31,709.15L416.31,709.15z M434.12,687.66h3.44l-0.73,3.6c-0.47,2.27-0.7,3.86-0.7,4.8
			c0,0.93,0.34,1.64,1.02,2.13c0.69,0.48,1.71,0.73,3.08,0.73c1.65,0,3.19-0.3,4.61-0.91l2.12-10.34h3.48l-4.38,21.5h-3.5l1.69-8.24
			c-1.75,0.6-3.37,0.9-4.89,0.9c-2.08,0-3.72-0.46-4.93-1.4c-1.21-0.93-1.81-2.25-1.81-3.97c0-0.72,0.31-2.71,0.93-5.97
			L434.12,687.66L434.12,687.66z M462.82,700.25l0.73-3.66h10.69l-0.71,3.66H462.82L462.82,700.25z M484.64,709.15l16.1-29.68h4.48
			l4.69,29.68h-3.69l-1.37-8.54h-11.48l-4.56,8.55L484.64,709.15L484.64,709.15z M494.97,697.56h9.4l-1.1-7.46
			c-0.25-1.8-0.44-3.17-0.56-4.12c-0.16-1.31-0.23-2.4-0.23-3.26c-0.66,1.74-1.61,3.76-2.83,6.05L494.97,697.56L494.97,697.56z
			 M517.59,687.66h5.21l1.94,17.15l9.56-17.15h5.11l-4.4,21.5h-3.47l3.58-17.33l-9.65,17.33h-3.11l-2.04-17.99l-3.68,17.99h-3.47
			L517.59,687.66L517.59,687.66z M554.05,687.66h3.41l-1.91,9.18l0.27,0.03c0.74,0,1.44-0.33,2.11-0.98
			c0.66-0.66,1.51-1.87,2.55-3.66c1.12-1.93,2.14-3.17,3.06-3.73c0.92-0.56,1.86-0.84,2.85-0.84c0.68,0,1.4,0.12,2.17,0.37
			l-0.79,2.18c-0.47-0.19-0.85-0.28-1.16-0.28c-0.58,0-1.09,0.21-1.53,0.63c-0.44,0.42-1,1.29-1.68,2.58
			c-1.42,2.67-3.02,4.32-4.79,4.95c0.62,0.23,1.2,0.6,1.75,1.11c0.56,0.51,1.12,1.54,1.72,3.1l2.58,6.86h-3.61l-2.03-5.47
			c-0.62-1.7-1.18-2.85-1.7-3.45c-0.52-0.6-1.24-0.98-2.19-1.15l-2.1,10.06h-3.44l2.07-10.06c-0.36,0-0.69,0.06-1,0.16
			c-0.31,0.11-0.64,0.28-0.99,0.51c-0.63,0.41-1.68,1.62-3.13,3.62l-4.25,5.76l-4.25,0.01l5.44-7.17c1.59-2.09,3.29-3.39,5.11-3.9
			c-0.79-0.52-1.37-1.13-1.74-1.85c-0.38-0.72-0.74-2.03-1.08-3.95c-0.16-0.93-0.35-1.56-0.58-1.89c-0.22-0.32-0.56-0.48-1-0.48
			c-0.32,0-0.82,0.1-1.49,0.28l0.23-2.33c0.28-0.07,0.58-0.12,0.9-0.16c0.31-0.04,0.62-0.06,0.92-0.06c1.22,0,2.1,0.36,2.62,1.08
			c0.53,0.66,0.99,1.9,1.36,3.72c0.38,1.82,0.79,3.01,1.24,3.57c0.45,0.56,1.16,0.84,2.14,0.84L554.05,687.66L554.05,687.66z
			 M581.75,705.26c-2.47,2.92-4.97,4.37-7.5,4.37c-1.55,0-2.83-0.46-3.86-1.37c-1.02-0.91-1.53-2.07-1.53-3.49
			c0-0.97,0.22-2.54,0.65-4.72l2.48-12.4h3.51l-2.75,13.74c-0.23,1.13-0.35,2.04-0.35,2.71c0,0.82,0.23,1.46,0.7,1.9
			c0.48,0.42,1.17,0.63,2.08,0.63c1.34,0,2.62-0.45,3.83-1.35c1.2-0.9,2.09-1.98,2.66-3.24c0.53-1.19,1.03-2.89,1.47-5.1l1.86-9.29
			h3.5l-4.3,21.5h-3.23L581.75,705.26L581.75,705.26z M595.64,687.66h15.49l-4.38,21.5h-3.48l3.84-18.44h-8.64l-2.65,12.82
			c-0.45,2.2-1.06,3.73-1.82,4.6c-0.76,0.87-1.82,1.31-3.16,1.31c-0.41,0-0.86-0.02-1.34-0.06c-0.49-0.04-1.06-0.11-1.74-0.22
			l0.64-3.03l1.47,0.06c0.89,0,1.47-0.22,1.73-0.67c0.26-0.44,0.67-1.87,1.21-4.28L595.64,687.66L595.64,687.66z M612.12,709.15
			l4.3-21.5h3.51l-0.72,3.54c2.18-2.69,4.44-4.03,6.78-4.03c1.36,0,2.45,0.34,3.29,1.02c0.8,0.63,1.36,1.64,1.67,3.01
			c1.02-1.32,2.12-2.32,3.29-3.01c1.18-0.68,2.39-1.02,3.66-1.02c1.69,0,2.97,0.41,3.84,1.22c0.87,0.82,1.31,2.04,1.31,3.66
			c0,0.71-0.15,1.79-0.45,3.26l-2.78,13.85h-3.5l2.83-14.21c0.12-0.59,0.21-1.09,0.27-1.49c0.07-0.41,0.1-0.74,0.1-1
			c0-0.75-0.21-1.32-0.61-1.7c-0.41-0.38-1.02-0.57-1.83-0.57c-1.19,0-2.35,0.4-3.49,1.2c-1.14,0.81-1.97,1.76-2.5,2.87
			c-0.46,1.05-0.9,2.54-1.32,4.47l-2.1,10.43h-3.5l2.91-14.52c0.2-1.04,0.31-1.74,0.31-2.1c0-0.73-0.23-1.31-0.66-1.72
			c-0.44-0.42-0.98-0.63-1.61-0.63c-0.6,0-1.18,0.1-1.75,0.3c-0.57,0.2-1.16,0.52-1.76,0.95c-1.14,0.82-2.01,1.84-2.59,3.07
			c-0.53,1.15-0.99,2.64-1.38,4.47l-2.04,10.16H612.12L612.12,709.15z M669.89,687.66h3.54l-4.45,21.5h-3.52L669.89,687.66
			L669.89,687.66z M649.6,687.66h3.5l-1.76,8.31h3.74c2.37,0,4.07,0.18,5.09,0.55c1.01,0.37,1.81,1.03,2.41,2
			c0.6,0.97,0.89,2.04,0.89,3.23c0,0.72-0.1,1.41-0.29,2.09c-0.19,0.68-0.5,1.35-0.91,2.02c-0.77,1.3-1.75,2.17-2.92,2.63
			c-1.16,0.45-2.98,0.68-5.44,0.68h-8.76L649.6,687.66L649.6,687.66z M649.23,706.24h4.47c1.72,0,2.96-0.12,3.68-0.37
			c0.73-0.24,1.34-0.68,1.83-1.33c0.49-0.65,0.73-1.42,0.73-2.33c0-0.82-0.22-1.52-0.65-2.08c-0.44-0.56-0.93-0.9-1.5-1.02
			c-0.26-0.05-0.66-0.1-1.2-0.14c-0.54-0.04-1.16-0.06-1.89-0.06h-3.99L649.23,706.24L649.23,706.24z M678.76,687.66h3.47
			l-1.86,8.96h9.55l1.81-8.96h3.43l-4.33,21.5h-3.49l1.99-9.62h-9.52l-1.99,9.62h-3.47L678.76,687.66L678.76,687.66z M707.22,709.15
			l4.3-21.5h3.51l-0.72,3.54c2.18-2.69,4.44-4.03,6.78-4.03c1.36,0,2.45,0.34,3.29,1.02c0.8,0.63,1.36,1.64,1.67,3.01
			c1.02-1.32,2.12-2.32,3.29-3.01c1.18-0.68,2.39-1.02,3.66-1.02c1.69,0,2.97,0.41,3.84,1.22c0.87,0.82,1.31,2.04,1.31,3.66
			c0,0.71-0.15,1.79-0.45,3.26l-2.78,13.85h-3.5l2.83-14.21c0.12-0.59,0.21-1.09,0.27-1.49c0.07-0.41,0.1-0.74,0.1-1
			c0-0.75-0.21-1.32-0.61-1.7c-0.41-0.38-1.02-0.57-1.83-0.57c-1.19,0-2.35,0.4-3.49,1.2c-1.14,0.81-1.97,1.76-2.5,2.87
			c-0.46,1.05-0.9,2.54-1.32,4.47l-2.1,10.43h-3.5l2.91-14.52c0.21-1.04,0.31-1.74,0.31-2.1c0-0.73-0.23-1.31-0.66-1.72
			c-0.44-0.42-0.98-0.63-1.61-0.63c-0.6,0-1.18,0.1-1.75,0.3c-0.57,0.2-1.16,0.52-1.76,0.95c-1.14,0.82-2.01,1.84-2.59,3.07
			c-0.53,1.15-0.99,2.64-1.38,4.47l-2.04,10.16H707.22L707.22,709.15z M745.5,709.15l-3.39-21.5h3.39l1.79,11.84
			c0.19,1.19,0.42,3.3,0.71,6.34c0.67-1.55,1.53-3.3,2.57-5.25l6.88-12.93h3.7l-11.78,21.5l-2.44,8.5l-3.55,0.09L745.5,709.15
			L745.5,709.15z M766.01,687.66h15.49l-4.38,21.5h-3.48l3.84-18.44h-8.64l-2.65,12.82c-0.45,2.2-1.06,3.73-1.82,4.6
			c-0.76,0.87-1.82,1.31-3.16,1.31c-0.41,0-0.86-0.02-1.34-0.06c-0.49-0.04-1.07-0.11-1.74-0.22l0.64-3.03l1.47,0.06
			c0.89,0,1.47-0.22,1.73-0.67c0.26-0.44,0.67-1.87,1.21-4.28L766.01,687.66L766.01,687.66z M781.13,709.15l8.95-10.91l-5.14-10.59
			h3.88l1.75,3.82c0.75,1.7,1.33,3.07,1.74,4.11l5.93-7.93h4.28l-8.64,10.87l5.19,10.63l-3.88,0.01l-2.05-4.38
			c-0.26-0.57-0.5-1.1-0.71-1.6c-0.16-0.37-0.42-0.99-0.77-1.86l-6.12,7.84H781.13L781.13,709.15z M807.56,709.15l-3.39-21.5h3.39
			l1.79,11.84c0.19,1.19,0.42,3.3,0.71,6.34c0.67-1.55,1.53-3.3,2.57-5.25l6.88-12.93h3.7l-11.78,21.5l-2.44,8.5l-3.55,0.09
			L807.56,709.15L807.56,709.15z M827.4,709.15l-3.39-21.5h3.39l1.78,11.84c0.19,1.19,0.42,3.3,0.71,6.34
			c0.67-1.55,1.53-3.3,2.57-5.25l6.88-12.93h3.7l-11.78,21.5l-2.44,8.5l-3.55,0.09L827.4,709.15L827.4,709.15z M840.38,717.39
			l5.94-29.73h3.24l-0.6,2.99c2.06-2.32,4.15-3.48,6.26-3.48c1.94,0,3.55,0.75,4.85,2.26c1.3,1.5,1.94,3.64,1.94,6.41
			c0,3.78-1.01,7.03-3.04,9.74c-2.03,2.72-4.38,4.07-7.05,4.07c-2.45,0-4.35-1.31-5.72-3.92l-2.31,11.68H840.38L840.38,717.39z
			 M847.28,701.09c0,1.85,0.44,3.24,1.32,4.16c0.88,0.93,1.95,1.39,3.21,1.39c2.03,0,3.66-1.21,4.89-3.62
			c1.22-2.42,1.84-4.85,1.84-7.31c0-1.46-0.37-2.75-1.1-3.88c-0.73-1.13-1.81-1.7-3.23-1.7c-1.98,0-3.62,1.16-4.94,3.49
			C847.94,695.94,847.28,698.44,847.28,701.09L847.28,701.09z"/>
	</g>
	<g>
		<g>
			
				<linearGradient id="SVGID_00000150073140944118594340000010357878121651273625_" gradientUnits="userSpaceOnUse" x1="418.8363" y1="600.2618" x2="418.8363" y2="665.9683">
				<stop  offset="0" style="stop-color:#3E76BB"/>
				<stop  offset="0.9672" style="stop-color:#06509E"/>
			</linearGradient>
			<path style="fill:url(#SVGID_00000150073140944118594340000010357878121651273625_);" d="M433.5,627.31
				c4.49,0,8.01,1.23,10.59,3.68c2.57,2.45,3.86,5.98,3.86,10.59c0,2.45-0.36,5.14-1.08,8.07c-0.72,2.93-1.59,5.65-2.6,8.16
				c-1.68,4.19-3.9,7-6.68,8.43c-2.78,1.43-6.83,2.15-12.16,2.15H389.1c-1.01,0-1.78-0.28-2.29-0.85c-0.51-0.57-0.76-1.33-0.76-2.29
				c0-0.36,0.06-0.84,0.18-1.43l12.2-52.48c0.12-0.66-0.12-1.28-0.72-1.88s-1.26-0.9-1.97-0.9l0.54-2.06h55.35l-2.51,9.87
				c-0.3,1.2-1.14,2.17-2.51,2.91c-1.38,0.75-2.75,1.12-4.13,1.12h-20.81l-1.62,6.91H433.5z M413.95,654.04h2.96
				c1.44,0,2.47-0.45,3.09-1.35c0.63-0.9,1.3-2.75,2.02-5.56c0.36-1.55,0.54-2.84,0.54-3.86c0-1.97-0.93-2.96-2.78-2.96h-2.69
				L413.95,654.04z"/>
			
				<linearGradient id="SVGID_00000029768312602620378480000016224863335619152275_" gradientUnits="userSpaceOnUse" x1="481.536" y1="600.2618" x2="481.536" y2="665.9683">
				<stop  offset="0" style="stop-color:#3E76BB"/>
				<stop  offset="0.9672" style="stop-color:#06509E"/>
			</linearGradient>
			<path style="fill:url(#SVGID_00000029768312602620378480000016224863335619152275_);" d="M494.86,606.5
				c5.26,0,9.6,1.36,13.01,4.08c3.41,2.72,5.11,6.56,5.11,11.53c0,1.79-0.21,3.53-0.63,5.2l-5.38,22.79
				c-1.55,6.76-4.25,11.57-8.07,14.44c-3.35,2.57-7.95,3.86-13.81,3.86h-18.39c-5.62,0-9.79-1.27-12.51-3.81
				c-2.72-2.54-4.08-6.29-4.08-11.26c0-2.93,0.39-5.98,1.17-9.15l3.95-16.96c1.56-6.52,3.8-11.39,6.73-14.62
				c3.77-4.07,9.06-6.1,15.88-6.1H494.86z M475.48,649.2c-0.18,0.84-0.27,1.55-0.27,2.15c0,1.5,0.84,2.24,2.51,2.24
				c1.14,0,1.99-0.25,2.56-0.76c0.57-0.51,1-1.42,1.3-2.73l5.92-25.21c0.12-0.72,0.18-1.2,0.18-1.43c0-1.74-0.87-2.6-2.6-2.6
				c-1.91,0-3.2,1.2-3.86,3.59L475.48,649.2z"/>
			
				<linearGradient id="SVGID_00000009592626478603647870000012147477637902319766_" gradientUnits="userSpaceOnUse" x1="535.5786" y1="600.2618" x2="535.5786" y2="665.9683">
				<stop  offset="0" style="stop-color:#3E76BB"/>
				<stop  offset="0.9672" style="stop-color:#06509E"/>
			</linearGradient>
			<path style="fill:url(#SVGID_00000009592626478603647870000012147477637902319766_);" d="M533.79,661.58
				c-0.18,0.66-0.27,1.32-0.27,1.97c0,0.72,0.34,1.36,1.03,1.93c0.69,0.57,1.39,0.85,2.11,0.85l-0.45,2.06h-25.48
				c-1.02,0-1.78-0.28-2.29-0.85c-0.51-0.57-0.76-1.33-0.76-2.29c0-0.36,0.06-0.84,0.18-1.43l12.2-52.48
				c0.12-0.66-0.12-1.28-0.72-1.88s-1.26-0.9-1.97-0.9l0.54-2.06h45.57l-2.33,10.05c-0.3,1.32-0.97,2.36-2.02,3.14
				c-1.05,0.78-2.26,1.16-3.63,1.16h-12.38L533.79,661.58z"/>
			
				<linearGradient id="SVGID_00000158742886782347419450000007677887766133714850_" gradientUnits="userSpaceOnUse" x1="571.996" y1="600.2618" x2="571.996" y2="665.9683">
				<stop  offset="0" style="stop-color:#3E76BB"/>
				<stop  offset="0.9672" style="stop-color:#06509E"/>
			</linearGradient>
			<path style="fill:url(#SVGID_00000158742886782347419450000007677887766133714850_);" d="M597.65,651.26
				c0.3,1.85,1.14,2.78,2.51,2.78h2.24l-2.33,10.23c-0.42,1.73-1.26,2.9-2.51,3.5c-0.96,0.42-2.54,0.63-4.76,0.63h-47.54
				c-2.45,0-3.68-0.99-3.68-2.96l0.18-1.43l2.24-9.96h2.42c0.84,0,1.57-0.25,2.2-0.76c0.63-0.51,1.09-1.12,1.39-1.84l18.12-38.75
				l0.18-1.61c0-0.72-0.24-1.32-0.72-1.79c-0.48-0.48-1.08-0.72-1.79-0.72l0.45-2.06h21.71c1.26,0,2.32,0.34,3.19,1.03
				c0.87,0.69,1.36,1.54,1.48,2.56L597.65,651.26z M573.34,642.74l-4.4,11.3h5.11L573.34,642.74z"/>
			
				<linearGradient id="SVGID_00000007428422330149596620000014310764813477728657_" gradientUnits="userSpaceOnUse" x1="673.5364" y1="600.2618" x2="673.5364" y2="665.9683">
				<stop  offset="0" style="stop-color:#3E76BB"/>
				<stop  offset="0.9672" style="stop-color:#06509E"/>
			</linearGradient>
			<path style="fill:url(#SVGID_00000007428422330149596620000014310764813477728657_);" d="M632.9,668.4c-1.26,0-2.24-0.3-2.96-0.9
				c-0.72-0.6-1.08-1.32-1.08-2.15c0-0.72,0.15-1.38,0.45-1.97l20.45-50.32c0.24-0.48,0.36-1.02,0.36-1.62
				c0-0.72-0.27-1.38-0.81-1.97c-0.54-0.6-1.14-0.9-1.79-0.9l0.45-2.06h24.22c0.96,0,1.81,0.27,2.56,0.81
				c0.75,0.54,1.12,1.35,1.12,2.42l0.63,21.62l7.89-18.93c0.24-0.48,0.36-1.04,0.36-1.7c0-1.43-0.75-2.15-2.24-2.15l0.54-2.06h24.67
				c1.02,0,1.89,0.45,2.6,1.35c0.72,0.9,1.08,1.94,1.08,3.14l2.96,52.57c0,0.84,0.42,1.51,1.26,2.02c0.84,0.51,1.7,0.76,2.6,0.76
				l-0.45,2.06h-24.58c-0.78,0-1.52-0.36-2.24-1.08c-0.72-0.72-1.08-1.5-1.08-2.33l0.18-23.86l-10.4,27.27h-21.26l-0.54-27.09
				l-8.25,21.17c-0.12,0.24-0.18,0.66-0.18,1.26c0,0.84,0.3,1.48,0.9,1.93s1.32,0.67,2.15,0.67l-0.54,2.06H632.9z"/>
			
				<linearGradient id="SVGID_00000026127032759285198850000000760320900954868635_" gradientUnits="userSpaceOnUse" x1="749.2831" y1="600.2618" x2="749.2831" y2="665.9683">
				<stop  offset="0" style="stop-color:#3E76BB"/>
				<stop  offset="0.9672" style="stop-color:#06509E"/>
			</linearGradient>
			<path style="fill:url(#SVGID_00000026127032759285198850000000760320900954868635_);" d="M762.61,606.5
				c5.26,0,9.6,1.36,13.01,4.08c3.41,2.72,5.11,6.56,5.11,11.53c0,1.79-0.21,3.53-0.63,5.2l-5.38,22.79
				c-1.55,6.76-4.25,11.57-8.07,14.44c-3.35,2.57-7.95,3.86-13.81,3.86h-18.39c-5.62,0-9.79-1.27-12.51-3.81s-4.08-6.29-4.08-11.26
				c0-2.93,0.39-5.98,1.17-9.15l3.95-16.96c1.56-6.52,3.8-11.39,6.73-14.62c3.77-4.07,9.06-6.1,15.88-6.1H762.61z M743.23,649.2
				c-0.18,0.84-0.27,1.55-0.27,2.15c0,1.5,0.84,2.24,2.51,2.24c1.14,0,1.99-0.25,2.56-0.76c0.57-0.51,1-1.42,1.3-2.73l5.92-25.21
				c0.12-0.72,0.18-1.2,0.18-1.43c0-1.74-0.87-2.6-2.6-2.6c-1.91,0-3.2,1.2-3.86,3.59L743.23,649.2z"/>
			
				<linearGradient id="SVGID_00000174592150829056022480000014560159109291309449_" gradientUnits="userSpaceOnUse" x1="808.6169" y1="600.2618" x2="808.6169" y2="665.9683">
				<stop  offset="0" style="stop-color:#3E76BB"/>
				<stop  offset="0.9672" style="stop-color:#06509E"/>
			</linearGradient>
			<path style="fill:url(#SVGID_00000174592150829056022480000014560159109291309449_);" d="M827.9,606.5
				c0.96,0,1.88-0.19,2.78-0.58c0.9-0.39,1.47-0.94,1.7-1.66h2.06l-3.59,13.73c-0.6,1.91-2.36,2.87-5.29,2.87h-5.29l-10.05,42.7
				c-0.12,0.6,0.15,1.21,0.81,1.84c0.66,0.63,1.32,0.94,1.97,0.94l-0.63,2.06h-24.94c-1.91,0-2.87-0.96-2.87-2.87
				c0-0.24,0.06-0.72,0.18-1.44l10.14-43.24h-6.19c-0.96,0-1.75,0.22-2.38,0.67c-0.63,0.45-1.06,1.03-1.3,1.75h-2.24l3.59-14.35
				c0.24-0.84,0.72-1.45,1.43-1.84c0.72-0.39,1.85-0.58,3.41-0.58H827.9z"/>
			
				<linearGradient id="SVGID_00000175288031838774391140000016868802145626682775_" gradientUnits="userSpaceOnUse" x1="856.2014" y1="600.2618" x2="856.2014" y2="665.9683">
				<stop  offset="0" style="stop-color:#3E76BB"/>
				<stop  offset="0.9672" style="stop-color:#06509E"/>
			</linearGradient>
			<path style="fill:url(#SVGID_00000175288031838774391140000016868802145626682775_);" d="M869.52,606.5
				c5.27,0,9.6,1.36,13.01,4.08c3.41,2.72,5.11,6.56,5.11,11.53c0,1.79-0.21,3.53-0.63,5.2l-5.38,22.79
				c-1.55,6.76-4.25,11.57-8.07,14.44c-3.35,2.57-7.95,3.86-13.82,3.86h-18.39c-5.62,0-9.79-1.27-12.51-3.81s-4.08-6.29-4.08-11.26
				c0-2.93,0.39-5.98,1.17-9.15l3.95-16.96c1.56-6.52,3.8-11.39,6.73-14.62c3.77-4.07,9.06-6.1,15.88-6.1H869.52z M850.15,649.2
				c-0.18,0.84-0.27,1.55-0.27,2.15c0,1.5,0.83,2.24,2.51,2.24c1.14,0,1.99-0.25,2.56-0.76c0.57-0.51,1-1.42,1.3-2.73l5.92-25.21
				c0.12-0.72,0.18-1.2,0.18-1.43c0-1.74-0.87-2.6-2.6-2.6c-1.91,0-3.2,1.2-3.86,3.59L850.15,649.2z"/>
			
				<linearGradient id="SVGID_00000049922028253279539710000017988141381369685927_" gradientUnits="userSpaceOnUse" x1="916.793" y1="600.2618" x2="916.793" y2="665.9683">
				<stop  offset="0" style="stop-color:#3E76BB"/>
				<stop  offset="0.9672" style="stop-color:#06509E"/>
			</linearGradient>
			<path style="fill:url(#SVGID_00000049922028253279539710000017988141381369685927_);" d="M933.57,606.5
				c5.5,0,9.66,1.11,12.47,3.32c2.81,2.21,4.21,5.71,4.21,10.5c0,1.31-0.06,2.51-0.18,3.59c-0.12,1.08-0.38,2.42-0.81,4.04
				c-1.91,8.25-4.06,13.71-6.46,16.37s-6.31,3.99-11.75,3.99h-18.48l-3.32,14.08l-0.27,1.7c0,0.66,0.27,1.2,0.81,1.62
				c0.53,0.42,1.16,0.63,1.88,0.63l-0.53,2.06h-24.76c-1.02,0-1.78-0.28-2.29-0.85c-0.51-0.57-0.76-1.33-0.76-2.29
				c0-0.36,0.06-0.84,0.18-1.43l12.2-52.48c0.12-0.66-0.12-1.28-0.72-1.88s-1.26-0.9-1.97-0.9l0.53-2.06H933.57z M915.99,633.95
				h2.78c1.5,0,2.6-0.46,3.32-1.39c0.72-0.93,1.37-2.71,1.97-5.34c0.36-1.55,0.54-2.78,0.54-3.68c0-1.2-0.25-2.02-0.76-2.47
				c-0.51-0.45-1.27-0.67-2.29-0.67h-2.42L915.99,633.95z"/>
			
				<linearGradient id="SVGID_00000028306365037437704360000000229001945698309004_" gradientUnits="userSpaceOnUse" x1="975.8143" y1="600.2618" x2="975.8143" y2="665.9683">
				<stop  offset="0" style="stop-color:#3E76BB"/>
				<stop  offset="0.9672" style="stop-color:#06509E"/>
			</linearGradient>
			<path style="fill:url(#SVGID_00000028306365037437704360000000229001945698309004_);" d="M990.08,653.59
				c0.9,0,1.84-0.22,2.83-0.67c0.99-0.45,1.57-1,1.75-1.66h2.06l-2.6,11.3c-0.42,1.97-1.23,3.38-2.42,4.22
				c-1.49,1.08-3.8,1.62-6.91,1.62H964.6c-6.04,0-10.38-1.17-13.01-3.5c-2.33-2.09-3.5-5.26-3.5-9.51c0-2.75,0.48-6.1,1.44-10.05
				l4.93-21.62c1.26-5.62,3.67-9.96,7.26-13.01c3.29-2.81,7.06-4.22,11.31-4.22h30.5c-0.18,1.08-0.48,2.59-0.9,4.53
				c-0.42,1.94-0.78,3.45-1.08,4.53c-0.48,1.86-1.07,3.14-1.79,3.86c-0.96,0.96-2.51,1.43-4.66,1.43h-9.24
				c-2.15,0-3.71,0.51-4.67,1.52c-0.96,1.02-1.64,2.54-2.06,4.58l-4.93,21.26c-0.18,0.66-0.27,1.26-0.27,1.79
				c0,2.39,1.52,3.59,4.57,3.59H990.08z"/>
		</g>
		<g>
			
				<linearGradient id="SVGID_00000005266953356680178390000005801269632973108891_" gradientUnits="userSpaceOnUse" x1="102.3004" y1="603.9212" x2="102.3004" y2="665.4216">
				<stop  offset="0" style="stop-color:#3E76BB"/>
				<stop  offset="0.9672" style="stop-color:#06509E"/>
			</linearGradient>
			<path style="fill:url(#SVGID_00000005266953356680178390000005801269632973108891_);" d="M121.59,606.5
				c0.96,0,1.88-0.19,2.78-0.58c0.9-0.39,1.47-0.94,1.7-1.66h2.06l-3.59,13.73c-0.6,1.91-2.36,2.87-5.29,2.87h-5.29l-10.05,42.7
				c-0.12,0.6,0.15,1.21,0.81,1.84c0.66,0.63,1.32,0.94,1.97,0.94l-0.63,2.06H81.13c-1.91,0-2.87-0.96-2.87-2.87
				c0-0.24,0.06-0.72,0.18-1.44l10.14-43.24h-6.19c-0.96,0-1.75,0.22-2.38,0.67s-1.06,1.03-1.3,1.75h-2.24l3.59-14.35
				c0.24-0.84,0.72-1.45,1.43-1.84c0.72-0.39,1.85-0.58,3.41-0.58H121.59z"/>
			
				<linearGradient id="SVGID_00000024706359506801645020000009943566024987801257_" gradientUnits="userSpaceOnUse" x1="139.6151" y1="603.9212" x2="139.6151" y2="665.4216">
				<stop  offset="0" style="stop-color:#3E76BB"/>
				<stop  offset="0.9672" style="stop-color:#06509E"/>
			</linearGradient>
			<path style="fill:url(#SVGID_00000024706359506801645020000009943566024987801257_);" d="M148.32,668.4
				c-1.56,0-2.71-0.25-3.46-0.76c-0.75-0.51-1.18-1.39-1.3-2.65l-0.81-9.15h-10.41l-3.68,7.36c-0.06,0.18-0.09,0.33-0.09,0.45
				c0,0.12-0.03,0.36-0.09,0.72c0,0.54,0.25,1,0.76,1.39c0.51,0.39,1.09,0.58,1.75,0.58l-0.45,2.06h-19.47
				c-2.51,0-3.77-0.99-3.77-2.96c0-0.54,0.15-1.11,0.45-1.7l26.37-51.13c0.18-0.36,0.27-0.81,0.27-1.35c0-0.66-0.29-1.27-0.85-1.84
				c-0.57-0.57-1.18-0.85-1.84-0.85l0.54-2.06h26.73c1.38,0,2.54,0.37,3.5,1.12c0.96,0.75,1.43,1.81,1.43,3.19l4.13,52.39
				c0,0.78,0.42,1.49,1.26,2.15c0.84,0.66,1.7,0.99,2.6,0.99l-0.45,2.06H148.32z M137.64,643.82h5.11l-0.72-10.05L137.64,643.82z"/>
			
				<linearGradient id="SVGID_00000088841797382928717100000018288409450862020277_" gradientUnits="userSpaceOnUse" x1="203.7954" y1="603.9212" x2="203.7954" y2="665.4216">
				<stop  offset="0" style="stop-color:#3E76BB"/>
				<stop  offset="0.9672" style="stop-color:#06509E"/>
			</linearGradient>
			<path style="fill:url(#SVGID_00000088841797382928717100000018288409450862020277_);" d="M223.48,606.41
				c4.01,0,7.1,1.05,9.28,3.14c2.18,2.09,3.28,4.72,3.28,7.89c0,0.48-0.05,1.01-0.14,1.61c-0.09,0.6-0.16,1.05-0.22,1.35
				c-1.38,6.58-4.19,10.56-8.43,11.93c1.74,1.08,3.01,2.26,3.81,3.54c0.81,1.29,1.21,3.19,1.21,5.7c0,2.28-0.45,5.44-1.35,9.51
				c-1.56,6.76-3.95,11.39-7.18,13.9c-2.93,2.27-7.44,3.41-13.54,3.41H174.6c-1.02,0-1.78-0.28-2.29-0.85
				c-0.51-0.57-0.76-1.33-0.76-2.29c0-0.36,0.06-0.84,0.18-1.43l12.2-52.48c0.12-0.66-0.12-1.28-0.72-1.88s-1.26-0.9-1.97-0.9
				l0.54-2.06L223.48,606.41z M202.4,654.49c1.62,0,2.74-0.37,3.36-1.12s1.24-2.44,1.84-5.07c0.42-1.67,0.63-3.05,0.63-4.13
				c0-2.03-1.11-3.05-3.32-3.05h-2.51l-3.05,13.37H202.4z M208.77,629.2c1.02,0,1.74-0.29,2.15-0.85c0.42-0.57,0.81-1.6,1.17-3.09
				s0.54-2.57,0.54-3.23c0-1.55-0.87-2.33-2.6-2.33h-2.69l-2.15,9.51H208.77z"/>
			
				<linearGradient id="SVGID_00000179634628880686927110000002353637030023671716_" gradientUnits="userSpaceOnUse" x1="259.6312" y1="603.9212" x2="259.6312" y2="665.4216">
				<stop  offset="0" style="stop-color:#3E76BB"/>
				<stop  offset="0.9672" style="stop-color:#06509E"/>
			</linearGradient>
			<path style="fill:url(#SVGID_00000179634628880686927110000002353637030023671716_);" d="M268.33,668.4
				c-1.56,0-2.71-0.25-3.46-0.76c-0.75-0.51-1.18-1.39-1.3-2.65l-0.81-9.15h-10.41l-3.68,7.36c-0.06,0.18-0.09,0.33-0.09,0.45
				c0,0.12-0.03,0.36-0.09,0.72c0,0.54,0.25,1,0.76,1.39c0.51,0.39,1.09,0.58,1.75,0.58l-0.45,2.06H231.1
				c-2.51,0-3.77-0.99-3.77-2.96c0-0.54,0.15-1.11,0.45-1.7l26.37-51.13c0.18-0.36,0.27-0.81,0.27-1.35c0-0.66-0.29-1.27-0.85-1.84
				c-0.57-0.57-1.18-0.85-1.84-0.85l0.54-2.06h26.73c1.38,0,2.54,0.37,3.5,1.12c0.96,0.75,1.43,1.81,1.43,3.19l4.13,52.39
				c0,0.78,0.42,1.49,1.26,2.15c0.84,0.66,1.7,0.99,2.6,0.99l-0.45,2.06H268.33z M257.66,643.82h5.11l-0.72-10.05L257.66,643.82z"/>
			
				<linearGradient id="SVGID_00000051373095561078027810000008533147999984313746_" gradientUnits="userSpaceOnUse" x1="328.7889" y1="603.9212" x2="328.7889" y2="665.4216">
				<stop  offset="0" style="stop-color:#3E76BB"/>
				<stop  offset="0.9672" style="stop-color:#06509E"/>
			</linearGradient>
			<path style="fill:url(#SVGID_00000051373095561078027810000008533147999984313746_);" d="M324.75,641.12l-5.11,22.07l-0.09,0.72
				c0,0.66,0.3,1.23,0.9,1.71c0.6,0.48,1.23,0.72,1.88,0.72l-0.45,2.06h-25.03c-1.97,0-2.96-0.96-2.96-2.87
				c0-0.3,0.06-0.81,0.18-1.52l12.29-52.66c0.12-0.6-0.15-1.21-0.81-1.84c-0.66-0.63-1.31-0.94-1.97-0.94l0.63-2.06h24.94
				c1.91,0,2.87,0.96,2.87,2.87c0,0.24-0.06,0.72-0.18,1.44l-4.3,18.39h6.37l4.13-17.85c0.12-0.6-0.12-1.21-0.72-1.84
				c-0.6-0.63-1.23-0.94-1.89-0.94l0.45-2.06h24.94c1.02,0,1.75,0.25,2.2,0.76c0.45,0.51,0.67,1.24,0.67,2.2l-0.18,1.35l-12.2,52.75
				c-0.12,0.6,0.15,1.21,0.81,1.84c0.66,0.63,1.31,0.94,1.97,0.94l-0.63,2.06h-24.94c-1.91,0-2.87-0.96-2.87-2.87
				c0-0.24,0.06-0.72,0.18-1.44l5.29-22.96H324.75z"/>
		</g>
	</g>
</g>
</svg>
