<?xml version="1.0" encoding="utf-8"?>
<!-- Generator: Adobe Illustrator 26.5.0, SVG Export Plug-In . SVG Version: 6.00 Build 0)  -->
<svg version="1.1" id="Layer_1" xmlns="http://www.w3.org/2000/svg" xmlns:xlink="http://www.w3.org/1999/xlink" x="0px" y="0px"
	 viewBox="0 0 1080 1080" style="enable-background:new 0 0 1080 1080;" xml:space="preserve">
<style type="text/css">
	.st0{fill-rule:evenodd;clip-rule:evenodd;}
	.st1{fill:#ED1C24;}
	.st2{fill:#E1251B;}
	.st3{fill-rule:evenodd;clip-rule:evenodd;fill:#16397B;}
	.st4{fill:#EE2745;}
	
		.st5{clip-path:url(#SVGID_00000134937520769883449470000006368112603389470355_);fill:url(#SVGID_00000047753564759339786330000013747381535375287461_);}
	
		.st6{clip-path:url(#SVGID_00000010276029849994386820000006053556441590040973_);fill:url(#SVGID_00000149357467690373301160000008157927260451560098_);}
	
		.st7{clip-path:url(#SVGID_00000093866282947225251690000009812436475728533180_);fill:url(#SVGID_00000127753476456282232050000005750067069660904877_);}
	
		.st8{clip-path:url(#SVGID_00000077308651395673342490000005949294053486810271_);fill:url(#SVGID_00000136371749006355321110000014413645001276692107_);}
	.st9{fill:#424243;}
	
		.st10{clip-path:url(#SVGID_00000099643857169919156610000002003391955282843028_);fill:url(#SVGID_00000082370166486858283500000008798054185291891074_);}
	.st11{fill:#FFFFFF;}
	
		.st12{clip-path:url(#SVGID_00000045586921128723205300000011668759431748652689_);fill:url(#SVGID_00000181087043482695488710000003513319773459476611_);}
	
		.st13{clip-path:url(#SVGID_00000033356159488096713000000000522171174471295629_);fill:url(#SVGID_00000174577368516009527510000004428870135972880305_);}
	
		.st14{clip-path:url(#SVGID_00000069390675817811685500000016806032409096346286_);fill:url(#SVGID_00000154393391749888925270000011059382999880503453_);}
	
		.st15{clip-path:url(#SVGID_00000091730680311359182650000011410142694065512851_);fill:url(#SVGID_00000093897816814216391980000004655028547997135243_);}
	
		.st16{clip-path:url(#SVGID_00000045606650358500671870000018036754701377766816_);fill:url(#SVGID_00000000909984136022124150000007060934835111342003_);}
	
		.st17{clip-path:url(#SVGID_00000166639634136880318720000017261112418460536711_);fill:url(#SVGID_00000022522769084708285590000004835464074881585594_);}
	
		.st18{clip-path:url(#SVGID_00000138544286850134624220000014535457428401181825_);fill:url(#SVGID_00000168098670527435815060000000184665535371901826_);}
	.st19{fill-rule:evenodd;clip-rule:evenodd;fill:#C8202F;}
	.st20{fill-rule:evenodd;clip-rule:evenodd;fill:#FFFFFF;}
	.st21{fill-rule:evenodd;clip-rule:evenodd;fill:#F98238;}
	.st22{filter:url(#Adobe_OpacityMaskFilter);}
	.st23{fill:url(#SVGID_00000152954711293752407260000004327556272080946095_);}
	.st24{mask:url(#SVGID_00000073685775750848972620000013988979773568136614_);fill-rule:evenodd;clip-rule:evenodd;fill:#ED1C24;}
	.st25{fill-rule:evenodd;clip-rule:evenodd;fill:#F5333F;}
	.st26{fill-rule:evenodd;clip-rule:evenodd;fill:#ED1C24;}
	.st27{fill-rule:evenodd;clip-rule:evenodd;fill:#F9A46E;}
	.st28{fill-rule:evenodd;clip-rule:evenodd;fill:#F47B26;}
	.st29{fill-rule:evenodd;clip-rule:evenodd;fill:#EB5433;}
	.st30{fill:#1A3282;}
	.st31{fill-rule:evenodd;clip-rule:evenodd;fill:#1A3282;}
	.st32{fill-rule:evenodd;clip-rule:evenodd;fill:#9D9FA2;}
	.st33{fill-rule:evenodd;clip-rule:evenodd;fill:#000303;}
	.st34{fill:#64003D;}
	.st35{fill:#536270;}
	.st36{fill-rule:evenodd;clip-rule:evenodd;fill:#64003D;}
	.st37{fill-rule:evenodd;clip-rule:evenodd;fill:#536270;}
	.st38{fill-rule:evenodd;clip-rule:evenodd;fill:#1A3382;}
	.st39{fill-rule:evenodd;clip-rule:evenodd;fill:#29387E;}
	.st40{fill-rule:evenodd;clip-rule:evenodd;fill:#F37021;}
	.st41{fill-rule:evenodd;clip-rule:evenodd;fill:#005C32;}
	.st42{fill-rule:evenodd;clip-rule:evenodd;fill:#D2AB67;}
	
		.st43{clip-path:url(#SVGID_00000085956430247164820030000002705178056796954776_);fill:url(#SVGID_00000037683070177928895350000012746106140189516453_);}
	
		.st44{clip-path:url(#SVGID_00000163031204419390994490000016506581141431297179_);fill:url(#SVGID_00000078028261906312433450000011458760159974150325_);}
	
		.st45{clip-path:url(#SVGID_00000106859108612687889990000015006875032271286160_);fill:url(#SVGID_00000049196312821729576150000002741685080342100380_);}
	.st46{fill-rule:evenodd;clip-rule:evenodd;fill:#00AEEF;}
	.st47{fill-rule:evenodd;clip-rule:evenodd;fill:#EC008C;}
	.st48{fill-rule:evenodd;clip-rule:evenodd;fill:#FFF200;}
	.st49{fill:#A7AAAC;}
	.st50{fill-rule:evenodd;clip-rule:evenodd;fill:#5C5B5B;}
	.st51{fill:#9D9D9F;}
	.st52{fill:#F04D23;}
	.st53{fill-rule:evenodd;clip-rule:evenodd;fill:#2E3192;}
	.st54{fill-rule:evenodd;clip-rule:evenodd;fill:#C4312D;}
	.st55{fill:#552715;}
	.st56{fill:#010101;}
	.st57{fill:#E31E2E;}
	.st58{fill:url(#SVGID_00000027594903672586186180000018432682530934883513_);}
	.st59{fill:url(#SVGID_00000109739819828850077120000010223677244850076291_);}
	.st60{clip-path:url(#SVGID_00000170979760262909502630000016889734911138877596_);}
	.st61{clip-path:url(#SVGID_00000142175360721083528910000007859141445696558005_);}
	.st62{clip-path:url(#SVGID_00000116917137405973203110000017356352657669318058_);}
	.st63{clip-path:url(#SVGID_00000153695995898881226100000004631336819675572153_);}
	.st64{clip-path:url(#SVGID_00000155867065221588937520000002337371359256947586_);}
	.st65{clip-path:url(#SVGID_00000095318875652286923680000015378590930537818257_);}
	.st66{clip-path:url(#SVGID_00000033329060744579406230000017131777699539165886_);}
	.st67{clip-path:url(#SVGID_00000096021474060112757940000009832432818212158606_);}
	.st68{clip-path:url(#SVGID_00000031192456778053852080000002757987144895457213_);}
	.st69{clip-path:url(#SVGID_00000167387223030273683040000001693059412886352297_);}
	.st70{clip-path:url(#SVGID_00000067932573809391930900000013662845687873802134_);}
	.st71{fill:#2650A1;}
	.st72{fill:url(#SVGID_00000049914682782518576630000004582292966584998045_);}
	.st73{fill:#FEFEFE;}
	.st74{fill:#FDFDFD;}
	.st75{fill:#FCFCFC;}
	.st76{fill:#FBFBFB;}
	.st77{fill:#FAFAFA;}
	.st78{fill:#F9F9F9;}
	.st79{fill:#F8F8F8;}
	.st80{fill:#F7F7F7;}
	.st81{fill:#F6F6F6;}
	.st82{fill:#F5F5F5;}
	.st83{fill:#F4F4F4;}
	.st84{fill:#F3F3F3;}
	.st85{fill:#F2F2F2;}
	.st86{fill:#F1F1F1;}
	.st87{fill:#F0F0F0;}
	.st88{fill:#EFEFEF;}
	.st89{fill:#EEEEEE;}
	.st90{fill:#EDEDED;}
	.st91{fill:#ECECEC;}
	.st92{fill:#EBEBEB;}
	.st93{fill:#EAEAEA;}
	.st94{fill:#E9E9E9;}
	.st95{fill:#E8E8E8;}
	.st96{fill:#E7E7E7;}
	.st97{fill:#E6E6E6;}
	.st98{fill:#E5E5E5;}
	.st99{fill:#E4E4E4;}
	.st100{fill:#E3E3E3;}
	.st101{fill:#E2E2E2;}
	.st102{fill:#E1E1E1;}
	.st103{fill:#E0E0E0;}
	.st104{fill:#DFDFDF;}
	.st105{fill:#DEDEDE;}
	.st106{fill:#DDDDDD;}
	.st107{fill:#DCDCDC;}
	.st108{fill:#DBDBDB;}
	.st109{fill:#DADADA;}
	.st110{fill:#D9D9D9;}
	.st111{fill:#D92231;}
	.st112{fill:url(#SVGID_00000170996719158845361850000017875184510196137110_);}
	.st113{fill:url(#SVGID_00000008137718565436045510000015541996575632161454_);}
	.st114{opacity:0.8;}
	.st115{fill:url(#SVGID_00000088123001892525107670000006222573538597906344_);}
	.st116{fill:url(#SVGID_00000170993669268693625780000013780903650515525775_);}
	.st117{fill-rule:evenodd;clip-rule:evenodd;fill:#010101;}
	.st118{fill:#80A845;}
	.st119{fill-rule:evenodd;clip-rule:evenodd;fill:#80A845;}
	.st120{fill:url(#SVGID_00000179627321967311447890000007214525725222302877_);}
	.st121{fill-rule:evenodd;clip-rule:evenodd;fill:#04984A;}
	.st122{fill-rule:evenodd;clip-rule:evenodd;fill:url(#SVGID_00000044135387740596401780000012471571442197949098_);}
	.st123{fill:url(#SVGID_00000021816309846408229220000000894532181392232108_);}
	.st124{fill:url(#SVGID_00000078729908330989373260000016919268964629615249_);}
	.st125{fill:url(#SVGID_00000094618431869130855830000010415077098139124355_);}
	.st126{fill:url(#SVGID_00000172429814983013340650000006535003672202604471_);}
	.st127{fill:url(#SVGID_00000026131005688873254840000006692077735858672003_);}
	.st128{fill:url(#SVGID_00000015332315998441220900000011941752507877368254_);}
	.st129{fill:url(#SVGID_00000058561510445683907120000004260390704770533030_);}
	.st130{fill:url(#SVGID_00000038378140822844914860000010683671472347387786_);}
	.st131{fill:url(#SVGID_00000072977609404607932320000013853687456827542144_);}
	.st132{fill:url(#SVGID_00000056422754237086918710000015986874022349010865_);}
	.st133{fill:url(#SVGID_00000067932188974564503200000014046527497290886548_);}
	.st134{fill:url(#SVGID_00000177472214028968113100000006343077723454797452_);}
	.st135{fill:url(#SVGID_00000052081073863174033850000010496257637097069457_);}
	.st136{fill:url(#SVGID_00000066481478226614662420000007328610364112891316_);}
	.st137{fill-rule:evenodd;clip-rule:evenodd;fill:url(#SVGID_00000089536263676062605360000004073536831698687369_);}
	.st138{fill:#0A529D;}
	.st139{fill:url(#SVGID_00000062900008561735525800000011860605973752117404_);}
	.st140{fill:url(#SVGID_00000177447640199427115180000016095186419212093345_);}
	.st141{fill:url(#SVGID_00000085934811101597688680000001330619778349722283_);}
	.st142{fill:url(#SVGID_00000122678973667656995670000000695902331945932984_);}
	.st143{fill:url(#SVGID_00000103260112491596926810000003183363563134264752_);}
	.st144{fill:url(#SVGID_00000092436350252746056340000004454457078249223604_);}
	.st145{fill:url(#SVGID_00000026867099006578846040000013607888616102384259_);}
	.st146{fill:url(#SVGID_00000058568452171798393090000008045925531060317870_);}
	.st147{fill:url(#SVGID_00000131359873903930497170000002492366375557611946_);}
	.st148{fill:url(#SVGID_00000172428758769798202310000010484212198783028894_);}
	.st149{fill:url(#SVGID_00000161609741028279535040000000968868092966073267_);}
	.st150{fill:url(#SVGID_00000180334734504218593220000014412390048651325318_);}
	.st151{fill-rule:evenodd;clip-rule:evenodd;fill:url(#SVGID_00000086676253162017164730000005459154554822743208_);}
	.st152{fill:url(#SVGID_00000049939815839932071290000010272642525021503921_);}
	.st153{fill:url(#SVGID_00000083050402098224877990000003992435128464842127_);}
	.st154{fill:url(#SVGID_00000152950023275716673530000003820567134393157565_);}
	.st155{fill:url(#SVGID_00000103967797826978060420000005604952488746685880_);}
	.st156{fill:url(#SVGID_00000146497248928281396530000006406384970345983135_);}
	.st157{fill:url(#SVGID_00000145763126912306748760000003201393802293149354_);}
	.st158{fill:url(#SVGID_00000060725749024756155690000005138325848865380278_);}
	.st159{fill:url(#SVGID_00000128486005614948065310000006224538818994182017_);}
	.st160{fill:url(#SVGID_00000007397648965544196840000001898275914206293385_);}
	.st161{fill:url(#SVGID_00000102533568007398949910000015146442138575156630_);}
	.st162{fill:url(#SVGID_00000010283011997541496300000014789398068176250254_);}
	.st163{fill:url(#SVGID_00000180361086482699215080000013476711526624546478_);}
	.st164{fill:url(#SVGID_00000059311066189056893230000006842965819864616892_);}
	.st165{fill:url(#SVGID_00000152238087900422930400000012038133798160314559_);}
	.st166{fill:url(#SVGID_00000085969134878346418740000002380962484023849605_);}
	.st167{fill:url(#SVGID_00000145773102603883917080000004861644142115085715_);}
	.st168{fill:url(#SVGID_00000119083361234768403330000006536748792987458486_);}
	.st169{fill-rule:evenodd;clip-rule:evenodd;fill:url(#SVGID_00000156553548374547877590000005441066966678905222_);}
	.st170{fill:url(#SVGID_00000113349608202697801850000011895992818956893601_);}
	.st171{fill:url(#SVGID_00000099622598605514417050000013849410164288163200_);}
	.st172{fill:url(#SVGID_00000065045558395708459430000018289118161773106361_);}
	.st173{fill:url(#SVGID_00000021838851957527290120000009207247716199153546_);}
	.st174{fill:url(#SVGID_00000134219592649894476790000004499889463947601591_);}
	.st175{fill:url(#SVGID_00000061437272562484863010000008619140713522710949_);}
	.st176{fill:url(#SVGID_00000058563885821592609210000017795850089413130627_);}
	.st177{fill:url(#SVGID_00000150791539249224896110000011224612385243985592_);}
	.st178{fill:url(#SVGID_00000139287413862642027560000004305694048617539717_);}
	.st179{fill:url(#SVGID_00000096745693202315000320000002211474088875079309_);}
	.st180{fill:url(#SVGID_00000168833827466006087630000005127988614469666703_);}
	.st181{fill:url(#SVGID_00000082346984863381210850000008618845481354299583_);}
	.st182{fill:url(#SVGID_00000103233868907208721760000002492925973374013102_);}
	.st183{fill:url(#SVGID_00000136403293615923497640000015471525587448662449_);}
	.st184{fill-rule:evenodd;clip-rule:evenodd;fill:url(#SVGID_00000053515594840440993770000013330276837087494022_);}
	.st185{fill:url(#SVGID_00000093898699112709261940000013664687023792091836_);}
	.st186{fill:url(#SVGID_00000158021007836683382160000009467429970274916508_);}
	.st187{fill:url(#SVGID_00000056422124872813422730000007692027915022246573_);}
	.st188{fill:url(#SVGID_00000039835828599693865420000012292364377015091636_);}
	.st189{fill:url(#SVGID_00000151517890912045287310000006891626039713189815_);}
	.st190{fill:url(#SVGID_00000119110529529696047280000004039507443494956223_);}
	.st191{fill:url(#SVGID_00000047057556330523246120000014759661646962368698_);}
	.st192{fill:url(#SVGID_00000085944722933120202380000002041582130442761658_);}
	.st193{fill:url(#SVGID_00000030465007145972301340000007490698791143690119_);}
	.st194{fill:url(#SVGID_00000060002145181641823990000006623922721421456259_);}
	.st195{fill:url(#SVGID_00000143615160418807056540000011051776295824506016_);}
	.st196{fill:url(#SVGID_00000111895696618981716360000006388901930704291717_);}
	.st197{fill:url(#SVGID_00000150821093391485316470000001083979842279925665_);}
	.st198{fill:url(#SVGID_00000097490204524829292440000014760225345462581147_);}
	.st199{fill:url(#SVGID_00000078039753028265889100000004804473393107091373_);}
	.st200{fill:url(#SVGID_00000070814032782617007570000015980288951075912608_);}
	.st201{fill:url(#SVGID_00000170256024155527411470000013801977197415535539_);}
	.st202{fill:url(#SVGID_00000152228926308057658800000012271670896538902198_);}
	.st203{fill:url(#SVGID_00000074443419811385974530000014901513678671672194_);}
	.st204{fill-rule:evenodd;clip-rule:evenodd;fill:url(#SVGID_00000047775369672346991240000018108293509112908435_);}
	.st205{fill:url(#SVGID_00000071530199237220655670000010948799911594036398_);}
	.st206{fill:url(#SVGID_00000137847360977733168690000001612180826931783849_);}
	.st207{fill:url(#SVGID_00000067923836038402643550000005985664782632173744_);}
	.st208{fill:url(#SVGID_00000181778586421796955510000007462969439662191536_);}
	.st209{fill:url(#SVGID_00000075142631948954799170000014981854021995995836_);}
	.st210{fill:url(#SVGID_00000099635161626035086680000000152692582476207289_);}
	.st211{fill:url(#SVGID_00000157994981005960796580000007278591868897547165_);}
	.st212{fill:url(#SVGID_00000022525262529506672330000000330007411130885000_);}
	.st213{fill:url(#SVGID_00000142894888176494473920000003396399412719003270_);}
	.st214{fill:url(#SVGID_00000147937837689243499900000012683587150908927151_);}
	.st215{fill:url(#SVGID_00000107557176429258146320000001881546857499919543_);}
	.st216{fill:url(#SVGID_00000116198185881171456550000004693569406536677250_);}
	.st217{fill:url(#SVGID_00000144325769032093487520000012894463744380990627_);}
	.st218{fill:url(#SVGID_00000018205232654849477120000010360064883415688632_);}
	.st219{fill:url(#SVGID_00000116948851595400130650000013297276206496770475_);}
	.st220{fill:url(#SVGID_00000160157203722222511040000010849508930347065257_);}
	.st221{fill-rule:evenodd;clip-rule:evenodd;fill:url(#SVGID_00000144300467414203569530000016128293100342579355_);}
	.st222{fill:url(#SVGID_00000094576194393375728030000017745988874128992171_);}
	.st223{fill:url(#SVGID_00000075149540081250125900000000140895247650955684_);}
	.st224{fill:url(#SVGID_00000023278304623179607080000008170555272619545772_);}
	.st225{fill:url(#SVGID_00000143598715968881518100000001330565393176444338_);}
	.st226{fill:url(#SVGID_00000093889715087990718570000018175347384003706767_);}
	.st227{fill:url(#SVGID_00000029745625836026388730000013661167140722462641_);}
	.st228{fill:url(#SVGID_00000137111182877135396350000012890452117320047001_);}
	.st229{fill:url(#SVGID_00000075128555348668959020000015660811251237228470_);}
	.st230{fill:url(#SVGID_00000086693871569559291620000000492036351209473451_);}
	.st231{fill:url(#SVGID_00000080189154960490260020000004037798364902364332_);}
	.st232{fill:url(#SVGID_00000165203051873930471860000006441179227418749109_);}
	.st233{fill:url(#SVGID_00000163774013430189037120000009241407335101422252_);}
	.st234{fill:url(#SVGID_00000064352733271498490160000004304268215933136297_);}
	.st235{fill:url(#SVGID_00000085212168545361818020000001711697762305624219_);}
	.st236{fill:url(#SVGID_00000098181532774165343210000001326647201781449088_);}
	.st237{fill-rule:evenodd;clip-rule:evenodd;fill:url(#SVGID_00000044175296117852224570000016369808054416630671_);}
	.st238{fill:url(#SVGID_00000014622612129289393770000001222506066331748743_);}
	.st239{fill:url(#SVGID_00000181779990979145866280000012365893750671524782_);}
	.st240{fill:url(#SVGID_00000165225174705834623780000015835654516730912416_);}
	.st241{fill:url(#SVGID_00000125566697991523709240000016520342455911552686_);}
	.st242{fill:url(#SVGID_00000043438532600730337220000011225041735621260966_);}
	.st243{fill:url(#SVGID_00000018233955830765415830000016381191987814147466_);}
	.st244{fill:url(#SVGID_00000036216197814576508960000016074314296283156914_);}
	.st245{fill:url(#SVGID_00000153702471732892779880000005435483266479107458_);}
	.st246{fill:url(#SVGID_00000166653736126482712100000009040274619184797327_);}
	.st247{fill:url(#SVGID_00000023273820497051714570000017354168696406391187_);}
	.st248{fill:url(#SVGID_00000173852550724274217570000008607385878315831700_);}
	.st249{fill:url(#SVGID_00000026873028127540523730000008957471554283862180_);}
	.st250{fill:url(#SVGID_00000087409925022106650680000014412831284420610451_);}
	.st251{fill:url(#SVGID_00000165922920053569417680000012748494404020208001_);}
	.st252{fill:url(#SVGID_00000016040282437068735280000015357379852064993939_);}
	.st253{fill-rule:evenodd;clip-rule:evenodd;fill:url(#SVGID_00000038409696904611546490000013977275352283429260_);}
	.st254{fill:url(#SVGID_00000142159465033306348650000002769344979879239584_);}
	.st255{fill:url(#SVGID_00000016060338777561055590000006170958100069135782_);}
	.st256{fill:url(#SVGID_00000163790317889107518150000000343517121792917907_);}
	.st257{fill:url(#SVGID_00000021833718242907456410000007564438822466929065_);}
	.st258{fill:url(#SVGID_00000010287170925498795170000014410908362827798939_);}
	.st259{fill:url(#SVGID_00000015342671443858328370000001740255357449888691_);}
	.st260{fill:url(#SVGID_00000080182815419616944070000011746631035095514532_);}
	.st261{fill:url(#SVGID_00000092442487517782396810000013976008838327004294_);}
	.st262{fill:url(#SVGID_00000073704402525796412650000004982031709622147981_);}
	.st263{fill:url(#SVGID_00000096043562552190975020000003336596033372503953_);}
	.st264{fill:url(#SVGID_00000177448694165727193100000007050619782673541550_);}
	.st265{fill:url(#SVGID_00000003803678552046724760000004004819694280638870_);}
	.st266{fill:url(#SVGID_00000152977536709920472150000009133161666450741901_);}
	.st267{fill:url(#SVGID_00000076573923253448180010000016667144258363634606_);}
	.st268{fill:url(#SVGID_00000021822364631160096960000009644514372259938198_);}
	.st269{fill-rule:evenodd;clip-rule:evenodd;fill:url(#SVGID_00000085219445705127875310000006181048453204422846_);}
	.st270{fill:url(#SVGID_00000140712488385032825130000003789905184194228869_);}
	.st271{fill:url(#SVGID_00000096037694310557562770000012290872509875925902_);}
	.st272{fill:url(#SVGID_00000160909681520899437150000003320299709314003370_);}
	.st273{fill:url(#SVGID_00000142878006267520719960000000908551677975275923_);}
	.st274{fill:url(#SVGID_00000110468434349811081110000015491176021747838082_);}
	.st275{fill:url(#SVGID_00000183960513814872705580000007683469073656065165_);}
	.st276{fill:url(#SVGID_00000160175860392704215100000015679075769736509356_);}
	.st277{fill:url(#SVGID_00000018918062282978999290000009059600550113765787_);}
	.st278{fill:url(#SVGID_00000144337818853102411710000003505553788462779323_);}
	.st279{fill:url(#SVGID_00000070101059185725465170000013002550778030845110_);}
	.st280{fill:url(#SVGID_00000129919849265015694730000015697935842363688607_);}
	.st281{fill:url(#SVGID_00000183215414959379091180000017719466272949956275_);}
	.st282{fill:url(#SVGID_00000018926526513677736840000003715677253179751570_);}
	.st283{fill:url(#SVGID_00000126302303610242377610000015770273990798784674_);}
	.st284{fill:url(#SVGID_00000006689820641489258510000014117953670677278080_);}
	.st285{fill-rule:evenodd;clip-rule:evenodd;fill:url(#SVGID_00000116950584102314169800000017605642671461538474_);}
	.st286{fill:url(#SVGID_00000054954198667370660150000007613312359985804427_);}
	.st287{fill:url(#SVGID_00000144313756582281297110000007830471447949985171_);}
	.st288{fill:url(#SVGID_00000071555044179383919690000003337091928316993688_);}
	.st289{fill:url(#SVGID_00000048501314112266852760000009722741106660380032_);}
	.st290{fill:url(#SVGID_00000043443230148277140140000008749358993079697807_);}
	.st291{fill:url(#SVGID_00000018953898063062395000000005322826732203560352_);}
	.st292{fill:url(#SVGID_00000044147519188163827620000011448461730195820691_);}
	.st293{fill:url(#SVGID_00000178888170702492843940000005830046085574038918_);}
	.st294{fill:url(#SVGID_00000176040049489138341200000001480709440136619684_);}
	.st295{fill:url(#SVGID_00000110464993381377230580000002676854253551658126_);}
	.st296{fill:url(#SVGID_00000167395717919489757750000013164111714531524236_);}
	.st297{fill:url(#SVGID_00000116213934267581099040000006218457512341313417_);}
	.st298{fill:url(#SVGID_00000045604763798922266200000004670337007112146341_);}
	.st299{fill:url(#SVGID_00000067199181627974906730000015690889744008272276_);}
	.st300{fill:url(#SVGID_00000013190303772744876840000008352118388210216355_);}
	.st301{fill:url(#SVGID_00000044900402661403173480000010142755241351420826_);}
	.st302{fill:url(#SVGID_00000174572096730618713590000014283360880408831138_);}
	.st303{fill:url(#SVGID_00000057142920246702998700000007284907976521017477_);}
	.st304{fill-rule:evenodd;clip-rule:evenodd;fill:url(#SVGID_00000153692304684407683730000008021599348912282015_);}
	.st305{fill:url(#SVGID_00000156552115795253714040000016241824044729444230_);}
	.st306{fill:url(#SVGID_00000096743761749914905810000004794156202770380708_);}
	.st307{fill:url(#SVGID_00000145762506877567370850000007814680723405864868_);}
	.st308{fill:url(#SVGID_00000022541409523637717520000013475830950942942872_);}
	.st309{fill:url(#SVGID_00000022519135462524317460000010977283881833868185_);}
	.st310{fill:url(#SVGID_00000136407556776801181950000015939519447714125985_);}
	.st311{fill:url(#SVGID_00000155108171581198017240000002088840262077909912_);}
	.st312{fill:url(#SVGID_00000108271574594753677590000015895770630488948662_);}
	.st313{fill:url(#SVGID_00000143581702104646214390000005419432175008114058_);}
	.st314{fill:url(#SVGID_00000089537437841607029130000010301294906442091426_);}
	.st315{fill:url(#SVGID_00000037676085836567769700000004607537985346662277_);}
	.st316{fill:url(#SVGID_00000060724130859981521540000001138008780612791441_);}
	.st317{fill:url(#SVGID_00000165945632879089208270000014429116706184404404_);}
	.st318{fill:url(#SVGID_00000152972488622438303410000002858477803435344034_);}
	.st319{fill:url(#SVGID_00000075154335693724221310000004491202100451282617_);}
	.st320{fill:url(#SVGID_00000161617625778164169050000015411735001933175171_);}
	.st321{fill:url(#SVGID_00000104694190293807381190000006901466350827611322_);}
	.st322{fill:url(#SVGID_00000130643590020051788040000013972923867411792300_);}
	.st323{fill:url(#SVGID_00000052782657733124906780000010624876434743002777_);}
	.st324{fill:url(#SVGID_00000026128181486554594940000000155877457077884850_);}
	.st325{fill-rule:evenodd;clip-rule:evenodd;fill:url(#SVGID_00000183234255621428531240000007696315396303952798_);}
	.st326{fill:url(#SVGID_00000106868395889900085080000015299407037042658231_);}
	.st327{fill:url(#SVGID_00000180350443640575554620000012504392736711920526_);}
	.st328{fill:url(#SVGID_00000023992238245611621020000011511982791180539040_);}
	.st329{fill:url(#SVGID_00000017493161170866206320000010003284192394967712_);}
	.st330{fill:url(#SVGID_00000124161454013227545740000014521861504854050208_);}
	.st331{fill:url(#SVGID_00000054228257416418252240000000657306751336524164_);}
	.st332{fill:url(#SVGID_00000036935450236323258160000008409737647588542851_);}
	.st333{fill:url(#SVGID_00000067953391578063544180000017487385942257914040_);}
	.st334{fill:url(#SVGID_00000183957899325658080320000016496828287879967884_);}
	.st335{fill:url(#SVGID_00000099654323878751312400000008110664501362370493_);}
	.st336{fill:url(#SVGID_00000080901209184367521430000011033621161798043316_);}
	.st337{fill:url(#SVGID_00000116233837332940885080000008128253108009481369_);}
	.st338{fill:url(#SVGID_00000101102539729127228870000015547708940410614699_);}
	.st339{fill:url(#SVGID_00000137813328311495716930000015380609738290394503_);}
	.st340{fill:url(#SVGID_00000024000753976501274680000018257295327673663117_);}
	.st341{fill:url(#SVGID_00000160175472472684749320000007939957866013139637_);}
	.st342{fill-rule:evenodd;clip-rule:evenodd;fill:url(#SVGID_00000144312113330170626400000011923401186774786709_);}
	.st343{fill:url(#SVGID_00000010280950805451281190000017648659369607442072_);}
	.st344{fill:url(#SVGID_00000158712069574074742410000008052570868453461648_);}
	.st345{fill:url(#SVGID_00000134250592155834302910000016573977968533664161_);}
	.st346{fill:url(#SVGID_00000136411519734207935930000005851306806711390129_);}
	.st347{fill:url(#SVGID_00000072280924209141183590000015017681372415246515_);}
	.st348{fill:url(#SVGID_00000000945472265620525440000006395472454762187702_);}
	.st349{fill:url(#SVGID_00000095311229322313403020000000605251732722900661_);}
	.st350{fill:url(#SVGID_00000159465607046883019260000005953044284286283943_);}
	.st351{fill:url(#SVGID_00000049212992044476890580000011882861992798575551_);}
	.st352{fill:url(#SVGID_00000011008169839984894010000000858009342409221817_);}
	.st353{fill:url(#SVGID_00000155136498769337074720000002702971596560442512_);}
	.st354{fill:url(#SVGID_00000155860747729962733040000010756720814907524779_);}
	.st355{fill:url(#SVGID_00000055678312774206240660000004655315586147752616_);}
	.st356{fill:url(#SVGID_00000078044151641445739290000010528194907043027134_);}
	.st357{fill:url(#SVGID_00000044180042848137806300000000263825161684691624_);}
	.st358{fill:url(#SVGID_00000078013530115647364600000008685033289178068865_);}
	.st359{fill:url(#SVGID_00000143602895099479840140000001307583950840303251_);}
	.st360{fill:url(#SVGID_00000091013146198752249830000001880315327919155105_);}
	.st361{fill:url(#SVGID_00000108298037417362957480000016084646717439004810_);}
	.st362{fill:url(#SVGID_00000044145950672348939180000000391687499919058594_);}
	.st363{fill:#C1282D;}
	.st364{fill-rule:evenodd;clip-rule:evenodd;fill:url(#SVGID_00000116230707183412931780000000956665378830854537_);}
	.st365{fill:url(#SVGID_00000005232643246592279840000003803262491210872762_);}
	.st366{fill:url(#SVGID_00000116955637119417817480000017678472336950391203_);}
	.st367{fill:url(#SVGID_00000085227451069795651820000001888807642147013021_);}
	.st368{fill:url(#SVGID_00000057838734176137426020000003258984451382108288_);}
	.st369{fill:url(#SVGID_00000145738767392340925720000004103897569159302830_);}
	.st370{fill:url(#SVGID_00000160177085080364451500000011009610688751460756_);}
	.st371{fill:url(#SVGID_00000147192601835002516790000002949453856791841184_);}
	.st372{fill:url(#SVGID_00000150066955193189783050000015638924953822724756_);}
	.st373{fill:url(#SVGID_00000034086851174292906760000014789163586018350233_);}
	.st374{fill:url(#SVGID_00000013914097923113755590000004749673295100797093_);}
	.st375{fill:url(#SVGID_00000090263929530571573450000005253920577444567226_);}
	.st376{fill:url(#SVGID_00000084515609403399221100000008391238739458483878_);}
	.st377{fill:url(#SVGID_00000172425601898499162970000003805356343899643287_);}
	.st378{fill:url(#SVGID_00000101785309924371961440000018017247135993723273_);}
	.st379{fill:url(#SVGID_00000070813965910723931960000007116312535421024665_);}
	.st380{fill:url(#SVGID_00000029749873448055795730000004709582295893654659_);}
	.st381{fill-rule:evenodd;clip-rule:evenodd;fill:url(#SVGID_00000014629820141860453970000010165491752604633769_);}
	.st382{fill:url(#SVGID_00000067930129256023032820000006224789142391657383_);}
	.st383{fill:url(#SVGID_00000085932178554045916670000012821349354410580901_);}
	.st384{fill:url(#SVGID_00000162316611345638148210000008251113231596279455_);}
	.st385{fill:url(#SVGID_00000103969381938272087840000011167164084614944409_);}
	.st386{fill:url(#SVGID_00000085969738600155606740000000893717562983147653_);}
	.st387{fill:url(#SVGID_00000127730345947418469610000005810493288187840177_);}
	.st388{fill:url(#SVGID_00000178195547774087624250000010433614083071910819_);}
	.st389{fill:url(#SVGID_00000134240693715995138190000016167902460224212908_);}
	.st390{fill:url(#SVGID_00000061463934901974173840000007067451053509005740_);}
	.st391{fill:url(#SVGID_00000104706401926820324640000013400158773269315480_);}
	.st392{fill:url(#SVGID_00000044153514490027198040000010064613864848060812_);}
	.st393{fill:url(#SVGID_00000086686088822530256090000005920964216274025614_);}
	.st394{fill:url(#SVGID_00000041978142514751077340000010849140715803312801_);}
	.st395{fill:url(#SVGID_00000008830351185442092540000007582428106321446057_);}
	.st396{fill:url(#SVGID_00000112620086590727748220000016290892900947980184_);}
	.st397{fill:url(#SVGID_00000167366604283283395060000000338642962919622847_);}
	.st398{fill:url(#SVGID_00000110472369005938469990000003270747418052829373_);}
	.st399{fill:url(#SVGID_00000026881484760683831550000013029689195230657719_);}
	.st400{fill:url(#SVGID_00000016075021208185863380000004391974375743227540_);}
	.st401{fill:url(#SVGID_00000106124035063114088520000000191964198965206202_);}
</style>
<g>
	<g>
		<ellipse class="st11" cx="540" cy="471" rx="222.15" ry="110.23"/>
		<path class="st121" d="M751.08,505.33c-29.11,44.08-112.59,75.91-211.08,75.91c-99.04,0-182.89-32.16-211.55-76.65l2.17-0.68
			l10.22-3.19l72.17-22.65l-6.79,18.88c-0.58,1.6,1.05,3.12,2.61,2.45l63.71-27.51l-21.6,31.96c-1.19,1.73,0.85,3.87,2.65,2.75
			l63.95-39.5v23.98c0,1.7,2.04,2.58,3.29,1.39l6.55-6.22l10.32,23.98c0.65,1.49,2.75,1.6,3.53,0.14L558,478.4l77.71,39.3
			c1.77,0.92,3.6-1.15,2.48-2.82l-20.48-30.7c-0.48-0.68-0.44-1.6,0.07-2.24l8.83-11.99l10.29,12.8c0.92,1.12,2.65,0.92,3.29-0.37
			l5.43-11.04l47.04,34.74c1.09,0.78,2.65,0.27,3.02-1.02l4.89-16.1l50.33,16.27c0.03,0,0.07,0.03,0.07,0.03
			C751.01,505.3,751.04,505.3,751.08,505.33z"/>
		
			<linearGradient id="SVGID_00000165941477437925437770000017757145275999911566_" gradientUnits="userSpaceOnUse" x1="448.784" y1="364.7913" x2="667.7439" y2="614.9075">
			<stop  offset="0" style="stop-color:#3E76BB"/>
			<stop  offset="1" style="stop-color:#06509E"/>
		</linearGradient>
		<path style="fill-rule:evenodd;clip-rule:evenodd;fill:url(#SVGID_00000165941477437925437770000017757145275999911566_);" d="
			M762.15,471.19c0,1.05-0.03,2.07-0.1,3.09c-0.03,0.88-0.1,1.73-0.2,2.58c-0.07,0.78-0.17,1.56-0.27,2.34
			c-0.07,0.54-0.17,1.09-0.27,1.63c-0.31,1.9-0.75,3.8-1.29,5.67c-0.17,0.68-0.37,1.36-0.58,2c-0.07,0.24-0.14,0.48-0.24,0.71
			c-0.27,0.85-0.58,1.7-0.88,2.51c-0.24,0.65-0.51,1.32-0.82,1.97c-0.07,0.2-0.17,0.44-0.27,0.65l-0.1-0.03l-0.07-0.03
			l-143.09-69.42c-0.88-0.41-1.94-0.14-2.48,0.68l-19.22,28.7l-51.22-62.93c-0.71-0.82-1.94-0.95-2.75-0.24l-71.15,59.64
			l-33.73-3.23c-0.54-0.07-1.09,0-1.6,0.24c-9.27,4.18-102.7,46.5-108.04,48.91c-0.24-0.44-0.44-0.85-0.61-1.29
			c-0.27-0.61-0.54-1.26-0.82-1.9c-0.54-1.29-1.05-2.62-1.46-3.91c-0.27-0.78-0.51-1.53-0.71-2.31c-0.78-2.51-1.32-5.06-1.7-7.64
			c-0.27-1.7-0.44-3.43-0.54-5.16c-0.07-1.05-0.1-2.14-0.1-3.23c0-60.96,99.44-110.41,222.15-110.41
			C662.71,360.77,762.15,410.22,762.15,471.19z"/>
		<g>
			<path class="st11" d="M416.75,529.76c0.3,0,0.6-0.06,0.88-0.18c0.28-0.12,0.46-0.3,0.54-0.52h0.65l-1.13,4.34
				c-0.19,0.61-0.75,0.91-1.67,0.91h-1.67l-3.17,13.49c-0.04,0.19,0.05,0.38,0.25,0.58c0.21,0.2,0.42,0.3,0.62,0.3l-0.2,0.65h-7.88
				c-0.61,0-0.91-0.3-0.91-0.91c0-0.08,0.02-0.23,0.06-0.45l3.2-13.66h-1.96c-0.3,0-0.55,0.07-0.75,0.21
				c-0.2,0.14-0.33,0.33-0.41,0.55h-0.71l1.13-4.54c0.07-0.27,0.23-0.46,0.45-0.58c0.23-0.12,0.59-0.18,1.08-0.18H416.75z"/>
			<path class="st11" d="M425.85,549.32c-0.49,0-0.86-0.08-1.09-0.24c-0.24-0.16-0.37-0.44-0.41-0.84l-0.26-2.89h-3.29l-1.16,2.33
				c-0.02,0.06-0.03,0.1-0.03,0.14s-0.01,0.11-0.03,0.23c0,0.17,0.08,0.32,0.24,0.44c0.16,0.12,0.34,0.18,0.55,0.18l-0.14,0.65
				h-6.15c-0.79,0-1.19-0.31-1.19-0.94c0-0.17,0.05-0.35,0.14-0.54l8.33-16.16c0.06-0.11,0.08-0.26,0.08-0.43
				c0-0.21-0.09-0.4-0.27-0.58c-0.18-0.18-0.37-0.27-0.58-0.27l0.17-0.65h8.45c0.43,0,0.8,0.12,1.11,0.35
				c0.3,0.24,0.45,0.57,0.45,1.01l1.3,16.56c0,0.25,0.13,0.47,0.4,0.68c0.26,0.21,0.54,0.31,0.82,0.31l-0.14,0.65H425.85z
				 M422.48,541.56h1.62l-0.23-3.17L422.48,541.56z"/>
			<path class="st11" d="M431.95,531.52c-0.04-0.34-0.17-0.61-0.38-0.81c-0.22-0.2-0.46-0.3-0.72-0.3l0.14-0.65h7.91
				c0.25,0,0.48,0.12,0.71,0.37c0.23,0.25,0.34,0.51,0.34,0.79l0.23,7.43l2.78-6.49l0.11-0.45c0-0.23-0.08-0.45-0.24-0.67
				c-0.16-0.22-0.34-0.33-0.55-0.33l0.14-0.65h5.75c0.34,0,0.62,0.13,0.84,0.38c0.22,0.26,0.33,0.52,0.33,0.81l-0.11,0.57
				l-8.33,17.8h-5.3c-0.44,0-0.79-0.09-1.08-0.28c-0.28-0.19-0.45-0.44-0.51-0.76L431.95,531.52z"/>
			<path class="st11" d="M456.13,549.32c-0.49,0-0.86-0.08-1.09-0.24c-0.24-0.16-0.37-0.44-0.41-0.84l-0.26-2.89h-3.29l-1.16,2.33
				c-0.02,0.06-0.03,0.1-0.03,0.14s-0.01,0.11-0.03,0.23c0,0.17,0.08,0.32,0.24,0.44c0.16,0.12,0.34,0.18,0.55,0.18l-0.14,0.65
				h-6.15c-0.79,0-1.19-0.31-1.19-0.94c0-0.17,0.05-0.35,0.14-0.54l8.33-16.16c0.06-0.11,0.08-0.26,0.08-0.43
				c0-0.21-0.09-0.4-0.27-0.58c-0.18-0.18-0.37-0.27-0.58-0.27l0.17-0.65h8.45c0.43,0,0.8,0.12,1.11,0.35
				c0.3,0.24,0.45,0.57,0.45,1.01l1.3,16.56c0,0.25,0.13,0.47,0.4,0.68c0.26,0.21,0.54,0.31,0.82,0.31l-0.14,0.65H456.13z
				 M452.76,541.56h1.62l-0.23-3.17L452.76,541.56z"/>
			<path class="st11" d="M482.64,549.32h-5.16c-0.57,0-1.04-0.08-1.43-0.23c-0.39-0.15-0.64-0.42-0.75-0.82l-2.89-7l-1.64,6.32
				l-0.06,0.48c0,0.19,0.08,0.34,0.24,0.44c0.16,0.1,0.37,0.16,0.64,0.16l-0.14,0.65h-6.38c-0.32,0-0.56-0.09-0.72-0.27
				c-0.16-0.18-0.24-0.42-0.24-0.72c0-0.11,0.02-0.27,0.06-0.45l3.86-16.58c0.04-0.21-0.04-0.41-0.23-0.6
				c-0.19-0.19-0.4-0.28-0.62-0.28l0.17-0.65h7.2c0.23,0,0.49,0.11,0.78,0.33c0.29,0.22,0.49,0.45,0.58,0.69l3.06,7.14l1.36-6.12
				c0.04-0.11,0.06-0.29,0.06-0.54c0-0.23-0.09-0.42-0.28-0.6c-0.19-0.17-0.4-0.26-0.62-0.26l0.17-0.65h6.35
				c0.3,0,0.53,0.1,0.69,0.31c0.16,0.21,0.24,0.44,0.24,0.71l-0.08,0.76L482.64,549.32z"/>
			<path class="st11" d="M512.61,529.74c1.27,0,2.24,0.33,2.93,0.99c0.69,0.66,1.03,1.49,1.03,2.5c0,0.15-0.01,0.32-0.04,0.51
				c-0.03,0.19-0.05,0.33-0.07,0.43c-0.43,2.08-1.32,3.33-2.66,3.77c0.55,0.34,0.95,0.71,1.2,1.12c0.26,0.41,0.38,1.01,0.38,1.8
				c0,0.72-0.14,1.72-0.42,3c-0.49,2.14-1.25,3.6-2.27,4.39c-0.93,0.72-2.35,1.08-4.28,1.08h-11.25c-0.32,0-0.56-0.09-0.72-0.27
				c-0.16-0.18-0.24-0.42-0.24-0.72c0-0.11,0.02-0.27,0.06-0.45l3.86-16.58c0.04-0.21-0.04-0.41-0.23-0.6
				c-0.19-0.19-0.4-0.28-0.62-0.28l0.17-0.65L512.61,529.74z M505.95,544.93c0.51,0,0.86-0.12,1.06-0.35
				c0.2-0.24,0.39-0.77,0.58-1.6c0.13-0.53,0.2-0.96,0.2-1.3c0-0.64-0.35-0.96-1.05-0.96h-0.79l-0.96,4.22H505.95z M507.96,536.94
				c0.32,0,0.55-0.09,0.68-0.27c0.13-0.18,0.26-0.51,0.37-0.98c0.11-0.47,0.17-0.81,0.17-1.02c0-0.49-0.28-0.74-0.82-0.74h-0.85
				l-0.68,3H507.96z"/>
			<path class="st11" d="M529.79,529.76c1.66,0,3.03,0.43,4.11,1.29c1.08,0.86,1.62,2.07,1.62,3.64c0,0.57-0.07,1.11-0.2,1.64
				l-1.7,7.2c-0.49,2.14-1.34,3.66-2.55,4.56c-1.06,0.81-2.51,1.22-4.37,1.22h-5.81c-1.78,0-3.09-0.4-3.95-1.2
				c-0.86-0.8-1.29-1.99-1.29-3.56c0-0.93,0.12-1.89,0.37-2.89l1.25-5.36c0.49-2.06,1.2-3.6,2.13-4.62
				c1.19-1.29,2.86-1.93,5.02-1.93H529.79z M523.67,543.26c-0.06,0.26-0.08,0.49-0.08,0.68c0,0.47,0.27,0.71,0.79,0.71
				c0.36,0,0.63-0.08,0.81-0.24c0.18-0.16,0.32-0.45,0.41-0.86l1.87-7.97c0.04-0.23,0.06-0.38,0.06-0.45c0-0.55-0.27-0.82-0.82-0.82
				c-0.6,0-1.01,0.38-1.22,1.13L523.67,543.26z"/>
			<path class="st11" d="M545.16,540.85l0.06-0.37c0-0.17-0.11-0.26-0.34-0.26c-0.23,0-0.34-0.09-0.34-0.28l0.06-0.37l0.82-3.37
				h6.27c0.45,0,0.81,0.14,1.06,0.41c0.26,0.28,0.38,0.58,0.38,0.92c0,0.43-0.04,0.79-0.11,1.08l-1.5,6.66
				c-0.34,1.51-0.86,2.57-1.56,3.16c-0.7,0.59-1.87,0.89-3.51,0.89h-6.86c-1.91,0-3.28-0.37-4.11-1.11c-0.74-0.66-1.1-1.67-1.1-3.03
				c0-0.87,0.15-1.93,0.45-3.17l1.56-6.83c0.4-1.78,1.16-3.15,2.3-4.11c1.04-0.89,2.23-1.33,3.57-1.33h11.59
				c-0.06,0.57-0.16,1.14-0.31,1.73c-0.15,0.59-0.32,1.07-0.5,1.45c-0.18,0.38-0.45,0.65-0.82,0.82c-0.37,0.17-0.79,0.26-1.26,0.26
				h-4.79c-0.53,0-0.94,0.13-1.23,0.38c-0.29,0.26-0.51,0.67-0.64,1.26l-1.84,7.94c-0.04,0.27-0.06,0.43-0.06,0.51
				c0,0.47,0.29,0.71,0.88,0.71c0.66,0,1.07-0.35,1.22-1.05L545.16,540.85z"/>
			<path class="st11" d="M566.91,529.76c1.91,0,3.3,0.49,4.17,1.47c0.77,0.89,1.16,2.19,1.16,3.91c0,0.66-0.06,1.4-0.18,2.23
				c-0.12,0.82-0.3,1.69-0.52,2.59c-0.89,3.76-1.76,6.26-2.62,7.5c-0.86,1.24-2.11,1.86-3.76,1.86h-12.64
				c-0.32,0-0.56-0.09-0.72-0.27c-0.16-0.18-0.24-0.42-0.24-0.72c0-0.11,0.02-0.27,0.06-0.45l3.85-16.58
				c0.04-0.21-0.04-0.41-0.23-0.6c-0.19-0.19-0.4-0.28-0.62-0.28l0.17-0.65H566.91z M561.35,544.65c0.4,0,0.7-0.11,0.91-0.34
				c0.21-0.23,0.38-0.61,0.51-1.16l1.64-7.06c0.08-0.32,0.11-0.62,0.11-0.91c0-0.59-0.34-0.88-1.02-0.88h-0.71l-2.41,10.35H561.35z"
				/>
			<path class="st11" d="M592.65,540.85l0.06-0.37c0-0.17-0.11-0.26-0.34-0.26c-0.23,0-0.34-0.09-0.34-0.28l0.06-0.37l0.82-3.37
				h6.27c0.45,0,0.81,0.14,1.06,0.41c0.26,0.28,0.38,0.58,0.38,0.92c0,0.43-0.04,0.79-0.11,1.08l-1.5,6.66
				c-0.34,1.51-0.86,2.57-1.56,3.16c-0.7,0.59-1.87,0.89-3.51,0.89h-6.86c-1.91,0-3.28-0.37-4.11-1.11c-0.74-0.66-1.1-1.67-1.1-3.03
				c0-0.87,0.15-1.93,0.45-3.17l1.56-6.83c0.4-1.78,1.16-3.15,2.3-4.11c1.04-0.89,2.23-1.33,3.57-1.33h11.59
				c-0.06,0.57-0.16,1.14-0.31,1.73c-0.15,0.59-0.32,1.07-0.5,1.45c-0.18,0.38-0.45,0.65-0.82,0.82c-0.37,0.17-0.79,0.26-1.26,0.26
				h-4.79c-0.53,0-0.94,0.13-1.23,0.38s-0.51,0.67-0.64,1.26l-1.84,7.94c-0.04,0.27-0.06,0.43-0.06,0.51c0,0.47,0.29,0.71,0.88,0.71
				c0.66,0,1.07-0.35,1.22-1.05L592.65,540.85z"/>
			<path class="st11" d="M616.69,543.94c0.13,0.23,0.31,0.42,0.54,0.58c0.23,0.16,0.48,0.24,0.76,0.24h0.82l-0.68,3.23
				c-0.19,0.89-0.87,1.33-2.04,1.33h-3.8c-0.49,0-0.92-0.13-1.28-0.38c-0.36-0.26-0.59-0.57-0.68-0.95l-1.65-5.78l-1.22,5.53
				l-0.03,0.28c0,0.19,0.08,0.34,0.24,0.47c0.16,0.12,0.36,0.18,0.61,0.18l-0.14,0.65h-7.85c-0.32,0-0.56-0.09-0.72-0.27
				c-0.16-0.18-0.24-0.42-0.24-0.72c0-0.11,0.02-0.27,0.06-0.45l3.85-16.58c0.04-0.21-0.04-0.41-0.23-0.6
				c-0.19-0.19-0.4-0.28-0.62-0.28l0.17-0.65h13.13c2.95,0,4.42,1.37,4.42,4.11c0,0.38-0.02,0.71-0.06,0.99
				c-0.09,0.49-0.16,0.87-0.2,1.13c-0.38,1.7-0.88,2.95-1.5,3.74c-0.62,0.79-1.51,1.32-2.66,1.59L616.69,543.94z M609.8,537.67h1.11
				c0.64,0,1.09-0.54,1.33-1.62c0.04-0.21,0.08-0.41,0.11-0.61c0.04-0.2,0.06-0.36,0.06-0.5c0-0.53-0.23-0.79-0.68-0.79h-1.1
				L609.8,537.67z"/>
			<path class="st11" d="M633.22,529.76c1.66,0,3.03,0.43,4.11,1.29c1.08,0.86,1.62,2.07,1.62,3.64c0,0.57-0.07,1.11-0.2,1.64
				l-1.7,7.2c-0.49,2.14-1.34,3.66-2.55,4.56c-1.06,0.81-2.51,1.22-4.37,1.22h-5.81c-1.78,0-3.09-0.4-3.95-1.2
				c-0.86-0.8-1.29-1.99-1.29-3.56c0-0.93,0.12-1.89,0.37-2.89l1.25-5.36c0.49-2.06,1.2-3.6,2.13-4.62
				c1.19-1.29,2.86-1.93,5.02-1.93H633.22z M627.1,543.26c-0.06,0.26-0.08,0.49-0.08,0.68c0,0.47,0.27,0.71,0.79,0.71
				c0.36,0,0.63-0.08,0.81-0.24c0.18-0.16,0.32-0.45,0.41-0.86l1.87-7.97c0.04-0.23,0.06-0.38,0.06-0.45c0-0.55-0.27-0.82-0.82-0.82
				c-0.6,0-1.01,0.38-1.22,1.13L627.1,543.26z"/>
			<path class="st11" d="M646.24,543.43c-0.04,0.19-0.06,0.3-0.06,0.34c0,0.41,0.32,0.62,0.97,0.62c0.36,0,0.62-0.06,0.78-0.18
				c0.16-0.12,0.29-0.38,0.38-0.78l2.81-12.13c0.04-0.19-0.04-0.38-0.23-0.58c-0.19-0.2-0.39-0.3-0.6-0.3l0.14-0.65h7.88
				c0.32,0,0.55,0.08,0.69,0.24c0.14,0.16,0.21,0.39,0.21,0.69l-0.06,0.43l-2.86,12.42c-0.49,2.15-1.3,3.67-2.41,4.56
				c-1,0.79-2.41,1.19-4.22,1.19h-6.49c-1.72,0-2.98-0.38-3.78-1.15c-0.8-0.77-1.2-1.9-1.2-3.39c0-0.91,0.14-1.95,0.42-3.12
				l2.41-10.35c0.04-0.19-0.04-0.38-0.23-0.58c-0.19-0.2-0.39-0.3-0.6-0.3l0.14-0.65h7.88c0.32,0,0.55,0.08,0.69,0.24
				c0.14,0.16,0.21,0.39,0.21,0.69l-0.06,0.43L646.24,543.43z"/>
			<path class="st11" d="M672.24,529.76c1.74,0,3.05,0.35,3.94,1.05c0.89,0.7,1.33,1.8,1.33,3.32c0,0.41-0.02,0.79-0.06,1.13
				c-0.04,0.34-0.12,0.76-0.25,1.28c-0.61,2.61-1.29,4.33-2.04,5.17c-0.76,0.84-1.99,1.26-3.71,1.26h-5.84l-1.05,4.45l-0.09,0.54
				c0,0.21,0.09,0.38,0.26,0.51c0.17,0.13,0.37,0.2,0.6,0.2l-0.17,0.65h-7.82c-0.32,0-0.56-0.09-0.72-0.27
				c-0.16-0.18-0.24-0.42-0.24-0.72c0-0.11,0.02-0.27,0.06-0.45l3.86-16.58c0.04-0.21-0.04-0.41-0.23-0.6
				c-0.19-0.19-0.4-0.28-0.62-0.28l0.17-0.65H672.24z M666.68,538.44h0.88c0.47,0,0.82-0.15,1.05-0.44
				c0.23-0.29,0.43-0.86,0.62-1.69c0.11-0.49,0.17-0.88,0.17-1.16c0-0.38-0.08-0.64-0.24-0.78c-0.16-0.14-0.4-0.21-0.72-0.21h-0.77
				L666.68,538.44z"/>
		</g>
	</g>
	<g>
		
			<linearGradient id="SVGID_00000126317481480539009020000006721831473808472752_" gradientUnits="userSpaceOnUse" x1="54.7876" y1="586.7391" x2="54.7876" y2="666.8466">
			<stop  offset="0" style="stop-color:#3E76BB"/>
			<stop  offset="0.9672" style="stop-color:#06509E"/>
		</linearGradient>
		<path style="fill:url(#SVGID_00000126317481480539009020000006721831473808472752_);" d="M73.35,606.9c0.92,0,1.81-0.19,2.68-0.56
			c0.87-0.38,1.41-0.91,1.64-1.6h1.99l-3.46,13.21c-0.57,1.84-2.27,2.76-5.09,2.76h-5.09l-9.67,41.11
			c-0.11,0.57,0.14,1.16,0.78,1.77c0.63,0.6,1.27,0.91,1.9,0.91l-0.6,1.99H34.41c-1.84,0-2.76-0.92-2.76-2.76
			c0-0.23,0.06-0.69,0.17-1.38l9.76-41.62h-5.96c-0.92,0-1.68,0.21-2.29,0.65c-0.6,0.43-1.02,1-1.25,1.68h-2.16l3.45-13.82
			c0.23-0.81,0.69-1.4,1.38-1.77c0.69-0.38,1.79-0.56,3.28-0.56H73.35z"/>
		
			<linearGradient id="SVGID_00000044145884020132225190000001985543434360671665_" gradientUnits="userSpaceOnUse" x1="90.7232" y1="586.7391" x2="90.7232" y2="666.8466">
			<stop  offset="0" style="stop-color:#3E76BB"/>
			<stop  offset="0.9672" style="stop-color:#06509E"/>
		</linearGradient>
		<path style="fill:url(#SVGID_00000044145884020132225190000001985543434360671665_);" d="M99.1,666.49c-1.5,0-2.6-0.25-3.32-0.74
			c-0.72-0.49-1.14-1.34-1.25-2.54l-0.78-8.81H83.73l-3.54,7.08c-0.06,0.17-0.09,0.32-0.09,0.43c0,0.11-0.03,0.34-0.09,0.69
			c0,0.52,0.25,0.96,0.74,1.33c0.49,0.38,1.05,0.56,1.68,0.56L82,666.49H63.26c-2.42,0-3.63-0.95-3.63-2.85
			c0-0.52,0.14-1.06,0.43-1.64l25.39-49.23c0.17-0.34,0.26-0.78,0.26-1.29c0-0.64-0.27-1.23-0.82-1.77
			c-0.55-0.55-1.14-0.82-1.77-0.82l0.52-1.99h25.73c1.32,0,2.45,0.36,3.37,1.08c0.92,0.72,1.38,1.74,1.38,3.07l3.97,50.43
			c0,0.75,0.4,1.44,1.21,2.08c0.81,0.63,1.64,0.95,2.51,0.95l-0.43,1.99H99.1z M88.82,642.83h4.92l-0.69-9.67L88.82,642.83z"/>
		
			<linearGradient id="SVGID_00000121253942906435331880000004804318454545837724_" gradientUnits="userSpaceOnUse" x1="150.8002" y1="586.7391" x2="150.8002" y2="666.8466">
			<stop  offset="0" style="stop-color:#3E76BB"/>
			<stop  offset="0.9672" style="stop-color:#06509E"/>
		</linearGradient>
		<path style="fill:url(#SVGID_00000121253942906435331880000004804318454545837724_);" d="M169.76,606.81
			c3.86,0,6.84,1.01,8.94,3.02c2.1,2.01,3.15,4.55,3.15,7.6c0,0.46-0.04,0.98-0.13,1.56c-0.09,0.57-0.16,1.01-0.22,1.29
			c-1.32,6.34-4.03,10.16-8.12,11.49c1.67,1.04,2.89,2.17,3.67,3.41c0.78,1.24,1.17,3.07,1.17,5.49c0,2.18-0.43,5.24-1.3,9.15
			c-1.5,6.51-3.8,10.97-6.91,13.39c-2.82,2.18-7.17,3.28-13.04,3.28h-34.28c-0.98,0-1.71-0.27-2.2-0.82s-0.73-1.28-0.73-2.21
			c0-0.34,0.06-0.8,0.17-1.38l11.74-50.52c0.11-0.63-0.11-1.24-0.69-1.81c-0.58-0.57-1.21-0.86-1.9-0.86l0.52-1.99L169.76,606.81z
			 M149.46,653.1c1.56,0,2.64-0.36,3.24-1.08c0.6-0.72,1.19-2.35,1.77-4.88c0.4-1.61,0.6-2.94,0.6-3.97c0-1.96-1.07-2.94-3.2-2.94
			h-2.42l-2.94,12.87H149.46z M155.59,628.75c0.98,0,1.67-0.27,2.07-0.82c0.4-0.55,0.78-1.54,1.12-2.98s0.52-2.47,0.52-3.11
			c0-1.5-0.83-2.24-2.51-2.24h-2.59l-2.07,9.15H155.59z"/>
		
			<linearGradient id="SVGID_00000080910210891801032890000016471277246864015802_" gradientUnits="userSpaceOnUse" x1="202.8501" y1="586.7391" x2="202.8501" y2="666.8466">
			<stop  offset="0" style="stop-color:#3E76BB"/>
			<stop  offset="0.9672" style="stop-color:#06509E"/>
		</linearGradient>
		<path style="fill:url(#SVGID_00000080910210891801032890000016471277246864015802_);" d="M211.23,666.49
			c-1.5,0-2.6-0.25-3.32-0.74c-0.72-0.49-1.14-1.34-1.25-2.54l-0.78-8.81h-10.02l-3.54,7.08c-0.06,0.17-0.09,0.32-0.09,0.43
			c0,0.11-0.03,0.34-0.09,0.69c0,0.52,0.25,0.96,0.74,1.33c0.49,0.38,1.05,0.56,1.68,0.56l-0.43,1.99h-18.74
			c-2.42,0-3.63-0.95-3.63-2.85c0-0.52,0.14-1.06,0.43-1.64l25.39-49.23c0.17-0.34,0.26-0.78,0.26-1.29c0-0.64-0.27-1.23-0.82-1.77
			s-1.14-0.82-1.77-0.82l0.52-1.99h25.73c1.32,0,2.45,0.36,3.37,1.08c0.92,0.72,1.38,1.74,1.38,3.07l3.97,50.43
			c0,0.75,0.4,1.44,1.21,2.08c0.81,0.63,1.64,0.95,2.51,0.95l-0.43,1.99H211.23z M200.95,642.83h4.92l-0.69-9.67L200.95,642.83z"/>
		
			<linearGradient id="SVGID_00000081649044089594475710000015619046966697496457_" gradientUnits="userSpaceOnUse" x1="267.7216" y1="586.7391" x2="267.7216" y2="666.8466">
			<stop  offset="0" style="stop-color:#3E76BB"/>
			<stop  offset="0.9672" style="stop-color:#06509E"/>
		</linearGradient>
		<path style="fill:url(#SVGID_00000081649044089594475710000015619046966697496457_);" d="M263.83,640.23l-4.92,21.24l-0.09,0.69
			c0,0.63,0.29,1.18,0.86,1.64c0.58,0.46,1.18,0.69,1.81,0.69l-0.43,1.99h-24.09c-1.9,0-2.85-0.92-2.85-2.76
			c0-0.29,0.06-0.78,0.17-1.47l11.83-50.69c0.11-0.57-0.15-1.16-0.78-1.77c-0.63-0.6-1.26-0.91-1.9-0.91l0.6-1.99h24.01
			c1.84,0,2.76,0.92,2.76,2.76c0,0.23-0.06,0.69-0.17,1.38l-4.15,17.7h6.13l3.97-17.19c0.11-0.57-0.11-1.16-0.69-1.77
			c-0.58-0.6-1.18-0.91-1.81-0.91l0.43-1.99h24.01c0.98,0,1.68,0.25,2.11,0.74s0.65,1.19,0.65,2.11l-0.17,1.3l-11.74,50.78
			c-0.11,0.57,0.14,1.16,0.78,1.77c0.63,0.6,1.27,0.91,1.9,0.91l-0.6,1.99h-24.01c-1.84,0-2.76-0.92-2.76-2.76
			c0-0.23,0.06-0.69,0.17-1.38l5.09-22.11H263.83z"/>
		
			<linearGradient id="SVGID_00000031166539041555943360000017568617949899012757_" gradientUnits="userSpaceOnUse" x1="361.663" y1="586.7391" x2="361.663" y2="666.8466">
			<stop  offset="0" style="stop-color:#3E76BB"/>
			<stop  offset="0.9672" style="stop-color:#06509E"/>
		</linearGradient>
		<path style="fill:url(#SVGID_00000031166539041555943360000017568617949899012757_);" d="M375.78,626.93
			c4.32,0,7.72,1.18,10.19,3.54c2.48,2.36,3.71,5.76,3.71,10.19c0,2.36-0.34,4.95-1.04,7.77c-0.69,2.82-1.53,5.44-2.51,7.86
			c-1.61,4.03-3.76,6.74-6.43,8.11c-2.68,1.39-6.58,2.08-11.7,2.08h-34.98c-0.98,0-1.71-0.27-2.2-0.82
			c-0.49-0.55-0.74-1.28-0.74-2.21c0-0.34,0.06-0.8,0.17-1.38l11.75-50.52c0.11-0.63-0.12-1.24-0.69-1.81
			c-0.57-0.57-1.21-0.86-1.9-0.86l0.52-1.99h53.29l-2.42,9.5c-0.29,1.15-1.09,2.09-2.42,2.81c-1.32,0.72-2.65,1.08-3.97,1.08h-20.04
			l-1.55,6.65H375.78z M356.96,652.67h2.85c1.38,0,2.38-0.43,2.98-1.29c0.6-0.87,1.25-2.65,1.94-5.35c0.35-1.5,0.52-2.74,0.52-3.72
			c0-1.9-0.89-2.85-2.68-2.85h-2.59L356.96,652.67z"/>
		
			<linearGradient id="SVGID_00000005949083993047990870000005616506924118175361_" gradientUnits="userSpaceOnUse" x1="422.0437" y1="586.7391" x2="422.0437" y2="666.8466">
			<stop  offset="0" style="stop-color:#3E76BB"/>
			<stop  offset="0.9672" style="stop-color:#06509E"/>
		</linearGradient>
		<path style="fill:url(#SVGID_00000005949083993047990870000005616506924118175361_);" d="M434.87,606.9
			c5.07,0,9.24,1.31,12.52,3.93c3.28,2.62,4.92,6.32,4.92,11.1c0,1.73-0.2,3.39-0.6,5.01l-5.18,21.94
			c-1.5,6.51-4.09,11.14-7.77,13.91c-3.22,2.48-7.66,3.71-13.3,3.71h-17.7c-5.41,0-9.43-1.23-12.05-3.67s-3.93-6.06-3.93-10.83
			c0-2.83,0.37-5.76,1.12-8.81l3.8-16.32c1.5-6.28,3.66-10.97,6.48-14.08c3.63-3.92,8.72-5.87,15.29-5.87H434.87z M416.21,648.01
			c-0.17,0.8-0.26,1.5-0.26,2.07c0,1.44,0.81,2.16,2.42,2.16c1.09,0,1.92-0.25,2.46-0.74c0.55-0.48,0.96-1.37,1.25-2.63l5.7-24.27
			c0.11-0.69,0.17-1.15,0.17-1.38c0-1.67-0.83-2.5-2.5-2.5c-1.84,0-3.08,1.15-3.72,3.45L416.21,648.01z"/>
		
			<linearGradient id="SVGID_00000094610999692926156340000004269232974869814425_" gradientUnits="userSpaceOnUse" x1="479.2751" y1="586.7391" x2="479.2751" y2="666.8466">
			<stop  offset="0" style="stop-color:#3E76BB"/>
			<stop  offset="0.9672" style="stop-color:#06509E"/>
		</linearGradient>
		<path style="fill:url(#SVGID_00000094610999692926156340000004269232974869814425_);" d="M477.55,659.92
			c-0.17,0.64-0.26,1.27-0.26,1.9c0,0.69,0.33,1.31,0.99,1.86s1.34,0.82,2.03,0.82l-0.43,1.99h-24.52c-0.98,0-1.71-0.27-2.2-0.82
			c-0.49-0.55-0.73-1.28-0.73-2.21c0-0.34,0.06-0.8,0.17-1.38l11.74-50.52c0.11-0.63-0.11-1.24-0.69-1.81
			c-0.58-0.57-1.21-0.86-1.9-0.86l0.52-1.99h43.87l-2.24,9.67c-0.29,1.27-0.94,2.27-1.94,3.02c-1.01,0.75-2.17,1.12-3.5,1.12h-11.92
			L477.55,659.92z"/>
		
			<linearGradient id="SVGID_00000013875399240725963160000011113837164211895706_" gradientUnits="userSpaceOnUse" x1="517.8022" y1="586.7391" x2="517.8022" y2="666.8466">
			<stop  offset="0" style="stop-color:#3E76BB"/>
			<stop  offset="0.9672" style="stop-color:#06509E"/>
		</linearGradient>
		<path style="fill:url(#SVGID_00000013875399240725963160000011113837164211895706_);" d="M542.5,650
			c0.29,1.78,1.09,2.67,2.42,2.67h2.16l-2.24,9.84c-0.4,1.67-1.21,2.79-2.42,3.37c-0.92,0.4-2.45,0.6-4.58,0.6h-45.77
			c-2.36,0-3.54-0.95-3.54-2.85l0.17-1.38l2.16-9.58h2.33c0.81,0,1.51-0.25,2.12-0.74c0.6-0.49,1.05-1.08,1.34-1.77l17.44-37.31
			l0.17-1.55c0-0.69-0.23-1.27-0.69-1.73c-0.46-0.46-1.04-0.69-1.73-0.69l0.43-1.99h20.9c1.21,0,2.23,0.33,3.07,0.99
			c0.83,0.66,1.31,1.49,1.43,2.46L542.5,650z M519.1,641.79l-4.23,10.88h4.92L519.1,641.79z"/>
		
			<linearGradient id="SVGID_00000175317973429000356730000011991854465221679247_" gradientUnits="userSpaceOnUse" x1="610.62" y1="586.7391" x2="610.62" y2="666.8466">
			<stop  offset="0" style="stop-color:#3E76BB"/>
			<stop  offset="0.9672" style="stop-color:#06509E"/>
		</linearGradient>
		<path style="fill:url(#SVGID_00000175317973429000356730000011991854465221679247_);" d="M611.44,620.29l-9.41,40.41l-0.26,1.64
			c0,0.63,0.26,1.15,0.78,1.55c0.52,0.4,1.12,0.6,1.81,0.6l-0.52,1.99h-23.83c-0.98,0-1.71-0.27-2.2-0.82
			c-0.49-0.55-0.73-1.28-0.73-2.21c0-0.34,0.06-0.8,0.17-1.38l11.74-50.52c0.11-0.63-0.11-1.24-0.69-1.81
			c-0.58-0.57-1.21-0.86-1.9-0.86l0.52-1.99h53.97c2.19,0,3.28,1.12,3.28,3.37c0,0.46-0.03,0.8-0.09,1.04l-11.74,50.52
			c-0.12,0.57,0.14,1.16,0.78,1.77c0.63,0.6,1.26,0.91,1.9,0.91l-0.6,1.99h-23.4c-2.19,0-3.28-1.04-3.28-3.11
			c0-0.46,0.03-0.81,0.09-1.04l9.76-42.06H611.44z"/>
		
			<linearGradient id="SVGID_00000129190465797451651300000009005900808369839248_" gradientUnits="userSpaceOnUse" x1="672.9456" y1="586.7391" x2="672.9456" y2="666.8466">
			<stop  offset="0" style="stop-color:#3E76BB"/>
			<stop  offset="0.9672" style="stop-color:#06509E"/>
		</linearGradient>
		<path style="fill:url(#SVGID_00000129190465797451651300000009005900808369839248_);" d="M689.09,606.9c5.29,0,9.3,1.06,12,3.2
			c2.71,2.13,4.06,5.5,4.06,10.1c0,1.27-0.06,2.42-0.17,3.46c-0.11,1.04-0.37,2.33-0.78,3.88c-1.84,7.95-3.91,13.2-6.22,15.76
			c-2.3,2.56-6.07,3.84-11.31,3.84h-17.79l-3.19,13.56l-0.26,1.64c0,0.63,0.26,1.15,0.78,1.55c0.52,0.4,1.12,0.6,1.81,0.6
			l-0.52,1.99h-23.83c-0.98,0-1.71-0.27-2.2-0.82s-0.73-1.28-0.73-2.21c0-0.34,0.06-0.8,0.17-1.38l11.74-50.52
			c0.11-0.63-0.11-1.24-0.69-1.81c-0.58-0.57-1.21-0.86-1.9-0.86l0.52-1.99H689.09z M672.17,633.33h2.68c1.44,0,2.5-0.45,3.2-1.34
			c0.69-0.89,1.32-2.6,1.9-5.14c0.35-1.5,0.52-2.68,0.52-3.54c0-1.15-0.25-1.94-0.74-2.38c-0.49-0.43-1.22-0.65-2.2-0.65h-2.33
			L672.17,633.33z"/>
		
			<linearGradient id="SVGID_00000145016162534409317940000003976713639795959182_" gradientUnits="userSpaceOnUse" x1="732.1623" y1="586.7391" x2="732.1623" y2="666.8466">
			<stop  offset="0" style="stop-color:#3E76BB"/>
			<stop  offset="0.9672" style="stop-color:#06509E"/>
		</linearGradient>
		<path style="fill:url(#SVGID_00000145016162534409317940000003976713639795959182_);" d="M744.99,606.9
			c5.07,0,9.24,1.31,12.52,3.93c3.28,2.62,4.92,6.32,4.92,11.1c0,1.73-0.2,3.39-0.6,5.01l-5.18,21.94
			c-1.5,6.51-4.09,11.14-7.77,13.91c-3.22,2.48-7.66,3.71-13.3,3.71h-17.7c-5.41,0-9.43-1.23-12.05-3.67
			c-2.62-2.45-3.93-6.06-3.93-10.83c0-2.83,0.37-5.76,1.12-8.81l3.8-16.32c1.5-6.28,3.66-10.97,6.48-14.08
			c3.63-3.92,8.72-5.87,15.29-5.87H744.99z M726.33,648.01c-0.17,0.8-0.26,1.5-0.26,2.07c0,1.44,0.81,2.16,2.42,2.16
			c1.09,0,1.92-0.25,2.46-0.74c0.55-0.48,0.96-1.37,1.25-2.63l5.7-24.27c0.11-0.69,0.17-1.15,0.17-1.38c0-1.67-0.83-2.5-2.5-2.5
			c-1.84,0-3.08,1.15-3.72,3.45L726.33,648.01z"/>
		
			<linearGradient id="SVGID_00000101078506277455026310000000862533866426897084_" gradientUnits="userSpaceOnUse" x1="793.1465" y1="586.7391" x2="793.1465" y2="666.8466">
			<stop  offset="0" style="stop-color:#3E76BB"/>
			<stop  offset="0.9672" style="stop-color:#06509E"/>
		</linearGradient>
		<path style="fill:url(#SVGID_00000101078506277455026310000000862533866426897084_);" d="M793.97,620.29l-9.41,40.41l-0.26,1.64
			c0,0.63,0.26,1.15,0.78,1.55c0.52,0.4,1.12,0.6,1.81,0.6l-0.52,1.99h-23.83c-0.98,0-1.71-0.27-2.2-0.82
			c-0.49-0.55-0.74-1.28-0.74-2.21c0-0.34,0.06-0.8,0.17-1.38l11.74-50.52c0.11-0.63-0.11-1.24-0.69-1.81
			c-0.58-0.57-1.21-0.86-1.9-0.86l0.52-1.99h53.97c2.19,0,3.28,1.12,3.28,3.37c0,0.46-0.03,0.8-0.09,1.04l-11.75,50.52
			c-0.11,0.57,0.15,1.16,0.78,1.77c0.63,0.6,1.26,0.91,1.9,0.91l-0.6,1.99h-23.4c-2.19,0-3.28-1.04-3.28-3.11
			c0-0.46,0.03-0.81,0.09-1.04l9.76-42.06H793.97z"/>
		
			<linearGradient id="SVGID_00000151516931057623223310000006652330525906786957_" gradientUnits="userSpaceOnUse" x1="847.9156" y1="586.7391" x2="847.9156" y2="666.8466">
			<stop  offset="0" style="stop-color:#3E76BB"/>
			<stop  offset="0.9672" style="stop-color:#06509E"/>
		</linearGradient>
		<path style="fill:url(#SVGID_00000151516931057623223310000006652330525906786957_);" d="M875.68,606.9l-2.24,9.5
			c-0.4,1.61-1.19,2.73-2.38,3.37c-1.18,0.63-2.72,0.95-4.62,0.95h-12l-1.9,8.2h14.34l-1.64,7.26c-0.29,1.26-1.05,2.28-2.29,3.07
			c-1.24,0.78-2.63,1.16-4.19,1.16h-5.27c-2.36,0-3.86,1.3-4.49,3.88l-1.99,8.38H861c0.86,0,1.77-0.21,2.72-0.65
			c0.95-0.43,1.51-0.96,1.68-1.6h1.98l-3.11,13.13c-0.29,1.15-0.94,1.93-1.94,2.33c-1.01,0.4-2.29,0.6-3.84,0.6h-35.41
			c-0.98,0-1.71-0.27-2.2-0.82c-0.49-0.55-0.74-1.28-0.74-2.21c0-0.34,0.06-0.8,0.17-1.38l11.74-50.52
			c0.11-0.63-0.11-1.24-0.69-1.81c-0.58-0.57-1.21-0.86-1.9-0.86l0.52-1.99H875.68z"/>
		
			<linearGradient id="SVGID_00000005269088817813396980000005688946852141023109_" gradientUnits="userSpaceOnUse" x1="903.2439" y1="586.7391" x2="903.2439" y2="666.8466">
			<stop  offset="0" style="stop-color:#3E76BB"/>
			<stop  offset="0.9672" style="stop-color:#06509E"/>
		</linearGradient>
		<path style="fill:url(#SVGID_00000005269088817813396980000005688946852141023109_);" d="M919.39,606.9c5.3,0,9.3,1.06,12.01,3.2
			c2.71,2.13,4.06,5.5,4.06,10.1c0,1.27-0.06,2.42-0.17,3.46c-0.12,1.04-0.38,2.33-0.78,3.88c-1.84,7.95-3.91,13.2-6.22,15.76
			c-2.3,2.56-6.07,3.84-11.31,3.84h-17.79l-3.19,13.56l-0.26,1.64c0,0.63,0.26,1.15,0.78,1.55c0.52,0.4,1.12,0.6,1.81,0.6
			l-0.52,1.99h-23.83c-0.98,0-1.71-0.27-2.2-0.82c-0.49-0.55-0.74-1.28-0.74-2.21c0-0.34,0.06-0.8,0.17-1.38l11.74-50.52
			c0.11-0.63-0.11-1.24-0.69-1.81c-0.58-0.57-1.21-0.86-1.9-0.86l0.52-1.99H919.39z M902.47,633.33h2.68c1.44,0,2.51-0.45,3.19-1.34
			c0.69-0.89,1.32-2.6,1.9-5.14c0.35-1.5,0.52-2.68,0.52-3.54c0-1.15-0.25-1.94-0.74-2.38c-0.49-0.43-1.22-0.65-2.2-0.65h-2.33
			L902.47,633.33z"/>
		
			<linearGradient id="SVGID_00000075885213452384704090000012263748075963027593_" gradientUnits="userSpaceOnUse" x1="960.6044" y1="586.7391" x2="960.6044" y2="666.8466">
			<stop  offset="0" style="stop-color:#3E76BB"/>
			<stop  offset="0.9672" style="stop-color:#06509E"/>
		</linearGradient>
		<path style="fill:url(#SVGID_00000075885213452384704090000012263748075963027593_);" d="M979.17,606.9
			c0.92,0,1.81-0.19,2.68-0.56c0.87-0.38,1.41-0.91,1.64-1.6h1.99l-3.46,13.21c-0.57,1.84-2.27,2.76-5.09,2.76h-5.09l-9.67,41.11
			c-0.11,0.57,0.14,1.16,0.78,1.77c0.63,0.6,1.27,0.91,1.9,0.91l-0.6,1.99h-24.01c-1.84,0-2.76-0.92-2.76-2.76
			c0-0.23,0.06-0.69,0.17-1.38l9.76-41.62h-5.96c-0.92,0-1.68,0.21-2.29,0.65c-0.6,0.43-1.02,1-1.25,1.68h-2.16l3.45-13.82
			c0.23-0.81,0.69-1.4,1.38-1.77c0.69-0.38,1.79-0.56,3.28-0.56H979.17z"/>
		
			<linearGradient id="SVGID_00000029035449940496765950000001437529712623635077_" gradientUnits="userSpaceOnUse" x1="1015.1518" y1="586.7391" x2="1015.1518" y2="666.8466">
			<stop  offset="0" style="stop-color:#3E76BB"/>
			<stop  offset="0.9672" style="stop-color:#06509E"/>
		</linearGradient>
		<path style="fill:url(#SVGID_00000029035449940496765950000001437529712623635077_);" d="M1006.73,658.63
			c-0.69,0.92-1.12,1.52-1.3,1.81c-0.34,0.57-0.52,1.15-0.52,1.73c0,0.63,0.29,1.18,0.86,1.64c0.58,0.46,1.18,0.69,1.81,0.69
			l-0.43,1.99h-24.09c-1.9,0-2.85-0.92-2.85-2.76c0-0.29,0.06-0.78,0.17-1.47l11.83-50.69c0.11-0.57-0.14-1.16-0.78-1.77
			c-0.63-0.6-1.27-0.91-1.9-0.91l0.6-1.99h24.01c1.84,0,2.76,0.92,2.76,2.76c0,0.23-0.06,0.69-0.17,1.38l-5.18,22.28l11.31-17.1
			c0.52-0.75,1.01-1.47,1.47-2.16c0.46-0.69,0.81-1.53,1.04-2.51c0.11-0.57-0.11-1.16-0.69-1.77c-0.58-0.6-1.18-0.91-1.81-0.91
			l0.43-1.99h24.01c0.98,0,1.68,0.25,2.11,0.74c0.43,0.49,0.65,1.19,0.65,2.11l-0.17,1.3l-11.74,50.78
			c-0.12,0.57,0.14,1.16,0.78,1.77c0.63,0.6,1.27,0.91,1.9,0.91l-0.6,1.99h-24.01c-1.84,0-2.76-0.92-2.76-2.76
			c0-0.23,0.06-0.69,0.17-1.38l5.1-22.02L1006.73,658.63z"/>
	</g>
	<g>
		<path class="st138" d="M225.61,710.84l13.24-14.65L231,681.87h4.09l3.58,6.56c1.28,2.34,2.18,4.12,2.7,5.34
			c0.9-1.28,2.35-3.01,4.33-5.2l6.09-6.7h4.84l-13.41,14.97l7.59,14.01l-4.02-0.01l-4.49-8.49c-0.43-0.82-0.94-1.89-1.53-3.19
			c-0.63,0.88-1.47,1.9-2.51,3.06l-7.73,8.62H225.61L225.61,710.84z M267.45,708.23c-2.19,2.06-4.5,3.08-6.92,3.08
			c-1.8,0-3.29-0.55-4.45-1.66c-1.17-1.11-1.75-2.57-1.75-4.38c0-2.17,0.76-3.83,2.27-5.01c1.56-1.21,3.85-1.81,6.85-1.81l1.81-0.08
			c0.86,0,1.63-0.06,2.3-0.19c0.68-0.12,1.23-0.29,1.67-0.5c0.26-0.98,0.4-1.82,0.4-2.53c0-0.83-0.37-1.51-1.1-2.04
			c-0.74-0.53-1.81-0.8-3.23-0.8c-2.83,0-4.67,1.27-5.55,3.83l-3.46-0.32c1.43-4.3,4.49-6.44,9.15-6.44c2.25,0,4.07,0.5,5.47,1.51
			c1.4,1,2.1,2.31,2.1,3.95c0,1.12-0.15,2.42-0.47,3.89l-1.12,5.21c-0.18,0.9-0.31,1.66-0.4,2.27c-0.09,0.62-0.14,1.19-0.14,1.72
			c0,0.94,0.14,1.91,0.42,2.91h-3.46c-0.12-0.37-0.21-0.78-0.28-1.23C267.49,709.17,267.45,708.7,267.45,708.23L267.45,708.23z
			 M268.71,700.21c-0.81,0.31-1.92,0.54-3.31,0.69l-1.97,0.2c-1.11,0-2.08,0.14-2.91,0.42c-0.74,0.24-1.3,0.57-1.7,0.98
			c-0.73,0.73-1.1,1.6-1.1,2.61c0,0.99,0.34,1.81,1.01,2.46c0.67,0.65,1.59,0.98,2.75,0.98c1.64,0,3.13-0.6,4.47-1.8
			C267.3,705.55,268.22,703.37,268.71,700.21L268.71,700.21z M279.67,689.86h5.09l1.89,16.74l9.33-16.74h4.99l-4.29,20.99h-3.39
			l3.5-16.92l-9.42,16.92h-3.04l-1.99-17.57l-3.59,17.57h-3.39L279.67,689.86L279.67,689.86z M301.91,710.84l4.2-20.99h3.43
			l-0.7,3.45c2.13-2.62,4.34-3.93,6.62-3.93c1.32,0,2.4,0.33,3.21,0.99c0.78,0.61,1.32,1.6,1.63,2.94c0.99-1.29,2.07-2.27,3.21-2.93
			c1.15-0.67,2.34-1,3.58-1c1.65,0,2.9,0.4,3.75,1.19c0.85,0.8,1.28,1.99,1.28,3.57c0,0.69-0.15,1.75-0.44,3.18l-2.71,13.52h-3.42
			l2.76-13.88c0.12-0.58,0.2-1.07,0.26-1.46c0.06-0.4,0.1-0.72,0.1-0.97c0-0.74-0.2-1.29-0.59-1.66c-0.4-0.37-0.99-0.55-1.79-0.55
			c-1.16,0-2.3,0.39-3.41,1.17c-1.11,0.79-1.92,1.72-2.44,2.8c-0.45,1.03-0.88,2.48-1.28,4.37l-2.05,10.18h-3.42l2.84-14.17
			c0.2-1.01,0.3-1.7,0.3-2.05c0-0.72-0.22-1.28-0.65-1.68c-0.43-0.41-0.96-0.61-1.57-0.61c-0.58,0-1.16,0.1-1.71,0.3
			c-0.56,0.2-1.14,0.5-1.72,0.93c-1.12,0.8-1.96,1.8-2.53,3c-0.52,1.12-0.97,2.58-1.34,4.36l-1.99,9.92H301.91L301.91,710.84z
			 M358.31,689.86h3.46l-4.34,20.99h-3.44L358.31,689.86L358.31,689.86z M338.51,689.86h3.42l-1.72,8.11h3.65
			c2.32,0,3.97,0.18,4.96,0.53c0.99,0.36,1.77,1.01,2.35,1.95c0.58,0.94,0.87,1.99,0.87,3.15c0,0.7-0.1,1.38-0.28,2.04
			c-0.19,0.66-0.48,1.32-0.89,1.98c-0.75,1.27-1.7,2.12-2.85,2.56c-1.14,0.44-2.91,0.66-5.31,0.66h-8.55L338.51,689.86
			L338.51,689.86z M338.15,708h4.36c1.69,0,2.89-0.12,3.6-0.36c0.71-0.24,1.31-0.67,1.79-1.3c0.48-0.63,0.72-1.39,0.72-2.27
			c0-0.8-0.21-1.48-0.63-2.03c-0.43-0.55-0.91-0.88-1.47-1c-0.25-0.05-0.64-0.09-1.17-0.13c-0.52-0.04-1.14-0.06-1.85-0.06h-3.89
			L338.15,708L338.15,708z M366.98,689.86h3.39l-1.81,8.75h9.33l1.77-8.75h3.34l-4.23,20.99h-3.41l1.94-9.39h-9.29l-1.94,9.39h-3.38
			L366.98,689.86L366.98,689.86z M393.44,710.84l8.74-10.65l-5.02-10.33h3.78l1.7,3.73c0.73,1.66,1.3,3,1.7,4.01l5.79-7.74h4.18
			l-8.43,10.61l5.07,10.38l-3.79,0.01l-2-4.28c-0.25-0.55-0.48-1.07-0.7-1.56c-0.15-0.36-0.41-0.96-0.76-1.82l-5.98,7.65H393.44
			L393.44,710.84z M419.24,710.84l-3.31-20.99h3.31l1.74,11.56c0.18,1.16,0.41,3.22,0.7,6.19c0.65-1.52,1.49-3.22,2.51-5.13
			l6.72-12.62h3.62l-11.5,20.99l-2.38,8.3l-3.47,0.09L419.24,710.84L419.24,710.84z M436.63,689.86h3.36l-0.72,3.51
			c-0.46,2.21-0.68,3.77-0.68,4.68c0,0.91,0.34,1.6,1,2.08c0.67,0.47,1.67,0.71,3.01,0.71c1.61,0,3.11-0.3,4.5-0.88l2.07-10.1h3.4
			l-4.27,20.99h-3.42l1.65-8.04c-1.7,0.59-3.29,0.88-4.77,0.88c-2.03,0-3.63-0.45-4.81-1.36c-1.18-0.91-1.77-2.2-1.77-3.87
			c0-0.7,0.3-2.65,0.91-5.83L436.63,689.86L436.63,689.86z M464.65,702.15l0.72-3.58h10.44l-0.7,3.58H464.65L464.65,702.15z
			 M485.95,710.84l15.71-28.97h4.37l4.58,28.97h-3.6l-1.34-8.34h-11.21l-4.45,8.34L485.95,710.84L485.95,710.84z M496.04,699.52
			h9.17l-1.07-7.28c-0.24-1.75-0.43-3.1-0.54-4.03c-0.15-1.28-0.23-2.34-0.23-3.18c-0.65,1.7-1.57,3.67-2.76,5.91L496.04,699.52
			L496.04,699.52z M518.12,689.86h5.09l1.89,16.74l9.33-16.74h4.99l-4.29,20.99h-3.39l3.5-16.92l-9.42,16.92h-3.04l-1.99-17.57
			l-3.59,17.57h-3.39L518.12,689.86L518.12,689.86z M553.72,689.86h3.33l-1.87,8.97l0.26,0.03c0.72,0,1.41-0.32,2.06-0.96
			c0.65-0.64,1.48-1.83,2.49-3.57c1.1-1.88,2.09-3.1,2.99-3.64c0.9-0.55,1.82-0.82,2.78-0.82c0.67,0,1.37,0.12,2.12,0.36l-0.77,2.13
			c-0.46-0.18-0.83-0.28-1.14-0.28c-0.57,0-1.06,0.2-1.5,0.61c-0.43,0.41-0.97,1.26-1.64,2.52c-1.39,2.61-2.95,4.22-4.68,4.83
			c0.61,0.22,1.18,0.59,1.71,1.09c0.54,0.5,1.1,1.5,1.68,3.02l2.52,6.7h-3.53l-1.98-5.34c-0.6-1.66-1.16-2.78-1.66-3.37
			c-0.5-0.59-1.21-0.96-2.14-1.12l-2.05,9.82h-3.36l2.02-9.82c-0.35,0-0.68,0.05-0.98,0.16c-0.3,0.11-0.63,0.27-0.97,0.5
			c-0.61,0.41-1.64,1.58-3.06,3.54l-4.15,5.63l-4.15,0.01l5.31-7c1.55-2.04,3.22-3.31,4.99-3.81c-0.77-0.51-1.34-1.11-1.7-1.8
			c-0.37-0.7-0.72-1.98-1.06-3.85c-0.16-0.91-0.34-1.52-0.56-1.84c-0.22-0.32-0.54-0.47-0.97-0.47c-0.32,0-0.8,0.09-1.45,0.28
			l0.23-2.27c0.28-0.07,0.57-0.11,0.88-0.15c0.3-0.04,0.61-0.06,0.9-0.06c1.19,0,2.05,0.35,2.56,1.05c0.52,0.64,0.96,1.86,1.33,3.63
			c0.37,1.77,0.78,2.93,1.21,3.49c0.44,0.55,1.13,0.82,2.09,0.82L553.72,689.86L553.72,689.86z M580.76,707.05
			c-2.41,2.85-4.85,4.27-7.32,4.27c-1.51,0-2.76-0.45-3.76-1.34c-0.99-0.89-1.49-2.02-1.49-3.41c0-0.95,0.21-2.48,0.64-4.61
			l2.42-12.11h3.43l-2.69,13.42c-0.23,1.11-0.34,1.99-0.34,2.64c0,0.8,0.23,1.42,0.68,1.85c0.47,0.41,1.14,0.61,2.03,0.61
			c1.31,0,2.56-0.44,3.74-1.32c1.18-0.88,2.04-1.94,2.6-3.16c0.52-1.17,1-2.83,1.44-4.98l1.81-9.07h3.42l-4.2,20.99h-3.16
			L580.76,707.05L580.76,707.05z M594.32,689.86h15.13l-4.27,20.99h-3.4l3.74-18h-8.44l-2.59,12.51c-0.44,2.14-1.03,3.64-1.77,4.49
			c-0.74,0.85-1.78,1.27-3.09,1.27c-0.4,0-0.84-0.02-1.31-0.06c-0.48-0.04-1.04-0.11-1.7-0.22l0.63-2.96l1.44,0.05
			c0.86,0,1.43-0.22,1.69-0.65c0.26-0.43,0.65-1.83,1.18-4.18L594.32,689.86L594.32,689.86z M610.41,710.84l4.2-20.99h3.43
			l-0.7,3.45c2.13-2.62,4.34-3.93,6.62-3.93c1.32,0,2.4,0.33,3.22,0.99c0.78,0.61,1.32,1.6,1.63,2.94c0.99-1.29,2.07-2.27,3.21-2.93
			c1.15-0.67,2.34-1,3.58-1c1.65,0,2.9,0.4,3.75,1.19c0.85,0.8,1.28,1.99,1.28,3.57c0,0.69-0.15,1.75-0.44,3.18l-2.71,13.52h-3.42
			l2.76-13.88c0.12-0.58,0.2-1.07,0.26-1.46c0.06-0.4,0.1-0.72,0.1-0.97c0-0.74-0.2-1.29-0.59-1.66c-0.4-0.37-0.99-0.55-1.79-0.55
			c-1.16,0-2.3,0.39-3.41,1.17c-1.11,0.79-1.92,1.72-2.44,2.8c-0.45,1.03-0.88,2.48-1.28,4.37l-2.05,10.18h-3.42l2.84-14.17
			c0.2-1.01,0.3-1.7,0.3-2.05c0-0.72-0.22-1.28-0.65-1.68c-0.43-0.41-0.96-0.61-1.57-0.61c-0.58,0-1.16,0.1-1.71,0.3
			c-0.56,0.2-1.14,0.5-1.72,0.93c-1.12,0.8-1.96,1.8-2.53,3c-0.52,1.12-0.97,2.58-1.34,4.36l-1.99,9.92H610.41L610.41,710.84z
			 M666.81,689.86h3.46l-4.34,20.99h-3.44L666.81,689.86L666.81,689.86z M647.01,689.86h3.42l-1.72,8.11h3.65
			c2.32,0,3.97,0.18,4.96,0.53c0.99,0.36,1.77,1.01,2.35,1.95c0.58,0.94,0.87,1.99,0.87,3.15c0,0.7-0.1,1.38-0.28,2.04
			c-0.19,0.66-0.48,1.32-0.89,1.98c-0.76,1.27-1.7,2.12-2.85,2.56c-1.14,0.44-2.91,0.66-5.31,0.66h-8.55L647.01,689.86
			L647.01,689.86z M646.65,708h4.36c1.68,0,2.89-0.12,3.6-0.36c0.71-0.24,1.31-0.67,1.79-1.3c0.48-0.63,0.72-1.39,0.72-2.27
			c0-0.8-0.21-1.48-0.63-2.03c-0.43-0.55-0.91-0.88-1.47-1c-0.25-0.05-0.65-0.09-1.17-0.13c-0.52-0.04-1.14-0.06-1.85-0.06h-3.89
			L646.65,708L646.65,708z M675.47,689.86h3.39l-1.81,8.75h9.33l1.77-8.75h3.34l-4.23,20.99h-3.41l1.94-9.39h-9.29l-1.94,9.39h-3.38
			L675.47,689.86L675.47,689.86z M703.26,710.84l4.2-20.99h3.43l-0.7,3.45c2.13-2.62,4.34-3.93,6.62-3.93c1.32,0,2.4,0.33,3.22,0.99
			c0.78,0.61,1.32,1.6,1.63,2.94c0.99-1.29,2.07-2.27,3.22-2.93c1.15-0.67,2.34-1,3.58-1c1.65,0,2.9,0.4,3.75,1.19
			c0.85,0.8,1.28,1.99,1.28,3.57c0,0.69-0.15,1.75-0.44,3.18l-2.71,13.52h-3.42l2.76-13.88c0.12-0.58,0.2-1.07,0.26-1.46
			c0.06-0.4,0.1-0.72,0.1-0.97c0-0.74-0.2-1.29-0.59-1.66c-0.4-0.37-0.99-0.55-1.79-0.55c-1.16,0-2.3,0.39-3.41,1.17
			c-1.11,0.79-1.92,1.72-2.44,2.8c-0.45,1.03-0.88,2.48-1.28,4.37l-2.05,10.18h-3.42l2.84-14.17c0.2-1.01,0.3-1.7,0.3-2.05
			c0-0.72-0.22-1.28-0.65-1.68c-0.43-0.41-0.96-0.61-1.57-0.61c-0.58,0-1.16,0.1-1.71,0.3c-0.56,0.2-1.14,0.5-1.72,0.93
			c-1.12,0.8-1.96,1.8-2.53,3c-0.52,1.12-0.97,2.58-1.34,4.36l-1.99,9.92H703.26L703.26,710.84z M740.64,710.84l-3.31-20.99h3.31
			l1.74,11.56c0.18,1.16,0.41,3.22,0.7,6.19c0.65-1.52,1.49-3.22,2.51-5.13l6.72-12.62h3.62l-11.5,20.99l-2.38,8.3l-3.47,0.09
			L740.64,710.84L740.64,710.84z M760.66,689.86h15.13l-4.27,20.99h-3.4l3.74-18h-8.44l-2.59,12.51c-0.44,2.14-1.03,3.64-1.78,4.49
			c-0.74,0.85-1.77,1.27-3.09,1.27c-0.4,0-0.84-0.02-1.31-0.06c-0.48-0.04-1.04-0.11-1.7-0.22l0.63-2.96l1.44,0.05
			c0.87,0,1.43-0.22,1.69-0.65c0.26-0.43,0.65-1.83,1.18-4.18L760.66,689.86L760.66,689.86z M775.42,710.84l8.74-10.65l-5.02-10.33
			h3.78l1.7,3.73c0.73,1.66,1.3,3,1.7,4.01l5.79-7.74h4.18l-8.43,10.61l5.07,10.38l-3.79,0.01l-2-4.28
			c-0.25-0.55-0.48-1.07-0.7-1.56c-0.16-0.36-0.41-0.96-0.76-1.82l-5.98,7.65H775.42L775.42,710.84z M801.22,710.84l-3.31-20.99
			h3.31l1.74,11.56c0.18,1.16,0.41,3.22,0.7,6.19c0.65-1.52,1.49-3.22,2.51-5.13l6.72-12.62h3.62l-11.5,20.99l-2.38,8.3l-3.47,0.09
			L801.22,710.84L801.22,710.84z M820.59,710.84l-3.31-20.99h3.31l1.74,11.56c0.18,1.16,0.41,3.22,0.7,6.19
			c0.65-1.52,1.49-3.22,2.51-5.13l6.72-12.62h3.62l-11.5,20.99l-2.38,8.3l-3.47,0.09L820.59,710.84L820.59,710.84z M833.26,718.88
			l5.8-29.03h3.16l-0.59,2.92c2.01-2.27,4.05-3.4,6.11-3.4c1.89,0,3.47,0.73,4.74,2.21c1.27,1.46,1.9,3.56,1.9,6.25
			c0,3.69-0.99,6.86-2.97,9.5c-1.98,2.65-4.27,3.97-6.88,3.97c-2.39,0-4.25-1.27-5.59-3.83l-2.26,11.4H833.26L833.26,718.88z
			 M840,702.97c0,1.81,0.43,3.16,1.28,4.06c0.86,0.9,1.9,1.36,3.14,1.36c1.98,0,3.57-1.18,4.77-3.53c1.19-2.36,1.79-4.74,1.79-7.14
			c0-1.42-0.36-2.68-1.08-3.79c-0.72-1.11-1.77-1.66-3.16-1.66c-1.93,0-3.54,1.13-4.82,3.41C840.64,697.94,840,700.38,840,702.97
			L840,702.97z"/>
	</g>
</g>
</svg>
