<?xml version="1.0" encoding="utf-8"?>
<!-- Generator: Adobe Illustrator 26.5.0, SVG Export Plug-In . SVG Version: 6.00 Build 0)  -->
<svg version="1.1" id="Layer_1" xmlns="http://www.w3.org/2000/svg" xmlns:xlink="http://www.w3.org/1999/xlink" x="0px" y="0px"
	 viewBox="0 0 1080 1080" style="enable-background:new 0 0 1080 1080;" xml:space="preserve">
<style type="text/css">
	.st0{fill-rule:evenodd;clip-rule:evenodd;}
	.st1{fill:#ED1C24;}
	.st2{fill:#E1251B;}
	.st3{fill-rule:evenodd;clip-rule:evenodd;fill:#16397B;}
	.st4{fill:#EE2745;}
	
		.st5{clip-path:url(#SVGID_00000099637690353725838200000013046236169152344234_);fill:url(#SVGID_00000050635585099060476090000016327130394360160925_);}
	
		.st6{clip-path:url(#SVGID_00000085227887595877419970000017532575208002619293_);fill:url(#SVGID_00000157267762774781411360000001587640112808365455_);}
	
		.st7{clip-path:url(#SVGID_00000074439104848290121080000016528452725735808176_);fill:url(#SVGID_00000178901873097217466270000015654805279274806428_);}
	
		.st8{clip-path:url(#SVGID_00000069399575555105520770000009005589419591139498_);fill:url(#SVGID_00000154392122202288671100000012941547018991933598_);}
	.st9{fill:#424243;}
	
		.st10{clip-path:url(#SVGID_00000030468931777481559760000005918610803937945003_);fill:url(#SVGID_00000093167940689018484800000011741818259035148425_);}
	.st11{fill:#FFFFFF;}
	
		.st12{clip-path:url(#SVGID_00000161629606979886855770000015574987106099711634_);fill:url(#SVGID_00000064313260887621211420000005132963611257532854_);}
	
		.st13{clip-path:url(#SVGID_00000167381351856093249820000013726872862023267216_);fill:url(#SVGID_00000105415094356840662680000000583955187230240169_);}
	
		.st14{clip-path:url(#SVGID_00000111187453307616513290000018143965405482464150_);fill:url(#SVGID_00000168101553821916434390000007841872931142271362_);}
	
		.st15{clip-path:url(#SVGID_00000130611441692012237040000005658512490777080451_);fill:url(#SVGID_00000060748569577324676130000012978350325980074680_);}
	
		.st16{clip-path:url(#SVGID_00000152961423109782790950000002310341260018238116_);fill:url(#SVGID_00000132060344703215140290000007205010741816949182_);}
	
		.st17{clip-path:url(#SVGID_00000001655525929080636790000008006386132726028947_);fill:url(#SVGID_00000101797730583562210350000004485788789259170719_);}
	
		.st18{clip-path:url(#SVGID_00000177456203713303792440000009341299068408204675_);fill:url(#SVGID_00000108289226330688516440000011512509416578177165_);}
	.st19{fill-rule:evenodd;clip-rule:evenodd;fill:#C8202F;}
	.st20{fill-rule:evenodd;clip-rule:evenodd;fill:#FFFFFF;}
	.st21{fill-rule:evenodd;clip-rule:evenodd;fill:#F98238;}
	.st22{filter:url(#Adobe_OpacityMaskFilter);}
	.st23{fill:url(#SVGID_00000090978865257271869480000010292913562192884352_);}
	.st24{mask:url(#SVGID_00000183235552819092565400000009523634282233827508_);fill-rule:evenodd;clip-rule:evenodd;fill:#ED1C24;}
	.st25{fill-rule:evenodd;clip-rule:evenodd;fill:#F5333F;}
	.st26{fill-rule:evenodd;clip-rule:evenodd;fill:#ED1C24;}
	.st27{fill-rule:evenodd;clip-rule:evenodd;fill:#F9A46E;}
	.st28{fill-rule:evenodd;clip-rule:evenodd;fill:#F47B26;}
	.st29{fill-rule:evenodd;clip-rule:evenodd;fill:#EB5433;}
	.st30{fill:#1A3282;}
	.st31{fill-rule:evenodd;clip-rule:evenodd;fill:#1A3282;}
	.st32{fill-rule:evenodd;clip-rule:evenodd;fill:#9D9FA2;}
	.st33{fill-rule:evenodd;clip-rule:evenodd;fill:#000303;}
	.st34{fill:#64003D;}
	.st35{fill:#536270;}
	.st36{fill-rule:evenodd;clip-rule:evenodd;fill:#64003D;}
	.st37{fill-rule:evenodd;clip-rule:evenodd;fill:#536270;}
	.st38{fill-rule:evenodd;clip-rule:evenodd;fill:#1A3382;}
	.st39{fill-rule:evenodd;clip-rule:evenodd;fill:#29387E;}
	.st40{fill-rule:evenodd;clip-rule:evenodd;fill:#F37021;}
	.st41{fill-rule:evenodd;clip-rule:evenodd;fill:#005C32;}
	.st42{fill-rule:evenodd;clip-rule:evenodd;fill:#D2AB67;}
	
		.st43{clip-path:url(#SVGID_00000064313890173018709680000006050646518782062473_);fill:url(#SVGID_00000071526762804373149480000006940353351020734364_);}
	
		.st44{clip-path:url(#SVGID_00000139292420764590804870000002075610278172827570_);fill:url(#SVGID_00000150814015131953873050000016246544608934678152_);}
	
		.st45{clip-path:url(#SVGID_00000119795948811796500560000004891740742172838036_);fill:url(#SVGID_00000059311184946149824400000013486594699554681014_);}
	.st46{fill-rule:evenodd;clip-rule:evenodd;fill:#00AEEF;}
	.st47{fill-rule:evenodd;clip-rule:evenodd;fill:#EC008C;}
	.st48{fill-rule:evenodd;clip-rule:evenodd;fill:#FFF200;}
	.st49{fill:#A7AAAC;}
	.st50{fill-rule:evenodd;clip-rule:evenodd;fill:#5C5B5B;}
	.st51{fill:#9D9D9F;}
	.st52{fill:#F04D23;}
	.st53{fill-rule:evenodd;clip-rule:evenodd;fill:#2E3192;}
	.st54{fill-rule:evenodd;clip-rule:evenodd;fill:#C4312D;}
	.st55{fill:#552715;}
	.st56{fill:#010101;}
	.st57{fill:#E31E2E;}
	.st58{fill:url(#SVGID_00000067201428564023083820000014530349031902964372_);}
	.st59{fill:url(#SVGID_00000004547421227107360190000017496050599003989173_);}
	.st60{clip-path:url(#SVGID_00000183968150165547311050000015638924901694728855_);}
	.st61{clip-path:url(#SVGID_00000140005069102380140230000015111694430514181782_);}
	.st62{clip-path:url(#SVGID_00000052068044483047393670000008995576116609075850_);}
	.st63{clip-path:url(#SVGID_00000071542603800564872180000011140178575371714946_);}
	.st64{clip-path:url(#SVGID_00000006673629595618168850000010286966316221288592_);}
	.st65{clip-path:url(#SVGID_00000134943438530150316760000005071212301142656391_);}
	.st66{clip-path:url(#SVGID_00000057112257920803886800000000024281473323290271_);}
	.st67{clip-path:url(#SVGID_00000067925423524803414710000012108811264295318968_);}
	.st68{clip-path:url(#SVGID_00000115504141911446210320000018290200753349939859_);}
	.st69{clip-path:url(#SVGID_00000175306713293608588970000010387475130405718660_);}
	.st70{clip-path:url(#SVGID_00000121983893934152191240000006970967518284230300_);}
	.st71{fill:#2650A1;}
	.st72{fill:url(#SVGID_00000132785086019940929180000017244762465419622531_);}
	.st73{fill:#FEFEFE;}
	.st74{fill:#FDFDFD;}
	.st75{fill:#FCFCFC;}
	.st76{fill:#FBFBFB;}
	.st77{fill:#FAFAFA;}
	.st78{fill:#F9F9F9;}
	.st79{fill:#F8F8F8;}
	.st80{fill:#F7F7F7;}
	.st81{fill:#F6F6F6;}
	.st82{fill:#F5F5F5;}
	.st83{fill:#F4F4F4;}
	.st84{fill:#F3F3F3;}
	.st85{fill:#F2F2F2;}
	.st86{fill:#F1F1F1;}
	.st87{fill:#F0F0F0;}
	.st88{fill:#EFEFEF;}
	.st89{fill:#EEEEEE;}
	.st90{fill:#EDEDED;}
	.st91{fill:#ECECEC;}
	.st92{fill:#EBEBEB;}
	.st93{fill:#EAEAEA;}
	.st94{fill:#E9E9E9;}
	.st95{fill:#E8E8E8;}
	.st96{fill:#E7E7E7;}
	.st97{fill:#E6E6E6;}
	.st98{fill:#E5E5E5;}
	.st99{fill:#E4E4E4;}
	.st100{fill:#E3E3E3;}
	.st101{fill:#E2E2E2;}
	.st102{fill:#E1E1E1;}
	.st103{fill:#E0E0E0;}
	.st104{fill:#DFDFDF;}
	.st105{fill:#DEDEDE;}
	.st106{fill:#DDDDDD;}
	.st107{fill:#DCDCDC;}
	.st108{fill:#DBDBDB;}
	.st109{fill:#DADADA;}
	.st110{fill:#D9D9D9;}
	.st111{fill:#D92231;}
	.st112{fill:url(#SVGID_00000092436110378408336710000006357595169469857422_);}
	.st113{fill:url(#SVGID_00000089572015750032592030000003828058120787820172_);}
	.st114{opacity:0.8;}
	.st115{fill:url(#SVGID_00000003101776890982796560000011343815571362254984_);}
	.st116{fill:url(#SVGID_00000078012573925969152660000002969160605998148015_);}
	.st117{fill-rule:evenodd;clip-rule:evenodd;fill:#010101;}
	.st118{fill:#80A845;}
	.st119{fill-rule:evenodd;clip-rule:evenodd;fill:#80A845;}
	.st120{fill:url(#SVGID_00000181797143521909516930000011775833392634195882_);}
	.st121{fill-rule:evenodd;clip-rule:evenodd;fill:#04984A;}
	.st122{fill-rule:evenodd;clip-rule:evenodd;fill:url(#SVGID_00000119833844148414917750000007059959457840865420_);}
	.st123{fill:url(#SVGID_00000088816074120456771250000015706162538906958997_);}
	.st124{fill:url(#SVGID_00000062151253171846890270000006562874984937963155_);}
	.st125{fill:url(#SVGID_00000074406625144384399450000008526472100396002947_);}
	.st126{fill:url(#SVGID_00000022532843996617372200000018441647380473564572_);}
	.st127{fill:url(#SVGID_00000020359442510975285980000016944499111127701403_);}
	.st128{fill:url(#SVGID_00000041289059643857849950000001068920218454441643_);}
	.st129{fill:url(#SVGID_00000008118759670642933130000005037343306759772836_);}
	.st130{fill:url(#SVGID_00000057841397443510526160000004548004142538385800_);}
	.st131{fill:url(#SVGID_00000098900440347370521830000007004436217499959724_);}
	.st132{fill:url(#SVGID_00000055701439894413164430000001608367231161564324_);}
	.st133{fill:url(#SVGID_00000147182530963140897390000014056071867354108841_);}
	.st134{fill:url(#SVGID_00000163042507934826362540000011278671819717476280_);}
	.st135{fill:url(#SVGID_00000089551261989684135220000016435246340063782841_);}
	.st136{fill:url(#SVGID_00000048496824953686694220000016450876092339113357_);}
	.st137{fill-rule:evenodd;clip-rule:evenodd;fill:url(#SVGID_00000071560971087444228130000006460563059213494685_);}
	.st138{fill:#0A529D;}
	.st139{fill:url(#SVGID_00000134959468100017226610000005234679723440049066_);}
	.st140{fill:url(#SVGID_00000151525700060450958330000018057278138731382402_);}
	.st141{fill:url(#SVGID_00000182506849636838610180000007799454996851286684_);}
	.st142{fill:url(#SVGID_00000041267384026010267380000010900214132219949758_);}
	.st143{fill:url(#SVGID_00000143601030341036162550000006692138743298936995_);}
	.st144{fill:url(#SVGID_00000153682546374655860620000004067605471166424736_);}
	.st145{fill:url(#SVGID_00000044891406388531999300000010118183729029940610_);}
	.st146{fill:url(#SVGID_00000006673199173263179900000002217569559152275599_);}
	.st147{fill:url(#SVGID_00000066498077471430226820000014092224907615123597_);}
	.st148{fill:url(#SVGID_00000028305756751507028190000005013020167619244217_);}
	.st149{fill:url(#SVGID_00000080207579259176852610000006690511882721964445_);}
	.st150{fill:url(#SVGID_00000011011840047196477870000006044430031634309818_);}
	.st151{fill-rule:evenodd;clip-rule:evenodd;fill:url(#SVGID_00000142154660201050793620000008822676615867116176_);}
	.st152{fill:url(#SVGID_00000100363523731250382820000013540831488088620197_);}
	.st153{fill:url(#SVGID_00000078036449378467615220000002738290817574336667_);}
	.st154{fill:url(#SVGID_00000042714556525393068910000014364131116934197673_);}
	.st155{fill:url(#SVGID_00000008862476659974794980000013711178127841618352_);}
	.st156{fill:url(#SVGID_00000152963322997472734210000014282542757488991909_);}
	.st157{fill:url(#SVGID_00000114787389586091653790000004379765447003944322_);}
	.st158{fill:url(#SVGID_00000152250008278561765930000001967018592041464982_);}
	.st159{fill:url(#SVGID_00000100352102170806849670000001337966800837555616_);}
	.st160{fill:url(#SVGID_00000176738528941491325340000010802313408411428750_);}
	.st161{fill:url(#SVGID_00000086677130431909234710000017356494382803474354_);}
	.st162{fill:url(#SVGID_00000004534928753997918350000012556763589139052454_);}
	.st163{fill:url(#SVGID_00000093861143491458651660000003110197262275270273_);}
	.st164{fill:url(#SVGID_00000054949395112970100700000013420815643625447318_);}
	.st165{fill:url(#SVGID_00000075149060249063810670000000416945104685450409_);}
	.st166{fill:url(#SVGID_00000123421633851523028730000013205919384069748622_);}
	.st167{fill:url(#SVGID_00000128461135817685202200000005026049478660252590_);}
	.st168{fill:url(#SVGID_00000132791995235603097740000016873565456865569439_);}
	.st169{fill-rule:evenodd;clip-rule:evenodd;fill:url(#SVGID_00000128471501511047619740000012877688806138914985_);}
	.st170{fill:url(#SVGID_00000003105748641412466320000001929089230458946733_);}
	.st171{fill:url(#SVGID_00000006698244216229104590000014408788969758828472_);}
	.st172{fill:url(#SVGID_00000181786076062542093000000009384939924108674445_);}
	.st173{fill:url(#SVGID_00000170237402496413742510000008198664221913768576_);}
	.st174{fill:url(#SVGID_00000000930362071686455590000016511797764634412436_);}
	.st175{fill:url(#SVGID_00000078046374463920509890000004426368541617450651_);}
	.st176{fill:url(#SVGID_00000129180454382355721720000002873944374801949067_);}
	.st177{fill:url(#SVGID_00000132805083511213927930000000263085070231022001_);}
	.st178{fill:url(#SVGID_00000059274799480568825880000015078748385245669039_);}
	.st179{fill:url(#SVGID_00000060716497415388543230000015504091109245921153_);}
	.st180{fill:url(#SVGID_00000148622292425485025060000001830387503818288529_);}
	.st181{fill:url(#SVGID_00000182524169548601601970000000686107332588549282_);}
	.st182{fill:url(#SVGID_00000170279516107999194260000013420370112981666223_);}
	.st183{fill:url(#SVGID_00000009566153190256344060000016705824863697589183_);}
	.st184{fill-rule:evenodd;clip-rule:evenodd;fill:url(#SVGID_00000106105352032600584770000000138104136681221284_);}
	.st185{fill:url(#SVGID_00000105426590629878731970000001993101112474665659_);}
	.st186{fill:url(#SVGID_00000052801952345218082810000013327944366229539985_);}
	.st187{fill:url(#SVGID_00000152222350291463962590000003495795977395384479_);}
	.st188{fill:url(#SVGID_00000066511744675016517900000004155026530392056976_);}
	.st189{fill:url(#SVGID_00000051348445432587808050000008871687479458180498_);}
	.st190{fill:url(#SVGID_00000171717490587469648850000015503199948149689771_);}
	.st191{fill:url(#SVGID_00000015319835695979345750000012849425203990571168_);}
	.st192{fill:url(#SVGID_00000074429314668539097440000000195490770507237248_);}
	.st193{fill:url(#SVGID_00000021117254707790488700000017655411067979850901_);}
	.st194{fill:url(#SVGID_00000034769990415758358340000004528943971192952974_);}
	.st195{fill:url(#SVGID_00000091719050452632468390000015167705229444054712_);}
	.st196{fill:url(#SVGID_00000148641178190795017830000017566243224949206939_);}
	.st197{fill:url(#SVGID_00000006674049675612118950000003465852176359709620_);}
	.st198{fill:url(#SVGID_00000036972991144584663210000012199844613573699740_);}
	.st199{fill:url(#SVGID_00000132808384763422678600000018191955243913534131_);}
	.st200{fill:url(#SVGID_00000091726745076449243240000009675103479995982502_);}
	.st201{fill:url(#SVGID_00000006674563202000786480000010607663792568462989_);}
	.st202{fill:url(#SVGID_00000057857447673694825280000006970966764533880975_);}
	.st203{fill:url(#SVGID_00000044159167611854634110000003005238407446522540_);}
	.st204{fill-rule:evenodd;clip-rule:evenodd;fill:url(#SVGID_00000036244035800198709060000010469836932675586200_);}
	.st205{fill:url(#SVGID_00000126285607061364251950000014136180979229117062_);}
	.st206{fill:url(#SVGID_00000018208243112810208100000013137232829954507692_);}
	.st207{fill:url(#SVGID_00000037679095738848851840000013610616003731133607_);}
	.st208{fill:url(#SVGID_00000054229540416597581790000012326224060303837315_);}
	.st209{fill:url(#SVGID_00000067950861946411919590000017327055068355872953_);}
	.st210{fill:url(#SVGID_00000000202319035878274000000015155231351083692439_);}
	.st211{fill:url(#SVGID_00000019662130857046396660000013824638153326202290_);}
	.st212{fill:url(#SVGID_00000170249137768470110550000005669772273721415302_);}
	.st213{fill:url(#SVGID_00000148661472601664692220000001358594297671529907_);}
	.st214{fill:url(#SVGID_00000102517110262533122740000001565423712074348475_);}
	.st215{fill:url(#SVGID_00000088104113892111842360000007346296063695746986_);}
	.st216{fill:url(#SVGID_00000158000310028363671750000004700092638265835175_);}
	.st217{fill:url(#SVGID_00000127015486105989468250000016644098703055238844_);}
	.st218{fill:url(#SVGID_00000087406872304141268360000000329584277943614109_);}
	.st219{fill:url(#SVGID_00000180340478996061504420000000830030859666818481_);}
	.st220{fill:url(#SVGID_00000084499616859001341430000000007522371459920566_);}
	.st221{fill-rule:evenodd;clip-rule:evenodd;fill:url(#SVGID_00000035493685109095531230000014625916989973879987_);}
	.st222{fill:url(#SVGID_00000034795355902624321430000000124884592061876872_);}
	.st223{fill:url(#SVGID_00000055668738302438368210000001065342155346892709_);}
	.st224{fill:url(#SVGID_00000065776660871503626130000009316570716279435688_);}
	.st225{fill:url(#SVGID_00000099648294303009387690000010752992115110727306_);}
	.st226{fill:url(#SVGID_00000109709481838463905260000010258566757977430198_);}
	.st227{fill:url(#SVGID_00000106868527394391094730000009941276594487120822_);}
	.st228{fill:url(#SVGID_00000178165000969312287540000001846375064847743648_);}
	.st229{fill:url(#SVGID_00000033363526719717347820000011916703073284257467_);}
	.st230{fill:url(#SVGID_00000154403439197338573220000009618450125731921588_);}
	.st231{fill:url(#SVGID_00000170247839935913366400000005656051966774602651_);}
	.st232{fill:url(#SVGID_00000136392479620115053650000001860975294472709040_);}
	.st233{fill:url(#SVGID_00000091727079929674359190000003341817252576633527_);}
	.st234{fill:url(#SVGID_00000147222207875301061820000013780729367535789187_);}
	.st235{fill:url(#SVGID_00000031923810990255909570000016602081870066891702_);}
	.st236{fill:url(#SVGID_00000120534859026623672190000012256451653923019925_);}
	.st237{fill-rule:evenodd;clip-rule:evenodd;fill:url(#SVGID_00000002352212112414869760000001055169019138529676_);}
	.st238{fill:url(#SVGID_00000107578808099968824000000017852649097007020960_);}
	.st239{fill:url(#SVGID_00000183243971063674629660000006328050300847986597_);}
	.st240{fill:url(#SVGID_00000096055580970457852320000006085105838223341444_);}
	.st241{fill:url(#SVGID_00000100345539120597016180000005606600295504036996_);}
	.st242{fill:url(#SVGID_00000057141271455390107080000006295208946028864698_);}
	.st243{fill:url(#SVGID_00000116938714785118703160000017429757110052674741_);}
	.st244{fill:url(#SVGID_00000043449656305371971760000010884660548471885730_);}
	.st245{fill:url(#SVGID_00000057853260345728136520000007965943912064016529_);}
	.st246{fill:url(#SVGID_00000045618680455905922900000015171228638499900818_);}
	.st247{fill:url(#SVGID_00000163785514030816489510000005820781703314064557_);}
	.st248{fill:url(#SVGID_00000032624576929957187510000007909846632865825197_);}
	.st249{fill:url(#SVGID_00000060710768910181956360000001546720445498494346_);}
	.st250{fill:url(#SVGID_00000035517583194919228980000016497496968666756023_);}
	.st251{fill:url(#SVGID_00000120521663460348870410000018095728711024820873_);}
	.st252{fill:url(#SVGID_00000122715240383702193050000004331539642914618037_);}
	.st253{fill-rule:evenodd;clip-rule:evenodd;fill:url(#SVGID_00000030468291677353243540000012031154760109604279_);}
	.st254{fill:url(#SVGID_00000181062182424778180820000014376160939939777158_);}
	.st255{fill:url(#SVGID_00000041994326040183042280000003254135211156466573_);}
	.st256{fill:url(#SVGID_00000133490196401018199730000008467583654319363981_);}
	.st257{fill:url(#SVGID_00000139295789792565922660000011850946999232976295_);}
	.st258{fill:url(#SVGID_00000098198083943760205010000015301008439561148570_);}
	.st259{fill:url(#SVGID_00000143602724662641188770000013619542437985092493_);}
	.st260{fill:url(#SVGID_00000131351246898307758080000006390399828248004238_);}
	.st261{fill:url(#SVGID_00000166671532987014704430000000024754350020620951_);}
	.st262{fill:url(#SVGID_00000000920063371755535890000013412046756412244615_);}
	.st263{fill:url(#SVGID_00000139258562082288778520000008078499071739704243_);}
	.st264{fill:url(#SVGID_00000003105841244911172560000013374516399541642424_);}
	.st265{fill:url(#SVGID_00000150081016609976908030000010526711528330163346_);}
	.st266{fill:url(#SVGID_00000079470768695016274780000015224412422531144323_);}
	.st267{fill:url(#SVGID_00000150790177969141399920000005594693259988900250_);}
	.st268{fill:url(#SVGID_00000155137309009364962170000010453652154742197149_);}
	.st269{fill-rule:evenodd;clip-rule:evenodd;fill:url(#SVGID_00000117660914812467882460000014754027216590197641_);}
	.st270{fill:url(#SVGID_00000069358511705767230630000013860032016863100303_);}
	.st271{fill:url(#SVGID_00000076594415274318346590000008974723910164683915_);}
	.st272{fill:url(#SVGID_00000179648458984573566190000003781027462347548088_);}
	.st273{fill:url(#SVGID_00000112599527504288669230000006290984332089335230_);}
	.st274{fill:url(#SVGID_00000122704166611444468850000011810817261311571616_);}
	.st275{fill:url(#SVGID_00000066514539728825038690000000037259857812330154_);}
	.st276{fill:url(#SVGID_00000119828302002003376860000017306311711100158373_);}
	.st277{fill:url(#SVGID_00000010301141669044210450000005738970697205558916_);}
	.st278{fill:url(#SVGID_00000117639950354765763750000013070610034738874035_);}
	.st279{fill:url(#SVGID_00000091724423450331755120000004794188162125452220_);}
	.st280{fill:url(#SVGID_00000119808533834187964540000002084223411542476187_);}
	.st281{fill:url(#SVGID_00000133531044493979471370000006687941587003558568_);}
	.st282{fill:url(#SVGID_00000146493409444080827460000008203369361289612683_);}
	.st283{fill:url(#SVGID_00000057117670004087787520000006948496453335002507_);}
	.st284{fill:url(#SVGID_00000080926519936225915170000010408280958460652980_);}
	.st285{fill-rule:evenodd;clip-rule:evenodd;fill:url(#SVGID_00000055672558311281129280000003683304589243720874_);}
	.st286{fill:url(#SVGID_00000058591312043479511650000016326635307715187855_);}
	.st287{fill:url(#SVGID_00000046320581989792115130000008474363071259194043_);}
	.st288{fill:url(#SVGID_00000067196521020557197920000004678225948922626201_);}
	.st289{fill:url(#SVGID_00000037653311327211096110000001225439859234358963_);}
	.st290{fill:url(#SVGID_00000100346594347900525530000012610563282495661215_);}
	.st291{fill:url(#SVGID_00000125586007212273819250000010721841840253683596_);}
	.st292{fill:url(#SVGID_00000003100508574630903510000012345811236565350809_);}
	.st293{fill:url(#SVGID_00000047026387519815356500000002245675089692101552_);}
	.st294{fill:url(#SVGID_00000100367269426930723510000004576877186046754207_);}
	.st295{fill:url(#SVGID_00000183213241844949106380000008094474915867286970_);}
	.st296{fill:url(#SVGID_00000107574045135798269990000004387478571988957361_);}
	.st297{fill:url(#SVGID_00000008122608675375857790000002700260308787594384_);}
	.st298{fill:url(#SVGID_00000012440172546889682530000008433962169896467378_);}
	.st299{fill:url(#SVGID_00000137830902821661482260000017332940395814205115_);}
	.st300{fill:url(#SVGID_00000054231174087864100310000014476828520299774383_);}
	.st301{fill:url(#SVGID_00000107550441147719730860000001582620918931806366_);}
	.st302{fill:url(#SVGID_00000038408197781849886570000015020067361621515679_);}
	.st303{fill:url(#SVGID_00000143580295756424030970000011895339245554615936_);}
	.st304{fill-rule:evenodd;clip-rule:evenodd;fill:url(#SVGID_00000076604165111056410840000015431761913127853217_);}
	.st305{fill:url(#SVGID_00000040558030487325778160000001374876757278086068_);}
	.st306{fill:url(#SVGID_00000132059364509525490040000015645142020836219030_);}
	.st307{fill:url(#SVGID_00000101104770060159823330000011537879046788712891_);}
	.st308{fill:url(#SVGID_00000154400152098936085920000015759798966125538449_);}
	.st309{fill:url(#SVGID_00000154414602433286178510000007124675489700583823_);}
	.st310{fill:url(#SVGID_00000094610379395354179170000000513736511778950846_);}
	.st311{fill:url(#SVGID_00000095308157961769393360000006186040156233409460_);}
	.st312{fill:url(#SVGID_00000168088610507203255810000009912409414242072462_);}
	.st313{fill:url(#SVGID_00000087402295016010917230000007538029904901170582_);}
	.st314{fill:url(#SVGID_00000021835527234855961150000008732756516224940679_);}
	.st315{fill:url(#SVGID_00000049906082808461899330000004838713717240617890_);}
	.st316{fill:url(#SVGID_00000039113244899069883440000013921325567822383769_);}
	.st317{fill:url(#SVGID_00000164479894475435439580000017205161069127680417_);}
	.st318{fill:url(#SVGID_00000116194079176877066980000009655991459613809084_);}
	.st319{fill:url(#SVGID_00000135663180913243948910000009988673729755947426_);}
	.st320{fill:url(#SVGID_00000099654745242976560510000001670303205786460332_);}
	.st321{fill:url(#SVGID_00000051365760319839156120000014136238178017127585_);}
	.st322{fill:url(#SVGID_00000143611886886275291970000012637837704284492445_);}
	.st323{fill:url(#SVGID_00000066489415785705955780000003878997792017623719_);}
	.st324{fill:url(#SVGID_00000149380047552643392040000006568778203648216243_);}
	.st325{fill-rule:evenodd;clip-rule:evenodd;fill:url(#SVGID_00000091728847456483929820000004505367086689564809_);}
	.st326{fill:url(#SVGID_00000148636668072074102270000001634288744183172256_);}
	.st327{fill:url(#SVGID_00000016041715152774545990000016156618368655001492_);}
	.st328{fill:url(#SVGID_00000000940100196147782230000015393819658681618817_);}
	.st329{fill:url(#SVGID_00000069382912051489202960000009606514039426479494_);}
	.st330{fill:url(#SVGID_00000098927293182120146080000004616375210018243500_);}
	.st331{fill:url(#SVGID_00000033338410230235268370000009206373804573673638_);}
	.st332{fill:url(#SVGID_00000036953257877357723350000011323377988378655393_);}
	.st333{fill:url(#SVGID_00000119084961639663155320000018154387016501512077_);}
	.st334{fill:url(#SVGID_00000116950958664157473070000013553578353378360960_);}
	.st335{fill:url(#SVGID_00000163033426714598067880000000239195019256412800_);}
	.st336{fill:url(#SVGID_00000098221475978170631900000014235137173151687344_);}
	.st337{fill:url(#SVGID_00000143614141040686656500000005830077063048767920_);}
	.st338{fill:url(#SVGID_00000148648760336460575470000004947721279566169217_);}
	.st339{fill:url(#SVGID_00000005244327579293425230000014435499587327819932_);}
	.st340{fill:url(#SVGID_00000000914702344433601460000006298680265848433035_);}
	.st341{fill:url(#SVGID_00000056414872956869791980000016923691673703946648_);}
	.st342{fill-rule:evenodd;clip-rule:evenodd;fill:url(#SVGID_00000083788211606665281590000016448427545432876425_);}
	.st343{fill:url(#SVGID_00000029046620306597835910000002730094553312955268_);}
	.st344{fill:url(#SVGID_00000137844634047264240140000014135919910241298593_);}
	.st345{fill:url(#SVGID_00000018929721586561120260000007781366428384228488_);}
	.st346{fill:url(#SVGID_00000155832730389353343460000000842429932925145784_);}
	.st347{fill:url(#SVGID_00000183936332534441422900000016069952880200300728_);}
	.st348{fill:url(#SVGID_00000062173432750460652180000006381138811758602636_);}
	.st349{fill:url(#SVGID_00000180359264180420974290000003524048186490366898_);}
	.st350{fill:url(#SVGID_00000047751759948628899860000007801645979530032525_);}
	.st351{fill:url(#SVGID_00000008142122562626098450000001844477045429936554_);}
	.st352{fill:url(#SVGID_00000179646410583899128560000013634911696159705238_);}
	.st353{fill:url(#SVGID_00000103943424292001678580000000012713177988058266_);}
	.st354{fill:url(#SVGID_00000011005662810247325730000006378602632170115236_);}
	.st355{fill:url(#SVGID_00000031209291625509048570000000014026566613805729_);}
	.st356{fill:url(#SVGID_00000060741272291877080670000011508092345845824145_);}
	.st357{fill:url(#SVGID_00000059285852749032261770000000529298151093737876_);}
	.st358{fill:url(#SVGID_00000052098786379205962690000004222849537694965410_);}
	.st359{fill:url(#SVGID_00000048494590623620077420000014734982952525029806_);}
	.st360{fill:url(#SVGID_00000020394854735273733360000006409480046200486585_);}
	.st361{fill:url(#SVGID_00000031173641427273237400000014443921291343234956_);}
	.st362{fill:url(#SVGID_00000101803324769644797550000010592073395435479733_);}
	.st363{fill:#C1282D;}
	.st364{fill-rule:evenodd;clip-rule:evenodd;fill:url(#SVGID_00000114766311626592645360000008308716282884010938_);}
	.st365{fill:url(#SVGID_00000003802189309916150860000012298060901703033731_);}
	.st366{fill:url(#SVGID_00000173852909847198444930000018360056139093693072_);}
	.st367{fill:url(#SVGID_00000020385796225236939580000005697463656018430651_);}
	.st368{fill:url(#SVGID_00000056399282891223117340000012385686674754365104_);}
	.st369{fill:url(#SVGID_00000038403830196397712170000004178002598313273731_);}
	.st370{fill:url(#SVGID_00000145765872524397025700000016119813046751618696_);}
	.st371{fill:url(#SVGID_00000101812938117678859090000015506325368194184374_);}
	.st372{fill:url(#SVGID_00000148643559340756217830000016780429468391449011_);}
	.st373{fill:url(#SVGID_00000162325776495895116580000004267483125173199757_);}
	.st374{fill:url(#SVGID_00000080184317603740004190000008575866529446497159_);}
	.st375{fill:url(#SVGID_00000168817672076896800710000000529177738000707225_);}
	.st376{fill:url(#SVGID_00000114058239981784155150000013195366503273625755_);}
	.st377{fill:url(#SVGID_00000172436761913298203580000009907301145223398589_);}
	.st378{fill:url(#SVGID_00000169550605133668089800000002413396631471106729_);}
	.st379{fill:url(#SVGID_00000092427704941555927600000008918705161996734082_);}
	.st380{fill:url(#SVGID_00000065038105181517905890000013198098133757969085_);}
	.st381{fill-rule:evenodd;clip-rule:evenodd;fill:url(#SVGID_00000145046080999237162510000007669070709077830312_);}
	.st382{fill:url(#SVGID_00000167368237366253950620000017660055833081279884_);}
	.st383{fill:url(#SVGID_00000077283974828617334540000002119553352621128354_);}
	.st384{fill:url(#SVGID_00000074429840899473734350000018435660308498910115_);}
	.st385{fill:url(#SVGID_00000007410830521223736770000000698201526819499682_);}
	.st386{fill:url(#SVGID_00000011732742661324702690000009246136642481174427_);}
	.st387{fill:url(#SVGID_00000165232245283678381190000014714035348306468796_);}
	.st388{fill:url(#SVGID_00000002367474132389522390000006493517770948714373_);}
	.st389{fill:url(#SVGID_00000057865544784400423530000010842931383338074028_);}
	.st390{fill:url(#SVGID_00000111912846365053452310000015679867401909960836_);}
	.st391{fill:url(#SVGID_00000181047943395261832770000012018033026017538442_);}
	.st392{fill:url(#SVGID_00000083800879688375362010000001104588124441763493_);}
	.st393{fill:url(#SVGID_00000021800322082882819120000009524132182858155698_);}
	.st394{fill:url(#SVGID_00000039091924038928368510000000892554324506785155_);}
	.st395{fill:url(#SVGID_00000037672429464278608480000011445845330596533891_);}
	.st396{fill:url(#SVGID_00000127011013446042680540000009324143848241282185_);}
	.st397{fill:url(#SVGID_00000063628569937162490010000001383939562614739123_);}
	.st398{fill:url(#SVGID_00000099660573829160861290000017857549632286923682_);}
	.st399{fill:url(#SVGID_00000144332203857435359660000010708062902641246375_);}
	.st400{fill:url(#SVGID_00000005948134613355158830000006458078328397674419_);}
	.st401{fill:url(#SVGID_00000160875279677372101230000003422800294137680290_);}
</style>
<g>
	<g>
		<ellipse class="st11" cx="540" cy="479.19" rx="213.41" ry="105.89"/>
		<path class="st121" d="M742.77,512.17c-27.96,42.35-108.16,72.92-202.77,72.92c-95.14,0-175.69-30.9-203.23-73.64l2.09-0.65
			l9.82-3.07l69.33-21.76l-6.53,18.14c-0.55,1.53,1.01,3,2.51,2.35l61.21-26.43l-20.75,30.7c-1.14,1.66,0.82,3.72,2.54,2.64
			l61.43-37.94v23.03c0,1.63,1.96,2.48,3.16,1.34l6.3-5.97l9.92,23.03c0.62,1.44,2.64,1.53,3.39,0.13l16.08-30.7l74.65,37.75
			c1.7,0.88,3.46-1.11,2.38-2.71l-19.67-29.49c-0.46-0.65-0.42-1.53,0.07-2.15l8.48-11.52l9.89,12.3c0.88,1.08,2.54,0.88,3.16-0.36
			l5.22-10.6l45.19,33.38c1.04,0.75,2.54,0.26,2.9-0.98l4.7-15.46l48.35,15.63c0.03,0,0.07,0.03,0.07,0.03
			C742.7,512.13,742.74,512.13,742.77,512.17z"/>
		
			<linearGradient id="SVGID_00000151541844729438753210000005516145872658628996_" gradientUnits="userSpaceOnUse" x1="452.3745" y1="377.1576" x2="662.7156" y2="617.4286">
			<stop  offset="0" style="stop-color:#3E76BB"/>
			<stop  offset="1" style="stop-color:#06509E"/>
		</linearGradient>
		<path style="fill-rule:evenodd;clip-rule:evenodd;fill:url(#SVGID_00000151541844729438753210000005516145872658628996_);" d="
			M753.41,479.36c0,1.01-0.03,1.99-0.1,2.97c-0.03,0.85-0.1,1.66-0.2,2.48c-0.07,0.75-0.16,1.5-0.26,2.25
			c-0.07,0.52-0.16,1.04-0.26,1.57c-0.29,1.83-0.72,3.65-1.24,5.45c-0.16,0.65-0.36,1.31-0.55,1.93c-0.07,0.23-0.13,0.46-0.23,0.69
			c-0.26,0.82-0.55,1.63-0.85,2.41c-0.23,0.62-0.49,1.27-0.78,1.89c-0.07,0.2-0.16,0.42-0.26,0.62l-0.1-0.03l-0.07-0.03
			l-137.45-66.69c-0.85-0.39-1.86-0.13-2.38,0.65l-18.47,27.57l-49.2-60.46c-0.68-0.78-1.86-0.91-2.64-0.23l-68.35,57.29l-32.4-3.1
			c-0.52-0.07-1.04,0-1.53,0.23c-8.91,4.01-98.66,44.66-103.78,46.98c-0.23-0.42-0.42-0.82-0.59-1.24
			c-0.26-0.59-0.52-1.21-0.78-1.83c-0.52-1.24-1.01-2.51-1.4-3.75c-0.26-0.75-0.49-1.47-0.69-2.22c-0.75-2.41-1.27-4.86-1.63-7.34
			c-0.26-1.63-0.42-3.3-0.52-4.96c-0.07-1.01-0.1-2.06-0.1-3.1c0-58.56,95.53-106.07,213.41-106.07
			C657.88,373.3,753.41,420.8,753.41,479.36z"/>
		<g>
			<path class="st11" d="M421.6,535.64c0.29,0,0.57-0.06,0.84-0.18c0.27-0.12,0.44-0.29,0.52-0.5h0.63l-1.09,4.17
				c-0.18,0.58-0.72,0.87-1.61,0.87h-1.61l-3.05,12.96c-0.04,0.18,0.04,0.37,0.24,0.56c0.2,0.19,0.4,0.29,0.6,0.29l-0.19,0.63h-7.57
				c-0.58,0-0.87-0.29-0.87-0.87c0-0.07,0.02-0.22,0.05-0.43l3.08-13.13h-1.88c-0.29,0-0.53,0.07-0.72,0.2
				c-0.19,0.14-0.32,0.31-0.4,0.53h-0.68l1.09-4.36c0.07-0.25,0.22-0.44,0.43-0.56c0.22-0.12,0.56-0.18,1.04-0.18H421.6z"/>
			<path class="st11" d="M430.35,554.43c-0.47,0-0.82-0.08-1.05-0.23c-0.23-0.15-0.36-0.42-0.4-0.8l-0.25-2.78h-3.16l-1.12,2.23
				c-0.02,0.05-0.03,0.1-0.03,0.14c0,0.04-0.01,0.11-0.03,0.22c0,0.16,0.08,0.3,0.23,0.42c0.15,0.12,0.33,0.18,0.53,0.18l-0.14,0.63
				h-5.91c-0.76,0-1.14-0.3-1.14-0.9c0-0.16,0.04-0.34,0.14-0.52l8.01-15.52c0.05-0.11,0.08-0.25,0.08-0.41
				c0-0.2-0.09-0.39-0.26-0.56s-0.36-0.26-0.56-0.26l0.16-0.63h8.12c0.42,0,0.77,0.11,1.06,0.34c0.29,0.23,0.43,0.55,0.43,0.97
				l1.25,15.9c0,0.24,0.13,0.45,0.38,0.65c0.25,0.2,0.52,0.3,0.79,0.3l-0.14,0.63H430.35z M427.11,546.96h1.55l-0.22-3.05
				L427.11,546.96z"/>
			<path class="st11" d="M436.2,537.32c-0.04-0.33-0.16-0.58-0.37-0.78c-0.21-0.19-0.44-0.29-0.69-0.29l0.14-0.63h7.6
				c0.24,0,0.46,0.12,0.68,0.36c0.22,0.24,0.33,0.49,0.33,0.76l0.22,7.14l2.67-6.24l0.11-0.43c0-0.22-0.08-0.43-0.23-0.64
				c-0.15-0.21-0.33-0.31-0.53-0.31l0.14-0.63h5.53c0.33,0,0.59,0.12,0.8,0.37c0.21,0.25,0.31,0.5,0.31,0.78l-0.11,0.54l-8.01,17.1
				h-5.09c-0.42,0-0.76-0.09-1.04-0.27c-0.27-0.18-0.44-0.43-0.49-0.73L436.2,537.32z"/>
			<path class="st11" d="M459.43,554.43c-0.47,0-0.82-0.08-1.05-0.23c-0.23-0.15-0.36-0.42-0.4-0.8l-0.25-2.78h-3.16l-1.12,2.23
				c-0.02,0.05-0.03,0.1-0.03,0.14c0,0.04-0.01,0.11-0.03,0.22c0,0.16,0.08,0.3,0.23,0.42c0.15,0.12,0.33,0.18,0.53,0.18l-0.14,0.63
				h-5.91c-0.76,0-1.14-0.3-1.14-0.9c0-0.16,0.04-0.34,0.14-0.52l8.01-15.52c0.05-0.11,0.08-0.25,0.08-0.41
				c0-0.2-0.09-0.39-0.26-0.56c-0.17-0.17-0.36-0.26-0.56-0.26l0.16-0.63h8.12c0.42,0,0.77,0.11,1.06,0.34
				c0.29,0.23,0.43,0.55,0.43,0.97l1.25,15.9c0,0.24,0.13,0.45,0.38,0.65c0.25,0.2,0.52,0.3,0.79,0.3l-0.14,0.63H459.43z
				 M456.19,546.96h1.55l-0.22-3.05L456.19,546.96z"/>
			<path class="st11" d="M484.9,554.43h-4.96c-0.54,0-1-0.07-1.37-0.22c-0.37-0.14-0.61-0.41-0.72-0.79l-2.78-6.73l-1.58,6.07
				l-0.05,0.46c0,0.18,0.08,0.32,0.23,0.42c0.15,0.1,0.36,0.15,0.61,0.15l-0.14,0.63h-6.13c-0.31,0-0.54-0.09-0.69-0.26
				c-0.15-0.17-0.23-0.4-0.23-0.69c0-0.11,0.02-0.25,0.05-0.44l3.7-15.93c0.04-0.2-0.04-0.39-0.22-0.57
				c-0.18-0.18-0.38-0.27-0.6-0.27l0.16-0.63h6.92c0.22,0,0.47,0.11,0.75,0.31c0.28,0.21,0.47,0.43,0.56,0.67l2.94,6.86l1.31-5.88
				c0.04-0.11,0.06-0.28,0.06-0.52c0-0.22-0.09-0.41-0.27-0.57c-0.18-0.16-0.38-0.25-0.6-0.25l0.16-0.63h6.1
				c0.29,0,0.51,0.1,0.67,0.3c0.15,0.2,0.23,0.43,0.23,0.68l-0.08,0.73L484.9,554.43z"/>
			<path class="st11" d="M513.69,535.61c1.22,0,2.16,0.32,2.82,0.95c0.66,0.64,0.99,1.44,0.99,2.4c0,0.14-0.01,0.31-0.04,0.49
				c-0.03,0.18-0.05,0.32-0.07,0.41c-0.42,2-1.27,3.2-2.56,3.62c0.53,0.33,0.91,0.68,1.16,1.08c0.25,0.39,0.37,0.97,0.37,1.73
				c0,0.69-0.14,1.65-0.41,2.89c-0.47,2.05-1.2,3.46-2.18,4.22c-0.89,0.69-2.26,1.04-4.11,1.04h-10.81c-0.31,0-0.54-0.09-0.69-0.26
				c-0.15-0.17-0.23-0.4-0.23-0.69c0-0.11,0.02-0.25,0.05-0.44l3.7-15.93c0.04-0.2-0.04-0.39-0.22-0.57
				c-0.18-0.18-0.38-0.27-0.6-0.27l0.16-0.63L513.69,535.61z M507.29,550.2c0.49,0,0.83-0.11,1.02-0.34
				c0.19-0.23,0.38-0.74,0.56-1.54c0.13-0.51,0.19-0.93,0.19-1.25c0-0.62-0.34-0.93-1.01-0.93h-0.76l-0.93,4.06H507.29z
				 M509.22,542.53c0.31,0,0.53-0.09,0.65-0.26c0.13-0.17,0.25-0.49,0.35-0.94c0.11-0.45,0.16-0.78,0.16-0.98
				c0-0.47-0.26-0.71-0.79-0.71h-0.82l-0.65,2.89H509.22z"/>
			<path class="st11" d="M530.19,535.64c1.6,0,2.91,0.41,3.95,1.24c1.04,0.83,1.55,1.99,1.55,3.5c0,0.54-0.06,1.07-0.19,1.58
				l-1.63,6.92c-0.47,2.05-1.29,3.51-2.45,4.38c-1.02,0.78-2.42,1.17-4.19,1.17h-5.58c-1.71,0-2.97-0.39-3.8-1.16
				c-0.83-0.77-1.24-1.91-1.24-3.42c0-0.89,0.12-1.81,0.35-2.78l1.2-5.15c0.47-1.98,1.15-3.46,2.04-4.44
				c1.14-1.23,2.75-1.85,4.82-1.85H530.19z M524.31,548.6c-0.05,0.25-0.08,0.47-0.08,0.65c0,0.45,0.25,0.68,0.76,0.68
				c0.34,0,0.6-0.08,0.78-0.23s0.3-0.43,0.4-0.83l1.8-7.65c0.04-0.22,0.05-0.36,0.05-0.44c0-0.53-0.26-0.79-0.79-0.79
				c-0.58,0-0.97,0.36-1.17,1.09L524.31,548.6z"/>
			<path class="st11" d="M544.96,546.28l0.06-0.35c0-0.16-0.11-0.25-0.33-0.25c-0.22,0-0.33-0.09-0.33-0.27l0.05-0.35l0.79-3.24
				h6.02c0.43,0,0.78,0.13,1.02,0.39c0.25,0.26,0.37,0.56,0.37,0.89c0,0.42-0.04,0.76-0.11,1.04l-1.44,6.4
				c-0.33,1.45-0.83,2.46-1.5,3.04c-0.67,0.57-1.8,0.86-3.38,0.86h-6.59c-1.83,0-3.15-0.35-3.95-1.06
				c-0.71-0.64-1.06-1.61-1.06-2.91c0-0.83,0.15-1.85,0.43-3.05l1.5-6.56c0.38-1.71,1.12-3.02,2.21-3.95c1-0.85,2.14-1.28,3.43-1.28
				h11.14c-0.05,0.54-0.15,1.1-0.3,1.66c-0.15,0.56-0.3,1.03-0.48,1.39c-0.17,0.36-0.44,0.63-0.79,0.79
				c-0.35,0.16-0.76,0.25-1.21,0.25h-4.6c-0.51,0-0.9,0.12-1.19,0.37c-0.28,0.25-0.49,0.65-0.61,1.21l-1.77,7.62
				c-0.04,0.25-0.05,0.42-0.05,0.49c0,0.45,0.28,0.68,0.84,0.68c0.64,0,1.03-0.34,1.17-1.01L544.96,546.28z"/>
			<path class="st11" d="M565.85,535.64c1.83,0,3.17,0.47,4,1.42c0.74,0.85,1.12,2.11,1.12,3.76c0,0.64-0.06,1.35-0.18,2.14
				c-0.12,0.79-0.29,1.62-0.5,2.49c-0.85,3.61-1.69,6.01-2.52,7.2c-0.83,1.19-2.03,1.78-3.61,1.78h-12.14
				c-0.31,0-0.54-0.09-0.69-0.26c-0.15-0.17-0.23-0.4-0.23-0.69c0-0.11,0.02-0.25,0.06-0.44l3.7-15.93c0.04-0.2-0.04-0.39-0.22-0.57
				c-0.18-0.18-0.38-0.27-0.6-0.27l0.16-0.63H565.85z M560.51,549.93c0.38,0,0.67-0.11,0.87-0.33c0.2-0.22,0.36-0.59,0.49-1.12
				l1.58-6.78c0.07-0.31,0.11-0.6,0.11-0.87c0-0.56-0.33-0.84-0.98-0.84h-0.68l-2.31,9.94H560.51z"/>
			<path class="st11" d="M590.58,546.28l0.06-0.35c0-0.16-0.11-0.25-0.33-0.25c-0.22,0-0.33-0.09-0.33-0.27l0.05-0.35l0.79-3.24
				h6.02c0.43,0,0.78,0.13,1.02,0.39c0.25,0.26,0.37,0.56,0.37,0.89c0,0.42-0.04,0.76-0.11,1.04l-1.44,6.4
				c-0.33,1.45-0.83,2.46-1.5,3.04c-0.67,0.57-1.8,0.86-3.38,0.86h-6.59c-1.83,0-3.15-0.35-3.95-1.06
				c-0.71-0.64-1.06-1.61-1.06-2.91c0-0.83,0.14-1.85,0.43-3.05l1.5-6.56c0.38-1.71,1.12-3.02,2.21-3.95c1-0.85,2.14-1.28,3.43-1.28
				h11.14c-0.05,0.54-0.15,1.1-0.3,1.66s-0.3,1.03-0.48,1.39s-0.44,0.63-0.79,0.79c-0.35,0.16-0.76,0.25-1.21,0.25h-4.6
				c-0.51,0-0.9,0.12-1.19,0.37c-0.28,0.25-0.49,0.65-0.61,1.21l-1.77,7.62c-0.04,0.25-0.05,0.42-0.05,0.49
				c0,0.45,0.28,0.68,0.84,0.68c0.64,0,1.03-0.34,1.17-1.01L590.58,546.28z"/>
			<path class="st11" d="M613.67,549.25c0.13,0.22,0.3,0.4,0.52,0.56c0.22,0.15,0.46,0.23,0.73,0.23h0.79l-0.65,3.1
				c-0.18,0.85-0.84,1.28-1.96,1.28h-3.65c-0.47,0-0.88-0.12-1.23-0.37c-0.34-0.25-0.56-0.55-0.65-0.91l-1.58-5.56l-1.17,5.31
				l-0.03,0.27c0,0.18,0.08,0.33,0.23,0.45c0.15,0.12,0.35,0.18,0.58,0.18l-0.14,0.63h-7.54c-0.31,0-0.54-0.09-0.69-0.26
				c-0.15-0.17-0.23-0.4-0.23-0.69c0-0.11,0.02-0.25,0.06-0.44l3.7-15.93c0.04-0.2-0.04-0.39-0.22-0.57
				c-0.18-0.18-0.38-0.27-0.6-0.27l0.16-0.63h12.61c2.83,0,4.25,1.32,4.25,3.95c0,0.36-0.02,0.68-0.05,0.95
				c-0.09,0.47-0.15,0.83-0.19,1.09c-0.36,1.63-0.84,2.83-1.44,3.59c-0.6,0.76-1.45,1.27-2.56,1.53L613.67,549.25z M607.06,543.23
				h1.06c0.62,0,1.04-0.52,1.28-1.55c0.04-0.2,0.07-0.4,0.11-0.58c0.04-0.19,0.06-0.35,0.06-0.48c0-0.51-0.22-0.76-0.65-0.76h-1.06
				L607.06,543.23z"/>
			<path class="st11" d="M629.55,535.64c1.6,0,2.91,0.41,3.95,1.24c1.04,0.83,1.55,1.99,1.55,3.5c0,0.54-0.06,1.07-0.19,1.58
				l-1.63,6.92c-0.47,2.05-1.29,3.51-2.45,4.38c-1.02,0.78-2.42,1.17-4.19,1.17H621c-1.71,0-2.97-0.39-3.8-1.16
				c-0.83-0.77-1.24-1.91-1.24-3.42c0-0.89,0.12-1.81,0.35-2.78l1.2-5.15c0.47-1.98,1.15-3.46,2.04-4.44
				c1.14-1.23,2.75-1.85,4.82-1.85H629.55z M623.67,548.6c-0.05,0.25-0.08,0.47-0.08,0.65c0,0.45,0.25,0.68,0.76,0.68
				c0.34,0,0.6-0.08,0.78-0.23s0.3-0.43,0.4-0.83l1.8-7.65c0.04-0.22,0.05-0.36,0.05-0.44c0-0.53-0.26-0.79-0.79-0.79
				c-0.58,0-0.97,0.36-1.17,1.09L623.67,548.6z"/>
			<path class="st11" d="M642.06,548.76c-0.04,0.18-0.06,0.29-0.06,0.33c0,0.4,0.31,0.6,0.93,0.6c0.34,0,0.59-0.06,0.75-0.18
				c0.15-0.12,0.28-0.37,0.37-0.75l2.7-11.65c0.04-0.18-0.04-0.37-0.22-0.56c-0.18-0.19-0.37-0.29-0.57-0.29l0.14-0.63h7.57
				c0.31,0,0.53,0.08,0.67,0.23c0.14,0.15,0.2,0.38,0.2,0.67l-0.05,0.41l-2.75,11.93c-0.47,2.07-1.24,3.53-2.31,4.38
				c-0.96,0.76-2.31,1.14-4.06,1.14h-6.24c-1.65,0-2.86-0.37-3.64-1.1c-0.77-0.74-1.16-1.82-1.16-3.25c0-0.87,0.14-1.87,0.41-2.99
				l2.31-9.94c0.04-0.18-0.04-0.37-0.22-0.56s-0.37-0.29-0.57-0.29l0.14-0.63h7.57c0.31,0,0.53,0.08,0.67,0.23
				c0.14,0.15,0.2,0.38,0.2,0.67l-0.05,0.41L642.06,548.76z"/>
			<path class="st11" d="M667.03,535.64c1.67,0,2.93,0.34,3.79,1.01c0.85,0.67,1.28,1.73,1.28,3.19c0,0.4-0.02,0.76-0.06,1.09
				c-0.04,0.33-0.12,0.73-0.24,1.23c-0.58,2.5-1.23,4.16-1.96,4.97s-1.91,1.21-3.57,1.21h-5.61l-1.01,4.28l-0.08,0.52
				c0,0.2,0.08,0.36,0.25,0.49c0.16,0.13,0.36,0.19,0.57,0.19l-0.16,0.63h-7.52c-0.31,0-0.54-0.09-0.69-0.26
				c-0.15-0.17-0.23-0.4-0.23-0.69c0-0.11,0.02-0.25,0.05-0.44l3.7-15.93c0.04-0.2-0.04-0.39-0.22-0.57
				c-0.18-0.18-0.38-0.27-0.6-0.27l0.16-0.63H667.03z M661.69,543.97h0.84c0.45,0,0.79-0.14,1.01-0.42s0.42-0.82,0.6-1.62
				c0.11-0.47,0.16-0.84,0.16-1.12c0-0.36-0.08-0.61-0.23-0.75c-0.15-0.14-0.39-0.2-0.69-0.2h-0.74L661.69,543.97z"/>
		</g>
	</g>
	<g>
		<path class="st138" d="M237.99,698.65l12.72-14.07l-7.54-13.76h3.93l3.44,6.31c1.23,2.25,2.1,3.96,2.6,5.13
			c0.87-1.23,2.26-2.89,4.16-5l5.85-6.44h4.65l-12.88,14.38l7.29,13.46l-3.86-0.01l-4.32-8.15c-0.41-0.79-0.9-1.82-1.47-3.07
			c-0.61,0.85-1.41,1.83-2.41,2.94l-7.43,8.28H237.99L237.99,698.65z M278.18,696.14c-2.11,1.98-4.32,2.96-6.65,2.96
			c-1.73,0-3.16-0.53-4.28-1.59c-1.12-1.06-1.68-2.47-1.68-4.21c0-2.08,0.73-3.68,2.18-4.81c1.5-1.16,3.7-1.74,6.58-1.74l1.74-0.08
			c0.82,0,1.56-0.06,2.21-0.18c0.65-0.12,1.19-0.28,1.61-0.48c0.25-0.94,0.39-1.75,0.39-2.43c0-0.8-0.35-1.45-1.06-1.96
			c-0.71-0.51-1.74-0.77-3.1-0.77c-2.72,0-4.49,1.22-5.33,3.68l-3.32-0.3c1.38-4.13,4.31-6.19,8.79-6.19c2.16,0,3.91,0.48,5.25,1.45
			c1.35,0.96,2.02,2.22,2.02,3.8c0,1.08-0.15,2.32-0.45,3.74l-1.07,5.01c-0.17,0.86-0.3,1.59-0.38,2.18
			c-0.09,0.6-0.13,1.15-0.13,1.65c0,0.9,0.14,1.83,0.4,2.79h-3.32c-0.11-0.36-0.2-0.75-0.27-1.18
			C278.21,697.04,278.18,696.59,278.18,696.14L278.18,696.14z M279.39,688.43c-0.78,0.3-1.84,0.52-3.17,0.66l-1.89,0.19
			c-1.07,0-2,0.14-2.8,0.4c-0.71,0.23-1.25,0.54-1.64,0.95c-0.7,0.7-1.05,1.54-1.05,2.51c0,0.95,0.32,1.74,0.97,2.37
			c0.65,0.63,1.53,0.94,2.64,0.94c1.58,0,3.01-0.58,4.3-1.73C278.04,693.57,278.92,691.47,279.39,688.43L279.39,688.43z
			 M289.92,678.49h4.89l1.82,16.08l8.96-16.08h4.79l-4.12,20.16H303l3.36-16.25l-9.05,16.25h-2.92l-1.91-16.88l-3.45,16.88h-3.26
			L289.92,678.49L289.92,678.49z M311.28,698.65l4.03-20.16h3.29l-0.68,3.32c2.05-2.52,4.17-3.78,6.36-3.78
			c1.27,0,2.3,0.32,3.09,0.95c0.75,0.59,1.27,1.54,1.56,2.83c0.95-1.24,1.98-2.18,3.09-2.82c1.1-0.64,2.25-0.96,3.44-0.96
			c1.59,0,2.79,0.38,3.6,1.15c0.82,0.77,1.23,1.91,1.23,3.43c0,0.66-0.14,1.68-0.42,3.06l-2.6,12.99h-3.28l2.65-13.33
			c0.11-0.56,0.19-1.02,0.25-1.4c0.06-0.38,0.09-0.69,0.09-0.93c0-0.71-0.19-1.24-0.57-1.59c-0.38-0.36-0.96-0.53-1.72-0.53
			c-1.12,0-2.21,0.38-3.27,1.13c-1.07,0.76-1.85,1.65-2.34,2.69c-0.43,0.98-0.84,2.38-1.23,4.19l-1.97,9.78h-3.28l2.73-13.62
			c0.19-0.97,0.29-1.63,0.29-1.97c0-0.69-0.21-1.23-0.62-1.61c-0.41-0.4-0.92-0.59-1.51-0.59c-0.56,0-1.11,0.1-1.64,0.29
			c-0.54,0.19-1.09,0.48-1.65,0.89c-1.07,0.77-1.89,1.73-2.43,2.88c-0.5,1.08-0.93,2.48-1.29,4.19l-1.91,9.53H311.28L311.28,698.65z
			 M365.46,678.49h3.32l-4.17,20.16h-3.31L365.46,678.49L365.46,678.49z M346.44,678.49h3.29l-1.65,7.8h3.51
			c2.23,0,3.81,0.17,4.77,0.51c0.95,0.34,1.7,0.97,2.26,1.87c0.56,0.91,0.84,1.91,0.84,3.03c0,0.67-0.09,1.32-0.27,1.96
			c-0.18,0.64-0.47,1.27-0.86,1.9c-0.73,1.22-1.64,2.03-2.73,2.46c-1.09,0.42-2.79,0.64-5.1,0.64h-8.21L346.44,678.49L346.44,678.49
			z M346.09,695.91h4.19c1.62,0,2.77-0.12,3.45-0.34c0.68-0.23,1.26-0.64,1.72-1.25c0.46-0.61,0.69-1.33,0.69-2.18
			c0-0.77-0.2-1.43-0.61-1.95c-0.41-0.53-0.87-0.84-1.41-0.96c-0.24-0.05-0.62-0.09-1.12-0.13c-0.5-0.04-1.09-0.06-1.77-0.06h-3.74
			L346.09,695.91L346.09,695.91z M373.79,678.49h3.26l-1.74,8.41h8.96l1.7-8.41h3.21l-4.06,20.16h-3.28l1.87-9.02h-8.93l-1.87,9.02
			h-3.25L373.79,678.49L373.79,678.49z M399.21,698.65l8.4-10.23l-4.82-9.93h3.63l1.64,3.58c0.7,1.59,1.25,2.88,1.63,3.86l5.56-7.44
			h4.01l-8.1,10.19l4.87,9.97l-3.64,0.01l-1.92-4.11c-0.24-0.53-0.47-1.03-0.67-1.5c-0.15-0.34-0.39-0.93-0.73-1.75l-5.74,7.35
			H399.21L399.21,698.65z M423.99,698.65l-3.18-20.16h3.18l1.67,11.1c0.17,1.12,0.4,3.1,0.67,5.95c0.63-1.46,1.43-3.1,2.41-4.92
			l6.46-12.12h3.47l-11.05,20.16l-2.29,7.97l-3.33,0.08L423.99,698.65L423.99,698.65z M440.7,678.49h3.23l-0.69,3.38
			c-0.44,2.13-0.66,3.62-0.66,4.5c0,0.87,0.32,1.54,0.96,2c0.65,0.45,1.61,0.68,2.89,0.68c1.55,0,2.99-0.29,4.32-0.85l1.99-9.7h3.27
			l-4.11,20.16h-3.29l1.58-7.72c-1.64,0.56-3.16,0.85-4.58,0.85c-1.95,0-3.49-0.43-4.62-1.31c-1.14-0.88-1.7-2.11-1.7-3.72
			c0-0.67,0.29-2.54,0.87-5.6L440.7,678.49L440.7,678.49z M467.62,690.3l0.69-3.43h10.03l-0.67,3.43H467.62L467.62,690.3z
			 M488.08,698.65l15.1-27.83h4.2l4.4,27.83h-3.46l-1.28-8.01h-10.77l-4.27,8.02L488.08,698.65L488.08,698.65z M497.77,687.77h8.81
			l-1.03-6.99c-0.24-1.68-0.42-2.97-0.52-3.87c-0.15-1.23-0.22-2.25-0.22-3.06c-0.62,1.63-1.51,3.53-2.65,5.68L497.77,687.77
			L497.77,687.77z M518.98,678.49h4.89l1.82,16.08l8.96-16.08h4.79l-4.12,20.16h-3.26l3.36-16.25l-9.05,16.25h-2.92l-1.91-16.88
			l-3.45,16.88h-3.26L518.98,678.49L518.98,678.49z M553.18,678.49h3.2l-1.79,8.61l0.25,0.03c0.69,0,1.35-0.31,1.98-0.92
			c0.62-0.62,1.42-1.76,2.39-3.43c1.05-1.81,2.01-2.97,2.87-3.5c0.86-0.52,1.75-0.79,2.67-0.79c0.64,0,1.32,0.12,2.03,0.34
			l-0.74,2.05c-0.44-0.18-0.8-0.27-1.09-0.27c-0.55,0-1.02,0.19-1.44,0.59c-0.41,0.4-0.94,1.21-1.58,2.42
			c-1.33,2.51-2.83,4.05-4.5,4.64c0.58,0.21,1.13,0.56,1.64,1.04c0.52,0.48,1.05,1.45,1.61,2.9l2.42,6.43h-3.39l-1.9-5.13
			c-0.58-1.59-1.11-2.67-1.59-3.23c-0.48-0.56-1.17-0.92-2.05-1.08l-1.97,9.44h-3.23l1.94-9.44c-0.33,0-0.65,0.05-0.94,0.15
			c-0.29,0.1-0.6,0.26-0.93,0.48c-0.59,0.39-1.57,1.52-2.94,3.4l-3.99,5.4l-3.99,0.01l5.1-6.72c1.49-1.96,3.09-3.18,4.79-3.66
			c-0.74-0.49-1.28-1.06-1.63-1.73c-0.35-0.67-0.7-1.9-1.02-3.7c-0.15-0.87-0.33-1.46-0.54-1.77c-0.21-0.3-0.52-0.45-0.94-0.45
			c-0.3,0-0.77,0.09-1.4,0.27l0.22-2.19c0.27-0.06,0.55-0.11,0.84-0.15c0.29-0.04,0.58-0.06,0.86-0.06c1.15,0,1.97,0.34,2.46,1.01
			c0.5,0.62,0.92,1.78,1.28,3.49c0.36,1.7,0.74,2.82,1.16,3.35c0.42,0.52,1.09,0.78,2,0.78L553.18,678.49L553.18,678.49z
			 M579.16,695c-2.31,2.73-4.66,4.1-7.03,4.1c-1.45,0-2.65-0.43-3.62-1.28c-0.95-0.86-1.43-1.94-1.43-3.27
			c0-0.91,0.2-2.38,0.61-4.43l2.33-11.63h3.29l-2.58,12.89c-0.22,1.06-0.33,1.91-0.33,2.54c0,0.77,0.22,1.37,0.65,1.78
			c0.45,0.4,1.1,0.59,1.95,0.59c1.26,0,2.46-0.42,3.59-1.27c1.13-0.85,1.96-1.86,2.49-3.04c0.5-1.12,0.96-2.71,1.38-4.78l1.74-8.71
			h3.29l-4.03,20.16h-3.03L579.16,695L579.16,695z M592.18,678.49h14.53l-4.11,20.16h-3.27l3.6-17.3h-8.11l-2.49,12.02
			c-0.42,2.06-0.99,3.5-1.71,4.32c-0.71,0.82-1.71,1.22-2.96,1.22c-0.39,0-0.81-0.02-1.26-0.06c-0.46-0.04-1-0.1-1.63-0.21l0.6-2.84
			l1.38,0.05c0.83,0,1.38-0.21,1.63-0.63c0.25-0.42,0.63-1.76,1.13-4.02L592.18,678.49L592.18,678.49z M607.64,698.65l4.03-20.16
			h3.29l-0.68,3.32c2.05-2.52,4.17-3.78,6.36-3.78c1.27,0,2.3,0.32,3.09,0.95c0.75,0.59,1.27,1.54,1.56,2.83
			c0.95-1.24,1.99-2.18,3.09-2.82c1.1-0.64,2.25-0.96,3.44-0.96c1.59,0,2.78,0.38,3.6,1.15c0.82,0.77,1.23,1.91,1.23,3.43
			c0,0.66-0.14,1.68-0.42,3.06l-2.6,12.99h-3.28l2.65-13.33c0.11-0.56,0.19-1.02,0.25-1.4c0.06-0.38,0.09-0.69,0.09-0.93
			c0-0.71-0.19-1.24-0.57-1.59c-0.38-0.36-0.95-0.53-1.72-0.53c-1.12,0-2.21,0.38-3.28,1.13c-1.07,0.76-1.85,1.65-2.34,2.69
			c-0.43,0.98-0.84,2.38-1.23,4.19l-1.97,9.78h-3.28l2.73-13.62c0.19-0.97,0.29-1.63,0.29-1.97c0-0.69-0.21-1.23-0.62-1.61
			c-0.41-0.4-0.92-0.59-1.51-0.59c-0.56,0-1.11,0.1-1.64,0.29c-0.54,0.19-1.09,0.48-1.65,0.89c-1.07,0.77-1.89,1.73-2.43,2.88
			c-0.5,1.08-0.93,2.48-1.29,4.19l-1.91,9.53H607.64L607.64,698.65z M661.82,678.49h3.32l-4.17,20.16h-3.31L661.82,678.49
			L661.82,678.49z M642.8,678.49h3.29l-1.65,7.8h3.51c2.23,0,3.81,0.17,4.77,0.51c0.95,0.34,1.7,0.97,2.26,1.87
			c0.56,0.91,0.84,1.91,0.84,3.03c0,0.67-0.09,1.32-0.27,1.96c-0.18,0.64-0.47,1.27-0.86,1.9c-0.73,1.22-1.64,2.03-2.73,2.46
			c-1.09,0.42-2.79,0.64-5.1,0.64h-8.21L642.8,678.49L642.8,678.49z M642.45,695.91h4.19c1.62,0,2.77-0.12,3.45-0.34
			c0.68-0.23,1.26-0.64,1.72-1.25c0.46-0.61,0.69-1.33,0.69-2.18c0-0.77-0.2-1.43-0.61-1.95c-0.41-0.53-0.87-0.84-1.41-0.96
			c-0.24-0.05-0.62-0.09-1.12-0.13c-0.5-0.04-1.09-0.06-1.77-0.06h-3.74L642.45,695.91L642.45,695.91z M670.14,678.49h3.26
			l-1.74,8.41h8.96l1.7-8.41h3.21l-4.06,20.16h-3.27l1.87-9.02h-8.92l-1.87,9.02h-3.25L670.14,678.49L670.14,678.49z M696.84,698.65
			l4.03-20.16h3.29l-0.68,3.32c2.05-2.52,4.17-3.78,6.36-3.78c1.27,0,2.3,0.32,3.09,0.95c0.75,0.59,1.27,1.54,1.56,2.83
			c0.95-1.24,1.99-2.18,3.09-2.82c1.1-0.64,2.25-0.96,3.44-0.96c1.59,0,2.78,0.38,3.6,1.15c0.82,0.77,1.23,1.91,1.23,3.43
			c0,0.66-0.14,1.68-0.42,3.06l-2.6,12.99h-3.28l2.65-13.33c0.11-0.56,0.19-1.02,0.25-1.4c0.06-0.38,0.09-0.69,0.09-0.93
			c0-0.71-0.19-1.24-0.57-1.59c-0.38-0.36-0.95-0.53-1.72-0.53c-1.12,0-2.21,0.38-3.28,1.13c-1.07,0.76-1.85,1.65-2.34,2.69
			c-0.43,0.98-0.84,2.38-1.23,4.19l-1.97,9.78h-3.28l2.73-13.62c0.19-0.97,0.29-1.63,0.29-1.97c0-0.69-0.21-1.23-0.62-1.61
			c-0.41-0.4-0.92-0.59-1.51-0.59c-0.56,0-1.11,0.1-1.64,0.29c-0.54,0.19-1.09,0.48-1.65,0.89c-1.07,0.77-1.89,1.73-2.43,2.88
			c-0.5,1.08-0.93,2.48-1.29,4.19l-1.91,9.53H696.84L696.84,698.65z M732.74,698.65l-3.18-20.16h3.18l1.67,11.1
			c0.17,1.12,0.4,3.1,0.67,5.95c0.63-1.46,1.43-3.1,2.41-4.92l6.46-12.12h3.47l-11.05,20.16l-2.29,7.97l-3.33,0.08L732.74,698.65
			L732.74,698.65z M751.97,678.49h14.53l-4.11,20.16h-3.27l3.6-17.3h-8.11l-2.49,12.02c-0.42,2.06-0.99,3.5-1.71,4.32
			c-0.71,0.82-1.71,1.22-2.96,1.22c-0.38,0-0.81-0.02-1.26-0.06c-0.46-0.04-1-0.1-1.63-0.21l0.6-2.84l1.38,0.05
			c0.83,0,1.38-0.21,1.63-0.63c0.25-0.42,0.63-1.76,1.13-4.02L751.97,678.49L751.97,678.49z M766.16,698.65l8.4-10.23l-4.82-9.93
			h3.63l1.64,3.58c0.7,1.59,1.25,2.88,1.63,3.86l5.56-7.44h4.01l-8.1,10.19l4.87,9.97l-3.64,0.01l-1.92-4.11
			c-0.24-0.53-0.47-1.03-0.67-1.5c-0.15-0.34-0.39-0.93-0.73-1.75l-5.74,7.35H766.16L766.16,698.65z M790.94,698.65l-3.18-20.16
			h3.18l1.67,11.1c0.17,1.12,0.4,3.1,0.67,5.95c0.63-1.46,1.43-3.1,2.41-4.92l6.46-12.12h3.47l-11.05,20.16l-2.29,7.97l-3.33,0.08
			L790.94,698.65L790.94,698.65z M809.55,698.65l-3.18-20.16h3.18l1.67,11.1c0.17,1.12,0.4,3.1,0.67,5.95
			c0.63-1.46,1.43-3.1,2.41-4.92l6.46-12.12h3.47l-11.05,20.16l-2.29,7.97l-3.33,0.08L809.55,698.65L809.55,698.65z M821.72,706.37
			l5.58-27.89h3.04l-0.56,2.81c1.93-2.18,3.9-3.27,5.87-3.27c1.82,0,3.33,0.71,4.55,2.12c1.22,1.41,1.82,3.42,1.82,6.01
			c0,3.54-0.95,6.59-2.85,9.13c-1.9,2.55-4.11,3.82-6.61,3.82c-2.3,0-4.08-1.22-5.37-3.68l-2.17,10.95H821.72L821.72,706.37z
			 M828.19,691.09c0,1.74,0.41,3.04,1.23,3.9c0.83,0.87,1.83,1.3,3.01,1.3c1.9,0,3.43-1.13,4.58-3.4c1.15-2.27,1.72-4.55,1.72-6.86
			c0-1.37-0.35-2.58-1.04-3.64c-0.69-1.06-1.7-1.59-3.03-1.59c-1.85,0-3.4,1.09-4.63,3.27C828.81,686.26,828.19,688.6,828.19,691.09
			L828.19,691.09z"/>
	</g>
	<g>
		
			<linearGradient id="SVGID_00000150804780440723031560000008485075547037088702_" gradientUnits="userSpaceOnUse" x1="80.0777" y1="591.7123" x2="80.0777" y2="663.4399">
			<stop  offset="0" style="stop-color:#3E76BB"/>
			<stop  offset="0.9672" style="stop-color:#06509E"/>
		</linearGradient>
		<path style="fill:url(#SVGID_00000150804780440723031560000008485075547037088702_);" d="M98.17,602.37c0.9,0,1.77-0.18,2.61-0.55
			s1.37-0.88,1.6-1.56h1.93l-3.37,12.87c-0.56,1.8-2.21,2.69-4.96,2.69h-4.96l-9.42,40.05c-0.11,0.56,0.14,1.13,0.76,1.73
			c0.62,0.59,1.24,0.88,1.85,0.88l-0.59,1.94H60.23c-1.8,0-2.69-0.9-2.69-2.69c0-0.23,0.06-0.67,0.17-1.35l9.51-40.55H61.4
			c-0.9,0-1.64,0.21-2.23,0.63c-0.59,0.42-1,0.97-1.22,1.64h-2.1l3.37-13.46c0.23-0.78,0.67-1.36,1.35-1.72
			c0.67-0.37,1.74-0.55,3.2-0.55H98.17z"/>
		
			<linearGradient id="SVGID_00000124151567361295723690000002358190816892214657_" gradientUnits="userSpaceOnUse" x1="115.0772" y1="591.7123" x2="115.0772" y2="663.4399">
			<stop  offset="0" style="stop-color:#3E76BB"/>
			<stop  offset="0.9672" style="stop-color:#06509E"/>
		</linearGradient>
		<path style="fill:url(#SVGID_00000124151567361295723690000002358190816892214657_);" d="M123.24,660.42
			c-1.46,0-2.54-0.24-3.24-0.72c-0.7-0.48-1.11-1.3-1.22-2.48l-0.76-8.58h-9.76l-3.45,6.9c-0.06,0.17-0.09,0.31-0.09,0.42
			c0,0.11-0.03,0.34-0.09,0.67c0,0.51,0.24,0.94,0.72,1.3c0.48,0.37,1.02,0.55,1.64,0.55l-0.42,1.94H88.32
			c-2.35,0-3.53-0.93-3.53-2.78c0-0.5,0.14-1.04,0.42-1.6l24.73-47.95c0.17-0.34,0.26-0.76,0.26-1.26c0-0.62-0.27-1.19-0.8-1.73
			s-1.11-0.8-1.72-0.8l0.5-1.94h25.07c1.29,0,2.38,0.35,3.28,1.05s1.35,1.7,1.35,2.99l3.87,49.13c0,0.73,0.4,1.4,1.18,2.02
			c0.78,0.62,1.6,0.92,2.44,0.92l-0.42,1.94H123.24z M113.22,637.37h4.8l-0.68-9.42L113.22,637.37z"/>
		
			<linearGradient id="SVGID_00000064323912829101423520000017364708614214804098_" gradientUnits="userSpaceOnUse" x1="175.2714" y1="591.7123" x2="175.2714" y2="663.4399">
			<stop  offset="0" style="stop-color:#3E76BB"/>
			<stop  offset="0.9672" style="stop-color:#06509E"/>
		</linearGradient>
		<path style="fill:url(#SVGID_00000064323912829101423520000017364708614214804098_);" d="M193.74,602.29
			c3.76,0,6.66,0.98,8.71,2.95c2.05,1.96,3.08,4.43,3.08,7.4c0,0.45-0.05,0.95-0.13,1.51c-0.08,0.56-0.15,0.98-0.21,1.26
			c-1.29,6.17-3.93,9.9-7.91,11.19c1.63,1.01,2.82,2.12,3.58,3.32c0.76,1.21,1.14,2.99,1.14,5.34c0,2.13-0.42,5.1-1.26,8.92
			c-1.46,6.34-3.7,10.69-6.73,13.04c-2.74,2.13-6.98,3.2-12.7,3.2h-33.4c-0.96,0-1.67-0.27-2.15-0.8c-0.48-0.53-0.71-1.25-0.71-2.15
			c0-0.34,0.06-0.78,0.17-1.34l11.45-49.22c0.11-0.62-0.12-1.2-0.68-1.77c-0.56-0.56-1.18-0.84-1.85-0.84l0.5-1.94L193.74,602.29z
			 M173.97,647.38c1.51,0,2.56-0.35,3.16-1.05c0.59-0.7,1.16-2.29,1.72-4.75c0.39-1.57,0.59-2.86,0.59-3.87
			c0-1.91-1.04-2.86-3.11-2.86h-2.35l-2.86,12.54H173.97z M179.94,623.66c0.96,0,1.63-0.27,2.02-0.8c0.4-0.53,0.76-1.5,1.1-2.9
			c0.34-1.4,0.51-2.41,0.51-3.03c0-1.46-0.82-2.19-2.44-2.19h-2.52l-2.02,8.92H179.94z"/>
		
			<linearGradient id="SVGID_00000123436869266465349980000002594137369211118229_" gradientUnits="userSpaceOnUse" x1="227.6366" y1="591.7123" x2="227.6366" y2="663.4399">
			<stop  offset="0" style="stop-color:#3E76BB"/>
			<stop  offset="0.9672" style="stop-color:#06509E"/>
		</linearGradient>
		<path style="fill:url(#SVGID_00000123436869266465349980000002594137369211118229_);" d="M235.8,660.42
			c-1.46,0-2.54-0.24-3.24-0.72c-0.7-0.48-1.11-1.3-1.22-2.48l-0.76-8.58h-9.76l-3.45,6.9c-0.06,0.17-0.09,0.31-0.09,0.42
			c0,0.11-0.03,0.34-0.08,0.67c0,0.51,0.24,0.94,0.71,1.3c0.48,0.37,1.03,0.55,1.64,0.55l-0.42,1.94h-18.26
			c-2.35,0-3.54-0.93-3.54-2.78c0-0.5,0.14-1.04,0.42-1.6l24.74-47.95c0.17-0.34,0.25-0.76,0.25-1.26c0-0.62-0.27-1.19-0.8-1.73
			c-0.54-0.53-1.11-0.8-1.73-0.8l0.51-1.94h25.07c1.29,0,2.38,0.35,3.29,1.05c0.9,0.7,1.34,1.7,1.34,2.99l3.87,49.13
			c0,0.73,0.39,1.4,1.18,2.02c0.79,0.62,1.6,0.92,2.44,0.92l-0.42,1.94H235.8z M225.79,637.37h4.79l-0.67-9.42L225.79,637.37z"/>
		
			<linearGradient id="SVGID_00000166675909348832106640000002332750891261629608_" gradientUnits="userSpaceOnUse" x1="292.5016" y1="591.7123" x2="292.5016" y2="663.4399">
			<stop  offset="0" style="stop-color:#3E76BB"/>
			<stop  offset="0.9672" style="stop-color:#06509E"/>
		</linearGradient>
		<path style="fill:url(#SVGID_00000166675909348832106640000002332750891261629608_);" d="M288.71,634.84l-4.79,20.7l-0.09,0.67
			c0,0.62,0.28,1.15,0.84,1.6c0.56,0.45,1.15,0.67,1.76,0.67l-0.42,1.94h-23.47c-1.85,0-2.77-0.9-2.77-2.69
			c0-0.28,0.06-0.76,0.17-1.43l11.53-49.39c0.11-0.56-0.14-1.13-0.76-1.72c-0.62-0.59-1.23-0.88-1.85-0.88l0.59-1.94h23.39
			c1.79,0,2.69,0.9,2.69,2.69c0,0.23-0.06,0.67-0.17,1.35l-4.04,17.25h5.97l3.87-16.74c0.11-0.56-0.11-1.13-0.67-1.72
			c-0.56-0.59-1.15-0.88-1.77-0.88l0.42-1.94h23.39c0.96,0,1.64,0.24,2.06,0.72c0.42,0.48,0.63,1.16,0.63,2.06l-0.17,1.26
			l-11.44,49.47c-0.12,0.56,0.14,1.13,0.76,1.73c0.62,0.59,1.23,0.88,1.85,0.88l-0.59,1.94h-23.39c-1.79,0-2.69-0.9-2.69-2.69
			c0-0.23,0.06-0.67,0.17-1.35l4.96-21.54H288.71z"/>
		
			<linearGradient id="SVGID_00000096046200651547523500000016524087859592666293_" gradientUnits="userSpaceOnUse" x1="383.9886" y1="591.7123" x2="383.9886" y2="663.4399">
			<stop  offset="0" style="stop-color:#3E76BB"/>
			<stop  offset="0.9672" style="stop-color:#06509E"/>
		</linearGradient>
		<path style="fill:url(#SVGID_00000096046200651547523500000016524087859592666293_);" d="M397.74,621.89
			c4.21,0,7.52,1.15,9.93,3.45c2.41,2.3,3.62,5.61,3.62,9.93c0,2.3-0.34,4.82-1.01,7.57c-0.67,2.75-1.49,5.3-2.44,7.66
			c-1.57,3.93-3.66,6.56-6.27,7.91c-2.61,1.34-6.41,2.02-11.4,2.02H356.1c-0.95,0-1.67-0.27-2.14-0.8
			c-0.48-0.53-0.72-1.25-0.72-2.15c0-0.34,0.06-0.78,0.17-1.34l11.45-49.22c0.11-0.62-0.12-1.2-0.68-1.77
			c-0.56-0.56-1.18-0.84-1.85-0.84l0.51-1.94h51.91l-2.35,9.26c-0.28,1.12-1.07,2.03-2.35,2.73c-1.29,0.7-2.58,1.05-3.87,1.05
			h-19.52l-1.51,6.48H397.74z M379.41,646.96h2.77c1.35,0,2.31-0.42,2.9-1.26c0.59-0.84,1.22-2.58,1.89-5.22
			c0.34-1.46,0.51-2.66,0.51-3.62c0-1.85-0.87-2.78-2.61-2.78h-2.52L379.41,646.96z"/>
		
			<linearGradient id="SVGID_00000110444511584865873140000003840834803646465673_" gradientUnits="userSpaceOnUse" x1="441.1123" y1="591.7123" x2="441.1123" y2="663.4399">
			<stop  offset="0" style="stop-color:#3E76BB"/>
			<stop  offset="0.9672" style="stop-color:#06509E"/>
		</linearGradient>
		<path style="fill:url(#SVGID_00000110444511584865873140000003840834803646465673_);" d="M453.61,602.37c4.93,0,9,1.28,12.2,3.83
			s4.8,6.16,4.8,10.81c0,1.68-0.2,3.31-0.59,4.88l-5.05,21.37c-1.46,6.34-3.98,10.85-7.57,13.54c-3.14,2.41-7.46,3.62-12.95,3.62
			h-17.25c-5.27,0-9.18-1.19-11.74-3.58c-2.55-2.38-3.83-5.9-3.83-10.56c0-2.75,0.37-5.61,1.09-8.58l3.7-15.9
			c1.46-6.11,3.56-10.68,6.31-13.71c3.54-3.81,8.5-5.72,14.89-5.72H453.61z M435.43,642.42c-0.17,0.78-0.25,1.46-0.25,2.02
			c0,1.4,0.79,2.1,2.35,2.1c1.07,0,1.87-0.24,2.4-0.72c0.53-0.48,0.94-1.33,1.22-2.56l5.55-23.64c0.12-0.67,0.17-1.12,0.17-1.34
			c0-1.63-0.82-2.44-2.44-2.44c-1.8,0-3,1.12-3.62,3.37L435.43,642.42z"/>
		
			<linearGradient id="SVGID_00000054978637881099640550000013122253444717635729_" gradientUnits="userSpaceOnUse" x1="491.7946" y1="591.7123" x2="491.7946" y2="663.4399">
			<stop  offset="0" style="stop-color:#3E76BB"/>
			<stop  offset="0.9672" style="stop-color:#06509E"/>
		</linearGradient>
		<path style="fill:url(#SVGID_00000054978637881099640550000013122253444717635729_);" d="M490.11,654.03
			c-0.17,0.62-0.25,1.23-0.25,1.85c0,0.67,0.32,1.27,0.97,1.81s1.3,0.8,1.98,0.8l-0.42,1.94h-23.9c-0.95,0-1.67-0.27-2.14-0.8
			c-0.48-0.53-0.72-1.25-0.72-2.15c0-0.34,0.06-0.78,0.17-1.34l11.44-49.22c0.12-0.62-0.11-1.2-0.67-1.77
			c-0.56-0.56-1.18-0.84-1.85-0.84l0.51-1.94h42.74l-2.19,9.42c-0.28,1.23-0.91,2.21-1.89,2.95c-0.98,0.73-2.12,1.09-3.41,1.09
			h-11.61L490.11,654.03z"/>
		
			<linearGradient id="SVGID_00000106105000958681732440000005238010501984874906_" gradientUnits="userSpaceOnUse" x1="527.6331" y1="591.7123" x2="527.6331" y2="663.4399">
			<stop  offset="0" style="stop-color:#3E76BB"/>
			<stop  offset="0.9672" style="stop-color:#06509E"/>
		</linearGradient>
		<path style="fill:url(#SVGID_00000106105000958681732440000005238010501984874906_);" d="M551.7,644.35
			c0.28,1.74,1.07,2.61,2.35,2.61h2.1l-2.19,9.59c-0.39,1.63-1.18,2.72-2.35,3.28c-0.9,0.39-2.38,0.59-4.46,0.59h-44.59
			c-2.3,0-3.45-0.93-3.45-2.78l0.17-1.34l2.1-9.34h2.27c0.79,0,1.47-0.24,2.06-0.72c0.59-0.48,1.03-1.05,1.31-1.72l17-36.35
			l0.17-1.51c0-0.67-0.23-1.23-0.67-1.68c-0.45-0.45-1.01-0.67-1.68-0.67l0.42-1.94h20.36c1.18,0,2.17,0.32,2.99,0.97
			c0.81,0.64,1.28,1.44,1.39,2.4L551.7,644.35z M528.9,636.36l-4.12,10.6h4.79L528.9,636.36z"/>
		
			<linearGradient id="SVGID_00000023987305813169151340000005164035059891481778_" gradientUnits="userSpaceOnUse" x1="610.4147" y1="591.7123" x2="610.4147" y2="663.4399">
			<stop  offset="0" style="stop-color:#3E76BB"/>
			<stop  offset="0.9672" style="stop-color:#06509E"/>
		</linearGradient>
		<path style="fill:url(#SVGID_00000023987305813169151340000005164035059891481778_);" d="M623.79,646.54
			c0.84,0,1.72-0.21,2.65-0.63c0.92-0.42,1.47-0.94,1.64-1.56h1.94l-2.44,10.6c-0.39,1.85-1.15,3.17-2.27,3.95
			c-1.4,1.01-3.56,1.52-6.48,1.52H599.9c-5.67,0-9.73-1.09-12.2-3.28c-2.19-1.96-3.28-4.94-3.28-8.92c0-2.58,0.45-5.72,1.34-9.42
			l4.63-20.28c1.18-5.27,3.45-9.34,6.82-12.2c3.09-2.63,6.62-3.95,10.6-3.95h28.61c-0.17,1.01-0.45,2.43-0.84,4.25
			c-0.39,1.82-0.73,3.24-1.01,4.25c-0.45,1.74-1.01,2.95-1.68,3.62c-0.9,0.9-2.36,1.34-4.38,1.34h-8.67c-2.02,0-3.48,0.48-4.37,1.43
			c-0.9,0.95-1.54,2.38-1.94,4.29l-4.62,19.94c-0.17,0.62-0.26,1.18-0.26,1.68c0,2.24,1.43,3.37,4.29,3.37H623.79z"/>
		
			<linearGradient id="SVGID_00000163778110067091766510000002936048072571493772_" gradientUnits="userSpaceOnUse" x1="660.8516" y1="591.7123" x2="660.8516" y2="663.4399">
			<stop  offset="0" style="stop-color:#3E76BB"/>
			<stop  offset="0.9672" style="stop-color:#06509E"/>
		</linearGradient>
		<path style="fill:url(#SVGID_00000163778110067091766510000002936048072571493772_);" d="M673.35,602.37c4.93,0,9,1.28,12.2,3.83
			c3.2,2.55,4.8,6.16,4.8,10.81c0,1.68-0.2,3.31-0.59,4.88l-5.05,21.37c-1.46,6.34-3.98,10.85-7.57,13.54
			c-3.14,2.41-7.46,3.62-12.95,3.62h-17.25c-5.27,0-9.18-1.19-11.74-3.58c-2.55-2.38-3.83-5.9-3.83-10.56
			c0-2.75,0.37-5.61,1.09-8.58l3.7-15.9c1.46-6.11,3.56-10.68,6.31-13.71c3.54-3.81,8.5-5.72,14.89-5.72H673.35z M655.17,642.42
			c-0.17,0.78-0.25,1.46-0.25,2.02c0,1.4,0.79,2.1,2.35,2.1c1.07,0,1.87-0.24,2.4-0.72c0.53-0.48,0.94-1.33,1.22-2.56l5.55-23.64
			c0.12-0.67,0.17-1.12,0.17-1.34c0-1.63-0.82-2.44-2.44-2.44c-1.8,0-3,1.12-3.62,3.37L655.17,642.42z"/>
		
			<linearGradient id="SVGID_00000170979914163823489840000007622375956341160887_" gradientUnits="userSpaceOnUse" x1="709.0945" y1="591.7123" x2="709.0945" y2="663.4399">
			<stop  offset="0" style="stop-color:#3E76BB"/>
			<stop  offset="0.9672" style="stop-color:#06509E"/>
		</linearGradient>
		<path style="fill:url(#SVGID_00000170979914163823489840000007622375956341160887_);" d="M733.32,655.46
			c0.12,0.9,0.48,1.63,1.1,2.19c0.62,0.56,1.32,0.84,2.1,0.84l-0.42,1.94h-23.39c-0.73,0-1.43-0.34-2.1-1.01
			c-0.67-0.67-1.01-1.4-1.01-2.19l-1.18-19.52l-7.82,17.16c-0.17,0.39-0.25,0.84-0.25,1.34c0,0.62,0.25,1.15,0.76,1.6
			c0.51,0.45,1.07,0.67,1.68,0.67l-0.42,1.94h-17.5c-1.06,0-1.86-0.28-2.39-0.84c-0.54-0.56-0.8-1.29-0.8-2.19
			c0-0.67,0.06-1.14,0.17-1.39c0.11-0.25,0.2-0.43,0.25-0.55l22.04-47.2c0.28-0.67,0.42-1.21,0.42-1.6c0-0.62-0.27-1.16-0.8-1.64
			c-0.53-0.48-1.11-0.72-1.72-0.72l0.42-1.94h20.03c1.29,0,2.38,0.31,3.28,0.93c0.9,0.62,1.4,1.43,1.51,2.44L733.32,655.46z"/>
		
			<linearGradient id="SVGID_00000009554407003276710840000005042847520654873268_" gradientUnits="userSpaceOnUse" x1="782.7075" y1="591.7123" x2="782.7075" y2="663.4399">
			<stop  offset="0" style="stop-color:#3E76BB"/>
			<stop  offset="0.9672" style="stop-color:#06509E"/>
		</linearGradient>
		<path style="fill:url(#SVGID_00000009554407003276710840000005042847520654873268_);" d="M773.87,623.66l1.09-4.29
			c1.23-4.94,3.25-8.81,6.06-11.61c3.59-3.59,8.44-5.38,14.56-5.38h15.99c5.55,0,9.93,1.63,13.12,4.88
			c2.52,2.58,3.79,5.24,3.79,7.99c0,1.29-0.03,2.51-0.09,3.66c-0.06,1.15-0.2,2.15-0.42,2.99l-5.21,22.29
			c-1.24,5.22-3.44,9.23-6.61,12.03c-3.17,2.8-7.25,4.21-12.24,4.21h-20.03c-5.16,0-8.92-1.4-11.27-4.21
			c-2.02-2.35-3.03-5.72-3.03-10.1c0-2.58,0.37-5.38,1.09-8.41l0.68-2.86h-5.47l-4.79,20.7l-0.09,0.67c0,0.62,0.28,1.15,0.84,1.6
			c0.56,0.45,1.15,0.67,1.76,0.67l-0.42,1.94h-23.47c-1.85,0-2.77-0.9-2.77-2.69c0-0.28,0.06-0.76,0.17-1.43l11.53-49.39
			c0.11-0.56-0.14-1.13-0.76-1.72c-0.62-0.59-1.23-0.88-1.85-0.88l0.59-1.94H770c1.79,0,2.69,0.9,2.69,2.69
			c0,0.23-0.06,0.67-0.17,1.35l-4.04,17.25H773.87z M793.39,642.42c-0.17,0.78-0.26,1.46-0.26,2.02c0,1.4,0.79,2.1,2.35,2.1
			c1.07,0,1.87-0.24,2.4-0.72c0.54-0.48,0.94-1.33,1.22-2.56l5.55-23.64c0.12-0.67,0.17-1.12,0.17-1.34c0-1.63-0.81-2.44-2.44-2.44
			c-1.8,0-3,1.12-3.62,3.37L793.39,642.42z"/>
		
			<linearGradient id="SVGID_00000091730914705844369300000009834812701196510876_" gradientUnits="userSpaceOnUse" x1="870.4078" y1="591.7123" x2="870.4078" y2="663.4399">
			<stop  offset="0" style="stop-color:#3E76BB"/>
			<stop  offset="0.9672" style="stop-color:#06509E"/>
		</linearGradient>
		<path style="fill:url(#SVGID_00000091730914705844369300000009834812701196510876_);" d="M822.75,657.73
			c0-0.23,0.06-0.67,0.17-1.35l11.44-49.47c0.12-0.56-0.11-1.13-0.67-1.72c-0.56-0.59-1.15-0.88-1.77-0.88l0.42-1.94h23.39
			c0.95,0,1.64,0.24,2.06,0.72c0.42,0.48,0.63,1.16,0.63,2.06l-0.17,1.26l-9.34,40.55h5.89l9.34-40.05
			c0.12-0.56-0.11-1.13-0.67-1.72c-0.56-0.59-1.15-0.88-1.77-0.88l0.42-1.94h23.39c0.95,0,1.64,0.24,2.06,0.72
			c0.42,0.48,0.63,1.16,0.63,2.06l-0.17,1.26l-9.34,40.55h5.89l9.42-40.05c0.12-0.56-0.11-1.13-0.67-1.72s-1.15-0.88-1.77-0.88
			l0.42-1.94h23.39c0.95,0,1.64,0.24,2.06,0.72c0.42,0.48,0.63,1.16,0.63,2.06l-0.17,1.26l-11.27,48.38l-0.25,1.6
			c0,0.62,0.25,1.12,0.76,1.52c0.5,0.39,1.09,0.59,1.76,0.59l-0.5,1.94h-82.96C823.65,660.42,822.75,659.52,822.75,657.73z"/>
		
			<linearGradient id="SVGID_00000046336850870962941950000011947051146150229893_" gradientUnits="userSpaceOnUse" x1="944.8221" y1="591.7123" x2="944.8221" y2="663.4399">
			<stop  offset="0" style="stop-color:#3E76BB"/>
			<stop  offset="0.9672" style="stop-color:#06509E"/>
		</linearGradient>
		<path style="fill:url(#SVGID_00000046336850870962941950000011947051146150229893_);" d="M941.04,634.84l-4.79,20.7l-0.09,0.67
			c0,0.62,0.28,1.15,0.84,1.6c0.56,0.45,1.15,0.67,1.76,0.67l-0.42,1.94h-23.47c-1.85,0-2.77-0.9-2.77-2.69
			c0-0.28,0.06-0.76,0.17-1.43l11.53-49.39c0.11-0.56-0.14-1.13-0.76-1.72c-0.62-0.59-1.23-0.88-1.85-0.88l0.59-1.94h23.39
			c1.79,0,2.69,0.9,2.69,2.69c0,0.23-0.06,0.67-0.17,1.35l-4.04,17.25h5.97l3.87-16.74c0.11-0.56-0.11-1.13-0.67-1.72
			c-0.56-0.59-1.15-0.88-1.77-0.88l0.42-1.94h23.39c0.96,0,1.64,0.24,2.06,0.72c0.42,0.48,0.63,1.16,0.63,2.06l-0.17,1.26
			l-11.44,49.47c-0.12,0.56,0.14,1.13,0.76,1.73c0.62,0.59,1.23,0.88,1.85,0.88l-0.59,1.94h-23.39c-1.79,0-2.69-0.9-2.69-2.69
			c0-0.23,0.06-0.67,0.17-1.35l4.96-21.54H941.04z"/>
		
			<linearGradient id="SVGID_00000163053598303308723540000006675593473006137273_" gradientUnits="userSpaceOnUse" x1="998.1566" y1="591.7123" x2="998.1566" y2="663.4399">
			<stop  offset="0" style="stop-color:#3E76BB"/>
			<stop  offset="0.9672" style="stop-color:#06509E"/>
		</linearGradient>
		<path style="fill:url(#SVGID_00000163053598303308723540000006675593473006137273_);" d="M1011.54,646.54
			c0.84,0,1.72-0.21,2.65-0.63c0.92-0.42,1.47-0.94,1.64-1.56h1.94l-2.44,10.6c-0.39,1.85-1.15,3.17-2.27,3.95
			c-1.4,1.01-3.56,1.52-6.48,1.52h-18.93c-5.67,0-9.73-1.09-12.2-3.28c-2.19-1.96-3.28-4.94-3.28-8.92c0-2.58,0.45-5.72,1.34-9.42
			l4.63-20.28c1.18-5.27,3.45-9.34,6.82-12.2c3.09-2.63,6.62-3.95,10.6-3.95h28.61c-0.17,1.01-0.45,2.43-0.84,4.25
			c-0.39,1.82-0.73,3.24-1.01,4.25c-0.45,1.74-1.01,2.95-1.68,3.62c-0.9,0.9-2.36,1.34-4.38,1.34h-8.67c-2.02,0-3.48,0.48-4.37,1.43
			c-0.9,0.95-1.54,2.38-1.94,4.29l-4.62,19.94c-0.17,0.62-0.26,1.18-0.26,1.68c0,2.24,1.43,3.37,4.29,3.37H1011.54z"/>
	</g>
</g>
</svg>
