<?xml version="1.0" encoding="utf-8"?>
<!-- Generator: Adobe Illustrator 26.5.0, SVG Export Plug-In . SVG Version: 6.00 Build 0)  -->
<svg version="1.1" id="Layer_1" xmlns="http://www.w3.org/2000/svg" xmlns:xlink="http://www.w3.org/1999/xlink" x="0px" y="0px"
	 viewBox="0 0 1080 1080" style="enable-background:new 0 0 1080 1080;" xml:space="preserve">
<style type="text/css">
	.st0{fill-rule:evenodd;clip-rule:evenodd;}
	.st1{fill:#ED1C24;}
	.st2{fill:#E1251B;}
	.st3{fill-rule:evenodd;clip-rule:evenodd;fill:#16397B;}
	.st4{fill:#EE2745;}
	
		.st5{clip-path:url(#SVGID_00000058554094360614635370000007695160084002842807_);fill:url(#SVGID_00000137093338774112562940000000380090496877626019_);}
	
		.st6{clip-path:url(#SVGID_00000137829816769587535740000013019149111276459167_);fill:url(#SVGID_00000170974863057887386340000006160526899922358924_);}
	
		.st7{clip-path:url(#SVGID_00000097472008679448923840000012240605327088937140_);fill:url(#SVGID_00000165204985317457904300000008968972331439523221_);}
	
		.st8{clip-path:url(#SVGID_00000083793507910177787410000018140392912381642942_);fill:url(#SVGID_00000182520107099639889260000008205341946309007269_);}
	.st9{fill:#424243;}
	
		.st10{clip-path:url(#SVGID_00000027589317266080270160000007021179349221848762_);fill:url(#SVGID_00000138568030541494795110000005178508597494749846_);}
	.st11{fill:#FFFFFF;}
	
		.st12{clip-path:url(#SVGID_00000162321246144771341010000017391611964750686643_);fill:url(#SVGID_00000152984200747695667650000017905390413711318666_);}
	
		.st13{clip-path:url(#SVGID_00000178886299184095826750000015093339855183463306_);fill:url(#SVGID_00000031200017960991873210000006087535250671054726_);}
	
		.st14{clip-path:url(#SVGID_00000067937078833742614320000016791941006909932429_);fill:url(#SVGID_00000016774249405268509810000015814270459367105928_);}
	
		.st15{clip-path:url(#SVGID_00000091726274164406633720000009689135034995885718_);fill:url(#SVGID_00000103227826637258304640000006294375815131444646_);}
	
		.st16{clip-path:url(#SVGID_00000036245339921574688550000011386374851602271916_);fill:url(#SVGID_00000133496213749441897080000001429002393552787112_);}
	
		.st17{clip-path:url(#SVGID_00000075853496333357716270000006576683310572437434_);fill:url(#SVGID_00000129194246626175187770000017201116859066023040_);}
	
		.st18{clip-path:url(#SVGID_00000153697769873112873830000000186776218665365134_);fill:url(#SVGID_00000147202933240194291140000017776784280543380911_);}
	.st19{fill-rule:evenodd;clip-rule:evenodd;fill:#C8202F;}
	.st20{fill-rule:evenodd;clip-rule:evenodd;fill:#FFFFFF;}
	.st21{fill-rule:evenodd;clip-rule:evenodd;fill:#F98238;}
	.st22{filter:url(#Adobe_OpacityMaskFilter);}
	.st23{fill:url(#SVGID_00000147184257792333424850000016632381551129035136_);}
	.st24{mask:url(#SVGID_00000093149464572452322320000003216795561499669390_);fill-rule:evenodd;clip-rule:evenodd;fill:#ED1C24;}
	.st25{fill-rule:evenodd;clip-rule:evenodd;fill:#F5333F;}
	.st26{fill-rule:evenodd;clip-rule:evenodd;fill:#ED1C24;}
	.st27{fill-rule:evenodd;clip-rule:evenodd;fill:#F9A46E;}
	.st28{fill-rule:evenodd;clip-rule:evenodd;fill:#F47B26;}
	.st29{fill-rule:evenodd;clip-rule:evenodd;fill:#EB5433;}
	.st30{fill:#1A3282;}
	.st31{fill-rule:evenodd;clip-rule:evenodd;fill:#1A3282;}
	.st32{fill-rule:evenodd;clip-rule:evenodd;fill:#9D9FA2;}
	.st33{fill-rule:evenodd;clip-rule:evenodd;fill:#000303;}
	.st34{fill:#64003D;}
	.st35{fill:#536270;}
	.st36{fill-rule:evenodd;clip-rule:evenodd;fill:#64003D;}
	.st37{fill-rule:evenodd;clip-rule:evenodd;fill:#536270;}
	.st38{fill-rule:evenodd;clip-rule:evenodd;fill:#1A3382;}
	.st39{fill-rule:evenodd;clip-rule:evenodd;fill:#29387E;}
	.st40{fill-rule:evenodd;clip-rule:evenodd;fill:#F37021;}
	.st41{fill-rule:evenodd;clip-rule:evenodd;fill:#005C32;}
	.st42{fill-rule:evenodd;clip-rule:evenodd;fill:#D2AB67;}
	
		.st43{clip-path:url(#SVGID_00000157278753943277925630000016520694778036599700_);fill:url(#SVGID_00000083782302226593970900000005024067197325796015_);}
	
		.st44{clip-path:url(#SVGID_00000140701738649132140930000001873379745955090357_);fill:url(#SVGID_00000142872489624725841960000014117566124304391296_);}
	
		.st45{clip-path:url(#SVGID_00000100341747391646901330000017842577281482737823_);fill:url(#SVGID_00000169524389570280670670000017567390914026267278_);}
	.st46{fill-rule:evenodd;clip-rule:evenodd;fill:#00AEEF;}
	.st47{fill-rule:evenodd;clip-rule:evenodd;fill:#EC008C;}
	.st48{fill-rule:evenodd;clip-rule:evenodd;fill:#FFF200;}
	.st49{fill:#A7AAAC;}
	.st50{fill-rule:evenodd;clip-rule:evenodd;fill:#5C5B5B;}
	.st51{fill:#9D9D9F;}
	.st52{fill:#F04D23;}
	.st53{fill-rule:evenodd;clip-rule:evenodd;fill:#2E3192;}
	.st54{fill-rule:evenodd;clip-rule:evenodd;fill:#C4312D;}
	.st55{fill:#552715;}
	.st56{fill:#010101;}
	.st57{fill:#E31E2E;}
	.st58{fill:url(#SVGID_00000124141780796721388300000003605652893916420286_);}
	.st59{fill:url(#SVGID_00000119830471522139853580000014551461694645772439_);}
	.st60{clip-path:url(#SVGID_00000081632838325269157700000002151056915972147850_);}
	.st61{clip-path:url(#SVGID_00000084496471491084348460000005357634828122859955_);}
	.st62{clip-path:url(#SVGID_00000145060892913925780620000016263806746266005914_);}
	.st63{clip-path:url(#SVGID_00000109739252290224783400000008110923310178337930_);}
	.st64{clip-path:url(#SVGID_00000003804004059961045380000010097533245067706036_);}
	.st65{clip-path:url(#SVGID_00000175321058441003533420000012492085643750153640_);}
	.st66{clip-path:url(#SVGID_00000137810194356660150880000009959956450869274554_);}
	.st67{clip-path:url(#SVGID_00000160168432254509858900000013345237720814822041_);}
	.st68{clip-path:url(#SVGID_00000084491138752111002870000005944432763675848629_);}
	.st69{clip-path:url(#SVGID_00000047739253824569209790000017057489261556962478_);}
	.st70{clip-path:url(#SVGID_00000091709922442072743580000003482333143460357041_);}
	.st71{fill:#2650A1;}
	.st72{fill:url(#SVGID_00000103963927542425562710000005956560541633037976_);}
	.st73{fill:#FEFEFE;}
	.st74{fill:#FDFDFD;}
	.st75{fill:#FCFCFC;}
	.st76{fill:#FBFBFB;}
	.st77{fill:#FAFAFA;}
	.st78{fill:#F9F9F9;}
	.st79{fill:#F8F8F8;}
	.st80{fill:#F7F7F7;}
	.st81{fill:#F6F6F6;}
	.st82{fill:#F5F5F5;}
	.st83{fill:#F4F4F4;}
	.st84{fill:#F3F3F3;}
	.st85{fill:#F2F2F2;}
	.st86{fill:#F1F1F1;}
	.st87{fill:#F0F0F0;}
	.st88{fill:#EFEFEF;}
	.st89{fill:#EEEEEE;}
	.st90{fill:#EDEDED;}
	.st91{fill:#ECECEC;}
	.st92{fill:#EBEBEB;}
	.st93{fill:#EAEAEA;}
	.st94{fill:#E9E9E9;}
	.st95{fill:#E8E8E8;}
	.st96{fill:#E7E7E7;}
	.st97{fill:#E6E6E6;}
	.st98{fill:#E5E5E5;}
	.st99{fill:#E4E4E4;}
	.st100{fill:#E3E3E3;}
	.st101{fill:#E2E2E2;}
	.st102{fill:#E1E1E1;}
	.st103{fill:#E0E0E0;}
	.st104{fill:#DFDFDF;}
	.st105{fill:#DEDEDE;}
	.st106{fill:#DDDDDD;}
	.st107{fill:#DCDCDC;}
	.st108{fill:#DBDBDB;}
	.st109{fill:#DADADA;}
	.st110{fill:#D9D9D9;}
	.st111{fill:#D92231;}
	.st112{fill:url(#SVGID_00000181806063486347862300000005370671814195306895_);}
	.st113{fill:url(#SVGID_00000065033507040313051220000010569477791243120302_);}
	.st114{opacity:0.8;}
	.st115{fill:url(#SVGID_00000006698398310299118590000009153169059955671484_);}
	.st116{fill:url(#SVGID_00000097481546389494385790000010473624636587120270_);}
	.st117{fill-rule:evenodd;clip-rule:evenodd;fill:#010101;}
	.st118{fill:#80A845;}
	.st119{fill-rule:evenodd;clip-rule:evenodd;fill:#80A845;}
	.st120{fill:url(#SVGID_00000160173164865903229790000000293572135923723410_);}
	.st121{fill-rule:evenodd;clip-rule:evenodd;fill:#04984A;}
	.st122{fill-rule:evenodd;clip-rule:evenodd;fill:url(#SVGID_00000059301085304291533670000005524417027604590216_);}
	.st123{fill:url(#SVGID_00000045588214873980503520000005927837440831703425_);}
	.st124{fill:url(#SVGID_00000096056257442102710000000015526220389172722596_);}
	.st125{fill:url(#SVGID_00000088832091601131894960000012986744019894461594_);}
	.st126{fill:url(#SVGID_00000152963007574436356530000015015506070577788340_);}
	.st127{fill:url(#SVGID_00000145026887070277918460000003579802926056671360_);}
	.st128{fill:url(#SVGID_00000181770618904302977070000001888467386962552715_);}
	.st129{fill:url(#SVGID_00000158724651394495190550000016344220030763658899_);}
	.st130{fill:url(#SVGID_00000102534937590073995660000016180920635032942745_);}
	.st131{fill:url(#SVGID_00000049202481413462576280000005665554840857552785_);}
	.st132{fill:url(#SVGID_00000145759109368570192280000017497491786194637232_);}
	.st133{fill:url(#SVGID_00000012435162016604081740000010054935464210126992_);}
	.st134{fill:url(#SVGID_00000026866274732203959740000004385032382104298650_);}
	.st135{fill:url(#SVGID_00000076572647706634018990000004865061559622274731_);}
	.st136{fill:url(#SVGID_00000104696964803916169530000014453894472239608219_);}
	.st137{fill-rule:evenodd;clip-rule:evenodd;fill:url(#SVGID_00000150802073722782530740000015897350004111742345_);}
	.st138{fill:#0A529D;}
	.st139{fill:url(#SVGID_00000049931253272903014650000016998958377033872049_);}
	.st140{fill:url(#SVGID_00000125595875456774397870000001211747722105093761_);}
	.st141{fill:url(#SVGID_00000040538423530201486340000007702428517596479142_);}
	.st142{fill:url(#SVGID_00000031179023553992697880000010374090251438156717_);}
	.st143{fill:url(#SVGID_00000147186631852292390280000010214166493259211659_);}
	.st144{fill:url(#SVGID_00000011726569633353429940000008791559906709906614_);}
	.st145{fill:url(#SVGID_00000005253269422288903210000007281462452972756879_);}
	.st146{fill:url(#SVGID_00000008141162588270660750000009797882421466821516_);}
	.st147{fill:url(#SVGID_00000042735741776338881550000011423690774235960240_);}
	.st148{fill:url(#SVGID_00000168110065540970179740000015376254662531013549_);}
	.st149{fill:url(#SVGID_00000058576849339228952250000008066249525102414520_);}
	.st150{fill:url(#SVGID_00000170964858874584447690000014248726141905621158_);}
	.st151{fill-rule:evenodd;clip-rule:evenodd;fill:url(#SVGID_00000018199062027669226780000017759101723293935293_);}
	.st152{fill:url(#SVGID_00000183938144328926018490000008532303106204039577_);}
	.st153{fill:url(#SVGID_00000078018028655671457140000005902073318571836295_);}
	.st154{fill:url(#SVGID_00000029763375375833457380000006888521229624169875_);}
	.st155{fill:url(#SVGID_00000058574064227388817510000009978335949081856185_);}
	.st156{fill:url(#SVGID_00000145766545727251294160000008482783953161040263_);}
	.st157{fill:url(#SVGID_00000166664994738887566850000003989984537785705145_);}
	.st158{fill:url(#SVGID_00000036210947356873703290000000628822264109010582_);}
	.st159{fill:url(#SVGID_00000015354345290969159250000018432961371681832893_);}
	.st160{fill:url(#SVGID_00000183224369425424500230000016024545748640327356_);}
	.st161{fill:url(#SVGID_00000115495699228072666330000001805646021166578830_);}
	.st162{fill:url(#SVGID_00000072281738362736061960000006354083210202682503_);}
	.st163{fill:url(#SVGID_00000127034928199839420780000016185411837537531776_);}
	.st164{fill:url(#SVGID_00000111875882230887187370000004289649033300296874_);}
	.st165{fill:url(#SVGID_00000160890005437217654130000010103703013391742648_);}
	.st166{fill:url(#SVGID_00000173877319931133761800000002574760707390768535_);}
	.st167{fill:url(#SVGID_00000169518275130532812730000016810686623635422108_);}
	.st168{fill:url(#SVGID_00000044880245764947258940000011610031226385371070_);}
	.st169{fill-rule:evenodd;clip-rule:evenodd;fill:url(#SVGID_00000078008160826755726780000015397223849963317655_);}
	.st170{fill:url(#SVGID_00000157992667214911626640000010638382067136229562_);}
	.st171{fill:url(#SVGID_00000005243811692039681210000008500005411970933155_);}
	.st172{fill:url(#SVGID_00000151527965214680127610000008340709980402102954_);}
	.st173{fill:url(#SVGID_00000157303477490914470140000013391104022041132713_);}
	.st174{fill:url(#SVGID_00000029724411675345658020000004980156236610733985_);}
	.st175{fill:url(#SVGID_00000107569465203519831750000000395613767060993667_);}
	.st176{fill:url(#SVGID_00000181767239439291194840000016597858589420982172_);}
	.st177{fill:url(#SVGID_00000047769267981781629830000009276077288700319142_);}
	.st178{fill:url(#SVGID_00000109008864100727265740000000206142743047955080_);}
	.st179{fill:url(#SVGID_00000140000509147471482890000009274714949577595273_);}
	.st180{fill:url(#SVGID_00000179638034377106699800000012946539641599363479_);}
	.st181{fill:url(#SVGID_00000067925879570122248390000014555650784921413055_);}
	.st182{fill:url(#SVGID_00000177480300445710534960000014201867678494130619_);}
	.st183{fill:url(#SVGID_00000085249031782627417480000001580225095169186950_);}
	.st184{fill-rule:evenodd;clip-rule:evenodd;fill:url(#SVGID_00000167368740205009977750000013364593395931424928_);}
	.st185{fill:url(#SVGID_00000017489074440353361530000017347715677831000467_);}
	.st186{fill:url(#SVGID_00000015317919947618939270000001581145644314426785_);}
	.st187{fill:url(#SVGID_00000113313642947381841220000016202998081729006221_);}
	.st188{fill:url(#SVGID_00000173856933232168619560000003466642850583047840_);}
	.st189{fill:url(#SVGID_00000089558514729931997650000012007894027999996590_);}
	.st190{fill:url(#SVGID_00000127760046845936491740000002673564433966267020_);}
	.st191{fill:url(#SVGID_00000031911760041876682970000007100643399559326851_);}
	.st192{fill:url(#SVGID_00000046311644711417392420000009288705891088144779_);}
	.st193{fill:url(#SVGID_00000170995461583592168080000001957713694895787949_);}
	.st194{fill:url(#SVGID_00000182525099277587716480000009620859865353636794_);}
	.st195{fill:url(#SVGID_00000131362720249919178000000013067966504612107699_);}
	.st196{fill:url(#SVGID_00000122712327600650484710000004270376237982373778_);}
	.st197{fill:url(#SVGID_00000026123822962798449070000001834962853894152889_);}
	.st198{fill:url(#SVGID_00000148634199178508784640000005291940594388538012_);}
	.st199{fill:url(#SVGID_00000153702109821748434490000012335853770050352818_);}
	.st200{fill:url(#SVGID_00000025441754736418426930000003231419017747796652_);}
	.st201{fill:url(#SVGID_00000072281008599228459000000018317172407105861051_);}
	.st202{fill:url(#SVGID_00000176024143121419621970000008727565966256298144_);}
	.st203{fill:url(#SVGID_00000134946871922989325710000013381553015387878063_);}
	.st204{fill-rule:evenodd;clip-rule:evenodd;fill:url(#SVGID_00000016058083075998688560000016172202138390184855_);}
	.st205{fill:url(#SVGID_00000088836449288048611400000010827840383460455310_);}
	.st206{fill:url(#SVGID_00000090261041371308981690000005603776323600640930_);}
	.st207{fill:url(#SVGID_00000038405675494668589590000010764883163563985820_);}
	.st208{fill:url(#SVGID_00000037694091615375569170000000551804542009866655_);}
	.st209{fill:url(#SVGID_00000152947817832336206510000007110952886694397834_);}
	.st210{fill:url(#SVGID_00000134221145715063837470000017744199730751000485_);}
	.st211{fill:url(#SVGID_00000176044814124009491820000009604975820265941912_);}
	.st212{fill:url(#SVGID_00000101817223924994928070000009038410913441499301_);}
	.st213{fill:url(#SVGID_00000095311303424362111370000003977155398055625857_);}
	.st214{fill:url(#SVGID_00000138545350495650875300000008373891041103087501_);}
	.st215{fill:url(#SVGID_00000066473899545164477120000014251395768850131862_);}
	.st216{fill:url(#SVGID_00000036243494694840066150000009478121163846584243_);}
	.st217{fill:url(#SVGID_00000065065629996947041560000003076105185302047411_);}
	.st218{fill:url(#SVGID_00000077310057163199935330000018343063501779824530_);}
	.st219{fill:url(#SVGID_00000048479907088189118410000014016234935162683265_);}
	.st220{fill:url(#SVGID_00000086682840040155025450000014943208488871141003_);}
	.st221{fill-rule:evenodd;clip-rule:evenodd;fill:url(#SVGID_00000026869272129532453060000008481546308813297818_);}
	.st222{fill:url(#SVGID_00000031918139305362556530000015123013080793901714_);}
	.st223{fill:url(#SVGID_00000180362037237911730230000001877358828612812701_);}
	.st224{fill:url(#SVGID_00000000914208450225283840000010785034808578818727_);}
	.st225{fill:url(#SVGID_00000090274417849748188620000001622779205828094373_);}
	.st226{fill:url(#SVGID_00000057858088516892975620000007743880416110045119_);}
	.st227{fill:url(#SVGID_00000069369990807206176150000000359812351652206984_);}
	.st228{fill:url(#SVGID_00000085966689167215545580000013335128108132049848_);}
	.st229{fill:url(#SVGID_00000016792734949696930090000018409683336076852111_);}
	.st230{fill:url(#SVGID_00000021829741965562511890000018398157794626824328_);}
	.st231{fill:url(#SVGID_00000134226457164708929640000014507403661381270718_);}
	.st232{fill:url(#SVGID_00000026846336147080178020000010749553955555727773_);}
	.st233{fill:url(#SVGID_00000173840690553771695410000011785405665504515202_);}
	.st234{fill:url(#SVGID_00000121255734726861790680000003807919303204174776_);}
	.st235{fill:url(#SVGID_00000114764285104535645740000017461774075535296685_);}
	.st236{fill:url(#SVGID_00000038404300394622255980000001696725692176464279_);}
	.st237{fill-rule:evenodd;clip-rule:evenodd;fill:url(#SVGID_00000103962270865145138120000005682398669990494367_);}
	.st238{fill:url(#SVGID_00000140716688863819478890000018080522064713794993_);}
	.st239{fill:url(#SVGID_00000048473182302817332230000001451137637556626827_);}
	.st240{fill:url(#SVGID_00000139272339935809881610000004026123088100839324_);}
	.st241{fill:url(#SVGID_00000157307431214514014260000001924440907549253025_);}
	.st242{fill:url(#SVGID_00000042003249411422745260000000333691165562832813_);}
	.st243{fill:url(#SVGID_00000043451215081216471760000005837112898471414975_);}
	.st244{fill:url(#SVGID_00000084504744899145611940000005844766383805679518_);}
	.st245{fill:url(#SVGID_00000175300476767445463850000008258432978557012643_);}
	.st246{fill:url(#SVGID_00000091733232679780767840000011297017753121875885_);}
	.st247{fill:url(#SVGID_00000140719767547392990040000016359949342590711727_);}
	.st248{fill:url(#SVGID_00000059996709453358623930000004473129269333234848_);}
	.st249{fill:url(#SVGID_00000025415402302526566930000017194697087729165184_);}
	.st250{fill:url(#SVGID_00000050631488588062475650000016830378030372967051_);}
	.st251{fill:url(#SVGID_00000141426142233730902320000010292404942736696760_);}
	.st252{fill:url(#SVGID_00000176730917614558639080000005332855647256121260_);}
	.st253{fill-rule:evenodd;clip-rule:evenodd;fill:url(#SVGID_00000072969133319721374140000013997806181916729010_);}
	.st254{fill:url(#SVGID_00000072246733460417632830000014189597345845547665_);}
	.st255{fill:url(#SVGID_00000175296231204275641180000002005690724689039032_);}
	.st256{fill:url(#SVGID_00000085241630457456929880000002492232885075024777_);}
	.st257{fill:url(#SVGID_00000079447604442375267130000001197712230950205332_);}
	.st258{fill:url(#SVGID_00000089571590685185741040000003052356871506297259_);}
	.st259{fill:url(#SVGID_00000163788652710803217220000005725419202730046104_);}
	.st260{fill:url(#SVGID_00000109729562762362907330000003029834332887296146_);}
	.st261{fill:url(#SVGID_00000009552338072929873910000005653192180760308412_);}
	.st262{fill:url(#SVGID_00000118366415589928526120000006517507984572267192_);}
	.st263{fill:url(#SVGID_00000167383119396806534440000015121141467861917596_);}
	.st264{fill:url(#SVGID_00000124842136695165859660000017758077105801934735_);}
	.st265{fill:url(#SVGID_00000027597650631296018810000001875821538970621848_);}
	.st266{fill:url(#SVGID_00000011715739156589592050000008265524342015569041_);}
	.st267{fill:url(#SVGID_00000120557364074424016210000001448650732063314613_);}
	.st268{fill:url(#SVGID_00000044148264047373634110000004303262579912483512_);}
	.st269{fill-rule:evenodd;clip-rule:evenodd;fill:url(#SVGID_00000174575527425011647990000006117256899934328245_);}
	.st270{fill:url(#SVGID_00000115498964142375362220000007545010218965644965_);}
	.st271{fill:url(#SVGID_00000062897007537822942130000004918602936472896950_);}
	.st272{fill:url(#SVGID_00000029746695113255173280000002125238925907355024_);}
	.st273{fill:url(#SVGID_00000072260541491657131790000003428769069483494331_);}
	.st274{fill:url(#SVGID_00000080180193167887584490000006122567341148342679_);}
	.st275{fill:url(#SVGID_00000091728725124975192760000010958065716354812848_);}
	.st276{fill:url(#SVGID_00000047027137833572786210000014821740672871225276_);}
	.st277{fill:url(#SVGID_00000078009024599767464480000012033369276867528611_);}
	.st278{fill:url(#SVGID_00000111178244814851017370000006512932564487623577_);}
	.st279{fill:url(#SVGID_00000134243454113514317450000007820626353371386762_);}
	.st280{fill:url(#SVGID_00000039125781992312558520000015715775815965017791_);}
	.st281{fill:url(#SVGID_00000116956833086055040520000000506875115924115365_);}
	.st282{fill:url(#SVGID_00000095304979236959114410000014763067987111011753_);}
	.st283{fill:url(#SVGID_00000021119520161425356110000011215234379399558793_);}
	.st284{fill:url(#SVGID_00000111913773203534845650000005962953951033366457_);}
	.st285{fill-rule:evenodd;clip-rule:evenodd;fill:url(#SVGID_00000075153106523080910440000016259858623990126483_);}
	.st286{fill:url(#SVGID_00000168815704100272864800000014190527084206068644_);}
	.st287{fill:url(#SVGID_00000118391040806272687800000004940056440023765692_);}
	.st288{fill:url(#SVGID_00000153669994694935441290000003283298356050590609_);}
	.st289{fill:url(#SVGID_00000057841395575081321730000001050045681886410149_);}
	.st290{fill:url(#SVGID_00000069397135307697148470000007169361360195848878_);}
	.st291{fill:url(#SVGID_00000092424009778157637280000006059113762165586092_);}
	.st292{fill:url(#SVGID_00000077293698643197700910000013041628355431425200_);}
	.st293{fill:url(#SVGID_00000052814251826989013180000006763274818944988600_);}
	.st294{fill:url(#SVGID_00000111175813088374652490000018131774481310486932_);}
	.st295{fill:url(#SVGID_00000046328038201974350890000015704314945982232194_);}
	.st296{fill:url(#SVGID_00000127731820446317695920000007152387952540937653_);}
	.st297{fill:url(#SVGID_00000096750091942944511770000011601553795682565562_);}
	.st298{fill:url(#SVGID_00000176011436754356854560000001266100245390630308_);}
	.st299{fill:url(#SVGID_00000005224895012577134160000006340786260390671286_);}
	.st300{fill:url(#SVGID_00000062912160395060677460000017231237260990850708_);}
	.st301{fill:url(#SVGID_00000161614017493666985980000014574779501331795631_);}
	.st302{fill:url(#SVGID_00000141450737873022864460000009713847980188539814_);}
	.st303{fill:url(#SVGID_00000093876862664697527600000002560358657828226222_);}
	.st304{fill-rule:evenodd;clip-rule:evenodd;fill:url(#SVGID_00000176745438719959758250000006114179454809800850_);}
	.st305{fill:url(#SVGID_00000043435862696876130200000017036177060905583800_);}
	.st306{fill:url(#SVGID_00000085959756960589986720000014735812016566983340_);}
	.st307{fill:url(#SVGID_00000008850219440293227420000012520358375007040929_);}
	.st308{fill:url(#SVGID_00000023273282378752504080000006114472311870136996_);}
	.st309{fill:url(#SVGID_00000157273661996935758720000007400939219541510555_);}
	.st310{fill:url(#SVGID_00000069357039213070351170000001822037824058150796_);}
	.st311{fill:url(#SVGID_00000141451567855747610190000001034875507805329596_);}
	.st312{fill:url(#SVGID_00000073000678193851213860000004780525913091569061_);}
	.st313{fill:url(#SVGID_00000152985256152048750150000001797310306508380297_);}
	.st314{fill:url(#SVGID_00000176033468534305637270000005867085266364066973_);}
	.st315{fill:url(#SVGID_00000162339908427071245030000000327921766326724255_);}
	.st316{fill:url(#SVGID_00000060741085069679959590000006997461561339131051_);}
	.st317{fill:url(#SVGID_00000070112138163025277630000016251105259016615065_);}
	.st318{fill:url(#SVGID_00000035509895026261004550000016812125807907384968_);}
	.st319{fill:url(#SVGID_00000124847014903902629940000010629273225726315425_);}
	.st320{fill:url(#SVGID_00000033335196014772738630000017379679925082582195_);}
	.st321{fill:url(#SVGID_00000152953219748664564380000017464696953976340642_);}
	.st322{fill:url(#SVGID_00000109020679710436741170000001478466111689255867_);}
	.st323{fill:url(#SVGID_00000042720924435503315710000017565247878694239926_);}
	.st324{fill:url(#SVGID_00000032622772418762433320000000744391920485887873_);}
	.st325{fill-rule:evenodd;clip-rule:evenodd;fill:url(#SVGID_00000168824091714309001000000006288879159650016948_);}
	.st326{fill:url(#SVGID_00000013150911612028148720000000587212292685068984_);}
	.st327{fill:url(#SVGID_00000106120670728627046090000001494512144223473074_);}
	.st328{fill:url(#SVGID_00000105390937595136579540000015510085637188847494_);}
	.st329{fill:url(#SVGID_00000083061652450011213660000010332329117129059487_);}
	.st330{fill:url(#SVGID_00000041994711790325175900000002698376012708128898_);}
	.st331{fill:url(#SVGID_00000152957704521890511450000011833109036692708520_);}
	.st332{fill:url(#SVGID_00000013898957366033765340000009577085122974793386_);}
	.st333{fill:url(#SVGID_00000043447692281702796750000009042910354504384410_);}
	.st334{fill:url(#SVGID_00000134949008342985083230000000521431134985826185_);}
	.st335{fill:url(#SVGID_00000082336790484522450440000010741207278139172529_);}
	.st336{fill:url(#SVGID_00000074400048993139376820000013297924163992302234_);}
	.st337{fill:url(#SVGID_00000016043807853070740570000000963108477371971981_);}
	.st338{fill:url(#SVGID_00000079446308073110354820000003872100046343671224_);}
	.st339{fill:url(#SVGID_00000093170634480095835290000009069380671589938087_);}
	.st340{fill:url(#SVGID_00000173879166963178344380000003143077378428878721_);}
	.st341{fill:url(#SVGID_00000127760782373898241840000015537622032230428803_);}
	.st342{fill-rule:evenodd;clip-rule:evenodd;fill:url(#SVGID_00000000907397390366126690000007440265593073527193_);}
	.st343{fill:url(#SVGID_00000137836650576824090030000006063147546469272208_);}
	.st344{fill:url(#SVGID_00000122000009270670143850000016098438539172629636_);}
	.st345{fill:url(#SVGID_00000155128038881738188730000016222743365865878165_);}
	.st346{fill:url(#SVGID_00000118368160814911034330000001708432092514332082_);}
	.st347{fill:url(#SVGID_00000106107960133943812880000009986993332068567476_);}
	.st348{fill:url(#SVGID_00000145055381095009991500000012101852987065051832_);}
	.st349{fill:url(#SVGID_00000120542527077516763500000006231687382422687142_);}
	.st350{fill:url(#SVGID_00000031902877300315670220000005227819977037148035_);}
	.st351{fill:url(#SVGID_00000152959564412198402470000004840296717828043154_);}
	.st352{fill:url(#SVGID_00000109744622982858018530000017114574795457522074_);}
	.st353{fill:url(#SVGID_00000027605870659675311750000014983861633258114239_);}
	.st354{fill:url(#SVGID_00000064326405553641250870000010023734538075649194_);}
	.st355{fill:url(#SVGID_00000031187286505078982250000013213164699721969597_);}
	.st356{fill:url(#SVGID_00000090276493756817447420000011845003893009810073_);}
	.st357{fill:url(#SVGID_00000050653995544397394860000008340538116970436013_);}
	.st358{fill:url(#SVGID_00000114040240157843946160000013285367988357862815_);}
	.st359{fill:url(#SVGID_00000152261838500652120860000018231523465608632964_);}
	.st360{fill:url(#SVGID_00000154392576516896761890000008182745784983845035_);}
	.st361{fill:url(#SVGID_00000019648847208916158320000012570276938845133986_);}
	.st362{fill:url(#SVGID_00000169550160134782501360000003838174355301802674_);}
	.st363{fill:#C1282D;}
	.st364{fill-rule:evenodd;clip-rule:evenodd;fill:url(#SVGID_00000094602280817931333420000012849253573866407343_);}
	.st365{fill:url(#SVGID_00000147911755039839268670000011467635871306165406_);}
	.st366{fill:url(#SVGID_00000064354632774371652650000003805420584851442337_);}
	.st367{fill:url(#SVGID_00000176021784682413941690000003874609156322944136_);}
	.st368{fill:url(#SVGID_00000114040318958568869390000003790875942897960628_);}
	.st369{fill:url(#SVGID_00000068652148329698794970000003779874731813085333_);}
	.st370{fill:url(#SVGID_00000010994954443914297930000010517710414496010681_);}
	.st371{fill:url(#SVGID_00000105398907957866863860000007103988241988545667_);}
	.st372{fill:url(#SVGID_00000084510427474970805530000018080661371369116559_);}
	.st373{fill:url(#SVGID_00000048491202797092153840000018321108630746943422_);}
	.st374{fill:url(#SVGID_00000177485028046087326000000013305131935045272223_);}
	.st375{fill:url(#SVGID_00000136382633866585336890000009813612214102541468_);}
	.st376{fill:url(#SVGID_00000158727161031573176070000001066035984900044164_);}
	.st377{fill:url(#SVGID_00000139989082295661550650000012531909820608000653_);}
	.st378{fill:url(#SVGID_00000047746733152848754460000018101552465026993801_);}
	.st379{fill:url(#SVGID_00000163074260575657413350000015302012316435920034_);}
	.st380{fill:url(#SVGID_00000136410484230166104600000010542588535827268224_);}
	.st381{fill-rule:evenodd;clip-rule:evenodd;fill:url(#SVGID_00000057114247050326587810000012730433470030776457_);}
	.st382{fill:url(#SVGID_00000028302270876930796100000006381793087791391159_);}
	.st383{fill:url(#SVGID_00000127726873305271697140000009430740693811648146_);}
	.st384{fill:url(#SVGID_00000174602918386976627230000012312165482667114401_);}
	.st385{fill:url(#SVGID_00000049941912771154930920000005785832222228256901_);}
	.st386{fill:url(#SVGID_00000116232388591992348750000005101829196280110010_);}
	.st387{fill:url(#SVGID_00000116935151524650228150000004550687185599229371_);}
	.st388{fill:url(#SVGID_00000181786278338578759520000002694214383095074212_);}
	.st389{fill:url(#SVGID_00000122721117885840591990000009722819786363521960_);}
	.st390{fill:url(#SVGID_00000094616346436825799590000013900529253798245039_);}
	.st391{fill:url(#SVGID_00000111190467483830386130000010583944675716091317_);}
	.st392{fill:url(#SVGID_00000168091289645939598790000005341897995891364508_);}
	.st393{fill:url(#SVGID_00000161603877986678808160000008759033087745859724_);}
	.st394{fill:url(#SVGID_00000062184285817303505900000015387690449469379745_);}
	.st395{fill:url(#SVGID_00000162334652563190957930000008419398769954218418_);}
	.st396{fill:url(#SVGID_00000083082877373998554390000013363966652038488194_);}
	.st397{fill:url(#SVGID_00000030468909068702537010000013112764115827099014_);}
	.st398{fill:url(#SVGID_00000005228444877204194690000002775501414842234762_);}
	.st399{fill:url(#SVGID_00000131354566165287630870000010433397574179593602_);}
	.st400{fill:url(#SVGID_00000101800471318819659100000003608480571789995962_);}
	.st401{fill:url(#SVGID_00000116232730218188268920000005532870618161033149_);}
</style>
<g>
	<g>
		
			<linearGradient id="SVGID_00000072251218233246605040000015850739589335271594_" gradientUnits="userSpaceOnUse" x1="540" y1="692.2342" x2="540" y2="748.8726">
			<stop  offset="0" style="stop-color:#3E76BB"/>
			<stop  offset="0.9672" style="stop-color:#06509E"/>
		</linearGradient>
		<path style="fill:url(#SVGID_00000072251218233246605040000015850739589335271594_);" d="M177.14,737.18l15.28-16.9l-9.06-16.54
			h4.72l4.13,7.58c1.48,2.7,2.52,4.76,3.12,6.16c1.04-1.47,2.71-3.47,4.99-6l7.03-7.73h5.59l-15.48,17.28l8.76,16.17l-4.64-0.01
			l-5.19-9.79c-0.49-0.95-1.08-2.18-1.77-3.68c-0.73,1.02-1.7,2.2-2.89,3.53l-8.93,9.94H177.14L177.14,737.18z M225.42,734.17
			c-2.53,2.38-5.19,3.56-7.99,3.56c-2.08,0-3.79-0.64-5.14-1.92c-1.35-1.28-2.02-2.97-2.02-5.06c0-2.5,0.87-4.42,2.62-5.78
			c1.8-1.39,4.44-2.09,7.91-2.09l2.09-0.09c0.99,0,1.88-0.07,2.65-0.22c0.78-0.14,1.42-0.33,1.93-0.58c0.31-1.13,0.46-2.1,0.46-2.92
			c0-0.96-0.43-1.74-1.27-2.36c-0.86-0.62-2.09-0.93-3.73-0.93c-3.26,0-5.4,1.47-6.4,4.42l-3.99-0.37
			c1.65-4.96,5.18-7.44,10.57-7.44c2.59,0,4.69,0.58,6.31,1.74c1.62,1.15,2.42,2.67,2.42,4.56c0,1.29-0.18,2.79-0.54,4.49
			l-1.29,6.02c-0.21,1.04-0.36,1.92-0.46,2.62c-0.1,0.72-0.16,1.38-0.16,1.99c0,1.08,0.16,2.2,0.48,3.36h-3.99
			c-0.13-0.43-0.24-0.9-0.33-1.42C225.47,735.25,225.42,734.71,225.42,734.17L225.42,734.17z M226.88,724.91
			c-0.94,0.36-2.21,0.62-3.81,0.79l-2.27,0.23c-1.28,0-2.4,0.16-3.36,0.48c-0.85,0.27-1.51,0.65-1.97,1.14
			c-0.84,0.84-1.27,1.85-1.27,3.01c0,1.15,0.39,2.09,1.17,2.84c0.78,0.76,1.83,1.13,3.17,1.13c1.89,0,3.61-0.69,5.16-2.08
			C225.26,731.08,226.32,728.56,226.88,724.91L226.88,724.91z M239.53,712.96h5.87l2.18,19.32l10.77-19.32h5.76l-4.96,24.22h-3.91
			l4.04-19.53l-10.87,19.53h-3.51l-2.3-20.28l-4.14,20.28h-3.91L239.53,712.96L239.53,712.96z M265.2,737.18l4.84-24.22H274
			l-0.81,3.99c2.46-3.03,5.01-4.54,7.65-4.54c1.53,0,2.76,0.38,3.71,1.14c0.9,0.71,1.53,1.85,1.88,3.4
			c1.15-1.49,2.38-2.62,3.71-3.39c1.33-0.77,2.7-1.15,4.13-1.15c1.91,0,3.35,0.46,4.33,1.38c0.98,0.92,1.48,2.3,1.48,4.12
			c0,0.79-0.17,2.02-0.51,3.67l-3.13,15.6h-3.94l3.19-16.02c0.13-0.67,0.23-1.23,0.31-1.68c0.07-0.46,0.11-0.83,0.11-1.12
			c0-0.85-0.23-1.49-0.69-1.91c-0.46-0.43-1.15-0.64-2.06-0.64c-1.34,0-2.65,0.45-3.93,1.35c-1.28,0.91-2.22,1.99-2.82,3.23
			c-0.52,1.18-1.01,2.87-1.48,5.04l-2.37,11.75h-3.94l3.28-16.36c0.23-1.17,0.35-1.96,0.35-2.37c0-0.83-0.25-1.47-0.75-1.94
			c-0.49-0.48-1.1-0.71-1.81-0.71c-0.67,0-1.33,0.12-1.97,0.34c-0.65,0.23-1.31,0.58-1.98,1.07c-1.29,0.93-2.27,2.08-2.92,3.46
			c-0.6,1.29-1.12,2.97-1.55,5.04l-2.29,11.45H265.2L265.2,737.18z M330.3,712.96h3.99l-5.01,24.22h-3.97L330.3,712.96L330.3,712.96
			z M307.45,712.96h3.95l-1.98,9.37h4.22c2.67,0,4.58,0.2,5.73,0.62c1.14,0.41,2.04,1.16,2.71,2.25c0.67,1.09,1.01,2.3,1.01,3.64
			c0,0.81-0.11,1.59-0.33,2.35c-0.22,0.76-0.56,1.53-1.03,2.28c-0.87,1.46-1.97,2.44-3.29,2.96c-1.31,0.51-3.35,0.76-6.13,0.76
			h-9.87L307.45,712.96L307.45,712.96z M307.03,733.9h5.04c1.95,0,3.33-0.14,4.15-0.41c0.82-0.27,1.51-0.77,2.06-1.5
			c0.55-0.73,0.83-1.6,0.83-2.62c0-0.93-0.25-1.71-0.73-2.34c-0.49-0.63-1.05-1.01-1.69-1.15c-0.29-0.06-0.74-0.11-1.35-0.16
			c-0.6-0.05-1.31-0.07-2.13-0.07h-4.49L307.03,733.9L307.03,733.9z M340.3,712.96h3.91l-2.09,10.1h10.77l2.04-10.1h3.86
			l-4.88,24.22h-3.94l2.24-10.84h-10.72l-2.24,10.84h-3.9L340.3,712.96L340.3,712.96z M370.84,737.18l10.09-12.29l-5.79-11.93h4.37
			l1.97,4.31c0.84,1.92,1.5,3.46,1.96,4.63l6.68-8.94h4.82l-9.73,12.25l5.85,11.98l-4.37,0.01l-2.31-4.94
			c-0.29-0.64-0.56-1.24-0.81-1.8c-0.18-0.41-0.47-1.11-0.87-2.1l-6.9,8.83H370.84L370.84,737.18z M400.62,737.18l-3.82-24.22h3.82
			l2.01,13.34c0.21,1.34,0.48,3.72,0.8,7.15c0.75-1.75,1.72-3.72,2.89-5.92l7.76-14.57h4.17l-13.27,24.22l-2.75,9.58l-4,0.1
			L400.62,737.18L400.62,737.18z M420.69,712.96h3.88l-0.83,4.06c-0.53,2.55-0.79,4.35-0.79,5.4c0,1.05,0.39,1.85,1.15,2.4
			c0.78,0.55,1.93,0.82,3.47,0.82c1.86,0,3.59-0.34,5.19-1.02l2.39-11.65h3.93l-4.93,24.22h-3.95l1.9-9.28
			c-1.97,0.68-3.8,1.02-5.51,1.02c-2.34,0-4.2-0.52-5.55-1.57c-1.36-1.05-2.04-2.54-2.04-4.47c0-0.81,0.35-3.05,1.05-6.73
			L420.69,712.96L420.69,712.96z M453.03,727.15l0.83-4.13h12.05l-0.81,4.13H453.03L453.03,727.15z M477.62,737.18l18.14-33.44h5.05
			l5.28,33.44h-4.16l-1.54-9.62h-12.94l-5.13,9.63L477.62,737.18L477.62,737.18z M489.26,724.12h10.59l-1.24-8.4
			c-0.28-2.02-0.5-3.57-0.63-4.65c-0.18-1.48-0.26-2.7-0.26-3.68c-0.75,1.96-1.81,4.24-3.19,6.82L489.26,724.12L489.26,724.12z
			 M514.75,712.96h5.87l2.18,19.32l10.77-19.32h5.76l-4.95,24.22h-3.91l4.04-19.53l-10.87,19.53h-3.51l-2.3-20.28l-4.14,20.28h-3.91
			L514.75,712.96L514.75,712.96z M555.83,712.96h3.85l-2.15,10.35l0.31,0.03c0.83,0,1.62-0.37,2.38-1.11
			c0.75-0.74,1.71-2.11,2.88-4.12c1.27-2.17,2.41-3.57,3.45-4.2c1.04-0.63,2.1-0.95,3.21-0.95c0.77,0,1.58,0.14,2.44,0.41
			l-0.89,2.46c-0.53-0.21-0.96-0.32-1.31-0.32c-0.66,0-1.23,0.23-1.73,0.71c-0.49,0.48-1.13,1.45-1.89,2.91
			c-1.6,3.01-3.41,4.87-5.4,5.57c0.7,0.26,1.36,0.68,1.98,1.25c0.63,0.58,1.27,1.74,1.94,3.49l2.91,7.73h-4.07l-2.29-6.16
			c-0.69-1.92-1.33-3.21-1.92-3.88c-0.58-0.68-1.4-1.11-2.47-1.29l-2.36,11.34h-3.88l2.33-11.34c-0.4,0-0.78,0.06-1.13,0.18
			c-0.35,0.12-0.72,0.31-1.12,0.58c-0.71,0.47-1.89,1.83-3.53,4.08l-4.79,6.49l-4.79,0.01l6.13-8.07c1.79-2.36,3.71-3.82,5.76-4.4
			c-0.89-0.58-1.54-1.28-1.96-2.08c-0.43-0.81-0.84-2.29-1.22-4.45c-0.18-1.05-0.4-1.76-0.65-2.13c-0.25-0.37-0.63-0.55-1.12-0.55
			c-0.37,0-0.92,0.11-1.68,0.32l0.26-2.63c0.32-0.08,0.66-0.13,1.01-0.18c0.35-0.05,0.7-0.07,1.04-0.07c1.38,0,2.36,0.41,2.96,1.21
			c0.6,0.74,1.11,2.14,1.53,4.19c0.43,2.05,0.89,3.39,1.39,4.03c0.51,0.63,1.3,0.94,2.41,0.94L555.83,712.96L555.83,712.96z
			 M587.04,732.8c-2.78,3.29-5.6,4.93-8.45,4.93c-1.74,0-3.19-0.51-4.34-1.54c-1.15-1.03-1.72-2.34-1.72-3.93
			c0-1.1,0.25-2.87,0.74-5.32l2.79-13.98h3.96l-3.1,15.49c-0.26,1.28-0.4,2.3-0.4,3.05c0,0.93,0.26,1.64,0.78,2.14
			c0.54,0.48,1.32,0.71,2.34,0.71c1.51,0,2.95-0.51,4.31-1.53c1.36-1.02,2.36-2.23,3-3.65c0.6-1.35,1.16-3.26,1.66-5.75l2.09-10.46
			h3.95l-4.84,24.22h-3.64L587.04,732.8L587.04,732.8z M602.69,712.96h17.46l-4.93,24.22h-3.93l4.32-20.78h-9.74l-2.99,14.44
			c-0.51,2.48-1.19,4.2-2.05,5.18c-0.86,0.98-2.05,1.47-3.56,1.47c-0.46,0-0.97-0.02-1.51-0.07c-0.55-0.05-1.2-0.12-1.96-0.25
			l0.72-3.42l1.66,0.06c1,0,1.65-0.25,1.95-0.76c0.3-0.5,0.75-2.11,1.36-4.83L602.69,712.96L602.69,712.96z M621.26,737.18
			l4.84-24.22h3.96l-0.81,3.99c2.46-3.03,5.01-4.54,7.65-4.54c1.53,0,2.76,0.38,3.71,1.14c0.9,0.71,1.53,1.85,1.88,3.4
			c1.15-1.49,2.39-2.62,3.71-3.39c1.33-0.77,2.7-1.15,4.13-1.15c1.91,0,3.35,0.46,4.33,1.38c0.98,0.92,1.47,2.3,1.47,4.12
			c0,0.79-0.17,2.02-0.51,3.67l-3.13,15.6h-3.94l3.19-16.02c0.13-0.67,0.23-1.23,0.31-1.68c0.07-0.46,0.11-0.83,0.11-1.12
			c0-0.85-0.23-1.49-0.69-1.91c-0.46-0.43-1.15-0.64-2.06-0.64c-1.34,0-2.65,0.45-3.94,1.35c-1.28,0.91-2.22,1.99-2.82,3.23
			c-0.52,1.18-1.01,2.87-1.48,5.04l-2.37,11.75h-3.94l3.28-16.36c0.23-1.17,0.35-1.96,0.35-2.37c0-0.83-0.25-1.47-0.75-1.94
			c-0.49-0.48-1.1-0.71-1.81-0.71c-0.67,0-1.33,0.12-1.97,0.34c-0.65,0.23-1.31,0.58-1.98,1.07c-1.29,0.93-2.27,2.08-2.92,3.46
			c-0.6,1.29-1.12,2.97-1.55,5.04l-2.3,11.45H621.26L621.26,737.18z M686.36,712.96h3.99l-5.01,24.22h-3.97L686.36,712.96
			L686.36,712.96z M663.51,712.96h3.95l-1.98,9.37h4.22c2.68,0,4.58,0.2,5.73,0.62c1.14,0.41,2.04,1.16,2.71,2.25
			c0.67,1.09,1.01,2.3,1.01,3.64c0,0.81-0.11,1.59-0.33,2.35c-0.22,0.76-0.56,1.53-1.03,2.28c-0.87,1.46-1.97,2.44-3.29,2.96
			c-1.31,0.51-3.35,0.76-6.13,0.76h-9.87L663.51,712.96L663.51,712.96z M663.09,733.9h5.04c1.94,0,3.33-0.14,4.15-0.41
			c0.82-0.27,1.51-0.77,2.06-1.5c0.55-0.73,0.83-1.6,0.83-2.62c0-0.93-0.25-1.71-0.73-2.34c-0.49-0.63-1.05-1.01-1.69-1.15
			c-0.29-0.06-0.74-0.11-1.35-0.16c-0.6-0.05-1.31-0.07-2.13-0.07h-4.49L663.09,733.9L663.09,733.9z M696.36,712.96h3.91l-2.09,10.1
			h10.77l2.04-10.1h3.86l-4.88,24.22h-3.93l2.24-10.84h-10.72l-2.24,10.84h-3.9L696.36,712.96L696.36,712.96z M728.43,737.18
			l4.84-24.22h3.96l-0.81,3.99c2.46-3.03,5.01-4.54,7.64-4.54c1.53,0,2.77,0.38,3.71,1.14c0.9,0.71,1.53,1.85,1.88,3.4
			c1.15-1.49,2.39-2.62,3.71-3.39c1.33-0.77,2.7-1.15,4.13-1.15c1.91,0,3.35,0.46,4.33,1.38c0.98,0.92,1.47,2.3,1.47,4.12
			c0,0.79-0.17,2.02-0.51,3.67l-3.13,15.6h-3.94l3.19-16.02c0.13-0.67,0.23-1.23,0.31-1.68c0.07-0.46,0.11-0.83,0.11-1.12
			c0-0.85-0.23-1.49-0.69-1.91c-0.46-0.43-1.15-0.64-2.06-0.64c-1.34,0-2.65,0.45-3.94,1.35c-1.28,0.91-2.22,1.99-2.82,3.23
			c-0.52,1.18-1.01,2.87-1.48,5.04l-2.37,11.75h-3.94l3.28-16.36c0.23-1.17,0.35-1.96,0.35-2.37c0-0.83-0.25-1.47-0.75-1.94
			c-0.49-0.48-1.1-0.71-1.81-0.71c-0.67,0-1.33,0.12-1.98,0.34c-0.65,0.23-1.31,0.58-1.98,1.07c-1.29,0.93-2.27,2.08-2.92,3.46
			c-0.6,1.29-1.12,2.97-1.55,5.04l-2.3,11.45H728.43L728.43,737.18z M771.57,737.18l-3.82-24.22h3.82l2.01,13.34
			c0.21,1.34,0.48,3.72,0.8,7.15c0.75-1.75,1.72-3.72,2.89-5.92l7.76-14.57h4.17l-13.27,24.22l-2.75,9.58l-4,0.1L771.57,737.18
			L771.57,737.18z M794.68,712.96h17.46l-4.93,24.22h-3.93l4.32-20.78h-9.74l-2.99,14.44c-0.51,2.48-1.19,4.2-2.05,5.18
			c-0.86,0.98-2.05,1.47-3.56,1.47c-0.46,0-0.97-0.02-1.51-0.07c-0.55-0.05-1.2-0.12-1.96-0.25l0.72-3.42l1.66,0.06
			c1,0,1.65-0.25,1.95-0.76c0.3-0.5,0.75-2.11,1.36-4.83L794.68,712.96L794.68,712.96z M811.72,737.18l10.09-12.29l-5.79-11.93h4.37
			l1.97,4.31c0.84,1.92,1.5,3.46,1.96,4.63l6.68-8.94h4.82l-9.73,12.25l5.85,11.98l-4.37,0.01l-2.31-4.94
			c-0.29-0.64-0.56-1.24-0.8-1.8c-0.18-0.41-0.47-1.11-0.87-2.1l-6.9,8.83H811.72L811.72,737.18z M841.5,737.18l-3.82-24.22h3.82
			l2.01,13.34c0.21,1.34,0.48,3.72,0.8,7.15c0.75-1.75,1.72-3.72,2.89-5.92l7.76-14.57h4.17l-13.27,24.22l-2.75,9.58l-4,0.1
			L841.5,737.18L841.5,737.18z M863.85,737.18l-3.82-24.22h3.82l2.01,13.34c0.21,1.34,0.48,3.72,0.8,7.15
			c0.75-1.75,1.72-3.72,2.89-5.92l7.76-14.57h4.17l-13.27,24.22l-2.75,9.58l-4,0.1L863.85,737.18L863.85,737.18z M878.48,746.46
			l6.7-33.5h3.65l-0.68,3.37c2.32-2.62,4.68-3.92,7.05-3.92c2.18,0,4,0.85,5.47,2.55c1.46,1.69,2.19,4.1,2.19,7.22
			c0,4.26-1.14,7.92-3.43,10.97c-2.29,3.06-4.93,4.59-7.94,4.59c-2.76,0-4.9-1.47-6.45-4.42l-2.61,13.16H878.48L878.48,746.46z
			 M886.25,728.1c0,2.09,0.49,3.65,1.48,4.69c0.99,1.04,2.2,1.56,3.62,1.56c2.29,0,4.12-1.36,5.51-4.08
			c1.38-2.73,2.07-5.47,2.07-8.24c0-1.64-0.42-3.1-1.24-4.38c-0.83-1.28-2.04-1.92-3.64-1.92c-2.23,0-4.08,1.31-5.57,3.93
			C887,722.3,886.25,725.11,886.25,728.1L886.25,728.1z"/>
	</g>
	<g>
		<ellipse class="st11" cx="540" cy="460.37" rx="256.4" ry="127.23"/>
		<path class="st121" d="M783.62,499.99C750.03,550.87,653.68,587.6,540,587.6c-114.3,0-211.09-37.12-244.17-88.47l2.51-0.78
			l11.8-3.68l83.3-26.15l-7.84,21.79c-0.67,1.84,1.22,3.61,3.02,2.82l73.54-31.75l-24.93,36.89c-1.37,2,0.98,4.47,3.06,3.18
			l73.81-45.59v27.67c0,1.96,2.35,2.98,3.8,1.61l7.57-7.17l11.92,27.67c0.74,1.72,3.18,1.84,4.08,0.16l19.33-36.89l89.69,45.35
			c2.04,1.06,4.16-1.33,2.86-3.25l-23.64-35.44c-0.55-0.78-0.51-1.84,0.08-2.59l10.19-13.84l11.88,14.78
			c1.06,1.29,3.06,1.06,3.8-0.43l6.27-12.74l54.29,40.1c1.25,0.9,3.06,0.31,3.49-1.18l5.64-18.58l58.09,18.78
			c0.04,0,0.08,0.04,0.08,0.04C783.54,499.95,783.58,499.95,783.62,499.99z"/>
		
			<linearGradient id="SVGID_00000039115477041851991030000015720607278940002982_" gradientUnits="userSpaceOnUse" x1="434.7201" y1="337.7772" x2="687.4398" y2="626.457">
			<stop  offset="0" style="stop-color:#3E76BB"/>
			<stop  offset="1" style="stop-color:#06509E"/>
		</linearGradient>
		<path style="fill-rule:evenodd;clip-rule:evenodd;fill:url(#SVGID_00000039115477041851991030000015720607278940002982_);" d="
			M796.4,460.58c0,1.22-0.04,2.39-0.12,3.57c-0.04,1.02-0.12,2-0.24,2.98c-0.08,0.9-0.2,1.8-0.31,2.7c-0.08,0.63-0.2,1.25-0.31,1.88
			c-0.35,2.2-0.86,4.39-1.49,6.55c-0.2,0.78-0.43,1.57-0.67,2.31c-0.08,0.27-0.16,0.55-0.27,0.82c-0.31,0.98-0.67,1.96-1.02,2.9
			c-0.27,0.74-0.59,1.53-0.94,2.27c-0.08,0.24-0.2,0.51-0.31,0.74l-0.12-0.04l-0.08-0.04l-165.15-80.12
			c-1.02-0.47-2.23-0.16-2.86,0.78l-22.19,33.12l-59.11-72.64c-0.82-0.94-2.23-1.1-3.18-0.27l-82.12,68.83l-38.92-3.72
			c-0.63-0.08-1.25,0-1.84,0.27c-10.7,4.82-118.54,53.66-124.69,56.45c-0.27-0.51-0.51-0.98-0.71-1.49
			c-0.31-0.71-0.63-1.45-0.94-2.2c-0.63-1.49-1.22-3.02-1.69-4.51c-0.31-0.9-0.59-1.76-0.82-2.67c-0.9-2.9-1.53-5.84-1.96-8.82
			c-0.31-1.96-0.51-3.96-0.63-5.96c-0.08-1.22-0.12-2.47-0.12-3.72c0-70.36,114.78-127.44,256.4-127.44
			C681.63,333.14,796.4,390.21,796.4,460.58z"/>
		<g>
			<path class="st11" d="M397.75,528.18c0.35,0,0.69-0.07,1.01-0.21c0.33-0.14,0.53-0.34,0.62-0.6h0.75l-1.31,5.01
				c-0.22,0.7-0.86,1.05-1.93,1.05h-1.93l-3.66,15.57c-0.04,0.22,0.05,0.44,0.29,0.67c0.24,0.23,0.48,0.34,0.72,0.34l-0.23,0.75
				h-9.1c-0.7,0-1.05-0.35-1.05-1.05c0-0.09,0.02-0.26,0.07-0.52l3.7-15.77h-2.26c-0.35,0-0.64,0.08-0.87,0.24
				c-0.23,0.16-0.39,0.38-0.47,0.64h-0.82l1.31-5.23c0.09-0.31,0.26-0.53,0.52-0.67c0.26-0.14,0.68-0.21,1.24-0.21H397.75z"/>
			<path class="st11" d="M408.25,550.76c-0.57,0-0.99-0.09-1.26-0.28c-0.27-0.19-0.43-0.51-0.47-0.97l-0.29-3.34h-3.8l-1.34,2.68
				c-0.02,0.07-0.03,0.12-0.03,0.16c0,0.04-0.01,0.13-0.03,0.26c0,0.2,0.09,0.37,0.28,0.51c0.19,0.14,0.4,0.21,0.64,0.21l-0.16,0.75
				h-7.1c-0.92,0-1.37-0.36-1.37-1.08c0-0.2,0.05-0.4,0.16-0.62l9.62-18.65c0.07-0.13,0.1-0.29,0.1-0.49c0-0.24-0.1-0.46-0.31-0.67
				c-0.21-0.21-0.43-0.31-0.67-0.31l0.2-0.75h9.75c0.5,0,0.93,0.14,1.28,0.41c0.35,0.27,0.52,0.66,0.52,1.16l1.5,19.11
				c0,0.28,0.15,0.54,0.46,0.78c0.3,0.24,0.62,0.36,0.95,0.36l-0.16,0.75H408.25z M404.36,541.8h1.86l-0.26-3.66L404.36,541.8z"/>
			<path class="st11" d="M415.29,530.21c-0.04-0.39-0.19-0.7-0.44-0.93s-0.53-0.34-0.83-0.34l0.16-0.75h9.13
				c0.28,0,0.56,0.14,0.82,0.43c0.26,0.28,0.39,0.59,0.39,0.91l0.26,8.57l3.21-7.49l0.13-0.52c0-0.26-0.09-0.52-0.28-0.77
				c-0.19-0.25-0.4-0.38-0.64-0.38l0.16-0.75H434c0.39,0,0.71,0.15,0.96,0.44s0.38,0.6,0.38,0.93l-0.13,0.65l-9.62,20.55h-6.12
				c-0.5,0-0.92-0.11-1.24-0.33s-0.52-0.51-0.59-0.88L415.29,530.21z"/>
			<path class="st11" d="M443.2,550.76c-0.57,0-0.99-0.09-1.26-0.28c-0.27-0.19-0.43-0.51-0.47-0.97l-0.29-3.34h-3.8l-1.34,2.68
				c-0.02,0.07-0.03,0.12-0.03,0.16c0,0.04-0.01,0.13-0.03,0.26c0,0.2,0.09,0.37,0.28,0.51c0.19,0.14,0.4,0.21,0.64,0.21l-0.16,0.75
				h-7.1c-0.92,0-1.37-0.36-1.37-1.08c0-0.2,0.05-0.4,0.16-0.62l9.62-18.65c0.07-0.13,0.1-0.29,0.1-0.49c0-0.24-0.1-0.46-0.31-0.67
				c-0.21-0.21-0.43-0.31-0.67-0.31l0.2-0.75h9.75c0.5,0,0.93,0.14,1.28,0.41c0.35,0.27,0.52,0.66,0.52,1.16l1.5,19.11
				c0,0.28,0.15,0.54,0.46,0.78c0.3,0.24,0.62,0.36,0.95,0.36l-0.16,0.75H443.2z M439.31,541.8h1.86l-0.26-3.66L439.31,541.8z"/>
			<path class="st11" d="M473.8,550.76h-5.95c-0.65,0-1.21-0.09-1.65-0.26c-0.45-0.17-0.74-0.49-0.87-0.95l-3.34-8.08l-1.9,7.3
				l-0.07,0.56c0,0.22,0.09,0.39,0.28,0.51c0.19,0.12,0.43,0.18,0.74,0.18l-0.16,0.75h-7.36c-0.37,0-0.65-0.1-0.83-0.31
				c-0.19-0.21-0.28-0.49-0.28-0.83c0-0.13,0.02-0.31,0.07-0.52l4.45-19.14c0.04-0.24-0.04-0.47-0.26-0.69s-0.46-0.33-0.72-0.33
				l0.2-0.75h8.31c0.26,0,0.56,0.13,0.9,0.38c0.34,0.25,0.56,0.52,0.67,0.8l3.53,8.24l1.57-7.07c0.04-0.13,0.07-0.34,0.07-0.62
				c0-0.26-0.11-0.49-0.33-0.69c-0.22-0.2-0.46-0.29-0.72-0.29l0.2-0.75h7.33c0.35,0,0.62,0.12,0.8,0.36
				c0.19,0.24,0.28,0.51,0.28,0.82l-0.1,0.88L473.8,550.76z"/>
			<path class="st11" d="M508.39,528.15c1.46,0,2.59,0.38,3.39,1.14c0.8,0.76,1.19,1.72,1.19,2.88c0,0.17-0.02,0.37-0.05,0.59
				c-0.03,0.22-0.06,0.38-0.08,0.49c-0.5,2.4-1.53,3.85-3.08,4.35c0.63,0.39,1.1,0.82,1.39,1.29c0.29,0.47,0.44,1.16,0.44,2.08
				c0,0.83-0.16,1.98-0.49,3.47c-0.57,2.47-1.44,4.16-2.62,5.07c-1.07,0.83-2.72,1.24-4.94,1.24h-12.99c-0.37,0-0.65-0.1-0.83-0.31
				c-0.19-0.21-0.28-0.49-0.28-0.83c0-0.13,0.02-0.31,0.07-0.52l4.45-19.14c0.04-0.24-0.04-0.47-0.26-0.69s-0.46-0.33-0.72-0.33
				l0.2-0.75L508.39,528.15z M500.7,545.69c0.59,0,1-0.14,1.23-0.41c0.23-0.27,0.45-0.89,0.67-1.85c0.15-0.61,0.23-1.11,0.23-1.5
				c0-0.74-0.4-1.11-1.21-1.11h-0.91l-1.11,4.87H500.7z M503.02,536.46c0.37,0,0.63-0.1,0.78-0.31c0.15-0.21,0.29-0.58,0.42-1.13
				c0.13-0.55,0.2-0.94,0.2-1.18c0-0.57-0.32-0.85-0.95-0.85h-0.98l-0.78,3.47H503.02z"/>
			<path class="st11" d="M528.22,528.18c1.92,0,3.5,0.5,4.74,1.49c1.24,0.99,1.87,2.39,1.87,4.21c0,0.65-0.08,1.29-0.23,1.9
				l-1.96,8.31c-0.57,2.47-1.55,4.22-2.94,5.27c-1.22,0.94-2.9,1.41-5.04,1.41h-6.71c-2.05,0-3.57-0.46-4.56-1.39
				c-0.99-0.93-1.49-2.3-1.49-4.11c0-1.07,0.14-2.18,0.42-3.34l1.44-6.18c0.57-2.38,1.39-4.16,2.45-5.33
				c1.37-1.48,3.31-2.23,5.79-2.23H528.22z M521.15,543.76c-0.07,0.3-0.1,0.57-0.1,0.78c0,0.55,0.31,0.82,0.92,0.82
				c0.41,0,0.73-0.09,0.93-0.28c0.21-0.19,0.37-0.52,0.47-1l2.16-9.19c0.04-0.26,0.07-0.44,0.07-0.52c0-0.63-0.32-0.95-0.95-0.95
				c-0.7,0-1.17,0.44-1.41,1.31L521.15,543.76z"/>
			<path class="st11" d="M545.96,540.98l0.07-0.42c0-0.2-0.13-0.29-0.39-0.29c-0.26,0-0.39-0.11-0.39-0.33l0.07-0.42l0.95-3.89h7.23
				c0.52,0,0.93,0.16,1.23,0.47c0.29,0.32,0.44,0.67,0.44,1.06c0,0.5-0.04,0.92-0.13,1.24l-1.73,7.69c-0.39,1.74-0.99,2.96-1.8,3.65
				c-0.81,0.69-2.16,1.03-4.06,1.03h-7.92c-2.2,0-3.78-0.42-4.74-1.28c-0.85-0.76-1.27-1.93-1.27-3.5c0-1,0.17-2.22,0.52-3.66
				l1.8-7.89c0.46-2.05,1.34-3.63,2.65-4.74c1.2-1.03,2.57-1.54,4.12-1.54h13.38c-0.07,0.65-0.19,1.32-0.36,2
				c-0.17,0.68-0.37,1.23-0.57,1.67s-0.52,0.75-0.95,0.95c-0.42,0.2-0.91,0.29-1.46,0.29h-5.53c-0.61,0-1.09,0.15-1.42,0.44
				c-0.34,0.29-0.58,0.78-0.74,1.46l-2.13,9.16c-0.04,0.31-0.07,0.5-0.07,0.59c0,0.55,0.34,0.82,1.01,0.82
				c0.76,0,1.23-0.4,1.41-1.21L545.96,540.98z"/>
			<path class="st11" d="M571.05,528.18c2.2,0,3.81,0.57,4.81,1.7c0.89,1.03,1.34,2.53,1.34,4.52c0,0.76-0.07,1.62-0.21,2.57
				c-0.14,0.95-0.34,1.95-0.6,2.99c-1.03,4.34-2.03,7.23-3.03,8.65c-0.99,1.43-2.44,2.14-4.34,2.14h-14.59
				c-0.37,0-0.65-0.1-0.83-0.31c-0.19-0.21-0.28-0.49-0.28-0.83c0-0.13,0.02-0.31,0.07-0.52l4.45-19.14
				c0.04-0.24-0.04-0.47-0.26-0.69s-0.46-0.33-0.72-0.33l0.2-0.75H571.05z M564.64,545.36c0.46,0,0.81-0.13,1.05-0.39
				c0.24-0.26,0.44-0.71,0.59-1.34l1.9-8.15c0.09-0.37,0.13-0.72,0.13-1.05c0-0.68-0.39-1.01-1.18-1.01h-0.82l-2.78,11.94H564.64z"
				/>
			<path class="st11" d="M600.77,540.98l0.07-0.42c0-0.2-0.13-0.29-0.39-0.29c-0.26,0-0.39-0.11-0.39-0.33l0.07-0.42l0.95-3.89h7.23
				c0.52,0,0.93,0.16,1.23,0.47c0.29,0.32,0.44,0.67,0.44,1.06c0,0.5-0.04,0.92-0.13,1.24l-1.73,7.69c-0.39,1.74-0.99,2.96-1.8,3.65
				c-0.81,0.69-2.16,1.03-4.06,1.03h-7.92c-2.2,0-3.78-0.42-4.74-1.28c-0.85-0.76-1.27-1.93-1.27-3.5c0-1,0.17-2.22,0.52-3.66
				l1.8-7.89c0.46-2.05,1.34-3.63,2.65-4.74c1.2-1.03,2.57-1.54,4.12-1.54h13.38c-0.07,0.65-0.19,1.32-0.36,2s-0.37,1.23-0.57,1.67
				c-0.21,0.44-0.52,0.75-0.95,0.95c-0.42,0.2-0.91,0.29-1.46,0.29h-5.53c-0.61,0-1.09,0.15-1.42,0.44
				c-0.34,0.29-0.58,0.78-0.74,1.46l-2.13,9.16c-0.04,0.31-0.07,0.5-0.07,0.59c0,0.55,0.34,0.82,1.01,0.82
				c0.76,0,1.23-0.4,1.41-1.21L600.77,540.98z"/>
			<path class="st11" d="M628.52,544.54c0.15,0.26,0.36,0.49,0.62,0.67c0.26,0.18,0.56,0.28,0.88,0.28h0.95l-0.78,3.73
				c-0.22,1.02-1,1.54-2.36,1.54h-4.39c-0.57,0-1.06-0.15-1.47-0.44c-0.41-0.29-0.68-0.66-0.78-1.09l-1.9-6.68l-1.41,6.38
				l-0.03,0.33c0,0.22,0.09,0.4,0.28,0.54c0.18,0.14,0.42,0.21,0.7,0.21l-0.16,0.75h-9.06c-0.37,0-0.65-0.1-0.83-0.31
				c-0.19-0.21-0.28-0.49-0.28-0.83c0-0.13,0.02-0.31,0.07-0.52l4.45-19.14c0.04-0.24-0.04-0.47-0.26-0.69s-0.46-0.33-0.72-0.33
				l0.2-0.75h15.15c3.4,0,5.1,1.58,5.1,4.74c0,0.44-0.02,0.82-0.07,1.14c-0.11,0.57-0.19,1-0.23,1.31c-0.44,1.96-1.01,3.4-1.73,4.32
				c-0.72,0.92-1.74,1.53-3.07,1.83L628.52,544.54z M620.57,537.31h1.28c0.74,0,1.25-0.62,1.54-1.86c0.04-0.24,0.09-0.47,0.13-0.7
				c0.04-0.23,0.07-0.42,0.07-0.57c0-0.61-0.26-0.91-0.79-0.91h-1.27L620.57,537.31z"/>
			<path class="st11" d="M647.6,528.18c1.92,0,3.5,0.5,4.74,1.49c1.24,0.99,1.87,2.39,1.87,4.21c0,0.65-0.08,1.29-0.23,1.9
				l-1.96,8.31c-0.57,2.47-1.55,4.22-2.94,5.27c-1.22,0.94-2.9,1.41-5.04,1.41h-6.71c-2.05,0-3.57-0.46-4.56-1.39
				c-0.99-0.93-1.49-2.3-1.49-4.11c0-1.07,0.14-2.18,0.42-3.34l1.44-6.18c0.57-2.38,1.39-4.16,2.45-5.33
				c1.37-1.48,3.31-2.23,5.79-2.23H647.6z M640.53,543.76c-0.07,0.3-0.1,0.57-0.1,0.78c0,0.55,0.31,0.82,0.92,0.82
				c0.41,0,0.73-0.09,0.93-0.28c0.21-0.19,0.37-0.52,0.47-1l2.16-9.19c0.04-0.26,0.07-0.44,0.07-0.52c0-0.63-0.32-0.95-0.95-0.95
				c-0.7,0-1.17,0.44-1.41,1.31L640.53,543.76z"/>
			<path class="st11" d="M662.62,543.95c-0.04,0.22-0.07,0.35-0.07,0.39c0,0.48,0.37,0.72,1.11,0.72c0.41,0,0.71-0.07,0.9-0.21
				c0.19-0.14,0.33-0.44,0.44-0.9l3.24-14c0.04-0.22-0.04-0.44-0.26-0.67s-0.45-0.34-0.69-0.34l0.16-0.75h9.1
				c0.37,0,0.64,0.09,0.8,0.28c0.16,0.18,0.24,0.45,0.24,0.8l-0.07,0.49l-3.3,14.33c-0.57,2.49-1.49,4.24-2.78,5.27
				c-1.16,0.92-2.78,1.37-4.88,1.37h-7.49c-1.98,0-3.44-0.44-4.37-1.32c-0.93-0.88-1.39-2.19-1.39-3.91c0-1.05,0.16-2.25,0.49-3.6
				l2.78-11.94c0.04-0.22-0.04-0.44-0.26-0.67s-0.45-0.34-0.69-0.34l0.16-0.75h9.1c0.37,0,0.64,0.09,0.8,0.28
				c0.16,0.18,0.24,0.45,0.24,0.8l-0.07,0.49L662.62,543.95z"/>
			<path class="st11" d="M692.62,528.18c2.01,0,3.52,0.4,4.55,1.21c1.03,0.81,1.54,2.08,1.54,3.83c0,0.48-0.02,0.91-0.07,1.31
				c-0.04,0.39-0.14,0.88-0.29,1.47c-0.7,3.01-1.48,5-2.36,5.97c-0.87,0.97-2.3,1.46-4.29,1.46h-6.74l-1.21,5.14l-0.1,0.62
				c0,0.24,0.1,0.43,0.29,0.59c0.2,0.15,0.43,0.23,0.69,0.23l-0.2,0.75h-9.03c-0.37,0-0.65-0.1-0.83-0.31
				c-0.19-0.21-0.28-0.49-0.28-0.83c0-0.13,0.02-0.31,0.07-0.52l4.45-19.14c0.04-0.24-0.04-0.47-0.26-0.69s-0.46-0.33-0.72-0.33
				l0.2-0.75H692.62z M686.21,538.2h1.01c0.55,0,0.95-0.17,1.21-0.51c0.26-0.34,0.5-0.99,0.72-1.95c0.13-0.57,0.2-1.01,0.2-1.34
				c0-0.44-0.09-0.74-0.28-0.9c-0.18-0.16-0.46-0.24-0.83-0.24h-0.88L686.21,538.2z"/>
		</g>
	</g>
	<g>
		
			<linearGradient id="SVGID_00000009561428541003536420000000530544223811132055_" gradientUnits="userSpaceOnUse" x1="91.1927" y1="465.0574" x2="91.1927" y2="737.9891">
			<stop  offset="0" style="stop-color:#3E76BB"/>
			<stop  offset="1" style="stop-color:#06509E"/>
		</linearGradient>
		<path style="fill:url(#SVGID_00000009561428541003536420000000530544223811132055_);" d="M112.62,617.22
			c1.07,0,2.09-0.22,3.09-0.65c1-0.43,1.63-1.05,1.9-1.84h2.29l-3.99,15.25c-0.66,2.12-2.62,3.19-5.88,3.19h-5.88l-11.16,47.45
			c-0.13,0.66,0.17,1.34,0.9,2.04c0.73,0.7,1.46,1.05,2.19,1.05l-0.7,2.29H67.67c-2.13,0-3.19-1.07-3.19-3.19
			c0-0.26,0.07-0.79,0.2-1.59l11.26-48.04h-6.88c-1.07,0-1.94,0.25-2.64,0.75c-0.7,0.5-1.18,1.15-1.44,1.94h-2.49l3.98-15.95
			c0.27-0.93,0.8-1.61,1.59-2.04c0.8-0.43,2.06-0.65,3.79-0.65H112.62z"/>
		
			<linearGradient id="SVGID_00000117638743566514641970000004903914757904781214_" gradientUnits="userSpaceOnUse" x1="132.6691" y1="465.0574" x2="132.6691" y2="737.9891">
			<stop  offset="0" style="stop-color:#3E76BB"/>
			<stop  offset="1" style="stop-color:#06509E"/>
		</linearGradient>
		<path style="fill:url(#SVGID_00000117638743566514641970000004903914757904781214_);" d="M142.34,685.99
			c-1.73,0-3.01-0.28-3.84-0.85c-0.83-0.57-1.31-1.55-1.45-2.94l-0.9-10.17H124.6l-4.09,8.17c-0.07,0.2-0.1,0.37-0.1,0.5
			c0,0.13-0.04,0.4-0.1,0.8c0,0.6,0.28,1.11,0.85,1.54c0.57,0.43,1.21,0.65,1.94,0.65l-0.5,2.29h-21.63c-2.79,0-4.19-1.1-4.19-3.29
			c0-0.6,0.17-1.23,0.5-1.89l29.3-56.82c0.2-0.4,0.3-0.9,0.3-1.49c0-0.73-0.32-1.41-0.95-2.05c-0.63-0.63-1.31-0.94-2.04-0.94
			l0.6-2.29h29.7c1.53,0,2.82,0.42,3.89,1.25c1.06,0.83,1.59,2.01,1.59,3.54l4.58,58.21c0,0.87,0.47,1.66,1.4,2.4
			c0.93,0.73,1.9,1.1,2.89,1.1l-0.5,2.29H142.34z M130.48,658.68h5.68l-0.8-11.16L130.48,658.68z"/>
		
			<linearGradient id="SVGID_00000134219481771241198450000009346478684912525448_" gradientUnits="userSpaceOnUse" x1="204.0024" y1="465.0574" x2="204.0024" y2="737.9891">
			<stop  offset="0" style="stop-color:#3E76BB"/>
			<stop  offset="1" style="stop-color:#06509E"/>
		</linearGradient>
		<path style="fill:url(#SVGID_00000134219481771241198450000009346478684912525448_);" d="M225.88,617.11
			c4.45,0,7.89,1.17,10.31,3.49c2.43,2.32,3.64,5.25,3.64,8.77c0,0.54-0.05,1.13-0.15,1.8c-0.1,0.66-0.18,1.16-0.25,1.49
			c-1.53,7.31-4.65,11.73-9.37,13.26c1.93,1.2,3.34,2.51,4.24,3.94s1.35,3.54,1.35,6.33c0,2.52-0.5,6.05-1.5,10.56
			c-1.73,7.51-4.38,12.66-7.97,15.45c-3.26,2.52-8.27,3.79-15.05,3.79h-39.57c-1.13,0-1.98-0.31-2.54-0.94
			c-0.57-0.63-0.85-1.48-0.85-2.55c0-0.4,0.07-0.93,0.2-1.59l13.56-58.31c0.13-0.73-0.13-1.43-0.8-2.09
			c-0.66-0.66-1.4-0.99-2.19-0.99l0.6-2.29L225.88,617.11z M202.46,670.54c1.79,0,3.04-0.42,3.74-1.25c0.7-0.83,1.38-2.71,2.04-5.63
			c0.46-1.86,0.7-3.39,0.7-4.59c0-2.26-1.23-3.39-3.69-3.39h-2.79l-3.39,14.85H202.46z M209.53,642.43c1.13,0,1.93-0.31,2.39-0.94
			c0.47-0.63,0.9-1.78,1.3-3.44c0.4-1.66,0.6-2.85,0.6-3.59c0-1.73-0.96-2.59-2.89-2.59h-2.99l-2.39,10.56H209.53z"/>
		
			<linearGradient id="SVGID_00000162347556025387166880000002996454668177834938_" gradientUnits="userSpaceOnUse" x1="266.0709" y1="465.0574" x2="266.0709" y2="737.9891">
			<stop  offset="0" style="stop-color:#3E76BB"/>
			<stop  offset="1" style="stop-color:#06509E"/>
		</linearGradient>
		<path style="fill:url(#SVGID_00000162347556025387166880000002996454668177834938_);" d="M275.74,685.99
			c-1.73,0-3.01-0.28-3.84-0.85c-0.83-0.57-1.31-1.55-1.45-2.94l-0.9-10.17H258l-4.09,8.17c-0.07,0.2-0.1,0.37-0.1,0.5
			c0,0.13-0.04,0.4-0.1,0.8c0,0.6,0.28,1.11,0.85,1.54c0.57,0.43,1.21,0.65,1.94,0.65l-0.5,2.29h-21.63c-2.79,0-4.19-1.1-4.19-3.29
			c0-0.6,0.17-1.23,0.5-1.89l29.3-56.82c0.2-0.4,0.3-0.9,0.3-1.49c0-0.73-0.32-1.41-0.95-2.05s-1.31-0.94-2.04-0.94l0.6-2.29h29.7
			c1.53,0,2.82,0.42,3.89,1.25c1.06,0.83,1.59,2.01,1.59,3.54l4.58,58.21c0,0.87,0.47,1.66,1.4,2.4c0.93,0.73,1.9,1.1,2.89,1.1
			l-0.5,2.29H275.74z M263.88,658.68h5.68l-0.8-11.16L263.88,658.68z"/>
		
			<linearGradient id="SVGID_00000054231589216173300030000001217675675955611303_" gradientUnits="userSpaceOnUse" x1="342.9393" y1="465.0574" x2="342.9393" y2="737.9891">
			<stop  offset="0" style="stop-color:#3E76BB"/>
			<stop  offset="1" style="stop-color:#06509E"/>
		</linearGradient>
		<path style="fill:url(#SVGID_00000054231589216173300030000001217675675955611303_);" d="M338.45,655.69l-5.68,24.52l-0.1,0.8
			c0,0.73,0.33,1.36,1,1.9c0.66,0.53,1.36,0.79,2.09,0.79l-0.5,2.29h-27.81c-2.19,0-3.29-1.07-3.29-3.19c0-0.33,0.07-0.9,0.2-1.7
			l13.66-58.51c0.13-0.66-0.17-1.34-0.9-2.04c-0.73-0.7-1.46-1.05-2.19-1.05l0.7-2.29h27.71c2.13,0,3.19,1.07,3.19,3.19
			c0,0.26-0.07,0.79-0.2,1.59l-4.78,20.43h7.08l4.59-19.84c0.13-0.66-0.13-1.34-0.8-2.04c-0.67-0.7-1.36-1.05-2.09-1.05l0.5-2.29
			h27.71c1.13,0,1.94,0.28,2.44,0.85c0.5,0.57,0.75,1.38,0.75,2.44l-0.2,1.5l-13.56,58.61c-0.13,0.66,0.17,1.34,0.9,2.04
			c0.73,0.7,1.46,1.05,2.19,1.05l-0.7,2.29h-27.71c-2.12,0-3.19-1.07-3.19-3.19c0-0.26,0.07-0.79,0.2-1.59l5.88-25.52H338.45z"/>
		
			<linearGradient id="SVGID_00000144318373326636085740000003263072603321681854_" gradientUnits="userSpaceOnUse" x1="451.3648" y1="465.0574" x2="451.3648" y2="737.9891">
			<stop  offset="0" style="stop-color:#3E76BB"/>
			<stop  offset="1" style="stop-color:#06509E"/>
		</linearGradient>
		<path style="fill:url(#SVGID_00000144318373326636085740000003263072603321681854_);" d="M467.66,640.34
			c4.99,0,8.91,1.37,11.76,4.09c2.86,2.73,4.28,6.65,4.28,11.77c0,2.73-0.4,5.71-1.19,8.97c-0.8,3.26-1.76,6.28-2.89,9.08
			c-1.86,4.65-4.34,7.78-7.42,9.36c-3.09,1.6-7.59,2.4-13.51,2.4h-40.37c-1.13,0-1.97-0.31-2.54-0.94
			c-0.57-0.63-0.85-1.48-0.85-2.55c0-0.4,0.07-0.93,0.2-1.59l13.56-58.31c0.13-0.73-0.14-1.43-0.8-2.09
			c-0.66-0.66-1.39-0.99-2.19-0.99l0.6-2.29h61.5L485,628.18c-0.33,1.33-1.26,2.41-2.79,3.24c-1.53,0.83-3.06,1.25-4.59,1.25H454.5
			l-1.79,7.67H467.66z M445.93,670.04h3.29c1.59,0,2.74-0.5,3.44-1.49c0.7-1,1.44-3.06,2.24-6.18c0.4-1.73,0.6-3.16,0.6-4.29
			c0-2.19-1.03-3.29-3.09-3.29h-2.99L445.93,670.04z"/>
		
			<linearGradient id="SVGID_00000004518155457384302650000009139145083576298121_" gradientUnits="userSpaceOnUse" x1="521.0598" y1="465.0574" x2="521.0598" y2="737.9891">
			<stop  offset="0" style="stop-color:#3E76BB"/>
			<stop  offset="1" style="stop-color:#06509E"/>
		</linearGradient>
		<path style="fill:url(#SVGID_00000004518155457384302650000009139145083576298121_);" d="M535.86,617.22
			c5.85,0,10.66,1.51,14.45,4.53c3.79,3.03,5.69,7.29,5.69,12.81c0,1.99-0.23,3.92-0.7,5.78l-5.98,25.32
			c-1.73,7.51-4.72,12.86-8.97,16.05c-3.72,2.86-8.83,4.28-15.35,4.28h-20.43c-6.25,0-10.88-1.41-13.9-4.24
			c-3.02-2.82-4.53-6.99-4.53-12.51c0-3.26,0.43-6.65,1.3-10.17l4.38-18.84c1.73-7.25,4.22-12.66,7.47-16.25
			c4.19-4.52,10.07-6.78,17.64-6.78H535.86z M514.33,664.66c-0.2,0.93-0.3,1.73-0.3,2.39c0,1.66,0.93,2.49,2.79,2.49
			c1.26,0,2.21-0.28,2.84-0.85c0.63-0.56,1.11-1.58,1.45-3.04l6.58-28.01c0.13-0.79,0.2-1.33,0.2-1.59c0-1.93-0.96-2.89-2.89-2.89
			c-2.13,0-3.56,1.33-4.29,3.98L514.33,664.66z"/>
		
			<linearGradient id="SVGID_00000037666890059491742360000013708273208987402686_" gradientUnits="userSpaceOnUse" x1="587.1092" y1="465.0574" x2="587.1092" y2="737.9891">
			<stop  offset="0" style="stop-color:#3E76BB"/>
			<stop  offset="1" style="stop-color:#06509E"/>
		</linearGradient>
		<path style="fill:url(#SVGID_00000037666890059491742360000013708273208987402686_);" d="M585.12,678.41
			c-0.2,0.73-0.3,1.46-0.3,2.2c0,0.79,0.39,1.51,1.15,2.14s1.54,0.94,2.34,0.94l-0.5,2.29H559.5c-1.13,0-1.97-0.31-2.54-0.94
			c-0.57-0.63-0.85-1.48-0.85-2.55c0-0.4,0.07-0.93,0.2-1.59l13.56-58.31c0.13-0.73-0.13-1.43-0.8-2.09
			c-0.66-0.66-1.4-0.99-2.19-0.99l0.6-2.29h50.64l-2.59,11.16c-0.33,1.46-1.08,2.62-2.24,3.49c-1.17,0.86-2.51,1.29-4.04,1.29
			h-13.76L585.12,678.41z"/>
		
			<linearGradient id="SVGID_00000003819641080981904060000013479877116013194885_" gradientUnits="userSpaceOnUse" x1="631.5765" y1="465.0574" x2="631.5765" y2="737.9891">
			<stop  offset="0" style="stop-color:#3E76BB"/>
			<stop  offset="1" style="stop-color:#06509E"/>
		</linearGradient>
		<path style="fill:url(#SVGID_00000003819641080981904060000013479877116013194885_);" d="M660.08,666.95
			c0.33,2.06,1.26,3.09,2.79,3.09h2.49l-2.59,11.36c-0.46,1.93-1.4,3.23-2.79,3.89c-1.06,0.46-2.82,0.7-5.28,0.7h-52.83
			c-2.73,0-4.09-1.1-4.09-3.29l0.2-1.59l2.49-11.06h2.69c0.93,0,1.75-0.28,2.44-0.85c0.7-0.57,1.21-1.25,1.54-2.04l20.14-43.06
			l0.2-1.79c0-0.8-0.26-1.46-0.79-2c-0.54-0.53-1.2-0.79-2-0.79l0.5-2.29h24.12c1.4,0,2.58,0.38,3.54,1.14s1.51,1.72,1.65,2.84
			L660.08,666.95z M633.08,657.48l-4.89,12.56h5.68L633.08,657.48z"/>
		
			<linearGradient id="SVGID_00000113347415422950698900000006007200331602915498_" gradientUnits="userSpaceOnUse" x1="730.2844" y1="465.0574" x2="730.2844" y2="737.9891">
			<stop  offset="0" style="stop-color:#3E76BB"/>
			<stop  offset="1" style="stop-color:#06509E"/>
		</linearGradient>
		<path style="fill:url(#SVGID_00000113347415422950698900000006007200331602915498_);" d="M751.71,617.22
			c1.07,0,2.09-0.22,3.09-0.65c1-0.43,1.62-1.05,1.9-1.84h2.29L755,629.97c-0.66,2.12-2.62,3.19-5.88,3.19h-5.88l-11.16,47.45
			c-0.13,0.66,0.16,1.34,0.9,2.04c0.73,0.7,1.46,1.05,2.19,1.05l-0.7,2.29h-27.71c-2.13,0-3.19-1.07-3.19-3.19
			c0-0.26,0.07-0.79,0.2-1.59l11.26-48.04h-6.87c-1.07,0-1.94,0.25-2.64,0.75c-0.7,0.5-1.18,1.15-1.44,1.94h-2.49l3.98-15.95
			c0.26-0.93,0.8-1.61,1.59-2.04c0.8-0.43,2.06-0.65,3.79-0.65H751.71z"/>
		
			<linearGradient id="SVGID_00000086689429736743365570000002136584162587828624_" gradientUnits="userSpaceOnUse" x1="785.1177" y1="465.0574" x2="785.1177" y2="737.9891">
			<stop  offset="0" style="stop-color:#3E76BB"/>
			<stop  offset="1" style="stop-color:#06509E"/>
		</linearGradient>
		<path style="fill:url(#SVGID_00000086689429736743365570000002136584162587828624_);" d="M803.76,617.22
			c6.11,0,10.73,1.23,13.85,3.69c3.12,2.46,4.68,6.34,4.68,11.66c0,1.46-0.07,2.79-0.2,3.99c-0.13,1.2-0.43,2.69-0.9,4.48
			c-2.12,9.17-4.52,15.24-7.18,18.19c-2.65,2.95-7.01,4.44-13.05,4.44h-20.53l-3.69,15.65l-0.3,1.9c0,0.73,0.3,1.33,0.9,1.79
			c0.6,0.46,1.3,0.7,2.09,0.7l-0.6,2.29h-27.51c-1.13,0-1.98-0.31-2.55-0.94s-0.84-1.48-0.84-2.55c0-0.4,0.07-0.93,0.2-1.59
			l13.55-58.31c0.13-0.73-0.13-1.43-0.79-2.09c-0.67-0.66-1.4-0.99-2.2-0.99l0.6-2.29H803.76z M784.22,647.72h3.09
			c1.66,0,2.89-0.52,3.69-1.55c0.79-1.03,1.52-3,2.19-5.93c0.4-1.73,0.6-3.09,0.6-4.09c0-1.33-0.28-2.24-0.85-2.74
			c-0.56-0.5-1.41-0.75-2.54-0.75h-2.69L784.22,647.72z"/>
		
			<linearGradient id="SVGID_00000046304544728445897180000001212077004710188705_" gradientUnits="userSpaceOnUse" x1="850.6722" y1="465.0574" x2="850.6722" y2="737.9891">
			<stop  offset="0" style="stop-color:#3E76BB"/>
			<stop  offset="1" style="stop-color:#06509E"/>
		</linearGradient>
		<path style="fill:url(#SVGID_00000046304544728445897180000001212077004710188705_);" d="M882.72,617.22l-2.59,10.96
			c-0.46,1.86-1.38,3.15-2.74,3.89c-1.36,0.73-3.14,1.1-5.33,1.1H858.2l-2.19,9.47h16.54l-1.9,8.38c-0.33,1.46-1.21,2.64-2.64,3.54
			c-1.43,0.9-3.04,1.34-4.83,1.34h-6.08c-2.73,0-4.45,1.5-5.18,4.48l-2.29,9.67h16.15c0.99,0,2.04-0.25,3.14-0.75
			c1.1-0.5,1.74-1.11,1.94-1.85h2.29l-3.59,15.15c-0.33,1.33-1.08,2.23-2.24,2.69c-1.17,0.46-2.64,0.7-4.44,0.7h-40.87
			c-1.13,0-1.98-0.31-2.54-0.94c-0.57-0.63-0.85-1.48-0.85-2.55c0-0.4,0.07-0.93,0.2-1.59l13.55-58.31
			c0.13-0.73-0.13-1.43-0.79-2.09c-0.67-0.66-1.4-0.99-2.19-0.99l0.6-2.29H882.72z"/>
		
			<linearGradient id="SVGID_00000011003367264345705910000000936790645684515482_" gradientUnits="userSpaceOnUse" x1="918.4654" y1="465.0574" x2="918.4654" y2="737.9891">
			<stop  offset="0" style="stop-color:#3E76BB"/>
			<stop  offset="1" style="stop-color:#06509E"/>
		</linearGradient>
		<path style="fill:url(#SVGID_00000011003367264345705910000000936790645684515482_);" d="M907.85,677.82
			c-0.8,1.26-1.2,2.32-1.2,3.19c0,0.73,0.33,1.36,1,1.9c0.66,0.53,1.36,0.79,2.09,0.79l-0.49,2.29h-27.81
			c-2.2,0-3.29-1.07-3.29-3.19c0-0.33,0.07-0.9,0.2-1.7L892,622.6c0.13-0.66-0.16-1.34-0.9-2.04c-0.73-0.7-1.46-1.05-2.19-1.05
			l0.7-2.29h27.71c2.12,0,3.19,1.07,3.19,3.19c0,0.26-0.07,0.79-0.2,1.59l-5.98,25.72l14.65-22.13c0.6-0.93,1.03-1.93,1.29-2.99
			c0.13-0.66-0.13-1.34-0.79-2.04c-0.67-0.7-1.37-1.05-2.09-1.05l0.5-2.29h27.71c1.13,0,1.94,0.28,2.44,0.85
			c0.5,0.57,0.75,1.38,0.75,2.44l-0.2,1.5l-13.56,58.61c-0.13,0.66,0.17,1.34,0.9,2.04c0.73,0.7,1.46,1.05,2.19,1.05l-0.7,2.29
			h-27.71c-2.13,0-3.19-1.07-3.19-3.19c0-0.26,0.07-0.79,0.2-1.59l5.88-25.41L907.85,677.82z M914.33,611.93
			c-2.52,0-3.79-1.2-3.79-3.59c0-0.54,0.03-0.93,0.1-1.2l1.7-6.68h27.61c2.86,0,4.28,1.23,4.28,3.69c0,0.46-0.04,0.8-0.1,1
			l-1.69,6.78H914.33z"/>
		
			<linearGradient id="SVGID_00000155851850097905993080000015528036157443654328_" gradientUnits="userSpaceOnUse" x1="983.725" y1="465.0574" x2="983.725" y2="737.9891">
			<stop  offset="0" style="stop-color:#3E76BB"/>
			<stop  offset="1" style="stop-color:#06509E"/>
		</linearGradient>
		<path style="fill:url(#SVGID_00000155851850097905993080000015528036157443654328_);" d="M1012.24,666.95
			c0.33,2.06,1.26,3.09,2.79,3.09h2.49l-2.59,11.36c-0.47,1.93-1.4,3.23-2.79,3.89c-1.07,0.46-2.82,0.7-5.28,0.7h-52.83
			c-2.73,0-4.09-1.1-4.09-3.29l0.2-1.59l2.49-11.06h2.69c0.93,0,1.75-0.28,2.44-0.85c0.7-0.57,1.22-1.25,1.55-2.04l20.13-43.06
			l0.2-1.79c0-0.8-0.27-1.46-0.8-2c-0.53-0.53-1.2-0.79-1.99-0.79l0.5-2.29h24.12c1.4,0,2.58,0.38,3.54,1.14s1.51,1.72,1.64,2.84
			L1012.24,666.95z M985.22,657.48l-4.88,12.56h5.68L985.22,657.48z"/>
	</g>
</g>
</svg>
