<?xml version="1.0" encoding="utf-8"?>
<!-- Generator: Adobe Illustrator 26.5.0, SVG Export Plug-In . SVG Version: 6.00 Build 0)  -->
<svg version="1.1" id="Layer_1" xmlns="http://www.w3.org/2000/svg" xmlns:xlink="http://www.w3.org/1999/xlink" x="0px" y="0px"
	 viewBox="0 0 1080 1080" style="enable-background:new 0 0 1080 1080;" xml:space="preserve">
<style type="text/css">
	.st0{fill-rule:evenodd;clip-rule:evenodd;}
	.st1{fill:#ED1C24;}
	.st2{fill:#E1251B;}
	.st3{fill-rule:evenodd;clip-rule:evenodd;fill:#16397B;}
	.st4{fill:#EE2745;}
	
		.st5{clip-path:url(#SVGID_00000158731184447967264730000000142990377920555181_);fill:url(#SVGID_00000165913543329300073010000015395305876060165046_);}
	
		.st6{clip-path:url(#SVGID_00000053505570019369475160000011590614247088926368_);fill:url(#SVGID_00000073697120714137646750000009168174445537854398_);}
	
		.st7{clip-path:url(#SVGID_00000124872391247602733760000010143686743980627878_);fill:url(#SVGID_00000079455345539477581600000000945626027215002778_);}
	
		.st8{clip-path:url(#SVGID_00000076596704933246960170000002331648098317667461_);fill:url(#SVGID_00000044152169545732516830000012139081104083278747_);}
	.st9{fill:#424243;}
	
		.st10{clip-path:url(#SVGID_00000104695014373660204340000010655088798786170764_);fill:url(#SVGID_00000039818333457003542130000017268487169296235656_);}
	.st11{fill:#FFFFFF;}
	
		.st12{clip-path:url(#SVGID_00000002373308720225266900000002943944130373708450_);fill:url(#SVGID_00000005243629814908356390000004604089943426323072_);}
	
		.st13{clip-path:url(#SVGID_00000025410146194029174010000008927344838666224791_);fill:url(#SVGID_00000019648634584027571460000018051933323027700654_);}
	
		.st14{clip-path:url(#SVGID_00000031920748745368134240000011343480611406477235_);fill:url(#SVGID_00000179634740612939259390000011022636533021088440_);}
	
		.st15{clip-path:url(#SVGID_00000039109743520227576280000017326715587514350515_);fill:url(#SVGID_00000121975205542959041580000002352711715082406539_);}
	
		.st16{clip-path:url(#SVGID_00000144322174468753637400000004167898143245024944_);fill:url(#SVGID_00000049224291675993740680000003102438726774035085_);}
	
		.st17{clip-path:url(#SVGID_00000079479788271638249660000001942345518512825502_);fill:url(#SVGID_00000120528337287317079760000004569731755910851237_);}
	
		.st18{clip-path:url(#SVGID_00000023962194491150311460000016930688392767480742_);fill:url(#SVGID_00000165931331400009239550000001827299672480484538_);}
	.st19{fill-rule:evenodd;clip-rule:evenodd;fill:#C8202F;}
	.st20{fill-rule:evenodd;clip-rule:evenodd;fill:#FFFFFF;}
	.st21{fill-rule:evenodd;clip-rule:evenodd;fill:#F98238;}
	.st22{filter:url(#Adobe_OpacityMaskFilter);}
	.st23{fill:url(#SVGID_00000043427698451119888080000008740744230667714691_);}
	.st24{mask:url(#SVGID_00000109031007767021849630000010110152800982452133_);fill-rule:evenodd;clip-rule:evenodd;fill:#ED1C24;}
	.st25{fill-rule:evenodd;clip-rule:evenodd;fill:#F5333F;}
	.st26{fill-rule:evenodd;clip-rule:evenodd;fill:#ED1C24;}
	.st27{fill-rule:evenodd;clip-rule:evenodd;fill:#F9A46E;}
	.st28{fill-rule:evenodd;clip-rule:evenodd;fill:#F47B26;}
	.st29{fill-rule:evenodd;clip-rule:evenodd;fill:#EB5433;}
	.st30{fill:#1A3282;}
	.st31{fill-rule:evenodd;clip-rule:evenodd;fill:#1A3282;}
	.st32{fill-rule:evenodd;clip-rule:evenodd;fill:#9D9FA2;}
	.st33{fill-rule:evenodd;clip-rule:evenodd;fill:#000303;}
	.st34{fill:#64003D;}
	.st35{fill:#536270;}
	.st36{fill-rule:evenodd;clip-rule:evenodd;fill:#64003D;}
	.st37{fill-rule:evenodd;clip-rule:evenodd;fill:#536270;}
	.st38{fill-rule:evenodd;clip-rule:evenodd;fill:#1A3382;}
	.st39{fill-rule:evenodd;clip-rule:evenodd;fill:#29387E;}
	.st40{fill-rule:evenodd;clip-rule:evenodd;fill:#F37021;}
	.st41{fill-rule:evenodd;clip-rule:evenodd;fill:#005C32;}
	.st42{fill-rule:evenodd;clip-rule:evenodd;fill:#D2AB67;}
	
		.st43{clip-path:url(#SVGID_00000088106984113884776390000007262773056632877440_);fill:url(#SVGID_00000067197201523410601090000014745678114168523153_);}
	
		.st44{clip-path:url(#SVGID_00000038383874306445285960000007008455157823790512_);fill:url(#SVGID_00000170999852069975406530000016220143281550866083_);}
	
		.st45{clip-path:url(#SVGID_00000123423415815109539280000014871834041835371448_);fill:url(#SVGID_00000035528755056825607160000008876904081769411985_);}
	.st46{fill-rule:evenodd;clip-rule:evenodd;fill:#00AEEF;}
	.st47{fill-rule:evenodd;clip-rule:evenodd;fill:#EC008C;}
	.st48{fill-rule:evenodd;clip-rule:evenodd;fill:#FFF200;}
	.st49{fill:#A7AAAC;}
	.st50{fill-rule:evenodd;clip-rule:evenodd;fill:#5C5B5B;}
	.st51{fill:#9D9D9F;}
	.st52{fill:#F04D23;}
	.st53{fill-rule:evenodd;clip-rule:evenodd;fill:#2E3192;}
	.st54{fill-rule:evenodd;clip-rule:evenodd;fill:#C4312D;}
	.st55{fill:#552715;}
	.st56{fill:#010101;}
	.st57{fill:#E31E2E;}
	.st58{fill:url(#SVGID_00000095315841487215138790000013381636321328645769_);}
	.st59{fill:url(#SVGID_00000095323774937148735970000008129635549413891772_);}
	.st60{clip-path:url(#SVGID_00000048499476651255093440000000444490687672834187_);}
	.st61{clip-path:url(#SVGID_00000022551519241726219440000003692708334192423596_);}
	.st62{clip-path:url(#SVGID_00000001659124301531621440000001479094655059352996_);}
	.st63{clip-path:url(#SVGID_00000106144341941059038020000003196296677947954322_);}
	.st64{clip-path:url(#SVGID_00000168798741016080087270000007456744194510356663_);}
	.st65{clip-path:url(#SVGID_00000179633435011641336990000002414187234029540788_);}
	.st66{clip-path:url(#SVGID_00000042728878614774623310000016697067145870462129_);}
	.st67{clip-path:url(#SVGID_00000157275482646224282410000017529379021131388060_);}
	.st68{clip-path:url(#SVGID_00000086660784894275590140000006176707357737109412_);}
	.st69{clip-path:url(#SVGID_00000082364411499532682600000007878090838804220087_);}
	.st70{clip-path:url(#SVGID_00000075140114287822673610000017939675593738576816_);}
	.st71{fill:#2650A1;}
	.st72{fill:url(#SVGID_00000049905614342377925470000015807724491190427816_);}
	.st73{fill:#FEFEFE;}
	.st74{fill:#FDFDFD;}
	.st75{fill:#FCFCFC;}
	.st76{fill:#FBFBFB;}
	.st77{fill:#FAFAFA;}
	.st78{fill:#F9F9F9;}
	.st79{fill:#F8F8F8;}
	.st80{fill:#F7F7F7;}
	.st81{fill:#F6F6F6;}
	.st82{fill:#F5F5F5;}
	.st83{fill:#F4F4F4;}
	.st84{fill:#F3F3F3;}
	.st85{fill:#F2F2F2;}
	.st86{fill:#F1F1F1;}
	.st87{fill:#F0F0F0;}
	.st88{fill:#EFEFEF;}
	.st89{fill:#EEEEEE;}
	.st90{fill:#EDEDED;}
	.st91{fill:#ECECEC;}
	.st92{fill:#EBEBEB;}
	.st93{fill:#EAEAEA;}
	.st94{fill:#E9E9E9;}
	.st95{fill:#E8E8E8;}
	.st96{fill:#E7E7E7;}
	.st97{fill:#E6E6E6;}
	.st98{fill:#E5E5E5;}
	.st99{fill:#E4E4E4;}
	.st100{fill:#E3E3E3;}
	.st101{fill:#E2E2E2;}
	.st102{fill:#E1E1E1;}
	.st103{fill:#E0E0E0;}
	.st104{fill:#DFDFDF;}
	.st105{fill:#DEDEDE;}
	.st106{fill:#DDDDDD;}
	.st107{fill:#DCDCDC;}
	.st108{fill:#DBDBDB;}
	.st109{fill:#DADADA;}
	.st110{fill:#D9D9D9;}
	.st111{fill:#D92231;}
	.st112{fill:url(#SVGID_00000135685541076488964110000000449140072799865005_);}
	.st113{fill:url(#SVGID_00000131360850812296077530000013448060521581922236_);}
	.st114{opacity:0.8;}
	.st115{fill:url(#SVGID_00000070840737724379083610000005185170273201449362_);}
	.st116{fill:url(#SVGID_00000145740461340008984730000009072710716007268775_);}
	.st117{fill-rule:evenodd;clip-rule:evenodd;fill:#010101;}
	.st118{fill:#80A845;}
	.st119{fill-rule:evenodd;clip-rule:evenodd;fill:#80A845;}
	.st120{fill:url(#SVGID_00000018238745909032110800000018015442594019019174_);}
	.st121{fill-rule:evenodd;clip-rule:evenodd;fill:#04984A;}
	.st122{fill-rule:evenodd;clip-rule:evenodd;fill:url(#SVGID_00000167366616806503801690000003873989592325273275_);}
	.st123{fill:url(#SVGID_00000102543854950900204200000003950712532754958782_);}
	.st124{fill:url(#SVGID_00000074423632383943804950000003771601910013253291_);}
	.st125{fill:url(#SVGID_00000006685806358382183850000006359007523604870272_);}
	.st126{fill:url(#SVGID_00000094602624102373418930000014564743794903045016_);}
	.st127{fill:url(#SVGID_00000183247762177340672030000011068793743672831368_);}
	.st128{fill:url(#SVGID_00000145769340894495742470000005121779102389716653_);}
	.st129{fill:url(#SVGID_00000044162911996209125110000001052706642928821410_);}
	.st130{fill:url(#SVGID_00000163066495746381742220000014158929528434032771_);}
	.st131{fill:url(#SVGID_00000091717482861000301980000005709803514120363163_);}
	.st132{fill:url(#SVGID_00000137848968467459061340000016175433457089665708_);}
	.st133{fill:url(#SVGID_00000087380722627306959390000008963191982007033008_);}
	.st134{fill:url(#SVGID_00000108295293477409413420000011461356308599147953_);}
	.st135{fill:url(#SVGID_00000006693828876839868530000009075522832814419623_);}
	.st136{fill:url(#SVGID_00000182511337229619925690000014560131912467519650_);}
	.st137{fill-rule:evenodd;clip-rule:evenodd;fill:url(#SVGID_00000072257795970310193660000018208318445081303716_);}
	.st138{fill:#0A529D;}
	.st139{fill:url(#SVGID_00000097473601518169451490000003559711333966782597_);}
	.st140{fill:url(#SVGID_00000116210588510391300200000015511713820941921180_);}
	.st141{fill:url(#SVGID_00000134938226074031444330000015609903113417009051_);}
	.st142{fill:url(#SVGID_00000099660281224613804960000015993559527121530039_);}
	.st143{fill:url(#SVGID_00000140700625899992575450000014260375165441145770_);}
	.st144{fill:url(#SVGID_00000136372985670267668670000001698039023204156061_);}
	.st145{fill:url(#SVGID_00000144322713669616311870000008273360637388577681_);}
	.st146{fill:url(#SVGID_00000174580861891728234350000017591031427087102113_);}
	.st147{fill:url(#SVGID_00000074443296127483875740000007467950337006777489_);}
	.st148{fill:url(#SVGID_00000084520991660219141480000005722078249498969771_);}
	.st149{fill:url(#SVGID_00000095303563670155296610000015081536763664558766_);}
	.st150{fill:url(#SVGID_00000067225821566115230910000005820056095723186105_);}
	.st151{fill-rule:evenodd;clip-rule:evenodd;fill:url(#SVGID_00000006676848941243917280000001310735888715780480_);}
	.st152{fill:url(#SVGID_00000174591581506957068770000007972002804477960108_);}
	.st153{fill:url(#SVGID_00000103226388664059865490000000355519640510285443_);}
	.st154{fill:url(#SVGID_00000085930492035618601300000000391029440619255981_);}
	.st155{fill:url(#SVGID_00000145779077668649533250000000126680124340510396_);}
	.st156{fill:url(#SVGID_00000155129962016987397130000010909147917288938631_);}
	.st157{fill:url(#SVGID_00000162313883265377215020000011051152060199912606_);}
	.st158{fill:url(#SVGID_00000111158352280669242990000011355713095266276000_);}
	.st159{fill:url(#SVGID_00000063607021869815001950000003162814746338045321_);}
	.st160{fill:url(#SVGID_00000123405198084380048490000005820495239743239051_);}
	.st161{fill:url(#SVGID_00000142865115903745173310000015737930726613417149_);}
	.st162{fill:url(#SVGID_00000008845698694179170890000008798272812643841459_);}
	.st163{fill:url(#SVGID_00000121251894066697407320000014516514304155293827_);}
	.st164{fill:url(#SVGID_00000114770411995686793330000002838618388731843979_);}
	.st165{fill:url(#SVGID_00000059271582295671992180000002032444955547555750_);}
	.st166{fill:url(#SVGID_00000033370174808592060040000005034180373159486865_);}
	.st167{fill:url(#SVGID_00000018931195457787243320000009430342076065074621_);}
	.st168{fill:url(#SVGID_00000011739882181016664110000017407193380169448327_);}
	.st169{fill-rule:evenodd;clip-rule:evenodd;fill:url(#SVGID_00000176740551047720821570000011797276969589765050_);}
	.st170{fill:url(#SVGID_00000074405164041176157520000013911240270278970793_);}
	.st171{fill:url(#SVGID_00000090286631486224923370000003419878751162946176_);}
	.st172{fill:url(#SVGID_00000166666766720013239720000001065773249957413523_);}
	.st173{fill:url(#SVGID_00000051359475591956509610000006596908005019232414_);}
	.st174{fill:url(#SVGID_00000105421654599153345960000007801873891918622858_);}
	.st175{fill:url(#SVGID_00000088844430009194692160000004868593095501448619_);}
	.st176{fill:url(#SVGID_00000011017351791388050490000002508417601277974198_);}
	.st177{fill:url(#SVGID_00000019665030051524996160000008467911484271606947_);}
	.st178{fill:url(#SVGID_00000092426268081421063770000007139626552805420436_);}
	.st179{fill:url(#SVGID_00000061470812958918831040000005476638549349061283_);}
	.st180{fill:url(#SVGID_00000026136059823429721570000000715715413243900033_);}
	.st181{fill:url(#SVGID_00000043440174700408604940000016334963811907867309_);}
	.st182{fill:url(#SVGID_00000171718430524912950450000010662931743185394578_);}
	.st183{fill:url(#SVGID_00000126312042662736895210000010356317509304173479_);}
	.st184{fill-rule:evenodd;clip-rule:evenodd;fill:url(#SVGID_00000099657795148257886980000002961454916469483145_);}
	.st185{fill:url(#SVGID_00000134247308857762626110000011053650541253154179_);}
	.st186{fill:url(#SVGID_00000137852907915376591420000015332247477457399435_);}
	.st187{fill:url(#SVGID_00000109021197408267889220000004639185730639950979_);}
	.st188{fill:url(#SVGID_00000154401905866531638580000013235193262421994684_);}
	.st189{fill:url(#SVGID_00000157988266483584042080000016077216537527957674_);}
	.st190{fill:url(#SVGID_00000106868056095086841750000018244181732374016413_);}
	.st191{fill:url(#SVGID_00000172413865292559835950000009752510399768457126_);}
	.st192{fill:url(#SVGID_00000137107571913124706230000003945868142476975239_);}
	.st193{fill:url(#SVGID_00000053511520196953415510000006899158830507016094_);}
	.st194{fill:url(#SVGID_00000126315882186890031350000002654440038527096726_);}
	.st195{fill:url(#SVGID_00000029757857870236806800000012585956283908214712_);}
	.st196{fill:url(#SVGID_00000096020490275858656340000003713060839608629681_);}
	.st197{fill:url(#SVGID_00000077292141946136653740000014474810058557460634_);}
	.st198{fill:url(#SVGID_00000036209954240622865880000017277720348523916450_);}
	.st199{fill:url(#SVGID_00000078731026157667685640000005868128224058577556_);}
	.st200{fill:url(#SVGID_00000065061810089066107040000011310345628606431676_);}
	.st201{fill:url(#SVGID_00000160887857866951174800000007641997537243437975_);}
	.st202{fill:url(#SVGID_00000042700172868420594520000002177542470417322135_);}
	.st203{fill:url(#SVGID_00000143598164086676958920000014595497319382448042_);}
	.st204{fill-rule:evenodd;clip-rule:evenodd;fill:url(#SVGID_00000103238780883191444350000017470489046295408805_);}
	.st205{fill:url(#SVGID_00000007399398171534412090000002274827129867110819_);}
	.st206{fill:url(#SVGID_00000165928160083961144500000013290326982547527322_);}
	.st207{fill:url(#SVGID_00000109722312999532693950000011881445854409861053_);}
	.st208{fill:url(#SVGID_00000070819538815819600440000014883645917925505411_);}
	.st209{fill:url(#SVGID_00000054256226626119897190000002654185794672267655_);}
	.st210{fill:url(#SVGID_00000023994336696428903770000003605349293393286303_);}
	.st211{fill:url(#SVGID_00000062150838261046914360000002739905000337955997_);}
	.st212{fill:url(#SVGID_00000038410607758916300740000016464981821594991234_);}
	.st213{fill:url(#SVGID_00000118370983982264981950000010496754594092825507_);}
	.st214{fill:url(#SVGID_00000178885404212490254200000010853285136726830759_);}
	.st215{fill:url(#SVGID_00000026873153272614229780000012527397201518755983_);}
	.st216{fill:url(#SVGID_00000130630227590053558660000015811703478166018947_);}
	.st217{fill:url(#SVGID_00000154384850453042422530000014653238561853301890_);}
	.st218{fill:url(#SVGID_00000072998828134889557210000004579873576813309847_);}
	.st219{fill:url(#SVGID_00000181048940169923215990000006135372602812962697_);}
	.st220{fill:url(#SVGID_00000132797530230117416020000000068629082297486748_);}
	.st221{fill-rule:evenodd;clip-rule:evenodd;fill:url(#SVGID_00000000192221295162897510000010846619275345789583_);}
	.st222{fill:url(#SVGID_00000028289180054937528960000008226780381315036578_);}
	.st223{fill:url(#SVGID_00000111893609960083235390000015007446752767501475_);}
	.st224{fill:url(#SVGID_00000097488459848238560300000001062481258321789108_);}
	.st225{fill:url(#SVGID_00000054237505029072428800000008780323358342229168_);}
	.st226{fill:url(#SVGID_00000066494905629542115830000008318666011799024009_);}
	.st227{fill:url(#SVGID_00000034801654712914537780000013826913864891524997_);}
	.st228{fill:url(#SVGID_00000000902949736962652060000006858295065924838815_);}
	.st229{fill:url(#SVGID_00000079487172414081691280000016113207017201015704_);}
	.st230{fill:url(#SVGID_00000017495629063359075250000006490592296709323697_);}
	.st231{fill:url(#SVGID_00000100344384146339957370000016612836535606711473_);}
	.st232{fill:url(#SVGID_00000101074529808042309680000008831661991760725439_);}
	.st233{fill:url(#SVGID_00000116210835171718861300000013641744347314106264_);}
	.st234{fill:url(#SVGID_00000089569936091702200940000012949229304316996244_);}
	.st235{fill:url(#SVGID_00000034788005555379956370000000052446041474327177_);}
	.st236{fill:url(#SVGID_00000071520643123415974880000003330178823182118579_);}
	.st237{fill-rule:evenodd;clip-rule:evenodd;fill:url(#SVGID_00000165913034016915252940000005899501813966981534_);}
	.st238{fill:url(#SVGID_00000110430818600059681500000008551261004748918714_);}
	.st239{fill:url(#SVGID_00000149340520081450247800000006357143924419146163_);}
	.st240{fill:url(#SVGID_00000049932031340744965460000001983729552269634470_);}
	.st241{fill:url(#SVGID_00000046324496523055233790000009922178285044877245_);}
	.st242{fill:url(#SVGID_00000090285450532250733790000011423404315371502771_);}
	.st243{fill:url(#SVGID_00000178169007213099939300000009368786585999046280_);}
	.st244{fill:url(#SVGID_00000046309013697368870140000005991743083051899306_);}
	.st245{fill:url(#SVGID_00000066509574016176185130000012969745420779829406_);}
	.st246{fill:url(#SVGID_00000152970152488435036750000016552857855064948920_);}
	.st247{fill:url(#SVGID_00000052806331715086972790000001990842766356226696_);}
	.st248{fill:url(#SVGID_00000086679413793035253590000008476490773827942283_);}
	.st249{fill:url(#SVGID_00000159469642214673772900000016182401904529614738_);}
	.st250{fill:url(#SVGID_00000132078268885321241440000000137368267703530118_);}
	.st251{fill:url(#SVGID_00000099624031731248159140000016424301756520556678_);}
	.st252{fill:url(#SVGID_00000026865988856602531730000017028840440210611634_);}
	.st253{fill-rule:evenodd;clip-rule:evenodd;fill:url(#SVGID_00000161589594610835429380000000639259766178159539_);}
	.st254{fill:url(#SVGID_00000093892429614722533880000009465047079835943573_);}
	.st255{fill:url(#SVGID_00000004520699411250980860000007621236246504584350_);}
	.st256{fill:url(#SVGID_00000023960652012001662080000012052124300878966973_);}
	.st257{fill:url(#SVGID_00000181803017523043400470000014928564397960643514_);}
	.st258{fill:url(#SVGID_00000129923905381445607010000006198180702796672423_);}
	.st259{fill:url(#SVGID_00000112625593300505283420000005440986311148779449_);}
	.st260{fill:url(#SVGID_00000150821722079023775190000017522357284251920022_);}
	.st261{fill:url(#SVGID_00000154423921296592280290000011673226329845655980_);}
	.st262{fill:url(#SVGID_00000013181433728997568220000000757721123715914395_);}
	.st263{fill:url(#SVGID_00000178169629783962901900000013908066560016212918_);}
	.st264{fill:url(#SVGID_00000076586585663713906160000001687072395235790478_);}
	.st265{fill:url(#SVGID_00000008143347463887417370000002242150918814511545_);}
	.st266{fill:url(#SVGID_00000104665898047907424270000013954148241272253851_);}
	.st267{fill:url(#SVGID_00000176723024354594316380000007287825314654017703_);}
	.st268{fill:url(#SVGID_00000128464909659126073020000003887585872356547231_);}
	.st269{fill-rule:evenodd;clip-rule:evenodd;fill:url(#SVGID_00000139261444485392152710000010174467044231341998_);}
	.st270{fill:url(#SVGID_00000029756038232415391820000017546717936098725792_);}
	.st271{fill:url(#SVGID_00000105414712186040768900000018065863851508910759_);}
	.st272{fill:url(#SVGID_00000123412832720691331500000001289550806166276234_);}
	.st273{fill:url(#SVGID_00000051343941443000142690000009371336294484300195_);}
	.st274{fill:url(#SVGID_00000178921231344486135010000010856468545921635250_);}
	.st275{fill:url(#SVGID_00000140720224747324026240000011908659665656861358_);}
	.st276{fill:url(#SVGID_00000163756071360145158040000001925294555031939750_);}
	.st277{fill:url(#SVGID_00000158020491707914865880000008022065697626378423_);}
	.st278{fill:url(#SVGID_00000022520535249087428890000005244866241290365321_);}
	.st279{fill:url(#SVGID_00000100346982418339142290000008350760571697240749_);}
	.st280{fill:url(#SVGID_00000002378003053560533110000010848117261185108366_);}
	.st281{fill:url(#SVGID_00000181807295564953176480000007406444352265984415_);}
	.st282{fill:url(#SVGID_00000133510785150830584050000003083430264660137661_);}
	.st283{fill:url(#SVGID_00000155826916721380744840000011190873256545950623_);}
	.st284{fill:url(#SVGID_00000078021783677925049520000008855401380387817391_);}
	.st285{fill-rule:evenodd;clip-rule:evenodd;fill:url(#SVGID_00000063595702400508404880000010059478302699793067_);}
	.st286{fill:url(#SVGID_00000003103752982565438500000008323854394395828380_);}
	.st287{fill:url(#SVGID_00000147215239937835334160000012206903582169941392_);}
	.st288{fill:url(#SVGID_00000142143843195007045450000017080308187583194786_);}
	.st289{fill:url(#SVGID_00000005260551716522547970000008656135324981964196_);}
	.st290{fill:url(#SVGID_00000103266503981097324150000010868049811270699669_);}
	.st291{fill:url(#SVGID_00000126319703079229764690000001288301440298285466_);}
	.st292{fill:url(#SVGID_00000103248674571728158690000005319956707022474628_);}
	.st293{fill:url(#SVGID_00000032606616945337071360000012495752001505185418_);}
	.st294{fill:url(#SVGID_00000150079996787110863450000005504677249071887258_);}
	.st295{fill:url(#SVGID_00000172399573611175572560000011252508697117439415_);}
	.st296{fill:url(#SVGID_00000153665753659683762650000010015674747599996597_);}
	.st297{fill:url(#SVGID_00000023257571279068032790000000732105419547640221_);}
	.st298{fill:url(#SVGID_00000020361009684572488580000010481165550581920701_);}
	.st299{fill:url(#SVGID_00000092454268535687857860000013002399818118115994_);}
	.st300{fill:url(#SVGID_00000113347703841488109200000013546687818221319556_);}
	.st301{fill:url(#SVGID_00000163755861066973079900000017754373304986552996_);}
	.st302{fill:url(#SVGID_00000023274527360042199840000005507543775642240690_);}
	.st303{fill:url(#SVGID_00000025414918019377914730000017455308022400790159_);}
	.st304{fill-rule:evenodd;clip-rule:evenodd;fill:url(#SVGID_00000148654681496914792890000016613440793955351960_);}
	.st305{fill:url(#SVGID_00000008844799970850218520000008563496038533721001_);}
	.st306{fill:url(#SVGID_00000174559967507990879310000015611245443833867192_);}
	.st307{fill:url(#SVGID_00000178905322258820881220000012933570955653510058_);}
	.st308{fill:url(#SVGID_00000049920434739133301230000004113228811394643863_);}
	.st309{fill:url(#SVGID_00000140734766388027983170000007867475021649135264_);}
	.st310{fill:url(#SVGID_00000150809392607012405330000001660821570149296033_);}
	.st311{fill:url(#SVGID_00000065066077657572827080000003302996185619344318_);}
	.st312{fill:url(#SVGID_00000012440204283641816130000012434015796133103287_);}
	.st313{fill:url(#SVGID_00000140695690435298304020000009309680122235083946_);}
	.st314{fill:url(#SVGID_00000035499466932344537100000003384026161143955884_);}
	.st315{fill:url(#SVGID_00000103264646670157069020000015029598319227392699_);}
	.st316{fill:url(#SVGID_00000009583275345304639470000013477327984870018723_);}
	.st317{fill:url(#SVGID_00000072962371890477741150000017603515078471268798_);}
	.st318{fill:url(#SVGID_00000116955202488412460750000000016986998119312515_);}
	.st319{fill:url(#SVGID_00000176754204112819953450000013859399687240858551_);}
	.st320{fill:url(#SVGID_00000023975474441450702740000010234187582676766850_);}
	.st321{fill:url(#SVGID_00000070077191855924907460000007476341001022992310_);}
	.st322{fill:url(#SVGID_00000038396822609280986940000004412401040933769621_);}
	.st323{fill:url(#SVGID_00000056387298177690211540000014937552431257750673_);}
	.st324{fill:url(#SVGID_00000096741672871741325120000011013686446984390801_);}
	.st325{fill-rule:evenodd;clip-rule:evenodd;fill:url(#SVGID_00000123436552704775663340000005790188728996614282_);}
	.st326{fill:url(#SVGID_00000039109255780723480040000003005961639339370157_);}
	.st327{fill:url(#SVGID_00000178896396757721951190000007062064245747754431_);}
	.st328{fill:url(#SVGID_00000122001497367517076560000013899602735171289769_);}
	.st329{fill:url(#SVGID_00000101076284529488962500000010902420220853874361_);}
	.st330{fill:url(#SVGID_00000000916883576231830410000003096742845309905084_);}
	.st331{fill:url(#SVGID_00000183209850869225052870000003936299654343578006_);}
	.st332{fill:url(#SVGID_00000042703815172331709400000011747872280464828351_);}
	.st333{fill:url(#SVGID_00000151530755509849759900000008975205898450506129_);}
	.st334{fill:url(#SVGID_00000085230565068701330720000001997967192125952701_);}
	.st335{fill:url(#SVGID_00000135656786455453713900000000283805397913643438_);}
	.st336{fill:url(#SVGID_00000065754047528392654120000011955625858094615198_);}
	.st337{fill:url(#SVGID_00000183221874324443512540000014568829953065600640_);}
	.st338{fill:url(#SVGID_00000129174602318097106930000005032650530966898085_);}
	.st339{fill:url(#SVGID_00000005248520072666095700000013525948377644569770_);}
	.st340{fill:url(#SVGID_00000017488472233958429700000002141186888969220994_);}
	.st341{fill:url(#SVGID_00000024698603728215695970000011924979074783398075_);}
	.st342{fill-rule:evenodd;clip-rule:evenodd;fill:url(#SVGID_00000039845593821347209170000010582847880337243025_);}
	.st343{fill:url(#SVGID_00000093175872047390627440000016415188120898893701_);}
	.st344{fill:url(#SVGID_00000160192159291860206320000013162253600126558608_);}
	.st345{fill:url(#SVGID_00000090986748175901090720000018051884244003391898_);}
	.st346{fill:url(#SVGID_00000036228599131980103300000017276098792915640744_);}
	.st347{fill:url(#SVGID_00000060004946709879091850000018426859266403177614_);}
	.st348{fill:url(#SVGID_00000002364678899025274740000001544443051301935251_);}
	.st349{fill:url(#SVGID_00000082333593507111862370000016859969092208872354_);}
	.st350{fill:url(#SVGID_00000170991954534636195970000017158985072102128269_);}
	.st351{fill:url(#SVGID_00000152968029394239284570000009302061099669500063_);}
	.st352{fill:url(#SVGID_00000016758184384372815070000006060791096907282564_);}
	.st353{fill:url(#SVGID_00000121262600848220823680000017030849413404849324_);}
	.st354{fill:url(#SVGID_00000101824945108167723360000015677851117218905000_);}
	.st355{fill:url(#SVGID_00000150097661208247150260000011042273229866128818_);}
	.st356{fill:url(#SVGID_00000080888933941388344560000001275257588180384396_);}
	.st357{fill:url(#SVGID_00000102526115766730999130000010764217007412234637_);}
	.st358{fill:url(#SVGID_00000018943216050647489120000004667492902891867064_);}
	.st359{fill:url(#SVGID_00000111889571319389859300000011812693656956515997_);}
	.st360{fill:url(#SVGID_00000010999959635604784670000017249734415059368381_);}
	.st361{fill:url(#SVGID_00000034770446501106255780000006769867695594393525_);}
	.st362{fill:url(#SVGID_00000026850362619466037630000001970426255486608311_);}
	.st363{fill:#C1282D;}
	.st364{fill-rule:evenodd;clip-rule:evenodd;fill:url(#SVGID_00000183948007853713156870000000592204831657857462_);}
	.st365{fill:url(#SVGID_00000057850307427826067940000016261123163903920529_);}
	.st366{fill:url(#SVGID_00000120555410337409777210000001686595794871608209_);}
	.st367{fill:url(#SVGID_00000058591438169077401430000005513228283168299709_);}
	.st368{fill:url(#SVGID_00000016051335659097014170000009874677059422819481_);}
	.st369{fill:url(#SVGID_00000162323902507065512780000018296765171892790405_);}
	.st370{fill:url(#SVGID_00000094591618554502493650000007826721163068987533_);}
	.st371{fill:url(#SVGID_00000085929042178671642050000006409437624235022250_);}
	.st372{fill:url(#SVGID_00000117639448625574253730000007687471969265505719_);}
	.st373{fill:url(#SVGID_00000182512857774707691560000016484538335241035952_);}
	.st374{fill:url(#SVGID_00000088132379772747460850000014171026946024285609_);}
	.st375{fill:url(#SVGID_00000022563014318311464610000002020168862863870878_);}
	.st376{fill:url(#SVGID_00000065047152130992167780000015754448090231352248_);}
	.st377{fill:url(#SVGID_00000106848197347535350210000016673020238440777649_);}
	.st378{fill:url(#SVGID_00000155146742688920021140000011906555676415357594_);}
	.st379{fill:url(#SVGID_00000035509378496878238520000000992689195429035409_);}
	.st380{fill:url(#SVGID_00000104689198857986285040000014683710448900239779_);}
	.st381{fill-rule:evenodd;clip-rule:evenodd;fill:url(#SVGID_00000010999146046683216090000002137405724005266304_);}
	.st382{fill:url(#SVGID_00000044152639013027742930000002654095188082478501_);}
	.st383{fill:url(#SVGID_00000147191970759597674960000008806065913671292564_);}
	.st384{fill:url(#SVGID_00000174562981269369713970000006968634185556553381_);}
	.st385{fill:url(#SVGID_00000132070358883639637690000004254178323296324496_);}
	.st386{fill:url(#SVGID_00000005946568850127586690000013731693374842879413_);}
	.st387{fill:url(#SVGID_00000065075125793534256110000005097878838025218715_);}
	.st388{fill:url(#SVGID_00000162329422218606341550000012659196166491290502_);}
	.st389{fill:url(#SVGID_00000079480971991077597960000001433235610569472407_);}
	.st390{fill:url(#SVGID_00000022560480682488659310000011292257817092841360_);}
	.st391{fill:url(#SVGID_00000033338294211052258580000005660302987270315966_);}
	.st392{fill:url(#SVGID_00000143594810387953999560000004118282063314890159_);}
	.st393{fill:url(#SVGID_00000020383021029120996670000003371212434999159227_);}
	.st394{fill:url(#SVGID_00000088114268999814891050000015147236940046111420_);}
	.st395{fill:url(#SVGID_00000050655648080380114750000013220885327839569280_);}
	.st396{fill:url(#SVGID_00000160876585778127729280000014977457295103992997_);}
	.st397{fill:url(#SVGID_00000179628697126488451280000014006661080268245376_);}
	.st398{fill:url(#SVGID_00000003792687126730416110000000317080552576601256_);}
	.st399{fill:url(#SVGID_00000138569693109112513810000011855129172751057030_);}
	.st400{fill:url(#SVGID_00000070099496479797295080000004900599735888637869_);}
	.st401{fill:url(#SVGID_00000095339788102803666220000008021671605010848919_);}
</style>
<g>
	<g>
		<ellipse class="st11" cx="540" cy="471.21" rx="237.26" ry="117.73"/>
		<path class="st121" d="M765.43,507.87c-31.09,47.08-120.24,81.07-225.43,81.07c-105.77,0-195.33-34.35-225.94-81.87l2.32-0.73
			l10.92-3.41l77.08-24.19l-7.25,20.17c-0.62,1.7,1.12,3.34,2.79,2.61l68.05-29.38l-23.07,34.13c-1.27,1.85,0.91,4.14,2.83,2.94
			l68.3-42.18v25.61c0,1.81,2.18,2.76,3.52,1.49l7-6.64l11.03,25.61c0.69,1.6,2.94,1.7,3.77,0.15l17.88-34.13l82.99,41.97
			c1.89,0.98,3.84-1.23,2.65-3.01l-21.87-32.79c-0.51-0.73-0.47-1.7,0.07-2.39l9.43-12.8l10.99,13.67c0.98,1.2,2.83,0.98,3.52-0.4
			l5.8-11.79l50.24,37.11c1.16,0.83,2.83,0.29,3.23-1.09l5.22-17.19l53.76,17.37c0.04,0,0.07,0.04,0.07,0.04
			C765.36,507.83,765.4,507.83,765.43,507.87z"/>
		
			<linearGradient id="SVGID_00000061466135525495616150000001659866024075347340_" gradientUnits="userSpaceOnUse" x1="442.5807" y1="357.772" x2="676.4313" y2="624.8978">
			<stop  offset="0" style="stop-color:#3E76BB"/>
			<stop  offset="1" style="stop-color:#06509E"/>
		</linearGradient>
		<path style="fill-rule:evenodd;clip-rule:evenodd;fill:url(#SVGID_00000061466135525495616150000001659866024075347340_);" d="
			M777.26,471.4c0,1.12-0.04,2.21-0.11,3.3c-0.04,0.94-0.11,1.85-0.22,2.76c-0.07,0.83-0.18,1.67-0.29,2.5
			c-0.07,0.58-0.18,1.16-0.29,1.74c-0.33,2.03-0.8,4.06-1.38,6.06c-0.18,0.73-0.4,1.45-0.62,2.14c-0.07,0.25-0.15,0.51-0.25,0.76
			c-0.29,0.91-0.62,1.81-0.94,2.68c-0.25,0.69-0.54,1.41-0.87,2.1c-0.07,0.22-0.18,0.47-0.29,0.69l-0.11-0.04l-0.07-0.04L619,421.93
			c-0.94-0.44-2.07-0.15-2.65,0.73l-20.53,30.65l-54.7-67.21c-0.76-0.87-2.07-1.02-2.94-0.25l-75.99,63.69l-36.02-3.45
			c-0.58-0.07-1.16,0-1.7,0.25c-9.9,4.46-109.69,49.66-115.38,52.23c-0.25-0.47-0.47-0.91-0.65-1.38c-0.29-0.65-0.58-1.34-0.87-2.03
			c-0.58-1.38-1.12-2.79-1.56-4.17c-0.29-0.83-0.54-1.63-0.76-2.47c-0.83-2.68-1.41-5.4-1.81-8.16c-0.29-1.81-0.47-3.66-0.58-5.51
			c-0.07-1.12-0.11-2.29-0.11-3.45c0-65.11,106.21-117.92,237.26-117.92C671.05,353.48,777.26,406.29,777.26,471.4z"/>
		<g>
			<path class="st11" d="M408.37,533.96c0.32,0,0.64-0.07,0.94-0.2c0.3-0.13,0.49-0.32,0.58-0.56h0.7l-1.21,4.63
				c-0.2,0.65-0.8,0.97-1.79,0.97h-1.79l-3.39,14.41c-0.04,0.2,0.05,0.41,0.27,0.62c0.22,0.21,0.44,0.32,0.67,0.32l-0.21,0.7h-8.42
				c-0.65,0-0.97-0.32-0.97-0.97c0-0.08,0.02-0.24,0.06-0.48l3.42-14.59h-2.09c-0.32,0-0.59,0.08-0.8,0.23
				c-0.21,0.15-0.36,0.35-0.44,0.59h-0.76l1.21-4.84c0.08-0.28,0.24-0.49,0.48-0.62c0.24-0.13,0.63-0.2,1.15-0.2H408.37z"/>
			<path class="st11" d="M418.09,554.85c-0.53,0-0.91-0.09-1.17-0.26c-0.25-0.17-0.4-0.47-0.44-0.89l-0.27-3.09h-3.51l-1.24,2.48
				c-0.02,0.06-0.03,0.11-0.03,0.15c0,0.04-0.01,0.12-0.03,0.24c0,0.18,0.09,0.34,0.26,0.47c0.17,0.13,0.37,0.2,0.59,0.2l-0.15,0.7
				h-6.57c-0.85,0-1.27-0.33-1.27-1c0-0.18,0.05-0.37,0.15-0.58l8.9-17.26c0.06-0.12,0.09-0.27,0.09-0.46c0-0.22-0.1-0.43-0.29-0.62
				c-0.19-0.19-0.4-0.29-0.62-0.29l0.18-0.7h9.02c0.46,0,0.86,0.13,1.18,0.38c0.32,0.25,0.48,0.61,0.48,1.08l1.39,17.68
				c0,0.26,0.14,0.5,0.43,0.73c0.28,0.22,0.57,0.33,0.88,0.33l-0.15,0.7H418.09z M414.49,546.56h1.73l-0.24-3.39L414.49,546.56z"/>
			<path class="st11" d="M424.6,535.84c-0.04-0.36-0.18-0.65-0.41-0.86c-0.23-0.21-0.49-0.32-0.77-0.32l0.15-0.7h8.45
				c0.26,0,0.51,0.13,0.76,0.4c0.24,0.26,0.36,0.54,0.36,0.85l0.24,7.93l2.97-6.93l0.12-0.48c0-0.24-0.09-0.48-0.26-0.71
				c-0.17-0.23-0.37-0.35-0.59-0.35l0.15-0.7h6.15c0.36,0,0.66,0.14,0.89,0.41c0.23,0.27,0.35,0.56,0.35,0.86l-0.12,0.61l-8.9,19.01
				h-5.66c-0.47,0-0.85-0.1-1.15-0.3s-0.49-0.47-0.55-0.82L424.6,535.84z"/>
			<path class="st11" d="M450.43,554.85c-0.53,0-0.91-0.09-1.17-0.26c-0.25-0.17-0.4-0.47-0.44-0.89l-0.27-3.09h-3.51l-1.24,2.48
				c-0.02,0.06-0.03,0.11-0.03,0.15c0,0.04-0.01,0.12-0.03,0.24c0,0.18,0.09,0.34,0.26,0.47c0.17,0.13,0.37,0.2,0.59,0.2l-0.15,0.7
				h-6.57c-0.85,0-1.27-0.33-1.27-1c0-0.18,0.05-0.37,0.15-0.58l8.9-17.26c0.06-0.12,0.09-0.27,0.09-0.46c0-0.22-0.1-0.43-0.29-0.62
				c-0.19-0.19-0.4-0.29-0.62-0.29l0.18-0.7h9.02c0.46,0,0.86,0.13,1.18,0.38c0.32,0.25,0.48,0.61,0.48,1.08l1.39,17.68
				c0,0.26,0.14,0.5,0.43,0.73c0.28,0.22,0.57,0.33,0.88,0.33l-0.15,0.7H450.43z M446.83,546.56h1.73l-0.24-3.39L446.83,546.56z"/>
			<path class="st11" d="M478.74,554.85h-5.51c-0.61,0-1.12-0.08-1.53-0.24c-0.41-0.16-0.68-0.45-0.8-0.88l-3.09-7.48l-1.76,6.75
				l-0.06,0.52c0,0.2,0.09,0.36,0.26,0.47c0.17,0.11,0.4,0.17,0.68,0.17l-0.15,0.7h-6.81c-0.34,0-0.6-0.1-0.77-0.29
				c-0.17-0.19-0.26-0.45-0.26-0.77c0-0.12,0.02-0.28,0.06-0.49l4.12-17.71c0.04-0.22-0.04-0.43-0.24-0.64
				c-0.2-0.2-0.42-0.3-0.67-0.3l0.18-0.7h7.69c0.24,0,0.52,0.12,0.83,0.35c0.31,0.23,0.52,0.48,0.62,0.74l3.27,7.63l1.45-6.54
				c0.04-0.12,0.06-0.31,0.06-0.58c0-0.24-0.1-0.45-0.3-0.64c-0.2-0.18-0.43-0.27-0.67-0.27l0.18-0.7h6.78
				c0.32,0,0.57,0.11,0.74,0.33c0.17,0.22,0.26,0.47,0.26,0.76l-0.09,0.82L478.74,554.85z"/>
			<path class="st11" d="M510.75,533.93c1.35,0,2.4,0.35,3.13,1.06c0.74,0.71,1.11,1.6,1.11,2.67c0,0.16-0.01,0.34-0.05,0.54
				c-0.03,0.2-0.05,0.35-0.07,0.46c-0.46,2.22-1.41,3.56-2.85,4.03c0.58,0.36,1.01,0.76,1.29,1.2c0.27,0.43,0.41,1.07,0.41,1.92
				c0,0.77-0.15,1.84-0.45,3.21c-0.53,2.28-1.33,3.85-2.42,4.69c-0.99,0.77-2.51,1.15-4.57,1.15h-12.02c-0.34,0-0.6-0.1-0.77-0.29
				c-0.17-0.19-0.26-0.45-0.26-0.77c0-0.12,0.02-0.28,0.06-0.49l4.12-17.71c0.04-0.22-0.04-0.43-0.24-0.64s-0.43-0.3-0.67-0.3
				l0.18-0.7L510.75,533.93z M503.63,550.16c0.55,0,0.92-0.13,1.14-0.38c0.21-0.25,0.42-0.82,0.62-1.71
				c0.14-0.57,0.21-1.03,0.21-1.39c0-0.69-0.37-1.03-1.12-1.03h-0.85l-1.03,4.51H503.63z M505.78,541.62c0.34,0,0.58-0.1,0.73-0.29
				c0.14-0.19,0.27-0.54,0.39-1.04c0.12-0.5,0.18-0.87,0.18-1.09c0-0.53-0.29-0.79-0.88-0.79h-0.91l-0.73,3.21H505.78z"/>
			<path class="st11" d="M529.1,533.96c1.78,0,3.24,0.46,4.39,1.38c1.15,0.92,1.73,2.22,1.73,3.89c0,0.61-0.07,1.19-0.21,1.76
				l-1.82,7.69c-0.52,2.28-1.43,3.91-2.72,4.87c-1.13,0.87-2.69,1.3-4.66,1.3h-6.21c-1.9,0-3.3-0.43-4.22-1.29
				c-0.92-0.86-1.38-2.13-1.38-3.8c0-0.99,0.13-2.02,0.39-3.09l1.33-5.72c0.53-2.2,1.28-3.85,2.27-4.93
				c1.27-1.37,3.06-2.06,5.36-2.06H529.1z M522.56,548.37c-0.06,0.28-0.09,0.52-0.09,0.73c0,0.5,0.28,0.76,0.85,0.76
				c0.38,0,0.67-0.09,0.86-0.26c0.19-0.17,0.34-0.48,0.44-0.92l2-8.51c0.04-0.24,0.06-0.4,0.06-0.49c0-0.58-0.29-0.88-0.88-0.88
				c-0.64,0-1.08,0.4-1.3,1.21L522.56,548.37z"/>
			<path class="st11" d="M545.51,545.8l0.06-0.39c0-0.18-0.12-0.27-0.36-0.27c-0.24,0-0.36-0.1-0.36-0.3l0.06-0.39l0.88-3.6h6.69
				c0.48,0,0.86,0.15,1.14,0.44c0.27,0.29,0.41,0.62,0.41,0.98c0,0.46-0.04,0.85-0.12,1.15l-1.6,7.11
				c-0.36,1.61-0.92,2.74-1.66,3.38c-0.75,0.63-2,0.95-3.75,0.95h-7.33c-2.04,0-3.5-0.39-4.39-1.18c-0.79-0.71-1.18-1.79-1.18-3.24
				c0-0.93,0.16-2.06,0.48-3.39l1.66-7.3c0.43-1.9,1.24-3.36,2.45-4.39c1.11-0.95,2.38-1.42,3.82-1.42h12.38
				c-0.06,0.61-0.17,1.22-0.33,1.85c-0.16,0.63-0.34,1.14-0.53,1.54s-0.49,0.7-0.88,0.88c-0.39,0.18-0.84,0.27-1.35,0.27h-5.11
				c-0.56,0-1,0.14-1.32,0.41c-0.31,0.27-0.54,0.72-0.68,1.35l-1.97,8.48c-0.04,0.28-0.06,0.46-0.06,0.55c0,0.5,0.31,0.76,0.94,0.76
				c0.71,0,1.14-0.37,1.3-1.12L545.51,545.8z"/>
			<path class="st11" d="M568.74,533.96c2.04,0,3.52,0.53,4.45,1.57c0.83,0.95,1.24,2.34,1.24,4.18c0,0.71-0.07,1.5-0.2,2.38
				c-0.13,0.88-0.32,1.8-0.56,2.77c-0.95,4.02-1.88,6.69-2.8,8.01c-0.92,1.32-2.25,1.98-4.01,1.98h-13.5c-0.34,0-0.6-0.1-0.77-0.29
				c-0.17-0.19-0.26-0.45-0.26-0.77c0-0.12,0.02-0.28,0.06-0.49l4.12-17.71c0.04-0.22-0.04-0.43-0.24-0.64s-0.43-0.3-0.67-0.3
				l0.18-0.7H568.74z M562.8,549.86c0.42,0,0.75-0.12,0.97-0.36c0.22-0.24,0.4-0.66,0.55-1.24l1.76-7.54
				c0.08-0.34,0.12-0.67,0.12-0.97c0-0.63-0.36-0.94-1.09-0.94h-0.76l-2.57,11.05H562.8z"/>
			<path class="st11" d="M596.23,545.8l0.06-0.39c0-0.18-0.12-0.27-0.36-0.27c-0.24,0-0.36-0.1-0.36-0.3l0.06-0.39l0.88-3.6h6.69
				c0.48,0,0.86,0.15,1.14,0.44c0.27,0.29,0.41,0.62,0.41,0.98c0,0.46-0.04,0.85-0.12,1.15l-1.6,7.11
				c-0.36,1.61-0.92,2.74-1.66,3.38c-0.75,0.63-2,0.95-3.75,0.95h-7.33c-2.04,0-3.5-0.39-4.39-1.18c-0.79-0.71-1.18-1.79-1.18-3.24
				c0-0.93,0.16-2.06,0.48-3.39l1.66-7.3c0.43-1.9,1.24-3.36,2.45-4.39c1.11-0.95,2.38-1.42,3.82-1.42h12.38
				c-0.06,0.61-0.17,1.22-0.33,1.85c-0.16,0.63-0.34,1.14-0.53,1.54s-0.49,0.7-0.88,0.88c-0.39,0.18-0.84,0.27-1.35,0.27h-5.11
				c-0.57,0-1,0.14-1.32,0.41c-0.31,0.27-0.54,0.72-0.68,1.35l-1.97,8.48c-0.04,0.28-0.06,0.46-0.06,0.55c0,0.5,0.31,0.76,0.94,0.76
				c0.71,0,1.14-0.37,1.3-1.12L596.23,545.8z"/>
			<path class="st11" d="M621.91,549.1c0.14,0.24,0.33,0.45,0.58,0.62c0.24,0.17,0.51,0.26,0.82,0.26h0.88l-0.73,3.45
				c-0.2,0.95-0.93,1.42-2.18,1.42h-4.06c-0.52,0-0.98-0.14-1.36-0.41c-0.38-0.27-0.63-0.61-0.73-1.01l-1.76-6.18l-1.3,5.9
				l-0.03,0.3c0,0.2,0.09,0.37,0.26,0.5c0.17,0.13,0.39,0.2,0.65,0.2l-0.15,0.7h-8.39c-0.34,0-0.6-0.1-0.77-0.29
				c-0.17-0.19-0.26-0.45-0.26-0.77c0-0.12,0.02-0.28,0.06-0.49l4.12-17.71c0.04-0.22-0.04-0.43-0.24-0.64s-0.43-0.3-0.67-0.3
				l0.18-0.7h14.02c3.15,0,4.72,1.46,4.72,4.39c0,0.4-0.02,0.76-0.06,1.06c-0.1,0.52-0.17,0.93-0.21,1.21c-0.4,1.82-0.94,3.15-1.6,4
				c-0.67,0.85-1.61,1.41-2.84,1.7L621.91,549.1z M614.55,542.41h1.18c0.69,0,1.16-0.57,1.42-1.73c0.04-0.22,0.08-0.44,0.12-0.65
				c0.04-0.21,0.06-0.39,0.06-0.53c0-0.57-0.24-0.85-0.73-0.85h-1.18L614.55,542.41z"/>
			<path class="st11" d="M639.56,533.96c1.78,0,3.24,0.46,4.39,1.38c1.15,0.92,1.73,2.22,1.73,3.89c0,0.61-0.07,1.19-0.21,1.76
				l-1.82,7.69c-0.52,2.28-1.43,3.91-2.72,4.87c-1.13,0.87-2.68,1.3-4.66,1.3h-6.21c-1.9,0-3.3-0.43-4.22-1.29
				c-0.92-0.86-1.38-2.13-1.38-3.8c0-0.99,0.13-2.02,0.39-3.09l1.33-5.72c0.53-2.2,1.28-3.85,2.27-4.93
				c1.27-1.37,3.06-2.06,5.36-2.06H639.56z M633.02,548.37c-0.06,0.28-0.09,0.52-0.09,0.73c0,0.5,0.28,0.76,0.85,0.76
				c0.38,0,0.67-0.09,0.86-0.26c0.19-0.17,0.34-0.48,0.44-0.92l2-8.51c0.04-0.24,0.06-0.4,0.06-0.49c0-0.58-0.29-0.88-0.88-0.88
				c-0.64,0-1.08,0.4-1.3,1.21L633.02,548.37z"/>
			<path class="st11" d="M653.46,548.56c-0.04,0.2-0.06,0.32-0.06,0.36c0,0.44,0.34,0.67,1.03,0.67c0.38,0,0.66-0.07,0.83-0.2
				c0.17-0.13,0.31-0.41,0.41-0.83l3-12.96c0.04-0.2-0.04-0.41-0.24-0.62s-0.41-0.32-0.64-0.32l0.15-0.7h8.42
				c0.34,0,0.59,0.09,0.74,0.26c0.15,0.17,0.23,0.42,0.23,0.74l-0.06,0.46l-3.06,13.26c-0.52,2.3-1.38,3.92-2.57,4.87
				c-1.07,0.85-2.57,1.27-4.51,1.27h-6.93c-1.84,0-3.18-0.41-4.04-1.23c-0.86-0.82-1.29-2.02-1.29-3.62c0-0.97,0.15-2.08,0.45-3.33
				l2.57-11.05c0.04-0.2-0.04-0.41-0.24-0.62c-0.2-0.21-0.41-0.32-0.64-0.32l0.15-0.7h8.42c0.34,0,0.59,0.09,0.74,0.26
				c0.15,0.17,0.23,0.42,0.23,0.74l-0.06,0.46L653.46,548.56z"/>
			<path class="st11" d="M681.23,533.96c1.86,0,3.26,0.37,4.21,1.12c0.95,0.75,1.42,1.93,1.42,3.54c0,0.44-0.02,0.85-0.06,1.21
				c-0.04,0.36-0.13,0.82-0.27,1.36c-0.65,2.78-1.37,4.63-2.18,5.52c-0.81,0.9-2.13,1.35-3.97,1.35h-6.24l-1.12,4.75l-0.09,0.58
				c0,0.22,0.09,0.4,0.27,0.54c0.18,0.14,0.39,0.21,0.64,0.21l-0.18,0.7h-8.36c-0.34,0-0.6-0.1-0.77-0.29
				c-0.17-0.19-0.26-0.45-0.26-0.77c0-0.12,0.02-0.28,0.06-0.49l4.12-17.71c0.04-0.22-0.04-0.43-0.24-0.64s-0.42-0.3-0.67-0.3
				l0.18-0.7H681.23z M675.29,543.23h0.94c0.5,0,0.88-0.16,1.12-0.47c0.24-0.31,0.46-0.91,0.67-1.8c0.12-0.52,0.18-0.94,0.18-1.24
				c0-0.4-0.09-0.68-0.26-0.83c-0.17-0.15-0.43-0.23-0.77-0.23h-0.82L675.29,543.23z"/>
		</g>
	</g>
	<g>
		<path class="st138" d="M204.23,717.57l14.14-15.64l-8.38-15.3h4.36l3.82,7.01c1.37,2.5,2.33,4.4,2.89,5.7
			c0.97-1.36,2.51-3.21,4.62-5.55l6.51-7.15h5.17l-14.32,15.99l8.11,14.96l-4.3-0.01l-4.8-9.06c-0.46-0.88-1-2.02-1.63-3.41
			c-0.68,0.94-1.57,2.03-2.68,3.27l-8.26,9.2H204.23L204.23,717.57z M248.91,714.78c-2.34,2.2-4.81,3.29-7.39,3.29
			c-1.92,0-3.51-0.59-4.76-1.77c-1.25-1.18-1.87-2.74-1.87-4.68c0-2.31,0.81-4.09,2.43-5.35c1.67-1.29,4.11-1.94,7.32-1.94
			l1.94-0.09c0.92,0,1.74-0.06,2.45-0.2c0.72-0.13,1.32-0.31,1.79-0.53c0.28-1.04,0.43-1.94,0.43-2.7c0-0.89-0.39-1.61-1.18-2.18
			c-0.79-0.57-1.94-0.86-3.45-0.86c-3.02,0-4.99,1.36-5.92,4.09l-3.7-0.34c1.53-4.59,4.79-6.88,9.78-6.88c2.4,0,4.34,0.53,5.84,1.61
			c1.5,1.07,2.24,2.47,2.24,4.22c0,1.2-0.17,2.58-0.5,4.16l-1.19,5.57c-0.19,0.96-0.33,1.77-0.43,2.43
			c-0.1,0.66-0.14,1.28-0.14,1.84c0,1,0.15,2.04,0.45,3.1h-3.7c-0.12-0.4-0.22-0.83-0.3-1.31
			C248.95,715.78,248.91,715.28,248.91,714.78L248.91,714.78z M250.26,706.21c-0.87,0.33-2.05,0.58-3.53,0.74l-2.1,0.21
			c-1.19,0-2.22,0.15-3.11,0.45c-0.79,0.25-1.39,0.61-1.82,1.05c-0.78,0.78-1.17,1.71-1.17,2.79c0,1.06,0.36,1.93,1.08,2.63
			c0.72,0.7,1.7,1.04,2.94,1.04c1.75,0,3.34-0.64,4.78-1.92C248.76,711.92,249.74,709.59,250.26,706.21L250.26,706.21z
			 M261.96,695.15h5.43l2.02,17.88l9.96-17.88h5.33l-4.59,22.41h-3.62l3.74-18.07l-10.06,18.07h-3.25l-2.12-18.76l-3.83,18.76h-3.62
			L261.96,695.15L261.96,695.15z M285.72,717.57l4.48-22.41h3.66l-0.75,3.69c2.28-2.8,4.63-4.2,7.07-4.2c1.41,0,2.56,0.35,3.43,1.06
			c0.83,0.66,1.41,1.71,1.74,3.14c1.06-1.38,2.21-2.42,3.43-3.13c1.23-0.71,2.5-1.07,3.82-1.07c1.77,0,3.1,0.43,4.01,1.28
			c0.91,0.85,1.37,2.13,1.37,3.81c0,0.74-0.16,1.87-0.47,3.4l-2.89,14.44h-3.65l2.95-14.82c0.12-0.62,0.21-1.14,0.28-1.56
			c0.07-0.43,0.1-0.77,0.1-1.04c0-0.79-0.21-1.38-0.63-1.77c-0.43-0.4-1.06-0.59-1.91-0.59c-1.24,0-2.45,0.42-3.64,1.25
			c-1.19,0.84-2.05,1.84-2.61,2.99c-0.48,1.1-0.94,2.65-1.37,4.66l-2.19,10.87h-3.65l3.03-15.14c0.21-1.08,0.32-1.82,0.32-2.19
			c0-0.76-0.24-1.36-0.69-1.79c-0.45-0.44-1.02-0.66-1.68-0.66c-0.62,0-1.23,0.11-1.83,0.32c-0.6,0.21-1.21,0.54-1.83,0.99
			c-1.19,0.86-2.1,1.92-2.7,3.21c-0.55,1.2-1.04,2.75-1.44,4.66l-2.12,10.6H285.72L285.72,717.57z M345.96,695.15h3.7l-4.64,22.41
			h-3.68L345.96,695.15L345.96,695.15z M324.81,695.15h3.65l-1.83,8.67h3.9c2.48,0,4.24,0.19,5.3,0.57
			c1.06,0.38,1.89,1.07,2.51,2.08c0.62,1.01,0.93,2.12,0.93,3.36c0,0.75-0.1,1.47-0.3,2.18c-0.2,0.71-0.52,1.41-0.95,2.11
			c-0.81,1.35-1.82,2.26-3.04,2.74c-1.21,0.47-3.1,0.71-5.67,0.71h-9.13L324.81,695.15L324.81,695.15z M324.42,714.52h4.66
			c1.8,0,3.08-0.13,3.84-0.38c0.76-0.25,1.4-0.71,1.91-1.39c0.51-0.68,0.77-1.48,0.77-2.43c0-0.86-0.23-1.58-0.67-2.17
			c-0.46-0.58-0.97-0.94-1.57-1.07c-0.27-0.06-0.69-0.1-1.25-0.14c-0.56-0.04-1.21-0.06-1.97-0.06h-4.16L324.42,714.52
			L324.42,714.52z M355.21,695.15h3.62l-1.94,9.34h9.96l1.89-9.34h3.57l-4.52,22.41h-3.64l2.08-10.03h-9.92l-2.08,10.03h-3.61
			L355.21,695.15L355.21,695.15z M383.47,717.57l9.34-11.38l-5.36-11.04h4.04l1.82,3.98c0.78,1.77,1.39,3.21,1.81,4.29l6.18-8.27
			h4.46l-9.01,11.33l5.41,11.08l-4.05,0.01l-2.14-4.57c-0.27-0.59-0.52-1.15-0.75-1.66c-0.17-0.38-0.43-1.03-0.81-1.94l-6.38,8.17
			H383.47L383.47,717.57z M411.03,717.57l-3.54-22.41h3.54l1.86,12.34c0.19,1.24,0.44,3.44,0.74,6.61c0.7-1.62,1.59-3.44,2.68-5.48
			l7.18-13.48h3.86l-12.28,22.41l-2.54,8.86l-3.7,0.09L411.03,717.57L411.03,717.57z M429.6,695.15h3.59l-0.77,3.75
			c-0.49,2.36-0.73,4.03-0.73,5c0,0.97,0.36,1.71,1.07,2.22c0.72,0.5,1.79,0.76,3.21,0.76c1.72,0,3.32-0.32,4.81-0.94l2.21-10.78
			h3.63l-4.56,22.41h-3.65l1.76-8.59c-1.82,0.63-3.52,0.94-5.1,0.94c-2.16,0-3.88-0.48-5.14-1.46c-1.26-0.97-1.89-2.35-1.89-4.14
			c0-0.75,0.32-2.82,0.97-6.22L429.6,695.15L429.6,695.15z M459.53,708.28l0.77-3.82h11.15l-0.75,3.82H459.53L459.53,708.28z
			 M482.28,717.57l16.78-30.94h4.67l4.89,30.94h-3.85l-1.43-8.9h-11.97l-4.75,8.91L482.28,717.57L482.28,717.57z M493.05,705.48h9.8
			l-1.14-7.77c-0.26-1.87-0.46-3.31-0.58-4.3c-0.17-1.37-0.24-2.5-0.24-3.4c-0.69,1.82-1.68,3.92-2.95,6.31L493.05,705.48
			L493.05,705.48z M516.64,695.15h5.43l2.02,17.88l9.96-17.88h5.33l-4.58,22.41h-3.62l3.74-18.07l-10.06,18.07h-3.25l-2.12-18.76
			l-3.83,18.76h-3.62L516.64,695.15L516.64,695.15z M554.65,695.15h3.56l-1.99,9.57l0.28,0.03c0.77,0,1.5-0.34,2.2-1.02
			c0.69-0.68,1.58-1.95,2.66-3.81c1.17-2.01,2.23-3.31,3.19-3.89c0.96-0.58,1.94-0.88,2.97-0.88c0.71,0,1.46,0.13,2.26,0.38
			l-0.83,2.28c-0.49-0.19-0.89-0.3-1.21-0.3c-0.61,0-1.14,0.22-1.6,0.66c-0.45,0.44-1.04,1.34-1.75,2.69c-1.48,2.79-3.15,4.5-5,5.16
			c0.65,0.24,1.26,0.63,1.83,1.16c0.58,0.53,1.17,1.61,1.79,3.23l2.69,7.15h-3.77l-2.12-5.7c-0.64-1.77-1.23-2.97-1.77-3.59
			c-0.54-0.63-1.3-1.02-2.28-1.2l-2.19,10.49h-3.59l2.16-10.49c-0.37,0-0.72,0.06-1.05,0.17c-0.32,0.12-0.67,0.29-1.03,0.53
			c-0.65,0.43-1.75,1.69-3.27,3.78l-4.43,6.01l-4.43,0.01l5.67-7.47c1.65-2.18,3.43-3.54,5.33-4.07c-0.82-0.54-1.43-1.18-1.81-1.92
			c-0.39-0.75-0.77-2.12-1.13-4.11c-0.17-0.97-0.37-1.63-0.6-1.97c-0.23-0.34-0.58-0.5-1.04-0.5c-0.34,0-0.86,0.1-1.55,0.3
			l0.24-2.43c0.3-0.07,0.61-0.12,0.94-0.17c0.32-0.04,0.65-0.06,0.96-0.06c1.28,0,2.19,0.37,2.74,1.12
			c0.55,0.68,1.03,1.98,1.42,3.88c0.4,1.9,0.83,3.13,1.29,3.73c0.47,0.58,1.21,0.87,2.23,0.87L554.65,695.15L554.65,695.15z
			 M583.53,713.51c-2.57,3.04-5.18,4.56-7.82,4.56c-1.61,0-2.95-0.48-4.02-1.43c-1.06-0.95-1.59-2.16-1.59-3.64
			c0-1.02,0.23-2.65,0.68-4.92l2.59-12.93h3.66l-2.87,14.33c-0.24,1.18-0.37,2.13-0.37,2.82c0,0.86,0.24,1.52,0.72,1.98
			c0.5,0.44,1.22,0.66,2.16,0.66c1.4,0,2.73-0.47,3.99-1.41c1.26-0.94,2.18-2.07,2.77-3.38c0.55-1.25,1.07-3.02,1.54-5.32l1.94-9.68
			h3.65l-4.48,22.41h-3.37L583.53,713.51L583.53,713.51z M598.01,695.15h16.16l-4.57,22.41h-3.63l4-19.23h-9.01l-2.77,13.36
			c-0.47,2.29-1.1,3.89-1.9,4.8c-0.79,0.91-1.9,1.36-3.3,1.36c-0.43,0-0.9-0.02-1.4-0.06c-0.51-0.04-1.11-0.12-1.81-0.23l0.67-3.16
			l1.54,0.06c0.92,0,1.53-0.23,1.81-0.7c0.28-0.46,0.7-1.95,1.26-4.47L598.01,695.15L598.01,695.15z M615.2,717.57l4.48-22.41h3.66
			l-0.75,3.69c2.28-2.8,4.63-4.2,7.07-4.2c1.41,0,2.56,0.35,3.43,1.06c0.83,0.66,1.41,1.71,1.74,3.14c1.06-1.38,2.21-2.42,3.43-3.13
			c1.23-0.71,2.5-1.07,3.82-1.07c1.77,0,3.1,0.43,4.01,1.28c0.91,0.85,1.36,2.13,1.36,3.81c0,0.74-0.16,1.87-0.47,3.4l-2.9,14.44
			h-3.65l2.95-14.82c0.12-0.62,0.21-1.14,0.28-1.56c0.07-0.43,0.1-0.77,0.1-1.04c0-0.79-0.21-1.38-0.63-1.77
			c-0.43-0.4-1.06-0.59-1.91-0.59c-1.24,0-2.45,0.42-3.64,1.25c-1.19,0.84-2.05,1.84-2.61,2.99c-0.48,1.1-0.94,2.65-1.37,4.66
			l-2.19,10.87h-3.65l3.03-15.14c0.21-1.08,0.32-1.82,0.32-2.19c0-0.76-0.23-1.36-0.69-1.79c-0.45-0.44-1.02-0.66-1.68-0.66
			c-0.62,0-1.23,0.11-1.83,0.32c-0.6,0.21-1.21,0.54-1.83,0.99c-1.19,0.86-2.1,1.92-2.7,3.21c-0.55,1.2-1.03,2.75-1.43,4.66
			l-2.12,10.6H615.2L615.2,717.57z M675.43,695.15h3.7l-4.64,22.41h-3.68L675.43,695.15L675.43,695.15z M654.29,695.15h3.65
			l-1.83,8.67h3.9c2.48,0,4.24,0.19,5.3,0.57c1.06,0.38,1.89,1.07,2.51,2.08c0.62,1.01,0.93,2.12,0.93,3.36
			c0,0.75-0.1,1.47-0.3,2.18c-0.2,0.71-0.52,1.41-0.95,2.11c-0.81,1.35-1.82,2.26-3.04,2.74c-1.21,0.47-3.1,0.71-5.67,0.71h-9.13
			L654.29,695.15L654.29,695.15z M653.9,714.52h4.66c1.8,0,3.08-0.13,3.84-0.38c0.76-0.25,1.4-0.71,1.91-1.39
			c0.51-0.68,0.77-1.48,0.77-2.43c0-0.86-0.23-1.58-0.68-2.17c-0.46-0.58-0.97-0.94-1.57-1.07c-0.27-0.06-0.69-0.1-1.25-0.14
			c-0.56-0.04-1.21-0.06-1.97-0.06h-4.16L653.9,714.52L653.9,714.52z M684.69,695.15h3.62l-1.94,9.34h9.96l1.89-9.34h3.57
			l-4.52,22.41h-3.64l2.08-10.03h-9.92l-2.08,10.03h-3.61L684.69,695.15L684.69,695.15z M714.36,717.57l4.48-22.41h3.66l-0.75,3.69
			c2.28-2.8,4.63-4.2,7.07-4.2c1.41,0,2.56,0.35,3.43,1.06c0.83,0.66,1.41,1.71,1.74,3.14c1.06-1.38,2.21-2.42,3.43-3.13
			c1.23-0.71,2.5-1.07,3.82-1.07c1.77,0,3.1,0.43,4.01,1.28c0.91,0.85,1.36,2.13,1.36,3.81c0,0.74-0.16,1.87-0.47,3.4l-2.9,14.44
			h-3.65l2.95-14.82c0.12-0.62,0.21-1.14,0.28-1.56c0.07-0.43,0.1-0.77,0.1-1.04c0-0.79-0.21-1.38-0.63-1.77
			c-0.43-0.4-1.06-0.59-1.91-0.59c-1.24,0-2.45,0.42-3.64,1.25c-1.19,0.84-2.05,1.84-2.61,2.99c-0.48,1.1-0.94,2.65-1.37,4.66
			l-2.19,10.87h-3.65l3.03-15.14c0.21-1.08,0.32-1.82,0.32-2.19c0-0.76-0.24-1.36-0.69-1.79c-0.46-0.44-1.02-0.66-1.68-0.66
			c-0.62,0-1.23,0.11-1.83,0.32c-0.6,0.21-1.21,0.54-1.83,0.99c-1.19,0.86-2.1,1.92-2.7,3.21c-0.55,1.2-1.03,2.75-1.43,4.66
			l-2.12,10.6H714.36L714.36,717.57z M754.28,717.57l-3.54-22.41h3.54l1.86,12.34c0.19,1.24,0.44,3.44,0.74,6.61
			c0.7-1.62,1.59-3.44,2.68-5.48l7.18-13.48h3.86l-12.28,22.41l-2.54,8.86l-3.7,0.09L754.28,717.57L754.28,717.57z M775.66,695.15
			h16.16l-4.56,22.41h-3.63l4-19.23h-9.01l-2.77,13.36c-0.47,2.29-1.1,3.89-1.9,4.8c-0.79,0.91-1.9,1.36-3.3,1.36
			c-0.43,0-0.9-0.02-1.4-0.06c-0.51-0.04-1.11-0.12-1.81-0.23l0.67-3.16l1.54,0.06c0.92,0,1.53-0.23,1.81-0.7
			c0.28-0.46,0.7-1.95,1.26-4.47L775.66,695.15L775.66,695.15z M791.43,717.57l9.34-11.38l-5.36-11.04h4.04l1.82,3.98
			c0.78,1.77,1.39,3.21,1.81,4.29l6.19-8.27h4.46l-9.01,11.33l5.41,11.08l-4.05,0.01l-2.14-4.57c-0.27-0.59-0.52-1.15-0.74-1.66
			c-0.17-0.38-0.43-1.03-0.81-1.94l-6.39,8.17H791.43L791.43,717.57z M818.99,717.57l-3.54-22.41h3.54l1.86,12.34
			c0.19,1.24,0.44,3.44,0.74,6.61c0.7-1.62,1.59-3.44,2.68-5.48l7.18-13.48h3.86l-12.28,22.41l-2.54,8.86l-3.7,0.09L818.99,717.57
			L818.99,717.57z M839.67,717.57l-3.54-22.41h3.54l1.86,12.34c0.19,1.24,0.44,3.44,0.74,6.61c0.7-1.62,1.59-3.44,2.68-5.48
			l7.18-13.48h3.86l-12.28,22.41l-2.54,8.86l-3.7,0.09L839.67,717.57L839.67,717.57z M853.21,726.15l6.2-31h3.38l-0.63,3.12
			c2.15-2.42,4.33-3.63,6.52-3.63c2.02,0,3.7,0.78,5.06,2.36c1.35,1.56,2.03,3.8,2.03,6.68c0,3.94-1.05,7.33-3.17,10.15
			c-2.12,2.83-4.56,4.24-7.35,4.24c-2.55,0-4.54-1.36-5.96-4.09l-2.41,12.18H853.21L853.21,726.15z M860.4,709.16
			c0,1.93,0.45,3.38,1.37,4.34c0.92,0.97,2.03,1.45,3.35,1.45c2.12,0,3.81-1.26,5.1-3.78c1.28-2.52,1.92-5.06,1.92-7.62
			c0-1.52-0.39-2.87-1.15-4.05c-0.77-1.18-1.89-1.77-3.37-1.77c-2.06,0-3.78,1.21-5.15,3.64
			C861.09,703.79,860.4,706.39,860.4,709.16L860.4,709.16z"/>
	</g>
	<g>
		
			<linearGradient id="SVGID_00000064325561275267441790000016311230531365201589_" gradientUnits="userSpaceOnUse" x1="57.8098" y1="600.3415" x2="57.8098" y2="680.7457">
			<stop  offset="0" style="stop-color:#3E76BB"/>
			<stop  offset="0.9672" style="stop-color:#06509E"/>
		</linearGradient>
		<path style="fill:url(#SVGID_00000064325561275267441790000016311230531365201589_);" d="M78.31,607.58c1.02,0,2-0.21,2.95-0.62
			c0.96-0.41,1.56-1,1.81-1.77h2.19l-3.81,14.59c-0.63,2.04-2.51,3.05-5.63,3.05h-5.62l-10.68,45.4c-0.13,0.63,0.16,1.29,0.86,1.95
			c0.7,0.67,1.4,1,2.1,1l-0.67,2.19H35.3c-2.04,0-3.05-1.02-3.05-3.05c0-0.25,0.06-0.76,0.19-1.53l10.78-45.97h-6.58
			c-1.02,0-1.86,0.24-2.53,0.72c-0.67,0.48-1.13,1.1-1.38,1.86h-2.38l3.81-15.26c0.25-0.89,0.76-1.54,1.53-1.95
			c0.76-0.41,1.97-0.62,3.62-0.62H78.31z"/>
		
			<linearGradient id="SVGID_00000165915138363576433390000013469419992323124117_" gradientUnits="userSpaceOnUse" x1="97.4645" y1="600.3415" x2="97.4645" y2="680.7457">
			<stop  offset="0" style="stop-color:#3E76BB"/>
			<stop  offset="0.9672" style="stop-color:#06509E"/>
		</linearGradient>
		<path style="fill:url(#SVGID_00000165915138363576433390000013469419992323124117_);" d="M106.71,673.38
			c-1.65,0-2.88-0.27-3.67-0.81c-0.79-0.54-1.26-1.48-1.38-2.81l-0.86-9.73H89.74l-3.91,7.82c-0.06,0.19-0.09,0.35-0.09,0.48
			c0,0.13-0.03,0.38-0.09,0.76c0,0.57,0.27,1.06,0.81,1.48c0.54,0.41,1.16,0.62,1.86,0.62l-0.48,2.19h-20.7c-2.67,0-4-1.05-4-3.15
			c0-0.57,0.16-1.18,0.48-1.81l28.04-54.36c0.19-0.38,0.28-0.86,0.28-1.43c0-0.7-0.3-1.35-0.9-1.95c-0.6-0.6-1.26-0.91-1.95-0.91
			l0.57-2.19h28.42c1.46,0,2.7,0.4,3.72,1.19c1.02,0.79,1.53,1.92,1.53,3.38l4.39,55.69c0,0.83,0.45,1.59,1.34,2.29
			c0.89,0.7,1.81,1.05,2.76,1.05l-0.48,2.19H106.71z M95.37,647.25h5.44l-0.76-10.68L95.37,647.25z"/>
		
			<linearGradient id="SVGID_00000119822855285630530540000003683150534050443930_" gradientUnits="userSpaceOnUse" x1="163.7628" y1="600.3415" x2="163.7628" y2="680.7457">
			<stop  offset="0" style="stop-color:#3E76BB"/>
			<stop  offset="0.9672" style="stop-color:#06509E"/>
		</linearGradient>
		<path style="fill:url(#SVGID_00000119822855285630530540000003683150534050443930_);" d="M184.7,607.48
			c4.26,0,7.55,1.11,9.87,3.34c2.32,2.22,3.48,5.02,3.48,8.39c0,0.51-0.05,1.08-0.14,1.72c-0.09,0.63-0.17,1.11-0.24,1.43
			c-1.46,6.99-4.45,11.22-8.97,12.68c1.84,1.15,3.2,2.4,4.05,3.77c0.86,1.37,1.29,3.39,1.29,6.06c0,2.42-0.48,5.79-1.43,10.11
			c-1.65,7.18-4.19,12.11-7.63,14.78c-3.11,2.41-7.91,3.62-14.4,3.62h-37.86c-1.08,0-1.89-0.3-2.43-0.9
			c-0.54-0.6-0.81-1.41-0.81-2.43c0-0.38,0.06-0.89,0.19-1.53l12.97-55.79c0.13-0.7-0.13-1.37-0.76-2c-0.64-0.64-1.34-0.96-2.1-0.96
			l0.57-2.19L184.7,607.48z M162.28,658.6c1.72,0,2.91-0.4,3.58-1.19c0.67-0.79,1.32-2.59,1.96-5.39c0.44-1.78,0.67-3.24,0.67-4.39
			c0-2.16-1.17-3.24-3.53-3.24h-2.67l-3.24,14.21H162.28z M169.06,631.71c1.08,0,1.84-0.3,2.29-0.91c0.45-0.6,0.86-1.7,1.24-3.29
			c0.38-1.59,0.57-2.73,0.57-3.43c0-1.65-0.92-2.48-2.77-2.48h-2.86l-2.29,10.11H169.06z"/>
		
			<linearGradient id="SVGID_00000164480858361787913250000003857734524270647715_" gradientUnits="userSpaceOnUse" x1="223.0974" y1="600.3415" x2="223.0974" y2="680.7457">
			<stop  offset="0" style="stop-color:#3E76BB"/>
			<stop  offset="0.9672" style="stop-color:#06509E"/>
		</linearGradient>
		<path style="fill:url(#SVGID_00000164480858361787913250000003857734524270647715_);" d="M232.35,673.38
			c-1.65,0-2.88-0.27-3.67-0.81c-0.79-0.54-1.26-1.48-1.38-2.81l-0.86-9.73h-11.06l-3.91,7.82c-0.06,0.19-0.09,0.35-0.09,0.48
			c0,0.13-0.03,0.38-0.09,0.76c0,0.57,0.27,1.06,0.81,1.48c0.54,0.41,1.16,0.62,1.86,0.62l-0.48,2.19h-20.69c-2.67,0-4-1.05-4-3.15
			c0-0.57,0.16-1.18,0.48-1.81l28.04-54.36c0.19-0.38,0.29-0.86,0.29-1.43c0-0.7-0.3-1.35-0.9-1.95c-0.6-0.6-1.26-0.91-1.95-0.91
			l0.57-2.19h28.42c1.46,0,2.7,0.4,3.72,1.19c1.02,0.79,1.53,1.92,1.53,3.38l4.39,55.69c0,0.83,0.45,1.59,1.33,2.29
			c0.89,0.7,1.81,1.05,2.77,1.05l-0.48,2.19H232.35z M221,647.25h5.44l-0.76-10.68L221,647.25z"/>
		
			<linearGradient id="SVGID_00000044864274889493342170000007333433791986094221_" gradientUnits="userSpaceOnUse" x1="296.5918" y1="600.3415" x2="296.5918" y2="680.7457">
			<stop  offset="0" style="stop-color:#3E76BB"/>
			<stop  offset="0.9672" style="stop-color:#06509E"/>
		</linearGradient>
		<path style="fill:url(#SVGID_00000044864274889493342170000007333433791986094221_);" d="M292.3,644.39l-5.44,23.46l-0.09,0.76
			c0,0.7,0.32,1.31,0.95,1.81c0.64,0.51,1.31,0.76,2,0.76l-0.48,2.19h-26.6c-2.1,0-3.15-1.02-3.15-3.05c0-0.32,0.06-0.86,0.19-1.62
			l13.06-55.98c0.13-0.63-0.16-1.29-0.86-1.95c-0.7-0.67-1.4-1-2.1-1l0.67-2.19h26.51c2.03,0,3.05,1.02,3.05,3.05
			c0,0.26-0.06,0.76-0.19,1.53l-4.58,19.55h6.77l4.39-18.98c0.13-0.63-0.13-1.29-0.76-1.95c-0.64-0.67-1.31-1-2-1l0.48-2.19h26.51
			c1.08,0,1.86,0.27,2.34,0.81c0.48,0.54,0.72,1.32,0.72,2.34l-0.19,1.43l-12.97,56.08c-0.13,0.63,0.16,1.29,0.86,1.95
			c0.7,0.67,1.4,1,2.1,1l-0.67,2.19h-26.51c-2.04,0-3.05-1.02-3.05-3.05c0-0.25,0.06-0.76,0.19-1.53l5.62-24.41H292.3z"/>
		
			<linearGradient id="SVGID_00000048497352385236266180000009162600838773090945_" gradientUnits="userSpaceOnUse" x1="400.2547" y1="600.3415" x2="400.2547" y2="680.7457">
			<stop  offset="0" style="stop-color:#3E76BB"/>
			<stop  offset="0.9672" style="stop-color:#06509E"/>
		</linearGradient>
		<path style="fill:url(#SVGID_00000048497352385236266180000009162600838773090945_);" d="M415.85,629.7
			c4.77,0,8.52,1.31,11.25,3.91c2.73,2.61,4.1,6.36,4.1,11.25c0,2.61-0.38,5.47-1.14,8.58c-0.76,3.12-1.68,6.01-2.76,8.68
			c-1.78,4.45-4.15,7.44-7.11,8.96c-2.96,1.53-7.26,2.29-12.92,2.29h-38.62c-1.08,0-1.89-0.3-2.43-0.9
			c-0.54-0.6-0.81-1.41-0.81-2.43c0-0.38,0.06-0.89,0.19-1.53l12.97-55.79c0.13-0.7-0.13-1.37-0.76-2c-0.63-0.64-1.34-0.96-2.1-0.96
			l0.57-2.19h58.84l-2.67,10.49c-0.32,1.27-1.21,2.31-2.67,3.1c-1.46,0.8-2.92,1.19-4.39,1.19h-22.12l-1.72,7.34H415.85z
			 M395.06,658.12h3.15c1.53,0,2.62-0.48,3.29-1.43c0.67-0.95,1.38-2.92,2.15-5.91c0.38-1.65,0.57-3.02,0.57-4.1
			c0-2.1-0.99-3.15-2.95-3.15h-2.86L395.06,658.12z"/>
		
			<linearGradient id="SVGID_00000057128237844316716540000003317079563043589766_" gradientUnits="userSpaceOnUse" x1="466.8857" y1="600.3415" x2="466.8857" y2="680.7457">
			<stop  offset="0" style="stop-color:#3E76BB"/>
			<stop  offset="0.9672" style="stop-color:#06509E"/>
		</linearGradient>
		<path style="fill:url(#SVGID_00000057128237844316716540000003317079563043589766_);" d="M481.05,607.58
			c5.6,0,10.2,1.45,13.83,4.34c3.62,2.89,5.44,6.98,5.44,12.25c0,1.91-0.22,3.75-0.67,5.53l-5.72,24.22
			c-1.65,7.18-4.51,12.3-8.58,15.35c-3.56,2.73-8.46,4.1-14.69,4.1H451.1c-5.98,0-10.41-1.35-13.3-4.05
			c-2.89-2.7-4.34-6.69-4.34-11.97c0-3.12,0.41-6.36,1.24-9.73l4.2-18.03c1.65-6.93,4.04-12.11,7.15-15.54
			c4-4.32,9.63-6.49,16.88-6.49H481.05z M460.45,652.97c-0.19,0.89-0.28,1.65-0.28,2.29c0,1.59,0.89,2.38,2.67,2.38
			c1.21,0,2.11-0.27,2.72-0.81c0.6-0.54,1.06-1.51,1.38-2.91l6.29-26.8c0.13-0.76,0.19-1.27,0.19-1.53c0-1.84-0.92-2.77-2.76-2.77
			c-2.03,0-3.4,1.27-4.1,3.81L460.45,652.97z"/>
		
			<linearGradient id="SVGID_00000143600829390597645190000015944685712910935203_" gradientUnits="userSpaceOnUse" x1="526.223" y1="600.3415" x2="526.223" y2="680.7457">
			<stop  offset="0" style="stop-color:#3E76BB"/>
			<stop  offset="0.9672" style="stop-color:#06509E"/>
		</linearGradient>
		<path style="fill:url(#SVGID_00000143600829390597645190000015944685712910935203_);" d="M524.31,666.13
			c-0.19,0.7-0.28,1.4-0.28,2.1c0,0.76,0.36,1.45,1.09,2.05c0.73,0.6,1.48,0.9,2.24,0.9l-0.48,2.19h-27.08
			c-1.08,0-1.89-0.3-2.43-0.9c-0.54-0.6-0.81-1.41-0.81-2.43c0-0.38,0.06-0.89,0.19-1.53l12.97-55.79c0.13-0.7-0.13-1.37-0.76-2
			c-0.63-0.64-1.34-0.96-2.1-0.96l0.57-2.19h48.44l-2.48,10.68c-0.32,1.4-1.03,2.51-2.14,3.34c-1.11,0.83-2.4,1.24-3.86,1.24h-13.16
			L524.31,666.13z"/>
		
			<linearGradient id="SVGID_00000172400453504899105440000011761848108474213251_" gradientUnits="userSpaceOnUse" x1="564.92" y1="600.3415" x2="564.92" y2="680.7457">
			<stop  offset="0" style="stop-color:#3E76BB"/>
			<stop  offset="0.9672" style="stop-color:#06509E"/>
		</linearGradient>
		<path style="fill:url(#SVGID_00000172400453504899105440000011761848108474213251_);" d="M592.2,655.17
			c0.32,1.97,1.21,2.96,2.67,2.96h2.38L594.77,669c-0.45,1.84-1.34,3.08-2.67,3.72c-1.02,0.45-2.71,0.67-5.06,0.67H536.5
			c-2.61,0-3.91-1.05-3.91-3.15l0.19-1.53l2.39-10.59h2.57c0.89,0,1.67-0.27,2.34-0.81c0.67-0.54,1.16-1.19,1.48-1.95l19.26-41.2
			l0.19-1.72c0-0.76-0.25-1.4-0.76-1.91c-0.51-0.51-1.14-0.76-1.91-0.76l0.48-2.19h23.08c1.34,0,2.47,0.37,3.39,1.1
			c0.92,0.73,1.45,1.64,1.58,2.72L592.2,655.17z M566.35,646.11l-4.67,12.01h5.44L566.35,646.11z"/>
		
			<linearGradient id="SVGID_00000183224997188979013790000015004067514039540140_" gradientUnits="userSpaceOnUse" x1="663.8188" y1="600.3415" x2="663.8188" y2="680.7457">
			<stop  offset="0" style="stop-color:#3E76BB"/>
			<stop  offset="0.9672" style="stop-color:#06509E"/>
		</linearGradient>
		<path style="fill:url(#SVGID_00000183224997188979013790000015004067514039540140_);" d="M684.75,607.48
			c4.26,0,7.55,1.11,9.87,3.34s3.48,5.02,3.48,8.39c0,0.51-0.04,1.08-0.14,1.72c-0.09,0.63-0.17,1.11-0.23,1.43
			c-1.46,6.99-4.45,11.22-8.97,12.68c1.84,1.15,3.2,2.4,4.05,3.77c0.86,1.37,1.29,3.39,1.29,6.06c0,2.42-0.48,5.79-1.43,10.11
			c-1.65,7.18-4.2,12.11-7.63,14.78c-3.11,2.41-7.91,3.62-14.4,3.62h-37.86c-1.08,0-1.89-0.3-2.43-0.9
			c-0.54-0.6-0.81-1.41-0.81-2.43c0-0.38,0.07-0.89,0.19-1.53l12.97-55.79c0.13-0.7-0.12-1.37-0.76-2
			c-0.63-0.64-1.33-0.96-2.09-0.96l0.57-2.19L684.75,607.48z M662.34,658.6c1.72,0,2.91-0.4,3.58-1.19
			c0.67-0.79,1.32-2.59,1.95-5.39c0.45-1.78,0.67-3.24,0.67-4.39c0-2.16-1.18-3.24-3.53-3.24h-2.67l-3.24,14.21H662.34z
			 M669.11,631.71c1.08,0,1.84-0.3,2.29-0.91c0.45-0.6,0.86-1.7,1.24-3.29c0.38-1.59,0.57-2.73,0.57-3.43
			c0-1.65-0.92-2.48-2.76-2.48h-2.86l-2.29,10.11H669.11z"/>
		
			<linearGradient id="SVGID_00000111177268324600207490000017004711259131932299_" gradientUnits="userSpaceOnUse" x1="723.1562" y1="600.3415" x2="723.1562" y2="680.7457">
			<stop  offset="0" style="stop-color:#3E76BB"/>
			<stop  offset="0.9672" style="stop-color:#06509E"/>
		</linearGradient>
		<path style="fill:url(#SVGID_00000111177268324600207490000017004711259131932299_);" d="M732.41,673.38
			c-1.65,0-2.87-0.27-3.67-0.81s-1.26-1.48-1.38-2.81l-0.86-9.73h-11.06l-3.91,7.82c-0.07,0.19-0.09,0.35-0.09,0.48
			c0,0.13-0.03,0.38-0.09,0.76c0,0.57,0.27,1.06,0.81,1.48c0.54,0.41,1.16,0.62,1.86,0.62l-0.48,2.19h-20.69c-2.67,0-4-1.05-4-3.15
			c0-0.57,0.16-1.18,0.48-1.81l28.03-54.36c0.19-0.38,0.29-0.86,0.29-1.43c0-0.7-0.3-1.35-0.91-1.95c-0.6-0.6-1.25-0.91-1.95-0.91
			l0.57-2.19h28.42c1.46,0,2.7,0.4,3.72,1.19c1.02,0.79,1.53,1.92,1.53,3.38l4.39,55.69c0,0.83,0.45,1.59,1.33,2.29
			c0.89,0.7,1.82,1.05,2.77,1.05l-0.48,2.19H732.41z M721.06,647.25h5.44l-0.76-10.68L721.06,647.25z"/>
		
			<linearGradient id="SVGID_00000152983358877748744650000010902474530468661134_" gradientUnits="userSpaceOnUse" x1="809.9584" y1="600.3415" x2="809.9584" y2="680.7457">
			<stop  offset="0" style="stop-color:#3E76BB"/>
			<stop  offset="0.9672" style="stop-color:#06509E"/>
		</linearGradient>
		<path style="fill:url(#SVGID_00000152983358877748744650000010902474530468661134_);" d="M755.93,670.33
			c0-0.25,0.07-0.76,0.19-1.53l12.97-56.07c0.13-0.63-0.12-1.29-0.76-1.95c-0.63-0.67-1.3-1-2-1l0.47-2.19h26.51
			c1.08,0,1.86,0.27,2.34,0.81c0.47,0.54,0.71,1.32,0.71,2.34l-0.19,1.43l-10.59,45.97h6.68l10.59-45.39
			c0.13-0.63-0.13-1.29-0.76-1.95c-0.63-0.67-1.3-1-2-1l0.48-2.19h26.51c1.09,0,1.86,0.27,2.34,0.81c0.48,0.54,0.71,1.32,0.71,2.34
			l-0.19,1.43l-10.59,45.97h6.68l10.68-45.39c0.13-0.63-0.13-1.29-0.76-1.95c-0.63-0.67-1.3-1-2-1l0.48-2.19h26.51
			c1.08,0,1.86,0.27,2.33,0.81c0.48,0.54,0.72,1.32,0.72,2.34l-0.19,1.43l-12.78,54.84l-0.29,1.81c0,0.7,0.29,1.27,0.86,1.72
			c0.57,0.44,1.24,0.67,2,0.67l-0.57,2.19h-94.03C756.95,673.38,755.93,672.36,755.93,670.33z"/>
		
			<linearGradient id="SVGID_00000119106306475578906220000015941882360490017669_" gradientUnits="userSpaceOnUse" x1="890.3984" y1="600.3415" x2="890.3984" y2="680.7457">
			<stop  offset="0" style="stop-color:#3E76BB"/>
			<stop  offset="0.9672" style="stop-color:#06509E"/>
		</linearGradient>
		<path style="fill:url(#SVGID_00000119106306475578906220000015941882360490017669_);" d="M921.06,607.58l-2.48,10.49
			c-0.45,1.78-1.32,3.02-2.62,3.72c-1.3,0.7-3,1.05-5.1,1.05H897.6l-2.09,9.06h15.83l-1.81,8.01c-0.32,1.4-1.16,2.53-2.53,3.39
			c-1.36,0.86-2.91,1.29-4.62,1.29h-5.82c-2.61,0-4.26,1.43-4.96,4.29l-2.19,9.25h14.68c1.59,0,2.92-1.02,4-3.05h3.81l-3.43,15.07
			c-0.32,1.27-1.04,2.13-2.15,2.58c-1.11,0.45-2.52,0.67-4.24,0.67h-39.1c-1.08,0-1.89-0.3-2.43-0.9c-0.54-0.6-0.81-1.41-0.81-2.43
			c0-0.38,0.06-0.89,0.19-1.53l12.97-55.79c0.13-0.7-0.13-1.37-0.76-2c-0.63-0.64-1.34-0.96-2.1-0.96l0.57-2.19H921.06z
			 M883.2,602.81c-2.99,0-4.48-1.27-4.48-3.81l0.19-1.53l1.43-5.82h11.25c2.48,0,3.71,0.83,3.71,2.48v0.86l-2,7.82H883.2z
			 M906.56,602.81c-2.98,0-4.48-1.27-4.48-3.81l0.19-1.53l1.43-5.82h11.25c2.48,0,3.72,0.83,3.72,2.48v0.86l-2,7.82H906.56z"/>
		
			<linearGradient id="SVGID_00000039849134500762715270000012967826349045274300_" gradientUnits="userSpaceOnUse" x1="951.9354" y1="600.3415" x2="951.9354" y2="680.7457">
			<stop  offset="0" style="stop-color:#3E76BB"/>
			<stop  offset="0.9672" style="stop-color:#06509E"/>
		</linearGradient>
		<path style="fill:url(#SVGID_00000039849134500762715270000012967826349045274300_);" d="M981.97,669.18
			c-0.32,1.4-1.09,2.45-2.33,3.15s-3.55,1.05-6.92,1.05h-8.01c-1.46,0-2.83-0.51-4.1-1.53c-1.27-1.02-2.16-2.16-2.67-3.43
			l-7.72-19.07l-5.44,5.15l-3.25,14.11c0,0.7,0.32,1.31,0.96,1.81c0.63,0.51,1.3,0.76,2,0.76l-0.47,2.19h-26.61
			c-2.1,0-3.15-1.02-3.15-3.05c0-0.32,0.06-0.86,0.19-1.62l13.06-55.98c0.13-0.63-0.16-1.29-0.86-1.95c-0.7-0.67-1.4-1-2.1-1
			l0.67-2.19h26.51c2.03,0,3.05,1.02,3.05,3.05c0,0.26-0.07,0.76-0.19,1.53l-2.67,11.44l8.97-9.73c0.51-0.63,0.76-1.24,0.76-1.81
			c0-0.63-0.22-1.17-0.67-1.62s-0.86-0.67-1.24-0.67l0.57-2.19h25.56c1.21,0,2.13,0.35,2.76,1.05c0.63,0.7,0.95,1.5,0.95,2.39
			c0,0.89-0.38,1.78-1.14,2.67l-19.36,18.31l9.63,23.65c0.7,1.65,1.94,2.48,3.72,2.48h2.1L981.97,669.18z"/>
		
			<linearGradient id="SVGID_00000093883027020493475480000012904005917320553872_" gradientUnits="userSpaceOnUse" x1="1018.7571" y1="600.3415" x2="1018.7571" y2="680.7457">
			<stop  offset="0" style="stop-color:#3E76BB"/>
			<stop  offset="0.9672" style="stop-color:#06509E"/>
		</linearGradient>
		<path style="fill:url(#SVGID_00000093883027020493475480000012904005917320553872_);" d="M991.19,612.63
			c-0.32-1.91-1.43-2.86-3.34-2.86l0.57-2.19h22.79c1.72,0,3.2,0.43,4.44,1.29c1.24,0.86,1.92,1.95,2.05,3.29l2,16.31l8.68-14.3
			c0.13-0.38,0.19-0.92,0.19-1.62c0-0.7-0.32-1.34-0.95-1.91c-0.63-0.57-1.3-0.86-2-0.86l0.48-2.19h20.4c1.02,0,1.8,0.37,2.34,1.1
			c0.54,0.73,0.81,1.54,0.81,2.43c0,0.89-0.16,1.59-0.48,2.1l-24.03,39.1l-3.34,14.68l-0.28,1.81c0,0.7,0.28,1.27,0.86,1.72
			c0.57,0.44,1.24,0.67,2,0.67l-0.57,2.19h-24.13c-2.48,0-3.72-1.14-3.72-3.43c0-0.45,0.03-0.79,0.09-1.05l4.1-17.74L991.19,612.63z
			"/>
	</g>
</g>
</svg>
