<?xml version="1.0" encoding="utf-8"?>
<!-- Generator: Adobe Illustrator 26.5.0, SVG Export Plug-In . SVG Version: 6.00 Build 0)  -->
<svg version="1.1" id="Layer_1" xmlns="http://www.w3.org/2000/svg" xmlns:xlink="http://www.w3.org/1999/xlink" x="0px" y="0px"
	 viewBox="0 0 1080 1080" style="enable-background:new 0 0 1080 1080;" xml:space="preserve">
<style type="text/css">
	.st0{fill-rule:evenodd;clip-rule:evenodd;}
	.st1{fill:#ED1C24;}
	.st2{fill:#E1251B;}
	.st3{fill-rule:evenodd;clip-rule:evenodd;fill:#16397B;}
	.st4{fill:#EE2745;}
	
		.st5{clip-path:url(#SVGID_00000142165340586745992280000002628344898922646441_);fill:url(#SVGID_00000088839055772972855280000000089744153657480321_);}
	
		.st6{clip-path:url(#SVGID_00000114049422729613879090000018162674943109173915_);fill:url(#SVGID_00000114783767989201743380000009301234429377794740_);}
	
		.st7{clip-path:url(#SVGID_00000160177819542044929460000013927733217428811187_);fill:url(#SVGID_00000085954462849401083720000005591360386964594331_);}
	
		.st8{clip-path:url(#SVGID_00000111178170436423248470000000436431739363703741_);fill:url(#SVGID_00000019663766513752929500000017032338908633245313_);}
	.st9{fill:#424243;}
	
		.st10{clip-path:url(#SVGID_00000016057144654271204400000000589037518093011617_);fill:url(#SVGID_00000106109758786898377510000011021336925571893171_);}
	.st11{fill:#FFFFFF;}
	
		.st12{clip-path:url(#SVGID_00000086671305161574778680000004824903623121304747_);fill:url(#SVGID_00000010299221188291973640000007529980605351784104_);}
	
		.st13{clip-path:url(#SVGID_00000062155849036098709620000009194644801606226339_);fill:url(#SVGID_00000064332637669519376490000008141221762230290574_);}
	
		.st14{clip-path:url(#SVGID_00000173150288055315557200000002685367859760172690_);fill:url(#SVGID_00000104691085151300734980000013059561517292798643_);}
	
		.st15{clip-path:url(#SVGID_00000075125095034495661620000004693283997181081246_);fill:url(#SVGID_00000112630163272605029440000005510138215855739547_);}
	
		.st16{clip-path:url(#SVGID_00000132806899535795980730000011820012016069462700_);fill:url(#SVGID_00000142146071655395742780000016128936714043606719_);}
	
		.st17{clip-path:url(#SVGID_00000144307275242843865990000007966792931814059426_);fill:url(#SVGID_00000072960389490144965990000000787834841415540871_);}
	
		.st18{clip-path:url(#SVGID_00000115475735210480059480000006184965555396837249_);fill:url(#SVGID_00000065769722268083496320000001277171083992790447_);}
	.st19{fill-rule:evenodd;clip-rule:evenodd;fill:#C8202F;}
	.st20{fill-rule:evenodd;clip-rule:evenodd;fill:#FFFFFF;}
	.st21{fill-rule:evenodd;clip-rule:evenodd;fill:#F98238;}
	.st22{filter:url(#Adobe_OpacityMaskFilter);}
	.st23{fill:url(#SVGID_00000095325784266361238870000004974519873272228752_);}
	.st24{mask:url(#SVGID_00000068657687321015528040000004234581556439328434_);fill-rule:evenodd;clip-rule:evenodd;fill:#ED1C24;}
	.st25{fill-rule:evenodd;clip-rule:evenodd;fill:#F5333F;}
	.st26{fill-rule:evenodd;clip-rule:evenodd;fill:#ED1C24;}
	.st27{fill-rule:evenodd;clip-rule:evenodd;fill:#F9A46E;}
	.st28{fill-rule:evenodd;clip-rule:evenodd;fill:#F47B26;}
	.st29{fill-rule:evenodd;clip-rule:evenodd;fill:#EB5433;}
	.st30{fill:#1A3282;}
	.st31{fill-rule:evenodd;clip-rule:evenodd;fill:#1A3282;}
	.st32{fill-rule:evenodd;clip-rule:evenodd;fill:#9D9FA2;}
	.st33{fill-rule:evenodd;clip-rule:evenodd;fill:#000303;}
	.st34{fill:#64003D;}
	.st35{fill:#536270;}
	.st36{fill-rule:evenodd;clip-rule:evenodd;fill:#64003D;}
	.st37{fill-rule:evenodd;clip-rule:evenodd;fill:#536270;}
	.st38{fill-rule:evenodd;clip-rule:evenodd;fill:#1A3382;}
	.st39{fill-rule:evenodd;clip-rule:evenodd;fill:#29387E;}
	.st40{fill-rule:evenodd;clip-rule:evenodd;fill:#F37021;}
	.st41{fill-rule:evenodd;clip-rule:evenodd;fill:#005C32;}
	.st42{fill-rule:evenodd;clip-rule:evenodd;fill:#D2AB67;}
	
		.st43{clip-path:url(#SVGID_00000053519300077765685920000012210806104195298231_);fill:url(#SVGID_00000080180154514931193950000005934596740560763578_);}
	
		.st44{clip-path:url(#SVGID_00000065791111837371914660000007166652923644116921_);fill:url(#SVGID_00000131330208621599916670000007383390412113289875_);}
	
		.st45{clip-path:url(#SVGID_00000036962715551508350390000016766246814152260009_);fill:url(#SVGID_00000124875829856682171910000009010315414207230080_);}
	.st46{fill-rule:evenodd;clip-rule:evenodd;fill:#00AEEF;}
	.st47{fill-rule:evenodd;clip-rule:evenodd;fill:#EC008C;}
	.st48{fill-rule:evenodd;clip-rule:evenodd;fill:#FFF200;}
	.st49{fill:#A7AAAC;}
	.st50{fill-rule:evenodd;clip-rule:evenodd;fill:#5C5B5B;}
	.st51{fill:#9D9D9F;}
	.st52{fill:#F04D23;}
	.st53{fill-rule:evenodd;clip-rule:evenodd;fill:#2E3192;}
	.st54{fill-rule:evenodd;clip-rule:evenodd;fill:#C4312D;}
	.st55{fill:#552715;}
	.st56{fill:#010101;}
	.st57{fill:#E31E2E;}
	.st58{fill:url(#SVGID_00000081613260165714169160000002222972914560395180_);}
	.st59{fill:url(#SVGID_00000025433777913092640040000000213304723672741556_);}
	.st60{clip-path:url(#SVGID_00000080885412329023895500000006559445198992508813_);}
	.st61{clip-path:url(#SVGID_00000119083785364286984940000015015742085859474321_);}
	.st62{clip-path:url(#SVGID_00000068666916195005985180000012347450091575633575_);}
	.st63{clip-path:url(#SVGID_00000064337030406643863760000009352016179391999626_);}
	.st64{clip-path:url(#SVGID_00000119798418936789950790000008207919797531920800_);}
	.st65{clip-path:url(#SVGID_00000054978227335006379010000005436656629154088864_);}
	.st66{clip-path:url(#SVGID_00000050650313056806515070000005669200468370250923_);}
	.st67{clip-path:url(#SVGID_00000030462444720221986190000016182416031151974315_);}
	.st68{clip-path:url(#SVGID_00000085968322512047414590000007284574272900058291_);}
	.st69{clip-path:url(#SVGID_00000029047361814432333070000003598630945733700002_);}
	.st70{clip-path:url(#SVGID_00000170239044313527999550000013842247222686992020_);}
	.st71{fill:#2650A1;}
	.st72{fill:url(#SVGID_00000158718049541166585730000016003972667453829557_);}
	.st73{fill:#FEFEFE;}
	.st74{fill:#FDFDFD;}
	.st75{fill:#FCFCFC;}
	.st76{fill:#FBFBFB;}
	.st77{fill:#FAFAFA;}
	.st78{fill:#F9F9F9;}
	.st79{fill:#F8F8F8;}
	.st80{fill:#F7F7F7;}
	.st81{fill:#F6F6F6;}
	.st82{fill:#F5F5F5;}
	.st83{fill:#F4F4F4;}
	.st84{fill:#F3F3F3;}
	.st85{fill:#F2F2F2;}
	.st86{fill:#F1F1F1;}
	.st87{fill:#F0F0F0;}
	.st88{fill:#EFEFEF;}
	.st89{fill:#EEEEEE;}
	.st90{fill:#EDEDED;}
	.st91{fill:#ECECEC;}
	.st92{fill:#EBEBEB;}
	.st93{fill:#EAEAEA;}
	.st94{fill:#E9E9E9;}
	.st95{fill:#E8E8E8;}
	.st96{fill:#E7E7E7;}
	.st97{fill:#E6E6E6;}
	.st98{fill:#E5E5E5;}
	.st99{fill:#E4E4E4;}
	.st100{fill:#E3E3E3;}
	.st101{fill:#E2E2E2;}
	.st102{fill:#E1E1E1;}
	.st103{fill:#E0E0E0;}
	.st104{fill:#DFDFDF;}
	.st105{fill:#DEDEDE;}
	.st106{fill:#DDDDDD;}
	.st107{fill:#DCDCDC;}
	.st108{fill:#DBDBDB;}
	.st109{fill:#DADADA;}
	.st110{fill:#D9D9D9;}
	.st111{fill:#D92231;}
	.st112{fill:url(#SVGID_00000014601696592855523730000000663027322492644521_);}
	.st113{fill:url(#SVGID_00000075152285978161484400000014605817872875430587_);}
	.st114{opacity:0.8;}
	.st115{fill:url(#SVGID_00000026856404917799050830000011279952610049321649_);}
	.st116{fill:url(#SVGID_00000111884471022388001380000014327324658194945425_);}
	.st117{fill-rule:evenodd;clip-rule:evenodd;fill:#010101;}
	.st118{fill:#80A845;}
	.st119{fill-rule:evenodd;clip-rule:evenodd;fill:#80A845;}
	.st120{fill:url(#SVGID_00000073000337080518431140000013074006598512353209_);}
	.st121{fill-rule:evenodd;clip-rule:evenodd;fill:#04984A;}
	.st122{fill-rule:evenodd;clip-rule:evenodd;fill:url(#SVGID_00000160170866867475813070000003946853728726923166_);}
	.st123{fill:url(#SVGID_00000087373109400077425590000001577999727132277141_);}
	.st124{fill:url(#SVGID_00000147910369705529123350000003948086353004759470_);}
	.st125{fill:url(#SVGID_00000029040739223248389660000017432271872023790259_);}
	.st126{fill:url(#SVGID_00000090293010704066008120000016164759637153902271_);}
	.st127{fill:url(#SVGID_00000013900201911895870000000003018683423496236192_);}
	.st128{fill:url(#SVGID_00000106836057751958103410000008889098840987209397_);}
	.st129{fill:url(#SVGID_00000150782396291536367050000016050286576860233860_);}
	.st130{fill:url(#SVGID_00000078748063396916440050000007494111102325379466_);}
	.st131{fill:url(#SVGID_00000114752453805611579300000016992449097896139402_);}
	.st132{fill:url(#SVGID_00000087382720038529199200000010255455815215747457_);}
	.st133{fill:url(#SVGID_00000120546521089351298630000001931975809137482416_);}
	.st134{fill:url(#SVGID_00000030466135166130038990000009431700095233075597_);}
	.st135{fill:url(#SVGID_00000108306535236493198930000014803464022969801869_);}
	.st136{fill:url(#SVGID_00000165947711602005098450000001508356524951278996_);}
	.st137{fill-rule:evenodd;clip-rule:evenodd;fill:url(#SVGID_00000100358588904055110560000018036532159735416764_);}
	.st138{fill:#0A529D;}
	.st139{fill:url(#SVGID_00000001656037057798168110000007887147876384055706_);}
	.st140{fill:url(#SVGID_00000151537297535802037790000002016093071037472655_);}
	.st141{fill:url(#SVGID_00000049909177747628865130000014670424630174986393_);}
	.st142{fill:url(#SVGID_00000124146338287096756400000005755770835644080265_);}
	.st143{fill:url(#SVGID_00000109724167118920465500000015600892885260832130_);}
	.st144{fill:url(#SVGID_00000021807389803808621790000012726759546336917891_);}
	.st145{fill:url(#SVGID_00000132780788755926846120000010451490184644337838_);}
	.st146{fill:url(#SVGID_00000168820385929907299110000013624289615139099060_);}
	.st147{fill:url(#SVGID_00000032640021409937058600000013320531620965719741_);}
	.st148{fill:url(#SVGID_00000019663259389159316110000015050944481577299111_);}
	.st149{fill:url(#SVGID_00000182503973062788337750000001972110236025581245_);}
	.st150{fill:url(#SVGID_00000084503519899515605090000013028117849294855344_);}
	.st151{fill-rule:evenodd;clip-rule:evenodd;fill:url(#SVGID_00000099631700963764191130000015068664195230779298_);}
	.st152{fill:url(#SVGID_00000124124449908287966680000010870445323606578107_);}
	.st153{fill:url(#SVGID_00000095319149500779123680000013484076403602357163_);}
	.st154{fill:url(#SVGID_00000128486231326189020510000004660797983145555600_);}
	.st155{fill:url(#SVGID_00000025402719267466008350000011142426258988082339_);}
	.st156{fill:url(#SVGID_00000164497836007604304710000006995025000675806373_);}
	.st157{fill:url(#SVGID_00000023278986693053939320000015545857053922656147_);}
	.st158{fill:url(#SVGID_00000143619175108062869000000006780900005711536026_);}
	.st159{fill:url(#SVGID_00000134231242954106313400000004703855514037431702_);}
	.st160{fill:url(#SVGID_00000080179685358467577070000012048351304271571341_);}
	.st161{fill:url(#SVGID_00000139984927855276956990000010428334659324391054_);}
	.st162{fill:url(#SVGID_00000163041511859447325020000008843265575689850291_);}
	.st163{fill:url(#SVGID_00000017502916322667186850000018011350022689044636_);}
	.st164{fill:url(#SVGID_00000043416593292574978900000007778988826085444260_);}
	.st165{fill:url(#SVGID_00000174575699438297974000000003992235992997203110_);}
	.st166{fill:url(#SVGID_00000168811104916348450910000017097204191525171115_);}
	.st167{fill:url(#SVGID_00000052094864386980705850000006613334932694999985_);}
	.st168{fill:url(#SVGID_00000085951359791251843660000014058490922908299666_);}
	.st169{fill-rule:evenodd;clip-rule:evenodd;fill:url(#SVGID_00000140008256348182867910000005160538421415941265_);}
	.st170{fill:url(#SVGID_00000052091695064993844140000002204063472151766443_);}
	.st171{fill:url(#SVGID_00000026872262905859599280000005266438320435604638_);}
	.st172{fill:url(#SVGID_00000032635573929637205900000005404195022240360355_);}
	.st173{fill:url(#SVGID_00000077318045188271089990000012775511504186291855_);}
	.st174{fill:url(#SVGID_00000010296305899846131120000001733389446028204718_);}
	.st175{fill:url(#SVGID_00000015321197129164497550000015253491058508488576_);}
	.st176{fill:url(#SVGID_00000112597908048438330000000013721345304653020049_);}
	.st177{fill:url(#SVGID_00000045578795200208041150000003911434096123091883_);}
	.st178{fill:url(#SVGID_00000070838539314768171810000005317025107644625814_);}
	.st179{fill:url(#SVGID_00000074433043656353075410000011356961607440982689_);}
	.st180{fill:url(#SVGID_00000066502506257975143490000012663091180065105028_);}
	.st181{fill:url(#SVGID_00000083060478865099598750000006607369949428891793_);}
	.st182{fill:url(#SVGID_00000089573117725691261090000015823715529133391546_);}
	.st183{fill:url(#SVGID_00000159447084898729776190000007430127797363548049_);}
	.st184{fill-rule:evenodd;clip-rule:evenodd;fill:url(#SVGID_00000003798646335334099820000004662755290409209750_);}
	.st185{fill:url(#SVGID_00000040534525309233700770000012173402370866731395_);}
	.st186{fill:url(#SVGID_00000089560622957459253960000007172017133223730873_);}
	.st187{fill:url(#SVGID_00000051346847744429633150000015244818134395713192_);}
	.st188{fill:url(#SVGID_00000078747033561516603880000009926344291944181690_);}
	.st189{fill:url(#SVGID_00000161623773458060263800000005315568778623695245_);}
	.st190{fill:url(#SVGID_00000042704365417412338190000003478791372488656521_);}
	.st191{fill:url(#SVGID_00000047054825692599215260000011508961711608442775_);}
	.st192{fill:url(#SVGID_00000036250507456875667900000003871489335440777912_);}
	.st193{fill:url(#SVGID_00000118354748715239287430000007953620134787211946_);}
	.st194{fill:url(#SVGID_00000080926329918546748340000007287830694158035112_);}
	.st195{fill:url(#SVGID_00000002384576718211230460000013206155979927813259_);}
	.st196{fill:url(#SVGID_00000018228516225360919170000013541285900056208050_);}
	.st197{fill:url(#SVGID_00000110442511920562863400000002582425874802286979_);}
	.st198{fill:url(#SVGID_00000070078404948324828330000013629685872146133130_);}
	.st199{fill:url(#SVGID_00000171683554455158465380000014145275957233877402_);}
	.st200{fill:url(#SVGID_00000133508827160489964520000008100864848173502637_);}
	.st201{fill:url(#SVGID_00000117636222390554616750000000241544019220868796_);}
	.st202{fill:url(#SVGID_00000174591129248647561810000007807765398204463027_);}
	.st203{fill:url(#SVGID_00000010271240846103988840000016070150065579701377_);}
	.st204{fill-rule:evenodd;clip-rule:evenodd;fill:url(#SVGID_00000171691176159475046060000001881092096527808181_);}
	.st205{fill:url(#SVGID_00000158718585987879276090000015319797108647290241_);}
	.st206{fill:url(#SVGID_00000120532325348767378390000009043480081184111488_);}
	.st207{fill:url(#SVGID_00000144328025185074557780000009986629424055155637_);}
	.st208{fill:url(#SVGID_00000126302803106014155170000012721433436137179009_);}
	.st209{fill:url(#SVGID_00000060018752173460336300000005766157578356350651_);}
	.st210{fill:url(#SVGID_00000104682167806564797360000008256903064099030418_);}
	.st211{fill:url(#SVGID_00000085222924301717871600000018294379107816378038_);}
	.st212{fill:url(#SVGID_00000116208784818963843130000003417340679791975341_);}
	.st213{fill:url(#SVGID_00000004542272330839980890000014527117051526047147_);}
	.st214{fill:url(#SVGID_00000060709023024929118770000002296800036723918989_);}
	.st215{fill:url(#SVGID_00000048468939276784328220000007660517964823041182_);}
	.st216{fill:url(#SVGID_00000160901650917622776400000001995017249130955697_);}
	.st217{fill:url(#SVGID_00000072280206566372189790000007652080742232082821_);}
	.st218{fill:url(#SVGID_00000003079531397049621200000003646338225579204793_);}
	.st219{fill:url(#SVGID_00000178199662476022730900000013485080025911825310_);}
	.st220{fill:url(#SVGID_00000122715170769194579760000008890018961702342788_);}
	.st221{fill-rule:evenodd;clip-rule:evenodd;fill:url(#SVGID_00000009559250976559616200000012261635294802938767_);}
	.st222{fill:url(#SVGID_00000026885996323985527070000009130699512377256639_);}
	.st223{fill:url(#SVGID_00000159450961611090743010000014024233009817523858_);}
	.st224{fill:url(#SVGID_00000041284393324382130720000002358536998449753475_);}
	.st225{fill:url(#SVGID_00000151543271903458871540000011590293659894018472_);}
	.st226{fill:url(#SVGID_00000101105523449043085160000010326907325301042575_);}
	.st227{fill:url(#SVGID_00000134935130103185898800000004204328721449388956_);}
	.st228{fill:url(#SVGID_00000016040347722040401930000006827261157669473439_);}
	.st229{fill:url(#SVGID_00000068664365408123245850000008542375237786290866_);}
	.st230{fill:url(#SVGID_00000054257121558935087630000006860983483009307269_);}
	.st231{fill:url(#SVGID_00000155836348988898048380000018025177696757659037_);}
	.st232{fill:url(#SVGID_00000173139347517058692440000015931881332401265320_);}
	.st233{fill:url(#SVGID_00000129902670189872175260000005983640037375406741_);}
	.st234{fill:url(#SVGID_00000127724794478061884840000016005511994053123981_);}
	.st235{fill:url(#SVGID_00000012462371748285279950000004275551403918892688_);}
	.st236{fill:url(#SVGID_00000111153099156316247940000003853517338164532137_);}
	.st237{fill-rule:evenodd;clip-rule:evenodd;fill:url(#SVGID_00000155842679670619278460000012930251288417552768_);}
	.st238{fill:url(#SVGID_00000145032031969011055710000012468791683953742260_);}
	.st239{fill:url(#SVGID_00000093162790258294743190000004282570899609762694_);}
	.st240{fill:url(#SVGID_00000060028474715467218250000000861101391734226341_);}
	.st241{fill:url(#SVGID_00000012443584294493542890000005967759168112990636_);}
	.st242{fill:url(#SVGID_00000022552232668928811710000014051665019826602386_);}
	.st243{fill:url(#SVGID_00000059993007267320365450000013231851476133812616_);}
	.st244{fill:url(#SVGID_00000055671693509324585690000011242631364604124849_);}
	.st245{fill:url(#SVGID_00000090294828751633992050000017255594017781136019_);}
	.st246{fill:url(#SVGID_00000057854338919095081960000010532098843153317782_);}
	.st247{fill:url(#SVGID_00000161599588630569586350000002086808748306765202_);}
	.st248{fill:url(#SVGID_00000019669985992568853970000000372307109248782774_);}
	.st249{fill:url(#SVGID_00000156584286248113775090000005832212453472139664_);}
	.st250{fill:url(#SVGID_00000068642588475132730580000001667476757783235249_);}
	.st251{fill:url(#SVGID_00000170251927592253171540000003257926662059167625_);}
	.st252{fill:url(#SVGID_00000061451176008054187000000001252250254633356682_);}
	.st253{fill-rule:evenodd;clip-rule:evenodd;fill:url(#SVGID_00000138531112228859835950000003659296104887308170_);}
	.st254{fill:url(#SVGID_00000065789645021810969130000007272447983446702983_);}
	.st255{fill:url(#SVGID_00000147922881621672748850000008317665445270443933_);}
	.st256{fill:url(#SVGID_00000047782718853265161410000007023328119711608751_);}
	.st257{fill:url(#SVGID_00000117650499013690570830000009624312744980439197_);}
	.st258{fill:url(#SVGID_00000117665055214611371780000007595243292586164109_);}
	.st259{fill:url(#SVGID_00000099652229516452491450000013047906426904187058_);}
	.st260{fill:url(#SVGID_00000120529184264412429360000003399684283695057563_);}
	.st261{fill:url(#SVGID_00000080186542204592152180000012615353604071844248_);}
	.st262{fill:url(#SVGID_00000181766244388996890880000011542789839117799093_);}
	.st263{fill:url(#SVGID_00000180346473657305772940000003006882113647221940_);}
	.st264{fill:url(#SVGID_00000101080070191006281900000003847781335795296426_);}
	.st265{fill:url(#SVGID_00000030470988134817937050000008767079874244941495_);}
	.st266{fill:url(#SVGID_00000118383966195169753910000015886033380758296999_);}
	.st267{fill:url(#SVGID_00000145030228836559729890000008269230887077580954_);}
	.st268{fill:url(#SVGID_00000012461141927011057650000008283117423520447914_);}
	.st269{fill-rule:evenodd;clip-rule:evenodd;fill:url(#SVGID_00000041268365917119804420000015458360594901218223_);}
	.st270{fill:url(#SVGID_00000065052581321982492100000014224003550682679217_);}
	.st271{fill:url(#SVGID_00000154389771462959997580000000591382631196593567_);}
	.st272{fill:url(#SVGID_00000114757971624554405650000007314697921629938608_);}
	.st273{fill:url(#SVGID_00000147214830548811695700000007550327194025784448_);}
	.st274{fill:url(#SVGID_00000121245859110303536960000001002729107889383860_);}
	.st275{fill:url(#SVGID_00000065765442934421852160000003530292936289915043_);}
	.st276{fill:url(#SVGID_00000101077082365516428850000017556115146191311278_);}
	.st277{fill:url(#SVGID_00000099624436772170822950000017086366664210947744_);}
	.st278{fill:url(#SVGID_00000064351121752753469730000005593874716769893811_);}
	.st279{fill:url(#SVGID_00000159456527259338362510000004626998757195077527_);}
	.st280{fill:url(#SVGID_00000156556093815746079640000017980357018667508891_);}
	.st281{fill:url(#SVGID_00000097475603117091921350000008783627710138675380_);}
	.st282{fill:url(#SVGID_00000132775796637647192130000007031516681718313131_);}
	.st283{fill:url(#SVGID_00000129168221131598400820000011632999387932139155_);}
	.st284{fill:url(#SVGID_00000134235244119280533620000015427245168981140670_);}
	.st285{fill-rule:evenodd;clip-rule:evenodd;fill:url(#SVGID_00000058566558926795083000000011072808481347738814_);}
	.st286{fill:url(#SVGID_00000084527969201335752090000017610886317865869445_);}
	.st287{fill:url(#SVGID_00000117676448671281789590000003631547057803736475_);}
	.st288{fill:url(#SVGID_00000090277861717946886210000008466625124109284007_);}
	.st289{fill:url(#SVGID_00000148662706547808154510000016436561633813316000_);}
	.st290{fill:url(#SVGID_00000125570394380002142670000014121416593337666721_);}
	.st291{fill:url(#SVGID_00000042729446463910990140000004609527609896492967_);}
	.st292{fill:url(#SVGID_00000130641633933713156460000014040228226873827261_);}
	.st293{fill:url(#SVGID_00000036966462155430999370000012136259173970651578_);}
	.st294{fill:url(#SVGID_00000041980120215112196470000000647731999249055381_);}
	.st295{fill:url(#SVGID_00000099620402004271717340000004559889873830453416_);}
	.st296{fill:url(#SVGID_00000129183837236069055720000007449919122346714765_);}
	.st297{fill:url(#SVGID_00000049904289798141752270000018074570979271527048_);}
	.st298{fill:url(#SVGID_00000169522206512570683980000016670507524771019156_);}
	.st299{fill:url(#SVGID_00000067214850456457001550000011393619668545335191_);}
	.st300{fill:url(#SVGID_00000083775803009273154540000008299770473030232990_);}
	.st301{fill:url(#SVGID_00000150098172024145330370000013110171545567863959_);}
	.st302{fill:url(#SVGID_00000060742343164118176510000015597835528289393813_);}
	.st303{fill:url(#SVGID_00000138536148788337068970000014078578100457721728_);}
	.st304{fill-rule:evenodd;clip-rule:evenodd;fill:url(#SVGID_00000057855283869741402730000009983192741693717932_);}
	.st305{fill:url(#SVGID_00000052810412219171913520000001426423138911687594_);}
	.st306{fill:url(#SVGID_00000040558025436406441560000003273144543741222297_);}
	.st307{fill:url(#SVGID_00000181768289830835815270000003427613584371932313_);}
	.st308{fill:url(#SVGID_00000021086653648737448500000012556596794738438281_);}
	.st309{fill:url(#SVGID_00000014624946322973230480000004020563318511472514_);}
	.st310{fill:url(#SVGID_00000124133398451230758020000001256569453378427555_);}
	.st311{fill:url(#SVGID_00000026144255734929167170000003289134592681528213_);}
	.st312{fill:url(#SVGID_00000049904987014113638840000014449498501888965309_);}
	.st313{fill:url(#SVGID_00000098201348961496496830000004982853602066590359_);}
	.st314{fill:url(#SVGID_00000129893272762346983410000001471656111198736560_);}
	.st315{fill:url(#SVGID_00000147191308496172760210000017050535871452092549_);}
	.st316{fill:url(#SVGID_00000136384825279479413760000016148927963783509944_);}
	.st317{fill:url(#SVGID_00000033351213180362440200000007157663752105736637_);}
	.st318{fill:url(#SVGID_00000014606219689036756400000006274263207441590920_);}
	.st319{fill:url(#SVGID_00000108999545063171092880000003982175749707461286_);}
	.st320{fill:url(#SVGID_00000171683165472750302580000018404284204228980107_);}
	.st321{fill:url(#SVGID_00000002360205217740295360000014384918142750784158_);}
	.st322{fill:url(#SVGID_00000080174437008028613140000002780589218318962074_);}
	.st323{fill:url(#SVGID_00000006702258432526470260000007332275275266732452_);}
	.st324{fill:url(#SVGID_00000023269802692205694850000013763640944033110678_);}
	.st325{fill-rule:evenodd;clip-rule:evenodd;fill:url(#SVGID_00000068658566370758621910000006592652042729213060_);}
	.st326{fill:url(#SVGID_00000158005071938104821570000011537503640396791719_);}
	.st327{fill:url(#SVGID_00000078743640967277607830000016241552505285265043_);}
	.st328{fill:url(#SVGID_00000124153628882211993350000009451659269594089150_);}
	.st329{fill:url(#SVGID_00000090290030641019810220000014851354250280889216_);}
	.st330{fill:url(#SVGID_00000073722231496012206430000000765909167916469909_);}
	.st331{fill:url(#SVGID_00000052809423864773028580000017977997144044152240_);}
	.st332{fill:url(#SVGID_00000181060799088323803320000014479480778999571124_);}
	.st333{fill:url(#SVGID_00000084506497273308647050000004883255475697384876_);}
	.st334{fill:url(#SVGID_00000042703506789277858450000004938685672578741672_);}
	.st335{fill:url(#SVGID_00000130646218190756131900000002369359227435960749_);}
	.st336{fill:url(#SVGID_00000000211397510830644960000003721150992821605047_);}
	.st337{fill:url(#SVGID_00000046300752079181266920000001778878688590510750_);}
	.st338{fill:url(#SVGID_00000174596638559461479220000010816387828003411378_);}
	.st339{fill:url(#SVGID_00000156545203201043577300000015851637384821375136_);}
	.st340{fill:url(#SVGID_00000004510869984333170380000017535907662946875818_);}
	.st341{fill:url(#SVGID_00000025421188826132212230000012051814645186634903_);}
	.st342{fill-rule:evenodd;clip-rule:evenodd;fill:url(#SVGID_00000108279961933915641840000005700718645489614469_);}
	.st343{fill:url(#SVGID_00000043421161127874197450000010890722560770016682_);}
	.st344{fill:url(#SVGID_00000031924894669634542440000008550907895541615281_);}
	.st345{fill:url(#SVGID_00000105406423924957951950000012619523614937613698_);}
	.st346{fill:url(#SVGID_00000149343463426556531550000004033542557926748054_);}
	.st347{fill:url(#SVGID_00000090999669812239569390000007702796745566512573_);}
	.st348{fill:url(#SVGID_00000136383936149519931370000008110513962147658161_);}
	.st349{fill:url(#SVGID_00000107569320372082888040000017563902063714985649_);}
	.st350{fill:url(#SVGID_00000106826939796745821250000002581806621271491731_);}
	.st351{fill:url(#SVGID_00000101062853100105120500000002534735686493194676_);}
	.st352{fill:url(#SVGID_00000144321132834603280410000000571048480807159197_);}
	.st353{fill:url(#SVGID_00000170994858196810274660000003984441697007369888_);}
	.st354{fill:url(#SVGID_00000154413961892412056680000009420387923675594880_);}
	.st355{fill:url(#SVGID_00000133491263095962888520000012413111416749241989_);}
	.st356{fill:url(#SVGID_00000150100267863830500510000012118210299745250455_);}
	.st357{fill:url(#SVGID_00000149355547262642032570000013513876664726302378_);}
	.st358{fill:url(#SVGID_00000153702228057931889620000001018384743368440214_);}
	.st359{fill:url(#SVGID_00000156572835659876589240000001199347990448921523_);}
	.st360{fill:url(#SVGID_00000098185636750497213700000017084365350007554468_);}
	.st361{fill:url(#SVGID_00000029029625226445011780000002801821108360233876_);}
	.st362{fill:url(#SVGID_00000164476240129965148240000017241635554426213789_);}
	.st363{fill:#C1282D;}
	.st364{fill-rule:evenodd;clip-rule:evenodd;fill:url(#SVGID_00000091732018146267161800000013256916955737035686_);}
	.st365{fill:url(#SVGID_00000114763088697295121340000013402410758269551790_);}
	.st366{fill:url(#SVGID_00000007430468375971934370000012301112404930314907_);}
	.st367{fill:url(#SVGID_00000050656883889992249660000006844111474092006314_);}
	.st368{fill:url(#SVGID_00000095298572585274146490000014235470286923971754_);}
	.st369{fill:url(#SVGID_00000114766300574470990370000009197844131792758963_);}
	.st370{fill:url(#SVGID_00000034087955313248416910000003106217566789213607_);}
	.st371{fill:url(#SVGID_00000034090417663440113900000014248437427124184235_);}
	.st372{fill:url(#SVGID_00000093864862758040221240000009252099067427085201_);}
	.st373{fill:url(#SVGID_00000001635531618866033080000017234398873432435100_);}
	.st374{fill:url(#SVGID_00000031193659868783615190000011116636223883741843_);}
	.st375{fill:url(#SVGID_00000016788720580189357440000010012638404011030916_);}
	.st376{fill:url(#SVGID_00000094592992138228432030000015899883723557012629_);}
	.st377{fill:url(#SVGID_00000128477590159972423840000007747348620545684355_);}
	.st378{fill:url(#SVGID_00000119797526111963623720000007876022199171946685_);}
	.st379{fill:url(#SVGID_00000062871468704339607450000013178063370939613846_);}
	.st380{fill:url(#SVGID_00000085938995028462008480000017655262736460139446_);}
	.st381{fill-rule:evenodd;clip-rule:evenodd;fill:url(#SVGID_00000065758396237206577700000016149240060741150637_);}
	.st382{fill:url(#SVGID_00000052797161103357982670000000018901970900043436_);}
	.st383{fill:url(#SVGID_00000107570081168550580750000000840532337772771729_);}
	.st384{fill:url(#SVGID_00000002350332013817211800000015263924342524449412_);}
	.st385{fill:url(#SVGID_00000085950897927696570820000017586462427518924938_);}
	.st386{fill:url(#SVGID_00000032647435145077195710000010188148876704578447_);}
	.st387{fill:url(#SVGID_00000132792904450429562690000012862712963166261910_);}
	.st388{fill:url(#SVGID_00000021110524869390003540000015307750654687010202_);}
	.st389{fill:url(#SVGID_00000172425213176563892090000010590635329527606921_);}
	.st390{fill:url(#SVGID_00000157999766508435664990000013643258609540567743_);}
	.st391{fill:url(#SVGID_00000037677674583309194770000005432891350560802972_);}
	.st392{fill:url(#SVGID_00000145778877271210523970000001659788036284095619_);}
	.st393{fill:url(#SVGID_00000127755143122374683390000009631894491295105463_);}
	.st394{fill:url(#SVGID_00000159453467814300581860000004529477765799182997_);}
	.st395{fill:url(#SVGID_00000089535079047827359110000003147066693745533359_);}
	.st396{fill:url(#SVGID_00000183215559075686913590000010970108668093424568_);}
	.st397{fill:url(#SVGID_00000090987025952393846980000010456192679647927711_);}
	.st398{fill:url(#SVGID_00000091696030015881849640000010091376681936462515_);}
	.st399{fill:url(#SVGID_00000103266624770574358560000004225621242403147956_);}
	.st400{fill:url(#SVGID_00000044167853355699002370000000598464116090257587_);}
	.st401{fill:url(#SVGID_00000003817239873062776640000014294395331196406692_);}
</style>
<g>
	<path class="st21" d="M341.76,275.54l-1.51-126.88h-6.28l0.2,125.02c-34.24,3.2-54.35,23.3-54.46,67.38
		c41.45-7.5,63.44-28.44,61.97-65.53L341.76,275.54z M217.67,275.54l1.51-126.88h6.28l-0.2,125.02c34.24,3.2,54.36,23.3,54.46,67.38
		c-41.45-7.5-63.43-28.44-61.97-65.53L217.67,275.54z M272.06,79.27h11.06v118.2c18.29,29.79,23.45,41.56,25.46,55.24
		c-0.81,37.6-63.53,38.3-63.57,0.68c-0.15-15.51,9.84-30.19,25.69-56.15L272.06,79.27z M402.81,146.27h11.06v118.2
		c18.29,29.77,23.45,41.54,25.46,55.23c-0.81,37.61-63.53,38.31-63.57,0.69c-0.15-15.51,9.84-30.19,25.69-56.17L402.81,146.27z
		 M474.07,339.95l-1.46-123.45h-6.27l0.18,123.89c-34.1,3.26-54.14,23.37-54.24,67.37c42.29-7.65,64.33-29.29,61.85-67.81H474.07z
		 M350.45,339.95l1.48-123.45h6.26l-0.18,123.89c34.12,3.24,54.16,23.36,54.26,67.37c-42.3-7.65-64.33-29.29-61.85-67.81H350.45z
		 M207.03,343.38l-1.51-126.89h-6.28l0.2,125.02c-34.24,3.19-54.35,23.3-54.46,67.38c41.46-7.5,63.44-28.44,61.97-65.53
		L207.03,343.38z M83.01,343.38l1.52-126.89h6.27l-0.18,125.02c34.17,3.21,54.28,23.32,54.37,67.38
		c-41.44-7.5-63.42-28.43-61.96-65.52H83.01z M412.28,814.55c-0.11-47.19-23.13-66.89-61.85-67.83
		C347.95,785.26,369.98,806.9,412.28,814.55z M412.28,814.55c0.11-47.19,23.13-66.89,61.85-67.83
		C476.6,785.26,454.57,806.9,412.28,814.55 M412.28,746.75c-0.11-47.18-23.13-66.91-61.85-67.83
		C347.95,717.47,369.98,739.1,412.28,746.75z M412.28,746.75c0.11-47.18,23.13-66.91,61.85-67.83
		C476.6,717.47,454.57,739.1,412.28,746.75 M412.28,678.96c-0.11-47.19-23.13-66.91-61.85-67.83
		C347.95,649.65,369.98,671.31,412.28,678.96z M412.28,678.96c0.11-47.19,23.13-66.91,61.85-67.83
		C476.6,649.65,454.57,671.31,412.28,678.96 M412.28,611.15c-0.11-47.19-23.13-66.89-61.85-67.81
		C347.95,581.86,369.98,603.51,412.28,611.15z M412.28,611.15c0.11-47.19,23.13-66.89,61.85-67.81
		C476.6,581.86,454.57,603.51,412.28,611.15 M412.28,543.35c-0.11-47.19-23.13-66.89-61.85-67.81
		C347.95,514.06,369.98,535.7,412.28,543.35z M412.28,543.35c0.11-47.19,23.13-66.89,61.85-67.81
		C476.6,514.06,454.57,535.7,412.28,543.35 M412.28,475.55c-0.11-47.19-23.13-66.91-61.85-67.81
		C347.95,446.26,369.98,467.91,412.28,475.55z M412.28,475.55c0.11-47.19,23.13-66.91,61.85-67.81
		C476.6,446.26,454.57,467.91,412.28,475.55 M279.13,814.55c-0.11-47.19-23.13-66.89-61.85-67.83
		C214.82,785.26,236.83,806.9,279.13,814.55z M279.13,814.55c0.11-47.19,23.15-66.89,61.87-67.83
		C343.45,785.26,321.44,806.9,279.13,814.55 M279.13,746.75c-0.11-47.18-23.13-66.91-61.85-67.83
		C214.82,717.47,236.83,739.1,279.13,746.75z M279.13,746.75c0.11-47.18,23.15-66.91,61.87-67.83
		C343.45,717.47,321.44,739.1,279.13,746.75 M279.13,678.96c-0.11-47.19-23.13-66.91-61.85-67.83
		C214.82,649.65,236.83,671.31,279.13,678.96z M279.13,678.96c0.11-47.19,23.15-66.91,61.87-67.83
		C343.45,649.65,321.44,671.31,279.13,678.96 M279.13,611.15c-0.11-47.19-23.13-66.89-61.85-67.81
		C214.82,581.86,236.83,603.51,279.13,611.15z M279.13,611.15c0.11-47.19,23.15-66.89,61.87-67.81
		C343.45,581.86,321.44,603.51,279.13,611.15 M279.13,543.35c-0.11-47.19-23.13-66.89-61.85-67.81
		C214.82,514.06,236.83,535.7,279.13,543.35z M279.13,543.35c0.11-47.19,23.15-66.89,61.87-67.81
		C343.45,514.06,321.44,535.7,279.13,543.35 M279.13,475.55c-0.11-47.19-23.13-66.91-61.85-67.81
		C214.82,446.26,236.83,467.91,279.13,475.55z M279.13,475.55c0.11-47.19,23.15-66.91,61.87-67.81
		C343.45,446.26,321.44,467.91,279.13,475.55 M279.13,407.76c-0.11-47.19-23.13-66.91-61.85-67.81
		C214.82,378.47,236.83,400.1,279.13,407.76z M279.13,407.76c0.11-47.19,23.15-66.91,61.87-67.81
		C343.45,378.47,321.44,400.1,279.13,407.76 M144.98,815.69c-0.09-47.18-23.13-66.89-61.85-67.81
		C80.67,786.41,102.69,808.05,144.98,815.69z M144.98,815.69c0.11-47.18,23.15-66.89,61.87-67.81
		C209.31,786.41,187.29,808.05,144.98,815.69 M144.98,747.9c-0.09-47.19-23.13-66.91-61.85-67.83
		C80.67,718.61,102.69,740.25,144.98,747.9z M144.98,747.9c0.11-47.19,23.15-66.91,61.87-67.83
		C209.31,718.61,187.29,740.25,144.98,747.9 M144.98,680.1c-0.09-47.19-23.13-66.91-61.85-67.83
		C80.67,650.8,102.69,672.45,144.98,680.1z M144.98,680.1c0.11-47.19,23.15-66.91,61.87-67.83
		C209.31,650.8,187.29,672.45,144.98,680.1 M144.98,612.29c-0.09-47.18-23.13-66.89-61.85-67.81
		C80.67,583,102.69,604.66,144.98,612.29z M144.98,612.29c0.11-47.18,23.15-66.89,61.87-67.81
		C209.31,583,187.29,604.66,144.98,612.29 M144.98,544.49c-0.09-47.19-23.13-66.89-61.85-67.81
		C80.67,515.21,102.69,536.84,144.98,544.49z M144.98,544.49c0.11-47.19,23.15-66.89,61.87-67.81
		C209.31,515.21,187.29,536.84,144.98,544.49 M144.98,476.7c-0.09-47.19-23.13-66.91-61.85-67.81
		C80.67,447.41,102.69,469.05,144.98,476.7z M144.98,476.7c0.11-47.19,23.15-66.91,61.87-67.81
		C209.31,447.41,187.29,469.05,144.98,476.7 M141.82,146.27h11.06v118.2c18.29,29.77,23.45,41.54,25.46,55.23
		c-0.81,37.61-63.52,38.31-63.57,0.69c-0.13-15.51,9.84-30.19,25.69-56.17L141.82,146.27z"/>
	<defs>
		<filter id="Adobe_OpacityMaskFilter" filterUnits="userSpaceOnUse" x="82.95" y="79.27" width="391.37" height="736.42">
			<feColorMatrix  type="matrix" values="1 0 0 0 0  0 1 0 0 0  0 0 1 0 0  0 0 0 1 0"/>
		</filter>
	</defs>
	
		<mask maskUnits="userSpaceOnUse" x="82.95" y="79.27" width="391.37" height="736.42" id="SVGID_00000027587768094925960920000007481530796821437825_">
		<g class="st22">
			
				<linearGradient id="SVGID_00000114036241626470801370000009869616813077215648_" gradientUnits="userSpaceOnUse" x1="177.8493" y1="1272.6292" x2="177.8493" y2="1513.2375" gradientTransform="matrix(1 0 0 1 100.7816 -761.9542)">
				<stop  offset="0" style="stop-color:#FFFFFF"/>
				<stop  offset="1" style="stop-color:#000000"/>
			</linearGradient>
			
				<rect x="82.94" y="79.27" style="fill:url(#SVGID_00000114036241626470801370000009869616813077215648_);" width="391.39" height="736.42"/>
		</g>
	</mask>
	
		<path style="mask:url(#SVGID_00000027587768094925960920000007481530796821437825_);fill-rule:evenodd;clip-rule:evenodd;fill:#ED1C24;" d="
		M341.76,275.54l-1.51-126.88h-6.28l0.2,125.02c-34.24,3.2-54.35,23.3-54.46,67.38c41.45-7.5,63.44-28.44,61.97-65.53L341.76,275.54
		z M217.67,275.54l1.51-126.88h6.28l-0.2,125.02c34.24,3.2,54.36,23.3,54.46,67.38c-41.45-7.5-63.43-28.44-61.97-65.53
		L217.67,275.54z M272.06,79.27h11.06v118.2c18.29,29.79,23.45,41.56,25.46,55.24c-0.81,37.6-63.53,38.3-63.57,0.68
		c-0.15-15.51,9.84-30.19,25.69-56.15L272.06,79.27z M402.81,146.27h11.06v118.2c18.29,29.77,23.45,41.54,25.46,55.23
		c-0.81,37.61-63.53,38.31-63.57,0.69c-0.15-15.51,9.84-30.19,25.69-56.17L402.81,146.27z M474.07,339.95l-1.46-123.45h-6.27
		l0.18,123.89c-34.1,3.26-54.14,23.37-54.24,67.37c42.29-7.65,64.33-29.29,61.85-67.81H474.07z M350.45,339.95l1.48-123.45h6.26
		l-0.18,123.89c34.12,3.24,54.16,23.36,54.26,67.37c-42.3-7.65-64.33-29.29-61.85-67.81H350.45z M207.03,343.38l-1.51-126.89h-6.28
		l0.2,125.02c-34.24,3.19-54.35,23.3-54.46,67.38c41.46-7.5,63.44-28.44,61.97-65.53L207.03,343.38z M83.01,343.38l1.52-126.89h6.27
		l-0.18,125.02c34.17,3.21,54.28,23.32,54.37,67.38c-41.44-7.5-63.42-28.43-61.96-65.52H83.01z M412.28,814.55
		c-0.11-47.19-23.13-66.89-61.85-67.83C347.95,785.26,369.98,806.9,412.28,814.55z M412.28,814.55
		c0.11-47.19,23.13-66.89,61.85-67.83C476.6,785.26,454.57,806.9,412.28,814.55 M412.28,746.75c-0.11-47.18-23.13-66.91-61.85-67.83
		C347.95,717.47,369.98,739.1,412.28,746.75z M412.28,746.75c0.11-47.18,23.13-66.91,61.85-67.83
		C476.6,717.47,454.57,739.1,412.28,746.75 M412.28,678.96c-0.11-47.19-23.13-66.91-61.85-67.83
		C347.95,649.65,369.98,671.31,412.28,678.96z M412.28,678.96c0.11-47.19,23.13-66.91,61.85-67.83
		C476.6,649.65,454.57,671.31,412.28,678.96 M412.28,611.15c-0.11-47.19-23.13-66.89-61.85-67.81
		C347.95,581.86,369.98,603.51,412.28,611.15z M412.28,611.15c0.11-47.19,23.13-66.89,61.85-67.81
		C476.6,581.86,454.57,603.51,412.28,611.15 M412.28,543.35c-0.11-47.19-23.13-66.89-61.85-67.81
		C347.95,514.06,369.98,535.7,412.28,543.35z M412.28,543.35c0.11-47.19,23.13-66.89,61.85-67.81
		C476.6,514.06,454.57,535.7,412.28,543.35 M412.28,475.55c-0.11-47.19-23.13-66.91-61.85-67.81
		C347.95,446.26,369.98,467.91,412.28,475.55z M412.28,475.55c0.11-47.19,23.13-66.91,61.85-67.81
		C476.6,446.26,454.57,467.91,412.28,475.55 M279.13,814.55c-0.11-47.19-23.13-66.89-61.85-67.83
		C214.82,785.26,236.83,806.9,279.13,814.55z M279.13,814.55c0.11-47.19,23.15-66.89,61.87-67.83
		C343.45,785.26,321.44,806.9,279.13,814.55 M279.13,746.75c-0.11-47.18-23.13-66.91-61.85-67.83
		C214.82,717.47,236.83,739.1,279.13,746.75z M279.13,746.75c0.11-47.18,23.15-66.91,61.87-67.83
		C343.45,717.47,321.44,739.1,279.13,746.75 M279.13,678.96c-0.11-47.19-23.13-66.91-61.85-67.83
		C214.82,649.65,236.83,671.31,279.13,678.96z M279.13,678.96c0.11-47.19,23.15-66.91,61.87-67.83
		C343.45,649.65,321.44,671.31,279.13,678.96 M279.13,611.15c-0.11-47.19-23.13-66.89-61.85-67.81
		C214.82,581.86,236.83,603.51,279.13,611.15z M279.13,611.15c0.11-47.19,23.15-66.89,61.87-67.81
		C343.45,581.86,321.44,603.51,279.13,611.15 M279.13,543.35c-0.11-47.19-23.13-66.89-61.85-67.81
		C214.82,514.06,236.83,535.7,279.13,543.35z M279.13,543.35c0.11-47.19,23.15-66.89,61.87-67.81
		C343.45,514.06,321.44,535.7,279.13,543.35 M279.13,475.55c-0.11-47.19-23.13-66.91-61.85-67.81
		C214.82,446.26,236.83,467.91,279.13,475.55z M279.13,475.55c0.11-47.19,23.15-66.91,61.87-67.81
		C343.45,446.26,321.44,467.91,279.13,475.55 M279.13,407.76c-0.11-47.19-23.13-66.91-61.85-67.81
		C214.82,378.47,236.83,400.1,279.13,407.76z M279.13,407.76c0.11-47.19,23.15-66.91,61.87-67.81
		C343.45,378.47,321.44,400.1,279.13,407.76 M144.98,815.69c-0.09-47.18-23.13-66.89-61.85-67.81
		C80.67,786.41,102.69,808.05,144.98,815.69z M144.98,815.69c0.11-47.18,23.15-66.89,61.87-67.81
		C209.31,786.41,187.29,808.05,144.98,815.69 M144.98,747.9c-0.09-47.19-23.13-66.91-61.85-67.83
		C80.67,718.61,102.69,740.25,144.98,747.9z M144.98,747.9c0.11-47.19,23.15-66.91,61.87-67.83
		C209.31,718.61,187.29,740.25,144.98,747.9 M144.98,680.1c-0.09-47.19-23.13-66.91-61.85-67.83
		C80.67,650.8,102.69,672.45,144.98,680.1z M144.98,680.1c0.11-47.19,23.15-66.91,61.87-67.83
		C209.31,650.8,187.29,672.45,144.98,680.1 M144.98,612.29c-0.09-47.18-23.13-66.89-61.85-67.81
		C80.67,583,102.69,604.66,144.98,612.29z M144.98,612.29c0.11-47.18,23.15-66.89,61.87-67.81
		C209.31,583,187.29,604.66,144.98,612.29 M144.98,544.49c-0.09-47.19-23.13-66.89-61.85-67.81
		C80.67,515.21,102.69,536.84,144.98,544.49z M144.98,544.49c0.11-47.19,23.15-66.89,61.87-67.81
		C209.31,515.21,187.29,536.84,144.98,544.49 M144.98,476.7c-0.09-47.19-23.13-66.91-61.85-67.81
		C80.67,447.41,102.69,469.05,144.98,476.7z M144.98,476.7c0.11-47.19,23.15-66.91,61.87-67.81
		C209.31,447.41,187.29,469.05,144.98,476.7 M141.82,146.27h11.06v118.2c18.29,29.77,23.45,41.54,25.46,55.23
		c-0.81,37.61-63.52,38.31-63.57,0.69c-0.13-15.51,9.84-30.19,25.69-56.17L141.82,146.27z"/>
	<path class="st21" d="M416.95,810.78c7.43,30.64,32.61,42.08,65.13,41.89l514.52-0.65v15.94l-514.52,1.78
		c-51.53-0.2-76.87-19.48-76.91-58.79L416.95,810.78z"/>
	<path class="st21" d="M153.22,813.92c2.12,75.18,57.79,163.11,134.46,170.96l708.9-1.33v16.98l-710.04,0.2
		c-88.38-3.53-151.46-97.96-147.79-186.83L153.22,813.92z"/>
	<path class="st21" d="M285.66,810.58c0.17,0.12,0.44,5.85,0.97,8.36c4.15,19.71,22.19,103.27,94.26,98.84l616.16-1.06v16.98
		l-615.16-0.04c-48.27,0.36-100.57-28.29-107.17-120.54L285.66,810.58z"/>
	<path class="st21" d="M220.72,813c3.15,41.34,18.51,127.33,94.66,138.22l681.21-1.27v16.98l-686.96,0.19
		c-67.48-10.5-100.5-75.24-102.92-154.08L220.72,813z"/>
	<path class="st21" d="M354.52,812.53c6.7,31.25,25.59,74.99,82.79,72.51l559.74-0.84v16.97l-559.47-0.26
		c-42.47,0.33-86.76-17.18-96.09-88.35L354.52,812.53z"/>
	<path class="st25" d="M952.37,978.84l-0.74-85.52c-1.74-12.53-11.93-17.45-28.52-17.19c-8.5,0.21-16.09,3.45-23.04,8.77v-8.41
		l-53.4-0.36l-0.37,8.77c-5.57-6.19-11.32-8.53-19.8-8.72c-7,0.1-14.86,2.86-17.88,8.36v-8.04l-60.7-0.72
		c-15.24-0.24-23.8,5.51-27.81,15.35c-2.75-9.97-8.69-14.38-16.82-14.98h-15.72c-7.83-0.51-14.65,2.66-20.48,9.51
		c-5.85-7.2-13.04-10.37-21.58-9.51c-11.83-0.38-17.91,2.17-22.32,8.77l-0.36-8.77l-42.05,0.36l-0.36,6.58
		c-4.43-4.24-10.17-6.57-17.2-6.94c-12.42-0.21-17.79,3.58-23.41,8.41c-7.72-5.8-11.36-8.39-22.78-8.51
		c-9.93-0.47-18.47,3.17-23.66,8.15v-8.04H452.4h-50.47l-0.36,8.41c-5.69-4.88-11.23-7.68-19.39-8.41
		c-10.29-0.71-17.25,2.73-22.67,8.04c-7.18-5.28-11.33-7.64-22.32-8.04c-12.57-0.24-17.37,2.89-23.77,7.68
		c-5.33-4.87-13.41-7.83-23.04-8.04c-9.01,0.02-16.55,3.18-22.68,9.51v-9.15h-55.97l-0.72,49.34c-0.16,5.72,2.4,10.48,7.68,14.26
		c-2.75,0.67-7.36,3.94-7.68,6.2l-0.18,17.14c1.62,11.11,10.28,16.04,27.24,16.13l35.11-0.36c5.25,0,10.31-1.73,15-6.57v6.2
		l165.23,0.36l0.11-10.94c4.77,6.2,11.92,11.12,20.82,10.95c6.74-0.09,12.19-2.64,15.74-8.78l0.36,9.14l204.58-0.07l0.41-28.64
		c9.1-0.18,16.67-3.76,23.18-9.69l-0.14,38.09l36.76-0.18l0.03-12.22c4.09,8.68,13.23,13.19,29.08,12.22h48.04l-0.04-32.47
		l9.31-0.38v16.41c3.48,12.54,14.85,17.17,31.61,16.43L952.37,978.84z"/>
	<path class="st20" d="M851.38,882.51l16.36,0.23v63.82c0.18,8.48,8.18,8.69,8.05-0.22v-63.39l15.92,0.21l0.44,74.29
		c-0.96,17.32-40.17,18.74-40.98,0L851.38,882.51z M805.46,969.5l0.44-64.39c0.45-13.85,7.1-21.23,19.94-22.12
		c14.23,0.58,22.33,7.95,22.59,26.77c-0.36,23.71-7.92,29.51-26.27,30.01l0.15-17.51c11.78,1.06,13.89-17.96,3.09-18.92
		c-2.19,0.11-3.07,2.53-3.16,11.28l-0.21,54.87H805.46z M668.13,969.5l0.44-64.39c0.45-13.85,7.09-21.23,19.94-22.12
		c14.23,0.58,22.33,7.95,22.59,26.77c-0.36,23.71-7.94,29.51-26.29,30.01l0.17-17.51c11.79,1.06,13.9-17.96,3.08-18.92
		c-2.17,0.11-3.07,2.53-3.14,11.28l-0.22,54.87H668.13z M757.61,882.86l-0.21,16.38c-7.98-0.97-12.12,3.59-11.6,14.81v55.41
		l-17.72-0.32l0.63-67.98c0.15-12.24,4.83-17.64,12.57-18.35L757.61,882.86z M487.21,882.87l-31.7-0.07l0.09,72.63
		c-0.86,16.43,30.32,21.73,32.02,0.34l-0.15-40.95h-19.81l-0.26,14.77h7.47v16.6c-0.24,11.26-8.28,9.33-7.77,0.35l0.83-47.27
		l19.36-0.5L487.21,882.87z M406.93,882.6l16.69,0.17l-0.18,31.62h7.75l0.16-31.62h16.52v86.58l-16.69-0.18v-39.33l-7.47,0.01
		l-0.37,39.32l-16.37,0.12L406.93,882.6z M585.19,882.74l31.33,0.07v16.31l-7.17,0.15l-0.3,69.94l-16.65-0.09l0.15-69.7l-7.35-0.05
		L585.19,882.74z M623.23,907.17c0.15-19.09,8.24-24.67,19.44-24.76c14.73-0.2,20.08,6.81,20.22,24.57v61.81l-15.27,0.21
		l-0.12-22.84l-9.46,0.03l0.12-16.76l9.32-0.03l-0.06-21.21c1.19-14.39-9.98-17.03-9.11,0.39l-0.44,59.89
		c-0.03,0.67-7.65,0.5-15.17,0.72C622.88,943.7,623.21,935.1,623.23,907.17z M542.85,907.17c0.15-19.09,8.24-24.67,19.42-24.76
		c14.75-0.2,20.08,6.81,20.22,24.57v61.81l-15.26,0.21l-0.14-22.84l-9.46,0.03l0.12-16.76l9.34-0.03l-0.07-21.21
		c1.19-14.39-9.98-17.03-9.11,0.39l-0.42,59.89c-0.03,0.67-7.67,0.5-15.18,0.72C542.5,943.7,542.81,935.1,542.85,907.17z
		 M495.66,908.04c0.13-19.1,8.24-24.68,19.42-24.76c14.73-0.21,20.08,6.79,20.22,24.56v61.81l-15.27,0.2L519.91,947l-9.46,0.03
		l0.12-16.76l9.34-0.03l-0.07-21.21c1.19-14.4-9.98-17.04-9.11,0.41l-0.42,59.88c-0.03,0.66-7.67,0.5-15.18,0.72
		C495.3,944.56,495.63,935.97,495.66,908.04z M361.32,908.6c0.15-19.09,8.26-24.67,19.43-24.76c14.73-0.19,20.08,6.8,20.22,24.56
		v61.81l-15.27,0.2l-0.12-22.83l-9.46,0.03l0.12-16.77l9.34-0.03l-0.07-21.22c1.19-14.39-9.98-17.03-9.11,0.39l-0.42,59.89
		c-0.05,0.66-7.67,0.49-15.18,0.72C360.97,945.13,361.3,936.53,361.32,908.6z M316.59,907.39c0.15-19.1,8.24-24.68,19.44-24.76
		c14.73-0.21,20.08,6.79,20.21,24.57V969l-15.26,0.2l-0.12-22.85l-9.46,0.03l0.12-16.76l9.33-0.03l-0.06-21.21
		c1.18-14.4-9.98-17.04-9.13,0.4l-0.42,59.88c-0.03,0.67-7.67,0.5-15.17,0.72C316.25,943.91,316.58,935.32,316.59,907.39z
		 M903.54,950.58l0.2-43.19c0.15-19.1,8.24-24.68,19.42-24.76c14.75-0.21,20.08,6.79,20.22,24.57V969l-15.26,0.2l-0.2-60.82
		c1.18-14.4-9.99-17.04-9.13,0.4v52.28c-0.11,9.15-8.68,11.41-22,8.14l2.19-15.06C901.49,956.92,903.79,956.12,903.54,950.58z
		 M269.8,950.58l0.2-43.19c0.15-19.1,8.24-24.68,19.43-24.76c14.72-0.21,20.08,6.79,20.22,24.57V969l-15.27,0.2l-0.2-60.82
		c1.19-14.4-9.98-17.04-9.11,0.4v52.28c-0.12,9.15-8.69,11.41-22.02,8.14l2.19-15.06C267.75,956.92,270.07,956.12,269.8,950.58z
		 M762.25,882.82h16.02l-0.3,39.31c0.09,7.05,9.1,6.98,9.04-0.59l0.29-38.72h14.86v72.2c-0.33,22.04-39.34,19.22-39.34,0.87v-9.33
		l13.99-0.29c-0.04,11,10.76,10.64,10.64,0.62l-0.15-9.36c-18.35,2.12-25.49-1.48-25.58-14.1L762.25,882.82z M220.73,882.82h16.01
		l-0.29,39.31c0.09,7.05,9.09,6.98,9.04-0.59l0.29-38.72h14.86v72.2c-0.35,22.04-39.34,19.22-39.34,0.87v-9.33l13.99-0.29
		c-0.04,11,10.76,10.64,10.63,0.62l-0.14-9.36c-18.35,2.12-25.48-1.48-25.57-14.1L220.73,882.82z"/>
	<path class="st26" d="M709.54,572.15c26.86,20.75,50.46,46.5,69.51,77.26c33.09,50.27,53.37,109.69,56.21,173.65h98.52l-0.96-15.54
		c-40.55-6.46-42.97-49.06-4.88-56.33l-12.63-52.45c-42.65,4.65-55.71-34.53-19.43-53.43l-23.33-41.75
		c-37.77,11.01-58.61-16.1-36.94-51.49l-34.03-32.05c-35.54,23.33-65.4-1.37-46.66-42.73l-41.8-25.26
		c-25.47,37.18-71.57,14.16-57.34-31.08l-48.6-12.63c-9.6,41.27-55.44,37.46-57.35-5.83H509l0.22,92
		C585.08,498.43,654.45,526.92,709.54,572.15"/>
	<path class="st27" d="M509.09,736.63c43.61,7.68,77.8,42.64,84.34,86.64h83.44c-7.3-89.85-78.3-161.68-167.78-170.28V736.63z"/>
	<path class="st28" d="M509.09,548.58c147,9.02,264.44,127.33,272.11,274.69h-84.21c-7.41-100.93-87.34-181.69-187.89-190.41V548.58
		z"/>
	<path class="st29" d="M509.09,532.97c155.6,9.06,280.03,134.32,287.72,290.3h20.05C809.14,656.22,675.76,522,509.09,512.89V532.97z
		"/>
</g>
</svg>
