<?xml version="1.0" encoding="utf-8"?>
<!-- Generator: Adobe Illustrator 26.5.0, SVG Export Plug-In . SVG Version: 6.00 Build 0)  -->
<svg version="1.1" id="Layer_1" xmlns="http://www.w3.org/2000/svg" xmlns:xlink="http://www.w3.org/1999/xlink" x="0px" y="0px"
	 viewBox="0 0 1080 1080" style="enable-background:new 0 0 1080 1080;" xml:space="preserve">
<style type="text/css">
	.st0{fill-rule:evenodd;clip-rule:evenodd;}
	.st1{fill:#ED1C24;}
	.st2{fill:#E1251B;}
	.st3{fill-rule:evenodd;clip-rule:evenodd;fill:#16397B;}
	.st4{fill:#EE2745;}
	
		.st5{clip-path:url(#SVGID_00000047060688673385773500000015675151757645708938_);fill:url(#SVGID_00000080914729521624099710000003849040212924081335_);}
	
		.st6{clip-path:url(#SVGID_00000132785176158827097590000006427507570952679857_);fill:url(#SVGID_00000044167026674818846020000008803035897979494292_);}
	
		.st7{clip-path:url(#SVGID_00000123418130654259400140000017441589321819246483_);fill:url(#SVGID_00000123417653115400304470000009651827449538603181_);}
	
		.st8{clip-path:url(#SVGID_00000078039084467095103250000000660162026277413294_);fill:url(#SVGID_00000164487354945685560280000007139260798382022025_);}
	.st9{fill:#424243;}
	
		.st10{clip-path:url(#SVGID_00000140005065959902874100000014443819063285944502_);fill:url(#SVGID_00000119119066407311979130000017149752548083345032_);}
	.st11{fill:#FFFFFF;}
	
		.st12{clip-path:url(#SVGID_00000018215536544670621460000001005576190903654539_);fill:url(#SVGID_00000093138399116417787880000011220151960384328612_);}
	
		.st13{clip-path:url(#SVGID_00000131333477313932278230000001563506779298021774_);fill:url(#SVGID_00000090976902046725006490000009547898699949349561_);}
	
		.st14{clip-path:url(#SVGID_00000028308736286017323960000008261238433379513507_);fill:url(#SVGID_00000157306713026122571400000000423719814573445274_);}
	
		.st15{clip-path:url(#SVGID_00000093894407108097662870000009570434021885554320_);fill:url(#SVGID_00000142892445921708410030000004123969094894772641_);}
	
		.st16{clip-path:url(#SVGID_00000065782051534448750720000004228811583484046231_);fill:url(#SVGID_00000098917884191947930110000002646598254571102353_);}
	
		.st17{clip-path:url(#SVGID_00000074416809810282722480000011812819378201961881_);fill:url(#SVGID_00000102526179330313062730000017845653402901450140_);}
	
		.st18{clip-path:url(#SVGID_00000177453277395127774930000003910338154926200244_);fill:url(#SVGID_00000173141445232140148970000008457063744654810243_);}
	.st19{fill-rule:evenodd;clip-rule:evenodd;fill:#C8202F;}
	.st20{fill-rule:evenodd;clip-rule:evenodd;fill:#FFFFFF;}
	.st21{fill-rule:evenodd;clip-rule:evenodd;fill:#F98238;}
	.st22{filter:url(#Adobe_OpacityMaskFilter);}
	.st23{fill:url(#SVGID_00000083772577995292627030000015563336828030607527_);}
	.st24{mask:url(#SVGID_00000016042856925960748870000014411077804644055982_);fill-rule:evenodd;clip-rule:evenodd;fill:#ED1C24;}
	.st25{fill-rule:evenodd;clip-rule:evenodd;fill:#F5333F;}
	.st26{fill-rule:evenodd;clip-rule:evenodd;fill:#ED1C24;}
	.st27{fill-rule:evenodd;clip-rule:evenodd;fill:#F9A46E;}
	.st28{fill-rule:evenodd;clip-rule:evenodd;fill:#F47B26;}
	.st29{fill-rule:evenodd;clip-rule:evenodd;fill:#EB5433;}
	.st30{fill:#1A3282;}
	.st31{fill-rule:evenodd;clip-rule:evenodd;fill:#1A3282;}
	.st32{fill-rule:evenodd;clip-rule:evenodd;fill:#9D9FA2;}
	.st33{fill-rule:evenodd;clip-rule:evenodd;fill:#000303;}
	.st34{fill:#64003D;}
	.st35{fill:#536270;}
	.st36{fill-rule:evenodd;clip-rule:evenodd;fill:#64003D;}
	.st37{fill-rule:evenodd;clip-rule:evenodd;fill:#536270;}
	.st38{fill-rule:evenodd;clip-rule:evenodd;fill:#1A3382;}
	.st39{fill-rule:evenodd;clip-rule:evenodd;fill:#29387E;}
	.st40{fill-rule:evenodd;clip-rule:evenodd;fill:#F37021;}
	.st41{fill-rule:evenodd;clip-rule:evenodd;fill:#005C32;}
	.st42{fill-rule:evenodd;clip-rule:evenodd;fill:#D2AB67;}
	
		.st43{clip-path:url(#SVGID_00000105418315464918388970000008034043632358323885_);fill:url(#SVGID_00000101092739251013580100000006828597282382685881_);}
	
		.st44{clip-path:url(#SVGID_00000010281697835157329130000011796963257429728897_);fill:url(#SVGID_00000004530384305392458050000003410196522191777428_);}
	
		.st45{clip-path:url(#SVGID_00000048473690256219949530000008487370773407735185_);fill:url(#SVGID_00000062878847789283979290000009982792539199684000_);}
	.st46{fill-rule:evenodd;clip-rule:evenodd;fill:#00AEEF;}
	.st47{fill-rule:evenodd;clip-rule:evenodd;fill:#EC008C;}
	.st48{fill-rule:evenodd;clip-rule:evenodd;fill:#FFF200;}
	.st49{fill:#A7AAAC;}
	.st50{fill-rule:evenodd;clip-rule:evenodd;fill:#5C5B5B;}
	.st51{fill:#9D9D9F;}
	.st52{fill:#F04D23;}
	.st53{fill-rule:evenodd;clip-rule:evenodd;fill:#2E3192;}
	.st54{fill-rule:evenodd;clip-rule:evenodd;fill:#C4312D;}
	.st55{fill:#552715;}
	.st56{fill:#010101;}
	.st57{fill:#E31E2E;}
	.st58{fill:url(#SVGID_00000136375000186403543840000000532874877746732978_);}
	.st59{fill:url(#SVGID_00000049919997547081181410000014953750268749741445_);}
	.st60{clip-path:url(#SVGID_00000119094525496644751250000013773047872971565990_);}
	.st61{clip-path:url(#SVGID_00000181057273738413367080000007384357461801862077_);}
	.st62{clip-path:url(#SVGID_00000021823583064531657060000009049021480208656543_);}
	.st63{clip-path:url(#SVGID_00000080166606047271563080000006772382928176349326_);}
	.st64{clip-path:url(#SVGID_00000072281669777899099380000002989055247423787392_);}
	.st65{clip-path:url(#SVGID_00000088121761534349767650000007430498238616134297_);}
	.st66{clip-path:url(#SVGID_00000152974701807886829510000010187153629827386785_);}
	.st67{clip-path:url(#SVGID_00000182502302576270733670000016318677726254427780_);}
	.st68{clip-path:url(#SVGID_00000092420839588028435510000008736485265965310898_);}
	.st69{clip-path:url(#SVGID_00000055699098993679179700000007483512325014015895_);}
	.st70{clip-path:url(#SVGID_00000170242794522686561330000001686935604877398432_);}
	.st71{fill:#2650A1;}
	.st72{fill:url(#SVGID_00000004535507834609847470000006246692782992891300_);}
	.st73{fill:#FEFEFE;}
	.st74{fill:#FDFDFD;}
	.st75{fill:#FCFCFC;}
	.st76{fill:#FBFBFB;}
	.st77{fill:#FAFAFA;}
	.st78{fill:#F9F9F9;}
	.st79{fill:#F8F8F8;}
	.st80{fill:#F7F7F7;}
	.st81{fill:#F6F6F6;}
	.st82{fill:#F5F5F5;}
	.st83{fill:#F4F4F4;}
	.st84{fill:#F3F3F3;}
	.st85{fill:#F2F2F2;}
	.st86{fill:#F1F1F1;}
	.st87{fill:#F0F0F0;}
	.st88{fill:#EFEFEF;}
	.st89{fill:#EEEEEE;}
	.st90{fill:#EDEDED;}
	.st91{fill:#ECECEC;}
	.st92{fill:#EBEBEB;}
	.st93{fill:#EAEAEA;}
	.st94{fill:#E9E9E9;}
	.st95{fill:#E8E8E8;}
	.st96{fill:#E7E7E7;}
	.st97{fill:#E6E6E6;}
	.st98{fill:#E5E5E5;}
	.st99{fill:#E4E4E4;}
	.st100{fill:#E3E3E3;}
	.st101{fill:#E2E2E2;}
	.st102{fill:#E1E1E1;}
	.st103{fill:#E0E0E0;}
	.st104{fill:#DFDFDF;}
	.st105{fill:#DEDEDE;}
	.st106{fill:#DDDDDD;}
	.st107{fill:#DCDCDC;}
	.st108{fill:#DBDBDB;}
	.st109{fill:#DADADA;}
	.st110{fill:#D9D9D9;}
	.st111{fill:#D92231;}
	.st112{fill:url(#SVGID_00000035491749591680712270000007094429631817715894_);}
	.st113{fill:url(#SVGID_00000104707892436826178130000000372902195523570604_);}
	.st114{opacity:0.8;}
	.st115{fill:url(#SVGID_00000149350673509471459130000017276383811563044795_);}
	.st116{fill:url(#SVGID_00000168805727982623435940000007467689147529097914_);}
	.st117{fill-rule:evenodd;clip-rule:evenodd;fill:#010101;}
	.st118{fill:#80A845;}
	.st119{fill-rule:evenodd;clip-rule:evenodd;fill:#80A845;}
	.st120{fill:url(#SVGID_00000047754276915773499400000006496433334345920950_);}
	.st121{fill-rule:evenodd;clip-rule:evenodd;fill:#04984A;}
	.st122{fill-rule:evenodd;clip-rule:evenodd;fill:url(#SVGID_00000138545336886067805050000003744891684124415136_);}
	.st123{fill:url(#SVGID_00000106850730945845555350000007045318485092290473_);}
	.st124{fill:url(#SVGID_00000061456441452683976090000005939416578920454335_);}
	.st125{fill:url(#SVGID_00000042710296470176084350000007330252649291314095_);}
	.st126{fill:url(#SVGID_00000098197769436083020840000000458075000510211501_);}
	.st127{fill:url(#SVGID_00000074402800273762605320000007368146231722483076_);}
	.st128{fill:url(#SVGID_00000044882087554554926090000010269295182918830739_);}
	.st129{fill:url(#SVGID_00000112595328546472658910000016428410747064015038_);}
	.st130{fill:url(#SVGID_00000034070135805743911030000013748928411632902532_);}
	.st131{fill:url(#SVGID_00000096040322156809891070000012846049672171386257_);}
	.st132{fill:url(#SVGID_00000098906062643350540990000012003544157840230561_);}
	.st133{fill:url(#SVGID_00000171708511241812819430000017016889959511218049_);}
	.st134{fill:url(#SVGID_00000093899939306076251710000004167619534632209576_);}
	.st135{fill:url(#SVGID_00000039846519355093519900000010868727851217615503_);}
	.st136{fill:url(#SVGID_00000182523598669361908420000013143250417832576153_);}
	.st137{fill-rule:evenodd;clip-rule:evenodd;fill:url(#SVGID_00000027600906250169795870000014552860938914417585_);}
	.st138{fill:#0A529D;}
	.st139{fill:url(#SVGID_00000065767215423549139180000014677841737361013648_);}
	.st140{fill:url(#SVGID_00000099664020624310984690000002075002704816239283_);}
	.st141{fill:url(#SVGID_00000005961764537804008270000014652886159720519863_);}
	.st142{fill:url(#SVGID_00000065066766746260016240000010367556117941929374_);}
	.st143{fill:url(#SVGID_00000132770293149082478970000008679327473784587140_);}
	.st144{fill:url(#SVGID_00000178922939520305944330000011325017657883288208_);}
	.st145{fill:url(#SVGID_00000026165227703154929310000010185184865666954116_);}
	.st146{fill:url(#SVGID_00000097478580091185578400000007327231436826113949_);}
	.st147{fill:url(#SVGID_00000021100952526942071860000005414761202481534091_);}
	.st148{fill:url(#SVGID_00000127728622469484717730000007211134758772685219_);}
	.st149{fill:url(#SVGID_00000107585139400033378090000001707044141350458031_);}
	.st150{fill:url(#SVGID_00000022520230295144996150000003104490774711108027_);}
	.st151{fill-rule:evenodd;clip-rule:evenodd;fill:url(#SVGID_00000158028444741817011240000014987517021099948717_);}
	.st152{fill:url(#SVGID_00000142153998278064462710000012710890476570263701_);}
	.st153{fill:url(#SVGID_00000068657757233444784670000010661292718945625277_);}
	.st154{fill:url(#SVGID_00000107554944241251468570000014135557432572994712_);}
	.st155{fill:url(#SVGID_00000152230620153819735590000017335927499854863293_);}
	.st156{fill:url(#SVGID_00000019676116599409097590000007195509051671985324_);}
	.st157{fill:url(#SVGID_00000129186195593876695510000002850827808407663281_);}
	.st158{fill:url(#SVGID_00000091014895018163073080000009862729541410497442_);}
	.st159{fill:url(#SVGID_00000057116804275855329000000017900086339401070989_);}
	.st160{fill:url(#SVGID_00000144333010754786612520000015273264078795959681_);}
	.st161{fill:url(#SVGID_00000181057437848235774540000002082958994662964380_);}
	.st162{fill:url(#SVGID_00000026842350023010076190000009133023673576476844_);}
	.st163{fill:url(#SVGID_00000084502536423969899370000014872824962427434133_);}
	.st164{fill:url(#SVGID_00000003103185905982413120000015004659422907445136_);}
	.st165{fill:url(#SVGID_00000178164456333564811700000008297970380111298450_);}
	.st166{fill:url(#SVGID_00000170272470711176520500000009020245083362377903_);}
	.st167{fill:url(#SVGID_00000027567834624927842810000009071291884647915449_);}
	.st168{fill:url(#SVGID_00000096030222530563941660000015878430358838834309_);}
	.st169{fill-rule:evenodd;clip-rule:evenodd;fill:url(#SVGID_00000082336167310949610560000017216170190364443564_);}
	.st170{fill:url(#SVGID_00000106145612994196340190000010872272076277174942_);}
	.st171{fill:url(#SVGID_00000069387466237042208080000015307486806221131439_);}
	.st172{fill:url(#SVGID_00000113337827702146869570000005130517581365061810_);}
	.st173{fill:url(#SVGID_00000178910745148003999320000018282577705750130580_);}
	.st174{fill:url(#SVGID_00000023281993512921276930000009709585013938896544_);}
	.st175{fill:url(#SVGID_00000054969240567331179960000015582322181546253696_);}
	.st176{fill:url(#SVGID_00000111166803036320985000000004678466045725528741_);}
	.st177{fill:url(#SVGID_00000023990259307072268240000002602698884797866892_);}
	.st178{fill:url(#SVGID_00000015336834742295310280000007951399102886520503_);}
	.st179{fill:url(#SVGID_00000144302057796774949140000004018212722409381762_);}
	.st180{fill:url(#SVGID_00000002368787943398133630000002074463330425488564_);}
	.st181{fill:url(#SVGID_00000049192243048765041070000012928638268069114272_);}
	.st182{fill:url(#SVGID_00000007427875935850732120000010991125914034090138_);}
	.st183{fill:url(#SVGID_00000114065284168108494830000005126475578134108805_);}
	.st184{fill-rule:evenodd;clip-rule:evenodd;fill:url(#SVGID_00000018949073745316172400000014604557210036113040_);}
	.st185{fill:url(#SVGID_00000111157358532219277320000011806675267976393125_);}
	.st186{fill:url(#SVGID_00000075158420868098940920000015142957363317139861_);}
	.st187{fill:url(#SVGID_00000107588808252006743520000002811332770862150026_);}
	.st188{fill:url(#SVGID_00000093139638247581399940000016724431530945732270_);}
	.st189{fill:url(#SVGID_00000134245781789668686320000017568858105881106305_);}
	.st190{fill:url(#SVGID_00000043426765551457000090000008585989049442317239_);}
	.st191{fill:url(#SVGID_00000031892776775313914690000016274714077490415294_);}
	.st192{fill:url(#SVGID_00000088855254788910114840000004829576222345987988_);}
	.st193{fill:url(#SVGID_00000005959345638393122500000004642609021647344826_);}
	.st194{fill:url(#SVGID_00000173129944679257446330000005501641644510620559_);}
	.st195{fill:url(#SVGID_00000109007207765534379710000018211608532174785211_);}
	.st196{fill:url(#SVGID_00000089575763947600672290000002320341967897046924_);}
	.st197{fill:url(#SVGID_00000162339085984942501390000018333275316583077523_);}
	.st198{fill:url(#SVGID_00000088818950055827283440000001626811871128146097_);}
	.st199{fill:url(#SVGID_00000124160026934988609960000008336237386685785001_);}
	.st200{fill:url(#SVGID_00000105417140422444760590000012305029809347848839_);}
	.st201{fill:url(#SVGID_00000060726778540402714640000013883085031314684863_);}
	.st202{fill:url(#SVGID_00000067204824656918489530000012701555773425990580_);}
	.st203{fill:url(#SVGID_00000053517652973578702660000013049247932793184898_);}
	.st204{fill-rule:evenodd;clip-rule:evenodd;fill:url(#SVGID_00000026145991347637941450000013481221783171338886_);}
	.st205{fill:url(#SVGID_00000090283568124021142450000013368172206115315332_);}
	.st206{fill:url(#SVGID_00000116217843484012060160000000487849648962671752_);}
	.st207{fill:url(#SVGID_00000067919026790575981680000017901425090068518831_);}
	.st208{fill:url(#SVGID_00000163036443129009316700000018029132651046148234_);}
	.st209{fill:url(#SVGID_00000150102500323946612730000015449476826067688632_);}
	.st210{fill:url(#SVGID_00000009574492030446734890000014460414901492551811_);}
	.st211{fill:url(#SVGID_00000098941863406656503750000011332051359713899453_);}
	.st212{fill:url(#SVGID_00000151513626679367223780000000049047189579573901_);}
	.st213{fill:url(#SVGID_00000023966974989792875000000005743152238843613631_);}
	.st214{fill:url(#SVGID_00000007429154942171620720000008810793415271473593_);}
	.st215{fill:url(#SVGID_00000134929677155693993790000002037530349595907770_);}
	.st216{fill:url(#SVGID_00000097467413071172665550000008982623107725157263_);}
	.st217{fill:url(#SVGID_00000068648844994118452020000013168912387031385278_);}
	.st218{fill:url(#SVGID_00000004546969426704465490000008348865638122244007_);}
	.st219{fill:url(#SVGID_00000072246190306910345150000017428397380926649268_);}
	.st220{fill:url(#SVGID_00000170255137358918477860000012271718228169483191_);}
	.st221{fill-rule:evenodd;clip-rule:evenodd;fill:url(#SVGID_00000012456652428184623150000013798363637072288641_);}
	.st222{fill:url(#SVGID_00000084491203306980314370000003865784358228913333_);}
	.st223{fill:url(#SVGID_00000132789167040273733480000002010271334368363706_);}
	.st224{fill:url(#SVGID_00000155867030223077376700000009774521084347636618_);}
	.st225{fill:url(#SVGID_00000041269016702168645900000013497769270710040718_);}
	.st226{fill:url(#SVGID_00000171703151467122036880000008527486627081572258_);}
	.st227{fill:url(#SVGID_00000032625911346602543080000004100377332951943835_);}
	.st228{fill:url(#SVGID_00000158731943833886969950000005900477098910786201_);}
	.st229{fill:url(#SVGID_00000179607623603848829940000003831380281424387976_);}
	.st230{fill:url(#SVGID_00000150104541198147171810000008120160120558230413_);}
	.st231{fill:url(#SVGID_00000100373082266865449710000009027204539157379724_);}
	.st232{fill:url(#SVGID_00000096034204965382906790000004558741338392367772_);}
	.st233{fill:url(#SVGID_00000000921592844202645720000011260319395212124064_);}
	.st234{fill:url(#SVGID_00000127731236960297911200000000070819177773205127_);}
	.st235{fill:url(#SVGID_00000182528226460592993630000005277152896650945697_);}
	.st236{fill:url(#SVGID_00000103986604584781055230000005188139826646976397_);}
	.st237{fill-rule:evenodd;clip-rule:evenodd;fill:url(#SVGID_00000102532705469573578220000016284394017236451751_);}
	.st238{fill:url(#SVGID_00000068659092612049692990000015619874106626647424_);}
	.st239{fill:url(#SVGID_00000165222153045212546000000001793589165517626756_);}
	.st240{fill:url(#SVGID_00000060016700333754424070000017074631275960417954_);}
	.st241{fill:url(#SVGID_00000031903518196281883790000007029199142590405782_);}
	.st242{fill:url(#SVGID_00000129181547084988525640000003477188020624056740_);}
	.st243{fill:url(#SVGID_00000125573752677192274810000013916909810516511916_);}
	.st244{fill:url(#SVGID_00000048497959418901875020000014064327014663428515_);}
	.st245{fill:url(#SVGID_00000078738441644155498830000009162741055260356996_);}
	.st246{fill:url(#SVGID_00000125587012739292969420000007142340049590765976_);}
	.st247{fill:url(#SVGID_00000029762891238496961860000010762740452775293859_);}
	.st248{fill:url(#SVGID_00000062908436680694166370000013723554312736573597_);}
	.st249{fill:url(#SVGID_00000132057706639905937790000012748759670806158214_);}
	.st250{fill:url(#SVGID_00000015321171267891351390000015295993080209603721_);}
	.st251{fill:url(#SVGID_00000134946754949067312010000004941022111483499198_);}
	.st252{fill:url(#SVGID_00000139258015097450571720000014102037913135369657_);}
	.st253{fill-rule:evenodd;clip-rule:evenodd;fill:url(#SVGID_00000163036442747827169540000004103020201333685426_);}
	.st254{fill:url(#SVGID_00000106845689715496494500000014993284427524882577_);}
	.st255{fill:url(#SVGID_00000105402560377367846730000013399963769785966504_);}
	.st256{fill:url(#SVGID_00000067949303423904446120000015781796992416370348_);}
	.st257{fill:url(#SVGID_00000155825204092986878300000005652065848962991534_);}
	.st258{fill:url(#SVGID_00000064318145956211426650000011605060799064499073_);}
	.st259{fill:url(#SVGID_00000039843222583401200450000017114688723353398436_);}
	.st260{fill:url(#SVGID_00000003807395137621554630000002862299501832833672_);}
	.st261{fill:url(#SVGID_00000093138685188123856970000013935215948448182432_);}
	.st262{fill:url(#SVGID_00000093135736479768138610000011994387912048431021_);}
	.st263{fill:url(#SVGID_00000146468149076464369310000016099370222535345846_);}
	.st264{fill:url(#SVGID_00000030473308211439269000000015639333345613530022_);}
	.st265{fill:url(#SVGID_00000026884814686853306190000015057549882132342716_);}
	.st266{fill:url(#SVGID_00000095324657809334649890000016393934828973384857_);}
	.st267{fill:url(#SVGID_00000018944897128915610750000005734502629242029494_);}
	.st268{fill:url(#SVGID_00000091008198495279246500000008342760857956495253_);}
	.st269{fill-rule:evenodd;clip-rule:evenodd;fill:url(#SVGID_00000057148129687648980360000006370450058151851177_);}
	.st270{fill:url(#SVGID_00000167358388612201465520000015346955607049126795_);}
	.st271{fill:url(#SVGID_00000111154591813368308120000005410060907402977412_);}
	.st272{fill:url(#SVGID_00000057853507424608337810000012291666015264635549_);}
	.st273{fill:url(#SVGID_00000056415092405105053050000018225934647945878669_);}
	.st274{fill:url(#SVGID_00000163037378236567019590000001476623813801504675_);}
	.st275{fill:url(#SVGID_00000054988571565144325730000006702005460838419851_);}
	.st276{fill:url(#SVGID_00000075160557703484991890000006686083660829633438_);}
	.st277{fill:url(#SVGID_00000013900990503722229620000002760133631480712353_);}
	.st278{fill:url(#SVGID_00000067914317646958430300000001318060983164445058_);}
	.st279{fill:url(#SVGID_00000151529907523179792670000014900950880936304047_);}
	.st280{fill:url(#SVGID_00000121250551863375759130000006220497645551869346_);}
	.st281{fill:url(#SVGID_00000043434429658997212060000000864574886613960377_);}
	.st282{fill:url(#SVGID_00000011741993761237108680000001102651499559444878_);}
	.st283{fill:url(#SVGID_00000170992503044763066330000005470078998905051525_);}
	.st284{fill:url(#SVGID_00000023272953938468240610000013897341169142863274_);}
	.st285{fill-rule:evenodd;clip-rule:evenodd;fill:url(#SVGID_00000152959812395925148760000000801654182359891072_);}
	.st286{fill:url(#SVGID_00000018236434194008441960000004425595523921573506_);}
	.st287{fill:url(#SVGID_00000090993681493952053380000016832703395935069845_);}
	.st288{fill:url(#SVGID_00000016794198385789795820000011119643715122894209_);}
	.st289{fill:url(#SVGID_00000008856969730345390440000010748080300448897983_);}
	.st290{fill:url(#SVGID_00000004522439156701845320000007852991740169940117_);}
	.st291{fill:url(#SVGID_00000029034921780024145800000011331367308530401703_);}
	.st292{fill:url(#SVGID_00000004523737097861343450000000194664528588353683_);}
	.st293{fill:url(#SVGID_00000063631131931640656030000004097943617031856809_);}
	.st294{fill:url(#SVGID_00000026162740320075952150000016484353202600126125_);}
	.st295{fill:url(#SVGID_00000019654961024422307770000008399839580348707263_);}
	.st296{fill:url(#SVGID_00000066497461331459748980000002946157765908214962_);}
	.st297{fill:url(#SVGID_00000047771159956063155260000011508540262879822474_);}
	.st298{fill:url(#SVGID_00000000188562622378144660000003270664577877502610_);}
	.st299{fill:url(#SVGID_00000149342426234082303490000006378614207872867003_);}
	.st300{fill:url(#SVGID_00000183955059574614107260000013190283688815540876_);}
	.st301{fill:url(#SVGID_00000111164313298023266480000000502090434476637332_);}
	.st302{fill:url(#SVGID_00000089570447783690077250000002910038675757176449_);}
	.st303{fill:url(#SVGID_00000108285029697835454830000006832042132305057926_);}
	.st304{fill-rule:evenodd;clip-rule:evenodd;fill:url(#SVGID_00000179627670010973784710000015241372324941346708_);}
	.st305{fill:url(#SVGID_00000079444375557584374680000013400227893946756246_);}
	.st306{fill:url(#SVGID_00000000191297880669485740000013722697588501717645_);}
	.st307{fill:url(#SVGID_00000161605557089676538690000016454017978366287011_);}
	.st308{fill:url(#SVGID_00000157997731655416972970000018415780067485239715_);}
	.st309{fill:url(#SVGID_00000181054970726286037450000002331737968623187901_);}
	.st310{fill:url(#SVGID_00000025411546759182032640000008906876517852338817_);}
	.st311{fill:url(#SVGID_00000067215792642899809450000005571529563994868661_);}
	.st312{fill:url(#SVGID_00000069361467480393125670000018308726418654655416_);}
	.st313{fill:url(#SVGID_00000080169723220555607440000007897546539414425241_);}
	.st314{fill:url(#SVGID_00000049196377905106381300000000427109880176376486_);}
	.st315{fill:url(#SVGID_00000163779587699242182720000001952844214474146230_);}
	.st316{fill:url(#SVGID_00000074441202697496393540000016926645600581315738_);}
	.st317{fill:url(#SVGID_00000004534422594327780450000010523723304497579439_);}
	.st318{fill:url(#SVGID_00000057113023778054288300000013215071910887654784_);}
	.st319{fill:url(#SVGID_00000077298667024797245770000000254385267220028080_);}
	.st320{fill:url(#SVGID_00000130612662468589808480000011931795672079923358_);}
	.st321{fill:url(#SVGID_00000161623828849601688910000015769029124605160123_);}
	.st322{fill:url(#SVGID_00000152258641125352108520000013721226055306173621_);}
	.st323{fill:url(#SVGID_00000046297156532270039430000011577192921437287865_);}
	.st324{fill:url(#SVGID_00000097497207444466642400000017406433090977724853_);}
	.st325{fill-rule:evenodd;clip-rule:evenodd;fill:url(#SVGID_00000014636322099688931150000011642062208513427606_);}
	.st326{fill:url(#SVGID_00000098215659100551537820000011228120730051248304_);}
	.st327{fill:url(#SVGID_00000031907346863176409640000010982483697864096929_);}
	.st328{fill:url(#SVGID_00000021121341331112817420000007435987870692376250_);}
	.st329{fill:url(#SVGID_00000155134604517680710250000013029917639235110277_);}
	.st330{fill:url(#SVGID_00000079466084705759185400000008512524104297447577_);}
	.st331{fill:url(#SVGID_00000049920139848274209370000011476794805697941941_);}
	.st332{fill:url(#SVGID_00000118385171162845847080000006505885198088118949_);}
	.st333{fill:url(#SVGID_00000034804812261390243610000001856344672067014064_);}
	.st334{fill:url(#SVGID_00000070090403127202931250000012079974907076525966_);}
	.st335{fill:url(#SVGID_00000144320781188725183950000007521670310404280991_);}
	.st336{fill:url(#SVGID_00000115479416306853696100000016550635239283256253_);}
	.st337{fill:url(#SVGID_00000122679199100530472980000002713025959633436047_);}
	.st338{fill:url(#SVGID_00000065756104827638921190000016170452196726182845_);}
	.st339{fill:url(#SVGID_00000129922298428046063050000013056161904879092103_);}
	.st340{fill:url(#SVGID_00000022524338499345077780000014801730675703344311_);}
	.st341{fill:url(#SVGID_00000157283345002449265650000009097266659201527997_);}
	.st342{fill-rule:evenodd;clip-rule:evenodd;fill:url(#SVGID_00000147184736409663533670000017967803869505082005_);}
	.st343{fill:url(#SVGID_00000057846231868219540430000004213013840477961868_);}
	.st344{fill:url(#SVGID_00000010999928588167527240000000643830355749672356_);}
	.st345{fill:url(#SVGID_00000109011427718200333140000003963272544183424696_);}
	.st346{fill:url(#SVGID_00000170236836765828774530000005302012653340124852_);}
	.st347{fill:url(#SVGID_00000183232704142135353490000005656475336657196931_);}
	.st348{fill:url(#SVGID_00000101102318265134080390000014044801604764287659_);}
	.st349{fill:url(#SVGID_00000000936789704832283810000014685012327507298691_);}
	.st350{fill:url(#SVGID_00000080168299471082475090000000496862706547467394_);}
	.st351{fill:url(#SVGID_00000044146363889303095620000001559275833868304774_);}
	.st352{fill:url(#SVGID_00000090281575814902286030000004304918786424157859_);}
	.st353{fill:url(#SVGID_00000142150565691226171020000002487712408025017752_);}
	.st354{fill:url(#SVGID_00000030465749586017637250000008156999323205744047_);}
	.st355{fill:url(#SVGID_00000103986382209827748390000004282906844212543874_);}
	.st356{fill:url(#SVGID_00000105422587991093055540000005946463383866719123_);}
	.st357{fill:url(#SVGID_00000031165041856800304000000000421084314511718052_);}
	.st358{fill:url(#SVGID_00000165945349381557519840000004444341905023129768_);}
	.st359{fill:url(#SVGID_00000010299070375345355520000002738027756498250938_);}
	.st360{fill:url(#SVGID_00000133528338267814114750000017117199827029982897_);}
	.st361{fill:url(#SVGID_00000001626668740730083590000011729484685916694442_);}
	.st362{fill:url(#SVGID_00000134213748088742916190000007785358057275831477_);}
	.st363{fill:#C1282D;}
	.st364{fill-rule:evenodd;clip-rule:evenodd;fill:url(#SVGID_00000031907373501467462500000002429981527766334086_);}
	.st365{fill:url(#SVGID_00000139265454263949525450000007585396654954289593_);}
	.st366{fill:url(#SVGID_00000029748253117641471270000014766150204295094401_);}
	.st367{fill:url(#SVGID_00000070076089529858570480000015859939701028592312_);}
	.st368{fill:url(#SVGID_00000142140026321302323460000012706652110533970103_);}
	.st369{fill:url(#SVGID_00000090284198105887763230000008933602615632550576_);}
	.st370{fill:url(#SVGID_00000086659904990396439620000000678855444974507941_);}
	.st371{fill:url(#SVGID_00000095318948838867944360000016868421962272149395_);}
	.st372{fill:url(#SVGID_00000166665913409575331350000010555847751933800600_);}
	.st373{fill:url(#SVGID_00000073720804230999270720000015399564274705690522_);}
	.st374{fill:url(#SVGID_00000097471362557299737950000012377221145673906102_);}
	.st375{fill:url(#SVGID_00000114778365071922380570000008980251873732765571_);}
	.st376{fill:url(#SVGID_00000160869585507999542700000016425489236267876752_);}
	.st377{fill:url(#SVGID_00000068676548208509517940000006872993879739623307_);}
	.st378{fill:url(#SVGID_00000097496917073351348560000013075389924416262285_);}
	.st379{fill:url(#SVGID_00000145760119116846704040000007596801120454711447_);}
	.st380{fill:url(#SVGID_00000106122532159508768460000010269134209461740986_);}
	.st381{fill-rule:evenodd;clip-rule:evenodd;fill:url(#SVGID_00000163770761770809753370000017949064227246931865_);}
	.st382{fill:url(#SVGID_00000096049192713359848730000010253839755962159290_);}
	.st383{fill:url(#SVGID_00000050621213344296965350000018164519857765886652_);}
	.st384{fill:url(#SVGID_00000178163113501295553480000007206623943090502039_);}
	.st385{fill:url(#SVGID_00000098906589350232078880000005905002869276232117_);}
	.st386{fill:url(#SVGID_00000062889996285927355500000013286694394317342860_);}
	.st387{fill:url(#SVGID_00000029761859185012029800000011064977112854286013_);}
	.st388{fill:url(#SVGID_00000157989430597844940860000010242458955473247876_);}
	.st389{fill:url(#SVGID_00000065764793993331745690000015414300457174315180_);}
	.st390{fill:url(#SVGID_00000094620530217300642950000015619708196273096840_);}
	.st391{fill:url(#SVGID_00000154415122047982782610000018416718698758770844_);}
	.st392{fill:url(#SVGID_00000065070514001800013410000010703019857819371454_);}
	.st393{fill:url(#SVGID_00000133510456701609303230000018093562111696755633_);}
	.st394{fill:url(#SVGID_00000034071152577690404160000000512612282697809280_);}
	.st395{fill:url(#SVGID_00000110453310449122228720000010236365523919112379_);}
	.st396{fill:url(#SVGID_00000096031388383153174570000013291509491320171926_);}
	.st397{fill:url(#SVGID_00000039104085011914141180000015629416043543211146_);}
	.st398{fill:url(#SVGID_00000058586311685609560100000003446343194709027209_);}
	.st399{fill:url(#SVGID_00000081637282243196513100000005703165597718850494_);}
	.st400{fill:url(#SVGID_00000003074387782782159130000002423560319092060604_);}
	.st401{fill:url(#SVGID_00000093142770160400645340000016873606744938237315_);}
</style>
<g>
	<g>
		<defs>
			<path id="SVGID_00000079451878905287053610000000750988114760303233_" d="M199.05,101.95l682.65,0.63l-0.42,445.96
				C785.75,671.39,686.26,788.76,590.73,911.6c-13.49,14.04-18.13,30.35-24.77,38.7c-21.7,27.27-22.81,28.04-107.5,27.71
				l-260.22-0.24L199.05,101.95z"/>
		</defs>
		<clipPath id="SVGID_00000133503384016281187110000001473188744732281225_">
			<use xlink:href="#SVGID_00000079451878905287053610000000750988114760303233_"  style="overflow:visible;"/>
		</clipPath>
		
			<linearGradient id="SVGID_00000057851469073385638630000010280516261760931476_" gradientUnits="userSpaceOnUse" x1="266.7466" y1="189.2832" x2="813.1889" y2="890.987">
			<stop  offset="0" style="stop-color:#E6E7E8"/>
			<stop  offset="0.22" style="stop-color:#E9E9EA"/>
			<stop  offset="0.54" style="stop-color:#FAFBFB"/>
			<stop  offset="1" style="stop-color:#FFFFFF"/>
		</linearGradient>
		
			<rect x="198.24" y="101.95" style="clip-path:url(#SVGID_00000133503384016281187110000001473188744732281225_);fill:url(#SVGID_00000057851469073385638630000010280516261760931476_);" width="683.46" height="876.38"/>
	</g>
	<g>
		<defs>
			<polygon id="SVGID_00000044138143503712856950000006448273046266432397_" points="534.68,736.56 881.28,549.19 612.6,825.95 
				531.41,740.02 			"/>
		</defs>
		<clipPath id="SVGID_00000121977588481265994590000012657752202426224264_">
			<use xlink:href="#SVGID_00000044138143503712856950000006448273046266432397_"  style="overflow:visible;"/>
		</clipPath>
		
			<linearGradient id="SVGID_00000057135302395157935290000010156277336855659434_" gradientUnits="userSpaceOnUse" x1="628.3976" y1="525.3663" x2="784.1638" y2="849.5012">
			<stop  offset="0" style="stop-color:#E6E7E8"/>
			<stop  offset="0.41" style="stop-color:#E6E7E8"/>
			<stop  offset="0.5" style="stop-color:#FAFBFB"/>
			<stop  offset="1" style="stop-color:#FFFFFF"/>
		</linearGradient>
		
			<rect x="531.41" y="549.19" style="clip-path:url(#SVGID_00000121977588481265994590000012657752202426224264_);fill:url(#SVGID_00000057135302395157935290000010156277336855659434_);" width="349.88" height="276.76"/>
	</g>
	<g>
		<defs>
			<path id="SVGID_00000112628696205151640820000004833991391507761309_" d="M550.77,970.17c28.94-36.68,34.84-68.63,3-108.94
				c0,0-71.69-69.95-19.11-122.47c11.42-11.4,67.46-32.35,75.84,31.91l271.26-219.88L550.77,970.17z"/>
		</defs>
		<clipPath id="SVGID_00000113333187542281764200000001945199201866322362_">
			<use xlink:href="#SVGID_00000112628696205151640820000004833991391507761309_"  style="overflow:visible;"/>
		</clipPath>
		
			<linearGradient id="SVGID_00000017491568546330760110000000273501466322757507_" gradientUnits="userSpaceOnUse" x1="778.6984" y1="894.2516" x2="596.7189" y2="642.7071">
			<stop  offset="0" style="stop-color:#939598"/>
			<stop  offset="0.34" style="stop-color:#7D7F81"/>
			<stop  offset="0.69" style="stop-color:#171717"/>
			<stop  offset="1" style="stop-color:#000000"/>
		</linearGradient>
		
			<rect x="482.08" y="550.79" style="clip-path:url(#SVGID_00000113333187542281764200000001945199201866322362_);fill:url(#SVGID_00000017491568546330760110000000273501466322757507_);" width="399.67" height="419.39"/>
	</g>
	<path class="st46" d="M238.36,616.38c5.94,0,13.75-10.31,13.75-15.36l0.01-3.23c0-6.43-2.73-12.95-8.89-12.95l-6.46-0.02
		c-5.32,0-15.37,10.56-15.37,16.16l-0.02,5.66c0,4.37,7.1,9.72,9.69,9.72L238.36,616.38z M639.61,328.85l-4.86,4.84
		c-6.1,8.3-20.22,0.2-20.22,13.73c-0.02,3.23,4.07,4.59,7.33,4.99l-11.39,5.51c-0.31-3.77-3.27-6.47-7.27-6.47h-3.23
		c-8.7-0.02-11.96,4.71-16.99,8.06c-10.77,0-42.17,14.59-51.21,19.11c-7.95,3.94-17.15,6.77-24.65,10.9
		c-2.34,1.3-4.92,1.11-6.43,2.46c-2.4,2.13,0.21,2.02-4.77,4.13c-6.33,2.69-6.56,0-13.55,4.23c-7.87,4.79-12.59,9.98-21.02,14.55
		c-6.71,3.64-17.34,8-24.51,11.06c-9.11,3.92-16.75,6.16-26.25,9.3c-5.72,1.9-22.52,6.95-22.52,13.05v3.25c0,1.3,2.3,3.92,3.24,5.56
		l7.26,0.91H401l-0.01,4.86l-0.41-0.7l-30.32,18.46v-4.04c0.02-2.29-1.84-3.12-3.23-4.13l-9.7,0.89c-8.95,5.98-23.19,12.97-38,12.9
		c-9.77-0.04-35.58,8.89-35.59,16.15v6.46c0,3.17,4.03,4.42,4.03,5.67c0,2.38-9.52,6.02-11.83,7.56c-2.86,1.93-6.81,6.41-10.33,9.07
		c-3.92,2.94-6.89,5.87-11.69,7.7c-3.77,1.45-9.83,4.33-9.83,9.59v1.62c0,4.67,8.37,7.28,13.73,7.28
		c11.79,0.02,15.7-3.11,23.51-3.97c9.57-1.04,16.96-0.57,23.4-4.87c11.23,0.02,7.03-4.25,16.77-5.86c6.85-1.13,15.76,0.31,22.82-0.6
		c12.1-1.57,17.35-15.01,31.57-15.32c-1.81,6.77-28.79,9.3-29.12,23.44c-1.08-0.73-6.03-4.06-7.27-4.06l-16.16-0.02
		c-6.36,0-17.8,4.56-22.03,6.66l-20.53,6.4l-0.3-0.97c-7.7,5.16-14.54,7.02-14.56,18.59c-1.26,1.87-6.47,7.06-6.47,9.7l-0.02,8.89
		c0,3.72,4.76,9.71,10.5,9.71c7.09,0.02,13.19-6.26,18.09-9.39c2.23-1.42,6.9-2.87,9.88-3.86c2.91-0.95,6.79-3.87,9.24-5.31
		c6.27-3.66,14.02-4.06,18.32-9.97c3-4.13,1.08-9.78,2.54-11.2c0.59-0.58,9.24-3.06,11.49-3.06c4.2-2.81,7.93-3.46,8.11-10.5
		c1.46,0.99,1.41,1.61,3.23,1.61h0.8c13.55,0.02,26.81-12.31,39.64-16.12c10.96-3.26,27.41-13.29,38.01-18.57
		c6.18-3.09,12.03-6.09,18.58-8.9c7.28-3.13,12.87-4.33,19.76-8.53c4.27-2.6,13.58-8.99,18.08-10.2c6.77-1.85,15.77-3.82,22.83-5.44
		l19.42-10.51c4.56-9.49-4.19-12.94-12.93-12.94c0.23-0.16,18.49-8.56,19.42-8.89c7-2.48,13.67-5.5,19.9-9.19
		c6.66-3.94,15.38-2.54,24.39-3.87c4.88-0.72,6.79-1.23,13.15-1.4c5.87-0.17,5.09-2.46,12.09-2.45
		c7.04-10.5,53.37-17.55,53.38-32.31c0.02-6.87-5.8-11.33-13.85-11.43l1.76-2.44l8.87,0.93c2.93,0.37,5.62-2.79,8.92-3.2
		c4.49-0.55,7.27,0.34,11.33-0.77c5.22-1.44,10.47-7.23,10.49-13.79v-2.42c0-2.94-0.67-4.52-1.62-6.48
		c1.67-2.5,8.53-9.83,11.45-10.38c5.34-1.02,14.43-0.73,14.45-7.39v-4.04c0-4.47-4.66-8.09-8.89-8.09H697
		c-2.49-0.02-18.76,3.31-20.94,4.1c-5.94,2.19-12.11,4.67-17.07,7.99c-8.97-0.02-7.87,3.9-15.2,5.36l-8.36-3.92l10.63-7.93
		c9.61,0.02,15.8-1.71,22.96-4.5c3.68-1.45,7.4-1.47,10.74-3c5.66-2.58,4.38-2.73,8.35-5.39c5.83,0,15.45,0.97,20.56-0.44
		c6.1-1.69,6.36-6.13,11.29-9.73c4.63-3.4,8.6-4.84,10.9-10.13c1.53-3.53,9.02-8.99,9.02-12.82v-3.23c0-3.78-3.12-8.09-7.26-8.09
		h-0.82c-3.65-0.02-4.17,6.07-10.49,6.49c-4.49,0.3-13.01-0.71-16.89,0.07c-3.67,0.75-11.86,9.91-22.12,12.63
		c-4.54,1.22-7.74,3.19-11.71,5.27c-9.01,4.73-2.84,2.13-13.87,3.9C647.69,312.65,645.8,326.61,639.61,328.85z"/>
	<path class="st47" d="M383.04,639.16c3.27-0.87,4.16-3,6.76-3.76c1.76-0.5,7.63-1.22,9.71-1.58c9.66-1.73,9.98-0.69,17.76-4.87
		c7.6-4.09,23.45-10.92,28.85-15.6c0.41-1.82,0.8-1.86,0.8-4.05l0.02-5.66c5.31,0,19.4-4.4,19.4-9.69v-2.43
		c0.01-2.86-5-5.67-8.08-5.67l-14.54-0.02c-7.27,0-11.23,3.23-18.61,3.22c-5.76,8.6-39.61,4.44-39.64,26.66
		c-1.99,2.96-6.47,6.62-6.47,11.3v6.47C379,636.93,380.32,638.41,383.04,639.16 M357.97,655.31c6.16,0,12.94-9.93,12.94-15.36
		l0.02-5.66c0-6.51-3.07-10.52-9.69-10.52h-4.04c-6.71-0.02-16.19,10.76-16.19,18.57v3.24c-0.01,4.38,7.09,9.7,9.68,9.7
		L357.97,655.31z M527.91,475.12l-19.42,10.51c-0.41,1.81-0.81,1.86-0.81,4.04v0.79c0,2.94,4.7,6.48,8.09,6.48l4.84,0.01v3.23
		c0,2.55-12.83,8.25-15.36,9.7c-4,2.3-11.43,8.76-15.37,9.67v-4.04c0-1.89-2.16-4.05-4.04-4.05h-1.62c-7.28,0-19.16,7.2-24.76,9.97
		c-8.47,4.2-17.59,4.54-30.22,4.53c-2.96,1.99-9.22,3.7-13.21,5.38c-4.37,1.86-8.33,5.17-11.86,7.53c-0.01,5.06-1.13,3.67-0.25,8.29
		c1.06,5.58,3.46,5.02,3.46,6.28c0,2.44-8.73,6.07-11.01,7.59c-3.08,2.04-8.03,6.23-10.65,8.76c-4.21,4.06-22.02,12.79-22.02,15.96
		v3.23c-0.01,4.9,9.11,7.29,14.53,7.3c10.77,0,16.44-3.85,23.42-4.06c8.15-0.24,17.88-1.59,22.67-4.8l5.82,0.2l7.12-6.66l24.26,0.03
		c4.56,0,4.42-1.62,9.7-1.62c3.29-4.9,15.82-13.73,24.26-13.72c-0.69,6.18-28.31,11.69-28.32,19.38v2.43c0,2.19,0.38,2.23,0.81,4.04
		h5.66c11.9,0.02,23.75-11.13,34.64-14.64c8.69-2.8,26.15-10.85,33.78-15.54c8.89-5.45,23.36-12.52,33.64-15.66
		c10.93-3.34,23.56-15.52,33.01-16.31c0.97-0.84,16.96-4.93,21.52-7.56c3.94-2.27,15.17-11.03,18.1-11.81
		c-0.58-7.09-4.95-5.14-6.46-8.9l-7.27-0.02v-1.61h2.43c3,0,28.88-12.57,33.16-14.52c9.67-4.36,5.52-3.89,19.41-4.83
		c2.07-0.14,20.41-1.44,22.35-1.88c11.78-2.69,21.54-10.37,33.18-14.5c5.94-2.1,30.99-12.15,30.99-17.51v-4.86
		c0.02-6.27-5.83-9.7-12.93-9.71l1.63-3.23c3.79,0.32,4,1.62,8.09,1.63h1.61c1.67,0,4.29-2.94,8.87-3.24
		c4.14-0.27,8.37,0.74,11.38-0.76c4.42-2.22,9.67-7.94,9.67-14.58l0.01-0.81c0-3.47-0.94-4.38-1.81-7.46l10.72-10.31
		c7.27,0,15.36-1.53,15.36-8.08c0.01-7.93-3.56-11.33-11.3-11.33h-0.8c-3.34,0-24.92,5.54-27.92,6.83
		c-2.41,1.03-23.59,10.92-23.83,10.92l-1.63-0.02c-3.26,0-1.42-3.23-8.89-3.23v-1.63c5.01-1.16,6.07-5.2,10.99-6.78
		c4.91-1.59,10.37-1.2,15.65-2.13c3.66-0.66,9.09-4.17,13.06-4.73c5.2-0.73,10.89-2.09,12.07-6.52l19.39,0.02
		c4.97,0,7.76-3.26,9.7-6.46c1.32-2.17,6.57-5.47,9.07-7.1c5.89-3.86,3.73-3.75,7.27-8.9c1.48-2.14,7.13-5.58,7.13-9.04v-4.04
		c0-3.89-2.2-8.9-5.65-8.9h-1.61c-2.59,0-5.99,5.06-8.1,6.46l-19.39-0.02c-6.94,4.64-10.48,9.03-18.7,12.02
		c-8.36,3.05-14.19,5.27-20.94,9.77c-17.79-0.02-15.33,8.33-24.05,17.99c-2.63,2.9-8.07,7.54-12.06,8.97
		c-5.27,1.89-14.03-0.67-14.05,7.77v1.62c0,3.4,4.43,4.77,8.26,5.22l-12.32,6.1c-0.33-4.11-2.9-7.27-7.26-7.29h-3.24
		c-6.85,0-12.53,3.84-15.36,8.07c-11.11-0.02-37.61,11.98-46.79,16.25c-7.31,3.43-13.27,6.64-21.62,9.9
		c-3.84,1.5-7.02,3.04-10.7,4.66c-6.95,3.04-4.9,3.69-10.1,6.07c-11.99,5.49-9.52,1.18-21.36,10.15
		c-6.85,5.17-11.43,8.1-19.49,12.05C567.22,460.91,534.83,474.55,527.91,475.12z"/>
	<path class="st0" d="M521.24,699.13c2.84,0,8.09-5.86,8.09-9.7v-4.86c0-1.8-3.34-6.47-5.64-6.47h-4.86c-3.23,0-9.7,7.67-9.7,10.5
		l-0.01,4.86c0,3.1,2.33,5.66,4.84,5.66L521.24,699.13z M632.9,581.98c-6.19,1.43-18.44,6.56-18.62,13.5l-15.22,1.11l-1.74,2.33
		c6.93,0.59,10.5,2.03,10.5,9.72c-16.95-0.01-26.85,4.39-37.85,10.63c-5.99,3.4-9,5.84-13.7,10.54c-5.49,5.48-7.77,6.18-13.96,10.3
		c-4.3,6.41-18.61,10.39-18.61,17.77c0,3.56,5.19,4.04,8.89,4.04h0.81l29.98-4.37c-4.44,5.5-18.83,0.64-26.76,12.46
		c0.43,1.82,0.82,1.86,0.82,4.04c-0.01,1.77-4.86,3.51-4.86,6.47v1.61l0.91,8.89c1.47,0.86,2.26,1.63,4.73,1.63
		c5.65,0,15.64-7.7,20.87-10.66c4.91-2.79,8.08-1.26,11.7-4.46c1.75-1.58,7.06-5.89,7.07-8.3v-2.42c3.51-0.3,10.5-1.94,10.52-5.66
		v-1.62c0-1.94-2.9-4.86-4.84-4.86h-6.47l-8.87,0.91l-0.01-1.74c9.07-2.1,14.9,1.31,22.62-3.22c2.9-1.71,13.49-8.25,16.19-8.88
		c-1.57,5.85-18.61,8.2-18.61,13.73c0,2.63,0.7,0.61,1.61,4.05h3.23c1.87,0,24.46-10.69,28.04-12.37c6.29-2.96,8.09-2.02,13.8-6.4
		c4.6-3.53,6.39-5.58,12.83-7.38c13.29-3.74,17.99-8.92,28.11-12.3c6.83-2.29,28.02-5.53,28.02-12.39v-3.24
		c0.01-2.92-4.42-3.01-7.26-3.23v-1.63l5.62-1c4.49-2.77,14.02-8,19.15-10.58c6.88-3.47,18.23-0.53,26.85-2.24
		c0.96-0.19,16.93-8.25,19.54-9.55c6.5-3.27,16.98-3.54,16.99-12.12v-2.43c0-2.62-2.93-4.05-5.66-4.05h-3.23v-1.63l8.89,0.02
		c1.94,0,2.38-1.32,4.04-2.43l7.27,0.02c2.64-1.76,6.47-5.39,6.49-9.7v-2.42c0-1.82-0.65-1.78-1.62-3.24l7.86-6.72l5.07,0.26
		c2.14-1.43,4.04-2.87,4.06-6.46v-0.81c0-2.62-3.51-4.86-6.46-4.86h-4.86c-7.45-0.02-24.95,10.49-30.72,10.48
		c-1.68,0,0.3-1.25-4.04-1.62l6.4-5.73c12.24,0.09,10.6,0.84,19.21-3.42c10.5-5.19,4.4-2.81,18.09-3.73
		c4.87-0.31,21.81-16.39,21.82-22.65v-1.61c0-2.49-0.74-4.86-3.23-4.86h-0.81c-3.66,0-4.89,1.98-5.66,4.84l-12.13-0.01
		c-0.08,0-13.4,6.67-15.66,7.78c-8.23,4.03-4.98,5.15-17.49,5.13c-4.47,8.43-13.94,16.99-24.28,19.38v6.47l3.2,0.91l0.03,1.52
		l-6.26,2.86l-0.21-3.68c-3.43-0.91-1.4-1.61-4.03-1.61h-1.61c-3.6-0.02-8.23,3.3-10.51,4.85c-7.59-0.02-48.24,18.3-53.59,22.39
		c-2.94,2.26-8.89,2.74-13.8,5.57c-4.2,2.43-7.06,4.82-11.32,7.27C655.33,574,639.14,581.98,632.9,581.98z"/>
	<path class="st48" d="M274.59,783.01c1.39,0,30.25-16.03,37.31-18.46c8.06-2.78,10.51-6.47,12.02-15.48
		c0.79-4.74,16.99-1.4,17.01-10.49c0-3.17-3-5.66-6.46-5.66l-16.18-0.03c-11.56,0-17.59,9.7-34.76,9.67
		c-6.73,4.5-13.75,4.9-13.76,16.16c-2.12,3.14-6.47,5.73-6.49,11.32C263.27,777.36,266.96,783,274.59,783.01 M230.93,779.72
		c-0.02,7.19,5.72,13.76,12.92,13.76h0.81c4,0.02,12.94-6.54,12.95-11.3v-9.7c0-2.11-5.03-8.1-8.88-8.1h-1.63
		C242.65,764.38,230.93,777.27,230.93,779.72z M648.33,510.01c-2.93,0.77-14.16,9.53-18.1,11.81c-4.56,2.63-20.55,6.72-21.52,7.56
		c-2.94,2.55-4.39,1.62-7.9,5.86c-2.76,3.33-1.9,4.39-6.19,7.56c-5.52,4.09-9.32,9.2-18.28,9.2c-1.3,1.93-4.04,3.6-4.04,5.66v1.61
		c0,2.3,3.42,4.42,4.84,5.66l-8.86,4.11l-0.04-2.5c0.01-2.04-3.34-4.04-4.84-4.04h-2.42c-6.22-0.02-11.5,3.02-13.76,7.26
		c-14.62-0.01-40.49,15.59-52.65,20.08c-9.66,3.57-15.95,7.14-24.82,11.54c-3.96,1.96-8.13,3.02-12.56,5.22
		c-4,1.98-7.84,5.89-11.04,6.74c-5.4,4.68-21.25,11.51-28.85,15.6c-7.79,4.19-8.1,3.14-17.76,4.87c-2.08,0.37-7.95,1.09-9.71,1.58
		c-2.6,0.76-3.49,2.89-6.76,3.76c-2.14,2.91-6.47,3.54-6.47,8.89v1.62c0,3.78,1.87,5.66,5.65,5.66l4.85,0.02v4.04l-0.51-0.82
		l-26.11,16.26c-0.35-13.49-30.7,2.7-38.52,4.26c-10.74,2.11-12.26-0.36-22.62,4.04c-3.86,1.64-14.93,7.45-14.95,11.73v1.62
		c0,4.87,3.8,5.81,4.84,9.71c-12.82,2.97-10.68,7.8-19.56,13.59c-7.26,4.73-14.39,6.6-19.26,13.87c0.26,3.1,0.75,7.27,4.03,7.27
		l20.2,0.03c4.52,0,19.55-4.69,24.06-5.85c4.24-1.08,8.47,0,12.35-2.2c4.84-2.76,1.26-4.13,10.49-4.06
		c14.05,0.12,15.9,1.99,24.59-4.49c3-2.22,15.32-9.93,19.08-10.02c-1.82,6.8-24.25,9.21-24.26,18.58c0,3.27,1.75,5.66,4.84,5.66
		c2.86,0.02,8.08-3.07,9.89-4.66c3.1-2.7,6.1-2.26,9.67-4.06c6.93-3.5,13.89-1.87,20.88-6.6c11.17-7.56,23.1-13.23,34.81-20.17
		c12.5-7.42,25.35-8.99,38.13-17.65c6.56-4.45,38.66-6.37,38.68-16.28v-2.42c0-2.96-1.24-3.9-2.41-5.66l-9.09-1.56l0.19-0.87
		c7.81-1.82,19.05-7.76,25.62-11.57c13.46-7.8,9.73-7,30.18-6.97c6.19-4.13,8.47-4.83,13.96-10.3c4.7-4.7,7.71-7.14,13.7-10.54
		c11-6.25,20.91-10.65,37.85-10.63c0-7.69-3.57-9.13-10.5-9.72l1.74-2.33l15.22-1.11c0.19-6.94,12.43-12.07,18.62-13.5l-0.84-8.09
		l7.95-8.27c6.26,0.2,15.56-2.65,15.56-7.07v-2.43c0-2.33-5.97-7.29-8.08-7.29h-8.09c-7.48-0.02-18.91,6.18-24.25,8.88
		c-2.34,1.18-9.06,3.47-12.06,4.11c-5.06,1.09-7.59-0.9-13.82-0.92c4.5-6.71,9.95-7.67,21.06-8.03c8.08-0.26,12.53-7.3,21.79-7.28
		l4.76-4.18c5.89,0.13,13.13,0.54,18.73,0.19c5.63-0.36,4.77-5.05,9.49-8.29c4.57-3.14,15.56-14.25,15.56-20.03v-5.66
		c0-2.62-2.93-4.04-5.66-4.04c-3.09-0.02-5.68,4.04-8.09,5.65L648.33,510.01z"/>
	<polygon class="st0" points="250.01,228.84 832.64,229.39 832.63,234.61 250.01,234.07 	"/>
	<path d="M391.72,273.94v1.36l-23.49-0.02v-1.36L391.72,273.94z M379.3,262.49h1.36l-0.02,23.48h-1.36L379.3,262.49z M657.23,246.56
		l-0.02,24.98l-27.5-0.03l-0.06,59.57l-31.18-0.03l0.05-59.57l-27.51-0.03l0.03-24.98L657.23,246.56z M475.77,330.94l0.07-84.55
		l46.74,0.04l14.95,59.62h0.23l0.06-59.61l26.79,0.03l-0.07,84.55l-45.88-0.05l-15.78-61.33h-0.26l-0.06,61.31L475.77,330.94z
		 M433.44,246.34l31.23,0.03l-0.07,84.57l-31.23-0.03L433.44,246.34z M352.64,273.84l-11-0.01l0.02-27.56l37.67,0.05v0.5
		c-7.27,0.17-13.85,3.18-18.65,7.97C355.77,259.66,352.72,266.39,352.64,273.84z M380.67,246.8v-0.5h11.44
		c6.64,0.01,12.32,0.78,16.96,2.3c4.66,1.53,8.2,3.95,10.7,7.3c2.48,3.36,3.73,7.67,3.72,12.96c0,1.77-0.16,3.46-0.46,5.03
		l-15.7-0.02c-0.07-7.43-3.12-14.17-7.99-19.06C394.55,250.02,387.97,246.99,380.67,246.8z M407.31,275.24l15.45,0.02
		c-2.06,8.09-8.29,13.43-18.72,16.03v0.25c5.92,1.06,10.52,4.08,13.75,9.07c1.09,2.03,1.96,4.29,2.62,6.82
		c0.66,2.51,1.32,5.71,1.96,9.56c0.66,3.86,1.13,6.69,1.5,8.49c0.37,1.82,0.9,3.62,1.58,5.43l-32.49-0.03
		c-0.31-1.31-0.71-4.14-1.21-8.45c-0.53-4.3-0.97-7.67-1.38-10.07c-0.38-2.42-0.94-4.36-1.7-5.82c-0.87-1.8-2-2.98-3.37-3.53
		c-1.21-0.5-2.76-0.78-4.66-0.84v-0.68c7.29-0.17,13.87-3.18,18.68-7.98C404.02,288.8,407.03,282.37,407.31,275.24z M368.13,273.85
		l-14.19-0.02c0.07-7.09,2.98-13.49,7.64-18.13c4.58-4.56,10.82-7.43,17.73-7.6l-0.01,14.39
		C373.23,262.82,368.35,267.74,368.13,273.85z M380.66,262.49l0.02-14.39c6.93,0.19,13.19,3.08,17.74,7.65
		c4.64,4.64,7.55,11.06,7.62,18.13l-14.26-0.02C391.56,267.78,386.72,262.85,380.66,262.49z M391.76,275.22l14.25,0.02
		c-0.28,6.76-3.14,12.86-7.63,17.35c-4.57,4.56-10.83,7.43-17.75,7.6l0.01-14.06C386.55,285.78,391.3,281.11,391.76,275.22z
		 M353.95,275.2l14.2,0.01c0.43,5.89,5.2,10.59,11.13,10.92l-0.01,14.06c-6.92-0.18-13.16-3.07-17.72-7.64
		C357.07,288.06,354.22,281.95,353.95,275.2z M341.58,330.83l0.04-55.64l11.03,0.02c0.26,7.11,3.26,13.54,7.97,18.27
		c4.79,4.8,11.36,7.83,18.65,8.02v0.66h-6.45l-0.03,28.71L341.58,330.83z M280.39,265.85l-0.03,20.93l6.88,0.02
		c2.91,0,5.44-0.26,7.62-0.8c2.17-0.54,3.94-1.64,5.34-3.25c1.37-1.61,2.07-3.9,2.09-6.83c0-2.8-0.7-4.94-2.09-6.44
		c-1.39-1.47-3.16-2.46-5.34-2.93c-2.17-0.47-4.76-0.69-7.73-0.7H280.39z M249.92,330.74l0.08-84.57l53.68,0.06
		c3.53,0,7,0.48,10.42,1.44c3.4,0.94,6.59,2.55,9.56,4.74c2.94,2.23,5.33,5.24,7.13,9.03c1.8,3.82,2.71,8.44,2.7,13.87
		c0,7.05-1.33,12.9-3.98,17.56c-2.67,4.69-6.24,8.12-10.79,10.29c-4.51,2.2-9.59,3.29-15.2,3.29l-22.36-0.03l-0.03,24.33
		L249.92,330.74z"/>
	<path d="M796.36,181.17l6.57,0.01c0.7,0,2.07-0.26,4.11-0.8c1.03-0.25,1.89-0.86,2.55-1.86c0.65-0.98,0.97-2.13,0.97-3.43
		c0-1.91-0.51-3.37-1.54-4.38c-1.03-1.04-2.97-1.56-5.8-1.56h-6.85L796.36,181.17z M780.7,216.36l0.06-59.17l25.94,0.01
		c4.81,0.02,8.5,0.5,11.03,1.47c2.55,0.97,4.6,2.77,6.16,5.4c1.56,2.62,2.33,5.82,2.31,9.58c0,3.29-0.6,6.11-1.78,8.5
		c-1.2,2.39-2.85,4.3-4.92,5.79c-1.34,0.94-3.16,1.73-5.47,2.33c1.86,0.73,3.2,1.46,4.06,2.2c0.55,0.47,1.39,1.51,2.49,3.1
		c1.09,1.6,1.81,2.82,2.17,3.67l7.52,17.17l-17.59-0.02l-8.3-18.09c-1.06-2.33-1.99-3.87-2.83-4.57c-1.11-0.91-2.38-1.36-3.8-1.36
		l-1.37-0.02l-0.03,24.02L780.7,216.36z M753.51,193.77l-5.56-21.28l-5.54,21.26L753.51,193.77z M756.76,206.58l-17.73-0.02
		l-2.44,9.76l-15.9-0.02l18.99-59.16l16.96,0.01l18.89,59.2l-16.29-0.02L756.76,206.58z M676.22,157.09l47.33,0.05l-0.02,14.62
		l-15.89-0.02l-0.05,44.55l-15.56-0.02l0.05-44.55l-15.87-0.02L676.22,157.09z M657.56,193.69l-5.54-21.28l-5.56,21.26
		L657.56,193.69z M660.82,206.49l-17.73-0.03l-2.46,9.77l-15.9-0.02l18.99-59.15l16.97,0.01l18.88,59.18l-16.29-0.01L660.82,206.49z
		 M602.82,193.63l-5.55-21.27l-5.56,21.26L602.82,193.63z M606.07,206.43l-17.73-0.01l-2.45,9.76l-15.9-0.01l18.99-59.16l16.98,0.02
		l18.87,59.2l-16.29-0.02L606.07,206.43z M537.28,203.42l7.93,0.02c2.69,0,4.59-0.54,5.68-1.67c1.1-1.11,1.66-2.61,1.66-4.5
		c0-1.74-0.54-3.16-1.63-4.22c-1.08-1.06-2.98-1.6-5.71-1.6l-7.92-0.01V203.42z M537.3,180.18h6.78c2.43,0,4.11-0.48,5.07-1.47
		s1.43-2.4,1.43-4.26c0-1.71-0.47-3.07-1.41-4.03c-0.96-0.99-2.62-1.47-4.98-1.47h-6.87L537.3,180.18z M521.62,156.95l29.14,0.03
		c4.86,0,8.59,1.42,11.18,4.24c2.6,2.83,3.9,6.33,3.9,10.5c0,3.49-0.93,6.5-2.79,9c-1.25,1.66-3.06,2.98-5.43,3.94
		c3.6,1.03,6.27,2.79,7.97,5.27c1.7,2.5,2.56,5.63,2.56,9.39c-0.02,3.07-0.61,5.83-1.83,8.28c-1.23,2.46-2.88,4.39-4.99,5.81
		c-1.32,0.87-3.27,1.53-5.92,1.92c-3.51,0.54-5.83,0.82-6.99,0.82l-26.86-0.03L521.62,156.95z M463.06,156.9l14.55,0.01l18.93,32.75
		l0.03-32.74l14.67,0.02l-0.06,59.18l-14.67-0.01l-18.83-32.51l-0.05,32.48l-14.63-0.02L463.06,156.9z M435.91,193.47l-5.55-21.28
		l-5.56,21.26L435.91,193.47z M439.17,206.28l-17.73-0.02l-2.46,9.77l-15.9-0.03l18.99-59.16l16.98,0.02l18.89,59.2l-16.3-0.01
		L439.17,206.28z M381.19,193.43l-5.56-21.28l-5.56,21.26L381.19,193.43z M384.43,206.24l-17.73-0.03l-2.46,9.77l-15.9-0.02
		l18.99-59.16l16.98,0.01l18.89,59.19L386.9,216L384.43,206.24z M306.54,156.75l15.58,0.02l-0.04,44.6l24.29,0.03l-0.02,14.57
		l-39.87-0.05L306.54,156.75z M280.69,156.72l15.55,0.01l-0.03,35.3c-0.02,3.49-0.48,6.78-1.42,9.9c-0.93,3.1-2.38,5.82-4.37,8.15
		s-4.06,3.96-6.25,4.9c-3.03,1.31-6.64,1.98-10.89,1.96c-2.45,0-5.13-0.2-8.03-0.62c-2.9-0.4-5.31-1.2-7.26-2.4
		c-1.94-1.2-3.73-2.92-5.34-5.12c-1.61-2.2-2.72-4.49-3.32-6.83c-0.96-3.76-1.43-7.09-1.43-10l0.02-35.28l15.55,0.02l-0.03,36.12
		c-0.02,3.24,0.76,5.76,2.26,7.57c1.53,1.82,3.64,2.73,6.34,2.73c2.67,0,4.79-0.88,6.32-2.68c1.52-1.78,2.29-4.32,2.29-7.61
		L280.69,156.72z"/>
	<path class="st49" d="M490.6,921.58l-16.96-0.02c-0.41,0-0.73,0.11-0.93,0.33c-0.21,0.22-0.38,0.63-0.51,1.22h-0.66v-8.56h0.66
		c0.13,0.58,0.3,0.99,0.51,1.22c0.22,0.22,0.52,0.33,0.95,0.33l21.47,0.02c0.43,0,0.73-0.11,0.94-0.33c0.2-0.23,0.39-0.63,0.51-1.22
		h0.66l-0.02,6.33L485,945.47c-0.48,0.96-0.71,1.57-0.71,1.85c0,0.48,0.37,0.89,1.1,1.18v0.8l-9.73-0.02v-0.8
		c0.57-0.18,1.06-0.5,1.43-0.91c0.37-0.43,0.83-1.13,1.33-2.12L490.6,921.58z M455.25,920.95c-2.03,0-3.68,0.6-4.96,1.82
		c-1.04,1.01-1.59,2.33-1.59,3.96c-0.02,1.6,0.53,2.91,1.59,3.93c1.26,1.22,2.91,1.84,4.95,1.84c2.06,0,3.72-0.61,4.97-1.82
		c1.06-1.02,1.6-2.32,1.6-3.89c0-1.65-0.54-2.98-1.59-4C458.99,921.58,457.32,920.96,455.25,920.95z M442.98,947.34l3.51-7.95
		l0.55,0.34c-0.09,0.4-0.11,0.73-0.11,0.94c0,0.66,0.41,1.3,1.27,1.94c0.7,0.54,1.61,0.99,2.73,1.33c1.12,0.34,2.17,0.54,3.19,0.54
		c2.23,0,4.11-0.71,5.69-2.12c1.03-0.96,1.77-2.07,2.28-3.36c0.49-1.3,0.8-3.02,0.93-5.12c-1.35,1.46-2.7,2.52-4.09,3.16
		c-1.37,0.63-2.96,0.95-4.76,0.95c-2.89-0.01-5.34-0.86-7.4-2.51c-1.17-0.97-2.09-2.2-2.75-3.73c-0.64-1.47-0.96-3.1-0.96-4.86
		c0-3.5,1.19-6.3,3.57-8.39c2.3-2.06,5.23-3.07,8.78-3.06c3.84,0,6.86,1.19,9.04,3.54c1.44,1.58,2.52,3.58,3.23,6.01
		c0.66,2.34,1,4.79,1,7.33c-0.02,5.17-1.32,9.36-3.94,12.55c-2.7,3.32-6.22,4.97-10.55,4.97c-1.52,0-2.87-0.18-4.07-0.51
		c-1.22-0.33-2.65-0.94-4.28-1.82c-0.55-0.31-0.98-0.45-1.29-0.45c-0.23,0-0.46,0.1-0.69,0.31c-0.17,0.17-0.3,0.3-0.37,0.37
		L442.98,947.34z M426.14,920.92c-2.04,0-3.67,0.62-4.96,1.82c-1.06,1.02-1.59,2.33-1.6,3.96c0,1.6,0.54,2.91,1.6,3.93
		c1.26,1.23,2.91,1.85,4.95,1.85c2.06,0,3.7-0.62,4.97-1.83c1.06-1.01,1.6-2.31,1.6-3.89c0-1.64-0.54-2.98-1.58-4
		C429.88,921.55,428.21,920.93,426.14,920.92z M413.86,947.31l3.5-7.94l0.57,0.34c-0.09,0.4-0.11,0.73-0.11,0.94
		c0,0.66,0.41,1.3,1.27,1.95c0.7,0.54,1.61,0.98,2.73,1.34c1.11,0.34,2.17,0.53,3.19,0.53c2.22,0,4.12-0.72,5.68-2.12
		c1.04-0.96,1.78-2.07,2.28-3.36c0.5-1.3,0.82-3.01,0.94-5.12c-1.34,1.46-2.7,2.52-4.08,3.16c-1.37,0.63-2.96,0.96-4.77,0.96
		c-2.87,0-5.33-0.86-7.4-2.52c-1.17-0.97-2.07-2.2-2.73-3.73c-0.64-1.47-0.96-3.1-0.96-4.86c0-3.5,1.19-6.3,3.57-8.39
		c2.3-2.06,5.23-3.06,8.77-3.06c3.85,0,6.86,1.18,9.05,3.54c1.44,1.57,2.52,3.58,3.21,6.02c0.68,2.33,1.02,4.77,1,7.31
		c0,5.18-1.3,9.38-3.93,12.55c-2.71,3.32-6.23,4.98-10.55,4.98c-1.51,0-2.87-0.17-4.07-0.51c-1.23-0.33-2.65-0.94-4.27-1.82
		c-0.56-0.32-0.99-0.46-1.3-0.46c-0.21,0-0.46,0.1-0.67,0.31c-0.19,0.17-0.3,0.3-0.37,0.37L413.86,947.31z M395.19,928.01v-8.8h0.66
		c0.14,0.6,0.29,0.99,0.43,1.18c0.13,0.17,0.33,0.27,0.6,0.27c0.13,0,0.31-0.05,0.56-0.1l1.71-0.54v-1.43c0-0.5-0.09-0.87-0.27-1.12
		c-0.19-0.26-0.51-0.47-0.99-0.63v-0.8h8.29v0.8c-0.48,0.16-0.81,0.36-0.98,0.62c-0.19,0.26-0.29,0.62-0.29,1.13l-0.03,28.08
		c0,0.5,0.1,0.88,0.29,1.14c0.17,0.26,0.5,0.47,0.99,0.63l-0.02,0.8h-8.27v-0.8c0.47-0.16,0.8-0.37,0.98-0.63
		c0.19-0.26,0.29-0.64,0.29-1.14l0.02-20.98l-1.88,0.56c-0.44,0.13-0.76,0.31-0.96,0.56c-0.18,0.24-0.34,0.66-0.47,1.22H395.19z
		 M354.86,934.58v9.12l17.46,0.02c0.4,0,0.7-0.12,0.91-0.34c0.22-0.23,0.39-0.61,0.52-1.2h0.66v8.56h-0.66
		c-0.13-0.58-0.32-0.98-0.52-1.2c-0.21-0.23-0.51-0.34-0.91-0.34l-24.69-0.02l0.02-0.8c0.47-0.16,0.79-0.37,0.97-0.63
		c0.2-0.26,0.29-0.65,0.29-1.14l0.03-28.05c0-0.51-0.1-0.89-0.29-1.14c-0.19-0.26-0.5-0.47-0.97-0.63v-0.8l24.18,0.01
		c0.4,0,0.71-0.11,0.91-0.34c0.21-0.22,0.4-0.62,0.53-1.2h0.64V923h-0.66c-0.13-0.57-0.3-0.97-0.51-1.2
		c-0.22-0.22-0.51-0.34-0.91-0.34l-16.98-0.02v7.86l11.01,0.02c0.4,0,0.7-0.11,0.92-0.34c0.21-0.21,0.38-0.62,0.51-1.2h0.66v8.36
		h-0.66c-0.13-0.55-0.31-0.96-0.51-1.18c-0.22-0.22-0.51-0.36-0.92-0.36L354.86,934.58z M339.78,937.78l3.79,6.91l-0.51,0.45
		c-0.37-0.43-0.67-0.63-0.92-0.63c-0.24,0-0.91,0.39-2.01,1.16c-2.29,1.6-4.21,2.69-5.77,3.24c-1.57,0.56-3.42,0.85-5.58,0.83
		c-4.3,0-7.81-1.24-10.56-3.73c-1.63-1.44-2.91-3.23-3.83-5.38c-1.07-2.47-1.62-5.17-1.62-8.13c0-4.01,0.99-7.52,2.9-10.46
		c2.9-4.47,7.28-6.7,13.15-6.7c2.16,0.02,4,0.29,5.54,0.84c1.55,0.54,3.47,1.63,5.79,3.26c1.1,0.76,1.77,1.13,2,1.13
		c0.24,0,0.56-0.2,0.93-0.63l0.51,0.44l-3.8,6.93l-0.54-0.44c0.03-0.26,0.06-0.47,0.06-0.66c0-0.47-0.17-0.9-0.51-1.32
		c-0.31-0.41-0.91-0.91-1.77-1.5c-2.36-1.62-4.84-2.41-7.48-2.43c-3.12,0-5.6,0.94-7.46,2.84c-2.17,2.23-3.27,5.13-3.27,8.72
		c0,3.6,1.09,6.5,3.26,8.73c1.86,1.89,4.34,2.84,7.46,2.84c2.62,0.02,5.12-0.8,7.48-2.41c0.86-0.59,1.44-1.07,1.77-1.49
		c0.34-0.41,0.51-0.86,0.51-1.33c0-0.18-0.03-0.4-0.04-0.63L339.78,937.78z M284.75,926.38l-0.01,20.17
		c-0.02,0.5,0.09,0.89,0.27,1.14c0.18,0.26,0.51,0.47,0.98,0.62v0.8l-7.96-0.02v-0.8c0.49-0.16,0.8-0.37,0.99-0.63
		c0.19-0.26,0.29-0.65,0.29-1.14l0.03-28.08c0-0.48-0.1-0.86-0.28-1.11c-0.19-0.26-0.5-0.47-0.99-0.63v-0.8l9.23,0.02v0.8
		c-0.57,0.17-0.86,0.54-0.86,1.11c0,0.39,0.2,0.82,0.56,1.29l15.04,19.04l0.01-19.68c0-0.49-0.09-0.86-0.27-1.11
		c-0.18-0.26-0.51-0.47-0.98-0.63v-0.8h7.94v0.8c-0.46,0.16-0.79,0.37-0.99,0.63c-0.19,0.26-0.27,0.62-0.27,1.11l-0.02,28.08
		c0,0.5,0.09,0.88,0.28,1.14c0.19,0.26,0.52,0.47,0.97,0.63v0.8h-8.54v-0.8c0.56-0.14,0.83-0.5,0.83-1.04c0-0.33-0.33-0.88-0.97-1.7
		L284.75,926.38z M265.94,946.51l0.01-28.08c0-0.48-0.09-0.86-0.27-1.11c-0.19-0.26-0.5-0.47-0.98-0.63v-0.79l8.48,0.01v0.8
		c-0.47,0.14-0.8,0.34-0.98,0.62c-0.19,0.27-0.29,0.65-0.29,1.13l-0.03,28.08c0,0.5,0.1,0.89,0.29,1.16
		c0.2,0.27,0.53,0.47,0.97,0.62v0.8l-8.47-0.02v-0.8c0.48-0.16,0.8-0.37,0.98-0.63C265.84,947.4,265.94,947.01,265.94,946.51z
		 M260.63,918.67l-3.26,7.8l-0.55-0.38c0.02-0.16,0.02-0.29,0.02-0.39c0-0.56-0.39-1.16-1.14-1.78c-2.36-2-5.15-3.02-8.33-3.02
		c-1.41,0-2.66,0.2-3.73,0.62c-0.78,0.33-1.41,0.82-1.91,1.46c-0.49,0.66-0.73,1.36-0.73,2.13c0,1.24,0.63,2.1,1.86,2.54
		c0.64,0.25,2,0.47,4.1,0.75l3.13,0.38c1.86,0.24,3.36,0.58,4.52,1.02c1.14,0.43,2.16,1.02,3.05,1.77c0.9,0.8,1.62,1.85,2.13,3.15
		c0.51,1.3,0.78,2.69,0.78,4.16c0,2.33-0.63,4.41-1.86,6.23c-1.11,1.64-2.84,2.87-5.2,3.67c-1.76,0.58-3.63,0.89-5.65,0.89
		c-3.58,0-7.14-1.06-10.64-3.18c-0.75-0.41-1.19-0.62-1.35-0.62c-0.16,0-0.43,0.19-0.8,0.53l-0.58-0.36l2.96-8.12l0.58,0.34
		c0,0.13,0,0.24,0,0.31c0,0.73,0.27,1.4,0.84,2.02c0.86,0.93,2.2,1.74,4,2.43c1.8,0.67,3.53,1.01,5.15,1.01
		c1.75,0,3.27-0.36,4.51-1.09c0.7-0.4,1.25-0.94,1.66-1.62c0.41-0.67,0.62-1.37,0.62-2.1c0.01-1.1-0.47-1.89-1.44-2.35
		c-0.69-0.34-2.05-0.65-4.12-0.92l-3.07-0.38c-2.06-0.27-3.5-0.51-4.36-0.76c-0.86-0.23-1.7-0.61-2.56-1.13
		c-1.2-0.73-2.16-1.84-2.84-3.3c-0.61-1.31-0.93-2.83-0.93-4.53c0-2.81,0.79-5.13,2.38-6.96c2.07-2.41,5.17-3.63,9.33-3.63
		c1.74,0,3.37,0.21,4.86,0.64c1.5,0.46,3.39,1.24,5.63,2.39c0.76,0.37,1.23,0.56,1.4,0.56c0.28,0,0.6-0.19,0.97-0.56L260.63,918.67z
		"/>
</g>
</svg>
