<?xml version="1.0" encoding="utf-8"?>
<!-- Generator: Adobe Illustrator 26.5.0, SVG Export Plug-In . SVG Version: 6.00 Build 0)  -->
<svg version="1.1" id="Layer_1" xmlns="http://www.w3.org/2000/svg" xmlns:xlink="http://www.w3.org/1999/xlink" x="0px" y="0px"
	 viewBox="0 0 1080 1080" style="enable-background:new 0 0 1080 1080;" xml:space="preserve">
<style type="text/css">
	.st0{fill-rule:evenodd;clip-rule:evenodd;}
	.st1{fill:#ED1C24;}
	.st2{fill:#E1251B;}
	.st3{fill-rule:evenodd;clip-rule:evenodd;fill:#16397B;}
	.st4{fill:#EE2745;}
	
		.st5{clip-path:url(#SVGID_00000049214519853184469780000017800554010877880221_);fill:url(#SVGID_00000012455300128488991590000014809293121741717145_);}
	
		.st6{clip-path:url(#SVGID_00000153680949804624356540000011366835414706531259_);fill:url(#SVGID_00000144311315864607530670000002812002312529421706_);}
	
		.st7{clip-path:url(#SVGID_00000151535139164273116040000015750328952537589928_);fill:url(#SVGID_00000116213386724200072910000009758108598255713699_);}
	
		.st8{clip-path:url(#SVGID_00000103974393251859440620000011723865657080070784_);fill:url(#SVGID_00000071562081423958009580000018322139897408102020_);}
	.st9{fill:#424243;}
	
		.st10{clip-path:url(#SVGID_00000119107145629352393360000009080441833688593568_);fill:url(#SVGID_00000158713744702177309260000001653827194246549128_);}
	.st11{fill:#FFFFFF;}
	
		.st12{clip-path:url(#SVGID_00000095324126131131861590000013669200636629386141_);fill:url(#SVGID_00000159458505024114117500000015455265893336355982_);}
	
		.st13{clip-path:url(#SVGID_00000117673287006068888630000011504450267726986906_);fill:url(#SVGID_00000062914864984874608440000003851549910872468365_);}
	
		.st14{clip-path:url(#SVGID_00000052796237152442445530000012518536612064492197_);fill:url(#SVGID_00000108270383706922867580000017176683940678907055_);}
	
		.st15{clip-path:url(#SVGID_00000021831120810903951150000004932195742819243170_);fill:url(#SVGID_00000042721941781617322930000013549819874228841858_);}
	
		.st16{clip-path:url(#SVGID_00000135654322635485180560000011486502470993346695_);fill:url(#SVGID_00000099624810369346170300000005916659142800099740_);}
	
		.st17{clip-path:url(#SVGID_00000182504644878212060640000006326000371163917999_);fill:url(#SVGID_00000044150753833427667640000016808396465507598238_);}
	
		.st18{clip-path:url(#SVGID_00000119830567148742400870000007859017560668928438_);fill:url(#SVGID_00000011751964946656929200000004613931705379491973_);}
	.st19{fill-rule:evenodd;clip-rule:evenodd;fill:#C8202F;}
	.st20{fill-rule:evenodd;clip-rule:evenodd;fill:#FFFFFF;}
	.st21{fill-rule:evenodd;clip-rule:evenodd;fill:#F98238;}
	.st22{filter:url(#Adobe_OpacityMaskFilter);}
	.st23{fill:url(#SVGID_00000008140886616094262090000009539102896022173363_);}
	.st24{mask:url(#SVGID_00000037694616583776014480000006220509082224005049_);fill-rule:evenodd;clip-rule:evenodd;fill:#ED1C24;}
	.st25{fill-rule:evenodd;clip-rule:evenodd;fill:#F5333F;}
	.st26{fill-rule:evenodd;clip-rule:evenodd;fill:#ED1C24;}
	.st27{fill-rule:evenodd;clip-rule:evenodd;fill:#F9A46E;}
	.st28{fill-rule:evenodd;clip-rule:evenodd;fill:#F47B26;}
	.st29{fill-rule:evenodd;clip-rule:evenodd;fill:#EB5433;}
	.st30{fill:#1A3282;}
	.st31{fill-rule:evenodd;clip-rule:evenodd;fill:#1A3282;}
	.st32{fill-rule:evenodd;clip-rule:evenodd;fill:#9D9FA2;}
	.st33{fill-rule:evenodd;clip-rule:evenodd;fill:#000303;}
	.st34{fill:#64003D;}
	.st35{fill:#536270;}
	.st36{fill-rule:evenodd;clip-rule:evenodd;fill:#64003D;}
	.st37{fill-rule:evenodd;clip-rule:evenodd;fill:#536270;}
	.st38{fill-rule:evenodd;clip-rule:evenodd;fill:#1A3382;}
	.st39{fill-rule:evenodd;clip-rule:evenodd;fill:#29387E;}
	.st40{fill-rule:evenodd;clip-rule:evenodd;fill:#F37021;}
	.st41{fill-rule:evenodd;clip-rule:evenodd;fill:#005C32;}
	.st42{fill-rule:evenodd;clip-rule:evenodd;fill:#D2AB67;}
	
		.st43{clip-path:url(#SVGID_00000101069530485879590560000011461685504468852876_);fill:url(#SVGID_00000178908019818768905500000005281380539103850122_);}
	
		.st44{clip-path:url(#SVGID_00000059270219103741968320000007315256956003142822_);fill:url(#SVGID_00000160906429099746471280000012903642257176082826_);}
	
		.st45{clip-path:url(#SVGID_00000036931840449558967150000012575712542987300005_);fill:url(#SVGID_00000102545331550313399230000012604542173563939993_);}
	.st46{fill-rule:evenodd;clip-rule:evenodd;fill:#00AEEF;}
	.st47{fill-rule:evenodd;clip-rule:evenodd;fill:#EC008C;}
	.st48{fill-rule:evenodd;clip-rule:evenodd;fill:#FFF200;}
	.st49{fill:#A7AAAC;}
	.st50{fill-rule:evenodd;clip-rule:evenodd;fill:#5C5B5B;}
	.st51{fill:#9D9D9F;}
	.st52{fill:#F04D23;}
	.st53{fill-rule:evenodd;clip-rule:evenodd;fill:#2E3192;}
	.st54{fill-rule:evenodd;clip-rule:evenodd;fill:#C4312D;}
	.st55{fill:#552715;}
	.st56{fill:#010101;}
	.st57{fill:#E31E2E;}
	.st58{fill:url(#SVGID_00000143584896519777228880000011979871556256173450_);}
	.st59{fill:url(#SVGID_00000006667602449385984050000013036598308054309523_);}
	.st60{clip-path:url(#SVGID_00000039822335331241081560000011074067982847801734_);}
	.st61{clip-path:url(#SVGID_00000013189730438758335850000017029455594517017749_);}
	.st62{clip-path:url(#SVGID_00000107583446337281182780000016396584411859398026_);}
	.st63{clip-path:url(#SVGID_00000167366787558777645150000000250673717701703070_);}
	.st64{clip-path:url(#SVGID_00000067212481529761132530000008864144075404913540_);}
	.st65{clip-path:url(#SVGID_00000080913669284030545350000014880182981874354617_);}
	.st66{clip-path:url(#SVGID_00000059994389697759599840000015616746344368893096_);}
	.st67{clip-path:url(#SVGID_00000065036095675945461420000009064697289473259919_);}
	.st68{clip-path:url(#SVGID_00000034061601545071894030000000989906714258554761_);}
	.st69{clip-path:url(#SVGID_00000178203783510450018160000006664099855428336558_);}
	.st70{clip-path:url(#SVGID_00000079450211918304743670000012936114275739768495_);}
	.st71{fill:#2650A1;}
	.st72{fill:url(#SVGID_00000141416765733260962610000011981987457860761235_);}
	.st73{fill:#FEFEFE;}
	.st74{fill:#FDFDFD;}
	.st75{fill:#FCFCFC;}
	.st76{fill:#FBFBFB;}
	.st77{fill:#FAFAFA;}
	.st78{fill:#F9F9F9;}
	.st79{fill:#F8F8F8;}
	.st80{fill:#F7F7F7;}
	.st81{fill:#F6F6F6;}
	.st82{fill:#F5F5F5;}
	.st83{fill:#F4F4F4;}
	.st84{fill:#F3F3F3;}
	.st85{fill:#F2F2F2;}
	.st86{fill:#F1F1F1;}
	.st87{fill:#F0F0F0;}
	.st88{fill:#EFEFEF;}
	.st89{fill:#EEEEEE;}
	.st90{fill:#EDEDED;}
	.st91{fill:#ECECEC;}
	.st92{fill:#EBEBEB;}
	.st93{fill:#EAEAEA;}
	.st94{fill:#E9E9E9;}
	.st95{fill:#E8E8E8;}
	.st96{fill:#E7E7E7;}
	.st97{fill:#E6E6E6;}
	.st98{fill:#E5E5E5;}
	.st99{fill:#E4E4E4;}
	.st100{fill:#E3E3E3;}
	.st101{fill:#E2E2E2;}
	.st102{fill:#E1E1E1;}
	.st103{fill:#E0E0E0;}
	.st104{fill:#DFDFDF;}
	.st105{fill:#DEDEDE;}
	.st106{fill:#DDDDDD;}
	.st107{fill:#DCDCDC;}
	.st108{fill:#DBDBDB;}
	.st109{fill:#DADADA;}
	.st110{fill:#D9D9D9;}
	.st111{fill:#D92231;}
	.st112{fill:url(#SVGID_00000167356695390441836810000000979441089213818815_);}
	.st113{fill:url(#SVGID_00000052805108815562034260000010874485516132298112_);}
	.st114{opacity:0.8;}
	.st115{fill:url(#SVGID_00000020370269958071843720000007381114257376727967_);}
	.st116{fill:url(#SVGID_00000063611417989095119010000016406056312483792571_);}
	.st117{fill-rule:evenodd;clip-rule:evenodd;fill:#010101;}
	.st118{fill:#80A845;}
	.st119{fill-rule:evenodd;clip-rule:evenodd;fill:#80A845;}
	.st120{fill:url(#SVGID_00000157305340817416400670000010717653335683278211_);}
	.st121{fill-rule:evenodd;clip-rule:evenodd;fill:#04984A;}
	.st122{fill-rule:evenodd;clip-rule:evenodd;fill:url(#SVGID_00000073680328709939595570000001200913557194444687_);}
	.st123{fill:url(#SVGID_00000114071088769979209840000004056497432258015916_);}
	.st124{fill:url(#SVGID_00000098935336349637556450000013019539379187137171_);}
	.st125{fill:url(#SVGID_00000169516062139393421870000015297874614632630709_);}
	.st126{fill:url(#SVGID_00000035510913285669988120000002728869831979577240_);}
	.st127{fill:url(#SVGID_00000018219607482039834320000006379548815304818311_);}
	.st128{fill:url(#SVGID_00000082355359533528389840000006860077193379675551_);}
	.st129{fill:url(#SVGID_00000072266078764103413470000012065350216200892583_);}
	.st130{fill:url(#SVGID_00000075864561521626588040000016546593339182603666_);}
	.st131{fill:url(#SVGID_00000083091024604886519630000015971638418783634588_);}
	.st132{fill:url(#SVGID_00000166638270671628719510000007087649535594985396_);}
	.st133{fill:url(#SVGID_00000138566571117230167950000005506506230284444309_);}
	.st134{fill:url(#SVGID_00000126322537313527565450000009937067118921303696_);}
	.st135{fill:url(#SVGID_00000146485728908515423910000014663814136405552524_);}
	.st136{fill:url(#SVGID_00000124122588771301475530000004432240157320521890_);}
	.st137{fill-rule:evenodd;clip-rule:evenodd;fill:url(#SVGID_00000018232843050665945700000002399323477265277607_);}
	.st138{fill:#0A529D;}
	.st139{fill:url(#SVGID_00000024704835312588208520000012590342989118723000_);}
	.st140{fill:url(#SVGID_00000176739613183743951170000012767733318163030973_);}
	.st141{fill:url(#SVGID_00000048463025685643507750000000537545466721375121_);}
	.st142{fill:url(#SVGID_00000020399466679949953770000002463718343386164097_);}
	.st143{fill:url(#SVGID_00000124856724956451057020000001053278532850892187_);}
	.st144{fill:url(#SVGID_00000124164052594052243710000005284155046420361646_);}
	.st145{fill:url(#SVGID_00000165934710328062526190000012604050309866935222_);}
	.st146{fill:url(#SVGID_00000016076494872225495340000008324152102490674307_);}
	.st147{fill:url(#SVGID_00000146477039221504784400000009594836565782700174_);}
	.st148{fill:url(#SVGID_00000164476728546010533760000004861191957822787003_);}
	.st149{fill:url(#SVGID_00000183965595329913201270000015113007427136562304_);}
	.st150{fill:url(#SVGID_00000033327262515860250690000010039343588080643465_);}
	.st151{fill-rule:evenodd;clip-rule:evenodd;fill:url(#SVGID_00000046330419800589092140000004151920139255937953_);}
	.st152{fill:url(#SVGID_00000078019436235992093730000008223324806729022642_);}
	.st153{fill:url(#SVGID_00000121994468147763729810000013912244830190865282_);}
	.st154{fill:url(#SVGID_00000121273982377323086050000000891127014312668055_);}
	.st155{fill:url(#SVGID_00000173859549679021388870000000602210888352256957_);}
	.st156{fill:url(#SVGID_00000096749443859637710080000008155166747601259165_);}
	.st157{fill:url(#SVGID_00000176041211983742690250000005677484770376730523_);}
	.st158{fill:url(#SVGID_00000092449680483662411310000000901041607137748927_);}
	.st159{fill:url(#SVGID_00000062191091514545620750000006862843569855500939_);}
	.st160{fill:url(#SVGID_00000076596053526460155330000012427687895540267144_);}
	.st161{fill:url(#SVGID_00000123435149788085172240000012169968640234644096_);}
	.st162{fill:url(#SVGID_00000113327916783274795570000001452399236957672098_);}
	.st163{fill:url(#SVGID_00000174576925019180985620000006235705655025768080_);}
	.st164{fill:url(#SVGID_00000122696919210812830210000011265649556694318993_);}
	.st165{fill:url(#SVGID_00000075878366978718373500000007093590940950064294_);}
	.st166{fill:url(#SVGID_00000128461568289943130200000005585891282998234770_);}
	.st167{fill:url(#SVGID_00000064330014655261002120000007493252812915079868_);}
	.st168{fill:url(#SVGID_00000139252337507750447250000006967981119348924088_);}
	.st169{fill-rule:evenodd;clip-rule:evenodd;fill:url(#SVGID_00000112612003674367523100000014113951754776788361_);}
	.st170{fill:url(#SVGID_00000039847811532713567930000012819397442133623736_);}
	.st171{fill:url(#SVGID_00000025428389115493728030000002785370951128256188_);}
	.st172{fill:url(#SVGID_00000063611653547641247690000017984352446072189620_);}
	.st173{fill:url(#SVGID_00000091730350558558736610000017079303891908073400_);}
	.st174{fill:url(#SVGID_00000003089855452061806490000004888371168213517719_);}
	.st175{fill:url(#SVGID_00000111190196133897440080000011166604052664828302_);}
	.st176{fill:url(#SVGID_00000030480579785273039250000000871890894538968255_);}
	.st177{fill:url(#SVGID_00000093166771782430307190000009063637428770103992_);}
	.st178{fill:url(#SVGID_00000081615443123581379770000005466852495101950894_);}
	.st179{fill:url(#SVGID_00000084522408341144474190000010663697292375912600_);}
	.st180{fill:url(#SVGID_00000065772505393493909970000011831298485094285997_);}
	.st181{fill:url(#SVGID_00000036953833948442655490000000534114979357662391_);}
	.st182{fill:url(#SVGID_00000033358662581490708990000006852496987638567612_);}
	.st183{fill:url(#SVGID_00000085956970693933073560000013136332572001725862_);}
	.st184{fill-rule:evenodd;clip-rule:evenodd;fill:url(#SVGID_00000155855555612935634490000007662605754423935144_);}
	.st185{fill:url(#SVGID_00000023269477555896955090000002188124711921096354_);}
	.st186{fill:url(#SVGID_00000088822989882409234270000011640437249829914808_);}
	.st187{fill:url(#SVGID_00000140715900256405330080000017352109367229671092_);}
	.st188{fill:url(#SVGID_00000134218022911083330000000015355657469757972608_);}
	.st189{fill:url(#SVGID_00000003091284136788155640000002815835618271997602_);}
	.st190{fill:url(#SVGID_00000127038526931131984480000009774791567832812960_);}
	.st191{fill:url(#SVGID_00000059273161798152869080000017464965106318259106_);}
	.st192{fill:url(#SVGID_00000012435409931310179130000008824518352794762912_);}
	.st193{fill:url(#SVGID_00000164506318902800071940000010773440227757772195_);}
	.st194{fill:url(#SVGID_00000051371513705258853420000011125184127141584037_);}
	.st195{fill:url(#SVGID_00000009563419909346909630000011158434784067265436_);}
	.st196{fill:url(#SVGID_00000129197287518980343630000001280090874158897048_);}
	.st197{fill:url(#SVGID_00000023261718415847509190000017181858412981889961_);}
	.st198{fill:url(#SVGID_00000040571666527861562420000009256178118609307812_);}
	.st199{fill:url(#SVGID_00000078733028724196034890000007302535724841208477_);}
	.st200{fill:url(#SVGID_00000085209982340719744960000000694564687684178878_);}
	.st201{fill:url(#SVGID_00000120559210276568124040000015354987863125805972_);}
	.st202{fill:url(#SVGID_00000003816296678184698030000015147154817511452588_);}
	.st203{fill:url(#SVGID_00000021830611320347911550000009958279083041812127_);}
	.st204{fill-rule:evenodd;clip-rule:evenodd;fill:url(#SVGID_00000122680414768437264320000003604764195093933221_);}
	.st205{fill:url(#SVGID_00000139982667383658243160000000360858844661524905_);}
	.st206{fill:url(#SVGID_00000115482187933784988050000011179119800774295988_);}
	.st207{fill:url(#SVGID_00000131348774266583219890000015854553690081943990_);}
	.st208{fill:url(#SVGID_00000013898768117296041680000009813340555277199769_);}
	.st209{fill:url(#SVGID_00000111907395990479975010000005237709271036977550_);}
	.st210{fill:url(#SVGID_00000087414027046552215330000006184253969249518213_);}
	.st211{fill:url(#SVGID_00000049211841037798859610000017551334437713749393_);}
	.st212{fill:url(#SVGID_00000125572371540896691070000015439717489347656587_);}
	.st213{fill:url(#SVGID_00000092420379233738037480000009265646481257990541_);}
	.st214{fill:url(#SVGID_00000033367785306546535060000000057470167706114236_);}
	.st215{fill:url(#SVGID_00000068667917841659845910000011384337264119617412_);}
	.st216{fill:url(#SVGID_00000062893364086033980360000005077685457593720740_);}
	.st217{fill:url(#SVGID_00000097486858662874087810000002502512557706338700_);}
	.st218{fill:url(#SVGID_00000142155433636417832020000008174885405642748056_);}
	.st219{fill:url(#SVGID_00000044168567236686897120000002092138061152841147_);}
	.st220{fill:url(#SVGID_00000096775103191182944710000016087498981825767567_);}
	.st221{fill-rule:evenodd;clip-rule:evenodd;fill:url(#SVGID_00000012444003751484341440000002932535497236407231_);}
	.st222{fill:url(#SVGID_00000075867549533486071760000011300761244756149131_);}
	.st223{fill:url(#SVGID_00000098932848035274819330000003944791511620389266_);}
	.st224{fill:url(#SVGID_00000009581950743903512640000007164529132469493658_);}
	.st225{fill:url(#SVGID_00000134942154708924233540000016949655407803541662_);}
	.st226{fill:url(#SVGID_00000127025758811492339510000005620115232355242668_);}
	.st227{fill:url(#SVGID_00000101077704769468149680000013398083903485186441_);}
	.st228{fill:url(#SVGID_00000084503284068910473180000010123654585861207203_);}
	.st229{fill:url(#SVGID_00000096745918539619653940000012405790600206025391_);}
	.st230{fill:url(#SVGID_00000165914956673420334050000018089255146802572716_);}
	.st231{fill:url(#SVGID_00000080182879554462330790000008115612366487363969_);}
	.st232{fill:url(#SVGID_00000054234507806264657810000011094516761861324441_);}
	.st233{fill:url(#SVGID_00000123407607528815938940000017417528376069802927_);}
	.st234{fill:url(#SVGID_00000161626572836931730750000002771326332620068282_);}
	.st235{fill:url(#SVGID_00000161608268208010448900000002680742472233147310_);}
	.st236{fill:url(#SVGID_00000010298809754263575780000007708361837902783386_);}
	.st237{fill-rule:evenodd;clip-rule:evenodd;fill:url(#SVGID_00000078038156306189265070000005549124416115700918_);}
	.st238{fill:url(#SVGID_00000183960520712365441570000007135969766064610977_);}
	.st239{fill:url(#SVGID_00000067207446655208106600000010927162018384188840_);}
	.st240{fill:url(#SVGID_00000171717571828099287540000016298762181002271372_);}
	.st241{fill:url(#SVGID_00000047779426533292744560000004142851867695419066_);}
	.st242{fill:url(#SVGID_00000119827907688298361040000005348675045030986687_);}
	.st243{fill:url(#SVGID_00000105419801638270176790000003224939738150957192_);}
	.st244{fill:url(#SVGID_00000083052777382104620160000001159149028526816435_);}
	.st245{fill:url(#SVGID_00000032633742397231313110000007538619029928972164_);}
	.st246{fill:url(#SVGID_00000067959064809474161620000018000389147993729465_);}
	.st247{fill:url(#SVGID_00000114776886255438442920000016622805606494153406_);}
	.st248{fill:url(#SVGID_00000039101676334176135050000017678713980629173390_);}
	.st249{fill:url(#SVGID_00000080894103445564787260000003656531798607639196_);}
	.st250{fill:url(#SVGID_00000031201118468433421000000013970678250251331747_);}
	.st251{fill:url(#SVGID_00000091736340449276359390000005252796914864516737_);}
	.st252{fill:url(#SVGID_00000019650234623907794100000000339330196785051273_);}
	.st253{fill-rule:evenodd;clip-rule:evenodd;fill:url(#SVGID_00000016792443415803413530000010675523346165686437_);}
	.st254{fill:url(#SVGID_00000045597219655158894970000008089358104642502540_);}
	.st255{fill:url(#SVGID_00000000207894488039917920000002020486539588698277_);}
	.st256{fill:url(#SVGID_00000109728749560449284770000003810421555237307054_);}
	.st257{fill:url(#SVGID_00000067204539164347504210000016448441037914447241_);}
	.st258{fill:url(#SVGID_00000078028159027412165240000007342611414482044811_);}
	.st259{fill:url(#SVGID_00000041286244268389224630000011708685902187298712_);}
	.st260{fill:url(#SVGID_00000125573465187692478470000007436231085560463285_);}
	.st261{fill:url(#SVGID_00000116915467928384783050000017091094302792042931_);}
	.st262{fill:url(#SVGID_00000031205852763034322100000011243892405424554122_);}
	.st263{fill:url(#SVGID_00000075147308464125089710000012163874317692860076_);}
	.st264{fill:url(#SVGID_00000078033973775270328290000011656548484387869621_);}
	.st265{fill:url(#SVGID_00000036957849480401664980000017001020077495951528_);}
	.st266{fill:url(#SVGID_00000039852077249051642030000011201164216194453140_);}
	.st267{fill:url(#SVGID_00000029737095296216374550000001870238790662174348_);}
	.st268{fill:url(#SVGID_00000118376110793295269780000000622753535144298936_);}
	.st269{fill-rule:evenodd;clip-rule:evenodd;fill:url(#SVGID_00000023961982391316119700000007641482925268879246_);}
	.st270{fill:url(#SVGID_00000087413829931762846570000000887691375779802791_);}
	.st271{fill:url(#SVGID_00000083087011354111579850000003485260969424934844_);}
	.st272{fill:url(#SVGID_00000057848349104681840180000007263121762199888535_);}
	.st273{fill:url(#SVGID_00000113338685042392056940000015629764336447999393_);}
	.st274{fill:url(#SVGID_00000019635914825471152890000008964590700718496175_);}
	.st275{fill:url(#SVGID_00000142146517346919123030000001945088443090438835_);}
	.st276{fill:url(#SVGID_00000031901783705737769940000011307340223983587753_);}
	.st277{fill:url(#SVGID_00000146497009727855813630000009876263573790503588_);}
	.st278{fill:url(#SVGID_00000038378045191602129000000017677023620489330111_);}
	.st279{fill:url(#SVGID_00000135657671387647158290000002018816769962981563_);}
	.st280{fill:url(#SVGID_00000058578535719680601510000013674348029319451314_);}
	.st281{fill:url(#SVGID_00000058584495541775061910000015656922319684520339_);}
	.st282{fill:url(#SVGID_00000129923805760926948550000014885652800533341863_);}
	.st283{fill:url(#SVGID_00000034080265732048460510000001112548356965034369_);}
	.st284{fill:url(#SVGID_00000168078693281208439320000018008921343912549803_);}
	.st285{fill-rule:evenodd;clip-rule:evenodd;fill:url(#SVGID_00000173149557244274908000000002119345366685834405_);}
	.st286{fill:url(#SVGID_00000155853325290497249710000000495323133182264507_);}
	.st287{fill:url(#SVGID_00000030455759381541813080000009301288907197820034_);}
	.st288{fill:url(#SVGID_00000004511191292906256430000006053216716000133040_);}
	.st289{fill:url(#SVGID_00000111166708481559331810000015610146914442169271_);}
	.st290{fill:url(#SVGID_00000182526633520509193490000002897665131053440912_);}
	.st291{fill:url(#SVGID_00000090997911723970238070000002986908768954695566_);}
	.st292{fill:url(#SVGID_00000019646482417718243900000004500972365176686229_);}
	.st293{fill:url(#SVGID_00000168836835985455760450000003833426236695111348_);}
	.st294{fill:url(#SVGID_00000041269419491557783960000011172845984268063419_);}
	.st295{fill:url(#SVGID_00000128476996154455125420000014647550658009634466_);}
	.st296{fill:url(#SVGID_00000168816685548006845400000008609979715595210134_);}
	.st297{fill:url(#SVGID_00000031199894076095683370000009299560757725427869_);}
	.st298{fill:url(#SVGID_00000155120406777577742320000017068972410748343680_);}
	.st299{fill:url(#SVGID_00000041266407692955545230000006715600945817902491_);}
	.st300{fill:url(#SVGID_00000132773326861969932790000008385574939891847827_);}
	.st301{fill:url(#SVGID_00000151531341087449620990000004693556808836055945_);}
	.st302{fill:url(#SVGID_00000106118169832410473100000001323559256275943844_);}
	.st303{fill:url(#SVGID_00000098909352353634198940000009209532499422272948_);}
	.st304{fill-rule:evenodd;clip-rule:evenodd;fill:url(#SVGID_00000174572876648453305090000016159152833450257570_);}
	.st305{fill:url(#SVGID_00000030478918550998766570000001004858974557486738_);}
	.st306{fill:url(#SVGID_00000155121627727759883300000004708944070417537688_);}
	.st307{fill:url(#SVGID_00000080909208843402820430000001141790770280152203_);}
	.st308{fill:url(#SVGID_00000039109754514866020820000017193633368343353273_);}
	.st309{fill:url(#SVGID_00000173128408383372944650000006687622825715774096_);}
	.st310{fill:url(#SVGID_00000161601021789051544880000006205308480269826219_);}
	.st311{fill:url(#SVGID_00000124876728074131690490000006825860150374922670_);}
	.st312{fill:url(#SVGID_00000093134708734197816080000004978590412093839791_);}
	.st313{fill:url(#SVGID_00000154411809976697754870000013474570010179635332_);}
	.st314{fill:url(#SVGID_00000026871607745612043350000010061073232522346144_);}
	.st315{fill:url(#SVGID_00000107576700623449871020000011098403711860585884_);}
	.st316{fill:url(#SVGID_00000093173134099429058840000018250818386791477669_);}
	.st317{fill:url(#SVGID_00000132072689773710844410000003521628565773001872_);}
	.st318{fill:url(#SVGID_00000142149279579570829180000010850040880684180902_);}
	.st319{fill:url(#SVGID_00000081632586107088086340000016748476188404108214_);}
	.st320{fill:url(#SVGID_00000091723783572474133920000011343529572747611787_);}
	.st321{fill:url(#SVGID_00000058555254948303460400000007711397548244062867_);}
	.st322{fill:url(#SVGID_00000048464244033654241670000007004018625703903884_);}
	.st323{fill:url(#SVGID_00000129904407040773873770000014118127938767684233_);}
	.st324{fill:url(#SVGID_00000026857912030215842040000004344754390278950324_);}
	.st325{fill-rule:evenodd;clip-rule:evenodd;fill:url(#SVGID_00000142137698892203658870000015104449764958551712_);}
	.st326{fill:url(#SVGID_00000119096063773802378170000014930683610918817468_);}
	.st327{fill:url(#SVGID_00000062895719069813147290000003341555931245462670_);}
	.st328{fill:url(#SVGID_00000127044859459969633680000014573749576466116285_);}
	.st329{fill:url(#SVGID_00000013176743821442173790000012570429679256660659_);}
	.st330{fill:url(#SVGID_00000119098006385585681920000001438397973716916867_);}
	.st331{fill:url(#SVGID_00000163773004433878873390000012061161933716583830_);}
	.st332{fill:url(#SVGID_00000119078898627031311760000016607836208035260850_);}
	.st333{fill:url(#SVGID_00000042014694316436259330000013811130803766102957_);}
	.st334{fill:url(#SVGID_00000042707457780109925880000000807587938136090777_);}
	.st335{fill:url(#SVGID_00000102529366728911251540000007016517147213807261_);}
	.st336{fill:url(#SVGID_00000034083770786353556290000003268334428845157297_);}
	.st337{fill:url(#SVGID_00000109017153643683940900000000443302560499383994_);}
	.st338{fill:url(#SVGID_00000089539683851264036900000000816285051539094972_);}
	.st339{fill:url(#SVGID_00000149374018600228318060000003821172883413877646_);}
	.st340{fill:url(#SVGID_00000178897044093723251490000015190487161947633341_);}
	.st341{fill:url(#SVGID_00000113312300577542344560000017134000329114080177_);}
	.st342{fill-rule:evenodd;clip-rule:evenodd;fill:url(#SVGID_00000075883593676379049730000008984732095829483672_);}
	.st343{fill:url(#SVGID_00000126303777490519776610000005149309538719014559_);}
	.st344{fill:url(#SVGID_00000063594524980523490950000007291984894017448091_);}
	.st345{fill:url(#SVGID_00000050621364518390746770000012352728019338934658_);}
	.st346{fill:url(#SVGID_00000065062826190001797030000002525210022722860967_);}
	.st347{fill:url(#SVGID_00000096762565141217956790000009077150528502817955_);}
	.st348{fill:url(#SVGID_00000137816204239235081290000017691178087506225831_);}
	.st349{fill:url(#SVGID_00000010990414111964582620000014274222623390594488_);}
	.st350{fill:url(#SVGID_00000037666609253126771730000013584985460650590883_);}
	.st351{fill:url(#SVGID_00000147904608081179217280000015261041931730125708_);}
	.st352{fill:url(#SVGID_00000128460951830509202870000006896228263272066204_);}
	.st353{fill:url(#SVGID_00000147922518761105952290000010755528961497134481_);}
	.st354{fill:url(#SVGID_00000137841484402992425020000004242854324367176354_);}
	.st355{fill:url(#SVGID_00000045613478843689185900000011792252171166065068_);}
	.st356{fill:url(#SVGID_00000109002645723198500930000011998493213090989206_);}
	.st357{fill:url(#SVGID_00000169558313284090994070000012550142509611358594_);}
	.st358{fill:url(#SVGID_00000131354564773097793340000009664327336086333069_);}
	.st359{fill:url(#SVGID_00000028297370201807852860000010433221568817012103_);}
	.st360{fill:url(#SVGID_00000040571127453649587520000000033618586194074023_);}
	.st361{fill:url(#SVGID_00000085208394685563804950000000100296486324322735_);}
	.st362{fill:url(#SVGID_00000038371297055556625720000017622266931686269083_);}
	.st363{fill:#C1282D;}
	.st364{fill-rule:evenodd;clip-rule:evenodd;fill:url(#SVGID_00000033370471748220792500000000285110343189974202_);}
	.st365{fill:url(#SVGID_00000135679082033074677100000010966727450804140974_);}
	.st366{fill:url(#SVGID_00000121266683509918604770000012051589968452543927_);}
	.st367{fill:url(#SVGID_00000152977385583571737390000017967213109796377997_);}
	.st368{fill:url(#SVGID_00000114782832254728558350000014699935936882054547_);}
	.st369{fill:url(#SVGID_00000176721878610259703350000001962340465524330678_);}
	.st370{fill:url(#SVGID_00000144295404466147022510000006028253506044026552_);}
	.st371{fill:url(#SVGID_00000109000746654307141470000011530066174730933152_);}
	.st372{fill:url(#SVGID_00000052818872939895649220000009370062467366213010_);}
	.st373{fill:url(#SVGID_00000155839078304782946530000011111453462461093538_);}
	.st374{fill:url(#SVGID_00000144318346639021037890000003771256341167244702_);}
	.st375{fill:url(#SVGID_00000073718829637645463330000013306843964576370066_);}
	.st376{fill:url(#SVGID_00000023984788011368455540000014615845460025096105_);}
	.st377{fill:url(#SVGID_00000177455140688745218720000009588579696024302014_);}
	.st378{fill:url(#SVGID_00000003822588591721427800000011725662898331861176_);}
	.st379{fill:url(#SVGID_00000077299633485283673330000006152461659273840569_);}
	.st380{fill:url(#SVGID_00000105399403970065717340000002674987223016117943_);}
	.st381{fill-rule:evenodd;clip-rule:evenodd;fill:url(#SVGID_00000066490401515689528630000011015552610219841671_);}
	.st382{fill:url(#SVGID_00000042010133701756093510000007254469043546175385_);}
	.st383{fill:url(#SVGID_00000127749274256832782840000015914735581351582388_);}
	.st384{fill:url(#SVGID_00000051372217627699771270000013524611354068284801_);}
	.st385{fill:url(#SVGID_00000063596256483448818810000016681255506401471887_);}
	.st386{fill:url(#SVGID_00000141437545265254843820000014846573821792231322_);}
	.st387{fill:url(#SVGID_00000147898383604244873880000005840807803831750295_);}
	.st388{fill:url(#SVGID_00000115483147443457573550000008134454493484291726_);}
	.st389{fill:url(#SVGID_00000097466723252045358150000013452579456579653511_);}
	.st390{fill:url(#SVGID_00000114763792890232983780000016981610051852985244_);}
	.st391{fill:url(#SVGID_00000144299079566207723780000018384194016719146139_);}
	.st392{fill:url(#SVGID_00000139284741642523498860000017436072914176290486_);}
	.st393{fill:url(#SVGID_00000054962390658591342880000007577036925925158067_);}
	.st394{fill:url(#SVGID_00000049901171703822618130000002373027022154920585_);}
	.st395{fill:url(#SVGID_00000165919394314089255610000013593852478777263253_);}
	.st396{fill:url(#SVGID_00000119100973962733283070000000528440455575379135_);}
	.st397{fill:url(#SVGID_00000053536873326526140210000014806392517976478651_);}
	.st398{fill:url(#SVGID_00000119109888281527345360000008932976980280588678_);}
	.st399{fill:url(#SVGID_00000145041171821477442110000001580914297210240703_);}
	.st400{fill:url(#SVGID_00000021838198179806459920000004203988605013262999_);}
	.st401{fill:url(#SVGID_00000130630889009906346410000008871597722115996077_);}
</style>
<g>
	<g>
		
			<radialGradient id="SVGID_00000014607360493606251130000006897866723237679534_" cx="874.6158" cy="540" r="131.0175" gradientUnits="userSpaceOnUse">
			<stop  offset="0.8407" style="stop-color:#FFFFFF"/>
			<stop  offset="1" style="stop-color:#B3B3B3"/>
		</radialGradient>
		<path style="fill:url(#SVGID_00000014607360493606251130000006897866723237679534_);" d="M1005.63,540
			c0-72.35-58.66-131.01-131.01-131.01c-72.36,0-131.02,58.66-131.02,131.01c0,72.36,58.66,131.02,131.02,131.02
			C946.97,671.02,1005.63,612.36,1005.63,540z"/>
		<g>
			<g>
				<g>
					<path class="st11" d="M783.26,482.45c31.58-50,98.07-64.72,148.51-32.88c50.45,31.85,65.75,98.21,34.18,148.22
						c-31.58,50.01-98.06,64.73-148.52,32.88C766.99,598.83,751.68,532.46,783.26,482.45z"/>
					<path class="st73" d="M784.63,482.48c30.97-49.04,96.68-63.46,146.58-31.95c49.91,31.51,65.11,97.01,34.14,146.06
						c-30.97,49.05-96.52,63.26-146.44,31.75C769.02,596.85,753.66,531.53,784.63,482.48z"/>
					<path class="st74" d="M786.01,482.52c30.36-48.08,95.3-62.19,144.65-31.02c49.37,31.17,64.47,95.81,34.11,143.9
						c-30.36,48.09-94.99,61.8-144.36,30.63C771.06,594.87,755.64,530.6,786.01,482.52z"/>
					<path class="st75" d="M787.38,482.55c29.75-47.12,93.91-60.92,142.73-30.09c48.83,30.83,63.83,94.6,34.08,141.73
						c-29.75,47.13-93.45,60.33-142.28,29.51C773.09,592.88,757.63,529.68,787.38,482.55z"/>
					<path class="st76" d="M788.75,482.59c29.15-46.15,92.53-59.65,140.8-29.17c48.29,30.49,63.19,93.4,34.05,139.57
						c-29.15,46.16-91.91,58.87-140.2,28.39C775.13,590.9,759.61,528.75,788.75,482.59z"/>
					<path class="st77" d="M790.13,482.62c28.54-45.19,91.14-58.38,138.87-28.24c47.75,30.14,62.55,92.2,34.01,137.4
						c-28.54,45.2-90.37,57.41-138.12,27.26C777.16,588.92,761.59,527.82,790.13,482.62z"/>
					<path class="st78" d="M791.5,482.66c27.93-44.23,89.75-57.11,136.95-27.31c47.2,29.8,61.92,91,33.98,135.24
						c-27.93,44.24-88.84,55.94-136.04,26.14C779.19,586.93,763.57,526.9,791.5,482.66z"/>
					<path class="st79" d="M792.87,482.69c27.33-43.27,88.37-55.84,135.02-26.39c46.66,29.46,61.28,89.79,33.95,133.07
						c-27.32,43.28-87.3,54.48-133.96,25.02C781.23,584.95,765.55,525.97,792.87,482.69z"/>
					<path class="st80" d="M794.25,482.73c26.72-42.31,86.98-54.57,133.09-25.46c46.12,29.12,60.64,88.59,33.92,130.91
						c-26.72,42.32-85.76,53.01-131.88,23.89C783.26,582.97,767.53,525.04,794.25,482.73z"/>
					<path class="st81" d="M795.62,482.76c26.11-41.35,85.6-53.31,131.17-24.53c45.58,28.78,60,87.39,33.88,128.74
						c-26.11,41.36-84.22,51.55-129.8,22.77C785.3,580.98,769.51,524.12,795.62,482.76z"/>
					<path class="st82" d="M797,482.8c25.5-40.38,84.21-52.04,129.24-23.6c45.04,28.43,59.36,86.19,33.85,126.58
						c-25.5,40.4-82.69,50.08-127.72,21.65C787.33,579,771.49,523.19,797,482.8z"/>
					<path class="st83" d="M798.37,482.83c24.9-39.42,82.82-50.77,127.31-22.68c44.5,28.09,58.72,84.98,33.82,124.42
						c-24.89,39.44-81.15,48.62-125.65,20.53C789.37,577.02,773.47,522.26,798.37,482.83z"/>
					<path class="st84" d="M799.74,482.87c24.29-38.46,81.44-49.5,125.39-21.75c43.96,27.75,58.08,83.78,33.79,122.25
						c-24.29,38.47-79.61,47.16-123.57,19.4C791.4,575.03,775.45,521.34,799.74,482.87z"/>
					<path class="st85" d="M801.12,482.9c23.68-37.5,80.05-48.23,123.46-20.82c43.41,27.41,57.44,82.58,33.75,120.09
						c-23.68,37.51-78.07,45.69-121.49,18.28C793.43,573.05,777.43,520.41,801.12,482.9z"/>
					<path class="st86" d="M802.49,482.94c23.07-36.54,78.67-46.96,121.53-19.89c42.87,27.07,56.8,81.38,33.72,117.92
						c-23.07,36.55-76.53,44.23-119.41,17.16C795.47,571.07,779.41,519.48,802.49,482.94z"/>
					<path class="st87" d="M803.86,482.97c22.47-35.58,77.28-45.69,119.61-18.97c42.33,26.73,56.16,80.17,33.69,115.76
						c-22.46,35.59-75,42.76-117.33,16.03C797.5,569.08,781.39,518.56,803.86,482.97z"/>
					<path class="st88" d="M805.24,483.01c21.86-34.61,75.89-44.42,117.68-18.04c41.79,26.38,55.52,78.97,33.66,113.59
						c-21.86,34.63-73.46,41.3-115.25,14.91C799.54,567.1,783.38,517.63,805.24,483.01z"/>
					<path class="st89" d="M806.61,483.04c21.25-33.65,74.51-43.16,115.75-17.11c41.25,26.04,54.88,77.77,33.62,111.43
						c-21.25,33.67-71.92,39.84-113.17,13.79C801.57,565.11,785.36,516.7,806.61,483.04z"/>
					<path class="st90" d="M807.98,483.08c20.64-32.69,73.12-41.89,113.83-16.19c40.71,25.7,54.24,76.57,33.59,109.26
						c-20.64,32.71-70.38,38.37-111.09,12.67C803.61,563.13,787.34,515.78,807.98,483.08z"/>
					<path class="st91" d="M809.36,483.11c20.04-31.73,71.74-40.62,111.9-15.26c40.17,25.36,53.6,75.36,33.56,107.1
						c-20.03,31.74-68.85,36.91-109.01,11.54C805.64,561.15,789.32,514.85,809.36,483.11z"/>
					<path class="st92" d="M810.73,483.15c19.43-30.77,70.35-39.35,109.97-14.33c39.62,25.02,52.96,74.16,33.53,104.94
						c-19.43,30.78-67.31,35.44-106.93,10.42C807.67,559.16,791.3,513.92,810.73,483.15z"/>
					<path class="st93" d="M812.11,483.18c18.82-29.81,68.96-38.08,108.04-13.4c39.08,24.67,52.32,72.96,33.49,102.77
						c-18.82,29.82-65.77,33.98-104.85,9.3C809.71,557.18,793.28,513,812.11,483.18z"/>
					<path class="st94" d="M813.48,483.22c18.22-28.84,67.58-36.81,106.12-12.48c38.54,24.33,51.68,71.76,33.46,100.61
						c-18.21,28.86-64.23,32.51-102.77,8.18C811.74,555.2,795.26,512.07,813.48,483.22z"/>
					<path class="st95" d="M814.85,483.25c17.61-27.88,66.19-35.54,104.19-11.55c38,23.99,51.04,70.56,33.43,98.44
						c-17.6,27.9-62.7,31.05-100.7,7.05C813.78,553.21,797.24,511.14,814.85,483.25z"/>
					<path class="st96" d="M816.23,483.29c17-26.92,64.81-34.28,102.26-10.62c37.46,23.65,50.4,69.35,33.4,96.28
						c-17,26.94-61.16,29.59-98.62,5.93C815.81,551.23,799.22,510.22,816.23,483.29z"/>
					<path class="st97" d="M817.6,483.33c16.39-25.96,63.42-33.01,100.34-9.69c36.92,23.31,49.77,68.15,33.36,94.11
						c-16.39,25.98-59.62,28.12-96.54,4.81C817.85,549.25,801.2,509.29,817.6,483.33z"/>
					<path class="st97" d="M818.97,483.36c15.79-25,62.03-31.74,98.41-8.77c36.38,22.96,49.13,66.95,33.33,91.95
						c-15.78,25.01-58.08,26.66-94.46,3.68C819.88,547.26,803.18,508.36,818.97,483.36z"/>
					<path class="st98" d="M820.35,483.4c15.18-24.04,60.65-30.47,96.48-7.84c35.83,22.62,48.49,65.75,33.3,89.78
						c-15.17,24.05-56.54,25.19-92.38,2.56C821.91,545.28,805.16,507.44,820.35,483.4z"/>
					<path class="st99" d="M821.72,483.43c14.57-23.07,59.26-29.2,94.56-6.91c35.29,22.28,47.85,64.54,33.27,87.62
						c-14.57,23.09-55.01,23.73-90.3,1.44C823.95,543.3,807.14,506.51,821.72,483.43z"/>
					<path class="st100" d="M823.09,483.47c13.96-22.11,57.88-27.93,92.63-5.99c34.75,21.94,47.21,63.34,33.23,85.46
						c-13.96,22.13-53.47,22.27-88.22,0.32C825.98,541.31,809.12,505.58,823.09,483.47z"/>
					<path class="st101" d="M824.47,483.5c13.36-21.15,56.49-26.66,90.7-5.06c34.21,21.6,46.57,62.14,33.2,83.29
						c-13.35,21.17-51.93,20.8-86.14-0.81C828.02,539.33,811.11,504.66,824.47,483.5z"/>
					<path class="st102" d="M825.84,483.54c12.75-20.19,55.1-25.39,88.78-4.13c33.67,21.26,45.93,60.94,33.17,81.13
						c-12.74,20.21-50.39,19.34-84.06-1.93C830.05,537.35,813.09,503.73,825.84,483.54z"/>
					<path class="st103" d="M827.21,483.57c12.14-19.23,53.72-24.13,86.85-3.2c33.13,20.91,45.29,59.73,33.14,78.96
						c-12.14,19.25-48.86,17.87-81.98-3.05C832.09,535.36,815.07,502.8,827.21,483.57z"/>
					<path class="st104" d="M828.59,483.61c11.53-18.26,52.33-22.86,84.92-2.28c32.59,20.57,44.65,58.53,33.1,76.8
						c-11.53,18.28-47.32,16.41-79.9-4.17C834.12,533.38,817.05,501.87,828.59,483.61z"/>
					<path class="st105" d="M829.96,483.64c10.93-17.3,50.95-21.59,83-1.35c32.04,20.23,44.01,57.33,33.07,74.63
						c-10.92,17.32-45.78,14.94-77.83-5.3C836.15,531.4,819.03,500.95,829.96,483.64z"/>
					<path class="st106" d="M831.34,483.68c10.32-16.34,49.56-20.32,81.07-0.42c31.5,19.89,43.37,56.13,33.04,72.47
						c-10.31,16.36-44.24,13.48-75.75-6.42C838.19,529.41,821.01,500.02,831.34,483.68z"/>
					<path class="st107" d="M832.71,483.71c9.71-15.38,48.17-19.05,79.14,0.5c30.96,19.55,42.73,54.92,33.01,70.31
						c-9.71,15.4-42.71,12.02-73.67-7.54C840.22,527.43,822.99,499.09,832.71,483.71z"/>
					<path class="st108" d="M834.08,483.75c9.11-14.42,46.79-17.78,77.22,1.43c30.42,19.2,42.09,53.72,32.97,68.14
						c-9.1,14.44-41.17,10.55-71.59-8.67C842.26,525.45,824.97,498.17,834.08,483.75z"/>
					<path class="st109" d="M835.46,483.78c8.5-13.46,45.4-16.51,75.29,2.36c29.88,18.86,41.45,52.52,32.94,65.98
						c-8.49,13.48-39.63,9.09-69.51-9.79C844.29,523.46,826.95,497.24,835.46,483.78z"/>
					<path class="st110" d="M836.83,483.82c7.89-12.49,44.02-15.24,73.36,3.29c29.34,18.52,40.81,51.32,32.91,63.81
						c-7.88,12.52-38.09,7.62-67.43-10.91C846.33,521.48,828.93,496.31,836.83,483.82z"/>
				</g>
			</g>
		</g>
	</g>
	<g>
		<path class="st111" d="M1005.63,540c0-72.35-58.66-131.01-131.01-131.01c-72.36,0-131.02,58.66-131.02,131.01
			c0,72.36,58.66,131.02,131.02,131.02C946.97,671.02,1005.63,612.36,1005.63,540z"/>
		<g>
			
				<linearGradient id="SVGID_00000077285649702515617920000012764578492269335713_" gradientUnits="userSpaceOnUse" x1="571.2926" y1="919.9231" x2="713.9294" y2="716.0554" gradientTransform="matrix(1 4.000000e-04 -4.000000e-04 1 232.2696 -277.9436)">
				<stop  offset="0" style="stop-color:#DF584D"/>
				<stop  offset="0.0475" style="stop-color:#DD4E46"/>
				<stop  offset="0.1773" style="stop-color:#DA3137"/>
				<stop  offset="0.2527" style="stop-color:#D92231"/>
				<stop  offset="0.4187" style="stop-color:#D92633"/>
				<stop  offset="0.5306" style="stop-color:#DA3237"/>
				<stop  offset="0.6267" style="stop-color:#DC4340"/>
				<stop  offset="0.7138" style="stop-color:#DF574C"/>
				<stop  offset="0.7948" style="stop-color:#E26E5E"/>
				<stop  offset="0.8714" style="stop-color:#E78775"/>
				<stop  offset="0.9431" style="stop-color:#EDA594"/>
				<stop  offset="1" style="stop-color:#F3C4B6"/>
			</linearGradient>
			<path style="fill:url(#SVGID_00000077285649702515617920000012764578492269335713_);" d="M998.95,540.35
				c0.01-68.7-55.64-124.42-124.35-124.44c-68.71-0.03-124.41,55.65-124.43,124.34c-0.04,68.7,55.64,124.42,124.33,124.45
				C943.21,664.72,998.92,609.05,998.95,540.35z"/>
		</g>
	</g>
	<g>
		<path class="st111" d="M545.91,534.74c0,37.39-26.51,65.09-63.94,65.09c-38.16,0-64.07-26.5-64.07-65.06
			c0-36.46,25.56-65.11,64.07-65.11C519.4,469.66,545.91,497.35,545.91,534.74z M512.86,534.75c0-21.86-8.45-41.25-30.87-41.25
			c-22.43,0-31.07,19.39-31.07,41.25c0,21.86,8.64,41.27,31.07,41.27C504.41,576.02,512.86,556.61,512.86,534.75z"/>
		<g>
			<path class="st111" d="M320.88,523.18c-1.54-16.91-7.77-30.52-18.15-39.74c-10-8.89-23.43-13.69-40.02-13.69
				c-12.23,0-27.71,4.21-39.11,13.58c-13.59,11.18-24.1,28.66-24.1,52.19c0,20.28,6.57,36.62,18.43,47.68
				c11.61,10.84,28.03,16.75,48.38,16.75c16.39,0,36.18-6.18,44.67-11.43c2.97-1.84,3.9-2.62,3.13-5.63l-5.3-15.01
				c-0.61-2.46-3.35-3.09-5.57-1.99c-3.73,1.83-6.51,3.27-10.29,4.67c-7.34,2.71-14.93,4.56-22.16,4.56
				c-15.22,0-23.87-4.14-30.5-11.77c-4.21-4.85-6.67-10.99-7.44-18.09h83.99c3.06,0,4.42-2.11,4.42-5.68v-6.05
				C321.26,530.58,321.13,525.95,320.88,523.18z M290.79,522.68c0,0-36.44,0-57.97,0c0.62-4.2,1.82-8.2,3.71-11.99
				c5.17-10.42,15.02-17.08,27.24-17.08c16.77,0,27.02,11.39,27.02,28.3V522.68z"/>
		</g>
		<path class="st111" d="M351.07,487.69c9.5-12.25,24.31-17.81,48.56-17.81c5.7,0,12.7,0.64,17.09,1.68
			c2.89,0.68,3.33,2.94,2.8,5.84l-2.88,14.15c-0.67,2.64-1.39,3.4-3.47,3.4c-0.32,0-0.94-0.06-1.7-0.15
			c-2-0.24-7.72-0.87-10.11-0.87c-12.05,0-17.8,3.01-22.08,7.6c-4.98,5.35-5.15,13.25-5.15,27.41c0,3.25,0,62.86,0,62.86
			c0,4.14-1.81,6.45-6.25,6.45h-19.19c-4.11,0-5.88-2.06-6.21-6.45c0,0,0-54.5,0-61.71C342.48,507.6,343.79,497.08,351.07,487.69z"
			/>
		<g>
			<path class="st111" d="M136.03,513.81c4.31-4.46,14.32-16.82,25.44-37.79c1.85-3.6,3.52-4.47,6.03-4.47h20.64
				c1.85,0,4.07,0.89,2.87,4.47c-8.18,24.32-26.91,45.63-37.24,56.66c11.28,10.69,31.29,35.98,40.69,60.77
				c0.85,2.23,0.43,4.79-4.29,4.79h-24.65c-2.56,0-4.54-0.25-6.26-4.46c-6.12-15.24-15.67-31.21-26.58-41.72
				c-11.9,12.64-20.98,28.22-27.09,41.72c-1.49,3.31-2.98,4.46-6.24,4.46H76.74c-1.51,0-3.05-1.77-2.06-4.49
				c6.72-18.45,20.12-41.41,39.28-58.67c-15.04-18.2-29.54-40.38-35.25-59.06c-0.86-2.81,0.64-4.47,2.73-4.47H108
				c2.87,0,4.37,1.17,5.79,4.47C120.31,491.25,129.24,505.75,136.03,513.81z"/>
		</g>
		<g>
			<path class="st111" d="M611.33,513.81c4.31-4.46,14.31-16.82,25.43-37.79c1.85-3.6,3.53-4.47,6.03-4.47h20.63
				c1.85,0,4.08,0.89,2.87,4.47c-8.18,24.32-26.91,45.63-37.24,56.66c11.27,10.69,31.27,35.98,40.68,60.77
				c0.84,2.23,0.42,4.79-4.29,4.79h-24.65c-2.56,0-4.54-0.25-6.26-4.46c-6.11-15.24-15.66-31.21-26.57-41.72
				c-11.91,12.64-20.98,28.22-27.09,41.72c-1.49,3.31-2.98,4.46-6.23,4.46h-22.61c-1.5,0-3.05-1.77-2.06-4.49
				c6.72-18.45,20.12-41.41,39.28-58.67c-15.04-18.2-29.54-40.38-35.26-59.06c-0.86-2.81,0.65-4.47,2.73-4.47h26.56
				c2.87,0,4.37,1.17,5.79,4.47C595.61,491.25,604.54,505.75,611.33,513.81z"/>
		</g>
	</g>
	<g>
		
			<radialGradient id="SVGID_00000111165098737595013200000006568606108200396191_" cx="933.5411" cy="530.4744" r="187.1388" gradientUnits="userSpaceOnUse">
			<stop  offset="0" style="stop-color:#FFFFFF"/>
			<stop  offset="0.178" style="stop-color:#FCFCFC"/>
			<stop  offset="0.3187" style="stop-color:#F2F2F2"/>
			<stop  offset="0.5651" style="stop-color:#E3E3E3"/>
			<stop  offset="0.7967" style="stop-color:#D1D1D1"/>
			<stop  offset="1" style="stop-color:#BFBFBF"/>
		</radialGradient>
		<path style="fill:url(#SVGID_00000111165098737595013200000006568606108200396191_);" d="M942.49,582.72
			c-24.23,49.9-63.18,82.45-93.76,85.72c-16.59-3.02-34.09-10.73-46.94-19.55c0.27,0.11,1.2,0.16,1.86,0.16
			c26.88,0,69.55-47.77,95.32-107.41c-33.99-25.56-76.98-46.27-117.6-46.27c-20.61,0-30.77,7.6-33.12,10.26
			c2.82-11.14,7.14-20.88,12.56-30.51c5.1-9.07,11.03-17.05,16.07-22.29c4.9-3.76,17.78-8.88,36.91-8.88
			c40.01,0,76.04,14.06,104.44,33.62c1.71-10.57,2.63-21.13,2.63-31.49c0-25.22-7.54-30.44-9.72-31.94
			c9.17,2.54,17.31,6,24.92,10.03c6.75,3.57,12.43,7.22,19.37,12.67c2.5,3.48,9.87,12.98,9.87,46.16c0,12.5-1.01,24.63-2.87,36.29
			c19.15,24.6,30.12,50.9,30.12,70.02c0,4.22-0.69,8.49-1.18,10.32c-6.79,13.29-15.79,25.24-26.5,35.42c0.42-0.98,1-3.02,1-5.9
			C965.87,617.29,956.89,600.29,942.49,582.72z"/>
		<g>
			<g class="st114">
				
					<linearGradient id="SVGID_00000075878566391614207440000001408298316541034641_" gradientUnits="userSpaceOnUse" x1="761.3585" y1="473.1027" x2="998.2708" y2="583.5767">
					<stop  offset="0" style="stop-color:#595959"/>
					<stop  offset="0.0511" style="stop-color:#727272"/>
					<stop  offset="0.1402" style="stop-color:#989898"/>
					<stop  offset="0.2335" style="stop-color:#B7B7B7"/>
					<stop  offset="0.3305" style="stop-color:#CFCFCF"/>
					<stop  offset="0.4329" style="stop-color:#E0E0E0"/>
					<stop  offset="0.5443" style="stop-color:#EAEAEA"/>
					<stop  offset="0.6813" style="stop-color:#EDEDED"/>
					<stop  offset="0.7624" style="stop-color:#EAEAEA"/>
					<stop  offset="0.8206" style="stop-color:#E1E1E1"/>
					<stop  offset="0.8717" style="stop-color:#D1D1D1"/>
					<stop  offset="0.9187" style="stop-color:#BBBBBB"/>
					<stop  offset="0.9624" style="stop-color:#9F9F9F"/>
					<stop  offset="1" style="stop-color:#808080"/>
				</linearGradient>
				<path style="fill:url(#SVGID_00000075878566391614207440000001408298316541034641_);" d="M972.21,627.42
					c0.92-1.02,1.28-5.91,1.28-6.65c0-43.57-83.19-140.09-184.71-140.09c-22.96,0-33.05,8.03-35.65,10.13
					c-0.56,1.74-1.25,3.4-1.89,5c2.51-1.89,13.31-10.09,35.18-10.09c97.9,0,184.18,95.82,184.18,138.91c0,1.65-0.36,4.2-1.16,5.78
					C970.38,629.43,971.31,628.43,972.21,627.42z M766.1,466.51c3.45-3.24,15.9-9.35,37.83-9.35c101.94,0,182.3,93.79,182.3,146.39
					c0,1.36-0.29,4.7-1.43,7.37c0.94-1.49,2.16-3.33,2.71-4.31c1.37-2.43,1.45-6.29,1.45-8.36c0-53.67-79.47-145.82-181.6-145.82
					c-23.6,0-33.02,5.44-37.15,8.39C769.24,462.07,767.35,464.71,766.1,466.51z M760.69,475.4c0-0.07-2.5,4.37-3.12,5.83
					c3.01-2.22,13.37-9.42,35.37-9.42c109.65,0,185.62,100.03,185.62,142.5c0,2.06-0.31,5.3-1.4,7.15c1.39-1.74,2.52-3.2,3.26-4.24
					c1.6-2.19,1.25-6.78,1.25-8.14c0-41.58-74.54-142.47-184.29-142.47C774.66,466.62,764.76,472.13,760.69,475.4z"/>
				
					<linearGradient id="SVGID_00000152224167432789453670000017952846559026684588_" gradientUnits="userSpaceOnUse" x1="846.1758" y1="671.3376" x2="956.9409" y2="433.8012">
					<stop  offset="0" style="stop-color:#595959"/>
					<stop  offset="0.0453" style="stop-color:#6C6C6C"/>
					<stop  offset="0.1571" style="stop-color:#939393"/>
					<stop  offset="0.2727" style="stop-color:#B4B4B4"/>
					<stop  offset="0.3913" style="stop-color:#CDCDCD"/>
					<stop  offset="0.514" style="stop-color:#DFDFDF"/>
					<stop  offset="0.6436" style="stop-color:#EAEAEA"/>
					<stop  offset="0.7912" style="stop-color:#EDEDED"/>
					<stop  offset="0.8279" style="stop-color:#E9E9E9"/>
					<stop  offset="0.869" style="stop-color:#DBDBDB"/>
					<stop  offset="0.9121" style="stop-color:#C5C5C5"/>
					<stop  offset="0.9563" style="stop-color:#A6A6A6"/>
					<stop  offset="1" style="stop-color:#808080"/>
				</linearGradient>
				<path style="fill:url(#SVGID_00000152224167432789453670000017952846559026684588_);" d="M925.6,419.26
					c2.58,2.76,7.85,14.64,7.85,32.43c0,96.81-67.08,193.92-118.55,204.94c-1.53-0.78-2.76-1.43-4.25-2.28
					c39.04-4.51,118.46-98.25,118.46-204.47c0-16.42-4.55-28.91-8.33-32.56C922.25,417.88,924.13,418.64,925.6,419.26z
					 M943.52,428.52c1.91,1.64,9.4,15.19,9.4,36c0,105.33-60.66,189.27-119.71,199.91c2.12,0.64,3.5,1.12,5.47,1.68
					c62.99-8.98,118.93-101.32,118.93-196.68c0-21.97-7.05-35.42-9.48-37.93C946.65,430.51,945.22,429.65,943.52,428.52z
					 M931.96,422.15c1.71,1.72,9.04,15.13,9.04,37.32c0,99.53-67.1,190.23-119.74,200.25c1.68,0.75,3.07,1.34,4.51,1.92
					c59.98-11.66,119.77-106.07,119.77-200.18c0-18.56-6.21-34.34-8.93-36.94C935.06,423.69,933.15,422.72,931.96,422.15z"/>
			</g>
		</g>
	</g>
</g>
</svg>
