<?xml version="1.0" encoding="utf-8"?>
<!-- Generator: Adobe Illustrator 26.5.0, SVG Export Plug-In . SVG Version: 6.00 Build 0)  -->
<svg version="1.1" id="Layer_1" xmlns="http://www.w3.org/2000/svg" xmlns:xlink="http://www.w3.org/1999/xlink" x="0px" y="0px"
	 viewBox="0 0 1080 1080" style="enable-background:new 0 0 1080 1080;" xml:space="preserve">
<style type="text/css">
	.st0{fill-rule:evenodd;clip-rule:evenodd;}
	.st1{fill:#ED1C24;}
	.st2{fill:#E1251B;}
	.st3{fill-rule:evenodd;clip-rule:evenodd;fill:#16397B;}
	.st4{fill:#EE2745;}
	
		.st5{clip-path:url(#SVGID_00000067218841471315888110000006025003387852393657_);fill:url(#SVGID_00000075879051231726337040000002743487941894566322_);}
	
		.st6{clip-path:url(#SVGID_00000156573205472993502780000007481069287144726692_);fill:url(#SVGID_00000081644158401565466260000004442034765662735785_);}
	
		.st7{clip-path:url(#SVGID_00000036937656033615091210000015132884335723100299_);fill:url(#SVGID_00000169523406352507241030000010073134858907991189_);}
	
		.st8{clip-path:url(#SVGID_00000158712843441229108190000013236216643146545549_);fill:url(#SVGID_00000098220127357642202040000010685849842960512939_);}
	.st9{fill:#424243;}
	
		.st10{clip-path:url(#SVGID_00000044159382284357742210000011783970553555145397_);fill:url(#SVGID_00000068654466276262924380000012263567883785764753_);}
	.st11{fill:#FFFFFF;}
	
		.st12{clip-path:url(#SVGID_00000111158696541149293190000010172581479927653804_);fill:url(#SVGID_00000145740778060124756810000003102600272512377006_);}
	
		.st13{clip-path:url(#SVGID_00000121256624682224935930000008057559789868759705_);fill:url(#SVGID_00000150097371424232530610000008719692705718430358_);}
	
		.st14{clip-path:url(#SVGID_00000025408490179539555390000005701894760677107632_);fill:url(#SVGID_00000085954143067650377100000007030466037539725444_);}
	
		.st15{clip-path:url(#SVGID_00000002362425926528077610000018313562594588772767_);fill:url(#SVGID_00000164505044107049943340000001409685306643406772_);}
	
		.st16{clip-path:url(#SVGID_00000182505814510013429240000000455159278788306597_);fill:url(#SVGID_00000161590716771550517360000014244579458169545376_);}
	
		.st17{clip-path:url(#SVGID_00000135682732515196342480000001579508698530094211_);fill:url(#SVGID_00000136386591576271461420000010413277974048077473_);}
	
		.st18{clip-path:url(#SVGID_00000142173310626852796440000001192212621946087305_);fill:url(#SVGID_00000123437391128249238290000004112519470099991985_);}
	.st19{fill-rule:evenodd;clip-rule:evenodd;fill:#C8202F;}
	.st20{fill-rule:evenodd;clip-rule:evenodd;fill:#FFFFFF;}
	.st21{fill-rule:evenodd;clip-rule:evenodd;fill:#F98238;}
	.st22{filter:url(#Adobe_OpacityMaskFilter);}
	.st23{fill:url(#SVGID_00000134240936694598748470000007612356364549674151_);}
	.st24{mask:url(#SVGID_00000102508581008450406960000016435233381501383048_);fill-rule:evenodd;clip-rule:evenodd;fill:#ED1C24;}
	.st25{fill-rule:evenodd;clip-rule:evenodd;fill:#F5333F;}
	.st26{fill-rule:evenodd;clip-rule:evenodd;fill:#ED1C24;}
	.st27{fill-rule:evenodd;clip-rule:evenodd;fill:#F9A46E;}
	.st28{fill-rule:evenodd;clip-rule:evenodd;fill:#F47B26;}
	.st29{fill-rule:evenodd;clip-rule:evenodd;fill:#EB5433;}
	.st30{fill:#1A3282;}
	.st31{fill-rule:evenodd;clip-rule:evenodd;fill:#1A3282;}
	.st32{fill-rule:evenodd;clip-rule:evenodd;fill:#9D9FA2;}
	.st33{fill-rule:evenodd;clip-rule:evenodd;fill:#000303;}
	.st34{fill:#64003D;}
	.st35{fill:#536270;}
	.st36{fill-rule:evenodd;clip-rule:evenodd;fill:#64003D;}
	.st37{fill-rule:evenodd;clip-rule:evenodd;fill:#536270;}
	.st38{fill-rule:evenodd;clip-rule:evenodd;fill:#1A3382;}
	.st39{fill-rule:evenodd;clip-rule:evenodd;fill:#29387E;}
	.st40{fill-rule:evenodd;clip-rule:evenodd;fill:#F37021;}
	.st41{fill-rule:evenodd;clip-rule:evenodd;fill:#005C32;}
	.st42{fill-rule:evenodd;clip-rule:evenodd;fill:#D2AB67;}
	
		.st43{clip-path:url(#SVGID_00000088830648048530447510000010601333304285465759_);fill:url(#SVGID_00000008147501607531098250000001492338044335217573_);}
	
		.st44{clip-path:url(#SVGID_00000124883585893096366920000001062273105949998497_);fill:url(#SVGID_00000124143976181807210820000012910426625075565486_);}
	
		.st45{clip-path:url(#SVGID_00000095334464682445521880000009902432703932932743_);fill:url(#SVGID_00000049916312859696796390000015028766187865908638_);}
	.st46{fill-rule:evenodd;clip-rule:evenodd;fill:#00AEEF;}
	.st47{fill-rule:evenodd;clip-rule:evenodd;fill:#EC008C;}
	.st48{fill-rule:evenodd;clip-rule:evenodd;fill:#FFF200;}
	.st49{fill:#A7AAAC;}
	.st50{fill-rule:evenodd;clip-rule:evenodd;fill:#5C5B5B;}
	.st51{fill:#9D9D9F;}
	.st52{fill:#F04D23;}
	.st53{fill-rule:evenodd;clip-rule:evenodd;fill:#2E3192;}
	.st54{fill-rule:evenodd;clip-rule:evenodd;fill:#C4312D;}
	.st55{fill:#552715;}
	.st56{fill:#010101;}
	.st57{fill:#E31E2E;}
	.st58{fill:url(#SVGID_00000170269057525484742640000017542570639801809817_);}
	.st59{fill:url(#SVGID_00000076585880438605647350000001208253847767025028_);}
	.st60{clip-path:url(#SVGID_00000059274766890223972780000015046754726395978664_);}
	.st61{clip-path:url(#SVGID_00000152255944379139530780000011995319229262366626_);}
	.st62{clip-path:url(#SVGID_00000119833031804830343110000003211091146953295754_);}
	.st63{clip-path:url(#SVGID_00000168116816785129128980000001091538921677608117_);}
	.st64{clip-path:url(#SVGID_00000085218584216971034670000014601738815522503808_);}
	.st65{clip-path:url(#SVGID_00000152983778922687007630000012548402121778993544_);}
	.st66{clip-path:url(#SVGID_00000099646156707070354160000001990391942709263777_);}
	.st67{clip-path:url(#SVGID_00000080891590221864924440000008885731471568426644_);}
	.st68{clip-path:url(#SVGID_00000032647429125495713750000013242832804320601762_);}
	.st69{clip-path:url(#SVGID_00000165932450607323682480000003393113924668792238_);}
	.st70{clip-path:url(#SVGID_00000182507242023124278200000003395767706043157693_);}
	.st71{fill:#2650A1;}
	.st72{fill:url(#SVGID_00000138553561032743430570000005151266843886670468_);}
	.st73{fill:#FEFEFE;}
	.st74{fill:#FDFDFD;}
	.st75{fill:#FCFCFC;}
	.st76{fill:#FBFBFB;}
	.st77{fill:#FAFAFA;}
	.st78{fill:#F9F9F9;}
	.st79{fill:#F8F8F8;}
	.st80{fill:#F7F7F7;}
	.st81{fill:#F6F6F6;}
	.st82{fill:#F5F5F5;}
	.st83{fill:#F4F4F4;}
	.st84{fill:#F3F3F3;}
	.st85{fill:#F2F2F2;}
	.st86{fill:#F1F1F1;}
	.st87{fill:#F0F0F0;}
	.st88{fill:#EFEFEF;}
	.st89{fill:#EEEEEE;}
	.st90{fill:#EDEDED;}
	.st91{fill:#ECECEC;}
	.st92{fill:#EBEBEB;}
	.st93{fill:#EAEAEA;}
	.st94{fill:#E9E9E9;}
	.st95{fill:#E8E8E8;}
	.st96{fill:#E7E7E7;}
	.st97{fill:#E6E6E6;}
	.st98{fill:#E5E5E5;}
	.st99{fill:#E4E4E4;}
	.st100{fill:#E3E3E3;}
	.st101{fill:#E2E2E2;}
	.st102{fill:#E1E1E1;}
	.st103{fill:#E0E0E0;}
	.st104{fill:#DFDFDF;}
	.st105{fill:#DEDEDE;}
	.st106{fill:#DDDDDD;}
	.st107{fill:#DCDCDC;}
	.st108{fill:#DBDBDB;}
	.st109{fill:#DADADA;}
	.st110{fill:#D9D9D9;}
	.st111{fill:#D92231;}
	.st112{fill:url(#SVGID_00000074438223441990181630000012366451918809407893_);}
	.st113{fill:url(#SVGID_00000091008092610551598560000009160169151149234840_);}
	.st114{opacity:0.8;}
	.st115{fill:url(#SVGID_00000028302685174690234960000016368682383567683464_);}
	.st116{fill:url(#SVGID_00000077313697648191335100000004792271641734932142_);}
	.st117{fill-rule:evenodd;clip-rule:evenodd;fill:#010101;}
	.st118{fill:#80A845;}
	.st119{fill-rule:evenodd;clip-rule:evenodd;fill:#80A845;}
	.st120{fill:url(#SVGID_00000015320050412128055850000005211568733465391492_);}
	.st121{fill-rule:evenodd;clip-rule:evenodd;fill:#04984A;}
	.st122{fill-rule:evenodd;clip-rule:evenodd;fill:url(#SVGID_00000018204339446100708860000012142405397630565773_);}
	.st123{fill:url(#SVGID_00000116237485824236700280000003325453689603946628_);}
	.st124{fill:url(#SVGID_00000072241065718006715730000003154506164379937950_);}
	.st125{fill:url(#SVGID_00000005967061853700017640000005087092127961080760_);}
	.st126{fill:url(#SVGID_00000059298337222567151910000016396449910430710717_);}
	.st127{fill:url(#SVGID_00000137103021722581089680000002299646829459963786_);}
	.st128{fill:url(#SVGID_00000060733460377316718540000003801953938381399473_);}
	.st129{fill:url(#SVGID_00000073699692263961177610000015237737495130328741_);}
	.st130{fill:url(#SVGID_00000142897960819868745050000005893101538174464931_);}
	.st131{fill:url(#SVGID_00000093858751470538691880000002970651197132142733_);}
	.st132{fill:url(#SVGID_00000020383752629148025600000005023146889017282954_);}
	.st133{fill:url(#SVGID_00000173133661311668601700000009133222863159638949_);}
	.st134{fill:url(#SVGID_00000103953393432571533070000016140532956050034078_);}
	.st135{fill:url(#SVGID_00000158712473696894001470000016079832575361863326_);}
	.st136{fill:url(#SVGID_00000047043232201733307950000002520951854767326084_);}
	.st137{fill-rule:evenodd;clip-rule:evenodd;fill:url(#SVGID_00000131335864903065495730000007946657709533394067_);}
	.st138{fill:#0A529D;}
	.st139{fill:url(#SVGID_00000032628177128006635390000009979004248630625194_);}
	.st140{fill:url(#SVGID_00000132800647205161466740000008682908174906135199_);}
	.st141{fill:url(#SVGID_00000012470181538377715320000000469654929053586859_);}
	.st142{fill:url(#SVGID_00000081608168248321265800000000545408699995416704_);}
	.st143{fill:url(#SVGID_00000106845802776257872870000007915763534338346431_);}
	.st144{fill:url(#SVGID_00000141447575977423514970000017232099285012350856_);}
	.st145{fill:url(#SVGID_00000181055569090539656850000014236115760905060784_);}
	.st146{fill:url(#SVGID_00000133489776647936871940000017481661912319915433_);}
	.st147{fill:url(#SVGID_00000137840900166160717550000012258583938594130331_);}
	.st148{fill:url(#SVGID_00000152265006291236697840000007829433960166869403_);}
	.st149{fill:url(#SVGID_00000179609221374156337160000009472699324174013880_);}
	.st150{fill:url(#SVGID_00000059284708275893159990000000137591564171680134_);}
	.st151{fill-rule:evenodd;clip-rule:evenodd;fill:url(#SVGID_00000059284783846708177060000013929739341626832572_);}
	.st152{fill:url(#SVGID_00000152232244688222329550000004527841471602500014_);}
	.st153{fill:url(#SVGID_00000132767344005492977620000008874951729519824558_);}
	.st154{fill:url(#SVGID_00000148619051257580331720000001761687849008082836_);}
	.st155{fill:url(#SVGID_00000123403416030889561670000016446605851024469908_);}
	.st156{fill:url(#SVGID_00000067203835056280253750000012801373761384373153_);}
	.st157{fill:url(#SVGID_00000141421084028838150500000001242061123740805516_);}
	.st158{fill:url(#SVGID_00000062892558795701660110000007608567824117603495_);}
	.st159{fill:url(#SVGID_00000139268623094592833880000008341915552879980196_);}
	.st160{fill:url(#SVGID_00000158710847967854247350000008451458933367030413_);}
	.st161{fill:url(#SVGID_00000062874590992642156350000018249584356956961197_);}
	.st162{fill:url(#SVGID_00000122002354256393439630000010363710500410757513_);}
	.st163{fill:url(#SVGID_00000027563565231652396550000006521335681140878473_);}
	.st164{fill:url(#SVGID_00000136401366329671661900000000959117590777540002_);}
	.st165{fill:url(#SVGID_00000171716810963984433220000009309502339961970596_);}
	.st166{fill:url(#SVGID_00000049941919978791621580000004035563155738843791_);}
	.st167{fill:url(#SVGID_00000124127253664602118920000002757006252073099392_);}
	.st168{fill:url(#SVGID_00000075151679896499473380000015112040061325515938_);}
	.st169{fill-rule:evenodd;clip-rule:evenodd;fill:url(#SVGID_00000029752390534124140360000005979031421103162782_);}
	.st170{fill:url(#SVGID_00000101070594800016453260000010346485687335048088_);}
	.st171{fill:url(#SVGID_00000036211861715383721270000008873021248533853590_);}
	.st172{fill:url(#SVGID_00000062161548727621169670000014747826181794047164_);}
	.st173{fill:url(#SVGID_00000005984375408602806220000017900448594742936225_);}
	.st174{fill:url(#SVGID_00000001621670381234915810000017986620118966824081_);}
	.st175{fill:url(#SVGID_00000034779445138518233230000000304719165315378602_);}
	.st176{fill:url(#SVGID_00000090268164712520153840000010515228356483092117_);}
	.st177{fill:url(#SVGID_00000063612198088184165680000018213614007997304999_);}
	.st178{fill:url(#SVGID_00000109751321275604948830000004235675563773617039_);}
	.st179{fill:url(#SVGID_00000106134616631301308890000018215913581453512624_);}
	.st180{fill:url(#SVGID_00000043420994356359571840000000950878964926692261_);}
	.st181{fill:url(#SVGID_00000080192039867605035190000004321232172744387725_);}
	.st182{fill:url(#SVGID_00000011001583168272260890000001438980815839134356_);}
	.st183{fill:url(#SVGID_00000059286712545778813910000016958519605597056128_);}
	.st184{fill-rule:evenodd;clip-rule:evenodd;fill:url(#SVGID_00000004517219228890107270000015421005038897000353_);}
	.st185{fill:url(#SVGID_00000016790698955129709530000015808570387427840404_);}
	.st186{fill:url(#SVGID_00000086672365447505135150000008767300763934450832_);}
	.st187{fill:url(#SVGID_00000033369541778602436410000015741264873729228988_);}
	.st188{fill:url(#SVGID_00000095307282896712155680000014597762247126697904_);}
	.st189{fill:url(#SVGID_00000025423484150886763290000006444546618699876738_);}
	.st190{fill:url(#SVGID_00000181766269726961056800000000974979497868203924_);}
	.st191{fill:url(#SVGID_00000094620352326555158730000014888796216757531792_);}
	.st192{fill:url(#SVGID_00000171713234520221026700000004638264807400774531_);}
	.st193{fill:url(#SVGID_00000067227562814803715950000009979148837503042980_);}
	.st194{fill:url(#SVGID_00000067226735244109066230000015880298047956571811_);}
	.st195{fill:url(#SVGID_00000127014616504234241080000013459337045911175351_);}
	.st196{fill:url(#SVGID_00000055691294565851339550000005640802413368524475_);}
	.st197{fill:url(#SVGID_00000115476602978237364760000016611425921469480872_);}
	.st198{fill:url(#SVGID_00000018921371811894516670000004173359487763582127_);}
	.st199{fill:url(#SVGID_00000027583618986269539020000013056484861212481450_);}
	.st200{fill:url(#SVGID_00000182513538041427943960000012223528568447094181_);}
	.st201{fill:url(#SVGID_00000094584018221252966530000018281481949864916118_);}
	.st202{fill:url(#SVGID_00000136413886712541902460000002892298392026246070_);}
	.st203{fill:url(#SVGID_00000018210734034807922600000010302836793377753738_);}
	.st204{fill-rule:evenodd;clip-rule:evenodd;fill:url(#SVGID_00000163785163452393345730000000465402805953799612_);}
	.st205{fill:url(#SVGID_00000103969181470713679210000007822840552975395518_);}
	.st206{fill:url(#SVGID_00000129207343870073885930000013297471921126931846_);}
	.st207{fill:url(#SVGID_00000101077187594852582530000005693356688326912648_);}
	.st208{fill:url(#SVGID_00000137847099839964093380000007661303578599166136_);}
	.st209{fill:url(#SVGID_00000052073463941708903470000008731361546204766907_);}
	.st210{fill:url(#SVGID_00000139255979209024243420000016446383158712970907_);}
	.st211{fill:url(#SVGID_00000058554639200820527630000009448093572215816637_);}
	.st212{fill:url(#SVGID_00000076602772345364696950000006642979662380513927_);}
	.st213{fill:url(#SVGID_00000096773745712171922370000004975543319013881753_);}
	.st214{fill:url(#SVGID_00000109727754794172412230000010531374726497828247_);}
	.st215{fill:url(#SVGID_00000058591711525003397050000005227971770248823962_);}
	.st216{fill:url(#SVGID_00000049920460102257057210000009531544592709828501_);}
	.st217{fill:url(#SVGID_00000040571685659288217750000015093349827903694266_);}
	.st218{fill:url(#SVGID_00000040549010743407666090000001947152692120408723_);}
	.st219{fill:url(#SVGID_00000074411580533823591080000011251549017794311332_);}
	.st220{fill:url(#SVGID_00000017517291577393166720000015775172640106076054_);}
	.st221{fill-rule:evenodd;clip-rule:evenodd;fill:url(#SVGID_00000099633650587746931980000000726300999707353275_);}
	.st222{fill:url(#SVGID_00000021809414885144114790000000694531579077406908_);}
	.st223{fill:url(#SVGID_00000141426532125048156500000017609258337322886056_);}
	.st224{fill:url(#SVGID_00000013901920743120082550000004930116270373313926_);}
	.st225{fill:url(#SVGID_00000078767058570429371750000017824891325010376576_);}
	.st226{fill:url(#SVGID_00000181787223179144013810000011199581713040971950_);}
	.st227{fill:url(#SVGID_00000005260030492162704660000009053124136427589777_);}
	.st228{fill:url(#SVGID_00000098186325386911398770000007369565561799061643_);}
	.st229{fill:url(#SVGID_00000139978929224709233310000014376624465867434166_);}
	.st230{fill:url(#SVGID_00000128446426630285178230000002630332105027365002_);}
	.st231{fill:url(#SVGID_00000003820940514760609080000002830323975273552554_);}
	.st232{fill:url(#SVGID_00000030475523874572945780000011810066400038962597_);}
	.st233{fill:url(#SVGID_00000084517979708697491690000001780674416476013755_);}
	.st234{fill:url(#SVGID_00000049904065592309794220000007601866106304570301_);}
	.st235{fill:url(#SVGID_00000058583019297442066210000005048869432948371346_);}
	.st236{fill:url(#SVGID_00000063594478728397061710000006260624731533820859_);}
	.st237{fill-rule:evenodd;clip-rule:evenodd;fill:url(#SVGID_00000080887122686190594290000003966421388077180322_);}
	.st238{fill:url(#SVGID_00000081619791564085077740000007522326736642181253_);}
	.st239{fill:url(#SVGID_00000109028633219292710030000004145296866301826198_);}
	.st240{fill:url(#SVGID_00000122683832489820186590000017932532912238830725_);}
	.st241{fill:url(#SVGID_00000092445670418568574630000010280724077273320870_);}
	.st242{fill:url(#SVGID_00000067210042445161184230000003621914428728852654_);}
	.st243{fill:url(#SVGID_00000031925193346016096100000006186226396500516263_);}
	.st244{fill:url(#SVGID_00000130628216710309571980000009688599218200574111_);}
	.st245{fill:url(#SVGID_00000064340236493600443590000016207798563159672503_);}
	.st246{fill:url(#SVGID_00000022533231586147271200000006685652281926709426_);}
	.st247{fill:url(#SVGID_00000148648474328331769660000014124085374399871638_);}
	.st248{fill:url(#SVGID_00000172412653217053059350000009464100029549641090_);}
	.st249{fill:url(#SVGID_00000098203726741497093650000012052550003848339329_);}
	.st250{fill:url(#SVGID_00000119805490615872104520000004990890460750380687_);}
	.st251{fill:url(#SVGID_00000012449808668742620070000009807126991875777433_);}
	.st252{fill:url(#SVGID_00000012464480162310363710000008531806984191480989_);}
	.st253{fill-rule:evenodd;clip-rule:evenodd;fill:url(#SVGID_00000029029405569704042680000000770841423497483455_);}
	.st254{fill:url(#SVGID_00000029738567693785242350000016243199747822491300_);}
	.st255{fill:url(#SVGID_00000021819920832151179020000017105716458971192750_);}
	.st256{fill:url(#SVGID_00000067203052746698531560000011411051776012609452_);}
	.st257{fill:url(#SVGID_00000096737640815492470600000014599046724016419237_);}
	.st258{fill:url(#SVGID_00000162311374720398516180000007245937852080487584_);}
	.st259{fill:url(#SVGID_00000061462232769658938310000017282578427241336978_);}
	.st260{fill:url(#SVGID_00000028302122329295569940000005286453651965100216_);}
	.st261{fill:url(#SVGID_00000092444323809169646030000007075934421809260932_);}
	.st262{fill:url(#SVGID_00000098186686458644044510000016617902913557502108_);}
	.st263{fill:url(#SVGID_00000157299462111501634240000018220918855053776019_);}
	.st264{fill:url(#SVGID_00000046338686015074645590000006397358792923658678_);}
	.st265{fill:url(#SVGID_00000139283737997144187940000004036836810149729933_);}
	.st266{fill:url(#SVGID_00000016761812327151160400000013615939133657259149_);}
	.st267{fill:url(#SVGID_00000089534391186651390010000012293412291579734954_);}
	.st268{fill:url(#SVGID_00000096040983326642364320000003225958763152339378_);}
	.st269{fill-rule:evenodd;clip-rule:evenodd;fill:url(#SVGID_00000052806424035719596310000002352222023883299997_);}
	.st270{fill:url(#SVGID_00000086652106431441391360000010853889001460250510_);}
	.st271{fill:url(#SVGID_00000000197677747128760650000006963583160137459875_);}
	.st272{fill:url(#SVGID_00000167376393039751057450000018141205278691432327_);}
	.st273{fill:url(#SVGID_00000174566956602805806340000017160992287342212231_);}
	.st274{fill:url(#SVGID_00000012470487604093264360000007133079208952037762_);}
	.st275{fill:url(#SVGID_00000004509174158477934420000008097486922595186336_);}
	.st276{fill:url(#SVGID_00000083049130848417084410000001590974435606377093_);}
	.st277{fill:url(#SVGID_00000143589492384633933510000007769779150172772788_);}
	.st278{fill:url(#SVGID_00000143577983352295639710000012890390209544767911_);}
	.st279{fill:url(#SVGID_00000106124493083482307540000009005193415151476096_);}
	.st280{fill:url(#SVGID_00000057854286208146964190000016103863580209009077_);}
	.st281{fill:url(#SVGID_00000026862687237502605760000011412923946012990626_);}
	.st282{fill:url(#SVGID_00000010991368901213299040000001735500055369144734_);}
	.st283{fill:url(#SVGID_00000063603950967552498920000015940152351324954557_);}
	.st284{fill:url(#SVGID_00000099659776583942650870000008170015392111888063_);}
	.st285{fill-rule:evenodd;clip-rule:evenodd;fill:url(#SVGID_00000164499249591629362080000010908170108283989633_);}
	.st286{fill:url(#SVGID_00000106863376613342317330000005774442074032368804_);}
	.st287{fill:url(#SVGID_00000069390605578066025620000005849695511912061341_);}
	.st288{fill:url(#SVGID_00000015315798290712152360000005835029428485908114_);}
	.st289{fill:url(#SVGID_00000164473784766244224710000000727947857837727398_);}
	.st290{fill:url(#SVGID_00000061430253619057134820000015103067212819221414_);}
	.st291{fill:url(#SVGID_00000005239278872899202400000004717756641745248128_);}
	.st292{fill:url(#SVGID_00000133523426527191972110000011478851705080290695_);}
	.st293{fill:url(#SVGID_00000029751831555383183380000000122416628388372911_);}
	.st294{fill:url(#SVGID_00000124161006578362256790000017512617739644495256_);}
	.st295{fill:url(#SVGID_00000133487080759372214610000013699187830630315448_);}
	.st296{fill:url(#SVGID_00000170980617631995919780000000172383214587291069_);}
	.st297{fill:url(#SVGID_00000048501584338991498100000017944730795062667197_);}
	.st298{fill:url(#SVGID_00000073699858959529306460000003705108828624614792_);}
	.st299{fill:url(#SVGID_00000113346541880266403040000006157044619850468498_);}
	.st300{fill:url(#SVGID_00000038383392906079606080000009007983525984107448_);}
	.st301{fill:url(#SVGID_00000022550605433885663710000001393340536407163576_);}
	.st302{fill:url(#SVGID_00000092432190079277033520000001555275701109985974_);}
	.st303{fill:url(#SVGID_00000121255323053921728480000008949003653449827482_);}
	.st304{fill-rule:evenodd;clip-rule:evenodd;fill:url(#SVGID_00000134970439115472842280000015774615395173097358_);}
	.st305{fill:url(#SVGID_00000023264821927434726120000013771396748763676554_);}
	.st306{fill:url(#SVGID_00000098900013934290233210000002613126406330968974_);}
	.st307{fill:url(#SVGID_00000113338590261277313800000009669692263491948206_);}
	.st308{fill:url(#SVGID_00000057854564458541661320000012470360485777455791_);}
	.st309{fill:url(#SVGID_00000137827923037872620820000009732755235580875401_);}
	.st310{fill:url(#SVGID_00000009572599483757191650000012883379620161988523_);}
	.st311{fill:url(#SVGID_00000034053101768180856260000016958338971768941495_);}
	.st312{fill:url(#SVGID_00000023970096739668176400000014451205632979351184_);}
	.st313{fill:url(#SVGID_00000119835114140184922780000017101353325431358104_);}
	.st314{fill:url(#SVGID_00000053510390637552850820000008919146164510929336_);}
	.st315{fill:url(#SVGID_00000150795548325529623510000006607145114532868272_);}
	.st316{fill:url(#SVGID_00000072267977463276403350000015126408474939798432_);}
	.st317{fill:url(#SVGID_00000127729554386974185020000001222130132163361457_);}
	.st318{fill:url(#SVGID_00000113310984400974239880000009558332813245376432_);}
	.st319{fill:url(#SVGID_00000080201618713820129120000003642344892639875458_);}
	.st320{fill:url(#SVGID_00000179605587198472519410000013435847616203168429_);}
	.st321{fill:url(#SVGID_00000169557165864093223280000016725600570577624231_);}
	.st322{fill:url(#SVGID_00000140720380618127518980000002113038238280305853_);}
	.st323{fill:url(#SVGID_00000028312476183437343320000005856740557270901139_);}
	.st324{fill:url(#SVGID_00000174604489702151537130000010264671952344035465_);}
	.st325{fill-rule:evenodd;clip-rule:evenodd;fill:url(#SVGID_00000120530383422199530100000004084198704509776009_);}
	.st326{fill:url(#SVGID_00000134969220672731882690000018278135586581198479_);}
	.st327{fill:url(#SVGID_00000075885529411140672860000015775721670386761915_);}
	.st328{fill:url(#SVGID_00000115481196082376364590000013540599360214745742_);}
	.st329{fill:url(#SVGID_00000060738521880441972530000011057527930136087484_);}
	.st330{fill:url(#SVGID_00000082341110387936867400000004730080098520913578_);}
	.st331{fill:url(#SVGID_00000123412472053977177320000000843909633861904574_);}
	.st332{fill:url(#SVGID_00000136393182083619821490000014340045818877619620_);}
	.st333{fill:url(#SVGID_00000183963707432777858270000009294650400562766466_);}
	.st334{fill:url(#SVGID_00000134934888066435269270000013354937151408673464_);}
	.st335{fill:url(#SVGID_00000041295877727503638650000008665330414819299242_);}
	.st336{fill:url(#SVGID_00000013152662081839930700000009799381874384110253_);}
	.st337{fill:url(#SVGID_00000013876903916872530360000003865108126256777610_);}
	.st338{fill:url(#SVGID_00000172420701814612222510000017554875118151308469_);}
	.st339{fill:url(#SVGID_00000183971497045649352640000007456094712663968939_);}
	.st340{fill:url(#SVGID_00000147909720090442878970000011182691323010839938_);}
	.st341{fill:url(#SVGID_00000060007021900725336020000010669762542013581235_);}
	.st342{fill-rule:evenodd;clip-rule:evenodd;fill:url(#SVGID_00000114063734415842115380000007540134079185263034_);}
	.st343{fill:url(#SVGID_00000037680481723868671680000013069839985602488464_);}
	.st344{fill:url(#SVGID_00000059280113209151386890000010346668400511411087_);}
	.st345{fill:url(#SVGID_00000180330909531283324740000016420237057832495288_);}
	.st346{fill:url(#SVGID_00000078028653182991311370000011038386853484083083_);}
	.st347{fill:url(#SVGID_00000166637793161328514330000002758093440811592841_);}
	.st348{fill:url(#SVGID_00000040544566955602701820000010898220332642825650_);}
	.st349{fill:url(#SVGID_00000055678107370903503810000014849562354644533941_);}
	.st350{fill:url(#SVGID_00000137122179562916108270000009405916434836032955_);}
	.st351{fill:url(#SVGID_00000083068394957648146360000015198149460480238984_);}
	.st352{fill:url(#SVGID_00000052791832984708203940000010926925302262321584_);}
	.st353{fill:url(#SVGID_00000031188878734357673780000013415666941373662143_);}
	.st354{fill:url(#SVGID_00000024694745660273359520000001319315667386071456_);}
	.st355{fill:url(#SVGID_00000059270844717381199290000000650125496390496128_);}
	.st356{fill:url(#SVGID_00000073704729498432043350000001293063478890504325_);}
	.st357{fill:url(#SVGID_00000043428171666005251290000018179759072837367208_);}
	.st358{fill:url(#SVGID_00000170998802796612126120000003511947075805940916_);}
	.st359{fill:url(#SVGID_00000182489856357183424040000002864893351927187586_);}
	.st360{fill:url(#SVGID_00000035507477251888887960000004594298552267891106_);}
	.st361{fill:url(#SVGID_00000001638000241524165540000018040898646423174797_);}
	.st362{fill:url(#SVGID_00000036224411782823941860000013983976428276021893_);}
	.st363{fill:#C1282D;}
	.st364{fill-rule:evenodd;clip-rule:evenodd;fill:url(#SVGID_00000183234240235904691690000011193531800693333387_);}
	.st365{fill:url(#SVGID_00000121968236643234858900000017971867054714137995_);}
	.st366{fill:url(#SVGID_00000159433829882699033190000012256320116898883218_);}
	.st367{fill:url(#SVGID_00000009583511441913550990000004590529858826058368_);}
	.st368{fill:url(#SVGID_00000021096976426741591520000015189170906879678397_);}
	.st369{fill:url(#SVGID_00000029763607010655358620000000768024114554409345_);}
	.st370{fill:url(#SVGID_00000148624981824585893480000004328869196536661928_);}
	.st371{fill:url(#SVGID_00000036228959443721673610000017518316130866342818_);}
	.st372{fill:url(#SVGID_00000140002868084942864050000013904549009344927658_);}
	.st373{fill:url(#SVGID_00000181779522207191465690000008246825565019792575_);}
	.st374{fill:url(#SVGID_00000043429952947898160360000017513012973756437418_);}
	.st375{fill:url(#SVGID_00000119814630978383480400000007009919602173351321_);}
	.st376{fill:url(#SVGID_00000147913517184019228480000003536289788878943653_);}
	.st377{fill:url(#SVGID_00000163071285009732916500000012504944955090230688_);}
	.st378{fill:url(#SVGID_00000098198459890039521710000006784016699412895891_);}
	.st379{fill:url(#SVGID_00000088849056926605731530000006727652553242079393_);}
	.st380{fill:url(#SVGID_00000005957427816730895630000010589241296496962492_);}
	.st381{fill-rule:evenodd;clip-rule:evenodd;fill:url(#SVGID_00000102504088381367172150000005362289126822438786_);}
	.st382{fill:url(#SVGID_00000053503686009378055010000016829819146462574513_);}
	.st383{fill:url(#SVGID_00000059272539447270546670000000852163301083645331_);}
	.st384{fill:url(#SVGID_00000034072239444973177360000002871743789444650422_);}
	.st385{fill:url(#SVGID_00000134238366981969058640000000858707870506075548_);}
	.st386{fill:url(#SVGID_00000036972970369005928250000012340425101092908678_);}
	.st387{fill:url(#SVGID_00000114785419871998528860000015250034352825650622_);}
	.st388{fill:url(#SVGID_00000010276382914855324870000014620759858237935232_);}
	.st389{fill:url(#SVGID_00000159442836826539689840000011076258789131186568_);}
	.st390{fill:url(#SVGID_00000183962326294291405530000005757630302537994676_);}
	.st391{fill:url(#SVGID_00000080908134706837422790000007773932276087131527_);}
	.st392{fill:url(#SVGID_00000142134242981953333340000017512845772350522812_);}
	.st393{fill:url(#SVGID_00000048490140979749898660000018215207916604056218_);}
	.st394{fill:url(#SVGID_00000170276437576386234030000003426318493932658873_);}
	.st395{fill:url(#SVGID_00000167377630831294448460000002808355761248177846_);}
	.st396{fill:url(#SVGID_00000111179071321333153190000014259424730350347937_);}
	.st397{fill:url(#SVGID_00000068679508536625089820000015205115200643140242_);}
	.st398{fill:url(#SVGID_00000099641727613313787870000017516047892377149847_);}
	.st399{fill:url(#SVGID_00000082359655142646479960000014006312384085339791_);}
	.st400{fill:url(#SVGID_00000129903618446867409860000005894854118440445108_);}
	.st401{fill:url(#SVGID_00000121248423270713204340000006980738735051823781_);}
</style>
<g>
	<path class="st0" d="M269.39,485.34c14.59-37.36,29.19-74.72,43.78-112.09c-10.17,1.08-29.89,12.12-36.42,16.59
		c-26.76,18.32-52.35,53.9-22.35,83.9C257.94,477.27,264.33,483.16,269.39,485.34 M361.42,480.68c6.75-1.52,27.83-15.31,33.38-20.77
		c8.26-8.12,18.15-17.51,20.13-34.74c2.06-17.87-6.15-31.9-14.95-39.2c-13.72-11.39-20.79-11.5-38.55-16.22
		C361.42,406.73,361.42,443.71,361.42,480.68z M239.41,488.44c-4.97,3.09-24.46,19.64-29.06,23.53c0.34,3.85,8.12,11.12,11.04,14.15
		c3.17-0.63,28.79-21.89,33.64-25.6c3.85-2.94,7.71-5.87,11.56-8.81c-0.65,3.74-4.2,11.55-5.67,15.3
		c-5.91,15.08-11.82,30.17-17.73,45.25c-7.76,20.43-15.77,40.29-23.58,60.27c-11.82,30.2-23.65,60.4-35.47,90.59
		c-4.94,12.71-6.56,17.16-10.77,30.23c2.09,2.35,8.15,1.19,11.02,1.19c12.33,0,24.66,0,36.99,0c12.55,0,11.58,1.58,14.94-9.22
		c23.52-75.18,47.03-150.36,70.54-225.53c3.27-10.53,2.01-8.36,14.37-7.95c1.19,4.91-12.78,161.58-14.37,180.88
		c-1.45,20.19-2.9,40.36-4.35,60.55c3.55,2.54,12.03,1.28,17.14,1.28c6.03,0,34.86,0.33,38.13-0.01c3.37-0.36,3.62-2.14,3.64-5.69
		c0.59-78.67-0.03-159.82,0.02-238.81c2.32,1.19,7.64,7.43,9.5,9.41c8.02,8.55,20.49,21.12,29.06,29.34
		c4.08-0.35,10.63-9.62,13.16-12.74c-0.83-2.24-20.46-22.18-23.57-25.44c2.07-2.83,21.71-14.28,34.34-35.04
		c9.56-15.7,14.5-35.18,7.63-56c-10.4-31.53-46.04-51.96-88.79-50.44c-20.53,0.73-39.93,5.5-56.03,13.13
		c-10.86,5.14-23.03,12.39-31.83,20.25c-3.08,2.89-6.16,5.78-9.24,8.67c-10.59,9.58-21.54,29.68-23.78,45.58
		c-2.11,15.06,2.05,29.22,9.84,41.18C233.74,480.94,238.48,486.09,239.41,488.44z M56.45,495.78c0,12.91,0,25.83,0,38.74
		c0,6.24,2.12,5.32,10.6,5.31c6.39,0,45.22,0.3,46.02,0.64c1.08,1.05,1.1-0.24,0.64,2.42c-0.12,0.72-0.82,2.12-1.17,2.93
		c-0.76,1.79-1.6,3.82-2.42,5.83c-10.48,26.1-20.97,52.2-31.46,78.31c-2.61,6.38-21.66,52.19-22.1,56.62
		c-0.61,6.14,0.33,39.56,0.47,47.06c0.55,0.88,2.11,1.12,4.24,0.99c32.95,0,65.9,0,98.85,0c3.58,0.03,5.47-1.55,5.16-5.26
		c0-12.91,0-25.82,0-38.74c0-6.84-4.05-5.32-10.35-5.31c-13.3,0-26.6,0-39.89,0.01c-10.9,0.05-9.4,1.96,6.85-38.08
		c9.97-24.75,19.94-49.51,29.91-74.26c3.08-7.7,12.44-31.47,13.48-38.46c0-12.91,0-25.83,0-38.74c-0.16-3.89-2.24-5.18-5.16-5.36
		c-32.95,0-65.89,0-98.85,0C57.1,490.42,56.45,491.86,56.45,495.78z M422.79,495.78c-0.01,77.86-0.01,155.73-0.01,233.59
		c0.05,3.45,1.43,5.5,4.98,5.26c10.98,0,21.96,0,32.95,0c4.45,0,5-1.59,5.01-5.81c-0.01-52.24-0.01-104.49-0.02-156.73
		c0-5.07-0.63-8.17,0.8-10.96c1.61,3.52,30.84,140.01,34.26,155.36c2.96,13.32,3.35,17.97,9.13,18.13c12.51,0,25.02,0,37.54,0
		c6.95,0,6.18-5.31,8.89-17.64c11.68-51.54,23.36-103.07,35.05-154.61c0.61,2.51-0.05,165.29,0.15,165.85
		c-0.28,4.94,1.77,6.54,5.05,6.39c10.99,0,21.96,0,32.95,0c3.53,0.2,4.98-1.72,4.87-5.26c0-77.86,0-155.73,0-233.59
		c0.21-4.4-2.38-5.19-5.45-5.36c-21.96,0-43.93,0-65.9,0c-7.06,0-6.05,4.11-8.17,15.75c-7.33,40.56-14.67,81.13-22.01,121.69
		c-0.7,3.86-1.24,7.04-1.88,10.6c-1.06,5.88-0.49,3.9-2.64,9.43c-1.44-2.31-22.78-123.96-26.02-141.76
		c-3.09-17.02,0.29-15.71-17.92-15.71c-16.76,0-33.53,0-50.29,0C428.06,490.42,422.79,488.81,422.79,495.78z M653.74,490.94
		c-2.92,1.43-2.12,4.78-2.1,8.3c0.02,5.57-0.37,30.13,0.17,32.14c0.86,3.22,4.55,2.56,7.76,2.55c40.77-0.26,34.61,5.1,34.61-19.64
		c0-27.64,4.46-23.74-19-23.74C671.61,490.54,655.71,489.98,653.74,490.94z M651.64,551.28c0,59.36,0,118.73,0,178.09
		c-0.04,3.27,1.34,5.25,5.04,5.16c10.8,0,21.58,0,32.37,0c3.48,0.33,5.2-1.36,5.13-5.16c0-59.36,0-118.72,0-178.09
		c0.16-3.14-1.63-4.73-5.13-5c-10.79,0-21.58,0-32.37,0C652.55,546.29,651.64,547.17,651.64,551.28z M749.36,560.45
		c-0.02-4.63,1.71-13.25-3.23-14.1c-3.54-0.6-13.56-0.07-17.77-0.07c-20.56,0-18.37-3.64-18.37,16.57c0,52.8,0,105.62,0,158.43
		c0,15.68-2.87,13.25,22.43,13.25c3.12,0,13.79-0.08,16.21-1.77c2.9-2.04-1.25-124.57,1.52-134.37c3.8-13.43,20.12-15.89,26.77-3.77
		c4.21,7.7,2.47,32.27,2.47,42.81c-0.01,30.46-0.02,60.92-0.03,91.39c0,6.06,3.25,6.14,16.5,6.21c5.71-0.12,11.34,0.05,17.05-0.21
		c5.7-0.26,5.37-1.96,5.56-6.66c0.95-23.96,0.24-118.69,0.24-132.36c0-18.99-0.43-38.12-20.44-48.52
		c-15.3-7.95-33.2-2.93-44.77,8.89C752.27,557.43,750.92,559.79,749.36,560.45z M886.32,580.15c-7.22,1.9-10.69,7.61-10.84,16.81
		c-0.1,5.66-1.7,9.99,4.29,10.1c4.57,0.08,9.32-0.05,13.92-0.05c5.11,0,9.53,1.53,9.74-3.65c0.17-4.03,0.14-9.33-0.93-13
		C900.59,583.79,895.03,577.85,886.32,580.15z M904.22,664.8c-1.99,2.31,0.85,19.08-3.62,26.97c-4.39,7.73-15.98,8.4-21.22,1.6
		c-5.12-6.63-3.89-17.97-3.89-27.6c0.11-10.41,0.23-20.81,0.34-31.22c3.49-1.84,52.38-1.05,62.96-0.96
		c8.5,0.07,7.22,1.27,7.22-15.23c0-24.02-0.01-50.17-21.65-65.36c-26.77-18.78-71.26-10.02-85.87,24.05
		c-5.46,12.71-5.66,22.7-5.66,37.84c0,14.26,0,28.53,0,42.79c0,14.53-0.47,26.63,3.83,39.67c6.96,21.07,23.24,35.48,49.54,37.07
		c33.93,2.06,58.31-18.54,59.73-48.4c0.16-3.41,0.79-19.71-0.63-21.53c-1.42-1.82-25.83-0.97-31.36-0.98
		C910.82,663.5,905.87,662.64,904.22,664.8z"/>
	<path class="st40" d="M356.94,276.72c-11.7,5.24-3.71,21.12,7.13,16.57C374.3,288.98,368.28,271.64,356.94,276.72 M342.24,259.06
		c-19.29,3.02-36.44,20.8-32.53,44.41c3.09,18.7,21.01,36.06,44.25,32.21c18.97-3.14,35.97-20.87,32.36-44.19
		C383.31,272.08,365.11,255.47,342.24,259.06z"/>
	<path d="M945.72,810.63v-5.46h5.46v5.46H945.72z M939.69,806.34l0.69,4.23c-1.34,0.27-2.54,0.42-3.61,0.42
		c-1.74,0-3.09-0.27-4.05-0.82c-0.95-0.54-1.62-1.27-2.01-2.17c-0.39-0.89-0.59-2.78-0.59-5.65v-16.23h-3.51v-3.72h3.51v-6.99
		l4.76-2.87v9.85h4.81v3.72h-4.81v16.5c0,1.37,0.08,2.24,0.25,2.63c0.18,0.39,0.44,0.7,0.83,0.93c0.38,0.23,0.92,0.34,1.63,0.34
		C938.13,806.53,938.82,806.47,939.69,806.34z M911.08,810.63v-28.22h4.3v4.27c1.1-2,2.11-3.32,3.05-3.95
		c0.92-0.63,1.95-0.96,3.06-0.96c1.61,0,3.25,0.52,4.91,1.54l-1.65,4.44c-1.16-0.7-2.33-1.04-3.5-1.04c-1.05,0-1.99,0.31-2.82,0.94
		c-0.83,0.63-1.42,1.5-1.78,2.62c-0.53,1.7-0.79,3.56-0.79,5.58v14.78H911.08z M884,796.52c0,3.61,0.8,6.32,2.37,8.11
		c1.58,1.8,3.56,2.71,5.95,2.71c2.38,0,4.35-0.91,5.93-2.71c1.57-1.8,2.35-4.56,2.35-8.26c0-3.49-0.79-6.14-2.37-7.94
		c-1.59-1.79-3.56-2.69-5.91-2.69c-2.39,0-4.37,0.89-5.95,2.68C884.79,790.21,884,792.9,884,796.52z M879.09,796.52
		c0-5.23,1.45-9.1,4.36-11.61c2.42-2.09,5.38-3.14,8.87-3.14c3.88,0,7.05,1.27,9.51,3.82c2.47,2.54,3.69,6.04,3.69,10.53
		c0,3.64-0.54,6.49-1.63,8.56c-1.09,2.09-2.67,3.7-4.75,4.85c-2.09,1.15-4.36,1.73-6.82,1.73c-3.95,0-7.13-1.26-9.58-3.81
		C880.3,804.93,879.09,801.28,879.09,796.52z M854.93,796.68c0,3.63,0.73,6.31,2.21,8.05c1.47,1.74,3.26,2.61,5.34,2.61
		c2.12,0,3.94-0.9,5.46-2.71c1.51-1.79,2.27-4.58,2.27-8.35c0-3.6-0.74-6.29-2.22-8.08c-1.47-1.78-3.25-2.68-5.3-2.68
		c-2.04,0-3.84,0.95-5.41,2.86C855.71,790.27,854.93,793.05,854.93,796.68z M850.61,821.43v-39.02h4.36v3.67
		c1.02-1.44,2.18-2.52,3.48-3.23c1.28-0.72,2.85-1.08,4.69-1.08c2.41,0,4.54,0.63,6.38,1.86c1.85,1.25,3.24,2.99,4.17,5.25
		c0.94,2.26,1.42,4.74,1.42,7.43c0,2.88-0.52,5.49-1.56,7.8c-1.04,2.31-2.54,4.08-4.52,5.32c-1.98,1.22-4.06,1.84-6.23,1.84
		c-1.6,0-3.02-0.34-4.29-1.01c-1.27-0.67-2.31-1.52-3.12-2.55v13.73H850.61z M824.68,796.68c0,3.63,0.73,6.31,2.2,8.05
		c1.47,1.74,3.26,2.61,5.34,2.61c2.12,0,3.94-0.9,5.46-2.71c1.51-1.79,2.27-4.58,2.27-8.35c0-3.6-0.75-6.29-2.22-8.08
		c-1.48-1.78-3.25-2.68-5.29-2.68c-2.04,0-3.85,0.95-5.42,2.86C825.46,790.27,824.68,793.05,824.68,796.68z M820.35,821.43v-39.02
		h4.35v3.67c1.02-1.44,2.19-2.52,3.49-3.23c1.28-0.72,2.86-1.08,4.7-1.08c2.41,0,4.53,0.63,6.37,1.86c1.85,1.25,3.24,2.99,4.17,5.25
		c0.95,2.26,1.41,4.74,1.41,7.43c0,2.88-0.51,5.49-1.56,7.8c-1.03,2.31-2.54,4.08-4.52,5.32c-1.98,1.22-4.06,1.84-6.23,1.84
		c-1.6,0-3.03-0.34-4.29-1.01c-1.27-0.67-2.3-1.52-3.12-2.55v13.73H820.35z M808.58,810.63v-4.15c-2.21,3.19-5.19,4.78-8.96,4.78
		c-1.66,0-3.22-0.32-4.66-0.95c-1.44-0.64-2.51-1.44-3.21-2.4c-0.71-0.97-1.2-2.15-1.47-3.54c-0.19-0.95-0.29-2.44-0.29-4.48v-17.47
		h4.78v15.65c0,2.5,0.1,4.18,0.29,5.05c0.31,1.26,0.94,2.24,1.91,2.96c0.99,0.72,2.19,1.07,3.62,1.07c1.43,0,2.77-0.37,4.03-1.1
		c1.26-0.73,2.15-1.74,2.67-3c0.53-1.27,0.78-3.11,0.78-5.51v-15.12h4.78v28.22H808.58z M752.65,798.11l4.86-0.43
		c0.23,1.95,0.76,3.54,1.61,4.8c0.84,1.25,2.15,2.25,3.91,3.02c1.77,0.77,3.77,1.15,5.98,1.15c1.97,0,3.71-0.29,5.21-0.87
		c1.5-0.59,2.63-1.39,3.36-2.4c0.73-1.03,1.11-2.13,1.11-3.34c0-1.22-0.35-2.28-1.07-3.2c-0.71-0.92-1.88-1.68-3.5-2.3
		c-1.05-0.4-3.35-1.04-6.94-1.9c-3.57-0.87-6.09-1.66-7.52-2.43c-1.87-0.97-3.25-2.18-4.16-3.63c-0.91-1.44-1.36-3.06-1.36-4.85
		c0-1.96,0.55-3.8,1.66-5.5c1.12-1.71,2.75-3.01,4.89-3.9c2.15-0.89,4.52-1.33,7.14-1.33c2.9,0,5.43,0.47,7.65,1.4
		c2.2,0.92,3.89,2.29,5.09,4.1c1.18,1.8,1.82,3.85,1.91,6.13l-4.94,0.38c-0.27-2.46-1.17-4.32-2.7-5.58
		c-1.53-1.26-3.8-1.89-6.78-1.89c-3.12,0-5.39,0.57-6.82,1.71c-1.42,1.15-2.14,2.52-2.14,4.12c0,1.41,0.51,2.56,1.51,3.45
		c1,0.91,3.59,1.84,7.78,2.78c4.19,0.95,7.06,1.77,8.62,2.48c2.27,1.05,3.95,2.38,5.03,3.97c1.08,1.6,1.61,3.45,1.61,5.54
		c0,2.08-0.59,4.03-1.78,5.86c-1.18,1.82-2.89,3.25-5.11,4.28c-2.22,1.02-4.72,1.52-7.5,1.52c-3.52,0-6.48-0.5-8.85-1.53
		c-2.38-1.03-4.26-2.57-5.61-4.64C753.43,803.05,752.72,800.71,752.65,798.11z M712.03,793.8h15.75c-0.21-2.37-0.82-4.16-1.81-5.33
		c-1.52-1.84-3.5-2.77-5.92-2.77c-2.19,0-4.04,0.73-5.54,2.2C713.01,789.38,712.19,791.34,712.03,793.8z M727.72,801.53l4.94,0.61
		c-0.78,2.9-2.22,5.13-4.32,6.73c-2.11,1.58-4.81,2.39-8.08,2.39c-4.13,0-7.4-1.27-9.82-3.81c-2.42-2.54-3.62-6.11-3.62-10.69
		c0-4.75,1.22-8.44,3.66-11.06c2.45-2.62,5.62-3.94,9.52-3.94c3.77,0,6.86,1.28,9.24,3.85c2.39,2.57,3.59,6.19,3.59,10.84
		c0,0.29-0.01,0.71-0.03,1.28h-21.03c0.17,3.1,1.05,5.48,2.63,7.12c1.57,1.65,3.54,2.48,5.89,2.48c1.75,0,3.25-0.47,4.49-1.39
		C726.02,805.03,727,803.56,727.72,801.53z M663.09,810.63v-28.22h4.27v3.96c0.89-1.38,2.07-2.5,3.54-3.33
		c1.47-0.84,3.15-1.27,5.03-1.27c2.09,0,3.8,0.44,5.13,1.31c1.34,0.87,2.29,2.08,2.83,3.64c2.24-3.29,5.14-4.94,8.72-4.94
		c2.8,0,4.95,0.78,6.46,2.33c1.5,1.55,2.25,3.94,2.25,7.15v19.38h-4.75v-17.78c0-1.91-0.15-3.29-0.46-4.13
		c-0.32-0.83-0.88-1.51-1.69-2.03c-0.82-0.51-1.78-0.77-2.87-0.77c-1.99,0-3.63,0.66-4.94,1.99c-1.3,1.31-1.97,3.43-1.97,6.33v16.4
		h-4.78V792.3c0-2.13-0.39-3.73-1.17-4.79c-0.78-1.06-2.06-1.6-3.83-1.6c-1.34,0-2.58,0.36-3.73,1.07c-1.15,0.71-1.98,1.74-2.48,3.1
		c-0.52,1.37-0.77,3.34-0.77,5.9v14.64H663.09z M636.44,793.8h15.75c-0.21-2.37-0.82-4.16-1.8-5.33c-1.53-1.84-3.51-2.77-5.92-2.77
		c-2.2,0-4.05,0.73-5.55,2.2C637.43,789.38,636.61,791.34,636.44,793.8z M652.14,801.53l4.94,0.61c-0.79,2.9-2.22,5.13-4.33,6.73
		c-2.11,1.58-4.81,2.39-8.08,2.39c-4.13,0-7.4-1.27-9.81-3.81c-2.42-2.54-3.63-6.11-3.63-10.69c0-4.75,1.22-8.44,3.66-11.06
		c2.45-2.62,5.62-3.94,9.51-3.94c3.78,0,6.86,1.28,9.25,3.85c2.39,2.57,3.59,6.19,3.59,10.84c0,0.29-0.01,0.71-0.03,1.28h-21.04
		c0.17,3.1,1.05,5.48,2.63,7.12c1.57,1.65,3.54,2.48,5.89,2.48c1.76,0,3.25-0.47,4.49-1.39
		C650.44,805.03,651.42,803.56,652.14,801.53z M614.66,810.63v-28.22h4.3v4.27c1.09-2,2.11-3.32,3.05-3.95
		c0.92-0.63,1.95-0.96,3.06-0.96c1.61,0,3.25,0.52,4.91,1.54l-1.65,4.44c-1.16-0.7-2.33-1.04-3.5-1.04c-1.05,0-1.99,0.31-2.82,0.94
		c-0.83,0.63-1.43,1.5-1.78,2.62c-0.54,1.7-0.8,3.56-0.8,5.58v14.78H614.66z M610.03,806.34l0.69,4.23
		c-1.34,0.27-2.54,0.42-3.61,0.42c-1.74,0-3.09-0.27-4.05-0.82c-0.95-0.54-1.62-1.27-2.01-2.17c-0.39-0.89-0.59-2.78-0.59-5.65
		v-16.23h-3.51v-3.72h3.51v-6.99l4.76-2.87v9.85h4.81v3.72h-4.81v16.5c0,1.37,0.08,2.24,0.25,2.63c0.17,0.39,0.44,0.7,0.82,0.93
		c0.38,0.23,0.92,0.34,1.64,0.34C608.47,806.53,609.16,806.47,610.03,806.34z M569.19,810.63l10.32-14.67l-9.54-13.55h5.98
		l4.34,6.61c0.8,1.26,1.47,2.32,1.96,3.17c0.78-1.17,1.5-2.21,2.16-3.11l4.74-6.67h5.72l-9.75,13.29l10.5,14.93h-5.87l-5.8-8.77
		l-1.54-2.37l-7.4,11.14H569.19z M536.81,810.63v-38.95h28.16v4.6h-23.01v11.92h21.55v4.58h-21.55v13.26h23.92v4.6H536.81z
		 M507.21,810.63v-5.46h5.45v5.46H507.21z M501.19,806.34l0.69,4.23c-1.34,0.27-2.55,0.42-3.61,0.42c-1.73,0-3.08-0.27-4.04-0.82
		c-0.96-0.54-1.62-1.27-2.01-2.17c-0.39-0.89-0.6-2.78-0.6-5.65v-16.23h-3.51v-3.72h3.51v-6.99l4.77-2.87v9.85h4.81v3.72h-4.81v16.5
		c0,1.37,0.08,2.24,0.25,2.63c0.17,0.39,0.44,0.7,0.83,0.93c0.37,0.23,0.92,0.34,1.63,0.34
		C499.61,806.53,500.32,806.47,501.19,806.34z M472.57,810.63v-28.22h4.29v4.27c1.1-2,2.12-3.32,3.05-3.95
		c0.92-0.63,1.95-0.96,3.06-0.96c1.62,0,3.25,0.52,4.92,1.54l-1.65,4.44c-1.16-0.7-2.33-1.04-3.5-1.04c-1.05,0-1.99,0.31-2.83,0.94
		c-0.83,0.63-1.42,1.5-1.77,2.62c-0.53,1.7-0.8,3.56-0.8,5.58v14.78H472.57z M445.49,796.52c0,3.61,0.79,6.32,2.37,8.11
		c1.57,1.8,3.56,2.71,5.94,2.71c2.38,0,4.36-0.91,5.93-2.71c1.57-1.8,2.36-4.56,2.36-8.26c0-3.49-0.79-6.14-2.38-7.94
		c-1.59-1.79-3.55-2.69-5.91-2.69c-2.38,0-4.37,0.89-5.94,2.68C446.28,790.21,445.49,792.9,445.49,796.52z M440.58,796.52
		c0-5.23,1.44-9.1,4.35-11.61c2.42-2.09,5.38-3.14,8.87-3.14c3.88,0,7.06,1.27,9.51,3.82c2.47,2.54,3.69,6.04,3.69,10.53
		c0,3.64-0.54,6.49-1.63,8.56c-1.09,2.09-2.67,3.7-4.75,4.85c-2.09,1.15-4.36,1.73-6.82,1.73c-3.94,0-7.14-1.26-9.57-3.81
		C441.8,804.93,440.58,801.28,440.58,796.52z M428.38,810.63v-24.49h-4.22v-3.72h4.22v-3c0-1.9,0.18-3.31,0.51-4.22
		c0.46-1.24,1.27-2.25,2.43-3.02c1.16-0.77,2.78-1.15,4.87-1.15c1.34,0,2.84,0.15,4.46,0.48l-0.72,4.17
		c-0.98-0.18-1.92-0.27-2.82-0.27c-1.45,0-2.47,0.3-3.07,0.93c-0.61,0.62-0.91,1.77-0.91,3.48v2.6h5.5v3.72h-5.5v24.49H428.38z
		 M414.24,810.63v-24.49h-4.22v-3.72h4.22v-3c0-1.9,0.17-3.31,0.51-4.22c0.46-1.24,1.27-2.25,2.43-3.02
		c1.16-0.77,2.79-1.15,4.88-1.15c1.35,0,2.83,0.15,4.46,0.48l-0.72,4.17c-0.98-0.18-1.93-0.27-2.82-0.27c-1.45,0-2.47,0.3-3.07,0.93
		c-0.61,0.62-0.91,1.77-0.91,3.48v2.6h5.5v3.72H419v24.49H414.24z M377.53,810.63v-38.95h28.16v4.6h-23.01v11.92h21.54v4.58h-21.54
		v13.26h23.91v4.6H377.53z M335.05,793.8h15.75c-0.21-2.37-0.82-4.16-1.8-5.33c-1.52-1.84-3.5-2.77-5.92-2.77
		c-2.19,0-4.04,0.73-5.54,2.2C336.04,789.38,335.21,791.34,335.05,793.8z M350.74,801.53l4.94,0.61c-0.78,2.9-2.22,5.13-4.33,6.73
		c-2.12,1.58-4.81,2.39-8.08,2.39c-4.12,0-7.4-1.27-9.81-3.81c-2.42-2.54-3.63-6.11-3.63-10.69c0-4.75,1.23-8.44,3.67-11.06
		c2.44-2.62,5.61-3.94,9.51-3.94c3.77,0,6.85,1.28,9.24,3.85c2.4,2.57,3.59,6.19,3.59,10.84c0,0.29-0.01,0.71-0.02,1.28h-21.04
		c0.18,3.1,1.05,5.48,2.63,7.12c1.58,1.65,3.54,2.48,5.9,2.48c1.75,0,3.25-0.47,4.49-1.39
		C349.04,805.03,350.02,803.56,350.74,801.53z M319.24,810.63v-38.95h4.77v38.95H319.24z M293.44,796.31c0,3.38,0.47,5.82,1.38,7.33
		c1.5,2.46,3.54,3.7,6.11,3.7c2.09,0,3.89-0.91,5.42-2.73c1.53-1.82,2.29-4.52,2.29-8.12c0-3.69-0.73-6.4-2.19-8.15
		c-1.46-1.75-3.22-2.63-5.29-2.63c-2.09,0-3.9,0.91-5.43,2.72C294.2,790.24,293.44,792.87,293.44,796.31z M293.49,810.63h-4.43
		v-38.95h4.77v13.89c2.02-2.53,4.6-3.8,7.73-3.8c1.73,0,3.38,0.35,4.93,1.05c1.55,0.69,2.82,1.68,3.83,2.94
		c1,1.28,1.79,2.8,2.36,4.59c0.56,1.79,0.85,3.7,0.85,5.73c0,4.84-1.2,8.58-3.59,11.22c-2.38,2.64-5.26,3.96-8.6,3.96
		c-3.33,0-5.94-1.39-7.84-4.17V810.63z M276.84,796.46c-1.74,0.71-4.35,1.31-7.81,1.81c-1.97,0.28-3.36,0.6-4.17,0.95
		c-0.82,0.35-1.45,0.87-1.89,1.56c-0.44,0.68-0.67,1.43-0.67,2.27c0,1.28,0.49,2.34,1.45,3.19c0.97,0.85,2.38,1.28,4.24,1.28
		c1.83,0,3.47-0.4,4.91-1.21c1.43-0.81,2.49-1.92,3.16-3.32c0.52-1.08,0.77-2.67,0.77-4.78V796.46z M277.24,807.14
		c-1.77,1.5-3.49,2.57-5.11,3.19c-1.64,0.61-3.4,0.92-5.28,0.92c-3.1,0-5.48-0.76-7.15-2.27s-2.5-3.45-2.5-5.81
		c0-1.38,0.31-2.65,0.95-3.79c0.63-1.14,1.45-2.06,2.47-2.74c1.02-0.7,2.16-1.22,3.45-1.57c0.93-0.25,2.35-0.49,4.24-0.71
		c3.87-0.46,6.71-1.01,8.53-1.65c0.02-0.66,0.02-1.08,0.02-1.25c0-1.95-0.45-3.33-1.36-4.12c-1.22-1.08-3.03-1.62-5.44-1.62
		c-2.25,0-3.91,0.39-4.98,1.18c-1.08,0.79-1.87,2.19-2.38,4.19l-4.68-0.64c0.43-1.99,1.12-3.62,2.09-4.84
		c0.97-1.23,2.39-2.18,4.23-2.84c1.84-0.66,3.97-1,6.4-1c2.41,0,4.36,0.29,5.86,0.86c1.5,0.56,2.61,1.27,3.33,2.14
		c0.71,0.86,1.2,1.94,1.49,3.26c0.15,0.82,0.24,2.28,0.24,4.41v6.37c0,4.45,0.1,7.26,0.3,8.43c0.2,1.18,0.6,2.31,1.21,3.39h-5
		C277.7,809.63,277.37,808.47,277.24,807.14z M232.89,796.68c0,3.63,0.73,6.31,2.21,8.05c1.47,1.74,3.25,2.61,5.34,2.61
		c2.12,0,3.94-0.9,5.46-2.71c1.51-1.79,2.28-4.58,2.28-8.35c0-3.6-0.74-6.29-2.22-8.08c-1.47-1.78-3.25-2.68-5.3-2.68
		c-2.04,0-3.84,0.95-5.41,2.86C233.67,790.27,232.89,793.05,232.89,796.68z M228.56,821.43v-39.02h4.36v3.67
		c1.02-1.44,2.18-2.52,3.48-3.23c1.29-0.72,2.85-1.08,4.69-1.08c2.42,0,4.54,0.63,6.38,1.86c1.85,1.25,3.23,2.99,4.17,5.25
		c0.94,2.26,1.41,4.74,1.41,7.43c0,2.88-0.52,5.49-1.56,7.8c-1.04,2.31-2.54,4.08-4.52,5.32c-1.98,1.22-4.06,1.84-6.23,1.84
		c-1.6,0-3.02-0.34-4.29-1.01c-1.27-0.67-2.31-1.52-3.12-2.55v13.73H228.56z M202.63,796.68c0,3.63,0.73,6.31,2.2,8.05
		c1.47,1.74,3.25,2.61,5.34,2.61c2.12,0,3.94-0.9,5.46-2.71c1.51-1.79,2.27-4.58,2.27-8.35c0-3.6-0.74-6.29-2.22-8.08
		c-1.48-1.78-3.25-2.68-5.3-2.68c-2.05,0-3.85,0.95-5.42,2.86C203.41,790.27,202.63,793.05,202.63,796.68z M198.3,821.43v-39.02
		h4.36v3.67c1.02-1.44,2.18-2.52,3.48-3.23c1.28-0.72,2.86-1.08,4.7-1.08c2.4,0,4.53,0.63,6.37,1.86c1.85,1.25,3.24,2.99,4.17,5.25
		c0.94,2.26,1.41,4.74,1.41,7.43c0,2.88-0.51,5.49-1.56,7.8c-1.03,2.31-2.54,4.08-4.52,5.32c-1.98,1.22-4.06,1.84-6.23,1.84
		c-1.6,0-3.03-0.34-4.29-1.01c-1.27-0.67-2.3-1.52-3.12-2.55v13.73H198.3z M171.17,796.52c0,3.61,0.79,6.32,2.37,8.11
		c1.58,1.8,3.56,2.71,5.95,2.71c2.38,0,4.35-0.91,5.93-2.71c1.57-1.8,2.35-4.56,2.35-8.26c0-3.49-0.79-6.14-2.38-7.94
		c-1.58-1.79-3.55-2.69-5.91-2.69c-2.39,0-4.37,0.89-5.95,2.68C171.95,790.21,171.17,792.9,171.17,796.52z M166.25,796.52
		c0-5.23,1.45-9.1,4.36-11.61c2.42-2.09,5.38-3.14,8.87-3.14c3.88,0,7.05,1.27,9.51,3.82c2.46,2.54,3.69,6.04,3.69,10.53
		c0,3.64-0.54,6.49-1.63,8.56c-1.09,2.09-2.67,3.7-4.75,4.85c-2.09,1.15-4.36,1.73-6.82,1.73c-3.95,0-7.14-1.26-9.58-3.81
		C167.47,804.93,166.25,801.28,166.25,796.52z M163.36,806.34l0.69,4.23c-1.34,0.27-2.54,0.42-3.61,0.42
		c-1.74,0-3.08-0.27-4.04-0.82c-0.96-0.54-1.63-1.27-2.02-2.17c-0.39-0.89-0.59-2.78-0.59-5.65v-16.23h-3.51v-3.72h3.51v-6.99
		l4.76-2.87v9.85h4.81v3.72h-4.81v16.5c0,1.37,0.08,2.24,0.25,2.63c0.18,0.39,0.44,0.7,0.83,0.93c0.38,0.23,0.92,0.34,1.64,0.34
		C161.79,806.53,162.49,806.47,163.36,806.34z M123.8,802.2l4.72-0.74c0.27,1.9,1.01,3.35,2.22,4.36c1.21,1,2.9,1.51,5.09,1.51
		c2.19,0,3.83-0.46,4.89-1.34c1.06-0.89,1.6-1.95,1.6-3.15c0-1.08-0.47-1.93-1.41-2.55c-0.66-0.42-2.29-0.96-4.89-1.62
		c-3.5-0.89-5.95-1.65-7.29-2.3c-1.35-0.64-2.39-1.54-3.09-2.68c-0.7-1.15-1.05-2.41-1.05-3.78c0-1.26,0.29-2.42,0.87-3.49
		c0.57-1.09,1.36-1.97,2.35-2.68c0.74-0.54,1.76-1.01,3.03-1.39c1.29-0.38,2.67-0.57,4.13-0.57c2.22,0,4.16,0.33,5.84,0.96
		c1.67,0.64,2.91,1.5,3.71,2.58c0.8,1.1,1.34,2.55,1.64,4.37l-4.67,0.64c-0.22-1.45-0.84-2.58-1.85-3.4
		c-1.02-0.82-2.46-1.22-4.32-1.22c-2.2,0-3.77,0.37-4.7,1.08c-0.95,0.73-1.41,1.58-1.41,2.55c0,0.63,0.2,1.18,0.59,1.68
		c0.39,0.51,0.99,0.93,1.83,1.27c0.47,0.17,1.88,0.58,4.23,1.21c3.38,0.91,5.74,1.64,7.07,2.22c1.35,0.57,2.4,1.41,3.16,2.51
		c0.76,1.09,1.15,2.45,1.15,4.09c0,1.59-0.47,3.09-1.4,4.51c-0.93,1.41-2.28,2.49-4.03,3.26c-1.75,0.77-3.74,1.15-5.94,1.15
		c-3.67,0-6.47-0.77-8.39-2.29C125.55,807.45,124.33,805.19,123.8,802.2z M95.46,810.63v-28.22h4.29v4.01
		c2.08-3.1,5.07-4.65,8.98-4.65c1.71,0,3.27,0.31,4.69,0.92c1.44,0.62,2.49,1.41,3.2,2.42c0.72,0.99,1.21,2.16,1.5,3.52
		c0.17,0.89,0.26,2.44,0.26,4.65v17.35h-4.78v-17.17c0-1.94-0.18-3.4-0.56-4.37c-0.37-0.96-1.03-1.74-1.98-2.31
		c-0.95-0.58-2.06-0.87-3.33-0.87c-2.04,0-3.79,0.65-5.28,1.94c-1.48,1.3-2.22,3.75-2.22,7.36v15.41H95.46z M82.32,771.68h5.16
		v22.51c0,3.91-0.45,7.02-1.34,9.32c-0.89,2.3-2.48,4.17-4.8,5.61c-2.31,1.45-5.34,2.16-9.09,2.16c-3.65,0-6.64-0.63-8.96-1.89
		c-2.32-1.25-3.98-3.07-4.96-5.46c-1-2.38-1.49-5.63-1.49-9.76v-22.51H62v22.48c0,3.39,0.32,5.88,0.95,7.47
		c0.63,1.61,1.71,2.84,3.24,3.71c1.53,0.87,3.41,1.31,5.62,1.31c3.79,0,6.49-0.87,8.11-2.59c1.61-1.71,2.42-5.01,2.42-9.9V771.68z"
		/>
	<path d="M995.22,734.23v-29.77h5.93l7.04,21.08c0.65,1.96,1.13,3.43,1.42,4.41c0.34-1.09,0.87-2.68,1.59-4.78l7.13-20.71h5.3v29.77
		h-3.8v-24.92l-8.65,24.92h-3.55l-8.61-25.34v25.34H995.22z M966.27,724.66l3.71-0.32c0.18,1.49,0.59,2.7,1.23,3.67
		c0.64,0.95,1.64,1.72,2.99,2.31c1.35,0.59,2.87,0.88,4.57,0.88c1.51,0,2.83-0.22,3.98-0.66c1.15-0.45,2.01-1.06,2.57-1.84
		c0.57-0.78,0.85-1.63,0.85-2.55c0-0.93-0.28-1.74-0.82-2.44c-0.54-0.7-1.44-1.28-2.67-1.75c-0.81-0.32-2.57-0.8-5.3-1.46
		c-2.73-0.66-4.65-1.28-5.75-1.86c-1.42-0.74-2.48-1.67-3.18-2.77c-0.7-1.1-1.04-2.34-1.04-3.7c0-1.5,0.42-2.91,1.28-4.21
		c0.85-1.31,2.1-2.3,3.74-2.98c1.64-0.67,3.46-1.02,5.46-1.02c2.21,0,4.15,0.36,5.85,1.07c1.68,0.71,2.98,1.76,3.89,3.13
		c0.9,1.38,1.39,2.95,1.46,4.69l-3.77,0.29c-0.21-1.88-0.89-3.31-2.07-4.26c-1.17-0.97-2.9-1.44-5.18-1.44
		c-2.39,0-4.12,0.44-5.22,1.31c-1.09,0.88-1.64,1.93-1.64,3.15c0,1.08,0.39,1.96,1.16,2.64c0.76,0.7,2.74,1.4,5.94,2.12
		c3.2,0.74,5.4,1.36,6.59,1.9c1.73,0.8,3.02,1.82,3.84,3.04c0.82,1.23,1.23,2.64,1.23,4.24c0,1.59-0.45,3.08-1.36,4.48
		c-0.91,1.4-2.21,2.49-3.9,3.27c-1.7,0.78-3.61,1.17-5.74,1.17c-2.7,0-4.95-0.39-6.77-1.18c-1.83-0.78-3.26-1.96-4.29-3.54
		C966.86,728.44,966.31,726.66,966.27,724.66z"/>
</g>
</svg>
